<svg width="170" height="106" xmlns="http://www.w3.org/2000/svg"><defs><linearGradient x1="50%" y1="50%" x2="50%" y2="430.015%" id="a"><stop stop-color="#EBF3FA" offset="0%"/><stop stop-color="#0071BB" offset="100%"/></linearGradient></defs><g fill="none" fill-rule="evenodd"><g transform="translate(31.875)"><ellipse fill="#F9FCFF" cx="53.125" cy="53" rx="52.03" ry="51.907"/><path d="M53.125 0C23.785 0 0 23.729 0 53s23.785 53 53.125 53 53.125-23.729 53.125-53S82.465 0 53.125 0zm-.548 4.371c27.223 0 49.292 22.017 49.292 49.175 0 27.16-22.069 49.176-49.292 49.176-27.222 0-49.29-22.017-49.29-49.176 0-27.158 22.068-49.175 49.29-49.175z" fill="url(#a)" fill-rule="nonzero" transform="matrix(-1 0 0 1 106.25 0)"/></g><g transform="translate(0 31.8)"><rect fill="#EBF3FA" width="170" height="29.68" rx="13.5"/><path d="M13.772 20.065l2.154-3.685 2.14 3.62 2.025-1.453-2.605-3.196 3.689-1.096-.697-2.245-3.65 1.638.349-4.107h-2.464l.284 4.094-3.572-1.598-.8 2.245 3.792 1.083-2.67 3.261 2.025 1.44zm12.66 0l2.153-3.685L30.726 20l2.025-1.453-2.605-3.196 3.688-1.096-.696-2.245-3.65 1.638.348-4.107h-2.463l.284 4.094-3.573-1.598-.8 2.245 3.792 1.083-2.67 3.261 2.025 1.44zm12.659 0l2.154-3.685 2.14 3.62 2.025-1.453-2.605-3.196 3.689-1.096-.697-2.245-3.65 1.638.349-4.107h-2.464l.284 4.094-3.572-1.598-.8 2.245 3.792 1.083-2.67 3.261 2.025 1.44zm12.66 0l2.153-3.685L56.045 20l2.025-1.453-2.605-3.196 3.688-1.096-.696-2.245-3.65 1.638.348-4.107h-2.463l.284 4.094-3.573-1.598-.8 2.245 3.792 1.083-2.67 3.261 2.026 1.44zm12.66 0l2.153-3.685 2.14 3.62 2.026-1.453-2.606-3.196 3.689-1.096-.696-2.245-3.65 1.638.348-4.107h-2.463l.283 4.094-3.572-1.598-.8 2.245 3.792 1.083-2.67 3.261 2.025 1.44zm12.659 0l2.153-3.685L81.364 20l2.025-1.453-2.605-3.196 3.689-1.096-.697-2.245-3.65 1.638.348-4.107h-2.463l.284 4.094-3.573-1.598-.8 2.245 3.793 1.083-2.67 3.261 2.025 1.44zm11.604 0l2.154-3.685L92.97 20l2.025-1.453-2.605-3.196 3.688-1.096-.696-2.245-3.65 1.638.348-4.107h-2.463l.284 4.094-3.573-1.598-.8 2.245 3.792 1.083-2.67 3.261 2.025 1.44zm12.66 0l2.154-3.685 2.14 3.619 2.025-1.453-2.605-3.196 3.689-1.096-.697-2.245-3.65 1.638.349-4.107h-2.464l.284 4.094-3.572-1.598-.8 2.245 3.792 1.083-2.67 3.261 2.025 1.44zm12.66 0l2.153-3.685 2.141 3.62 2.025-1.453-2.605-3.196 3.688-1.096-.696-2.245-3.65 1.638.348-4.107h-2.463l.284 4.094-3.573-1.598-.8 2.245 3.792 1.083-2.67 3.261 2.025 1.44zm12.659 0l2.154-3.685 2.14 3.619 2.026-1.453-2.606-3.196 3.689-1.096-.697-2.245-3.65 1.638.349-4.107h-2.463l.283 4.094-3.572-1.598-.8 2.245 3.792 1.083-2.67 3.261 2.025 1.44zm12.66 0l2.153-3.685 2.141 3.62 2.025-1.453-2.605-3.196 3.688-1.096-.696-2.245-3.65 1.638.348-4.107h-2.463l.284 4.094-3.573-1.598-.8 2.245 3.792 1.083-2.67 3.261 2.026 1.44zm12.66 0l2.153-3.685 2.14 3.619 2.026-1.453-2.606-3.196 3.689-1.096-.696-2.245-3.65 1.638.348-4.107h-2.463l.283 4.094-3.572-1.598-.8 2.245 3.792 1.083-2.67 3.261 2.025 1.44z" fill="#112E51" fill-rule="nonzero"/><rect fill="#A6D5AF" x="49.938" y="34.98" width="31.875" height="7.42" rx="2"/><rect fill="#A6D5AF" x="11.688" y="34.98" width="31.875" height="7.42" rx="2"/><rect fill="#A6D5AF" x="88.188" y="34.98" width="31.875" height="7.42" rx="2"/><rect fill="#A6D5AF" x="126.438" y="34.98" width="31.875" height="7.42" rx="2"/></g><ellipse fill="#FCF197" cx="132.281" cy="32.33" rx="5.844" ry="5.83"/></g></svg>