<svg width="170" height="106" viewBox="0 0 170 106" fill="none" xmlns="http://www.w3.org/2000/svg"><path d="M85 104.907c28.735 0 52.03-23.24 52.03-51.907 0-28.667-23.295-51.907-52.03-51.907S32.97 24.333 32.97 53c0 28.668 23.295 51.907 52.03 51.907z" fill="#F9FCFF"/><path d="M85 0c29.34 0 53.125 23.729 53.125 53S114.34 106 85 106 31.875 82.271 31.875 53 55.66 0 85 0zm.548 4.371c-27.223 0-49.292 22.017-49.292 49.175 0 27.16 22.069 49.176 49.292 49.176 27.222 0 49.29-22.017 49.29-49.176 0-27.158-22.068-49.175-49.29-49.175z" fill="url(#paint0_linear)"/><path d="M156.5 31.8h-143C6.044 31.8 0 37.844 0 45.3v2.68c0 7.456 6.044 13.5 13.5 13.5h143c7.456 0 13.5-6.044 13.5-13.5V45.3c0-7.456-6.044-13.5-13.5-13.5z" fill="#EBF3FA"/><path d="M13.772 51.865l2.154-3.685 2.14 3.62 2.025-1.453-2.605-3.196 3.689-1.096-.697-2.245-3.65 1.638.349-4.107h-2.464l.284 4.094-3.572-1.598-.8 2.245 3.792 1.083-2.67 3.261 2.025 1.44zm12.66 0l2.153-3.685 2.141 3.62 2.025-1.453-2.605-3.196 3.688-1.096-.696-2.245-3.65 1.638.348-4.107h-2.463l.284 4.094-3.573-1.598-.8 2.245 3.792 1.083-2.67 3.261 2.025 1.44h.001zm12.659 0l2.154-3.685 2.14 3.62 2.025-1.453-2.605-3.196 3.689-1.096-.697-2.245-3.65 1.638.349-4.107h-2.464l.284 4.094-3.572-1.598-.8 2.245 3.792 1.083-2.67 3.261 2.025 1.44zm12.66 0l2.153-3.685 2.141 3.62 2.025-1.453-2.605-3.196 3.688-1.096-.696-2.245-3.65 1.638.348-4.107h-2.463l.284 4.094-3.573-1.598-.8 2.245 3.792 1.083-2.67 3.261 2.026 1.44zm12.66 0l2.153-3.685 2.14 3.62 2.026-1.453-2.606-3.196 3.689-1.096-.696-2.245-3.65 1.638.348-4.107h-2.463l.283 4.094-3.572-1.598-.8 2.245 3.792 1.083-2.67 3.261 2.025 1.44h.001zm12.659 0l2.153-3.685 2.141 3.62 2.025-1.453-2.605-3.196 3.689-1.096-.697-2.245-3.65 1.638.348-4.107h-2.463l.284 4.094-3.573-1.598-.8 2.245 3.793 1.083-2.67 3.261 2.025 1.44zm11.604 0l2.154-3.685 2.142 3.62 2.025-1.453-2.605-3.196 3.688-1.096-.696-2.245-3.65 1.638.348-4.107h-2.463l.284 4.094-3.573-1.598-.8 2.245 3.792 1.083-2.67 3.261 2.025 1.44h-.001zm12.66 0l2.154-3.685 2.14 3.62 2.025-1.454-2.605-3.196 3.689-1.096-.697-2.245-3.65 1.638.349-4.107h-2.464l.284 4.094-3.572-1.598-.8 2.245 3.792 1.083-2.67 3.261 2.025 1.44zm12.66 0l2.153-3.685 2.141 3.62 2.025-1.453-2.605-3.196 3.688-1.096-.696-2.245-3.65 1.638.348-4.107h-2.463l.284 4.094-3.573-1.598-.8 2.245 3.792 1.083-2.67 3.261 2.025 1.44h.001zm12.659 0l2.154-3.685 2.14 3.62 2.026-1.454-2.606-3.196 3.689-1.096-.697-2.245-3.65 1.638.349-4.107h-2.463l.283 4.094-3.572-1.598-.8 2.245 3.792 1.083-2.67 3.261 2.025 1.44zm12.66 0l2.153-3.685 2.141 3.62 2.025-1.453-2.605-3.196 3.688-1.096-.696-2.245-3.65 1.638.348-4.107h-2.463l.284 4.094-3.573-1.598-.8 2.245 3.792 1.083-2.67 3.261 2.026 1.44zm12.66 0l2.153-3.685 2.14 3.62 2.026-1.454-2.606-3.196 3.689-1.096-.696-2.245-3.65 1.638.348-4.107h-2.463l.283 4.094-3.572-1.598-.8 2.245 3.792 1.083-2.67 3.261 2.025 1.44h.001z" fill="#112E51"/><path d="M79.813 66.78H51.938a2 2 0 00-2 2v3.42a2 2 0 002 2h27.875a2 2 0 002-2v-3.42a2 2 0 00-2-2zm-38.25 0H13.688a2 2 0 00-2 2v3.42a2 2 0 002 2h27.875a2 2 0 002-2v-3.42a2 2 0 00-2-2zm76.5 0H90.188a2 2 0 00-2 2v3.42a2 2 0 002 2h27.875a2 2 0 002-2v-3.42a2 2 0 00-2-2zm38.25 0h-27.875a2 2 0 00-2 2v3.42a2 2 0 002 2h27.875a2 2 0 002-2v-3.42a2 2 0 00-2-2z" fill="#A6D5AF"/><path d="M132.281 38.16c3.228 0 5.844-2.61 5.844-5.83s-2.616-5.83-5.844-5.83-5.844 2.61-5.844 5.83 2.616 5.83 5.844 5.83z" fill="#FCF197"/><defs><linearGradient id="paint0_linear" x1="85" y1="53" x2="85" y2="455.816" gradientUnits="userSpaceOnUse"><stop stop-color="#EBF3FA"/><stop offset="1" stop-color="#0071BB"/></linearGradient></defs></svg>