<?xml version="1.0" encoding="UTF-8"?>
<svg width="735px" height="497px" viewBox="0 0 735 497" version="1.1" xmlns="http://www.w3.org/2000/svg" xmlns:xlink="http://www.w3.org/1999/xlink">
    <title>who-uses-illo-header</title>
    <g id="who-uses-illo-header" stroke="none" stroke-width="1" fill="none" fill-rule="evenodd">
        <path d="M358,130 C358,130.337534 358.016723,130.671162 358.049385,131.000101 L258.950615,131.000101 C258.983277,130.671162 259,130.337534 259,130 C259,129.662466 258.983277,129.328838 258.950615,128.999899 L358.049385,128.999899 C358.016723,129.328838 358,129.662466 358,130 Z M369.000101,20.9506147 L369.000101,120.049385 C368.671162,120.016723 368.337534,120 368,120 C367.662466,120 367.328838,120.016723 366.999899,120.049385 L366.999899,20.9506147 C367.328838,20.9832771 367.662466,21 368,21 C368.337534,21 368.671162,20.9832771 369.000101,20.9506147 Z M250.000101,20.9506147 L250.000101,120.049385 C249.671162,120.016723 249.337534,120 249,120 C248.662258,120 248.328427,120.016743 247.999292,120.049446 L247.999292,20.9505544 C248.328427,20.9832565 248.662258,21 249,21 C249.337534,21 249.671162,20.9832771 250.000101,20.9506147 Z M358.049446,9.99929175 C358.016743,10.3284273 358,10.6622583 358,11 C358,11.3375339 358.016723,11.671162 358.049385,12.0001009 L258.950615,12.0001009 C258.983277,11.671162 259,11.3375339 259,11 C259,10.6622583 258.983257,10.3284273 258.950554,9.99929175 L358.049446,9.99929175 Z" id="Combined-Shape" fill="#0071BB" fill-rule="nonzero"></path>
        <path d="M596,130 C596,130.337534 596.016723,130.671162 596.049385,131.000101 L496.950615,131.000101 C496.983277,130.671162 497,130.337534 497,130 C497,129.662466 496.983277,129.328838 496.950615,128.999899 L596.049385,128.999899 C596.016723,129.328838 596,129.662466 596,130 Z M607.000101,20.9506147 L607.000101,120.049385 C606.671162,120.016723 606.337534,120 606,120 C605.662466,120 605.328838,120.016723 604.999899,120.049385 L604.999899,20.9506147 C605.328838,20.9832771 605.662466,21 606,21 C606.337534,21 606.671162,20.9832771 607.000101,20.9506147 Z M488.000101,20.9506147 L488.000101,120.049385 C487.671162,120.016723 487.337534,120 487,120 C486.662258,120 486.328427,120.016743 485.999292,120.049446 L485.999292,20.9505544 C486.328427,20.9832565 486.662258,21 487,21 C487.337534,21 487.671162,20.9832771 488.000101,20.9506147 Z M596.049446,9.99929175 C596.016743,10.3284273 596,10.6622583 596,11 C596,11.3375339 596.016723,11.671162 596.049385,12.0001009 L496.950615,12.0001009 C496.983277,11.671162 497,11.3375339 497,11 C497,10.6622583 496.983257,10.3284273 496.950554,9.99929175 L596.049446,9.99929175 Z" id="Combined-Shape" fill="#0071BB" fill-rule="nonzero"></path>
        <path d="M496.950615,366.999899 L596.049385,366.999899 C596.016723,367.328838 596,367.662466 596,368 C596,368.337534 596.016723,368.671162 596.049385,369.000101 L496.950615,369.000101 C496.983277,368.671162 497,368.337534 497,368 C497,367.662466 496.983277,367.328838 496.950615,366.999899 Z M488.000101,258.950615 L488.000101,358.049385 C487.671162,358.016723 487.337534,358 487,358 C486.662258,358 486.328427,358.016743 485.999292,358.049446 L485.999292,258.950554 C486.328427,258.983257 486.662258,259 487,259 C487.337534,259 487.671162,258.983277 488.000101,258.950615 Z M607.0011,258.950516 L607.0011,358.049484 C606.671837,358.016757 606.337876,358 606,358 C605.662466,358 605.328838,358.016723 604.999899,358.049385 L604.999899,258.950615 C605.328838,258.983277 605.662466,259 606,259 C606.337876,259 606.671837,258.983243 607.0011,258.950516 Z M596.049446,247.999292 C596.016743,248.328427 596,248.662258 596,249 C596,249.337534 596.016723,249.671162 596.049385,250.000101 L496.950615,250.000101 C496.983277,249.671162 497,249.337534 497,249 C497,248.662258 496.983257,248.328427 496.950554,247.999292 L596.049446,247.999292 Z" id="Combined-Shape" fill="#0071BB" fill-rule="nonzero"></path>
        <path d="M377.950615,247.999899 L477.049385,247.999899 L477.034275,248.166094 C477.031506,248.199634 477.028903,248.233221 477.026466,248.266855 L477.017572,248.40222 L477.017572,248.40222 C477.005897,248.600493 477,248.799558 477,249 C477,249.199764 477.005857,249.39816 477.01741,249.595025 L477.021797,249.665555 L477.021797,249.665555 L477.034275,249.833906 L477.049385,250.000101 L377.950615,250.000101 C377.983277,249.671162 378,249.337534 378,249 C378,248.662466 377.983277,248.328838 377.950615,247.999899 Z M369.000101,139.950615 L369.000101,239.049385 C368.671162,239.016723 368.337534,239 368,239 C367.662258,239 367.328427,239.016743 366.999292,239.049446 L366.999292,139.950554 C367.328427,139.983257 367.662258,140 368,140 C368.337534,140 368.671162,139.983277 369.000101,139.950615 Z M488.000101,139.950615 L488.000101,239.049385 L487.974122,239.04684 L487.85533,239.036067 L487.85533,239.036067 L487.775292,239.029292 L487.595008,239.017409 L487.595008,239.017409 C487.538193,239.014075 487.481233,239.011215 487.42415,239.008833 C487.389682,239.007394 487.354991,239.006124 487.320255,239.005031 C487.21376,239.001683 487.107076,239 487,239 L486.719292,239.003292 L486.710292,239.003292 L486.578418,239.008726 L486.578418,239.008726 C486.520091,239.011142 486.461462,239.014084 486.402969,239.017528 C486.35681,239.020249 486.311483,239.023229 486.266238,239.026511 C486.18626,239.032306 486.105931,239.039101 486.025878,239.04684 L485.999899,239.049385 L485.999899,139.950615 C486.328838,139.983277 486.662466,140 487,140 C487.337534,140 487.671162,139.983277 488.000101,139.950615 Z M477.049446,128.999292 C477.016743,129.328427 477,129.662258 477,130 C477,130.337534 477.016723,130.671162 477.049385,131.000101 L377.950615,131.000101 C377.983277,130.671162 378,130.337534 378,130 C378,129.662258 377.983257,129.328427 377.950554,128.999292 L477.049446,128.999292 Z" id="Combined-Shape" fill="#0071BB" fill-rule="nonzero"></path>
        <path d="M131.000101,139.950615 L131,248 L239.049385,247.999899 C239.016723,248.328838 239,248.662466 239,249 C239,249.337534 239.016723,249.671162 239.049385,250.000101 L129,250 L128.999292,139.950554 L129.05949,139.956353 C129.13106,139.963029 129.202848,139.96895 129.274848,139.97411 L129.256292,139.971292 L129.369766,139.980462 C129.432064,139.984336 129.494386,139.987633 129.556857,139.990357 C129.608325,139.992604 129.660353,139.994474 129.712482,139.995946 C129.808386,139.998648 129.904035,140 130,140 L130.273292,139.995292 L130.168292,139.997292 L130.222257,139.997579 L130.280292,139.995292 L130.283292,139.995292 L130.44333,139.990349 L130.630104,139.98047 C130.661578,139.978514 130.693268,139.976394 130.724916,139.974127 C130.797692,139.968912 130.870018,139.96294 130.942122,139.956202 L131.000101,139.950615 Z M250.000101,139.950615 L250.000101,239.049385 C249.671162,239.016723 249.337534,239 249,239 C248.662466,239 248.328838,239.016723 247.999899,239.049385 L247.999899,139.950615 C248.328838,139.983277 248.662466,140 249,140 C249.337534,140 249.671162,139.983277 250.000101,139.950615 Z M239.049446,128.999292 C239.016743,129.328427 239,129.662258 239,130 C239,130.337534 239.016723,130.671162 239.049385,131.000101 L139.950615,131.000101 L139.955292,130.941292 L139.956292,130.933292 L139.965733,130.833801 L139.966292,130.815292 L139.964292,130.833292 L139.97411,130.725152 L139.980486,130.629849 C139.984336,130.567936 139.987633,130.505614 139.990357,130.443143 C139.996761,130.296354 140,130.148555 140,130 C140,129.851353 139.996757,129.703464 139.990337,129.556399 C139.987633,129.494386 139.984336,129.432064 139.98047,129.369896 C139.978488,129.338018 139.976365,129.306309 139.974095,129.274641 C139.96895,129.202848 139.963029,129.13106 139.956353,129.05949 L139.950554,128.999292 L239.049446,128.999292 Z" id="Combined-Shape" fill="#0071BB" fill-rule="nonzero"></path>
        <path d="M120,487 C120,487.337534 120.016723,487.671162 120.049385,488.000101 L20.9506147,488.000101 C20.9832771,487.671162 21,487.337534 21,487 C21,486.662466 20.9832771,486.328838 20.9506147,485.999899 L120.049385,485.999899 C120.016723,486.328838 120,486.662466 120,487 Z M131.000101,377.950615 L131.000101,477.049385 C130.671162,477.016723 130.337534,477 130,477 C129.662466,477 129.328838,477.016723 128.999899,477.049385 L128.999899,377.950615 C129.328838,377.983277 129.662466,378 130,378 C130.337534,378 130.671162,377.983277 131.000101,377.950615 Z M12.0001009,377.950615 L12.0001009,477.049385 C11.671162,477.016723 11.3375339,477 11,477 C10.6622583,477 10.3284273,477.016743 9.99929175,477.049446 L9.99929175,377.950554 C10.3284273,377.983257 10.6622583,378 11,378 C11.3375339,378 11.671162,377.983277 12.0001009,377.950615 Z M120.049446,366.999292 C120.016743,367.328427 120,367.662258 120,368 C120,368.337534 120.016723,368.671162 120.049385,369.000101 L20.9506147,369.000101 C20.9832771,368.671162 21,368.337534 21,368 C21,367.662258 20.9832565,367.328427 20.9505544,366.999292 L120.049446,366.999292 Z" id="Combined-Shape" fill="#0071BB" fill-rule="nonzero"></path>
        <path d="M120,368 C120,368.337534 120.016723,368.671162 120.049385,369.000101 L20.9506147,369.000101 C20.9832771,368.671162 21,368.337534 21,368 C21,367.662466 20.9832771,367.328838 20.9506147,366.999899 L120.049385,366.999899 C120.016723,367.328838 120,367.662466 120,368 Z M131,248 L131.000101,358.049385 C130.671162,358.016723 130.337534,358 130,358 C129.662466,358 129.328838,358.016723 128.999899,358.049385 L129,250 L20.9506147,250.000101 C20.9832771,249.671162 21,249.337534 21,249 C21,248.662258 20.9832565,248.328427 20.9505544,247.999292 L131,248 Z M12.0001009,258.950615 L12.0001009,358.049385 C11.671162,358.016723 11.3375339,358 11,358 C10.6622583,358 10.3284273,358.016743 9.99929175,358.049446 L9.99929175,258.950554 C10.3284273,258.983257 10.6622583,259 11,259 C11.3375339,259 11.671162,258.983277 12.0001009,258.950615 Z" id="Combined-Shape" fill="#0071BB" fill-rule="nonzero"></path>
        <path d="M358.049385,366.999899 C358.016723,367.328838 358,367.662466 358,368 C358,368.337534 358.016723,368.671162 358.049385,369.000101 L258.950615,369.000101 C258.983277,368.671162 259,368.337534 259,368 C259,367.662466 258.983277,367.328838 258.950615,366.999899 L358.049385,366.999899 Z M250.000101,258.950615 L250.000101,358.049385 C249.671162,358.016723 249.337534,358 249,358 C248.662258,358 248.328427,358.016743 247.999292,358.049446 L247.999292,258.950554 C248.328427,258.983257 248.662258,259 249,259 C249.337534,259 249.671162,258.983277 250.000101,258.950615 Z M369.0011,258.950516 L369.0011,358.049484 C368.671837,358.016757 368.337876,358 368,358 C367.662466,358 367.328838,358.016723 366.999899,358.049385 L366.999899,258.950615 C367.328838,258.983277 367.662466,259 368,259 C368.337876,259 368.671837,258.983243 369.0011,258.950516 Z M358.049446,247.999292 C358.016743,248.328427 358,248.662258 358,249 C358,249.337534 358.016723,249.671162 358.049385,250.000101 L258.950615,250.000101 C258.983277,249.671162 259,249.337534 259,249 C259,248.662258 258.983257,248.328427 258.950554,247.999292 L358.049446,247.999292 Z" id="Combined-Shape" fill="#0071BB" fill-rule="nonzero"></path>
        <path d="M358,487 C358,487.337534 358.016723,487.671162 358.049385,488.000101 L258.950615,488.000101 C258.983277,487.671162 259,487.337534 259,487 C259,486.662466 258.983277,486.328838 258.950615,485.999899 L358.049385,485.999899 C358.016723,486.328838 358,486.662466 358,487 Z M369.0011,377.950516 L369.000101,477.049385 C368.671162,477.016723 368.337534,477 368,477 C367.662466,477 367.328838,477.016723 366.999899,477.049385 L366.999899,377.950615 C367.328838,377.983277 367.662466,378 368,378 C368.337876,378 368.671837,377.983243 369.0011,377.950516 Z M250.000101,377.950615 L250.000101,477.049385 C249.671162,477.016723 249.337534,477 249,477 C248.662258,477 248.328427,477.016743 247.999292,477.049446 L247.999292,377.950554 C248.328427,377.983257 248.662258,378 249,378 C249.337534,378 249.671162,377.983277 250.000101,377.950615 Z M358.049446,366.999292 C358.016743,367.328427 358,367.662258 358,368 C358,368.337534 358.016723,368.671162 358.049385,369.000101 L258.950615,369.000101 C258.983277,368.671162 259,368.337534 259,368 C259,367.662258 258.983257,367.328427 258.950554,366.999292 L358.049446,366.999292 Z" id="Combined-Shape" fill="#0071BB" fill-rule="nonzero"></path>
        <path d="M615.950615,366.999899 L715.049385,366.999899 C715.016723,367.328838 715,367.662466 715,368 C715,368.337534 715.016723,368.671162 715.049385,369.000101 L615.950615,369.000101 C615.983277,368.671162 616,368.337534 616,368 C616,367.662466 615.983277,367.328838 615.950615,366.999899 Z M606.168292,258.997292 L606.222257,258.997579 L606.222257,258.997579 L606.280292,258.995292 L606.283292,258.995292 L606.44333,258.990349 L606.44333,258.990349 L606.630104,258.98047 L606.630104,258.98047 C606.661578,258.978514 606.693268,258.976394 606.724916,258.974127 C606.797692,258.968912 606.870018,258.96294 606.942122,258.956202 L607.000101,258.950615 L607.000101,358.049385 C606.671162,358.016723 606.337534,358 606,358 C605.662258,358 605.328427,358.016743 604.999292,358.049446 L604.999292,258.950554 L605.05949,258.956353 C605.13106,258.963029 605.202848,258.96895 605.274848,258.97411 L605.256292,258.971292 L605.369766,258.980462 L605.369766,258.980462 C605.432064,258.984336 605.494386,258.987633 605.556857,258.990357 C605.608325,258.992604 605.660353,258.994474 605.712482,258.995946 C605.808386,258.998648 605.904035,259 606,259 L606.273292,258.995292 L606.168292,258.997292 Z M726.0011,258.950516 L726.0011,358.049484 C725.671837,358.016757 725.337876,358 725,358 C724.662466,358 724.328838,358.016723 723.999899,358.049385 L723.999899,258.950615 C724.328838,258.983277 724.662466,259 725,259 C725.337876,259 725.671837,258.983243 726.0011,258.950516 Z M615.97411,249.725152 L615.980486,249.629849 L615.980486,249.629849 C615.984336,249.567936 615.987633,249.505614 615.990357,249.443143 C615.996761,249.296354 616,249.148555 616,249 C616,248.851353 615.996757,248.703464 615.990337,248.556399 C615.987633,248.494386 615.984336,248.432064 615.98047,248.369896 C615.978488,248.338018 615.976365,248.306309 615.974095,248.274641 C615.96895,248.202848 615.963029,248.13106 615.956353,248.05949 L615.950554,247.999292 L715.049446,247.999292 C715.016743,248.328427 715,248.662258 715,249 C715,249.337534 715.016723,249.671162 715.049385,250.000101 L615.950615,250.000101 L615.955292,249.941292 L615.956292,249.933292 L615.965733,249.833801 L615.965733,249.833801 L615.966292,249.815292 L615.964292,249.833292 L615.97411,249.725152 L615.97411,249.725152 Z" id="Combined-Shape" fill="#0071BB" fill-rule="nonzero"></path>
        <path d="M615.950615,247.999899 L715.049385,247.999899 C715.016723,248.328838 715,248.662466 715,249 C715,249.337534 715.016723,249.671162 715.049385,250.000101 L615.950615,250.000101 C615.983277,249.671162 616,249.337534 616,249 C616,248.662466 615.983277,248.328838 615.950615,247.999899 Z M607.000101,139.950615 L607.000101,239.049385 C606.671162,239.016723 606.337534,239 606,239 C605.662258,239 605.328427,239.016743 604.999292,239.049446 L604.999292,139.950554 C605.328427,139.983257 605.662258,140 606,140 C606.337534,140 606.671162,139.983277 607.000101,139.950615 Z M726.000101,139.950615 L726.000101,239.049385 C725.671162,239.016723 725.337534,239 725,239 C724.662466,239 724.328838,239.016723 723.999899,239.049385 L723.999899,139.950615 C724.328838,139.983277 724.662466,140 725,140 C725.337534,140 725.671162,139.983277 726.000101,139.950615 Z M715.049446,128.999292 C715.016743,129.328427 715,129.662258 715,130 C715,130.337534 715.016723,130.671162 715.049385,131.000101 L615.950615,131.000101 C615.983277,130.671162 616,130.337534 616,130 C616,129.662258 615.983257,129.328427 615.950554,128.999292 L715.049446,128.999292 Z" id="Combined-Shape" fill="#0071BB" fill-rule="nonzero"></path>
        <path d="M120,130 C120,130.337534 120.016723,130.671162 120.049385,131.000101 L20.9506147,131.000101 C20.9832771,130.671162 21,130.337534 21,130 C21,129.662466 20.9832771,129.328838 20.9506147,128.999899 L120.049385,128.999899 C120.016723,129.328838 120,129.662466 120,130 Z M131.000101,20.9506147 L131.000101,120.049385 C130.671162,120.016723 130.337534,120 130,120 C129.662466,120 129.328838,120.016723 128.999899,120.049385 L128.999899,20.9506147 C129.328838,20.9832771 129.662466,21 130,21 C130.337534,21 130.671162,20.9832771 131.000101,20.9506147 Z M12.0001009,20.9506147 L12.0001009,120.049385 C11.671162,120.016723 11.3375339,120 11,120 C10.6622583,120 10.3284273,120.016743 9.99929175,120.049446 L9.99929175,20.9505544 C10.3284273,20.9832565 10.6622583,21 11,21 C11.3375339,21 11.671162,20.9832771 12.0001009,20.9506147 Z M120.049446,9.99929175 C120.016743,10.3284273 120,10.6622583 120,11 C120,11.3375339 120.016723,11.671162 120.049385,12.0001009 L20.9506147,12.0001009 C20.9832771,11.671162 21,11.3375339 21,11 C21,10.6622583 20.9832565,10.3284273 20.9505544,9.99929175 L120.049446,9.99929175 Z" id="Combined-Shape" fill="#0071BB" fill-rule="nonzero"></path>
        <path d="M598.257747,136.329578 C598.680955,136.846626 599.154935,137.320506 599.672075,137.743606 L494.74332,242.671726 C494.320293,242.154722 493.84651,241.68086 493.329578,241.257747 L598.257747,136.329578 Z" id="Combined-Shape" fill="#0071BB" fill-rule="nonzero"></path>
        <path d="M479.257747,136.329578 C479.680955,136.846626 480.154935,137.320506 480.672075,137.743606 L375.74332,242.671726 C375.320293,242.154722 374.84651,241.68086 374.329578,241.257747 L479.257747,136.329578 Z" id="Combined-Shape" fill="#0071BB" fill-rule="nonzero"></path>
        <path d="M256.743073,136.328575 L361.671726,241.25668 L361.60148,241.314691 C361.529631,241.374575 361.458635,241.435448 361.388513,241.497288 L361.671726,241.25668 C361.554862,241.352301 361.440203,241.450516 361.327836,241.551236 C361.054891,241.795922 360.795922,242.054891 360.551682,242.327338 C360.533004,242.348176 360.514854,242.368592 360.496786,242.389082 C360.435448,242.458635 360.374575,242.529631 360.314691,242.60148 L360.25668,242.671726 L360.25668,242.671726 L255.328575,137.743073 C255.845796,137.319835 256.319835,136.845796 256.743073,136.328575 Z" id="Combined-Shape" fill="#0071BB" fill-rule="nonzero"></path>
        <path d="M360.257747,255.329578 C360.680955,255.846626 361.154935,256.320506 361.672075,256.743606 L256.74332,361.671726 C256.320293,361.154722 255.84651,360.68086 255.329578,360.257747 L360.257747,255.329578 Z" id="Combined-Shape" fill="#0071BB" fill-rule="nonzero"></path>
        <path d="M360.257747,374.329578 C360.680955,374.846626 361.154935,375.320506 361.672075,375.743606 L256.74332,480.671726 C256.320293,480.154722 255.84651,479.68086 255.329578,479.257747 L360.257747,374.329578 Z" id="Combined-Shape" fill="#0071BB" fill-rule="nonzero"></path>
        <path d="M137.743073,374.328575 L242.671726,479.25668 C242.154287,479.680063 241.680063,480.154287 241.25668,480.671726 L136.328575,375.743073 C136.845796,375.319835 137.319835,374.845796 137.743073,374.328575 Z" id="Combined-Shape" fill="#0071BB" fill-rule="nonzero"></path>
        <path d="M241.257747,255.329578 C241.680955,255.846626 242.154935,256.320506 242.672075,256.743606 L137.74332,361.671726 C137.320293,361.154722 136.84651,360.68086 136.329578,360.257747 L241.257747,255.329578 Z" id="Combined-Shape" fill="#0071BB" fill-rule="nonzero"></path>
        <path d="M122.257747,374.329578 C122.680955,374.846626 123.154935,375.320506 123.672075,375.743606 L18.74332,480.671726 C18.3202926,480.154722 17.8465097,479.68086 17.3295783,479.257747 L122.257747,374.329578 Z" id="Combined-Shape" fill="#0071BB" fill-rule="nonzero"></path>
        <path d="M18.7430734,374.328575 L123.671726,479.25668 C123.154287,479.680063 122.680063,480.154287 122.25668,480.671726 L17.3285753,375.743073 C17.8457964,375.319835 18.3198349,374.845796 18.7430734,374.328575 Z" id="Combined-Shape" fill="#0071BB" fill-rule="nonzero"></path>
        <path d="M18.7430734,136.328575 L130.707107,248.292893 L129.292893,249.707107 L17.3285753,137.743073 C17.8457964,137.319835 18.3198349,136.845796 18.7430734,136.328575 Z" id="Combined-Shape" fill="#0071BB" fill-rule="nonzero"></path>
        <path d="M613.743073,255.328575 L718.671077,360.257211 C718.154107,360.680283 717.680283,361.154107 717.257211,361.671077 L612.328575,256.743073 C612.845796,256.319835 613.319835,255.845796 613.743073,255.328575 Z" id="Combined-Shape" fill="#0071BB" fill-rule="nonzero"></path>
        <path d="M494.743073,255.328575 L599.671077,360.257211 C599.154107,360.680283 598.680283,361.154107 598.257211,361.671077 L493.328575,256.743073 C493.845796,256.319835 494.319835,255.845796 494.743073,255.328575 Z" id="Combined-Shape" fill="#0071BB" fill-rule="nonzero"></path>
        <path d="M717.257747,255.329578 C717.680955,255.846626 718.154935,256.320506 718.672075,256.743606 L613.74332,361.671726 C613.320293,361.154722 612.84651,360.68086 612.329578,360.257747 L717.257747,255.329578 Z" id="Combined-Shape" fill="#0071BB" fill-rule="nonzero"></path>
        <path d="M613.743073,136.328575 L718.671726,241.25668 C718.154287,241.680063 717.680063,242.154287 717.25668,242.671726 L612.328575,137.743073 C612.845796,137.319835 613.319835,136.845796 613.743073,136.328575 Z" id="Combined-Shape" fill="#0071BB" fill-rule="nonzero"></path>
        <path d="M717.257747,136.329578 C717.680955,136.846626 718.154935,137.320506 718.672075,137.743606 L613.74332,242.671726 C613.320293,242.154722 612.84651,241.68086 612.329578,241.257747 L717.257747,136.329578 Z" id="Combined-Shape" fill="#0071BB" fill-rule="nonzero"></path>
        <path d="M137.743073,17.3285753 L242.671726,122.25668 C242.154287,122.680063 241.680063,123.154287 241.25668,123.671726 L136.328575,18.7430734 C136.845796,18.3198349 137.319835,17.8457964 137.743073,17.3285753 Z" id="Combined-Shape" fill="#0071BB" fill-rule="nonzero"></path>
        <path d="M256.743073,17.3285753 L361.671726,122.25668 C361.154287,122.680063 360.680063,123.154287 360.25668,123.671726 L255.328575,18.7430734 C255.845796,18.3198349 256.319835,17.8457964 256.743073,17.3285753 Z" id="Combined-Shape" fill="#0071BB" fill-rule="nonzero"></path>
        <path d="M479.284906,17.3626151 C479.710232,17.8777629 480.186157,18.3495895 480.705071,18.7704851 L376.152824,124.207992 C375.763708,123.66126 375.320973,123.155342 374.83229,122.697911 L479.284906,17.3626151 Z" id="Combined-Shape" fill="#0071BB" fill-rule="nonzero"></path>
        <path d="M606,239 C600.477153,239 596,243.477153 596,249 C596,254.522847 600.477153,259 606,259 C611.522847,259 616,254.522847 616,249 C616,243.477153 611.522847,239 606,239 Z M606,241 C610.418278,241 614,244.581722 614,249 C614,253.418278 610.418278,257 606,257 C601.581722,257 598,253.418278 598,249 C598,244.581722 601.581722,241 606,241 Z" id="Oval" fill="#0071BB" fill-rule="nonzero"></path>
        <path d="M606,358 C600.477153,358 596,362.477153 596,368 C596,373.522847 600.477153,378 606,378 C611.522847,378 616,373.522847 616,368 C616,362.477153 611.522847,358 606,358 Z M606,360 C610.418278,360 614,363.581722 614,368 C614,372.418278 610.418278,376 606,376 C601.581722,376 598,372.418278 598,368 C598,363.581722 601.581722,360 606,360 Z" id="Oval" fill="#0071BB" fill-rule="nonzero"></path>
        <path d="M725,239 C719.477153,239 715,243.477153 715,249 C715,254.522847 719.477153,259 725,259 C730.522847,259 735,254.522847 735,249 C735,243.477153 730.522847,239 725,239 Z M725,241 C729.418278,241 733,244.581722 733,249 C733,253.418278 729.418278,257 725,257 C720.581722,257 717,253.418278 717,249 C717,244.581722 720.581722,241 725,241 Z" id="Oval" fill="#0071BB" fill-rule="nonzero"></path>
        <path d="M725,358 C719.477153,358 715,362.477153 715,368 C715,373.522847 719.477153,378 725,378 C730.522847,378 735,373.522847 735,368 C735,362.477153 730.522847,358 725,358 Z M725,360 C729.418278,360 733,363.581722 733,368 C733,372.418278 729.418278,376 725,376 C720.581722,376 717,372.418278 717,368 C717,363.581722 720.581722,360 725,360 Z" id="Oval" fill="#0071BB" fill-rule="nonzero"></path>
        <path d="M725,120 C719.477153,120 715,124.477153 715,130 C715,135.522847 719.477153,140 725,140 C730.522847,140 735,135.522847 735,130 C735,124.477153 730.522847,120 725,120 Z M725,122 C729.418278,122 733,125.581722 733,130 C733,134.418278 729.418278,138 725,138 C720.581722,138 717,134.418278 717,130 C717,125.581722 720.581722,122 725,122 Z" id="Oval" fill="#0071BB" fill-rule="nonzero"></path>
        <path d="M606,1 C600.477153,1 596,5.4771525 596,11 C596,16.5228475 600.477153,21 606,21 C611.522847,21 616,16.5228475 616,11 C616,5.4771525 611.522847,1 606,1 Z M606,3 C610.418278,3 614,6.581722 614,11 C614,15.418278 610.418278,19 606,19 C601.581722,19 598,15.418278 598,11 C598,6.581722 601.581722,3 606,3 Z" id="Oval" fill="#0071BB" fill-rule="nonzero"></path>
        <path d="M249,1 C243.477153,1 239,5.4771525 239,11 C239,16.5228475 243.477153,21 249,21 C254.522847,21 259,16.5228475 259,11 C259,5.4771525 254.522847,1 249,1 Z M249,3 C253.418278,3 257,6.581722 257,11 C257,15.418278 253.418278,19 249,19 C244.581722,19 241,15.418278 241,11 C241,6.581722 244.581722,3 249,3 Z" id="Oval" fill="#0071BB" fill-rule="nonzero"></path>
        <path d="M368,1 C362.477153,1 358,5.4771525 358,11 C358,16.5228475 362.477153,21 368,21 C373.522847,21 378,16.5228475 378,11 C378,5.4771525 373.522847,1 368,1 Z M368,3 C372.418278,3 376,6.581722 376,11 C376,15.418278 372.418278,19 368,19 C363.581722,19 360,15.418278 360,11 C360,6.581722 363.581722,3 368,3 Z" id="Oval" fill="#0071BB" fill-rule="nonzero"></path>
        <path d="M249,477 C243.477153,477 239,481.477153 239,487 C239,492.522847 243.477153,497 249,497 C254.522847,497 259,492.522847 259,487 C259,481.477153 254.522847,477 249,477 Z M249,479 C253.418278,479 257,482.581722 257,487 C257,491.418278 253.418278,495 249,495 C244.581722,495 241,491.418278 241,487 C241,482.581722 244.581722,479 249,479 Z" id="Oval" fill="#0071BB" fill-rule="nonzero"></path>
        <path d="M368,477 C362.477153,477 358,481.477153 358,487 C358,492.522847 362.477153,497 368,497 C373.522847,497 378,492.522847 378,487 C378,481.477153 373.522847,477 368,477 Z M368,479 C372.418278,479 376,482.581722 376,487 C376,491.418278 372.418278,495 368,495 C363.581722,495 360,491.418278 360,487 C360,482.581722 363.581722,479 368,479 Z" id="Oval" fill="#0071BB" fill-rule="nonzero"></path>
        <path d="M11,477 C5.4771525,477 1,481.477153 1,487 C1,492.522847 5.4771525,497 11,497 C16.5228475,497 21,492.522847 21,487 C21,481.477153 16.5228475,477 11,477 Z M11,479 C15.418278,479 19,482.581722 19,487 C19,491.418278 15.418278,495 11,495 C6.581722,495 3,491.418278 3,487 C3,482.581722 6.581722,479 11,479 Z" id="Oval" fill="#0071BB" fill-rule="nonzero"></path>
        <path d="M11,358 C5.4771525,358 1,362.477153 1,368 C1,373.522847 5.4771525,378 11,378 C16.5228475,378 21,373.522847 21,368 C21,362.477153 16.5228475,358 11,358 Z M11,360 C15.418278,360 19,363.581722 19,368 C19,372.418278 15.418278,376 11,376 C6.581722,376 3,372.418278 3,368 C3,363.581722 6.581722,360 11,360 Z" id="Oval" fill="#0071BB" fill-rule="nonzero"></path>
        <path d="M11,120 C5.4771525,120 1,124.477153 1,130 C1,135.522847 5.4771525,140 11,140 C16.5228475,140 21,135.522847 21,130 C21,124.477153 16.5228475,120 11,120 Z M11,122 C15.418278,122 19,125.581722 19,130 C19,134.418278 15.418278,138 11,138 C6.581722,138 3,134.418278 3,130 C3,125.581722 6.581722,122 11,122 Z" id="Oval" fill="#0071BB" fill-rule="nonzero"></path>
        <path d="M11,1 C5.4771525,1 1,5.4771525 1,11 C1,16.5228475 5.4771525,21 11,21 C16.5228475,21 21,16.5228475 21,11 C21,5.4771525 16.5228475,1 11,1 Z M11,3 C15.418278,3 19,6.581722 19,11 C19,15.418278 15.418278,19 11,19 C6.581722,19 3,15.418278 3,11 C3,6.581722 6.581722,3 11,3 Z" id="Oval" fill="#0071BB" fill-rule="nonzero"></path>
        <path d="M130,477 C124.477153,477 120,481.477153 120,487 C120,492.522847 124.477153,497 130,497 C135.522847,497 140,492.522847 140,487 C140,481.477153 135.522847,477 130,477 Z M130,479 C134.418278,479 138,482.581722 138,487 C138,491.418278 134.418278,495 130,495 C125.581722,495 122,491.418278 122,487 C122,482.581722 125.581722,479 130,479 Z" id="Oval" fill="#0071BB" fill-rule="nonzero"></path>
        <path d="M70.5,10 C37.0867726,10 10,37.0867726 10,70.5 C10,103.913227 37.0867726,131 70.5,131 C103.913227,131 131,103.913227 131,70.5 C131,37.0867726 103.913227,10 70.5,10 Z M70.5,12 C102.808658,12 129,38.1913421 129,70.5 C129,102.808658 102.808658,129 70.5,129 C38.1913421,129 12,102.808658 12,70.5 C12,38.1913421 38.1913421,12 70.5,12 Z" id="Oval" fill="#0071BB" fill-rule="nonzero"></path>
        <path d="M308.5,129 C275.086773,129 248,156.086773 248,189.5 C248,222.913227 275.086773,250 308.5,250 C341.913227,250 369,222.913227 369,189.5 C369,156.086773 341.913227,129 308.5,129 Z M308.5,131 C340.808658,131 367,157.191342 367,189.5 C367,221.808658 340.808658,248 308.5,248 C276.191342,248 250,221.808658 250,189.5 C250,157.191342 276.191342,131 308.5,131 Z" id="Oval" fill="#0071BB" fill-rule="nonzero"></path>
        <path d="M308.5,248 C275.086773,248 248,275.086773 248,308.5 C248,341.913227 275.086773,369 308.5,369 C341.913227,369 369,341.913227 369,308.5 C369,275.086773 341.913227,248 308.5,248 Z M308.5,250 C340.808658,250 367,276.191342 367,308.5 C367,340.808658 340.808658,367 308.5,367 C276.191342,367 250,340.808658 250,308.5 C250,276.191342 276.191342,250 308.5,250 Z" id="Oval" fill="#0071BB" fill-rule="nonzero"></path>
        <path d="M546.5,129 C513.086773,129 486,156.086773 486,189.5 C486,222.913227 513.086773,250 546.5,250 C579.913227,250 607,222.913227 607,189.5 C607,156.086773 579.913227,129 546.5,129 Z M546.5,131 C578.808658,131 605,157.191342 605,189.5 C605,221.808658 578.808658,248 546.5,248 C514.191342,248 488,221.808658 488,189.5 C488,157.191342 514.191342,131 546.5,131 Z" id="Oval" fill="#0071BB" fill-rule="nonzero"></path>
        <path d="M665.5,129 C632.086773,129 605,156.086773 605,189.5 C605,222.913227 632.086773,250 665.5,250 C698.913227,250 726,222.913227 726,189.5 C726,156.086773 698.913227,129 665.5,129 Z M665.5,131 C697.808658,131 724,157.191342 724,189.5 C724,221.808658 697.808658,248 665.5,248 C633.191342,248 607,221.808658 607,189.5 C607,157.191342 633.191342,131 665.5,131 Z" id="Oval" fill="#0071BB" fill-rule="nonzero"></path>
        <path d="M546.5,10 C513.086773,10 486,37.0867726 486,70.5 C486,103.913227 513.086773,131 546.5,131 C579.913227,131 607,103.913227 607,70.5 C607,37.0867726 579.913227,10 546.5,10 Z M546.5,12 C578.808658,12 605,38.1913421 605,70.5 C605,102.808658 578.808658,129 546.5,129 C514.191342,129 488,102.808658 488,70.5 C488,38.1913421 514.191342,12 546.5,12 Z" id="Oval" fill="#0071BB" fill-rule="nonzero"></path>
        <path d="M376.343619,254.514157 L481.48462,359.657191 C480.363111,360.400105 479.400105,361.363111 478.657191,362.48462 L373.514157,257.343619 C374.636597,256.600325 375.600325,255.636597 376.343619,254.514157 Z" id="Combined-Shape" fill="#E21C3D" fill-rule="nonzero"></path>
        <path d="M239,249 C239,249.685037 239.068882,250.353986 239.200097,251.000299 L130,251 L130,247 L239.200097,246.999701 C239.068882,247.646014 239,248.314963 239,249 Z M358.200097,246.999701 C358.068882,247.646014 358,248.314963 358,249 C358,249.685037 358.068882,250.353986 358.200097,251.000299 L258.799903,251.000299 C258.931118,250.353986 259,249.685037 259,249 C259,248.314963 258.931118,247.646014 258.799903,246.999701 L358.200097,246.999701 Z" id="Combined-Shape" fill="#E21C3D" fill-rule="nonzero"></path>
        <path d="M359.657705,135.516156 C360.400769,136.637665 361.363939,137.600636 362.485614,138.343468 L257.344127,243.486609 C256.600984,242.364175 255.637424,241.400416 254.515157,240.657043 L359.657705,135.516156 Z" id="Combined-Shape" fill="#E21C3D" fill-rule="nonzero"></path>
        <path d="M243.485614,138.343468 L131.414214,250.414214 L128.585786,247.585786 L240.657705,135.516156 C241.400769,136.637665 242.363939,137.600636 243.485614,138.343468 Z" id="Combined-Shape" fill="#E21C3D" fill-rule="nonzero"></path>
        <path d="M121.657705,135.516156 C122.400769,136.637665 123.363939,137.600636 124.485614,138.343468 L19.3441266,243.486609 C18.6009843,242.364175 17.6374244,241.400416 16.5151567,240.657043 L121.657705,135.516156 Z" id="Combined-Shape" fill="#E21C3D" fill-rule="nonzero"></path>
        <path d="M19.343619,254.514157 L124.485614,359.656532 C123.363348,360.399755 122.399755,361.363348 121.656532,362.485614 L16.5141575,257.343619 C17.636597,256.600325 18.600325,255.636597 19.343619,254.514157 Z" id="Combined-Shape" fill="#E21C3D" fill-rule="nonzero"></path>
        <path d="M132,249 L132.000299,358.200097 C131.353986,358.068882 130.685037,358 130,358 C129.314963,358 128.646014,358.068882 127.999701,358.200097 L128,249 L132,249 Z" id="Combined-Shape" fill="#E21C3D" fill-rule="nonzero"></path>
        <path d="M239.200097,365.999701 C239.068882,366.646014 239,367.314963 239,368 C239,368.685037 239.068882,369.353986 239.200097,370.000299 L139.799903,370.000299 C139.931118,369.353986 140,368.685037 140,368 C140,367.314963 139.931118,366.646014 139.799903,365.999701 L239.200097,365.999701 Z" id="Combined-Shape" fill="#E21C3D" fill-rule="nonzero"></path>
        <path d="M477.200097,365.999701 C477.068882,366.646014 477,367.314963 477,368 C477,368.685037 477.068882,369.353986 477.200097,370.000299 L377.799903,370.000299 C377.931118,369.353986 378,368.685037 378,368 C378,367.314963 377.931118,366.646014 377.799903,365.999701 L477.200097,365.999701 Z" id="Combined-Shape" fill="#E21C3D" fill-rule="nonzero"></path>
        <path d="M489.000299,258.799903 L489.000299,358.200097 C488.353986,358.068882 487.685037,358 487,358 C486.314963,358 485.646014,358.068882 484.999701,358.200097 L484.999701,258.799903 C485.646014,258.931118 486.314963,259 487,259 C487.685037,259 488.353986,258.931118 489.000299,258.799903 Z M489.000299,139.799903 L489.000299,239.200097 C488.353986,239.068882 487.685037,239 487,239 C486.314963,239 485.646014,239.068882 484.999701,239.200097 L484.999701,139.799903 C485.646014,139.931118 486.314963,140 487,140 C487.685037,140 488.353986,139.931118 489.000299,139.799903 Z M489.000299,20.7999031 L489.000299,120.200097 C488.353986,120.068882 487.685037,120 487,120 C486.314963,120 485.646014,120.068882 484.999701,120.200097 L484.999701,20.7999031 C485.646014,20.9311182 486.314963,21 487,21 C487.685037,21 488.353986,20.9311182 489.000299,20.7999031 Z" id="Combined-Shape" fill="#E21C3D" fill-rule="nonzero"></path>
        <path d="M596,130 C596,130.685037 596.068882,131.353986 596.200097,132.000299 L496.799903,132.000299 C496.931118,131.353986 497,130.685037 497,130 C497,129.314963 496.931118,128.646014 496.799903,127.999701 L596.200097,127.999701 C596.068882,128.646014 596,129.314963 596,130 Z" id="Combined-Shape" fill="#E21C3D" fill-rule="nonzero"></path>
        <path d="M132.000299,20.7999031 L132.000299,120.200097 C131.353986,120.068882 130.685037,120 130,120 C129.314963,120 128.646014,120.068882 127.999701,120.200097 L127.999701,20.7999031 C128.646014,20.9311182 129.314963,21 130,21 C130.685037,21 131.353986,20.9311182 132.000299,20.7999031 Z" id="Combined-Shape" fill="#E21C3D" fill-rule="nonzero"></path>
        <path d="M130,0 C123.924868,0 119,4.92486775 119,11 C119,17.0751322 123.924868,22 130,22 C136.075132,22 141,17.0751322 141,11 C141,4.92486775 136.075132,0 130,0 Z M130,4 C133.865993,4 137,7.13400675 137,11 C137,14.8659932 133.865993,18 130,18 C126.134007,18 123,14.8659932 123,11 C123,7.13400675 126.134007,4 130,4 Z" id="Oval" fill="#E21C3D" fill-rule="nonzero"></path>
        <path d="M130,119 C123.924868,119 119,123.924868 119,130 C119,136.075132 123.924868,141 130,141 C136.075132,141 141,136.075132 141,130 C141,123.924868 136.075132,119 130,119 Z M130,123 C133.865993,123 137,126.134007 137,130 C137,133.865993 133.865993,137 130,137 C126.134007,137 123,133.865993 123,130 C123,126.134007 126.134007,123 130,123 Z" id="Oval" fill="#E21C3D" fill-rule="nonzero"></path>
        <path d="M11,238 C4.92486775,238 0,242.924868 0,249 C0,255.075132 4.92486775,260 11,260 C17.0751322,260 22,255.075132 22,249 C22,242.924868 17.0751322,238 11,238 Z M11,242 C14.8659932,242 18,245.134007 18,249 C18,252.865993 14.8659932,256 11,256 C7.13400675,256 4,252.865993 4,249 C4,245.134007 7.13400675,242 11,242 Z" id="Oval" fill="#E21C3D" fill-rule="nonzero"></path>
        <path d="M487,238 C480.924868,238 476,242.924868 476,249 C476,255.075132 480.924868,260 487,260 C493.075132,260 498,255.075132 498,249 C498,242.924868 493.075132,238 487,238 Z M487,242 C490.865993,242 494,245.134007 494,249 C494,252.865993 490.865993,256 487,256 C483.134007,256 480,252.865993 480,249 C480,245.134007 483.134007,242 487,242 Z" id="Oval" fill="#E21C3D" fill-rule="nonzero"></path>
        <path d="M487,357 C480.924868,357 476,361.924868 476,368 C476,374.075132 480.924868,379 487,379 C493.075132,379 498,374.075132 498,368 C498,361.924868 493.075132,357 487,357 Z M487,361 C490.865993,361 494,364.134007 494,368 C494,371.865993 490.865993,375 487,375 C483.134007,375 480,371.865993 480,368 C480,364.134007 483.134007,361 487,361 Z" id="Oval" fill="#E21C3D" fill-rule="nonzero"></path>
        <path d="M368,238 C361.924868,238 357,242.924868 357,249 C357,255.075132 361.924868,260 368,260 C374.075132,260 379,255.075132 379,249 C379,242.924868 374.075132,238 368,238 Z M368,242 C371.865993,242 375,245.134007 375,249 C375,252.865993 371.865993,256 368,256 C364.134007,256 361,252.865993 361,249 C361,245.134007 364.134007,242 368,242 Z" id="Oval" fill="#E21C3D" fill-rule="nonzero"></path>
        <path d="M368,357 C361.924868,357 357,361.924868 357,368 C357,374.075132 361.924868,379 368,379 C374.075132,379 379,374.075132 379,368 C379,361.924868 374.075132,357 368,357 Z M368,361 C371.865993,361 375,364.134007 375,368 C375,371.865993 371.865993,375 368,375 C364.134007,375 361,371.865993 361,368 C361,364.134007 364.134007,361 368,361 Z" id="Oval" fill="#E21C3D" fill-rule="nonzero"></path>
        <path d="M130,357 C123.924868,357 119,361.924868 119,368 C119,374.075132 123.924868,379 130,379 C136.075132,379 141,374.075132 141,368 C141,361.924868 136.075132,357 130,357 Z M130,361 C133.865993,361 137,364.134007 137,368 C137,371.865993 133.865993,375 130,375 C126.134007,375 123,371.865993 123,368 C123,364.134007 126.134007,361 130,361 Z" id="Oval" fill="#E21C3D" fill-rule="nonzero"></path>
        <path d="M249,357 C242.924868,357 238,361.924868 238,368 C238,374.075132 242.924868,379 249,379 C255.075132,379 260,374.075132 260,368 C260,361.924868 255.075132,357 249,357 Z M249,361 C252.865993,361 256,364.134007 256,368 C256,371.865993 252.865993,375 249,375 C245.134007,375 242,371.865993 242,368 C242,364.134007 245.134007,361 249,361 Z" id="Oval" fill="#E21C3D" fill-rule="nonzero"></path>
        <path d="M249,238 C242.924868,238 238,242.924868 238,249 C238,255.075132 242.924868,260 249,260 C255.075132,260 260,255.075132 260,249 C260,242.924868 255.075132,238 249,238 Z M249,242 C252.865993,242 256,245.134007 256,249 C256,252.865993 252.865993,256 249,256 C245.134007,256 242,252.865993 242,249 C242,245.134007 245.134007,242 249,242 Z" id="Oval" fill="#E21C3D" fill-rule="nonzero"></path>
        <path d="M487,119 C480.924868,119 476,123.924868 476,130 C476,136.075132 480.924868,141 487,141 C493.075132,141 498,136.075132 498,130 C498,123.924868 493.075132,119 487,119 Z M487,123 C490.865993,123 494,126.134007 494,130 C494,133.865993 490.865993,137 487,137 C483.134007,137 480,133.865993 480,130 C480,126.134007 483.134007,123 487,123 Z" id="Oval" fill="#E21C3D" fill-rule="nonzero"></path>
        <path d="M368,119 C361.924868,119 357,123.924868 357,130 C357,136.075132 361.924868,141 368,141 C374.075132,141 379,136.075132 379,130 C379,123.924868 374.075132,119 368,119 Z M368,123 C371.865993,123 375,126.134007 375,130 C375,133.865993 371.865993,137 368,137 C364.134007,137 361,133.865993 361,130 C361,126.134007 364.134007,123 368,123 Z" id="Oval" fill="#E21C3D" fill-rule="nonzero"></path>
        <path d="M249,119 C242.924868,119 238,123.924868 238,130 C238,136.075132 242.924868,141 249,141 C255.075132,141 260,136.075132 260,130 C260,123.924868 255.075132,119 249,119 Z M249,123 C252.865993,123 256,126.134007 256,130 C256,133.865993 252.865993,137 249,137 C245.134007,137 242,133.865993 242,130 C242,126.134007 245.134007,123 249,123 Z" id="Oval" fill="#E21C3D" fill-rule="nonzero"></path>
        <path d="M606,119 C599.924868,119 595,123.924868 595,130 C595,136.075132 599.924868,141 606,141 C612.075132,141 617,136.075132 617,130 C617,123.924868 612.075132,119 606,119 Z M606,123 C609.865993,123 613,126.134007 613,130 C613,133.865993 609.865993,137 606,137 C602.134007,137 599,133.865993 599,130 C599,126.134007 602.134007,123 606,123 Z" id="Oval" fill="#E21C3D" fill-rule="nonzero"></path>
        <path d="M487,0 C480.924868,0 476,4.92486775 476,11 C476,17.0751322 480.924868,22 487,22 C493.075132,22 498,17.0751322 498,11 C498,4.92486775 493.075132,0 487,0 Z M487,4 C490.865993,4 494,7.13400675 494,11 C494,14.8659932 490.865993,18 487,18 C483.134007,18 480,14.8659932 480,11 C480,7.13400675 483.134007,4 487,4 Z" id="Oval" fill="#E21C3D" fill-rule="nonzero"></path>
        <g id="Group" transform="translate(115.000000, 231.000000)" fill-rule="nonzero">
            <g id="login-gov-logo-mark">
                <path d="M25.6280048,0 L14.8918269,0 L14.8918269,36.481667 C25.078125,32.1386114 28.6388221,26.5100114 29.5402644,24.7554169 C29.7096023,24.4199942 29.7959954,24.0513307 29.7927608,23.6783391 L29.7927608,4.01298337 C29.7927608,2.94867401 29.3538925,1.92795599 28.5728666,1.17537562 C27.7918407,0.422795248 26.7325422,0 25.6280048,0 Z" id="Path" fill="#B51E23"></path>
                <path d="M4.16466346,0 C1.86458335,0 -9.25811557e-05,1.79667386 -9.25811557e-05,4.01298337 L-9.25811557e-05,23.6783391 C-0.00332716629,24.0513307 0.0830659331,24.4199942 0.252403846,24.7554169 C1.15384615,26.4926391 4.75961538,32.1646697 14.8918269,36.481667 L14.8918269,0 L4.16466346,0 Z" id="Path" fill="#E21D3E"></path>
                <path d="M17.5330529,15.7218613 C18.9490982,14.6483287 19.5034529,12.827988 18.9139545,11.1873785 C18.3244561,9.54676905 16.7206537,8.44643296 14.9188702,8.44643296 C13.1170867,8.44643296 11.5132843,9.54676905 10.9237859,11.1873785 C10.3342875,12.827988 10.8886422,14.6483287 12.3046875,15.7218613 C11.8359375,18.2755779 11.3731971,20.8292946 10.9164663,23.3830113 C12.2295407,23.600973 13.5594128,23.7113917 14.8918269,23.7130836 C16.2432722,23.7390771 17.5945062,23.6518883 18.9302885,23.4525002 C18.4615385,20.8466669 18.0288462,18.2929502 17.5330529,15.7218613 Z" id="Path" fill="#FFFFFF"></path>
            </g>
        </g>
        <path d="M130,477 C124.477153,477 120,481.477153 120,487 C120,492.522847 124.477153,497 130,497 C135.522847,497 140,492.522847 140,487 C140,481.477153 135.522847,477 130,477 Z M130,479 C134.418278,479 138,482.581722 138,487 C138,491.418278 134.418278,495 130,495 C125.581722,495 122,491.418278 122,487 C122,482.581722 125.581722,479 130,479 Z" id="Oval" fill="#0071BB" fill-rule="nonzero"></path>
        <path d="M249,477 C243.477153,477 239,481.477153 239,487 C239,492.522847 243.477153,497 249,497 C254.522847,497 259,492.522847 259,487 C259,481.477153 254.522847,477 249,477 Z M249,479 C253.418278,479 257,482.581722 257,487 C257,491.418278 253.418278,495 249,495 C244.581722,495 241,491.418278 241,487 C241,482.581722 244.581722,479 249,479 Z" id="Oval" fill="#0071BB" fill-rule="nonzero"></path>
        <path d="M249,1 C243.477153,1 239,5.4771525 239,11 C239,16.5228475 243.477153,21 249,21 C254.522847,21 259,16.5228475 259,11 C259,5.4771525 254.522847,1 249,1 Z M249,3 C253.418278,3 257,6.581722 257,11 C257,15.418278 253.418278,19 249,19 C244.581722,19 241,15.418278 241,11 C241,6.581722 244.581722,3 249,3 Z" id="Oval" fill="#0071BB" fill-rule="nonzero"></path>
        <path d="M249,238 C242.924868,238 238,242.924868 238,249 C238,255.075132 242.924868,260 249,260 C255.075132,260 260,255.075132 260,249 C260,242.924868 255.075132,238 249,238 Z M249,242 C252.865993,242 256,245.134007 256,249 C256,252.865993 252.865993,256 249,256 C245.134007,256 242,252.865993 242,249 C242,245.134007 245.134007,242 249,242 Z" id="Oval" fill="#E21C3D" fill-rule="nonzero"></path>
        <path d="M130,477 C124.477153,477 120,481.477153 120,487 C120,492.522847 124.477153,497 130,497 C135.522847,497 140,492.522847 140,487 C140,481.477153 135.522847,477 130,477 Z M130,479 C134.418278,479 138,482.581722 138,487 C138,491.418278 134.418278,495 130,495 C125.581722,495 122,491.418278 122,487 C122,482.581722 125.581722,479 130,479 Z" id="Oval" fill="#0071BB" fill-rule="nonzero"></path>
    </g>
</svg>