<svg width="735" height="497" viewBox="0 0 735 497" fill="none" xmlns="http://www.w3.org/2000/svg"><path d="M358 130c0 .338.017.671.05 1h-99.1c.066-.665.066-1.335 0-2h99.1c-.033.329-.05.662-.05 1zm11-109.05v99.1a10.126 10.126 0 00-2 0v-99.1c.665.066 1.335.066 2 0zm-119 0v99.1a10.126 10.126 0 00-2 0v-99.1c.665.066 1.335.066 2 0zM358.05 10a10.126 10.126 0 000 2h-99.1c.066-.665.066-1.335 0-2h99.1zM596 130c0 .338.017.671.05 1h-99.1c.066-.665.066-1.335 0-2h99.1c-.033.329-.05.662-.05 1zm11-109.05v99.1a10.126 10.126 0 00-2 0v-99.1c.665.066 1.335.066 2 0zm-119 0v99.1a10.126 10.126 0 00-2 0v-99.1c.665.066 1.335.066 2 0zM596.05 10a10.126 10.126 0 000 2h-99.1c.066-.665.066-1.335 0-2h99.1zm-99.1 357h99.1a10.126 10.126 0 000 2h-99.1c.066-.665.066-1.335 0-2zM488 258.95v99.1a10.126 10.126 0 00-2 0v-99.1c.665.066 1.335.066 2 0zm119.001 0v99.1a10.136 10.136 0 00-2.001 0v-99.1c.665.066 1.336.066 2.001 0zM596.05 248a10.126 10.126 0 000 2h-99.098c.066-.665.066-1.335 0-2h99.098zm-218.1 0h99.1l-.016.166-.008.1-.008.136c-.023.397-.023.796 0 1.193l.004.07.012.169.015.166h-99.098c.066-.665.066-1.335 0-2h-.001zM369 139.95v99.1a10.126 10.126 0 00-2 0v-99.1c.665.066 1.335.066 2 0zm119 0v99.1l-.026-.003-.119-.01-.08-.008-.18-.012A9.848 9.848 0 00487 239l-.28.003h-.01l-.132.006c-.184.008-.368.02-.552.038l-.026.002v-99.098c.665.066 1.335.066 2 0v-.001zM477.05 129a10.126 10.126 0 000 2h-99.1c.066-.665.066-1.335 0-2h99.1zM131 139.95V248h108.05a10.126 10.126 0 000 2H129V139.95l.06.006c.071.007.143.013.215.018l-.019-.003.114.01c.21.013.42.019.63.019l.273-.005-.105.002h.054l.058-.002h.003l.16-.005.187-.01c.104-.006.208-.014.312-.024l.058-.005v-.001zm119 0v99.1a10.126 10.126 0 00-2 0v-99.1c.665.066 1.335.066 2 0zM239.05 129a10.126 10.126 0 000 2h-99.1l.005-.059.001-.008.01-.1v-.018l-.002.018.01-.108.006-.095c.033-.523.025-1.048-.024-1.57l-.005-.06h99.099zM120 487c0 .338.017.671.05 1h-99.1c.066-.665.066-1.335 0-2h99.1c-.033.329-.05.662-.05 1zm11-109.05v99.1a10.126 10.126 0 00-2 0v-99.1c.665.066 1.335.066 2 0zm-119 0v99.1a10.126 10.126 0 00-2 0v-99.1c.665.066 1.335.066 2 0zM120.05 367a10.126 10.126 0 000 2h-99.1c.066-.665.066-1.335 0-2h99.1z" fill="#0071BB"/><path d="M120 368c0 .338.017.671.05 1h-99.1c.066-.665.066-1.335 0-2h99.1c-.033.329-.05.662-.05 1zm11-120v110.05a10.126 10.126 0 00-2 0V250H20.95c.066-.665.066-1.335 0-2H131zM12 258.95v99.1a10.126 10.126 0 00-2 0v-99.1c.665.066 1.335.066 2 0zM358.05 367a10.126 10.126 0 000 2h-99.1c.066-.665.066-1.335 0-2h99.1zM250 258.95v99.1a10.126 10.126 0 00-2 0v-99.1c.665.066 1.335.066 2 0zm119.001 0v99.1a10.136 10.136 0 00-2.001 0v-99.1c.665.066 1.336.066 2.001 0zM358.05 248a10.126 10.126 0 000 2h-99.098c.066-.665.066-1.335 0-2h99.098z" fill="#0071BB"/><path d="M358 487c0 .338.017.671.05 1h-99.1c.066-.665.066-1.335 0-2h99.1c-.033.329-.05.662-.05 1zm11.001-109.05v99.1a10.136 10.136 0 00-2.001 0v-99.1c.665.066 1.336.066 2.001 0zm-119 0v99.1a10.146 10.146 0 00-2.002 0v-99.1c.665.066 1.336.066 2.001 0h.001zM358.048 367a10.126 10.126 0 000 2H258.95c.066-.665.066-1.335 0-2h99.098zm257.902 0h99.1a10.126 10.126 0 000 2h-99.1c.066-.665.066-1.335 0-2zm-9.782-108.003h.054l.058-.002h.003l.16-.005.187-.01c.104-.006.208-.014.312-.024l.058-.005v99.098a10.126 10.126 0 00-2 0v-99.098l.06.005c.071.007.143.013.215.018l-.019-.003.114.01c.21.013.42.019.63.019l.273-.005-.105.002zm119.833-.046v99.098a10.136 10.136 0 00-2.001 0v-99.098c.665.066 1.336.066 2.001 0zm-110.027-9.226l.006-.095c.033-.523.025-1.048-.024-1.57l-.005-.06h99.098a10.126 10.126 0 000 2h-99.098l.004-.059.001-.008.01-.1v-.018l-.002.018.01-.108z" fill="#0071BB"/><path d="M615.95 248h99.1a10.126 10.126 0 000 2h-99.1c.066-.665.066-1.335 0-2zM607 139.95v99.1a10.126 10.126 0 00-2 0v-99.1c.665.066 1.335.066 2 0zm119 0v99.1a10.126 10.126 0 00-2 0v-99.1c.665.066 1.335.066 2 0zM715.05 129a10.126 10.126 0 000 2h-99.1c.066-.665.066-1.335 0-2h99.1zM120 130c0 .338.017.671.05 1h-99.1c.066-.665.066-1.335 0-2h99.1c-.033.329-.05.662-.05 1zm11-109.05v99.1a10.126 10.126 0 00-2 0v-99.1c.665.066 1.335.066 2 0zm-119 0v99.1a10.126 10.126 0 00-2 0v-99.1c.665.066 1.335.066 2 0zM120.05 10a10.126 10.126 0 000 2h-99.1c.066-.665.066-1.335 0-2h99.1zm478.208 126.33c.423.517.897.99 1.414 1.414L494.743 242.672a10.045 10.045 0 00-1.413-1.414L598.258 136.33zm-119 0c.423.517.897.99 1.414 1.414L375.743 242.672a10.045 10.045 0 00-1.413-1.414L479.258 136.33zm-222.515-.001l104.929 104.928-.07.058a9.28 9.28 0 00-.213.182l.283-.24c-.494.404-.948.854-1.357 1.344l-.058.07-104.928-104.928c.517-.423.991-.897 1.414-1.414zM360.258 255.33c.423.517.897.99 1.414 1.414L256.743 361.672a10.045 10.045 0 00-1.413-1.414L360.258 255.33zm0 119c.423.517.897.99 1.414 1.414L256.743 480.672a10.045 10.045 0 00-1.413-1.414L360.258 374.33zm-222.515-.001l104.929 104.928a9.96 9.96 0 00-1.415 1.415L136.329 375.743c.517-.423.991-.897 1.414-1.414zM241.258 255.33c.423.517.897.99 1.414 1.414L137.743 361.672a10.045 10.045 0 00-1.413-1.414L241.258 255.33zm-119 119c.423.517.897.99 1.414 1.414L18.743 480.672a10.05 10.05 0 00-1.413-1.414L122.258 374.33z" fill="#0071BB"/><path d="M18.743 374.329l104.929 104.928a9.96 9.96 0 00-1.415 1.415L17.329 375.743c.517-.423.99-.897 1.414-1.414zm0-238l111.964 111.964-1.414 1.414L17.329 137.743c.517-.423.99-.897 1.414-1.414zm595 119l104.928 104.928c-.517.423-.99.897-1.414 1.414L612.33 256.743c.517-.423.991-.897 1.414-1.414h-.001zm-119 0l104.928 104.928c-.517.423-.99.897-1.414 1.414L493.33 256.743c.517-.423.991-.897 1.414-1.414h-.001z" fill="#0071BB"/><path d="M717.258 255.33c.423.517.897.99 1.414 1.414L613.743 361.672a10.045 10.045 0 00-1.413-1.414L717.258 255.33zM613.743 136.329l104.929 104.928c-.517.423-.991.897-1.415 1.415L612.329 137.743c.517-.423.991-.897 1.414-1.414z" fill="#0071BB"/><path d="M717.258 136.33c.423.517.897.99 1.414 1.414L613.743 242.672a10.045 10.045 0 00-1.413-1.414L717.258 136.33zM137.743 17.329l104.929 104.928a9.96 9.96 0 00-1.415 1.415L136.329 18.743c.517-.423.991-.897 1.414-1.414zm119 0l104.929 104.928a9.96 9.96 0 00-1.415 1.415L255.329 18.743c.517-.423.991-.897 1.414-1.414zm222.542.034c.425.515.901.987 1.42 1.407L376.153 124.208a10.09 10.09 0 00-1.32-1.51L479.284 17.363h.001z" fill="#0071BB"/><path d="M606 239c-5.523 0-10 4.477-10 10s4.477 10 10 10 10-4.477 10-10-4.477-10-10-10zm0 2a8 8 0 110 16 8 8 0 010-16zm0 117c-5.523 0-10 4.477-10 10s4.477 10 10 10 10-4.477 10-10-4.477-10-10-10zm0 2a8 8 0 110 16 8 8 0 010-16zm119-121c-5.523 0-10 4.477-10 10s4.477 10 10 10 10-4.477 10-10-4.477-10-10-10zm0 2a8 8 0 110 16 8 8 0 010-16zm0 117c-5.523 0-10 4.477-10 10s4.477 10 10 10 10-4.477 10-10-4.477-10-10-10zm0 2a8 8 0 110 16 8 8 0 010-16zm0-240c-5.523 0-10 4.477-10 10s4.477 10 10 10 10-4.477 10-10-4.477-10-10-10zm0 2a8 8 0 110 16 8 8 0 010-16zM606 1c-5.523 0-10 4.477-10 10s4.477 10 10 10 10-4.477 10-10-4.477-10-10-10zm0 2a8 8 0 110 15.999A8 8 0 01606 3zM249 1c-5.523 0-10 4.477-10 10s4.477 10 10 10 10-4.477 10-10-4.477-10-10-10zm0 2a8 8 0 110 15.999A8 8 0 01249 3zm119-2c-5.523 0-10 4.477-10 10s4.477 10 10 10 10-4.477 10-10-4.477-10-10-10zm0 2a8 8 0 110 15.999A8 8 0 01368 3zM249 477c-5.523 0-10 4.477-10 10s4.477 10 10 10 10-4.477 10-10-4.477-10-10-10zm0 2a8 8 0 110 16 8 8 0 010-16zm119-2c-5.523 0-10 4.477-10 10s4.477 10 10 10 10-4.477 10-10-4.477-10-10-10zm0 2a8 8 0 110 16 8 8 0 010-16zm-357-2c-5.523 0-10 4.477-10 10s4.477 10 10 10 10-4.477 10-10-4.477-10-10-10zm0 2a8.001 8.001 0 015.657 13.657 8.001 8.001 0 01-11.314-11.314A8.001 8.001 0 0111 479zm0-121c-5.523 0-10 4.477-10 10s4.477 10 10 10 10-4.477 10-10-4.477-10-10-10zm0 2a8.001 8.001 0 015.657 13.657 8.001 8.001 0 01-11.314-11.314A8.001 8.001 0 0111 360zm0-240c-5.523 0-10 4.477-10 10s4.477 10 10 10 10-4.477 10-10-4.477-10-10-10zm0 2a8.001 8.001 0 015.657 13.657 8.001 8.001 0 01-11.314-11.314A8.001 8.001 0 0111 122zM11 1C5.477 1 1 5.477 1 11s4.477 10 10 10 10-4.477 10-10S16.523 1 11 1zm0 2a8 8 0 110 16 8 8 0 010-16zm119 474c-5.523 0-10 4.477-10 10s4.477 10 10 10 10-4.477 10-10-4.477-10-10-10zm0 2a8 8 0 110 16 8 8 0 010-16zM70.5 10C37.087 10 10 37.087 10 70.5S37.087 131 70.5 131 131 103.913 131 70.5 103.913 10 70.5 10zm0 2c32.309 0 58.5 26.191 58.5 58.5S102.809 129 70.5 129 12 102.809 12 70.5 38.191 12 70.5 12zm238 117c-33.413 0-60.5 27.087-60.5 60.5s27.087 60.5 60.5 60.5 60.5-27.087 60.5-60.5-27.087-60.5-60.5-60.5zm0 2c32.309 0 58.5 26.191 58.5 58.5S340.809 248 308.5 248 250 221.809 250 189.5s26.191-58.5 58.5-58.5z" fill="#0071BB"/><path d="M308.5 248c-33.413 0-60.5 27.087-60.5 60.5s27.087 60.5 60.5 60.5 60.5-27.087 60.5-60.5-27.087-60.5-60.5-60.5zm0 2c32.309 0 58.5 26.191 58.5 58.5S340.809 367 308.5 367 250 340.809 250 308.5s26.191-58.5 58.5-58.5zm238-121c-33.413 0-60.5 27.087-60.5 60.5s27.087 60.5 60.5 60.5 60.5-27.087 60.5-60.5-27.087-60.5-60.5-60.5zm0 2c32.309 0 58.5 26.191 58.5 58.5S578.809 248 546.5 248 488 221.809 488 189.5s26.191-58.5 58.5-58.5z" fill="#0071BB"/><path d="M665.5 129c-33.413 0-60.5 27.087-60.5 60.5s27.087 60.5 60.5 60.5 60.5-27.087 60.5-60.5-27.087-60.5-60.5-60.5zm0 2c32.309 0 58.5 26.191 58.5 58.5S697.809 248 665.5 248 607 221.809 607 189.5s26.191-58.5 58.5-58.5zm-119-121C513.087 10 486 37.087 486 70.5s27.087 60.5 60.5 60.5S607 103.913 607 70.5 579.913 10 546.5 10zm0 2c32.309 0 58.5 26.191 58.5 58.5S578.809 129 546.5 129 488 102.809 488 70.5 514.191 12 546.5 12z" fill="#0071BB"/><path d="M376.344 254.514l105.14 105.143a10.057 10.057 0 00-2.827 2.828L373.514 257.344a10.062 10.062 0 002.83-2.83zM239 249c0 .685.069 1.354.2 2H130v-4h109.2c-.131.646-.2 1.315-.2 2zm119.2-2a10.05 10.05 0 000 4h-99.4a10.05 10.05 0 000-4h99.4zm1.458-111.484a10.057 10.057 0 002.828 2.827L257.344 243.487a10.059 10.059 0 00-2.829-2.83l105.143-105.14v-.001z" fill="#E21C3D"/><path d="M243.486 138.343L131.414 250.414l-2.828-2.828 112.072-112.07a10.057 10.057 0 002.828 2.827zm-121.828-2.827a10.057 10.057 0 002.828 2.827L19.344 243.487a10.055 10.055 0 00-2.829-2.83l105.143-105.14v-.001zM19.344 254.514l105.142 105.143a10.059 10.059 0 00-2.83 2.829L16.515 257.344a10.057 10.057 0 002.83-2.83h-.001z" fill="#E21C3D"/><path d="M132 249v109.2a10.05 10.05 0 00-4 0V249h4zm107.2 117a10.05 10.05 0 000 4h-99.4a10.05 10.05 0 000-4h99.4zm238 0a10.05 10.05 0 000 4h-99.4a10.05 10.05 0 000-4h99.4zM489 258.8v99.4a10.05 10.05 0 00-4 0v-99.4c1.32.268 2.68.268 4 0zm0-119v99.4a10.05 10.05 0 00-4 0v-99.4c1.32.268 2.68.268 4 0zm0-119v99.4a10.05 10.05 0 00-4 0V20.8c1.32.268 2.68.268 4 0zM596 130c0 .685.069 1.354.2 2h-99.4a10.05 10.05 0 000-4h99.4c-.131.646-.2 1.315-.2 2zM132 20.8v99.4a10.05 10.05 0 00-4 0V20.8c1.32.268 2.68.268 4 0z" fill="#E21C3D"/><path d="M130 0c-6.075 0-11 4.925-11 11s4.925 11 11 11 11-4.925 11-11-4.925-11-11-11zm0 4a7.001 7.001 0 110 14.002A7.001 7.001 0 01130 4zm0 115c-6.075 0-11 4.925-11 11s4.925 11 11 11 11-4.925 11-11-4.925-11-11-11zm0 4a7.003 7.003 0 017 7 6.999 6.999 0 11-14 0 7.003 7.003 0 017-7zM11 238c-6.075 0-11 4.925-11 11s4.925 11 11 11 11-4.925 11-11-4.925-11-11-11zm0 4a6.999 6.999 0 014.95 11.95A6.999 6.999 0 014 249a7 7 0 017-7zm476-4c-6.075 0-11 4.925-11 11s4.925 11 11 11 11-4.925 11-11-4.925-11-11-11zm0 4a6.999 6.999 0 110 14 6.999 6.999 0 110-14zm0 115c-6.075 0-11 4.925-11 11s4.925 11 11 11 11-4.925 11-11-4.925-11-11-11zm0 4a7.003 7.003 0 017 7 7.003 7.003 0 01-7 7 7.003 7.003 0 01-7-7 7.003 7.003 0 017-7zM368 238c-6.075 0-11 4.925-11 11s4.925 11 11 11 11-4.925 11-11-4.925-11-11-11zm0 4a6.999 6.999 0 110 14 6.999 6.999 0 110-14zm0 115c-6.075 0-11 4.925-11 11s4.925 11 11 11 11-4.925 11-11-4.925-11-11-11zm0 4a7.003 7.003 0 017 7 7.003 7.003 0 01-7 7 7.003 7.003 0 01-7-7 7.003 7.003 0 017-7zm-238-4c-6.075 0-11 4.925-11 11s4.925 11 11 11 11-4.925 11-11-4.925-11-11-11zm0 4a7.003 7.003 0 017 7 6.999 6.999 0 11-14 0 7.003 7.003 0 017-7zm119-4c-6.075 0-11 4.925-11 11s4.925 11 11 11 11-4.925 11-11-4.925-11-11-11zm0 4a7.003 7.003 0 017 7 6.999 6.999 0 11-14 0 6.999 6.999 0 017-7zm0-123c-6.075 0-11 4.925-11 11s4.925 11 11 11 11-4.925 11-11-4.925-11-11-11zm0 4a6.999 6.999 0 110 14 6.999 6.999 0 110-14zm238-123c-6.075 0-11 4.925-11 11s4.925 11 11 11 11-4.925 11-11-4.925-11-11-11zm0 4a7.003 7.003 0 017 7 7.003 7.003 0 01-7 7 6.999 6.999 0 110-14zm-119-4c-6.075 0-11 4.925-11 11s4.925 11 11 11 11-4.925 11-11-4.925-11-11-11zm0 4a7.003 7.003 0 017 7 7.003 7.003 0 01-7 7 6.999 6.999 0 110-14zm-119-4c-6.075 0-11 4.925-11 11s4.925 11 11 11 11-4.925 11-11-4.925-11-11-11zm0 4a7.003 7.003 0 017 7 6.999 6.999 0 11-14 0 6.999 6.999 0 017-7zm357-4c-6.075 0-11 4.925-11 11s4.925 11 11 11 11-4.925 11-11-4.925-11-11-11zm0 4a7.003 7.003 0 017 7 6.999 6.999 0 11-14 0 6.999 6.999 0 017-7zM487 0c-6.075 0-11 4.925-11 11s4.925 11 11 11 11-4.925 11-11-4.925-11-11-11zm0 4a7.005 7.005 0 016.467 4.321 6.996 6.996 0 01-1.517 7.629 7.002 7.002 0 01-9.9 0 7.003 7.003 0 010-9.9A7 7 0 01487 4z" fill="#E21C3D"/><path d="M140.628 231h-10.736v36.482c10.186-4.343 13.747-9.972 14.648-11.727.17-.335.256-.704.253-1.077v-19.665a3.947 3.947 0 00-1.22-2.838 4.248 4.248 0 00-2.945-1.175z" fill="#B51E23"/><path d="M119.165 231c-2.3 0-4.165 1.797-4.165 4.013v19.665c-.003.373.083.742.252 1.077.902 1.738 4.508 7.41 14.64 11.727V231h-10.727z" fill="#E21D3E"/><path d="M132.533 246.722c1.416-1.074 1.97-2.894 1.381-4.535-.59-1.64-2.193-2.74-3.995-2.74s-3.406 1.1-3.995 2.74c-.59 1.641-.035 3.461 1.38 4.535-.468 2.554-.93 5.107-1.388 7.661a24.52 24.52 0 003.976.33 24.245 24.245 0 004.038-.26c-.468-2.606-.901-5.16-1.397-7.731z" fill="#fff"/><path d="M130 477c-5.523 0-10 4.477-10 10s4.477 10 10 10 10-4.477 10-10-4.477-10-10-10zm0 2a8 8 0 110 16 8 8 0 010-16zm119-2c-5.523 0-10 4.477-10 10s4.477 10 10 10 10-4.477 10-10-4.477-10-10-10zm0 2a8 8 0 110 16 8 8 0 010-16zm0-478c-5.523 0-10 4.477-10 10s4.477 10 10 10 10-4.477 10-10-4.477-10-10-10zm0 2a8 8 0 110 15.999A8 8 0 01249 3z" fill="#0071BB"/><path d="M249 238c-6.075 0-11 4.925-11 11s4.925 11 11 11 11-4.925 11-11-4.925-11-11-11zm0 4a6.999 6.999 0 110 14 6.999 6.999 0 110-14z" fill="#E21C3D"/><path d="M130 477c-5.523 0-10 4.477-10 10s4.477 10 10 10 10-4.477 10-10-4.477-10-10-10zm0 2a8 8 0 110 16 8 8 0 010-16z" fill="#0071BB"/></svg>