<svg xmlns="http://www.w3.org/2000/svg" width="735" height="497" fill="none"><path fill="#0071bb" d="M358 130q0 .507.05 1h-99.1c.066-.665.066-1.335 0-2h99.1q-.05.493-.05 1m11-109.05v99.1a10 10 0 0 0-2 0v-99.1c.665.066 1.335.066 2 0m-119 0v99.1a10 10 0 0 0-2 0v-99.1c.665.066 1.335.066 2 0M358.05 10a10 10 0 0 0 0 2h-99.1c.066-.665.066-1.335 0-2zM596 130q0 .507.05 1h-99.1c.066-.665.066-1.335 0-2h99.1q-.05.493-.05 1m11-109.05v99.1a10 10 0 0 0-2 0v-99.1c.665.066 1.335.066 2 0m-119 0v99.1a10 10 0 0 0-2 0v-99.1c.665.066 1.335.066 2 0M596.05 10a10 10 0 0 0 0 2h-99.1c.066-.665.066-1.335 0-2zm-99.1 357h99.1a10 10 0 0 0 0 2h-99.1c.066-.665.066-1.335 0-2M488 258.95v99.1a10 10 0 0 0-2 0v-99.1c.665.066 1.335.066 2 0m119.001 0v99.1a10 10 0 0 0-2.001 0v-99.1c.665.066 1.336.066 2.001 0M596.05 248a10 10 0 0 0 0 2h-99.098c.066-.665.066-1.335 0-2zm-218.1 0h99.1l-.016.166-.008.1-.008.136q-.035.596 0 1.193l.004.07.012.169.015.166h-99.098c.066-.665.066-1.335 0-2zM369 139.95v99.1a10 10 0 0 0-2 0v-99.1c.665.066 1.335.066 2 0m119 0v99.1l-.026-.003-.119-.01-.08-.008-.18-.012A10 10 0 0 0 487 239l-.28.003h-.01l-.132.006q-.276.011-.552.038l-.026.002v-99.098c.665.066 1.335.066 2 0zM477.05 129a10 10 0 0 0 0 2h-99.1c.066-.665.066-1.335 0-2zM131 139.95V248h108.05a10 10 0 0 0 0 2H129V139.95l.06.006q.107.01.215.018l-.019-.003.114.01q.315.02.63.019l.273-.005-.105.002h.054l.058-.002h.003l.16-.005.187-.01q.156-.009.312-.024l.058-.005zm119 0v99.1a10 10 0 0 0-2 0v-99.1c.665.066 1.335.066 2 0M239.05 129a10 10 0 0 0 0 2h-99.1l.005-.059.001-.008.01-.1v-.018l-.002.018.01-.108.006-.095q.05-.786-.024-1.57l-.005-.06zM120 487q0 .507.05 1h-99.1c.066-.665.066-1.335 0-2h99.1q-.05.493-.05 1m11-109.05v99.1a10 10 0 0 0-2 0v-99.1c.665.066 1.335.066 2 0m-119 0v99.1a10 10 0 0 0-2 0v-99.1c.665.066 1.335.066 2 0M120.05 367a10 10 0 0 0 0 2h-99.1c.066-.665.066-1.335 0-2z"/><path fill="#0071bb" d="M120 368q0 .507.05 1h-99.1c.066-.665.066-1.335 0-2h99.1q-.05.493-.05 1m11-120v110.05a10 10 0 0 0-2 0V250H20.95c.066-.665.066-1.335 0-2zM12 258.95v99.1a10 10 0 0 0-2 0v-99.1c.665.066 1.335.066 2 0M358.05 367a10 10 0 0 0 0 2h-99.1c.066-.665.066-1.335 0-2zM250 258.95v99.1a10 10 0 0 0-2 0v-99.1c.665.066 1.335.066 2 0m119.001 0v99.1a10 10 0 0 0-2.001 0v-99.1c.665.066 1.336.066 2.001 0M358.05 248a10 10 0 0 0 0 2h-99.098c.066-.665.066-1.335 0-2z"/><path fill="#0071bb" d="M358 487q0 .507.05 1h-99.1c.066-.665.066-1.335 0-2h99.1q-.05.493-.05 1m11.001-109.05v99.1a10 10 0 0 0-2.001 0v-99.1c.665.066 1.336.066 2.001 0m-119 0v99.1a10 10 0 0 0-2.002 0v-99.1c.665.066 1.336.066 2.001 0zM358.048 367a10 10 0 0 0 0 2H258.95c.066-.665.066-1.335 0-2zm257.902 0h99.1a10 10 0 0 0 0 2h-99.1c.066-.665.066-1.335 0-2m-9.782-108.003h.054l.058-.002h.003l.16-.005.187-.01q.156-.009.312-.024l.058-.005v99.098a10 10 0 0 0-2 0v-99.098l.06.005q.107.01.215.018l-.019-.003.114.01q.315.02.63.019l.273-.005zm119.833-.046v99.098a10 10 0 0 0-2.001 0v-99.098c.665.066 1.336.066 2.001 0m-110.027-9.226.006-.095q.05-.786-.024-1.57l-.005-.06h99.098a10 10 0 0 0 0 2h-99.098l.004-.059.001-.008.01-.1v-.018l-.002.018z"/><path fill="#0071bb" d="M615.95 248h99.1a10 10 0 0 0 0 2h-99.1c.066-.665.066-1.335 0-2M607 139.95v99.1a10 10 0 0 0-2 0v-99.1c.665.066 1.335.066 2 0m119 0v99.1a10 10 0 0 0-2 0v-99.1c.665.066 1.335.066 2 0M715.05 129a10 10 0 0 0 0 2h-99.1c.066-.665.066-1.335 0-2zM120 130q0 .507.05 1h-99.1c.066-.665.066-1.335 0-2h99.1q-.05.493-.05 1m11-109.05v99.1a10 10 0 0 0-2 0v-99.1c.665.066 1.335.066 2 0m-119 0v99.1a10 10 0 0 0-2 0v-99.1c.665.066 1.335.066 2 0M120.05 10a10 10 0 0 0 0 2h-99.1c.066-.665.066-1.335 0-2zm478.208 126.33c.423.517.897.99 1.414 1.414L494.743 242.672a10 10 0 0 0-1.413-1.414zm-119 0c.423.517.897.99 1.414 1.414L375.743 242.672a10 10 0 0 0-1.413-1.414zm-222.515-.001 104.929 104.928-.07.058a9 9 0 0 0-.213.182l.283-.24q-.742.608-1.357 1.344l-.058.07-104.928-104.928c.517-.423.991-.897 1.414-1.414M360.258 255.33c.423.517.897.99 1.414 1.414L256.743 361.672a10 10 0 0 0-1.413-1.414zm0 119c.423.517.897.99 1.414 1.414L256.743 480.672a10 10 0 0 0-1.413-1.414zm-222.515-.001 104.929 104.928a10 10 0 0 0-1.415 1.415L136.329 375.743c.517-.423.991-.897 1.414-1.414M241.258 255.33c.423.517.897.99 1.414 1.414L137.743 361.672a10 10 0 0 0-1.413-1.414zm-119 119c.423.517.897.99 1.414 1.414L18.743 480.672a10 10 0 0 0-1.413-1.414z"/><path fill="#0071bb" d="m18.743 374.329 104.929 104.928a10 10 0 0 0-1.415 1.415L17.329 375.743c.517-.423.99-.897 1.414-1.414m0-238 111.964 111.964-1.414 1.414L17.329 137.743q.777-.637 1.414-1.414m595 119 104.928 104.928c-.517.423-.99.897-1.414 1.414L612.33 256.743c.517-.423.991-.897 1.414-1.414zm-119 0 104.928 104.928c-.517.423-.99.897-1.414 1.414L493.33 256.743c.517-.423.991-.897 1.414-1.414z"/><path fill="#0071bb" d="M717.258 255.33c.423.517.897.99 1.414 1.414L613.743 361.672a10 10 0 0 0-1.413-1.414zM613.743 136.329l104.929 104.928q-.777.636-1.415 1.415L612.329 137.743q.778-.637 1.414-1.414"/><path fill="#0071bb" d="M717.258 136.33c.423.517.897.99 1.414 1.414L613.743 242.672a10 10 0 0 0-1.413-1.414zM137.743 17.329l104.929 104.928a10 10 0 0 0-1.415 1.415L136.329 18.743c.517-.423.991-.897 1.414-1.414m119 0 104.929 104.928a10 10 0 0 0-1.415 1.415L255.329 18.743c.517-.423.991-.897 1.414-1.414m222.542.034c.425.515.901.987 1.42 1.407L376.153 124.208a10 10 0 0 0-1.32-1.51L479.284 17.363z"/><path fill="#0071bb" d="M606 239c-5.523 0-10 4.477-10 10s4.477 10 10 10 10-4.477 10-10-4.477-10-10-10m0 2a8 8 0 1 1 0 16 8 8 0 0 1 0-16m0 117c-5.523 0-10 4.477-10 10s4.477 10 10 10 10-4.477 10-10-4.477-10-10-10m0 2a8 8 0 1 1 0 16 8 8 0 0 1 0-16m119-121c-5.523 0-10 4.477-10 10s4.477 10 10 10 10-4.477 10-10-4.477-10-10-10m0 2a8 8 0 1 1 0 16 8 8 0 0 1 0-16m0 117c-5.523 0-10 4.477-10 10s4.477 10 10 10 10-4.477 10-10-4.477-10-10-10m0 2a8 8 0 1 1 0 16 8 8 0 0 1 0-16m0-240c-5.523 0-10 4.477-10 10s4.477 10 10 10 10-4.477 10-10-4.477-10-10-10m0 2a8 8 0 1 1 0 16 8 8 0 0 1 0-16M606 1c-5.523 0-10 4.477-10 10s4.477 10 10 10 10-4.477 10-10-4.477-10-10-10m0 2a8 8 0 1 1 0 15.999A8 8 0 0 1 606 3M249 1c-5.523 0-10 4.477-10 10s4.477 10 10 10 10-4.477 10-10-4.477-10-10-10m0 2a8 8 0 1 1 0 15.999A8 8 0 0 1 249 3m119-2c-5.523 0-10 4.477-10 10s4.477 10 10 10 10-4.477 10-10-4.477-10-10-10m0 2a8 8 0 1 1 0 15.999A8 8 0 0 1 368 3M249 477c-5.523 0-10 4.477-10 10s4.477 10 10 10 10-4.477 10-10-4.477-10-10-10m0 2a8 8 0 1 1 0 16 8 8 0 0 1 0-16m119-2c-5.523 0-10 4.477-10 10s4.477 10 10 10 10-4.477 10-10-4.477-10-10-10m0 2a8 8 0 1 1 0 16 8 8 0 0 1 0-16m-357-2c-5.523 0-10 4.477-10 10s4.477 10 10 10 10-4.477 10-10-4.477-10-10-10m0 2a8.001 8.001 0 0 1 5.657 13.657 8.001 8.001 0 0 1-11.314-11.314A8 8 0 0 1 11 479m0-121c-5.523 0-10 4.477-10 10s4.477 10 10 10 10-4.477 10-10-4.477-10-10-10m0 2a8.001 8.001 0 0 1 5.657 13.657 8.001 8.001 0 0 1-11.314-11.314A8 8 0 0 1 11 360m0-240c-5.523 0-10 4.477-10 10s4.477 10 10 10 10-4.477 10-10-4.477-10-10-10m0 2a8.001 8.001 0 0 1 5.657 13.657 8.001 8.001 0 0 1-11.314-11.314A8 8 0 0 1 11 122M11 1C5.477 1 1 5.477 1 11s4.477 10 10 10 10-4.477 10-10S16.523 1 11 1m0 2a8 8 0 1 1 0 16 8 8 0 0 1 0-16m119 474c-5.523 0-10 4.477-10 10s4.477 10 10 10 10-4.477 10-10-4.477-10-10-10m0 2a8 8 0 1 1 0 16 8 8 0 0 1 0-16M70.5 10C37.087 10 10 37.087 10 70.5S37.087 131 70.5 131 131 103.913 131 70.5 103.913 10 70.5 10m0 2c32.309 0 58.5 26.191 58.5 58.5S102.809 129 70.5 129 12 102.809 12 70.5 38.191 12 70.5 12m238 117c-33.413 0-60.5 27.087-60.5 60.5s27.087 60.5 60.5 60.5 60.5-27.087 60.5-60.5-27.087-60.5-60.5-60.5m0 2c32.309 0 58.5 26.191 58.5 58.5S340.809 248 308.5 248 250 221.809 250 189.5s26.191-58.5 58.5-58.5"/><path fill="#0071bb" d="M308.5 248c-33.413 0-60.5 27.087-60.5 60.5s27.087 60.5 60.5 60.5 60.5-27.087 60.5-60.5-27.087-60.5-60.5-60.5m0 2c32.309 0 58.5 26.191 58.5 58.5S340.809 367 308.5 367 250 340.809 250 308.5s26.191-58.5 58.5-58.5m238-121c-33.413 0-60.5 27.087-60.5 60.5s27.087 60.5 60.5 60.5 60.5-27.087 60.5-60.5-27.087-60.5-60.5-60.5m0 2c32.309 0 58.5 26.191 58.5 58.5S578.809 248 546.5 248 488 221.809 488 189.5s26.191-58.5 58.5-58.5"/><path fill="#0071bb" d="M665.5 129c-33.413 0-60.5 27.087-60.5 60.5s27.087 60.5 60.5 60.5 60.5-27.087 60.5-60.5-27.087-60.5-60.5-60.5m0 2c32.309 0 58.5 26.191 58.5 58.5S697.809 248 665.5 248 607 221.809 607 189.5s26.191-58.5 58.5-58.5m-119-121C513.087 10 486 37.087 486 70.5s27.087 60.5 60.5 60.5S607 103.913 607 70.5 579.913 10 546.5 10m0 2c32.309 0 58.5 26.191 58.5 58.5S578.809 129 546.5 129 488 102.809 488 70.5 514.191 12 546.5 12"/><path fill="#e21c3d" d="m376.344 254.514 105.14 105.143a10.1 10.1 0 0 0-2.827 2.828L373.514 257.344a10.1 10.1 0 0 0 2.83-2.83M239 249q.002 1.03.2 2H130v-4h109.2q-.198.97-.2 2m119.2-2a10.05 10.05 0 0 0 0 4h-99.4a10.05 10.05 0 0 0 0-4zm1.458-111.484a10.1 10.1 0 0 0 2.828 2.827L257.344 243.487a10.1 10.1 0 0 0-2.829-2.83l105.143-105.14z"/><path fill="#e21c3d" d="M243.486 138.343 131.414 250.414l-2.828-2.828 112.072-112.07a10.1 10.1 0 0 0 2.828 2.827m-121.828-2.827a10.1 10.1 0 0 0 2.828 2.827L19.344 243.487a10.1 10.1 0 0 0-2.829-2.83l105.143-105.14zM19.344 254.514l105.142 105.143a10.1 10.1 0 0 0-2.83 2.829L16.515 257.344a10.1 10.1 0 0 0 2.83-2.83z"/><path fill="#e21c3d" d="M132 249v109.2a10.05 10.05 0 0 0-4 0V249zm107.2 117a10.05 10.05 0 0 0 0 4h-99.4a10.05 10.05 0 0 0 0-4zm238 0a10.05 10.05 0 0 0 0 4h-99.4a10.05 10.05 0 0 0 0-4zM489 258.8v99.4a10.05 10.05 0 0 0-4 0v-99.4c1.32.268 2.68.268 4 0m0-119v99.4a10.05 10.05 0 0 0-4 0v-99.4c1.32.268 2.68.268 4 0m0-119v99.4a10.05 10.05 0 0 0-4 0V20.8c1.32.268 2.68.268 4 0M596 130q.002 1.03.2 2h-99.4a10.05 10.05 0 0 0 0-4h99.4q-.198.97-.2 2M132 20.8v99.4a10.05 10.05 0 0 0-4 0V20.8c1.32.268 2.68.268 4 0"/><path fill="#e21c3d" d="M130 0c-6.075 0-11 4.925-11 11s4.925 11 11 11 11-4.925 11-11-4.925-11-11-11m0 4a7.001 7.001 0 1 1 0 14.002A7.001 7.001 0 0 1 130 4m0 115c-6.075 0-11 4.925-11 11s4.925 11 11 11 11-4.925 11-11-4.925-11-11-11m0 4a7.003 7.003 0 0 1 7 7 6.999 6.999 0 1 1-14 0 7.003 7.003 0 0 1 7-7M11 238c-6.075 0-11 4.925-11 11s4.925 11 11 11 11-4.925 11-11-4.925-11-11-11m0 4a6.999 6.999 0 0 1 4.95 11.95A6.999 6.999 0 0 1 4 249a7 7 0 0 1 7-7m476-4c-6.075 0-11 4.925-11 11s4.925 11 11 11 11-4.925 11-11-4.925-11-11-11m0 4a6.999 6.999 0 1 1 0 14 6.999 6.999 0 1 1 0-14m0 115c-6.075 0-11 4.925-11 11s4.925 11 11 11 11-4.925 11-11-4.925-11-11-11m0 4a7.003 7.003 0 0 1 7 7 7.003 7.003 0 0 1-7 7 7.003 7.003 0 0 1-7-7 7.003 7.003 0 0 1 7-7M368 238c-6.075 0-11 4.925-11 11s4.925 11 11 11 11-4.925 11-11-4.925-11-11-11m0 4a6.999 6.999 0 1 1 0 14 6.999 6.999 0 1 1 0-14m0 115c-6.075 0-11 4.925-11 11s4.925 11 11 11 11-4.925 11-11-4.925-11-11-11m0 4a7.003 7.003 0 0 1 7 7 7.003 7.003 0 0 1-7 7 7.003 7.003 0 0 1-7-7 7.003 7.003 0 0 1 7-7m-238-4c-6.075 0-11 4.925-11 11s4.925 11 11 11 11-4.925 11-11-4.925-11-11-11m0 4a7.003 7.003 0 0 1 7 7 6.999 6.999 0 1 1-14 0 7.003 7.003 0 0 1 7-7m119-4c-6.075 0-11 4.925-11 11s4.925 11 11 11 11-4.925 11-11-4.925-11-11-11m0 4a7.003 7.003 0 0 1 7 7 6.999 6.999 0 1 1-14 0 7 7 0 0 1 7-7m0-123c-6.075 0-11 4.925-11 11s4.925 11 11 11 11-4.925 11-11-4.925-11-11-11m0 4a6.999 6.999 0 1 1 0 14 6.999 6.999 0 1 1 0-14m238-123c-6.075 0-11 4.925-11 11s4.925 11 11 11 11-4.925 11-11-4.925-11-11-11m0 4a7.003 7.003 0 0 1 7 7 7.003 7.003 0 0 1-7 7 6.999 6.999 0 1 1 0-14m-119-4c-6.075 0-11 4.925-11 11s4.925 11 11 11 11-4.925 11-11-4.925-11-11-11m0 4a7.003 7.003 0 0 1 7 7 7.003 7.003 0 0 1-7 7 6.999 6.999 0 1 1 0-14m-119-4c-6.075 0-11 4.925-11 11s4.925 11 11 11 11-4.925 11-11-4.925-11-11-11m0 4a7.003 7.003 0 0 1 7 7 6.999 6.999 0 1 1-14 0 7 7 0 0 1 7-7m357-4c-6.075 0-11 4.925-11 11s4.925 11 11 11 11-4.925 11-11-4.925-11-11-11m0 4a7.003 7.003 0 0 1 7 7 6.999 6.999 0 1 1-14 0 7 7 0 0 1 7-7M487 0c-6.075 0-11 4.925-11 11s4.925 11 11 11 11-4.925 11-11-4.925-11-11-11m0 4a7.005 7.005 0 0 1 6.467 4.321 7 7 0 0 1-1.517 7.629 7 7 0 0 1-9.9 0 7.003 7.003 0 0 1 0-9.9A7 7 0 0 1 487 4"/><path fill="#b51e23" d="M140.628 231h-10.736v36.482c10.186-4.343 13.747-9.972 14.648-11.727.17-.335.256-.704.253-1.077v-19.665a3.95 3.95 0 0 0-1.22-2.838 4.25 4.25 0 0 0-2.945-1.175"/><path fill="#e21d3e" d="M119.165 231c-2.3 0-4.165 1.797-4.165 4.013v19.665c-.003.373.083.742.252 1.077.902 1.738 4.508 7.41 14.64 11.727V231z"/><path fill="#fff" d="M132.533 246.722c1.416-1.074 1.97-2.894 1.381-4.535-.59-1.64-2.193-2.74-3.995-2.74s-3.406 1.1-3.995 2.74c-.59 1.641-.035 3.461 1.38 4.535q-.702 3.83-1.388 7.661a24.5 24.5 0 0 0 3.976.33 24 24 0 0 0 4.038-.26c-.468-2.606-.901-5.16-1.397-7.731"/><path fill="#0071bb" d="M130 477c-5.523 0-10 4.477-10 10s4.477 10 10 10 10-4.477 10-10-4.477-10-10-10m0 2a8 8 0 1 1 0 16 8 8 0 0 1 0-16m119-2c-5.523 0-10 4.477-10 10s4.477 10 10 10 10-4.477 10-10-4.477-10-10-10m0 2a8 8 0 1 1 0 16 8 8 0 0 1 0-16m0-478c-5.523 0-10 4.477-10 10s4.477 10 10 10 10-4.477 10-10-4.477-10-10-10m0 2a8 8 0 1 1 0 15.999A8 8 0 0 1 249 3"/><path fill="#e21c3d" d="M249 238c-6.075 0-11 4.925-11 11s4.925 11 11 11 11-4.925 11-11-4.925-11-11-11m0 4a6.999 6.999 0 1 1 0 14 6.999 6.999 0 1 1 0-14"/><path fill="#0071bb" d="M130 477c-5.523 0-10 4.477-10 10s4.477 10 10 10 10-4.477 10-10-4.477-10-10-10m0 2a8 8 0 1 1 0 16 8 8 0 0 1 0-16"/></svg>