<svg xmlns="http://www.w3.org/2000/svg" width="34" height="34" fill="none"><path fill="#cedced" d="m18.062.033-.124 1.996Q17.471 1.999 17 2V0q.533 0 1.062.033m2.107.263-.372 1.965a15 15 0 0 0-.926-.145L19.12.131q.528.067 1.05.165zm2.068.529-.617 1.902a15 15 0 0 0-.9-.26l.496-1.938q.516.132 1.021.296m2.001.793-.854 1.809q-.424-.2-.86-.374l.739-1.858q.495.196.975.423m1.847 1.017-1.072 1.689a15 15 0 0 0-.807-.478l.964-1.752q.466.256.915.54zm1.734 1.26-1.274 1.54q-.362-.297-.741-.574l1.176-1.618q.43.313.839.651zm1.57 1.474-1.457 1.37q-.321-.343-.663-.664l1.37-1.457q.388.364.75.751m1.382 1.671-1.62 1.174q-.274-.38-.573-.742L30.12 6.2q.338.41.65.84zm1.1 1.726-1.748.972a15 15 0 0 0-.481-.805l1.684-1.079q.287.448.545.912m.92 1.936-1.857.742q-.174-.435-.375-.858l1.807-.858q.227.48.425.974m.67 2.042-1.937.501a15 15 0 0 0-.263-.9l1.901-.62q.165.504.299 1.02zm.405 2.115-1.985.25q-.059-.466-.146-.925l1.965-.375q.099.522.166 1.05M32 17.029v-.046q0-.456-.028-.91l1.996-.121.023.513.009.567-2-.004zm1.864 2.123-1.984-.251q.06-.465.089-.934l1.996.127q-.034.532-.1 1.058zm-.4 2.09-1.937-.499q.117-.453.205-.914l1.965.376q-.1.524-.233 1.037m-.665 2.036-1.858-.74q.174-.435.32-.881l1.9.622q-.165.505-.362.999m-.928 1.955-1.748-.972q.228-.41.43-.832l1.805.86q-.229.48-.487.944m-1.127 1.765-1.616-1.179q.276-.378.528-.774l1.686 1.075q-.286.449-.598.878M29.37 28.65l-1.455-1.371q.322-.342.622-.702l1.537 1.278q-.339.41-.704.795m-1.58 1.478-1.27-1.544q.362-.299.705-.618l1.365 1.462q-.39.362-.8.7M26.03 31.4l-1.065-1.693q.397-.249.778-.523l1.168 1.623q-.431.31-.88.593zm-1.778.976-.856-1.808q.424-.2.835-.427l.967 1.75q-.465.258-.946.485m-1.994.793-.62-1.902q.447-.145.882-.318l.738 1.859q-.495.195-1 .36zm-2.083.534-.372-1.965q.46-.087.914-.203l.496 1.937q-.515.132-1.038.231m-2.141.266-.12-1.996q.47-.03.934-.086l.244 1.985q-.526.065-1.058.097m-2.16-.006.132-1.996q.467.03.938.033l-.008 2a17 17 0 0 1-1.061-.037zm-2.107-.271.38-1.964q.458.09.925.149l-.256 1.983a17 17 0 0 1-1.05-.168zm-2.067-.537.625-1.9q.444.145.899.264l-.503 1.936a18 18 0 0 1-1.02-.3zm-1.996-.8.86-1.806q.424.201.859.377l-.746 1.855a17 17 0 0 1-.973-.427zM7.86 31.33l1.078-1.685q.394.254.805.48l-.97 1.75q-.466-.259-.913-.545m-1.73-1.266 1.28-1.537q.36.3.74.578l-1.183 1.613q-.429-.315-.837-.654m-1.565-1.48 1.463-1.364q.32.342.66.665l-1.375 1.452a17 17 0 0 1-.748-.754zm-1.376-1.678 1.624-1.168q.274.381.571.744l-1.548 1.266a17 17 0 0 1-.647-.842m-1.092-1.73 1.752-.964q.226.41.478.807L2.638 26.09q-.285-.45-.541-.915zm-.913-1.94 1.86-.735q.172.437.372.86l-1.81.852q-.226-.48-.422-.976zm-.662-2.044 1.939-.493q.115.455.26.9l-1.904.615q-.164-.506-.295-1.022m-.396-2.117 1.985-.243q.057.466.143.927l-1.966.366a17 17 0 0 1-.162-1.05M2 16.915v.1q0 .429.025.853l-1.997.114-.021-.481L0 16.903l2 .011zM.143 14.783l1.984.26q-.06.463-.093.933L.04 15.842q.036-.532.104-1.058zm.408-2.088 1.935.506q-.118.453-.208.913L.315 13.73q.102-.522.236-1.035m.674-2.035 1.855.748q-.176.435-.323.88l-1.899-.63q.168-.505.367-.998m.935-1.95 1.744.978q-.23.41-.433.832L1.67 9.652q.23-.48.49-.943zm1.133-1.758 1.611 1.184q-.277.378-.531.773L2.692 7.826q.287-.447.602-.875zm1.38-1.65 1.45 1.377q-.323.34-.624.7L3.967 6.093q.34-.407.707-.792zm1.584-1.47L7.522 5.38q-.363.298-.707.616l-1.36-1.467q.39-.36.802-.697m1.77-1.267 1.057 1.697q-.398.25-.78.52L7.145 3.155q.433-.31.883-.59zm1.778-.967.849 1.81q-.425.2-.836.425l-.96-1.754q.466-.255.947-.481M11.804.81l.612 1.904q-.446.144-.882.315l-.731-1.862q.494-.193 1.001-.357M13.89.285l.365 1.966a15 15 0 0 0-.915.2l-.488-1.94q.515-.129 1.038-.226m2.142-.258.112 1.997q-.47.027-.934.082L14.973.12Q15.5.057 16.032.027"/><path fill="#0071bb" fill-rule="evenodd" d="M29.405 4.903 17.819.215a3.02 3.02 0 0 0-2.233 0L4 4.903c-1.077.438-1.78 1.46-1.78 2.595 0 11.628 6.909 19.672 13.366 22.287a3.02 3.02 0 0 0 2.233 0c5.16-2.084 13.366-9.315 13.366-22.287 0-1.136-.704-2.157-1.78-2.595" clip-rule="evenodd"/><path fill="#fff" fill-rule="evenodd" d="M16.702 26.897V3.103l11.38 4.694c-.668 10.959-7.257 17.036-11.38 19.1" clip-rule="evenodd"/><path fill="#3d9bda" d="M28 25a6 6 0 1 0 0-12 6 6 0 0 0 0 12"/><path fill="#fff" d="m26.626 22.757-2.763-2.963a.48.48 0 0 1 0-.645l.601-.645a.404.404 0 0 1 .601 0l1.861 1.997 3.986-4.277a.404.404 0 0 1 .601 0l.601.645a.48.48 0 0 1 0 .645l-4.887 5.243a.405.405 0 0 1-.601 0"/></svg>