<svg width="34" height="34" viewBox="0 0 34 34" fill="none" xmlns="http://www.w3.org/2000/svg"><path d="m18.062.033-.124 1.996C17.627 2.009 17.314 2 17 2V0c.355 0 .71.011 1.062.033zm2.107.263-.372 1.965a14.936 14.936 0 0 0-.926-.145L19.12.131c.352.044.702.1 1.05.165h-.001zm2.068.529-.617 1.902a14.858 14.858 0 0 0-.9-.26l.496-1.938c.344.088.684.187 1.021.296zm2.001.793-.854 1.809c-.282-.134-.57-.258-.86-.374l.739-1.858c.33.13.655.272.975.423zm1.847 1.017-1.072 1.689a15.035 15.035 0 0 0-.807-.478l.964-1.752c.31.17.616.351.915.54v.001zm1.734 1.26-1.274 1.54c-.241-.198-.489-.39-.741-.574l1.176-1.618c.286.209.566.426.839.651v.001zm1.57 1.474-1.457 1.37c-.214-.229-.435-.45-.663-.664l1.37-1.457c.258.243.509.493.75.751zm1.382 1.671-1.62 1.174c-.183-.253-.374-.5-.573-.742L30.12 6.2c.225.273.442.553.65.84h.001zm1.1 1.726-1.748.972a14.989 14.989 0 0 0-.481-.805l1.684-1.079c.191.298.373.603.545.912zm.92 1.936-1.857.742c-.116-.29-.241-.576-.375-.858l1.807-.858c.152.32.293.644.425.974zm.67 2.042-1.937.501a14.892 14.892 0 0 0-.263-.9l1.901-.62c.11.336.21.676.299 1.02v-.001zm.405 2.115-1.985.25c-.039-.31-.088-.619-.146-.925l1.965-.375c.066.348.121.698.166 1.05zM32 17.029v-.046c0-.304-.01-.607-.028-.91l1.996-.121.023.513.009.567-2-.004v.001zm1.864 2.123-1.984-.251c.04-.31.069-.621.089-.934l1.996.127c-.023.355-.056.707-.1 1.058h-.001zm-.4 2.09-1.937-.499c.078-.302.147-.607.205-.914l1.965.376c-.067.349-.145.695-.233 1.037zm-.665 2.036-1.858-.74c.116-.29.222-.584.32-.881l1.9.622c-.11.337-.23.67-.362.999zm-.928 1.955-1.748-.972c.152-.273.295-.55.43-.832l1.805.86c-.152.32-.315.634-.487.944zm-1.127 1.765-1.616-1.179c.184-.252.36-.51.528-.774l1.686 1.075c-.19.299-.39.592-.598.878zM29.37 28.65l-1.455-1.371c.214-.228.422-.462.622-.702l1.537 1.278c-.226.273-.46.538-.704.795zm-1.58 1.478-1.27-1.544c.241-.199.476-.405.705-.618l1.365 1.462c-.26.241-.526.475-.8.7zM26.03 31.4l-1.065-1.693c.265-.166.524-.34.778-.523l1.168 1.623c-.287.207-.581.405-.88.593h-.001zm-1.778.976-.856-1.808c.283-.134.561-.276.835-.427l.967 1.75c-.31.172-.626.333-.946.485zm-1.994.793-.62-1.902c.298-.097.592-.203.882-.318l.738 1.859c-.33.13-.663.25-1 .36v.001zm-2.083.534-.372-1.965c.307-.058.612-.126.914-.203l.496 1.937c-.343.088-.69.165-1.038.231zm-2.141.266-.12-1.996c.313-.02.624-.048.934-.086l.244 1.985c-.35.043-.704.076-1.058.097zm-2.16-.006.132-1.996c.311.02.624.032.938.033l-.008 2a16.993 16.993 0 0 1-1.061-.037h-.001zm-2.107-.271.38-1.964c.305.06.614.109.925.149l-.256 1.983a16.924 16.924 0 0 1-1.05-.168h.001zm-2.067-.537.625-1.9c.296.097.596.185.899.264l-.503 1.936a18.05 18.05 0 0 1-1.02-.3H11.7zm-1.996-.8.86-1.806c.283.134.569.26.859.377l-.746 1.855a16.914 16.914 0 0 1-.973-.427v.001zM7.86 31.33l1.078-1.685c.263.169.531.329.805.48l-.97 1.75c-.31-.173-.615-.354-.913-.545zm-1.73-1.266 1.28-1.537c.24.2.487.393.74.578l-1.183 1.613c-.286-.21-.565-.428-.837-.654zm-1.565-1.48 1.463-1.364c.213.228.433.45.66.665l-1.375 1.452a17.113 17.113 0 0 1-.748-.754v.001zm-1.376-1.678 1.624-1.168c.183.254.373.502.571.744l-1.548 1.266a17.1 17.1 0 0 1-.647-.842zm-1.092-1.73 1.752-.964c.15.273.31.543.478.807L2.638 26.09c-.19-.3-.37-.604-.541-.915v.001zm-.913-1.94 1.86-.735c.115.291.239.578.372.86l-1.81.852c-.15-.32-.292-.646-.422-.976v-.001zm-.662-2.044 1.939-.493c.077.303.163.603.26.9l-1.904.615c-.11-.337-.207-.678-.295-1.022zm-.396-2.117 1.985-.243c.038.311.086.62.143.927l-1.966.366a16.929 16.929 0 0 1-.162-1.05zM2 16.915v.1c0 .286.008.57.025.853l-1.997.114-.021-.481L0 16.903l2 .011v.001zM.143 14.783l1.984.26c-.04.309-.072.62-.093.933L.04 15.842c.024-.355.059-.707.104-1.058l-.001-.001zm.408-2.088 1.935.506c-.079.302-.148.606-.208.913L.315 13.73c.068-.348.147-.693.236-1.035zm.674-2.035 1.855.748c-.117.29-.225.583-.323.88l-1.899-.63c.112-.336.234-.67.367-.998zm.935-1.95 1.744.978c-.153.273-.297.55-.433.832L1.67 9.652c.154-.32.317-.634.49-.943v.001zm1.133-1.758 1.611 1.184c-.185.252-.362.51-.531.773L2.692 7.826c.191-.298.392-.59.602-.875l-.001.001zm1.38-1.65 1.45 1.377c-.215.227-.423.46-.624.7L3.967 6.093c.227-.271.463-.536.707-.792l-.001.001zm1.584-1.47L7.522 5.38c-.242.198-.478.404-.707.616l-1.36-1.467c.26-.24.528-.473.802-.697zm1.77-1.267 1.057 1.697c-.265.166-.525.34-.78.52L7.145 3.155c.288-.206.583-.403.883-.59h-.001zm1.778-.967.849 1.81c-.283.134-.562.275-.836.425l-.96-1.754c.31-.17.627-.33.947-.481zM11.804.81l.612 1.904c-.297.096-.592.201-.882.315l-.731-1.862c.33-.129.663-.248 1.001-.357zM13.89.285l.365 1.966a14.75 14.75 0 0 0-.915.2l-.488-1.94c.343-.086.69-.161 1.038-.226zm2.142-.258.112 1.997c-.313.018-.624.045-.934.082L14.973.12c.351-.042.704-.073 1.059-.093z" fill="#CEDCED"/><path fill-rule="evenodd" clip-rule="evenodd" d="M29.405 4.903 17.819.215a3.016 3.016 0 0 0-2.233 0L4 4.903c-1.077.438-1.78 1.46-1.78 2.595 0 11.628 6.909 19.672 13.366 22.287a3.02 3.02 0 0 0 2.233 0c5.16-2.084 13.366-9.315 13.366-22.287 0-1.136-.704-2.157-1.78-2.595z" fill="#0071BB"/><path fill-rule="evenodd" clip-rule="evenodd" d="M16.702 26.897V3.103l11.38 4.694c-.668 10.959-7.257 17.036-11.38 19.1z" fill="#fff"/><path d="M28 25a6 6 0 1 0 0-12 6 6 0 0 0 0 12z" fill="#3D9BDA"/><path d="m26.626 22.757-2.763-2.963a.48.48 0 0 1 0-.645l.601-.645a.404.404 0 0 1 .601 0l1.861 1.997 3.986-4.277a.404.404 0 0 1 .601 0l.601.645a.48.48 0 0 1 0 .645l-4.887 5.243a.405.405 0 0 1-.601 0z" fill="#fff"/></svg>