<svg width="435" height="435" viewBox="" fill="none" xmlns="http://www.w3.org/2000/svg">
  <path d="m164.349 0 7.464 4.30926v8.61854l-7.464 4.3092-7.464-4.3092V4.30926L164.349 0Z" fill="#B7DDE9"/>
  <path d="m176.182 40.5505 18.096 4.804 4.888 18.0738-13.208 13.2697-18.097-4.804-4.887-18.0737 13.208-13.2698ZM64.0016 133.956l5.7145 9.045-4.9759 9.472-10.6903.426-5.7145-9.045 4.9759-9.471 10.6903-.427Z" fill="#0071BB" fill-opacity=".5"/>
  <path opacity=".5" d="m41.6068 199.712 9.2655 5.349v10.699l-9.2655 5.349-9.2654-5.349v-10.699l9.2654-5.349Z" fill="#00A2C4"/>
  <path opacity=".5" d="m107.936 289.071 3.635 11.941-8.524 9.119-12.1583-2.823-3.635-11.941 8.5237-9.118 12.1586 2.822Z" fill="#CEDCED"/>
  <path d="m240.095 367.727 7.988 7.117-2.171 10.477-10.157 3.358-7.988-7.117 2.17-10.477 10.158-3.358Z" fill="#FFF0F3"/>
  <path d="m286.853 376.512 8.785 1.523 3.072 8.37-5.711 6.846-8.785-1.524-3.073-8.369 5.712-6.846Z" fill="#EA7B85"/>
  <path opacity=".5" d="m239.697 337.29 7.027 1.219 2.458 6.695-4.569 5.477-7.028-1.219-2.458-6.696 4.57-5.476Z" fill="#0071BB" fill-opacity=".5"/>
  <path opacity=".5" d="m160.526 389.155 14.436-3.524 10.27 10.739-4.166 14.264-14.436 3.524-10.27-10.74 4.166-14.263Zm207.278-135.6 15.013-3.665 10.681 11.169-4.333 14.834-15.013 3.665-10.681-11.169 4.333-14.834Z" fill="#0071BB"/>
  <path d="m418.068 266.366 9.489.63 4.2 8.533-5.29 7.903-9.489-.63-4.2-8.532 5.29-7.904Z" fill="#F3B8BE"/>
  <path opacity=".5" d="m341.748 207.724 20.339-4.372 13.956 15.427-6.383 19.8-20.339 4.372-13.956-15.428 6.383-19.799Z" fill="#EA7B85"/>
  <path opacity=".5" d="m345.195 192.548 17.779-1.367 10.074 14.714-7.706 16.08-17.779 1.367-10.074-14.714 7.706-16.08Z" fill="#7BBFD6"/>
  <path d="m201.197 416.028 8.65-2.511 6.5 6.237-2.152 8.747-8.65 2.51-6.5-6.237 2.152-8.746Z" fill="#EA7B85"/>
  <path d="m201.197 416.028 8.65-2.511 6.5 6.237-2.152 8.747-8.65 2.51-6.5-6.237 2.152-8.746Z" fill="#EA7B85"/>
  <path opacity=".5" d="m178.822 355.136 17.081-13.123 19.906 8.232 2.824 21.354-17.082 13.123-19.905-8.232-2.824-21.354Z" fill="#EA7B85"/>
  <path opacity=".5" d="m270.723 330.372 3.994 3.559-1.085 5.238-5.079 1.679-3.994-3.558 1.085-5.239 5.079-1.679Z" fill="#CEDCED"/>
  <path opacity=".5" d="m41.6067 172.965 13.3835 7.727v15.454l-13.3835 7.727-13.3834-7.727v-15.454l13.3834-7.727Zm91.3923-93.8751 15.445.5146 7.278 13.6332-8.169 13.1183-15.445-.514-7.277-13.6334 8.168-13.1187Z" fill="#EA7B85"/>
  <path d="m43.9841 110.555 6.177 3.566v7.133l-6.177 3.566-6.177-3.566v-7.133l6.177-3.566Z" fill="#FFF0F3"/>
  <path d="m4.75505 159.888 4.11799 2.378v4.755l-4.11799 2.377-4.117995-2.377v-4.755l4.117995-2.378Z" fill="#EA7B85"/>
  <path opacity=".5" d="m59.9845 157.306 14.6598 13.031-3.9557 19.212-18.6156 6.18-14.6598-13.032 3.9558-19.211 18.6155-6.18Z" fill="#FFF0F3"/>
  <path d="m287.09 19.6145 5.663 3.2691v6.5382l-5.663 3.2691-5.662-3.2691v-6.5382l5.662-3.2691Z" fill="#EA7B85"/>
  <path d="m371.792 115.905 3.345 1.931v3.864l-3.345 1.931-3.346-1.931v-3.864l3.346-1.931Z" fill="#7BBFD6"/>
  <path d="m208.631 44.2812 137.836 79.9478v159.295l-137.836 79.643-139.6184-79.643V124.229L208.631 44.2812Z" fill="#AB142F"/>
  <path d="m113.249 178.556 58.887 10.383 20.45 56.188-38.435 45.805-58.8864-10.383-20.4508-56.188 38.4352-45.805Z" fill="#00A2C4"/>
  <path d="m190.225 58.6859 64.254 13.6329s44.612 22.2263 46.22 26.6438c12.307 33.8124 27.754 75.7084 27.754 75.7084l-66.965 79.804-102.596-18.09-35.632-97.895 66.965-79.8041Z" fill="#E21C3D" style="mix-blend-mode:color"/>
  <path d="m112.655 141.109 58.886 10.383 20.451 56.188-38.435 45.806-58.8866-10.383-20.4508-56.188 38.4354-45.806Zm44.491-67.1589 45.899-25.0125 20.451 51.1644-38.435 45.805-58.887-10.383-13.072-36.0176 44.044-25.5563Z" fill="#F2F9FF" style="mix-blend-mode:hue"/>
  <path d="m221.43 92.3706 58.886 10.3834 20.451 56.188-38.435 45.804-58.887-10.383-20.451-56.188 38.436-45.8044Z" fill="#00A2C4"/>
  <path d="m157.435 97.5393 111.422 19.6457 38.696 106.317-72.726 86.671-111.422-19.646L84.7087 184.21l72.7263-86.6707Z" fill="#F2F9FF" style="mix-blend-mode:soft-light"/>
  <path d="m123.355 170.833 58.886 10.383 20.452 56.188-38.436 45.805-58.886-10.383-20.4516-56.188 38.4356-45.805Zm147.409-32.099 58.886 10.384 15.637 45.545v13.05l-33.621 43.397-58.886-10.383-20.452-56.188 38.436-45.805Z" fill="#AB142F" style="mix-blend-mode:soft-light"/>
  <path opacity=".5" d="m273.142 215.408 52.367 12.756 20.451 56.188-57.223 32.654-27.06-1.978-20.451-56.188 31.916-43.432Z" fill="#AB142F"/>
  <path d="m202.409 218.381 58.887 10.383 20.451 56.188-38.436 45.804-58.886-10.383-20.452-56.188 38.436-45.804Z" fill="#AB142F" style="mix-blend-mode:soft-light"/>
  <g style="mix-blend-mode:hard-light">
    <path d="M208.631 108.177 68.9494 124.225l56.4676 126.901 83.214 110.852 82.323-109.66 54.982-127.796-137.305-16.345Z" fill="url(#a)"/>
    <path d="M208.631 108.177 68.9494 124.225l56.4676 126.901 83.214 110.852 82.323-109.66 54.982-127.796-137.305-16.345Z" stroke="#00BFE7" stroke-width="2"/>
  </g>
  <g style="mix-blend-mode:multiply">
    <path d="m207.731 105.288-85.211 50.578-.613 96.547 86.131 52.11 84.598-51.493v-98.394l-84.905-49.348Z" fill="#fff"/>
    <path d="m207.731 105.288-85.211 50.578-.613 96.547 86.131 52.11 84.598-51.493v-98.394l-84.905-49.348Z" stroke="#005087" stroke-width="2"/>
  </g>
  <circle cx="207.732" cy="105.595" r="4.90415" fill="#005087"/>
  <circle cx="292.943" cy="155.25" r="3.06509" fill="#005087"/>
  <circle cx="292.943" cy="252.72" r="3.06509" fill="#005087"/>
  <circle cx="121.907" cy="155.25" r="3.06509" fill="#005087"/>
  <circle cx="121.907" cy="252.719" r="3.06509" fill="#005087"/>
  <circle cx="207.732" cy="302.987" r="4.90415" fill="#005087"/>
  <path d="M179.803 188.125 68.9494 124.229m0 0L208.631 44.5782l137.602 79.6508m-277.2836 0v159.889M346.233 124.229l-110.26 63.896m110.26-63.896v159.889m-110.26-64.792 110.26 64.792m0 0-137.602 78.751-139.6816-78.751m0 0 110.8536-64.792" stroke="#F2F9FF" stroke-width="2"/>
  <circle cx="208.631" cy="46.956" r="7.72695" fill="#00A2C4"/>
  <circle cx="345.638" cy="124.522" r="4.45786" fill="#00A2C4"/>
  <circle cx="345.638" cy="282.628" r="4.45786" fill="#00A2C4"/>
  <circle cx="69.2466" cy="124.522" r="4.45786" fill="#00A2C4"/>
  <circle cx="69.2466" cy="282.628" r="4.45786" fill="#00A2C4"/>
  <circle cx="208.631" cy="359.6" r="7.72695" fill="#00A2C4"/>
  <path d="M239.387 146.812h-32.449v116.224c30.787-13.836 41.549-31.768 44.274-37.358.511-1.069.773-2.243.762-3.431v-62.65c0-3.391-1.326-6.643-3.686-9.04-2.361-2.398-5.563-3.745-8.901-3.745Z" fill="#B51E23"/>
  <path d="M175.748 146.812c-6.952 0-12.587 5.724-12.587 12.785v62.65c-.01 1.188.251 2.363.762 3.431 2.725 5.535 13.623 23.605 44.247 37.358V146.812h-32.422Z" fill="#E21D3E"/>
  <path d="M215.455 196.899c4.28-3.42 5.955-9.22 4.174-14.446-1.782-5.227-6.629-8.732-12.075-8.732s-10.293 3.505-12.075 8.732c-1.782 5.226-.106 11.026 4.174 14.446-1.417 8.135-2.816 16.271-4.196 24.407 3.968.694 7.988 1.046 12.015 1.051 4.085.083 8.169-.195 12.206-.83-1.417-8.302-2.725-16.437-4.223-24.628Z" fill="#fff"/>
  <defs>
    <radialGradient id="a" cx="0" cy="0" r="1" gradientUnits="userSpaceOnUse" gradientTransform="matrix(0 126.603 -136.859 0 207.591 235.676)">
      <stop stop-color="#fff"/>
      <stop offset="1" stop-color="#DEDEDE"/>
    </radialGradient>
  </defs>
</svg>
