<svg xmlns="http://www.w3.org/2000/svg" width="435" height="435" fill="none"><path fill="#b7dde9" d="m164.349 0 7.464 4.31v8.618l-7.464 4.309-7.464-4.31V4.31z"/><path fill="#0071bb" fill-opacity=".5" d="m176.182 40.55 18.096 4.805 4.888 18.073-13.208 13.27-18.097-4.804-4.887-18.074zm-112.18 93.406 5.714 9.045-4.976 9.472-10.69.426-5.715-9.045 4.976-9.471 10.69-.427z"/><path fill="#00a2c4" d="m41.607 199.712 9.265 5.349v10.699l-9.265 5.349-9.266-5.349v-10.699z" opacity=".5"/><path fill="#cedced" d="m107.936 289.071 3.635 11.941-8.524 9.119-12.158-2.823-3.635-11.941 8.523-9.118z" opacity=".5"/><path fill="#fff0f3" d="m240.095 367.727 7.988 7.117-2.171 10.477-10.157 3.358-7.988-7.117 2.17-10.477z"/><path fill="#ea7b85" d="m286.853 376.512 8.785 1.523 3.072 8.37-5.711 6.846-8.785-1.524-3.073-8.369z"/><path fill="#0071bb" fill-opacity=".5" d="m239.697 337.29 7.027 1.219 2.458 6.695-4.569 5.477-7.028-1.219-2.458-6.696z" opacity=".5"/><path fill="#0071bb" d="m160.526 389.155 14.436-3.524 10.27 10.739-4.166 14.264-14.436 3.524-10.27-10.74zm207.278-135.6 15.013-3.665 10.681 11.169-4.333 14.834-15.013 3.665-10.681-11.169z" opacity=".5"/><path fill="#f3b8be" d="m418.068 266.366 9.489.63 4.2 8.533-5.29 7.903-9.489-.63-4.2-8.532z"/><path fill="#ea7b85" d="m341.748 207.724 20.339-4.372 13.956 15.427-6.383 19.8-20.339 4.372-13.956-15.428z" opacity=".5"/><path fill="#7bbfd6" d="m345.195 192.548 17.779-1.367 10.074 14.714-7.706 16.08-17.779 1.367-10.074-14.714z" opacity=".5"/><path fill="#ea7b85" d="m201.197 416.028 8.65-2.511 6.5 6.237-2.152 8.747-8.65 2.51-6.5-6.237z"/><path fill="#ea7b85" d="m201.197 416.028 8.65-2.511 6.5 6.237-2.152 8.747-8.65 2.51-6.5-6.237z"/><path fill="#ea7b85" d="m178.822 355.136 17.081-13.123 19.906 8.232 2.824 21.354-17.082 13.123-19.905-8.232z" opacity=".5"/><path fill="#cedced" d="m270.723 330.372 3.994 3.559-1.085 5.238-5.079 1.679-3.994-3.558 1.085-5.239z" opacity=".5"/><path fill="#ea7b85" d="m41.607 172.965 13.383 7.727v15.454l-13.383 7.727-13.384-7.727v-15.454zm91.392-93.875 15.445.514 7.278 13.634-8.169 13.118-15.445-.514-7.277-13.633 8.168-13.12z" opacity=".5"/><path fill="#fff0f3" d="m43.984 110.555 6.177 3.566v7.133l-6.177 3.566-6.177-3.566v-7.133z"/><path fill="#ea7b85" d="m4.755 159.888 4.118 2.378v4.755l-4.118 2.377-4.118-2.377v-4.755z"/><path fill="#fff0f3" d="m59.984 157.306 14.66 13.031-3.955 19.212-18.616 6.18-14.66-13.032 3.956-19.211 18.616-6.18z" opacity=".5"/><path fill="#ea7b85" d="m287.09 19.614 5.663 3.27v6.538l-5.663 3.269-5.662-3.27v-6.537z"/><path fill="#7bbfd6" d="m371.792 115.905 3.345 1.931v3.864l-3.345 1.931-3.346-1.931v-3.864z"/><path fill="#ab142f" d="m208.631 44.281 137.836 79.948v159.295l-137.836 79.643-139.618-79.643V124.229L208.63 44.281z"/><path fill="#00a2c4" d="m113.249 178.556 58.887 10.383 20.45 56.188-38.435 45.805-58.886-10.383-20.451-56.188z"/><path fill="#e21c3d" d="m190.225 58.686 64.254 13.633s44.612 22.226 46.22 26.644c12.307 33.812 27.754 75.708 27.754 75.708l-66.965 79.804-102.596-18.09-35.632-97.895z" style="mix-blend-mode:color"/><path fill="#f2f9ff" d="m112.655 141.109 58.886 10.383 20.451 56.188-38.435 45.806-58.887-10.383-20.45-56.188zm44.491-67.159 45.899-25.012 20.451 51.164-38.435 45.805-58.887-10.383-13.072-36.018z" style="mix-blend-mode:hue"/><path fill="#00a2c4" d="m221.43 92.37 58.886 10.384 20.451 56.188-38.435 45.804-58.887-10.383-20.451-56.188 38.436-45.804z"/><path fill="#f2f9ff" d="m157.435 97.54 111.422 19.645 38.696 106.317-72.726 86.671-111.422-19.646L84.709 184.21z" style="mix-blend-mode:soft-light"/><path fill="#ab142f" d="m123.355 170.833 58.886 10.383 20.452 56.188-38.436 45.805-58.886-10.383-20.452-56.188zm147.409-32.099 58.886 10.384 15.637 45.545v13.05l-33.621 43.397-58.886-10.383-20.452-56.188z" style="mix-blend-mode:soft-light"/><path fill="#ab142f" d="m273.142 215.408 52.367 12.756 20.451 56.188-57.223 32.654-27.06-1.978-20.451-56.188z" opacity=".5"/><path fill="#ab142f" d="m202.409 218.381 58.887 10.383 20.451 56.188-38.436 45.804-58.886-10.383-20.452-56.188z" style="mix-blend-mode:soft-light"/><g style="mix-blend-mode:hard-light"><path fill="url(#a)" d="M208.631 108.177 68.949 124.225l56.468 126.901 83.214 110.852 82.323-109.66 54.982-127.796z"/><path stroke="#00bfe7" stroke-width="2" d="M208.631 108.177 68.949 124.225l56.468 126.901 83.214 110.852 82.323-109.66 54.982-127.796z"/></g><g style="mix-blend-mode:multiply"><path fill="#fff" d="m207.731 105.288-85.211 50.578-.613 96.547 86.131 52.11 84.598-51.493v-98.394z"/><path stroke="#005087" stroke-width="2" d="m207.731 105.288-85.211 50.578-.613 96.547 86.131 52.11 84.598-51.493v-98.394z"/></g><circle cx="207.732" cy="105.595" r="4.904" fill="#005087"/><circle cx="292.943" cy="155.25" r="3.065" fill="#005087"/><circle cx="292.943" cy="252.72" r="3.065" fill="#005087"/><circle cx="121.907" cy="155.25" r="3.065" fill="#005087"/><circle cx="121.907" cy="252.719" r="3.065" fill="#005087"/><circle cx="207.732" cy="302.987" r="4.904" fill="#005087"/><path stroke="#f2f9ff" stroke-width="2" d="M179.803 188.125 68.949 124.229m0 0 139.682-79.65 137.602 79.65m-277.284 0v159.889m277.284-159.889-110.26 63.896m110.26-63.896v159.889m-110.26-64.792 110.26 64.792m0 0-137.602 78.751-139.682-78.751m0 0 110.854-64.792"/><circle cx="208.631" cy="46.956" r="7.727" fill="#00a2c4"/><circle cx="345.638" cy="124.522" r="4.458" fill="#00a2c4"/><circle cx="345.638" cy="282.628" r="4.458" fill="#00a2c4"/><circle cx="69.247" cy="124.522" r="4.458" fill="#00a2c4"/><circle cx="69.247" cy="282.628" r="4.458" fill="#00a2c4"/><circle cx="208.631" cy="359.6" r="7.727" fill="#00a2c4"/><path fill="#b51e23" d="M239.387 146.812h-32.449v116.224c30.787-13.836 41.549-31.768 44.274-37.358a7.8 7.8 0 0 0 .762-3.431v-62.65c0-3.391-1.326-6.643-3.686-9.04a12.5 12.5 0 0 0-8.901-3.745"/><path fill="#e21d3e" d="M175.748 146.812c-6.952 0-12.587 5.724-12.587 12.785v62.65a7.8 7.8 0 0 0 .762 3.431c2.725 5.535 13.623 23.605 44.247 37.358V146.812z"/><path fill="#fff" d="M215.455 196.899c4.28-3.42 5.955-9.22 4.174-14.446-1.782-5.227-6.629-8.732-12.075-8.732s-10.293 3.505-12.075 8.732-.106 11.026 4.174 14.446a5580 5580 0 0 0-4.196 24.407 70 70 0 0 0 12.015 1.051 69.5 69.5 0 0 0 12.206-.83c-1.417-8.302-2.725-16.437-4.223-24.628"/><defs><radialGradient id="a" cx="0" cy="0" r="1" gradientTransform="matrix(0 126.603 -136.859 0 207.752 235.735)" gradientUnits="userSpaceOnUse"><stop stop-color="#fff"/><stop offset="1" stop-color="#dedede"/></radialGradient></defs></svg>