<svg width="50" height="50" viewBox="0 0 50 50" fill="none" xmlns="http://www.w3.org/2000/svg"><path d="m25.062 8.033-.124 1.996c-.311-.02-.624-.029-.938-.029V8c.355 0 .71.011 1.062.033zm2.107.263-.372 1.965a14.92 14.92 0 0 0-.926-.145l.248-1.985c.352.044.702.1 1.05.165zm2.068.529-.617 1.902a14.865 14.865 0 0 0-.9-.26l.496-1.938c.344.088.684.187 1.021.296zm2.001.793-.854 1.809c-.282-.134-.57-.258-.86-.374l.739-1.858c.33.13.655.272.975.423zm1.847 1.017-1.072 1.689a15.042 15.042 0 0 0-.807-.478l.964-1.752c.31.17.616.351.915.54v.001zm1.734 1.26-1.274 1.54c-.241-.198-.489-.39-.741-.574l1.176-1.618c.286.209.566.426.839.651v.001zm1.57 1.474-1.457 1.37c-.214-.229-.435-.45-.663-.664l1.37-1.457c.258.243.509.493.75.751zm1.382 1.671-1.62 1.174c-.183-.253-.374-.5-.573-.742L37.12 14.2c.225.273.442.553.65.84h.001zm1.1 1.726-1.748.972a14.997 14.997 0 0 0-.481-.805l1.684-1.079c.191.298.373.603.545.912zm.92 1.936-1.857.742c-.116-.29-.241-.576-.375-.858l1.807-.858c.152.32.293.644.425.974zm.67 2.042-1.937.501a14.892 14.892 0 0 0-.263-.9l1.901-.62c.11.336.21.676.299 1.02v-.001zm.405 2.115-1.985.25c-.039-.31-.088-.619-.146-.925l1.965-.375c.066.348.121.698.166 1.05zM39 25.029v-.046c0-.304-.01-.607-.028-.91l1.996-.121.023.513.009.567-2-.004v.001zm1.864 2.123-1.984-.251c.04-.31.069-.621.089-.934l1.996.127c-.023.355-.056.707-.1 1.058h-.001zm-.4 2.09-1.937-.499c.078-.302.147-.607.205-.914l1.965.376c-.067.349-.145.695-.233 1.037zm-.665 2.036-1.858-.74c.116-.29.222-.584.32-.881l1.9.622c-.11.337-.23.67-.362.999zm-.928 1.955-1.748-.972c.152-.273.295-.55.43-.832l1.805.86c-.152.32-.315.634-.487.944zm-1.127 1.765-1.616-1.179c.184-.252.36-.51.528-.774l1.686 1.075c-.19.299-.39.592-.598.878zM36.37 36.65l-1.455-1.371c.214-.228.422-.462.622-.702l1.537 1.278c-.226.273-.46.538-.704.795zm-1.58 1.478-1.27-1.544c.241-.199.476-.405.705-.618l1.365 1.462c-.26.241-.526.475-.8.7zM33.03 39.4l-1.065-1.693c.265-.166.524-.34.778-.523l1.168 1.623c-.287.207-.581.405-.88.593h-.001zm-1.778.976-.856-1.808c.283-.134.561-.276.835-.427l.967 1.75c-.31.172-.626.333-.946.485zm-1.994.793-.62-1.902c.298-.097.592-.203.882-.318l.738 1.859c-.33.13-.663.25-1 .36v.001zm-2.083.534-.372-1.965c.307-.058.612-.126.914-.203l.496 1.937c-.343.088-.69.165-1.038.231zm-2.141.266-.12-1.996c.313-.02.624-.048.934-.086l.244 1.985c-.35.043-.704.076-1.058.097zm-2.16-.006.132-1.996c.311.02.624.032.938.033l-.008 2a16.993 16.993 0 0 1-1.061-.037h-.001zm-2.107-.271.38-1.964c.305.06.614.109.925.149l-.256 1.983a16.924 16.924 0 0 1-1.05-.168h.001zm-2.067-.537.625-1.9c.296.097.596.185.899.264l-.503 1.936a18.05 18.05 0 0 1-1.02-.3H18.7zm-1.996-.8.86-1.806c.283.134.569.26.859.377l-.746 1.855a16.914 16.914 0 0 1-.973-.427v.001zM14.86 39.33l1.078-1.685c.263.169.531.329.805.48l-.97 1.75c-.31-.173-.615-.354-.913-.545zm-1.731-1.267 1.28-1.537c.24.2.487.393.74.578l-1.183 1.613c-.286-.21-.565-.428-.837-.654zm-1.565-1.48 1.463-1.364c.213.228.433.45.66.665l-1.375 1.452a17.102 17.102 0 0 1-.748-.754v.001zm-1.376-1.678 1.624-1.168c.183.254.373.502.571.744l-1.548 1.266c-.224-.274-.44-.555-.647-.842zm-1.092-1.73 1.752-.964c.15.273.31.543.478.807L9.638 34.09c-.19-.3-.37-.604-.541-.915h-.001zm-.913-1.94 1.86-.735c.115.291.239.578.372.86l-1.81.852c-.15-.32-.292-.646-.422-.976v-.001zm-.662-2.044 1.939-.493c.077.303.163.603.26.9l-1.904.615a16.86 16.86 0 0 1-.295-1.022zm-.396-2.117 1.985-.243c.038.311.086.62.143.927l-1.966.366a16.928 16.928 0 0 1-.162-1.05zM9 24.915v.1c0 .286.008.57.025.853l-1.997.114-.021-.481L7 24.903l2 .011v.001zm-1.857-2.131 1.984.26c-.04.309-.072.62-.093.933l-1.995-.135c.024-.355.059-.707.104-1.058zm.408-2.088 1.935.506c-.079.302-.148.606-.208.913l-1.963-.384c.068-.348.147-.693.236-1.035zm.674-2.035 1.855.748c-.117.29-.225.583-.323.88l-1.899-.63c.112-.336.234-.67.367-.998zm.936-1.952 1.744.978c-.153.273-.297.55-.433.832l-1.802-.867c.154-.32.317-.634.49-.943h.001zm1.133-1.758 1.611 1.184c-.185.252-.362.51-.531.773l-1.682-1.082c.191-.298.392-.59.602-.875zm1.38-1.65 1.45 1.377c-.215.227-.423.46-.624.7l-1.533-1.285c.227-.271.463-.536.707-.792zm1.584-1.47 1.265 1.548c-.242.198-.478.404-.707.616l-1.36-1.467c.26-.24.528-.473.802-.697zm1.77-1.267 1.057 1.697c-.265.166-.525.34-.78.52l-1.161-1.627c.288-.206.583-.403.883-.59h.001zm1.778-.967.849 1.81c-.283.134-.562.275-.836.425l-.96-1.754c.31-.17.627-.33.947-.481zm1.998-.786.612 1.904c-.297.096-.592.201-.882.315l-.731-1.862c.33-.129.663-.248 1.001-.357zm2.086-.526.365 1.966c-.307.057-.612.124-.915.2l-.488-1.94c.343-.086.69-.161 1.038-.226zm2.142-.258.112 1.997c-.313.018-.624.045-.934.082l-.237-1.986c.351-.042.704-.073 1.059-.093z" fill="#CEDCED"/><path d="m36.417 26.803-6.428-3.71-1.367 2.368a3.52 3.52 0 0 1-4.802 1.287 3.52 3.52 0 0 1-1.287-4.803l2.969-5.143-3.697.065a3.118 3.118 0 0 0-2.653 1.559l-1.155 2h-4.51a1.56 1.56 0 0 0-1.562 1.563l-.002 7.814c-.001.862.7 1.56 1.563 1.562h5.83l5.776 3.335a3.128 3.128 0 0 0 4.269-1.144l.677.39a1.559 1.559 0 0 0 2.134-.572l1.563-2.706.338.195a1.17 1.17 0 0 0 1.6-.429l1.173-2.03a1.17 1.17 0 0 0-.43-1.6l.001-.001z" fill="#3D9BDA"/><path d="M43.576 28.828v-7.815c.002-.862-.7-1.56-1.561-1.562h-5.83l-4.322-2.494a3.148 3.148 0 0 0-1.67-.418l-1.927.066a1.552 1.552 0 0 0-1.296.78l-3.084 5.341a1.954 1.954 0 0 0 3.383 1.953l2.149-3.721 7.78 4.492a2.736 2.736 0 0 1 1.001 3.735l-.696 1.206 4.511-.001c.864-.003 1.56-.7 1.562-1.562z" fill="#0071BB"/></svg>