<?xml version="1.0" encoding="utf-8"?>
<!-- Generator: Adobe Illustrator 21.1.0, SVG Export Plug-In . SVG Version: 6.00 Build 0)  -->
<svg version="1.1" id="Layer_1" xmlns="http://www.w3.org/2000/svg" xmlns:xlink="http://www.w3.org/1999/xlink" x="0px" y="0px"
	 viewBox="0 0 11 6.4" enable-background="new 0 0 11 6.4" xml:space="preserve" role="img" aria-hidden="true">
<title>Down arrow</title>
<g id="Layer_2">
	<g id="Layer_1-2">
		<path fill="#0071BB" d="M1.2,0.1l4.3,4.3l4.3-4.3C9.9,0,10,0,10.1,0c0.1,0,0.2,0,0.2,0.1l0.6,0.6C11,0.7,11,0.8,11,0.9
			c0,0.1,0,0.2-0.1,0.3L5.8,6.3c-0.1,0.1-0.4,0.1-0.5,0c0,0,0,0,0,0L0.1,1.2C0,1.1,0,1,0,0.9c0-0.1,0-0.2,0.1-0.2l0.6-0.6
			C0.7,0,0.8,0,0.9,0C1,0,1.1,0,1.2,0.1z"/>
	</g>
</g>
</svg>
