<svg xmlns="http://www.w3.org/2000/svg" xmlns:xlink="http://www.w3.org/1999/xlink" viewBox="0 0 96.17 96.02"><defs><linearGradient id="linear-gradient" x1="86.97" y1="87.36" x2="8.67" y2="8.28" gradientUnits="userSpaceOnUse"><stop offset="0" stop-color="#00bfe7"/><stop offset="0.71" stop-color="#99d7f4"/></linearGradient><linearGradient id="New_Gradient_Swatch_2" x1="90.11" y1="96.97" x2="61.92" y2="66.58" gradientUnits="userSpaceOnUse"><stop offset="0" stop-color="#0071bb" stop-opacity="0"/><stop offset="1" stop-color="#0071bb" stop-opacity="0.5"/></linearGradient></defs><title>app</title><g id="Layer_2" data-name="Layer 2"><g id="Layer_1-2" data-name="Layer 1"><rect width="96" height="96" rx="8" ry="8" fill="url(#linear-gradient)"/><path d="M27.44,74.43,45.54,96H88a8,8,0,0,0,8-8l.17-31.61-18-18.8Z" fill="url(#New_Gradient_Swatch_2)"/><circle cx="87" cy="87" r="3" fill="#112e51"/><circle cx="9" cy="87" r="3" fill="#112e51"/><circle cx="87" cy="9" r="3" fill="#112e51"/><circle cx="9" cy="9" r="3" fill="#112e51"/><polygon points="46.92 16.87 54 38.67 76.93 38.67 58.38 52.15 65.46 73.95 46.92 60.47 28.37 73.95 35.46 52.15 16.91 38.67 39.84 38.67 46.92 16.87" fill="#fff" stroke="#112e51" stroke-linecap="round" stroke-linejoin="round" stroke-width="3"/></g></g></svg>