<svg xmlns="http://www.w3.org/2000/svg" viewBox="0 0 96.17 96.02"><defs><linearGradient id="a" x1="86.97" y1="87.36" x2="8.67" y2="8.28" gradientUnits="userSpaceOnUse"><stop offset="0" stop-color="#00bfe7"/><stop offset=".71" stop-color="#99d7f4"/></linearGradient><linearGradient id="b" x1="90.11" y1="96.97" x2="61.92" y2="66.58" gradientUnits="userSpaceOnUse"><stop offset="0" stop-color="#0071bb" stop-opacity="0"/><stop offset="1" stop-color="#0071bb" stop-opacity=".5"/></linearGradient></defs><rect width="96" height="96" rx="8" ry="8" fill="url(#a)"/><path d="M27.44 74.43 45.54 96H88a8 8 0 0 0 8-8l.17-31.61-18-18.8z" fill="url(#b)"/><circle cx="87" cy="87" r="3" fill="#112e51"/><circle cx="9" cy="87" r="3" fill="#112e51"/><circle cx="87" cy="9" r="3" fill="#112e51"/><circle cx="9" cy="9" r="3" fill="#112e51"/><path fill="#fff" stroke="#112e51" stroke-linecap="round" stroke-linejoin="round" stroke-width="3" d="M46.92 16.87 54 38.67h22.93L58.38 52.15l7.08 21.8-18.54-13.48-18.55 13.48 7.09-21.8-18.55-13.48h22.93l7.08-21.8z"/></svg>