<svg width="10" height="14" viewBox="0 0 10 14" xmlns="http://www.w3.org/2000/svg"><g fill="none" fill-rule="evenodd"><rect x=".5" y=".5" width="479" height="44" rx="8" transform="translate(-459 -16)" fill="#F2F9FF" stroke="#CEDCED"/><path d="M.626 6h8.747a.624.624 0 00.443-1.067L5.44.183a.614.614 0 00-.875 0L.184 4.934a.614.614 0 000 .876.604.604 0 00.442.19zm8.747 2H.626a.604.604 0 00-.442.181.614.614 0 000 .876l4.38 4.76a.614.614 0 00.876 0l4.376-4.75A.624.624 0 009.373 8z" fill="#454545"/></g></svg>