<svg xmlns="http://www.w3.org/2000/svg" viewBox="0 0 111.81 115.56"><defs><style>.cls-1{fill:#0071bc;}.cls-2,.cls-4{fill:none;stroke-linecap:round;stroke-linejoin:round;}.cls-2{stroke:#b3efff;stroke-width:6px;}.cls-3{fill:#112e51;}.cls-4{stroke:#e21c3d;stroke-width:8px;}.cls-5{fill:#fff;}.cls-6{fill:#e21c3d;}.cls-7{fill:#e31c3d;}.cls-8{fill:#02bfe7;}.cls-9{fill:#0a1c30;}.cls-10{fill:#a8152d;}.cls-11{fill:#b3efff;}</style></defs><title>built</title><g id="Layer_2" data-name="Layer 2"><g id="Layer_1-2" data-name="Layer 1"><polygon class="cls-1" points="10.39 26.27 10.39 78.81 55.89 105.08 101.39 78.81 101.39 26.27 55.89 0 10.39 26.27"/><polygon class="cls-2" points="34.98 40.47 34.98 64.61 55.89 76.68 76.8 64.61 76.8 40.47 55.89 28.4 34.98 40.47"/><polygon class="cls-3" points="55.91 0.22 55.91 52.01 101.32 78.88 101.29 26.49 55.91 0.22"/><polygon class="cls-3" points="10.49 26.41 10.49 78.21 55.89 105.08 55.87 52.68 10.49 26.41"/><path class="cls-4" d="M28.11,68.58"/><polygon class="cls-5" points="31.14 38.25 55.89 23.95 80.65 38.25 80.65 66.83 55.89 81.13 30.93 66.91 31.14 38.25"/><polygon class="cls-6" points="58.89 86.56 52.89 76.17 74.85 63.49 74.85 41.59 55.89 30.64 33.93 43.32 27.93 32.93 55.89 16.79 86.85 34.66 86.85 70.41 58.89 86.56"/><polygon class="cls-7" points="58.89 76.13 36.93 63.45 36.93 38.09 31.32 38.09 36.84 41.18 36.84 63.71 25.05 70.44 52.89 86.52 58.89 76.13"/><path class="cls-8" d="M55.89,108.23a4,4,0,0,1-4-4v-51a4,4,0,0,1,8,0v51A4,4,0,0,1,55.89,108.23Z"/><polygon class="cls-9" points="24.93 38.09 31.32 38.09 10.49 26.41 10.39 78.81 25.05 70.44 24.93 70.38 24.93 38.09"/><polygon class="cls-10" points="36.84 41.18 31.32 38.09 24.93 38.09 24.93 70.38 25.05 70.44 36.84 63.71 36.84 41.18"/><polygon class="cls-9" points="86.85 38.09 80.46 38.09 101.3 26.41 101.39 78.81 86.74 70.44 86.85 70.38 86.85 38.09"/><polygon class="cls-10" points="74.95 41.18 80.46 38.09 86.85 38.09 86.85 70.38 86.74 70.44 74.95 63.71 74.95 41.18"/><path class="cls-8" d="M55.86,56.61a4,4,0,0,1-2-.54L8.36,29.81a4,4,0,0,1,4-6.93l45.5,26.27a4,4,0,0,1-2,7.46Z"/><circle class="cls-7" cx="10.49" cy="26.41" r="10.49"/><circle class="cls-11" cx="10.49" cy="26.41" r="4.49"/><circle class="cls-7" cx="55.86" cy="105.08" r="10.49"/><circle class="cls-11" cx="55.86" cy="105.08" r="4.49"/><path class="cls-8" d="M55.87,56.68a4,4,0,0,1-2-7.46L99.37,23a4,4,0,1,1,4,6.93L57.87,56.15A4,4,0,0,1,55.87,56.68Z"/><circle class="cls-7" cx="101.32" cy="26.41" r="10.49"/><circle class="cls-11" cx="101.32" cy="26.41" r="4.49"/></g></g></svg>