<svg xmlns="http://www.w3.org/2000/svg" xmlns:xlink="http://www.w3.org/1999/xlink" viewBox="0 0 104 104"><defs><linearGradient id="New_Gradient_Swatch_6" x1="52" y1="25.83" x2="52" y2="81.94" gradientUnits="userSpaceOnUse"><stop offset="0" stop-color="#112e51"/><stop offset="1" stop-color="#205493"/></linearGradient><clipPath id="clip-path"><path d="M0,52A52,52,0,1,0,52,0,52,52,0,0,0,0,52Z" fill="none"/></clipPath></defs><title>built-together</title><g id="Layer_1" data-name="Layer 1"><path d="M52,0a52,52,0,1,0,52,52A52,52,0,0,0,52,0Z" fill="url(#New_Gradient_Swatch_6)"/></g><g id="Layer_3" data-name="Layer 3"><g clip-path="url(#clip-path)"><rect x="63.62" y="20.21" width="19.56" height="19.56" rx="3.4" ry="3.4" transform="translate(146.79 59.98) rotate(180)" fill="#00bfe7"/><rect x="42.22" y="20.21" width="19.56" height="19.56" rx="3.4" ry="3.4" transform="translate(104.01 59.98) rotate(180)" fill="#0071bb"/><rect x="20.83" y="20.21" width="19.56" height="19.56" rx="3.4" ry="3.4" transform="translate(61.22 59.98) rotate(180)" fill="#00bfe7"/><rect x="63.62" y="-1.16" width="19.56" height="19.56" rx="3.4" ry="3.4" transform="translate(146.79 17.24) rotate(180)" fill="#e21d3e"/><rect x="42.22" y="-1.16" width="19.56" height="19.56" rx="3.4" ry="3.4" transform="translate(104.01 17.24) rotate(180)" fill="#00bfe7"/><rect x="20.83" y="-1.16" width="19.56" height="19.56" rx="3.4" ry="3.4" transform="translate(61.22 17.24) rotate(180)" fill="#e21d3e"/><rect x="63.62" y="85.36" width="19.56" height="19.56" rx="3.4" ry="3.4" transform="translate(146.79 190.27) rotate(180)" fill="#e21d3e"/><rect x="42.22" y="85.36" width="19.56" height="19.56" rx="3.4" ry="3.4" transform="translate(104.01 190.27) rotate(180)" fill="#00bfe7"/><rect x="20.83" y="85.36" width="19.56" height="19.56" rx="3.4" ry="3.4" transform="translate(61.22 190.27) rotate(180)" fill="#e21d3e"/><rect x="63.62" y="64.25" width="19.56" height="19.56" rx="3.4" ry="3.4" transform="translate(146.79 148.06) rotate(180)" fill="#00bfe7"/><rect x="20.83" y="41.74" width="62.35" height="20.54" rx="3.48" ry="3.48" transform="translate(104.01 104.02) rotate(-180)" fill="#0071bb"/><rect x="42.22" y="64.25" width="19.56" height="19.56" rx="3.4" ry="3.4" transform="translate(104.01 148.06) rotate(180)" fill="#0071bb"/><rect x="20.83" y="64.25" width="19.56" height="19.56" rx="3.4" ry="3.4" transform="translate(61.22 148.06) rotate(180)" fill="#00bfe7"/><rect x="30.61" y="29.99" width="42.79" height="44.04" fill="none" stroke="#fff" stroke-miterlimit="10" stroke-width="2"/><rect x="24.6" y="45.72" width="54.81" height="12.57" rx="2.55" ry="2.55" transform="translate(104.01 104.02) rotate(180)" fill="#112e51"/><rect x="24.6" y="45.72" width="54.81" height="12.57" rx="2.55" ry="2.55" transform="translate(104.01 0.01) rotate(90)" fill="#112e51"/><path d="M52,67.55A15.54,15.54,0,1,0,36.46,52,15.55,15.55,0,0,0,52,67.55Z" fill="#87eaff"/><path d="M52,64.45A12.44,12.44,0,1,0,39.56,52,12.44,12.44,0,0,0,52,64.45Z" fill="#fff"/><path d="M52,58.67A6.66,6.66,0,1,0,45.34,52,6.67,6.67,0,0,0,52,58.67Z" fill="#e21d3e"/><circle cx="73.4" cy="74.03" r="4.03" fill="#fff"/><circle cx="30.61" cy="74.03" r="5.06" fill="#fff"/><circle cx="30.61" cy="29.99" r="4.03" fill="#fff"/><circle cx="73.4" cy="29.99" r="5.06" fill="#fff"/></g></g></svg>