<svg xmlns="http://www.w3.org/2000/svg" viewBox="0 0 104 104"><defs><linearGradient id="a" x1="52" y1="25.83" x2="52" y2="81.94" gradientUnits="userSpaceOnUse"><stop offset="0" stop-color="#112e51"/><stop offset="1" stop-color="#205493"/></linearGradient><clipPath id="b"><path d="M0 52A52 52 0 1052 0 52 52 0 000 52z" fill="none"/></clipPath></defs><path d="M52 0a52 52 0 1052 52A52 52 0 0052 0z" fill="url(#a)"/><g clip-path="url(#b)"><rect x="63.62" y="20.21" width="19.56" height="19.56" rx="3.4" ry="3.4" transform="rotate(180 73.395 29.99)" fill="#00bfe7"/><rect x="42.22" y="20.21" width="19.56" height="19.56" rx="3.4" ry="3.4" transform="rotate(180 52.005 29.99)" fill="#0071bb"/><rect x="20.83" y="20.21" width="19.56" height="19.56" rx="3.4" ry="3.4" transform="rotate(180 30.61 29.99)" fill="#00bfe7"/><rect x="63.62" y="-1.16" width="19.56" height="19.56" rx="3.4" ry="3.4" transform="rotate(180 73.395 8.62)" fill="#e21d3e"/><rect x="42.22" y="-1.16" width="19.56" height="19.56" rx="3.4" ry="3.4" transform="rotate(180 52.005 8.62)" fill="#00bfe7"/><rect x="20.83" y="-1.16" width="19.56" height="19.56" rx="3.4" ry="3.4" transform="rotate(180 30.61 8.62)" fill="#e21d3e"/><rect x="63.62" y="85.36" width="19.56" height="19.56" rx="3.4" ry="3.4" transform="rotate(180 73.395 95.135)" fill="#e21d3e"/><rect x="42.22" y="85.36" width="19.56" height="19.56" rx="3.4" ry="3.4" transform="rotate(180 52.005 95.135)" fill="#00bfe7"/><rect x="20.83" y="85.36" width="19.56" height="19.56" rx="3.4" ry="3.4" transform="rotate(180 30.61 95.135)" fill="#e21d3e"/><rect x="63.62" y="64.25" width="19.56" height="19.56" rx="3.4" ry="3.4" transform="rotate(180 73.395 74.03)" fill="#00bfe7"/><rect x="20.83" y="41.74" width="62.35" height="20.54" rx="3.48" ry="3.48" transform="rotate(-180 52.005 52.01)" fill="#0071bb"/><rect x="42.22" y="64.25" width="19.56" height="19.56" rx="3.4" ry="3.4" transform="rotate(180 52.005 74.03)" fill="#0071bb"/><rect x="20.83" y="64.25" width="19.56" height="19.56" rx="3.4" ry="3.4" transform="rotate(180 30.61 74.03)" fill="#00bfe7"/><path fill="none" stroke="#fff" stroke-miterlimit="10" stroke-width="2" d="M30.61 29.99H73.4v44.04H30.61z"/><rect x="24.6" y="45.72" width="54.81" height="12.57" rx="2.55" ry="2.55" transform="rotate(180 52.005 52.01)" fill="#112e51"/><rect x="24.6" y="45.72" width="54.81" height="12.57" rx="2.55" ry="2.55" transform="rotate(90 52 52.01)" fill="#112e51"/><path d="M52 67.55A15.54 15.54 0 1036.46 52 15.55 15.55 0 0052 67.55z" fill="#87eaff"/><path d="M52 64.45A12.44 12.44 0 1039.56 52 12.44 12.44 0 0052 64.45z" fill="#fff"/><path d="M52 58.67A6.66 6.66 0 1045.34 52 6.67 6.67 0 0052 58.67z" fill="#e21d3e"/><circle cx="73.4" cy="74.03" r="4.03" fill="#fff"/><circle cx="30.61" cy="74.03" r="5.06" fill="#fff"/><circle cx="30.61" cy="29.99" r="4.03" fill="#fff"/><circle cx="73.4" cy="29.99" r="5.06" fill="#fff"/></g></svg>