<svg xmlns="http://www.w3.org/2000/svg" xmlns:xlink="http://www.w3.org/1999/xlink" viewBox="0 0 96 96"><defs><linearGradient id="b" x1="2.34" x2="88.34" y1="2.34" y2="88.34" gradientUnits="userSpaceOnUse"><stop offset=".29" stop-color="#99d7f4"/><stop offset="1" stop-color="#00bfe7"/></linearGradient><linearGradient id="a" x1="48.74" x2="95.24" y1="51.25" y2="97.74" gradientUnits="userSpaceOnUse"><stop offset="0" stop-color="#009ae3"/><stop offset="1" stop-color="#00bfe7"/></linearGradient><linearGradient xlink:href="#a" id="c" x1="54.1" x2="39.54" y1="56.22" y2="41.88"/></defs><rect width="96" height="96" fill="url(#b)" rx="8" ry="8"/><path fill="url(#a)" d="M25.49 70.76 51 96h37a8 8 0 0 0 8-8V56.11l-26.6-27-12.09 31.56z"/><circle cx="87" cy="87" r="3" fill="#112e51"/><circle cx="9" cy="87" r="3" fill="#112e51"/><circle cx="87" cy="9" r="3" fill="#112e51"/><circle cx="9" cy="9" r="3" fill="#112e51"/><circle cx="46.92" cy="49.14" r="13.35" fill="url(#c)"/><path fill="#fff" stroke="#112e51" stroke-linecap="round" stroke-linejoin="round" stroke-width="3" d="M57.62 49.14a10.7 10.7 0 1 1-10.7-10.7 10.7 10.7 0 0 1 10.7 10.7m10.09 5 7.83-1a28.5 28.5 0 0 0 0-8l-7.83-1A21.2 21.2 0 0 0 65.16 38L70 31.74a29 29 0 0 0-5.64-5.65l-6.29 4.81a21.3 21.3 0 0 0-6.13-2.55l-1-7.83a28.5 28.5 0 0 0-8 0l-1 7.82a21.2 21.2 0 0 0-6.14 2.54l-6.26-4.81a29.3 29.3 0 0 0-5.64 5.64L28.67 38a21.3 21.3 0 0 0-2.55 6.15l-7.83 1a29.3 29.3 0 0 0 0 8l7.83 1a21.3 21.3 0 0 0 2.55 6.15l-4.81 6.26a29.3 29.3 0 0 0 5.64 5.64l6.26-4.81a21.2 21.2 0 0 0 6.14 2.54l1 7.82a28.5 28.5 0 0 0 8 0l1-7.83a21.3 21.3 0 0 0 6.13-2.55l6.26 4.81A29 29 0 0 0 70 66.55l-4.81-6.26a21.2 21.2 0 0 0 2.51-6.13z"/></svg>