<svg xmlns="http://www.w3.org/2000/svg" xmlns:xlink="http://www.w3.org/1999/xlink" viewBox="0 0 96 96"><defs><linearGradient id="New_Gradient_Swatch_4" x1="2.34" y1="2.34" x2="88.34" y2="88.34" gradientUnits="userSpaceOnUse"><stop offset="0.29" stop-color="#99d7f4"/><stop offset="1" stop-color="#00bfe7"/></linearGradient><linearGradient id="New_Gradient_Swatch_copy_3" x1="48.74" y1="51.25" x2="95.24" y2="97.74" gradientUnits="userSpaceOnUse"><stop offset="0" stop-color="#009ae3"/><stop offset="1" stop-color="#00bfe7"/></linearGradient><linearGradient id="New_Gradient_Swatch_copy_3-2" x1="54.1" y1="56.22" x2="39.54" y2="41.88" xlink:href="#New_Gradient_Swatch_copy_3"/></defs><title>change-settings-light</title><g id="Layer_2" data-name="Layer 2"><g id="Layer_4" data-name="Layer 4"><rect width="96" height="96" rx="8" ry="8" fill="url(#New_Gradient_Swatch_4)"/><path d="M25.49,70.76,51,96H88a8,8,0,0,0,8-8V56.11l-26.6-27L57.31,60.67Z" fill="url(#New_Gradient_Swatch_copy_3)"/><circle cx="87" cy="87" r="3" fill="#112e51"/><circle cx="9" cy="87" r="3" fill="#112e51"/><circle cx="87" cy="9" r="3" fill="#112e51"/><circle cx="9" cy="9" r="3" fill="#112e51"/><circle cx="46.92" cy="49.14" r="13.35" fill="url(#New_Gradient_Swatch_copy_3-2)"/><path d="M57.62,49.14a10.7,10.7,0,1,1-10.7-10.7A10.7,10.7,0,0,1,57.62,49.14Zm10.09,5,7.83-1a28.51,28.51,0,0,0,0-8l-7.83-1A21.24,21.24,0,0,0,65.16,38L70,31.74a29,29,0,0,0-5.64-5.65L58.07,30.9a21.25,21.25,0,0,0-6.13-2.55l-1-7.83a28.5,28.5,0,0,0-8,0l-1,7.82a21.24,21.24,0,0,0-6.14,2.54l-6.26-4.81a29.33,29.33,0,0,0-5.64,5.64L28.67,38a21.25,21.25,0,0,0-2.55,6.15l-7.83,1a29.28,29.28,0,0,0,0,8l7.83,1a21.25,21.25,0,0,0,2.55,6.15l-4.81,6.26a29.32,29.32,0,0,0,5.64,5.64l6.26-4.81a21.24,21.24,0,0,0,6.14,2.54l1,7.82a28.51,28.51,0,0,0,8,0l1-7.83a21.25,21.25,0,0,0,6.13-2.55l6.26,4.81A29,29,0,0,0,70,66.55l-4.81-6.26A21.24,21.24,0,0,0,67.7,54.16Z" fill="#fff" stroke="#112e51" stroke-linecap="round" stroke-linejoin="round" stroke-width="3"/></g></g></svg>