<svg xmlns="http://www.w3.org/2000/svg" viewBox="0 0 111.04 89.63"><defs><clipPath id="clip-path"><path class="cls-1" d="M72.27 74.72a2.74 2.74 0 0 1-2.74 2.71H15.38a2.73 2.73 0 0 1-2.73-2.71V2.86A2.75 2.75 0 0 1 15.38.13h43A2 2 0 0 1 60 .92L71.45 12a2.69 2.69 0 0 1 .82 1.92z"/></clipPath><clipPath id="clip-path-2"><ellipse class="cls-1" cx="68.64" cy="47.65" rx="22.05" ry="21.85"/></clipPath><style>.cls-1{fill:none}.cls-12{font-size:11.49px;fill:#7b8088;font-family:Menlo-Regular,Menlo;letter-spacing:0}</style></defs><path d="M12.65 11.71h-9.8A2.83 2.83 0 0 0 0 14.53V86.8a2.83 2.83 0 0 0 2.85 2.82H62a2.83 2.83 0 0 0 2.8-2.82v-9.15" fill="#80b8dd"/><path d="M18.49 5.92h-9.8a2.83 2.83 0 0 0-2.85 2.82V81a2.83 2.83 0 0 0 2.85 2.82H67.8A2.83 2.83 0 0 0 70.64 81v-9.14" fill="#4a9acf"/><path d="M72.27 74.72a2.74 2.74 0 0 1-2.74 2.71H15.38a2.73 2.73 0 0 1-2.73-2.71V2.86A2.75 2.75 0 0 1 15.38.13h43A2 2 0 0 1 60 .92L71.45 12a2.69 2.69 0 0 1 .82 1.92z" fill="#0071bb"/><path d="M57.62 37.08H26.25m31.37 6.22H26.25m31.37 6.23H26.25m31.37 6.23H26.25m31.37 6.22H26.25m19.61-37.36H26.25m27.16 6.23H26.25" stroke="#00bfe7" stroke-linecap="round" stroke-linejoin="round" stroke-width="1.65" fill="none"/><g clip-path="url(#clip-path)"><ellipse cx="66.99" cy="50.93" rx="22.05" ry="21.85" opacity=".45" stroke-width="6.59" stroke="#112e51" stroke-linejoin="round" stroke-linecap="round" fill="none"/></g><path stroke="#fff" opacity=".5" stroke-width="1.65" stroke-linejoin="round" fill="none" d="M58.34.13V13.6h13.93"/><path stroke-width="4.95" stroke="#112e51" stroke-linejoin="round" stroke-linecap="round" fill="none" d="m84.22 63.09 24.27 24.06"/><g clip-path="url(#clip-path-2)"><path fill="#fff" d="M41.35 23.97h56.42v51.15H41.35z"/><text class="cls-12" transform="matrix(1.01 0 0 1 51.48 40.85)">010100</text><text class="cls-12" transform="matrix(1.01 0 0 1 51.48 73.7)">00100</text><text class="cls-12" transform="matrix(1.01 0 0 1 51.48 62.75)">11010</text><text class="cls-12" transform="matrix(1.01 0 0 1 51.48 51.8)">10011</text></g><ellipse cx="68.64" cy="47.65" rx="22.05" ry="21.85" stroke-width="6.59" stroke="#112e51" stroke-linejoin="round" stroke-linecap="round" fill="none"/></svg>