<svg xmlns="http://www.w3.org/2000/svg" viewBox="0 0 136 142.49"><title>comply</title><g id="Layer_2" data-name="Layer 2"><g id="Layer_1-2" data-name="Layer 1"><path d="M136,70.9A68,68,0,0,0,95,8.49V28.38a6,6,0,0,1-6,6H47a6,6,0,0,1-6-6V8.49a68,68,0,0,0,0,124.83V113.43a6,6,0,0,1,6-6H89a6,6,0,0,1,6,6v19.89A68,68,0,0,0,136,70.9Z" fill="#0071bb"/><path d="M5,96.47H131c.27-.66.54-1.33.79-2H4.2C4.45,95.14,4.72,95.8,5,96.47Z" fill="#205493"/><path d="M14.5,112.85h107q.77-1,1.52-2H13Q13.72,111.86,14.5,112.85Z" fill="#205493"/><path d="M.38,63.71H135.62c-.07-.67-.16-1.33-.25-2H.64C.55,62.37.45,63,.38,63.71Z" fill="#205493"/><path d="M13,31H123q-.74-1-1.52-2h-107Q13.73,29.94,13,31Z" fill="#205493"/><path d="M33,12.57q-1.6,1-3.14,2h76.19q-1.54-1-3.14-2Z" fill="#205493"/><path d="M.63,80.09H135.37c.09-.67.18-1.33.25-2H.38C.45,78.76.54,79.42.63,80.09Z" fill="#205493"/><path d="M33,129.23H103q1.6-1,3.14-2H29.89Q31.43,128.27,33,129.23Z" fill="#205493"/><path d="M4.2,47.33H131.8c-.25-.67-.52-1.34-.79-2H5C4.72,46,4.45,46.66,4.2,47.33Z" fill="#205493"/><circle cx="68" cy="70.9" r="68" fill="none"/><path d="M47,34.38H89a6,6,0,0,0,6-6V8.49a68.07,68.07,0,0,0-54,0V28.38A6,6,0,0,0,47,34.38Z" fill="#fff"/><path d="M89,107.43H47a6,6,0,0,0-6,6v19.89a68.07,68.07,0,0,0,54,0V113.43A6,6,0,0,0,89,107.43Z" fill="#fff"/><rect x="41" y="43.9" width="54" height="54" rx="6" ry="6" fill="#fff"/><path d="M83.17,62.91l-2.76-2.76a2,2,0,0,0-2.76,0L64.32,73.5l-6-6a2,2,0,0,0-2.76,0l-2.76,2.76a2,2,0,0,0,0,2.76l7.35,7.35,2.76,2.76a2,2,0,0,0,2.76,0l2.76-2.76,14.7-14.7a2,2,0,0,0,0-2.76Z" fill="#00bfe7" fill-rule="evenodd"/><path d="M83.17,3.33,80.41.57a2,2,0,0,0-2.76,0L64.32,13.91l-6-6a2,2,0,0,0-2.76,0l-2.76,2.76a2,2,0,0,0,0,2.76l7.35,7.35,2.76,2.76a2,2,0,0,0,2.76,0l2.76-2.76,14.7-14.7a1.88,1.88,0,0,0,.57-1.38A1.88,1.88,0,0,0,83.17,3.33Z" fill="#0071bb" fill-rule="evenodd"/><path d="M83.17,121.7l-2.76-2.76a2,2,0,0,0-2.76,0L64.32,132.28l-6-6a2,2,0,0,0-2.76,0L52.83,129a2,2,0,0,0,0,2.76l7.35,7.35,2.76,2.76a2,2,0,0,0,2.76,0l2.76-2.76,14.7-14.7a2,2,0,0,0,0-2.76Z" fill="#e31c3d" fill-rule="evenodd"/><path d="M89,46.9a3,3,0,0,1,3,3v42a3,3,0,0,1-3,3H47a3,3,0,0,1-3-3v-42a3,3,0,0,1,3-3H89m0-3H47a6,6,0,0,0-6,6v42a6,6,0,0,0,6,6H89a6,6,0,0,0,6-6v-42a6,6,0,0,0-6-6Z" fill="#cedbec"/><path d="M47,34.38H89a6,6,0,0,0,6-6V8.49q-1.48-.64-3-1.21v21.1a3,3,0,0,1-3,3H47a3,3,0,0,1-3-3V7.27q-1.52.57-3,1.21V28.38A6,6,0,0,0,47,34.38Z" fill="#cedbec"/><path d="M89,107.43H47a6,6,0,0,0-6,6v19.89q1.48.64,3,1.21v-21.1a3,3,0,0,1,3-3H89a3,3,0,0,1,3,3v21.1q1.52-.57,3-1.21V113.43A6,6,0,0,0,89,107.43Z" fill="#cedbec"/></g></g></svg>