<svg xmlns="http://www.w3.org/2000/svg" viewBox="0 0 104 104"><defs><linearGradient id="a" x1="12.62" y1="-16.26" x2="62.62" y2="70.41" gradientUnits="userSpaceOnUse"><stop offset="0" stop-color="#0071bb"/><stop offset="1" stop-color="#205493"/></linearGradient></defs><path d="M104 52A52 52 0 0072.65 4.27v15.21a4.59 4.59 0 01-4.59 4.59H35.94a4.59 4.59 0 01-4.59-4.59V4.27a52 52 0 000 95.46V84.52a4.59 4.59 0 014.59-4.59h32.12a4.59 4.59 0 014.59 4.59v15.21A52 52 0 00104 52z" fill="url(#a)"/><path d="M3.81 71.55h96.37c.21-.51.41-1 .6-1.53H3.21c.19.51.4.98.6 1.53zm7.28 12.52h81.82q.59-.75 1.16-1.53H9.93q.56.78 1.16 1.53zM.29 46.5h103.42c-.05-.51-.13-1-.19-1.53H.49c-.07.51-.14 1.03-.2 1.53zm9.64-25.05h84.14q-.57-.78-1.16-1.53H11.09q-.59.75-1.16 1.53zM25.27 7.39q-1.22.73-2.4 1.53h58.26q-1.18-.8-2.4-1.53zM.49 59h103c.07-.51.14-1 .19-1.53H.29c.05.53.13 1.04.2 1.53zm24.77 37.6h53.48q1.22-.73 2.4-1.53H22.86q1.14.8 2.4 1.53zM3.21 34h97.57c-.19-.52-.4-1-.6-1.53H3.82c-.21.53-.42.99-.61 1.53z" fill="#0071bb"/><circle cx="52" cy="52" r="52" fill="none"/><path d="M35.94 24.07h32.12a4.59 4.59 0 004.59-4.59V4.27a52.05 52.05 0 00-41.29 0v15.21a4.59 4.59 0 004.58 4.59zm32.12 55.86H35.94a4.59 4.59 0 00-4.59 4.59v15.21a52.05 52.05 0 0041.29 0V84.52a4.59 4.59 0 00-4.58-4.59z" fill="#112e51"/><rect x="31.35" y="31.35" width="41.29" height="41.29" rx="6" ry="6" fill="#112e51"/><path d="M63.6 45.89l-2.11-2.11a1.5 1.5 0 00-2.11 0L49.19 54l-4.57-4.6a1.5 1.5 0 00-2.11 0l-2.11 2.11a1.5 1.5 0 000 2.11l5.6 5.63 2.11 2.11a1.5 1.5 0 002.11 0l2.11-2.11L63.6 48a1.5 1.5 0 000-2.11z" fill="#fff" fill-rule="evenodd"/><path d="M68.06 33.65a2.3 2.3 0 012.29 2.29v32.12a2.3 2.3 0 01-2.29 2.29H35.94a2.3 2.3 0 01-2.29-2.29V35.94a2.3 2.3 0 012.29-2.29h32.12m0-2.29H35.94a4.59 4.59 0 00-4.59 4.59v32.11a4.59 4.59 0 004.59 4.59h32.12a4.59 4.59 0 004.59-4.59V35.94a4.59 4.59 0 00-4.59-4.59zm-32.12-7.29h32.12a4.59 4.59 0 004.59-4.59V4.27q-1.13-.49-2.29-.93v16.14a2.3 2.3 0 01-2.29 2.29H35.94a2.3 2.3 0 01-2.29-2.29V3.34q-1.16.44-2.29.93v15.21a4.59 4.59 0 004.58 4.59zm32.12 55.86H35.94a4.59 4.59 0 00-4.59 4.59v15.21q1.13.49 2.29.93V84.52a2.3 2.3 0 012.29-2.29h32.13a2.3 2.3 0 012.29 2.29v16.14q1.16-.44 2.29-.93V84.52a4.59 4.59 0 00-4.58-4.59z" fill="#00bfe7"/><path d="M57.32.27l-8.13 8.15-4.57-4.58a1.5 1.5 0 00-2.11 0L40.4 5.95a1.5 1.5 0 000 2.11l5.6 5.62 2.11 2.11a1.5 1.5 0 002.11 0l2.11-2.11L63.6 2.44a1.43 1.43 0 00.43-1A51.71 51.71 0 0057.32.27z" fill="#0071bb" fill-rule="evenodd"/><path d="M52.57 104l11-11a1.5 1.5 0 000-2.11l-2.11-2.11a1.5 1.5 0 00-2.11 0L49.19 98.93l-4.57-4.58a1.5 1.5 0 00-2.11 0l-2.11 2.11a1.5 1.5 0 000 2.11l5 5a52.2 52.2 0 006.6.43z" fill="#e21d3e" fill-rule="evenodd"/></svg>