<svg xmlns="http://www.w3.org/2000/svg" viewBox="0 0 96 96"><defs><linearGradient id="a" x1="8.28" y1="4.94" x2="87.61" y2="90.94" gradientUnits="userSpaceOnUse"><stop offset=".29" stop-color="#99d7f4"/><stop offset="1" stop-color="#00bfe7"/></linearGradient><linearGradient id="b" x1="47.04" y1="56.05" x2="82.19" y2="91.2" gradientUnits="userSpaceOnUse"><stop offset="0" stop-color="#009ae3"/><stop offset="1" stop-color="#00bfe7"/></linearGradient></defs><rect width="96" height="96" rx="8" ry="8" fill="url(#a)"/><path d="M19.62 71.29 44.58 96H88a8 8 0 0 0 8-8V62.71L76.44 42.78 53.2 55z" fill="url(#b)"/><circle cx="87" cy="87" r="3" fill="#112e51"/><circle cx="9" cy="87" r="3" fill="#112e51"/><circle cx="87" cy="9" r="3" fill="#112e51"/><circle cx="9" cy="9" r="3" fill="#112e51"/><path d="M65 61c-7.33-3.12-15.48-7-16.16-9.41V49a16.54 16.54 0 0 0 3.43-6.9 4.37 4.37 0 0 0 .73-5.9v-5.67c0-5.85-3-9.86-9.73-9.86-6.59 0-9.73 4-9.73 9.86v5.67a4.37 4.37 0 0 0 .72 5.95A16.53 16.53 0 0 0 37.69 49v2.53C37 54 28.86 57.86 21.53 61a1.81 1.81 0 0 0-1 1.68V69a1.72 1.72 0 0 0 1.61 1.8h42.3a1.72 1.72 0 0 0 1.61-1.8v-6.33A1.81 1.81 0 0 0 65 61z" fill="#fff" stroke="#112e51" stroke-linecap="round" stroke-linejoin="round" stroke-width="3"/><circle cx="66.42" cy="52" r="13.64" fill="#112e51"/><rect x="63.92" y="42.62" width="5" height="18.77" rx="2.5" ry="2.5" fill="#fff"/><rect x="63.92" y="42.62" width="5" height="18.77" rx="2.5" ry="2.5" transform="rotate(-90 66.42 52)" fill="#fff"/></svg>