<svg xmlns="http://www.w3.org/2000/svg" xmlns:xlink="http://www.w3.org/1999/xlink" viewBox="0 0 104 104"><defs><linearGradient id="b" x1="76.95" y1="85.79" x2="20.19" y2="9.68" gradientUnits="userSpaceOnUse"><stop offset="0" stop-color="#d1f0ff"/><stop offset="1" stop-color="#00bfe7"/></linearGradient><linearGradient id="a" x1="17.45" y1="80.53" x2="94.43" y2="-16.37" gradientUnits="userSpaceOnUse"><stop offset="0" stop-color="#0071bb"/><stop offset="1" stop-color="#205493"/></linearGradient><linearGradient id="c" x1="30.61" y1="91.33" x2="107.65" y2="-5.64" xlink:href="#a"/></defs><ellipse cx="51.75" cy="52" rx="51.75" ry="52" fill="url(#b)"/><path d="M67.13 39.57v.25h29.99a14.51 14.51 0 015.71 1.2 51.9 51.9 0 00-87.49-25.78h28.88c11.78 0 22.91 11.15 22.91 24.33z" fill="url(#a)"/><path d="M73.26 76.07l-8.81 8.56V76.1c-5-1.17-10.69-6.16-12.79-12.87a17.37 17.37 0 01-2.93 1v12.22L38 64.17H15A21.25 21.25 0 01.5 58a51.9 51.9 0 0097.62 18h-1z" fill="url(#c)"/><path d="M67.53 39.81a.77.77 0 00.44 1 .87.87 0 00.27.05.77.77 0 00.7-1.08h-1.41zM64.7 80.53a.77.77 0 00.72-.5A.78.78 0 0065 79a.77.77 0 00-.52 0v1.43a.71.71 0 00.22.1zM79 39.85a.77.77 0 00.44 1 .87.87 0 00.27.05.77.77 0 00.7-1.08H79zm11.41 0a.77.77 0 00.44 1 .88.88 0 00.27.05.77.77 0 00.7-1.08h-1.38z" fill="#205493"/><path d="M94.69 28.52a.76.76 0 11.72 1 .86.86 0 01-.28 0 .78.78 0 01-.44-1zm-2.14 5.67a.76.76 0 11.72 1 .71.71 0 01-.28-.05.77.77 0 01-.44-.95zm-5-17a.76.76 0 11.71 1 .8.8 0 01-.27 0 .76.76 0 01-.47-.99zm-2.15 5.66a.78.78 0 011-.44.77.77 0 01-.27 1.48.71.71 0 01-.27-.05.77.77 0 01-.49-.98zm-2.14 5.67a.76.76 0 11.72 1 .78.78 0 01-.27 0 .77.77 0 01-.47-1zm-2.16 5.67a.77.77 0 011-.45.77.77 0 01-.27 1.48.71.71 0 01-.27-.05.77.77 0 01-.46-.98zm-2.9-22.66a.77.77 0 011.44.54.78.78 0 01-.72.5.79.79 0 01-.27-.05.77.77 0 01-.45-.99zm-2.14 5.67a.76.76 0 011-.44.76.76 0 01-.27 1.48.8.8 0 01-.27 0 .77.77 0 01-.46-1.04zm-2.14 5.66a.77.77 0 11.72 1 .65.65 0 01-.27-.05.77.77 0 01-.45-.95zm-2.14 5.67a.76.76 0 11.72 1 .86.86 0 01-.28 0 .78.78 0 01-.44-1.01zm-.71 6.2a.76.76 0 01-.71.5.71.71 0 01-.27-.05.76.76 0 111-.44zM68.88 5.87a.77.77 0 111.44.54.78.78 0 01-.72.5.65.65 0 01-.27-.05.76.76 0 01-.45-.99zm-2.13 5.66a.76.76 0 11.71 1 .79.79 0 01-.27-.05.76.76 0 01-.44-.95zM64.6 17.2a.77.77 0 011.44.53.77.77 0 01-.72.5.8.8 0 01-.27 0 .77.77 0 01-.45-1.03zm-2.14 5.66a.78.78 0 011-.44.77.77 0 01-.27 1.48.65.65 0 01-.27-.05.77.77 0 01-.46-.99zm-5-17a.77.77 0 011-.45.77.77 0 01-.28 1.48.65.65 0 01-.27-.05.75.75 0 01-.48-.97zm-2.15 5.66a.77.77 0 011-.44.77.77 0 01-.31 1.49.79.79 0 01-.27-.05.77.77 0 01-.45-.99zM46 5.87a.76.76 0 011-.45.77.77 0 01.45 1 .77.77 0 01-.72.5.65.65 0 01-.27-.05.75.75 0 01-.46-1zm-2.15 5.66a.77.77 0 011.44.54.78.78 0 01-.72.5.79.79 0 01-.27-.05.77.77 0 01-.47-.99zm-9.34-5.66a.77.77 0 111.44.54.78.78 0 01-.72.5.65.65 0 01-.23-.06.76.76 0 01-.49-.98zm-2.13 5.66a.76.76 0 11.71 1 .79.79 0 01-.27-.05.76.76 0 01-.44-.95zm-10.48-.44a.77.77 0 01-.27 1.48.79.79 0 01-.27-.05.76.76 0 11.53-1.43zM3.1 63a.77.77 0 01-.72.5.7.7 0 01-.27-.05.75.75 0 01-.44-1A.76.76 0 113.1 63zm7.18 11.33a.76.76 0 01-.72.49.85.85 0 01-.27 0 .76.76 0 01.54-1.43.77.77 0 01.45.99zm2.14-5.67a.76.76 0 01-.71.5.87.87 0 01-.27-.05.76.76 0 01.56-1.39.77.77 0 01.42.99zm5 17a.77.77 0 01-.72.49.79.79 0 01-.27 0 .76.76 0 01.57-1.44.77.77 0 01.46.99zM19.6 80a.77.77 0 01-.72.5.7.7 0 01-.27-.05.76.76 0 01-.44-1 .77.77 0 011-.44.78.78 0 01.43.99zm2.14-5.66a.76.76 0 01-.72.49.85.85 0 01-.27 0 .76.76 0 01.54-1.43.77.77 0 01.45.98zm2.14-5.67a.77.77 0 01-.72.5.87.87 0 01-.27-.05.76.76 0 01.54-1.43.77.77 0 01.44 1.02zm2.9 22.65a.77.77 0 01-.72.5.64.64 0 01-.27-.05.76.76 0 11.54-1.42.77.77 0 01.45 1.01zm2.14-5.66a.77.77 0 01-.72.49.79.79 0 01-.27 0 .76.76 0 01.54-1.43.77.77 0 01.44.98zM31.05 80a.77.77 0 01-.72.5.7.7 0 01-.27-.05.76.76 0 01-.44-1 .77.77 0 011-.44.78.78 0 01.43.99zm2.14-5.66a.76.76 0 01-.72.49.85.85 0 01-.27 0 .76.76 0 01.54-1.43.77.77 0 01.45.98zm1.15-5.22a.76.76 0 01.54-1.43.77.77 0 01.44 1 .77.77 0 01-.72.5.87.87 0 01-.26-.04zM36.09 97a.77.77 0 01-.72.5.79.79 0 01-.27-.05.76.76 0 01.54-1.45.77.77 0 01.45 1zm2.14-5.67a.77.77 0 01-.72.5.67.67 0 01-.27-.05.76.76 0 11.54-1.42.77.77 0 01.45 1zm2.14-5.66a.76.76 0 01-.72.49.79.79 0 01-.27 0 .76.76 0 01-.44-1 .75.75 0 011-.44.77.77 0 01.43.98zM42.51 80a.77.77 0 01-.72.5.7.7 0 01-.27-.05.76.76 0 01-.44-1 .77.77 0 011-.44.78.78 0 01.43.99zm.71-6.2a.76.76 0 011-.44.77.77 0 01.44 1 .76.76 0 01-.72.49.85.85 0 01-.27 0 .76.76 0 01-.45-1.02zm2.19 28.86a.77.77 0 01-.72.49.78.78 0 01-.27 0 .77.77 0 01-.45-1 .77.77 0 011.44.54zM47.55 97a.77.77 0 01-.72.5.79.79 0 01-.27-.05.76.76 0 01.54-1.45.77.77 0 01.45 1zm2.14-5.67a.77.77 0 01-.72.5.64.64 0 01-.27-.05.76.76 0 01.53-1.42.76.76 0 01.46 1zm2.14-5.66a.77.77 0 01-.72.49.79.79 0 01-.27 0 .76.76 0 01.54-1.43.77.77 0 01.45.97zM54 80a.77.77 0 01-.72.5.7.7 0 01-.27-.05.76.76 0 01-.44-1 .77.77 0 011-.44.78.78 0 01.43.99zm1.15-5.22a.76.76 0 01.54-1.43.77.77 0 01.44 1 .76.76 0 01-.72.49.85.85 0 01-.29-.02zm1.74 27.87a.76.76 0 01-.71.49.78.78 0 01-.27 0 .76.76 0 01-.44-1 .76.76 0 111.42.54zM59 97a.78.78 0 01-.72.5.79.79 0 01-.27-.05.76.76 0 01.55-1.45.77.77 0 01.44 1zm2.14-5.67a.77.77 0 01-.72.5.64.64 0 01-.27-.05.76.76 0 01.53-1.42.76.76 0 01.46 1zm2.14-5.66a.77.77 0 01-.72.49.79.79 0 01-.27 0 .76.76 0 01.54-1.43.77.77 0 01.45.97zM70.46 97a.78.78 0 01-.72.5.79.79 0 01-.27-.05A.76.76 0 0170 96a.77.77 0 01.46 1zm2.14-5.67a.77.77 0 01-.72.5.64.64 0 01-.27-.05.76.76 0 11.54-1.42.77.77 0 01.45 1zm2.14-5.66a.77.77 0 01-.72.49.79.79 0 01-.27 0 .76.76 0 01.54-1.43.77.77 0 01.45.97zM76.87 80a.77.77 0 01-.72.5.64.64 0 01-.27-.05.76.76 0 01-.44-1 .77.77 0 011-.44.78.78 0 01.43.99zm7.18 11.32a.78.78 0 01-.72.5.64.64 0 01-.27-.05.76.76 0 111-.44zm2.14-5.66a.76.76 0 01-.72.49.79.79 0 01-.27 0 .76.76 0 01-.44-1 .75.75 0 011-.44.77.77 0 01.43.99zM88.33 80a.77.77 0 01-.72.5.7.7 0 01-.27-.05.76.76 0 01-.44-1 .77.77 0 011-.44.78.78 0 01.43.99z" fill="none"/><path d="M21.37 12.52a.79.79 0 00.27.05.77.77 0 10-.72-1 .77.77 0 00.45.95zM2.66 62.06a.77.77 0 00-1 .45.75.75 0 00.44 1 .7.7 0 00.27.05.77.77 0 00.27-1.48zM35 6.85a.65.65 0 00.27.05.77.77 0 00.27-1.48.77.77 0 00-1 .45.76.76 0 00.46.98zM9.84 73.39a.76.76 0 00-.54 1.43.85.85 0 00.27 0 .76.76 0 00.72-.49.77.77 0 00-.45-.94zm22.98-60.87a.79.79 0 00.27.05.77.77 0 10-.27-.05zM12 67.72a.76.76 0 00-.54 1.43.87.87 0 00.27.05.76.76 0 00.71-.5.77.77 0 00-.44-.98zM48.56 1.19a.82.82 0 00.27 0 .76.76 0 00.72-.49.77.77 0 00-.09-.68l-1.24.14h-.11a.76.76 0 00.45 1.03zM19.16 79a.77.77 0 00-1 .44.76.76 0 00.44 1 .7.7 0 00.27.05.77.77 0 00.72-.5.78.78 0 00-.43-.99zM17 84.71a.76.76 0 00-.54 1.43.79.79 0 00.27 0 .76.76 0 00.27-1.43zm6.43-16.99a.76.76 0 00-.54 1.43.87.87 0 00.27.05.77.77 0 00.72-.5.77.77 0 00-.45-.98zm-2.14 5.67a.76.76 0 00-.54 1.43.85.85 0 00.27 0 .76.76 0 00.72-.49.77.77 0 00-.45-.94zm22.99-60.87a.79.79 0 00.27.05.78.78 0 00.72-.5.77.77 0 10-1 .44zm2.14-5.67a.65.65 0 00.27.05.77.77 0 00.72-.5.77.77 0 00-.45-1 .76.76 0 00-1 .45.75.75 0 00.46 1zM28.47 84.71a.76.76 0 00-.54 1.43.79.79 0 00.27 0 .76.76 0 00.27-1.48zm4.28-11.32a.76.76 0 00-.54 1.43.85.85 0 00.27 0 .76.76 0 00.72-.49.77.77 0 00-.45-.94zm-6.42 16.99a.76.76 0 10-.54 1.42.64.64 0 00.27.05.76.76 0 00.27-1.48zM30.61 79a.77.77 0 00-1 .44.76.76 0 00.44 1 .7.7 0 00.27.05.77.77 0 00.72-.5.78.78 0 00-.43-.99zm4.72-10.29a.77.77 0 00-.44-1 .76.76 0 00-.54 1.43.87.87 0 00.27.05.77.77 0 00.71-.48zm19.25-50.98a.77.77 0 00-1.44-.53.72.72 0 000 .16q.64.31 1.26.66a.77.77 0 00.18-.29zm3.29-10.88a.65.65 0 00.27.05.77.77 0 00.28-1.48.77.77 0 00-1 .45.75.75 0 00.45.98zm-2.13 5.67a.79.79 0 00.27.05.77.77 0 10-.72-1 .77.77 0 00.45.95zm13.59-5.67a.65.65 0 00.27.05.77.77 0 00.27-1.48.77.77 0 00-1 .45.76.76 0 00.46.98zm-2.14 5.67a.79.79 0 00.27.05.77.77 0 10-.27-.05zm-2.14 5.66a.8.8 0 00.27 0 .77.77 0 00.72-.5.77.77 0 00-1.44-.53.77.77 0 00.45 1.03zm-2.14 5.66a.65.65 0 00.27.05.77.77 0 00.27-1.48.76.76 0 10-.53 1.43zM42.07 79a.77.77 0 00-1 .44.76.76 0 00.44 1 .7.7 0 00.27.05.77.77 0 00.72-.5.78.78 0 00-.43-.99zm2.58-4.62a.77.77 0 00-.44-1 .76.76 0 00-.54 1.43.85.85 0 00.27 0 .76.76 0 00.71-.43zm-4.73 10.33a.75.75 0 00-1 .44.76.76 0 00.44 1 .79.79 0 00.27 0 .76.76 0 00.72-.49.77.77 0 00-.43-.95zM35.64 96a.76.76 0 00-.53 1.43.79.79 0 00.27.05.77.77 0 00.26-1.48zm2.15-5.62a.76.76 0 10-.54 1.42.67.67 0 00.27.05.76.76 0 00.27-1.48zm31.85-56.19a.77.77 0 00.44 1 .71.71 0 00.27.05.77.77 0 00.27-1.48.77.77 0 00-.98.43zM56.1 74.38a.77.77 0 00-.44-1 .76.76 0 00-.54 1.43.85.85 0 00.27 0 .76.76 0 00.71-.43zm16.12-44.87a.86.86 0 00.28 0 .76.76 0 10-.72-1 .78.78 0 00.44 1zm2.15-5.67a.65.65 0 00.27.05.77.77 0 10-.72-1 .77.77 0 00.45.95zm4.28-11.32a.79.79 0 00.27.05.78.78 0 00.72-.5.77.77 0 10-1 .44zm-2.14 5.66a.8.8 0 00.27 0 .76.76 0 00.22-1.43.76.76 0 00-1 .44.77.77 0 00.51.99zm-27.27 72.2a.76.76 0 00-.53 1.42.64.64 0 00.27.05.76.76 0 00.27-1.48zM45 101.71a.76.76 0 00-1 .44.77.77 0 00.45 1 .78.78 0 00.27 0 .76.76 0 00.27-1.48zM47.1 96a.76.76 0 00-.53 1.43.79.79 0 00.27.05.77.77 0 00.26-1.48zm21.39-56.59a.76.76 0 00-1 .41h1.39a.75.75 0 00-.39-.41zm-17.11 45.3a.76.76 0 00-.54 1.43.79.79 0 00.27 0 .76.76 0 00.27-1.48zM53.52 79a.77.77 0 00-1 .44.76.76 0 00.44 1 .7.7 0 00.27.05A.77.77 0 0054 80a.78.78 0 00-.48-1zm9.32 5.71a.76.76 0 00-.54 1.43.79.79 0 00.27 0 .76.76 0 00.27-1.48zm22.98-60.87a.71.71 0 00.27.05.77.77 0 00.27-1.48.76.76 0 00-.54 1.43zM88 18.18a.8.8 0 00.27 0 .76.76 0 10-.71-1 .76.76 0 00.44 1zm-8.06 21.23a.76.76 0 00-1 .4h1.39a.75.75 0 00-.39-.4zm3.75-9.9a.78.78 0 00.27 0 .76.76 0 10-.72-1 .77.77 0 00.45 1zm-23 60.87a.76.76 0 00-.53 1.42.64.64 0 00.27.05.76.76 0 00.27-1.48zm-4.27 11.33a.75.75 0 00-1 .44.76.76 0 00.44 1 .78.78 0 00.27 0 .76.76 0 00.27-1.48zm25.12-66.54a.71.71 0 00.27.05.77.77 0 00.27-1.48.76.76 0 00-.54 1.43zM58.56 96a.76.76 0 00-.56 1.47.79.79 0 00.27.05.77.77 0 00.29-1.52zM64 79.49a.76.76 0 00.44 1v-1.44a.74.74 0 00-.44.44zm8.15 10.89a.76.76 0 10-.54 1.42.64.64 0 00.27.05.76.76 0 00.27-1.48zm2.14-5.67a.76.76 0 00-.54 1.43.79.79 0 00.27 0 .76.76 0 00.27-1.48zM76.43 79a.77.77 0 00-1 .44.76.76 0 00.44 1 .64.64 0 00.27.05.77.77 0 00.72-.5.78.78 0 00-.43-.99zM70 96a.76.76 0 00-.53 1.43.79.79 0 00.27.05.78.78 0 00.72-.5A.77.77 0 0070 96zm25.13-66.49a.86.86 0 00.28 0 .76.76 0 10-.72-1 .78.78 0 00.44 1zM93 35.17a.71.71 0 00.28.05.77.77 0 10-.28-.05zm-1.6 4.24a.76.76 0 00-1 .4h1.39a.75.75 0 00-.39-.4zM87.89 79a.77.77 0 00-1 .44.76.76 0 00.44 1 .7.7 0 00.27.05.77.77 0 00.72-.5.78.78 0 00-.43-.99zM83.6 90.38a.76.76 0 10-.53 1.42.64.64 0 00.27.05.78.78 0 00.72-.5.76.76 0 00-.46-.97zm2.14-5.67a.75.75 0 00-1 .44.76.76 0 00.44 1 .79.79 0 00.27 0 .76.76 0 00.72-.49.77.77 0 00-.43-.95zM67.13 39.83c-8.49.41-16.31 8.49-16.31 18a18 18 0 00.85 5.4c7.59-3.29 15.33-12.34 15.46-23.4z" fill="#205493"/><path d="M102.83 41a14.51 14.51 0 00-5.71-1.2H67.13C67 50.89 59.26 59.94 51.66 63.23c2.1 6.71 7.79 11.7 12.79 12.87v8.52l8.81-8.56h24.86a52.05 52.05 0 004.71-35z" fill="#112e51"/><path d="M8.22 37.27l12.87-8.35v4.44l-8.84 5.54v.1l8.83 5.54V49L8.22 40.67zM28 54.73h-4.1l11-29H39zm27.07-14.06L42.2 49v-4.42L51 39v-.1l-8.8-5.54v-4.44l12.87 8.35z" fill="#fff"/><path d="M64.56 56.27l8.9-5.77v3.07l-6.11 3.83v.09l6.11 3.83v3.07l-8.9-5.77zm13.66 12.07h-2.84L83 48.26h2.8zM97 58.62l-8.9 5.77v-3.07l6.11-3.83v-.09l-6.11-3.83V50.5l8.9 5.77z" fill="#e21d3e"/></svg>