<svg xmlns="http://www.w3.org/2000/svg" viewBox="0 0 135.53 136"><title>develop</title><g id="Layer_2" data-name="Layer 2"><g id="Layer_1-2" data-name="Layer 1"><path d="M87.25,51.75c0,.11,0,.22,0,.33l.88,0h38.39A19,19,0,0,1,134,53.62,68,68,0,0,0,19.43,19.94H57.25C72.7,19.94,87.25,34.51,87.25,51.75Z" fill="#0071bb"/><path d="M95.28,99.48,83.74,110.67V99.52c-6.54-1.53-14-8-16.74-16.83A22.77,22.77,0,0,1,63.17,84v16l-14.08-16H18.95A27.85,27.85,0,0,1,0,75.88,68,68,0,0,0,127.83,99.42c-.44,0-.87.05-1.31.05Z" fill="#0071bb"/><path d="M87.77,52.06l0,0a1,1,0,0,0,.58,1.29,1.14,1.14,0,0,0,.36.07,1,1,0,0,0,.91-1.42H87.77Z" fill="#205493"/><path d="M84.07,105.31a1,1,0,0,0,.94-.65,1,1,0,0,0-1.27-1.28v1.87A.93.93,0,0,0,84.07,105.31Z" fill="#205493"/><path d="M102.74,52.11a1,1,0,0,0,.58,1.29,1.14,1.14,0,0,0,.36.07,1,1,0,0,0,.91-1.42h-1.82Z" fill="#205493"/><path d="M117.74,52.11a1,1,0,0,0,.58,1.29,1.15,1.15,0,0,0,.36.07,1,1,0,0,0,.91-1.42h-1.82Z" fill="#205493"/><path d="M123.34,37.3a1,1,0,1,1,.94,1.35,1.13,1.13,0,0,1-.36-.06A1,1,0,0,1,123.34,37.3Zm-2.8,7.41a1,1,0,1,1,.94,1.35.93.93,0,0,1-.36-.07A1,1,0,0,1,120.54,44.71ZM114,22.49a1,1,0,1,1,.93,1.35,1.05,1.05,0,0,1-.35-.06A1,1,0,0,1,114,22.49Zm-2.81,7.4a1,1,0,0,1,1.29-.58,1,1,0,0,1-.35,1.94.93.93,0,0,1-.36-.07A1,1,0,0,1,111.14,29.89Zm-2.8,7.41a1,1,0,1,1,.94,1.35,1,1,0,0,1-.35-.06A1,1,0,0,1,108.34,37.3Zm-2.8,7.41a1,1,0,0,1,1.29-.59,1,1,0,0,1-.35,1.94.92.92,0,0,1-.36-.07A1,1,0,0,1,105.54,44.71Zm-3.8-29.63a1,1,0,0,1,1.88.71,1,1,0,0,1-.94.65,1,1,0,0,1-.35-.07A1,1,0,0,1,101.74,15.08Zm-2.8,7.41a1,1,0,0,1,1.29-.58,1,1,0,0,1-.35,1.93,1.05,1.05,0,0,1-.35-.06A1,1,0,0,1,98.94,22.49Zm-2.8,7.4a1,1,0,1,1,.94,1.36.85.85,0,0,1-.35-.07A1,1,0,0,1,96.14,29.89Zm-2.8,7.41a1,1,0,1,1,.94,1.35,1.13,1.13,0,0,1-.36-.06A1,1,0,0,1,93.34,37.3Zm-.93,8.11a1,1,0,0,1-.93.65.92.92,0,0,1-.36-.07,1,1,0,0,1-.58-1.28,1,1,0,0,1,1.29-.59A1,1,0,0,1,92.41,45.41ZM89.54,7.68a1,1,0,1,1,1.88.7,1,1,0,0,1-.94.65A.85.85,0,0,1,90.13,9,1,1,0,0,1,89.54,7.68Zm-2.79,7.4a1,1,0,1,1,.93,1.36,1,1,0,0,1-.35-.07A1,1,0,0,1,86.75,15.08Zm-2.81,7.41a1,1,0,0,1,1.88.7,1,1,0,0,1-.94.65,1.05,1.05,0,0,1-.35-.06A1,1,0,0,1,83.94,22.49Zm-2.8,7.4a1,1,0,0,1,1.29-.58,1,1,0,0,1-.35,1.94.85.85,0,0,1-.35-.07A1,1,0,0,1,81.14,29.89ZM74.55,7.68a1,1,0,0,1,1.29-.59A1,1,0,0,1,75.48,9,.85.85,0,0,1,75.13,9,1,1,0,0,1,74.55,7.68Zm-2.81,7.4A1,1,0,0,1,73,14.5a1,1,0,0,1-.35,1.94,1,1,0,0,1-.35-.07A1,1,0,0,1,71.74,15.08ZM59.55,7.68a1,1,0,0,1,1.28-.59A1,1,0,0,1,60.48,9,.85.85,0,0,1,60.13,9,1,1,0,0,1,59.55,7.68Zm-2.81,7.4a1,1,0,0,1,1.88.71,1,1,0,0,1-.94.65,1,1,0,0,1-.35-.07A1,1,0,0,1,56.74,15.08Zm-12.2-7.4a1,1,0,1,1,1.88.7,1,1,0,0,1-.94.65A.85.85,0,0,1,45.13,9,1,1,0,0,1,44.54,7.68Zm-2.79,7.4a1,1,0,1,1,.93,1.36,1,1,0,0,1-.35-.07A1,1,0,0,1,41.75,15.08ZM28,14.5a1,1,0,0,1-.35,1.94,1,1,0,0,1-.35-.07A1,1,0,1,1,28,14.5Z" fill="none"/><path d="M3.41,82.44a1,1,0,0,1-.94.65A.91.91,0,0,1,2.12,83a1,1,0,0,1-.58-1.28,1,1,0,1,1,1.87.7Zm9.4,14.82a1,1,0,0,1-.94.64,1.12,1.12,0,0,1-.35-.06A1,1,0,1,1,12.23,96,1,1,0,0,1,12.81,97.26Zm2.8-7.41a1,1,0,0,1-.93.65,1.14,1.14,0,0,1-.36-.07A1,1,0,1,1,15,88.56,1,1,0,0,1,15.61,89.85Zm6.6,22.22a1,1,0,0,1-.94.64,1,1,0,0,1-.35-.06,1,1,0,1,1,.71-1.87A1,1,0,0,1,22.21,112.07Zm2.8-7.41a1,1,0,0,1-.94.65.91.91,0,0,1-.35-.07,1,1,0,0,1-.58-1.29,1,1,0,0,1,1.87.71Zm2.8-7.4a1,1,0,0,1-.94.64,1.12,1.12,0,0,1-.35-.06A1,1,0,1,1,27.23,96,1,1,0,0,1,27.81,97.26Zm2.8-7.41a1,1,0,0,1-.94.65,1.14,1.14,0,0,1-.35-.07A1,1,0,1,1,30,88.56,1,1,0,0,1,30.61,89.85Zm3.8,29.62a1,1,0,0,1-.94.65.85.85,0,0,1-.35-.07,1,1,0,1,1,.71-1.86A1,1,0,0,1,34.41,119.47Zm2.8-7.4a1,1,0,0,1-.94.64,1,1,0,0,1-.35-.06,1,1,0,1,1,.71-1.87A1,1,0,0,1,37.21,112.07Zm2.8-7.41a1,1,0,0,1-.94.65.91.91,0,0,1-.35-.07,1,1,0,0,1-.58-1.29,1,1,0,0,1,1.87.71Zm2.8-7.4a1,1,0,0,1-.94.64,1.12,1.12,0,0,1-.35-.06A1,1,0,1,1,42.23,96,1,1,0,0,1,42.81,97.26Zm1.51-6.83A1,1,0,1,1,45,88.56a1,1,0,0,1-.36,1.94A1.14,1.14,0,0,1,44.32,90.43Zm2.29,36.45a1,1,0,0,1-.94.65,1,1,0,0,1-.35-.07,1,1,0,0,1,.7-1.87A1,1,0,0,1,46.61,126.88Zm2.8-7.41a1,1,0,0,1-.94.65.88.88,0,0,1-.35-.07,1,1,0,1,1,.71-1.86A1,1,0,0,1,49.41,119.47Zm2.8-7.4a1,1,0,0,1-.94.64,1,1,0,0,1-.35-.06,1,1,0,0,1-.58-1.29,1,1,0,0,1,1.28-.58A1,1,0,0,1,52.21,112.07Zm2.8-7.41a1,1,0,0,1-.94.65.91.91,0,0,1-.35-.07,1,1,0,0,1-.58-1.29,1,1,0,0,1,1.87.71Zm.93-8.11A1,1,0,0,1,57.23,96a1,1,0,0,1,.58,1.29,1,1,0,0,1-.94.64,1.12,1.12,0,0,1-.35-.06A1,1,0,0,1,55.94,96.55Zm2.87,37.74a1,1,0,0,1-.94.64,1,1,0,0,1-.35-.06,1,1,0,0,1-.59-1.29,1,1,0,0,1,1.88.71Zm2.8-7.41a1,1,0,0,1-.94.65,1,1,0,0,1-.35-.07,1,1,0,0,1,.7-1.87A1,1,0,0,1,61.61,126.88Zm2.8-7.41a1,1,0,0,1-.94.65.85.85,0,0,1-.35-.07,1,1,0,0,1,.7-1.86A1,1,0,0,1,64.41,119.47Zm2.8-7.4a1,1,0,0,1-.94.64,1,1,0,0,1-.35-.06,1,1,0,1,1,.71-1.87A1,1,0,0,1,67.21,112.07Zm2.8-7.41a1,1,0,0,1-.94.65.91.91,0,0,1-.35-.07,1,1,0,0,1-.58-1.29,1,1,0,0,1,1.87.71Zm1.51-6.82A1,1,0,1,1,72.23,96a1,1,0,0,1,.58,1.29,1,1,0,0,1-.94.64A1.12,1.12,0,0,1,71.52,97.84Zm2.28,36.45a1,1,0,0,1-.93.64,1,1,0,0,1-.35-.06,1,1,0,0,1-.58-1.29,1,1,0,1,1,1.86.71Zm2.81-7.41a1,1,0,0,1-.94.65,1,1,0,0,1-.35-.07,1,1,0,1,1,.71-1.87A1,1,0,0,1,76.61,126.88Zm2.8-7.41a1,1,0,0,1-.94.65.85.85,0,0,1-.35-.07,1,1,0,0,1,.7-1.86A1,1,0,0,1,79.41,119.47Zm2.8-7.4a1,1,0,0,1-.94.64,1,1,0,0,1-.35-.06,1,1,0,1,1,.71-1.87A1,1,0,0,1,82.21,112.07Zm9.4,14.81a1,1,0,0,1-.94.65,1,1,0,0,1-.35-.07,1,1,0,0,1,.7-1.87A1,1,0,0,1,91.61,126.88Zm2.8-7.41a1,1,0,0,1-.94.65.85.85,0,0,1-.35-.07,1,1,0,1,1,.71-1.86A1,1,0,0,1,94.41,119.47Zm2.8-7.4a1,1,0,0,1-.94.64,1,1,0,0,1-.35-.06,1,1,0,1,1,.71-1.87A1,1,0,0,1,97.21,112.07Zm2.8-7.41a1,1,0,0,1-.94.65.84.84,0,0,1-.35-.07,1,1,0,0,1-.58-1.29,1,1,0,0,1,1.87.71Zm9.4,14.81a1,1,0,0,1-.94.65.85.85,0,0,1-.35-.07,1,1,0,1,1,1.29-.58Zm2.8-7.4a1,1,0,0,1-.94.64,1,1,0,0,1-.35-.06,1,1,0,0,1-.58-1.29,1,1,0,0,1,1.28-.58A1,1,0,0,1,112.21,112.07Zm2.8-7.41a1,1,0,0,1-.94.65.91.91,0,0,1-.35-.07,1,1,0,0,1-.58-1.29,1,1,0,0,1,1.87.71Z" fill="none"/><path d="M27.33,16.37a1,1,0,0,0,.35.07,1,1,0,1,0-.35-.07Z" fill="#205493"/><path d="M2.83,81.15a1,1,0,0,0-1.29.59A1,1,0,0,0,2.12,83a.91.91,0,0,0,.35.07,1,1,0,0,0,.36-1.94Z" fill="#205493"/><path d="M45.13,9a.85.85,0,0,0,.35.07,1,1,0,0,0,.94-.65,1,1,0,1,0-1.88-.7A1,1,0,0,0,45.13,9Z" fill="#205493"/><path d="M12.23,96a1,1,0,1,0-.71,1.87,1.12,1.12,0,0,0,.35.06,1,1,0,0,0,.94-.64A1,1,0,0,0,12.23,96Z" fill="#205493"/><path d="M42.33,16.37a1,1,0,0,0,.35.07,1,1,0,1,0-.35-.07Z" fill="#205493"/><path d="M15,88.56a1,1,0,1,0-.71,1.87,1.14,1.14,0,0,0,.36.07,1,1,0,0,0,.93-.65A1,1,0,0,0,15,88.56Z" fill="#205493"/><path d="M62.93,1.56a1.07,1.07,0,0,0,.35.06A1,1,0,0,0,64.22,1a1,1,0,0,0-.12-.89c-.54,0-1.07.08-1.61.12l-.14.06A1,1,0,0,0,62.93,1.56Z" fill="#205493"/><path d="M24.43,103.37a1,1,0,0,0-1.29.58,1,1,0,0,0,.58,1.29.91.91,0,0,0,.35.07,1,1,0,0,0,.94-.65A1,1,0,0,0,24.43,103.37Z" fill="#205493"/><path d="M21.63,110.78a1,1,0,1,0-.71,1.87,1,1,0,0,0,.35.06,1,1,0,0,0,.36-1.93Z" fill="#205493"/><path d="M30,88.56a1,1,0,1,0-.71,1.87,1.14,1.14,0,0,0,.35.07A1,1,0,0,0,30,88.56Z" fill="#205493"/><path d="M27.23,96a1,1,0,1,0-.71,1.87,1.12,1.12,0,0,0,.35.06,1,1,0,0,0,.94-.64A1,1,0,0,0,27.23,96Z" fill="#205493"/><path d="M57.33,16.37a1,1,0,0,0,.35.07,1,1,0,0,0,.94-.65,1,1,0,1,0-1.29.58Z" fill="#205493"/><path d="M60.13,9a.85.85,0,0,0,.35.07,1,1,0,1,0-.93-1.35A1,1,0,0,0,60.13,9Z" fill="#205493"/><path d="M36.63,110.78a1,1,0,1,0-.71,1.87,1,1,0,0,0,.35.06,1,1,0,0,0,.36-1.93Z" fill="#205493"/><path d="M42.23,96a1,1,0,1,0-.71,1.87,1.12,1.12,0,0,0,.35.06,1,1,0,0,0,.94-.64A1,1,0,0,0,42.23,96Z" fill="#205493"/><path d="M33.83,118.19a1,1,0,1,0-.71,1.86.85.85,0,0,0,.35.07,1,1,0,0,0,.36-1.93Z" fill="#205493"/><path d="M39.43,103.37a1,1,0,0,0-1.29.58,1,1,0,0,0,.58,1.29.91.91,0,0,0,.35.07,1,1,0,0,0,.94-.65A1,1,0,0,0,39.43,103.37Z" fill="#205493"/><path d="M45.61,89.85A1,1,0,0,0,45,88.56a1,1,0,1,0-.71,1.87,1.14,1.14,0,0,0,.35.07A1,1,0,0,0,45.61,89.85Z" fill="#205493"/><path d="M70.82,23.19a1,1,0,0,0-1.88-.7,1,1,0,0,0,0,.21q.83.4,1.65.86A1,1,0,0,0,70.82,23.19Z" fill="#205493"/><path d="M75.13,9a.85.85,0,0,0,.35.07,1,1,0,0,0,.36-1.94,1,1,0,0,0-1.29.59A1,1,0,0,0,75.13,9Z" fill="#205493"/><path d="M72.33,16.37a1,1,0,0,0,.35.07,1,1,0,1,0-.35-.07Z" fill="#205493"/><path d="M90.13,9a.85.85,0,0,0,.35.07,1,1,0,0,0,.94-.65,1,1,0,1,0-1.88-.7A1,1,0,0,0,90.13,9Z" fill="#205493"/><path d="M87.33,16.37a1,1,0,0,0,.35.07,1,1,0,1,0-.35-.07Z" fill="#205493"/><path d="M84.53,23.78a1.05,1.05,0,0,0,.35.06,1,1,0,0,0,.94-.65,1,1,0,0,0-1.88-.7A1,1,0,0,0,84.53,23.78Z" fill="#205493"/><path d="M81.73,31.18a.85.85,0,0,0,.35.07,1,1,0,0,0,.35-1.94,1,1,0,0,0-1.29.58A1,1,0,0,0,81.73,31.18Z" fill="#205493"/><path d="M54.43,103.37a1,1,0,0,0-1.29.58,1,1,0,0,0,.58,1.29.91.91,0,0,0,.35.07,1,1,0,0,0,.94-.65A1,1,0,0,0,54.43,103.37Z" fill="#205493"/><path d="M57.81,97.26A1,1,0,0,0,57.23,96a1,1,0,1,0-.71,1.87,1.12,1.12,0,0,0,.35.06A1,1,0,0,0,57.81,97.26Z" fill="#205493"/><path d="M51.62,110.78a1,1,0,0,0-1.28.58,1,1,0,0,0,.58,1.29,1,1,0,0,0,.35.06,1,1,0,0,0,.94-.64A1,1,0,0,0,51.62,110.78Z" fill="#205493"/><path d="M46,125.59a1,1,0,0,0-.7,1.87,1,1,0,0,0,.35.07,1,1,0,0,0,.35-1.94Z" fill="#205493"/><path d="M48.83,118.19a1,1,0,1,0-.71,1.86.88.88,0,0,0,.35.07,1,1,0,0,0,.36-1.93Z" fill="#205493"/><path d="M90.54,44.71A1,1,0,0,0,91.12,46a.92.92,0,0,0,.36.07,1,1,0,0,0,.35-1.94A1,1,0,0,0,90.54,44.71Z" fill="#205493"/><path d="M72.81,97.26A1,1,0,0,0,72.23,96a1,1,0,1,0-.71,1.87,1.12,1.12,0,0,0,.35.06A1,1,0,0,0,72.81,97.26Z" fill="#205493"/><path d="M93.92,38.59a1.13,1.13,0,0,0,.36.06,1,1,0,1,0-.94-1.35A1,1,0,0,0,93.92,38.59Z" fill="#205493"/><path d="M96.73,31.18a.85.85,0,0,0,.35.07A1,1,0,0,0,98,30.6a1,1,0,1,0-1.29.58Z" fill="#205493"/><path d="M102.33,16.37a1,1,0,0,0,.35.07,1,1,0,0,0,.94-.65,1,1,0,1,0-1.29.58Z" fill="#205493"/><path d="M99.53,23.78a1.05,1.05,0,0,0,.35.06,1,1,0,0,0,.35-1.93,1,1,0,0,0-1.29.58A1,1,0,0,0,99.53,23.78Z" fill="#205493"/><path d="M63.82,118.19a1,1,0,0,0-.7,1.86.85.85,0,0,0,.35.07,1,1,0,0,0,.35-1.93Z" fill="#205493"/><path d="M58.22,133a1,1,0,0,0-1.29.58,1,1,0,0,0,.59,1.29,1,1,0,0,0,.35.06,1,1,0,0,0,.94-.64A1,1,0,0,0,58.22,133Z" fill="#205493"/><path d="M61,125.59a1,1,0,0,0-.7,1.87,1,1,0,0,0,.35.07,1,1,0,0,0,.35-1.94Z" fill="#205493"/><path d="M89,51.53a1,1,0,0,0-1.26.53h1.82A1,1,0,0,0,89,51.53Z" fill="#205493"/><path d="M66.63,110.78a1,1,0,1,0-.71,1.87,1,1,0,0,0,.35.06,1,1,0,0,0,.36-1.93Z" fill="#205493"/><path d="M69.43,103.37a1,1,0,0,0-1.29.58,1,1,0,0,0,.58,1.29.91.91,0,0,0,.35.07,1,1,0,0,0,.94-.65A1,1,0,0,0,69.43,103.37Z" fill="#205493"/><path d="M81.63,110.78a1,1,0,1,0-.71,1.87,1,1,0,0,0,.35.06,1,1,0,0,0,.36-1.93Z" fill="#205493"/><path d="M111.72,31.18a.93.93,0,0,0,.36.07,1,1,0,0,0,.35-1.94,1,1,0,0,0-.71,1.87Z" fill="#205493"/><path d="M114.53,23.78a1.05,1.05,0,0,0,.35.06,1,1,0,1,0-.93-1.35A1,1,0,0,0,114.53,23.78Z" fill="#205493"/><path d="M104,51.53a1,1,0,0,0-1.25.52h1.82A1,1,0,0,0,104,51.53Z" fill="#205493"/><path d="M108.93,38.59a1,1,0,0,0,.35.06,1,1,0,1,0-.94-1.35A1,1,0,0,0,108.93,38.59Z" fill="#205493"/><path d="M78.82,118.19a1,1,0,0,0-.7,1.86.85.85,0,0,0,.35.07,1,1,0,0,0,.35-1.93Z" fill="#205493"/><path d="M73.22,133a1,1,0,0,0-1.28.58,1,1,0,0,0,.58,1.29,1,1,0,0,0,.35.06,1,1,0,0,0,.35-1.93Z" fill="#205493"/><path d="M106.12,46a.92.92,0,0,0,.36.07,1,1,0,0,0,.35-1.94,1,1,0,0,0-1.29.59A1,1,0,0,0,106.12,46Z" fill="#205493"/><path d="M76,125.59a1,1,0,1,0-.71,1.87,1,1,0,0,0,.35.07,1,1,0,0,0,.94-.65A1,1,0,0,0,76,125.59Z" fill="#205493"/><path d="M83.14,104a1,1,0,0,0,.58,1.29h0v-1.87A1,1,0,0,0,83.14,104Z" fill="#205493"/><path d="M93.83,118.19a1,1,0,1,0-.71,1.86.85.85,0,0,0,.35.07,1,1,0,0,0,.36-1.93Z" fill="#205493"/><path d="M96.63,110.78a1,1,0,1,0-.71,1.87,1,1,0,0,0,.35.06,1,1,0,0,0,.36-1.93Z" fill="#205493"/><path d="M99.43,103.37a1,1,0,0,0-1.29.58,1,1,0,0,0,.58,1.29.84.84,0,0,0,.35.07,1,1,0,0,0,.94-.65A1,1,0,0,0,99.43,103.37Z" fill="#205493"/><path d="M91,125.59a1,1,0,0,0-.7,1.87,1,1,0,0,0,.35.07,1,1,0,0,0,.94-.65A1,1,0,0,0,91,125.59Z" fill="#205493"/><path d="M123.92,38.59a1.13,1.13,0,0,0,.36.06,1,1,0,1,0-.94-1.35A1,1,0,0,0,123.92,38.59Z" fill="#205493"/><path d="M121.12,46a.93.93,0,0,0,.36.07,1,1,0,1,0-.36-.07Z" fill="#205493"/><path d="M119,51.53a1,1,0,0,0-1.25.52h1.82A1,1,0,0,0,119,51.53Z" fill="#205493"/><path d="M114.43,103.37a1,1,0,0,0-1.29.58,1,1,0,0,0,.58,1.29.91.91,0,0,0,.35.07,1,1,0,0,0,.94-.65A1,1,0,0,0,114.43,103.37Z" fill="#205493"/><path d="M108.82,118.19a1,1,0,1,0-.7,1.86.85.85,0,0,0,.35.07,1,1,0,0,0,.94-.65A1,1,0,0,0,108.82,118.19Z" fill="#205493"/><path d="M111.62,110.78a1,1,0,0,0-1.28.58,1,1,0,0,0,.58,1.29,1,1,0,0,0,.35.06,1,1,0,0,0,.94-.64A1,1,0,0,0,111.62,110.78Z" fill="#205493"/><path d="M87.25,52.08c-11.11.54-21.35,11.11-21.35,23.55A23.55,23.55,0,0,0,67,82.69C77,78.38,87.09,66.55,87.25,52.08Z" fill="#cedbec"/><path d="M134,53.62a19,19,0,0,0-7.48-1.57H88.13l-.88,0C87.09,66.55,77,78.38,67,82.69,69.75,91.47,77.2,98,83.74,99.52v11.15L95.28,99.48h31.24c.44,0,.88,0,1.31-.05A68,68,0,0,0,134,53.62Z" fill="#00bfe7"/><path d="M6.51,48.42l18.22-11.8V42.9L12.23,50.73v.19l12.51,7.84V65L6.51,53.24Z" fill="#e31c3d"/><path d="M34.47,73.11H28.67L44.2,32H50Z" fill="#e31c3d"/><path d="M72.86,53.24,54.64,65V58.76l12.51-7.84v-.19L54.64,42.9V36.62l18.22,11.8Z" fill="#e31c3d"/><path d="M83.89,73.58,95.54,66v4l-8,5v.12l8,5v4L83.89,76.66Z" fill="#fff"/><path d="M101.77,89.37H98.06L108,63.1h3.71Z" fill="#fff"/><path d="M126.32,76.66l-11.65,7.55v-4l8-5v-.12l-8-5V66l11.65,7.55Z" fill="#fff"/></g></g></svg>