<svg id="Layer_1" data-name="Layer 1" xmlns="http://www.w3.org/2000/svg" xmlns:xlink="http://www.w3.org/1999/xlink" viewBox="0 0 104 104"><defs><linearGradient id="linear-gradient" x1="76.95" y1="85.79" x2="20.19" y2="9.68" gradientUnits="userSpaceOnUse"><stop offset="0" stop-color="#d1f0ff"/><stop offset="1" stop-color="#00bfe7"/></linearGradient><linearGradient id="New_Gradient_Swatch_1" x1="17.45" y1="80.53" x2="94.43" y2="-16.37" gradientUnits="userSpaceOnUse"><stop offset="0" stop-color="#0071bb"/><stop offset="1" stop-color="#205493"/></linearGradient><linearGradient id="New_Gradient_Swatch_1-2" x1="30.61" y1="91.33" x2="107.65" y2="-5.64" xlink:href="#New_Gradient_Swatch_1"/></defs><title>open-source</title><ellipse cx="51.75" cy="52" rx="51.75" ry="52" fill="url(#linear-gradient)"/><path d="M67.13,39.57c0,.09,0,.17,0,.25l.67,0H97.12a14.51,14.51,0,0,1,5.71,1.2A51.9,51.9,0,0,0,15.34,15.24H44.22C56,15.24,67.13,26.39,67.13,39.57Z" fill="url(#New_Gradient_Swatch_1)"/><path d="M73.26,76.07l-8.81,8.56V76.1c-5-1.17-10.69-6.16-12.79-12.87a17.37,17.37,0,0,1-2.93,1V76.45L38,64.17H15A21.25,21.25,0,0,1,.5,58,51.9,51.9,0,0,0,98.12,76c-.33,0-.67,0-1,0Z" fill="url(#New_Gradient_Swatch_1-2)"/><path d="M67.53,39.81l0,0a.77.77,0,0,0,.44,1,.87.87,0,0,0,.27.05.77.77,0,0,0,.7-1.08H67.53Z" fill="#205493"/><path d="M64.7,80.53a.77.77,0,0,0,.72-.5A.78.78,0,0,0,65,79a.77.77,0,0,0-.52,0v1.43A.71.71,0,0,0,64.7,80.53Z" fill="#205493"/><path d="M79,39.85a.77.77,0,0,0,.44,1,.87.87,0,0,0,.27.05.77.77,0,0,0,.7-1.08H79Z" fill="#205493"/><path d="M90.41,39.85a.77.77,0,0,0,.44,1,.88.88,0,0,0,.27.05.77.77,0,0,0,.7-1.08H90.44Z" fill="#205493"/><path d="M94.69,28.52a.76.76,0,1,1,.72,1,.86.86,0,0,1-.28,0A.78.78,0,0,1,94.69,28.52Zm-2.14,5.67a.76.76,0,1,1,.72,1,.71.71,0,0,1-.28-.05A.77.77,0,0,1,92.55,34.19Zm-5-17a.76.76,0,1,1,.71,1,.8.8,0,0,1-.27,0A.76.76,0,0,1,87.52,17.2Zm-2.15,5.66a.78.78,0,0,1,1-.44.77.77,0,0,1-.27,1.48.71.71,0,0,1-.27-.05A.77.77,0,0,1,85.37,22.86Zm-2.14,5.67a.76.76,0,1,1,.72,1,.78.78,0,0,1-.27,0A.77.77,0,0,1,83.24,28.52ZM81.1,34.19a.77.77,0,0,1,1-.45.77.77,0,0,1-.27,1.48.71.71,0,0,1-.27-.05A.77.77,0,0,1,81.1,34.19ZM78.2,11.53a.77.77,0,0,1,1.44.54.78.78,0,0,1-.72.5.79.79,0,0,1-.27-.05A.77.77,0,0,1,78.2,11.53ZM76.06,17.2a.76.76,0,0,1,1-.44.76.76,0,0,1-.27,1.48.8.8,0,0,1-.27,0A.77.77,0,0,1,76.06,17.2Zm-2.14,5.66a.77.77,0,1,1,.72,1,.65.65,0,0,1-.27-.05A.77.77,0,0,1,73.92,22.86Zm-2.14,5.67a.76.76,0,1,1,.72,1,.86.86,0,0,1-.28,0A.78.78,0,0,1,71.78,28.52Zm-.71,6.2a.76.76,0,0,1-.71.5.71.71,0,0,1-.27-.05.76.76,0,1,1,1-.44ZM68.88,5.87a.77.77,0,1,1,1.44.54.78.78,0,0,1-.72.5.65.65,0,0,1-.27-.05A.76.76,0,0,1,68.88,5.87Zm-2.13,5.66a.76.76,0,1,1,.71,1,.79.79,0,0,1-.27-.05A.76.76,0,0,1,66.75,11.53ZM64.6,17.2a.77.77,0,0,1,1.44.53.77.77,0,0,1-.72.5.8.8,0,0,1-.27,0A.77.77,0,0,1,64.6,17.2Zm-2.14,5.66a.78.78,0,0,1,1-.44.77.77,0,0,1-.27,1.48.65.65,0,0,1-.27-.05A.77.77,0,0,1,62.46,22.86Zm-5-17a.77.77,0,0,1,1-.45.77.77,0,0,1-.28,1.48.65.65,0,0,1-.27-.05A.75.75,0,0,1,57.43,5.87Zm-2.15,5.66a.77.77,0,0,1,1-.44A.77.77,0,0,1,56,12.57a.79.79,0,0,1-.27-.05A.77.77,0,0,1,55.28,11.53ZM46,5.87a.76.76,0,0,1,1-.45.77.77,0,0,1,.45,1,.77.77,0,0,1-.72.5.65.65,0,0,1-.27-.05A.75.75,0,0,1,46,5.87Zm-2.15,5.66a.77.77,0,0,1,1.44.54.78.78,0,0,1-.72.5.79.79,0,0,1-.27-.05A.77.77,0,0,1,43.83,11.53ZM34.51,5.87a.77.77,0,1,1,1.44.54.78.78,0,0,1-.72.5A.65.65,0,0,1,35,6.85.76.76,0,0,1,34.51,5.87Zm-2.13,5.66a.76.76,0,1,1,.71,1,.79.79,0,0,1-.27-.05A.76.76,0,0,1,32.38,11.53ZM21.9,11.09a.77.77,0,0,1-.27,1.48.79.79,0,0,1-.27-.05.76.76,0,1,1,.53-1.43Z" fill="none"/><path d="M3.1,63a.77.77,0,0,1-.72.5.7.7,0,0,1-.27-.05.75.75,0,0,1-.44-1A.76.76,0,1,1,3.1,63Zm7.18,11.33a.76.76,0,0,1-.72.49.85.85,0,0,1-.27,0,.76.76,0,0,1,.54-1.43A.77.77,0,0,1,10.28,74.38Zm2.14-5.67a.76.76,0,0,1-.71.5.87.87,0,0,1-.27-.05A.76.76,0,0,1,12,67.72.77.77,0,0,1,12.42,68.71Zm5,17a.77.77,0,0,1-.72.49.79.79,0,0,1-.27,0A.76.76,0,0,1,17,84.71.77.77,0,0,1,17.46,85.7ZM19.6,80a.77.77,0,0,1-.72.5.7.7,0,0,1-.27-.05.76.76,0,0,1-.44-1,.77.77,0,0,1,1-.44A.78.78,0,0,1,19.6,80Zm2.14-5.66a.76.76,0,0,1-.72.49.85.85,0,0,1-.27,0,.76.76,0,0,1,.54-1.43A.77.77,0,0,1,21.74,74.38Zm2.14-5.67a.77.77,0,0,1-.72.5.87.87,0,0,1-.27-.05.76.76,0,0,1,.54-1.43A.77.77,0,0,1,23.87,68.71Zm2.9,22.65a.77.77,0,0,1-.72.5.64.64,0,0,1-.27-.05.76.76,0,1,1,.54-1.42A.77.77,0,0,1,26.78,91.36Zm2.14-5.66a.77.77,0,0,1-.72.49.79.79,0,0,1-.27,0,.76.76,0,0,1,.54-1.43A.77.77,0,0,1,28.91,85.7ZM31.05,80a.77.77,0,0,1-.72.5.7.7,0,0,1-.27-.05.76.76,0,0,1-.44-1,.77.77,0,0,1,1-.44A.78.78,0,0,1,31.05,80Zm2.14-5.66a.76.76,0,0,1-.72.49.85.85,0,0,1-.27,0,.76.76,0,0,1,.54-1.43A.77.77,0,0,1,33.19,74.38Zm1.15-5.22a.76.76,0,0,1,.54-1.43.77.77,0,0,1,.44,1,.77.77,0,0,1-.72.5A.87.87,0,0,1,34.34,69.15ZM36.09,97a.77.77,0,0,1-.72.5.79.79,0,0,1-.27-.05A.76.76,0,0,1,35.64,96,.77.77,0,0,1,36.09,97Zm2.14-5.67a.77.77,0,0,1-.72.5.67.67,0,0,1-.27-.05.76.76,0,1,1,.54-1.42A.77.77,0,0,1,38.23,91.36Zm2.14-5.66a.76.76,0,0,1-.72.49.79.79,0,0,1-.27,0,.76.76,0,0,1-.44-1,.75.75,0,0,1,1-.44A.77.77,0,0,1,40.37,85.7ZM42.51,80a.77.77,0,0,1-.72.5.7.7,0,0,1-.27-.05.76.76,0,0,1-.44-1,.77.77,0,0,1,1-.44A.78.78,0,0,1,42.51,80Zm.71-6.2a.76.76,0,0,1,1-.44.77.77,0,0,1,.44,1,.76.76,0,0,1-.72.49.85.85,0,0,1-.27,0A.76.76,0,0,1,43.22,73.83Zm2.19,28.86a.77.77,0,0,1-.72.49.78.78,0,0,1-.27,0,.77.77,0,0,1-.45-1,.77.77,0,0,1,1.44.54ZM47.55,97a.77.77,0,0,1-.72.5.79.79,0,0,1-.27-.05A.76.76,0,0,1,47.1,96,.77.77,0,0,1,47.55,97Zm2.14-5.67a.77.77,0,0,1-.72.5.64.64,0,0,1-.27-.05.76.76,0,0,1,.53-1.42A.76.76,0,0,1,49.69,91.36Zm2.14-5.66a.77.77,0,0,1-.72.49.79.79,0,0,1-.27,0,.76.76,0,0,1,.54-1.43A.77.77,0,0,1,51.83,85.7ZM54,80a.77.77,0,0,1-.72.5.7.7,0,0,1-.27-.05.76.76,0,0,1-.44-1,.77.77,0,0,1,1-.44A.78.78,0,0,1,54,80Zm1.15-5.22a.76.76,0,0,1,.54-1.43.77.77,0,0,1,.44,1,.76.76,0,0,1-.72.49A.85.85,0,0,1,55.12,74.82Zm1.74,27.87a.76.76,0,0,1-.71.49.78.78,0,0,1-.27,0,.76.76,0,0,1-.44-1,.76.76,0,1,1,1.42.54ZM59,97a.78.78,0,0,1-.72.5.79.79,0,0,1-.27-.05A.76.76,0,0,1,58.56,96,.77.77,0,0,1,59,97Zm2.14-5.67a.77.77,0,0,1-.72.5.64.64,0,0,1-.27-.05.76.76,0,0,1,.53-1.42A.76.76,0,0,1,61.14,91.36Zm2.14-5.66a.77.77,0,0,1-.72.49.79.79,0,0,1-.27,0,.76.76,0,0,1,.54-1.43A.77.77,0,0,1,63.28,85.7ZM70.46,97a.78.78,0,0,1-.72.5.79.79,0,0,1-.27-.05A.76.76,0,0,1,70,96,.77.77,0,0,1,70.46,97Zm2.14-5.67a.77.77,0,0,1-.72.5.64.64,0,0,1-.27-.05.76.76,0,1,1,.54-1.42A.77.77,0,0,1,72.6,91.36Zm2.14-5.66a.77.77,0,0,1-.72.49.79.79,0,0,1-.27,0,.76.76,0,0,1,.54-1.43A.77.77,0,0,1,74.74,85.7ZM76.87,80a.77.77,0,0,1-.72.5.64.64,0,0,1-.27-.05.76.76,0,0,1-.44-1,.77.77,0,0,1,1-.44A.78.78,0,0,1,76.87,80Zm7.18,11.32a.78.78,0,0,1-.72.5.64.64,0,0,1-.27-.05.76.76,0,1,1,1-.44Zm2.14-5.66a.76.76,0,0,1-.72.49.79.79,0,0,1-.27,0,.76.76,0,0,1-.44-1,.75.75,0,0,1,1-.44A.77.77,0,0,1,86.19,85.7ZM88.33,80a.77.77,0,0,1-.72.5.7.7,0,0,1-.27-.05.76.76,0,0,1-.44-1,.77.77,0,0,1,1-.44A.78.78,0,0,1,88.33,80Z" fill="none"/><path d="M21.37,12.52a.79.79,0,0,0,.27.05.77.77,0,1,0-.72-1A.77.77,0,0,0,21.37,12.52Z" fill="#205493"/><path d="M2.66,62.06a.77.77,0,0,0-1,.45.75.75,0,0,0,.44,1,.7.7,0,0,0,.27.05.77.77,0,0,0,.27-1.48Z" fill="#205493"/><path d="M35,6.85a.65.65,0,0,0,.27.05.77.77,0,0,0,.27-1.48.77.77,0,0,0-1,.45A.76.76,0,0,0,35,6.85Z" fill="#205493"/><path d="M9.84,73.39a.76.76,0,0,0-.54,1.43.85.85,0,0,0,.27,0,.76.76,0,0,0,.72-.49A.77.77,0,0,0,9.84,73.39Z" fill="#205493"/><path d="M32.82,12.52a.79.79,0,0,0,.27.05.77.77,0,1,0-.27-.05Z" fill="#205493"/><path d="M12,67.72a.76.76,0,0,0-.54,1.43.87.87,0,0,0,.27.05.76.76,0,0,0,.71-.5A.77.77,0,0,0,12,67.72Z" fill="#205493"/><path d="M48.56,1.19a.82.82,0,0,0,.27,0,.76.76,0,0,0,.72-.49.77.77,0,0,0-.09-.68L48.22.16l-.11,0A.76.76,0,0,0,48.56,1.19Z" fill="#205493"/><path d="M19.16,79a.77.77,0,0,0-1,.44.76.76,0,0,0,.44,1,.7.7,0,0,0,.27.05.77.77,0,0,0,.72-.5A.78.78,0,0,0,19.16,79Z" fill="#205493"/><path d="M17,84.71a.76.76,0,0,0-.54,1.43.79.79,0,0,0,.27,0A.76.76,0,0,0,17,84.71Z" fill="#205493"/><path d="M23.43,67.72a.76.76,0,0,0-.54,1.43.87.87,0,0,0,.27.05.77.77,0,0,0,.72-.5A.77.77,0,0,0,23.43,67.72Z" fill="#205493"/><path d="M21.29,73.39a.76.76,0,0,0-.54,1.43.85.85,0,0,0,.27,0,.76.76,0,0,0,.72-.49A.77.77,0,0,0,21.29,73.39Z" fill="#205493"/><path d="M44.28,12.52a.79.79,0,0,0,.27.05.78.78,0,0,0,.72-.5.77.77,0,1,0-1,.44Z" fill="#205493"/><path d="M46.42,6.85a.65.65,0,0,0,.27.05.77.77,0,0,0,.72-.5.77.77,0,0,0-.45-1,.76.76,0,0,0-1,.45A.75.75,0,0,0,46.42,6.85Z" fill="#205493"/><path d="M28.47,84.71a.76.76,0,0,0-.54,1.43.79.79,0,0,0,.27,0,.76.76,0,0,0,.27-1.48Z" fill="#205493"/><path d="M32.75,73.39a.76.76,0,0,0-.54,1.43.85.85,0,0,0,.27,0,.76.76,0,0,0,.72-.49A.77.77,0,0,0,32.75,73.39Z" fill="#205493"/><path d="M26.33,90.38a.76.76,0,1,0-.54,1.42.64.64,0,0,0,.27.05.76.76,0,0,0,.27-1.48Z" fill="#205493"/><path d="M30.61,79a.77.77,0,0,0-1,.44.76.76,0,0,0,.44,1,.7.7,0,0,0,.27.05.77.77,0,0,0,.72-.5A.78.78,0,0,0,30.61,79Z" fill="#205493"/><path d="M35.33,68.71a.77.77,0,0,0-.44-1,.76.76,0,0,0-.54,1.43.87.87,0,0,0,.27.05A.77.77,0,0,0,35.33,68.71Z" fill="#205493"/><path d="M54.58,17.73a.77.77,0,0,0-1.44-.53.72.72,0,0,0,0,.16q.64.31,1.26.66A.77.77,0,0,0,54.58,17.73Z" fill="#205493"/><path d="M57.87,6.85a.65.65,0,0,0,.27.05.77.77,0,0,0,.28-1.48.77.77,0,0,0-1,.45A.75.75,0,0,0,57.87,6.85Z" fill="#205493"/><path d="M55.74,12.52a.79.79,0,0,0,.27.05.77.77,0,1,0-.72-1A.77.77,0,0,0,55.74,12.52Z" fill="#205493"/><path d="M69.33,6.85a.65.65,0,0,0,.27.05.77.77,0,0,0,.27-1.48.77.77,0,0,0-1,.45A.76.76,0,0,0,69.33,6.85Z" fill="#205493"/><path d="M67.19,12.52a.79.79,0,0,0,.27.05.77.77,0,1,0-.27-.05Z" fill="#205493"/><path d="M65.05,18.18a.8.8,0,0,0,.27,0,.77.77,0,0,0,.72-.5.77.77,0,0,0-1.44-.53A.77.77,0,0,0,65.05,18.18Z" fill="#205493"/><path d="M62.91,23.84a.65.65,0,0,0,.27.05.77.77,0,0,0,.27-1.48.76.76,0,1,0-.53,1.43Z" fill="#205493"/><path d="M42.07,79a.77.77,0,0,0-1,.44.76.76,0,0,0,.44,1,.7.7,0,0,0,.27.05.77.77,0,0,0,.72-.5A.78.78,0,0,0,42.07,79Z" fill="#205493"/><path d="M44.65,74.38a.77.77,0,0,0-.44-1,.76.76,0,0,0-.54,1.43.85.85,0,0,0,.27,0A.76.76,0,0,0,44.65,74.38Z" fill="#205493"/><path d="M39.92,84.71a.75.75,0,0,0-1,.44.76.76,0,0,0,.44,1,.79.79,0,0,0,.27,0,.76.76,0,0,0,.72-.49A.77.77,0,0,0,39.92,84.71Z" fill="#205493"/><path d="M35.64,96a.76.76,0,0,0-.53,1.43.79.79,0,0,0,.27.05A.77.77,0,0,0,35.64,96Z" fill="#205493"/><path d="M37.79,90.38a.76.76,0,1,0-.54,1.42.67.67,0,0,0,.27.05.76.76,0,0,0,.27-1.48Z" fill="#205493"/><path d="M69.64,34.19a.77.77,0,0,0,.44,1,.71.71,0,0,0,.27.05.77.77,0,0,0,.27-1.48A.77.77,0,0,0,69.64,34.19Z" fill="#205493"/><path d="M56.1,74.38a.77.77,0,0,0-.44-1,.76.76,0,0,0-.54,1.43.85.85,0,0,0,.27,0A.76.76,0,0,0,56.1,74.38Z" fill="#205493"/><path d="M72.22,29.51a.86.86,0,0,0,.28,0,.76.76,0,1,0-.72-1A.78.78,0,0,0,72.22,29.51Z" fill="#205493"/><path d="M74.37,23.84a.65.65,0,0,0,.27.05.77.77,0,1,0-.72-1A.77.77,0,0,0,74.37,23.84Z" fill="#205493"/><path d="M78.65,12.52a.79.79,0,0,0,.27.05.78.78,0,0,0,.72-.5.77.77,0,1,0-1,.44Z" fill="#205493"/><path d="M76.51,18.18a.8.8,0,0,0,.27,0A.76.76,0,0,0,77,16.75a.76.76,0,0,0-1,.44A.77.77,0,0,0,76.51,18.18Z" fill="#205493"/><path d="M49.24,90.38a.76.76,0,0,0-.53,1.42.64.64,0,0,0,.27.05.76.76,0,0,0,.27-1.48Z" fill="#205493"/><path d="M45,101.71a.76.76,0,0,0-1,.44.77.77,0,0,0,.45,1,.78.78,0,0,0,.27,0,.76.76,0,0,0,.27-1.48Z" fill="#205493"/><path d="M47.1,96a.76.76,0,0,0-.53,1.43.79.79,0,0,0,.27.05A.77.77,0,0,0,47.1,96Z" fill="#205493"/><path d="M68.49,39.41a.76.76,0,0,0-1,.41h1.39A.75.75,0,0,0,68.49,39.41Z" fill="#205493"/><path d="M51.38,84.71a.76.76,0,0,0-.54,1.43.79.79,0,0,0,.27,0,.76.76,0,0,0,.27-1.48Z" fill="#205493"/><path d="M53.52,79a.77.77,0,0,0-1,.44.76.76,0,0,0,.44,1,.7.7,0,0,0,.27.05A.77.77,0,0,0,54,80,.78.78,0,0,0,53.52,79Z" fill="#205493"/><path d="M62.84,84.71a.76.76,0,0,0-.54,1.43.79.79,0,0,0,.27,0,.76.76,0,0,0,.27-1.48Z" fill="#205493"/><path d="M85.82,23.84a.71.71,0,0,0,.27.05.77.77,0,0,0,.27-1.48.76.76,0,0,0-.54,1.43Z" fill="#205493"/><path d="M88,18.18a.8.8,0,0,0,.27,0,.76.76,0,1,0-.71-1A.76.76,0,0,0,88,18.18Z" fill="#205493"/><path d="M79.94,39.41a.76.76,0,0,0-1,.4h1.39A.75.75,0,0,0,79.94,39.41Z" fill="#205493"/><path d="M83.69,29.51a.78.78,0,0,0,.27,0,.76.76,0,1,0-.72-1A.77.77,0,0,0,83.69,29.51Z" fill="#205493"/><path d="M60.69,90.38a.76.76,0,0,0-.53,1.42.64.64,0,0,0,.27.05.76.76,0,0,0,.27-1.48Z" fill="#205493"/><path d="M56.42,101.71a.75.75,0,0,0-1,.44.76.76,0,0,0,.44,1,.78.78,0,0,0,.27,0,.76.76,0,0,0,.27-1.48Z" fill="#205493"/><path d="M81.54,35.17a.71.71,0,0,0,.27.05.77.77,0,0,0,.27-1.48.76.76,0,0,0-.54,1.43Z" fill="#205493"/><path d="M58.56,96A.76.76,0,0,0,58,97.47a.79.79,0,0,0,.27.05A.77.77,0,0,0,58.56,96Z" fill="#205493"/><path d="M64,79.49a.76.76,0,0,0,.44,1h0V79.05A.74.74,0,0,0,64,79.49Z" fill="#205493"/><path d="M72.15,90.38a.76.76,0,1,0-.54,1.42.64.64,0,0,0,.27.05.76.76,0,0,0,.27-1.48Z" fill="#205493"/><path d="M74.29,84.71a.76.76,0,0,0-.54,1.43.79.79,0,0,0,.27,0,.76.76,0,0,0,.27-1.48Z" fill="#205493"/><path d="M76.43,79a.77.77,0,0,0-1,.44.76.76,0,0,0,.44,1,.64.64,0,0,0,.27.05.77.77,0,0,0,.72-.5A.78.78,0,0,0,76.43,79Z" fill="#205493"/><path d="M70,96a.76.76,0,0,0-.53,1.43.79.79,0,0,0,.27.05.78.78,0,0,0,.72-.5A.77.77,0,0,0,70,96Z" fill="#205493"/><path d="M95.13,29.51a.86.86,0,0,0,.28,0,.76.76,0,1,0-.72-1A.78.78,0,0,0,95.13,29.51Z" fill="#205493"/><path d="M93,35.17a.71.71,0,0,0,.28.05.77.77,0,1,0-.28-.05Z" fill="#205493"/><path d="M91.4,39.41a.76.76,0,0,0-1,.4h1.39A.75.75,0,0,0,91.4,39.41Z" fill="#205493"/><path d="M87.89,79a.77.77,0,0,0-1,.44.76.76,0,0,0,.44,1,.7.7,0,0,0,.27.05.77.77,0,0,0,.72-.5A.78.78,0,0,0,87.89,79Z" fill="#205493"/><path d="M83.6,90.38a.76.76,0,1,0-.53,1.42.64.64,0,0,0,.27.05.78.78,0,0,0,.72-.5A.76.76,0,0,0,83.6,90.38Z" fill="#205493"/><path d="M85.74,84.71a.75.75,0,0,0-1,.44.76.76,0,0,0,.44,1,.79.79,0,0,0,.27,0,.76.76,0,0,0,.72-.49A.77.77,0,0,0,85.74,84.71Z" fill="#205493"/><path d="M67.13,39.83c-8.49.41-16.31,8.49-16.31,18a18,18,0,0,0,.85,5.4C59.26,59.94,67,50.89,67.13,39.83Z" fill="#205493"/><path d="M102.83,41a14.51,14.51,0,0,0-5.71-1.2H67.8l-.67,0C67,50.89,59.26,59.94,51.66,63.23c2.1,6.71,7.79,11.7,12.79,12.87v8.52l8.81-8.56H97.12c.34,0,.67,0,1,0a52.05,52.05,0,0,0,4.71-35Z" fill="#112e51"/><path d="M8.22,37.27l12.87-8.35v4.44L12.25,38.9V39l8.83,5.54V49L8.22,40.67Z" fill="#fff"/><path d="M28,54.73h-4.1l11-29h4.1Z" fill="#fff"/><path d="M55.07,40.67,42.2,49V44.58L51,39V38.9L42.2,33.36V28.92l12.87,8.35Z" fill="#fff"/><path d="M64.56,56.27l8.9-5.77v3.07L67.35,57.4v.09l6.11,3.83v3.07l-8.9-5.77Z" fill="#e21d3e"/><path d="M78.22,68.34H75.38L83,48.26H85.8Z" fill="#e21d3e"/><path d="M97,58.62l-8.9,5.77V61.32l6.11-3.83V57.4l-6.11-3.83V50.5L97,56.27Z" fill="#e21d3e"/></svg>