<svg xmlns="http://www.w3.org/2000/svg" xmlns:xlink="http://www.w3.org/1999/xlink" viewBox="0 0 104 104"><defs><linearGradient id="b" x1="76.95" x2="20.19" y1="85.79" y2="9.68" gradientUnits="userSpaceOnUse"><stop offset="0" stop-color="#d1f0ff"/><stop offset="1" stop-color="#00bfe7"/></linearGradient><linearGradient id="a" x1="17.45" x2="94.43" y1="80.53" y2="-16.37" gradientUnits="userSpaceOnUse"><stop offset="0" stop-color="#0071bb"/><stop offset="1" stop-color="#205493"/></linearGradient><linearGradient xlink:href="#a" id="c" x1="30.61" x2="107.65" y1="91.33" y2="-5.64"/></defs><ellipse cx="51.75" cy="52" fill="url(#b)" rx="51.75" ry="52"/><path fill="url(#a)" d="M67.13 39.57v.25h29.99a14.5 14.5 0 0 1 5.71 1.2 51.9 51.9 0 0 0-87.49-25.78h28.88c11.78 0 22.91 11.15 22.91 24.33"/><path fill="url(#c)" d="m73.26 76.07-8.81 8.56V76.1c-5-1.17-10.69-6.16-12.79-12.87a17.4 17.4 0 0 1-2.93 1v12.22L38 64.17H15A21.25 21.25 0 0 1 .5 58a51.9 51.9 0 0 0 97.62 18h-1z"/><path fill="#205493" d="M67.53 39.81a.77.77 0 0 0 .44 1 .9.9 0 0 0 .27.05.77.77 0 0 0 .7-1.08h-1.41zM64.7 80.53a.77.77 0 0 0 .72-.5A.78.78 0 0 0 65 79a.77.77 0 0 0-.52 0v1.43a.7.7 0 0 0 .22.1M79 39.85a.77.77 0 0 0 .44 1 .9.9 0 0 0 .27.05.77.77 0 0 0 .7-1.08H79zm11.41 0a.77.77 0 0 0 .44 1 .9.9 0 0 0 .27.05.77.77 0 0 0 .7-1.08h-1.38z"/><path fill="none" d="M94.69 28.52a.76.76 0 1 1 .72 1 .9.9 0 0 1-.28 0 .78.78 0 0 1-.44-1m-2.14 5.67a.76.76 0 1 1 .72 1 .7.7 0 0 1-.28-.05.77.77 0 0 1-.44-.95m-5-17a.76.76 0 1 1 .71 1 .8.8 0 0 1-.27 0 .76.76 0 0 1-.47-.99zm-2.15 5.66a.78.78 0 0 1 1-.44.77.77 0 0 1-.27 1.48.7.7 0 0 1-.27-.05.77.77 0 0 1-.49-.98zm-2.14 5.67a.76.76 0 1 1 .72 1 .8.8 0 0 1-.27 0 .77.77 0 0 1-.47-1zm-2.16 5.67a.77.77 0 0 1 1-.45.77.77 0 0 1-.27 1.48.7.7 0 0 1-.27-.05.77.77 0 0 1-.46-.98m-2.9-22.66a.77.77 0 0 1 1.44.54.78.78 0 0 1-.72.5.8.8 0 0 1-.27-.05.77.77 0 0 1-.45-.99m-2.14 5.67a.76.76 0 0 1 1-.44.76.76 0 0 1-.27 1.48.8.8 0 0 1-.27 0 .77.77 0 0 1-.46-1.04m-2.14 5.66a.77.77 0 1 1 .72 1 .65.65 0 0 1-.27-.05.77.77 0 0 1-.45-.95m-2.14 5.67a.76.76 0 1 1 .72 1 .9.9 0 0 1-.28 0 .78.78 0 0 1-.44-1.01zm-.71 6.2a.76.76 0 0 1-.71.5.7.7 0 0 1-.27-.05.76.76 0 1 1 1-.44zM68.88 5.87a.77.77 0 1 1 1.44.54.78.78 0 0 1-.72.5.65.65 0 0 1-.27-.05.76.76 0 0 1-.45-.99m-2.13 5.66a.76.76 0 1 1 .71 1 .8.8 0 0 1-.27-.05.76.76 0 0 1-.44-.95M64.6 17.2a.77.77 0 0 1 1.44.53.77.77 0 0 1-.72.5.8.8 0 0 1-.27 0 .77.77 0 0 1-.45-1.03m-2.14 5.66a.78.78 0 0 1 1-.44.77.77 0 0 1-.27 1.48.65.65 0 0 1-.27-.05.77.77 0 0 1-.46-.99m-5-17a.77.77 0 0 1 1-.45.77.77 0 0 1-.28 1.48.65.65 0 0 1-.27-.05.75.75 0 0 1-.48-.97zm-2.15 5.66a.77.77 0 0 1 1-.44.77.77 0 0 1-.31 1.49.8.8 0 0 1-.27-.05.77.77 0 0 1-.45-.99zM46 5.87a.76.76 0 0 1 1-.45.77.77 0 0 1 .45 1 .77.77 0 0 1-.72.5.65.65 0 0 1-.27-.05.75.75 0 0 1-.46-1m-2.15 5.66a.77.77 0 0 1 1.44.54.78.78 0 0 1-.72.5.8.8 0 0 1-.27-.05.77.77 0 0 1-.47-.99zm-9.34-5.66a.77.77 0 1 1 1.44.54.78.78 0 0 1-.72.5.7.7 0 0 1-.23-.06.76.76 0 0 1-.49-.98m-2.13 5.66a.76.76 0 1 1 .71 1 .8.8 0 0 1-.27-.05.76.76 0 0 1-.44-.95m-10.48-.44a.77.77 0 0 1-.27 1.48.8.8 0 0 1-.27-.05.76.76 0 1 1 .53-1.43zM3.1 63a.77.77 0 0 1-.72.5.7.7 0 0 1-.27-.05.75.75 0 0 1-.44-1A.76.76 0 1 1 3.1 63m7.18 11.33a.76.76 0 0 1-.72.49.9.9 0 0 1-.27 0 .76.76 0 0 1 .54-1.43.77.77 0 0 1 .45.99zm2.14-5.67a.76.76 0 0 1-.71.5.9.9 0 0 1-.27-.05.76.76 0 0 1 .56-1.39.77.77 0 0 1 .42.99zm5 17a.77.77 0 0 1-.72.49.8.8 0 0 1-.27 0 .76.76 0 0 1 .57-1.44.77.77 0 0 1 .46.99zM19.6 80a.77.77 0 0 1-.72.5.7.7 0 0 1-.27-.05.76.76 0 0 1-.44-1 .77.77 0 0 1 1-.44.78.78 0 0 1 .43.99m2.14-5.66a.76.76 0 0 1-.72.49.9.9 0 0 1-.27 0 .76.76 0 0 1 .54-1.43.77.77 0 0 1 .45.98zm2.14-5.67a.77.77 0 0 1-.72.5.9.9 0 0 1-.27-.05.76.76 0 0 1 .54-1.43.77.77 0 0 1 .44 1.02zm2.9 22.65a.77.77 0 0 1-.72.5.64.64 0 0 1-.27-.05.76.76 0 1 1 .54-1.42.77.77 0 0 1 .45 1.01zm2.14-5.66a.77.77 0 0 1-.72.49.8.8 0 0 1-.27 0 .76.76 0 0 1 .54-1.43.77.77 0 0 1 .44.98zM31.05 80a.77.77 0 0 1-.72.5.7.7 0 0 1-.27-.05.76.76 0 0 1-.44-1 .77.77 0 0 1 1-.44.78.78 0 0 1 .43.99m2.14-5.66a.76.76 0 0 1-.72.49.9.9 0 0 1-.27 0 .76.76 0 0 1 .54-1.43.77.77 0 0 1 .45.98zm1.15-5.22a.76.76 0 0 1 .54-1.43.77.77 0 0 1 .44 1 .77.77 0 0 1-.72.5 1 1 0 0 1-.26-.04zM36.09 97a.77.77 0 0 1-.72.5.8.8 0 0 1-.27-.05.76.76 0 0 1 .54-1.45.77.77 0 0 1 .45 1m2.14-5.67a.77.77 0 0 1-.72.5.7.7 0 0 1-.27-.05.76.76 0 1 1 .54-1.42.77.77 0 0 1 .45 1zm2.14-5.66a.76.76 0 0 1-.72.49.8.8 0 0 1-.27 0 .76.76 0 0 1-.44-1 .75.75 0 0 1 1-.44.77.77 0 0 1 .43.98zM42.51 80a.77.77 0 0 1-.72.5.7.7 0 0 1-.27-.05.76.76 0 0 1-.44-1 .77.77 0 0 1 1-.44.78.78 0 0 1 .43.99m.71-6.2a.76.76 0 0 1 1-.44.77.77 0 0 1 .44 1 .76.76 0 0 1-.72.49.9.9 0 0 1-.27 0 .76.76 0 0 1-.45-1.02zm2.19 28.86a.77.77 0 0 1-.72.49.8.8 0 0 1-.27 0 .77.77 0 0 1-.45-1 .77.77 0 0 1 1.44.54zM47.55 97a.77.77 0 0 1-.72.5.8.8 0 0 1-.27-.05.76.76 0 0 1 .54-1.45.77.77 0 0 1 .45 1m2.14-5.67a.77.77 0 0 1-.72.5.64.64 0 0 1-.27-.05.76.76 0 0 1 .53-1.42.76.76 0 0 1 .46 1zm2.14-5.66a.77.77 0 0 1-.72.49.8.8 0 0 1-.27 0 .76.76 0 0 1 .54-1.43.77.77 0 0 1 .45.97zM54 80a.77.77 0 0 1-.72.5.7.7 0 0 1-.27-.05.76.76 0 0 1-.44-1 .77.77 0 0 1 1-.44.78.78 0 0 1 .43.99m1.15-5.22a.76.76 0 0 1 .54-1.43.77.77 0 0 1 .44 1 .76.76 0 0 1-.72.49.9.9 0 0 1-.29-.02zm1.74 27.87a.76.76 0 0 1-.71.49.8.8 0 0 1-.27 0 .76.76 0 0 1-.44-1 .76.76 0 1 1 1.42.54zM59 97a.78.78 0 0 1-.72.5.8.8 0 0 1-.27-.05.76.76 0 0 1 .55-1.45.77.77 0 0 1 .44 1m2.14-5.67a.77.77 0 0 1-.72.5.64.64 0 0 1-.27-.05.76.76 0 0 1 .53-1.42.76.76 0 0 1 .46 1zm2.14-5.66a.77.77 0 0 1-.72.49.8.8 0 0 1-.27 0 .76.76 0 0 1 .54-1.43.77.77 0 0 1 .45.97zM70.46 97a.78.78 0 0 1-.72.5.8.8 0 0 1-.27-.05A.76.76 0 0 1 70 96a.77.77 0 0 1 .46 1m2.14-5.67a.77.77 0 0 1-.72.5.64.64 0 0 1-.27-.05.76.76 0 1 1 .54-1.42.77.77 0 0 1 .45 1zm2.14-5.66a.77.77 0 0 1-.72.49.8.8 0 0 1-.27 0 .76.76 0 0 1 .54-1.43.77.77 0 0 1 .45.97zM76.87 80a.77.77 0 0 1-.72.5.64.64 0 0 1-.27-.05.76.76 0 0 1-.44-1 .77.77 0 0 1 1-.44.78.78 0 0 1 .43.99m7.18 11.32a.78.78 0 0 1-.72.5.64.64 0 0 1-.27-.05.76.76 0 1 1 1-.44zm2.14-5.66a.76.76 0 0 1-.72.49.8.8 0 0 1-.27 0 .76.76 0 0 1-.44-1 .75.75 0 0 1 1-.44.77.77 0 0 1 .43.99zM88.33 80a.77.77 0 0 1-.72.5.7.7 0 0 1-.27-.05.76.76 0 0 1-.44-1 .77.77 0 0 1 1-.44.78.78 0 0 1 .43.99"/><path fill="#205493" d="M21.37 12.52a.8.8 0 0 0 .27.05.77.77 0 1 0-.72-1 .77.77 0 0 0 .45.95M2.66 62.06a.77.77 0 0 0-1 .45.75.75 0 0 0 .44 1 .7.7 0 0 0 .27.05.77.77 0 0 0 .27-1.48zM35 6.85a.65.65 0 0 0 .27.05.77.77 0 0 0 .27-1.48.77.77 0 0 0-1 .45.76.76 0 0 0 .46.98M9.84 73.39a.76.76 0 0 0-.54 1.43.9.9 0 0 0 .27 0 .76.76 0 0 0 .72-.49.77.77 0 0 0-.45-.94m22.98-60.87a.8.8 0 0 0 .27.05.77.77 0 1 0-.27-.05M12 67.72a.76.76 0 0 0-.54 1.43.9.9 0 0 0 .27.05.76.76 0 0 0 .71-.5.77.77 0 0 0-.44-.98M48.56 1.19a.8.8 0 0 0 .27 0 .76.76 0 0 0 .72-.49.77.77 0 0 0-.09-.68l-1.24.14h-.11a.76.76 0 0 0 .45 1.03M19.16 79a.77.77 0 0 0-1 .44.76.76 0 0 0 .44 1 .7.7 0 0 0 .27.05.77.77 0 0 0 .72-.5.78.78 0 0 0-.43-.99M17 84.71a.76.76 0 0 0-.54 1.43.8.8 0 0 0 .27 0 .76.76 0 0 0 .27-1.43m6.43-16.99a.76.76 0 0 0-.54 1.43.9.9 0 0 0 .27.05.77.77 0 0 0 .72-.5.77.77 0 0 0-.45-.98m-2.14 5.67a.76.76 0 0 0-.54 1.43.9.9 0 0 0 .27 0 .76.76 0 0 0 .72-.49.77.77 0 0 0-.45-.94m22.99-60.87a.8.8 0 0 0 .27.05.78.78 0 0 0 .72-.5.77.77 0 1 0-1 .44zm2.14-5.67a.65.65 0 0 0 .27.05.77.77 0 0 0 .72-.5.77.77 0 0 0-.45-1 .76.76 0 0 0-1 .45.75.75 0 0 0 .46 1M28.47 84.71a.76.76 0 0 0-.54 1.43.8.8 0 0 0 .27 0 .76.76 0 0 0 .27-1.48zm4.28-11.32a.76.76 0 0 0-.54 1.43.9.9 0 0 0 .27 0 .76.76 0 0 0 .72-.49.77.77 0 0 0-.45-.94m-6.42 16.99a.76.76 0 1 0-.54 1.42.64.64 0 0 0 .27.05.76.76 0 0 0 .27-1.48zM30.61 79a.77.77 0 0 0-1 .44.76.76 0 0 0 .44 1 .7.7 0 0 0 .27.05.77.77 0 0 0 .72-.5.78.78 0 0 0-.43-.99m4.72-10.29a.77.77 0 0 0-.44-1 .76.76 0 0 0-.54 1.43.9.9 0 0 0 .27.05.77.77 0 0 0 .71-.48m19.25-50.98a.77.77 0 0 0-1.44-.53.7.7 0 0 0 0 .16q.64.31 1.26.66a.8.8 0 0 0 .18-.29m3.29-10.88a.65.65 0 0 0 .27.05.77.77 0 0 0 .28-1.48.77.77 0 0 0-1 .45.75.75 0 0 0 .45.98m-2.13 5.67a.8.8 0 0 0 .27.05.77.77 0 1 0-.72-1 .77.77 0 0 0 .45.95m13.59-5.67a.65.65 0 0 0 .27.05.77.77 0 0 0 .27-1.48.77.77 0 0 0-1 .45.76.76 0 0 0 .46.98m-2.14 5.67a.8.8 0 0 0 .27.05.77.77 0 1 0-.27-.05m-2.14 5.66a.8.8 0 0 0 .27 0 .77.77 0 0 0 .72-.5.77.77 0 0 0-1.44-.53.77.77 0 0 0 .45 1.03m-2.14 5.66a.65.65 0 0 0 .27.05.77.77 0 0 0 .27-1.48.76.76 0 1 0-.53 1.43zM42.07 79a.77.77 0 0 0-1 .44.76.76 0 0 0 .44 1 .7.7 0 0 0 .27.05.77.77 0 0 0 .72-.5.78.78 0 0 0-.43-.99m2.58-4.62a.77.77 0 0 0-.44-1 .76.76 0 0 0-.54 1.43.9.9 0 0 0 .27 0 .76.76 0 0 0 .71-.43m-4.73 10.33a.75.75 0 0 0-1 .44.76.76 0 0 0 .44 1 .8.8 0 0 0 .27 0 .76.76 0 0 0 .72-.49.77.77 0 0 0-.43-.95M35.64 96a.76.76 0 0 0-.53 1.43.8.8 0 0 0 .27.05.77.77 0 0 0 .26-1.48m2.15-5.62a.76.76 0 1 0-.54 1.42.7.7 0 0 0 .27.05.76.76 0 0 0 .27-1.48zm31.85-56.19a.77.77 0 0 0 .44 1 .7.7 0 0 0 .27.05.77.77 0 0 0 .27-1.48.77.77 0 0 0-.98.43M56.1 74.38a.77.77 0 0 0-.44-1 .76.76 0 0 0-.54 1.43.9.9 0 0 0 .27 0 .76.76 0 0 0 .71-.43m16.12-44.87a.9.9 0 0 0 .28 0 .76.76 0 1 0-.72-1 .78.78 0 0 0 .44 1m2.15-5.67a.65.65 0 0 0 .27.05.77.77 0 1 0-.72-1 .77.77 0 0 0 .45.95m4.28-11.32a.8.8 0 0 0 .27.05.78.78 0 0 0 .72-.5.77.77 0 1 0-1 .44zm-2.14 5.66a.8.8 0 0 0 .27 0 .76.76 0 0 0 .22-1.43.76.76 0 0 0-1 .44.77.77 0 0 0 .51.99m-27.27 72.2a.76.76 0 0 0-.53 1.42.64.64 0 0 0 .27.05.76.76 0 0 0 .27-1.48zM45 101.71a.76.76 0 0 0-1 .44.77.77 0 0 0 .45 1 .8.8 0 0 0 .27 0 .76.76 0 0 0 .27-1.48zM47.1 96a.76.76 0 0 0-.53 1.43.8.8 0 0 0 .27.05.77.77 0 0 0 .26-1.48m21.39-56.59a.76.76 0 0 0-1 .41h1.39a.75.75 0 0 0-.39-.41m-17.11 45.3a.76.76 0 0 0-.54 1.43.8.8 0 0 0 .27 0 .76.76 0 0 0 .27-1.48zM53.52 79a.77.77 0 0 0-1 .44.76.76 0 0 0 .44 1 .7.7 0 0 0 .27.05A.77.77 0 0 0 54 80a.78.78 0 0 0-.48-1m9.32 5.71a.76.76 0 0 0-.54 1.43.8.8 0 0 0 .27 0 .76.76 0 0 0 .27-1.48zm22.98-60.87a.7.7 0 0 0 .27.05.77.77 0 0 0 .27-1.48.76.76 0 0 0-.54 1.43M88 18.18a.8.8 0 0 0 .27 0 .76.76 0 1 0-.71-1 .76.76 0 0 0 .44 1m-8.06 21.23a.76.76 0 0 0-1 .4h1.39a.75.75 0 0 0-.39-.4m3.75-9.9a.8.8 0 0 0 .27 0 .76.76 0 1 0-.72-1 .77.77 0 0 0 .45 1m-23 60.87a.76.76 0 0 0-.53 1.42.64.64 0 0 0 .27.05.76.76 0 0 0 .27-1.48zm-4.27 11.33a.75.75 0 0 0-1 .44.76.76 0 0 0 .44 1 .8.8 0 0 0 .27 0 .76.76 0 0 0 .27-1.48zm25.12-66.54a.7.7 0 0 0 .27.05.77.77 0 0 0 .27-1.48.76.76 0 0 0-.54 1.43M58.56 96a.76.76 0 0 0-.56 1.47.8.8 0 0 0 .27.05.77.77 0 0 0 .29-1.52M64 79.49a.76.76 0 0 0 .44 1v-1.44a.74.74 0 0 0-.44.44m8.15 10.89a.76.76 0 1 0-.54 1.42.64.64 0 0 0 .27.05.76.76 0 0 0 .27-1.48zm2.14-5.67a.76.76 0 0 0-.54 1.43.8.8 0 0 0 .27 0 .76.76 0 0 0 .27-1.48zM76.43 79a.77.77 0 0 0-1 .44.76.76 0 0 0 .44 1 .64.64 0 0 0 .27.05.77.77 0 0 0 .72-.5.78.78 0 0 0-.43-.99M70 96a.76.76 0 0 0-.53 1.43.8.8 0 0 0 .27.05.78.78 0 0 0 .72-.5A.77.77 0 0 0 70 96m25.13-66.49a.9.9 0 0 0 .28 0 .76.76 0 1 0-.72-1 .78.78 0 0 0 .44 1M93 35.17a.7.7 0 0 0 .28.05.77.77 0 1 0-.28-.05m-1.6 4.24a.76.76 0 0 0-1 .4h1.39a.75.75 0 0 0-.39-.4M87.89 79a.77.77 0 0 0-1 .44.76.76 0 0 0 .44 1 .7.7 0 0 0 .27.05.77.77 0 0 0 .72-.5.78.78 0 0 0-.43-.99M83.6 90.38a.76.76 0 1 0-.53 1.42.64.64 0 0 0 .27.05.78.78 0 0 0 .72-.5.76.76 0 0 0-.46-.97m2.14-5.67a.75.75 0 0 0-1 .44.76.76 0 0 0 .44 1 .8.8 0 0 0 .27 0 .76.76 0 0 0 .72-.49.77.77 0 0 0-.43-.95M67.13 39.83c-8.49.41-16.31 8.49-16.31 18a18 18 0 0 0 .85 5.4c7.59-3.29 15.33-12.34 15.46-23.4"/><path fill="#112e51" d="M102.83 41a14.5 14.5 0 0 0-5.71-1.2H67.13C67 50.89 59.26 59.94 51.66 63.23c2.1 6.71 7.79 11.7 12.79 12.87v8.52l8.81-8.56h24.86a52.05 52.05 0 0 0 4.71-35z"/><path fill="#fff" d="m8.22 37.27 12.87-8.35v4.44l-8.84 5.54v.1l8.83 5.54V49L8.22 40.67zM28 54.73h-4.1l11-29H39zm27.07-14.06L42.2 49v-4.42L51 39v-.1l-8.8-5.54v-4.44l12.87 8.35z"/><path fill="#e21d3e" d="m64.56 56.27 8.9-5.77v3.07l-6.11 3.83v.09l6.11 3.83v3.07l-8.9-5.77zm13.66 12.07h-2.84L83 48.26h2.8zM97 58.62l-8.9 5.77v-3.07l6.11-3.83v-.09l-6.11-3.83V50.5l8.9 5.77z"/></svg>