<svg width="42" height="45" xmlns="http://www.w3.org/2000/svg"><g transform="translate(0 -2)" fill="none" fill-rule="evenodd"><ellipse fill="#02BFE7" transform="rotate(-45 5.682 5.886)" cx="5.682" cy="5.886" rx="3.828" ry="3.842"/><path d="M3.432 9.119h4.495a2.665 2.665 0 011.903.776c.506.503.79 1.189.79 1.903v6.963H.764v-6.963c0-.71.281-1.392.782-1.894.5-.503 1.18-.785 1.887-.785z" fill="#02BFE7"/><ellipse fill="#0071BC" transform="rotate(-45 15.939 5.888)" cx="15.939" cy="5.888" rx="3.828" ry="3.842"/><path d="M13.691 9.119h4.495a2.66 2.66 0 011.887.785c.5.502.782 1.184.782 1.894v6.963h-9.834v-6.963c0-.71.282-1.392.782-1.894a2.664 2.664 0 011.888-.785z" fill="#0071BC"/><ellipse fill="#112E51" transform="rotate(-45 26.2 5.89)" cx="26.2" cy="5.89" rx="3.828" ry="3.842"/><path d="M23.95 9.119h4.494c.708 0 1.387.282 1.888.785.5.502.782 1.184.782 1.894v6.963h-9.83v-6.963A2.675 2.675 0 0123.95 9.12z" fill="#112E51"/><ellipse fill="#E31C3D" transform="rotate(-45 36.457 5.892)" cx="36.457" cy="5.892" rx="3.828" ry="3.842"/><path d="M34.213 9.119h4.495a2.66 2.66 0 011.887.785c.501.502.782 1.184.782 1.894v6.963h-9.834v-6.963c0-.71.282-1.392.782-1.894a2.664 2.664 0 011.888-.785z" fill="#E31C3D"/><ellipse fill="#112E51" transform="rotate(-45 5.681 19.636)" cx="5.681" cy="19.636" rx="3.828" ry="3.842"/><path d="M3.432 22.87h4.495a2.665 2.665 0 011.903.776c.506.503.79 1.189.79 1.904v6.962H.764V25.55c0-.711.281-1.393.782-1.895.5-.503 1.18-.785 1.887-.785z" fill="#112E51"/><ellipse fill="#E31C3D" transform="rotate(-45 15.943 19.638)" cx="15.943" cy="19.638" rx="3.828" ry="3.842"/><path d="M13.691 22.87h4.495c1.474 0 2.67 1.2 2.67 2.68v6.962H11.02V25.55c0-1.48 1.196-2.68 2.67-2.68z" fill="#E31C3D"/><ellipse fill="#02BFE7" transform="rotate(-45 26.2 19.64)" cx="26.199" cy="19.64" rx="3.828" ry="3.842"/><path d="M23.95 22.87h4.494c.708 0 1.387.282 1.888.785.5.502.782 1.184.782 1.895v6.962h-9.83V25.55a2.675 2.675 0 012.666-2.68z" fill="#02BFE7"/><ellipse fill="#0071BC" transform="rotate(-45 36.46 19.642)" cx="36.461" cy="19.642" rx="3.828" ry="3.842"/><path d="M34.213 22.87h4.495c1.474 0 2.67 1.2 2.67 2.68v6.962h-9.835V25.55c0-1.48 1.196-2.68 2.67-2.68z" fill="#0071BC"/><ellipse fill="#E31C3D" transform="rotate(-45 5.683 33.874)" cx="5.683" cy="33.874" rx="3.828" ry="3.842"/><path d="M3.432 37.106h4.495a2.665 2.665 0 011.902.774 2.69 2.69 0 01.792 1.9v6.963H.763V39.78a2.675 2.675 0 012.67-2.674z" fill="#E31C3D"/><ellipse fill="#02BFE7" transform="rotate(-45 15.94 33.87)" cx="15.94" cy="33.871" rx="3.828" ry="3.842"/><path d="M13.691 37.106h4.495c1.474 0 2.67 1.2 2.67 2.68v6.962H11.02V39.78a2.675 2.675 0 012.67-2.674z" fill="#02BFE7"/><ellipse fill="#0071BC" transform="rotate(-45 26.202 33.873)" cx="26.202" cy="33.873" rx="3.828" ry="3.842"/><path d="M23.95 37.106h4.494c.708 0 1.387.282 1.888.785.5.502.782 1.184.782 1.894v6.963h-9.83V39.78a2.675 2.675 0 012.666-2.674z" fill="#0071BC"/><ellipse fill="#112E51" transform="rotate(-45 36.458 33.875)" cx="36.458" cy="33.875" rx="3.828" ry="3.842"/><path d="M34.213 37.106h4.495c1.474 0 2.67 1.2 2.67 2.68v6.962h-9.835V39.78a2.675 2.675 0 012.67-2.674z" fill="#112E51"/></g></svg>