<svg width="56" height="52" xmlns="http://www.w3.org/2000/svg"><g fill="none" fill-rule="evenodd"><path d="M43.235 3.329l11.943 20.683a3.873 3.873 0 010 3.873L43.235 48.573a3.873 3.873 0 01-3.355 1.937H15.994a3.873 3.873 0 01-3.355-1.937L.701 27.89a3.873 3.873 0 010-3.873L12.644 3.33A3.873 3.873 0 0116 1.392h23.88c1.384 0 2.663.738 3.355 1.937z" fill="#E31C3D"/><path d="M49.118 39.907L29.434 51.29a2.994 2.994 0 01-2.994 0L6.757 39.907A2.994 2.994 0 015.26 37.29V14.586a2.994 2.994 0 011.497-2.617L26.44.633a2.994 2.994 0 012.994 0l19.684 11.363a2.994 2.994 0 011.497 2.616v22.704a2.994 2.994 0 01-1.497 2.59z" fill="#02BFE7"/><path d="M17.051 40.922l-7.52-13.027a3.883 3.883 0 010-3.883l7.52-13.021a3.883 3.883 0 013.36-1.952h15.052a3.883 3.883 0 013.36 1.952l7.52 13.026a3.883 3.883 0 010 3.884l-7.52 13.02a3.883 3.883 0 01-3.365 1.943H20.41a3.883 3.883 0 01-3.36-1.942z" fill="#0071BC"/><circle fill="#112E51" transform="rotate(-30 10.037 36.161)" cx="10.037" cy="36.161" r="1.842"/><circle fill="#112E51" transform="rotate(-30 45.406 15.743)" cx="45.406" cy="15.743" r="1.842"/><circle fill="#112E51" transform="rotate(-60 10.038 15.741)" cx="10.038" cy="15.741" r="1.842"/><circle fill="#112E51" transform="rotate(-60 45.404 36.157)" cx="45.404" cy="36.157" r="1.842"/><circle fill="#112E51" cx="27.723" cy="5.532" r="1.842"/><circle fill="#112E51" cx="27.723" cy="46.37" r="1.842"/><g transform="translate(15.7 13.607)"><circle fill="#FFF" cx="12.236" cy="12.037" r="11.98"/><path d="M17.658 15.916l-5.034 2.925a.764.764 0 01-.765 0l-5.055-2.925a.764.764 0 01-.382-.665V9.42a.764.764 0 01.382-.65l5.035-2.91a.764.764 0 01.764 0l5.034 2.91c.241.13.395.377.403.65v5.83a.764.764 0 01-.382.665z" fill="#112E51"/></g></g></svg>