<svg width="46" height="54" xmlns="http://www.w3.org/2000/svg"><g fill="none" fill-rule="evenodd"><ellipse stroke="#02BFE7" stroke-width="4" transform="rotate(-.06 22.936 26.462)" cx="22.936" cy="26.462" rx="18.897" ry="19.078"/><path d="M19.732 34.636L3.242 5.805a3.768 3.768 0 01-.004-3.743A3.695 3.695 0 016.451.194h32.975a3.695 3.695 0 013.213 1.868 3.768 3.768 0 01-.003 3.743l-16.49 28.83a3.695 3.695 0 01-3.208 1.871 3.695 3.695 0 01-3.206-1.87z" fill="#E31C3D"/><path d="M26.145 19.408l16.485 28.83a3.768 3.768 0 01.003 3.743 3.695 3.695 0 01-3.212 1.868H6.45a3.695 3.695 0 01-3.213-1.868 3.768 3.768 0 01.003-3.743l16.49-28.83a3.695 3.695 0 013.207-1.87c1.324 0 2.546.712 3.207 1.87z" fill="#0071BC"/><path fill="#112E51" d="M25.14 10.579h-4.403l-.882 9.018h6.162z"/><ellipse fill="#112E51" cx="22.936" cy="7.943" rx="3.707" ry="3.742"/><path fill="#112E51" d="M20.737 43.465h4.403l.877-9.018h-6.162z"/><ellipse fill="#112E51" cx="22.936" cy="46.1" rx="3.707" ry="3.742"/><path fill="#112E51" d="M6.649 24.797v4.45l8.932.885v-6.22z"/><ellipse fill="#112E51" cx="4.038" cy="27.022" rx="3.707" ry="3.742"/><path fill="#112E51" d="M39.223 29.246v-4.45l-8.927-.885v6.221z"/><ellipse fill="#112E51" cx="41.833" cy="27.022" rx="3.707" ry="3.742"/><g transform="translate(10.163 14.04)"><ellipse fill="#02BFE7" transform="rotate(-.06 12.773 12.422)" cx="12.773" cy="12.422" rx="12.243" ry="12.361"/><path fill="#FFF" d="M14.57 11.885h-3.594l-1.15 7.182h5.9z"/><ellipse fill="#FFF" cx="12.773" cy="9.736" rx="3.027" ry="3.056"/></g></g></svg>