<svg width="54" height="51" xmlns="http://www.w3.org/2000/svg"><g fill="none" fill-rule="evenodd"><path d="M26.991 21.964a16.265 16.265 0 0116.03-2.673 16.236 16.236 0 00-7.146-16.255 16.253 16.253 0 00-17.763 0 16.236 16.236 0 00-7.146 16.255 16.265 16.265 0 0116.025 2.673z" fill="#E31C3D"/><path d="M21.29 31.832a16.258 16.258 0 01-10.328-12.541A16.242 16.242 0 009.32 49a16.257 16.257 0 0017.671-1.961c-.4-.329-.786-.68-1.16-1.054a16.213 16.213 0 01-4.541-14.152z" fill="#0071BC"/><path d="M21.29 31.832a16.147 16.147 0 014.54-8.814c.375-.374.762-.725 1.161-1.054a16.265 16.265 0 00-16.03-2.673A16.258 16.258 0 0021.29 31.832z" fill="#112E51"/><path d="M48.808 23.018a16.188 16.188 0 00-5.787-3.727 16.262 16.262 0 01-10.328 12.541 16.213 16.213 0 01-5.702 15.207c6.691 5.523 16.543 4.816 22.375-1.606 5.833-6.422 5.587-16.291-.558-22.415z" fill="#02BFE7"/><path d="M26.991 21.964c.4.329.787.68 1.161 1.054a16.143 16.143 0 014.541 8.814 16.262 16.262 0 0010.328-12.546 16.265 16.265 0 00-16.03 2.678zm5.702 9.868a16.318 16.318 0 01-11.403 0 16.213 16.213 0 005.7 15.208 16.213 16.213 0 005.702-15.207z" fill="#112E51"/><path d="M26.991 21.964c-.4.329-.786.68-1.16 1.054a16.147 16.147 0 00-4.541 8.814 16.318 16.318 0 0011.403 0 16.147 16.147 0 00-4.54-8.814 16.168 16.168 0 00-1.162-1.054z" fill="#0E2642"/><ellipse cx="6.238" cy="6.375" rx="5.97" ry="5.967" transform="translate(20.41 21.675)" fill="#FFF"/></g></svg>