<svg width="54" height="50" xmlns="http://www.w3.org/2000/svg"><g fill="none" fill-rule="evenodd"><path d="M41.765.06l-9.05 14.238-1 .384-6.215-1.924-10.19-1.647L7.94 3.93C.052 12.138-1.88 24.467 3.113 34.735S18.946 50.995 30.2 49.708c11.253-1.287 20.493-9.577 23.086-20.712C55.878 17.86 51.265 6.28 41.76.06h.005z" fill="#E31C3D"/><path d="M45.845 11.03c-3.94 2.334-11.525 6.839-11.605 6.995-.08.157 1.84 7.127 1.84 7.127l-9.58-1.829.53-8.389-3.675-3.171-2.77-4.465S19.19 4.323 18.27 2.48C9.876 6.236 4.673 14.862 5.219 24.119c.545 9.257 6.725 17.199 15.501 19.922 8.776 2.723 18.304-.346 23.9-7.697 5.596-7.352 6.085-17.44 1.225-25.309v-.005z" fill="#112E51"/><path d="M27.035 22.253V4.616c-9.922.08-17.908 8.257-17.855 18.279.053 10.022 8.126 18.11 18.048 18.084 9.922-.027 17.952-8.159 17.952-18.181v-.535l-18.145-.01z" fill="#0071BC"/><path d="M34.635 29.207l.27-2.57.15-9.092-6.805-3.03 3.47-6.535c-7.286-2.278-15.123 1.195-18.397 8.153-3.274 6.958-.992 15.289 5.358 19.557 6.35 4.269 14.839 3.179 19.929-2.559l-3.975-3.924z" fill="#02BFE7"/><ellipse cx="10.185" cy="10.667" rx="10.11" ry="10.212" transform="translate(17 12.121)" fill="#FFF"/></g></svg>