<svg width="1400" height="700" viewBox="0 0 1400 700" fill="none" xmlns="http://www.w3.org/2000/svg"><g clip-path="url(#a)"><path fill="#fff" d="M0 0h1400v700H0z"/><path d="m532 352-108.945-.875c-13.179-.106-23.807-10.819-23.807-23.999V159.215c0-13.338-10.876-24.118-24.215-23.999l-95.033.85M1141 571l-109.47-.884c-13.18-.106-23.81-10.82-23.81-23.999v-169.9c0-13.34-10.876-24.119-24.215-23.999l-95.505.858" stroke="#C6D1DD" stroke-width="6"/><path d="M705.5 531c94.241 0 170.5-76.518 170.5-171s-76.259-171-170.5-171S535 265.518 535 360s76.259 171 170.5 171Z" fill="#F2F9FF"/><path fill-rule="evenodd" clip-rule="evenodd" d="M572.573 185h143.854c9.281 0 16.573 7.311 16.573 16.616V403H556V201.616c0-9.305 7.292-16.616 16.573-16.616Z" fill="#fff"/><path d="M705.5 185c96.057 0 173.5 78.259 173.5 174.5S801.224 534 705.5 534 532 455.741 532 359.5 609.776 185 705.5 185Zm1.994 14.32c-89.076 0-161.202 72.597-161.202 162.178s72.126 162.179 161.202 162.179c89.077 0 161.202-72.598 161.202-162.179S796.571 199.32 707.494 199.32Z" fill="url(#b)"/><path d="M764.62 394h80.76c3.641 0 6.62-3 6.62-6.667V271.667c0-3.667-2.979-6.667-6.62-6.667h-80.76c-3.641 0-6.62 3-6.62 6.667v115.666c0 3.667 2.979 6.667 6.62 6.667Z" fill="#A8B6C6"/><path d="M776.667 317h55.666c3.667 0 6.667-2.981 6.667-6.625v-93.75c0-3.644-3-6.625-6.667-6.625h-55.666C773 210 770 212.981 770 216.625v93.75c0 3.644 3 6.625 6.667 6.625Z" fill="#A8B6C6"/><path fill-rule="evenodd" clip-rule="evenodd" d="M830 265h-9.213v-47H830v47Zm-13.819 0h-9.213v-38.394h9.213V265Zm-13.82 0h-9.213v-38.394h9.213V265Zm-14.148 0H779v-47h9.213v47Z" fill="#EBF3FA"/><path d="M805 317c-16.667 0-30 13.333-30 30s13.667 30 30 30 30-13.333 30-30-13.667-30-30-30Z" fill="#EBF3FA"/><path fill-rule="evenodd" clip-rule="evenodd" d="M884.487 387C899.069 387 911 399.057 911 413.792v17.416C911 445.943 899.069 458 884.487 458H738v-71h146.487Z" fill="#EBF3FA"/><path d="m742.624 439 6.637-11.55 6.637 11.22 6.306-4.62-7.965-9.9 11.615-3.3-2.323-6.93-11.283 4.95.995-12.87h-7.632l.995 12.87-10.951-4.95-2.655 6.93 11.947 3.3-8.297 10.23 6.306 4.62h-.332Zm37.5 0 6.637-11.55 6.637 11.22 6.306-4.62-7.965-9.9 11.615-3.3-2.323-6.93-11.283 4.95.995-12.87h-7.632l.995 12.87-10.951-4.95-2.323 6.93 11.947 3.3-8.297 10.23 6.306 4.62h-.664Zm37.5 0 6.637-11.55 6.637 11.22 6.306-4.62-7.965-9.9 11.615-3.3-2.323-6.93-11.283 4.95.995-12.87h-7.632l.995 12.87-10.951-4.95-2.655 6.93 11.947 3.3-8.297 10.23 6.306 4.62h-.332Zm42.146 0 6.637-11.55 6.637 11.22 6.306-4.62-7.965-9.9 11.615-3.3-2.323-6.93-11.283 4.95.995-12.87h-7.632l.995 12.87-10.951-4.95-2.655 6.93 11.947 3.3-8.297 10.23 6.306 4.62h-.332Z" fill="#112E51"/><path fill-rule="evenodd" clip-rule="evenodd" d="M572.574 185h145.52c4.31 0 8.619 1.333 11.934 4 2.983 2.667 4.972 6 4.972 9.333V325H556V198.333c0-3.666 1.657-7 4.972-9.333 2.984-2.667 7.293-4 11.934-4h-.332Z" fill="#fff"/><path d="M696.344 183.332v3.99c0 10.971-8.973 19.614-19.94 19.614H608.94c-10.635 0-19.275-8.311-19.94-18.949V183h107.012l.332.332ZM644.5 321.963a5.958 5.958 0 0 1 5.982 5.984 5.959 5.959 0 0 1-5.982 5.984c-23.928 0-43.536 19.614-43.536 43.55 0 23.937 19.276 43.551 43.536 43.551s43.536-19.614 43.536-43.551c0-23.936 2.659-5.984 5.982-5.984a5.959 5.959 0 0 1 5.982 5.984C700 408.066 675.407 433 644.832 433s-55.167-24.934-55.167-55.519c0-30.585 24.592-55.518 55.167-55.518h-.332Z" fill="#A8B6C6"/><path d="M598.907 263.333v-4.666h-8.619c3.646-4 7.293-8.334 7.293-12.334S594.597 239 589.956 239s-5.635 1.333-7.956 3.667l2.984 3c1.326-1.334 2.32-2.334 3.978-2.334 1.657 0 3.315 1.334 3.315 3.667 0 3.333-4.31 7.333-10.277 13v3h16.244l.663.333Zm18.896 0V259h-4.31v-19h-3.978c-1.657 1-3.315 1.667-5.636 2v3.333h4.31V259h-4.973v4.333h14.918-.331Zm10.939.334c4.642 0 8.62-2.334 8.62-7 0-4.667-1.989-5-4.641-5.667 2.652-1.333 3.978-3 3.978-5.333 0-4-3.315-6.334-7.957-6.334-4.641 0-5.304 1-7.293 3l2.652 3.334c1.326-1.334 2.652-2 4.31-2 1.657 0 2.984 1 2.984 2.666 0 1.667-1.326 3-5.636 3v4c4.973 0 6.299 1.334 6.299 3.334s-1.658 2.666-3.647 2.666c-1.989 0-3.647-1-4.973-2.333l-2.652 3.333c1.658 2 4.31 3.334 7.956 3.334Zm35.14-.334V259h-4.309v-19h-3.978c-1.658 1-3.316 1.667-5.636 2v3.333h4.31V259h-4.973v4.333h14.918-.332Zm11.603.334c4.973 0 8.288-2.667 8.288-6.667s-1.658-5-3.978-6c1.657-1.333 2.983-3 2.983-5.333 0-4-2.983-6.334-6.962-6.334-3.978 0-7.293 2.334-7.293 6.334 0 4 1.326 4.333 2.984 5.666-2.321 1.334-3.978 3-3.978 6s3.315 6.334 7.956 6.334Zm1.326-14c-2.321-1-3.978-2-3.978-3.667 0-1.667 1.326-2.667 2.652-2.667s2.984 1.334 2.984 3c0 1.667-.663 2.334-1.326 3.334h-.332ZM675.485 260c-1.989 0-3.647-1.333-3.647-3.333s.663-2.667 1.658-3.667c2.983 1.333 4.973 2 4.973 4s-1.326 3-2.984 3Zm19.89 3.667c4.31 0 7.625-3 7.625-8s-2.984-7.334-6.962-7.334c-3.978 0-3.315 1-4.641 2.334 0-5.334 2.321-7.334 4.641-7.334 2.321 0 2.984.667 3.647 1.667l2.984-3.333C701.342 240 699.022 239 696.038 239c-4.972 0-9.282 4-9.282 12.667 0 8.666 4.31 11.666 8.951 11.666l-.332.334Zm0-4c-1.657 0-3.315-1.334-3.646-5 .994-1.667 2.32-2.334 3.646-2.334 1.658 0 2.984 1 2.984 3.334 0 2.333-1.326 3.666-2.984 3.666v.334ZM634.378 391c4.641 0 8.619-2.333 8.619-7s-1.989-5-4.641-5.667c2.652-1.333 3.978-3 3.978-5.333 0-4-3.315-6.333-7.956-6.333s-5.304 1-7.293 3l2.652 3.333c1.326-1.333 2.652-2 4.31-2 1.657 0 2.983 1 2.983 2.667 0 1.666-1.326 3-5.635 3v4c4.972 0 6.298 1.333 6.298 3.333s-1.657 2.667-3.646 2.667c-1.989 0-3.647-1-4.973-2.334l-2.652 3.334c1.657 2 4.31 3.333 7.956 3.333Zm19.559 0c4.641 0 8.619-3 8.619-8.333 0-5.334-3.315-7.334-7.293-7.334s-1.658 0-2.652.667v-4.333h8.951V367h-13.261l-.663 12 2.321 1.667c1.326-1 1.989-1.334 3.315-1.334 2.321 0 3.647 1.334 3.647 3.667 0 2.333-1.658 3.667-3.979 3.667-2.32 0-3.646-1-4.972-2.334l-2.321 3.334c1.989 2 4.31 3.333 8.288 3.333Z" fill="#112E51"/><path d="M730.014 206.644c2.662.333 5.324.999 7.986 1.332v274.382c0 12.986-10.315 23.309-22.96 23.642h-78.529c-4.991-2.331-9.649-4.995-14.308-7.992h92.172c8.651 0 15.306-6.659 15.639-15.317v-276.38.333ZM555.986 310.869v105.224a158.249 158.249 0 0 1-7.986-34.63v-35.63c1.331-11.988 3.993-23.642 7.986-34.631v-.333Zm0-39.625v.999c-2.995 4.662-5.657 9.656-7.986 14.651 2.329-5.661 4.991-10.655 7.986-15.65ZM706.056 185c7.653 0 15.639.666 22.96 1.665 1.664 1.332 3.327 3.33 4.658 5.328a115.34 115.34 0 0 0-14.973-1.998c-1.331-.333-2.662-.666-3.993-.666h-45.587c12.312-2.664 24.623-3.996 36.935-3.996V185Z" fill="#A8B6C6"/><path d="M691 366c3.667 0 7-3 7-7s-3-7-7-7c-2.667 0-5.333 1.667-6.333 4.333-.334 1-.667 1.667-.667 2.667 0 4 3 7 7 7Z" fill="#A8B6C6"/><path d="M713.375 181.333c12.977 0 23.625 10.647 23.625 23.955V360h-7.986V204.955c0-8.317-6.655-15.304-14.974-15.97H570.958c-8.652 0-15.972 6.987-15.972 15.97v154.712H547V204.955C547 191.98 557.648 181 570.625 181h142.417l.333.333Z" fill="#A8B6C6"/><path d="M624.5 530c11.908 0 21.5-9.667 21.5-22s-9.592-22-21.5-22-21.5 9.667-21.5 22 9.592 22 21.5 22Z" fill="#A6D5AF"/><path d="M735.5 209c11.908 0 21.5-9.667 21.5-22s-9.592-22-21.5-22-21.5 9.667-21.5 22 9.592 22 21.5 22Z" fill="#FCF197"/><path d="M532 366c7.732 0 14-6.268 14-14s-6.268-14-14-14-14 6.268-14 14 6.268 14 14 14Z" fill="#EBF3FA" stroke="#C6D1DD" stroke-width="5"/><mask id="c" style="mask-type:alpha" maskUnits="userSpaceOnUse" x="12" y="11" width="250" height="250"><path d="M137.099 260.808c68.871 0 124.703-55.831 124.703-124.703S205.97 11.402 137.099 11.402c-68.872 0-124.703 55.831-124.703 124.703s55.831 124.703 124.703 124.703Z" fill="#fff"/></mask><g mask="url(#c)"><path d="M137.099 260.808c68.871 0 124.703-55.831 124.703-124.703S205.97 11.402 137.099 11.402c-68.872 0-124.703 55.831-124.703 124.703s55.831 124.703 124.703 124.703Z" fill="#E6E6E6"/><path d="M261.802 11.402H12.395v249.406h249.407V11.402Z" fill="#EBF3FA"/></g><mask id="d" style="mask-type:alpha" maskUnits="userSpaceOnUse" x="0" y="0" width="273" height="257"><path d="M12.395 146.318c0 60.607 55.493 109.739 123.947 109.739 68.454 0 123.947-49.132 123.947-109.739h12.395V0H0v146.318h12.395Z" fill="#fff"/></mask><g mask="url(#d)"><path d="M262.708 136.342c0-67.954-55.831-123.04-124.703-123.04-68.871 0-124.703 55.086-124.703 123.04" stroke="#C6D1DD" stroke-width="7"/><mask id="e" style="mask-type:alpha" maskUnits="userSpaceOnUse" x="33" y="3" width="207" height="254"><path d="M161.132 153.362v19.001h4.131c41.073 0 74.369 33.307 74.369 74.394v9.299H33.052v-9.299c0-41.087 33.297-74.394 74.369-74.394h4.132v-19.001c-17.805-8.461-30.603-25.753-32.738-46.217-6.016-.851-10.644-6.023-10.644-12.276V80.403c0-6.144 4.467-11.244 10.33-12.227v-6.371c0-31.957 25.896-57.863 57.841-57.863s57.842 25.906 57.842 57.863v6.37c5.862.984 10.329 6.085 10.329 12.228V94.87c0 6.253-4.628 11.425-10.644 12.276-2.135 20.464-14.933 37.756-32.737 46.217Z" fill="#fff"/></mask><g mask="url(#e)"><path d="M161.132 153.362v19.001h4.131c41.073 0 74.369 33.307 74.369 74.394v9.299H33.052v-9.299c0-41.087 33.297-74.394 74.369-74.394h4.132v-19.001c-17.805-8.461-30.603-25.753-32.738-46.217-6.016-.851-10.644-6.023-10.644-12.276V80.403c0-6.144 4.467-11.244 10.33-12.227v-6.371c0-31.957 25.896-57.863 57.841-57.863s57.842 25.906 57.842 57.863v6.37c5.862.984 10.329 6.085 10.329 12.228V94.87c0 6.253-4.628 11.425-10.644 12.276-2.135 20.464-14.933 37.756-32.737 46.217Z" fill="#D0C6AC"/><path d="M272.684 3.942H0v252.114h272.684V3.942Z" fill="#AE5D29"/><path fill-rule="evenodd" clip-rule="evenodd" d="M194.184 85.57v23.765c0 31.956-25.897 57.862-57.842 57.862-31.946 0-57.843-25.906-57.843-57.862V85.57v15.499c0 31.956 25.897 57.862 57.843 57.862 31.945 0 57.842-25.906 57.842-57.862v-15.5Z" fill="#000" fill-opacity=".1"/></g><mask id="f" style="mask-type:alpha" maskUnits="userSpaceOnUse" x="33" y="155" width="207" height="102"><path fill-rule="evenodd" clip-rule="evenodd" d="M111.553 155.903c-18.508 2.072-32.764 7.73-33.049 22.291-26.708 11.287-45.451 37.734-45.451 68.561v9.3h206.579v-9.3c0-30.827-18.744-57.274-45.452-68.561-.285-14.561-14.54-20.219-33.048-22.291v19.558c0 13.696-11.099 24.799-24.79 24.799-13.691 0-24.789-11.103-24.789-24.799v-19.558Z" fill="#fff"/></mask><g mask="url(#f)"><path fill-rule="evenodd" clip-rule="evenodd" d="M111.553 155.903c-18.508 2.072-32.764 7.73-33.049 22.291-26.708 11.287-45.451 37.734-45.451 68.561v9.3h206.579v-9.3c0-30.827-18.744-57.274-45.452-68.561-.285-14.561-14.54-20.219-33.048-22.291v19.558c0 13.696-11.099 24.799-24.79 24.799-13.691 0-24.789-11.103-24.789-24.799v-19.558Z" fill="#B7C1DB"/><path d="M272.684 142.397H0v113.658h272.684V142.397Z" fill="#008099"/><path fill-rule="evenodd" clip-rule="evenodd" d="M105.356 206.19v49.866h-7.23v-53.574a66.662 66.662 0 0 0 7.23 3.708Zm69.204-3.708v41.691a3.615 3.615 0 1 1-7.23 0V206.19a66.662 66.662 0 0 0 7.23-3.708Z" fill="#F4F4F4"/><path fill-rule="evenodd" clip-rule="evenodd" d="M93.953 155.546c-15.546 2.942-26.298 8.802-26.298 20.235 0 20.368 34.125 36.879 68.688 36.879s68.687-16.511 68.687-36.879c0-11.433-10.752-17.293-26.297-20.235 9.383 3.462 15.452 9.281 15.452 18.963 0 21.07-28.737 38.151-57.842 38.151-29.106 0-57.842-17.081-57.842-38.151 0-9.682 6.068-15.501 15.452-18.963Z" fill="#000" fill-opacity=".18"/></g><path d="M121.883 121.734c0 5.551 6.361 9.3 14.46 9.3 8.1 0 14.461-3.749 14.461-9.3 0-1.141-.981-2.066-2.066-2.066-1.335 0-1.931.935-2.066 2.066-1.283 3.036-4.458 4.874-10.329 5.167-5.87-.293-9.045-2.131-10.329-5.167-.134-1.131-.73-2.066-2.065-2.066-1.085 0-2.066.925-2.066 2.066Z" fill="#000" fill-opacity=".6"/><path fill-rule="evenodd" clip-rule="evenodd" d="M123.948 101.07c0 4.565 5.549 8.266 12.394 8.266 6.846 0 12.395-3.701 12.395-8.266" fill="#000" fill-opacity=".16"/><path d="M109.488 88.67a6.198 6.198 0 0 0 6.197-6.2 6.198 6.198 0 1 0-12.394 0c0 3.424 2.774 6.2 6.197 6.2Zm53.71 0a6.199 6.199 0 0 0 6.198-6.2 6.199 6.199 0 1 0-12.395 0c0 3.424 2.775 6.2 6.197 6.2ZM94.645 69.202c4.044-5.692 15.129-8.883 24.679-6.538a2.066 2.066 0 0 0 .985-4.014c-11.09-2.724-23.927.972-29.032 8.158a2.067 2.067 0 0 0 3.368 2.394Zm83.396 0c-4.044-5.692-15.13-8.883-24.679-6.538a2.066 2.066 0 1 1-.985-4.013c11.089-2.725 23.927.971 29.031 8.157a2.067 2.067 0 0 1-3.367 2.394Z" fill="#000" fill-opacity=".6"/><mask id="g" style="mask-type:alpha" maskUnits="userSpaceOnUse" x="77" y="2" width="119" height="68"><path fill-rule="evenodd" clip-rule="evenodd" d="M77.467 68.004c.358 1.538 1.728 1.264 2.066 0-.478-1.606 3.404-29.708 13.427-37.197 3.738-2.6 23.765-4.926 43.705-4.912 19.724.014 39.362 2.34 43.059 4.912 10.023 7.49 13.905 35.592 13.427 37.197.338 1.264 1.708 1.538 2.066 0 .743-10.64 0-65.844-58.875-65.095-58.875.75-59.618 54.455-58.875 65.095Z" fill="#fff"/></mask><g mask="url(#g)"><path fill-rule="evenodd" clip-rule="evenodd" d="M77.467 68.004c.358 1.538 1.728 1.264 2.066 0-.478-1.606 3.404-29.708 13.427-37.197 3.738-2.6 23.765-4.926 43.705-4.912 19.724.014 39.362 2.34 43.059 4.912 10.023 7.49 13.905 35.592 13.427 37.197.338 1.264 1.708 1.538 2.066 0 .743-10.64 0-65.844-58.875-65.095-58.875.75-59.618 54.455-58.875 65.095Z" fill="#28354B"/><path d="M349.118 1.875H76.434v289.312h272.684V1.875Z" fill="#2C1B18"/></g><g filter="url(#h)"><path fill-rule="evenodd" clip-rule="evenodd" d="M146.118 71.511c4.044-8.199 12.485-13.84 22.244-13.84 9.213 0 17.252 5.029 21.525 12.49a2.64 2.64 0 0 1 .682-.09h8.263a2.583 2.583 0 0 1 0 5.166h-6.752a24.784 24.784 0 0 1 1.071 7.233c0 13.696-11.099 24.798-24.789 24.798-13.691 0-24.79-11.102-24.79-24.798 0-1.47.128-2.909.373-4.308-.088-4.52-3.561-8.091-7.745-8.091-3.86 0-7.114 3.037-7.665 7.057.378 1.72.577 3.508.577 5.342 0 13.696-11.099 24.798-24.79 24.798-13.69 0-24.79-11.102-24.79-24.798 0-2.516.375-4.945 1.072-7.233h-6.752a2.583 2.583 0 0 1 0-5.166h8.263c.236 0 .465.032.682.09 4.273-7.461 12.312-12.49 21.525-12.49 9.66 0 18.029 5.528 22.12 13.593 2.146-3.219 5.716-5.326 9.758-5.326 4.144 0 7.793 2.215 9.918 5.573Zm-41.796 31.624c11.409 0 20.658-9.252 20.658-20.665 0-11.413-9.249-20.665-20.658-20.665S83.664 71.057 83.664 82.47c0 11.413 9.25 20.665 20.658 20.665Zm64.04 0c11.409 0 20.658-9.252 20.658-20.665 0-11.413-9.249-20.665-20.658-20.665s-20.658 9.252-20.658 20.665c0 11.413 9.249 20.665 20.658 20.665Z" fill="#000"/></g><path fill-rule="evenodd" clip-rule="evenodd" d="M146.118 71.511c4.044-8.199 12.485-13.84 22.244-13.84 9.213 0 17.252 5.029 21.525 12.49a2.64 2.64 0 0 1 .682-.09h8.263a2.583 2.583 0 0 1 0 5.166h-6.752a24.784 24.784 0 0 1 1.071 7.233c0 13.696-11.099 24.798-24.789 24.798-13.691 0-24.79-11.102-24.79-24.798 0-1.47.128-2.909.373-4.308-.088-4.52-3.561-8.091-7.745-8.091-3.86 0-7.114 3.037-7.665 7.057.378 1.72.577 3.508.577 5.342 0 13.696-11.099 24.798-24.79 24.798-13.69 0-24.79-11.102-24.79-24.798 0-2.516.375-4.945 1.072-7.233h-6.752a2.583 2.583 0 0 1 0-5.166h8.263c.236 0 .465.032.682.09 4.273-7.461 12.312-12.49 21.525-12.49 9.66 0 18.029 5.528 22.12 13.593 2.146-3.219 5.716-5.326 9.758-5.326 4.144 0 7.793 2.215 9.918 5.573Zm-41.796 31.624c11.409 0 20.658-9.252 20.658-20.665 0-11.413-9.249-20.665-20.658-20.665S83.664 71.057 83.664 82.47c0 11.413 9.25 20.665 20.658 20.665Zm64.04 0c11.409 0 20.658-9.252 20.658-20.665 0-11.413-9.249-20.665-20.658-20.665s-20.658 9.252-20.658 20.665c0 11.413 9.249 20.665 20.658 20.665Z" fill="#252C2F"/></g><path d="M13.302 136.342c0 67.953 55.831 123.04 124.703 123.04s124.703-55.087 124.703-123.04" stroke="#C6D1DD" stroke-width="7"/><path d="M266.033 150.064c7.714 0 13.967-6.253 13.967-13.967s-6.253-13.967-13.967-13.967c-7.713 0-13.967 6.253-13.967 13.967s6.254 13.967 13.967 13.967ZM875 366c7.732 0 14-6.268 14-14s-6.268-14-14-14-14 6.268-14 14 6.268 14 14 14Z" fill="#EBF3FA" stroke="#C6D1DD" stroke-width="5"/><path d="M1395.68 570.69c0 69.169-56.2 125.369-125.37 125.369s-125.37-56.2-125.37-125.369c0-69.168 56.2-125.368 125.37-125.368s125.37 56.2 125.37 125.368Z" fill="#EBF3FA"/><path fill-rule="evenodd" clip-rule="evenodd" d="M1140.62 570.691c0-71.496 58.19-129.691 129.69-129.691S1400 499.195 1400 570.691h-8.65c0-66.841-54.2-121.045-121.04-121.045s-121.05 54.204-121.05 121.045h-8.64Z" fill="#C6D1DD"/><path d="M1162.23 536.771h213.49v97.435c0 11.971-9.64 21.947-21.94 21.947h-169.93c-11.97 0-21.95-9.643-21.95-21.947v-97.435h.33Z" fill="#fff"/><path d="M1166.56 492.212c0-9.644 7.98-17.625 17.62-17.625h172.59c9.64 0 17.62 7.981 17.62 17.625v25.273h-207.5v-25.273h-.33Z" fill="#EBF3FA"/><path fill-rule="evenodd" clip-rule="evenodd" d="M1183.85 466.606c-14.63 0-26.27 11.639-26.27 26.271v125.701c2.33 5.986 5.32 11.306 8.64 16.96V493.21c0-9.644 7.98-17.625 17.63-17.625h172.92c9.64 0 17.62 7.981 17.62 17.625v142.328c3.33-5.321 6.32-10.974 8.65-16.96V492.877c0-14.632-11.64-26.271-26.27-26.271h-172.92Zm169.59 193.872c3.33-2.993 6.66-6.318 9.65-9.976-2 .665-3.99.998-5.99.998h-172.92c-1.99 0-3.99-.333-5.98-.998 2.99 3.325 6.31 6.651 9.64 9.976h165.94-.34Z" fill="#112E51"/><path d="M1234.73 604.943c0 2.328 1.99 4.323 4.32 4.323h62.85c2.33 0 4.32-1.995 4.32-4.323v-3.326c0-2.327-1.99-4.323-4.32-4.323h-62.85c-2.33 0-4.32 1.996-4.32 4.323v3.326Zm5.65 17.957c0 2.328 2 4.323 4.32 4.323h50.88c2.33 0 4.32-1.995 4.32-4.323v-3.325c0-2.328-1.99-4.323-4.32-4.323h-50.88c-2.32 0-4.32 1.995-4.32 4.323v3.325Z" fill="#C6D1DD"/><path fill-rule="evenodd" clip-rule="evenodd" d="M1270.31 700.382c-71.5 0-129.69-58.195-129.69-129.691h8.64c0 66.841 54.21 121.045 121.05 121.045s121.04-54.204 121.04-121.045h8.65c0 71.496-58.19 129.691-129.69 129.691Z" fill="#C6D1DD"/><path d="M1140.62 584.933c7.71 0 13.96-6.253 13.96-13.966 0-7.714-6.25-13.967-13.96-13.967-7.72 0-13.97 6.253-13.97 13.967 0 7.713 6.25 13.966 13.97 13.966Z" fill="#EBF3FA" stroke="#C6D1DD" stroke-width="5"/><path d="M1291.26 502.187h-22.61v79.145c21.28-9.311 28.93-21.615 30.59-25.606.33-.665.67-1.662.67-2.328v-42.897c0-4.656-4-8.647-8.65-8.647v.333Z" fill="#B51E23"/><path d="M1246.37 502.187c-4.66 0-8.65 3.991-8.65 8.646v42.898c0 .665 0 1.663.67 2.328 1.99 3.658 9.31 15.962 30.59 25.605V502.52h-22.61v-.333Z" fill="#E21D3E"/><path d="M1274.3 536.439c2-1.663 3.33-3.99 3.33-6.983a8.942 8.942 0 0 0-8.98-8.979 8.942 8.942 0 0 0-8.98 8.979c0 4.988 1.33 5.32 3.32 6.983-.99 5.653-1.99 10.974-2.99 16.627 2.66.333 5.65.665 8.32.665 2.66 0 5.65 0 8.31-.665-1-5.653-2-11.306-2.99-16.627h.66Z" fill="#fff"/></g><defs><linearGradient id="b" x1="766.325" y1="185.666" x2="357.433" y2="1356.73" gradientUnits="userSpaceOnUse"><stop stop-color="#EBF3FA"/><stop offset="1" stop-color="#A8B6C6"/></linearGradient><clipPath id="a"><path fill="#fff" d="M0 0h1400v700H0z"/></clipPath><filter id="h" x="58.745" y="51.409" width="155.195" height="74.646" filterUnits="userSpaceOnUse" color-interpolation-filters="sRGB"><feFlood flood-opacity="0" result="BackgroundImageFix"/><feColorMatrix in="SourceAlpha" values="0 0 0 0 0 0 0 0 0 0 0 0 0 0 0 0 0 0 127 0" result="hardAlpha"/><feOffset dy="6.263"/><feGaussianBlur stdDeviation="6.263"/><feColorMatrix values="0 0 0 0 0 0 0 0 0 0 0 0 0 0 0 0 0 0 0.1 0"/><feBlend in2="BackgroundImageFix" result="effect1_dropShadow_101_1685"/><feBlend in="SourceGraphic" in2="effect1_dropShadow_101_1685" result="shape"/></filter></defs></svg>