<svg width="1400" height="700" viewBox="0 0 1400 700" fill="none" xmlns="http://www.w3.org/2000/svg">
<rect width="1400" height="700" fill="white"/>
<path d="M542.74 353.065L441.308 352.256C428.129 352.15 417.5 341.436 417.5 328.256V173.714C417.5 160.376 406.624 149.597 393.287 149.715L305 150.5" stroke="#C6D1DD" stroke-width="6"/>
<path d="M1115.74 556.565L1014.31 555.756C1001.13 555.65 990.5 544.936 990.5 531.756V377.214C990.5 363.876 979.624 353.097 966.287 353.215L878 354" stroke="#C6D1DD" stroke-width="6"/>
<path d="M706.192 521.528C794.807 521.528 866.513 449.509 866.513 360.581C866.513 271.653 794.807 199.634 706.192 199.634C617.577 199.634 545.871 271.653 545.871 360.581C545.871 449.509 617.577 521.528 706.192 521.528Z" fill="#F2F9FF"/>
<path fill-rule="evenodd" clip-rule="evenodd" d="M580.628 196.502H716.525C725.293 196.502 732.182 203.391 732.182 212.159V401.913H564.972V212.159C564.972 203.391 571.861 196.502 580.628 196.502Z" fill="white"/>
<path d="M706.192 196.502C796.685 196.502 869.644 270.087 869.644 360.581C869.644 451.074 796.372 524.659 706.192 524.659C616.011 524.659 542.74 451.074 542.74 360.581C542.74 270.087 616.011 196.502 706.192 196.502ZM708.071 209.967C624.153 209.967 556.204 278.228 556.204 362.459C556.204 446.691 624.153 514.952 708.071 514.952C791.988 514.952 859.937 446.691 859.937 362.459C859.937 278.228 791.988 209.967 708.071 209.967Z" fill="url(#paint0_linear_98_889)"/>
<path d="M761.302 393.146H837.704C841.149 393.146 843.967 390.328 843.967 386.884V278.229C843.967 274.784 841.149 271.966 837.704 271.966H761.302C757.857 271.966 755.039 274.784 755.039 278.229V386.884C755.039 390.328 757.857 393.146 761.302 393.146Z" fill="#A8B6C6"/>
<path d="M773.201 320.5H825.493C828.938 320.5 831.756 317.682 831.756 314.237V225.622C831.756 222.178 828.938 219.36 825.493 219.36H773.201C769.757 219.36 766.938 222.178 766.938 225.622V314.237C766.938 317.682 769.757 320.5 773.201 320.5Z" fill="#A8B6C6"/>
<path fill-rule="evenodd" clip-rule="evenodd" d="M823.615 271.965H814.847V227.501H823.615V271.965ZM810.463 271.965H801.696V235.643H810.463V271.965ZM797.312 271.965H788.545V235.643H797.312V271.965ZM783.848 271.965H775.08V227.501H783.848V271.965Z" fill="#EBF3FA"/>
<path d="M799.504 320.501C783.847 320.501 771.322 333.026 771.322 348.682C771.322 364.339 784.16 376.864 799.504 376.864C814.847 376.864 827.685 364.339 827.685 348.682C827.685 333.026 814.847 320.501 799.504 320.501Z" fill="#EBF3FA"/>
<path fill-rule="evenodd" clip-rule="evenodd" d="M874.653 386.571C888.431 386.571 899.703 397.843 899.703 411.621V427.904C899.703 441.681 888.431 452.954 874.653 452.954H736.251V386.571H874.653Z" fill="#EBF3FA"/>
<path d="M740.949 435.417L747.211 424.458L753.474 435.104L759.423 430.72L751.908 421.326L762.868 418.195L760.676 411.62L750.03 416.316L750.969 404.104H743.767L744.706 416.316L734.373 411.62L731.868 418.195L743.141 421.326L735.313 431.033L741.262 435.417H740.949ZM776.332 435.417L782.595 424.458L788.857 435.104L794.807 430.72L787.292 421.326L798.251 418.195L796.059 411.62L785.413 416.316L786.352 404.104H779.15L780.09 416.316L769.756 411.62L767.565 418.195L778.837 421.326L771.009 431.033L776.958 435.417H776.332ZM811.715 435.417L817.978 424.458L824.24 435.104L830.19 430.72L822.675 421.326L833.634 418.195L831.442 411.62L820.796 416.316L821.736 404.104H814.534L815.473 416.316L805.14 411.62L802.635 418.195L813.907 421.326L806.079 431.033L812.029 435.417H811.715ZM851.483 435.417L857.745 424.458L864.008 435.104L869.957 430.72L862.442 421.326L873.401 418.195L871.209 411.62L860.563 416.316L861.503 404.104H854.301L855.24 416.316L844.907 411.62L842.402 418.195L853.674 421.326L845.846 431.033L851.796 435.417H851.483Z" fill="#112E51"/>
<path fill-rule="evenodd" clip-rule="evenodd" d="M580.628 196.502H718.091C722.162 196.502 726.232 197.755 729.364 200.26C732.182 202.765 734.06 205.896 734.06 209.028V328.016H564.972V209.028C564.972 205.583 566.538 202.452 569.669 200.26C572.487 197.755 576.558 196.502 580.942 196.502H580.628Z" fill="white"/>
<path d="M697.424 194.623V198.381C697.424 208.714 688.97 216.855 678.637 216.855H615.072C605.052 216.855 596.911 209.027 596.285 199.007V194.31H697.111L697.424 194.623ZM648.577 325.197C651.708 325.197 654.213 327.702 654.213 330.833C654.213 333.964 651.708 336.469 648.577 336.469C626.032 336.469 607.557 354.944 607.557 377.489C607.557 400.034 625.719 418.509 648.577 418.509C671.435 418.509 689.596 400.034 689.596 377.489C689.596 354.944 692.101 371.853 695.233 371.853C698.364 371.853 700.869 374.358 700.869 377.489C700.869 406.297 677.698 429.781 648.89 429.781C620.082 429.781 596.911 406.297 596.911 377.489C596.911 348.681 620.082 325.197 648.89 325.197H648.577Z" fill="#A8B6C6"/>
<path d="M605.365 270.088V265.704H600.981C600.042 265.704 598.476 265.704 597.224 265.704C600.668 261.946 604.112 257.876 604.112 254.118C604.112 250.361 601.294 247.229 596.911 247.229C592.527 247.229 591.587 248.482 589.396 250.674L592.214 253.492C593.466 252.24 594.406 251.3 595.971 251.3C597.537 251.3 599.102 252.553 599.102 254.745C599.102 257.876 595.032 261.633 589.396 266.956V269.775H604.739L605.365 270.088ZM623.213 270.088V266.017H619.143V248.169H615.385C613.819 249.108 612.254 249.735 610.062 250.048V253.179H614.133V266.017H609.436V270.088H623.526H623.213ZM633.546 270.401C637.93 270.401 641.688 268.209 641.688 263.825C641.688 259.441 639.809 259.128 637.304 258.502C639.809 257.25 641.061 255.684 641.061 253.492C641.061 249.735 637.93 247.543 633.546 247.543C629.163 247.543 628.536 248.482 626.658 250.361L629.163 253.492C630.415 252.24 631.668 251.613 633.233 251.613C634.799 251.613 636.051 252.553 636.051 254.118C636.051 255.684 634.799 256.936 630.728 256.936V260.694C635.425 260.694 636.678 261.946 636.678 263.825C636.678 265.704 635.112 266.33 633.233 266.33C631.354 266.33 629.789 265.391 628.536 264.138L626.031 267.27C627.597 269.148 630.102 270.401 633.546 270.401ZM666.738 270.088V266.017H662.667V248.169H658.91C657.344 249.108 655.778 249.735 653.586 250.048V253.179H657.657V266.017H652.96V270.088H667.051H666.738ZM677.697 270.401C682.394 270.401 685.525 267.896 685.525 264.138C685.525 260.381 683.96 259.441 681.768 258.502C683.333 257.25 684.586 255.684 684.586 253.492C684.586 249.735 681.768 247.543 678.01 247.543C674.253 247.543 671.122 249.735 671.122 253.492C671.122 257.25 672.374 257.563 673.94 258.815C671.748 260.068 670.182 261.633 670.182 264.451C670.182 267.27 673.313 270.401 677.697 270.401ZM678.95 257.25C676.758 256.31 675.192 255.371 675.192 253.805C675.192 252.24 676.445 251.3 677.697 251.3C678.95 251.3 680.515 252.553 680.515 254.118C680.515 255.684 679.889 256.31 679.263 257.25H678.95ZM677.697 266.956C675.818 266.956 674.253 265.704 674.253 263.825C674.253 261.946 674.879 261.32 675.818 260.381C678.637 261.633 680.515 262.26 680.515 264.138C680.515 266.017 679.263 266.956 677.697 266.956ZM696.485 270.401C700.555 270.401 703.687 267.583 703.687 262.886C703.687 258.189 700.869 255.997 697.111 255.997C693.354 255.997 693.98 256.936 692.727 258.189C692.727 253.179 694.919 251.3 697.111 251.3C699.303 251.3 699.929 251.926 700.555 252.866L703.374 249.735C702.121 248.169 699.929 247.229 697.111 247.229C692.414 247.229 688.343 250.987 688.343 259.128C688.343 267.27 692.414 270.088 696.798 270.088L696.485 270.401ZM696.485 266.643C694.919 266.643 693.354 265.391 693.04 261.946C693.98 260.381 695.232 259.755 696.485 259.755C698.05 259.755 699.303 260.694 699.303 262.886C699.303 265.078 698.05 266.33 696.485 266.33V266.643ZM638.87 390.015C643.253 390.015 647.011 387.823 647.011 383.44C647.011 379.056 645.132 378.743 642.627 378.116C645.132 376.864 646.385 375.298 646.385 373.106C646.385 369.349 643.253 367.157 638.87 367.157C634.486 367.157 633.859 368.096 631.981 369.975L634.486 373.106C635.738 371.854 636.991 371.228 638.556 371.228C640.122 371.228 641.375 372.167 641.375 373.733C641.375 375.298 640.122 376.551 636.051 376.551V380.308C640.748 380.308 642.001 381.561 642.001 383.44C642.001 385.318 640.435 385.945 638.556 385.945C636.678 385.945 635.112 385.005 633.86 383.753L631.354 386.884C632.92 388.763 635.425 390.015 638.87 390.015ZM657.344 390.015C661.728 390.015 665.485 387.197 665.485 382.187C665.485 377.177 662.354 375.298 658.596 375.298C654.839 375.298 657.031 375.298 656.091 375.924V371.854H664.546V367.47H652.021L651.395 378.743L653.586 380.308C654.839 379.369 655.465 379.056 656.718 379.056C658.91 379.056 660.162 380.308 660.162 382.5C660.162 384.692 658.596 385.945 656.405 385.945C654.213 385.945 652.96 385.005 651.708 383.753L649.516 386.884C651.395 388.763 653.586 390.015 657.344 390.015Z" fill="#112E51"/>
<path d="M728.738 216.856C731.243 217.169 733.748 217.795 736.253 218.108V476.124C736.253 488.336 726.546 498.043 714.647 498.356H714.021H640.749C636.052 496.164 631.669 493.659 627.285 490.841H714.021C722.162 490.841 728.425 484.579 728.738 476.438V475.811V216.543V216.856ZM564.973 314.864V413.812C561.215 403.166 558.71 392.206 557.458 381.247V347.743C558.71 336.47 561.215 325.511 564.973 315.177V314.864ZM564.973 277.602V278.542C562.154 282.925 559.649 287.622 557.458 292.319C559.649 286.996 562.154 282.299 564.973 277.602ZM706.193 196.502C713.395 196.502 720.91 197.129 727.798 198.068C729.364 199.321 730.93 201.199 732.182 203.078C727.485 202.139 722.788 201.512 718.091 201.199C716.839 200.886 715.586 200.573 714.334 200.573H713.708H671.436C683.021 198.068 694.607 196.816 706.193 196.816V196.502Z" fill="#A8B6C6"/>
<path d="M692.415 366.217C695.859 366.217 698.991 363.399 698.991 359.641C698.991 355.884 696.173 353.065 692.415 353.065C689.91 353.065 687.405 354.631 686.466 357.136C686.152 358.075 685.839 358.702 685.839 359.641C685.839 363.399 688.658 366.217 692.415 366.217Z" fill="#A8B6C6"/>
<path d="M713.707 192.745C725.919 192.745 735.939 202.765 735.939 215.29V360.894H728.424V214.977C728.424 207.149 722.162 200.573 714.334 199.947H713.707H579.689C571.548 199.947 564.659 206.523 564.659 214.977V360.581H557.144V214.977C557.144 202.765 567.164 192.432 579.376 192.432H713.394L713.707 192.745Z" fill="#A8B6C6"/>
<path d="M630.102 520.901C641.374 520.901 650.455 511.82 650.455 500.235C650.455 488.649 641.374 479.568 630.102 479.568C618.829 479.568 609.749 488.649 609.749 500.235C609.749 511.82 618.829 520.901 630.102 520.901Z" fill="#A6D5AF"/>
<path d="M734.374 218.734C745.646 218.734 754.727 209.653 754.727 198.068C754.727 186.482 745.646 177.401 734.374 177.401C723.101 177.401 714.021 186.482 714.021 198.068C714.021 209.653 723.101 218.734 734.374 218.734Z" fill="#FCF197"/>
<path d="M542.739 366.216C550.002 366.216 555.89 360.328 555.89 353.065C555.89 345.802 550.002 339.914 542.739 339.914C535.476 339.914 529.588 345.802 529.588 353.065C529.588 360.328 535.476 366.216 542.739 366.216Z" fill="#EBF3FA" stroke="#C6D1DD" stroke-width="5"/>
<mask id="mask0_98_889" style="mask-type:alpha" maskUnits="userSpaceOnUse" x="53" y="32" width="236" height="236">
<path d="M170.832 267.581C235.682 267.581 288.254 215.009 288.254 150.159C288.254 85.3081 235.682 32.7363 170.832 32.7363C105.981 32.7363 53.4092 85.3081 53.4092 150.159C53.4092 215.009 105.981 267.581 170.832 267.581Z" fill="white"/>
</mask>
<g mask="url(#mask0_98_889)">
<path d="M170.832 267.581C235.682 267.581 288.254 215.009 288.254 150.159C288.254 85.3081 235.682 32.7363 170.832 32.7363C105.981 32.7363 53.4092 85.3081 53.4092 150.159C53.4092 215.009 105.981 267.581 170.832 267.581Z" fill="#E6E6E6"/>
<path d="M288.254 32.7363H53.4092V267.581H288.254V32.7363Z" fill="#EBF3FA"/>
</g>
<mask id="mask1_98_889" style="mask-type:alpha" maskUnits="userSpaceOnUse" x="41" y="22" width="258" height="242">
<path d="M53.4084 159.776C53.4084 216.844 105.662 263.107 170.119 263.107C234.577 263.107 286.83 216.844 286.83 159.776H298.501V22H41.7373V159.776H53.4084Z" fill="white"/>
</mask>
<g mask="url(#mask1_98_889)">
<path d="M289.108 150.382C289.108 86.3959 236.536 34.525 171.685 34.525C106.835 34.525 54.2627 86.3959 54.2627 150.382" stroke="#C6D1DD" stroke-width="7"/>
<mask id="mask2_98_889" style="mask-type:alpha" maskUnits="userSpaceOnUse" x="72" y="25" width="196" height="239">
<path d="M193.461 166.409V184.3H197.352C236.026 184.3 267.378 215.663 267.378 254.351V263.107H72.8604V254.351C72.8604 215.663 104.212 184.3 142.887 184.3H146.777V166.409C130.012 158.442 117.962 142.159 115.951 122.89C110.286 122.089 105.928 117.218 105.928 111.33V97.7091C105.928 91.9241 110.134 87.1218 115.654 86.1954V80.1964C115.654 50.1057 140.039 25.7124 170.119 25.7124C200.2 25.7124 224.584 50.1057 224.584 80.1964V86.1954C230.104 87.1218 234.31 91.9241 234.31 97.7091V111.33C234.31 117.218 229.953 122.089 224.288 122.89C222.277 142.159 210.226 158.442 193.461 166.409Z" fill="white"/>
</mask>
<g mask="url(#mask2_98_889)">
<path d="M193.461 166.409V184.3H197.352C236.026 184.3 267.378 215.663 267.378 254.351V263.107H72.8604V254.351C72.8604 215.663 104.212 184.3 142.887 184.3H146.777V166.409C130.012 158.442 117.962 142.159 115.951 122.89C110.286 122.089 105.928 117.218 105.928 111.33V97.7091C105.928 91.9241 110.134 87.1218 115.654 86.1954V80.1964C115.654 50.1057 140.039 25.7124 170.119 25.7124C200.2 25.7124 224.584 50.1057 224.584 80.1964V86.1954C230.104 87.1218 234.31 91.9241 234.31 97.7091V111.33C234.31 117.218 229.953 122.089 224.288 122.89C222.277 142.159 210.226 158.442 193.461 166.409Z" fill="#D0C6AC"/>
<path d="M298.501 25.7124H41.7373V263.107H298.501V25.7124Z" fill="#AE5D29"/>
<path fill-rule="evenodd" clip-rule="evenodd" d="M224.584 102.574V124.951C224.584 155.042 200.199 179.435 170.119 179.435C140.039 179.435 115.654 155.042 115.654 124.951V102.574V117.168C115.654 147.258 140.039 171.652 170.119 171.652C200.199 171.652 224.584 147.258 224.584 117.168V102.574Z" fill="black" fill-opacity="0.1"/>
</g>
<mask id="mask3_98_889" style="mask-type:alpha" maskUnits="userSpaceOnUse" x="72" y="168" width="196" height="96">
<path fill-rule="evenodd" clip-rule="evenodd" d="M146.777 168.801C129.35 170.752 115.926 176.079 115.658 189.791C90.5094 200.418 72.8604 225.322 72.8604 254.349V263.106H267.378V254.349C267.378 225.322 249.729 200.418 224.58 189.791C224.312 176.079 210.889 170.752 193.461 168.801V187.217C193.461 200.113 183.011 210.568 170.119 210.568C157.228 210.568 146.777 200.113 146.777 187.217V168.801Z" fill="white"/>
</mask>
<g mask="url(#mask3_98_889)">
<path fill-rule="evenodd" clip-rule="evenodd" d="M146.777 168.801C129.35 170.752 115.926 176.079 115.658 189.791C90.5094 200.418 72.8604 225.322 72.8604 254.349V263.106H267.378V254.349C267.378 225.322 249.729 200.418 224.58 189.791C224.312 176.079 210.889 170.752 193.461 168.801V187.217C193.461 200.113 183.011 210.568 170.119 210.568C157.228 210.568 146.777 200.113 146.777 187.217V168.801Z" fill="#B7C1DB"/>
<path d="M298.501 156.083H41.7373V263.106H298.501V156.083Z" fill="#008099"/>
<path fill-rule="evenodd" clip-rule="evenodd" d="M140.942 216.152V263.106H134.134V212.66C136.278 213.934 138.556 215.103 140.942 216.152ZM206.106 212.66V251.918C206.106 253.798 204.582 255.323 202.702 255.323C200.822 255.323 199.298 253.798 199.298 251.918V216.152C201.684 215.103 203.963 213.934 206.106 212.66Z" fill="#F4F4F4"/>
<path fill-rule="evenodd" clip-rule="evenodd" d="M130.205 168.465C115.566 171.235 105.442 176.753 105.442 187.518C105.442 206.697 137.574 222.244 170.12 222.244C202.665 222.244 234.797 206.697 234.797 187.518C234.797 176.753 224.673 171.235 210.035 168.465C218.871 171.724 224.585 177.203 224.585 186.321C224.585 206.161 197.526 222.244 170.12 222.244C142.713 222.244 115.655 206.161 115.655 186.321C115.655 177.203 121.369 171.724 130.205 168.465Z" fill="black" fill-opacity="0.18"/>
</g>
<path d="M156.504 136.627C156.504 141.853 162.493 145.383 170.12 145.383C177.747 145.383 183.736 141.853 183.736 136.627C183.736 135.552 182.813 134.681 181.791 134.681C180.534 134.681 179.973 135.562 179.846 136.627C178.638 139.485 175.648 141.216 170.12 141.492C164.593 141.216 161.603 139.485 160.394 136.627C160.268 135.562 159.706 134.681 158.449 134.681C157.428 134.681 156.504 135.552 156.504 136.627Z" fill="black" fill-opacity="0.6"/>
<path fill-rule="evenodd" clip-rule="evenodd" d="M158.449 117.169C158.449 121.468 163.674 124.952 170.12 124.952C176.566 124.952 181.791 121.468 181.791 117.169" fill="black" fill-opacity="0.16"/>
<path d="M144.833 105.493C148.056 105.493 150.669 102.879 150.669 99.655C150.669 96.431 148.056 93.8174 144.833 93.8174C141.61 93.8174 138.998 96.431 138.998 99.655C138.998 102.879 141.61 105.493 144.833 105.493Z" fill="black" fill-opacity="0.6"/>
<path d="M195.407 105.493C198.63 105.493 201.243 102.879 201.243 99.655C201.243 96.431 198.63 93.8174 195.407 93.8174C192.184 93.8174 189.572 96.431 189.572 99.655C189.572 102.879 192.184 105.493 195.407 105.493Z" fill="black" fill-opacity="0.6"/>
<path d="M130.857 87.1617C134.664 81.8021 145.103 78.7967 154.094 81.0056C155.138 81.2619 156.191 80.6236 156.447 79.58C156.704 78.5363 156.066 77.4825 155.022 77.2262C144.58 74.661 132.492 78.1411 127.685 84.9073C127.063 85.7833 127.269 86.9981 128.144 87.6206C129.02 88.2432 130.234 88.0377 130.857 87.1617Z" fill="black" fill-opacity="0.6"/>
<path d="M209.383 87.1617C205.576 81.8021 195.137 78.7967 186.145 81.0056C185.102 81.2619 184.049 80.6236 183.792 79.58C183.536 78.5363 184.174 77.4825 185.217 77.2262C195.66 74.661 207.747 78.1411 212.554 84.9073C213.177 85.7833 212.971 86.9981 212.096 87.6206C211.22 88.2432 210.005 88.0377 209.383 87.1617Z" fill="black" fill-opacity="0.6"/>
<mask id="mask4_98_889" style="mask-type:alpha" maskUnits="userSpaceOnUse" x="114" y="24" width="112" height="64">
<path fill-rule="evenodd" clip-rule="evenodd" d="M114.681 86.0341C115.019 87.4822 116.308 87.2236 116.627 86.0341C116.177 84.5219 119.832 58.0605 129.27 51.0086C132.789 48.5601 151.648 46.3696 170.423 46.3829C188.996 46.396 207.487 48.5866 210.968 51.0086C220.406 58.0605 224.062 84.5219 223.612 86.0341C223.93 87.2236 225.219 87.4822 225.557 86.0341C226.256 76.0148 225.557 24.0336 170.119 24.7395C114.681 25.4455 113.982 76.0148 114.681 86.0341Z" fill="white"/>
</mask>
<g mask="url(#mask4_98_889)">
<path fill-rule="evenodd" clip-rule="evenodd" d="M114.681 86.0341C115.019 87.4822 116.308 87.2236 116.627 86.0341C116.177 84.5219 119.832 58.0605 129.27 51.0086C132.789 48.5601 151.648 46.3696 170.423 46.3829C188.996 46.396 207.487 48.5866 210.968 51.0086C220.406 58.0605 224.062 84.5219 223.612 86.0341C223.93 87.2236 225.219 87.4822 225.557 86.0341C226.256 76.0148 225.557 24.0336 170.119 24.7395C114.681 25.4455 113.982 76.0148 114.681 86.0341Z" fill="#28354B"/>
<path d="M370.473 23.7661H113.709V296.186H370.473V23.7661Z" fill="#2C1B18"/>
</g>
<g filter="url(#filter0_d_98_889)">
<path fill-rule="evenodd" clip-rule="evenodd" d="M179.324 89.3362C183.132 81.6156 191.081 76.3047 200.269 76.3047C208.944 76.3047 216.514 81.0389 220.538 88.0655C220.742 88.0097 220.958 87.9798 221.18 87.9798H228.961C230.303 87.9798 231.392 89.0688 231.392 90.4122C231.392 91.7555 230.303 92.8445 228.961 92.8445H222.603C223.259 94.9991 223.611 97.2858 223.611 99.655C223.611 112.551 213.161 123.005 200.269 123.005C187.378 123.005 176.927 112.551 176.927 99.655C176.927 98.2716 177.047 96.9163 177.278 95.599C177.196 91.3416 173.925 87.9798 169.985 87.9798C166.351 87.9798 163.286 90.84 162.768 94.625C163.123 96.2451 163.311 97.9281 163.311 99.655C163.311 112.551 152.86 123.005 139.969 123.005C127.077 123.005 116.626 112.551 116.626 99.655C116.626 97.2858 116.979 94.9991 117.635 92.8445H111.277C109.934 92.8445 108.846 91.7555 108.846 90.4122C108.846 89.0688 109.934 87.9798 111.277 87.9798H119.058C119.28 87.9798 119.495 88.0097 119.7 88.0655C123.724 81.0389 131.293 76.3047 139.969 76.3047C149.064 76.3047 156.945 81.5091 160.797 89.1034C162.818 86.0722 166.179 84.0881 169.985 84.0881C173.887 84.0881 177.323 86.1742 179.324 89.3362ZM139.969 119.114C150.712 119.114 159.42 110.402 159.42 99.655C159.42 88.9083 150.712 80.1964 139.969 80.1964C129.226 80.1964 120.517 88.9083 120.517 99.655C120.517 110.402 129.226 119.114 139.969 119.114ZM200.269 119.114C211.012 119.114 219.721 110.402 219.721 99.655C219.721 88.9083 211.012 80.1964 200.269 80.1964C189.526 80.1964 180.817 88.9083 180.817 99.655C180.817 110.402 189.526 119.114 200.269 119.114Z" fill="black"/>
</g>
<path fill-rule="evenodd" clip-rule="evenodd" d="M179.324 89.3362C183.132 81.6156 191.081 76.3047 200.269 76.3047C208.944 76.3047 216.514 81.0389 220.538 88.0655C220.742 88.0097 220.958 87.9798 221.18 87.9798H228.961C230.303 87.9798 231.392 89.0688 231.392 90.4122C231.392 91.7555 230.303 92.8445 228.961 92.8445H222.603C223.259 94.9991 223.611 97.2858 223.611 99.655C223.611 112.551 213.161 123.005 200.269 123.005C187.378 123.005 176.927 112.551 176.927 99.655C176.927 98.2716 177.047 96.9163 177.278 95.599C177.196 91.3416 173.925 87.9798 169.985 87.9798C166.351 87.9798 163.286 90.84 162.768 94.625C163.123 96.2451 163.311 97.9281 163.311 99.655C163.311 112.551 152.86 123.005 139.969 123.005C127.077 123.005 116.626 112.551 116.626 99.655C116.626 97.2858 116.979 94.9991 117.635 92.8445H111.277C109.934 92.8445 108.846 91.7555 108.846 90.4122C108.846 89.0688 109.934 87.9798 111.277 87.9798H119.058C119.28 87.9798 119.495 88.0097 119.7 88.0655C123.724 81.0389 131.293 76.3047 139.969 76.3047C149.064 76.3047 156.945 81.5091 160.797 89.1034C162.818 86.0722 166.179 84.0881 169.985 84.0881C173.887 84.0881 177.323 86.1742 179.324 89.3362ZM139.969 119.114C150.712 119.114 159.42 110.402 159.42 99.655C159.42 88.9083 150.712 80.1964 139.969 80.1964C129.226 80.1964 120.517 88.9083 120.517 99.655C120.517 110.402 129.226 119.114 139.969 119.114ZM200.269 119.114C211.012 119.114 219.721 110.402 219.721 99.655C219.721 88.9083 211.012 80.1964 200.269 80.1964C189.526 80.1964 180.817 88.9083 180.817 99.655C180.817 110.402 189.526 119.114 200.269 119.114Z" fill="#252C2F"/>
</g>
<path d="M54.2626 150.382C54.2626 214.368 106.834 266.239 171.685 266.239C236.536 266.239 289.107 214.368 289.107 150.382" stroke="#C6D1DD" stroke-width="7"/>
<path d="M292.238 163.303C299.501 163.303 305.39 157.415 305.39 150.151C305.39 142.888 299.501 137 292.238 137C284.975 137 279.087 142.888 279.087 150.151C279.087 157.415 284.975 163.303 292.238 163.303Z" fill="#EBF3FA" stroke="#C6D1DD" stroke-width="5"/>
<path d="M865.26 366.216C872.523 366.216 878.411 360.328 878.411 353.065C878.411 345.802 872.523 339.914 865.26 339.914C857.996 339.914 852.108 345.802 852.108 353.065C852.108 360.328 857.996 366.216 865.26 366.216Z" fill="#EBF3FA" stroke="#C6D1DD" stroke-width="5"/>
<path d="M1355.93 555.119C1355.93 620.249 1303.01 673.167 1237.88 673.167C1172.75 673.167 1119.83 620.249 1119.83 555.119C1119.83 489.988 1172.75 437.07 1237.88 437.07C1303.01 437.07 1355.93 489.988 1355.93 555.119Z" fill="#EBF3FA"/>
<path fill-rule="evenodd" clip-rule="evenodd" d="M1115.76 555.119C1115.76 487.797 1170.56 433 1237.88 433C1305.2 433 1360 487.797 1360 555.119H1351.86C1351.86 492.181 1300.82 441.141 1237.88 441.141C1174.94 441.141 1123.9 492.181 1123.9 555.119H1115.76Z" fill="#C6D1DD"/>
<path d="M1136.11 523.18H1337.14V614.926C1337.14 626.198 1328.06 635.592 1316.48 635.592H1156.47C1145.2 635.592 1135.8 626.511 1135.8 614.926V523.18H1136.11Z" fill="white"/>
<path d="M1140.18 481.222C1140.18 472.141 1147.7 464.626 1156.78 464.626H1319.29C1328.37 464.626 1335.89 472.141 1335.89 481.222V505.019H1140.5V481.222H1140.18Z" fill="#EBF3FA"/>
<path fill-rule="evenodd" clip-rule="evenodd" d="M1156.47 457.111C1142.69 457.111 1131.73 468.071 1131.73 481.848V600.21C1133.92 605.846 1136.74 610.856 1139.87 616.18C1139.87 615.866 1139.87 615.553 1139.87 615.24V482.161C1139.87 473.081 1147.39 465.566 1156.47 465.566H1319.29C1328.37 465.566 1335.89 473.081 1335.89 482.161V615.24C1335.89 615.553 1335.89 615.866 1335.89 616.18C1339.02 611.17 1341.84 605.846 1344.03 600.21V481.848C1344.03 468.071 1333.07 457.111 1319.29 457.111H1156.47ZM1316.16 639.664C1319.29 636.846 1322.42 633.715 1325.24 630.27C1323.36 630.897 1321.49 631.21 1319.61 631.21H1156.78C1154.9 631.21 1153.02 630.897 1151.14 630.27C1153.96 633.402 1157.09 636.533 1160.23 639.664H1316.48H1316.16Z" fill="#112E51"/>
<path d="M1204.38 587.371C1204.38 589.563 1206.25 591.442 1208.45 591.442H1267.63C1269.82 591.442 1271.7 589.563 1271.7 587.371V584.24C1271.7 582.048 1269.82 580.169 1267.63 580.169H1208.45C1206.25 580.169 1204.38 582.048 1204.38 584.24V587.371ZM1209.7 604.28C1209.7 606.472 1211.58 608.351 1213.77 608.351H1261.68C1263.87 608.351 1265.75 606.472 1265.75 604.28V601.149C1265.75 598.957 1263.87 597.078 1261.68 597.078H1213.77C1211.58 597.078 1209.7 598.957 1209.7 601.149V604.28Z" fill="#C6D1DD"/>
<path fill-rule="evenodd" clip-rule="evenodd" d="M1237.88 677.238C1170.56 677.238 1115.76 622.441 1115.76 555.119H1123.9C1123.9 618.058 1174.94 669.097 1237.88 669.097C1300.82 669.097 1351.86 618.058 1351.86 555.119H1360C1360 622.441 1305.2 677.238 1237.88 677.238Z" fill="#C6D1DD"/>
<path d="M1115.76 568.27C1123.02 568.27 1128.91 562.382 1128.91 555.119C1128.91 547.855 1123.02 541.967 1115.76 541.967C1108.5 541.967 1102.61 547.855 1102.61 555.119C1102.61 562.382 1108.5 568.27 1115.76 568.27Z" fill="#EBF3FA" stroke="#C6D1DD" stroke-width="5"/>
<path d="M1257.61 490.615H1236.31V565.139C1256.36 556.371 1263.56 544.786 1265.12 541.028C1265.44 540.402 1265.75 539.463 1265.75 538.836V498.443C1265.75 494.059 1261.99 490.302 1257.61 490.302V490.615Z" fill="#B51E23"/>
<path d="M1215.34 490.615C1210.95 490.615 1207.19 494.372 1207.19 498.756V539.149C1207.19 539.776 1207.19 540.715 1207.82 541.341C1209.7 544.786 1216.59 556.371 1236.63 565.452V490.928H1215.34V490.615Z" fill="#E21D3E"/>
<path d="M1241.64 522.867C1243.52 521.301 1244.77 519.109 1244.77 516.291C1244.77 511.594 1241.01 507.837 1236.32 507.837C1231.62 507.837 1227.86 511.594 1227.86 516.291C1227.86 520.988 1229.11 521.301 1230.99 522.867C1230.05 528.19 1229.11 533.2 1228.17 538.523C1230.68 538.836 1233.5 539.15 1236 539.15C1238.51 539.15 1241.33 539.15 1243.83 538.523C1242.89 533.2 1241.95 527.877 1241.01 522.867H1241.64Z" fill="white"/>
<defs>
<filter id="filter0_d_98_889" x="96.3206" y="70.0422" width="147.597" height="71.7508" filterUnits="userSpaceOnUse" color-interpolation-filters="sRGB">
<feFlood flood-opacity="0" result="BackgroundImageFix"/>
<feColorMatrix in="SourceAlpha" type="matrix" values="0 0 0 0 0 0 0 0 0 0 0 0 0 0 0 0 0 0 127 0" result="hardAlpha"/>
<feOffset dy="6.26253"/>
<feGaussianBlur stdDeviation="6.26253"/>
<feColorMatrix type="matrix" values="0 0 0 0 0 0 0 0 0 0 0 0 0 0 0 0 0 0 0.1 0"/>
<feBlend mode="normal" in2="BackgroundImageFix" result="effect1_dropShadow_98_889"/>
<feBlend mode="normal" in="SourceGraphic" in2="effect1_dropShadow_98_889" result="shape"/>
</filter>
<linearGradient id="paint0_linear_98_889" x1="763.494" y1="197.129" x2="379.601" y2="1298.71" gradientUnits="userSpaceOnUse">
<stop stop-color="#EBF3FA"/>
<stop offset="1" stop-color="#A8B6C6"/>
</linearGradient>
</defs>
</svg>
