<svg xmlns="http://www.w3.org/2000/svg" viewBox="0 0 1400 700"><defs><clipPath id="clippath"><path class="cls-1" d="M160.58 168.95c-62.24 0-112.69 119.08-112.69 181.32s50.45 112.69 112.69 112.69 112.69-50.45 112.69-112.69-50.45-181.32-112.69-181.32Z"/></clipPath><clipPath id="clippath-1"><path class="cls-1" d="M43.61 168.95h242.48v298.29H43.61z"/></clipPath><clipPath id="clippath-2"><circle class="cls-1" cx="631.92" cy="550.95" r="127.13"/></clipPath><clipPath id="clippath-3"><path class="cls-1" transform="rotate(-71.09 607.513 603.099)" d="M599.65 596.03h15.81v14.16h-15.81z"/></clipPath><clipPath id="clippath-4"><circle class="cls-1" cx="632.86" cy="149.62" r="127.13"/></clipPath><clipPath id="clippath-5"><rect class="cls-1" x="665.4" y="82.88" width="41.45" height="68.19" rx="1.04" ry="1.04"/></clipPath><clipPath id="clippath-6"><path class="cls-1" d="M699.08 198.82h37.09v41.41h-37.09z"/></clipPath><style>.cls-1,.cls-3,.cls-5,.cls-7{fill:none}.cls-3{stroke-width:7px}.cls-10{fill:#415874}.cls-13,.cls-15,.cls-17{fill-rule:evenodd}.cls-18{fill:#ecf3fa}.cls-13,.cls-21{fill:#fff}.cls-25{fill:#ffd1b7}.cls-26{fill:#d1d3d4}.cls-27{fill:#009664}.cls-28{opacity:.18;mix-blend-mode:multiply}.cls-31{fill:#231f20}.cls-3{stroke:#112e51}.cls-3,.cls-5,.cls-7{stroke-miterlimit:10}.cls-32{fill:#0071bb}.cls-33{fill:#212121}.cls-34{fill:#fdb4a6}.cls-42{fill:#dc865d}.cls-15{fill:#e6e7e8}.cls-46{letter-spacing:0}.cls-5{stroke-width:.13px;stroke:#fff}.cls-48{fill:#324160}.cls-51{fill:#808285}.cls-52{fill:#cdd7ee}.cls-53{fill:#383338}.cls-54{fill:#cdd7ee}.cls-7{stroke:#0071bb;stroke-width:3px}.cls-55{fill:#112e50}.cls-57{fill:#e38c66}.cls-17{fill:#939598}.cls-64{fill:#c97047}</style></defs><g style="isolation:isolate"><g id="Layer_1" data-name="Layer 1"><rect class="cls-21" x="1059.5" y="256.68" width="300.04" height="183" rx="23.02" ry="23.02"/><path class="cls-18" d="M1082.52 256.68h254c12.71 0 23.02 10.31 23.02 23.02v45.32H1059.5V279.7c0-12.71 10.31-23.02 23.02-23.02Z"/><rect class="cls-3" x="1059.5" y="256.68" width="300.04" height="183" rx="23.02" ry="23.02"/><path d="M1168.79 390.15h81.46m-94.11-15.63h106.75" style="stroke:#d0d2d3;stroke-width:7.13px;stroke-linecap:round;fill:none"/><path d="M1227.8 292.76h-18.28v64.52c17.35-7.64 23.42-17.64 24.95-20.74.29-.59.43-1.24.43-1.9v-34.78c0-3.92-3.18-7.1-7.1-7.1Z" style="fill:#b51e23"/><path d="M1191.23 292.76c-3.92 0-7.1 3.18-7.1 7.1v34.78c0 .66.14 1.31.43 1.9 1.53 3.1 7.6 13.1 24.95 20.74v-64.52h-18.28Z" style="fill:#e21d3e"/><path class="cls-21" d="M1214.01 320.57c1.64-1.32 2.71-3.32 2.71-5.59 0-3.98-3.23-7.2-7.2-7.2s-7.2 3.22-7.2 7.2c0 2.3 1.1 4.33 2.78 5.65-.79 4.51-1.58 9.03-2.36 13.54 2.24.39 4.51.59 6.78.59 2.3 0 4.6-.19 6.87-.59l-2.37-13.6Z"/><circle cx="160.58" cy="350.27" r="112.53" style="fill:#ecf3fa;stroke-width:7px;stroke:#112e50"/><path class="cls-1" d="M43.61 168.95h242.48v298.29H43.61z"/><g style="clip-path:url(#clippath)"><path class="cls-53" d="M85.61 381.27c-1.25-3.15-2.55-6.27-3.75-9.43-2.09-5.48-3.8-11.06-4-17-.28-8.83 3.34-16.12 8.87-22.66 1.71-2.01 3.48-3.97 5.33-5.84 8.12-8.21 11.72-18.27 12.22-29.62.29-6.53-.69-12.97-1.24-19.45-1.74-20.53 5.24-37.23 22.16-49.35 6.46-4.64 14.06-6.2 21.84-6.87 5.49-.46 10.98-.78 16.49-.11 7.18.88 12.13 4.57 14.71 11.34.4 1.06.79 1.31 1.99 1.2 7.77-.68 14.46 1.99 19.94 7.36 9.45 9.27 13.6 20.79 13.62 33.9 0 7.24-1.5 14.3-2.79 21.39-1.22 6.73-1.52 13.37 1.59 19.77 1.9 3.92 4.59 7.18 7.96 9.92 4.41 3.57 8.19 7.71 10.69 12.86 3.87 7.96 3.43 16.08.84 24.27-1.6 5.09-3.96 9.86-6.25 14.66-.55.83-1.36.52-2.08.44-8.3-.9-16.58-2.04-24.87-3.04-2.32-.28-4.66-.48-6.95-.92-1.55-.28-2.89-.12-4.06.98-2.3.02-3.67-1.62-5-3.08-2.66-2.95-4.35-6.48-5.32-10.32-.71-2.82-1.48-5.64-1.32-8.6.1-1.63-.64-3.22-.21-4.85.34-.94 1.15-1.46 1.9-2 8.49-6.09 13.51-14.4 15.78-24.5.52-2.32.52-2.35 2.8-2.36 1.16 0 2.18-.4 3.13-1 3.83-2.44 6.38-8.94 5.24-13.32-.17-.62-.38-1.23-.68-1.8-.94-1.91-1.24-1.97-2.86-.56-.49.42-1.01.79-1.5 1.21-.84.73-1.8 1.3-2.69 1.94-.47.34-.96.75-1.57.26-.64-1.98-.43-4.05-.61-6.07-1.02-11.17-4.29-21.55-10.55-30.91-3.12-4.67-6.92-8.7-11.64-11.81-.97-.67-1.48-.03-1.99.69-1.31 1.87-2.76 3.63-4.25 5.37-4.25 5-9.37 8.98-14.68 12.74-8.3 5.88-17.22 10.65-26.51 14.75-.86.38-1.56.87-1.59 1.89-.06 1.81-.6 3.59-.33 5.42-.05 2.54.25 5.09-.19 7.62-.49.89-1.16.55-1.77.21-.66-.36-1.19-.92-1.8-1.33-1-.82-2.08-1.54-2.94-2.51-.84-.94-1.42-.67-2.05.26-1.08 1.58-1.48 3.39-1.35 5.18.28 3.86 1.76 7.25 4.62 9.96 1.18 1.11 2.56 1.9 4.24 1.82 1.69-.08 2.42.78 2.72 2.32 1.37 6.86 4.39 12.92 8.91 18.26 1.98 2.35 4.32 4.28 6.75 6.11.69.52 1.53.91 1.76 1.87.22 1.56 0 3.13.08 4.69-.05 6.34-1.56 12.28-5.24 17.48-1.67 2.36-3.59 4.6-6.58 5.48-.17-.04-.33-.11-.46-.23-1.84-1.71-2.05-1.64-2.89.79-2.03 5.88-1.63 11.88-.8 17.87.58 4.18 1.31 8.3 1.22 12.55-.21 9.6-4.01 17.68-10.22 24.75-3.96 4.5-8.83 7.61-14.61 9.28-1.88.54-3.8.67-5.69 1.02-2.02.14-4.01.05-5.97-.49-.96-.48-.95-1.23-.52-2.05.44-.83.92-1.63 1.4-2.42 3.09-4.67 4.45-9.88 4.7-15.39.37-8.29-2.04-16.05-4.81-23.71-1.47-4.07-3.13-8.06-4.8-12.04-.48-1.42-1.48-2.65-1.5-4.23"/><path class="cls-48" d="M187.59 375c.77-1.42 1.88-1.72 3.51-1.5 11.28 1.48 22.58 2.85 33.87 4.24.28.04.57-.07.85-.12 1.71.51 3.42 1 5.12 1.52.6.19 1.24.29 1.71.78-1.39 9.08-4.28 17.71-7.61 26.25-3.15 8.07-4.91 16.5-4.9 25.2 0 3.03.17 6.12 1.06 9.04 2.55 8.38 1.06 16.44-1.68 24.45-1.2 3.52-3.11 6.68-4.96 9.87-.22.4-.55.76-.55 1.27-5.02 1.33-10.13 2.22-15.24 3.12-16.21 2.84-32.55 3.73-48.96 3.05-9.94-.41-19.82-1.43-29.62-3.26-5.33-.99-10.68-1.93-15.93-3.31-2.36-2.89-3.92-6.23-5.28-9.65-2.29-5.77-3.52-11.78-3.28-18.01.09-2.32.28-4.68 1.52-6.76 1.61-.3 3.24-.51 4.82-.93 9.55-2.54 16.04-8.79 20.67-17.24 4.63-8.45 5.4-17.38 3.56-26.72-1.17-6-1.64-12.06-.21-18.11.27-1.13.66-2.24 1.06-3.33.21-.58.28-1.38 1.07-1.47.85-.1 1.4.44 1.82 1.15.18.29.42.55.63.83 1.62.76 2.69 2.21 4.13 3.22 5.6 3.91 11.79 6.18 18.51 7.15 8.85 1.27 17.26-.18 25.22-4.2 2.76-1.4 5.38-3.09 7.54-5.4.44-.47.93-.89 1.56-1.11"/><path class="cls-55" d="M214.01 476c-.85-.19-.62-.54-.25-1.08 2.7-3.98 4.83-8.26 6.2-12.88 1.31-4.43 2.13-8.94 2.1-13.57-.02-2.52-.65-4.95-1.24-7.39-1.39-5.79-1.43-11.63-.69-17.52 1.16-9.34 4.54-18.02 7.86-26.74 1.93-5.07 3.02-10.38 3.9-15.73.09-.53.05-1.08.76-1.16 9.08 4.35 14.42 11.55 15.37 21.51 1.35 14.15 2.21 28.35 3.3 42.53.48 6.3.98 12.6 1.51 18.9.07.84-.1 1.24-.93 1.56a297.53 297.53 0 0 1-37.36 11.53c-.17.04-.35.04-.52.04"/><path class="cls-48" d="M92.33 436.95c-.46.76-.92 1.54-1.4 2.3-.32.51-.56 1 .04 1.47.07.22.1.46.02.68-3.27 9.61-2.81 19.4-1.51 29.24.04.35.13.69 0 1.03-6.86-1.96-13.56-4.44-20.24-6.92-1.03-.38-1.3-.94-1.22-1.96.68-8.92 1.33-17.85 2.01-26.78.36-4.9.77-9.8 1.14-14.69.51-7 .65-14.05 1.56-21 1.1-8.35 5.56-14.76 12.89-19.06.81 1.23 1.33 2.59 1.79 3.97.04.78-.3 1.47-.55 2.19-1.51 4.31-1.65 8.51.6 12.69 3.81 7.08 6.12 14.67 6.67 22.7.34 4.79-.06 9.56-1.79 14.12"/><path class="cls-55" d="M89.47 471.68c-.97-.91-.83-2.2-.93-3.29-.58-5.64-.76-11.29-.13-16.94.34-3.12.36-6.29 1.73-9.21.25-.52.55-1.01.84-1.52 2.08.15 4.17.3 6.25.46-.5 3.15-1.27 6.26-1.07 9.5.36 5.69 1.56 11.16 3.84 16.38 1.12 2.58 2.39 5.06 3.97 7.38.26.36.3.75.3 1.16-5.01-1.02-9.9-2.48-14.8-3.92"/><path class="cls-57" d="M122.89 306.09c.03-2.82.05-5.63.08-8.44.99-1.2 2.53-1.31 3.82-1.9 4.9-2.29 9.91-4.34 14.64-6.99 2.36-.36 4.26.76 6.16 1.91.78.47 1.76 1.72 2.52.6.78-1.16-.77-1.66-1.5-2.29-1-.87-2.51-1-3.29-2.2.11-.87.92-.98 1.48-1.32 8.79-5.46 16.36-12.2 21.97-20.99 1.54-2.41 2.7-5.02 4.05-7.54 4.58 2.61 8.04 6.42 11.04 10.62 6.92 9.66 10.47 20.54 11.53 32.32.18 2.04.32 4.08.36 6.12.94 1.83.36 3.78.35 5.66 0 1.16-.24 2.33-.36 3.47 1.95-1.36 3.24-4.21 3.35-7.17.04-1.44-.32-2.94.46-4.31.87-.76 1.78-1.5 2.6-2.32.74-.72 1.16-.44 1.65.27 1.33 1.96 1.96 4.09 1.8 6.45-.27 4.04-1.94 7.43-4.89 10.15-1.39 1.27-3.1 1.88-5.01 1.6-.76-.11-1.2-.04-1.36.83-2.12 11.42-7.94 20.45-17.55 27-.14.1-.27.23-.39.36-.34.4-.65.81-1.14 1.07-4.4 2.31-9.03 3.78-14.04 4-5.42.23-10.6-.68-15.54-2.91-1.37-.62-2.81-1.19-3.7-2.54-9.64-6.33-15.4-15.25-17.71-26.48-.16-.77-.28-1.48-1.4-1.32-2.59.36-4.57-.85-6.12-2.74-2.76-3.37-4.41-7.15-3.72-11.64.11-.68.28-1.38.55-2.02 1.26-3.04 1.83-3.16 4.14-.95.68.64 1.37 1.26 2.04 1.89-.58 3.2-.27 6.27 1.36 9.14.35.6.6 1.27 1.38 1.64.41-.58.27-1.22.14-1.79-.4-1.9-.09-3.85-.44-5.75-.12-.62.09-1.15.67-1.48"/><path class="cls-57" d="M187.59 375c-3.14 4.06-7.45 6.51-12.04 8.42-5.77 2.4-11.84 3.56-18.08 3.18-9.72-.59-18.62-3.44-25.95-10.18-.34-.3-.59-.71-.87-1.08 6.91-3.95 9.59-10.48 10.87-17.84.27-1.55.33-3.13.49-4.68.28-.93-.46-2.36.43-2.76 1.14-.52 1.9.87 2.71 1.54 4.66 3.85 9.98 6.12 16 6.36 5 .2 9.51-1.53 13.62-4.36.52-.36 1.02-1.39 1.86-.37.36 5.72 1.65 11.17 4.76 16.08 1.56 2.45 3.55 4.45 6.22 5.71"/><path class="cls-64" d="M172.83 256.93c.13 1.65-.96 2.85-1.64 4.15-3.94 7.4-9.28 13.64-15.88 18.84-3.16 2.48-6.36 4.88-9.89 6.81-.7.66-1.44.2-2.15.06-4.2-.77-7.98.22-11.46 2.61-.68.46-1.24 1.07-1.62 1.8-.2.38-.28.78.09 1.12.35.33.74.29 1.13.08.36-.2.64-.51.95-.77 1.72-1.47 3.71-2.45 5.88-2.98 1.09-.27 2.28-.63 3.31.3-.71.85-1.69 1.32-2.67 1.75-4.59 2.09-9.18 4.15-13.79 6.2-.68.3-1.41.49-2.12.73-.23-1.83.33-3.6.35-5.41 0-1.08.91-1.4 1.72-1.75 8.79-3.88 17.24-8.39 25.18-13.82 7.93-5.41 15.19-11.5 20.6-19.55.64-.94 1.24-1.21 2.01-.18"/><path class="cls-55" d="M92.33 436.95c.15-2.56.8-5.04 1.11-7.58.67-5.38-.15-10.56-1.34-15.75-1.16-5.05-3.34-9.68-5.57-14.32-2.29-4.78-1.64-9.5.87-14.05 4.43 9.88 8.6 19.88 9.7 30.77.75 7.42-.43 14.59-4.76 20.93"/><path class="cls-64" d="M176.62 353.21c-1.4-.02-2.16 1.16-3.18 1.79-3.51 2.18-7.34 3.43-11.4 3.44-6.06.02-11.52-2.08-16.33-5.79-.32-.25-.59-.6-.94-.77-.86-.39-1.33-1.81-2.16-1.56-.93.29.04 1.73-.6 2.5v-5.23c3.97 2.41 8.22 4.02 12.85 4.65 6.42.89 12.54.02 18.4-2.74 1.06-.5 2.1-1.02 3.15-1.53.08 1.74.15 3.49.22 5.24m22.91-49.57c.05 3.31.35 6.64-1.44 9.7-.69 1.18-1.67 2.01-2.87 3.22.2-3.8.65-7.16.52-10.56 1.46-.48 2.49-1.64 3.8-2.36m-76.66 2.45c-.38 2.2.02 4.38.19 6.56.09 1.11.16 2.2.12 3.31-.74.21-1.17-.27-1.49-.7-2.18-2.96-3.06-6.28-2.58-9.92.04-.39.26-.77.65-1 1.19.31 1.74 1.76 3.11 1.75m30.92 6.76h9.16c.66 0 1.31-.05 1.96-.08.43.26.52.68.54 1.13-1.11 2-2.96 2.9-5.11 3.15-2.54.29-4.76-.51-6.49-2.45-.2-.23-.34-.51-.51-.76.03-.38-.02-.8.44-.99"/><path class="cls-53" d="M136.64 298.77c.11-1.32.39-2.65 1.6-3.71 1.42-1.24 3.32-1.28 4.83-.12 2.38 1.82 2.52 5.82.27 7.76-1.61 1.39-4.07 1.23-5.47-.39-.88-1.02-1.17-2.22-1.23-3.54m44.65.01c.02 1.58-.47 2.87-1.65 3.91-1.5 1.32-3.81 1.24-5.24-.14-1.78-1.73-1.85-5.34-.14-7.15 1.64-1.73 4.19-1.71 5.75.1.89 1.01 1.38 2.15 1.28 3.28m-39.75-9.81c-3.62-.36-6.6 1.01-9.24 3.35-.43.38-.73 1-1.38 1-.6 0-1.1-.34-1.45-.85-.42-.62-.08-1.11.29-1.58 2.52-3.22 6.06-4.36 9.94-4.78 1.96-.21 3.8.36 5.7.65 1.57.88 3.32 1.45 4.66 2.75.67.64 1.29 1.27.57 2.24-.76 1.01-1.53.55-2.27 0-2.04-1.53-4.2-2.7-6.83-2.76m35.46-2.95c3.64-.1 6.66 1.13 9.33 3.31.49.4.92.9 1.29 1.41.48.67.33 1.35-.22 1.91-.59.6-1.17.33-1.71-.12-1.58-1.31-3.15-2.62-5.18-3.19-3.95-1.12-7.52-.34-10.76 2.08-.84.62-1.69 1.34-2.57.27-.96-1.16 0-1.96.84-2.6 2.69-2.03 5.7-3.2 8.99-3.08"/><path class="cls-21" d="M159.22 340.04c-12.46 0-15.21-10.82-15.21-10.82-.36-1.5.91-2.41 2.03-2.41h26.44c1.11 0 2.35 1.08 2.02 2.41 0 0-2.82 10.82-15.28 10.82"/></g><g style="clip-path:url(#clippath-1)"><path d="M48.05 350.27c0 62.15 50.38 112.53 112.53 112.53s112.53-50.38 112.53-112.53" style="stroke-width:7px;stroke:#112e50;fill:none"/></g><circle cx="631.92" cy="550.95" r="127.13" style="stroke-miterlimit:10;stroke:#112e51;fill:#ecf3fa;stroke-width:7px"/><path class="cls-26" d="M553.56 490.15h273.41v148.67H553.56z"/><path class="cls-17" d="M826.97 579.71h-6.95v3.05h6.95v-3.05Zm0-73.1h-6.95v3.05h6.95v-3.05Zm0 79.16h-4.8v3.05h4.8v-3.05Zm0-73.07h-4.8v3.05h4.8v-3.05Zm0 79.16h-6.95v3.05h6.95v-3.05Zm0-73.07h-6.95v3.05h6.95v-3.05Zm0 79.16h-4.8V601h4.8v-3.05Zm0-73.06h-4.8v3.05h4.8v-3.05Zm0 79.15h-6.95v3.05h6.95v-3.05Zm0-73.06h-6.95v3.05h6.95v-3.05Zm0 79.15h-4.8v3.05h4.8v-3.05Zm0-73.06h-4.8v3.05h4.8v-3.05Zm0 79.16h-6.95v3.05h6.95v-3.05Zm0-73.07h-6.95v3.05h6.95v-3.05Zm0 79.16h-4.8v3.05h4.8v-3.05Zm0-73.07h-4.8v3.05h4.8v-3.05Zm0 79.16h-6.95v3.05h6.95v-3.05Zm0-73.07h-6.95v3.05h6.95v-3.05Zm0 6.1h-4.8v3.05h4.8v-3.05Zm0 6.09h-6.95v3.05h6.95v-3.05Zm0 6.09h-4.8v3.05h4.8v-3.05Zm-273.41 6.08h6.95v3.05h-6.95v-3.05Zm0-73.1h6.95v3.05h-6.95v-3.05Zm0 79.16h4.8v3.05h-4.8v-3.05Zm0-73.07h4.8v3.05h-4.8v-3.05Zm0 79.16h6.95v3.05h-6.95v-3.05Zm0-73.06h6.95v3.05h-6.95v-3.05Zm0 79.15h4.8v3.05h-4.8v-3.05Zm0-73.06h4.8v3.05h-4.8v-3.05Zm0 79.16h6.95v3.05h-6.95v-3.05Zm0-73.07h6.95v3.05h-6.95v-3.05Zm0 79.16h4.8v3.05h-4.8v-3.05Zm0-73.07h4.8v3.05h-4.8v-3.05Zm0 79.16h6.95v3.05h-6.95v-3.05Zm0-73.07h6.95v3.05h-6.95v-3.05Zm0 79.16h4.8v3.05h-4.8v-3.05Zm0-73.06h4.8v3.05h-4.8v-3.05Zm0 79.15h6.95v3.04h-6.95v-3.04Zm0-73.06h6.95v3.05h-6.95v-3.05Zm0 6.09h4.8v3.05h-4.8v-3.05Zm0 6.09h6.95v3.05h-6.95v-3.05Zm0 6.09h4.8v3.05h-4.8v-3.05Z"/><path class="cls-26" d="M550.73 470.75h279.08c4.34 0 7.86 3.52 7.86 7.86v16.19c0 4.34-3.52 7.86-7.86 7.86H550.73c-4.34 0-7.86-3.52-7.86-7.86v-16.19c0-4.34 3.52-7.86 7.86-7.86Z"/><path d="M837.26 497.28c-1.04 3.12-4 5.38-7.46 5.38H550.72c-3.46 0-6.41-2.26-7.46-5.38h293.99Zm-286.53-26.53h279.08c3.46 0 6.41 2.26 7.46 5.38H543.28c1.05-3.12 4-5.38 7.46-5.38Z" style="fill:#bcbec0;fill-rule:evenodd"/><path d="M630.58 466.04h126.9c6.79 0 12.34 4.58 12.34 10.19v20.94c0 5.6-5.55 10.19-12.34 10.19h-126.9c-6.79 0-12.34-4.58-12.34-10.19v-20.94c0-5.6 5.55-10.19 12.34-10.19Z" style="fill:#0071bb;fill-rule:evenodd"/><path class="cls-17" d="M644.94 527.31h90.65v111.5h-6.37V533.87H651.1v104.94h-6.16v-111.5z"/><path class="cls-51" d="M651.1 533.87h78.11v104.94H651.1z"/><path d="M553.56 615.61h91.38v23.21h-91.38zm182.03 0h91.38v23.21h-91.38z" style="fill:#a7a9ac"/><path class="cls-54" d="M574.55 532.62h53.64v59.22h-53.64z"/><path class="cls-13" d="M570 527.6h62.73v69.26H570V527.6Zm19.21 64.24v-39.91h-14.67v39.91h14.67Zm3.45-39.91v39.91h15.74v-39.91h-15.74Zm19.18 0v39.91h16.34v-39.91h-16.34Zm-37.29-3.44h53.64v-15.86h-53.64v15.86Z"/><path class="cls-54" d="M750.38 532.53h53.64v59.22h-53.64z"/><path class="cls-13" d="M745.83 527.51h62.73v69.26h-62.73v-69.26Zm19.22 64.24v-39.91h-14.67v39.91h14.67Zm3.44-39.91v39.91h15.74v-39.91h-15.74Zm19.19 0v39.91h16.34v-39.91h-16.34Zm-37.3-3.44h53.64v-15.87h-53.64v15.87Z"/><path class="cls-15" d="M655.4 538.52h35.06v100.29H655.4V538.52Zm5.61 5.82v84.05h24.1v-84.05h-24.1Z"/><path class="cls-54" d="M661.01 544.34h24.1v84.05h-24.1z"/><path class="cls-15" d="M690.46 538.52h35.06v100.29h-35.06V538.52Zm5.61 5.82v84.05h24.1v-84.05h-24.1Z"/><path class="cls-54" d="M696.07 544.34h24.1v84.05h-24.1z"/><path class="cls-51" d="M690.07 538.52h.79v100.29h-.79z"/><path d="M686.61 577.05h1.56v23.79h-1.56zm5.89 0h1.56v23.79h-1.56z" style="fill:#112e51"/><path d="m661.01 544.34 24.1 84.05v-84.05h-24.1zm35.06.01 24.11 84.05v-84.05h-24.11z" style="fill:#ecf3fa;fill-rule:evenodd"/><text transform="translate(642.59 492.49)" style="font-size:15.59px;font-family:PublicSans-Bold,'Public Sans';font-weight:700;fill:#fff"><tspan x="0" y="0" style="letter-spacing:0">P</tspan><tspan x="10.2" y="0" style="letter-spacing:0">O</tspan><tspan x="22.12" y="0" style="letter-spacing:0">S</tspan><tspan x="32.87" y="0">T OFFICE</tspan></text><g style="clip-path:url(#clippath-2)"><path class="cls-48" d="M536.02 652.36c-.39.64-.77 1.28-1.17 1.92-.27.42-.47.83.04 1.22.06.19.08.39.01.57-2.73 8.01-2.34 16.18-1.26 24.38.04.29.11.58 0 .86-5.72-1.64-11.3-3.7-16.88-5.77-.86-.32-1.08-.79-1.02-1.63.57-7.44 1.11-14.88 1.67-22.33.3-4.08.64-8.17.95-12.25.42-5.84.54-11.72 1.3-17.51.92-6.96 4.64-12.3 10.75-15.89.67 1.02 1.11 2.16 1.49 3.31.03.65-.25 1.22-.46 1.82-1.26 3.59-1.38 7.09.5 10.58 3.18 5.91 5.1 12.23 5.56 18.93.28 3.99-.05 7.97-1.49 11.78"/><path class="cls-55" d="M536.02 652.36c.13-2.13.67-4.2.93-6.32.56-4.48-.13-8.8-1.12-13.13-.96-4.21-2.79-8.07-4.65-11.94-1.91-3.99-1.37-7.92.73-11.72 3.69 8.24 7.17 16.58 8.09 25.66.62 6.19-.36 12.16-3.97 17.45"/><path class="cls-53" d="M530.42 605.93c-1.04-2.62-2.13-5.22-3.13-7.86-1.74-4.57-3.17-9.22-3.34-14.17-.24-7.36 2.79-13.44 7.4-18.89 1.42-1.67 2.9-3.31 4.45-4.87 6.77-6.85 9.77-15.24 10.19-24.69.24-5.45-.58-10.81-1.04-16.22-1.45-17.12 4.37-31.05 18.48-41.15 5.39-3.87 11.72-5.17 18.21-5.73 4.58-.39 9.15-.65 13.75-.09 5.99.73 10.12 3.81 12.27 9.46.33.88.66 1.09 1.66 1 6.48-.57 12.06 1.66 16.62 6.14 7.88 7.73 11.34 17.33 11.35 28.27 0 6.04-1.25 11.92-2.33 17.83-1.02 5.61-1.27 11.15 1.33 16.48 1.59 3.27 3.82 5.99 6.63 8.27 3.68 2.98 6.83 6.43 8.92 10.72 3.22 6.64 2.86 13.41.7 20.24-1.33 4.25-3.31 8.22-5.21 12.22-.46.69-1.13.43-1.73.37-6.92-.75-13.82-1.7-20.74-2.53-1.93-.23-3.88-.4-5.8-.76-1.29-.24-2.41-.1-3.39.82-1.92.01-3.06-1.35-4.17-2.57-2.22-2.46-3.62-5.4-4.44-8.6-.59-2.35-1.23-4.71-1.1-7.17.08-1.36-.53-2.68-.18-4.05.28-.79.96-1.22 1.59-1.67 7.08-5.08 11.27-12.01 13.15-20.43.43-1.93.44-1.96 2.33-1.97.97 0 1.82-.33 2.61-.84 3.19-2.04 5.32-7.46 4.37-11.1-.14-.52-.32-1.02-.56-1.5-.79-1.59-1.04-1.65-2.39-.47-.41.35-.84.66-1.25 1.01-.7.61-1.5 1.08-2.25 1.62-.39.28-.8.62-1.31.21-.53-1.65-.36-3.38-.51-5.06-.85-9.32-3.58-17.97-8.8-25.78-2.6-3.89-5.77-7.26-9.7-9.85-.81-.56-1.24-.02-1.66.58-1.09 1.56-2.3 3.02-3.54 4.48-3.54 4.17-7.81 7.49-12.24 10.62-6.92 4.9-14.36 8.88-22.1 12.3-.72.32-1.3.73-1.33 1.58-.05 1.51-.5 2.99-.27 4.52-.04 2.12.21 4.25-.16 6.35-.41.74-.96.46-1.47.18-.55-.3-.99-.76-1.5-1.11-.83-.68-1.73-1.28-2.45-2.09-.7-.79-1.19-.56-1.71.21-.9 1.32-1.24 2.82-1.13 4.32.23 3.22 1.47 6.05 3.85 8.3.99.93 2.13 1.59 3.54 1.52 1.41-.07 2.02.65 2.27 1.93 1.14 5.72 3.66 10.77 7.43 15.22 1.65 1.96 3.6 3.56 5.63 5.09.58.44 1.27.76 1.47 1.56.19 1.3 0 2.61.07 3.91-.04 5.28-1.3 10.23-4.37 14.57-1.39 1.96-2.99 3.84-5.48 4.57-.14-.04-.27-.09-.39-.19-1.53-1.42-1.71-1.37-2.41.66-1.69 4.91-1.36 9.91-.67 14.9.48 3.48 1.09 6.92 1.02 10.46-.18 8-3.34 14.74-8.52 20.64-3.3 3.75-7.36 6.34-12.18 7.74-1.56.45-3.16.56-4.74.85-1.68.12-3.34.04-4.98-.41-.8-.4-.79-1.02-.44-1.71.36-.69.76-1.36 1.17-2.02 2.58-3.89 3.71-8.23 3.92-12.83.31-6.91-1.7-13.38-4.01-19.77-1.22-3.39-2.61-6.72-4-10.04-.4-1.19-1.24-2.21-1.25-3.53"/><path class="cls-48" d="M615.45 600.7c.64-1.19 1.56-1.43 2.93-1.25 9.4 1.24 18.82 2.38 28.24 3.54.23.03.47-.06.71-.1 1.42.42 2.85.83 4.27 1.27.5.16 1.04.24 1.42.65-1.16 7.57-3.57 14.76-6.34 21.89-2.62 6.73-4.09 13.76-4.08 21.01 0 2.53.14 5.1.88 7.54 2.13 6.99.88 13.71-1.4 20.39-1 2.93-2.59 5.57-4.14 8.23-.19.33-.46.64-.46 1.06-4.19 1.11-8.45 1.85-12.71 2.6-13.52 2.37-27.14 3.11-40.82 2.54-8.29-.34-16.53-1.19-24.69-2.72-4.45-.82-8.9-1.61-13.28-2.76-1.97-2.41-3.27-5.2-4.4-8.05-1.91-4.81-2.93-9.82-2.73-15.02.07-1.93.23-3.9 1.27-5.63 1.34-.25 2.7-.42 4.02-.78 7.96-2.12 13.37-7.33 17.24-14.38 3.86-7.05 4.5-14.49 2.97-22.28-.98-5-1.36-10.06-.18-15.1.22-.94.55-1.87.88-2.78.18-.48.23-1.15.89-1.22.71-.08 1.17.37 1.52.96.15.24.35.46.53.69 1.35.64 2.25 1.85 3.45 2.68 4.67 3.26 9.83 5.15 15.43 5.96 7.38 1.06 14.39-.15 21.03-3.51 2.3-1.17 4.48-2.58 6.28-4.5.37-.39.78-.74 1.3-.93"/><path class="cls-55" d="M637.48 684.92c-.71-.16-.52-.45-.21-.9 2.25-3.32 4.02-6.89 5.17-10.74 1.09-3.69 1.78-7.46 1.75-11.32-.01-2.1-.54-4.13-1.03-6.16-1.16-4.82-1.19-9.69-.58-14.61.96-7.79 3.79-15.02 6.55-22.29 1.61-4.22 2.52-8.66 3.25-13.12.07-.44.04-.9.64-.97 7.57 3.62 12.02 9.63 12.81 17.94 1.13 11.8 1.85 23.64 2.75 35.46.4 5.25.82 10.5 1.26 15.76.06.7-.08 1.04-.78 1.3a247.472 247.472 0 0 1-31.15 9.61c-.14.04-.29.03-.44.04m-103.84-3.61c-.81-.76-.69-1.84-.78-2.74-.48-4.7-.63-9.41-.11-14.13.28-2.6.3-5.25 1.45-7.68.21-.44.46-.84.7-1.27 1.73.13 3.48.25 5.21.39-.42 2.62-1.06 5.22-.89 7.92.3 4.74 1.3 9.3 3.2 13.66.93 2.15 1.99 4.22 3.31 6.15.21.3.25.62.25.96-4.18-.85-8.26-2.07-12.34-3.27"/><path class="cls-57" d="M561.5 543.25c.02-2.35.04-4.69.07-7.04.82-1 2.11-1.09 3.19-1.59 4.08-1.91 8.26-3.62 12.21-5.83 1.97-.3 3.55.64 5.14 1.59.65.39 1.47 1.43 2.1.5.65-.97-.64-1.39-1.25-1.91-.83-.73-2.09-.83-2.74-1.83.09-.73.77-.82 1.24-1.1 7.33-4.55 13.64-10.18 18.32-17.51 1.28-2.01 2.25-4.19 3.38-6.28 3.82 2.18 6.7 5.35 9.2 8.86 5.77 8.06 8.73 17.13 9.61 26.95.15 1.7.27 3.4.3 5.11.79 1.53.3 3.15.29 4.72 0 .96-.2 1.94-.3 2.89 1.62-1.13 2.71-3.51 2.79-5.98.04-1.2-.27-2.45.39-3.59.73-.64 1.48-1.25 2.17-1.93.62-.6.97-.36 1.38.22 1.11 1.63 1.63 3.41 1.5 5.38-.22 3.37-1.62 6.2-4.08 8.46-1.16 1.06-2.59 1.57-4.18 1.33-.64-.09-1-.04-1.13.69-1.76 9.52-6.62 17.05-14.63 22.52-.12.08-.22.19-.33.3-.28.33-.54.67-.95.89-3.67 1.93-7.53 3.15-11.7 3.34-4.52.19-8.83-.57-12.95-2.42-1.14-.52-2.34-.99-3.08-2.12-8.04-5.28-12.84-12.72-14.77-22.08-.13-.64-.23-1.23-1.16-1.1-2.16.3-3.81-.71-5.1-2.28-2.3-2.81-3.68-5.96-3.11-9.7.09-.57.24-1.15.46-1.68 1.05-2.53 1.53-2.63 3.45-.79.56.53 1.14 1.05 1.7 1.58-.48 2.67-.22 5.22 1.13 7.62.29.5.5 1.06 1.15 1.36.34-.48.22-1.02.12-1.49-.33-1.59-.07-3.21-.36-4.8-.1-.52.07-.96.56-1.24"/><path class="cls-57" d="M615.45 600.7c-2.62 3.39-6.21 5.43-10.04 7.02-4.81 2-9.87 2.97-15.07 2.65-8.1-.49-15.53-2.87-21.64-8.49-.28-.25-.49-.59-.73-.9 5.76-3.29 8-8.74 9.06-14.87.22-1.29.27-2.61.41-3.91.24-.78-.39-1.96.36-2.3.95-.43 1.59.73 2.26 1.28 3.88 3.21 8.32 5.1 13.34 5.3 4.17.16 7.93-1.27 11.35-3.64.43-.3.85-1.16 1.55-.31.3 4.77 1.38 9.32 3.96 13.41 1.3 2.05 2.96 3.71 5.19 4.76"/><path class="cls-64" d="M603.14 502.26c.11 1.38-.8 2.38-1.37 3.46-3.28 6.17-7.74 11.38-13.24 15.71-2.64 2.07-5.31 4.07-8.25 5.68-.59.55-1.2.16-1.79.05-3.5-.64-6.66.19-9.55 2.18-.56.39-1.03.89-1.35 1.5-.17.32-.23.65.07.93.29.27.62.24.94.07.3-.17.53-.42.79-.64 1.44-1.22 3.09-2.05 4.91-2.48.91-.22 1.9-.53 2.76.25-.59.71-1.41 1.1-2.22 1.46-3.82 1.74-7.66 3.46-11.49 5.17-.56.25-1.18.41-1.77.61-.19-1.53.27-3 .29-4.51 0-.9.76-1.16 1.44-1.46 7.33-3.24 14.37-7 21-11.52 6.61-4.51 12.67-9.59 17.18-16.3.53-.79 1.04-1.01 1.67-.15m3.13 80.27c-1.16-.01-1.8.96-2.65 1.49-2.93 1.82-6.12 2.86-9.5 2.87-5.05.01-9.6-1.73-13.61-4.82-.27-.21-.49-.5-.79-.64-.72-.33-1.11-1.51-1.8-1.3-.78.24.04 1.45-.5 2.08v-4.36c3.31 2.01 6.86 3.35 10.72 3.88 5.35.74 10.46.01 15.34-2.28.88-.42 1.75-.85 2.62-1.27.07 1.45.13 2.91.19 4.37m19.1-41.35c.04 2.76.29 5.54-1.2 8.09-.58.99-1.39 1.67-2.39 2.68.16-3.16.54-5.97.43-8.8 1.22-.4 2.08-1.37 3.16-1.96m-63.91 2.03c-.32 1.83.01 3.65.16 5.47.07.93.13 1.83.1 2.76-.62.18-.98-.22-1.25-.59-1.82-2.47-2.55-5.23-2.15-8.27.04-.33.21-.64.54-.83.99.26 1.45 1.47 2.59 1.46m25.79 5.63h7.63c.55 0 1.09-.04 1.64-.07.36.21.43.56.45.94-.93 1.67-2.47 2.42-4.26 2.62-2.12.24-3.96-.42-5.41-2.05-.16-.19-.28-.42-.42-.63.02-.32-.01-.67.37-.82"/><path class="cls-53" d="M572.96 537.15c.09-1.1.33-2.21 1.33-3.09 1.19-1.04 2.76-1.07 4.02-.1 1.99 1.52 2.1 4.85.22 6.47a3.241 3.241 0 0 1-4.56-.33c-.73-.85-.98-1.85-1.02-2.95m37.24.01c.01 1.32-.39 2.39-1.38 3.26-1.25 1.1-3.18 1.04-4.37-.12-1.48-1.45-1.54-4.45-.12-5.96 1.37-1.45 3.49-1.42 4.8.08.74.84 1.15 1.79 1.07 2.73m-33.14-8.18c-3.02-.3-5.51.84-7.7 2.79-.36.32-.61.83-1.15.83-.5 0-.92-.28-1.21-.71-.35-.52-.07-.93.24-1.32 2.1-2.68 5.05-3.63 8.29-3.99 1.63-.18 3.17.3 4.75.54 1.31.73 2.77 1.21 3.88 2.29.56.53 1.07 1.06.47 1.87-.63.84-1.27.46-1.89 0-1.7-1.27-3.51-2.25-5.69-2.3m29.57-2.44c3.03-.08 5.55.94 7.78 2.76.41.33.77.75 1.07 1.18.4.56.27 1.13-.19 1.59-.49.5-.98.27-1.42-.1-1.32-1.09-2.62-2.19-4.32-2.66-3.29-.93-6.27-.28-8.97 1.73-.7.52-1.41 1.12-2.14.22-.8-.97 0-1.63.7-2.16 2.25-1.69 4.75-2.67 7.49-2.56"/><path class="cls-21" d="M591.79 571.55c-10.39 0-12.68-9.02-12.68-9.02-.3-1.25.76-2.01 1.69-2.01h22.05c.93 0 1.96.9 1.68 2.01 0 0-2.35 9.02-12.74 9.02"/><path class="cls-57" d="M654.1 650.68c-9.43-4.63-14.1-12.03-21.82-19.7 0 0 7.19-2.55 5.2-6.82 9.76 3.23 12.06-12.4 10.98-15.12 7.82-5.67 22.49 1 27.27 4.68-.73 9.95 1.62 21.82-1.8 31.02l3.05 29.08-24.52.22 1.64-23.37Z"/><path class="cls-57" d="M649.6 633.27s-9.04 5.87-12.13 2.63c-3.08-3.24-10.73-9.97-13.83-11.69-.89-.5-1.87-1.02-2.99-1.59-.92-.47-2.65-1.18-2.82-2.33-.19-1.27 1.85-3.52 7.57-2.45 3.17.6 5.33 1.96 7.31 3.16 1.79 1.09 4.1 2.83 7.75 4.34 2.1 1.62 9.13 7.93 9.13 7.93Z"/><path class="cls-42" d="M630.83 623.04c.56.21 1.68.01 1.99-.5l.6-1.78-.81-.4-13.74-1.86 11.95 4.55Z"/><path class="cls-57" d="m674.91 624.36 1.43-18.49.35-16.86c.02-.9-.74-1.64-1.64-1.57-2.39.17-4.06 2.54-3.74 7.72l-.4 8.16-4.72 19.71 8.72 1.33Z"/><path class="cls-57" d="m669.3 621.12 1.48-22.87-.59-21.11c-.03-.95-.83-1.69-1.79-1.64-3.14.17-5.23 3.18-4.49 9.8l-.06 13.57-4.58 21.21 10.04 1.04Z"/><path class="cls-57" d="m665.58 616.07-4.06-22.55-5.66-20.39a1.64 1.64 0 0 0-2.01-1.15c-3.08.87-4.44 4.3-2.11 10.63l3.2 13.18.65 21.69 9.99-1.4Z"/><path class="cls-57" d="M658.14 613.44c-.95-7.66-2.08-15.11-6.97-18.43l-22.03-4.98c-1.35-.25-2.26 3.34.66 5.94 1.36 1.21 4.66 2.14 7.13 2.49l9.59 2.88 3.48 13.77 8.15-1.67Z"/><path class="cls-42" d="M662.82 643.65c-.06.02-.25-.3-.54-.9-.07-.15-.15-.32-.23-.5-.09-.18-.19-.38-.29-.59-.21-.42-.43-.91-.72-1.42-.14-.26-.28-.53-.43-.82-.15-.28-.33-.57-.5-.86l-.27-.45c-.05-.08-.09-.16-.14-.23-.05-.08-.1-.15-.15-.23-.2-.31-.4-.63-.61-.95-.87-1.28-1.9-2.65-3.08-3.99a40.859 40.859 0 0 0-3.6-3.53c-.3-.25-.59-.49-.87-.72l-.21-.18c-.07-.06-.14-.11-.21-.16-.14-.11-.28-.21-.42-.32-.28-.21-.54-.42-.8-.6s-.52-.36-.76-.53c-.48-.35-.93-.62-1.32-.88-.2-.13-.38-.25-.55-.36-.17-.11-.33-.2-.47-.29-.56-.35-.86-.58-.83-.64.03-.06.39.05 1.01.3.16.06.33.14.52.22.19.08.38.19.6.29.42.22.92.45 1.43.77.26.15.53.32.81.49.28.17.56.37.85.57.15.1.29.2.45.31.08.05.15.1.23.16.07.06.15.11.22.17.3.23.61.47.92.71 1.23 1.01 2.53 2.2 3.75 3.58a32.83 32.83 0 0 1 3.1 4.15c.2.34.4.68.6 1 .05.08.1.16.14.24.05.08.09.16.13.24.08.16.17.32.25.48.16.32.33.61.46.91.13.3.26.59.39.86.26.54.43 1.06.6 1.51.08.22.16.43.22.63s.11.38.15.54c.18.65.24 1.02.18 1.04Z"/><path class="cls-42" d="M658.52 635.5c-.13-.02-.12-.78.13-1.96.03-.15.07-.3.11-.46.04-.16.09-.32.14-.5.09-.34.22-.7.35-1.08.28-.75.63-1.56 1.06-2.38.44-.82.92-1.56 1.39-2.21.24-.32.47-.62.7-.89.12-.14.22-.27.34-.39.11-.12.22-.24.33-.35.84-.87 1.47-1.29 1.56-1.2.21.21-1.79 2.35-3.44 5.5-1.69 3.13-2.36 5.98-2.65 5.92Zm6.09-14.94c.03.06-.17.21-.55.41-.09.05-.2.11-.32.17-.12.06-.25.11-.39.17-.28.12-.6.26-.96.38-.18.06-.37.13-.57.2-.2.07-.41.12-.63.19-.43.13-.91.24-1.4.35-1 .2-2.11.36-3.28.44-1.18.06-2.3.03-3.31-.05-.51-.05-.99-.1-1.43-.18-.22-.04-.44-.07-.64-.11-.2-.04-.4-.09-.59-.13-.38-.08-.71-.18-1-.27-.15-.04-.28-.08-.41-.13-.12-.05-.23-.09-.33-.13-.4-.16-.61-.28-.59-.35.02-.07.26-.07.68-.03.11.01.22.03.35.04.13.01.27.03.41.05.3.03.63.09 1 .12l.58.06c.2.02.41.03.63.05.44.04.9.06 1.4.09.98.03 2.06.04 3.2-.02 1.13-.07 2.2-.2 3.18-.35.48-.08.95-.16 1.38-.25.21-.04.42-.08.62-.13s.39-.09.57-.13c.37-.08.69-.17.98-.23.15-.03.28-.06.41-.09.12-.03.24-.06.34-.08.41-.09.66-.12.68-.05Zm-9.55-20.74s.32 6.54.35 7.62c.03 1.07-.39 1.08-.44-.15-.05-1.24-.32-8.28-.32-8.28l.41.82Zm8.06 2.46s-1.07 5.1-1.39 6.05-.44.44-.31-.11 1.58-6.52 1.58-6.52l.13.58Zm7.17 3.52s-.95 3.52-1.09 3.91-.58.57-.35-.12c.22-.69 1.49-4.62 1.49-4.62l-.05.83Zm2.92 5.69c0-.1-.23-.16-.55-.25-.16-.05-.35-.11-.55-.18a5.614 5.614 0 0 1-1.24-.66c-.18-.13-.33-.25-.46-.35-.26-.21-.43-.36-.52-.31-.08.04-.04.29.16.62.1.16.24.34.43.52.19.17.41.34.67.48.26.14.53.23.78.29.25.05.48.07.67.06.39-.02.61-.13.6-.21Zm1.77-15.42c-.06-.18-.84-.06-1.77-.12-.93-.05-1.68-.26-1.77-.09-.04.08.11.25.42.41.31.16.77.31 1.31.34.53.03 1.01-.06 1.34-.19.33-.13.5-.27.47-.36Zm-2.12 8.11c.53.06 1.02.01 1.36-.09.34-.1.53-.23.51-.31-.04-.18-.84-.14-1.79-.26-.95-.11-1.71-.34-1.8-.17-.04.08.11.25.42.42.3.17.77.34 1.3.41Zm-7.84 5.04c-1.49-.31-2.58-.97-2.68-.81-.05.07.17.34.61.65.22.15.5.31.82.45.32.14.69.26 1.09.35.4.08.79.12 1.15.13.36 0 .68-.02.95-.07.54-.09.86-.25.85-.33-.02-.19-1.3-.04-2.78-.38Zm-.11-22.53c.4.12.97.21 1.6.2.63-.01 1.2-.12 1.59-.26.39-.13.61-.28.59-.37-.05-.18-1.02-.06-2.2-.04-1.18.03-2.15-.06-2.2.12-.02.09.21.23.61.34Zm2.5 11.97c.27-.08.51-.17.69-.27.38-.2.56-.39.52-.47-.09-.17-1 .16-2.15.21-1.15.07-2.09-.17-2.17 0-.03.08.17.26.57.41.2.08.44.15.72.19.28.04.59.06.91.05.32-.02.63-.07.9-.14Zm-7.22 9.64c-.1.01-.22.03-.34.03-.12.01-.25.02-.39.02-.27 0-.57 0-.88-.03-.31-.03-.6-.09-.86-.15-.13-.03-.26-.06-.37-.1-.12-.03-.23-.07-.32-.1-.4-.13-.66-.23-.71-.15-.05.07.12.31.5.57.1.06.2.13.33.19.12.07.26.12.4.17.29.1.62.18.98.22.35.03.7.02 1-.02.15-.03.3-.05.43-.09.13-.03.25-.08.36-.12.43-.18.64-.38.61-.46-.04-.09-.31-.05-.73 0Zm-6.03-25.83c-1.16.34-2.15.42-2.16.61 0 .09.25.19.68.22.43.03 1.03-.01 1.66-.19.63-.18 1.17-.46 1.51-.72.35-.26.51-.47.46-.55-.11-.16-1 .3-2.16.63Zm5.36 11.99c-.07-.07-.31.09-.67.29-.09.05-.19.11-.3.16-.11.06-.23.11-.35.17-.25.1-.53.21-.83.29-.3.08-.6.12-.87.15-.14 0-.27.03-.39.03h-.34c-.42 0-.7-.02-.73.07-.03.08.21.26.66.39.11.03.24.06.38.08.14.02.29.03.44.04.31 0 .66-.03 1.01-.12s.67-.23.94-.38c.13-.08.26-.16.37-.25.11-.08.21-.17.29-.25.34-.33.45-.61.39-.67Zm-9.79 3.4c-.09-.02-.22.22-.43.58-.1.18-.23.39-.38.61-.16.22-.33.45-.54.68-.21.23-.42.43-.63.6-.21.17-.4.32-.57.44-.34.24-.57.39-.54.48.03.08.32.09.75-.07.22-.08.46-.2.72-.37.25-.17.51-.39.75-.65s.43-.54.57-.81c.14-.27.24-.53.29-.75.11-.45.08-.74 0-.76Zm1.68 10.68c-1.41.3-2.6.19-2.64.38-.02.09.27.23.78.32.25.05.56.07.89.07a5.891 5.891 0 0 0 2.15-.44c.31-.13.58-.27.8-.41.43-.28.64-.53.59-.6-.11-.16-1.16.41-2.57.68Z"/><path class="cls-64" d="M639.62 595.44c-.02-.42-.14-.67-.22-.66-.19.02-.21.97-.75 1.95-.51.99-1.26 1.59-1.16 1.75.05.07.31.01.66-.22.35-.23.78-.65 1.08-1.22.15-.29.25-.58.32-.86.06-.28.08-.53.07-.74Z"/><path class="cls-54" d="M604.86 587.29c-.88-.3-1.87.26-2.21 1.26l-6.83 19.93c-.34 1 .09 2.05.98 2.35l34.23 11.73c.88.3 1.87-.26 2.21-1.26l6.83-19.93c.34-1-.09-2.05-.98-2.35l-34.23-11.73Z"/><path class="cls-21" d="M604.46 586.26c-.88-.3-1.87.26-2.21 1.26l-6.83 19.93c-.34 1 .09 2.05.98 2.35l34.23 11.73c.88.3 1.87-.26 2.21-1.26l6.83-19.93c.34-1-.09-2.05-.98-2.35l-34.23-11.73Z"/><path class="cls-10" d="M604.46 586.26c-.88-.3-1.87.26-2.21 1.26l-1.03 3 37.42 12.82 1.03-3c.34-1-.09-2.05-.98-2.35l-34.23-11.73Z"/><path class="cls-52" transform="rotate(-71.09 607.513 603.099)" d="M599.65 596.03h15.81v14.16h-15.81z"/><g style="clip-path:url(#clippath-3)"><path class="cls-53" d="m602.06 604.61-.03-.64c-.01-.37 0-.73.11-1.09.16-.53.53-.89.99-1.17.14-.08.29-.17.44-.24.65-.32 1.07-.85 1.33-1.51.15-.38.22-.79.32-1.18.32-1.26 1.07-2.11 2.33-2.49.48-.14.96-.08 1.44.04.34.08.67.18.98.33.41.2.63.52.64.97 0 .07.02.09.09.11.48.12.82.41 1.04.84.37.74.39 1.51.12 2.29-.15.43-.38.82-.6 1.22-.21.37-.36.76-.31 1.21.03.27.13.52.27.75.19.3.33.63.37.98.07.55-.12 1.03-.44 1.46-.2.27-.44.51-.67.74-.05.04-.09 0-.13-.01-.48-.22-.95-.46-1.42-.69-.13-.06-.27-.12-.39-.2-.09-.05-.17-.07-.26-.02-.14-.05-.19-.17-.23-.29-.1-.23-.13-.47-.11-.72.02-.18.03-.37.1-.54.04-.09.03-.2.09-.29.04-.05.1-.06.15-.08.63-.19 1.1-.58 1.44-1.14.08-.13.08-.13.22-.08.07.02.14.02.21 0 .28-.07.56-.4.58-.69v-.12c-.02-.13-.03-.14-.16-.09-.04.01-.08.03-.11.04-.07.03-.13.04-.2.06-.04 0-.07.02-.1-.02 0-.13.06-.25.09-.37.17-.69.18-1.37 0-2.05-.09-.34-.23-.66-.45-.94-.04-.06-.09-.03-.13 0-.12.08-.24.16-.36.23-.35.21-.74.34-1.13.46-.61.18-1.24.28-1.88.34-.06 0-.11.02-.13.08-.04.11-.11.2-.13.32-.06.15-.09.31-.17.45-.05.04-.08 0-.11-.02-.03-.03-.05-.08-.08-.12-.04-.07-.09-.13-.12-.21-.03-.07-.07-.07-.13-.03a.49.49 0 0 0-.19.28c-.06.24-.04.47.07.69.05.09.11.17.21.19.1.03.13.1.11.19-.06.44 0 .86.16 1.27.07.18.17.34.28.5.03.05.07.08.07.15-.02.1-.06.19-.09.28-.13.38-.34.7-.67.93-.15.11-.31.2-.5.19 0 0-.02-.01-.02-.02-.08-.14-.09-.14-.19-.01-.24.31-.34.67-.41 1.05-.05.26-.09.52-.18.77-.21.57-.6.97-1.11 1.26-.33.19-.68.27-1.06.25-.12 0-.24-.04-.36-.05-.12-.03-.24-.08-.34-.15-.05-.05-.03-.09.01-.13.04-.04.09-.08.13-.12.28-.21.47-.5.59-.82.19-.48.21-1 .2-1.51 0-.27-.02-.54-.04-.81 0-.09-.03-.19 0-.28"/><path class="cls-48" d="M608.26 606.32c.08-.07.15-.06.24-.02.64.32 1.28.63 1.93.94.02 0 .04 0 .05.01.09.06.18.13.27.19.03.02.07.04.08.08-.27.51-.62.97-.99 1.41-.35.42-.63.88-.8 1.4-.06.18-.11.37-.12.56-.02.55-.27 1-.6 1.42-.14.19-.32.33-.5.49-.02.02-.05.04-.06.06a7.8 7.8 0 0 1-.97-.13 14.17 14.17 0 0 1-2.98-.82c-.58-.23-1.15-.49-1.7-.8-.3-.17-.6-.33-.88-.52-.08-.22-.11-.45-.12-.68-.02-.39.03-.77.17-1.14.05-.14.11-.27.23-.37.1.02.2.04.31.04.62.04 1.13-.2 1.58-.61.45-.41.68-.92.76-1.52.05-.38.15-.75.36-1.08.04-.06.09-.12.13-.18.02-.03.04-.08.09-.07.05.01.07.05.09.11 0 .02.01.04.02.06.08.08.12.19.18.28.25.35.58.61.96.8.5.26 1.03.34 1.59.26.19-.03.38-.07.56-.17.04-.02.07-.03.12-.03"/><path class="cls-55" d="M607.77 612.87s-.03-.05 0-.07c.24-.18.46-.39.63-.64.17-.24.31-.49.4-.76.05-.15.06-.31.08-.46.03-.37.15-.72.31-1.06.26-.53.64-.98 1.01-1.43.22-.26.39-.56.55-.86.02-.03.02-.06.07-.06.45.45.62.98.48 1.59-.21.87-.45 1.73-.67 2.6l-.3 1.16c-.01.05-.03.07-.09.07-.82.03-1.64 0-2.46-.08h-.03"/><path class="cls-48" d="M601.33 608.06s-.09.07-.13.11c-.03.02-.05.05-.03.09 0 .02 0 .03-.01.04-.39.5-.56 1.1-.69 1.71 0 .02 0 .04-.02.06-.37-.26-.72-.54-1.06-.82-.05-.04-.06-.08-.03-.14.22-.52.44-1.04.67-1.55.12-.28.25-.57.37-.85.17-.41.32-.82.52-1.22.24-.47.63-.77 1.16-.87.02.09.03.18.02.27-.01.05-.05.08-.08.12-.18.23-.27.47-.22.77.08.5.07 1-.07 1.49-.08.29-.2.57-.39.8"/><path class="cls-55" d="M600.45 610.07c-.04-.07 0-.15.01-.21.08-.35.19-.69.34-1.01.08-.18.15-.37.29-.51.03-.03.05-.05.08-.07.12.05.24.1.36.16-.09.18-.2.35-.26.54-.1.35-.13.7-.11 1.05.01.18.04.35.09.52v.08c-.28-.16-.54-.35-.8-.54"/><path class="cls-57" d="m605.81 600.9.18-.5c.08-.05.18-.03.27-.04.34-.04.68-.06 1.01-.12.15.03.24.13.33.24.04.04.07.14.14.09.07-.05-.01-.12-.04-.17-.04-.07-.13-.11-.15-.2.02-.05.08-.04.11-.05.63-.15 1.22-.39 1.74-.8.14-.11.26-.24.4-.37.22.25.35.55.44.86.21.72.2 1.44.03 2.16-.03.12-.06.25-.1.37.02.13-.06.23-.09.34-.03.07-.06.13-.09.2.14-.04.28-.18.34-.36.03-.08.04-.18.12-.25.07-.03.14-.05.2-.09.06-.03.08 0 .09.05.04.14.03.28-.03.42-.1.24-.27.4-.5.5-.11.05-.22.05-.33 0-.04-.02-.07-.03-.1.02-.36.64-.89 1.05-1.59 1.25-.01 0-.02 0-.03.01-.03.02-.06.04-.09.04-.31.05-.61.04-.92-.05-.33-.1-.62-.26-.86-.49a.498.498 0 0 1-.17-.23c-.44-.57-.61-1.22-.51-1.94 0-.05.01-.09-.06-.11-.16-.03-.25-.14-.31-.29-.09-.26-.12-.51.02-.77.02-.04.04-.08.07-.11.14-.16.17-.15.27.03.03.05.05.1.08.15a.88.88 0 0 0-.11.57c0 .04 0 .09.05.13.04-.03.04-.07.04-.1.02-.12.07-.23.09-.35 0-.04.03-.07.07-.07"/><path class="cls-57" d="M608.26 606.32c-.27.18-.58.24-.89.25-.39.03-.78-.03-1.14-.18-.57-.23-1.04-.58-1.34-1.14-.01-.02-.02-.05-.03-.08.49-.09.78-.43 1.01-.84.05-.09.08-.18.12-.27.04-.05.02-.15.08-.16.08 0 .1.09.13.15.2.32.47.57.82.7.29.11.6.1.9.02.04-.01.09-.06.12.02-.09.35-.13.7-.04 1.05.04.18.12.34.25.47"/><path class="cls-64" d="M609.79 598.99c-.03.1-.12.15-.18.21-.39.36-.83.62-1.33.8-.24.08-.48.16-.73.2-.05.03-.09-.02-.13-.04a.932.932 0 0 0-.73-.08c-.05.01-.09.04-.13.07-.02.02-.03.04-.02.07.01.03.04.03.07.03.02 0 .05-.02.07-.03.13-.05.27-.07.41-.06.07 0 .15 0 .19.08-.06.04-.13.04-.19.05l-.95.09H606c.02-.11.09-.21.13-.32.02-.06.08-.06.14-.07.6-.05 1.2-.15 1.78-.31.58-.16 1.14-.37 1.62-.74.06-.04.1-.05.12.03"/><path class="cls-55" d="M601.33 608.06c.06-.15.15-.28.22-.43.15-.31.21-.63.24-.96.03-.32 0-.64-.04-.97-.04-.33.1-.6.34-.82.06.68.11 1.36-.05 2.03-.11.46-.32.86-.71 1.15"/><path class="cls-64" d="M608.05 604.8c-.08-.03-.15.03-.23.04-.25.06-.51.05-.75-.03-.36-.12-.64-.36-.85-.68-.01-.02-.02-.05-.04-.07-.04-.04-.04-.14-.1-.14-.06 0-.03.1-.09.14.04-.1.07-.21.11-.31.19.23.41.41.67.54.36.18.75.26 1.15.21.07 0 .15-.02.22-.03l-.09.32m2.38-2.47c-.06.2-.11.4-.28.55-.07.06-.14.09-.24.13.09-.22.18-.41.25-.62.1 0 .18-.05.27-.06m-4.62-1.42c-.07.12-.09.26-.12.39l-.06.2c-.05 0-.07-.04-.08-.07a.839.839 0 0 1 .05-.64c.01-.02.03-.04.06-.05.06.04.07.14.15.17m1.71 1.03.55.19.12.03c.02.02.02.05 0 .08-.11.1-.23.11-.37.08a.46.46 0 0 1-.34-.28c0-.02-.01-.04-.01-.06 0-.02.01-.05.05-.05"/><path class="cls-53" d="M606.78 600.75c.03-.08.08-.15.17-.19.11-.04.22 0 .29.09.1.16.03.4-.14.47a.25.25 0 0 1-.32-.13.393.393 0 0 1 0-.24m2.66.91c-.03.09-.09.16-.18.2-.12.05-.25 0-.31-.11-.07-.14 0-.36.14-.43.13-.07.28-.01.34.12.03.08.04.16 0 .22m-2.16-1.4c-.21-.1-.41-.07-.62.01-.03.01-.06.04-.1.03s-.06-.04-.07-.08c-.01-.05.02-.07.05-.09.22-.14.45-.14.69-.08.12.03.22.1.33.16.08.08.17.15.22.26.03.05.05.1-.01.14-.07.04-.1 0-.13-.05-.09-.13-.2-.25-.35-.3m2.16.55c.22.07.37.2.49.39.02.03.04.07.05.11.02.05 0 .09-.05.11-.05.02-.08 0-.1-.04-.07-.11-.13-.22-.24-.3a.72.72 0 0 0-.68-.09c-.06.02-.13.04-.16-.04-.03-.09.04-.12.1-.14.2-.07.4-.07.6 0"/><path class="cls-21" d="M607.28 603.66c-.74-.25-.68-.95-.68-.95 0-.1.1-.13.17-.1l1.57.54c.07.02.12.11.07.19 0 0-.39.59-1.13.33"/></g><path class="cls-52" transform="rotate(-71.09 626.254 603.16)" d="M624.42 593.8h3.77v18.73h-3.77z"/><path class="cls-52" transform="rotate(18.91 622.028 616.042)" d="M612.57 615.45h18.73v.91h-18.73z"/><path class="cls-52" transform="rotate(18.91 619.657 613.66)" d="M613.21 613.09h12.75v.91h-12.75z"/><path class="cls-52" transform="rotate(18.91 619.057 611.908)" d="M613.75 611.32h10.44v.91h-10.44z"/><path class="cls-52" transform="rotate(18.91 621.859 611.318)" d="M614.09 610.73h15.38v.91h-15.38z"/><path class="cls-52" transform="rotate(18.91 620.763 609.372)" d="M614.66 608.8h12.02v.91h-12.02z"/><path class="cls-52" transform="rotate(18.91 620.488 607.72)" d="M615.18 607.15h10.44v.91h-10.44z"/><path class="cls-52" transform="rotate(18.91 619.658 605.884)" d="M615.73 605.3h7.67v.91h-7.67z"/><text transform="rotate(18.91 -1471.394 2122.184)" style="font-size:2.82px;font-family:PublicSans-Bold,'Public Sans';font-weight:700;fill:#fff"><tspan x="0" y="0">DRIV</tspan><tspan x="6.84" y="0" style="letter-spacing:0">E</tspan><tspan x="8.64" y="0">R’S LIC</tspan><tspan x="18.44" y="0" style="letter-spacing:0">E</tspan><tspan x="20.24" y="0">NSE</tspan></text><path class="cls-57" d="M627.98 592.97c.75 3.4 4.05 4.03 8.46 3.42l-8.46-3.42Z"/><path class="cls-42" d="M672.86 648.54s-.08 0-.2.04c-.11.05-.28.13-.49.22-.42.19-1.04.42-1.84.59-.8.16-1.77.25-2.86.21-1.09-.03-2.28-.19-3.56-.36-1.27-.16-2.51-.29-3.66-.25-1.14.03-2.17.23-2.99.52-.82.29-1.43.66-1.8.97l-.24.21c-.07.06-.12.12-.16.17-.08.1-.12.16-.1.18.02.02.08 0 .2-.06l.47-.26c.41-.22 1.01-.49 1.8-.7.79-.21 1.76-.33 2.84-.33 1.08 0 2.28.14 3.55.3 1.27.16 2.5.3 3.64.3 1.14 0 2.17-.15 3-.39.83-.25 1.46-.58 1.86-.85.1-.07.18-.14.26-.19.07-.06.13-.12.17-.16.09-.09.13-.15.11-.17Z"/></g><path class="cls-3" d="M718.26 644.27c-22.67 20.99-53.01 33.81-86.34 33.81-70.21 0-127.13-56.92-127.13-127.13s56.92-127.13 127.13-127.13c29.97 0 57.53 10.37 79.26 27.73"/><path class="cls-27" d="M824.57 517.08c16.78 0 30.39-13.6 30.39-30.39s-13.61-30.38-30.39-30.38-30.39 13.6-30.39 30.38c0 16.79 13.61 30.39 30.39 30.39"/><path class="cls-21" d="m824.01 497.93 15.97-15.97a4.593 4.593 0 0 0 0-6.49 4.605 4.605 0 0 0-6.5 0l-12.72 12.72-5.1-5.1a4.605 4.605 0 0 0-6.5 0c-1.79 1.79-1.79 4.71 0 6.49l8.34 8.35a4.59 4.59 0 0 0 6.5 0"/><circle class="cls-18" cx="632.86" cy="149.62" r="127.13"/><g style="clip-path:url(#clippath-4)"><path d="M687.63 114.93c-.72-.82-.66-2.09.14-2.83l3.01-2.78c.8-.74 5.44-3.81 6.16-2.99.72.82-2.74 5.22-3.54 5.96l-3.01 2.78c-.8.74-2.05.67-2.77-.14Z" style="fill:#fd6846"/><path class="cls-25" d="M702.87 120.38c-.63-.9-.42-2.15.45-2.79l3.29-2.41c.88-.64 2.15-1.73 3.29.08s-.13 2.53-1.01 3.17l-3.29 2.41c-.88.64-2.11.43-2.74-.46Zm5.05 11.08c-.58-.93-.32-2.17.59-2.77l3.41-2.24c.91-.6 1.69-1.33 2.9.37 1.21 1.7.13 2.4-.78 3l-3.41 2.24c-.91.6-2.13.33-2.71-.6Zm1.8 17.1c-.5-.79-.27-1.84.5-2.35l2.89-1.91c.77-.51 2.2-1.82 3.24-.32s-.66 2.67-1.43 3.18l-2.89 1.91c-.77.51-1.81.28-2.3-.51Z"/><path class="cls-57" d="M684.76 161.95c.05 2.7-.67 5.21-2.4 7.25-.62.74-2.83 3.64-3.73 4.25-10.43 7.11-14.54 10.59-17.31 16.33-.46.95-7.4 31.6-7.77 32.57h-31.28c3.04-6.45 13.3-42.51 14.03-44.45 16.99-45.39 18.95-34.71 24.18-39.38 1.74-1.56 4.12-1.68 6.7-.77 2.37.82 4.91 2.51 7.3 4.73.43.4.85.81 1.27 1.24 2.48 2.54 4.74 5.63 6.37 8.84 1.59 3.13 2.59 6.39 2.64 9.4Z"/><path class="cls-57" d="M674.55 166.12c.97-1.87 2.27-3.25 3.68-4.5 1.44-1.21 2.94-2.33 4.51-3.36 1.57-1.04 3.2-1.98 4.85-2.92 1.66-.93 3.32-1.85 5.06-2.73.87-.44 1.76-.86 2.68-1.26.46-.2.93-.39 1.42-.57.24-.09.49-.18.74-.27l.69-.23c1.54-.47 3.14-1.12 4.73-1.83 1.59-.72 3.18-1.51 4.75-2.35 1.57-.82 3.16-1.71 4.66-2.6l.05-.03c1.26-.75 2.88-.31 3.62.98.68 1.2.35 2.73-.72 3.54-3.06 2.3-6.13 4.39-9.47 6.31-1.67.96-3.39 1.87-5.28 2.66l-.59.25c-.18.07-.35.15-.53.24-.36.16-.73.34-1.09.53-.74.38-1.48.79-2.22 1.23-1.48.87-2.96 1.83-4.41 2.86-1.45 1.03-2.87 2.12-4.32 3.16a85.023 85.023 0 0 1-4.46 3.02c-1.54.93-3.19 1.75-5.11 2.15l-.1.02c-1.57.32-3.1-.72-3.41-2.32-.14-.7-.02-1.39.28-1.98Z"/><path class="cls-57" d="M672.84 158.31c-.13-3.06 1.22-4.65 2.59-6.22 1.35-1.6 2.82-3.06 4.38-4.45 1.57-1.38 3.19-2.71 4.79-4.08 1.61-1.37 3.2-2.74 4.97-4.1.42-.34.92-.69 1.39-1.03.24-.18.47-.34.7-.48l.68-.45 2.64-1.68c1.75-1.11 3.51-2.17 5.27-3.25 3.52-2.14 7.05-4.25 10.61-6.31 1.27-.74 2.89-.28 3.61 1.02.65 1.17.35 2.63-.64 3.44-3.18 2.62-6.38 5.21-9.58 7.78l-4.78 3.86-2.35 1.92-.56.47c-.19.16-.37.31-.52.46-.33.3-.65.58-1 .93a93.32 93.32 0 0 0-4.13 4.25c-1.37 1.48-2.67 3.05-4.01 4.59-1.35 1.53-2.75 3.01-4.27 4.37-1.5 1.39-3 2.77-5.96 2.71h-.06c-2.03-.04-3.66-1.7-3.75-3.74Z"/><g class="cls-28"><path class="cls-31" d="M680.34 148.21a29.208 29.208 0 0 1-9.79 14.07c-.34.26.14.73.47.47 4.67-3.67 8.16-8.7 9.96-14.36.13-.41-.51-.58-.64-.18Zm.44 3.86c-1.74 5.09-3.4 10.21-4.99 15.36-.13.41.52.59.64.18 1.59-5.14 3.25-10.26 4.99-15.36.14-.41-.5-.58-.64-.18Z"/></g><path class="cls-57" d="M664.29 152.69c-.15-3.31 1.21-5.27 2.69-7.12 1.44-1.88 2.97-3.7 4.59-5.44 1.62-1.74 3.34-3.39 5.08-5.02 1.76-1.63 3.51-3.26 5.39-4.87.46-.4.93-.8 1.43-1.2.51-.4.95-.8 1.51-1.2l.81-.6.4-.3.37-.25 1.47-.96c1.97-1.26 3.92-2.54 5.91-3.77 3.94-2.51 7.94-4.94 11.98-7.3 1.27-.75 2.9-.3 3.63 1.01.63 1.12.39 2.52-.51 3.35l-.02.02c-3.43 3.2-6.91 6.33-10.43 9.39-1.75 1.54-3.53 3.05-5.3 4.57l-1.33 1.13-.33.28-.27.25-.55.5c-.36.31-.75.73-1.13 1.09-.38.37-.76.76-1.14 1.17-3.08 3.18-5.95 6.83-8.98 10.28-1.53 1.72-3.12 3.4-4.76 5.03-1.61 1.66-3.32 3.23-6.49 3.49h-.08c-2 .17-3.76-1.36-3.92-3.4v-.13Z"/><path class="cls-57" d="M656.64 148.03c.34-5.01 2.79-8.56 5.33-12.08 1.32-1.73 2.78-3.36 4.32-4.95.78-.8 1.56-1.59 2.38-2.39.39-.4.83-.79 1.26-1.19l.63-.58.58-.52c3.1-2.76 6.15-5.65 9.28-8.45 3.1-2.82 6.22-5.65 9.38-8.42 1.11-.98 2.79-.85 3.74.29.85 1.01.84 2.47.06 3.47-2.62 3.33-5.3 6.6-8.01 9.84a268.72 268.72 0 0 1-4.1 4.84l-4.18 4.81-.53.6-.46.56c-.3.37-.6.72-.89 1.12-.6.76-1.17 1.58-1.75 2.39-1.13 1.66-2.25 3.36-3.46 5-2.5 3.24-4.87 6.6-9.18 8.64l-.09.04c-1.52.72-3.33.04-4.04-1.51a3.13 3.13 0 0 1-.27-1.52Z"/><rect class="cls-33" x="663.16" y="72.28" width="45.92" height="87.97" rx="3.39" ry="3.39"/><rect class="cls-54" x="652.03" y="96.25" width="68.19" height="41.45" rx="1.07" ry="1.07" transform="rotate(-90 686.125 116.975)"/><g style="clip-path:url(#clippath-5)"><path class="cls-53" d="M668.06 128.18c-.31-.78-.63-1.55-.93-2.34-.52-1.36-.94-2.74-.99-4.21-.07-2.19.83-4 2.2-5.62.42-.5.86-.99 1.32-1.45 2.01-2.04 2.9-4.53 3.03-7.34.07-1.62-.17-3.22-.31-4.82-.43-5.09 1.3-9.23 5.49-12.24 1.6-1.15 3.49-1.54 5.41-1.7 1.36-.11 2.72-.19 4.09-.03 1.78.22 3.01 1.13 3.65 2.81.1.26.2.32.49.3 1.93-.17 3.59.49 4.94 1.82 2.34 2.3 3.37 5.15 3.38 8.41 0 1.8-.37 3.55-.69 5.3-.3 1.67-.38 3.31.39 4.9.47.97 1.14 1.78 1.97 2.46 1.09.89 2.03 1.91 2.65 3.19.96 1.97.85 3.99.21 6.02-.4 1.26-.98 2.44-1.55 3.63-.14.2-.34.13-.52.11-2.06-.22-4.11-.5-6.17-.75-.58-.07-1.15-.12-1.72-.23-.38-.07-.72-.03-1.01.24-.57 0-.91-.4-1.24-.76-.66-.73-1.08-1.61-1.32-2.56-.18-.7-.37-1.4-.33-2.13.02-.4-.16-.8-.05-1.2.08-.23.28-.36.47-.5 2.1-1.51 3.35-3.57 3.91-6.07.13-.58.13-.58.69-.59.29 0 .54-.1.78-.25.95-.61 1.58-2.22 1.3-3.3-.04-.15-.09-.3-.17-.45-.23-.47-.31-.49-.71-.14-.12.1-.25.2-.37.3-.21.18-.45.32-.67.48-.12.08-.24.19-.39.06-.16-.49-.11-1-.15-1.51-.25-2.77-1.06-5.34-2.62-7.67-.77-1.16-1.71-2.16-2.88-2.93-.24-.17-.37 0-.49.17-.32.46-.69.9-1.05 1.33-1.05 1.24-2.32 2.23-3.64 3.16-2.06 1.46-4.27 2.64-6.57 3.66-.21.09-.39.22-.39.47-.02.45-.15.89-.08 1.34-.01.63.06 1.26-.05 1.89-.12.22-.29.14-.44.05-.16-.09-.3-.23-.45-.33-.25-.2-.52-.38-.73-.62-.21-.23-.35-.17-.51.06-.27.39-.37.84-.33 1.28.07.96.44 1.8 1.15 2.47.29.28.63.47 1.05.45.42-.02.6.19.67.58.34 1.7 1.09 3.2 2.21 4.53.49.58 1.07 1.06 1.67 1.51.17.13.38.22.44.46.06.39 0 .78.02 1.16-.01 1.57-.39 3.04-1.3 4.33-.41.58-.89 1.14-1.63 1.36a.238.238 0 0 1-.11-.06c-.46-.42-.51-.41-.72.2-.5 1.46-.4 2.95-.2 4.43.14 1.04.32 2.06.3 3.11-.05 2.38-.99 4.38-2.53 6.14a7.452 7.452 0 0 1-3.62 2.3c-.47.13-.94.17-1.41.25-.5.04-.99.01-1.48-.12-.24-.12-.24-.3-.13-.51.11-.2.23-.4.35-.6.77-1.16 1.1-2.45 1.17-3.81.09-2.06-.51-3.98-1.19-5.88-.36-1.01-.78-2-1.19-2.99-.12-.35-.37-.66-.37-1.05"/><path class="cls-48" d="M693.34 126.63c.19-.35.47-.43.87-.37 2.8.37 5.6.71 8.4 1.05.07 0 .14-.02.21-.03.42.13.85.25 1.27.38.15.05.31.07.42.19-.34 2.25-1.06 4.39-1.89 6.51-.78 2-1.22 4.09-1.21 6.25 0 .75.04 1.52.26 2.24.63 2.08.26 4.08-.42 6.06-.3.87-.77 1.66-1.23 2.45-.06.1-.14.19-.14.32-1.25.33-2.51.55-3.78.77-4.02.71-8.07.93-12.14.76-2.46-.1-4.91-.35-7.34-.81-1.32-.24-2.65-.48-3.95-.82-.59-.72-.97-1.54-1.31-2.39-.57-1.43-.87-2.92-.81-4.47.02-.58.07-1.16.38-1.67.4-.07.8-.13 1.19-.23 2.37-.63 3.98-2.18 5.13-4.28s1.34-4.31.88-6.62c-.29-1.49-.41-2.99-.05-4.49.07-.28.16-.56.26-.83.05-.14.07-.34.26-.36.21-.02.35.11.45.28.04.07.1.14.16.2.4.19.67.55 1.02.8 1.39.97 2.92 1.53 4.59 1.77 2.2.32 4.28-.04 6.25-1.04.69-.35 1.33-.77 1.87-1.34a1 1 0 0 1 .39-.28"/><path class="cls-55" d="M699.89 151.67c-.21-.05-.15-.13-.06-.27.67-.99 1.2-2.05 1.54-3.19.32-1.1.53-2.22.52-3.37 0-.63-.16-1.23-.31-1.83-.34-1.43-.35-2.88-.17-4.34.29-2.32 1.13-4.47 1.95-6.63.48-1.26.75-2.57.97-3.9.02-.13.01-.27.19-.29 2.25 1.08 3.57 2.86 3.81 5.33.33 3.51.55 7.03.82 10.55.12 1.56.24 3.12.37 4.69.02.21-.02.31-.23.39a72.875 72.875 0 0 1-9.26 2.86c-.04.01-.09 0-.13.01"/><path class="cls-48" d="M669.72 141.99c-.11.19-.23.38-.35.57-.08.13-.14.25.01.36.02.06.02.11 0 .17-.81 2.38-.7 4.81-.37 7.25.01.09.03.17 0 .26-1.7-.49-3.36-1.1-5.02-1.71-.26-.09-.32-.23-.3-.48.17-2.21.33-4.43.5-6.64.09-1.21.19-2.43.28-3.64.13-1.74.16-3.48.39-5.21.27-2.07 1.38-3.66 3.2-4.73.2.3.33.64.44.99 0 .19-.07.36-.14.54-.37 1.07-.41 2.11.15 3.15.95 1.76 1.52 3.64 1.65 5.63.08 1.19-.02 2.37-.44 3.5"/><path class="cls-55" d="M669.01 150.6c-.24-.22-.2-.55-.23-.82-.14-1.4-.19-2.8-.03-4.2.08-.77.09-1.56.43-2.28.06-.13.14-.25.21-.38.52.04 1.03.07 1.55.11-.12.78-.32 1.55-.26 2.36.09 1.41.39 2.77.95 4.06.28.64.59 1.25.99 1.83a.5.5 0 0 1 .07.29c-1.24-.25-2.46-.61-3.67-.97"/><path class="cls-57" d="M677.3 109.54c0-.7.01-1.4.02-2.09.24-.3.63-.32.95-.47 1.21-.57 2.46-1.08 3.63-1.73.59-.09 1.06.19 1.53.47.19.12.44.43.62.15.19-.29-.19-.41-.37-.57-.25-.22-.62-.25-.82-.54.03-.22.23-.24.37-.33 2.18-1.35 4.06-3.03 5.45-5.21.38-.6.67-1.25 1-1.87 1.13.65 1.99 1.59 2.74 2.63 1.71 2.4 2.6 5.09 2.86 8.01.04.5.08 1.01.09 1.52.23.45.09.94.09 1.4 0 .29-.06.58-.09.86.48-.34.8-1.04.83-1.78.01-.36-.08-.73.11-1.07.22-.19.44-.37.65-.58.18-.18.29-.11.41.07.33.48.48 1.01.45 1.6-.07 1-.48 1.84-1.21 2.52-.34.32-.77.47-1.24.4-.19-.03-.3-.01-.34.2-.52 2.83-1.97 5.07-4.35 6.7-.04.02-.07.06-.1.09-.08.1-.16.2-.28.26-1.09.57-2.24.94-3.48.99-1.34.06-2.63-.17-3.85-.72-.34-.15-.7-.3-.92-.63-2.39-1.57-3.82-3.78-4.39-6.57-.04-.19-.07-.37-.35-.33-.64.09-1.13-.21-1.52-.68-.68-.84-1.09-1.77-.92-2.88.03-.17.07-.34.14-.5.31-.75.45-.78 1.03-.24.17.16.34.31.51.47-.14.79-.07 1.55.34 2.27.09.15.15.32.34.41.1-.14.07-.3.04-.44-.1-.47-.02-.95-.11-1.43-.03-.15.02-.28.17-.37"/><path class="cls-57" d="M693.34 126.63c-.78 1.01-1.85 1.61-2.99 2.09-1.43.6-2.94.88-4.48.79-2.41-.15-4.62-.85-6.44-2.52-.08-.07-.15-.18-.22-.27 1.71-.98 2.38-2.6 2.7-4.42.07-.38.08-.78.12-1.16.07-.23-.11-.58.11-.69.28-.13.47.22.67.38 1.15.95 2.47 1.52 3.97 1.58 1.24.05 2.36-.38 3.38-1.08.13-.09.25-.34.46-.09.09 1.42.41 2.77 1.18 3.99.39.61.88 1.1 1.54 1.41"/><path class="cls-64" d="M689.68 97.36c.03.41-.24.71-.41 1.03-.98 1.84-2.3 3.38-3.94 4.67-.78.61-1.58 1.21-2.45 1.69-.17.16-.36.05-.53.02-1.04-.19-1.98.06-2.84.65-.17.11-.31.26-.4.45-.05.09-.07.19.02.28.09.08.18.07.28.02.09-.05.16-.13.24-.19.43-.36.92-.61 1.46-.74.27-.07.57-.16.82.07-.18.21-.42.33-.66.43-1.14.52-2.28 1.03-3.42 1.54-.17.07-.35.12-.53.18-.06-.45.08-.89.09-1.34 0-.27.22-.35.43-.43 2.18-.96 4.27-2.08 6.24-3.43 1.97-1.34 3.77-2.85 5.11-4.85.16-.23.31-.3.5-.04"/><path class="cls-55" d="M669.72 141.99c.04-.63.2-1.25.28-1.88.17-1.33-.04-2.62-.33-3.91-.29-1.25-.83-2.4-1.38-3.55-.57-1.19-.41-2.36.22-3.48 1.1 2.45 2.13 4.93 2.4 7.63.19 1.84-.11 3.62-1.18 5.19"/><path class="cls-64" d="M690.62 121.23c-.35 0-.54.29-.79.44-.87.54-1.82.85-2.83.85-1.5 0-2.86-.52-4.05-1.43-.08-.06-.15-.15-.23-.19-.21-.1-.33-.45-.54-.39-.23.07.01.43-.15.62v-1.3c.99.6 2.04 1 3.19 1.15 1.59.22 3.11 0 4.56-.68.26-.12.52-.25.78-.38l.06 1.3m5.69-12.28c.01.82.09 1.65-.36 2.4-.17.29-.41.5-.71.8.05-.94.16-1.78.13-2.62.36-.12.62-.41.94-.58m-19.01.6c-.09.54 0 1.09.05 1.63.02.28.04.54.03.82-.18.05-.29-.07-.37-.17-.54-.73-.76-1.56-.64-2.46.01-.1.06-.19.16-.25.3.08.43.44.77.43m7.67 1.68h2.27c.16 0 .32-.01.49-.02.11.06.13.17.13.28-.28.5-.73.72-1.27.78-.63.07-1.18-.13-1.61-.61-.05-.06-.08-.13-.13-.19 0-.09 0-.2.11-.24"/><path class="cls-53" d="M680.71 107.73c.03-.33.1-.66.4-.92.35-.31.82-.32 1.2-.03.59.45.62 1.44.07 1.92-.4.34-1.01.3-1.36-.1-.22-.25-.29-.55-.3-.88m11.06.01c0 .39-.12.71-.41.97-.37.33-.95.31-1.3-.04-.44-.43-.46-1.32-.04-1.77.41-.43 1.04-.42 1.43.02.22.25.34.53.32.81m-9.86-2.42c-.9-.09-1.64.25-2.29.83-.11.09-.18.25-.34.25-.15 0-.27-.08-.36-.21-.1-.15-.02-.28.07-.39.63-.8 1.5-1.08 2.46-1.19.48-.05.94.09 1.41.16.39.22.82.36 1.15.68.17.16.32.32.14.56-.19.25-.38.14-.56 0-.5-.38-1.04-.67-1.69-.69m8.8-.73c.9-.02 1.65.28 2.31.82.12.1.23.22.32.35.12.17.08.33-.06.47-.15.15-.29.08-.42-.03-.39-.32-.78-.65-1.28-.79-.98-.28-1.86-.08-2.67.52-.21.15-.42.33-.64.07-.24-.29 0-.48.21-.64.67-.5 1.41-.79 2.23-.76"/><path class="cls-21" d="M686.31 117.96c-3.09 0-3.77-2.68-3.77-2.68-.09-.37.22-.6.5-.6h6.56c.28 0 .58.27.5.6 0 0-.7 2.68-3.79 2.68"/></g><path d="M665.4 139.76v10.18c0 .63.51 1.13 1.13 1.13h39.18c.63 0 1.13-.51 1.13-1.13v-10.18h-41.45Z" style="fill:#bbb"/><path class="cls-33" d="M666.39 151.07h39.42c.58 0 1.05-.47 1.05-1.05v-4.63c-.52-2-1.08-3.92-1.67-5.63h-39.78v10.33c0 .55.44.99.99.99Z" style="opacity:.85"/><circle class="cls-21" cx="686.25" cy="145.41" r="2.59" transform="rotate(-64.85 686.27 145.407)"/><circle cx="686.25" cy="145.41" r="2.86" transform="rotate(-64.85 686.27 145.407)" style="stroke-width:.18px;stroke:#fff;stroke-miterlimit:10;fill:none"/><rect x="669.95" y="142.72" width="5.39" height="5.39" rx=".29" ry=".29" style="fill:#212121;opacity:.4;mix-blend-mode:multiply"/><circle class="cls-33" cx="699.85" cy="145.41" r="2.59" transform="rotate(-64.85 699.868 145.406)" style="opacity:.4;mix-blend-mode:multiply"/><path class="cls-5" d="M698.45 144.84c.23-.54.77-.92 1.39-.92.83 0 1.51.68 1.51 1.51"/><path class="cls-21" d="m701.35 145.76.34-.4h-.68l.34.4z"/><path class="cls-5" d="M701.25 145.99c-.23.54-.77.92-1.39.92-.83 0-1.51-.68-1.51-1.51"/><path class="cls-21" d="m698.35 145.06-.34.41h.68l-.34-.41z"/><path style="stroke-linecap:round;fill:#fff;stroke:#58595b;stroke-width:1.91px" d="M678.95 78.26h10.37"/><circle cx="692.35" cy="78.26" r=".95" style="fill:#58595b"/><g class="cls-28"><path class="cls-31" d="M653.26 144.35c2.04-2.57 4.33-3.12 6.64-3.51 14.95-2.84 15.23-4.14 29.55.46.23.02-.24 1.07-.99 2.38-2.46 4.32-9.29 1.31-13.12 1.23-3.31-.07-13.45 10.15-14.97 10.22-2.28.15-2.57-.35-6.47-1.68l-1.2-1.61c-1.61-1.24-.73-5.76.48-7.4a.7.7 0 0 1 .08-.1Z"/></g><path class="cls-57" d="M652.64 143.34c2.04-2.57 4.33-3.12 6.64-3.51 14.95-2.84 15.23-4.14 29.55.46.23.02-.24 1.07-.99 2.38-2.46 4.32-9.29 1.31-13.12 1.23-3.31-.07-13.07 9.46-14.97 10.22s-5.35-.16-5.85-.66l-1.95-1.99c-1.61-1.24-.6-6.39.61-8.03a.7.7 0 0 1 .08-.1Z"/><path class="cls-25" d="M681.13 139.41c.2-.8 1.09-1.26 1.98-1.02l3.33.88c.89.23 2.64.54 2.44 1.34l-.34 1.05c-.2.8-1.95.74-2.84.51l-3.33-.88c-.89-.23-1.45-1.08-1.25-1.87Z"/><path class="cls-34" d="M674.89 224.68c-8.19-9.29-25.31-15.42-42.05-19.38-2.77-.66-6.42-1.39-9.94-2.06-6.84-1.29-11.8-7.25-11.85-14.2l-.07-9.91h-42.12l.3 10.43c.2 7-4.6 13.16-11.44 14.65-3.33.72-6.75 1.52-10.17 2.38-15.34 3.89-30.72 9.21-38.11 15.99-9.01 8.26-10.64 44.9-10.88 57.13h183.93c.14-11.93.33-46.05-7.59-55.04Z"/><path d="M629.09 137.15c0 27.17-17.59 55.57-39.3 55.57s-39.3-28.4-39.3-55.57 17.59-48.13 39.3-48.13 39.3 20.96 39.3 48.13Z" style="fill:#ef998e"/><path class="cls-34" d="M629.09 136.06c0 27.16-17.59 54.48-39.3 54.48s-39.3-27.31-39.3-54.48 17.59-48.13 39.3-48.13 39.3 20.96 39.3 48.13Z"/><path class="cls-48" d="M682.48 279.72H498.55c.25-12.23 1.88-48.88 10.88-57.13 4.67-4.29 12.54-10.09 21.58-13.22 5.25-1.82 15.91-4.77 35.88-.77 10.46 2.09 34.44 4.32 44.75 1.6 23.93-6.31 34.55-1.4 40.73.92 9.39 3.52 17.58 7.97 22.52 13.58 7.92 8.98 7.73 43.1 7.59 55.04Z"/><path class="cls-48" d="M682.48 279.72h-46.22c-2.39-6.81-3.75-14.69-3.75-23.08 0-21.42 8.88-39.48 21.01-45.1 8.91 3.45 16.64 7.77 21.38 13.14 7.92 8.98 7.73 43.11 7.59 55.04Z"/><path class="cls-53" d="M590.53 61.9c4.09 2.08 8.87 2.98 12.17 11.71 45.96-3.6 43.21 48.8 43.14 49.19-3.92 21.91-13.43 34.64-5.93 58.95 8.3 26.9-12.33 63.38-40.26 81.18-24.31 15.48-61.53 12.79-74.32-.8-33.39-35.47 10.39-52.74 4-75.12-11.78-41.23 3.65-45.24 5.49-76.84 3.61-57.89 51.62-50.36 55.72-48.28Z"/><path class="cls-55" d="M682.48 279.72h-46.22c-2.39-6.81-3.75-14.69-3.75-23.08 0-21.42 8.88-39.48 21.01-45.1 8.91 3.45 16.64 7.77 21.38 13.14 7.92 8.98 7.73 43.11 7.59 55.04Z"/></g><circle class="cls-3" cx="632.86" cy="149.62" r="127.13"/><path class="cls-54" d="M697.51 182.62c-2.44 0-4.42 2.24-4.42 5v55.19c0 2.76 1.98 5 4.42 5h94.77c2.44 0 4.42-2.24 4.42-5v-55.19c0-2.76-1.98-5-4.42-5h-94.77Z"/><path class="cls-21" d="M695.65 180.4c-2.44 0-4.42 2.24-4.42 5v55.19c0 2.76 1.98 5 4.42 5h94.77c2.44 0 4.42-2.24 4.42-5V185.4c0-2.76-1.98-5-4.42-5h-94.77Z"/><path class="cls-10" d="M695.65 180.4c-2.44 0-4.42 2.24-4.42 5v8.32h103.61v-8.32c0-2.76-1.98-5-4.42-5h-94.77Z"/><path class="cls-52" d="M699.09 198.81h37.09v41.41h-37.09z"/><g style="clip-path:url(#clippath-6)"><path class="cls-53" d="M705.3 227.91c-.21-.52-.42-1.03-.62-1.56-.34-.9-.63-1.82-.66-2.8-.05-1.45.55-2.66 1.46-3.73.28-.33.57-.66.88-.96 1.34-1.35 1.93-3.01 2.01-4.88.05-1.07-.11-2.13-.21-3.2-.29-3.39.87-6.13 3.65-8.13 1.07-.76 2.32-1.02 3.6-1.13.9-.08 1.81-.13 2.71-.02 1.18.15 2 .75 2.42 1.87.07.18.13.21.33.2 1.28-.11 2.38.33 3.28 1.21 1.56 1.52 2.24 3.43 2.24 5.58 0 1.19-.24 2.36-.46 3.52-.2 1.11-.25 2.2.26 3.26.31.64.76 1.18 1.31 1.63.73.59 1.35 1.27 1.76 2.12.64 1.31.56 2.65.14 4-.26.84-.66 1.63-1.03 2.41-.09.14-.22.09-.34.08-1.37-.15-2.73-.34-4.1-.5-.38-.05-.76-.08-1.14-.15-.25-.05-.47-.02-.67.16-.38 0-.61-.27-.82-.51-.44-.49-.72-1.07-.88-1.7-.12-.46-.24-.93-.22-1.42.02-.27-.11-.53-.03-.8.06-.16.19-.24.31-.33 1.4-1 2.23-2.37 2.6-4.04.09-.38.09-.38.46-.39.19 0 .36-.07.52-.17.63-.4 1.05-1.47.86-2.2-.03-.1-.06-.2-.11-.3-.16-.31-.21-.32-.47-.09-.08.07-.17.13-.24.2-.14.12-.3.21-.44.32-.08.05-.16.12-.26.04-.11-.33-.07-.67-.1-1-.17-1.84-.71-3.55-1.74-5.09a6.953 6.953 0 0 0-1.91-1.95c-.16-.11-.24 0-.33.11-.22.31-.46.6-.7.88-.7.82-1.54 1.48-2.42 2.1-1.37.97-2.84 1.75-4.36 2.43-.14.06-.26.14-.26.31-.01.3-.1.59-.05.9-.01.42.04.84-.03 1.25-.08.15-.19.09-.29.03-.11-.06-.2-.15-.3-.22-.16-.14-.34-.25-.48-.41-.14-.15-.24-.11-.34.05-.18.26-.24.56-.22.85.05.64.29 1.2.76 1.64.2.18.42.31.7.3.28-.01.4.13.45.38.23 1.13.72 2.13 1.47 3.01.33.38.71.7 1.11 1.01.12.09.25.15.29.31.04.26 0 .52.02.77 0 1.04-.26 2.02-.86 2.88-.27.39-.59.76-1.08.9-.03 0-.06-.02-.08-.04-.3-.28-.34-.27-.48.13-.33.97-.27 1.96-.13 2.94.1.69.22 1.37.2 2.07-.04 1.58-.66 2.91-1.69 4.08-.65.74-1.45 1.25-2.41 1.53-.31.09-.63.11-.94.17-.33.02-.66 0-.98-.08-.16-.08-.16-.2-.09-.34s.15-.27.23-.4c.51-.77.73-1.63.78-2.54.06-1.36-.34-2.64-.79-3.9-.24-.67-.52-1.33-.79-1.98-.08-.23-.24-.44-.25-.7"/><path class="cls-48" d="M722.1 226.88c.13-.23.31-.28.58-.25 1.86.24 3.72.47 5.58.7.05 0 .09-.01.14-.02.28.08.56.16.84.25.1.03.2.05.28.13-.23 1.5-.7 2.92-1.25 4.33-.52 1.33-.81 2.72-.81 4.15 0 .5.03 1.01.17 1.49.42 1.38.17 2.71-.27 4.03-.2.58-.51 1.1-.82 1.63-.04.07-.09.13-.09.21-.83.22-1.67.37-2.51.51-2.67.47-5.36.62-8.07.5-1.64-.07-3.26-.24-4.88-.54-.88-.16-1.76-.32-2.62-.55-.39-.47-.64-1.02-.87-1.59-.38-.95-.58-1.94-.54-2.97.02-.38.05-.77.25-1.11.27-.05.53-.08.79-.15 1.57-.42 2.64-1.45 3.41-2.84.76-1.39.89-2.86.59-4.4-.2-.99-.27-1.98-.04-2.98.05-.19.11-.37.18-.55.03-.09.04-.23.17-.24.14-.02.23.07.3.19.03.05.07.09.1.14.27.12.44.37.68.53.92.64 1.94 1.02 3.05 1.18 1.46.21 2.84-.03 4.15-.69.46-.23.89-.51 1.24-.89.07-.08.15-.15.26-.18"/><path class="cls-55" d="M726.46 243.52c-.14-.03-.1-.09-.04-.18.44-.66.79-1.36 1.02-2.12.21-.73.35-1.47.35-2.24 0-.41-.11-.81-.2-1.22-.23-.95-.24-1.92-.12-2.88.19-1.54.75-2.97 1.3-4.41.32-.84.5-1.71.64-2.59.02-.09 0-.18.12-.2 1.5.72 2.38 1.91 2.53 3.55.22 2.33.37 4.67.54 7 .08 1.04.16 2.08.25 3.11.01.14-.02.21-.15.26a49.1 49.1 0 0 1-6.15 1.9h-.09"/><path class="cls-48" d="M706.41 237.09c-.08.13-.15.25-.23.38-.06.08-.09.16 0 .24.02.04.02.08 0 .11-.54 1.58-.46 3.2-.25 4.82 0 .06.02.11 0 .17-1.13-.32-2.23-.73-3.34-1.14-.17-.06-.21-.15-.2-.32l.33-4.41c.06-.81.13-1.62.19-2.42.08-1.16.11-2.32.26-3.46.18-1.37.91-2.43 2.12-3.14.13.2.22.43.29.66 0 .13-.05.24-.09.36-.25.71-.27 1.4.1 2.09.63 1.17 1.01 2.41 1.1 3.74.06.79-.01 1.57-.29 2.33"/><path class="cls-55" d="M705.94 242.81c-.16-.15-.14-.36-.15-.54-.09-.93-.12-1.86-.02-2.79.06-.52.06-1.04.29-1.52.04-.09.09-.17.14-.25.34.03.69.05 1.03.08-.08.52-.21 1.03-.17 1.56.06.94.26 1.84.63 2.7.18.43.4.84.66 1.22.04.06.05.12.05.19-.82-.17-1.63-.41-2.44-.65"/><path class="cls-57" d="M711.45 215.53v-1.39c.18-.2.43-.21.64-.32.81-.38 1.63-.71 2.41-1.15.39-.06.7.12 1.02.31.13.08.29.28.41.1.13-.19-.13-.27-.25-.38-.17-.14-.41-.16-.54-.36.02-.14.15-.16.24-.21 1.45-.9 2.7-2.01 3.62-3.46.26-.4.45-.83.67-1.24.75.43 1.32 1.06 1.82 1.75 1.14 1.59 1.72 3.39 1.9 5.32.03.34.05.67.06 1.01.15.3.06.62.06.93 0 .19-.04.38-.06.57.32-.22.53-.69.55-1.18.01-.24-.05-.48.08-.71.14-.13.29-.25.43-.38.12-.12.19-.07.27.05.22.32.32.67.29 1.06-.04.67-.32 1.22-.8 1.67-.23.21-.51.31-.83.26-.12-.02-.2 0-.22.14-.35 1.88-1.31 3.37-2.89 4.45l-.06.06c-.06.07-.11.14-.19.18-.72.38-1.49.62-2.31.66-.89.04-1.74-.11-2.56-.48-.23-.1-.46-.2-.61-.42-1.59-1.04-2.54-2.52-2.92-4.36-.03-.12-.05-.24-.23-.22-.42.06-.75-.14-1.01-.45-.45-.55-.73-1.17-.61-1.91.02-.11.05-.23.09-.34.21-.5.3-.52.69-.16.11.11.22.21.34.31-.09.53-.05 1.04.22 1.51.06.1.1.21.23.27.07-.1.04-.2.02-.3-.06-.31-.02-.63-.07-.95-.02-.1.02-.19.11-.24"/><path class="cls-57" d="M722.1 226.88c-.52.67-1.23 1.07-1.98 1.39-.95.4-1.95.59-2.98.53-1.6-.1-3.06-.57-4.28-1.68-.05-.05-.09-.12-.14-.18 1.14-.65 1.58-1.72 1.79-2.94.05-.26.06-.52.08-.77.05-.15-.08-.39.07-.46.19-.09.31.14.45.25.77.63 1.64 1.01 2.64 1.05.82.03 1.57-.25 2.24-.72.08-.06.17-.23.3-.06.06.94.27 1.84.78 2.65.26.41.58.73 1.02.94"/><path class="cls-64" d="M719.67 207.43c.02.27-.16.47-.27.68a9.803 9.803 0 0 1-2.62 3.11c-.52.41-1.05.81-1.63 1.12-.11.11-.24.03-.35.01-.69-.13-1.31.03-1.89.43-.11.08-.2.17-.27.3-.03.06-.05.13.02.18.06.05.12.05.19.01.06-.03.11-.08.15-.12.28-.24.61-.41.97-.49.18-.04.37-.1.54.05-.12.14-.28.22-.44.29-.76.34-1.51.69-2.27 1.02-.11.05-.23.08-.35.12-.04-.3.05-.59.05-.89 0-.18.15-.23.29-.29 1.45-.64 2.84-1.38 4.15-2.28 1.3-.89 2.5-1.89 3.39-3.22.11-.15.2-.2.33-.03"/><path class="cls-55" d="M706.41 237.09c.03-.42.13-.83.18-1.25.11-.88-.03-1.74-.22-2.59-.19-.83-.55-1.59-.92-2.36-.38-.79-.27-1.57.14-2.32.73 1.63 1.42 3.28 1.6 5.07.12 1.22-.07 2.4-.78 3.45"/><path class="cls-64" d="M720.3 223.29c-.23 0-.35.19-.52.29-.58.36-1.21.56-1.88.57-1 0-1.9-.34-2.69-.95-.05-.04-.1-.1-.15-.13-.14-.06-.22-.3-.36-.26-.15.05 0 .28-.1.41v-.86c.66.4 1.36.66 2.12.77 1.05.14 2.06 0 3.03-.45.18-.08.35-.17.52-.25.02.29.03.58.04.86m3.76-8.16c0 .55.06 1.09-.24 1.6-.12.2-.27.33-.47.53.03-.63.11-1.18.08-1.74.24-.08.41-.27.63-.39m-12.62.4c-.06.36 0 .72.03 1.08.02.18.03.36.02.55-.12.03-.2-.05-.25-.12-.36-.49-.5-1.03-.43-1.63.01-.06.05-.13.11-.17.2.05.29.29.51.29m5.1 1.11h1.51c.11 0 .21 0 .32-.02.07.05.08.11.09.19-.18.33-.49.48-.84.52-.42.05-.79-.08-1.07-.41a.834.834 0 0 1-.08-.12c0-.06 0-.13.07-.16"/><path class="cls-53" d="M713.71 214.32c.02-.22.06-.44.26-.61.23-.2.55-.21.79-.02.39.3.41.96.05 1.28-.26.23-.67.2-.9-.06-.15-.17-.19-.37-.2-.58m7.36 0c0 .26-.08.47-.27.64-.25.22-.63.21-.86-.02-.29-.29-.3-.88-.03-1.18a.62.62 0 0 1 .95.02c.15.17.23.35.21.54m-6.55-1.62c-.59-.06-1.09.17-1.52.55-.07.06-.12.16-.23.16s-.18-.06-.24-.14c-.07-.1-.01-.18.05-.26.42-.53 1-.72 1.64-.79.32-.03.63.06.94.11.26.14.55.24.77.45.11.11.21.21.09.37-.12.17-.25.09-.37 0-.34-.25-.69-.44-1.13-.46m5.84-.47c.6-.02 1.1.18 1.54.55.08.06.15.15.21.23.08.11.05.22-.04.31-.1.1-.19.06-.28-.02-.26-.21-.52-.43-.85-.53-.65-.18-1.24-.05-1.77.35-.14.1-.28.22-.43.04-.16-.19 0-.32.14-.43.44-.34.94-.53 1.48-.51"/><path class="cls-21" d="M717.43 221.12c-2.05 0-2.5-1.78-2.5-1.78-.06-.25.15-.4.33-.4h4.36c.18 0 .39.18.34.4 0 0-.47 1.78-2.52 1.78"/></g><path class="cls-52" d="M739.59 198.82h49.06v9.86h-49.06zm0 39.02h49.06v2.38h-49.06zm0-3.86h33.39v2.38h-33.39zm0-3.85h27.33v2.38h-27.33zm0-3.86h40.29v2.38h-40.29zm0-3.86h31.49v2.38h-31.49zm0-3.85h27.33v2.38h-27.33zm0-3.86h20.09v2.38h-20.09z"/><text transform="translate(709.65 189.81)" style="font-family:PublicSans-Bold,'Public Sans';font-weight:700;font-size:7.38px;fill:#fff"><tspan x="0" y="0">DRIV</tspan><tspan class="cls-46" x="17.92" y="0">E</tspan><tspan x="22.62" y="0">R’S LIC</tspan><tspan class="cls-46" x="48.3" y="0">E</tspan><tspan x="53.01" y="0">N</tspan><tspan x="58.78" y="0" style="letter-spacing:0">S</tspan><tspan x="63.88" y="0">E</tspan></text><path class="cls-27" d="M730.5 103.27c16.78 0 30.39-13.6 30.39-30.39 0-16.78-13.61-30.38-30.39-30.38s-30.39 13.6-30.39 30.38c0 16.79 13.61 30.39 30.39 30.39"/><path class="cls-21" d="m729.94 84.12 15.97-15.97a4.593 4.593 0 0 0 0-6.49 4.605 4.605 0 0 0-6.5 0l-12.72 12.72-5.1-5.1a4.605 4.605 0 0 0-6.5 0c-1.79 1.79-1.79 4.71 0 6.49l8.34 8.35a4.59 4.59 0 0 0 6.5 0"/><path class="cls-7" d="M272.11 348.18h60.34c13.5 0 24.44-13.15 24.44-29.37V173.97c0-16.22 10.94-29.37 24.44-29.37h123.69"/><path class="cls-32" d="M272.68 359.46c-6.23 0-11.28-5.05-11.28-11.28s5.05-11.28 11.28-11.28 11.28 5.05 11.28 11.28-5.05 11.28-11.28 11.28Z"/><circle class="cls-32" cx="504.45" cy="144.59" r="11.28" transform="rotate(-37.98 504.48 144.586)"/><path class="cls-7" d="M272.11 348.72h60.34c13.5 0 24.44 13.15 24.44 29.37v144.84c0 16.22 10.94 29.37 24.44 29.37h123.69"/><path class="cls-32" d="M272.68 360c-6.23 0-11.28-5.05-11.28-11.28s5.05-11.28 11.28-11.28 11.28 5.05 11.28 11.28S278.91 360 272.68 360Zm231.77 203.59c6.23 0 11.28-5.05 11.28-11.28s-5.05-11.28-11.28-11.28-11.28 5.05-11.28 11.28 5.05 11.28 11.28 11.28Z"/><path class="cls-7" d="M1059.18 348.72h-60.34c-13.5 0-24.44 13.15-24.44 29.37v144.84c0 16.22-10.94 29.37-24.44 29.37H826.27"/><path class="cls-32" d="M1058.62 337.45c6.23 0 11.28 5.05 11.28 11.28s-5.05 11.28-11.28 11.28-11.28-5.05-11.28-11.28 5.05-11.28 11.28-11.28ZM826.84 541.03c-6.23 0-11.28 5.05-11.28 11.28s5.05 11.28 11.28 11.28 11.28-5.05 11.28-11.28-5.05-11.28-11.28-11.28Z"/><path class="cls-7" d="M1059.18 348.18h-60.34c-13.5 0-24.44-13.15-24.44-29.37V173.97c0-16.22-10.94-29.37-24.44-29.37H760.35"/><path class="cls-32" d="M1058.62 336.9c6.23 0 11.28 5.05 11.28 11.28s-5.05 11.28-11.28 11.28-11.28-5.05-11.28-11.28 5.05-11.28 11.28-11.28Z"/><circle class="cls-32" cx="760.92" cy="144.59" r="11.28" transform="rotate(-26.57 760.778 144.597)"/></g></g></svg>