<svg width="1400" height="700" viewBox="0 0 1400 700" fill="none" xmlns="http://www.w3.org/2000/svg">
<g clip-path="url(#clip0_101_1685)">
<rect width="1400" height="700" fill="white"/>
<path d="M532 352L423.055 351.125C409.876 351.019 399.248 340.306 399.248 327.126V159.215C399.248 145.877 388.372 135.097 375.033 135.216L280 136.066" stroke="#C6D1DD" stroke-width="6"/>
<path d="M1141 571L1031.53 570.116C1018.35 570.01 1007.72 559.296 1007.72 546.117V376.217C1007.72 362.877 996.844 352.098 983.505 352.218L888 353.076" stroke="#C6D1DD" stroke-width="6"/>
<path d="M705.5 531C799.741 531 876 454.482 876 360C876 265.518 799.741 189 705.5 189C611.259 189 535 265.518 535 360C535 454.482 611.259 531 705.5 531Z" fill="#F2F9FF"/>
<path fill-rule="evenodd" clip-rule="evenodd" d="M572.573 185H716.427C725.708 185 733 192.311 733 201.616V403H556V201.616C556 192.311 563.292 185 572.573 185Z" fill="white"/>
<path d="M705.5 185C801.557 185 879 263.259 879 359.5C879 455.741 801.224 534 705.5 534C609.776 534 532 455.741 532 359.5C532 263.259 609.776 185 705.5 185ZM707.494 199.32C618.418 199.32 546.292 271.917 546.292 361.498C546.292 451.079 618.418 523.677 707.494 523.677C796.571 523.677 868.696 451.079 868.696 361.498C868.696 271.917 796.571 199.32 707.494 199.32Z" fill="url(#paint0_linear_101_1685)"/>
<path d="M764.62 394H845.38C849.021 394 852 391 852 387.333V271.667C852 268 849.021 265 845.38 265H764.62C760.979 265 758 268 758 271.667V387.333C758 391 760.979 394 764.62 394Z" fill="#A8B6C6"/>
<path d="M776.667 317H832.333C836 317 839 314.019 839 310.375V216.625C839 212.981 836 210 832.333 210H776.667C773 210 770 212.981 770 216.625V310.375C770 314.019 773 317 776.667 317Z" fill="#A8B6C6"/>
<path fill-rule="evenodd" clip-rule="evenodd" d="M830 265H820.787V218H830V265ZM816.181 265H806.968V226.606H816.181V265ZM802.361 265H793.148V226.606H802.361V265ZM788.213 265H779V218H788.213V265Z" fill="#EBF3FA"/>
<path d="M805 317C788.333 317 775 330.333 775 347C775 363.667 788.667 377 805 377C821.333 377 835 363.667 835 347C835 330.333 821.333 317 805 317Z" fill="#EBF3FA"/>
<path fill-rule="evenodd" clip-rule="evenodd" d="M884.487 387C899.069 387 911 399.057 911 413.792V431.208C911 445.943 899.069 458 884.487 458H738V387H884.487Z" fill="#EBF3FA"/>
<path d="M742.624 439L749.261 427.45L755.898 438.67L762.204 434.05L754.239 424.15L765.854 420.85L763.531 413.92L752.248 418.87L753.243 406H745.611L746.606 418.87L735.655 413.92L733 420.85L744.947 424.15L736.65 434.38L742.956 439H742.624ZM780.124 439L786.761 427.45L793.398 438.67L799.704 434.05L791.739 424.15L803.354 420.85L801.031 413.92L789.748 418.87L790.743 406H783.111L784.106 418.87L773.155 413.92L770.832 420.85L782.779 424.15L774.482 434.38L780.788 439H780.124ZM817.624 439L824.261 427.45L830.898 438.67L837.204 434.05L829.239 424.15L840.854 420.85L838.531 413.92L827.248 418.87L828.243 406H820.611L821.606 418.87L810.655 413.92L808 420.85L819.947 424.15L811.65 434.38L817.956 439H817.624ZM859.77 439L866.407 427.45L873.044 438.67L879.35 434.05L871.385 424.15L883 420.85L880.677 413.92L869.394 418.87L870.389 406H862.757L863.752 418.87L852.801 413.92L850.146 420.85L862.093 424.15L853.796 434.38L860.102 439H859.77Z" fill="#112E51"/>
<path fill-rule="evenodd" clip-rule="evenodd" d="M572.574 185H718.094C722.404 185 726.713 186.333 730.028 189C733.011 191.667 735 195 735 198.333V325H556V198.333C556 194.667 557.657 191.333 560.972 189C563.956 186.333 568.265 185 572.906 185H572.574Z" fill="white"/>
<path d="M696.344 183.332V187.322C696.344 198.293 687.371 206.936 676.404 206.936H608.94C598.305 206.936 589.665 198.625 589 187.987V183H696.012L696.344 183.332ZM644.5 321.963C647.823 321.963 650.482 324.622 650.482 327.947C650.482 331.271 647.823 333.931 644.5 333.931C620.572 333.931 600.964 353.545 600.964 377.481C600.964 401.418 620.24 421.032 644.5 421.032C668.76 421.032 688.036 401.418 688.036 377.481C688.036 353.545 690.695 371.497 694.018 371.497C697.341 371.497 700 374.157 700 377.481C700 408.066 675.407 433 644.832 433C614.257 433 589.665 408.066 589.665 377.481C589.665 346.896 614.257 321.963 644.832 321.963H644.5Z" fill="#A8B6C6"/>
<path d="M598.907 263.333V258.667H594.266C593.271 258.667 591.614 258.667 590.288 258.667C593.934 254.667 597.581 250.333 597.581 246.333C597.581 242.333 594.597 239 589.956 239C585.315 239 584.321 240.333 582 242.667L584.984 245.667C586.31 244.333 587.304 243.333 588.962 243.333C590.619 243.333 592.277 244.667 592.277 247C592.277 250.333 587.967 254.333 582 260V263H598.244L598.907 263.333ZM617.803 263.333V259H613.493V240H609.515C607.858 241 606.2 241.667 603.879 242V245.333H608.189V259H603.216V263.333H618.134H617.803ZM628.742 263.667C633.384 263.667 637.362 261.333 637.362 256.667C637.362 252 635.373 251.667 632.721 251C635.373 249.667 636.699 248 636.699 245.667C636.699 241.667 633.384 239.333 628.742 239.333C624.101 239.333 623.438 240.333 621.449 242.333L624.101 245.667C625.427 244.333 626.753 243.667 628.411 243.667C630.068 243.667 631.395 244.667 631.395 246.333C631.395 248 630.069 249.333 625.759 249.333V253.333C630.732 253.333 632.058 254.667 632.058 256.667C632.058 258.667 630.4 259.333 628.411 259.333C626.422 259.333 624.764 258.333 623.438 257L620.786 260.333C622.444 262.333 625.096 263.667 628.742 263.667ZM663.882 263.333V259H659.573V240H655.595C653.937 241 652.279 241.667 649.959 242V245.333H654.269V259H649.296V263.333H664.214H663.882ZM675.485 263.667C680.458 263.667 683.773 261 683.773 257C683.773 253 682.115 252 679.795 251C681.452 249.667 682.778 248 682.778 245.667C682.778 241.667 679.795 239.333 675.816 239.333C671.838 239.333 668.523 241.667 668.523 245.667C668.523 249.667 669.849 250 671.507 251.333C669.186 252.667 667.529 254.333 667.529 257.333C667.529 260.333 670.844 263.667 675.485 263.667ZM676.811 249.667C674.49 248.667 672.833 247.667 672.833 246C672.833 244.333 674.159 243.333 675.485 243.333C676.811 243.333 678.469 244.667 678.469 246.333C678.469 248 677.806 248.667 677.143 249.667H676.811ZM675.485 260C673.496 260 671.838 258.667 671.838 256.667C671.838 254.667 672.501 254 673.496 253C676.479 254.333 678.469 255 678.469 257C678.469 259 677.143 260 675.485 260ZM695.375 263.667C699.685 263.667 703 260.667 703 255.667C703 250.667 700.016 248.333 696.038 248.333C692.06 248.333 692.723 249.333 691.397 250.667C691.397 245.333 693.718 243.333 696.038 243.333C698.359 243.333 699.022 244 699.685 245L702.669 241.667C701.342 240 699.022 239 696.038 239C691.066 239 686.756 243 686.756 251.667C686.756 260.333 691.066 263.333 695.707 263.333L695.375 263.667ZM695.375 259.667C693.718 259.667 692.06 258.333 691.729 254.667C692.723 253 694.049 252.333 695.375 252.333C697.033 252.333 698.359 253.333 698.359 255.667C698.359 258 697.033 259.333 695.375 259.333V259.667ZM634.378 391C639.019 391 642.997 388.667 642.997 384C642.997 379.333 641.008 379 638.356 378.333C641.008 377 642.334 375.333 642.334 373C642.334 369 639.019 366.667 634.378 366.667C629.737 366.667 629.074 367.667 627.085 369.667L629.737 373C631.063 371.667 632.389 371 634.047 371C635.704 371 637.03 372 637.03 373.667C637.03 375.333 635.704 376.667 631.395 376.667V380.667C636.367 380.667 637.693 382 637.693 384C637.693 386 636.036 386.667 634.047 386.667C632.058 386.667 630.4 385.667 629.074 384.333L626.422 387.667C628.079 389.667 630.732 391 634.378 391ZM653.937 391C658.578 391 662.556 388 662.556 382.667C662.556 377.333 659.241 375.333 655.263 375.333C651.285 375.333 653.605 375.333 652.611 376V371.667H661.562V367H648.301L647.638 379L649.959 380.667C651.285 379.667 651.948 379.333 653.274 379.333C655.595 379.333 656.921 380.667 656.921 383C656.921 385.333 655.263 386.667 652.942 386.667C650.622 386.667 649.296 385.667 647.97 384.333L645.649 387.667C647.638 389.667 649.959 391 653.937 391Z" fill="#112E51"/>
<path d="M730.014 206.644C732.676 206.977 735.338 207.643 738 207.976V482.358C738 495.344 727.685 505.667 715.04 506H714.375H636.511C631.52 503.669 626.862 501.005 622.203 498.008H714.375C723.026 498.008 729.681 491.349 730.014 482.691V482.025V206.311V206.644ZM555.986 310.869V416.093C551.993 404.772 549.331 393.117 548 381.463V345.833C549.331 333.845 551.993 322.191 555.986 311.202V310.869ZM555.986 271.244V272.243C552.991 276.905 550.329 281.899 548 286.894C550.329 281.233 552.991 276.239 555.986 271.244ZM706.056 185C713.709 185 721.695 185.666 729.016 186.665C730.68 187.997 732.343 189.995 733.674 191.993C728.683 190.994 723.692 190.328 718.701 189.995C717.37 189.662 716.039 189.329 714.708 189.329H714.042H669.121C681.433 186.665 693.744 185.333 706.056 185.333V185Z" fill="#A8B6C6"/>
<path d="M691 366C694.667 366 698 363 698 359C698 355 695 352 691 352C688.333 352 685.667 353.667 684.667 356.333C684.333 357.333 684 358 684 359C684 363 687 366 691 366Z" fill="#A8B6C6"/>
<path d="M713.375 181.333C726.352 181.333 737 191.98 737 205.288V360H729.014V204.955C729.014 196.638 722.359 189.651 714.04 188.985H713.375H570.958C562.306 188.985 554.986 195.972 554.986 204.955V359.667H547V204.955C547 191.98 557.648 181 570.625 181H713.042L713.375 181.333Z" fill="#A8B6C6"/>
<path d="M624.5 530C636.408 530 646 520.333 646 508C646 495.667 636.408 486 624.5 486C612.592 486 603 495.667 603 508C603 520.333 612.592 530 624.5 530Z" fill="#A6D5AF"/>
<path d="M735.5 209C747.408 209 757 199.333 757 187C757 174.667 747.408 165 735.5 165C723.592 165 714 174.667 714 187C714 199.333 723.592 209 735.5 209Z" fill="#FCF197"/>
<path d="M532 366C539.732 366 546 359.732 546 352C546 344.268 539.732 338 532 338C524.268 338 518 344.268 518 352C518 359.732 524.268 366 532 366Z" fill="#EBF3FA" stroke="#C6D1DD" stroke-width="5"/>
<mask id="mask0_101_1685" style="mask-type:alpha" maskUnits="userSpaceOnUse" x="12" y="11" width="250" height="250">
<path d="M137.099 260.808C205.97 260.808 261.802 204.977 261.802 136.105C261.802 67.2333 205.97 11.4019 137.099 11.4019C68.227 11.4019 12.3955 67.2333 12.3955 136.105C12.3955 204.977 68.227 260.808 137.099 260.808Z" fill="white"/>
</mask>
<g mask="url(#mask0_101_1685)">
<path d="M137.099 260.808C205.97 260.808 261.802 204.977 261.802 136.105C261.802 67.2333 205.97 11.4019 137.099 11.4019C68.227 11.4019 12.3955 67.2333 12.3955 136.105C12.3955 204.977 68.227 260.808 137.099 260.808Z" fill="#E6E6E6"/>
<path d="M261.802 11.4019H12.3955V260.808H261.802V11.4019Z" fill="#EBF3FA"/>
</g>
<mask id="mask1_101_1685" style="mask-type:alpha" maskUnits="userSpaceOnUse" x="0" y="0" width="273" height="257">
<path d="M12.3947 146.318C12.3947 206.925 67.8878 256.057 136.342 256.057C204.796 256.057 260.289 206.925 260.289 146.318H272.684V0H0V146.318H12.3947Z" fill="white"/>
</mask>
<g mask="url(#mask1_101_1685)">
<path d="M262.708 136.342C262.708 68.3885 206.877 13.3014 138.005 13.3014C69.1337 13.3014 13.3022 68.3885 13.3022 136.342" stroke="#C6D1DD" stroke-width="7"/>
<mask id="mask2_101_1685" style="mask-type:alpha" maskUnits="userSpaceOnUse" x="33" y="3" width="207" height="254">
<path d="M161.132 153.362V172.363H165.263C206.336 172.363 239.632 205.67 239.632 246.757V256.056H33.0527V246.757C33.0527 205.67 66.3486 172.363 107.421 172.363H111.553V153.362C93.7483 144.901 80.9503 127.609 78.8153 107.145C72.7988 106.294 68.1711 101.122 68.1711 94.8687V80.4032C68.1711 74.2595 72.638 69.1594 78.5001 68.1756V61.8046C78.5001 29.8482 104.397 3.94238 136.342 3.94238C168.287 3.94238 194.184 29.8482 194.184 61.8046V68.1756C200.046 69.1594 204.513 74.2595 204.513 80.4032V94.8687C204.513 101.122 199.885 106.294 193.869 107.145C191.734 127.609 178.936 144.901 161.132 153.362Z" fill="white"/>
</mask>
<g mask="url(#mask2_101_1685)">
<path d="M161.132 153.362V172.363H165.263C206.336 172.363 239.632 205.67 239.632 246.757V256.056H33.0527V246.757C33.0527 205.67 66.3486 172.363 107.421 172.363H111.553V153.362C93.7483 144.901 80.9503 127.609 78.8153 107.145C72.7988 106.294 68.1711 101.122 68.1711 94.8687V80.4032C68.1711 74.2595 72.638 69.1594 78.5001 68.1756V61.8046C78.5001 29.8482 104.397 3.94238 136.342 3.94238C168.287 3.94238 194.184 29.8482 194.184 61.8046V68.1756C200.046 69.1594 204.513 74.2595 204.513 80.4032V94.8687C204.513 101.122 199.885 106.294 193.869 107.145C191.734 127.609 178.936 144.901 161.132 153.362Z" fill="#D0C6AC"/>
<path d="M272.684 3.94238H0V256.056H272.684V3.94238Z" fill="#AE5D29"/>
<path fill-rule="evenodd" clip-rule="evenodd" d="M194.184 85.5698V109.335C194.184 141.291 168.287 167.197 136.342 167.197C104.396 167.197 78.4995 141.291 78.4995 109.335V85.5698V101.069C78.4995 133.025 104.396 158.931 136.342 158.931C168.287 158.931 194.184 133.025 194.184 101.069V85.5698Z" fill="black" fill-opacity="0.1"/>
</g>
<mask id="mask3_101_1685" style="mask-type:alpha" maskUnits="userSpaceOnUse" x="33" y="155" width="207" height="102">
<path fill-rule="evenodd" clip-rule="evenodd" d="M111.553 155.903C93.0446 157.975 78.7891 163.633 78.5044 178.194C51.7961 189.481 33.0527 215.928 33.0527 246.755V256.055H239.632V246.755C239.632 215.928 220.888 189.481 194.18 178.194C193.895 163.633 179.64 157.975 161.132 155.903V175.461C161.132 189.157 150.033 200.26 136.342 200.26C122.651 200.26 111.553 189.157 111.553 175.461V155.903Z" fill="white"/>
</mask>
<g mask="url(#mask3_101_1685)">
<path fill-rule="evenodd" clip-rule="evenodd" d="M111.553 155.903C93.0446 157.975 78.7891 163.633 78.5044 178.194C51.7961 189.481 33.0527 215.928 33.0527 246.755V256.055H239.632V246.755C239.632 215.928 220.888 189.481 194.18 178.194C193.895 163.633 179.64 157.975 161.132 155.903V175.461C161.132 189.157 150.033 200.26 136.342 200.26C122.651 200.26 111.553 189.157 111.553 175.461V155.903Z" fill="#B7C1DB"/>
<path d="M272.684 142.397H0V256.055H272.684V142.397Z" fill="#008099"/>
<path fill-rule="evenodd" clip-rule="evenodd" d="M105.356 206.19V256.056H98.126V202.482C100.402 203.835 102.822 205.076 105.356 206.19ZM174.56 202.482V244.173C174.56 246.171 172.942 247.79 170.945 247.79C168.948 247.79 167.33 246.171 167.33 244.173V206.19C169.864 205.076 172.284 203.835 174.56 202.482Z" fill="#F4F4F4"/>
<path fill-rule="evenodd" clip-rule="evenodd" d="M93.9529 155.546C78.407 158.488 67.6553 164.348 67.6553 175.781C67.6553 196.149 101.78 212.66 136.343 212.66C170.906 212.66 205.03 196.149 205.03 175.781C205.03 164.348 194.278 158.488 178.733 155.546C188.116 159.008 194.185 164.827 194.185 174.509C194.185 195.579 165.448 212.66 136.343 212.66C107.237 212.66 78.5007 195.579 78.5007 174.509C78.5007 164.827 84.569 159.008 93.9529 155.546Z" fill="black" fill-opacity="0.18"/>
</g>
<path d="M121.883 121.734C121.883 127.285 128.244 131.034 136.343 131.034C144.443 131.034 150.804 127.285 150.804 121.734C150.804 120.593 149.823 119.668 148.738 119.668C147.403 119.668 146.807 120.603 146.672 121.734C145.389 124.77 142.214 126.608 136.343 126.901C130.473 126.608 127.298 124.77 126.014 121.734C125.88 120.603 125.284 119.668 123.949 119.668C122.864 119.668 121.883 120.593 121.883 121.734Z" fill="black" fill-opacity="0.6"/>
<path fill-rule="evenodd" clip-rule="evenodd" d="M123.948 101.07C123.948 105.635 129.497 109.336 136.342 109.336C143.188 109.336 148.737 105.635 148.737 101.07" fill="black" fill-opacity="0.16"/>
<path d="M109.488 88.6696C112.911 88.6696 115.685 85.8939 115.685 82.47C115.685 79.0461 112.911 76.2705 109.488 76.2705C106.065 76.2705 103.291 79.0461 103.291 82.47C103.291 85.8939 106.065 88.6696 109.488 88.6696Z" fill="black" fill-opacity="0.6"/>
<path d="M163.198 88.6696C166.621 88.6696 169.396 85.8939 169.396 82.47C169.396 79.0461 166.621 76.2705 163.198 76.2705C159.776 76.2705 157.001 79.0461 157.001 82.47C157.001 85.8939 159.776 88.6696 163.198 88.6696Z" fill="black" fill-opacity="0.6"/>
<path d="M94.6448 69.2022C98.6885 63.5103 109.774 60.3186 119.324 62.6644C120.432 62.9366 121.55 62.2587 121.822 61.1504C122.094 60.042 121.417 58.9228 120.309 58.6507C109.219 55.9264 96.382 59.6223 91.2771 66.808C90.6162 67.7383 90.8343 69.0284 91.7643 69.6896C92.6943 70.3507 93.9839 70.1325 94.6448 69.2022Z" fill="black" fill-opacity="0.6"/>
<path d="M178.041 69.2022C173.997 63.5103 162.911 60.3186 153.362 62.6644C152.254 62.9366 151.135 62.2587 150.863 61.1504C150.591 60.042 151.269 58.9228 152.377 58.6507C163.466 55.9264 176.304 59.6223 181.408 66.808C182.069 67.7383 181.851 69.0284 180.921 69.6896C179.991 70.3507 178.702 70.1325 178.041 69.2022Z" fill="black" fill-opacity="0.6"/>
<mask id="mask4_101_1685" style="mask-type:alpha" maskUnits="userSpaceOnUse" x="77" y="2" width="119" height="68">
<path fill-rule="evenodd" clip-rule="evenodd" d="M77.4669 68.0044C77.8252 69.5424 79.1947 69.2678 79.5327 68.0044C79.0548 66.3985 82.9371 38.2964 92.9604 30.8073C96.6976 28.207 116.725 25.8806 136.665 25.8947C156.389 25.9087 176.027 28.2351 179.724 30.8073C189.747 38.2964 193.629 66.3985 193.151 68.0044C193.489 69.2678 194.859 69.5424 195.217 68.0044C195.96 57.3639 195.217 2.15965 136.342 2.90942C77.467 3.65919 76.7241 57.3639 77.4669 68.0044Z" fill="white"/>
</mask>
<g mask="url(#mask4_101_1685)">
<path fill-rule="evenodd" clip-rule="evenodd" d="M77.4669 68.0044C77.8252 69.5424 79.1947 69.2678 79.5327 68.0044C79.0548 66.3985 82.9371 38.2964 92.9604 30.8073C96.6976 28.207 116.725 25.8806 136.665 25.8947C156.389 25.9087 176.027 28.2351 179.724 30.8073C189.747 38.2964 193.629 66.3985 193.151 68.0044C193.489 69.2678 194.859 69.5424 195.217 68.0044C195.96 57.3639 195.217 2.15965 136.342 2.90942C77.467 3.65919 76.7241 57.3639 77.4669 68.0044Z" fill="#28354B"/>
<path d="M349.118 1.87549H76.4341V291.187H349.118V1.87549Z" fill="#2C1B18"/>
</g>
<g filter="url(#filter0_d_101_1685)">
<path fill-rule="evenodd" clip-rule="evenodd" d="M146.118 71.5114C150.162 63.3121 158.603 57.6719 168.362 57.6719C177.575 57.6719 185.614 62.6996 189.887 70.1619C190.104 70.1026 190.333 70.0709 190.569 70.0709H198.832C200.258 70.0709 201.414 71.2274 201.414 72.6541C201.414 74.0807 200.258 75.2372 198.832 75.2372H192.08C192.777 77.5254 193.151 79.9539 193.151 82.47C193.151 96.1656 182.052 107.268 168.362 107.268C154.671 107.268 143.572 96.1656 143.572 82.47C143.572 81.0008 143.7 79.5615 143.945 78.1625C143.857 73.6411 140.384 70.0709 136.2 70.0709C132.34 70.0709 129.086 73.1084 128.535 77.1281C128.913 78.8486 129.112 80.636 129.112 82.47C129.112 96.1656 118.013 107.268 104.322 107.268C90.6313 107.268 79.5327 96.1656 79.5327 82.47C79.5327 79.9539 79.9073 77.5254 80.6037 75.2372H73.8518C72.4256 75.2372 71.2695 74.0807 71.2695 72.6541C71.2695 71.2274 72.4256 70.0709 73.8518 70.0709H82.1149C82.3509 70.0709 82.5795 70.1026 82.7967 70.1619C87.0698 62.6996 95.1091 57.6719 104.322 57.6719C113.982 57.6719 122.351 63.199 126.442 71.2642C128.588 68.045 132.158 65.9379 136.2 65.9379C140.344 65.9379 143.993 68.1533 146.118 71.5114ZM104.322 103.135C115.731 103.135 124.98 93.883 124.98 82.47C124.98 71.057 115.731 61.8049 104.322 61.8049C92.9131 61.8049 83.6643 71.057 83.6643 82.47C83.6643 93.883 92.9131 103.135 104.322 103.135ZM168.362 103.135C179.771 103.135 189.02 93.883 189.02 82.47C189.02 71.057 179.771 61.8049 168.362 61.8049C156.953 61.8049 147.704 71.057 147.704 82.47C147.704 93.883 156.953 103.135 168.362 103.135Z" fill="black"/>
</g>
<path fill-rule="evenodd" clip-rule="evenodd" d="M146.118 71.5114C150.162 63.3121 158.603 57.6719 168.362 57.6719C177.575 57.6719 185.614 62.6996 189.887 70.1619C190.104 70.1026 190.333 70.0709 190.569 70.0709H198.832C200.258 70.0709 201.414 71.2274 201.414 72.6541C201.414 74.0807 200.258 75.2372 198.832 75.2372H192.08C192.777 77.5254 193.151 79.9539 193.151 82.47C193.151 96.1656 182.052 107.268 168.362 107.268C154.671 107.268 143.572 96.1656 143.572 82.47C143.572 81.0008 143.7 79.5615 143.945 78.1625C143.857 73.6411 140.384 70.0709 136.2 70.0709C132.34 70.0709 129.086 73.1084 128.535 77.1281C128.913 78.8486 129.112 80.636 129.112 82.47C129.112 96.1656 118.013 107.268 104.322 107.268C90.6313 107.268 79.5327 96.1656 79.5327 82.47C79.5327 79.9539 79.9073 77.5254 80.6037 75.2372H73.8518C72.4256 75.2372 71.2695 74.0807 71.2695 72.6541C71.2695 71.2274 72.4256 70.0709 73.8518 70.0709H82.1149C82.3509 70.0709 82.5795 70.1026 82.7967 70.1619C87.0698 62.6996 95.1091 57.6719 104.322 57.6719C113.982 57.6719 122.351 63.199 126.442 71.2642C128.588 68.045 132.158 65.9379 136.2 65.9379C140.344 65.9379 143.993 68.1533 146.118 71.5114ZM104.322 103.135C115.731 103.135 124.98 93.883 124.98 82.47C124.98 71.057 115.731 61.8049 104.322 61.8049C92.9131 61.8049 83.6643 71.057 83.6643 82.47C83.6643 93.883 92.9131 103.135 104.322 103.135ZM168.362 103.135C179.771 103.135 189.02 93.883 189.02 82.47C189.02 71.057 179.771 61.8049 168.362 61.8049C156.953 61.8049 147.704 71.057 147.704 82.47C147.704 93.883 156.953 103.135 168.362 103.135Z" fill="#252C2F"/>
</g>
<path d="M13.3018 136.342C13.3018 204.295 69.1333 259.382 138.005 259.382C206.877 259.382 262.708 204.295 262.708 136.342" stroke="#C6D1DD" stroke-width="7"/>
<path d="M266.033 150.064C273.747 150.064 280 143.811 280 136.097C280 128.383 273.747 122.13 266.033 122.13C258.32 122.13 252.066 128.383 252.066 136.097C252.066 143.811 258.32 150.064 266.033 150.064Z" fill="#EBF3FA" stroke="#C6D1DD" stroke-width="5"/>
<path d="M875 366C882.732 366 889 359.732 889 352C889 344.268 882.732 338 875 338C867.268 338 861 344.268 861 352C861 359.732 867.268 366 875 366Z" fill="#EBF3FA" stroke="#C6D1DD" stroke-width="5"/>
<path d="M1395.68 570.69C1395.68 639.859 1339.48 696.059 1270.31 696.059C1201.14 696.059 1144.94 639.859 1144.94 570.69C1144.94 501.522 1201.14 445.322 1270.31 445.322C1339.48 445.322 1395.68 501.522 1395.68 570.69Z" fill="#EBF3FA"/>
<path fill-rule="evenodd" clip-rule="evenodd" d="M1140.62 570.691C1140.62 499.195 1198.81 441 1270.31 441C1341.81 441 1400 499.195 1400 570.691H1391.35C1391.35 503.85 1337.15 449.646 1270.31 449.646C1203.47 449.646 1149.26 503.85 1149.26 570.691H1140.62Z" fill="#C6D1DD"/>
<path d="M1162.23 536.771H1375.72V634.206C1375.72 646.177 1366.08 656.153 1353.78 656.153H1183.85C1171.88 656.153 1161.9 646.51 1161.9 634.206V536.771H1162.23Z" fill="white"/>
<path d="M1166.56 492.212C1166.56 482.568 1174.54 474.587 1184.18 474.587H1356.77C1366.41 474.587 1374.39 482.568 1374.39 492.212V517.485H1166.89V492.212H1166.56Z" fill="#EBF3FA"/>
<path fill-rule="evenodd" clip-rule="evenodd" d="M1183.85 466.606C1169.22 466.606 1157.58 478.245 1157.58 492.877V618.578C1159.91 624.564 1162.9 629.884 1166.22 635.538C1166.22 635.205 1166.22 634.872 1166.22 634.54V493.21C1166.22 483.566 1174.2 475.585 1183.85 475.585H1356.77C1366.41 475.585 1374.39 483.566 1374.39 493.21V634.54C1374.39 634.872 1374.39 635.205 1374.39 635.538C1377.72 630.217 1380.71 624.564 1383.04 618.578V492.877C1383.04 478.245 1371.4 466.606 1356.77 466.606H1183.85ZM1353.44 660.478C1356.77 657.485 1360.1 654.16 1363.09 650.502C1361.09 651.167 1359.1 651.5 1357.1 651.5H1184.18C1182.19 651.5 1180.19 651.167 1178.2 650.502C1181.19 653.827 1184.51 657.153 1187.84 660.478H1353.78H1353.44Z" fill="#112E51"/>
<path d="M1234.73 604.943C1234.73 607.271 1236.72 609.266 1239.05 609.266H1301.9C1304.23 609.266 1306.22 607.271 1306.22 604.943V601.617C1306.22 599.29 1304.23 597.294 1301.9 597.294H1239.05C1236.72 597.294 1234.73 599.29 1234.73 601.617V604.943ZM1240.38 622.9C1240.38 625.228 1242.38 627.223 1244.7 627.223H1295.58C1297.91 627.223 1299.9 625.228 1299.9 622.9V619.575C1299.9 617.247 1297.91 615.252 1295.58 615.252H1244.7C1242.38 615.252 1240.38 617.247 1240.38 619.575V622.9Z" fill="#C6D1DD"/>
<path fill-rule="evenodd" clip-rule="evenodd" d="M1270.31 700.382C1198.81 700.382 1140.62 642.187 1140.62 570.691H1149.26C1149.26 637.532 1203.47 691.736 1270.31 691.736C1337.15 691.736 1391.35 637.532 1391.35 570.691H1400C1400 642.187 1341.81 700.382 1270.31 700.382Z" fill="#C6D1DD"/>
<path d="M1140.62 584.933C1148.33 584.933 1154.58 578.68 1154.58 570.967C1154.58 563.253 1148.33 557 1140.62 557C1132.9 557 1126.65 563.253 1126.65 570.967C1126.65 578.68 1132.9 584.933 1140.62 584.933Z" fill="#EBF3FA" stroke="#C6D1DD" stroke-width="5"/>
<path d="M1291.26 502.187H1268.65V581.332C1289.93 572.021 1297.58 559.717 1299.24 555.726C1299.57 555.061 1299.91 554.064 1299.91 553.398V510.501C1299.91 505.845 1295.91 501.854 1291.26 501.854V502.187Z" fill="#B51E23"/>
<path d="M1246.37 502.187C1241.71 502.187 1237.72 506.178 1237.72 510.833V553.731C1237.72 554.396 1237.72 555.394 1238.39 556.059C1240.38 559.717 1247.7 572.021 1268.98 581.664V502.52H1246.37V502.187Z" fill="#E21D3E"/>
<path d="M1274.3 536.439C1276.3 534.776 1277.63 532.449 1277.63 529.456C1277.63 524.468 1273.64 520.477 1268.65 520.477C1263.66 520.477 1259.67 524.468 1259.67 529.456C1259.67 534.444 1261 534.776 1262.99 536.439C1262 542.092 1261 547.413 1260 553.066C1262.66 553.399 1265.65 553.731 1268.32 553.731C1270.98 553.731 1273.97 553.731 1276.63 553.066C1275.63 547.413 1274.63 541.76 1273.64 536.439H1274.3Z" fill="white"/>
</g>
<defs>
<filter id="filter0_d_101_1685" x="58.7445" y="51.4093" width="155.195" height="74.6463" filterUnits="userSpaceOnUse" color-interpolation-filters="sRGB">
<feFlood flood-opacity="0" result="BackgroundImageFix"/>
<feColorMatrix in="SourceAlpha" type="matrix" values="0 0 0 0 0 0 0 0 0 0 0 0 0 0 0 0 0 0 127 0" result="hardAlpha"/>
<feOffset dy="6.26253"/>
<feGaussianBlur stdDeviation="6.26253"/>
<feColorMatrix type="matrix" values="0 0 0 0 0 0 0 0 0 0 0 0 0 0 0 0 0 0 0.1 0"/>
<feBlend mode="normal" in2="BackgroundImageFix" result="effect1_dropShadow_101_1685"/>
<feBlend mode="normal" in="SourceGraphic" in2="effect1_dropShadow_101_1685" result="shape"/>
</filter>
<linearGradient id="paint0_linear_101_1685" x1="766.325" y1="185.666" x2="357.433" y2="1356.73" gradientUnits="userSpaceOnUse">
<stop stop-color="#EBF3FA"/>
<stop offset="1" stop-color="#A8B6C6"/>
</linearGradient>
<clipPath id="clip0_101_1685">
<rect width="1400" height="700" fill="white"/>
</clipPath>
</defs>
</svg>
