<svg width="1400" height="700" viewBox="0 0 1400 700" fill="none" xmlns="http://www.w3.org/2000/svg"><g clip-path="url(#a)"><path fill="#fff" d="M0 0h1400v700H0z"/><path d="M1372.6 252.625h-269.65c-13.5 0-24.44 10.942-24.44 24.439v145.402c0 13.497 10.94 24.439 24.44 24.439h269.65c13.5 0 24.44-10.942 24.44-24.439V277.064c0-13.497-10.94-24.439-24.44-24.439Z" fill="#fff"/><path d="M1102.95 252.625h269.65c13.5 0 24.44 10.946 24.44 24.439v48.113h-318.53v-48.113c0-13.493 10.94-24.439 24.44-24.439Z" fill="#ECF3FA"/><path d="M1372.6 252.625h-269.65c-13.5 0-24.44 10.942-24.44 24.439v145.402c0 13.497 10.94 24.439 24.44 24.439h269.65c13.5 0 24.44-10.942 24.44-24.439V277.064c0-13.497-10.94-24.439-24.44-24.439Z" stroke="#C6D1DD" stroke-width="7" stroke-miterlimit="10"/><path d="M1194.54 394.322h86.48m-99.91-16.593h113.33" stroke="#D0D2D3" stroke-width="7.13" stroke-linecap="round"/><path d="M1257.18 290.929h-19.4v68.497c18.42-8.111 24.86-18.727 26.48-22.018a4.54 4.54 0 0 0 .46-2.017v-36.924a7.542 7.542 0 0 0-7.54-7.538Z" fill="#B51E23"/><path d="M1218.36 290.929a7.542 7.542 0 0 0-7.54 7.538v36.924c0 .7.15 1.39.46 2.017 1.62 3.291 8.07 13.907 26.49 22.018v-68.497h-19.41Z" fill="#E21D3E"/><path d="M1242.54 320.453c1.74-1.401 2.88-3.524 2.88-5.934a7.645 7.645 0 0 0-15.29 0c0 2.442 1.17 4.597 2.95 5.998-.84 4.788-1.67 9.587-2.5 14.375 2.38.414 4.79.626 7.2.626 2.44 0 4.88-.202 7.29-.626l-2.52-14.439h-.01Z" fill="#fff"/><path d="M123.18 471.45c65.979 0 119.466-53.487 119.466-119.466 0-65.98-53.487-119.466-119.466-119.466-65.98 0-119.467 53.486-119.467 119.466 0 65.979 53.487 119.466 119.467 119.466Z" fill="#ECF3FA" stroke="#C6D1DD" stroke-width="7"/><mask id="b" style="mask-type:luminance" maskUnits="userSpaceOnUse" x="3" y="159" width="240" height="313"><path d="M123.18 159.488c-66.077 0-119.637 126.42-119.637 192.496 0 66.077 53.56 119.636 119.637 119.636 66.076 0 119.636-53.559 119.636-119.636 0-66.076-53.56-192.496-119.636-192.496Z" fill="#fff"/></mask><g mask="url(#b)"><path d="M43.589 384.895c-1.328-3.345-2.708-6.657-3.982-10.012-2.218-5.817-4.034-11.741-4.246-18.048-.297-9.374 3.546-17.113 9.417-24.056a111.77 111.77 0 0 1 5.658-6.2c8.62-8.716 12.443-19.396 12.973-31.446.308-6.933-.732-13.77-1.316-20.649-1.847-21.795 5.563-39.525 23.526-52.392 6.858-4.926 14.926-6.582 23.186-7.293 5.828-.489 11.657-.828 17.506-.117 7.623.934 12.878 4.852 15.617 12.039.425 1.125.839 1.391 2.113 1.274 8.249-.722 15.351 2.113 21.169 7.814 10.032 9.841 14.438 22.071 14.459 35.989 0 7.686-1.592 15.182-2.962 22.709-1.295 7.144-1.613 14.194 1.688 20.988 2.018 4.162 4.873 7.623 8.451 10.532 4.682 3.79 8.695 8.185 11.349 13.652 4.109 8.451 3.641 17.072.892 25.766-1.699 5.404-4.204 10.468-6.635 15.564-.584.881-1.444.552-2.209.467-8.811-.955-17.602-2.166-26.403-3.227-2.463-.298-4.947-.51-7.378-.977-1.646-.297-3.068-.127-4.31 1.04-2.442.022-3.896-1.719-5.308-3.269-2.824-3.132-4.619-6.88-5.648-10.957-.754-2.993-1.572-5.987-1.402-9.13.106-1.73-.679-3.418-.223-5.149.361-.998 1.221-1.55 2.017-2.123 9.014-6.465 14.343-15.287 16.753-26.01.552-2.463.552-2.495 2.973-2.506 1.231 0 2.314-.424 3.323-1.061 4.066-2.591 6.773-9.491 5.563-14.141-.181-.658-.404-1.306-.722-1.911-.998-2.028-1.317-2.092-3.037-.595-.52.446-1.072.839-1.592 1.285-.892.775-1.911 1.38-2.856 2.059-.499.361-1.019.797-1.667.277-.679-2.103-.456-4.3-.647-6.445-1.083-11.858-4.555-22.878-11.201-32.815-3.312-4.958-7.346-9.236-12.357-12.538-1.03-.711-1.571-.032-2.113.733-1.39 1.985-2.93 3.853-4.512 5.701-4.512 5.308-9.947 9.533-15.584 13.525-8.812 6.242-18.282 11.306-28.145 15.659-.913.404-1.656.924-1.688 2.007-.063 1.921-.636 3.811-.35 5.754-.053 2.696.266 5.403-.202 8.089-.52.945-1.231.584-1.879.223-.7-.382-1.263-.976-1.91-1.412-1.062-.87-2.209-1.635-3.122-2.664-.892-.998-1.507-.712-2.176.276-1.147 1.677-1.572 3.599-1.433 5.499.297 4.098 1.868 7.697 4.904 10.574 1.253 1.178 2.718 2.017 4.502 1.932 1.794-.085 2.569.828 2.887 2.463 1.455 7.283 4.66 13.716 9.46 19.386 2.102 2.494 4.586 4.543 7.166 6.486.732.552 1.624.966 1.868 1.986.234 1.656 0 3.322.085 4.979-.053 6.73-1.656 13.037-5.563 18.557-1.773 2.506-3.811 4.884-6.986 5.818a1.073 1.073 0 0 1-.488-.244c-1.953-1.816-2.176-1.741-3.068.838-2.155 6.243-1.73 12.613-.85 18.972.616 4.437 1.391 8.811 1.296 13.323-.223 10.192-4.257 18.77-10.85 26.276-4.204 4.777-9.374 8.079-15.51 9.852-1.996.573-4.035.711-6.041 1.083-2.145.148-4.258.053-6.338-.52-1.02-.51-1.009-1.306-.552-2.177.467-.881.976-1.73 1.486-2.569 3.28-4.958 4.724-10.489 4.99-16.338.392-8.801-2.166-17.04-5.107-25.172-1.56-4.321-3.323-8.557-5.096-12.782-.51-1.508-1.571-2.813-1.592-4.491" fill="#383338"/><path d="M151.854 378.238c.818-1.507 1.996-1.826 3.727-1.592 11.975 1.571 23.972 3.026 35.958 4.501.297.043.605-.074.902-.127 1.815.541 3.631 1.062 5.436 1.614.637.201 1.316.307 1.815.828-1.476 9.639-4.544 18.801-8.079 27.868-3.344 8.567-5.213 17.517-5.202 26.753 0 3.217.18 6.497 1.125 9.597 2.707 8.897 1.126 17.454-1.783 25.957-1.274 3.737-3.302 7.092-5.266 10.479-.234.424-.584.807-.584 1.348-5.329 1.412-10.754 2.357-16.179 3.312-17.21 3.015-34.557 3.96-51.978 3.238-10.553-.435-21.042-1.518-31.446-3.461-5.659-1.051-11.338-2.049-16.912-3.514-2.505-3.068-4.161-6.614-5.605-10.245-2.431-6.125-3.737-12.506-3.483-19.12.096-2.463.298-4.968 1.614-7.176 1.71-.319 3.44-.542 5.117-.988 10.139-2.696 17.029-9.331 21.944-18.302 4.916-8.971 5.733-18.452 3.78-28.367-1.242-6.37-1.741-12.804-.223-19.227.287-1.199.7-2.378 1.125-3.535.223-.616.297-1.465 1.136-1.56.902-.107 1.486.467 1.932 1.22.191.308.446.584.67.882 1.719.806 2.855 2.346 4.384 3.418 5.945 4.151 12.516 6.561 19.651 7.591 9.395 1.348 18.324-.191 26.774-4.459 2.93-1.486 5.712-3.281 8.005-5.733.467-.499.987-.945 1.656-1.178" fill="#324160"/><path d="M179.903 485.464c-.903-.202-.659-.573-.266-1.147 2.867-4.225 5.128-8.769 6.582-13.674 1.391-4.703 2.262-9.491 2.23-14.406-.021-2.675-.69-5.255-1.317-7.846-1.475-6.146-1.518-12.346-.732-18.6 1.231-9.915 4.82-19.13 8.344-28.388 2.049-5.382 3.206-11.02 4.141-16.699.095-.563.053-1.147.807-1.232 9.639 4.618 15.308 12.262 16.317 22.836 1.433 15.022 2.346 30.098 3.503 45.152.51 6.688 1.041 13.376 1.603 20.065.075.891-.106 1.316-.987 1.656a315.9 315.9 0 0 1-39.663 12.24c-.18.043-.371.043-.552.043" fill="#112E50"/><path d="M50.723 444.007c-.489.807-.977 1.635-1.486 2.442-.34.541-.595 1.061.042 1.56.074.234.106.489.021.722-3.471 10.203-2.983 20.596-1.603 31.043.043.371.138.732 0 1.093-7.283-2.081-14.396-4.714-21.487-7.346-1.094-.404-1.38-.998-1.296-2.081.722-9.47 1.412-18.951 2.134-28.431.382-5.202.818-10.404 1.21-15.595.542-7.432.69-14.916 1.657-22.295 1.168-8.865 5.902-15.67 13.684-20.235.86 1.306 1.412 2.75 1.9 4.215.043.828-.318 1.561-.583 2.325-1.603 4.576-1.752 9.034.637 13.472 4.044 7.517 6.497 15.574 7.08 24.099.362 5.086-.063 10.15-1.9 14.991" fill="#324160"/><path d="M47.686 480.878c-1.03-.966-.881-2.336-.987-3.493-.616-5.988-.807-11.986-.138-17.984.36-3.313.382-6.678 1.836-9.778.266-.552.584-1.072.892-1.614 2.208.16 4.427.319 6.635.489-.53 3.344-1.348 6.645-1.136 10.085.383 6.041 1.657 11.848 4.077 17.39 1.19 2.739 2.537 5.372 4.215 7.835.276.382.318.796.318 1.231-5.319-1.083-10.51-2.633-15.712-4.161Z" fill="#112E50"/><path d="M83.166 305.081c.032-2.994.053-5.977.085-8.96 1.051-1.274 2.686-1.391 4.056-2.018 5.202-2.431 10.52-4.607 15.542-7.42 2.506-.383 4.523.806 6.54 2.027.828.499 1.868 1.826 2.675.637.828-1.231-.817-1.762-1.592-2.431-1.062-.923-2.665-1.061-3.493-2.335.117-.924.977-1.041 1.571-1.402 9.332-5.796 17.369-12.952 23.324-22.284 1.635-2.558 2.867-5.329 4.3-8.004 4.862 2.771 8.536 6.815 11.721 11.274 7.346 10.256 11.115 21.806 12.24 34.312.191 2.166.34 4.332.382 6.498.998 1.942.383 4.013.372 6.009 0 1.231-.255 2.473-.382 3.683 2.07-1.443 3.44-4.469 3.556-7.612.043-1.528-.339-3.121.489-4.575.923-.807 1.889-1.593 2.76-2.463.786-.765 1.231-.467 1.752.286 1.412 2.081 2.08 4.343 1.911 6.848-.287 4.289-2.06 7.888-5.192 10.776-1.475 1.348-3.291 1.996-5.319 1.698-.806-.117-1.274-.042-1.443.881-2.251 12.124-8.43 21.711-18.632 28.665a2.759 2.759 0 0 0-.414.382c-.361.425-.69.86-1.211 1.136-4.671 2.452-9.586 4.013-14.905 4.246-5.754.245-11.253-.722-16.498-3.089-1.454-.658-2.983-1.263-3.928-2.697-10.234-6.72-16.35-16.19-18.802-28.112-.17-.817-.297-1.571-1.486-1.401-2.75.382-4.852-.903-6.497-2.909-2.93-3.578-4.682-7.591-3.95-12.357.118-.722.298-1.466.585-2.145 1.337-3.227 1.942-3.355 4.395-1.009.722.68 1.454 1.338 2.166 2.007-.616 3.397-.287 6.656 1.443 9.703.372.637.637 1.349 1.465 1.741.436-.615.287-1.295.149-1.9-.425-2.017-.096-4.087-.467-6.104-.127-.659.096-1.221.711-1.572" fill="#E38C66"/><path d="M151.855 378.238c-3.334 4.311-7.91 6.912-12.783 8.939-6.125 2.548-12.569 3.78-19.194 3.376-10.319-.626-19.768-3.652-27.55-10.807-.36-.319-.626-.754-.923-1.147 7.336-4.193 10.181-11.126 11.54-18.939.286-1.646.35-3.323.52-4.969.297-.987-.488-2.505.457-2.93 1.21-.552 2.017.924 2.877 1.635 4.947 4.087 10.595 6.497 16.986 6.752 5.308.212 10.096-1.624 14.459-4.629.552-.382 1.083-1.475 1.975-.392.382 6.072 1.752 11.858 5.053 17.071 1.657 2.601 3.769 4.724 6.604 6.062" fill="#E38C66"/><path d="M136.184 252.891c.138 1.751-1.019 3.025-1.741 4.405-4.182 7.857-9.852 14.481-16.858 20.002-3.355 2.633-6.752 5.18-10.5 7.229-.743.701-1.529.213-2.283.064-4.458-.817-8.472.234-12.166 2.771a5.22 5.22 0 0 0-1.72 1.911c-.212.403-.297.828.096 1.189.371.35.785.308 1.2.085.382-.212.679-.541 1.008-.818 1.826-1.56 3.939-2.601 6.242-3.163 1.158-.287 2.421-.669 3.514.318-.753.903-1.794 1.402-2.834 1.858a1794.132 1794.132 0 0 1-14.64 6.582c-.722.319-1.497.521-2.25.775-.245-1.942.35-3.822.37-5.743 0-1.147.967-1.486 1.827-1.858 9.332-4.119 18.302-8.907 26.732-14.672 8.419-5.743 16.126-12.209 21.87-20.755.679-.998 1.316-1.284 2.133-.191" fill="#C97047"/><path d="M50.723 444.007c.16-2.718.85-5.351 1.178-8.047.712-5.712-.159-11.211-1.422-16.721-1.232-5.361-3.546-10.277-5.914-15.203-2.43-5.075-1.74-10.085.924-14.916 4.703 10.489 9.13 21.105 10.298 32.667.796 7.877-.457 15.489-5.053 22.22" fill="#112E50"/><path d="M140.208 355.105c-1.486-.021-2.293 1.231-3.376 1.9-3.726 2.315-7.793 3.642-12.103 3.652-6.433.022-12.23-2.208-17.336-6.147-.34-.265-.627-.637-.998-.817-.913-.414-1.412-1.922-2.293-1.656-.988.308.042 1.836-.637 2.654v-5.552c4.214 2.558 8.726 4.267 13.642 4.936 6.815.945 13.313.021 19.534-2.909 1.125-.531 2.229-1.083 3.344-1.624.085 1.847.159 3.705.234 5.563m24.322-52.626c.053 3.515.371 7.05-1.529 10.298-.733 1.253-1.773 2.134-3.047 3.419.212-4.034.69-7.601.552-11.211 1.55-.51 2.644-1.741 4.034-2.506m-81.385 2.601c-.403 2.336.021 4.65.202 6.965.095 1.178.17 2.335.127 3.514-.785.223-1.242-.287-1.582-.743-2.314-3.143-3.248-6.667-2.739-10.532.043-.414.276-.817.69-1.061 1.264.329 1.848 1.868 3.302 1.857Zm32.826 7.177h9.725c.7 0 1.39-.053 2.08-.085.457.276.552.722.574 1.2-1.179 2.123-3.143 3.079-5.425 3.344-2.697.308-5.054-.541-6.89-2.601-.213-.244-.361-.541-.542-.807.032-.403-.021-.849.467-1.051" fill="#C97047"/><path d="M97.764 297.309c.117-1.401.414-2.813 1.699-3.939 1.507-1.316 3.524-1.358 5.127-.127 2.527 1.932 2.676 6.179.287 8.238-1.709 1.476-4.321 1.306-5.807-.414-.934-1.083-1.242-2.357-1.306-3.758Zm47.402.011c.021 1.677-.499 3.047-1.752 4.151-1.592 1.401-4.044 1.316-5.563-.149-1.889-1.837-1.964-5.669-.148-7.591 1.741-1.836 4.448-1.815 6.104.107.945 1.072 1.465 2.282 1.359 3.482Zm-42.2-10.415c-3.843-.382-7.007 1.072-9.81 3.557-.456.403-.775 1.061-1.465 1.061-.637 0-1.167-.361-1.539-.902-.446-.658-.085-1.179.308-1.678 2.675-3.418 6.433-4.628 10.553-5.074 2.08-.223 4.034.382 6.051.69 1.667.934 3.525 1.539 4.947 2.919.711.68 1.37 1.349.605 2.378-.807 1.073-1.624.584-2.41 0-2.165-1.624-4.459-2.866-7.251-2.93m37.646-3.132c3.864-.106 7.071 1.2 9.905 3.514.52.425.977.956 1.37 1.497.509.712.35 1.434-.234 2.028-.626.637-1.242.35-1.815-.127-1.678-1.391-3.344-2.782-5.5-3.387-4.193-1.189-7.983-.361-11.423 2.208-.892.659-1.794 1.423-2.728.287-1.019-1.232 0-2.081.892-2.76 2.855-2.155 6.051-3.398 9.544-3.27" fill="#383338"/><path d="M121.736 341.123c-13.228 0-16.148-11.487-16.148-11.487-.382-1.592.966-2.558 2.155-2.558h28.07c1.178 0 2.495 1.146 2.144 2.558 0 0-2.993 11.487-16.221 11.487Z" fill="#fff"/></g><path d="M3.713 351.984c0 65.981 53.486 119.466 119.467 119.466 65.98 0 119.466-53.485 119.466-119.466" stroke="#C6D1DD" stroke-width="7"/><path d="M624.573 700c74.54 0 134.966-60.426 134.966-134.966s-60.426-134.966-134.966-134.966-134.966 60.426-134.966 134.966S550.033 700 624.573 700Z" fill="#ECF3FA" stroke="#C6D1DD" stroke-width="7" stroke-miterlimit="10"/><path d="M541.383 500.486h290.263V658.32H541.383V500.486Z" fill="#D1D3D4"/><path fill-rule="evenodd" clip-rule="evenodd" d="M831.646 595.567h-7.379v3.238h7.379v-3.238Zm0-77.606h-7.379v3.238h7.379v-3.238Zm0 84.039h-5.096v3.238h5.096V602Zm0-77.574h-5.096v3.238h5.096v-3.238Zm0 84.04h-7.379v3.238h7.379v-3.238Zm0-77.574h-7.379v3.238h7.379v-3.238Zm0 84.039h-5.096v3.238h5.096v-3.238Zm0-77.563h-5.096v3.238h5.096v-3.238Zm0 84.028h-7.379v3.238h7.379v-3.238Zm0-77.563h-7.379v3.238h7.379v-3.238Zm0 84.029h-5.096v3.238h5.096v-3.238Zm0-77.564h-5.096v3.238h5.096v-3.238Zm0 84.04h-7.379v3.238h7.379v-3.238Zm0-77.574h-7.379v3.238h7.379v-3.238Zm0 84.039h-5.096v3.238h5.096v-3.238Zm0-77.574h-5.096v3.238h5.096v-3.238Zm0 84.039h-7.379v3.238h7.379v-3.238Zm0-77.573h-7.379v3.237h7.379v-3.237Zm0 6.475h-5.096v3.238h5.096v-3.238Zm0 6.466h-7.379v3.238h7.379v-3.238Zm0 6.465h-5.096v3.238h5.096v-3.238Zm-290.263 6.455h7.378v3.238h-7.378v-3.238Zm0-77.606h7.378v3.238h-7.378v-3.238Zm0 84.04h5.096v3.238h-5.096v-3.238Zm0-77.574h5.096v3.238h-5.096v-3.238Zm0 84.039h7.378v3.238h-7.378v-3.238Zm0-77.563h7.378v3.238h-7.378v-3.238Zm0 84.028h5.096v3.238h-5.096v-3.238Zm0-77.563h5.096v3.238h-5.096v-3.238Zm0 84.039h7.378v3.238h-7.378v-3.238Zm0-77.574h7.378v3.238h-7.378v-3.238Zm0 84.04h5.096v3.238h-5.096v-3.238Zm0-77.574h5.096v3.238h-5.096v-3.238Zm0 84.039h7.378v3.238h-7.378v-3.238Zm0-77.574h7.378v3.238h-7.378v-3.238Zm0 84.039h5.096v3.238h-5.096v-3.238Zm0-77.563h5.096v3.238h-5.096v-3.238Zm0 84.029h7.378v3.227h-7.378v-3.227Zm0-77.563h7.378v3.237h-7.378v-3.237Zm0 6.465h5.096v3.238h-5.096v-3.238Zm0 6.465h7.378v3.238h-7.378v-3.238Zm0 6.466h5.096v3.238h-5.096v-3.238Z" fill="#939598"/><path d="M538.378 479.89H834.66a8.346 8.346 0 0 1 8.345 8.345v17.188a8.346 8.346 0 0 1-8.345 8.344H538.378a8.346 8.346 0 0 1-8.344-8.344v-17.188a8.346 8.346 0 0 1 8.344-8.345Z" fill="#D1D3D4"/><path fill-rule="evenodd" clip-rule="evenodd" d="M842.57 508.055c-1.104 3.313-4.247 5.712-7.92 5.712H538.368c-3.674 0-6.806-2.399-7.92-5.712H842.57ZM538.378 479.89H834.66c3.674 0 6.806 2.399 7.92 5.712H530.469c1.115-3.313 4.247-5.712 7.92-5.712h-.011Z" fill="#BCBEC0"/><path fill-rule="evenodd" clip-rule="evenodd" d="M623.15 474.89h134.722c7.209 0 13.101 4.862 13.101 10.818v22.23c0 5.946-5.892 10.819-13.101 10.819H623.15c-7.208 0-13.1-4.863-13.1-10.819v-22.23c0-5.945 5.892-10.818 13.1-10.818Z" fill="#0071BB"/><path fill-rule="evenodd" clip-rule="evenodd" d="M638.396 539.937h96.237v118.372h-6.763V546.901h-82.935v111.408h-6.539V539.937Z" fill="#939598"/><path d="M644.936 546.901h82.924v111.408h-82.924V546.901Z" fill="#808285"/><path d="M541.383 633.68h97.012v24.64h-97.012v-24.64Zm193.25 0h97.013v24.64h-97.013v-24.64Z" fill="#A7A9AC"/><path d="M563.667 545.574h56.946v62.87h-56.946v-62.87Z" fill="#CDD7EE"/><path fill-rule="evenodd" clip-rule="evenodd" d="M558.836 540.244h66.597v73.529h-66.597v-73.529Zm20.395 68.2v-42.37h-15.575v42.37h15.575Zm3.662-42.37v42.37h16.71v-42.37h-16.71Zm20.362 0v42.37h17.348v-42.37h-17.348Zm-39.588-3.652h56.946v-16.838h-56.946v16.838Z" fill="#fff"/><path d="M750.334 545.479h56.947v62.87h-56.947v-62.87Z" fill="#CDD7EE"/><path fill-rule="evenodd" clip-rule="evenodd" d="M745.504 540.149h66.597v73.529h-66.597v-73.529Zm20.405 68.2v-42.37h-15.574v42.37h15.574Zm3.652-42.37v42.37h16.71v-42.37h-16.71Zm20.373 0v42.37h17.347v-42.37h-17.347Zm-39.599-3.652h56.946v-16.849h-56.946v16.849Z" fill="#fff"/><path fill-rule="evenodd" clip-rule="evenodd" d="M649.5 551.838h37.221V658.31H649.5V551.838Zm5.956 6.179v89.23h25.585v-89.23h-25.585Z" fill="#E6E7E8"/><path d="M655.456 558.017h25.586v89.23h-25.586v-89.23Z" fill="#CDD7EE"/><path fill-rule="evenodd" clip-rule="evenodd" d="M686.721 551.838h37.221V658.31h-37.221V551.838Zm5.956 6.179v89.23h25.585v-89.23h-25.585Z" fill="#E6E7E8"/><path d="M692.677 558.017h25.585v89.23h-25.585v-89.23Z" fill="#CDD7EE"/><path d="M686.307 551.838h.839V658.31h-.839V551.838Z" fill="#808285"/><path d="M682.634 592.743h1.656v25.256h-1.656v-25.256Zm6.253 0h1.656v25.256h-1.656v-25.256Z" fill="#112E51"/><path fill-rule="evenodd" clip-rule="evenodd" d="m655.456 558.017 25.586 89.23v-89.23h-25.586Zm37.221.01 25.596 89.231v-89.231h-25.596Z" fill="#ECF3FA"/><path d="M637.163 501.419v-11.271h4.147c.821 0 1.557.143 2.206.429.65.28 1.162.696 1.536 1.247.379.551.569 1.224.569 2.019 0 .748-.167 1.387-.499 1.917-.333.53-.8.936-1.403 1.216-.598.281-1.302.421-2.113.421h-2.151v4.022h-2.292Zm2.269-5.783h2.112c.572 0 1.039-.182 1.403-.546.364-.369.546-.824.546-1.364 0-.561-.193-1.006-.577-1.333-.385-.333-.852-.499-1.403-.499h-2.081v3.742Zm12.601 5.939c-1.065 0-1.987-.231-2.767-.693-.774-.468-1.375-1.131-1.801-1.988-.421-.863-.631-1.892-.631-3.087 0-1.2.213-2.235.639-3.102.431-.868 1.037-1.536 1.816-2.004.78-.473 1.695-.709 2.744-.709 1.045 0 1.954.234 2.728.702.775.467 1.372 1.135 1.793 2.003.426.868.64 1.904.64 3.11 0 1.19-.211 2.216-.632 3.079-.416.863-1.011 1.528-1.785 1.996-.774.462-1.689.693-2.744.693Zm0-1.87c.551 0 1.027-.13 1.427-.39.405-.265.717-.681.935-1.247.218-.572.328-1.315.328-2.23 0-.94-.112-1.702-.336-2.284-.218-.582-.53-1.008-.935-1.278-.4-.276-.873-.413-1.419-.413-.545 0-1.021.137-1.426.413-.406.27-.72.699-.943 1.286-.224.582-.336 1.341-.336 2.276 0 .92.112 1.663.336 2.23.223.566.537.982.943 1.247.405.26.881.39 1.426.39Zm11.461 1.87a6.48 6.48 0 0 1-1.645-.21 5.133 5.133 0 0 1-1.465-.632 3.689 3.689 0 0 1-1.091-1.052c-.281-.421-.45-.914-.507-1.481h2.331c.078.343.226.631.444.865.223.234.509.413.857.538a3.62 3.62 0 0 0 1.209.187c.358 0 .699-.052 1.021-.156.322-.104.584-.262.787-.475.203-.213.304-.481.304-.803 0-.385-.14-.673-.421-.865-.28-.198-.662-.354-1.146-.468l-2.112-.46a5.22 5.22 0 0 1-1.567-.577 2.805 2.805 0 0 1-1.021-1.029c-.239-.426-.359-.943-.359-1.551 0-.701.193-1.307.577-1.816.39-.509.917-.899 1.583-1.169.67-.276 1.421-.413 2.252-.413.941 0 1.733.153 2.378.459.649.302 1.146.712 1.489 1.232.343.515.517 1.089.522 1.723h-2.276c-.042-.39-.161-.702-.359-.936a1.637 1.637 0 0 0-.764-.514 3.127 3.127 0 0 0-1.052-.164c-.681 0-1.177.138-1.489.413-.312.276-.468.595-.468.959 0 .343.117.621.351.834.239.208.621.367 1.146.476l1.957.421c.727.14 1.317.363 1.769.67.452.301.782.668.99 1.099.208.431.312.915.312 1.45a2.92 2.92 0 0 1-.585 1.801c-.384.514-.917.917-1.598 1.208-.68.291-1.465.436-2.354.436Zm8.964-.156v-9.244h-3.407v-2.027h9.019v2.027h-3.328v9.244h-2.284Zm15.368.156c-1.065 0-1.987-.231-2.767-.693-.774-.468-1.374-1.131-1.801-1.988-.421-.863-.631-1.892-.631-3.087 0-1.2.213-2.235.639-3.102.432-.868 1.037-1.536 1.816-2.004.78-.473 1.695-.709 2.744-.709 1.045 0 1.954.234 2.729.702.774.467 1.371 1.135 1.792 2.003.427.868.64 1.904.64 3.11 0 1.19-.211 2.216-.632 3.079-.416.863-1.011 1.528-1.785 1.996-.774.462-1.689.693-2.744.693Zm0-1.87c.551 0 1.027-.13 1.427-.39.405-.265.717-.681.935-1.247.218-.572.328-1.315.328-2.23 0-.94-.112-1.702-.336-2.284-.218-.582-.53-1.008-.935-1.278-.4-.276-.873-.413-1.419-.413-.545 0-1.021.137-1.426.413-.406.27-.72.699-.943 1.286-.224.582-.336 1.341-.336 2.276 0 .92.112 1.663.336 2.23.223.566.537.982.943 1.247.405.26.881.39 1.426.39Zm7.175 1.714v-11.271h7.671l-.008 1.902h-5.371v2.829h4.654v1.863h-4.654v4.677h-2.292Zm9.562 0v-11.271h7.67l-.008 1.902h-5.371v2.829h4.654v1.863h-4.654v4.677h-2.291Zm9.561 0v-11.271h2.268v11.271h-2.268Zm9.387.156c-1.05 0-1.957-.244-2.721-.732-.764-.489-1.354-1.175-1.769-2.058-.411-.884-.616-1.915-.616-3.095 0-1.185.205-2.201.616-3.048.41-.852.997-1.507 1.761-1.964.764-.457 1.674-.686 2.729-.686.847 0 1.6.171 2.26.514a4.257 4.257 0 0 1 1.606 1.388c.41.587.652 1.25.725 1.988h-2.385a2.9 2.9 0 0 0-.398-1.037 2.03 2.03 0 0 0-.756-.717c-.312-.177-.686-.265-1.123-.265-.524 0-.977.127-1.356.382-.379.254-.67.665-.873 1.231-.203.567-.304 1.315-.304 2.245 0 1.403.224 2.419.67 3.048.453.624 1.074.936 1.863.936.437 0 .811-.099 1.123-.297.312-.202.564-.467.756-.795.192-.332.325-.696.398-1.091h2.385a6.39 6.39 0 0 1-.39 1.536 4.123 4.123 0 0 1-.818 1.294c-.354.379-.808.678-1.365.896-.556.218-1.229.327-2.018.327Zm6.598-.156v-11.271h7.741l-.008 1.917h-5.449v2.736h4.732v1.879h-4.747v2.798l5.55.008v1.933h-7.819Z" fill="#fff"/><mask id="c" style="mask-type:luminance" maskUnits="userSpaceOnUse" x="489" y="430" width="271" height="270"><path d="M624.573 700c74.54 0 134.966-60.426 134.966-134.966s-60.426-134.966-134.966-134.966-134.966 60.426-134.966 134.966S550.033 700 624.573 700Z" fill="#fff"/></mask><g mask="url(#c)"><path d="M522.762 672.695c-.414.679-.817 1.359-1.242 2.038-.287.446-.499.881.042 1.295.064.202.085.414.011.605-2.898 8.504-2.484 17.178-1.338 25.883.043.308.117.616 0 .913-6.072-1.741-11.996-3.928-17.92-6.125-.913-.34-1.147-.839-1.083-1.731.605-7.899 1.178-15.797 1.773-23.706.318-4.332.679-8.674 1.008-13.005.446-6.2.574-12.443 1.381-18.59.976-7.389 4.926-13.058 11.412-16.869.712 1.083 1.179 2.293 1.582 3.514.032.69-.265 1.295-.488 1.932-1.338 3.811-1.465 7.527.531 11.232 3.376 6.274 5.414 12.984 5.902 20.097.298 4.236-.053 8.461-1.582 12.506" fill="#324160"/><path d="M522.762 672.695c.138-2.261.712-4.459.988-6.71.594-4.756-.138-9.342-1.189-13.939-1.02-4.469-2.962-8.567-4.937-12.676-2.028-4.236-1.454-8.408.775-12.442 3.917 8.748 7.612 17.602 8.589 27.241.658 6.572-.382 12.91-4.215 18.526" fill="#112E50"/><path d="M516.817 623.403c-1.104-2.782-2.261-5.542-3.323-8.345-1.847-4.851-3.365-9.788-3.546-15.043-.255-7.814 2.962-14.268 7.856-20.054a90.832 90.832 0 0 1 4.725-5.171c7.187-7.272 10.372-16.179 10.818-26.211.254-5.786-.616-11.477-1.104-17.22-1.54-18.175 4.639-32.964 19.619-43.687 5.722-4.108 12.442-5.488 19.332-6.083 4.862-.414 9.714-.69 14.598-.095 6.359.775 10.743 4.044 13.026 10.043.35.934.701 1.157 1.762 1.061 6.88-.605 12.804 1.763 17.645 6.519 8.365 8.206 12.039 18.398 12.049 30.012 0 6.413-1.327 12.655-2.473 18.929-1.083 5.956-1.349 11.838 1.412 17.496 1.688 3.472 4.055 6.359 7.038 8.78 3.907 3.164 7.251 6.826 9.47 11.381 3.419 7.049 3.036 14.236.743 21.487-1.412 4.512-3.514 8.727-5.531 12.974-.488.732-1.199.456-1.836.392-7.347-.796-14.672-1.804-22.019-2.686-2.049-.244-4.119-.424-6.157-.806-1.37-.255-2.559-.107-3.599.87-2.039.011-3.249-1.433-4.427-2.728-2.357-2.612-3.843-5.733-4.714-9.13-.626-2.495-1.306-5.001-1.168-7.612.085-1.444-.562-2.846-.191-4.3.297-.839 1.019-1.295 1.688-1.773 7.517-5.393 11.965-12.75 13.961-21.689.456-2.049.467-2.081 2.473-2.092 1.03 0 1.932-.35 2.771-.891 3.387-2.166 5.648-7.92 4.64-11.785a8.468 8.468 0 0 0-.595-1.592c-.839-1.688-1.104-1.752-2.537-.499-.436.371-.892.701-1.327 1.072-.743.648-1.593 1.147-2.389 1.72-.414.297-.849.658-1.391.223-.562-1.752-.382-3.588-.541-5.372-.903-9.894-3.801-19.078-9.343-27.369-2.76-4.13-6.125-7.707-10.298-10.457-.859-.595-1.316-.021-1.762.616-1.157 1.656-2.442 3.206-3.758 4.756-3.758 4.427-8.291 7.951-12.995 11.274-7.346 5.202-15.245 9.428-23.462 13.059-.764.339-1.38.775-1.412 1.677-.053 1.603-.531 3.174-.286 4.799-.043 2.25.223 4.512-.17 6.741-.436.786-1.019.488-1.561.191-.584-.318-1.051-.807-1.592-1.178-.881-.722-1.837-1.359-2.601-2.219-.743-.839-1.264-.595-1.816.223-.955 1.401-1.316 2.994-1.199 4.586.244 3.419 1.56 6.423 4.087 8.812 1.051.987 2.261 1.688 3.758 1.613 1.497-.074 2.145.69 2.41 2.049 1.21 6.073 3.886 11.434 7.888 16.158 1.752 2.081 3.822 3.78 5.977 5.404.616.467 1.348.807 1.561 1.656.201 1.38 0 2.771.074 4.151-.042 5.606-1.38 10.861-4.639 15.468-1.476 2.081-3.175 4.077-5.818 4.852a1.052 1.052 0 0 1-.414-.202c-1.624-1.507-1.816-1.454-2.559.701-1.794 5.213-1.444 10.521-.711 15.819.51 3.694 1.157 7.346 1.083 11.104-.191 8.493-3.546 15.649-9.045 21.913-3.504 3.981-7.814 6.73-12.931 8.217-1.656.477-3.355.594-5.032.902-1.784.127-3.546.042-5.287-.435-.85-.425-.839-1.083-.467-1.816.382-.732.807-1.444 1.242-2.144 2.739-4.13 3.938-8.737 4.161-13.621.329-7.336-1.804-14.205-4.257-20.989-1.295-3.599-2.771-7.134-4.246-10.658-.425-1.264-1.317-2.347-1.327-3.748" fill="#383338"/><path d="M607.088 617.851c.679-1.264 1.656-1.518 3.11-1.327 9.98 1.316 19.98 2.526 29.981 3.758.244.032.499-.064.754-.106 1.507.446 3.025.881 4.533 1.348.531.17 1.104.255 1.507.69-1.231 8.037-3.79 15.67-6.73 23.239-2.782 7.145-4.343 14.609-4.332 22.305 0 2.686.149 5.415.934 8.005 2.262 7.421.935 14.555-1.486 21.647-1.062 3.111-2.75 5.913-4.395 8.737-.202.351-.488.68-.488 1.126-4.449 1.178-8.971 1.964-13.494 2.76-14.353 2.516-28.813 3.302-43.336 2.696-8.801-.361-17.549-1.263-26.212-2.887-4.724-.871-9.448-1.709-14.098-2.93-2.092-2.559-3.472-5.521-4.672-8.547-2.027-5.106-3.11-10.425-2.898-15.945.074-2.049.244-4.141 1.348-5.977 1.423-.266 2.867-.446 4.268-.828 8.451-2.251 14.194-7.782 18.303-15.267 4.098-7.484 4.777-15.383 3.153-23.653-1.041-5.308-1.444-10.68-.191-16.031.233-.998.584-1.985.934-2.951.191-.51.244-1.221.945-1.295.754-.085 1.242.392 1.614 1.019.159.255.371.488.562.732 1.433.68 2.389 1.964 3.663 2.845 4.958 3.461 10.436 5.468 16.381 6.328 7.835 1.125 15.277-.159 22.326-3.727 2.442-1.242 4.756-2.739 6.667-4.777.393-.414.828-.786 1.38-.987" fill="#324160"/><path d="M630.476 707.262c-.754-.17-.552-.478-.223-.956 2.389-3.524 4.268-7.314 5.489-11.402 1.157-3.917 1.889-7.92 1.858-12.017-.011-2.23-.574-4.385-1.094-6.54-1.231-5.117-1.263-10.287-.616-15.511 1.02-8.27 4.024-15.945 6.954-23.664 1.709-4.48 2.675-9.193 3.45-13.928.075-.467.043-.956.68-1.03 8.037 3.843 12.761 10.223 13.6 19.046 1.199 12.527 1.964 25.097 2.919 37.645.425 5.574.871 11.148 1.338 16.732.063.743-.085 1.104-.828 1.38a262.74 262.74 0 0 1-33.07 10.202c-.149.043-.308.032-.468.043m-110.24-3.833c-.86-.807-.733-1.953-.828-2.909-.51-4.989-.669-9.99-.117-15.001.297-2.76.318-5.573 1.539-8.153.223-.467.489-.892.744-1.348 1.836.138 3.694.265 5.531.414-.446 2.781-1.126 5.542-.945 8.408.318 5.032 1.38 9.873 3.397 14.502.987 2.282 2.113 4.48 3.514 6.529.223.319.265.658.265 1.019-4.437-.902-8.769-2.197-13.1-3.471" fill="#112E50"/><path d="M549.813 556.859c.021-2.495.042-4.979.074-7.474.871-1.061 2.24-1.157 3.387-1.688 4.331-2.027 8.769-3.843 12.962-6.189 2.092-.319 3.769.679 5.457 1.688.69.414 1.561 1.518 2.23.531.69-1.03-.68-1.476-1.328-2.028-.881-.775-2.218-.881-2.908-1.943.095-.775.817-.87 1.316-1.168 7.782-4.83 14.481-10.807 19.449-18.589 1.359-2.134 2.389-4.448 3.589-6.667 4.055 2.314 7.113 5.68 9.767 9.406 6.125 8.557 9.268 18.186 10.202 28.611.159 1.805.287 3.61.319 5.425.838 1.625.318 3.344.307 5.011 0 1.019-.212 2.06-.318 3.068 1.72-1.199 2.877-3.726 2.962-6.348.042-1.274-.287-2.601.414-3.811.775-.68 1.571-1.328 2.304-2.049.658-.637 1.029-.383 1.465.233 1.178 1.731 1.73 3.62 1.592 5.712-.233 3.577-1.72 6.582-4.331 8.981-1.232 1.126-2.75 1.667-4.438 1.412-.679-.095-1.062-.042-1.2.733-1.868 10.106-7.028 18.101-15.531 23.908-.128.085-.234.201-.351.318-.297.351-.573.712-1.008.945-3.897 2.049-7.994 3.344-12.421 3.546-4.799.202-9.375-.605-13.749-2.569-1.21-.552-2.484-1.051-3.27-2.251-8.535-5.605-13.631-13.504-15.68-23.441-.138-.679-.244-1.306-1.231-1.168-2.294.319-4.045-.753-5.415-2.42-2.442-2.983-3.907-6.327-3.302-10.298a7.937 7.937 0 0 1 .489-1.784c1.115-2.686 1.624-2.792 3.662-.838.595.562 1.211 1.114 1.805 1.677-.509 2.835-.233 5.542 1.2 8.09.308.531.531 1.125 1.221 1.444.361-.51.233-1.083.127-1.582-.35-1.688-.074-3.408-.382-5.096-.106-.552.074-1.019.595-1.317" fill="#E38C66"/><path d="M607.088 617.85c-2.781 3.599-6.593 5.765-10.659 7.453-5.106 2.123-10.478 3.153-15.998 2.813-8.6-.52-16.488-3.046-22.974-9.013-.298-.265-.521-.626-.775-.955 6.115-3.493 8.493-9.279 9.618-15.787.234-1.369.287-2.771.435-4.151.255-.828-.414-2.081.383-2.442 1.008-.456 1.688.775 2.399 1.359 4.119 3.408 8.833 5.415 14.162 5.627 4.427.17 8.419-1.348 12.05-3.864.456-.319.902-1.232 1.645-.33.319 5.064 1.465 9.895 4.204 14.237 1.381 2.176 3.143 3.939 5.51 5.053Z" fill="#E38C66"/><path d="M594.019 513.342c.117 1.465-.849 2.527-1.454 3.674-3.482 6.55-8.217 12.081-14.056 16.678-2.803 2.198-5.637 4.321-8.759 6.03-.626.584-1.274.17-1.9.053-3.716-.679-7.071.202-10.139 2.315a4.493 4.493 0 0 0-1.433 1.592c-.18.34-.244.69.074.987.308.287.659.255.998.075.319-.181.563-.446.839-.68a12.403 12.403 0 0 1 5.213-2.633c.966-.233 2.017-.562 2.93.266-.627.754-1.497 1.168-2.357 1.55a1769.858 1769.858 0 0 1-12.198 5.488c-.595.266-1.253.436-1.879.648-.202-1.624.286-3.185.308-4.788 0-.955.806-1.231 1.528-1.55 7.782-3.44 15.256-7.431 22.295-12.23 7.017-4.788 13.451-10.181 18.239-17.305.562-.838 1.104-1.072 1.773-.159m3.323 85.218c-1.232-.011-1.911 1.019-2.814 1.582-3.11 1.932-6.497 3.036-10.085 3.047-5.362.01-10.192-1.837-14.449-5.118-.287-.223-.52-.53-.839-.679-.764-.35-1.178-1.603-1.911-1.38-.828.255.043 1.539-.531 2.208v-4.629c3.514 2.134 7.283 3.557 11.381 4.119 5.68.786 11.105.011 16.286-2.42.934-.446 1.857-.902 2.781-1.348.074 1.539.138 3.089.202 4.639m20.277-43.899c.043 2.93.308 5.882-1.274 8.589-.616 1.051-1.476 1.773-2.537 2.845.17-3.355.573-6.338.456-9.342 1.296-.425 2.209-1.455 3.355-2.081m-67.849 2.155c-.34 1.943.01 3.875.17 5.807.074.987.138 1.943.106 2.93-.658.191-1.041-.233-1.327-.626-1.932-2.622-2.707-5.552-2.283-8.78a1.15 1.15 0 0 1 .574-.881c1.051.276 1.539 1.561 2.749 1.55m27.38 5.977h8.1c.584 0 1.157-.042 1.741-.074.382.223.457.594.478.998-.987 1.773-2.622 2.569-4.523 2.781-2.25.255-4.204-.446-5.743-2.176-.17-.202-.297-.446-.446-.669.021-.34-.011-.711.393-.871" fill="#C97047"/><path d="M561.979 550.383c.096-1.168.35-2.346 1.412-3.28 1.263-1.104 2.93-1.136 4.268-.107 2.112 1.614 2.229 5.149.233 6.869a3.444 3.444 0 0 1-4.841-.35c-.775-.903-1.04-1.964-1.083-3.132m39.536.011c.01 1.401-.414 2.537-1.465 3.461-1.327 1.167-3.376 1.104-4.64-.128-1.571-1.539-1.635-4.724-.127-6.327 1.454-1.539 3.705-1.508 5.096.085.785.892 1.221 1.9 1.136 2.898m-35.183-8.684c-3.206-.319-5.85.892-8.175 2.962-.382.34-.647.881-1.22.881-.531 0-.977-.297-1.285-.754-.372-.552-.074-.987.255-1.401 2.229-2.845 5.361-3.854 8.801-4.236 1.73-.191 3.365.318 5.043.573 1.39.775 2.94 1.285 4.119 2.431.594.563 1.136 1.126.499 1.986-.669.891-1.349.488-2.007 0-1.805-1.349-3.726-2.389-6.041-2.442m31.393-2.59c3.217-.085 5.892.997 8.26 2.93.435.35.817.796 1.136 1.252.424.595.286 1.2-.202 1.688-.52.531-1.04.287-1.508-.106-1.401-1.157-2.781-2.325-4.586-2.824-3.493-.987-6.656-.297-9.523 1.837-.743.552-1.497 1.189-2.272.233-.849-1.029 0-1.73.743-2.293 2.389-1.794 5.043-2.834 7.952-2.717Z" fill="#383338"/><path d="M581.969 586.904c-11.03 0-13.461-9.576-13.461-9.576-.319-1.327.807-2.134 1.794-2.134h23.409c.987 0 2.081.955 1.784 2.134 0 0-2.495 9.576-13.526 9.576Z" fill="#fff"/><path d="M648.12 670.911c-10.011-4.915-14.969-12.771-23.164-20.914 0 0 7.633-2.707 5.52-7.24 10.362 3.429 12.803-13.165 11.657-16.052 8.302-6.02 23.876 1.061 28.951 4.968-.775 10.563 1.72 23.165-1.911 32.932l3.238 30.873-26.032.233 1.741-24.81v.01Z" fill="#E38C66"/><path d="M643.343 652.428s-9.597 6.232-12.878 2.792c-3.269-3.439-11.391-10.584-14.682-12.41a87.268 87.268 0 0 0-3.174-1.688c-.977-.499-2.814-1.253-2.994-2.474-.202-1.348 1.964-3.737 8.036-2.601 3.366.637 5.659 2.081 7.761 3.355 1.9 1.157 4.353 3.004 8.228 4.607 2.229 1.72 9.692 8.419 9.692 8.419h.011Z" fill="#E38C66"/><path d="M623.416 641.567c.594.223 1.784.011 2.113-.53l.637-1.89-.86-.425-14.587-1.974 12.686 4.83.011-.011Z" fill="#DC865D"/><path d="m670.213 642.969 1.518-19.63.372-17.899c.021-.956-.786-1.741-1.741-1.667-2.538.18-4.311 2.696-3.971 8.196l-.425 8.663-5.01 20.925 9.257 1.412Z" fill="#E38C66"/><path d="m664.257 639.529 1.571-24.279-.626-22.412a1.8 1.8 0 0 0-1.9-1.741c-3.334.181-5.553 3.376-4.767 10.404l-.064 14.407-4.862 22.517 10.659 1.104h-.011Z" fill="#E38C66"/><path d="m660.308 634.168-4.31-23.94-6.009-21.647a1.744 1.744 0 0 0-2.134-1.221c-3.27.924-4.714 4.565-2.24 11.285l3.397 13.993.69 23.027 10.606-1.486v-.011Z" fill="#E38C66"/><path d="M652.41 631.376c-1.009-8.132-2.209-16.042-7.4-19.566l-23.388-5.287c-1.433-.266-2.399 3.546.701 6.306 1.444 1.285 4.947 2.272 7.569 2.644l10.181 3.057 3.695 14.619 8.652-1.773h-.01Z" fill="#E38C66"/><path d="M657.378 663.448c-.064.021-.266-.318-.574-.955-.074-.16-.159-.34-.244-.531-.095-.191-.201-.404-.308-.627-.223-.446-.456-.966-.764-1.507-.149-.276-.297-.563-.457-.871-.159-.297-.35-.605-.53-.913l-.287-.477c-.053-.085-.096-.17-.149-.245-.053-.085-.106-.159-.159-.244-.212-.329-.425-.669-.647-1.008a43.153 43.153 0 0 0-3.27-4.236 43.333 43.333 0 0 0-3.822-3.748c-.319-.265-.627-.52-.924-.764l-.223-.191a2.803 2.803 0 0 0-.223-.17c-.148-.117-.297-.223-.446-.34-.297-.223-.573-.446-.849-.637s-.552-.382-.807-.563c-.509-.371-.987-.658-1.401-.934-.213-.138-.404-.265-.584-.382-.181-.117-.35-.212-.499-.308-.595-.371-.913-.616-.881-.679.032-.064.414.053 1.072.318.17.064.35.149.552.234.202.085.404.201.637.308.446.233.977.477 1.518.817.276.159.563.34.86.52.297.181.595.393.903.605.159.107.307.213.477.329.085.054.16.107.244.17.075.064.16.117.234.181.319.244.648.499.977.754 1.306 1.072 2.686 2.335 3.981 3.8a34.889 34.889 0 0 1 3.291 4.406c.212.361.425.722.637 1.062.053.085.106.17.149.254.053.085.095.17.138.255.085.17.18.34.265.51.17.34.35.647.488.966.138.318.276.626.414.913.276.573.457 1.125.637 1.603.085.234.17.457.234.669.064.212.117.403.159.573.191.69.255 1.083.191 1.104l-.01-.021Z" fill="#DC865D"/><path d="M652.813 654.795c-.138-.021-.128-.828.138-2.081.032-.159.074-.318.117-.488.042-.17.095-.34.148-.531.096-.361.234-.743.372-1.146.297-.796.669-1.656 1.125-2.527.467-.87.977-1.656 1.476-2.346.255-.34.499-.658.743-.945.127-.149.234-.287.361-.414.117-.127.233-.255.35-.372.892-.923 1.561-1.369 1.656-1.274.223.223-1.9 2.495-3.652 5.839-1.794 3.323-2.505 6.349-2.813 6.285h-.021Zm6.465-15.861c.032.064-.18.223-.584.436a7.921 7.921 0 0 1-.339.18c-.128.064-.266.117-.415.181-.297.127-.636.276-1.019.403-.191.064-.392.138-.605.212-.212.075-.435.128-.669.202a21.77 21.77 0 0 1-1.486.372 27.46 27.46 0 0 1-3.482.467 27.126 27.126 0 0 1-3.514-.053 18.964 18.964 0 0 1-1.518-.191c-.234-.043-.467-.075-.68-.117-.212-.043-.424-.096-.626-.138a11.276 11.276 0 0 1-1.062-.287 4.124 4.124 0 0 1-.435-.138c-.127-.053-.244-.095-.35-.138-.425-.17-.648-.297-.627-.371.022-.075.276-.075.722-.032.117.01.234.032.372.042.138.011.286.032.435.053.319.032.669.096 1.062.128l.615.063c.213.022.436.032.669.053.467.043.956.064 1.487.096 1.04.032 2.187.043 3.397-.021a37.754 37.754 0 0 0 3.376-.372c.509-.085 1.008-.17 1.465-.265.223-.043.446-.085.658-.138.212-.053.414-.096.605-.138.393-.085.733-.181 1.041-.244.159-.032.297-.064.435-.096.127-.032.255-.064.361-.085.435-.095.701-.127.722-.053l-.011-.011Zm-10.138-22.018s.339 6.943.371 8.09c.032 1.136-.414 1.146-.467-.16-.053-1.316-.34-8.79-.34-8.79l.436.871v-.011Zm8.556 2.612s-1.136 5.414-1.475 6.423c-.34 1.008-.467.467-.329-.117.138-.584 1.677-6.922 1.677-6.922l.138.616h-.011Zm7.612 3.737s-1.008 3.737-1.157 4.151c-.149.414-.616.605-.371-.128.233-.732 1.581-4.905 1.581-4.905l-.053.882Zm3.1 6.04c0-.106-.244-.17-.584-.265-.17-.053-.371-.117-.584-.191a5.983 5.983 0 0 1-1.316-.701c-.191-.138-.35-.265-.488-.371-.276-.223-.457-.383-.552-.33-.085.043-.043.308.169.659.107.17.255.361.457.552.202.18.435.361.711.509a3.4 3.4 0 0 0 .828.308c.266.053.51.075.712.064.414-.021.647-.138.637-.223l.01-.011Zm1.879-16.37c-.063-.191-.891-.064-1.879-.127-.987-.054-1.783-.277-1.879-.096-.042.085.117.265.446.435.329.17.818.329 1.391.361.562.032 1.072-.064 1.422-.202.351-.138.531-.286.499-.382v.011Zm-2.25 8.61c.562.063 1.083.01 1.444-.096.36-.106.562-.244.541-.329-.043-.191-.892-.148-1.9-.276-1.009-.117-1.816-.361-1.911-.18-.043.085.116.265.446.446.318.18.817.36 1.38.435Zm-8.324 5.35c-1.581-.329-2.739-1.029-2.845-.86-.053.075.181.361.648.691.233.159.531.329.87.477.34.149.733.276 1.158.372.424.085.838.127 1.22.138.383 0 .722-.021 1.009-.074.573-.096.913-.266.902-.351-.021-.201-1.38-.042-2.951-.403l-.011.01Zm-.116-23.918a5.81 5.81 0 0 0 1.698.212c.669-.011 1.274-.127 1.688-.276.414-.138.648-.297.627-.393-.053-.191-1.083-.064-2.336-.042-1.253.032-2.282-.064-2.336.127-.021.096.223.244.648.361l.011.011Zm2.654 12.708c.286-.085.541-.181.732-.287.404-.212.595-.414.552-.499-.095-.181-1.061.17-2.282.223-1.221.074-2.219-.181-2.304 0-.032.085.181.276.605.435.213.085.467.159.765.202.297.042.626.064.966.053.339-.021.669-.074.955-.149l.011.022Zm-7.665 10.234c-.106.01-.234.032-.361.032-.128.01-.266.021-.414.021-.287 0-.605 0-.934-.032a7.206 7.206 0 0 1-.914-.159 3.569 3.569 0 0 1-.392-.106c-.128-.032-.244-.075-.34-.107-.425-.138-.701-.244-.754-.159-.053.074.128.329.531.605.106.064.212.138.35.202.128.074.276.127.425.18.308.107.658.192 1.04.234.372.032.744.021 1.062-.021.159-.032.319-.053.457-.096.138-.032.265-.085.382-.127.456-.191.679-.404.647-.488-.042-.096-.329-.054-.775 0l-.01.021Zm-6.402-27.422c-1.231.361-2.282.446-2.293.647 0 .096.265.202.722.234a5.299 5.299 0 0 0 1.762-.202c.669-.191 1.242-.488 1.603-.764.372-.276.542-.499.489-.584-.117-.17-1.062.318-2.294.669h.011Zm5.69 12.729c-.074-.075-.329.095-.711.308-.095.053-.202.116-.318.169-.117.064-.245.117-.372.181a7.779 7.779 0 0 1-.881.308 6.263 6.263 0 0 1-.924.159c-.148 0-.286.032-.414.032h-.361c-.446 0-.743-.021-.775.074-.032.085.223.276.701.414.117.032.255.064.403.085.149.021.308.032.468.043.329 0 .7-.032 1.072-.128.371-.095.711-.244.998-.403.138-.085.276-.17.393-.266.116-.085.222-.18.307-.265.361-.35.478-.648.414-.711Zm-10.393 3.609c-.096-.021-.234.234-.457.616a8.674 8.674 0 0 1-.403.648c-.17.233-.35.477-.573.721a6.043 6.043 0 0 1-.669.637c-.223.181-.425.34-.605.468-.361.254-.605.414-.573.509.031.085.339.096.796-.074.233-.085.488-.212.764-.393a4.61 4.61 0 0 0 .796-.69 3.94 3.94 0 0 0 .605-.86 3.46 3.46 0 0 0 .308-.796c.117-.478.085-.786 0-.807l.011.021Zm1.784 11.339c-1.497.318-2.761.201-2.803.403-.021.095.286.244.828.34.265.053.594.074.945.074a6.252 6.252 0 0 0 2.282-.467 5.81 5.81 0 0 0 .85-.435c.456-.298.679-.563.626-.637-.117-.17-1.232.435-2.728.722Z" fill="#DC865D"/><path d="M632.747 612.266c-.021-.445-.148-.711-.233-.7-.202.021-.223 1.029-.796 2.07-.542 1.051-1.338 1.688-1.232 1.858.053.074.329.01.701-.234a3.59 3.59 0 0 0 1.146-1.295c.16-.308.266-.616.34-.913.064-.297.085-.563.074-.786Z" fill="#C97047"/><path d="M595.846 603.614c-.935-.319-1.986.276-2.347 1.337l-7.251 21.159c-.361 1.061.096 2.176 1.041 2.495l36.34 12.453c.934.318 1.985-.276 2.346-1.338l7.251-21.158c.361-1.062-.096-2.177-1.041-2.495l-36.339-12.453Z" fill="#CDD7EE"/><path d="M595.421 602.52c-.934-.318-1.986.276-2.346 1.338l-7.251 21.159c-.361 1.061.095 2.176 1.04 2.494l36.34 12.453c.934.319 1.985-.276 2.346-1.337l7.251-21.159c.361-1.061-.095-2.176-1.04-2.495l-36.34-12.453Z" fill="#fff"/><path d="M595.421 602.52c-.935-.318-1.986.276-2.347 1.338l-1.093 3.185 39.727 13.61 1.093-3.185c.361-1.061-.096-2.176-1.04-2.495l-36.34-12.453Z" fill="#415874"/><path d="m588.856 625.862 5.44-15.878 14.221 4.872-5.439 15.878-14.222-4.872Z" fill="#CDD7EE"/><mask id="d" style="mask-type:luminance" maskUnits="userSpaceOnUse" x="588" y="609" width="21" height="22"><path d="m588.856 625.862 5.44-15.879 14.221 4.872-5.439 15.879-14.222-4.872Z" fill="#fff"/></mask><g mask="url(#d)"><path d="m592.873 622.001-.032-.68c-.011-.392 0-.775.117-1.157.17-.562.562-.945 1.051-1.242.148-.085.308-.18.467-.255.69-.339 1.136-.902 1.412-1.603.159-.403.233-.838.34-1.252.339-1.338 1.136-2.241 2.473-2.644.51-.149 1.019-.085 1.529.043.361.084.711.191 1.04.35.436.212.669.552.68 1.03 0 .074.021.095.095.116.51.128.871.436 1.105.892.392.786.414 1.603.127 2.431-.159.457-.404.871-.637 1.296-.223.392-.382.806-.329 1.284.032.287.138.552.286.796.202.319.351.669.393 1.041.075.584-.127 1.093-.467 1.55a7.212 7.212 0 0 1-.711.785c-.053.043-.096 0-.138-.01-.51-.234-1.009-.489-1.508-.733-.138-.063-.286-.127-.414-.212-.095-.053-.18-.074-.276-.021-.148-.053-.201-.181-.244-.308a1.573 1.573 0 0 1-.117-.765c.022-.191.032-.392.106-.573.043-.095.032-.212.096-.308.042-.053.106-.063.159-.085.669-.201 1.168-.615 1.529-1.21.085-.138.085-.138.234-.085a.403.403 0 0 0 .223 0c.297-.074.594-.425.615-.732v-.128c-.021-.138-.032-.148-.17-.095-.042.01-.085.031-.116.042-.075.032-.138.043-.213.064-.042 0-.074.021-.106-.021 0-.138.064-.266.096-.393a4.328 4.328 0 0 0 0-2.177 2.735 2.735 0 0 0-.478-.998c-.043-.063-.096-.031-.138 0-.127.085-.255.17-.382.245-.372.223-.786.361-1.2.488a10.52 10.52 0 0 1-1.996.361c-.064 0-.117.021-.138.085-.042.117-.117.212-.138.34-.064.159-.095.329-.18.477-.053.043-.085 0-.117-.021-.032-.032-.053-.085-.085-.127-.042-.075-.096-.138-.127-.223-.032-.075-.075-.075-.138-.032a.518.518 0 0 0-.202.297c-.064.255-.043.499.074.733.053.095.117.18.223.201.106.032.138.107.117.202-.064.467 0 .913.17 1.348.074.191.18.361.297.531.032.053.074.085.074.159-.021.107-.063.202-.095.298-.138.403-.361.743-.712.987-.159.117-.329.212-.53.202 0 0-.022-.011-.022-.021-.085-.149-.095-.149-.201-.011-.255.329-.361.711-.436 1.115-.053.276-.095.552-.191.817-.223.605-.637 1.03-1.178 1.338-.35.201-.722.286-1.125.265-.128 0-.255-.042-.383-.053a1.124 1.124 0 0 1-.361-.159c-.053-.053-.031-.096.011-.138.043-.043.096-.085.138-.128.297-.223.499-.53.626-.87.202-.51.223-1.062.213-1.603 0-.287-.021-.573-.043-.86 0-.096-.032-.202 0-.297" fill="#383338"/><path d="M599.455 623.816c.085-.074.159-.064.255-.021.679.34 1.359.669 2.049.998.021 0 .042 0 .053.01.095.064.191.138.287.202.031.021.074.043.085.085-.287.542-.659 1.03-1.051 1.497a4.513 4.513 0 0 0-.85 1.486 2.25 2.25 0 0 0-.127.595c-.021.584-.287 1.061-.637 1.507-.149.202-.34.351-.531.52-.021.022-.053.043-.064.064a8.115 8.115 0 0 1-1.03-.138 15.07 15.07 0 0 1-3.163-.87 14.82 14.82 0 0 1-1.805-.85c-.319-.18-.637-.35-.934-.552a2.405 2.405 0 0 1-.128-.722 2.946 2.946 0 0 1 .181-1.21c.053-.149.117-.287.244-.393.106.022.212.043.329.043.658.042 1.2-.213 1.678-.648.477-.435.721-.977.806-1.614.053-.403.16-.796.383-1.146.042-.064.095-.128.138-.191.021-.032.042-.085.095-.075.053.011.074.054.096.117 0 .022.01.043.021.064.085.085.127.202.191.297.265.372.616.648 1.019.85.531.276 1.094.36 1.688.276.202-.032.404-.075.595-.181a.252.252 0 0 1 .127-.032" fill="#324160"/><path d="M598.934 630.771s-.032-.053 0-.075c.255-.191.489-.414.669-.679.181-.255.329-.52.425-.807.053-.159.064-.329.085-.488.032-.393.159-.765.329-1.126.276-.562.679-1.04 1.072-1.518.234-.276.414-.594.584-.913.021-.032.021-.063.074-.063.478.477.659 1.04.51 1.688-.223.923-.478 1.836-.711 2.76l-.319 1.231c-.01.053-.032.075-.095.075-.871.031-1.741 0-2.612-.085h-.032" fill="#112E50"/><path d="M592.098 625.664s-.096.074-.138.117c-.032.021-.053.053-.032.095 0 .021 0 .032-.011.043-.414.53-.594 1.167-.732 1.815 0 .021 0 .042-.022.064a18.969 18.969 0 0 1-1.125-.871c-.053-.042-.064-.085-.032-.149.234-.552.467-1.104.712-1.645.127-.297.265-.605.392-.902.181-.436.34-.871.552-1.296a1.676 1.676 0 0 1 1.232-.923.865.865 0 0 1 .021.286c-.011.053-.053.085-.085.128-.191.244-.286.499-.233.817a3.613 3.613 0 0 1-.075 1.582 2.257 2.257 0 0 1-.414.849" fill="#324160"/><path d="M591.164 627.798c-.043-.075 0-.16.01-.223.085-.372.202-.733.361-1.073.085-.191.159-.392.308-.541.032-.032.053-.053.085-.074.127.053.255.106.382.17-.095.191-.212.371-.276.573a3.338 3.338 0 0 0-.117 1.115c.011.191.043.371.096.552v.085c-.297-.17-.573-.372-.849-.574" fill="#112E50"/><path d="m596.854 618.062.191-.531c.085-.053.191-.031.286-.042.361-.042.722-.064 1.073-.127.159.031.254.138.35.254.042.043.074.149.149.096.074-.053-.011-.127-.043-.181-.042-.074-.138-.116-.159-.212.021-.053.085-.042.117-.053.668-.159 1.295-.414 1.847-.849.149-.117.276-.255.425-.393.233.265.371.584.467.913.223.764.212 1.529.032 2.293-.032.127-.064.266-.107.393.022.138-.063.244-.095.361-.032.074-.064.138-.096.212.149-.042.298-.191.361-.382.032-.085.043-.191.128-.265.074-.032.148-.053.212-.096.064-.032.085 0 .095.053a.65.65 0 0 1-.031.446.967.967 0 0 1-.531.531.407.407 0 0 1-.351 0c-.042-.021-.074-.032-.106.021a2.71 2.71 0 0 1-1.688 1.327c-.01 0-.021 0-.032.011-.031.021-.063.042-.095.042a2.173 2.173 0 0 1-.977-.053 2.236 2.236 0 0 1-.913-.52.527.527 0 0 1-.18-.244 2.654 2.654 0 0 1-.542-2.06c0-.053.011-.095-.063-.117-.17-.031-.266-.148-.33-.307-.095-.277-.127-.542.022-.818.021-.042.042-.085.074-.117.149-.17.18-.159.287.032.031.053.053.106.085.159a.928.928 0 0 0-.117.605c0 .043 0 .096.053.139.042-.032.042-.075.042-.107.022-.127.075-.244.096-.371 0-.043.032-.075.074-.075" fill="#E38C66"/><path d="M599.454 623.816c-.286.191-.615.255-.945.266a2.632 2.632 0 0 1-1.21-.191c-.605-.245-1.104-.616-1.422-1.211a.569.569 0 0 1-.032-.085c.52-.095.828-.456 1.072-.891.053-.096.085-.192.127-.287.043-.053.022-.159.085-.17.085 0 .107.096.138.159.213.34.499.605.871.743.308.117.637.107.955.022.043-.011.096-.064.128.021-.096.371-.138.743-.043 1.115a1 1 0 0 0 .266.499" fill="#E38C66"/><path d="M601.079 616.034c-.032.107-.128.16-.191.223a4.07 4.07 0 0 1-1.412.85c-.255.085-.51.17-.775.212-.053.032-.096-.021-.138-.042a.982.982 0 0 0-.775-.085.337.337 0 0 0-.138.074c-.022.021-.032.042-.022.074.011.032.043.032.075.032.021 0 .053-.021.074-.032.138-.053.287-.074.435-.063.075 0 .16 0 .202.085-.064.042-.138.042-.202.053l-1.008.095h-.149c.021-.117.096-.223.138-.34.021-.063.085-.063.149-.074a10.343 10.343 0 0 0 1.89-.329c.615-.17 1.21-.393 1.719-.786.064-.042.107-.053.128.032" fill="#C97047"/><path d="M592.098 625.664c.063-.16.159-.298.233-.457.159-.329.223-.669.255-1.019.032-.34 0-.68-.042-1.03-.043-.35.106-.637.361-.87.063.722.116 1.443-.054 2.155-.116.488-.339.913-.753 1.221Z" fill="#112E50"/><path d="M599.232 622.203c-.085-.032-.16.032-.245.042a1.445 1.445 0 0 1-.796-.032c-.382-.127-.679-.382-.902-.722-.011-.021-.022-.053-.043-.074-.042-.042-.042-.149-.106-.149s-.032.107-.095.149c.042-.106.074-.223.116-.329.202.244.436.435.712.573.382.191.796.276 1.22.223.075 0 .16-.021.234-.032l-.095.34m2.526-2.622c-.063.212-.117.425-.297.584a.858.858 0 0 1-.255.138c.096-.234.191-.435.266-.658.106 0 .191-.054.286-.064Zm-4.905-1.508c-.074.128-.095.276-.127.414l-.064.213c-.053 0-.074-.043-.085-.075a.89.89 0 0 1 .053-.679.109.109 0 0 1 .064-.053c.064.042.075.149.159.18Zm1.816 1.094.584.202.127.031c.021.022.021.053 0 .085-.117.106-.244.117-.393.085a.482.482 0 0 1-.361-.297c0-.021-.01-.043-.01-.064 0-.021.01-.053.053-.053" fill="#C97047"/><path d="M597.884 617.903a.334.334 0 0 1 .18-.202.267.267 0 0 1 .308.096c.106.169.032.424-.149.499a.268.268 0 0 1-.197-.001.268.268 0 0 1-.142-.137.412.412 0 0 1 0-.255Zm2.824.966a.344.344 0 0 1-.192.212.258.258 0 0 1-.329-.117c-.074-.148 0-.382.149-.456a.26.26 0 0 1 .361.127c.032.085.042.17 0 .234m-2.293-1.486c-.223-.107-.435-.075-.658.01-.032.011-.064.043-.107.032-.042-.011-.063-.043-.074-.085-.011-.053.021-.074.053-.095.234-.149.478-.149.733-.085.127.031.233.106.35.169.085.085.181.16.234.276.031.054.053.107-.011.149-.074.043-.106 0-.138-.053-.096-.138-.212-.265-.372-.318m2.294.583a.929.929 0 0 1 .52.414.418.418 0 0 1 .053.117c.021.053 0 .096-.053.117-.053.021-.085 0-.106-.042-.075-.117-.138-.234-.255-.319a.755.755 0 0 0-.722-.095c-.064.021-.138.042-.17-.043-.032-.095.042-.127.106-.149a.942.942 0 0 1 .637 0" fill="#383338"/><path d="M598.415 620.992c-.786-.265-.722-1.008-.722-1.008 0-.106.106-.138.18-.107l1.667.574c.074.021.127.117.074.202 0 0-.414.626-1.199.35" fill="#fff"/></g><path d="m608.526 619.083 1.297-3.786 18.812 6.444-1.297 3.787-18.812-6.445Zm-3.75 11.206 18.811 6.444-.313.914-18.811-6.444.313-.914Zm.499-1.47 12.806 4.387-.313.914-12.806-4.387.313-.914Zm.515-1.486 10.485 3.592-.313.914-10.486-3.592.314-.914Zm.502-1.474 15.447 5.292-.313.914-15.447-5.292.313-.914Zm.504-1.476 12.072 4.135-.313.914-12.072-4.135.313-.914Zm.506-1.479 10.485 3.592-.313.914-10.485-3.592.313-.914Zm.509-1.488 7.703 2.639-.313.914-7.703-2.639.313-.914Z" fill="#CDD7EE"/><path d="m599.764 608.046.661-1.928.081.027.159.055a9.834 9.834 0 0 1 .335.118c.232.085.409.192.53.321a.764.764 0 0 1 .211.439c.022.165-.001.343-.066.535-.069.2-.165.36-.288.481a.803.803 0 0 1-.449.222c-.177.028-.38.002-.611-.077l-.563-.193Zm.5-.18.179.061c.11.038.218.051.322.039a.515.515 0 0 0 .289-.135.836.836 0 0 0 .215-.36.854.854 0 0 0 .053-.39.479.479 0 0 0-.135-.278.758.758 0 0 0-.293-.173l-.185-.063-.445 1.299Zm1.42.838.661-1.929.814.279c.154.053.271.12.352.203a.5.5 0 0 1 .146.278.65.65 0 0 1-.033.322.638.638 0 0 1-.136.241.53.53 0 0 1-.183.131.752.752 0 0 1-.206.057l.082.931-.404-.139-.059-.85-.391-.134-.254.743-.389-.133Zm.746-.91.356.122a.37.37 0 0 0 .276.001.297.297 0 0 0 .166-.185.283.283 0 0 0-.016-.241.346.346 0 0 0-.196-.154l-.385-.131-.201.588Zm1.112 1.547.661-1.929.388.133-.661 1.928-.388-.132Zm1.322.452-.006-2.157.372.128.011 1.653 1.019-1.301.373.128-1.327 1.701-.442-.152Zm1.374.471.661-1.929 1.325.454-.114.328-.932-.32-.161.469.81.277-.11.321-.813-.278-.164.479.95.327-.114.331-1.338-.459Zm1.702.583.66-1.929.814.279c.154.053.271.12.353.203a.507.507 0 0 1 .146.278.673.673 0 0 1-.033.322.639.639 0 0 1-.137.241.521.521 0 0 1-.183.131.717.717 0 0 1-.206.056l.082.932-.404-.139-.059-.85-.391-.134-.254.743-.388-.133Zm.745-.91.356.122a.365.365 0 0 0 .276 0 .295.295 0 0 0 .166-.184.283.283 0 0 0-.016-.241.343.343 0 0 0-.196-.154l-.384-.131-.202.588Zm1.434.339.279-.31-.132-.06.128-.373.393.134-.112.33-.412.328-.144-.049Zm1.09 1.721a1.162 1.162 0 0 1-.269-.133.967.967 0 0 1-.214-.193.588.588 0 0 1-.125-.528l.399.137a.337.337 0 0 0 .141.316.637.637 0 0 0 .196.103.59.59 0 0 0 .184.033.317.317 0 0 0 .162-.035.2.2 0 0 0 .099-.119c.023-.066.016-.124-.021-.173a.617.617 0 0 0-.169-.147l-.334-.203a.967.967 0 0 1-.235-.19.51.51 0 0 1-.114-.236.563.563 0 0 1 .03-.287.529.529 0 0 1 .205-.277.664.664 0 0 1 .339-.107c.131-.008.267.012.41.061.161.055.287.128.38.218.093.09.154.189.182.298a.558.558 0 0 1-.011.326l-.39-.134a.305.305 0 0 0-.006-.181.304.304 0 0 0-.101-.133.58.58 0 0 0-.17-.089c-.117-.04-.21-.046-.279-.017a.229.229 0 0 0-.137.137.196.196 0 0 0 .011.163c.029.05.085.099.169.149l.31.186c.116.067.204.14.263.219.06.078.095.16.105.246a.588.588 0 0 1-.237.54.686.686 0 0 1-.344.113 1.076 1.076 0 0 1-.429-.063Zm1.735.565.661-1.929.392.134-.548 1.599.838.287-.113.33-1.23-.421Zm1.54.527.661-1.929.388.133-.661 1.929-.388-.133Zm1.597.577a.9.9 0 0 1-.422-.285.864.864 0 0 1-.182-.456 1.291 1.291 0 0 1 .076-.565c.069-.203.164-.365.284-.486a.816.816 0 0 1 .416-.233.946.946 0 0 1 .507.043.872.872 0 0 1 .357.22.763.763 0 0 1 .201.715l-.408-.14a.538.538 0 0 0-.007-.201.365.365 0 0 0-.088-.167.398.398 0 0 0-.176-.111.424.424 0 0 0-.255-.014.428.428 0 0 0-.221.159 1.235 1.235 0 0 0-.184.367c-.082.24-.104.427-.064.56a.395.395 0 0 0 .264.27.38.38 0 0 0 .209.015.426.426 0 0 0 .176-.092.599.599 0 0 0 .132-.163l.409.139a1.155 1.155 0 0 1-.157.24.727.727 0 0 1-.216.174.654.654 0 0 1-.286.073 1.005 1.005 0 0 1-.365-.062Zm1.139.36.66-1.929 1.325.454-.114.328-.932-.32-.161.468.81.278-.11.321-.812-.278-.164.479.949.327-.113.33-1.338-.458Zm1.701.583.661-1.929.385.132.443 1.578.438-1.276.389.133-.661 1.929-.351-.12-.461-1.641-.455 1.327-.388-.133Zm2.801.989a1.207 1.207 0 0 1-.27-.132.944.944 0 0 1-.213-.194.674.674 0 0 1-.125-.244.565.565 0 0 1 0-.283l.399.136a.327.327 0 0 0 .025.174.396.396 0 0 0 .115.143.647.647 0 0 0 .196.102.597.597 0 0 0 .184.034.328.328 0 0 0 .162-.036.194.194 0 0 0 .099-.119c.023-.066.016-.124-.021-.173a.596.596 0 0 0-.168-.147l-.335-.203a.942.942 0 0 1-.234-.19.507.507 0 0 1-.115-.236.563.563 0 0 1 .03-.287.529.529 0 0 1 .205-.277.67.67 0 0 1 .339-.107c.131-.008.268.013.41.061a.997.997 0 0 1 .38.219.639.639 0 0 1 .183.298.564.564 0 0 1-.012.325l-.39-.133a.308.308 0 0 0-.006-.182.294.294 0 0 0-.101-.132.559.559 0 0 0-.17-.09c-.117-.04-.21-.046-.279-.017a.225.225 0 0 0-.136.137.189.189 0 0 0 .011.163c.028.05.085.099.168.149l.31.187a.859.859 0 0 1 .264.218.513.513 0 0 1 .073.512.528.528 0 0 1-.206.274.673.673 0 0 1-.344.113 1.071 1.071 0 0 1-.428-.063Zm1.13.358.661-1.929 1.325.454-.114.327-.933-.319-.16.468.81.277-.11.322-.813-.278-.164.478.95.327-.114.331-1.338-.458Z" fill="#fff"/><path d="M620.39 609.644c.796 3.61 4.3 4.278 8.982 3.631l-8.982-3.631Z" fill="#E38C66"/><path d="M668.037 668.639s-.085 0-.213.042c-.117.054-.297.138-.52.234a9.582 9.582 0 0 1-1.953.626c-.85.17-1.88.266-3.037.223-1.157-.032-2.42-.201-3.779-.382-1.348-.17-2.665-.308-3.886-.265-1.21.032-2.303.244-3.174.552-.871.308-1.518.7-1.911 1.03l-.255.223a1.297 1.297 0 0 0-.17.18c-.085.106-.127.17-.106.191.021.021.085 0 .213-.064l.499-.276a8.871 8.871 0 0 1 1.91-.743c.839-.223 1.869-.35 3.016-.35 1.146 0 2.42.149 3.768.318 1.349.17 2.654.319 3.865.319 1.21 0 2.303-.159 3.185-.414.881-.266 1.55-.616 1.974-.903.106-.074.191-.148.276-.201.075-.064.138-.128.181-.17.095-.096.138-.159.117-.181v.011Z" fill="#DC865D"/></g><path d="M716.235 664.106C692.168 686.39 659.958 700 624.573 700c-74.538 0-134.966-60.428-134.966-134.966 0-74.538 60.428-134.966 134.966-134.966 31.817 0 61.076 11.009 84.146 29.439" stroke="#C6D1DD" stroke-width="7" stroke-miterlimit="10"/><path d="M829.098 529.076c17.814 0 32.263-14.438 32.263-32.263 0-17.825-14.449-32.253-32.263-32.253-17.815 0-32.264 14.438-32.264 32.253 0 17.825 14.449 32.263 32.264 32.263Z" fill="#009664"/><path d="m828.503 508.746 16.954-16.955a4.875 4.875 0 0 0 0-6.89 4.89 4.89 0 0 0-6.9 0l-13.504 13.504-5.415-5.414a4.887 4.887 0 0 0-6.9 0c-1.901 1.9-1.901 5 0 6.89l8.854 8.865a4.879 4.879 0 0 0 3.45 1.432 4.887 4.887 0 0 0 3.451-1.432" fill="#fff"/><path d="M625.571 273.932c74.54 0 134.966-60.426 134.966-134.966S700.111 4 625.571 4 490.605 64.426 490.605 138.966s60.426 134.966 134.966 134.966Z" fill="#ECF3FA"/><mask id="e" style="mask-type:luminance" maskUnits="userSpaceOnUse" x="490" y="4" width="271" height="270"><path d="M625.571 273.932c74.54 0 134.966-60.426 134.966-134.966S700.111 4 625.571 4 490.605 64.426 490.605 138.966s60.426 134.966 134.966 134.966Z" fill="#fff"/></mask><g mask="url(#e)"><path d="M683.717 102.137a2.169 2.169 0 0 1 .149-3.004l3.195-2.951c.85-.786 5.776-4.045 6.54-3.175.764.87-2.909 5.542-3.758 6.328l-3.196 2.951a2.063 2.063 0 0 1-2.941-.149h.011Z" fill="#FD6846"/><path d="M699.896 107.924a2.159 2.159 0 0 1 .478-2.962l3.493-2.559c.934-.679 2.282-1.836 3.493.085 1.21 1.922-.138 2.686-1.073 3.366l-3.493 2.558c-.934.68-2.24.457-2.908-.488h.01Zm5.361 11.763c-.615-.988-.339-2.304.627-2.941l3.62-2.378c.966-.637 1.794-1.412 3.079.393 1.284 1.805.138 2.548-.828 3.185l-3.62 2.378a2.055 2.055 0 0 1-2.878-.637Zm1.911 18.154a1.83 1.83 0 0 1 .531-2.495l3.068-2.028c.818-.541 2.336-1.932 3.44-.34 1.104 1.593-.701 2.835-1.518 3.376l-3.068 2.028a1.742 1.742 0 0 1-2.442-.541h-.011Z" fill="#FFD1B7"/><path d="M680.67 152.056c.053 2.867-.711 5.531-2.548 7.697-.658.786-3.004 3.865-3.96 4.512-11.073 7.548-15.436 11.243-18.377 17.337-.488 1.008-7.856 33.548-8.249 34.577h-33.208c3.228-6.847 14.12-45.13 14.895-47.19 18.037-48.187 20.118-36.849 25.67-41.807 1.848-1.656 4.374-1.783 7.113-.817 2.516.87 5.213 2.664 7.75 5.021.457.425.903.86 1.349 1.317 2.632 2.696 5.032 5.977 6.762 9.385 1.688 3.322 2.75 6.783 2.803 9.979v-.011Z" fill="#E38C66"/><path d="M669.83 156.483c1.03-1.985 2.41-3.45 3.907-4.777a50.488 50.488 0 0 1 4.788-3.568c1.667-1.104 3.397-2.102 5.149-3.1 1.762-.987 3.525-1.964 5.372-2.898a53.977 53.977 0 0 1 2.845-1.337c.489-.213.988-.414 1.508-.606.255-.095.52-.191.785-.286l.733-.244c1.635-.499 3.333-1.189 5.021-1.943a85.712 85.712 0 0 0 5.043-2.495 105.755 105.755 0 0 0 4.947-2.76l.054-.032c1.337-.796 3.057-.329 3.843 1.04.722 1.274.371 2.899-.765 3.758-3.248 2.442-6.508 4.661-10.053 6.699-1.773 1.02-3.599 1.986-5.606 2.824l-.626.266a6.357 6.357 0 0 0-.563.255c-.382.169-.775.361-1.157.562-.786.404-1.571.839-2.357 1.306a65.443 65.443 0 0 0-4.682 3.036c-1.539 1.094-3.047 2.251-4.586 3.355a89.541 89.541 0 0 1-4.735 3.206c-1.635.988-3.387 1.858-5.425 2.283l-.106.021c-1.667.34-3.291-.764-3.62-2.463a3.22 3.22 0 0 1 .297-2.102h-.011Z" fill="#E38C66"/><path d="M668.015 148.192c-.138-3.249 1.295-4.937 2.75-6.603 1.433-1.699 2.994-3.249 4.65-4.725 1.666-1.465 3.386-2.877 5.085-4.331 1.709-1.455 3.397-2.909 5.276-4.353.446-.361.977-.732 1.476-1.093a9.26 9.26 0 0 1 .743-.51l.722-.478 2.803-1.783c1.858-1.179 3.726-2.304 5.595-3.451a602.435 602.435 0 0 1 11.264-6.699c1.348-.785 3.068-.297 3.832 1.083.69 1.242.372 2.792-.679 3.652a1052.328 1052.328 0 0 1-10.171 8.26l-5.075 4.098-2.494 2.038-.595.499c-.202.17-.393.329-.552.488-.35.319-.69.616-1.062.988a99.26 99.26 0 0 0-4.384 4.512c-1.455 1.571-2.835 3.238-4.257 4.873-1.433 1.624-2.92 3.195-4.533 4.639-1.593 1.476-3.185 2.941-6.328 2.877h-.064c-2.155-.042-3.885-1.805-3.981-3.97l-.021-.011Z" fill="#E38C66"/><path d="M675.977 137.469a31 31 0 0 1-10.393 14.937c-.361.276.148.775.499.499a31.64 31.64 0 0 0 10.574-15.245c.138-.435-.542-.616-.68-.191Zm.467 4.098a573.105 573.105 0 0 0-5.297 16.307c-.138.435.552.626.679.191a592.304 592.304 0 0 1 5.298-16.307c.148-.435-.531-.616-.68-.191Z" fill="#231F20" style="mix-blend-mode:multiply" opacity=".18"/><path d="M658.938 142.225c-.159-3.514 1.284-5.595 2.856-7.559a78.423 78.423 0 0 1 4.873-5.775c1.719-1.847 3.545-3.599 5.393-5.33 1.868-1.73 3.726-3.461 5.722-5.17.488-.424.987-.849 1.518-1.274.541-.424 1.009-.849 1.603-1.274l.86-.637.425-.318.393-.266 1.56-1.019c2.092-1.337 4.162-2.696 6.274-4.002a385.59 385.59 0 0 1 12.719-7.75c1.348-.796 3.079-.319 3.854 1.072.668 1.189.414 2.675-.542 3.557l-.021.021a424.759 424.759 0 0 1-11.073 9.969c-1.858 1.635-3.748 3.238-5.627 4.851l-1.412 1.2-.35.297-.287.266-.583.53c-.383.33-.797.775-1.2 1.158-.404.392-.807.807-1.21 1.242-3.27 3.376-6.317 7.251-9.534 10.913a119.367 119.367 0 0 1-5.053 5.34c-1.71 1.763-3.525 3.43-6.89 3.706h-.085c-2.124.18-3.992-1.444-4.162-3.61v-.138h-.021Z" fill="#E38C66"/><path d="M650.817 137.278c.361-5.318 2.961-9.087 5.658-12.824 1.401-1.837 2.951-3.567 4.586-5.255a143.66 143.66 0 0 1 2.527-2.538c.414-.424.881-.838 1.338-1.263l.669-.616.615-.552c3.291-2.93 6.529-5.998 9.852-8.971 3.291-2.993 6.604-5.998 9.958-8.939a2.766 2.766 0 0 1 3.971.308 2.94 2.94 0 0 1 .064 3.684 452.596 452.596 0 0 1-8.504 10.447 287.945 287.945 0 0 1-4.353 5.138l-4.437 5.107-.563.637-.488.594c-.319.393-.637.764-.945 1.189-.637.807-1.242 1.677-1.858 2.537-1.2 1.763-2.389 3.567-3.673 5.309-2.655 3.439-5.171 7.006-9.746 9.172l-.096.043c-1.613.764-3.535.042-4.289-1.603a3.32 3.32 0 0 1-.286-1.614v.01Z" fill="#E38C66"/><path d="M702.89 56.859h-41.553a3.6 3.6 0 0 0-3.599 3.599v86.194a3.6 3.6 0 0 0 3.599 3.599h41.553a3.6 3.6 0 0 0 3.599-3.599V60.458a3.6 3.6 0 0 0-3.599-3.6Z" fill="#212121"/><path d="M660.117 69.249v70.121c0 .627.508 1.136 1.136 1.136h41.733c.627 0 1.136-.509 1.136-1.136V69.249c0-.628-.509-1.136-1.136-1.136h-41.733c-.628 0-1.136.508-1.136 1.136Z" fill="#CDD7EE"/><mask id="f" style="mask-type:luminance" maskUnits="userSpaceOnUse" x="660" y="68" width="45" height="73"><path d="M703.018 68.112h-41.797c-.61 0-1.104.495-1.104 1.104v70.185c0 .61.494 1.104 1.104 1.104h41.797c.609 0 1.104-.494 1.104-1.104V69.216c0-.61-.495-1.104-1.104-1.104Z" fill="#fff"/></mask><g mask="url(#f)"><path d="M662.941 116.205c-.329-.828-.669-1.645-.988-2.484-.552-1.444-.997-2.909-1.051-4.47-.074-2.325.882-4.246 2.336-5.966.446-.531.913-1.051 1.401-1.539 2.134-2.166 3.079-4.81 3.217-7.793.075-1.72-.18-3.418-.329-5.117-.456-5.404 1.38-9.799 5.828-12.994 1.699-1.221 3.706-1.635 5.744-1.805 1.444-.117 2.888-.202 4.342-.032 1.89.234 3.196 1.2 3.875 2.983.106.276.212.34.52.319 2.049-.18 3.812.52 5.245 1.932 2.484 2.442 3.577 5.467 3.588 8.928 0 1.911-.393 3.77-.732 5.627-.319 1.773-.404 3.514.414 5.202.499 1.03 1.21 1.89 2.091 2.612 1.157.944 2.155 2.027 2.813 3.386 1.02 2.092.903 4.236.223 6.391-.424 1.338-1.04 2.591-1.645 3.854-.149.212-.361.138-.552.117-2.187-.234-4.364-.531-6.551-.796-.615-.075-1.22-.128-1.826-.245-.403-.074-.764-.031-1.072.255-.605 0-.966-.424-1.316-.807-.701-.775-1.147-1.709-1.402-2.717-.191-.744-.392-1.487-.35-2.262.021-.424-.17-.849-.053-1.274.085-.244.297-.382.499-.53 2.229-1.604 3.556-3.791 4.151-6.445.138-.615.138-.615.732-.626.308 0 .574-.106.828-.265 1.009-.648 1.678-2.357 1.381-3.504a2.222 2.222 0 0 0-.181-.478c-.244-.499-.329-.52-.754-.148-.127.106-.265.212-.392.318-.223.191-.478.34-.712.51-.127.085-.255.202-.414.064-.17-.52-.117-1.062-.159-1.604-.265-2.94-1.125-5.669-2.781-8.142-.818-1.232-1.816-2.293-3.058-3.11-.255-.181-.393 0-.52.18-.34.488-.733.955-1.115 1.412-1.115 1.316-2.463 2.367-3.864 3.354-2.187 1.55-4.533 2.803-6.975 3.886-.223.096-.414.233-.414.499-.022.478-.16.945-.085 1.422-.011.67.063 1.338-.053 2.007-.128.234-.308.149-.467.053-.17-.095-.319-.244-.478-.35-.266-.213-.552-.404-.775-.658-.223-.245-.372-.18-.542.063a2.045 2.045 0 0 0-.35 1.36c.074 1.018.467 1.91 1.221 2.621.308.298.669.5 1.115.478.446-.021.637.202.711.616.361 1.805 1.157 3.397 2.346 4.809.52.616 1.136 1.125 1.773 1.603.181.138.404.234.467.489.064.414 0 .828.021 1.231-.01 1.667-.414 3.227-1.38 4.597-.435.616-.945 1.21-1.73 1.444a.264.264 0 0 1-.117-.064c-.488-.446-.541-.435-.764.212-.531 1.55-.425 3.132-.213 4.703.149 1.105.34 2.187.319 3.302-.053 2.527-1.051 4.65-2.686 6.519a7.906 7.906 0 0 1-3.843 2.441c-.499.138-.998.181-1.497.266a4.627 4.627 0 0 1-1.571-.128c-.255-.127-.255-.318-.138-.541.116-.212.244-.425.371-.637.818-1.232 1.168-2.601 1.242-4.045.096-2.187-.541-4.225-1.263-6.242-.382-1.073-.828-2.124-1.263-3.175-.128-.371-.393-.7-.393-1.114" fill="#383338"/><path d="M689.779 114.56c.202-.372.499-.457.924-.393 2.972.393 5.945.754 8.917 1.115.075 0 .149-.022.223-.032.446.138.903.265 1.349.403.159.053.329.075.445.202-.36 2.389-1.125 4.661-2.006 6.911-.828 2.124-1.295 4.342-1.285 6.635 0 .797.043 1.614.276 2.379.669 2.208.276 4.331-.445 6.433-.319.924-.818 1.762-1.306 2.601-.064.106-.149.202-.149.34-1.327.35-2.665.584-4.013.817-4.268.754-8.567.988-12.888.807-2.612-.106-5.213-.371-7.793-.86-1.401-.255-2.813-.509-4.193-.87-.627-.765-1.03-1.635-1.391-2.538-.605-1.518-.924-3.1-.86-4.745.021-.616.075-1.232.404-1.773.424-.074.849-.138 1.263-.244 2.516-.669 4.225-2.315 5.446-4.544 1.221-2.23 1.423-4.576.934-7.028-.307-1.582-.435-3.174-.053-4.767.075-.297.17-.594.276-.881.053-.149.075-.361.276-.382.223-.022.372.116.478.297.043.074.106.149.17.212.425.202.711.584 1.083.85 1.476 1.029 3.1 1.624 4.873 1.879 2.335.339 4.544-.043 6.635-1.104.733-.372 1.412-.818 1.985-1.423.112-.131.254-.233.414-.297" fill="#324160"/><path d="M696.733 141.143c-.223-.053-.159-.138-.064-.287.711-1.051 1.274-2.176 1.635-3.387.34-1.167.563-2.356.552-3.577 0-.669-.17-1.306-.329-1.943-.361-1.518-.372-3.058-.181-4.608.308-2.463 1.2-4.745 2.071-7.038.509-1.338.796-2.729 1.03-4.141.021-.138.01-.286.201-.308 2.389 1.147 3.79 3.037 4.045 5.659.35 3.726.584 7.463.871 11.2.127 1.656.254 3.313.392 4.979.022.223-.021.33-.244.414a77.244 77.244 0 0 1-9.831 3.037c-.042.01-.095 0-.138.01" fill="#112E50"/><path d="M664.703 130.866c-.117.202-.244.403-.371.605-.085.138-.149.265.01.382a.256.256 0 0 1 0 .181c-.86 2.526-.743 5.106-.392 7.697.01.095.031.18 0 .276-1.805-.521-3.568-1.168-5.33-1.816-.276-.095-.34-.244-.318-.509.18-2.347.35-4.703.53-7.05.096-1.284.202-2.579.298-3.864.138-1.847.17-3.694.414-5.531.286-2.198 1.465-3.886 3.397-5.022.212.319.35.68.467 1.051 0 .202-.074.383-.149.574-.392 1.136-.435 2.24.16 3.344 1.008 1.868 1.613 3.864 1.751 5.977.085 1.263-.021 2.516-.467 3.716" fill="#324160"/><path d="M663.949 140.007c-.254-.234-.212-.584-.244-.871-.148-1.486-.201-2.972-.032-4.459.085-.817.096-1.656.457-2.42.064-.138.149-.265.223-.403.552.042 1.093.074 1.645.116-.127.828-.339 1.646-.276 2.506.096 1.497.414 2.941 1.009 4.31.297.679.626 1.327 1.051 1.943.056.092.081.2.074.308-1.316-.266-2.611-.648-3.896-1.03" fill="#112E50"/><path d="M672.75 96.416c0-.743.011-1.486.021-2.219.255-.318.669-.34 1.009-.499 1.284-.605 2.611-1.146 3.854-1.836.626-.096 1.125.201 1.624.499.202.127.467.456.658.159.202-.308-.202-.435-.393-.605-.265-.234-.658-.266-.87-.574.032-.233.244-.254.392-.35 2.315-1.433 4.311-3.217 5.786-5.531.404-.637.712-1.327 1.062-1.985 1.2.69 2.113 1.688 2.909 2.792 1.815 2.548 2.76 5.404 3.036 8.503.043.531.085 1.073.096 1.614.244.478.095.998.095 1.486 0 .308-.063.616-.095.913.509-.36.849-1.104.881-1.89.011-.382-.085-.774.117-1.135.233-.202.467-.393.69-.616.191-.191.308-.117.435.074.35.51.51 1.073.478 1.699-.075 1.062-.51 1.953-1.285 2.675-.361.34-.817.499-1.316.425-.202-.032-.319-.011-.361.212-.552 3.005-2.092 5.383-4.618 7.113-.043.021-.075.064-.106.096-.085.106-.17.212-.298.276-1.157.605-2.378.998-3.694 1.051a8.856 8.856 0 0 1-4.088-.765c-.361-.159-.743-.318-.976-.668-2.538-1.667-4.056-4.013-4.661-6.975-.042-.202-.074-.393-.371-.351-.68.096-1.2-.223-1.614-.722-.722-.891-1.157-1.879-.977-3.057.032-.18.075-.361.149-.53.329-.797.478-.829 1.093-.256.181.17.361.33.542.5-.149.838-.075 1.645.361 2.41.095.158.159.339.361.434.106-.148.074-.318.042-.467-.106-.499-.021-1.008-.117-1.518-.032-.16.022-.297.181-.393" fill="#E38C66"/><path d="M689.779 114.56c-.828 1.072-1.964 1.709-3.175 2.219-1.518.637-3.121.934-4.756.838-2.558-.159-4.904-.902-6.837-2.675-.085-.074-.159-.191-.233-.287 1.815-1.04 2.526-2.76 2.866-4.692.075-.404.085-.828.128-1.232.074-.244-.117-.615.116-.732.298-.138.499.233.712.403 1.221 1.009 2.622 1.614 4.214 1.678 1.317.053 2.506-.404 3.589-1.147.138-.095.265-.361.488-.095.096 1.507.435 2.94 1.253 4.236.414.647.934 1.167 1.635 1.496" fill="#E38C66"/><path d="M685.894 83.486c.031.435-.255.753-.436 1.093-1.04 1.953-2.441 3.588-4.183 4.958-.828.647-1.677 1.284-2.601 1.794-.18.17-.382.053-.562.021-1.104-.202-2.102.064-3.015.69a1.159 1.159 0 0 0-.425.478c-.053.096-.074.202.021.297.096.085.191.075.297.022.096-.054.17-.138.255-.202a3.775 3.775 0 0 1 1.55-.786c.287-.074.605-.17.871.075-.191.222-.446.35-.701.456a519.88 519.88 0 0 1-3.631 1.635c-.18.074-.371.127-.562.191-.064-.478.085-.945.095-1.423 0-.286.234-.371.457-.456 2.314-1.02 4.533-2.208 6.624-3.641 2.092-1.423 4.003-3.026 5.425-5.15.17-.244.329-.318.531-.042" fill="#C97047"/><path d="M664.703 130.866c.042-.669.212-1.327.297-1.996.181-1.412-.042-2.781-.35-4.151-.308-1.327-.881-2.548-1.465-3.769-.605-1.263-.435-2.505.233-3.694 1.168 2.601 2.262 5.234 2.548 8.1.202 1.954-.116 3.843-1.252 5.51" fill="#112E50"/><path d="M686.892 108.826c-.372 0-.574.308-.839.467-.924.574-1.932.903-3.004.903-1.593 0-3.037-.552-4.3-1.518-.085-.064-.159-.16-.244-.202-.223-.106-.351-.478-.574-.414-.244.074.011.456-.159.658v-1.38c1.051.637 2.166 1.062 3.387 1.221 1.688.234 3.302 0 4.841-.722.276-.127.552-.265.828-.403l.064 1.38m6.04-13.037c.011.87.096 1.752-.382 2.548-.18.308-.435.53-.754.85.054-.999.17-1.89.138-2.782.383-.128.659-.436.998-.616Zm-20.181.637c-.096.573 0 1.157.053 1.73.021.297.042.573.032.87-.191.054-.308-.074-.393-.18a3.494 3.494 0 0 1-.68-2.611.34.34 0 0 1 .17-.266c.319.085.457.467.818.457Zm8.142 1.783h2.41c.17 0 .34-.01.521-.02.116.063.138.18.138.296-.298.531-.775.765-1.349.828-.669.075-1.252-.138-1.709-.647-.053-.064-.085-.138-.138-.202 0-.095 0-.212.117-.255" fill="#C97047"/><path d="M676.371 94.495c.031-.35.106-.701.424-.977.372-.33.871-.34 1.274-.032.627.478.658 1.529.074 2.038a1.034 1.034 0 0 1-1.443-.106c-.234-.265-.308-.584-.319-.934m11.742.01c0 .415-.128.754-.435 1.03-.393.35-1.009.33-1.381-.042-.467-.457-.488-1.402-.042-1.88.435-.456 1.104-.445 1.518.022.234.265.361.563.34.86m-10.468-2.57c-.955-.095-1.741.266-2.431.882-.117.095-.191.265-.361.265-.159 0-.287-.085-.382-.223-.106-.159-.021-.297.074-.414.669-.85 1.593-1.146 2.612-1.263.509-.053.998.096 1.497.17.414.233.87.382 1.221.722.18.17.339.34.148.594-.202.266-.403.149-.594 0-.531-.403-1.104-.711-1.795-.732m9.343-.775c.955-.022 1.752.297 2.452.87.128.106.245.234.34.372.127.18.085.35-.064.499-.159.159-.308.085-.446-.032-.414-.34-.828-.69-1.358-.839-1.041-.297-1.975-.085-2.835.552-.223.16-.446.35-.679.075-.255-.308-.001-.51.222-.68.712-.53 1.497-.839 2.368-.807" fill="#383338"/><path d="M682.316 105.355c-3.281 0-4.003-2.845-4.003-2.845-.095-.393.234-.637.531-.637h6.964c.298 0 .616.287.531.637 0 0-.743 2.845-4.023 2.845Z" fill="#fff"/></g><path d="M660.117 128.499v10.807c0 .669.541 1.2 1.199 1.2h41.595c.669 0 1.2-.542 1.2-1.2v-10.807h-44.005.011Z" fill="#BBB"/><path opacity=".85" d="M661.167 140.506h41.85c.616 0 1.115-.499 1.115-1.115v-4.915c-.552-2.124-1.147-4.162-1.773-5.977h-42.232v10.966c0 .584.467 1.051 1.051 1.051l-.011-.01Z" fill="#212121"/><path d="M684.756 135.683a2.75 2.75 0 1 0-4.98-2.337 2.75 2.75 0 0 0 4.98 2.337Z" fill="#fff"/><path d="M685.015 135.804a3.037 3.037 0 1 0-5.499-2.58 3.037 3.037 0 0 0 5.499 2.58Z" stroke="#fff" stroke-width=".18" stroke-miterlimit="10"/><path d="M670.361 131.641h-5.106a.307.307 0 0 0-.308.307v5.107c0 .17.138.308.308.308h5.106c.17 0 .308-.138.308-.308v-5.107a.307.307 0 0 0-.308-.307Zm28.832 4.039a2.75 2.75 0 1 0-4.979-2.338 2.75 2.75 0 0 0 4.979 2.338Z" fill="#212121" style="mix-blend-mode:multiply" opacity=".4"/><path d="M695.204 133.891a1.609 1.609 0 0 1 1.475-.976c.881 0 1.603.721 1.603 1.603" stroke="#fff" stroke-width=".13" stroke-miterlimit="10"/><path d="m698.282 134.868.361-.424h-.722l.361.424Z" fill="#fff"/><path d="M698.176 135.112a1.61 1.61 0 0 1-1.476.977 1.609 1.609 0 0 1-1.603-1.603" stroke="#fff" stroke-width=".13" stroke-miterlimit="10"/><path d="m695.097 134.125-.361.435h.722l-.361-.435Zm-20.596-70.917h11.01Z" fill="#fff"/><path d="M674.501 63.208h11.01" stroke="#58595B" stroke-width="1.91" stroke-linecap="round"/><path d="M688.728 64.216a1.008 1.008 0 1 0 0-2.016 1.008 1.008 0 0 0 0 2.016Z" fill="#58595B"/><path d="M647.228 133.371c2.166-2.728 4.597-3.312 7.05-3.726 15.871-3.015 16.168-4.395 31.371.488.244.022-.255 1.136-1.051 2.527-2.612 4.586-9.863 1.391-13.929 1.306-3.514-.074-14.279 10.776-15.893 10.85-2.42.159-2.728-.372-6.868-1.784l-1.274-1.709c-1.71-1.316-.775-6.115.509-7.856a.79.79 0 0 1 .085-.106v.01Z" fill="#231F20" style="mix-blend-mode:multiply" opacity=".18"/><path d="M646.57 132.299c2.166-2.729 4.597-3.313 7.05-3.727 15.871-3.015 16.168-4.395 31.371.489.244.021-.255 1.136-1.051 2.526-2.612 4.587-9.863 1.391-13.929 1.306-3.514-.074-13.875 10.043-15.893 10.85-2.017.807-5.679-.17-6.21-.7l-2.07-2.113c-1.71-1.317-.637-6.784.647-8.525a.731.731 0 0 1 .085-.106Z" fill="#E38C66"/><path d="M676.816 128.127c.212-.849 1.157-1.338 2.102-1.083l3.535.934c.945.245 2.803.574 2.591 1.423l-.361 1.115c-.213.849-2.071.785-3.015.541l-3.536-.934c-.945-.244-1.539-1.147-1.327-1.985l.011-.011Z" fill="#FFD1B7"/><path d="M670.192 218.653c-8.695-9.863-26.871-16.37-44.642-20.574-2.941-.701-6.816-1.476-10.553-2.187-7.262-1.37-12.527-7.697-12.581-15.076l-.074-10.521h-44.716l.318 11.073c.213 7.432-4.883 13.971-12.145 15.553a335.329 335.329 0 0 0-10.797 2.527c-16.285 4.13-32.613 9.778-40.459 16.976-9.565 8.769-11.296 47.667-11.55 60.651H678.26c.149-12.665.35-48.888-8.058-58.433l-.01.011Z" fill="#FDB4A6"/><path d="M621.568 125.728c0 28.844-18.674 58.995-41.722 58.995-23.048 0-41.722-30.151-41.722-58.995 0-28.845 18.674-51.097 41.722-51.097 23.048 0 41.722 22.252 41.722 51.097Z" fill="#EF998E"/><path d="M621.568 124.57c0 28.834-18.674 57.838-41.722 57.838-23.048 0-41.722-28.993-41.722-57.838 0-28.844 18.674-51.096 41.722-51.096 23.048 0 41.722 22.252 41.722 51.096Z" fill="#FDB4A6"/><path d="M678.249 277.085H482.982c.265-12.984 1.996-51.893 11.551-60.651 4.957-4.555 13.313-10.712 22.91-14.035 5.573-1.932 16.89-5.064 38.091-.817 11.105 2.218 36.563 4.586 47.509 1.698 25.405-6.699 36.679-1.486 43.24.977 9.969 3.737 18.664 8.461 23.908 14.417 8.409 9.533 8.207 45.757 8.058 58.433v-.022Z" fill="#324160"/><path d="M678.249 277.085H629.18c-2.537-7.23-3.981-15.595-3.981-24.502 0-22.741 9.428-41.914 22.305-47.88 9.459 3.662 17.666 8.249 22.698 13.95 8.408 9.533 8.207 45.767 8.058 58.432h-.011Z" fill="#324160"/><path d="M580.631 45.84c4.342 2.207 9.417 3.163 12.92 12.431 48.793-3.822 45.874 51.808 45.8 52.222-4.162 23.261-14.258 36.775-6.296 62.584 8.812 28.558-13.09 67.286-42.742 86.184-25.808 16.434-65.322 13.578-78.901-.85-35.448-37.656 11.031-55.991 4.247-79.75-12.506-43.771 3.875-48.029 5.828-81.576 3.833-61.459 54.802-53.464 59.155-51.256l-.011.01Z" fill="#383338"/><path d="M678.249 277.085H629.18c-2.537-7.23-3.981-15.595-3.981-24.502 0-22.741 9.428-41.914 22.305-47.88 9.459 3.662 17.666 8.249 22.698 13.95 8.408 9.533 8.207 45.767 8.058 58.432h-.011Z" fill="#112E50"/></g><path d="M625.571 273.932c74.54 0 134.966-60.426 134.966-134.966S700.111 4 625.571 4 490.605 64.426 490.605 138.966s60.426 134.966 134.966 134.966Z" stroke="#C6D1DD" stroke-width="7" stroke-miterlimit="10"/><path d="M694.206 174c-2.591 0-4.693 2.378-4.693 5.308V237.9c0 2.93 2.102 5.308 4.693 5.308h100.611c2.591 0 4.693-2.378 4.693-5.308v-58.592c0-2.93-2.102-5.308-4.693-5.308H694.206Z" fill="#CDD7EE"/><path d="M692.232 171.644c-2.591 0-4.693 2.378-4.693 5.308v58.592c0 2.93 2.102 5.308 4.693 5.308h100.611c2.59 0 4.693-2.378 4.693-5.308v-58.592c0-2.93-2.103-5.308-4.693-5.308H692.232Z" fill="#fff"/><path d="M692.232 171.644c-2.591 0-4.693 2.378-4.693 5.308v8.833h109.997v-8.833c0-2.93-2.103-5.308-4.693-5.308H692.232Z" fill="#415874"/><path d="M695.883 191.188h39.376v43.962h-39.376v-43.962Z" fill="#CDD7EE"/><mask id="g" style="mask-type:luminance" maskUnits="userSpaceOnUse" x="695" y="191" width="41" height="45"><path d="M695.873 191.199h39.376v43.962h-39.376v-43.962Z" fill="#fff"/></mask><g mask="url(#g)"><path d="M702.476 222.082c-.223-.552-.446-1.094-.658-1.656-.361-.956-.669-1.932-.701-2.973-.053-1.539.584-2.824 1.55-3.96.298-.35.605-.7.935-1.019 1.422-1.433 2.049-3.195 2.133-5.181.054-1.136-.116-2.261-.223-3.397-.307-3.599.924-6.508 3.875-8.631 1.136-.807 2.463-1.083 3.822-1.2.956-.085 1.922-.138 2.877-.021 1.253.159 2.124.796 2.57 1.985.074.191.138.223.35.213 1.359-.117 2.527.35 3.482 1.284 1.656 1.614 2.378 3.642 2.378 5.924 0 1.264-.255 2.506-.488 3.737-.213 1.179-.266 2.336.276 3.461.329.68.807 1.253 1.391 1.731.775.626 1.433 1.348 1.868 2.25.68 1.391.595 2.814.149 4.247-.276.892-.701 1.73-1.094 2.558-.095.149-.233.096-.361.085-1.454-.159-2.898-.361-4.352-.531-.404-.053-.807-.084-1.211-.159-.265-.053-.499-.021-.711.17-.403 0-.648-.287-.871-.541-.467-.521-.764-1.136-.934-1.805-.127-.489-.255-.987-.233-1.508.021-.286-.117-.562-.032-.849.063-.17.201-.255.329-.35 1.486-1.062 2.367-2.516 2.76-4.289.096-.404.096-.404.488-.414.202 0 .383-.075.553-.181.668-.425 1.114-1.56.913-2.335a1.922 1.922 0 0 0-.117-.319c-.17-.329-.223-.34-.499-.096-.085.075-.181.138-.255.213-.149.127-.318.223-.467.34-.085.053-.17.127-.276.042-.117-.35-.074-.711-.106-1.062-.181-1.953-.754-3.768-1.848-5.403a7.375 7.375 0 0 0-2.027-2.071c-.17-.116-.255 0-.351.117-.233.329-.488.637-.743.934-.743.871-1.635 1.572-2.569 2.23-1.454 1.03-3.015 1.858-4.629 2.58-.148.063-.276.148-.276.329-.01.318-.106.626-.053.955-.01.446.043.892-.032 1.327-.085.16-.201.096-.307.032-.117-.064-.213-.159-.319-.233-.17-.149-.361-.266-.51-.436-.148-.159-.254-.116-.361.053a1.399 1.399 0 0 0-.233.903c.053.679.308 1.274.807 1.741.212.191.446.329.743.318.297-.01.425.138.478.404a6.997 6.997 0 0 0 1.56 3.195c.351.404.754.743 1.179 1.073.127.095.265.159.308.329.042.276 0 .552.021.817 0 1.104-.276 2.145-.913 3.058-.287.414-.627.807-1.147.955-.032 0-.063-.021-.085-.042-.318-.298-.361-.287-.509.138-.351 1.029-.287 2.081-.138 3.121.106.732.233 1.454.212 2.198-.042 1.677-.701 3.089-1.794 4.331a5.308 5.308 0 0 1-2.559 1.624c-.329.096-.669.117-.998.181-.35.021-.7 0-1.04-.085-.17-.085-.17-.212-.096-.361.075-.149.16-.287.245-.425.541-.817.775-1.73.828-2.696.063-1.444-.361-2.803-.839-4.141-.255-.711-.552-1.412-.839-2.102-.085-.244-.255-.467-.265-.743" fill="#383338"/><path d="M720.312 220.988c.138-.244.329-.297.616-.265 1.974.254 3.949.499 5.924.743.053 0 .095-.011.148-.022.298.085.595.17.892.266.106.032.212.053.297.138-.244 1.592-.743 3.1-1.327 4.597-.552 1.412-.86 2.887-.86 4.406 0 .53.032 1.072.181 1.581.446 1.466.18 2.877-.287 4.279-.212.616-.541 1.168-.87 1.73-.043.075-.096.138-.096.223-.881.234-1.773.393-2.665.542-2.834.499-5.69.658-8.567.531a37.04 37.04 0 0 1-5.181-.574c-.934-.17-1.868-.339-2.781-.584-.414-.499-.68-1.083-.924-1.688-.403-1.008-.616-2.059-.573-3.153.021-.403.053-.817.265-1.178.287-.053.563-.085.839-.159 1.667-.446 2.803-1.54 3.62-3.015.807-1.476.945-3.037.626-4.672-.212-1.051-.286-2.102-.042-3.163.053-.202.117-.393.191-.584.032-.096.042-.244.18-.255.149-.021.245.074.319.202.032.053.074.095.106.148.287.128.467.393.722.563.977.679 2.06 1.083 3.238 1.253 1.55.223 3.015-.032 4.406-.733.488-.244.945-.541 1.316-.945a.574.574 0 0 1 .276-.191" fill="#324160"/><path d="M724.941 238.654c-.149-.032-.106-.095-.043-.191a8.47 8.47 0 0 0 1.083-2.251c.223-.775.372-1.56.372-2.378 0-.435-.117-.86-.213-1.295-.244-1.008-.254-2.038-.127-3.057.202-1.635.796-3.153 1.38-4.682.34-.892.531-1.816.68-2.75.021-.095 0-.191.127-.212 1.592.764 2.527 2.028 2.686 3.769.233 2.473.393 4.958.573 7.431.085 1.104.17 2.208.266 3.302.01.149-.022.223-.16.276a52.24 52.24 0 0 1-6.529 2.017h-.095" fill="#112E50"/><path d="m703.655 231.828-.245.403c-.063.085-.095.17 0 .255.022.042.022.085 0 .117-.573 1.677-.488 3.397-.265 5.117 0 .063.021.116 0 .18-1.2-.34-2.367-.775-3.546-1.21-.18-.064-.223-.159-.212-.34l.35-4.682c.064-.86.138-1.72.202-2.569.085-1.231.117-2.463.276-3.673.191-1.455.966-2.58 2.25-3.334.138.213.234.457.308.701 0 .138-.053.255-.095.382-.266.754-.287 1.486.106 2.219.669 1.242 1.072 2.559 1.168 3.971.064.838-.011 1.666-.308 2.473" fill="#324160"/><path d="M703.155 237.9c-.169-.159-.148-.382-.159-.573-.095-.987-.127-1.975-.021-2.962.064-.552.064-1.104.308-1.614.042-.095.095-.18.149-.265.36.032.732.053 1.093.085-.085.552-.223 1.093-.18 1.656.063.998.276 1.953.668 2.866.191.457.425.892.701 1.296a.34.34 0 0 1 .053.201c-.87-.18-1.73-.435-2.59-.69" fill="#112E50"/><path d="M709.005 208.939v-1.476c.191-.212.457-.223.68-.34.86-.403 1.73-.754 2.558-1.221.414-.063.743.128 1.083.329.138.085.308.298.435.107.138-.202-.138-.287-.265-.404-.181-.148-.435-.17-.573-.382.021-.149.159-.17.254-.223 1.54-.955 2.867-2.134 3.844-3.673.276-.425.477-.881.711-1.317.796.457 1.401 1.126 1.932 1.858 1.21 1.688 1.826 3.599 2.017 5.648.032.361.053.711.064 1.072.159.319.064.659.064.988 0 .201-.043.403-.064.605.34-.234.563-.733.584-1.253.01-.255-.053-.509.085-.754.148-.138.308-.265.456-.403.128-.127.202-.074.287.053.233.34.34.711.308 1.125-.043.712-.34 1.296-.85 1.773a1.027 1.027 0 0 1-.881.276c-.127-.021-.212 0-.233.149-.372 1.996-1.391 3.578-3.068 4.724l-.064.064c-.064.074-.117.149-.202.191-.764.403-1.582.658-2.452.701a5.86 5.86 0 0 1-2.718-.51c-.244-.106-.488-.212-.648-.446-1.688-1.104-2.696-2.675-3.1-4.629-.031-.127-.053-.254-.244-.233-.446.064-.796-.149-1.072-.478-.478-.584-.775-1.242-.648-2.028.022-.116.053-.244.096-.36.223-.531.318-.553.732-.17.117.116.234.223.361.329-.095.562-.053 1.104.234 1.603.064.106.106.223.244.286.075-.106.043-.212.021-.318-.063-.329-.021-.669-.074-1.009a.227.227 0 0 1 .117-.254" fill="#E38C66"/><path d="M720.312 220.988c-.552.711-1.306 1.136-2.102 1.476a7.044 7.044 0 0 1-3.164.562c-1.699-.106-3.249-.605-4.544-1.783-.053-.053-.095-.128-.148-.191 1.21-.69 1.677-1.826 1.9-3.121.053-.276.064-.553.085-.818.053-.159-.085-.414.074-.488.202-.096.329.148.478.265.817.669 1.741 1.072 2.803 1.115.87.032 1.666-.266 2.378-.765.085-.063.18-.244.318-.063.064.998.287 1.953.828 2.813.276.435.616.775 1.083.998" fill="#E38C66"/><path d="M717.732 200.34c.021.286-.17.498-.286.721a10.415 10.415 0 0 1-2.782 3.302c-.552.435-1.115.86-1.73 1.189-.117.117-.255.032-.372.011-.733-.138-1.391.032-2.007.456a.93.93 0 0 0-.286.319c-.032.063-.053.138.021.191.064.053.127.053.202.01a.618.618 0 0 0 .159-.127 2.37 2.37 0 0 1 1.03-.52c.191-.043.393-.106.573.053-.127.149-.297.234-.467.308-.807.361-1.603.732-2.41 1.083-.117.053-.244.085-.371.127-.043-.318.053-.626.053-.945 0-.191.159-.244.307-.308 1.54-.679 3.016-1.465 4.406-2.42 1.38-.945 2.654-2.007 3.599-3.419.117-.159.213-.212.351-.031" fill="#C97047"/><path d="M703.654 231.828c.032-.446.138-.881.191-1.327.117-.934-.031-1.847-.233-2.75-.202-.881-.584-1.688-.977-2.505-.403-.839-.286-1.667.149-2.463.775 1.73 1.507 3.482 1.698 5.382.128 1.295-.074 2.548-.828 3.663Z" fill="#112E50"/><path d="M718.401 217.177c-.244 0-.372.201-.552.308a3.861 3.861 0 0 1-1.996.605c-1.062 0-2.017-.361-2.856-1.009-.053-.042-.106-.106-.159-.138-.149-.064-.234-.318-.382-.276-.16.053 0 .297-.107.435v-.913a5.932 5.932 0 0 0 2.251.818 5.7 5.7 0 0 0 3.217-.478c.191-.085.371-.18.552-.265.021.307.032.615.042.913m3.992-8.663c0 .584.064 1.157-.255 1.698-.127.213-.286.351-.499.563.032-.669.117-1.253.085-1.847.255-.085.436-.287.669-.414Zm-13.398.424c-.063.383 0 .765.032 1.147.021.191.032.382.021.584-.127.032-.212-.053-.265-.128a2.355 2.355 0 0 1-.457-1.73.287.287 0 0 1 .117-.181c.212.054.308.308.542.308m5.414 1.179h1.603c.117 0 .223 0 .34-.021.074.053.085.116.095.201-.191.351-.52.51-.891.552-.446.053-.839-.085-1.136-.435a.879.879 0 0 1-.085-.127c0-.064 0-.138.074-.17Z" fill="#C97047"/><path d="M711.404 207.654c.022-.233.064-.467.276-.647a.645.645 0 0 1 .839-.022c.414.319.435 1.02.053 1.359a.683.683 0 0 1-.955-.063c-.16-.181-.202-.393-.213-.616m7.814 0c0 .276-.085.499-.287.679a.67.67 0 0 1-.913-.021c-.308-.308-.318-.934-.032-1.253a.658.658 0 0 1 .51-.224c.096.002.19.025.277.067a.665.665 0 0 1 .222.179c.159.18.244.371.223.573Zm-6.954-1.72c-.626-.064-1.157.181-1.613.584-.075.064-.128.17-.245.17-.116 0-.191-.064-.254-.149-.075-.106-.011-.191.053-.276.446-.562 1.061-.764 1.741-.839.339-.031.669.064.998.117.276.149.584.255.817.478.117.117.223.223.096.393-.128.18-.266.095-.393 0-.361-.266-.733-.467-1.2-.489m6.2-.499c.637-.021 1.168.192 1.635.584.085.064.159.16.223.245.085.116.053.233-.042.329-.107.106-.202.063-.298-.022-.276-.223-.552-.456-.902-.562-.69-.191-1.316-.053-1.879.371-.149.106-.297.234-.457.043-.169-.202 0-.34.149-.457.467-.361.998-.562 1.571-.541" fill="#383338"/><path d="M715.354 214.873c-2.177 0-2.654-1.89-2.654-1.89-.064-.265.159-.424.35-.424h4.629c.191 0 .414.191.361.424 0 0-.499 1.89-2.676 1.89" fill="#fff"/></g><path d="M738.879 191.199h52.084v10.467h-52.084v-10.467Zm0 41.425h52.084v2.527h-52.084v-2.527Zm0-4.098h35.448v2.527h-35.448v-2.527Zm0-4.087h29.015v2.526h-29.015v-2.526Zm0-4.098h42.774v2.526h-42.774v-2.526Zm0-4.098h33.431v2.526h-33.431v-2.526Zm0-4.088h29.015v2.527h-29.015v-2.527Zm0-4.097h21.329v2.526h-21.329v-2.526Z" fill="#CDD7EE"/><path d="M707.692 180.798v-5.335h.664c.17 0 .338.001.506.003.169 0 .311.002.424.004.647.015 1.175.13 1.583.347.408.216.707.519.897.908.192.388.288.848.288 1.38 0 .553-.101 1.032-.303 1.435-.202.401-.51.711-.926.93-.413.219-.939.328-1.576.328h-1.557Zm1.085-.871h.494c.305 0 .582-.059.831-.177.251-.118.451-.311.601-.579.15-.268.225-.626.225-1.074 0-.415-.066-.753-.199-1.011a1.244 1.244 0 0 0-.568-.572 1.977 1.977 0 0 0-.875-.181h-.509v3.594Zm4.227.871v-5.335h2.251c.425 0 .773.067 1.044.203.27.135.47.323.598.564.127.239.191.514.191.827 0 .28-.044.518-.132.712a1.419 1.419 0 0 1-.344.48c-.14.127-.294.232-.461.313l.993 2.236h-1.118l-.867-2.055h-1.082v2.055h-1.073Zm1.073-2.885h.986c.287 0 .515-.078.682-.233a.771.771 0 0 0 .255-.597c0-.246-.081-.441-.244-.584a.9.9 0 0 0-.616-.214h-1.063v1.628Zm4.065 2.885v-5.335h1.074v5.335h-1.074Zm3.658 0-1.845-5.335h1.029l1.428 4.084 1.421-4.084h1.033l-1.845 5.335H721.8Zm3.801 0v-5.335h3.665l-.004.907h-2.579v1.296h2.239v.889h-2.247v1.325l2.628.003v.915h-3.702Zm4.707 0v-5.335h2.251c.425 0 .773.067 1.044.203.27.135.47.323.598.564.128.239.192.514.192.827 0 .28-.045.518-.133.712a1.416 1.416 0 0 1-.343.48 1.96 1.96 0 0 1-.462.313l.993 2.236h-1.118l-.867-2.055h-1.082v2.055h-1.073Zm1.073-2.885h.986c.288 0 .515-.078.682-.233a.771.771 0 0 0 .255-.597c0-.246-.081-.441-.244-.584a.9.9 0 0 0-.616-.214h-1.063v1.628Zm3.837-.377.428-1.003-.377-.037v-1.033h1.089v.911l-.742 1.162h-.398Zm4.16 3.336c-.266 0-.525-.033-.779-.099a2.495 2.495 0 0 1-.694-.299 1.743 1.743 0 0 1-.516-.499 1.51 1.51 0 0 1-.24-.701h1.103a.865.865 0 0 0 .211.41c.105.111.241.196.406.255.167.059.357.088.571.088.17 0 .331-.024.484-.074a.874.874 0 0 0 .373-.225.528.528 0 0 0 .143-.38c0-.182-.066-.318-.199-.409a1.558 1.558 0 0 0-.542-.222l-1-.218a2.475 2.475 0 0 1-.742-.273 1.319 1.319 0 0 1-.483-.487 1.478 1.478 0 0 1-.17-.734c0-.332.091-.619.273-.86.185-.241.434-.425.749-.553a2.771 2.771 0 0 1 1.067-.196c.445 0 .82.073 1.125.218.307.143.542.337.705.583.162.243.245.515.247.815h-1.077a.804.804 0 0 0-.17-.442.771.771 0 0 0-.362-.244 1.471 1.471 0 0 0-.498-.077c-.322 0-.557.065-.705.195a.593.593 0 0 0-.221.454.51.51 0 0 0 .166.395c.113.098.294.173.542.225l.926.199c.345.067.624.172.838.318.214.142.37.316.469.52.098.204.147.433.147.686 0 .322-.092.607-.276.853a1.803 1.803 0 0 1-.757.571 2.81 2.81 0 0 1-1.114.207Zm4.774-.074v-5.335h1.085v4.424h2.318v.911h-3.403Zm4.26 0v-5.335h1.074v5.335h-1.074Zm4.443.074c-.497 0-.926-.115-1.287-.347a2.273 2.273 0 0 1-.838-.974c-.194-.418-.292-.906-.292-1.465 0-.561.098-1.042.292-1.443.194-.403.472-.713.834-.929.361-.217.792-.325 1.291-.325.401 0 .758.081 1.07.243.315.16.569.379.761.657.194.278.308.592.343.941H753.9a1.389 1.389 0 0 0-.189-.491.967.967 0 0 0-.357-.339 1.06 1.06 0 0 0-.532-.126 1.13 1.13 0 0 0-.642.181c-.179.121-.317.315-.413.583-.096.268-.144.623-.144 1.063 0 .664.106 1.145.317 1.443.214.295.508.443.882.443a.97.97 0 0 0 .532-.141c.147-.096.266-.221.357-.376.091-.158.154-.33.189-.517h1.129a2.996 2.996 0 0 1-.185.727c-.091.229-.22.433-.387.613a1.732 1.732 0 0 1-.646.424 2.627 2.627 0 0 1-.956.155Zm3.124-.074v-5.335h3.664l-.003.907h-2.58v1.296h2.24v.889h-2.247v1.325l2.627.003v.915h-3.701Zm4.706 0v-5.335h1.067l2.435 3.531v-3.531h1.078v5.335h-.971l-2.535-3.671v3.671h-1.074Zm7.773.074c-.266 0-.525-.033-.778-.099a2.47 2.47 0 0 1-.694-.299 1.759 1.759 0 0 1-.517-.499 1.51 1.51 0 0 1-.24-.701h1.104a.873.873 0 0 0 .21.41c.106.111.241.196.406.255.167.059.358.088.572.088.17 0 .331-.024.483-.074a.868.868 0 0 0 .373-.225.529.529 0 0 0 .144-.38.464.464 0 0 0-.199-.409 1.564 1.564 0 0 0-.543-.222l-1-.218a2.475 2.475 0 0 1-.742-.273 1.319 1.319 0 0 1-.483-.487 1.478 1.478 0 0 1-.17-.734c0-.332.091-.619.273-.86.185-.241.435-.425.749-.553a2.775 2.775 0 0 1 1.067-.196c.445 0 .82.073 1.125.218.308.143.543.337.705.583.162.243.245.515.247.815h-1.077a.796.796 0 0 0-.17-.442.768.768 0 0 0-.361-.244 1.482 1.482 0 0 0-.499-.077c-.322 0-.557.065-.704.195a.591.591 0 0 0-.222.454c0 .162.056.294.166.395.113.098.294.173.543.225l.926.199c.344.067.623.172.837.318.215.142.371.316.469.52.099.204.148.433.148.686 0 .322-.093.607-.277.853a1.8 1.8 0 0 1-.756.571 2.814 2.814 0 0 1-1.115.207Zm3.103-.074v-5.335h3.664l-.004.907h-2.579v1.296h2.24v.889h-2.247v1.325l2.627.003v.915h-3.701Z" fill="#fff"/><path d="M729.229 89.759c17.814 0 32.263-14.438 32.263-32.263 0-17.815-14.449-32.253-32.263-32.253s-32.263 14.439-32.263 32.253c0 17.825 14.449 32.263 32.263 32.263Z" fill="#009664"/><path d="m728.635 69.429 16.954-16.955a4.875 4.875 0 0 0 0-6.89 4.888 4.888 0 0 0-6.9 0L725.185 59.09l-5.415-5.415a4.888 4.888 0 0 0-6.9 0c-1.901 1.9-1.901 5 0 6.89l8.854 8.865a4.864 4.864 0 0 0 3.45 1.432 4.874 4.874 0 0 0 3.45-1.432" fill="#fff"/><path d="M242.584 349.765h64.06c14.332 0 25.946-13.96 25.946-31.18V164.817c0-17.22 11.615-31.18 25.947-31.18h131.314" stroke="#C6D1DD" stroke-width="6" stroke-miterlimit="10"/><path d="M243.19 361.741c-6.614 0-11.976-5.362-11.976-11.976 0-6.614 5.362-11.975 11.976-11.975 6.614 0 11.975 5.361 11.975 11.975s-5.361 11.976-11.975 11.976Z" fill="#0071BB"/><path d="M498.163 145.055c6.301-4.92 7.421-14.016 2.502-20.318-4.92-6.301-14.016-7.421-20.318-2.502-6.301 4.92-7.422 14.016-2.502 20.318 4.92 6.301 14.016 7.421 20.318 2.502Z" fill="#EBF3FA" stroke="#C6D1DD" stroke-width="5"/><path d="M242.584 350.338h64.06c14.332 0 25.946 13.961 25.946 31.181v153.768c0 17.219 11.615 31.18 25.947 31.18h131.314" stroke="#C6D1DD" stroke-width="6" stroke-miterlimit="10"/><path d="M227.214 350.339c0 8.27 6.705 14.975 14.976 14.975s14.975-6.705 14.975-14.975c0-8.271-6.704-14.976-14.975-14.976s-14.976 6.705-14.976 14.976Zm262.032 231.114c8.271 0 14.975-6.704 14.975-14.975s-6.704-14.976-14.975-14.976-14.976 6.705-14.976 14.976 6.705 14.975 14.976 14.975Z" fill="#EBF3FA" stroke="#C6D1DD" stroke-width="6"/><path d="M1078.17 350.338h-64.06c-14.333 0-25.947 13.961-25.947 31.181v153.768c0 17.219-11.614 31.18-25.947 31.18H830.902m247.268-216.702h-64.06c-14.332 0-25.947-13.96-25.947-31.18V164.817c0-17.22-11.614-31.18-25.946-31.18H760.919" stroke="#C6D1DD" stroke-width="6" stroke-miterlimit="10"/><path d="M767.98 146.506c7.15-3.576 10.047-12.271 6.472-19.421-3.576-7.15-12.272-10.048-19.422-6.472-7.15 3.576-10.047 12.271-6.472 19.421 3.576 7.151 12.271 10.048 19.422 6.472Zm324.07 203.843c0-7.994-6.48-14.475-14.48-14.475-7.99 0-14.47 6.481-14.47 14.475 0 7.995 6.48 14.476 14.47 14.476 8 0 14.48-6.481 14.48-14.476ZM831.508 552.003c-7.995 0-14.475 6.48-14.475 14.475 0 7.995 6.48 14.475 14.475 14.475 7.995 0 14.475-6.481 14.475-14.475 0-7.995-6.48-14.475-14.475-14.475Z" fill="#EBF3FA" stroke="#C6D1DD" stroke-width="5"/></g><defs><clipPath id="a"><path fill="#fff" d="M0 0h1400v700H0z"/></clipPath></defs></svg>