<?xml version="1.0" encoding="UTF-8"?>
<svg id="Layer_1" xmlns="http://www.w3.org/2000/svg" xmlns:xlink="http://www.w3.org/1999/xlink" version="1.1" viewBox="0 0 419 111">
  <!-- Generator: Adobe Illustrator 29.0.1, SVG Export Plug-In . SVG Version: 2.1.0 Build 192)  -->
  <defs>
    <style>
      .st0 {
        mask: url(#mask);
      }

      .st1 {
        fill: #b7c1db;
      }

      .st1, .st2, .st3, .st4, .st5, .st6, .st7, .st8, .st9, .st10, .st11, .st12 {
        fill-rule: evenodd;
      }

      .st13 {
        fill: #e21d3e;
      }

      .st14 {
        fill: none;
        stroke-width: 2px;
      }

      .st14, .st15 {
        stroke: #c6d1dd;
      }

      .st2, .st16 {
        fill: #fff;
      }

      .st3, .st15, .st17 {
        fill: #ebf3fa;
      }

      .st18 {
        fill: #e6e6e6;
      }

      .st19 {
        fill-opacity: .6;
      }

      .st20 {
        fill: #d0c6ac;
      }

      .st21 {
        fill: url(#linear-gradient);
      }

      .st22 {
        fill: #ae5d29;
      }

      .st23 {
        mask: url(#mask-2);
      }

      .st24 {
        mask: url(#mask-3);
      }

      .st25 {
        mask: url(#mask-4);
      }

      .st26 {
        mask: url(#mask-1);
      }

      .st27 {
        fill: #a6d5af;
      }

      .st4, .st28 {
        fill: #112e51;
      }

      .st5 {
        fill: #f4f4f4;
      }

      .st29 {
        fill: #008099;
      }

      .st30 {
        fill: #fcf197;
      }

      .st7 {
        fill: #28354b;
      }

      .st31 {
        fill: #a8b6c6;
      }

      .st32 {
        fill: #f2f9ff;
      }

      .st33, .st11 {
        fill: #c6d1dd;
      }

      .st34 {
        fill: #2c1b18;
      }

      .st8 {
        fill-opacity: .1;
      }

      .st9 {
        fill-opacity: .2;
      }

      .st10 {
        fill-opacity: .2;
      }

      .st15 {
        stroke-width: 1.5px;
      }

      .st35 {
        fill: #b51e23;
      }

      .st12 {
        fill: #252c2f;
      }
    </style>
    <mask id="mask" x="3.7" y="19.4" width="74.5" height="74.6" maskUnits="userSpaceOnUse">
      <g id="a">
        <path class="st16" d="M41,94c20.6,0,37.3-16.7,37.3-37.3,0-20.6-16.7-37.3-37.3-37.3S3.7,36.1,3.7,56.7c0,20.6,16.7,37.3,37.3,37.3Z"/>
      </g>
    </mask>
    <mask id="mask-1" x="0" y="17" width="105" height="87.6" maskUnits="userSpaceOnUse">
      <g id="b">
        <path class="st16" d="M3.7,61c0,18.2,16.7,33,37.3,33s37.3-14.8,37.3-33h3.7V17H0v44h3.7Z"/>
      </g>
    </mask>
    <mask id="mask-2" x="0" y="18.2" width="82" height="75.8" maskUnits="userSpaceOnUse">
      <g id="c">
        <path class="st16" d="M48.5,63.1v5.7h1.2c12.4,0,22.4,10,22.4,22.4v2.8H9.9v-2.8c0-12.4,10-22.4,22.4-22.4h1.2v-5.7c-5.4-2.5-9.2-7.7-9.8-13.9-1.8-.3-3.2-1.8-3.2-3.7v-4.3c0-1.8,1.3-3.4,3.1-3.7v-1.9c0-9.6,7.8-17.4,17.4-17.4s17.4,7.8,17.4,17.4v1.9c1.8.3,3.1,1.9,3.1,3.7v4.3c0,1.9-1.4,3.4-3.2,3.7-.6,6.2-4.5,11.4-9.8,13.9Z"/>
      </g>
    </mask>
    <mask id="mask-3" x="0" y="59.8" width="82" height="34.2" maskUnits="userSpaceOnUse">
      <g id="d">
        <path class="st2" d="M33.5,63.9c-5.6.6-9.9,2.3-9.9,6.7-8,3.4-13.7,11.3-13.7,20.6v2.8h62.1v-2.8c0-9.3-5.6-17.2-13.7-20.6,0-4.4-4.4-6.1-9.9-6.7v5.9c0,4.1-3.3,7.5-7.5,7.5h0c-4.1,0-7.5-3.3-7.5-7.5h0v-5.9Z"/>
      </g>
    </mask>
    <mask id="mask-4" x="23" y="17.6" width="82" height="87" maskUnits="userSpaceOnUse">
      <g id="e">
        <path class="st2" d="M23.3,37.5c.1.5.5.4.6,0-.1-.5,1-8.9,4-11.2,1.1-.8,7.1-1.5,13.1-1.5,5.9,0,11.8.7,12.9,1.5,3,2.3,4.2,10.7,4,11.2.1.4.5.5.6,0,.2-3.2,0-19.8-17.7-19.6-17.7.2-17.9,16.4-17.7,19.6Z"/>
      </g>
    </mask>
    <linearGradient id="linear-gradient" x1="228.5" y1="105.8" x2="105.9" y2="-246" gradientTransform="translate(0 112) scale(1 -1)" gradientUnits="userSpaceOnUse">
      <stop offset="0" stop-color="#ebf3fa"/>
      <stop offset="1" stop-color="#a8b6c6"/>
    </linearGradient>
  </defs>
  <path class="st17" d="M417.7,56c0,20.8-16.9,37.7-37.7,37.7s-37.7-16.9-37.7-37.7,16.9-37.7,37.7-37.7,37.7,16.9,37.7,37.7Z"/>
  <path class="st11" d="M341,56c0-21.5,17.5-39,39-39s39,17.5,39,39h-2.6c0-20.1-16.3-36.4-36.4-36.4s-36.4,16.3-36.4,36.4h-2.6Z"/>
  <path class="st16" d="M347.5,45.8h64.2v29.3c0,3.6-2.9,6.6-6.6,6.6h-51.1c-3.6,0-6.6-2.9-6.6-6.6v-29.3Z"/>
  <path class="st17" d="M348.8,32.4c0-2.9,2.4-5.3,5.3-5.3h51.9c2.9,0,5.3,2.4,5.3,5.3v7.6h-62.4v-7.6Z"/>
  <path class="st4" d="M354,24.7c-4.4,0-7.9,3.5-7.9,7.9v37.8c.7,1.8,1.6,3.4,2.6,5.1,0-.1,0-.2,0-.3v-42.5c0-2.9,2.4-5.3,5.3-5.3h52c2.9,0,5.3,2.4,5.3,5.3v42.5c0,.1,0,.2,0,.3,1-1.6,1.9-3.3,2.6-5.1v-37.8c0-4.4-3.5-7.9-7.9-7.9h-52,0ZM405,83c1-.9,2-1.9,2.9-3-.6.2-1.2.3-1.8.3h-52c-.6,0-1.2-.1-1.8-.3.9,1,1.9,2,2.9,3h49.9Z"/>
  <path class="st33" d="M369.3,66.3c0,.7.6,1.3,1.3,1.3h18.9c.7,0,1.3-.6,1.3-1.3v-1c0-.7-.6-1.3-1.3-1.3h-18.9c-.7,0-1.3.6-1.3,1.3v1ZM371,71.7c0,.7.6,1.3,1.3,1.3h15.3c.7,0,1.3-.6,1.3-1.3v-1c0-.7-.6-1.3-1.3-1.3h-15.3c-.7,0-1.3.6-1.3,1.3v1Z"/>
  <path class="st11" d="M380,95c-21.5,0-39-17.5-39-39h2.6c0,20.1,16.3,36.4,36.4,36.4s36.4-16.3,36.4-36.4h2.6c0,21.5-17.5,39-39,39Z"/>
  <path class="st14" d="M158,56h-80"/>
  <g class="st0">
    <g>
      <path class="st18" d="M41,94c20.6,0,37.3-16.7,37.3-37.3,0-20.6-16.7-37.3-37.3-37.3S3.7,36.1,3.7,56.7c0,20.6,16.7,37.3,37.3,37.3Z"/>
      <path class="st17" d="M78.3,19.4H3.7v74.6h74.5s0-74.6,0-74.6Z"/>
    </g>
  </g>
  <g class="st26">
    <g>
      <path class="st14" d="M79,58c0-20.4-16.8-37-37.5-37S4,37.6,4,58"/>
      <g class="st23">
        <g>
          <path class="st20" d="M48.5,63.1v5.7h1.2c12.4,0,22.4,10,22.4,22.4v2.8H9.9v-2.8c0-12.4,10-22.4,22.4-22.4h1.2v-5.7c-5.4-2.5-9.2-7.7-9.8-13.9-1.8-.3-3.2-1.8-3.2-3.7v-4.3c0-1.8,1.3-3.4,3.1-3.7v-1.9c0-9.6,7.8-17.4,17.4-17.4s17.4,7.8,17.4,17.4v1.9c1.8.3,3.1,1.9,3.1,3.7v4.3c0,1.9-1.4,3.4-3.2,3.7-.6,6.2-4.5,11.4-9.8,13.9Z"/>
          <path class="st22" d="M82,18.2H0v75.8h82V18.2Z"/>
          <path class="st8" d="M58.4,42.7v7.1c0,9.6-7.8,17.4-17.4,17.4s-17.4-7.8-17.4-17.4v-7.1,4.7c0,9.6,7.8,17.4,17.4,17.4s17.4-7.8,17.4-17.4c0,0,0-4.7,0-4.7Z"/>
        </g>
      </g>
      <g class="st24">
        <g>
          <path class="st1" d="M33.5,63.9c-5.6.6-9.9,2.3-9.9,6.7-8,3.4-13.7,11.3-13.7,20.6v2.8h62.1v-2.8c0-9.3-5.6-17.2-13.7-20.6,0-4.4-4.4-6.1-9.9-6.7v5.9c0,4.1-3.3,7.5-7.5,7.5h0c-4.1,0-7.5-3.3-7.5-7.5h0v-5.9Z"/>
          <path class="st29" d="M82,59.8H0v34.2h82v-34.2Z"/>
          <path class="st5" d="M31.7,79v15h-2.2v-16.1c.7.4,1.4.8,2.2,1.1ZM52.5,77.9v12.5c0,.6-.5,1.1-1.1,1.1-.6,0-1.1-.5-1.1-1.1h0v-11.4c.8-.3,1.5-.7,2.2-1.1h0Z"/>
          <path class="st10" d="M28.3,63.8c-4.7.9-7.9,2.6-7.9,6.1,0,6.1,10.3,11.1,20.7,11.1s20.7-5,20.7-11.1-3.2-5.2-7.9-6.1c2.8,1,4.6,2.8,4.6,5.7,0,6.3-8.6,11.5-17.4,11.5s-17.4-5.1-17.4-11.5,1.8-4.7,4.6-5.7Z"/>
        </g>
      </g>
      <path class="st19" d="M36.7,53.6c0,1.7,1.9,2.8,4.3,2.8s4.3-1.1,4.3-2.8c0-.3-.3-.6-.6-.6-.4,0-.6.3-.6.6-.4.9-1.3,1.5-3.1,1.6-1.8,0-2.7-.6-3.1-1.6,0-.3-.2-.6-.6-.6-.3,0-.6.3-.6.6Z"/>
      <path class="st9" d="M37.3,47.4c0,1.4,1.7,2.5,3.7,2.5s3.7-1.1,3.7-2.5"/>
      <path class="st19" d="M32.9,43.7c1,0,1.9-.8,1.9-1.9,0-1-.8-1.9-1.9-1.9-1,0-1.9.8-1.9,1.9s.8,1.9,1.9,1.9h0ZM49.1,43.7c1,0,1.9-.8,1.9-1.9s-.8-1.9-1.9-1.9h0c-1,0-1.9.8-1.9,1.9s.8,1.9,1.9,1.9ZM28.5,37.8c1.2-1.7,4.6-2.7,7.4-2,.3,0,.7-.1.8-.5,0-.3-.1-.7-.5-.8-3.3-.8-7.2.3-8.7,2.5-.2.3,0,.7.2.9.3.2.6.1.8-.1ZM53.5,37.8c-1.2-1.7-4.5-2.7-7.4-2-.3,0-.7-.1-.8-.5,0-.3.1-.7.5-.8,3.3-.8,7.2.3,8.7,2.5.2.3.1.7-.2.9-.3.2-.6.1-.8-.1h0Z"/>
      <g class="st25">
        <g>
          <path class="st7" d="M23.3,37.5c.1.5.5.4.6,0-.1-.5,1-8.9,4-11.2,1.1-.8,7.1-1.5,13.1-1.5,5.9,0,11.8.7,12.9,1.5,3,2.3,4.2,10.7,4,11.2.1.4.5.5.6,0,.2-3.2,0-19.8-17.7-19.6-17.7.2-17.9,16.4-17.7,19.6Z"/>
          <path class="st34" d="M105,17.6H23v87h82s0-87,0-87Z"/>
        </g>
      </g>
      <path class="st6" d="M43.9,38.5c1.8-3.7,6.3-5.2,10-3.4,1.3.7,2.4,1.7,3.2,3,0,0,.1,0,.2,0h2.5c.4,0,.8.3.8.8s-.3.8-.8.8h-2c1.2,3.9-1,8.1-5,9.3-.7.2-1.4.3-2.2.3-4.1,0-7.5-3.3-7.5-7.5,0-.4,0-.9.1-1.3,0-1.4-1.1-2.4-2.3-2.4s-2.1.9-2.3,2.1c.9,4-1.7,8-5.7,8.9-.5.1-1.1.2-1.6.2-4.1,0-7.5-3.3-7.5-7.5h0c0-.8.1-1.5.3-2.2h-2c-.4,0-.8-.3-.8-.8s.3-.8.8-.8h2.5c0,0,.1,0,.2,0,2-3.6,6.6-4.8,10.2-2.8,1.3.7,2.3,1.8,3,3.1.6-1,1.7-1.6,2.9-1.6s2.3.7,3,1.7h0ZM31.4,48c3.4,0,6.2-2.8,6.2-6.2h0c0-3.4-2.7-6.3-6.1-6.3-3.4,0-6.3,2.7-6.3,6.1,0,0,0,.1,0,.2,0,3.4,2.8,6.2,6.2,6.2h0ZM50.6,48c3.4,0,6.2-2.8,6.2-6.2h0c0-3.4-2.7-6.2-6.1-6.3s-6.2,2.7-6.3,6.1c0,0,0,.1,0,.2,0,3.4,2.8,6.2,6.2,6.2h0Z"/>
      <path class="st12" d="M43.9,38.5c1.8-3.7,6.3-5.2,10-3.4,1.3.7,2.4,1.7,3.2,3,0,0,.1,0,.2,0h2.5c.4,0,.8.3.8.8s-.3.8-.8.8h-2c1.2,3.9-1,8.1-5,9.3-.7.2-1.4.3-2.2.3-4.1,0-7.5-3.3-7.5-7.5,0-.4,0-.9.1-1.3,0-1.4-1.1-2.4-2.3-2.4s-2.1.9-2.3,2.1c.9,4-1.7,8-5.7,8.9-.5.1-1.1.2-1.6.2-4.1,0-7.5-3.3-7.5-7.5h0c0-.8.1-1.5.3-2.2h-2c-.4,0-.8-.3-.8-.8s.3-.8.8-.8h2.5c0,0,.1,0,.2,0,2-3.6,6.6-4.8,10.2-2.8,1.3.7,2.3,1.8,3,3.1.6-1,1.7-1.6,2.9-1.6s2.3.7,3,1.7h0ZM31.4,48c3.4,0,6.2-2.8,6.2-6.2h0c0-3.4-2.7-6.3-6.1-6.3-3.4,0-6.3,2.7-6.3,6.1,0,0,0,.1,0,.2,0,3.4,2.8,6.2,6.2,6.2h0ZM50.6,48c3.4,0,6.2-2.8,6.2-6.2h0c0-3.4-2.7-6.2-6.1-6.3s-6.2,2.7-6.3,6.1c0,0,0,.1,0,.2,0,3.4,2.8,6.2,6.2,6.2h0Z"/>
    </g>
  </g>
  <path class="st14" d="M4,58c0,20.4,16.8,37,37.5,37s37.5-16.6,37.5-37"/>
  <path class="st32" d="M210.2,109.8c28.3,0,51.2-23,51.2-51.4S238.5,7,210.2,7s-51.2,23-51.2,51.4,22.9,51.4,51.2,51.4Z"/>
  <path class="st2" d="M170.1,6h43.4c2.8,0,5,2.2,5,5v60.6h-53.4V11c0-2.8,2.2-5,5-5h0,0Z"/>
  <path class="st21" d="M210.2,6c28.9,0,52.2,23.5,52.2,52.4s-23.4,52.4-52.2,52.4-52.2-23.5-52.2-52.4S181.4,6,210.2,6ZM210.8,10.3c-26.8,0-48.5,21.8-48.5,48.7s21.7,48.7,48.5,48.7,48.5-21.8,48.5-48.7-21.7-48.7-48.5-48.7h0,0Z"/>
  <path class="st31" d="M227.8,68.8h24.4c1.1,0,2-.9,2-2v-34.7c0-1.1-.9-2-2-2h-24.4c-1.1,0-2,.9-2,2h0v34.7c0,1.1.9,2,2,2Z"/>
  <path class="st31" d="M231.6,45.6h16.7c1.1,0,2-.9,2-2V15.3c0-1.1-.9-2-2-2h-16.7c-1.1,0-2,.9-2,2h0v28.3c0,1.1.9,2,2,2,0,0,0,0,0,0Z"/>
  <path class="st3" d="M247.7,30.1h-2.8v-14.2h2.8v14.2h0ZM243.5,30.1h-2.8v-11.6h2.8v11.6s0,0,0,0ZM239.3,30.1h-2.8v-11.6h2.8v11.6h0s0,0,0,0ZM235,30.1h-2.8v-14.2h2.8v14.2h0Z"/>
  <path class="st17" d="M240,45.6c-5,0-9,4-9,9s4.1,9,9,9,9-4,9-9-4.1-9-9-9Z"/>
  <path class="st3" d="M264,66.7c4.4,0,8,3.6,8,8v5.2c0,4.4-3.6,8-8,8h-44.2v-21.2h44.2Z"/>
  <path class="st28" d="M221.3,82.3l2-3.5,2,3.4,1.9-1.4-2.4-3,3.5-1-.7-2.1-3.4,1.5.3-3.9h-2.3l.3,3.9-3.3-1.5-.8,2.1,3.6,1-2.5,3.1,1.9,1.4ZM232.6,82.3l2-3.5,2,3.4,1.9-1.4-2.4-3,3.5-1-.7-2.1-3.4,1.5.3-3.9h-2.3l.3,3.9-3.3-1.5-.7,2.1,3.6,1-2.5,3.1,1.9,1.4h0ZM243.9,82.3l2-3.5,2,3.4,1.9-1.4-2.4-3,3.5-1-.7-2.1-3.4,1.5.3-3.9h-2.3l.3,3.9-3.3-1.5-.8,2.1,3.6,1-2.5,3.1,1.9,1.4ZM256.6,82.3l2-3.5,2,3.4,1.9-1.4-2.4-3,3.5-1-.7-2.1-3.4,1.5.3-3.9h-2.3l.3,3.9-3.3-1.5-.8,2.1,3.6,1-2.5,3.1,1.9,1.4h0,0Z"/>
  <path class="st2" d="M170.1,6h43.9c1.3,0,2.6.4,3.6,1.2.9.8,1.5,1.8,1.5,2.8v38h-54V10c0-1.1.5-2.1,1.5-2.8.9-.8,2.2-1.2,3.6-1.2,0,0,0,0,0,0Z"/>
  <path class="st31" d="M207.4,5.4v1.2c0,3.3-2.7,5.9-6,5.9h-20.3c-3.2,0-5.8-2.5-6-5.7v-1.5s32.2,0,32.2,0ZM191.8,47.1c1,0,1.8.8,1.8,1.8s-.8,1.8-1.8,1.8c-7.2,0-13.1,5.9-13.1,13.1s5.8,13.1,13.1,13.1,13.1-5.9,13.1-13.1.8-1.8,1.8-1.8,1.8.8,1.8,1.8c0,9.2-7.4,16.7-16.6,16.7s-16.6-7.5-16.6-16.7,7.4-16.7,16.6-16.7h0Z"/>
  <path class="st28" d="M178,29.5v-1.4h-1.4c-.3,0-.8,0-1.2,0,1.1-1.2,2.2-2.5,2.2-3.7s-.9-2.2-2.3-2.2-1.7.4-2.4,1.1l.9.9c.4-.4.7-.7,1.2-.7s1,.4,1,1.1c0,1-1.3,2.2-3.1,3.9v.9h4.9ZM183.7,29.5v-1.3h-1.3v-5.7h-1.2c-.5.3-1,.5-1.7.6v1h1.3v4.1h-1.5v1.3s4.5,0,4.5,0ZM187,29.6c1.4,0,2.6-.7,2.6-2.1s-.6-1.5-1.4-1.7h0c.8-.4,1.2-.9,1.2-1.6,0-1.2-1-1.9-2.4-1.9s-1.6.3-2.2.9l.8,1c.4-.4.8-.6,1.3-.6s.9.3.9.8-.4.9-1.7.9v1.2c1.5,0,1.9.4,1.9,1s-.5.8-1.1.8-1.1-.3-1.5-.7l-.8,1c.5.6,1.3,1,2.4,1h0s0,0,0,0ZM197.6,29.5v-1.3h-1.3v-5.7h-1.2c-.5.3-1,.5-1.7.6v1h1.3v4.1h-1.5v1.3s4.5,0,4.5,0ZM201.1,29.6c1.5,0,2.5-.8,2.5-2s-.5-1.5-1.2-1.8h0c.5-.4.9-.9.9-1.6,0-1.2-.9-1.9-2.1-1.9s-2.2.7-2.2,1.9.4,1.3.9,1.7h0c-.7.4-1.2.9-1.2,1.8s1,1.9,2.4,1.9h0ZM201.5,25.4c-.7-.3-1.2-.6-1.2-1.1s.4-.8.8-.8.9.4.9.9-.2.7-.4,1h0ZM201.1,28.5c-.6,0-1.1-.4-1.1-1s.2-.8.5-1.1c.9.4,1.5.6,1.5,1.2s-.4.9-.9.9ZM207.1,29.6c1.3,0,2.3-.9,2.3-2.4s-.9-2.2-2.1-2.2-1,.3-1.4.7c0-1.6.7-2.2,1.4-2.2s.9.2,1.1.5l.9-1c-.4-.5-1.1-.8-2-.8-1.5,0-2.8,1.2-2.8,3.8s1.3,3.5,2.7,3.5h0ZM207.1,28.4c-.5,0-1-.4-1.1-1.5.3-.5.7-.7,1.1-.7.5,0,.9.3.9,1s-.4,1.1-.9,1.1h0ZM188.7,67.8c1.4,0,2.6-.7,2.6-2.1s-.6-1.5-1.4-1.7h0c.8-.4,1.2-.9,1.2-1.6,0-1.2-1-1.9-2.4-1.9s-1.6.3-2.2.9l.8,1c.4-.4.8-.6,1.3-.6s.9.3.9.8-.4.9-1.7.9v1.2c1.5,0,1.9.4,1.9,1s-.5.8-1.1.8-1.1-.3-1.5-.7l-.8,1c.5.6,1.3,1,2.4,1ZM194.6,67.8c1.4,0,2.6-.9,2.6-2.5s-1-2.2-2.2-2.2-.5,0-.8.2v-1.3h2.7v-1.4h-4l-.2,3.6.7.5c.4-.3.6-.4,1-.4.7,0,1.1.4,1.1,1.1s-.5,1.1-1.2,1.1-1.1-.3-1.5-.7l-.7,1c.6.6,1.3,1,2.5,1h0s0,0,0,0Z"/>
  <path class="st31" d="M217.4,12.5c.8.1,1.6.3,2.4.4v82.4c0,3.9-3.1,7-6.9,7.1h-.2s-23.4,0-23.4,0c-1.5-.7-2.9-1.5-4.3-2.4h27.7c2.6,0,4.6-2,4.7-4.6v-.2s0-82.8,0-82.8ZM165.1,43.8v31.6c-1.2-3.4-2-6.9-2.4-10.4v-10.7c.4-3.6,1.2-7.1,2.4-10.4ZM165.1,31.9v.3c-.9,1.4-1.7,2.9-2.4,4.4h0c.7-1.7,1.5-3.2,2.4-4.7h0ZM210.2,6c2.3,0,4.7.2,6.9.5.5.4,1,1,1.4,1.6-1.5-.3-3-.5-4.5-.6-.4-.1-.8-.2-1.2-.2h-.2s-13.5,0-13.5,0c3.7-.8,7.4-1.2,11.1-1.2h0Z"/>
  <path class="st31" d="M205.8,60.2c1.1,0,2.1-.9,2.1-2.1,0,0,0,0,0,0,0-1.2-.9-2.1-2.1-2.1-.8,0-1.6.5-1.9,1.3-.1.3-.2.5-.2.8,0,1.2.9,2.1,2.1,2.1Z"/>
  <path class="st31" d="M212.6,4.8c3.9,0,7.1,3.2,7.1,7.2v46.5h-2.4V11.9c0-2.5-2-4.6-4.5-4.8h-.2s-42.8,0-42.8,0c-2.6,0-4.8,2.1-4.8,4.8v46.5h-2.4V11.9c0-3.9,3.2-7.2,7.1-7.2h42.8Z"/>
  <path class="st27" d="M185.9,109.6c3.6,0,6.5-2.9,6.5-6.6s-2.9-6.6-6.5-6.6-6.5,2.9-6.5,6.6,2.9,6.6,6.5,6.6Z"/>
  <path class="st30" d="M219.2,13.1c3.6,0,6.5-2.9,6.5-6.6s-2.9-6.6-6.5-6.6-6.5,2.9-6.5,6.6,2.9,6.6,6.5,6.6Z"/>
  <circle class="st15" cx="158" cy="56" r="4.2"/>
  <circle class="st15" cx="78" cy="56" r="4.2"/>
  <path class="st14" d="M341,56h-80"/>
  <circle class="st15" cx="341" cy="56" r="4.2"/>
  <circle class="st15" cx="261" cy="56" r="4.2"/>
  <g>
    <path class="st35" d="M386.3,35.4h-6.8v23.8c6.4-2.8,8.7-6.5,9.2-7.7.1-.2.2-.5.2-.7v-12.9c0-1.4-1.2-2.6-2.6-2.6Z"/>
    <path class="st13" d="M372.8,35.4c-1.4,0-2.6,1.2-2.6,2.6v12.9c0,.2,0,.5.2.7.6,1.1,2.8,4.8,9.2,7.7v-23.8h-6.8Z"/>
    <path class="st16" d="M381.2,45.7c.6-.5,1-1.2,1-2.1,0-1.5-1.2-2.7-2.7-2.7s-2.7,1.2-2.7,2.7.4,1.6,1,2.1c-.3,1.7-.6,3.3-.9,5,.8.1,1.7.2,2.5.2.8,0,1.7,0,2.5-.2-.3-1.7-.6-3.4-.9-5Z"/>
  </g>
</svg>