<svg xmlns="http://www.w3.org/2000/svg" viewBox="0 0 136 136"><title>launch</title><g id="Layer_2" data-name="Layer 2"><g id="Layer_1-2" data-name="Layer 1"><path d="M21.17,117.28a129,129,0,0,1,93.87-.21,68,68,0,1,0-93.87.21Z" fill="#0071bb"/><path d="M21.17,117.28a67.93,67.93,0,0,0,93.87-.21,129,129,0,0,0-93.87.21Z" fill="#cedbec"/><path d="M58,86,46.24,91.32c.18-9.75,6.45-18.94,9.81-23.18Z" fill="#00bfe7"/><path d="M79,86.28l11.79,5.35c-.18-10-6.77-19.4-10.06-23.48Z" fill="#00bfe7"/><path d="M68.44,24.11c-4.2,0-14.78,14.73-14.78,22.5L58.3,89.84a1.51,1.51,0,0,0,1.5,1.41H77.08a1.52,1.52,0,0,0,1.51-1.41l4.63-43.32C83.22,38.85,73.25,24.11,68.44,24.11Z" fill="#fff"/><path d="M74.32,51.91A5.88,5.88,0,1,1,68.45,46,5.89,5.89,0,0,1,74.32,51.91Z" fill="#00bfe7"/><path d="M72.77,94.55c-1.21,3.7-2.71,6.55-4.33,6.55s-3.12-2.86-4.33-6.55a5.14,5.14,0,0,0-3,5.08c0,4.42,3.27,22,7.29,22s7.3-17.61,7.3-22A5.14,5.14,0,0,0,72.77,94.55Z" fill="#e31c3d"/><circle cx="29.76" cy="40.63" r="2.89" fill="#fff"/><circle cx="60.72" cy="9.01" r="1.15" fill="#fff"/><circle cx="41.34" cy="66.49" r="1.45" fill="#fff"/><circle cx="14.73" cy="81.3" r="1.79" fill="#fff"/><circle cx="100.48" cy="31.04" r="2.35" fill="#fff"/><circle cx="112.81" cy="98.06" r="1.91" fill="#fff"/><circle cx="113.05" cy="59.08" r="1.53" fill="#fff"/></g></g></svg>