<svg xmlns="http://www.w3.org/2000/svg" viewBox="0 0 104 104"><defs><linearGradient id="a" x1="52" y1="-7" x2="52" y2="81.79" gradientUnits="userSpaceOnUse"><stop offset="0" stop-color="#112e51"/><stop offset="1" stop-color="#205493"/></linearGradient><linearGradient id="b" x1="52.08" y1="83.6" x2="52.08" y2="104.33" gradientUnits="userSpaceOnUse"><stop offset="0" stop-color="#239bd2"/><stop offset="1" stop-color="#00bfe7"/></linearGradient><linearGradient id="d" x1="50.51" y1="69.38" x2="54.01" y2="84.38" gradientUnits="userSpaceOnUse"><stop offset="0" stop-color="#fc768c"/><stop offset="1" stop-color="#e21d3e"/></linearGradient><clipPath id="c"><path d="M52 0a52 52 0 1052 52A52 52 0 0052 0z" fill="none"/></clipPath></defs><path d="M16.19 89.69A98.61 98.61 0 0188 89.53a52 52 0 10-71.78.16z" fill="url(#a)"/><path d="M16.19 89.69A51.95 51.95 0 0088 89.53a98.61 98.61 0 00-71.78.16z" fill="url(#b)"/><g clip-path="url(#c)"><path d="M88 89.53a98.61 98.61 0 00-71.78.16" fill="none" stroke="#112e51" stroke-linecap="square" stroke-miterlimit="10" stroke-width="3"/></g><path d="M44.37 65.74l-9 4.1c.13-7.46 4.94-14.49 7.5-17.72zm16.07.26l9 4.09c-.14-7.64-5.18-14.84-7.69-18z" fill="#00bfe7"/><path d="M52.34 18.44C49.13 18.44 41 29.71 41 35.65l3.58 33.05a1.16 1.16 0 001.15 1.08h13.22a1.16 1.16 0 001.15-1.08l3.54-33.13c0-5.86-7.64-17.13-11.3-17.13z" fill="#fff"/><circle cx="52.34" cy="39.69" r="4.5" fill="#00bfe7"/><path d="M55.65 72.3a3.93 3.93 0 012.27 3.89c0 3.38-2.5 16.84-5.58 16.84s-5.58-13.47-5.58-16.85A3.93 3.93 0 0149 72.3z" fill="url(#d)"/><circle cx="22.76" cy="31.07" r="2.21" fill="#fff"/><circle cx="46.43" cy="6.89" r=".88" fill="#fff"/><circle cx="31.61" cy="50.85" r="1.11" fill="#fff"/><circle cx="11.26" cy="62.17" r="1.37" fill="#fff"/><circle cx="76.84" cy="23.74" r="1.8" fill="#fff"/><circle cx="86.27" cy="74.99" r="1.46" fill="#fff"/><circle cx="86.45" cy="45.18" r="1.17" fill="#fff"/><path fill="#e21d3e" d="M43.31 56.79l.31 2.94h17.44l.31-2.94H43.31zm.86 8.11h16.34l.31-2.93H43.86l.31 2.93z"/></svg>