<svg width="96" height="96" xmlns="http://www.w3.org/2000/svg"><defs><linearGradient x1="90.594%" y1="91%" x2="9.031%" y2="8.625%" id="a"><stop stop-color="#00BFE7" offset="0%"/><stop stop-color="#99D7F4" offset="71%"/></linearGradient><linearGradient x1="35.899%" y1="30.398%" x2="81.919%" y2="82.049%" id="b"><stop stop-color="#009AE3" offset="0%"/><stop stop-color="#00BFE7" offset="100%"/></linearGradient></defs><g fill="none" fill-rule="evenodd"><rect fill="url(#a)" fill-rule="nonzero" width="96" height="96" rx="8"/><circle fill="#112E51" fill-rule="nonzero" cx="9" cy="87" r="3"/><circle fill="#112E51" fill-rule="nonzero" cx="87" cy="9" r="3"/><circle fill="#112E51" fill-rule="nonzero" cx="9" cy="9" r="3"/><path d="M73 25v2h5.492l17.466 17.466v43.243a8 8 0 01-8 8H44.236L17.7 69.173V63H16v-1.381L52.619 25H73z" fill="url(#b)"/><rect stroke="#112E51" stroke-width="3" fill="#FFF" x="17.5" y="26.5" width="61" height="43" rx="3"/><path d="M45.015 55.504c-3.382-1.432-7.141-3.212-7.455-4.318v-1.188a7.573 7.573 0 001.582-3.166 1.997 1.997 0 00.337-2.707v-2.601c0-2.684-1.384-4.524-4.488-4.524-3.04 0-4.489 1.835-4.489 4.524v2.601a1.998 1.998 0 00.333 2.73 7.569 7.569 0 001.582 3.143v1.16c-.319 1.134-4.073 2.905-7.455 4.346a.83.83 0 00-.461.77v2.9a.79.79 0 00.743.826h19.512a.79.79 0 00.743-.826V56.27a.83.83 0 00-.484-.766z" fill="#112E51" fill-rule="nonzero"/><g transform="translate(51 42)" fill="#112E51"><rect width="20" height="4" rx="1"/><rect y="8" width="15.652" height="4" rx="1"/></g><circle fill="#112E51" fill-rule="nonzero" cx="87" cy="87" r="3"/></g></svg>