<?xml version="1.0" encoding="UTF-8"?>
<svg xmlns="http://www.w3.org/2000/svg" xmlns:xlink="http://www.w3.org/1999/xlink" width="120px" height="17px" viewBox="0 0 17 120" version="1.1">
<g id="surface1">
<path style=" stroke:none;fill-rule:evenodd;fill:rgb(100%,100%,100%);fill-opacity:1;" d="M 3.464844 3.117188 L 10.566406 3.117188 L 10.566406 12.265625 L 3.464844 12.265625 Z M 3.464844 3.117188 "/>
<path style=" stroke:none;fill-rule:evenodd;fill:rgb(6.666667%,18.039216%,31.764706%);fill-opacity:1;" d="M 22.464844 2.453125 L 19.921875 2.453125 L 19.921875 13.777344 L 27.300781 13.777344 L 27.300781 11.542969 L 22.464844 11.542969 Z M 22.464844 2.453125 "/>
<path style=" stroke:none;fill-rule:evenodd;fill:rgb(6.666667%,18.039216%,31.764706%);fill-opacity:1;" d="M 35.167969 2.371094 C 31.71875 2.371094 29.109375 4.8125 29.109375 8.113281 C 29.109375 11.414062 31.71875 13.890625 35.167969 13.890625 C 38.617188 13.890625 41.226562 11.402344 41.226562 8.113281 C 41.226562 4.828125 38.617188 2.371094 35.167969 2.371094 Z M 35.203125 11.65625 C 33.265625 11.640625 31.707031 10.058594 31.71875 8.113281 C 31.710938 7.183594 32.078125 6.289062 32.730469 5.628906 C 33.382812 4.96875 34.273438 4.597656 35.203125 4.601562 C 37.140625 4.601562 38.714844 6.183594 38.714844 8.132812 C 38.714844 10.078125 37.140625 11.660156 35.203125 11.660156 Z M 35.203125 11.65625 "/>
<path style=" stroke:none;fill-rule:evenodd;fill:rgb(6.666667%,18.039216%,31.764706%);fill-opacity:1;" d="M 49.800781 4.589844 C 50.949219 4.613281 52.046875 5.054688 52.894531 5.832031 L 54.324219 4.003906 C 53.050781 2.9375 51.445312 2.351562 49.785156 2.347656 C 46.269531 2.347656 43.628906 4.835938 43.628906 8.089844 C 43.628906 11.34375 46.253906 13.890625 49.65625 13.890625 C 51.289062 13.867188 52.878906 13.363281 54.230469 12.4375 L 54.230469 7.550781 L 50.054688 7.550781 L 50.054688 9.535156 L 52.035156 9.535156 L 52.035156 11.027344 C 51.355469 11.398438 50.601562 11.609375 49.828125 11.644531 C 48.523438 11.726562 47.28125 11.078125 46.601562 9.957031 C 45.921875 8.835938 45.914062 7.429688 46.585938 6.304688 C 47.257812 5.175781 48.496094 4.519531 49.800781 4.589844 Z M 49.800781 4.589844 "/>
<path style=" stroke:none;fill-rule:evenodd;fill:rgb(6.666667%,18.039216%,31.764706%);fill-opacity:1;" d="M 57.902344 2.453125 L 60.449219 2.453125 L 60.449219 13.777344 L 57.902344 13.777344 Z M 57.902344 2.453125 "/>
<path style=" stroke:none;fill-rule:evenodd;fill:rgb(6.666667%,18.039216%,31.764706%);fill-opacity:1;" d="M 72.164062 9.730469 L 66.683594 2.453125 L 64.359375 2.453125 L 64.359375 13.777344 L 66.796875 13.777344 L 66.796875 6.515625 L 72.257812 13.777344 L 74.578125 13.777344 L 74.578125 2.453125 L 72.164062 2.453125 Z M 72.164062 9.730469 "/>
<path style=" stroke:none;fill-rule:evenodd;fill:rgb(6.666667%,18.039216%,31.764706%);fill-opacity:1;" d="M 79.375 10.917969 C 78.988281 10.90625 78.613281 11.0625 78.339844 11.339844 C 78.066406 11.621094 77.925781 12.003906 77.945312 12.394531 C 77.945312 12.90625 78.21875 13.382812 78.660156 13.640625 C 79.105469 13.894531 79.648438 13.894531 80.09375 13.640625 C 80.535156 13.382812 80.808594 12.90625 80.808594 12.394531 C 80.832031 12 80.691406 11.617188 80.417969 11.335938 C 80.144531 11.054688 79.765625 10.902344 79.375 10.917969 Z M 79.375 10.917969 "/>
<path style=" stroke:none;fill-rule:evenodd;fill:rgb(6.666667%,18.039216%,31.764706%);fill-opacity:1;" d="M 88.9375 4.589844 C 90.085938 4.613281 91.183594 5.054688 92.03125 5.832031 L 93.464844 4.003906 C 92.1875 2.9375 90.582031 2.351562 88.921875 2.347656 C 85.40625 2.347656 82.765625 4.835938 82.765625 8.089844 C 82.765625 11.34375 85.378906 13.890625 88.789062 13.890625 C 90.421875 13.867188 92.015625 13.363281 93.367188 12.4375 L 93.367188 7.550781 L 89.203125 7.550781 L 89.203125 9.535156 L 91.171875 9.535156 L 91.171875 11.027344 C 90.492188 11.398438 89.738281 11.609375 88.964844 11.644531 C 87.660156 11.726562 86.417969 11.078125 85.738281 9.957031 C 85.058594 8.835938 85.054688 7.429688 85.722656 6.304688 C 86.394531 5.175781 87.632812 4.519531 88.9375 4.589844 Z M 88.9375 4.589844 "/>
<path style=" stroke:none;fill-rule:evenodd;fill:rgb(6.666667%,18.039216%,31.764706%);fill-opacity:1;" d="M 102.246094 2.371094 C 98.796875 2.371094 96.1875 4.8125 96.1875 8.113281 C 96.1875 11.414062 98.796875 13.890625 102.246094 13.890625 C 105.695312 13.890625 108.304688 11.402344 108.304688 8.113281 C 108.304688 4.828125 105.695312 2.371094 102.246094 2.371094 Z M 102.28125 11.65625 C 100.34375 11.640625 98.789062 10.058594 98.796875 8.113281 C 98.792969 7.183594 99.15625 6.289062 99.808594 5.628906 C 100.464844 4.96875 101.351562 4.597656 102.28125 4.601562 C 104.222656 4.601562 105.792969 6.183594 105.792969 8.132812 C 105.792969 10.078125 104.222656 11.660156 102.28125 11.660156 Z M 102.28125 11.65625 "/>
<path style=" stroke:none;fill-rule:evenodd;fill:rgb(6.666667%,18.039216%,31.764706%);fill-opacity:1;" d="M 118.394531 2.453125 L 115.300781 10.996094 L 112.222656 2.453125 L 109.488281 2.453125 L 113.917969 13.777344 L 116.542969 13.777344 L 121.019531 2.453125 Z M 118.394531 2.453125 "/>
<path style=" stroke:none;fill-rule:evenodd;fill:rgb(88.627451%,11.372549%,24.313725%);fill-opacity:1;" d="M 5.09375 10.78125 L 5.691406 7.347656 C 5.078125 6.871094 4.835938 6.050781 5.085938 5.316406 C 5.339844 4.578125 6.03125 4.085938 6.808594 4.089844 L 6.808594 0.277344 L 2.183594 0.277344 C 1.710938 0.277344 1.253906 0.46875 0.917969 0.804688 C 0.582031 1.140625 0.390625 1.601562 0.390625 2.078125 L 0.390625 10.902344 C 0.390625 11.066406 0.425781 11.230469 0.5 11.382812 C 0.886719 12.167969 2.421875 14.699219 6.804688 16.644531 L 6.804688 10.921875 C 6.230469 10.921875 5.65625 10.875 5.09375 10.78125 Z M 5.09375 10.78125 "/>
<path style=" stroke:none;fill-rule:evenodd;fill:rgb(70.980392%,11.764706%,13.72549%);fill-opacity:1;" d="M 11.421875 0.265625 L 6.804688 0.265625 L 6.804688 4.074219 C 7.578125 4.070312 8.269531 4.558594 8.527344 5.292969 C 8.78125 6.023438 8.546875 6.839844 7.941406 7.324219 L 8.539062 10.773438 C 7.96875 10.871094 7.386719 10.921875 6.804688 10.921875 L 6.804688 16.636719 C 11.1875 14.699219 12.722656 12.160156 13.113281 11.375 C 13.183594 11.222656 13.21875 11.058594 13.21875 10.890625 L 13.21875 2.074219 C 13.222656 1.59375 13.03125 1.132812 12.695312 0.792969 C 12.359375 0.453125 11.898438 0.265625 11.421875 0.265625 Z M 11.421875 0.265625 "/>
</g>
</svg>
