<svg xmlns="http://www.w3.org/2000/svg" viewBox="0 0 112.33 106.43"><defs><style>.cls-3{fill:#112e51}</style></defs><path fill="#0071bc" d="M44.12 66.44a34.35 34.35 0 0 1-21.81-26.5 34.32 34.32 0 1 0 33.86 58.63q-1.27-1-2.45-2.23a34.27 34.27 0 0 1-9.6-29.9"/><path fill="#02bfe7" d="M102.25 47.81A34.2 34.2 0 0 0 90 39.94a34.36 34.36 0 0 1-21.81 26.5 34.27 34.27 0 0 1-9.59 29.91q-1.19 1.19-2.45 2.23a34.32 34.32 0 0 0 46.08-50.76z"/><path d="M68.21 66.44a34.45 34.45 0 0 1-24.09 0 34.27 34.27 0 0 0 9.59 29.91q1.19 1.19 2.45 2.23 1.27-1 2.45-2.23a34.27 34.27 0 0 0 9.6-29.91" class="cls-3"/><path fill="#e31c3d" d="M56.17 45.59A34.34 34.34 0 0 1 90 39.94a34.32 34.32 0 1 0-67.71 0 34.34 34.34 0 0 1 33.88 5.65"/><path d="M44.12 66.44a34.13 34.13 0 0 1 9.59-18.63q1.19-1.19 2.45-2.23a34.34 34.34 0 0 0-33.86-5.65 34.35 34.35 0 0 0 21.82 26.51m12.05-20.85q1.27 1 2.45 2.23a34.13 34.13 0 0 1 9.59 18.63A34.36 34.36 0 0 0 90 39.93a34.34 34.34 0 0 0-33.83 5.66" class="cls-3"/><path fill="#0e2642" d="M56.17 45.59q-1.27 1-2.45 2.23a34.13 34.13 0 0 0-9.59 18.63 34.45 34.45 0 0 0 24.09 0 34.13 34.13 0 0 0-9.59-18.63q-1.2-1.19-2.46-2.23"/><circle cx="56.16" cy="59.51" r="20.76" fill="#fff"/><path fill="#e21c3d" d="M43.77 52.36v14.31l12.39 7.15 12.39-7.15V52.36L56.16 45.2z"/><path fill="#00bfe7" d="M48.17 54.9v9.22l7.99 4.61 7.98-4.61V54.9l-7.98-4.61z"/><path fill="#0071bb" d="M51.3 56.71v5.6l4.86 2.8 4.85-2.8v-5.6l-4.85-2.8z"/></svg>