<svg xmlns="http://www.w3.org/2000/svg" viewBox="0 0 112.33 106.43"><defs><style>.cls-3{fill:#112e51}</style></defs><path d="M44.12 66.44a34.35 34.35 0 01-21.81-26.5 34.32 34.32 0 1033.86 58.63q-1.27-1-2.45-2.23a34.27 34.27 0 01-9.6-29.9z" fill="#0071bc"/><path d="M102.25 47.81A34.19 34.19 0 0090 39.94a34.36 34.36 0 01-21.81 26.5 34.27 34.27 0 01-9.59 29.91q-1.19 1.19-2.45 2.23a34.32 34.32 0 0046.08-50.76z" fill="#02bfe7"/><path class="cls-3" d="M68.21 66.44a34.45 34.45 0 01-24.09 0 34.27 34.27 0 009.59 29.91q1.19 1.19 2.45 2.23 1.27-1 2.45-2.23a34.27 34.27 0 009.6-29.91z"/><path d="M56.17 45.59A34.34 34.34 0 0190 39.94a34.32 34.32 0 10-67.71 0 34.34 34.34 0 0133.88 5.65z" fill="#e31c3d"/><path class="cls-3" d="M44.12 66.44a34.13 34.13 0 019.59-18.63q1.19-1.19 2.45-2.23a34.34 34.34 0 00-33.86-5.65 34.35 34.35 0 0021.82 26.51zm12.05-20.85q1.27 1 2.45 2.23a34.13 34.13 0 019.59 18.63A34.36 34.36 0 0090 39.93a34.34 34.34 0 00-33.83 5.66z"/><path d="M56.17 45.59q-1.27 1-2.45 2.23a34.13 34.13 0 00-9.59 18.63 34.45 34.45 0 0024.09 0 34.13 34.13 0 00-9.59-18.63q-1.2-1.19-2.46-2.23z" fill="#0e2642"/><circle cx="56.16" cy="59.51" r="20.76" fill="#fff"/><path fill="#e21c3d" d="M43.77 52.36v14.31l12.39 7.15 12.39-7.15V52.36L56.16 45.2l-12.39 7.16z"/><path fill="#00bfe7" d="M48.17 54.9v9.22l7.99 4.61 7.98-4.61V54.9l-7.98-4.61-7.99 4.61z"/><path fill="#0071bb" d="M51.3 56.71v5.6l4.86 2.8 4.85-2.8v-5.6l-4.85-2.8-4.86 2.8z"/></svg>