<svg xmlns="http://www.w3.org/2000/svg" viewBox="0 0 112.33 106.43"><defs><style>.cls-1{fill:#0071bc;}.cls-2{fill:#02bfe7;}.cls-3{fill:#112e51;}.cls-4{fill:#e31c3d;}.cls-5{fill:#0e2642;}.cls-6{fill:#fff;}.cls-7{fill:#e21c3d;}.cls-8{fill:#00bfe7;}.cls-9{fill:#0071bb;}</style></defs><title>partners</title><g id="Layer_2" data-name="Layer 2"><g id="Layer_1-2" data-name="Layer 1"><path class="cls-1" d="M44.12,66.44a34.35,34.35,0,0,1-21.81-26.5A34.32,34.32,0,1,0,56.17,98.57q-1.27-1-2.45-2.23A34.27,34.27,0,0,1,44.12,66.44Z"/><path class="cls-2" d="M102.25,47.81A34.19,34.19,0,0,0,90,39.94a34.36,34.36,0,0,1-21.81,26.5,34.27,34.27,0,0,1-9.59,29.91q-1.19,1.19-2.45,2.23a34.32,34.32,0,0,0,46.08-50.76Z"/><path class="cls-3" d="M68.21,66.44a34.45,34.45,0,0,1-24.09,0,34.27,34.27,0,0,0,9.59,29.91q1.19,1.19,2.45,2.23,1.27-1,2.45-2.23A34.27,34.27,0,0,0,68.21,66.44Z"/><path class="cls-4" d="M56.17,45.59A34.34,34.34,0,0,1,90,39.94a34.32,34.32,0,1,0-67.71,0A34.34,34.34,0,0,1,56.17,45.59Z"/><path class="cls-3" d="M44.12,66.44a34.13,34.13,0,0,1,9.59-18.63q1.19-1.19,2.45-2.23a34.34,34.34,0,0,0-33.86-5.65A34.35,34.35,0,0,0,44.12,66.44Z"/><path class="cls-3" d="M56.17,45.59q1.27,1,2.45,2.23a34.13,34.13,0,0,1,9.59,18.63A34.36,34.36,0,0,0,90,39.93,34.34,34.34,0,0,0,56.17,45.59Z"/><path class="cls-5" d="M56.17,45.59q-1.27,1-2.45,2.23a34.13,34.13,0,0,0-9.59,18.63,34.45,34.45,0,0,0,24.09,0,34.13,34.13,0,0,0-9.59-18.63Q57.43,46.63,56.17,45.59Z"/><g id="Layer_6" data-name="Layer 6"><circle class="cls-6" cx="56.16" cy="59.51" r="20.76"/></g><polygon class="cls-7" points="43.77 52.36 43.77 66.67 56.16 73.82 68.55 66.67 68.55 52.36 56.16 45.2 43.77 52.36"/><polygon class="cls-8" points="48.17 54.9 48.17 64.12 56.16 68.73 64.14 64.12 64.14 54.9 56.16 50.29 48.17 54.9"/><polygon class="cls-9" points="51.3 56.71 51.3 62.31 56.16 65.11 61.01 62.31 61.01 56.71 56.16 53.91 51.3 56.71"/></g></g></svg>