<svg xmlns="http://www.w3.org/2000/svg" viewBox="0 0 326.83 370.15"><defs><linearGradient id="linear-gradient" x1="278.27" y1="244.36" x2="48.56" y2="111.73" gradientUnits="userSpaceOnUse"><stop offset="0" stop-color="#e31c3d"/><stop offset=".56" stop-color="#112e51"/></linearGradient><linearGradient id="linear-gradient-2" x1="19.4" y1="178.05" x2="307.43" y2="178.05" gradientUnits="userSpaceOnUse"><stop offset="0" stop-color="#0071bc"/><stop offset="1" stop-color="#00bfe7"/></linearGradient><linearGradient id="linear-gradient-3" x1="42.93" y1="178.05" x2="283.9" y2="178.05" gradientUnits="userSpaceOnUse"><stop offset="0" stop-color="#e31c3d"/><stop offset="1" stop-color="#112e51"/></linearGradient><linearGradient id="linear-gradient-4" x1="326.83" y1="178.05" x2="0" y2="178.05" gradientUnits="userSpaceOnUse"><stop offset="0" stop-color="#0071bc"/><stop offset="1" stop-color="#112e51"/></linearGradient><linearGradient id="linear-gradient-5" x1="315.36" y1="178.05" x2="11.47" y2="178.05" gradientUnits="userSpaceOnUse"><stop offset="0" stop-color="#112e51"/><stop offset=".52" stop-color="#0071bc"/><stop offset="1" stop-color="#00bfe7"/></linearGradient><filter id="luminosity-noclip" x="51.31" y="65.01" width="221.71" height="228.05" filterUnits="userSpaceOnUse" color-interpolation-filters="sRGB"><feFlood flood-color="#fff" result="bg"/><feBlend in="SourceGraphic" in2="bg"/></filter><filter id="luminosity-noclip-2" x="30.58" y="34.48" width="270.61" height="298.22" filterUnits="userSpaceOnUse" color-interpolation-filters="sRGB"><feFlood flood-color="#fff" result="bg"/><feBlend in="SourceGraphic" in2="bg"/></filter><mask id="mask" x="51.31" y="65.01" width="221.71" height="228.05" maskUnits="userSpaceOnUse"><g filter="url(#luminosity-noclip)"><ellipse cx="260.63" cy="130.48" rx="5.76" ry="5.37"/><ellipse cx="250.38" cy="113.89" rx="5.76" ry="5.37"/><ellipse cx="237.34" cy="99.38" rx="5.76" ry="5.37"/><ellipse cx="222.31" cy="87.3" rx="5.76" ry="5.37"/><ellipse cx="154.52" cy="70.39" rx="9.68" ry="5.37"/><ellipse cx="100.59" cy="91.28" rx="9.68" ry="6.76"/><ellipse cx="148.5" cy="286.3" rx="9.68" ry="6.76"/><ellipse cx="186.44" cy="283.12" rx="9.68" ry="6.76"/><ellipse cx="231.58" cy="262.82" rx="9.68" ry="6.76"/><ellipse cx="77.71" cy="104.75" rx="9.68" ry="6.76"/><ellipse cx="60.99" cy="142.62" rx="9.68" ry="6.76"/></g></mask><mask id="mask-2" x="30.58" y="34.48" width="270.61" height="298.22" maskUnits="userSpaceOnUse"><g filter="url(#luminosity-noclip-2)"><path d="M127.29 251.57h70.47v81.13h-70.47z"/><path transform="rotate(-45 71.926 91.537)" d="M59.78 61.18h24.28v60.7H59.78z"/><path transform="rotate(-15.83 46.753 204.789)" d="M33.21 193.24h27.12v23.09H33.21z"/><path d="M31.26 177.41h27.12v6.3H31.26zm.98-17.44h27.12v6.3H32.24z"/><path transform="rotate(-135 262.832 101.827)" d="M250.95 71.48h23.77v60.7h-23.77z"/><path transform="rotate(178.87 160.454 51.427)" d="M130.66 35.06h59.59v32.73h-59.59z"/><path transform="rotate(-135 235.447 81.69)" d="M231.46 51.34h7.97v60.7h-7.97z"/><path transform="rotate(-135 276.907 123.148)" d="M272.92 92.8h7.97v60.7h-7.97z"/><path transform="rotate(-45 254.2 258.637)" d="M228.4 228.28H280v60.7h-51.6z"/></g></mask><style>.cls-1{opacity:.5}.cls-2{fill:#205493}.cls-3{fill:#112e51}.cls-5{fill:#e31c3d}.cls-6{fill:#00cfff}.cls-7{fill:#9e191d}.cls-9{fill:#0071bc}</style></defs><g class="cls-1"><path class="cls-2" d="M140.88 234.31l74.53 42.04V43.03L140.88 0v234.31z"/></g><path class="cls-3" d="M237.59 170.16v98.58l27.08 15.64 27.08-15.64v-98.58l-27.08-15.63-27.08 15.63z"/><path class="cls-2" d="M264.67 288.67a4.29 4.29 0 01-2.15-.58l-27.08-15.64a4.29 4.29 0 01-2.15-3.72v-98.57a4.29 4.29 0 012.15-3.72l27.08-15.64a4.29 4.29 0 014.29 0l27.08 15.64a4.29 4.29 0 012.15 3.72v98.58a4.29 4.29 0 01-2.15 3.72l-27.07 15.64a4.29 4.29 0 01-2.15.57zm-22.79-22.41l22.79 13.16 22.79-13.16v-93.62l-22.79-13.16-22.79 13.16z"/><path class="cls-3" d="M237.59 170.7l27.08 15.64 27.08-15.64"/><path class="cls-2" d="M264.67 190.63a4.29 4.29 0 01-2.15-.58l-27.08-15.64a4.29 4.29 0 114.29-7.44l24.94 14.4L289.61 167a4.29 4.29 0 114.29 7.44l-27.08 15.64a4.29 4.29 0 01-2.15.55z"/><path class="cls-3" d="M264.67 284.38v-98.04"/><path class="cls-2" d="M264.67 288.67a4.29 4.29 0 01-4.29-4.29v-98a4.29 4.29 0 118.59 0v98a4.29 4.29 0 01-4.3 4.29z"/><path d="M163.42 310.65h-.12v-10.39h.85v10.38zm-1.95 0h-.88l.21-10.38h.85zm4.52 0l-.21-10.38h.85l.25 10.38zm-7.2-.05h-.9l.42-10.37h.83zm9.91 0l-.42-10.37h.85l.46 10.37zm-12.6-.1l-.9-.05.63-10.36h.83zm15.31 0l-.65-10.5.85-.05.67 10.36zm-18-.14l-.9-.07.84-10.35.83.06zm20.7-.05l-.84-10.35.83-.07.91 10.34zM150.7 310l-.9-.09 1.05-10.33.83.08zm26.08-.06l-1-10.33.81-.08 1.12 10.32zm-28.78-.18l-.9-.11 1.27-10.3.82.1zm31.45-.08l-1.23-10.31.8-.1 1.34 10.29zm-34.14-.26l-.89-.12 1.48-10.3.82.12zm36.82-.09l-1.44-10.28.8-.12 1.55 10.26zm-39.5-.3l-.89-.14 1.68-10.24.82.13zm42.17-.1l-1.65-10.25.8-.13 1.76 10.23zm-44.8-.35l-.89-.16 1.89-10.21.82.15zm47.51-.11l-1.86-10.21.8-.15 2 10.19zm-50.17-.39l-.89-.18 2.11-10.16.81.17zm52.82-.13l-2.07-10.17.8-.17 2.11 10.15zm-55.45-.43l-.9-.2 2.32-10.12.79.18zm58.1-.14l-2.28-10.13.79-.18 2.38 10.1zm-60.81-.47l-.89-.22 2.53-10.07.79.19zm63.37-.16l-2.49-10.08.79-.2 2.59 10.05zm-66-.51l-.89-.24 2.74-10 .78.21zm68.61-.17l-2.7-10 .8-.22 2.77 10zm-71.24-.56l-.85-.25 2.91-10 .82.24zm73.85-.18l-2.91-10 .79-.24 3 9.94zm-76.45-.59l-.84-.26 3.13-9.9.81.25zm79-.19l-3.11-9.9.8-.25 3.18 9.88zm-81.6-.63l-.86-.29 3.34-9.83.78.26zm84.18-.21l-3.32-9.83.79-.27 3.39 9.81zm-86.73-.66l-.87-.31 3.54-9.76.76.27zm89.3-.23l-3.53-9.76.8-.29 3.56 9.75zm-91.85-.7l-.84-.32 3.72-9.69.78.3zm94.38-.24l-3.71-9.7.77-.3 3.8 9.66zm-96.82-.74l-.83-.34 3.93-9.61.77.31zm99.44-.26l-3.92-9.61.78-.32 4 9.59zm-101.93-.77l-.82-.35 4.13-9.53.76.33zm104.49-.29l-4.13-9.52.78-.34 4.16 9.51zM109.06 299l-.83-.38 4.33-9.43.74.34zm109.37-.3l-4.3-9.45.75-.34 4.39 9.41zm-111.82-.83l-.81-.39 4.52-9.35.74.36zm114.28-.32l-4.52-9.35.76-.37 4.56 9.33zm-116.7-.85l-.82-.41 4.71-9.25.72.36zm119.12-.35l-4.7-9.26.74-.38 4.77 9.22zm-121.53-.88l-.81-.43 4.89-9.15.72.38zm123.92-.36l-4.85-9.11.71-.38 5 9.11zm-126.3-.91l-.78-.43 5.07-9.06.73.41zm128.7-.38l-5.1-9.06.73-.41 5.13 9zm-131-.94l-.78-.46 5.25-9 .71.41zm133.38-.4l-5.25-9 .71-.42 5.33 8.91zm-135.71-1L94 291l5.46-8.83.7.43zm138-.42l-5.44-8.84.69-.43 5.53 8.79zm-140.33-1l-.76-.49 5.63-8.72.7.44zm142.62-.44l-5.61-8.73.69-.45 5.69 8.68zm-144.88-1l-.75-.5 5.8-8.61.69.46zm147.14-.46l-5.78-8.62.68-.46 5.86 8.57zM88 287.1l-.75-.52 6-8.48.67.47zm151.61-.48l-6-8.49.68-.48 6 8.45zm-153.86-1.09L85 285l6.15-8.36.67.49zm156-.5l-6.13-8.37.67-.49 6.19 8.33zm-158.17-1.1l-.73-.55 6.33-8.23.65.5zm160.36-.52l-6.31-8.24.67-.51 6.35 8.21zm-162.5-1.13l-.7-.55 6.47-8.12.66.52zm164.64-.54l-6.49-8.1.66-.53 6.53 8.07zm-166.75-1.16l-.69-.57 6.64-8 .65.54zm168.83-.58l-6.64-8 .63-.53 6.7 7.93zm-170.9-1.18l-.69-.6 6.81-7.83.62.61zm173-.57l-6.79-7.85.63-.54 6.85 7.8zm-175-1.21l-.67-.6 7-7.7.62.55zm177-.57l-6.94-7.71.6-.55 7 7.65zm-179-1.24l-.67-.63 7.13-7.55.6.56zm181-.61l-7.13-7.55.61-.58 7.16 7.51zm-183-1.27l-.64-.62 7.27-7.41.6.59zm184.94-.6l-7.27-7.41.6-.59 7.3 7.38zm-186.87-1.26l-.63-.63 7.41-7.27.59.6zm188.77-.61l-7.41-7.27.59-.6 7.45 7.23zm-190.65-1.32l-.61-.65 7.55-7.13.58.61zm192.55-.63l-7.55-7.13.57-.6 7.6 7.07zm-194.39-1.34l-.61-.67 7.7-7 .56.61zm196.2-.65l-7.7-7 .55-.62 7.75 6.91zm-198-1.38l-.58-.66 7.77-6.82.5.57-3.84 3.49zm199.8-.64l-7.83-6.81.54-.63 7.88 6.76zM62 263.52l-.58-.69 8-6.64.53.63zm203.31-.67l-8-6.64.54-.65 8 6.6zm-205-1.42l-.56-.7 8.1-6.49.53.66zm206.75-.68l-8.12-6.47.52-.66 8.15 6.43zm-208.43-1.44l-.54-.71 8.24-6.31.51.67zm210.09-.66l-8.23-6.33.5-.65 8.29 6.25zM57 257.17l-.54-.74 8.38-6.13.49.66zm213.34-.69l-8.34-6.15.48-.66 8.42 6.07zM55.4 255l-.52-.74 8.49-6 .48.68zm216.52-.68l-8.48-6 .48-.68 8.52 5.93zm-218.07-1.56l-.51-.76 8.66-5.78.46.68zm219.6-.7l-8.61-5.8.47-.7 8.64 5.76zM52.34 250.5l-.49-.76 8.73-5.61.45.69zm222.59-.69l-8.72-5.63.45-.7 8.76 5.57zm-224-1.58l-.49-.78 8.81-5.45.43.69zm225.48-.7l-8.83-5.46.43-.7 8.87 5.39zm-226.9-1.62l-.46-.78 8.95-5.26.42.71zm228.29-.69l-8.94-5.28.41-.7 9 5.18zm-229.69-1.65l-.45-.8 9.06-5.07.4.71zm231-.7l-9.06-5.07.41-.73 9.08 5zM46.8 241.21l-.44-.81 9.16-4.89.39.72zm233.61-.7l-9.15-4.89.38-.72 9.2 4.81zm-234.88-1.69l-.42-.82 9.26-4.7.37.72zm236.12-.69l-9.25-4.71.36-.72 9.3 4.61zM44.3 236.38l-.39-.81 9.35-4.52.37.75zm238.55-.67l-9.35-4.52.37-.76 9.36 4.49zm-239.71-1.77l-.39-.84 9.45-4.3.34.74zm240.86-.67l-9.43-4.33.34-.74 9.47 4.24zm-242-1.82l-.35-.81 9.52-4.13.34.78zm243.09-.64l-9.53-4.13.33-.77 9.54 4.08zM41 229l-.35-.85 9.61-3.92.31.75zm245.2-.66l-9.61-3.93.31-.77 9.63 3.87zm-246.27-1.88l-.33-.85 9.68-3.74.3.77zm247.21-.64l-9.68-3.75.29-.76 9.71 3.66zM39 223.9l-.3-.83 9.76-3.53.29.8zm249.14-.62l-9.76-3.54.28-.78 9.78 3.47zM38 221.35l-.29-.85 9.83-3.32.27.79zm251-.63l-9.83-3.34.26-.78 9.86 3.26zm-251.8-1.94l-.28-.88 9.9-3.11.25.78zm252.65-.64l-9.9-3.12.25-.81 9.91 3.09zm-253.46-2l-.26-.87 10-2.91.24.79zm254.24-.62l-10-2.94.23-.78 10 2.85zm-255-2l-.24-.89 10-2.7.21.78zm255.74-.52l-10-2.74.21-.78 10 2.63zm-256.43-2l-.23-.89 10.08-2.49.2.79zm257.11-.64L282 207.82l.19-.79 10.09 2.43zm-257.76-2l-.21-.9 10.13-2.28.18.79zm258.39-.64l-10.12-2.32.18-.81 10.13 2.25zm-259-2l-.19-.9 10.17-2.07.17.79zm259.55-.64L283.09 203l.17-.81 10.18 2zm-260.08-2l-.17-.91 10.21-1.86.15.8zm260.61-.65l-10.21-1.89.15-.82 10.22 1.83zm-261.09-2l-.15-.89 10.24-1.68.14.82zm261.55-.65L284 198.07l.13-.82 10.25 1.62zm-262-2l-.13-.88 10.28-1.47.12.84zm262.4-.63l-10.28-1.47.12-.82 10.29 1.4zM31.89 195l-.11-.88 10.3-1.26.11.84zm263.11-.6l-10.3-1.27.1-.82 10.31 1.19zm-263.42-2.06l-.09-.88 10.33-1.05.09.84zm263.74-.63L285 190.65l.08-.83 10.33 1zm-264-2.05l-.07-.88 10.35-.84.07.84zm264.25-.66l-10.35-.84.06-.83 10.35.77zm-264.46-2l-.06-.88 10.36-.63.05.85zm264.65-.64l-10.36-.63v-.85l10.36.6zM31 184.26v-.88l10.29-.38v.85zm264.94-.64l-10.37-.42v-.84l10.37.39zm-265-2.06v-.88l10.38-.21v.85zm265.06-.64l-10.38-.21v-.85L296 180zm-265.18-2.07V178H41.2v.85zm265.2-.63h-10.39v-1l10.38-.07zM41.21 176.3l-10.38-.14v-.9l10.38.21zm244.4-.75v-.83l10.38-.28v.9zm-244.34-1.73l-10.38-.35v-.9l10.41.43zm244.27-.76v-.83l10.37-.49v.9zm-244.16-1.73L31 170.77l.05-.9 10.36.63zm244-.76l-.05-.85 10.36-.67.06.88zm-243.84-1.73l-10.35-.77.07-.9 10.34.83zm243.7-.76l-.07-.84 10.34-.88.07.88zm-243.49-1.73l-10.33-1 .09-.9 10.33 1.05zM285 165.6l-.09-.84 10.32-1.09.09.88zm-243-1.72l-10.31-1.19.11-.9 10.3 1.27zm242.73-.75l-.11-.84 10.3-1.3.11.88zM42.32 161.4L32 160l.13-.89 10.28 1.47zm242.09-.75l-.12-.84 10.27-1.51.13.88zm-241.73-1.73l-10.26-1.58.15-.91 10.24 1.68zm241.32-.73l-.14-.83 10.24-1.72.15.87zm-240.91-1.73l-10.22-1.79.16-.9 10.21 1.89zm240.51-.73l-.16-.83 10.2-1.93.16.87zM43.56 154l-10.19-2 .18-.9 10.16 2.11zm239.57-.73l-.17-.83 10.16-2.14.18.87zm-239.06-1.7l-10.14-2.21.2-.9 10.12 2.32zm238.53-.72l-.19-.83 10.11-2.35.2.86zm-238-1.7l-10.09-2.43.22-.89 10.07 2.53zm237.4-.74l-.2-.79 10-2.6.23.89zm-236.76-1.68l-10-2.63.23-.87 10 2.71zm236.15-.73l-.21-.78 10-2.8.24.89zM45.9 144.35l-10-2.88.25-.85 10 2.91zm234.82-.75l-.23-.78 9.93-3 .26.88zm-234.1-1.66l-9.92-3.05.3-.89 9.9 3.13zm233.38-.73l-.25-.78 9.87-3.21.28.88zm-232.63-1.63l-9.86-3.26.29-.86 9.83 3.34zm231.84-.74l-.27-.78 9.8-3.42.3.87zm-231-1.63l-9.79-3.44.31-.87 9.76 3.54zm230.2-.73l-.29-.79 9.74-3.6.31.85zM49 134.89l-9.7-3.69.31-.82 9.69 3.72zm228.48-.75l-.31-.79 9.67-3.78.32.83zm-227.54-1.58l-9.63-3.87.34-.83 9.61 3.93zm226.65-.75l-.31-.75 9.57-4 .35.85zm-225.7-1.54l-9.55-4.07.35-.82 9.53 4.13zm224.73-.76l-.34-.77 9.5-4.19.36.83zM51.89 128l-9.47-4.24.38-.83 9.43 4.33zm222.71-.75l-.35-.75 9.4-4.4.38.82zm-221.68-1.5l-9.38-4.44.39-.81 9.35 4.5zm220.62-.75l-.36-.74 9.3-4.6.4.82zM54 123.48l-9.3-4.61.41-.81 9.26 4.68zm218.41-.77l-.37-.72 9.21-4.79.42.82zm-217.25-1.45l-9.21-4.78.43-.82 9.15 4.89zm216.12-.75l-.4-.74 9.13-4.95.42.79zm-214.95-1.42l-9.09-5 .44-.79 9.06 5.07zm213.75-.78l-.41-.72 9-5.15.45.79zm-212.52-1.4l-9-5.17.44-.74 9 5.25zm211.27-.77l-.42-.7 8.89-5.36.47.79zm-210-1.35l-8.87-5.39.47-.77 8.83 5.46zm208.7-.79l-.43-.69 8.79-5.53.49.78zm-207.41-1.32l-8.77-5.56.49-.76 8.73 5.64zm206.08-.78l-.46-.71 8.69-5.68.49.75zm-204.72-1.31l-8.65-5.73.5-.75 8.61 5.8zm203.35-.78l-.47-.69 8.57-5.86.51.75zm-202-1.29l-8.54-5.9.52-.75 8.48 6zm200.54-.78l-.48-.68 8.45-6 .52.74zM64.31 106.5l-8.41-6.09.53-.73 8.36 6.15zm197.69-.78l-.49-.66 8.32-6.21.54.74zM65.79 104.5l-8.29-6.25.54-.72 8.24 6.31zm194.66-.76l-.51-.67 8.21-6.35.54.71zm-193.15-1.2l-8.13-6.45.54-.69 8.12 6.47zm191.62-.77l-.54-.67 8.09-6.51.55.68zm-190.06-1.18l-8-6.6.57-.69 8 6.64zm188.48-.76l-.53-.63 7.93-6.7.58.69zM70.47 98.67l-7.9-6.74.59-.68L71 98zm185.25-.73l-.55-.63 7.8-6.85.59.67zM72.11 96.8l-7.75-6.91.6-.67 7.7 7zm182-.73l-.56-.61 7.65-7 .61.67zM73.79 95l-7.62-7.1.62-.66 7.56 7.11zm178.6-.71l-.56-.59 7.5-7.17.6.64zM75.5 93.14l-7.5-7.2.64-.66 7.41 7.27zm175.14-.69l-.59-.6 7.37-7.3.63.63zm-173.4-1.08L69.94 84l.63-.63 7.27 7.41zm171.64-.7l-.59-.57 7.2-7.48.66.64zM79 89.63l-7.16-7.51.65-.61 7.13 7.55zM247.09 89l-.61-.57 7.05-7.62.66.62zM80.86 88l-7-7.65.67-.61 7 7.7zm164.39-.66l-.62-.55 6.91-7.79.67.6zm-162.54-1l-6.85-7.8.67-.59 6.81 7.83zm160.68-.64l-.63-.54 6.74-7.9.68.59zm-158.79-1l-6.7-8 .69-.58 6.64 8zm156.88-.7l-.64-.53 6.58-8 .7.58zm-155-1L80 75l.69-.56 6.49 8.1zm153-.61l-.66-.52 6.43-8.15.7.55zm-151.01-.9l-6.35-8.21.71-.54 6.3 8.26zm149.13-.59l-.67-.51 6.25-8.29.71.54zM90.47 80l-6.21-8.32.74-.54 6.13 8.38zm145.13-.57l-.67-.49 6.07-8.43.73.53zM92.49 78.5l-6-8.44.75-.53 6 8.49zm141.09-.5l-.68-.47 5.9-8.54.74.52zm-139-.88l-5.86-8.57.76-.51 5.78 8.62zm137-.53l-.68-.45 5.72-8.66.76.51zm-134.98-.9L90.92 67l.76-.49 5.61 8.73zm132.84-.51l-.7-.44 5.57-8.74.76.49zm-130.72-.84l-5.53-8.79.78-.49 5.44 8.84zm128.63-.48l-.71-.43 5.36-8.89.77.47zM100.85 73l-5.35-8.86.79-.47 5.26 8.95zm124.36-.46l-.72-.42 5.2-9 .78.45zM103 71.78l-5.15-9 .79-.45 5.09 9zm120.05-.44l-.72-.4 5-9.09.79.44zm-117.88-.77l-4.95-9.12.78-.45 4.91 9.15zm115.7-.42l-.71-.38 4.8-9.21.81.43zm-113.47-.76l-4.79-9.21.82-.42 4.7 9.26zM218.68 69l-.74-.37 4.61-9.3.81.41zm-109.05-.73L105 59l.82-.4 4.52 9.35zm106.81-.37l-.74-.36 4.44-9.38.81.39zm-104.56-.71l-4.4-9.4.84-.39 4.3 9.45zm102.33-.35l-.76-.34 4.24-9.5.81.37zm-100.06-.68l-4.15-9.5.83-.36 4.13 9.52zm97.78-.33l-.76-.33 4.06-9.5.82.35zm-95.47-.66l-4-9.57.85-.35 3.92 9.61zm93.18-.3l-.77-.31 3.87-9.63.83.34zm-90.88-.63L115 54.57l.83-.32 3.74 9.68zm88.57-.29l-.79-.3 3.68-9.71.83.32zm-86.23-.6l-3.6-9.74.85-.31 3.53 9.76zm83.9-.28l-.76-.27 3.42-9.8.87.31zm-81.53-.57l-3.39-9.81.85-.29 3.32 9.83zm79.18-.26l-.77-.26 3.23-9.87.87.29zm-76.79-.54l-3.21-9.87.88-.28 3.11 9.9zm74.43-.23l-.79-.25 3.05-9.92.86.27zm-72-.51l-3-9.94.87-.26 2.91 10zm69.67-.21l-.82-.24 2.88-10 .85.25zm-67.26-.48l-2.8-10 .89-.24 2.7 10zm64.87-.2l-.82-.22 2.67-10 .86.23zM133 59.63l-2.6-10 .89-.23 2.49 10.08zm60-.18l-.81-.2 2.43-10.09.87.21zM135.45 59l-2.38-10.1.9-.21 2.28 10.13zm55.19-.17l-.79-.18 2.21-10.14.9.2zm-52.76-.37l-2.18-10.11.88-.19 2.1 10.17zm50.32-.16l-.79-.16 2-10.19.9.18zm-47.89-.3l-1.93-10.2.87-.16 1.89 10.21zm45.45-.14l-.8-.15 1.79-10.22.9.16zm-43-.3L141 47.33l.87-.15 1.68 10.24zm40.54-.13l-.8-.13 1.58-10.3.91.15zm-38.08-.27l-1.51-10.26.88-.13L146.06 57zm35.62-.11l-.81-.11 1.37-10.29.91.13zm-33.15-.23l-1.3-10.3.88-.11 1.26 10.3zm30.68-.1l-.81-.09 1.16-10.32.91.11zm-28.21-.2l-1.09-10.32.88-.09L151 56.45zm25.73-.08l-.81-.08L176 46l.92.09zm-23.25-.16l-.88-10.34.88-.07.84 10.35zm20.77-.07l-.83-.06.77-10.35.9.07zm-18.28-.13l-.67-10.36.88-.06L156 56zm15.79 0h-.83l.56-10.37.9.05zm-13.3-.08l-.46-10.37h.88l.42 10.37zm10.81 0h-.83l.4-10.48h.9zm-8.32-.06l-.25-10.38h.88l.26 10.29zm5.83 0h-.83l.14-10.38h.9zm-3.32 0l-.07-10.38h.86v10.38z" fill="url(#linear-gradient)"/><g class="cls-1"><path class="cls-5" d="M262.12 237.58l-27.09 15.28V78.8l27.09-15.64v174.42z"/></g><g class="cls-1"><path class="cls-5" d="M70.82 250.43L53.86 260V150.99l16.96-9.79v109.23z"/></g><g class="cls-1"><path class="cls-6" d="M96.84 300.64l70.26 39.63V137.29L96.84 96.72v203.92z"/></g><path class="cls-3" d="M42.67 133.38v62.81l27.08 15.63 27.09-15.63v-62.81l-27.09-15.64-27.08 15.64z"/><path class="cls-2" d="M69.75 216.12a4.29 4.29 0 01-2.15-.58L40.52 199.9a4.29 4.29 0 01-2.15-3.72v-62.8a4.29 4.29 0 012.15-3.72L67.61 114a4.29 4.29 0 014.29 0L99 129.66a4.29 4.29 0 012.15 3.72v62.81A4.29 4.29 0 0199 199.9l-27.1 15.64a4.29 4.29 0 01-2.15.58zM47 193.71l22.79 13.16 22.79-13.16v-57.85L69.75 122.7 47 135.86z"/><path class="cls-3" d="M42.67 133.92l27.08 15.63 27.09-15.63"/><path class="cls-2" d="M69.75 153.85a4.29 4.29 0 01-2.15-.58l-27.08-15.64a4.29 4.29 0 114.29-7.44l24.94 14.4 24.94-14.4a4.29 4.29 0 014.31 7.44l-27.1 15.64a4.29 4.29 0 01-2.15.58z"/><path class="cls-3" d="M69.75 206.82v-57.27"/><path class="cls-2" d="M69.75 211.12a4.29 4.29 0 01-4.29-4.29v-57.28a4.29 4.29 0 118.59 0v57.27a4.29 4.29 0 01-4.3 4.3z"/><g class="cls-1"><path class="cls-7" d="M194.41 288.71l70.26 39.64V172.76l-70.26-40.56v156.51z"/></g><path class="cls-3" d="M140.33 46.3v167.25l27.08 15.64 27.09-15.64V46.3l-27.09-15.64-27.08 15.64z"/><path class="cls-7" d="M167.42 233.48a4.29 4.29 0 01-2.15-.58l-27.08-15.64a4.29 4.29 0 01-2.15-3.72V46.3a4.29 4.29 0 012.15-3.72l27.08-15.64a4.29 4.29 0 014.29 0l27.08 15.64a4.29 4.29 0 012.15 3.72v167.25a4.29 4.29 0 01-2.15 3.72l-27.08 15.64a4.29 4.29 0 01-2.14.57zm-22.79-22.41l22.79 13.16 22.79-13.16V48.77l-22.79-13.15-22.79 13.15z"/><path class="cls-3" d="M140.33 46.83l27.08 15.64 27.09-15.64"/><path class="cls-7" d="M167.42 66.76a4.29 4.29 0 01-2.15-.58l-27.08-15.63a4.29 4.29 0 114.29-7.44l24.94 14.4 24.94-14.4a4.29 4.29 0 114.29 7.44l-27.09 15.64a4.29 4.29 0 01-2.14.57z"/><path class="cls-3" d="M167.41 229.19V62.47"/><path class="cls-7" d="M167.42 233.48a4.29 4.29 0 01-4.29-4.29V62.47a4.29 4.29 0 018.59 0v166.72a4.29 4.29 0 01-4.3 4.29z"/><path class="cls-3" d="M194.41 137.64v96.08l27.08 15.64 27.08-15.64v-96.08L221.49 122l-27.08 15.64z"/><path class="cls-6" d="M221.49 253.65a4.29 4.29 0 01-2.15-.58l-27.08-15.64a4.29 4.29 0 01-2.15-3.72v-96.07a4.29 4.29 0 012.15-3.72l27.08-15.64a4.29 4.29 0 014.29 0l27.08 15.64a4.29 4.29 0 012.15 3.72v96.09a4.29 4.29 0 01-2.15 3.72l-27.08 15.64a4.29 4.29 0 01-2.14.56zm-22.79-22.4l22.79 13.16 22.79-13.16v-91.13L221.49 127l-22.79 13.12z"/><path class="cls-3" d="M194.41 138.18l27.08 15.63 27.08-15.63"/><path class="cls-6" d="M221.49 158.1a4.29 4.29 0 01-2.15-.58l-27.08-15.64a4.29 4.29 0 014.29-7.44l24.94 14.4 24.94-14.4a4.29 4.29 0 014.29 7.44l-27.08 15.64a4.29 4.29 0 01-2.15.58z"/><path class="cls-3" d="M221.49 249.36v-95.55"/><path class="cls-6" d="M221.49 253.65a4.29 4.29 0 01-4.29-4.29v-95.55a4.29 4.29 0 018.59 0v95.55a4.29 4.29 0 01-4.3 4.29z"/><path class="cls-9" d="M208.58 354.87l-27.08 15.28V196.09l27.08-15.64v174.42z" opacity=".28"/><path class="cls-3" d="M167.41 94.06v96.09l27.09 15.63 27.08-15.63V94.06L194.5 78.42l-27.09 15.64z"/><path class="cls-9" d="M194.5 210.08a4.29 4.29 0 01-2.15-.58l-27.08-15.64a4.29 4.29 0 01-2.15-3.72V94.06a4.29 4.29 0 012.15-3.72l27.08-15.64a4.29 4.29 0 014.29 0l27.08 15.64a4.29 4.29 0 012.15 3.72v96.09a4.29 4.29 0 01-2.15 3.72l-27.08 15.63a4.29 4.29 0 01-2.14.58zm-22.79-22.41l22.79 13.16 22.79-13.16V96.54L194.5 83.38l-22.79 13.16z"/><path class="cls-3" d="M167.41 94.6l27.09 15.63 27.08-15.63"/><path class="cls-9" d="M194.5 114.53a4.29 4.29 0 01-2.15-.58l-27.08-15.63a4.29 4.29 0 114.29-7.44l24.94 14.4 24.94-14.4a4.29 4.29 0 114.29 7.44L196.64 114a4.29 4.29 0 01-2.14.53z"/><path class="cls-3" d="M194.5 205.78v-95.55"/><path class="cls-9" d="M194.5 210.08a4.29 4.29 0 01-4.29-4.29v-95.56a4.29 4.29 0 118.59 0v95.55a4.29 4.29 0 01-4.3 4.3z"/><path class="cls-3" d="M86.17 187.41v85.72l27.08 15.64 27.08-15.64v-85.72l-27.08-15.63-27.08 15.63z"/><path class="cls-9" d="M113.25 293.06a4.29 4.29 0 01-2.15-.58L84 276.85a4.29 4.29 0 01-2.15-3.72v-85.72a4.29 4.29 0 012.15-3.72l27.08-15.64a4.29 4.29 0 014.29 0l27.08 15.64a4.29 4.29 0 012.15 3.72v85.72a4.29 4.29 0 01-2.15 3.72l-27.05 15.64a4.29 4.29 0 01-2.15.57zm-22.79-22.41l22.79 13.16L136 270.65v-80.76l-22.79-13.16-22.75 13.16z"/><path class="cls-3" d="M86.17 187.95l27.08 15.64 27.08-15.64"/><path class="cls-9" d="M113.25 207.88a4.29 4.29 0 01-2.15-.58L84 191.67a4.29 4.29 0 014.29-7.44l24.94 14.4 24.94-14.4a4.29 4.29 0 014.29 7.44L115.4 207.3a4.29 4.29 0 01-2.15.58z"/><path class="cls-3" d="M113.25 288.77v-85.18"/><path class="cls-9" d="M113.25 293.06a4.29 4.29 0 01-4.29-4.29v-85.18a4.29 4.29 0 118.59 0v85.18a4.29 4.29 0 01-4.3 4.29z"/><path d="M181.41 318.95a2 2 0 011.7-2.26 2 2 0 012.26 1.7 2 2 0 01-1.7 2.26 1.35 1.35 0 01-.28 0 2 2 0 01-1.98-1.7zm-38.72 1.64a2 2 0 01-1.69-2.27 2 2 0 012.26-1.69 2 2 0 011.7 2.26 2 2 0 01-2 1.72zm77.68-12.39a2 2 0 011-2.65 2 2 0 012.64 1 2 2 0 01-1 2.65 2 2 0 01-.82.18 2 2 0 01-1.82-1.18zm-117 .8a2 2 0 01-1-2.65 2 2 0 012.65-1 2 2 0 011 2.65 2 2 0 01-1.81 1.17 2.08 2.08 0 01-.83-.17zm151.33-22.14a2 2 0 01.21-2.82 2 2 0 012.82.21 2 2 0 01-.2 2.82 2 2 0 01-1.31.48 2 2 0 01-1.52-.69zm-185.75-.1a2 2 0 01-.19-2.83 2 2 0 012.82-.19 2 2 0 01.2 2.82 2 2 0 01-1.51.68 2 2 0 01-1.32-.48zm212.72-30a2 2 0 01-.59-2.77 2 2 0 012.76-.59 2 2 0 01.6 2.76 2 2 0 01-1.69.92 2.05 2.05 0 01-1.08-.33zm-239.53-1a2 2 0 01.6-2.76 2 2 0 012.77.6 2 2 0 01-.6 2.76 2 2 0 01-1.08.32 2 2 0 01-1.69-.92zm256.93-35.5a2 2 0 01-1.35-2.48 2 2 0 012.48-1.35 2 2 0 011.36 2.48 2 2 0 01-1.92 1.44 1.9 1.9 0 01-.57-.09zm-273.92-1.8a2 2 0 011.36-2.46 2 2 0 012.49 1.35 2 2 0 01-1.35 2.48 1.85 1.85 0 01-.57.08 2 2 0 01-1.93-1.45zm278.28-40.11V178a2 2 0 012-2 2 2 0 012 2v.15a.88.88 0 010 .16 2 2 0 01-2 2 2 2 0 01-2-1.96zm-284-.46a2 2 0 012-2 2 2 0 012 2 2 2 0 01-2 2 2 2 0 01-2.03-2zm278.4-39.28a2 2 0 011.36-2.48 2 2 0 012.48 1.35 2 2 0 01-1.35 2.48 1.85 1.85 0 01-.57.08 2 2 0 01-1.95-1.43zm-271.21 1.2a2 2 0 01-1.36-2.48 2 2 0 012.46-1.33 2 2 0 011.35 2.48 2 2 0 01-1.92 1.43 1.82 1.82 0 01-.56-.1zm254.65-37.44a2 2 0 01.6-2.77 2 2 0 012.76.6 2 2 0 01-.63 2.8 2 2 0 01-1.08.32 2 2 0 01-1.68-.95zm-238.33.47a2 2 0 01-.6-2.77 2 2 0 012.77-.59 2 2 0 01.59 2.76 2 2 0 01-1.68.92 2 2 0 01-1.11-.32zm212.2-30.59a2 2 0 01-.2-2.82 2 2 0 012.82-.2A2 2 0 01258 72a2 2 0 01-1.51.69 2 2 0 01-1.35-.44zM69 71.95a2 2 0 01.21-2.82 2 2 0 012.82.2 2 2 0 01-.2 2.82 2 2 0 01-1.31.49 2 2 0 01-1.52-.69zm152.64-21.28a2 2 0 01-1-2.65 2 2 0 012.65-1 2 2 0 011 2.65 2 2 0 01-1.82 1.17 2.07 2.07 0 01-.83-.17zm-119-1a2 2 0 011-2.65 2 2 0 012.65 1 2 2 0 01-1 2.65 2 2 0 01-.83.18 2 2 0 01-1.78-1.23zm80.74-10.17a2 2 0 01-1.7-2.27 2 2 0 012.32-1.74 2 2 0 011.69 2.26 2 2 0 01-2 1.72zm-42.11-1.73a2 2 0 011.7-2.26 2 2 0 012.26 1.7 2 2 0 01-1.7 2.26 1.33 1.33 0 01-.28 0 2 2 0 01-1.94-1.75z" fill="url(#linear-gradient-2)"/><path class="cls-3" d="M113.25 121.57v220.26l27.08 15.64 27.08-15.64V121.57l-27.08-15.64-27.08 15.64z"/><path class="cls-6" d="M140.33 361.76a4.29 4.29 0 01-2.15-.58l-27.08-15.63a4.29 4.29 0 01-2.15-3.72V121.57a4.29 4.29 0 012.15-3.72l27.08-15.64a4.29 4.29 0 014.29 0l27.08 15.64a4.29 4.29 0 012.15 3.72v220.26a4.29 4.29 0 01-2.15 3.72l-27.08 15.64a4.29 4.29 0 01-2.14.57zm-22.79-22.41l22.79 13.16 22.79-13.16V124l-22.79-13.16L117.54 124z"/><path class="cls-3" d="M113.25 122.11l27.08 15.63 27.08-15.63"/><path class="cls-6" d="M140.33 142a4.29 4.29 0 01-2.15-.58l-27.08-15.6a4.29 4.29 0 114.29-7.44l24.94 14.4 24.94-14.4a4.29 4.29 0 114.29 7.44l-27.08 15.64a4.29 4.29 0 01-2.15.54z"/><path class="cls-3" d="M140.33 357.47V137.74"/><path class="cls-6" d="M140.33 361.76a4.29 4.29 0 01-4.29-4.29V137.74a4.29 4.29 0 118.59 0v219.73a4.29 4.29 0 01-4.3 4.29z"/><path class="cls-5" d="M153.75 297.76l-54.17 30.55V208.75l54.17-31.28v120.29z" opacity=".34"/><path class="cls-3" d="M140.33 169.51v134.95l27.08 15.64 27.09-15.64V169.51l-27.09-15.64-27.08 15.64z"/><path class="cls-5" d="M167.42 324.39a4.29 4.29 0 01-2.15-.58l-27.08-15.64a4.29 4.29 0 01-2.15-3.72v-135a4.29 4.29 0 012.15-3.72l27.08-15.64a4.29 4.29 0 014.29 0l27.08 15.64a4.29 4.29 0 012.15 3.72v135a4.29 4.29 0 01-2.15 3.72l-27.08 15.64a4.29 4.29 0 01-2.14.58zM144.63 302l22.79 13.16L190.2 302V172l-22.79-13.16L144.63 172z"/><path class="cls-3" d="M140.33 170.04l27.08 15.64 27.09-15.64"/><path class="cls-5" d="M167.42 190a4.29 4.29 0 01-2.15-.58l-27.08-15.64a4.29 4.29 0 014.29-7.44l24.94 14.4 24.94-14.4a4.29 4.29 0 114.29 7.44l-27.09 15.62a4.29 4.29 0 01-2.14.6z"/><path class="cls-3" d="M167.41 320.1V185.68"/><path class="cls-5" d="M167.42 324.39a4.29 4.29 0 01-4.29-4.29V185.68a4.29 4.29 0 018.59 0V320.1a4.29 4.29 0 01-4.3 4.29z"/><g mask="url(#mask)"><path class="cls-6" d="M163.29 287.68h-.13a1.19 1.19 0 01-1.19-1.19 1.19 1.19 0 011.19-1.19h.26a1.19 1.19 0 011.19 1.19 1.2 1.2 0 01-1.19 1.2h-.13zm8.52-1.5a1.2 1.2 0 011.08-1.3 1.21 1.21 0 011.3 1.09 1.2 1.2 0 01-1.09 1.29h-.1a1.19 1.19 0 01-1.19-1.08zm-18.34 1.06a1.2 1.2 0 01-1.08-1.3 1.2 1.2 0 011.3-1.08 1.2 1.2 0 011.08 1.3 1.2 1.2 0 01-1.19 1.09h-.11zm27.86-2.24a1.19 1.19 0 011-1.39 1.19 1.19 0 011.39 1 1.19 1.19 0 01-1 1.38h-.21a1.2 1.2 0 01-1.18-.99zm-37.46.92a1.2 1.2 0 01-1-1.39 1.19 1.19 0 011.39-1 1.18 1.18 0 011 1.39 1.19 1.19 0 01-1.17 1h-.21zm46.84-2.92a1.19 1.19 0 01.84-1.46 1.2 1.2 0 011.47.84 1.19 1.19 0 01-.85 1.46 1.11 1.11 0 01-.31 0 1.18 1.18 0 01-1.15-.84zm-56.3.78a1.2 1.2 0 01-.84-1.47 1.2 1.2 0 011.47-.84 1.2 1.2 0 01.83 1.47 1.19 1.19 0 01-1.15.88 1.68 1.68 0 01-.31-.01zm65.47-3.59a1.2 1.2 0 01.71-1.54 1.2 1.2 0 011.54.71 1.19 1.19 0 01-.71 1.53 1.14 1.14 0 01-.41.08 1.18 1.18 0 01-1.13-.75zm-74.7.61a1.2 1.2 0 01-.71-1.53 1.19 1.19 0 011.54-.7 1.18 1.18 0 01.7 1.53 1.19 1.19 0 01-1.12.78 1.14 1.14 0 01-.41-.05zm83.59-4.24a1.19 1.19 0 01.56-1.59 1.19 1.19 0 011.59.57 1.2 1.2 0 01-.56 1.59 1.38 1.38 0 01-.52.11 1.18 1.18 0 01-1.07-.65zm-92.52.46a1.19 1.19 0 01-.56-1.59 1.19 1.19 0 011.59-.57 1.19 1.19 0 01.56 1.6 1.18 1.18 0 01-1.07.68 1.2 1.2 0 01-.52-.14zm101-4.86a1.2 1.2 0 01.42-1.64 1.2 1.2 0 011.64.43 1.18 1.18 0 01-.43 1.63 1.1 1.1 0 01-.6.17 1.19 1.19 0 01-.99-.56zm-109.59.3a1.18 1.18 0 01-.42-1.63 1.18 1.18 0 011.63-.42 1.18 1.18 0 01.42 1.63 1.19 1.19 0 01-1 .59 1.21 1.21 0 01-.59-.14zm117.69-5.43a1.2 1.2 0 01.28-1.67 1.2 1.2 0 011.67.28 1.2 1.2 0 01-.28 1.66 1.18 1.18 0 01-.69.22 1.21 1.21 0 01-.94-.46zm-125.81.13a1.2 1.2 0 01-.28-1.67 1.21 1.21 0 011.67-.27 1.2 1.2 0 01.27 1.67 1.19 1.19 0 01-1 .49 1.17 1.17 0 01-.62-.19zm133.43-6a1.19 1.19 0 01.13-1.68 1.2 1.2 0 011.69.13 1.2 1.2 0 01-.13 1.68 1.22 1.22 0 01-.78.29 1.19 1.19 0 01-.88-.36zm-141.06 0a1.19 1.19 0 01-.12-1.68 1.19 1.19 0 011.68-.13 1.19 1.19 0 01.13 1.68 1.19 1.19 0 01-.91.42 1.23 1.23 0 01-.74-.25zm148.14-6.45a1.2 1.2 0 010-1.69 1.2 1.2 0 011.69 0 1.2 1.2 0 010 1.69 1.21 1.21 0 01-.86.36 1.21 1.21 0 01-.79-.32zm-155.2-.19a1.19 1.19 0 010-1.69 1.2 1.2 0 011.69 0 1.21 1.21 0 010 1.69 1.25 1.25 0 01-.84.34 1.17 1.17 0 01-.81-.3zm161.68-6.89a1.19 1.19 0 01-.17-1.68 1.19 1.19 0 011.68-.16 1.19 1.19 0 01.17 1.68 1.22 1.22 0 01-.93.43 1.14 1.14 0 01-.71-.23zm-168.14-.35a1.19 1.19 0 01.17-1.68 1.19 1.19 0 011.68.17 1.19 1.19 0 01-.17 1.68 1.19 1.19 0 01-.75.27 1.19 1.19 0 01-.89-.4zm174-7.26a1.19 1.19 0 01-.31-1.66 1.19 1.19 0 011.66-.32 1.21 1.21 0 01.31 1.67 1.22 1.22 0 01-1 .52 1.21 1.21 0 01-.65-.17zm-179.76-.52a1.19 1.19 0 01.31-1.66 1.2 1.2 0 011.66.32 1.19 1.19 0 01-.32 1.66 1.18 1.18 0 01-.67.21 1.18 1.18 0 01-.97-.49zm184.91-7.5a1.2 1.2 0 01-.46-1.63 1.2 1.2 0 011.62-.46 1.2 1.2 0 01.46 1.63 1.19 1.19 0 01-1 .61 1.19 1.19 0 01-.62-.15zm-190-.68a1.19 1.19 0 01.46-1.62 1.19 1.19 0 011.62.46 1.2 1.2 0 01-.46 1.63 1.19 1.19 0 01-.58.15 1.18 1.18 0 01-1.03-.66zm194.39-7.84a1.19 1.19 0 01-.6-1.58 1.19 1.19 0 011.57-.6 1.19 1.19 0 01.61 1.58 1.2 1.2 0 01-1.09.7 1.19 1.19 0 01-.48-.14zm-198.73-.83a1.19 1.19 0 01.61-1.58 1.18 1.18 0 011.57.6 1.19 1.19 0 01-.6 1.58 1.2 1.2 0 01-.49.11 1.21 1.21 0 01-1.08-.75zm202.35-8a1.2 1.2 0 01-.74-1.52 1.21 1.21 0 011.52-.74 1.19 1.19 0 01.74 1.52 1.19 1.19 0 01-1.13.81 1.08 1.08 0 01-.38-.16zm-205.9-1a1.19 1.19 0 01.75-1.52 1.19 1.19 0 011.51.74 1.19 1.19 0 01-.74 1.52 1.3 1.3 0 01-.38.06 1.21 1.21 0 01-1.13-.87zm208.73-8.18a1.2 1.2 0 01-.87-1.45 1.19 1.19 0 011.44-.87 1.19 1.19 0 01.87 1.44 1.2 1.2 0 01-1.16.91 1.46 1.46 0 01-.27-.1zm-211.45-1.2a1.2 1.2 0 01.88-1.44 1.18 1.18 0 011.44.87 1.18 1.18 0 01-.87 1.44 1 1 0 01-.29 0 1.19 1.19 0 01-1.16-.87zM270.39 196a1.19 1.19 0 01-1-1.36 1.2 1.2 0 011.36-1 1.21 1.21 0 011 1.37 1.19 1.19 0 01-1.18 1zM55 194.76a1.2 1.2 0 011-1.36 1.19 1.19 0 011.36 1 1.18 1.18 0 01-1 1.36h-.18a1.2 1.2 0 01-1.18-1zm216.5-8.27a1.19 1.19 0 01-1.11-1.27 1.2 1.2 0 011.27-1.11 1.19 1.19 0 011.11 1.27 1.2 1.2 0 01-1.19 1.12h-.08zM54 185.12a1.21 1.21 0 011.12-1.27 1.21 1.21 0 011.27 1.15 1.2 1.2 0 01-1.12 1.27h-.08a1.2 1.2 0 01-1.19-1.15zm216.64-9.38a1.19 1.19 0 011.17-1.22 1.19 1.19 0 011.22 1.17 1.21 1.21 0 01-1.17 1.22 1.2 1.2 0 01-1.22-1.17zM55 176.65a1.18 1.18 0 01-1.16-1.22 1.2 1.2 0 011.16-1.17 1.21 1.21 0 011.17 1.23 1.2 1.2 0 01-1.2 1.16zm215-10.38a1.18 1.18 0 011.05-1.31 1.19 1.19 0 011.35 1.04 1.19 1.19 0 01-1.06 1.32h-.13a1.18 1.18 0 01-1.21-1.05zm-214.52.81a1.2 1.2 0 01-1-1.32 1.19 1.19 0 011.32-1.06 1.19 1.19 0 011.03 1.3 1.19 1.19 0 01-1.18 1.06h-.14zm213.1-10.18a1.2 1.2 0 01.94-1.41 1.2 1.2 0 011.4.94 1.2 1.2 0 01-.93 1.41h-.24a1.19 1.19 0 01-1.17-.94zm-211.69.68a1.19 1.19 0 01-.93-1.4 1.2 1.2 0 011.41-.94 1.2 1.2 0 01.93 1.41 1.19 1.19 0 01-1.17 1 1 1 0 01-.24-.07zm209.42-9.89a1.18 1.18 0 01.81-1.48 1.19 1.19 0 011.48.81 1.19 1.19 0 01-.81 1.48 1.25 1.25 0 01-.33.05 1.2 1.2 0 01-1.15-.86zm-207.2.56a1.2 1.2 0 01-.81-1.48 1.21 1.21 0 011.49-.81 1.2 1.2 0 01.8 1.49 1.18 1.18 0 01-1.14.85 1 1 0 01-.34-.05zm204.12-9.53a1.2 1.2 0 01.67-1.55 1.2 1.2 0 011.55.67 1.19 1.19 0 01-.67 1.54 1.2 1.2 0 01-.44.09 1.19 1.19 0 01-1.11-.75zm-201.08.43a1.19 1.19 0 01-.67-1.55 1.19 1.19 0 011.55-.66 1.2 1.2 0 01.67 1.55 1.21 1.21 0 01-1.11.75 1.13 1.13 0 01-.44-.09zm197.21-9.09a1.19 1.19 0 01.53-1.6 1.19 1.19 0 011.6.53 1.19 1.19 0 01-.53 1.6 1.16 1.16 0 01-.54.13 1.18 1.18 0 01-1.06-.66zM66 130.37a1.21 1.21 0 01-.53-1.61 1.19 1.19 0 011.61-.52 1.19 1.19 0 01.53 1.6 1.22 1.22 0 01-1.07.66 1.3 1.3 0 01-.54-.13zm188.75-8.6a1.19 1.19 0 01.39-1.64 1.19 1.19 0 011.65.39 1.19 1.19 0 01-.4 1.64 1.17 1.17 0 01-.62.18 1.2 1.2 0 01-1.04-.57zm-184.15.18a1.19 1.19 0 01-.38-1.64 1.19 1.19 0 011.64-.39 1.2 1.2 0 01.38 1.65 1.18 1.18 0 01-1 .56 1.23 1.23 0 01-.66-.18zm178.82-8a1.2 1.2 0 01.24-1.68 1.2 1.2 0 011.67.25 1.2 1.2 0 01-.24 1.67 1.22 1.22 0 01-.72.24 1.19 1.19 0 01-.97-.5zM75.91 114a1.18 1.18 0 01-.24-1.67 1.19 1.19 0 011.67-.24 1.2 1.2 0 01.24 1.68 1.18 1.18 0 01-1 .47 1.17 1.17 0 01-.67-.24zm167.48-7.39a1.19 1.19 0 01.09-1.68 1.2 1.2 0 011.69.09 1.19 1.19 0 01-.1 1.69 1.2 1.2 0 01-.79.3 1.16 1.16 0 01-.89-.43zm-161.47-.11a1.19 1.19 0 01-.09-1.69 1.19 1.19 0 011.68-.09 1.2 1.2 0 01.09 1.69 1.18 1.18 0 01-.89.39 1.18 1.18 0 01-.79-.3zm154.84-6.71a1.18 1.18 0 010-1.68 1.19 1.19 0 011.68-.06 1.2 1.2 0 01.06 1.69 1.22 1.22 0 01-.87.38 1.17 1.17 0 01-.87-.33zm-148.2-.22a1.18 1.18 0 01.06-1.68 1.19 1.19 0 011.68 0 1.19 1.19 0 010 1.69 1.18 1.18 0 01-.82.32 1.15 1.15 0 01-.92-.33zm141-6a1.2 1.2 0 01-.2-1.68 1.18 1.18 0 011.67-.2 1.19 1.19 0 01.21 1.67 1.21 1.21 0 01-.94.46 1.2 1.2 0 01-.74-.2zm-133.78-.31a1.19 1.19 0 01.22-1.67 1.2 1.2 0 011.68.2 1.21 1.21 0 01-.21 1.68 1.21 1.21 0 01-.74.25 1.21 1.21 0 01-.95-.46zm126.07-5.16a1.2 1.2 0 01-.35-1.66 1.2 1.2 0 011.65-.35 1.19 1.19 0 01.35 1.65 1.19 1.19 0 01-1 .54 1.17 1.17 0 01-.65-.18zm-118.31-.49a1.19 1.19 0 01.35-1.65 1.19 1.19 0 011.65.36 1.2 1.2 0 01-.35 1.65 1.29 1.29 0 01-.65.19 1.19 1.19 0 01-1-.55zm110.14-4.33a1.19 1.19 0 01-.5-1.61 1.19 1.19 0 011.62-.5 1.2 1.2 0 01.49 1.62 1.2 1.2 0 01-1.06.63 1.22 1.22 0 01-.55-.14zm-101.92-.61a1.19 1.19 0 01.5-1.62 1.21 1.21 0 011.62.5 1.19 1.19 0 01-.5 1.61 1.13 1.13 0 01-.56.14 1.19 1.19 0 01-1.06-.63zm93.35-3.47a1.19 1.19 0 01-.63-1.56A1.19 1.19 0 01206 77a1.19 1.19 0 01.64 1.56 1.19 1.19 0 01-1.1.73 1.1 1.1 0 01-.43-.09zm-84.72-.73a1.18 1.18 0 01.64-1.56 1.19 1.19 0 011.56.63 1.21 1.21 0 01-.64 1.57 1.27 1.27 0 01-.46.09 1.2 1.2 0 01-1.1-.73zm75.84-2.56a1.2 1.2 0 01-.78-1.51 1.21 1.21 0 011.51-.77 1.2 1.2 0 01.77 1.5 1.22 1.22 0 01-1.14.84 1.13 1.13 0 01-.36-.06zM129.35 75a1.21 1.21 0 01.78-1.5 1.19 1.19 0 011.5.78 1.2 1.2 0 01-.77 1.5 1.18 1.18 0 01-.37.05 1.21 1.21 0 01-1.14-.83zm57.72-1.63a1.2 1.2 0 01-.9-1.43 1.19 1.19 0 011.43-.9 1.18 1.18 0 01.9 1.42 1.2 1.2 0 01-1.17.94zm-48.48-1a1.19 1.19 0 01.9-1.42 1.19 1.19 0 011.43.9 1.2 1.2 0 01-.91 1.43 1.06 1.06 0 01-.26 0 1.19 1.19 0 01-1.16-.83zm39.15-.7a1.2 1.2 0 01-1-1.35 1.19 1.19 0 011.34-1 1.19 1.19 0 011 1.34 1.2 1.2 0 01-1.19 1h-.15zM148 70.68a1.21 1.21 0 011-1.34 1.2 1.2 0 011.34 1 1.18 1.18 0 01-1 1.34h-.16a1.2 1.2 0 01-1.18-1zm20.28.23a1.2 1.2 0 01-1.14-1.25 1.2 1.2 0 011.25-1.14 1.2 1.2 0 011.14 1.25 1.2 1.2 0 01-1.2 1.14zm-9.49 0a1.19 1.19 0 01-1.24-1.14 1.19 1.19 0 011.14-1.24 1.18 1.18 0 011.24 1.14 1.2 1.2 0 01-1.14 1.25z"/></g><g mask="url(#mask-2)"><path d="M162.65 298.53q-1.81 0-3.6-.08l.13-3.55q1.74.06 3.5.07zm4.8-.07l-.12-3.55q1.75-.06 3.49-.17l.22 3.55q-1.78.12-3.58.18zm-13.2-.28q-1.8-.13-3.59-.32l.37-3.53q1.73.18 3.48.31zm21.59-.29l-.36-3.54q1.74-.18 3.47-.41l.47 3.52q-1.78.25-3.57.44zm-29.95-.63q-1.79-.26-3.56-.57l.62-3.5q1.72.3 3.45.56zm38.27-.52l-.61-3.5q1.73-.3 3.43-.65l.72 3.48q-1.7.37-3.53.68zm-46.55-1q-1.76-.39-3.51-.82l.86-3.45q1.7.42 3.41.8zm54.79-.74l-.85-3.45q1.7-.42 3.38-.89l1 3.42q-1.77.51-3.53.92zm-62.92-1.33q-1.73-.51-3.44-1.07l1.1-3.38q1.66.54 3.34 1zm71-1l-1.09-3.38q1.67-.54 3.32-1.13l1.2 3.35q-1.69.65-3.42 1.21zm-79-1.68q-1.69-.63-3.36-1.3l1.34-3.29q1.62.66 3.26 1.27zm86.92-1.2l-1.33-3.29q1.63-.66 3.23-1.36l1.43 3.25q-1.63.78-3.31 1.46zm-94.69-2q-1.64-.74-3.25-1.53l1.56-3.19q1.56.77 3.16 1.49zm102.39-1.42l-1.56-3.19q1.58-.77 3.13-1.58l1.65 3.14q-1.57.89-3.2 1.68zm-109.9-2.31q-1.58-.86-3.14-1.76l1.78-3.07q1.51.87 3 1.71zm117.34-1.64l-1.78-3.08q1.52-.88 3-1.8l1.87 3q-1.51 1.03-3.07 1.93zM99 279.87q-1.52-1-3-2l2-2.87q1.45 1 2.92 1.92zM230.7 278l-2-2.95q1.45-1 2.87-2l2.07 2.88Q232.2 277 230.7 278zM92 275.13q-1.45-1.07-2.87-2.18l2.19-2.8q1.38 1.08 2.78 2.11zm145.46-2.07l-2.19-2.8q1.38-1.08 2.73-2.2l2.27 2.74q-1.34 1.2-2.76 2.26zm-152-3.14q-1.37-1.17-2.71-2.37l2.38-2.64q1.3 1.17 2.63 2.3zM244 267.66l-2.42-2.66q1.3-1.17 2.57-2.38l2.45 2.57q-1.31 1.26-2.6 2.47zm-164.71-3.4Q78 263 76.7 261.7l2.56-2.47q1.21 1.26 2.47 2.48zM250 261.82l-2.55-2.47q1.22-1.26 2.39-2.55l2.63 2.39q-1.21 1.34-2.47 2.63zm-176.56-3.64q-1.2-1.35-2.36-2.73l2.72-2.29q1.13 1.34 2.29 2.65zm182.2-2.59l-2.72-2.29q1.13-1.34 2.21-2.71l2.79 2.21q-1.12 1.41-2.28 2.79zm-187.58-3.88q-1.1-1.43-2.16-2.89l2.87-2.09q1 1.42 2.1 2.8zM260.82 249l-2.82-2.12q1-1.41 2-2.85l2.93 2q-1.05 1.49-2.11 2.97zm-197.68-4.1l-2-3 3-1.88q.93 1.49 1.9 2.94zm202.39-2.9l-3-1.89q.93-1.48 1.81-3l3.06 1.8q-.91 1.59-1.87 3.09zm-206.81-4.29q-.9-1.57-1.74-3.16l3.14-1.67q.82 1.55 1.69 3.07zm211-3l-3.13-1.67q.82-1.54 1.6-3.1l3.18 1.58q-.78 1.66-1.62 3.24zM54.8 230.26q-.8-1.63-1.52-3.26l3.25-1.44q.71 1.6 1.47 3.18zm218.64-3l-3.24-1.45q.71-1.59 1.38-3.21l3.28 1.36q-.69 1.63-1.42 3.27zm-222-4.69q-.67-1.68-1.29-3.38l3.32-1.19q.6 1.65 1.25 3.28zm225.19-3.09l-3.34-1.22q.6-1.64 1.15-3.3l3.37 1.12q-.59 1.68-1.21 3.37zm-228-4.85q-.55-1.71-1-3.45l3.42-1q.48 1.68 1 3.35zm230.64-3.14l-3.41-1q.48-1.68.92-3.37l3.44.88q-.51 1.73-1.01 3.46zm-232.9-5q-.42-1.75-.8-3.52l3.48-.73q.36 1.72.77 3.41zm234.94-3.2l-3.47-.74q.36-1.71.68-3.43l3.5.64q-.4 1.78-.77 3.54zm-236.63-5q-.3-1.77-.55-3.56l3.52-.48q.24 1.74.53 3.46zM282.71 195l-3.52-.5q.24-1.73.44-3.47l3.53.39q-.16 1.82-.45 3.58zm-239.2-5.07q-.18-1.79-.3-3.59l3.54-.24q.12 1.75.29 3.49zm240.09-3.27l-3.54-.25q.12-1.74.19-3.49l3.55.14q-.07 1.81-.2 3.6zM43 181.54v-3.61h3.55v3.47zm240.92-3.29h-3.55V178q0-1.75-.05-3.5l3.55-.11q.05 1.79.05 3.6zm-237.33-5l-3.59-.11q.07-1.81.2-3.6l3.54.25q-.09 1.73-.16 3.49zm233.49-3.39q-.12-1.75-.29-3.49l3.54-.35q.18 1.79.3 3.59zm-232.9-4.72l-3.53-.39q.2-1.8.45-3.58l3.52.49q-.24 1.74-.44 3.48zm232-3.37q-.24-1.74-.53-3.46l3.5-.6q.3 1.77.55 3.56zm-230.82-4.7l-3.5-.63q.32-1.78.7-3.54l3.48.74q-.37 1.7-.68 3.43zm229.46-3.33q-.36-1.71-.78-3.41l3.45-.84q.42 1.75.8 3.52zm-227.73-4.65l-3.44-.88q.45-1.75.94-3.48l3.41 1q-.47 1.66-.91 3.36zm225.76-3.28q-.48-1.68-1-3.35l3.38-1.08q.55 1.71 1 3.45zm-223.47-4.55L49 140.14q.57-1.71 1.18-3.4l3.35 1.26q-.6 1.6-1.15 3.26zM273.33 138q-.6-1.65-1.25-3.28l3.3-1.32q.67 1.68 1.29 3.38zm-218.11-4.39l-3.29-1.35q.69-1.66 1.42-3.3l3.24 1.45q-.71 1.59-1.37 3.2zm215-3.15q-.71-1.6-1.48-3.18l3.2-1.54q.79 1.63 1.52 3.28zM58.57 126.2l-3.18-1.58q.8-1.61 1.65-3.2l3.13 1.67q-.82 1.54-1.6 3.11zm208.1-3.08q-.82-1.55-1.7-3.07l3.08-1.77q.9 1.57 1.75 3.16zM62.44 119l-3.07-1.79q.91-1.55 1.86-3.08l3 1.89-1.79 2.98zm200.13-3q-.93-1.49-1.9-2.94l3-2 2 3zM66.8 112.15l-2.93-2q1-1.49 2.08-2.94l2.87 2.09q-1.03 1.4-2.02 2.85zm191.2-2.87q-1-1.42-2.1-2.8l2.81-2.18q1.1 1.43 2.17 2.88zm-186.37-3.7l-2.79-2.21q1.16-1.37 2.28-2.79l2.72 2.29q-1.12 1.34-2.21 2.71zM253 102.84q-1.12-1.34-2.29-2.64l2.65-2.37q1.2 1.34 2.36 2.73zM76.91 99.36L74.28 97q1.21-1.33 2.47-2.63l2.55 2.47q-1.21 1.23-2.39 2.52zm170.59-2.58q-1.21-1.26-2.47-2.48l2.48-2.54q1.29 1.26 2.54 2.55zM82.61 93.52L80.16 91q1.3-1.25 2.64-2.45l2.38 2.64q-1.3 1.12-2.57 2.33zm159-2.4q-1.3-1.17-2.63-2.3l2.29-2.71q1.38 1.17 2.71 2.37zm-152.93-3l-2.27-2.73q1.39-1.15 2.81-2.26l2.19 2.8Q90 87 88.7 88.09zm146.68-2.21q-1.36-1.11-2.76-2.15l2.1-2.86q1.45 1.07 2.87 2.18zm-140.2-2.82l-2.08-2.89q1.46-1.05 3-2.06l2 2.94q-1.5.98-2.92 2.01zm133.63-2q-1.45-1-2.92-1.91l1.9-3q1.52 1 3 2zM102 78.55l-1.87-3q1.53-1 3.1-1.86l1.77 3.06q-1.56.88-3 1.8zm119.93-1.79q-1.51-.87-3-1.7l1.69-3.13q1.59.86 3.14 1.75zM109 74.49l-1.66-3.14q1.6-.84 3.22-1.63l1.56 3.19q-1.52.76-3.12 1.58zm105.65-1.57q-1.57-.77-3.16-1.49L213 68.2q1.64.74 3.25 1.53zm-98.28-2L115 67.69q1.65-.73 3.33-1.4l1.33 3.29q-1.66.66-3.25 1.36zm90.85-1.33q-1.58-.59-3.22-1.24l1.23-3.35q1.69.63 3.36 1.3zM124 67.91l-1.2-3.34q1.7-.61 3.42-1.17l1.1 3.38q-1.66.55-3.32 1.13zm75.58-1.1q-1.66-.54-3.34-1l1-3.41q1.73.51 3.44 1.06zm-67.8-1.38l-1-3.42q1.73-.49 3.49-.92l.85 3.45q-1.64.46-3.32.89zm60-.87q-1.69-.42-3.41-.79l.76-3.47q1.76.38 3.51.82zm-52-1.06L139 60q1.76-.36 3.54-.67l.61 3.5q-1.71.33-3.42.68zm44-.63q-1.72-.3-3.45-.55l.51-3.52q1.79.26 3.56.57zm-36-.73l-.47-3.52q1.78-.24 3.58-.42l.37 3.54q-1.76.18-3.49.41zm27.92-.4q-1.73-.18-3.49-.31l.26-3.54q1.8.13 3.59.32zm-19.8-.4l-.23-3.54q1.79-.12 3.6-.18l.12 3.55q-1.76.07-3.5.18zm11.65-.17q-1.74-.06-3.5-.07v-3.55q1.81 0 3.6.07z" fill="url(#linear-gradient-3)"/></g><path d="M163.74 341.46h-2l.08-8h2zm4.1-.06l-.21-8 1.94-.06.33 8zm-10.24 0l-2-.08.38-8 2 .08zm16.38-.23l-.52-8 1.95-.14.61 8zm-22.52-.17l-2-.16.68-8 1.94.15zm28.64-.41l-.81-8 1.93-.21.92 7.95zm-34.76-.15l-2-.24 1-7.94 1.94.23zm40.86-.59l-1.1-7.92 1.93-.28 1.2 7.91zm-47-.2l-2-.31 1.27-7.9 1.93.3zm53-.77l-1.33-7.88 1.92-.35 1.5 7.86zm-59.09-.25l-2-.39 1.57-7.84 1.91.37zm65.12-.95l-1.7-7.82 1.9-.42 1.81 7.79zm-71.14-.3l-2-.47 1.87-7.78 1.9.44zm77.13-1.12l-2-7.75 1.88-.5 2.1 7.72zM121.2 336l-2-.54 2.16-7.7 1.88.51zm89-1.3l-2.27-7.7 1.86-.57 2.39 7.63zm-94.93-.4l-2-.62 2.45-7.62 1.85.58zm100.8-1.47l-2.58-7.57 1.85-.64 2.68 7.54zm-106.65-.45l-1.92-.69 2.73-7.52 1.84.66zm112.45-1.65l-2.87-7.51 1.81-.71 3 7.43zm-118.2-.49l-1.9-.76 3-7.41 1.81.72zm123.92-1.83l-3.13-7.41 1.78-.78 3.25 7.31zM98 327.85l-1.85-.85 3.3-7.29 1.78.79zm135.21-2l-3.42-7.23 1.77-.85 3.5 7.19zm-140.78-.55l-1.83-.9 3.57-7.16 1.75.86zm146.3-2.19l-3.69-7.1 1.73-.92 3.77 7.05zM87 322.52l-1.8-1 3.83-7 1.71.92zm157.17-2.37l-4-7 1.69-1 4 6.9zm-162.54-.61l-1.76-1 4.1-6.87 1.67 1zM249.45 317l-4.21-6.8 1.65-1 4.3 6.74zm-173.08-.64l-1.72-1.1 4.35-6.7 1.64 1zm178.25-2.71l-4.47-6.65 1.61-1.1 4.56 6.57zM71.24 313l-1.68-1.17 4.6-6.54 1.6 1.11zm188.41-2.87l-4.72-6.46 1.57-1.16 4.8 6.4zm-193.42-.69l-1.64-1.23 4.84-6.37L71 303zm198.32-3l-5-6.28 1.52-1.22 5 6.22zm-203.18-.74l-1.58-1.28 5.07-6.19 1.52 1.23zm207.94-3.18l-5.19-6.09 1.48-1.27 5.26 6zm-212.66-.74l-1.54-1.35 5.31-6 1.46 1.28zm217.26-3.33l-5.41-5.89 1.43-1.33 5.48 5.82zm-221.83-.77l-1.49-1.41 5.53-5.79 1.42 1.33zm226.28-3.47l-5.63-5.69 1.38-1.38 5.7 5.62zm-230.71-.8l-1.43-1.45 5.78-5.6 1.37 1.4zm235-3.6l-5.84-5.47 1.32-1.43 5.9 5.4zM43.41 289L42 287.45l6-5.35 1.31 1.44zm243.36-3.73l-6-5.25 1.27-1.48 6.1 5.17zm-247.45-.86l-1.32-1.6 6.14-5.13 1.26 1.49zm251.39-3.85l-6.23-5 1.21-1.52 6.29 4.94zm-255.31-.9L34.13 278l6.33-4.9 1.2 1.53zm259.08-4l-6.41-4.78 1.16-1.57 6.47 4.71zm-262.81-.93l-1.2-1.66 6.5-4.66 1.14 1.59zm266.39-4.05l-6.59-4.54 1.09-1.61 6.64 4.47zm-269.94-1L27 268l6.67-4.41 1.09 1.63zm273.33-4.14l-6.75-4.29 1-1.65 6.8 4.21zm-276.69-1l-1.08-1.75 6.84-4.16 1 1.67zm279.88-4.23l-6.91-4 1-1.68 7 3.94zm-283-1.05l-1-1.78 7-3.9 1 1.7zm286-4.3l-7.05-3.77q.46-.86.9-1.72l7.1 3.68zm-289-1.1q-.48-.91-.95-1.83l7.13-3.62.89 1.73zm291.79-4.36l-7.21-3.5q.42-.87.84-1.75l7.24 3.41zm-294.57-1.13l-.86-1.85 7.26-3.36.83 1.77zM313 244l-7.32-3.23q.39-.89.77-1.78l7.36 3.14q-.41.87-.81 1.87zm-299.68-1.2q-.41-.95-.81-1.9l7.39-3.07q.37.9.76 1.79zm302-4.45l-7.43-3q.36-.9.7-1.81l7.48 2.85q-.33.97-.71 1.93zM11 237.06q-.37-1-.73-1.93l7.5-2.79q.34.91.69 1.82zm306.54-4.5l-7.54-2.67.64-1.84 7.58 2.56q-.36.98-.7 1.95zm-308.68-1.3q-.34-1-.66-2l7.6-2.51q.31.93.63 1.86zm310.6-4.54l-7.64-2.38q.29-.93.57-1.86l7.67 2.29-.6 1.96zM7 225.39q-.3-1-.58-2l7.69-2.21q.27.93.55 1.87zm314.22-4.57l-7.72-2.09.5-1.88 7.75 2q-.31.98-.57 1.97zM5.29 219.47q-.26-1-.51-2l7.77-1.92q.23.94.48 1.88zm317.38-4.62l-7.79-1.8q.22-.95.42-1.9l7.82 1.7q-.22 1.01-.45 2.01zM3.85 213.49q-.22-1-.43-2l7.83-1.63q.2 1 .41 1.91zm320.09-4.65l-7.86-1.5q.18-1 .35-1.91l7.88 1.39q-.18 1.01-.37 2.02zm-321.3-1.38q-.18-1-.35-2l7.89-1.33q.16 1 .34 1.93zM325 202.78l-7.91-1.2q.15-1 .28-1.94l7.92 1.11q-.16 1.02-.29 2.03zM1.65 201.4q-.15-1-.28-2l7.93-1q.12 1 .26 1.93zm324.13-4.71l-7.95-.9q.11-1 .21-1.94l8 .81c-.11.67-.18 1.34-.26 2.03zM.9 195.3q-.11-1-.2-2l8-.74q.09 1 .19 1.94zm325.47-4.73l-8-.61q.07-1 .14-1.95l8 .52q-.07 1.02-.15 2.04zm-326-1.39q-.07-1-.12-2l8-.43q.05 1 .12 1.94zm326.34-4.75l-8-.31q0-1 .06-1.94l8 .21q-.02 1.02-.06 2.04zM.07 183v-2.05l8-.14v1.95zm326.76-4.75h-8v-2.2l8-.11v2.05zM8 176.94H0v-2.05l8 .11v1.94zm310.73-4.75q0-1-.08-1.94l8-.41c0 .68.06 1.37.09 2.06zM8.15 171.11l-8-.35q0-1 .1-2l8 .45q-.06.92-.1 1.9zm310.25-4.75q-.07-1-.16-1.95l8-.69q.09 1 .17 2zM8.51 165.27l-8-.64q.08-1 .18-2l8 .75q-.1.92-.18 1.89zm309.35-4.74q-.11-1-.23-1.94l7.94-1q.13 1 .24 2zM9.09 159.46l-7.94-.95q.12-1 .25-2l7.93 1-.24 1.95zm308-4.71q-.15-1-.3-1.93l7.9-1.28.32 2zm-307.2-1.08L2 152.42q.16-1 .33-2l7.88 1.35q-.21.94-.32 1.9zM316.12 149q-.18-1-.37-1.91l7.84-1.58q.2 1 .39 2zm-305.21-1.09l-7.85-1.55q.2-1 .41-2L11.3 146q-.2 1-.39 1.91zm304-4.66q-.22-.95-.45-1.89l7.77-1.89q.24 1 .47 2zM12.15 142.2l-7.79-1.84q.23-1 .48-2l7.76 1.94q-.23.95-.45 1.9zm301.37-4.62q-.25-.94-.52-1.87l7.7-2.18q.28 1 .55 2zm-299.92-1l-7.71-2.18q.27-1 .56-2l7.68 2.23q-.27.96-.53 1.9zM311.89 132q-.29-.94-.59-1.87l7.61-2.46q.32 1 .62 2zm-296.63-1l-7.63-2.41q.31-1 .63-2l7.59 2.52q-.29.89-.58 1.82zM310 126.4l-.66-1.84 7.51-2.75q.35 1 .7 1.93zm-292.91-1l-7.53-2.71q.35-1 .71-1.92l7.49 2.8q-.29.91-.62 1.82zM308 120.9q-.36-.91-.73-1.81l7.4-3q.39 1 .77 1.91zm-288.77-1l-7.42-3q.38-.94.77-1.88l7.42 3.12q-.42.86-.78 1.8zm286.51-4.44l-.8-1.79 7.28-3.31q.42.93.84 1.88zm-284.24-.89l-7.3-3.27.85-1.86 7.26 3.37q-.41.88-.81 1.76zm281.77-4.4q-.43-.88-.87-1.75l7.15-3.59.91 1.84zM24 109.3l-7.17-3.54.92-1.83 7.13 3.63zm276.61-4.3l-.93-1.71 7-3.86q.5.9 1 1.81zm-273.95-.83l-7-3.81 1-1.79 7 3.89zm271.09-4.28l-1-1.68 6.87-4.21 1 1.77zM29.54 99l-6.89-4 1.05-1.76 6.83 4.16zm265.17-4.21l-1.05-1.64 6.7-4.38 1.11 1.73zm-262.11-.7l-6.73-4.33L27 88l6.68 4.41zM291.48 90l-1.12-1.6 6.53-4.62 1.17 1.68zm-255.63-.76l-6.56-4.58L30.47 83 37 87.65zm252.22-4l-1.18-1.56 6.35-4.86 1.24 1.64zm-248.79-.73l-6.38-4.82 1.24-1.62L40.46 83zm245.21-3.93l-1.23-1.51 6.16-5.1 1.3 1.59zm-241.6-.67l-6.2-5.06L38 73.28l6.14 5.13zm237.84-3.81l-1.29-1.46 6-5.33 1.36 1.54zm-234.07-.64l-6-5.28L42 68.64 48 74zm230.15-3.7l-1.34-1.41 5.77-5.54 1.41 1.49zM50.6 71.14l-5.8-5.51 1.42-1.47L52 69.73zm222.13-3.58l-1.39-1.36 5.55-5.76 1.47 1.43zm-218-.6l-5.6-5.71 1.48-1.43 5.52 5.79zm213.77-3.43l-1.44-1.31 5.34-6 1.52 1.38zM59 63l-5.42-6 1.52-1.37 5.31 6zm205.16-3.3l-1.49-1.25 5.11-6.16 1.57 1.32zm-200.8-.59L58.2 53l1.58-1.32 5.07 6.19zM259.6 56l-1.54-1.2 4.88-6.34 1.62 1.26zm-191.69-.57L63 49.12l1.63-1.25 4.84 6.37zm187-3l-1.58-1.14 4.67-6.52 1.66 1.2zm-182.33-.51l-4.68-6.49 1.67-1.19 4.6 6.54zm177.59-2.84L248.55 48l4.39-6.69 1.7 1.13zm-172.77-.5L73 41.92l1.72-1.13L79 47.51zm167.87-2.68l-1.66-1 4.14-6.9 1.74 1.07zm-162.94-.47l-4.19-6.82 1.76-1.06 4.1 6.87zm157.92-2.51l-1.69-1 3.88-7 1.78 1zm-152.87-.46l-3.92-7 1.79-1 3.84 7zm147.76-2.33l-1.73-.89L237 32.1l1.82.93zm-142.61-.44l-3.64-7.12 1.83-.92 3.56 7.16zm137.39-2.16l-1.76-.82 3.34-7.27 1.85.86zM97.8 37.11l-3.38-7.25 1.87-.86 3.29 7.29zm126.81-2l-1.79-.75 3.06-7.36 1.88.79zm-121.45-.4l-3.1-7.37 1.9-.79L105 34zm116-1.8l-1.82-.69 2.77-7.5 1.92.72zm-110.6-.37l-2.81-7.49 1.92-.71 2.73 7.52zm105.1-1.62l-1.84-.62 2.48-7.6 2 .65zm-99.57-.34L111.6 23l2-.64L116 30zm94-1.44l-1.87-.55 2.2-7.69 2 .58zm-88.43-.3l-2.24-7.68 2-.56 2.15 7.71zm82.8-1.27l-1.89-.48 1.91-7.77 2 .5zm-77.16-.27l-1.95-7.76 2-.49 1.86 7.78zm71.47-1.09l-1.91-.4 1.67-7.81 2 .43zM131.05 26l-1.66-7.83 2-.41 1.61 7.85zm60-.92l-1.92-.33 1.32-7.89 2 .35zm-54.3-.19L135.43 17l2-.34 1.26 7.9zm48.53-.74l-1.93-.26 1-7.93 2 .27zM142.57 24l-1.06-7.93 2-.26 1 7.94zm36.94-.56l-1.94-.19.72-8 2 .2zm-31.14-.11l-.76-8 2-.18.67 8zm25.32-.33l-1.95-.11.42-8 2 .12zm-19.48-.07l-.46-8 2-.11.37 8zm13.64-.21h-1.95l.12-8h2zm-7.8 0l-.16-8h2l.07 8z" fill="url(#linear-gradient-4)"/><path d="M163.42 330c-83.79 0-151.95-68.17-151.95-152S79.63 26.1 163.42 26.1 315.36 94.26 315.36 178 247.2 330 163.42 330zm0-302.88C80.19 27.1 12.47 94.82 12.47 178s67.72 151 150.95 151 150.94-67.72 150.94-151S246.64 27.1 163.42 27.1z" fill="url(#linear-gradient-5)"/></svg>