<svg xmlns="http://www.w3.org/2000/svg" xmlns:xlink="http://www.w3.org/1999/xlink" viewBox="0 0 326.83 370.15"><defs><style>.cls-1{opacity:0.5;}.cls-2{fill:#205493;}.cls-3{fill:#112e51;}.cls-4{fill:url(#linear-gradient);}.cls-5{fill:#e31c3d;}.cls-6{fill:#00cfff;}.cls-7{fill:#9e191d;}.cls-8{opacity:0.28;}.cls-9{fill:#0071bc;}.cls-10{fill:url(#linear-gradient-2);}.cls-11{opacity:0.34;}.cls-12{mask:url(#mask);}.cls-13{mask:url(#mask-2);}.cls-14{fill:url(#linear-gradient-3);}.cls-15{fill:url(#linear-gradient-4);}.cls-16{fill:url(#linear-gradient-5);}.cls-17{filter:url(#luminosity-noclip-2);}.cls-18{filter:url(#luminosity-noclip);}</style><linearGradient id="linear-gradient" x1="278.27" y1="244.36" x2="48.56" y2="111.73" gradientUnits="userSpaceOnUse"><stop offset="0" stop-color="#e31c3d"/><stop offset="0.56" stop-color="#112e51"/></linearGradient><linearGradient id="linear-gradient-2" x1="19.4" y1="178.05" x2="307.43" y2="178.05" gradientUnits="userSpaceOnUse"><stop offset="0" stop-color="#0071bc"/><stop offset="1" stop-color="#00bfe7"/></linearGradient><filter id="luminosity-noclip" x="51.31" y="65.01" width="221.71" height="228.05" filterUnits="userSpaceOnUse" color-interpolation-filters="sRGB"><feFlood flood-color="#fff" result="bg"/><feBlend in="SourceGraphic" in2="bg"/></filter><mask id="mask" x="51.31" y="65.01" width="221.71" height="228.05" maskUnits="userSpaceOnUse"><g class="cls-18"><ellipse cx="260.63" cy="130.48" rx="5.76" ry="5.37"/><ellipse cx="250.38" cy="113.89" rx="5.76" ry="5.37"/><ellipse cx="237.34" cy="99.38" rx="5.76" ry="5.37"/><ellipse cx="222.31" cy="87.3" rx="5.76" ry="5.37"/><ellipse cx="154.52" cy="70.39" rx="9.68" ry="5.37"/><ellipse cx="100.59" cy="91.28" rx="9.68" ry="6.76"/><ellipse cx="148.5" cy="286.3" rx="9.68" ry="6.76"/><ellipse cx="186.44" cy="283.12" rx="9.68" ry="6.76"/><ellipse cx="231.58" cy="262.82" rx="9.68" ry="6.76"/><ellipse cx="77.71" cy="104.75" rx="9.68" ry="6.76"/><ellipse cx="60.99" cy="142.62" rx="9.68" ry="6.76"/></g></mask><filter id="luminosity-noclip-2" x="30.58" y="34.48" width="270.61" height="298.22" filterUnits="userSpaceOnUse" color-interpolation-filters="sRGB"><feFlood flood-color="#fff" result="bg"/><feBlend in="SourceGraphic" in2="bg"/></filter><mask id="mask-2" x="30.58" y="34.48" width="270.61" height="298.22" maskUnits="userSpaceOnUse"><g class="cls-17"><rect x="127.29" y="251.57" width="70.47" height="81.13"/><rect x="59.78" y="61.18" width="24.28" height="60.7" transform="translate(-43.66 77.67) rotate(-45)"/><rect x="33.21" y="193.24" width="27.12" height="23.09" transform="translate(-54.09 20.52) rotate(-15.83)"/><rect x="31.26" y="177.41" width="27.12" height="6.3"/><rect x="32.24" y="159.97" width="27.12" height="6.3"/><rect x="250.95" y="71.48" width="23.77" height="60.7" transform="translate(376.68 359.68) rotate(-135)"/><rect x="130.66" y="35.06" width="59.59" height="32.73" transform="translate(321.89 99.68) rotate(178.87)"/><rect x="231.46" y="51.34" width="7.97" height="60.7" transform="translate(344.17 305.94) rotate(-135)"/><rect x="272.92" y="92.8" width="7.97" height="60.7" transform="translate(385.63 406.03) rotate(-135)"/><rect x="228.4" y="228.28" width="51.6" height="60.7" transform="translate(-108.43 255.5) rotate(-45)"/></g></mask><linearGradient id="linear-gradient-3" x1="42.93" y1="178.05" x2="283.9" y2="178.05" gradientUnits="userSpaceOnUse"><stop offset="0" stop-color="#e31c3d"/><stop offset="1" stop-color="#112e51"/></linearGradient><linearGradient id="linear-gradient-4" x1="326.83" y1="178.05" x2="0" y2="178.05" gradientUnits="userSpaceOnUse"><stop offset="0" stop-color="#0071bc"/><stop offset="1" stop-color="#112e51"/></linearGradient><linearGradient id="linear-gradient-5" x1="315.36" y1="178.05" x2="11.47" y2="178.05" gradientUnits="userSpaceOnUse"><stop offset="0" stop-color="#112e51"/><stop offset="0.52" stop-color="#0071bc"/><stop offset="1" stop-color="#00bfe7"/></linearGradient></defs><title>new-playbook</title><g id="Layer_2" data-name="Layer 2"><g id="Layer_8" data-name="Layer 8"><g class="cls-1"><polygon class="cls-2" points="140.88 234.31 215.41 276.35 215.41 43.03 140.88 0 140.88 234.31"/></g><polygon class="cls-3" points="237.59 170.16 237.59 268.74 264.67 284.38 291.75 268.74 291.75 170.16 264.67 154.53 237.59 170.16"/><path class="cls-2" d="M264.67,288.67a4.29,4.29,0,0,1-2.15-.58l-27.08-15.64a4.29,4.29,0,0,1-2.15-3.72V170.16a4.29,4.29,0,0,1,2.15-3.72l27.08-15.64a4.29,4.29,0,0,1,4.29,0l27.08,15.64a4.29,4.29,0,0,1,2.15,3.72v98.58a4.29,4.29,0,0,1-2.15,3.72L266.82,288.1A4.29,4.29,0,0,1,264.67,288.67Zm-22.79-22.41,22.79,13.16,22.79-13.16V172.64l-22.79-13.16-22.79,13.16Z"/><polyline class="cls-3" points="237.59 170.7 264.67 186.34 291.75 170.7"/><path class="cls-2" d="M264.67,190.63a4.29,4.29,0,0,1-2.15-.58l-27.08-15.64a4.29,4.29,0,1,1,4.29-7.44l24.94,14.4L289.61,167a4.29,4.29,0,1,1,4.29,7.44l-27.08,15.64A4.29,4.29,0,0,1,264.67,190.63Z"/><line class="cls-3" x1="264.67" y1="284.38" x2="264.67" y2="186.34"/><path class="cls-2" d="M264.67,288.67a4.29,4.29,0,0,1-4.29-4.29v-98a4.29,4.29,0,1,1,8.59,0v98A4.29,4.29,0,0,1,264.67,288.67Z"/><path class="cls-4" d="M163.42,310.65h-.12V300.26h.85l0,10.38Zm-1.95,0-.88,0,.21-10.38.85,0Zm4.52,0-.21-10.38.85,0,.25,10.38Zm-7.2-.05-.9,0,.42-10.37.83,0Zm9.91,0-.42-10.37.85,0,.46,10.37Zm-12.6-.1-.9-.05.63-10.36.83,0Zm15.31,0L170.76,300l.85-.05.67,10.36Zm-18-.14-.9-.07.84-10.35.83.06Zm20.7-.05-.84-10.35.83-.07.91,10.34ZM150.7,310l-.9-.09,1.05-10.33.83.08Zm26.08-.06-1-10.33.81-.08,1.12,10.32ZM148,309.76l-.9-.11,1.27-10.3.82.1Zm31.45-.08-1.23-10.31.8-.1,1.34,10.29Zm-34.14-.26-.89-.12L145.9,299l.82.12Zm36.82-.09-1.44-10.28.8-.12,1.55,10.26Zm-39.5-.3-.89-.14,1.68-10.24.82.13Zm42.17-.1-1.65-10.25.8-.13,1.76,10.23ZM140,308.58l-.89-.16L141,298.21l.82.15Zm47.51-.11-1.86-10.21.8-.15,2,10.19Zm-50.17-.39-.89-.18,2.11-10.16.81.17Zm52.82-.13-2.07-10.17.8-.17L191,307.76Zm-55.45-.43-.9-.2,2.32-10.12.79.18Zm58.1-.14-2.28-10.13.79-.18,2.38,10.1ZM132,306.91l-.89-.22,2.53-10.07.79.19Zm63.37-.16-2.49-10.08.79-.2,2.59,10.05Zm-66-.51-.89-.24,2.74-10,.78.21Zm68.61-.17-2.7-10,.8-.22,2.77,10Zm-71.24-.56-.85-.25,2.91-10,.82.24Zm73.85-.18-2.91-10,.79-.24,3,9.94Zm-76.45-.59-.84-.26,3.13-9.9.81.25Zm79-.19-3.11-9.9.8-.25,3.18,9.88Zm-81.6-.63-.86-.29,3.34-9.83.78.26Zm84.18-.21-3.32-9.83.79-.27,3.39,9.81Zm-86.73-.66-.87-.31,3.54-9.76.76.27Zm89.3-.23-3.53-9.76.8-.29,3.56,9.75Zm-91.85-.7-.84-.32,3.72-9.69.78.3Zm94.38-.24-3.71-9.7.77-.3,3.8,9.66ZM114,301.14l-.83-.34,3.93-9.61.77.31Zm99.44-.26-3.92-9.61.78-.32,4,9.59Zm-101.93-.77-.82-.35,4.13-9.53.76.33ZM216,299.82l-4.13-9.52.78-.34,4.16,9.51ZM109.06,299l-.83-.38,4.33-9.43.74.34Zm109.37-.3-4.3-9.45.75-.34,4.39,9.41Zm-111.82-.83-.81-.39,4.52-9.35.74.36Zm114.28-.32-4.52-9.35.76-.37,4.56,9.33Zm-116.7-.85-.82-.41,4.71-9.25.72.36Zm119.12-.35-4.7-9.26.74-.38,4.77,9.22Zm-121.53-.88-.81-.43,4.89-9.15.72.38Zm123.92-.36L220.85,286l.71-.38,5,9.11ZM99.4,294.2l-.78-.43,5.07-9.06.73.41Zm128.7-.38L223,284.76l.73-.41,5.13,9Zm-131-.94-.78-.46,5.25-9,.71.41Zm133.38-.4-5.25-9,.71-.42,5.33,8.91Zm-135.71-1L94,291l5.46-8.83.7.43Zm138-.42-5.44-8.84.69-.43,5.53,8.79Zm-140.33-1-.76-.49,5.63-8.72.7.44Zm142.62-.44-5.61-8.73.69-.45,5.69,8.68Zm-144.88-1-.75-.5,5.8-8.61.69.46Zm147.14-.46-5.78-8.62.68-.46,5.86,8.57ZM88,287.1l-.75-.52,6-8.48.67.47Zm151.61-.48-6-8.49.68-.48,6,8.45ZM85.75,285.53,85,285l6.15-8.36.67.49Zm156-.5-6.13-8.37.67-.49,6.19,8.33ZM83.58,283.93l-.73-.55,6.33-8.23.65.5Zm160.36-.52-6.31-8.24.67-.51,6.35,8.21Zm-162.5-1.13-.7-.55,6.47-8.12.66.52Zm164.64-.54-6.49-8.1.66-.53,6.53,8.07ZM79.33,280.58l-.69-.57,6.64-8,.65.54ZM248.16,280l-6.64-8,.63-.53,6.7,7.93Zm-170.9-1.18-.69-.6,6.81-7.83L84,271Zm173-.57-6.79-7.85.63-.54,6.85,7.8Zm-175-1.21-.67-.6,7-7.7.62.55Zm177-.57-6.94-7.71.6-.55,7,7.65Zm-179-1.24-.67-.63,7.13-7.55.6.56Zm181-.61-7.13-7.55.61-.58,7.16,7.51Zm-183-1.27-.64-.62,7.27-7.41.6.59Zm184.94-.6-7.27-7.41.6-.59,7.3,7.38ZM69.33,271.49l-.63-.63,7.41-7.27.59.6Zm188.77-.61-7.41-7.27.59-.6,7.45,7.23ZM67.45,269.56l-.61-.65,7.55-7.13.58.61ZM260,268.93l-7.55-7.13.57-.6,7.6,7.07ZM65.61,267.59l-.61-.67,7.7-7,.56.61Zm196.2-.65-7.7-7,.55-.62,7.75,6.91Zm-198-1.38-.58-.66L71,258.08l.5.57-3.84,3.49Zm199.8-.64-7.83-6.81.54-.63,7.88,6.76ZM62,263.52l-.58-.69,8-6.64.53.63Zm203.31-.67-8-6.64.54-.65,8,6.6Zm-205-1.42-.56-.7,8.1-6.49.53.66Zm206.75-.68-8.12-6.47.52-.66,8.15,6.43ZM58.63,259.31l-.54-.71,8.24-6.31.51.67Zm210.09-.66-8.23-6.33.5-.65,8.29,6.25ZM57,257.17l-.54-.74,8.38-6.13.49.66Zm213.34-.69L262,250.33l.48-.66,8.42,6.07ZM55.4,255l-.52-.74,8.49-6,.48.68Zm216.52-.68-8.48-6,.48-.68,8.52,5.93ZM53.85,252.76l-.51-.76L62,246.22l.46.68Zm219.6-.7-8.61-5.8.47-.7,8.64,5.76ZM52.34,250.5l-.49-.76,8.73-5.61.45.69Zm222.59-.69-8.72-5.63.45-.7,8.76,5.57Zm-224-1.58-.49-.78L59.25,242l.43.69Zm225.48-.7-8.83-5.46.43-.7,8.87,5.39Zm-226.9-1.62-.46-.78L58,239.87l.42.71Zm228.29-.69-8.94-5.28.41-.7,9,5.18ZM48.11,243.57l-.45-.8,9.06-5.07.4.71Zm231-.7-9.06-5.07.41-.73,9.08,5ZM46.8,241.21l-.44-.81,9.16-4.89.39.72Zm233.61-.7-9.15-4.89.38-.72,9.2,4.81ZM45.53,238.82l-.42-.82,9.26-4.7.37.72Zm236.12-.69-9.25-4.71.36-.72,9.3,4.61ZM44.3,236.38l-.39-.81,9.35-4.52.37.75Zm238.55-.67-9.35-4.52.37-.76,9.36,4.49ZM43.14,233.94l-.39-.84,9.45-4.3.34.74ZM284,233.27l-9.43-4.33.34-.74,9.47,4.24ZM42,231.45l-.35-.81,9.52-4.13.34.78Zm243.09-.64-9.53-4.13.33-.77,9.54,4.08ZM41,229l-.35-.85,9.61-3.92.31.75Zm245.2-.66-9.61-3.93.31-.77,9.63,3.87ZM39.93,226.46l-.33-.85,9.68-3.74.3.77Zm247.21-.64-9.68-3.75.29-.76,9.71,3.66ZM39,223.9l-.3-.83,9.76-3.53.29.8Zm249.14-.62-9.76-3.54.28-.78,9.78,3.47ZM38,221.35l-.29-.85,9.83-3.32.27.79ZM289,220.72l-9.83-3.34.26-.78,9.86,3.26Zm-251.8-1.94-.28-.88,9.9-3.11.25.78Zm252.65-.64-9.9-3.12.25-.81,9.91,3.09Zm-253.46-2-.26-.87,10-2.91.24.79Zm254.24-.62-10-2.94.23-.78,10,2.85Zm-255-2-.24-.89,10-2.7.21.78ZM291.37,213l-10-2.74.21-.78,10,2.63ZM34.94,211l-.23-.89,10.08-2.49.2.79Zm257.11-.64L282,207.82l.19-.79,10.09,2.43Zm-257.76-2-.21-.9,10.13-2.28.18.79Zm258.39-.64-10.12-2.32.18-.81,10.13,2.25Zm-259-2-.19-.9,10.17-2.07.17.79Zm259.55-.64L283.09,203l.17-.81,10.18,2Zm-260.08-2-.17-.91,10.21-1.86.15.8Zm260.61-.65-10.21-1.89.15-.82,10.22,1.83Zm-261.09-2-.15-.89,10.24-1.68.14.82Zm261.55-.65L284,198.07l.13-.82,10.25,1.62Zm-262-2-.13-.88,10.28-1.47.12.84Zm262.4-.63-10.28-1.47.12-.82,10.29,1.4ZM31.89,195l-.11-.88,10.3-1.26.11.84ZM295,194.4l-10.3-1.27.1-.82,10.31,1.19ZM31.58,192.34l-.09-.88,10.33-1.05.09.84Zm263.74-.63L285,190.65l.08-.83,10.33,1Zm-264-2.05-.07-.88,10.35-.84.07.84ZM295.57,189l-10.35-.84.06-.83,10.35.77ZM31.11,187l-.06-.88,10.36-.63.05.85Zm264.65-.64-10.36-.63,0-.85,10.36.6ZM31,184.26l0-.88L41.29,183l0,.85Zm264.94-.64-10.37-.42,0-.84,10.37.39Zm-265-2.06,0-.88,10.38-.21,0,.85ZM296,180.92l-10.38-.21,0-.85L296,180ZM30.82,178.85V178L41.2,178v.85Zm265.2-.63H285.63v-1l10.38-.07ZM41.21,176.3l-10.38-.14v-.9l10.38.21Zm244.4-.75,0-.83,10.38-.28,0,.9ZM41.27,173.82l-10.38-.35,0-.9L41.3,173Zm244.27-.76,0-.83,10.37-.49,0,.9ZM41.38,171.33,31,170.77l.05-.9,10.36.63Zm244-.76-.05-.85,10.36-.67.06.88ZM41.54,168.84l-10.35-.77.07-.9L41.6,168Zm243.7-.76-.07-.84,10.34-.88.07.88ZM41.75,166.35l-10.33-1,.09-.9,10.33,1.05ZM285,165.6l-.09-.84,10.32-1.09.09.88ZM42,163.88l-10.31-1.19.11-.9,10.3,1.27Zm242.73-.75-.11-.84,10.3-1.3.11.88ZM42.32,161.4,32,160l.13-.89,10.28,1.47Zm242.09-.75-.12-.84,10.27-1.51.13.88ZM42.68,158.92l-10.26-1.58.15-.91,10.24,1.68ZM284,158.19l-.14-.83,10.24-1.72.15.87ZM43.09,156.46l-10.22-1.79.16-.9,10.21,1.89Zm240.51-.73-.16-.83,10.2-1.93.16.87ZM43.56,154l-10.19-2,.18-.9,10.16,2.11Zm239.57-.73-.17-.83,10.16-2.14.18.87ZM44.07,151.57l-10.14-2.21.2-.9,10.12,2.32Zm238.53-.72-.19-.83,10.11-2.35.2.86Zm-238-1.7-10.09-2.43.22-.89,10.07,2.53ZM282,148.41l-.2-.79,10-2.6.23.89ZM45.24,146.73l-10-2.63.23-.87,10,2.71ZM281.39,146l-.21-.78,10-2.8.24.89ZM45.9,144.35l-10-2.88.25-.85,10,2.91Zm234.82-.75-.23-.78,9.93-3,.26.88Zm-234.1-1.66-9.92-3.05L37,138l9.9,3.13ZM280,141.21l-.25-.78,9.87-3.21.28.88ZM47.37,139.58l-9.86-3.26.29-.86,9.83,3.34Zm231.84-.74-.27-.78,9.8-3.42.3.87Zm-231-1.63-9.79-3.44.31-.87,9.76,3.54Zm230.2-.73-.29-.79,9.74-3.6.31.85ZM49,134.89l-9.7-3.69.31-.82,9.69,3.72Zm228.48-.75-.31-.79,9.67-3.78.32.83ZM49.94,132.56l-9.63-3.87.34-.83,9.61,3.93Zm226.65-.75-.31-.75,9.57-4,.35.85Zm-225.7-1.54-9.55-4.07.35-.82,9.53,4.13Zm224.73-.76-.34-.77,9.5-4.19.36.83ZM51.89,128l-9.47-4.24.38-.83,9.43,4.33Zm222.71-.75-.35-.75,9.4-4.4.38.82Zm-221.68-1.5-9.38-4.44.39-.81L53.28,125ZM273.54,125l-.36-.74,9.3-4.6.4.82ZM54,123.48l-9.3-4.61.41-.81,9.26,4.68Zm218.41-.77-.37-.72,9.21-4.79.42.82ZM55.16,121.26l-9.21-4.78.43-.82,9.15,4.89Zm216.12-.75-.4-.74,9.13-4.95.42.79ZM56.33,119.09l-9.09-5,.44-.79,9.06,5.07Zm213.75-.78-.41-.72,9-5.15.45.79Zm-212.52-1.4-9-5.17L49,111l9,5.25Zm211.27-.77-.42-.7,8.89-5.36.47.79Zm-210-1.35-8.87-5.39.47-.77,8.83,5.46ZM267.53,114l-.43-.69,8.79-5.53.49.78ZM60.12,112.68l-8.77-5.56.49-.76L60.57,112Zm206.08-.78-.46-.71,8.69-5.68.49.75ZM61.48,110.59l-8.65-5.73.5-.75,8.61,5.8Zm203.35-.78-.47-.69,8.57-5.86.51.75Zm-202-1.29-8.54-5.9.52-.75,8.48,6Zm200.54-.78-.48-.68,8.45-6,.52.74ZM64.31,106.5l-8.41-6.09.53-.73,8.36,6.15ZM262,105.72l-.49-.66,8.32-6.21.54.74ZM65.79,104.5l-8.29-6.25.54-.72,8.24,6.31Zm194.66-.76-.51-.67,8.21-6.35.54.71ZM67.3,102.54l-8.13-6.45.54-.69,8.12,6.47Zm191.62-.77-.54-.67,8.09-6.51.55.68ZM68.86,100.59l-8-6.6.57-.69,8,6.64Zm188.48-.76-.53-.63,7.93-6.7.58.69ZM70.47,98.67l-7.9-6.74.59-.68L71,98Zm185.25-.73-.55-.63,7.8-6.85.59.67ZM72.11,96.8l-7.75-6.91.6-.67,7.7,7Zm182-.73-.56-.61,7.65-7,.61.67ZM73.79,95,66.17,87.9l.62-.66,7.56,7.11Zm178.6-.71-.56-.59,7.5-7.17.6.64ZM75.5,93.14,68,85.94l.64-.66,7.41,7.27Zm175.14-.69-.59-.6,7.37-7.3.63.63ZM77.24,91.37,69.94,84l.63-.63,7.27,7.41Zm171.64-.7-.59-.57,7.2-7.48.66.64ZM79,89.63l-7.16-7.51.65-.61,7.13,7.55ZM247.09,89l-.61-.57,7.05-7.62.66.62Zm-166.23-1-7-7.65.67-.61,7,7.7Zm164.39-.66-.62-.55L251.54,79l.67.6Zm-162.54-1-6.85-7.8.67-.59,6.81,7.83Zm160.68-.64-.63-.54,6.74-7.9.68.59Zm-158.79-1L77.9,76.7l.69-.58,6.64,8ZM241.48,84l-.64-.53,6.58-8,.7.58Zm-155-1L80,75l.69-.56,6.49,8.1Zm153-.61-.66-.52,6.43-8.15.7.55ZM88.47,81.49l-6.35-8.21.71-.54L89.13,81Zm149.13-.59-.67-.51,6.25-8.29.71.54ZM90.47,80l-6.21-8.32.74-.54,6.13,8.38Zm145.13-.57-.67-.49L241,70.51l.73.53ZM92.49,78.5l-6-8.44.75-.53,6,8.49ZM233.58,78l-.68-.47,5.9-8.54.74.52Zm-139-.88-5.86-8.57.76-.51,5.78,8.62Zm137-.53-.68-.45,5.72-8.66.76.51ZM96.6,75.69,90.92,67l.76-.49,5.61,8.73Zm132.84-.51-.7-.44L234.31,66l.76.49ZM98.72,74.34l-5.53-8.79.78-.49,5.44,8.84Zm128.63-.48-.71-.43L232,64.54l.77.47ZM100.85,73,95.5,64.14l.79-.47,5.26,8.95Zm124.36-.46-.72-.42,5.2-9,.78.45ZM103,71.78l-5.15-9,.79-.45,5.09,9Zm120.05-.44-.72-.4,5-9.09.79.44Zm-117.88-.77-4.95-9.12L101,61l4.91,9.15Zm115.7-.42-.71-.38,4.8-9.21.81.43ZM107.4,69.39l-4.79-9.21.82-.42,4.7,9.26ZM218.68,69l-.74-.37,4.61-9.3.81.41Zm-109.05-.73L105,59l.82-.4,4.52,9.35Zm106.81-.37-.74-.36,4.44-9.38.81.39Zm-104.56-.71-4.4-9.4.84-.39,4.3,9.45Zm102.33-.35-.76-.34L217.69,57l.81.37Zm-100.06-.68L110,56.66l.83-.36,4.13,9.52Zm97.78-.33-.76-.33L215.23,56l.82.35Zm-95.47-.66-4-9.57.85-.35,3.92,9.61Zm93.18-.3-.77-.31,3.87-9.63.83.34Zm-90.88-.63L115,54.57l.83-.32,3.74,9.68Zm88.57-.29-.79-.3,3.68-9.71.83.32Zm-86.23-.6-3.6-9.74.85-.31,3.53,9.76ZM205,63.07l-.76-.27L207.66,53l.87.31Zm-81.53-.57-3.39-9.81.85-.29,3.32,9.83Zm79.18-.26-.77-.26,3.23-9.87.87.29Zm-76.79-.54-3.21-9.87.88-.28,3.11,9.9Zm74.43-.23-.79-.25,3.05-9.92.86.27Zm-72-.51-3-9.94.87-.26,2.91,10Zm69.67-.21-.82-.24,2.88-10,.85.25Zm-67.26-.48-2.8-10,.89-.24,2.7,10Zm64.87-.2-.82-.22,2.67-10,.86.23ZM133,59.63l-2.6-10,.89-.23,2.49,10.08Zm60-.18-.81-.2,2.43-10.09.87.21ZM135.45,59l-2.38-10.1.9-.21,2.28,10.13Zm55.19-.17-.79-.18,2.21-10.14.9.2Zm-52.76-.37L135.7,48.35l.88-.19,2.1,10.17Zm50.32-.16-.79-.16,2-10.19.9.18ZM140.31,58l-1.93-10.2.87-.16,1.89,10.21Zm45.45-.14-.8-.15,1.79-10.22.9.16Zm-43-.3L141,47.33l.87-.15,1.68,10.24Zm40.54-.13-.8-.13L184.08,47l.91.15Zm-38.08-.27L143.71,46.9l.88-.13L146.06,57Zm35.62-.11-.81-.11,1.37-10.29.91.13Zm-33.15-.23-1.3-10.3.88-.11,1.26,10.3Zm30.68-.1-.81-.09,1.16-10.32.91.11Zm-28.21-.2-1.09-10.32.88-.09L151,56.45Zm25.73-.08-.81-.08L176,46l.92.09Zm-23.25-.16-.88-10.34.88-.07.84,10.35Zm20.77-.07-.83-.06.77-10.35.9.07Zm-18.28-.13-.67-10.36.88-.06L156,56Zm15.79,0-.83,0,.56-10.37.9.05ZM157.62,56l-.46-10.37.88,0,.42,10.37Zm10.81,0-.83,0L168,45.52l.9,0Zm-8.32-.06-.25-10.38.88,0L161,55.85Zm5.83,0h-.83l.14-10.38h.9Zm-3.32,0-.07-10.38h.86l0,10.38Z"/><g class="cls-1"><polygon class="cls-5" points="262.12 237.58 235.03 252.86 235.03 78.8 262.12 63.16 262.12 237.58"/></g><g class="cls-1"><polygon class="cls-5" points="70.82 250.43 53.86 260 53.86 150.99 70.82 141.2 70.82 250.43"/></g><g class="cls-1"><polygon class="cls-6" points="96.84 300.64 167.1 340.27 167.1 137.29 96.84 96.72 96.84 300.64"/></g><polygon class="cls-3" points="42.67 133.38 42.67 196.19 69.75 211.82 96.84 196.19 96.84 133.38 69.75 117.74 42.67 133.38"/><path class="cls-2" d="M69.75,216.12a4.29,4.29,0,0,1-2.15-.58L40.52,199.9a4.29,4.29,0,0,1-2.15-3.72V133.38a4.29,4.29,0,0,1,2.15-3.72L67.61,114a4.29,4.29,0,0,1,4.29,0L99,129.66a4.29,4.29,0,0,1,2.15,3.72v62.81A4.29,4.29,0,0,1,99,199.9L71.9,215.54A4.29,4.29,0,0,1,69.75,216.12ZM47,193.71l22.79,13.16,22.79-13.16V135.86L69.75,122.7,47,135.86Z"/><polyline class="cls-3" points="42.67 133.92 69.75 149.55 96.84 133.92"/><path class="cls-2" d="M69.75,153.85a4.29,4.29,0,0,1-2.15-.58L40.52,137.63a4.29,4.29,0,1,1,4.29-7.44l24.94,14.4,24.94-14.4A4.29,4.29,0,0,1,99,137.63L71.9,153.27A4.29,4.29,0,0,1,69.75,153.85Z"/><line class="cls-3" x1="69.75" y1="206.82" x2="69.75" y2="149.55"/><path class="cls-2" d="M69.75,211.12a4.29,4.29,0,0,1-4.29-4.29V149.55a4.29,4.29,0,1,1,8.59,0v57.27A4.29,4.29,0,0,1,69.75,211.12Z"/><g class="cls-1"><polygon class="cls-7" points="194.41 288.71 264.67 328.35 264.67 172.76 194.41 132.2 194.41 288.71"/></g><polygon class="cls-3" points="140.33 46.3 140.33 213.55 167.41 229.19 194.5 213.55 194.5 46.3 167.41 30.66 140.33 46.3"/><path class="cls-7" d="M167.42,233.48a4.29,4.29,0,0,1-2.15-.58l-27.08-15.64a4.29,4.29,0,0,1-2.15-3.72V46.3a4.29,4.29,0,0,1,2.15-3.72l27.08-15.64a4.29,4.29,0,0,1,4.29,0l27.08,15.64a4.29,4.29,0,0,1,2.15,3.72V213.55a4.29,4.29,0,0,1-2.15,3.72l-27.08,15.64A4.29,4.29,0,0,1,167.42,233.48Zm-22.79-22.41,22.79,13.16,22.79-13.16V48.77L167.42,35.62,144.63,48.77Z"/><polyline class="cls-3" points="140.33 46.83 167.41 62.47 194.5 46.83"/><path class="cls-7" d="M167.42,66.76a4.29,4.29,0,0,1-2.15-.58L138.19,50.55a4.29,4.29,0,1,1,4.29-7.44l24.94,14.4,24.94-14.4a4.29,4.29,0,1,1,4.29,7.44L169.56,66.19A4.29,4.29,0,0,1,167.42,66.76Z"/><line class="cls-3" x1="167.41" y1="229.19" x2="167.41" y2="62.47"/><path class="cls-7" d="M167.42,233.48a4.29,4.29,0,0,1-4.29-4.29V62.47a4.29,4.29,0,0,1,8.59,0V229.19A4.29,4.29,0,0,1,167.42,233.48Z"/><polygon class="cls-3" points="194.41 137.64 194.41 233.72 221.49 249.36 248.57 233.72 248.57 137.64 221.49 122 194.41 137.64"/><path class="cls-6" d="M221.49,253.65a4.29,4.29,0,0,1-2.15-.58l-27.08-15.64a4.29,4.29,0,0,1-2.15-3.72V137.64a4.29,4.29,0,0,1,2.15-3.72l27.08-15.64a4.29,4.29,0,0,1,4.29,0l27.08,15.64a4.29,4.29,0,0,1,2.15,3.72v96.09a4.29,4.29,0,0,1-2.15,3.72l-27.08,15.64A4.29,4.29,0,0,1,221.49,253.65ZM198.7,231.25l22.79,13.16,22.79-13.16V140.12L221.49,127,198.7,140.12Z"/><polyline class="cls-3" points="194.41 138.18 221.49 153.81 248.57 138.18"/><path class="cls-6" d="M221.49,158.1a4.29,4.29,0,0,1-2.15-.58l-27.08-15.64a4.29,4.29,0,0,1,4.29-7.44l24.94,14.4,24.94-14.4a4.29,4.29,0,0,1,4.29,7.44l-27.08,15.64A4.29,4.29,0,0,1,221.49,158.1Z"/><line class="cls-3" x1="221.49" y1="249.36" x2="221.49" y2="153.81"/><path class="cls-6" d="M221.49,253.65a4.29,4.29,0,0,1-4.29-4.29V153.81a4.29,4.29,0,0,1,8.59,0v95.55A4.29,4.29,0,0,1,221.49,253.65Z"/><g class="cls-8"><polygon class="cls-9" points="208.58 354.87 181.5 370.15 181.5 196.09 208.58 180.45 208.58 354.87"/></g><polygon class="cls-3" points="167.41 94.06 167.41 190.15 194.5 205.78 221.58 190.15 221.58 94.06 194.5 78.42 167.41 94.06"/><path class="cls-9" d="M194.5,210.08a4.29,4.29,0,0,1-2.15-.58l-27.08-15.64a4.29,4.29,0,0,1-2.15-3.72V94.06a4.29,4.29,0,0,1,2.15-3.72l27.08-15.64a4.29,4.29,0,0,1,4.29,0l27.08,15.64a4.29,4.29,0,0,1,2.15,3.72v96.09a4.29,4.29,0,0,1-2.15,3.72L196.64,209.5A4.29,4.29,0,0,1,194.5,210.08Zm-22.79-22.41,22.79,13.16,22.79-13.16V96.54L194.5,83.38,171.71,96.54Z"/><polyline class="cls-3" points="167.41 94.6 194.5 110.23 221.58 94.6"/><path class="cls-9" d="M194.5,114.53a4.29,4.29,0,0,1-2.15-.58L165.27,98.32a4.29,4.29,0,1,1,4.29-7.44l24.94,14.4,24.94-14.4a4.29,4.29,0,1,1,4.29,7.44L196.64,114A4.29,4.29,0,0,1,194.5,114.53Z"/><line class="cls-3" x1="194.5" y1="205.78" x2="194.5" y2="110.23"/><path class="cls-9" d="M194.5,210.08a4.29,4.29,0,0,1-4.29-4.29V110.23a4.29,4.29,0,1,1,8.59,0v95.55A4.29,4.29,0,0,1,194.5,210.08Z"/><polygon class="cls-3" points="86.17 187.41 86.17 273.13 113.25 288.77 140.33 273.13 140.33 187.41 113.25 171.78 86.17 187.41"/><path class="cls-9" d="M113.25,293.06a4.29,4.29,0,0,1-2.15-.58L84,276.85a4.29,4.29,0,0,1-2.15-3.72V187.41A4.29,4.29,0,0,1,84,183.69l27.08-15.64a4.29,4.29,0,0,1,4.29,0l27.08,15.64a4.29,4.29,0,0,1,2.15,3.72v85.72a4.29,4.29,0,0,1-2.15,3.72L115.4,292.49A4.29,4.29,0,0,1,113.25,293.06ZM90.46,270.65l22.79,13.16L136,270.65V189.89l-22.79-13.16L90.46,189.89Z"/><polyline class="cls-3" points="86.17 187.95 113.25 203.59 140.33 187.95"/><path class="cls-9" d="M113.25,207.88a4.29,4.29,0,0,1-2.15-.58L84,191.67a4.29,4.29,0,0,1,4.29-7.44l24.94,14.4,24.94-14.4a4.29,4.29,0,0,1,4.29,7.44L115.4,207.3A4.29,4.29,0,0,1,113.25,207.88Z"/><line class="cls-3" x1="113.25" y1="288.77" x2="113.25" y2="203.59"/><path class="cls-9" d="M113.25,293.06a4.29,4.29,0,0,1-4.29-4.29V203.59a4.29,4.29,0,1,1,8.59,0v85.18A4.29,4.29,0,0,1,113.25,293.06Z"/><path class="cls-10" d="M181.41,318.95a2,2,0,0,1,1.7-2.26h0a2,2,0,0,1,2.26,1.7h0a2,2,0,0,1-1.7,2.26h0a1.35,1.35,0,0,1-.28,0h0A2,2,0,0,1,181.41,318.95Zm-38.72,1.64a2,2,0,0,1-1.69-2.27h0a2,2,0,0,1,2.26-1.69h0a2,2,0,0,1,1.7,2.26h0a2,2,0,0,1-2,1.72h0Zm77.68-12.39a2,2,0,0,1,1-2.65h0a2,2,0,0,1,2.64,1h0a2,2,0,0,1-1,2.65h0a2,2,0,0,1-.82.18h0A2,2,0,0,1,220.37,308.2Zm-117,.8a2,2,0,0,1-1-2.65h0a2,2,0,0,1,2.65-1h0a2,2,0,0,1,1,2.65h0a2,2,0,0,1-1.81,1.17h0A2.08,2.08,0,0,1,103.38,309ZM254.7,286.86a2,2,0,0,1,.21-2.82h0a2,2,0,0,1,2.82.21h0a2,2,0,0,1-.2,2.82h0a2,2,0,0,1-1.31.48h0A2,2,0,0,1,254.7,286.86Zm-185.75-.1h0a2,2,0,0,1-.19-2.83h0a2,2,0,0,1,2.82-.19h0a2,2,0,0,1,.2,2.82h0a2,2,0,0,1-1.51.68h0A2,2,0,0,1,68.95,286.76Zm212.72-30a2,2,0,0,1-.59-2.77h0a2,2,0,0,1,2.76-.59h0a2,2,0,0,1,.6,2.76h0a2,2,0,0,1-1.69.92h0A2.05,2.05,0,0,1,281.67,256.75Zm-239.53-1a2,2,0,0,1,.6-2.76h0a2,2,0,0,1,2.77.6h0a2,2,0,0,1-.6,2.76h0a2,2,0,0,1-1.08.32h0A2,2,0,0,1,42.14,255.76Zm256.93-35.5a2,2,0,0,1-1.35-2.48h0a2,2,0,0,1,2.48-1.35h0a2,2,0,0,1,1.36,2.48h0a2,2,0,0,1-1.92,1.44h0A1.9,1.9,0,0,1,299.07,220.26Zm-273.92-1.8A2,2,0,0,1,26.51,216h0A2,2,0,0,1,29,217.35h0a2,2,0,0,1-1.35,2.48h0a1.85,1.85,0,0,1-.57.08h0A2,2,0,0,1,25.15,218.46Zm278.28-40.11c0-.06,0-.11,0-.17h0V178h0a2,2,0,0,1,2-2h0a2,2,0,0,1,2,2h0v.15h0a.88.88,0,0,1,0,.16h0a2,2,0,0,1-2,2h0A2,2,0,0,1,303.43,178.35Zm-284-.46a2,2,0,0,1,2-2h0a2,2,0,0,1,2,2h0a2,2,0,0,1-2,2h0A2,2,0,0,1,19.4,177.89Zm278.4-39.28a2,2,0,0,1,1.36-2.48h0a2,2,0,0,1,2.48,1.35h0a2,2,0,0,1-1.35,2.48h0a1.85,1.85,0,0,1-.57.08h0A2,2,0,0,1,297.8,138.61Zm-271.21,1.2a2,2,0,0,1-1.36-2.48h0A2,2,0,0,1,27.72,136h0a2,2,0,0,1,1.35,2.48h0a2,2,0,0,1-1.92,1.43h0A1.82,1.82,0,0,1,26.59,139.81Zm254.65-37.44a2,2,0,0,1,.6-2.77h0a2,2,0,0,1,2.76.6h0A2,2,0,0,1,284,103h0a2,2,0,0,1-1.08.32h0A2,2,0,0,1,281.24,102.37Zm-238.33.47a2,2,0,0,1-.6-2.77h0a2,2,0,0,1,2.77-.59h0a2,2,0,0,1,.59,2.76h0a2,2,0,0,1-1.68.92h0A2,2,0,0,1,42.91,102.84ZM255.14,72.25a2,2,0,0,1-.2-2.82h0a2,2,0,0,1,2.82-.2h0A2,2,0,0,1,258,72h0a2,2,0,0,1-1.51.69h0A2,2,0,0,1,255.14,72.25ZM69,71.95a2,2,0,0,1,.21-2.82h0a2,2,0,0,1,2.82.2h0a2,2,0,0,1-.2,2.82h0a2,2,0,0,1-1.31.49h0A2,2,0,0,1,69,71.95ZM221.64,50.67a2,2,0,0,1-1-2.65h0a2,2,0,0,1,2.65-1h0a2,2,0,0,1,1,2.65h0a2,2,0,0,1-1.82,1.17h0A2.07,2.07,0,0,1,221.64,50.67Zm-119-1a2,2,0,0,1,1-2.65h0a2,2,0,0,1,2.65,1h0a2,2,0,0,1-1,2.65h0a2,2,0,0,1-.83.18h0A2,2,0,0,1,102.68,49.62Zm80.74-10.17a2,2,0,0,1-1.7-2.27h0A2,2,0,0,1,184,35.49h0a2,2,0,0,1,1.69,2.26h0a2,2,0,0,1-2,1.72h0Zm-42.11-1.73a2,2,0,0,1,1.7-2.26h0a2,2,0,0,1,2.26,1.7h0a2,2,0,0,1-1.7,2.26h0a1.33,1.33,0,0,1-.28,0h0A2,2,0,0,1,141.31,37.72Z"/><polygon class="cls-3" points="113.25 121.57 113.25 341.83 140.33 357.47 167.41 341.83 167.41 121.57 140.33 105.93 113.25 121.57"/><path class="cls-6" d="M140.33,361.76a4.29,4.29,0,0,1-2.15-.58L111.1,345.55a4.29,4.29,0,0,1-2.15-3.72V121.57a4.29,4.29,0,0,1,2.15-3.72l27.08-15.64a4.29,4.29,0,0,1,4.29,0l27.08,15.64a4.29,4.29,0,0,1,2.15,3.72V341.83a4.29,4.29,0,0,1-2.15,3.72l-27.08,15.64A4.29,4.29,0,0,1,140.33,361.76Zm-22.79-22.41,22.79,13.16,22.79-13.16V124l-22.79-13.16L117.54,124Z"/><polyline class="cls-3" points="113.25 122.11 140.33 137.74 167.41 122.11"/><path class="cls-6" d="M140.33,142a4.29,4.29,0,0,1-2.15-.58L111.1,125.82a4.29,4.29,0,1,1,4.29-7.44l24.94,14.4,24.94-14.4a4.29,4.29,0,1,1,4.29,7.44l-27.08,15.64A4.29,4.29,0,0,1,140.33,142Z"/><line class="cls-3" x1="140.33" y1="357.47" x2="140.33" y2="137.74"/><path class="cls-6" d="M140.33,361.76a4.29,4.29,0,0,1-4.29-4.29V137.74a4.29,4.29,0,1,1,8.59,0V357.47A4.29,4.29,0,0,1,140.33,361.76Z"/><g class="cls-11"><polygon class="cls-5" points="153.75 297.76 99.58 328.31 99.58 208.75 153.75 177.47 153.75 297.76"/></g><polygon class="cls-3" points="140.33 169.51 140.33 304.46 167.41 320.1 194.5 304.46 194.5 169.51 167.41 153.87 140.33 169.51"/><path class="cls-5" d="M167.42,324.39a4.29,4.29,0,0,1-2.15-.58l-27.08-15.64a4.29,4.29,0,0,1-2.15-3.72v-135a4.29,4.29,0,0,1,2.15-3.72l27.08-15.64a4.29,4.29,0,0,1,4.29,0l27.08,15.64a4.29,4.29,0,0,1,2.15,3.72v135a4.29,4.29,0,0,1-2.15,3.72l-27.08,15.64A4.29,4.29,0,0,1,167.42,324.39ZM144.63,302l22.79,13.16L190.2,302V172l-22.79-13.16L144.63,172Z"/><polyline class="cls-3" points="140.33 170.04 167.41 185.68 194.5 170.04"/><path class="cls-5" d="M167.42,190a4.29,4.29,0,0,1-2.15-.58l-27.08-15.64a4.29,4.29,0,0,1,4.29-7.44l24.94,14.4,24.94-14.4a4.29,4.29,0,1,1,4.29,7.44L169.56,189.4A4.29,4.29,0,0,1,167.42,190Z"/><line class="cls-3" x1="167.41" y1="320.1" x2="167.41" y2="185.68"/><path class="cls-5" d="M167.42,324.39a4.29,4.29,0,0,1-4.29-4.29V185.68a4.29,4.29,0,0,1,8.59,0V320.1A4.29,4.29,0,0,1,167.42,324.39Z"/><g class="cls-12"><path class="cls-6" d="M163.29,287.68h-.13a1.19,1.19,0,0,1-1.19-1.19h0a1.19,1.19,0,0,1,1.19-1.19h.26a1.19,1.19,0,0,1,1.19,1.19h0a1.2,1.2,0,0,1-1.19,1.2h-.13Zm8.52-1.5a1.2,1.2,0,0,1,1.08-1.3h0a1.21,1.21,0,0,1,1.3,1.09h0a1.2,1.2,0,0,1-1.09,1.29H173A1.19,1.19,0,0,1,171.81,286.18Zm-18.34,1.06a1.2,1.2,0,0,1-1.08-1.3h0a1.2,1.2,0,0,1,1.3-1.08h0a1.2,1.2,0,0,1,1.08,1.3h0a1.2,1.2,0,0,1-1.19,1.09h-.11ZM181.33,285a1.19,1.19,0,0,1,1-1.39h0a1.19,1.19,0,0,1,1.39,1h0a1.19,1.19,0,0,1-1,1.38h0l-.21,0h0A1.2,1.2,0,0,1,181.33,285Zm-37.46.92a1.2,1.2,0,0,1-1-1.39h0a1.19,1.19,0,0,1,1.39-1h0a1.18,1.18,0,0,1,1,1.39h0a1.19,1.19,0,0,1-1.17,1h-.21ZM190.71,283a1.19,1.19,0,0,1,.84-1.46h0a1.2,1.2,0,0,1,1.47.84h0a1.19,1.19,0,0,1-.85,1.46h0a1.11,1.11,0,0,1-.31,0h0A1.18,1.18,0,0,1,190.71,283Zm-56.3.78h0a1.2,1.2,0,0,1-.84-1.47h0a1.2,1.2,0,0,1,1.47-.84h0a1.2,1.2,0,0,1,.83,1.47h0a1.19,1.19,0,0,1-1.15.88h0A1.68,1.68,0,0,1,134.41,283.81Zm65.47-3.59a1.2,1.2,0,0,1,.71-1.54h0a1.2,1.2,0,0,1,1.54.71h0a1.19,1.19,0,0,1-.71,1.53h0a1.14,1.14,0,0,1-.41.08h0A1.18,1.18,0,0,1,199.88,280.22Zm-74.7.61a1.2,1.2,0,0,1-.71-1.53h0a1.19,1.19,0,0,1,1.54-.7h0a1.18,1.18,0,0,1,.7,1.53h0a1.19,1.19,0,0,1-1.12.78h0A1.14,1.14,0,0,1,125.18,280.83Zm83.59-4.24a1.19,1.19,0,0,1,.56-1.59h0a1.19,1.19,0,0,1,1.59.57h0a1.2,1.2,0,0,1-.56,1.59h0a1.38,1.38,0,0,1-.52.11h0A1.18,1.18,0,0,1,208.77,276.59Zm-92.52.46a1.19,1.19,0,0,1-.56-1.59h0a1.19,1.19,0,0,1,1.59-.57h0a1.19,1.19,0,0,1,.56,1.6h0a1.18,1.18,0,0,1-1.07.68h0A1.2,1.2,0,0,1,116.25,277Zm101-4.86a1.2,1.2,0,0,1,.42-1.64h0a1.2,1.2,0,0,1,1.64.43h0a1.18,1.18,0,0,1-.43,1.63h0a1.1,1.1,0,0,1-.6.17h0A1.19,1.19,0,0,1,217.29,272.19Zm-109.59.3h0a1.18,1.18,0,0,1-.42-1.63h0a1.18,1.18,0,0,1,1.63-.42h0a1.18,1.18,0,0,1,.42,1.63h0a1.19,1.19,0,0,1-1,.59h0A1.21,1.21,0,0,1,107.7,272.49Zm117.69-5.43a1.2,1.2,0,0,1,.28-1.67h0a1.2,1.2,0,0,1,1.67.28h0a1.2,1.2,0,0,1-.28,1.66h0a1.18,1.18,0,0,1-.69.22h0A1.21,1.21,0,0,1,225.39,267.06Zm-125.81.13a1.2,1.2,0,0,1-.28-1.67h0a1.21,1.21,0,0,1,1.67-.27h0a1.2,1.2,0,0,1,.27,1.67h0a1.19,1.19,0,0,1-1,.49h0A1.17,1.17,0,0,1,99.58,267.19Zm133.43-6a1.19,1.19,0,0,1,.13-1.68h0a1.2,1.2,0,0,1,1.69.13h0a1.2,1.2,0,0,1-.13,1.68h0a1.22,1.22,0,0,1-.78.29h0A1.19,1.19,0,0,1,233,261.22Zm-141.06,0a1.19,1.19,0,0,1-.12-1.68h0a1.19,1.19,0,0,1,1.68-.13h0a1.19,1.19,0,0,1,.13,1.68h0a1.19,1.19,0,0,1-.91.42h0A1.23,1.23,0,0,1,91.95,261.2Zm148.14-6.45a1.2,1.2,0,0,1,0-1.69h0a1.2,1.2,0,0,1,1.69,0h0a1.2,1.2,0,0,1,0,1.69h0a1.21,1.21,0,0,1-.86.36h0A1.21,1.21,0,0,1,240.09,254.75Zm-155.2-.19a1.19,1.19,0,0,1,0-1.69h0a1.2,1.2,0,0,1,1.69,0h0a1.21,1.21,0,0,1,0,1.69h0a1.25,1.25,0,0,1-.84.34h0A1.17,1.17,0,0,1,84.89,254.56Zm161.68-6.89a1.19,1.19,0,0,1-.17-1.68h0a1.19,1.19,0,0,1,1.68-.16h0a1.19,1.19,0,0,1,.17,1.68h0a1.22,1.22,0,0,1-.93.43h0A1.14,1.14,0,0,1,246.57,247.67Zm-168.14-.35a1.19,1.19,0,0,1,.17-1.68h0a1.19,1.19,0,0,1,1.68.17h0a1.19,1.19,0,0,1-.17,1.68h0a1.19,1.19,0,0,1-.75.27h0A1.19,1.19,0,0,1,78.43,247.32Zm174-7.26a1.19,1.19,0,0,1-.31-1.66h0a1.19,1.19,0,0,1,1.66-.32h0a1.21,1.21,0,0,1,.31,1.67h0a1.22,1.22,0,0,1-1,.52h0A1.21,1.21,0,0,1,252.4,240.06Zm-179.76-.52a1.19,1.19,0,0,1,.31-1.66h0a1.2,1.2,0,0,1,1.66.32h0a1.19,1.19,0,0,1-.32,1.66h0a1.18,1.18,0,0,1-.67.21h0A1.18,1.18,0,0,1,72.64,239.54ZM257.54,232a1.2,1.2,0,0,1-.46-1.63h0a1.2,1.2,0,0,1,1.62-.46h0a1.2,1.2,0,0,1,.46,1.63h0a1.19,1.19,0,0,1-1,.61h0A1.19,1.19,0,0,1,257.54,232Zm-190-.68a1.19,1.19,0,0,1,.46-1.62h0a1.19,1.19,0,0,1,1.62.46h0a1.2,1.2,0,0,1-.46,1.63h0a1.19,1.19,0,0,1-.58.15h0A1.18,1.18,0,0,1,67.55,231.28Zm194.39-7.84a1.19,1.19,0,0,1-.6-1.58h0a1.19,1.19,0,0,1,1.57-.6h0a1.19,1.19,0,0,1,.61,1.58h0a1.2,1.2,0,0,1-1.09.7h0A1.19,1.19,0,0,1,261.94,223.44Zm-198.73-.83a1.19,1.19,0,0,1,.61-1.58h0a1.18,1.18,0,0,1,1.57.6h0a1.19,1.19,0,0,1-.6,1.58h0a1.2,1.2,0,0,1-.49.11h0A1.21,1.21,0,0,1,63.21,222.61Zm202.35-8a1.2,1.2,0,0,1-.74-1.52h0a1.21,1.21,0,0,1,1.52-.74h0a1.19,1.19,0,0,1,.74,1.52h0a1.19,1.19,0,0,1-1.13.81h0A1.08,1.08,0,0,1,265.56,214.56Zm-205.9-1h0a1.19,1.19,0,0,1,.75-1.52h0a1.19,1.19,0,0,1,1.51.74h0a1.19,1.19,0,0,1-.74,1.52h0a1.3,1.3,0,0,1-.38.06h0A1.21,1.21,0,0,1,59.66,213.58Zm208.73-8.18a1.2,1.2,0,0,1-.87-1.45h0a1.19,1.19,0,0,1,1.44-.87h0a1.19,1.19,0,0,1,.87,1.44h0a1.2,1.2,0,0,1-1.16.91h0A1.46,1.46,0,0,1,268.39,205.4ZM56.93,204.27h0a1.2,1.2,0,0,1,.88-1.44h0a1.18,1.18,0,0,1,1.44.87h0a1.18,1.18,0,0,1-.87,1.44h0a1,1,0,0,1-.29,0h0A1.19,1.19,0,0,1,56.93,204.27ZM270.39,196a1.19,1.19,0,0,1-1-1.36h0a1.2,1.2,0,0,1,1.36-1h0a1.21,1.21,0,0,1,1,1.37h0a1.19,1.19,0,0,1-1.18,1h0ZM55,194.76a1.2,1.2,0,0,1,1-1.36h0a1.19,1.19,0,0,1,1.36,1h0a1.18,1.18,0,0,1-1,1.36h0l-.18,0h0A1.2,1.2,0,0,1,55,194.76Zm216.5-8.27a1.19,1.19,0,0,1-1.11-1.27h0a1.2,1.2,0,0,1,1.27-1.11h0a1.19,1.19,0,0,1,1.11,1.27h0a1.2,1.2,0,0,1-1.19,1.12h-.08ZM54,185.12a1.21,1.21,0,0,1,1.12-1.27h0A1.21,1.21,0,0,1,56.39,185h0a1.2,1.2,0,0,1-1.12,1.27h-.08A1.2,1.2,0,0,1,54,185.12Zm216.64-9.38a1.19,1.19,0,0,1,1.17-1.22h0a1.19,1.19,0,0,1,1.22,1.17h0a1.21,1.21,0,0,1-1.17,1.22h0A1.2,1.2,0,0,1,270.64,175.74ZM55,176.65a1.18,1.18,0,0,1-1.16-1.22h0A1.2,1.2,0,0,1,55,174.26h0a1.21,1.21,0,0,1,1.17,1.23h0a1.2,1.2,0,0,1-1.2,1.16h0ZM270,166.27a1.18,1.18,0,0,1,1.05-1.31h0A1.19,1.19,0,0,1,272.4,166h0a1.19,1.19,0,0,1-1.06,1.32h-.13A1.18,1.18,0,0,1,270,166.27Zm-214.52.81a1.2,1.2,0,0,1-1-1.32h0a1.19,1.19,0,0,1,1.32-1.06h0A1.19,1.19,0,0,1,56.83,166h0a1.19,1.19,0,0,1-1.18,1.06h-.14ZM268.58,156.9a1.2,1.2,0,0,1,.94-1.41h0a1.2,1.2,0,0,1,1.4.94h0a1.2,1.2,0,0,1-.93,1.41h0l-.24,0h0A1.19,1.19,0,0,1,268.58,156.9Zm-211.69.68a1.19,1.19,0,0,1-.93-1.4h0a1.2,1.2,0,0,1,1.41-.94h0a1.2,1.2,0,0,1,.93,1.41h0a1.19,1.19,0,0,1-1.17,1h0A1,1,0,0,1,56.89,157.58Zm209.42-9.89h0a1.18,1.18,0,0,1,.81-1.48h0a1.19,1.19,0,0,1,1.48.81h0a1.19,1.19,0,0,1-.81,1.48h0a1.25,1.25,0,0,1-.33.05h0A1.2,1.2,0,0,1,266.31,147.69Zm-207.2.56a1.2,1.2,0,0,1-.81-1.48h0a1.21,1.21,0,0,1,1.49-.81h0a1.2,1.2,0,0,1,.8,1.49h0a1.18,1.18,0,0,1-1.14.85h0A1,1,0,0,1,59.11,148.25Zm204.12-9.53h0a1.2,1.2,0,0,1,.67-1.55h0a1.2,1.2,0,0,1,1.55.67h0a1.19,1.19,0,0,1-.67,1.54h0a1.2,1.2,0,0,1-.44.09h0A1.19,1.19,0,0,1,263.23,138.72Zm-201.08.43a1.19,1.19,0,0,1-.67-1.55h0a1.19,1.19,0,0,1,1.55-.66h0a1.2,1.2,0,0,1,.67,1.55h0a1.21,1.21,0,0,1-1.11.75h0A1.13,1.13,0,0,1,62.15,139.15Zm197.21-9.09a1.19,1.19,0,0,1,.53-1.6h0a1.19,1.19,0,0,1,1.6.53h0a1.19,1.19,0,0,1-.53,1.6h0a1.16,1.16,0,0,1-.54.13h0A1.18,1.18,0,0,1,259.36,130.06ZM66,130.37a1.21,1.21,0,0,1-.53-1.61h0a1.19,1.19,0,0,1,1.61-.52h0a1.19,1.19,0,0,1,.53,1.6h0a1.22,1.22,0,0,1-1.07.66h0A1.3,1.3,0,0,1,66,130.37Zm188.75-8.6h0a1.19,1.19,0,0,1,.39-1.64h0a1.19,1.19,0,0,1,1.65.39h0a1.19,1.19,0,0,1-.4,1.64h0a1.17,1.17,0,0,1-.62.18h0A1.2,1.2,0,0,1,254.73,121.77Zm-184.15.18a1.19,1.19,0,0,1-.38-1.64h0a1.19,1.19,0,0,1,1.64-.39h0a1.2,1.2,0,0,1,.38,1.65h0a1.18,1.18,0,0,1-1,.56h0A1.23,1.23,0,0,1,70.58,121.95Zm178.82-8a1.2,1.2,0,0,1,.24-1.68h0a1.2,1.2,0,0,1,1.67.25h0a1.2,1.2,0,0,1-.24,1.67h0a1.22,1.22,0,0,1-.72.24h0A1.19,1.19,0,0,1,249.4,113.93ZM75.91,114a1.18,1.18,0,0,1-.24-1.67h0a1.19,1.19,0,0,1,1.67-.24h0a1.2,1.2,0,0,1,.24,1.68h0a1.18,1.18,0,0,1-1,.47h0A1.17,1.17,0,0,1,75.91,114Zm167.48-7.39a1.19,1.19,0,0,1,.09-1.68h0a1.2,1.2,0,0,1,1.69.09h0a1.19,1.19,0,0,1-.1,1.69h0a1.2,1.2,0,0,1-.79.3h0A1.16,1.16,0,0,1,243.39,106.58ZM81.92,106.5a1.19,1.19,0,0,1-.09-1.69h0a1.19,1.19,0,0,1,1.68-.09h0a1.2,1.2,0,0,1,.09,1.69h0a1.18,1.18,0,0,1-.89.39h0A1.18,1.18,0,0,1,81.92,106.5Zm154.84-6.71a1.18,1.18,0,0,1,0-1.68h0a1.19,1.19,0,0,1,1.68-.06h0a1.2,1.2,0,0,1,.06,1.69h0a1.22,1.22,0,0,1-.87.38h0A1.17,1.17,0,0,1,236.76,99.79Zm-148.2-.22a1.18,1.18,0,0,1,.06-1.68h0a1.19,1.19,0,0,1,1.68,0h0a1.19,1.19,0,0,1,0,1.69h0a1.18,1.18,0,0,1-.82.32h0A1.15,1.15,0,0,1,88.56,99.57Zm141-6a1.2,1.2,0,0,1-.2-1.68h0a1.18,1.18,0,0,1,1.67-.2h0a1.19,1.19,0,0,1,.21,1.67h0a1.21,1.21,0,0,1-.94.46h0A1.2,1.2,0,0,1,229.56,93.62ZM95.78,93.26A1.19,1.19,0,0,1,96,91.59h0a1.2,1.2,0,0,1,1.68.2h0a1.21,1.21,0,0,1-.21,1.68h0a1.21,1.21,0,0,1-.74.25h0A1.21,1.21,0,0,1,95.78,93.26ZM221.85,88.1h0a1.2,1.2,0,0,1-.35-1.66h0a1.2,1.2,0,0,1,1.65-.35h0a1.19,1.19,0,0,1,.35,1.65h0a1.19,1.19,0,0,1-1,.54h0A1.17,1.17,0,0,1,221.85,88.1Zm-118.31-.49a1.19,1.19,0,0,1,.35-1.65h0a1.19,1.19,0,0,1,1.65.36h0a1.2,1.2,0,0,1-.35,1.65h0a1.29,1.29,0,0,1-.65.19h0A1.19,1.19,0,0,1,103.54,87.61Zm110.14-4.33h0a1.19,1.19,0,0,1-.5-1.61h0a1.19,1.19,0,0,1,1.62-.5h0a1.2,1.2,0,0,1,.49,1.62h0a1.2,1.2,0,0,1-1.06.63h0A1.22,1.22,0,0,1,213.68,83.28Zm-101.92-.61a1.19,1.19,0,0,1,.5-1.62h0a1.21,1.21,0,0,1,1.62.5h0a1.19,1.19,0,0,1-.5,1.61h0a1.13,1.13,0,0,1-.56.14h0A1.19,1.19,0,0,1,111.76,82.67Zm93.35-3.47a1.19,1.19,0,0,1-.63-1.56h0A1.19,1.19,0,0,1,206,77h0a1.19,1.19,0,0,1,.64,1.56h0a1.19,1.19,0,0,1-1.1.73h0A1.1,1.1,0,0,1,205.11,79.2Zm-84.72-.73a1.18,1.18,0,0,1,.64-1.56h0a1.19,1.19,0,0,1,1.56.63h0a1.21,1.21,0,0,1-.64,1.57h0a1.27,1.27,0,0,1-.46.09h0A1.2,1.2,0,0,1,120.39,78.47Zm75.84-2.56a1.2,1.2,0,0,1-.78-1.51h0a1.21,1.21,0,0,1,1.51-.77h0a1.2,1.2,0,0,1,.77,1.5h0a1.22,1.22,0,0,1-1.14.84h0A1.13,1.13,0,0,1,196.23,75.91ZM129.35,75a1.21,1.21,0,0,1,.78-1.5h0a1.19,1.19,0,0,1,1.5.78h0a1.2,1.2,0,0,1-.77,1.5h0a1.18,1.18,0,0,1-.37.05h0A1.21,1.21,0,0,1,129.35,75Zm57.72-1.63a1.2,1.2,0,0,1-.9-1.43h0a1.19,1.19,0,0,1,1.43-.9h0a1.18,1.18,0,0,1,.9,1.42h0a1.2,1.2,0,0,1-1.17.94h0Zm-48.48-1a1.19,1.19,0,0,1,.9-1.42h0a1.19,1.19,0,0,1,1.43.9h0a1.2,1.2,0,0,1-.91,1.43h0a1.06,1.06,0,0,1-.26,0h0A1.19,1.19,0,0,1,138.59,72.45Zm39.15-.7a1.2,1.2,0,0,1-1-1.35h0a1.19,1.19,0,0,1,1.34-1h0a1.19,1.19,0,0,1,1,1.34h0a1.2,1.2,0,0,1-1.19,1h-.15ZM148,70.68a1.21,1.21,0,0,1,1-1.34h0a1.2,1.2,0,0,1,1.34,1h0a1.18,1.18,0,0,1-1,1.34h-.16A1.2,1.2,0,0,1,148,70.68Zm20.28.23a1.2,1.2,0,0,1-1.14-1.25h0a1.2,1.2,0,0,1,1.25-1.14h0a1.2,1.2,0,0,1,1.14,1.25h0a1.2,1.2,0,0,1-1.2,1.14h0Zm-9.49,0a1.19,1.19,0,0,1-1.24-1.14h0a1.19,1.19,0,0,1,1.14-1.24h0a1.18,1.18,0,0,1,1.24,1.14h0a1.2,1.2,0,0,1-1.14,1.25h0Z"/></g><g class="cls-13"><path class="cls-14" d="M162.65,298.53q-1.81,0-3.6-.08l.13-3.55q1.74.06,3.5.07Zm4.8-.07-.12-3.55q1.75-.06,3.49-.17l.22,3.55Q169.26,298.41,167.46,298.47Zm-13.2-.28q-1.8-.13-3.59-.32l.37-3.53q1.73.18,3.48.31Zm21.59-.29-.36-3.54q1.74-.18,3.47-.41l.47,3.52Q177.64,297.71,175.85,297.9Zm-29.95-.63q-1.79-.26-3.56-.57l.62-3.5q1.72.3,3.45.56Zm38.27-.52-.61-3.5q1.73-.3,3.43-.65l.72,3.48Q186,296.44,184.17,296.75Zm-46.55-1q-1.76-.39-3.51-.82l.86-3.45q1.7.42,3.41.8ZM192.4,295l-.85-3.45q1.7-.42,3.38-.89l1,3.42Q194.16,294.59,192.4,295Zm-62.92-1.33q-1.73-.51-3.44-1.07l1.1-3.38q1.66.54,3.34,1Zm71-1-1.09-3.38q1.67-.54,3.32-1.13l1.2,3.35Q202.22,292.16,200.49,292.72Zm-79-1.68q-1.69-.63-3.36-1.3l1.34-3.29q1.62.66,3.26,1.27Zm86.92-1.2-1.33-3.29q1.63-.66,3.23-1.36l1.43,3.25Q210.1,289.17,208.42,289.85Zm-94.69-2q-1.64-.74-3.25-1.53l1.56-3.19q1.56.77,3.16,1.49Zm102.39-1.42-1.56-3.19q1.58-.77,3.13-1.58l1.65,3.14Q217.75,285.63,216.12,286.42Zm-109.9-2.31q-1.58-.86-3.14-1.76l1.78-3.07q1.51.87,3,1.71Zm117.34-1.64-1.78-3.08q1.52-.88,3-1.8l1.87,3Q225.12,281.57,223.56,282.47ZM99,279.87q-1.52-1-3-2L98,275q1.45,1,2.92,1.92ZM230.7,278l-2-2.95q1.45-1,2.87-2l2.07,2.88Q232.2,277,230.7,278ZM92,275.13q-1.45-1.07-2.87-2.18l2.19-2.8q1.38,1.08,2.78,2.11Zm145.46-2.07-2.19-2.8q1.38-1.08,2.73-2.2l2.27,2.74Q238.93,272,237.51,273.06ZM85.46,269.92q-1.37-1.17-2.71-2.37l2.38-2.64q1.3,1.17,2.63,2.3ZM244,267.66,241.58,265q1.3-1.17,2.57-2.38l2.45,2.57Q245.29,266.45,244,267.66Zm-164.71-3.4Q78,263,76.7,261.7l2.56-2.47q1.21,1.26,2.47,2.48ZM250,261.82l-2.55-2.47q1.22-1.26,2.39-2.55l2.63,2.39Q251.26,260.53,250,261.82ZM73.44,258.18q-1.2-1.35-2.36-2.73l2.72-2.29q1.13,1.34,2.29,2.65Zm182.2-2.59-2.72-2.29q1.13-1.34,2.21-2.71l2.79,2.21Q256.8,254.21,255.64,255.59ZM68.06,251.71q-1.1-1.43-2.16-2.89l2.87-2.09q1,1.42,2.1,2.8ZM260.82,249,258,246.88q1-1.41,2-2.85l2.93,2Q261.88,247.52,260.82,249Zm-197.68-4.1q-1-1.5-2-3l3-1.88q.93,1.49,1.9,2.94ZM265.53,242l-3-1.89q.93-1.48,1.81-3l3.06,1.8Q266.49,240.5,265.53,242ZM58.72,237.71q-.9-1.57-1.74-3.16l3.14-1.67q.82,1.55,1.69,3.07Zm211-3-3.13-1.67q.82-1.54,1.6-3.1l3.18,1.58Q270.59,233.18,269.75,234.76ZM54.8,230.26Q54,228.63,53.28,227l3.25-1.44q.71,1.6,1.47,3.18Zm218.64-3-3.24-1.45q.71-1.59,1.38-3.21l3.28,1.36Q274.17,225.59,273.44,227.23Zm-222-4.69q-.67-1.68-1.29-3.38L53.47,218q.6,1.65,1.25,3.28Zm225.19-3.09-3.34-1.22q.6-1.64,1.15-3.3l3.37,1.12Q277.22,217.76,276.6,219.45Zm-228-4.85q-.55-1.71-1-3.45l3.42-1q.48,1.68,1,3.35Zm230.64-3.14-3.41-1q.48-1.68.92-3.37l3.44.88Q279.71,209.73,279.21,211.46Zm-232.9-5q-.42-1.75-.8-3.52l3.48-.73q.36,1.72.77,3.41Zm234.94-3.2-3.47-.74q.36-1.71.68-3.43l3.5.64Q281.62,201.54,281.25,203.3Zm-236.63-5q-.3-1.77-.55-3.56l3.52-.48q.24,1.74.53,3.46ZM282.71,195l-3.52-.5q.24-1.73.44-3.47l3.53.39Q283,193.24,282.71,195ZM43.51,189.93q-.18-1.79-.3-3.59l3.54-.24q.12,1.75.29,3.49Zm240.09-3.27-3.54-.25q.12-1.74.19-3.49l3.55.14Q283.73,184.87,283.6,186.66ZM43,181.54q0-1.74,0-3.5v-.11h3.55V178q0,1.7,0,3.4Zm240.92-3.29h-3.55V178q0-1.75-.05-3.5l3.55-.11q.05,1.79.05,3.6Zm-237.33-5L43,173.14q.07-1.81.2-3.6l3.54.25Q46.65,171.52,46.58,173.28Zm233.49-3.39q-.12-1.75-.29-3.49l3.54-.35q.18,1.79.3,3.59ZM47.18,165.14l-3.53-.39q.2-1.8.45-3.58l3.52.49Q47.38,163.4,47.18,165.14Zm232-3.37q-.24-1.74-.53-3.46l3.5-.6q.3,1.77.55,3.56ZM48.36,157.07l-3.5-.63q.32-1.78.7-3.54l3.48.74Q48.67,155.34,48.36,157.07Zm229.46-3.33q-.36-1.71-.78-3.41l3.45-.84q.42,1.75.8,3.52ZM50.09,149.09l-3.44-.88q.45-1.75.94-3.48l3.41,1Q50.53,147.39,50.09,149.09Zm225.76-3.28q-.48-1.68-1-3.35l3.38-1.08q.55,1.71,1,3.45ZM52.38,141.26,49,140.14q.57-1.71,1.18-3.4L53.53,138Q52.93,139.6,52.38,141.26ZM273.33,138q-.6-1.65-1.25-3.28l3.3-1.32q.67,1.68,1.29,3.38ZM55.22,133.61l-3.29-1.35q.69-1.66,1.42-3.3l3.24,1.45Q55.88,132,55.22,133.61Zm215-3.15q-.71-1.6-1.48-3.18l3.2-1.54q.79,1.63,1.52,3.28ZM58.57,126.2l-3.18-1.58q.8-1.61,1.65-3.2l3.13,1.67Q59.35,124.63,58.57,126.2Zm208.1-3.08q-.82-1.55-1.7-3.07l3.08-1.77q.9,1.57,1.75,3.16ZM62.44,119l-3.07-1.79q.91-1.55,1.86-3.08l3,1.89Q63.33,117.52,62.44,119Zm200.13-3q-.93-1.49-1.9-2.94l3-2q1,1.5,2,3ZM66.8,112.15l-2.93-2q1-1.49,2.08-2.94l2.87,2.09Q67.79,110.7,66.8,112.15ZM258,109.28q-1-1.42-2.1-2.8l2.81-2.18q1.1,1.43,2.17,2.88Zm-186.37-3.7-2.79-2.21Q70,102,71.12,100.58l2.72,2.29Q72.72,104.21,71.63,105.58ZM253,102.84q-1.12-1.34-2.29-2.64l2.65-2.37q1.2,1.34,2.36,2.73ZM76.91,99.36,74.28,97q1.21-1.33,2.47-2.63l2.55,2.47Q78.09,98.07,76.91,99.36ZM247.5,96.78q-1.21-1.26-2.47-2.48l2.48-2.54q1.29,1.26,2.54,2.55ZM82.61,93.52,80.16,91q1.3-1.25,2.64-2.45l2.38,2.64Q83.88,92.31,82.61,93.52Zm159-2.4q-1.3-1.17-2.63-2.3l2.29-2.71q1.38,1.17,2.71,2.37Zm-152.93-3-2.27-2.73q1.39-1.15,2.81-2.26l2.19,2.8Q90,87,88.7,88.09Zm146.68-2.21Q234,84.8,232.6,83.76l2.1-2.86q1.45,1.07,2.87,2.18ZM95.16,83.09,93.08,80.2q1.46-1.05,3-2.06l2,2.94Q96.58,82.06,95.16,83.09Zm133.63-2q-1.45-1-2.92-1.91l1.9-3q1.52,1,3,2ZM102,78.55l-1.87-3q1.53-1,3.1-1.86L105,76.75Q103.44,77.63,102,78.55Zm119.93-1.79q-1.51-.87-3-1.7l1.69-3.13q1.59.86,3.14,1.75ZM109,74.49l-1.66-3.14q1.6-.84,3.22-1.63l1.56,3.19Q110.6,73.67,109,74.49Zm105.65-1.57q-1.57-.77-3.16-1.49L213,68.2q1.64.74,3.25,1.53Zm-98.28-2L115,67.69q1.65-.73,3.33-1.4l1.33,3.29Q118,70.24,116.41,70.94Zm90.85-1.33Q205.64,69,204,68.35L205.23,65q1.69.63,3.36,1.3ZM124,67.91l-1.2-3.34q1.7-.61,3.42-1.17l1.1,3.38Q125.66,67.33,124,67.91Zm75.58-1.1q-1.66-.54-3.34-1l1-3.41q1.73.51,3.44,1.06Zm-67.8-1.38-1-3.42q1.73-.49,3.49-.92l.85,3.45Q133.48,65,131.8,65.43Zm60-.87q-1.69-.42-3.41-.79l.76-3.47q1.76.38,3.51.82Zm-52-1.06L139,60q1.76-.36,3.54-.67l.61,3.5Q141.44,63.16,139.73,63.51Zm44-.63q-1.72-.3-3.45-.55l.51-3.52q1.79.26,3.56.57Zm-36-.73-.47-3.52q1.78-.24,3.58-.42l.37,3.54Q149.5,61.92,147.77,62.15Zm27.92-.4q-1.73-.18-3.49-.31l.26-3.54q1.8.13,3.59.32Zm-19.8-.4-.23-3.54q1.79-.12,3.6-.18l.12,3.55Q157.63,61.24,155.89,61.35Zm11.65-.17q-1.74-.06-3.5-.07l0-3.55q1.81,0,3.6.07Z"/></g><path class="cls-15" d="M163.74,341.46h-2l.08-8h2Zm4.1-.06-.21-8,1.94-.06.33,8Zm-10.24,0-2-.08.38-8,2,.08Zm16.38-.23-.52-8,1.95-.14.61,8ZM151.46,341l-2-.16.68-8,1.94.15Zm28.64-.41-.81-8,1.93-.21.92,7.95Zm-34.76-.15-2-.24,1-7.94,1.94.23Zm40.86-.59-1.1-7.92,1.93-.28,1.2,7.91Zm-47-.2-2-.31,1.27-7.9,1.93.3Zm53-.77L190.87,331l1.92-.35,1.5,7.86Zm-59.09-.25-2-.39,1.57-7.84,1.91.37Zm65.12-.95-1.7-7.82,1.9-.42,1.81,7.79Zm-71.14-.3-2-.47,1.87-7.78,1.9.44Zm77.13-1.12-2-7.75,1.88-.5,2.1,7.72ZM121.2,336l-2-.54,2.16-7.7,1.88.51Zm89-1.3L207.93,327l1.86-.57,2.39,7.63Zm-94.93-.4-2-.62,2.45-7.62,1.85.58Zm100.8-1.47-2.58-7.57,1.85-.64,2.68,7.54Zm-106.65-.45-1.92-.69,2.73-7.52,1.84.66Zm112.45-1.65L219,323.22l1.81-.71,3,7.43Zm-118.2-.49-1.9-.76,3-7.41,1.81.72Zm123.92-1.83L224.46,321l1.78-.78,3.25,7.31ZM98,327.85,96.15,327l3.3-7.29,1.78.79Zm135.21-2-3.42-7.23,1.77-.85,3.5,7.19Zm-140.78-.55-1.83-.9,3.57-7.16,1.75.86Zm146.3-2.19-3.69-7.1,1.73-.92,3.77,7.05ZM87,322.52l-1.8-1,3.83-7,1.71.92Zm157.17-2.37-4-7,1.69-1,4,6.9Zm-162.54-.61-1.76-1,4.1-6.87,1.67,1ZM249.45,317l-4.21-6.8,1.65-1,4.3,6.74Zm-173.08-.64-1.72-1.1L79,308.56l1.64,1Zm178.25-2.71L250.15,307l1.61-1.1,4.56,6.57ZM71.24,313l-1.68-1.17,4.6-6.54,1.6,1.11Zm188.41-2.87-4.72-6.46,1.57-1.16,4.8,6.4Zm-193.42-.69-1.64-1.23,4.84-6.37L71,303Zm198.32-3-5-6.28,1.52-1.22,5,6.22ZM61.37,305.7l-1.58-1.28,5.07-6.19,1.52,1.23Zm207.94-3.18-5.19-6.09,1.48-1.27,5.26,6Zm-212.66-.74-1.54-1.35,5.31-6,1.46,1.28Zm217.26-3.33-5.41-5.89,1.43-1.33,5.48,5.82Zm-221.83-.77-1.49-1.41,5.53-5.79,1.42,1.33Zm226.28-3.47-5.63-5.69,1.38-1.38,5.7,5.62Zm-230.71-.8-1.43-1.45L52,286.36l1.37,1.4Zm235-3.6-5.84-5.47,1.32-1.43,5.9,5.4ZM43.41,289,42,287.45,48,282.1l1.31,1.44Zm243.36-3.73-6-5.25,1.27-1.48,6.1,5.17Zm-247.45-.86L38,282.81l6.14-5.13,1.26,1.49Zm251.39-3.85-6.23-5,1.21-1.52,6.29,4.94Zm-255.31-.9L34.13,278l6.33-4.9,1.2,1.53Zm259.08-4-6.41-4.78,1.16-1.57,6.47,4.71Zm-262.81-.93-1.2-1.66,6.5-4.66L38.11,270Zm266.39-4.05-6.59-4.54,1.09-1.61L299.2,269Zm-269.94-1L27,268l6.67-4.41,1.09,1.63Zm273.33-4.14-6.75-4.29,1-1.65,6.8,4.21Zm-276.69-1-1.08-1.75,6.84-4.16,1,1.67Zm279.88-4.23-6.91-4,1-1.68,7,3.94Zm-283-1.05-1-1.78,7-3.9,1,1.7Zm286-4.3-7.05-3.77q.46-.86.9-1.72l7.1,3.68Zm-289-1.1q-.48-.91-.95-1.83l7.13-3.62.89,1.73Zm291.79-4.36L303.22,246q.42-.87.84-1.75l7.24,3.41ZM15.86,248.37,15,246.52l7.26-3.36.83,1.77ZM313,244l-7.32-3.23q.39-.89.77-1.78l7.36,3.14Q313.4,243,313,244Zm-299.68-1.2q-.41-.95-.81-1.9l7.39-3.07q.37.9.76,1.79Zm302-4.45-7.43-3q.36-.9.7-1.81l7.48,2.85Q315.74,237.36,315.36,238.32ZM11,237.06q-.37-1-.73-1.93l7.5-2.79q.34.91.69,1.82Zm306.54-4.5L310,229.89q.32-.92.64-1.84l7.58,2.56Q317.86,231.59,317.52,232.56ZM8.86,231.26q-.34-1-.66-2l7.6-2.51q.31.93.63,1.86Zm310.6-4.54-7.64-2.38q.29-.93.57-1.86l7.67,2.29Q319.76,225.75,319.46,226.73ZM7,225.39q-.3-1-.58-2l7.69-2.21q.27.93.55,1.87Zm314.22-4.57-7.72-2.09q.25-.94.5-1.88l7.75,2Q321.44,219.83,321.18,220.82ZM5.29,219.47q-.26-1-.51-2l7.77-1.92q.23.94.48,1.88Zm317.38-4.62-7.79-1.8q.22-.95.42-1.9l7.82,1.7Q322.9,213.86,322.67,214.86ZM3.85,213.49q-.22-1-.43-2l7.83-1.63q.2,1,.41,1.91Zm320.09-4.65-7.86-1.5q.18-1,.35-1.91l7.88,1.39Q324.13,207.83,323.94,208.84ZM2.64,207.46q-.18-1-.35-2l7.89-1.33q.16,1,.34,1.93ZM325,202.78l-7.91-1.2q.15-1,.28-1.94l7.92,1.11Q325.13,201.77,325,202.78ZM1.65,201.4q-.15-1-.28-2l7.93-1q.12,1,.26,1.93Zm324.13-4.71-7.95-.9q.11-1,.21-1.94l8,.81C325.93,195.33,325.86,196,325.78,196.69ZM.9,195.3q-.11-1-.2-2l8-.74q.09,1,.19,1.94Zm325.47-4.73-8-.61q.07-1,.14-1.95l8,.52Q326.44,189.55,326.36,190.57Zm-326-1.39q-.07-1-.12-2l8-.43q.05,1,.12,1.94Zm326.34-4.75-8-.31q0-1,.06-1.94l8,.21Q326.75,183.41,326.71,184.43ZM.07,183q0-1,0-2.05l8-.14q0,1,0,1.95Zm326.76-4.75h-8V178q0-1,0-1.95l8-.11q0,1,0,2.05ZM8,176.94l-8,0q0-1,0-2.05L8,175Q8,176,8,176.94Zm310.73-4.75q0-1-.08-1.94l8-.41c0,.68.06,1.37.09,2.06ZM8.15,171.11l-8-.35q0-1,.1-2l8,.45Q8.19,170.13,8.15,171.11Zm310.25-4.75q-.07-1-.16-1.95l8-.69q.09,1,.17,2ZM8.51,165.27l-8-.64q.08-1,.18-2l8,.75Q8.59,164.3,8.51,165.27Zm309.35-4.74q-.11-1-.23-1.94l7.94-1q.13,1,.24,2ZM9.09,159.46l-7.94-.95q.12-1,.25-2l7.93,1Q9.21,158.49,9.09,159.46Zm308-4.71q-.15-1-.3-1.93l7.9-1.28q.16,1,.32,2ZM9.89,153.67,2,152.42q.16-1,.33-2l7.88,1.35Q10,152.71,9.89,153.67ZM316.12,149q-.18-1-.37-1.91l7.84-1.58q.2,1,.39,2ZM10.91,147.91l-7.85-1.55q.2-1,.41-2L11.3,146Q11.1,147,10.91,147.91Zm304-4.66q-.22-.95-.45-1.89l7.77-1.89q.24,1,.47,2ZM12.15,142.2l-7.79-1.84q.23-1,.48-2l7.76,1.94Q12.37,141.25,12.15,142.2Zm301.37-4.62q-.25-.94-.52-1.87l7.7-2.18q.28,1,.55,2Zm-299.92-1L5.89,134.4q.27-1,.56-2l7.68,2.23Q13.86,135.59,13.6,136.53ZM311.89,132q-.29-.94-.59-1.87l7.61-2.46q.32,1,.62,2Zm-296.63-1-7.63-2.41q.31-1,.63-2l7.59,2.52Q15.56,130,15.27,130.93ZM310,126.4q-.33-.92-.66-1.84l7.51-2.75q.35,1,.7,1.93Zm-292.91-1-7.53-2.71q.35-1,.71-1.92l7.49,2.8Q17.47,124.48,17.14,125.39ZM308,120.9q-.36-.91-.73-1.81l7.4-3q.39,1,.77,1.91Zm-288.77-1-7.42-3q.38-.94.77-1.88L20,118.14Q19.58,119,19.22,119.94Zm286.51-4.44-.8-1.79,7.28-3.31q.42.93.84,1.88ZM21.5,114.57l-7.3-3.27.85-1.86,7.26,3.37Q21.9,113.69,21.5,114.57Zm281.77-4.4q-.43-.88-.87-1.75l7.15-3.59.91,1.84ZM24,109.3l-7.17-3.54.92-1.83,7.13,3.63ZM300.61,105l-.93-1.71,7-3.86q.5.9,1,1.81Zm-273.95-.83-7-3.81,1-1.79,7,3.89Zm271.09-4.28-1-1.68L303.62,94l1,1.77ZM29.54,99,22.65,95l1.05-1.76,6.83,4.16Zm265.17-4.21-1.05-1.64,6.7-4.38,1.11,1.73ZM32.6,94.09l-6.73-4.33L27,88l6.68,4.41ZM291.48,90l-1.12-1.6,6.53-4.62,1.17,1.68ZM35.85,89.24l-6.56-4.58L30.47,83,37,87.65Zm252.22-4-1.18-1.56,6.35-4.86,1.24,1.64ZM39.28,84.51,32.9,79.69l1.24-1.62L40.46,83Zm245.21-3.93-1.23-1.51,6.16-5.1,1.3,1.59Zm-241.6-.67-6.2-5.06L38,73.28l6.14,5.13ZM280.73,76.1l-1.29-1.46,6-5.33,1.36,1.54ZM46.66,75.46l-6-5.28L42,68.64,48,74Zm230.15-3.7-1.34-1.41,5.77-5.54,1.41,1.49ZM50.6,71.14l-5.8-5.51,1.42-1.47L52,69.73Zm222.13-3.58-1.39-1.36,5.55-5.76,1.47,1.43Zm-218-.6-5.6-5.71,1.48-1.43,5.52,5.79ZM268.5,63.53l-1.44-1.31,5.34-6,1.52,1.38ZM59,63,53.58,57l1.52-1.37,5.31,6Zm205.16-3.3-1.49-1.25,5.11-6.16,1.57,1.32ZM63.36,59.11,58.2,53l1.58-1.32,5.07,6.19ZM259.6,56l-1.54-1.2,4.88-6.34,1.62,1.26ZM67.91,55.43,63,49.12l1.63-1.25,4.84,6.37Zm187-3-1.58-1.14L258,44.77l1.66,1.2ZM72.58,51.92l-4.68-6.49,1.67-1.19,4.6,6.54Zm177.59-2.84L248.55,48l4.39-6.69,1.7,1.13ZM77.4,48.58,73,41.92l1.72-1.13L79,47.51ZM245.27,45.9l-1.66-1L247.75,38l1.74,1.07ZM82.33,45.43l-4.19-6.82,1.76-1.06L84,44.42Zm157.92-2.51-1.69-1,3.88-7,1.78,1ZM87.38,42.46l-3.92-7,1.79-1,3.84,7Zm147.76-2.33-1.73-.89L237,32.1l1.82.93ZM92.53,39.69l-3.64-7.12,1.83-.92,3.56,7.16Zm137.39-2.16-1.76-.82,3.34-7.27,1.85.86ZM97.8,37.11l-3.38-7.25L96.29,29l3.29,7.29Zm126.81-2-1.79-.75L225.88,27l1.88.79Zm-121.45-.4-3.1-7.37,1.9-.79L105,34Zm116-1.8-1.82-.69,2.77-7.5,1.92.72Zm-110.6-.37-2.81-7.49,1.92-.71,2.73,7.52Zm105.1-1.62-1.84-.62,2.48-7.6,2,.65Zm-99.57-.34L111.6,23l2-.64L116,30Zm94-1.44-1.87-.55,2.2-7.69,2,.58Zm-88.43-.3-2.24-7.68,2-.56,2.15,7.71Zm82.8-1.27-1.89-.48,1.91-7.77,2,.5Zm-77.16-.27-1.95-7.76,2-.49,1.86,7.78Zm71.47-1.09-1.91-.4L196.53,18l2,.43ZM131.05,26l-1.66-7.83,2-.41L133,25.61Zm60-.92-1.92-.33,1.32-7.89,2,.35Zm-54.3-.19L135.43,17l2-.34,1.26,7.9Zm48.53-.74-1.93-.26,1-7.93,2,.27ZM142.57,24l-1.06-7.93,2-.26,1,7.94Zm36.94-.56-1.94-.19.72-8,2,.2Zm-31.14-.11-.76-8,2-.18.67,8ZM173.69,23l-1.95-.11.42-8,2,.12Zm-19.48-.07-.46-8,2-.11.37,8Zm13.64-.21-1.95,0,.12-8,2,0Zm-7.8,0-.16-8,2,0,.07,8Z"/><path class="cls-16" d="M163.42,330C79.63,330,11.47,261.83,11.47,178S79.63,26.1,163.42,26.1,315.36,94.26,315.36,178,247.2,330,163.42,330Zm0-302.88C80.19,27.1,12.47,94.82,12.47,178S80.19,329,163.42,329,314.36,261.28,314.36,178,246.64,27.1,163.42,27.1Z"/></g></g></svg>