<svg xmlns="http://www.w3.org/2000/svg" xmlns:xlink="http://www.w3.org/1999/xlink" viewBox="0 0 96 96"><defs><linearGradient id="New_Gradient_Swatch_4" x1="1.98" y1="1.98" x2="92.66" y2="92.66" gradientUnits="userSpaceOnUse"><stop offset="0.29" stop-color="#99d7f4"/><stop offset="1" stop-color="#00bfe7"/></linearGradient><linearGradient id="New_Gradient_Swatch_copy_3" x1="50.32" y1="54.82" x2="88.81" y2="93.31" gradientUnits="userSpaceOnUse"><stop offset="0" stop-color="#009ae3"/><stop offset="1" stop-color="#00bfe7"/></linearGradient></defs><title>privacy-security-light</title><g id="Layer_2" data-name="Layer 2"><g id="Layer_4" data-name="Layer 4"><rect width="96" height="96" rx="8" ry="8" fill="url(#New_Gradient_Swatch_4)"/><path d="M26.68,72.84,50.08,96H88a8,8,0,0,0,8-8V59.21L61.08,23.92l-3.4,27.37Z" fill="url(#New_Gradient_Swatch_copy_3)"/><circle cx="87" cy="87" r="3" fill="#112e51"/><circle cx="9" cy="87" r="3" fill="#112e51"/><circle cx="87" cy="9" r="3" fill="#112e51"/><circle cx="9" cy="9" r="3" fill="#112e51"/><path d="M69.51,69a3.59,3.59,0,0,1-3.58,3.58H30.07A3.59,3.59,0,0,1,26.49,69V47.5a3.59,3.59,0,0,1,3.58-3.59h1.2V36.74a16.73,16.73,0,0,1,33.46,0v7.17h1.2a3.59,3.59,0,0,1,3.58,3.59Zm-12-25.1V36.74a9.56,9.56,0,1,0-19.12,0v7.17Z" fill="#fff" stroke="#112e51" stroke-miterlimit="10" stroke-width="3"/></g></g></svg>