<svg xmlns="http://www.w3.org/2000/svg" viewBox="0 0 104 104"><defs><linearGradient id="b" x1="48.73" y1="24.59" x2="60.73" y2="52.59" gradientUnits="userSpaceOnUse"><stop offset="0" stop-color="#fc768c"/><stop offset="1" stop-color="#e21d3e"/></linearGradient><clipPath id="a"><rect width="104" height="104" rx="52" ry="52" fill="none"/></clipPath></defs><g clip-path="url(#a)"><path fill="#112e51" d="M-1.41-8.73h115.36v114.5H-1.41z"/><path fill="#205493" d="M2.27-5.15h24.72v9.23H2.27z"/><path fill="#00bfe7" d="M12.44-1.35h4.38V.28h-4.38z"/><path fill="#205493" d="M2.27 7.12h24.72v9.23H2.27z"/><path fill="#00bfe7" d="M12.44 10.91h4.38v1.63h-4.38z"/><path fill="#205493" d="M2.27 19.38h24.72v9.23H2.27z"/><path fill="#00bfe7" d="M12.44 23.18h4.38v1.63h-4.38z"/><path fill="#205493" d="M2.27 31.65h24.72v9.23H2.27z"/><path fill="#00bfe7" d="M12.44 35.44h4.38v1.63h-4.38z"/><path fill="#205493" d="M2.27 43.91h24.72v9.23H2.27z"/><path fill="#00bfe7" d="M12.44 47.71h4.38v1.63h-4.38z"/><path fill="#205493" d="M2.27 56.18h24.72v9.23H2.27z"/><path fill="#00bfe7" d="M12.44 59.97h4.38v1.63h-4.38z"/><path fill="#205493" d="M2.27 68.44h24.72v9.23H2.27z"/><path fill="#00bfe7" d="M12.44 72.24h4.38v1.63h-4.38z"/><path fill="#205493" d="M2.27 80.71h24.72v9.23H2.27z"/><path fill="#00bfe7" d="M12.44 84.5h4.38v1.63h-4.38z"/><path fill="#205493" d="M2.27 92.97h24.72v9.23H2.27z"/><path fill="#00bfe7" d="M12.44 96.77h4.38v1.63h-4.38z"/><path fill="#205493" d="M30.03-5.15h24.72v9.23H30.03z"/><path fill="#00bfe7" d="M40.2-1.35h4.38V.28H40.2z"/><path fill="#205493" d="M30.03 7.12h24.72v9.23H30.03z"/><path fill="#00bfe7" d="M40.2 10.91h4.38v1.63H40.2z"/><path fill="#205493" d="M30.03 19.38h24.72v9.23H30.03z"/><path fill="#00bfe7" d="M40.2 23.18h4.38v1.63H40.2z"/><path fill="#205493" d="M30.03 31.65h24.72v9.23H30.03z"/><path fill="#00bfe7" d="M40.2 35.44h4.38v1.63H40.2z"/><path fill="#205493" d="M30.03 43.91h24.72v9.23H30.03z"/><path fill="#00bfe7" d="M40.2 47.71h4.38v1.63H40.2z"/><path fill="#205493" d="M30.03 56.18h24.72v9.23H30.03z"/><path fill="#00bfe7" d="M40.2 59.97h4.38v1.63H40.2z"/><path fill="#205493" d="M30.03 68.44h24.72v9.23H30.03z"/><path fill="#00bfe7" d="M40.2 72.24h4.38v1.63H40.2z"/><path fill="#205493" d="M30.03 80.71h24.72v9.23H30.03z"/><path fill="#00bfe7" d="M40.2 84.5h4.38v1.63H40.2z"/><path fill="#205493" d="M30.03 92.97h24.72v9.23H30.03z"/><path fill="#00bfe7" d="M40.2 96.77h4.38v1.63H40.2z"/><path fill="#205493" d="M57.79-5.15h24.72v9.23H57.79z"/><path fill="#00bfe7" d="M67.96-1.35h4.38V.28h-4.38z"/><path fill="#205493" d="M57.79 7.12h24.72v9.23H57.79z"/><path fill="#00bfe7" d="M67.96 10.91h4.38v1.63h-4.38z"/><path fill="#205493" d="M57.79 19.38h24.72v9.23H57.79z"/><path fill="#00bfe7" d="M67.96 23.18h4.38v1.63h-4.38z"/><path fill="#205493" d="M57.79 31.65h24.72v9.23H57.79z"/><path fill="#00bfe7" d="M67.96 35.44h4.38v1.63h-4.38z"/><path fill="#205493" d="M57.79 43.91h24.72v9.23H57.79z"/><path fill="#00bfe7" d="M67.96 47.71h4.38v1.63h-4.38z"/><path fill="#205493" d="M57.79 56.18h24.72v9.23H57.79z"/><path fill="#00bfe7" d="M67.96 59.97h4.38v1.63h-4.38z"/><path fill="#205493" d="M57.79 68.44h24.72v9.23H57.79z"/><path fill="#00bfe7" d="M67.96 72.24h4.38v1.63h-4.38z"/><path fill="#205493" d="M57.79 80.71h24.72v9.23H57.79z"/><path fill="#00bfe7" d="M67.96 84.5h4.38v1.63h-4.38z"/><path fill="#205493" d="M57.79 92.97h24.72v9.23H57.79z"/><path fill="#00bfe7" d="M67.96 96.77h4.38v1.63h-4.38z"/><path fill="#205493" d="M85.55-5.15h24.72v9.23H85.55z"/><path fill="#00bfe7" d="M95.72-1.35h4.38V.28h-4.38z"/><path fill="#205493" d="M85.55 7.12h24.72v9.23H85.55z"/><path fill="#00bfe7" d="M95.72 10.91h4.38v1.63h-4.38z"/><path fill="#205493" d="M85.55 19.38h24.72v9.23H85.55z"/><path fill="#00bfe7" d="M95.72 23.18h4.38v1.63h-4.38z"/><path fill="#205493" d="M85.55 31.65h24.72v9.23H85.55z"/><path fill="#00bfe7" d="M95.72 35.44h4.38v1.63h-4.38z"/><path fill="#205493" d="M85.55 43.91h24.72v9.23H85.55z"/><path fill="#00bfe7" d="M95.72 47.71h4.38v1.63h-4.38z"/><path fill="#205493" d="M85.55 56.18h24.72v9.23H85.55z"/><path fill="#00bfe7" d="M95.72 59.97h4.38v1.63h-4.38z"/><path fill="#205493" d="M85.55 68.44h24.72v9.23H85.55z"/><path fill="#00bfe7" d="M95.72 72.24h4.38v1.63h-4.38z"/><path fill="#205493" d="M85.55 80.71h24.72v9.23H85.55z"/><path fill="#00bfe7" d="M95.72 84.5h4.38v1.63h-4.38z"/><path fill="#205493" d="M85.55 92.97h24.72v9.23H85.55z"/><path fill="#00bfe7" d="M95.72 96.77h4.38v1.63h-4.38z"/><path fill="url(#b)" d="M30.03 31.65H82.7v21.54H30.03z"/><path d="M59.51 48.28a18.22 18.22 0 0 1-6.25 0l1.08-6.19a3.3 3.3 0 1 1 4.08 0z" fill="#fff"/></g></svg>