<svg xmlns="http://www.w3.org/2000/svg" xmlns:xlink="http://www.w3.org/1999/xlink" viewBox="0 0 104 104"><defs><clipPath id="clip-path"><rect width="104" height="104" rx="52" ry="52" fill="none"/></clipPath><linearGradient id="New_Gradient_Swatch_3" x1="48.73" y1="24.59" x2="60.73" y2="52.59" gradientUnits="userSpaceOnUse"><stop offset="0" stop-color="#fc768c"/><stop offset="1" stop-color="#e21d3e"/></linearGradient></defs><title>safe-deposit-box</title><g id="Layer_2" data-name="Layer 2"><g clip-path="url(#clip-path)"><rect x="-1.41" y="-8.73" width="115.36" height="114.5" fill="#112e51"/><rect x="2.27" y="-5.15" width="24.72" height="9.23" fill="#205493"/><rect x="12.44" y="-1.35" width="4.38" height="1.63" fill="#00bfe7"/><rect x="2.27" y="7.12" width="24.72" height="9.23" fill="#205493"/><rect x="12.44" y="10.91" width="4.38" height="1.63" fill="#00bfe7"/><rect x="2.27" y="19.38" width="24.72" height="9.23" fill="#205493"/><rect x="12.44" y="23.18" width="4.38" height="1.63" fill="#00bfe7"/><rect x="2.27" y="31.65" width="24.72" height="9.23" fill="#205493"/><rect x="12.44" y="35.44" width="4.38" height="1.63" fill="#00bfe7"/><rect x="2.27" y="43.91" width="24.72" height="9.23" fill="#205493"/><rect x="12.44" y="47.71" width="4.38" height="1.63" fill="#00bfe7"/><rect x="2.27" y="56.18" width="24.72" height="9.23" fill="#205493"/><rect x="12.44" y="59.97" width="4.38" height="1.63" fill="#00bfe7"/><rect x="2.27" y="68.44" width="24.72" height="9.23" fill="#205493"/><rect x="12.44" y="72.24" width="4.38" height="1.63" fill="#00bfe7"/><rect x="2.27" y="80.71" width="24.72" height="9.23" fill="#205493"/><rect x="12.44" y="84.5" width="4.38" height="1.63" fill="#00bfe7"/><rect x="2.27" y="92.97" width="24.72" height="9.23" fill="#205493"/><rect x="12.44" y="96.77" width="4.38" height="1.63" fill="#00bfe7"/><rect x="30.03" y="-5.15" width="24.72" height="9.23" fill="#205493"/><rect x="40.2" y="-1.35" width="4.38" height="1.63" fill="#00bfe7"/><rect x="30.03" y="7.12" width="24.72" height="9.23" fill="#205493"/><rect x="40.2" y="10.91" width="4.38" height="1.63" fill="#00bfe7"/><rect x="30.03" y="19.38" width="24.72" height="9.23" fill="#205493"/><rect x="40.2" y="23.18" width="4.38" height="1.63" fill="#00bfe7"/><rect x="30.03" y="31.65" width="24.72" height="9.23" fill="#205493"/><rect x="40.2" y="35.44" width="4.38" height="1.63" fill="#00bfe7"/><rect x="30.03" y="43.91" width="24.72" height="9.23" fill="#205493"/><rect x="40.2" y="47.71" width="4.38" height="1.63" fill="#00bfe7"/><rect x="30.03" y="56.18" width="24.72" height="9.23" fill="#205493"/><rect x="40.2" y="59.97" width="4.38" height="1.63" fill="#00bfe7"/><rect x="30.03" y="68.44" width="24.72" height="9.23" fill="#205493"/><rect x="40.2" y="72.24" width="4.38" height="1.63" fill="#00bfe7"/><rect x="30.03" y="80.71" width="24.72" height="9.23" fill="#205493"/><rect x="40.2" y="84.5" width="4.38" height="1.63" fill="#00bfe7"/><rect x="30.03" y="92.97" width="24.72" height="9.23" fill="#205493"/><rect x="40.2" y="96.77" width="4.38" height="1.63" fill="#00bfe7"/><rect x="57.79" y="-5.15" width="24.72" height="9.23" fill="#205493"/><rect x="67.96" y="-1.35" width="4.38" height="1.63" fill="#00bfe7"/><rect x="57.79" y="7.12" width="24.72" height="9.23" fill="#205493"/><rect x="67.96" y="10.91" width="4.38" height="1.63" fill="#00bfe7"/><rect x="57.79" y="19.38" width="24.72" height="9.23" fill="#205493"/><rect x="67.96" y="23.18" width="4.38" height="1.63" fill="#00bfe7"/><rect x="57.79" y="31.65" width="24.72" height="9.23" fill="#205493"/><rect x="67.96" y="35.44" width="4.38" height="1.63" fill="#00bfe7"/><rect x="57.79" y="43.91" width="24.72" height="9.23" fill="#205493"/><rect x="67.96" y="47.71" width="4.38" height="1.63" fill="#00bfe7"/><rect x="57.79" y="56.18" width="24.72" height="9.23" fill="#205493"/><rect x="67.96" y="59.97" width="4.38" height="1.63" fill="#00bfe7"/><rect x="57.79" y="68.44" width="24.72" height="9.23" fill="#205493"/><rect x="67.96" y="72.24" width="4.38" height="1.63" fill="#00bfe7"/><rect x="57.79" y="80.71" width="24.72" height="9.23" fill="#205493"/><rect x="67.96" y="84.5" width="4.38" height="1.63" fill="#00bfe7"/><rect x="57.79" y="92.97" width="24.72" height="9.23" fill="#205493"/><rect x="67.96" y="96.77" width="4.38" height="1.63" fill="#00bfe7"/><g id="_Group_" data-name="&lt;Group&gt;"><rect x="85.55" y="-5.15" width="24.72" height="9.23" fill="#205493"/><rect x="95.72" y="-1.35" width="4.38" height="1.63" fill="#00bfe7"/></g><rect x="85.55" y="7.12" width="24.72" height="9.23" fill="#205493"/><rect x="95.72" y="10.91" width="4.38" height="1.63" fill="#00bfe7"/><rect x="85.55" y="19.38" width="24.72" height="9.23" fill="#205493"/><rect x="95.72" y="23.18" width="4.38" height="1.63" fill="#00bfe7"/><rect x="85.55" y="31.65" width="24.72" height="9.23" fill="#205493"/><rect x="95.72" y="35.44" width="4.38" height="1.63" fill="#00bfe7"/><rect x="85.55" y="43.91" width="24.72" height="9.23" fill="#205493"/><rect x="95.72" y="47.71" width="4.38" height="1.63" fill="#00bfe7"/><rect x="85.55" y="56.18" width="24.72" height="9.23" fill="#205493"/><rect x="95.72" y="59.97" width="4.38" height="1.63" fill="#00bfe7"/><rect x="85.55" y="68.44" width="24.72" height="9.23" fill="#205493"/><rect x="95.72" y="72.24" width="4.38" height="1.63" fill="#00bfe7"/><rect x="85.55" y="80.71" width="24.72" height="9.23" fill="#205493"/><rect x="95.72" y="84.5" width="4.38" height="1.63" fill="#00bfe7"/><rect x="85.55" y="92.97" width="24.72" height="9.23" fill="#205493"/><rect x="95.72" y="96.77" width="4.38" height="1.63" fill="#00bfe7"/><rect x="30.03" y="31.65" width="52.67" height="21.54" fill="url(#New_Gradient_Swatch_3)"/><path d="M59.51,48.28a18.22,18.22,0,0,1-6.25,0l1.08-6.19a3.3,3.3,0,1,1,4.08,0Z" fill="#fff"/></g></g></svg>