<svg id="Layer_1" data-name="Layer 1" xmlns="http://www.w3.org/2000/svg" xmlns:xlink="http://www.w3.org/1999/xlink" viewBox="0 0 64 64"><defs><style>.cls-1{fill:none;}.cls-2{clip-path:url(#clip-path);}.cls-3{fill:#112e51;}.cls-4{fill:#205493;}.cls-5{fill:#00bfe7;}.cls-6{fill:#e21c3d;}.cls-7{fill:#fff;}</style><clipPath id="clip-path"><rect class="cls-1" width="64" height="64" rx="32" ry="32"/></clipPath></defs><title>safe-deposit</title><g class="cls-2"><rect class="cls-3" x="-0.25" y="-5.37" width="70.99" height="70.46"/><rect class="cls-4" x="2.01" y="-3.17" width="15.21" height="5.68"/><rect class="cls-5" x="8.27" y="-0.83" width="2.69" height="1.01"/><rect class="cls-4" x="2.01" y="4.38" width="15.21" height="5.68"/><rect class="cls-5" x="8.27" y="6.72" width="2.69" height="1.01"/><rect class="cls-4" x="2.01" y="11.93" width="15.21" height="5.68"/><rect class="cls-5" x="8.27" y="14.26" width="2.69" height="1.01"/><rect class="cls-4" x="2.01" y="19.48" width="15.21" height="5.68"/><rect class="cls-5" x="8.27" y="21.81" width="2.69" height="1.01"/><rect class="cls-4" x="2.01" y="27.02" width="15.21" height="5.68"/><rect class="cls-5" x="8.27" y="29.36" width="2.69" height="1.01"/><rect class="cls-4" x="2.01" y="34.57" width="15.21" height="5.68"/><rect class="cls-5" x="8.27" y="36.91" width="2.69" height="1.01"/><rect class="cls-4" x="2.01" y="42.12" width="15.21" height="5.68"/><rect class="cls-5" x="8.27" y="44.45" width="2.69" height="1.01"/><rect class="cls-4" x="2.01" y="49.67" width="15.21" height="5.68"/><rect class="cls-5" x="8.27" y="52" width="2.69" height="1.01"/><rect class="cls-4" x="2.01" y="57.21" width="15.21" height="5.68"/><rect class="cls-5" x="8.27" y="59.55" width="2.69" height="1.01"/><rect class="cls-4" x="19.1" y="-3.17" width="15.21" height="5.68"/><rect class="cls-5" x="25.36" y="-0.83" width="2.69" height="1.01"/><rect class="cls-4" x="19.1" y="4.38" width="15.21" height="5.68"/><rect class="cls-5" x="25.36" y="6.72" width="2.69" height="1.01"/><rect class="cls-4" x="19.1" y="11.93" width="15.21" height="5.68"/><rect class="cls-5" x="25.36" y="14.26" width="2.69" height="1.01"/><rect class="cls-4" x="19.1" y="19.48" width="15.21" height="5.68"/><rect class="cls-5" x="25.36" y="21.81" width="2.69" height="1.01"/><rect class="cls-4" x="19.1" y="27.02" width="15.21" height="5.68"/><rect class="cls-5" x="25.36" y="29.36" width="2.69" height="1.01"/><rect class="cls-4" x="19.1" y="34.57" width="15.21" height="5.68"/><rect class="cls-5" x="25.36" y="36.91" width="2.69" height="1.01"/><rect class="cls-4" x="19.1" y="42.12" width="15.21" height="5.68"/><rect class="cls-5" x="25.36" y="44.45" width="2.69" height="1.01"/><rect class="cls-4" x="19.1" y="49.67" width="15.21" height="5.68"/><rect class="cls-5" x="25.36" y="52" width="2.69" height="1.01"/><rect class="cls-4" x="19.1" y="57.21" width="15.21" height="5.68"/><rect class="cls-5" x="25.36" y="59.55" width="2.69" height="1.01"/><rect class="cls-4" x="36.18" y="-3.17" width="15.21" height="5.68"/><rect class="cls-5" x="42.44" y="-0.83" width="2.69" height="1.01"/><rect class="cls-4" x="36.18" y="4.38" width="15.21" height="5.68"/><rect class="cls-5" x="42.44" y="6.72" width="2.69" height="1.01"/><rect class="cls-4" x="36.18" y="11.93" width="15.21" height="5.68"/><rect class="cls-5" x="42.44" y="14.26" width="2.69" height="1.01"/><rect class="cls-4" x="36.18" y="19.48" width="15.21" height="5.68"/><rect class="cls-5" x="42.44" y="21.81" width="2.69" height="1.01"/><rect class="cls-4" x="36.18" y="27.02" width="15.21" height="5.68"/><rect class="cls-5" x="42.44" y="29.36" width="2.69" height="1.01"/><rect class="cls-4" x="36.18" y="34.57" width="15.21" height="5.68"/><rect class="cls-5" x="42.44" y="36.91" width="2.69" height="1.01"/><rect class="cls-4" x="36.18" y="42.12" width="15.21" height="5.68"/><rect class="cls-5" x="42.44" y="44.45" width="2.69" height="1.01"/><rect class="cls-4" x="36.18" y="49.67" width="15.21" height="5.68"/><rect class="cls-5" x="42.44" y="52" width="2.69" height="1.01"/><rect class="cls-4" x="36.18" y="57.21" width="15.21" height="5.68"/><rect class="cls-5" x="42.44" y="59.55" width="2.69" height="1.01"/><g id="_Group_" data-name="&lt;Group&gt;"><rect class="cls-4" x="53.26" y="-3.17" width="15.21" height="5.68"/><rect class="cls-5" x="59.52" y="-0.83" width="2.69" height="1.01"/></g><rect class="cls-4" x="53.26" y="4.38" width="15.21" height="5.68"/><rect class="cls-5" x="59.52" y="6.72" width="2.69" height="1.01"/><rect class="cls-4" x="53.26" y="11.93" width="15.21" height="5.68"/><rect class="cls-5" x="59.52" y="14.26" width="2.69" height="1.01"/><rect class="cls-4" x="53.26" y="19.48" width="15.21" height="5.68"/><rect class="cls-5" x="59.52" y="21.81" width="2.69" height="1.01"/><rect class="cls-4" x="53.26" y="27.02" width="15.21" height="5.68"/><rect class="cls-5" x="59.52" y="29.36" width="2.69" height="1.01"/><rect class="cls-4" x="53.26" y="34.57" width="15.21" height="5.68"/><rect class="cls-5" x="59.52" y="36.91" width="2.69" height="1.01"/><rect class="cls-4" x="53.26" y="42.12" width="15.21" height="5.68"/><rect class="cls-5" x="59.52" y="44.45" width="2.69" height="1.01"/><rect class="cls-4" x="53.26" y="49.67" width="15.21" height="5.68"/><rect class="cls-5" x="59.52" y="52" width="2.69" height="1.01"/><rect class="cls-4" x="53.26" y="57.21" width="15.21" height="5.68"/><rect class="cls-5" x="59.52" y="59.55" width="2.69" height="1.01"/><rect class="cls-6" x="19.1" y="19.48" width="32.41" height="13.26"/><path class="cls-7" d="M37.24,29.71a11.21,11.21,0,0,1-3.84,0l.67-3.81a2,2,0,1,1,2.51,0Z"/></g></svg>