<svg xmlns="http://www.w3.org/2000/svg" width="24" height="24" viewBox="0 0 216 146"><path fill="#fff" d="M172.77 123.025 144.825 95.08q10.103-14.584 10.104-32.508 0-11.65-4.527-22.283-4.522-10.633-12.22-18.336c-7.698-7.703-11.243-9.207-18.33-12.22Q109.216 5.21 97.566 5.21q-11.652 0-22.284 4.523-10.635 4.521-18.332 12.22-7.698 7.701-12.22 18.333t-4.522 22.282q0 11.648 4.522 22.282 4.522 10.631 12.22 18.33 7.701 7.7 18.333 12.222 10.634 4.522 22.283 4.522 17.925-.001 32.51-10.105l27.943 27.863q2.931 3.096 7.332 3.096 4.238.001 7.332-3.096 3.096-3.095 3.096-7.332.002-4.317-3.013-7.33zm-49.413-34.668Q112.644 99.071 97.57 99.07q-15.072 0-25.786-10.713T61.07 62.57q0-15.071 10.714-25.785T97.57 26.07q15.072.001 25.787 10.715t10.715 25.786q-.001 15.075-10.715 25.79z"/></svg>