<svg width="96" height="96" xmlns="http://www.w3.org/2000/svg"><defs><linearGradient x1="90.594%" y1="91%" x2="9.031%" y2="8.625%" id="a"><stop stop-color="#00BFE7" offset="0%"/><stop stop-color="#99D7F4" offset="71%"/></linearGradient><linearGradient x1="22.057%" y1="20.394%" x2="80.663%" y2="117.177%" id="b"><stop stop-color="#0071BB" offset="0%"/><stop stop-color="#99D7F4" stop-opacity="0" offset="100%"/></linearGradient></defs><g fill="none" fill-rule="evenodd"><rect fill="url(#a)" fill-rule="nonzero" width="96" height="96" rx="8"/><path d="M48 96V19h21.695L96 45.305V88a8 8 0 01-8 8H48z" fill="url(#b)" fill-rule="nonzero"/><circle fill="#112E51" fill-rule="nonzero" cx="9" cy="87" r="3"/><circle fill="#112E51" fill-rule="nonzero" cx="87" cy="9" r="3"/><circle fill="#112E51" fill-rule="nonzero" cx="9" cy="9" r="3"/><circle fill="#112E51" fill-rule="nonzero" cx="87" cy="87" r="3"/><path d="M20.5 94.5h55V59a1.5 1.5 0 00-1.5-1.5H22a1.5 1.5 0 00-1.5 1.5v35.5z" stroke="#112E51" stroke-width="3"/><path fill="#FFF" d="M22 59h52v37H22z"/><path d="M24.5 57.5h47V24a3.5 3.5 0 00-3.5-3.5H28a3.5 3.5 0 00-3.5 3.5v33.5z" stroke="#112E51" stroke-width="3" fill="#FFF"/><path d="M41.27 29.762h3.19a2 2 0 012 2V57.38h-7.19V31.76a2 2 0 012-2zm10.27 0h3.19a2 2 0 012 2V57.38h-7.19V31.76a2 2 0 012-2zM31 25h3.19a2 2 0 012 2v30.381H29V27a2 2 0 012-2zm30.81 0H65a2 2 0 012 2v30.381h-7.19V27a2 2 0 012-2z" fill="#112E51"/><circle fill="#112E51" cx="48" cy="78.109" r="8"/></g></svg>