<svg xmlns="http://www.w3.org/2000/svg" viewBox="0 0 96 96"><defs><linearGradient id="a" x1="2.65" y1="2.65" x2="94.31" y2="94.31" gradientUnits="userSpaceOnUse"><stop offset=".29" stop-color="#99d7f4"/><stop offset="1" stop-color="#00bfe7"/></linearGradient><linearGradient id="b" x1="39.26" y1="36.16" x2="80.57" y2="77.47" gradientUnits="userSpaceOnUse"><stop offset="0" stop-color="#009ae3"/><stop offset="1" stop-color="#00bfe7"/></linearGradient></defs><rect width="96" height="96" rx="8" ry="8" fill="url(#a)"/><path d="M16.82 58.29L54.78 96H88a8 8 0 008-8V48.71L73.67 26 51.1 28.49l-1.3 1.21-1.52 1.24z" fill="url(#b)"/><circle cx="87" cy="87" r="3" fill="#112e51"/><circle cx="9" cy="87" r="3" fill="#112e51"/><circle cx="87" cy="9" r="3" fill="#112e51"/><circle cx="9" cy="9" r="3" fill="#112e51"/><path d="M61.87 49.6l-21 21a2.46 2.46 0 01-4.2-1.74V57.74H19.43A2.48 2.48 0 0117 55.27v-14.8A2.48 2.48 0 0119.43 38H36.7V26.9a2.48 2.48 0 012.47-2.47 2.45 2.45 0 011.74.74l21 21a2.41 2.41 0 010 3.47z" fill="#fff" stroke="#112e51" stroke-miterlimit="10" stroke-width="3"/><path d="M76.17 61.44a11.11 11.11 0 01-11.1 11.1H52.73a1.27 1.27 0 01-1.23-1.24c0-1.08-.5-3.7 1.24-3.7h12.32a6.19 6.19 0 006.17-6.17V34.3a6.19 6.19 0 00-6.17-6.16H54c-1 0-2.47.19-2.47-1.24 0-1.08-.5-3.7 1.24-3.7h12.29a11.1 11.1 0 0111.1 11.1z" fill="#112e51" stroke="#112e51" stroke-miterlimit="10" stroke-width="2"/></svg>