<svg id="Black_w_white_type" xmlns="http://www.w3.org/2000/svg" viewBox="0 0 333 333"><defs><style>.cls-1{fill:#fff}</style></defs><path class="cls-1" d="M157.5 169.65a23.93 23.93 0 1023.93 23.93 24 24 0 00-23.93-23.93zm0-15.88a19.14 19.14 0 10-19.14-19.14 19.16 19.16 0 0019.14 19.14z"/><path class="cls-1" d="M327.32 0H5.68A5.68 5.68 0 000 5.68v321.64A5.68 5.68 0 005.68 333h321.64a5.68 5.68 0 005.68-5.68V5.68A5.68 5.68 0 00327.32 0zM98 229.32a2 2 0 01-2 2H83.53a2 2 0 01-2-2V117.38H65.21a2 2 0 01-2-2v-11.9a2 2 0 012-2h30.84a2 2 0 012 2zm59.47 4.06a39.85 39.85 0 01-39.81-39.81 39.37 39.37 0 0117.05-32.52 35 35 0 1145.51 0 39.37 39.37 0 0117.05 32.52 39.85 39.85 0 01-39.77 39.81zm112.27-118a2 2 0 01-2 2h-34.31v39h28.31a2 2 0 012 2v11.9a2 2 0 01-2 2h-28.31v57.08a2 2 0 01-2 2h-12.49a2 2 0 01-2-2V103.51a2 2 0 012-2h48.86a2 2 0 012 2z"/></svg>