<svg width="48" height="48" xmlns="http://www.w3.org/2000/svg" xmlns:xlink="http://www.w3.org/1999/xlink"><defs><path id="a" d="M0 .151h47.849V48H0"/><path id="c" d="M0 .151h47.849V48H0"/><path id="e" d="M0 .151h47.849V48H0"/><path id="g" d="M0 .151h47.849V48H0"/></defs><g fill="none" fill-rule="evenodd"><mask id="b" fill="#fff"><use xlink:href="#a"/></mask><path d="M47.033.151H.816A.816.816 0 000 .968v46.216c0 .45.365.816.816.816h46.217c.45 0 .816-.365.816-.816V.968a.816.816 0 00-.816-.817" fill="#000" mask="url(#b)"/><mask id="d" fill="#fff"><use xlink:href="#c"/></mask><path d="M14.629 33.675a.283.283 0 01-.283.282h-1.8a.282.282 0 01-.282-.282V17.59h-2.35a.283.283 0 01-.283-.282v-1.71c0-.157.127-.283.283-.283h4.432c.156 0 .283.126.283.282v18.078z" fill="#FFF" mask="url(#d)"/><mask id="f" fill="#fff"><use xlink:href="#e"/></mask><path d="M39.306 17.308a.283.283 0 01-.283.282h-4.938v5.608h4.068c.156 0 .282.127.282.283v1.71a.283.283 0 01-.282.282h-4.068v8.202a.282.282 0 01-.283.282h-1.8a.282.282 0 01-.282-.282V15.597c0-.156.127-.282.283-.282h7.02c.156 0 .283.126.283.282v1.71z" fill="#FFF" mask="url(#f)"/><mask id="h" fill="#fff"><use xlink:href="#g"/></mask><path d="M23.174 31.949a3.442 3.442 0 01-3.438-3.439 3.442 3.442 0 013.438-3.438 3.442 3.442 0 013.438 3.438 3.442 3.442 0 01-3.438 3.439m0-14.658a2.752 2.752 0 012.75 2.75 2.752 2.752 0 01-2.75 2.749 2.753 2.753 0 01-2.75-2.75 2.753 2.753 0 012.75-2.75m3.27 6.548a5.026 5.026 0 001.762-3.798 5.037 5.037 0 00-5.032-5.03 5.037 5.037 0 00-5.031 5.03c0 1.462.658 2.85 1.762 3.798a5.657 5.657 0 00-2.45 4.672 5.726 5.726 0 005.72 5.72 5.726 5.726 0 005.72-5.72c0-1.89-.92-3.61-2.451-4.672" fill="#FFF" mask="url(#h)"/></g></svg>