<svg xmlns="http://www.w3.org/2000/svg" viewBox="0 0 113.36 92.4"><defs><filter id="luminosity-noclip" x="1.05" y="-8587.18" width="7.36" height="32766" filterUnits="userSpaceOnUse" color-interpolation-filters="sRGB"><feFlood flood-color="#fff" result="bg"/><feBlend in="SourceGraphic" in2="bg"/></filter><filter id="luminosity-noclip-2" x="5.91" y="-8587.18" width="10.89" height="32766" filterUnits="userSpaceOnUse" color-interpolation-filters="sRGB"><feFlood flood-color="#fff" result="bg"/><feBlend in="SourceGraphic" in2="bg"/></filter><filter id="luminosity-noclip-3" x="93.63" y="-8587.18" width="12.87" height="32766" filterUnits="userSpaceOnUse" color-interpolation-filters="sRGB"><feFlood flood-color="#fff" result="bg"/><feBlend in="SourceGraphic" in2="bg"/></filter><filter id="luminosity-noclip-4" x="104.42" y="-8587.18" width="7.82" height="32766" filterUnits="userSpaceOnUse" color-interpolation-filters="sRGB"><feFlood flood-color="#fff" result="bg"/><feBlend in="SourceGraphic" in2="bg"/></filter><style>.cls-2{fill:#02bfe7}.cls-4{fill:#e31c3d}.cls-6{fill:#0071bc}.cls-8{fill:#0a1c30}</style></defs><g mask="url(#mask)"><circle class="cls-2" cx="4.73" cy="55.29" r="3.68" transform="rotate(-45 4.732 55.29)"/></g><path class="cls-2" d="M3.74 58.39h2a3.74 3.74 0 013.74 3.74v5.5H0v-5.5a3.74 3.74 0 013.74-3.74z"/><g mask="url(#mask-2)"><circle class="cls-4" cx="11.35" cy="42.22" r="5.45" transform="rotate(-45 11.36 42.225)"/></g><path class="cls-4" d="M9.89 46.8h2.93a5.53 5.53 0 015.53 5.53v8.14h-14v-8.14a5.53 5.53 0 015.54-5.53z"/><g mask="url(#mask-3)"><circle class="cls-6" cx="100.07" cy="39.75" r="6.44" transform="rotate(-45 100.07 39.74)"/></g><path class="cls-6" d="M98.34 45.16h3.47a6.53 6.53 0 016.53 6.53v9.62H91.8v-9.62a6.53 6.53 0 016.54-6.53z"/><path class="cls-4" d="M70.05 39.18a5.23 5.23 0 01-.87.7h.25a3.63 3.63 0 013.63 3.63v1.91a10 10 0 017.24-2.09 13.11 13.11 0 00-8.75-8.22 5.19 5.19 0 01-1.5 4.07z"/><path class="cls-4" d="M73.37 61.75h.47a10 10 0 01-4.6-8.75h-9.56v-9.49a3.63 3.63 0 013.63-3.63h.25a5.21 5.21 0 116.5-8.07l.2.23a18.79 18.79 0 10-31.37-8 12 12 0 013.4 21.7h.57a8.37 8.37 0 018.37 8.37v2.19a8.29 8.29 0 014.48 15.28h.39a5.79 5.79 0 015.79 5.79v4.41h4.48v-13a7 7 0 017-7.03zm-32.6 14.14h-8v5.88h7.78v-4.41a5.77 5.77 0 01.22-1.47z"/><path class="cls-2" d="M85.16 61.75h-.47a10 10 0 00-4.38-18.42 13.05 13.05 0 01.76 4.38v34.06h-14.7v5.18h25.79v-18.2a7 7 0 00-7-7z"/><path d="M81.07 47.7a13.05 13.05 0 00-.76-4.38 10 10 0 00-7.24 2.09V53h-3.83a10 10 0 004.6 8.79h-.47a7 7 0 00-7 7v13h14.7zM45.9 34.6h.88A18.8 18.8 0 0138.89 24a12 12 0 00-9.57 21.7h-.57a8.38 8.38 0 00-8.38 8.37v21.82h12.42V47.7A13.1 13.1 0 0145.9 34.6z" fill="#205493"/><path class="cls-8" d="M46.36 71.57h.39a8.29 8.29 0 014.48-15.27v-2.19a8.37 8.37 0 00-8.37-8.37h-.57A12 12 0 0038.89 24a18.8 18.8 0 007.88 10.6h-.87a13.1 13.1 0 00-13.1 13.1v28.19h8a5.78 5.78 0 015.56-4.32z"/><path class="cls-2" d="M56.1 71.57h-.39a8.31 8.31 0 10-9 0h-.39a5.81 5.81 0 00-5.79 5.79v15h21.36v-15a5.79 5.79 0 00-5.79-5.79z"/><path class="cls-8" d="M69.43 39.88h-.25A5.21 5.21 0 0070.26 32l-.2-.23a5.21 5.21 0 10-6.5 8.07h-.25a3.63 3.63 0 00-3.63 3.63V53h13.38v-9.49a3.63 3.63 0 00-3.63-3.63z"/><g mask="url(#mask-4)"><circle class="cls-4" cx="108.34" cy="53.11" r="3.91" transform="rotate(-45 108.337 53.105)"/></g><path class="cls-4" d="M107.28 56.4h2.11a4 4 0 014 4v5.85h-10.08v-5.88a4 4 0 013.97-3.97z"/></svg>