<svg xmlns="http://www.w3.org/2000/svg" xmlns:xlink="http://www.w3.org/1999/xlink" viewBox="0 0 64 64"><defs><style>.cls-1{fill:none;}.cls-2{isolation:isolate;}.cls-3{fill:#112e51;}.cls-4{fill:#205493;}.cls-5{fill:#00bfe7;}.cls-6{fill:#328dc8;}.cls-7{clip-path:url(#clip-path);}.cls-8{clip-path:url(#clip-path-2);}.cls-9{clip-path:url(#clip-path-3);}.cls-10{fill:#5b616a;}.cls-11,.cls-12{fill:#0071bb;}.cls-11{opacity:0.34;mix-blend-mode:multiply;}.cls-13{fill:#e21c3d;}.cls-14{fill:#49505a;}.cls-15{fill:#fff;}</style><clipPath id="clip-path"><circle class="cls-1" cx="32" cy="32" r="25.5"/></clipPath><clipPath id="clip-path-2"><polygon class="cls-1" points="47.21 50.92 47.21 14.22 72.7 9.15 72.7 55.98 47.21 50.92"/></clipPath><clipPath id="clip-path-3"><polyline class="cls-1" points="47.21 46.06 47.21 19.07 72.7 9.15 72.7 55.98 47.21 46.06"/></clipPath></defs><title>vault</title><g class="cls-2"><g id="Layer_1" data-name="Layer 1"><circle class="cls-3" cx="32" cy="32" r="32"/><path class="cls-4" d="M32,0a32,32,0,0,0,0,64"/><ellipse class="cls-3" cx="32.46" cy="32" rx="25.96" ry="26.42"/><circle class="cls-5" cx="32" cy="32" r="25.5"/><circle class="cls-6" cx="24.46" cy="60.2" r="0.98" transform="translate(-40.02 68.25) rotate(-75)"/><circle class="cls-6" cx="39.54" cy="3.93" r="0.98" transform="translate(25.51 41.1) rotate(-75)"/><circle class="cls-6" cx="17.44" cy="57.29" r="0.98" transform="translate(-40.9 43.74) rotate(-60)"/><circle class="cls-6" cx="46.56" cy="6.84" r="0.98" transform="translate(17.36 43.74) rotate(-60)"/><circle class="cls-6" cx="11.4" cy="52.66" r="0.98" transform="translate(-33.9 23.49) rotate(-45)"/><circle class="cls-6" cx="52.6" cy="11.47" r="0.98" transform="translate(7.3 40.55) rotate(-45)"/><circle class="cls-6" cx="6.77" cy="46.63" r="0.98" transform="translate(-22.41 9.63) rotate(-30)"/><circle class="cls-6" cx="57.23" cy="17.5" r="0.98" transform="translate(-1.08 30.96) rotate(-30)"/><circle class="cls-6" cx="3.86" cy="39.6" r="0.98" transform="translate(-10.12 2.35) rotate(-15)"/><circle class="cls-6" cx="60.14" cy="24.53" r="0.98" transform="translate(-4.3 16.4) rotate(-15)"/><circle class="cls-6" cx="2.87" cy="32.06" r="0.98"/><circle class="cls-6" cx="61.13" cy="32.06" r="0.98"/><circle class="cls-6" cx="3.86" cy="24.53" r="0.98" transform="translate(-20.83 21.91) rotate(-75)"/><circle class="cls-6" cx="60.14" cy="39.6" r="0.98" transform="translate(6.32 87.44) rotate(-75)"/><circle class="cls-6" cx="6.77" cy="17.5" r="0.98" transform="translate(-11.77 14.62) rotate(-60)"/><circle class="cls-6" cx="57.23" cy="46.63" r="0.98" transform="translate(-11.77 72.87) rotate(-60)"/><circle class="cls-6" cx="11.4" cy="11.47" r="0.98" transform="translate(-4.77 11.42) rotate(-45)"/><circle class="cls-6" cx="52.6" cy="52.66" r="0.98" transform="translate(-21.83 52.62) rotate(-45)"/><circle class="cls-6" cx="17.44" cy="6.84" r="0.98" transform="translate(-1.08 9.63) rotate(-30)"/><circle class="cls-6" cx="46.56" cy="57.29" r="0.98" transform="translate(-22.41 30.96) rotate(-30)"/><circle class="cls-6" cx="24.46" cy="3.93" r="0.98" transform="translate(-0.18 6.46) rotate(-15)"/><circle class="cls-6" cx="39.54" cy="60.2" r="0.98" transform="translate(-14.23 12.28) rotate(-15)"/><circle class="cls-6" cx="32" cy="2.94" r="0.98"/><circle class="cls-6" cx="32" cy="61.19" r="0.98"/><g class="cls-7"><rect class="cls-3" x="18.12" y="18.2" width="28.83" height="28.61"/><polygon class="cls-3" points="56.77 14.16 46.71 18.29 46.68 46.81 57.24 51.03 62.13 35.34 60.36 19.36 56.77 14.16"/><rect class="cls-4" x="19.35" y="19.07" width="6.18" height="2.31"/><rect class="cls-5" x="21.89" y="20.02" width="1.09" height="0.41"/><rect class="cls-4" x="19.35" y="22.14" width="6.18" height="2.31"/><rect class="cls-5" x="21.89" y="23.09" width="1.09" height="0.41"/><rect class="cls-4" x="19.35" y="25.2" width="6.18" height="2.31"/><rect class="cls-5" x="21.89" y="26.15" width="1.09" height="0.41"/><rect class="cls-4" x="19.35" y="28.27" width="6.18" height="2.31"/><rect class="cls-5" x="21.89" y="29.22" width="1.09" height="0.41"/><rect class="cls-4" x="19.35" y="31.33" width="6.18" height="2.31"/><rect class="cls-5" x="21.89" y="32.28" width="1.09" height="0.41"/><rect class="cls-4" x="19.35" y="34.4" width="6.18" height="2.31"/><rect class="cls-5" x="21.89" y="35.35" width="1.09" height="0.41"/><rect class="cls-4" x="19.35" y="37.46" width="6.18" height="2.31"/><rect class="cls-5" x="21.89" y="38.41" width="1.09" height="0.41"/><rect class="cls-4" x="19.35" y="40.53" width="6.18" height="2.31"/><rect class="cls-5" x="21.89" y="41.48" width="1.09" height="0.41"/><rect class="cls-4" x="19.35" y="43.59" width="6.18" height="2.31"/><rect class="cls-5" x="21.89" y="44.54" width="1.09" height="0.41"/><rect class="cls-4" x="26.29" y="19.07" width="6.18" height="2.31"/><rect class="cls-5" x="28.83" y="20.02" width="1.09" height="0.41"/><rect class="cls-4" x="26.29" y="22.14" width="6.18" height="2.31"/><rect class="cls-5" x="28.83" y="23.09" width="1.09" height="0.41"/><rect class="cls-4" x="26.29" y="25.2" width="6.18" height="2.31"/><rect class="cls-5" x="28.83" y="26.15" width="1.09" height="0.41"/><rect class="cls-4" x="26.29" y="28.27" width="6.18" height="2.31"/><rect class="cls-5" x="28.83" y="29.22" width="1.09" height="0.41"/><rect class="cls-4" x="26.29" y="31.33" width="6.18" height="2.31"/><rect class="cls-5" x="28.83" y="32.28" width="1.09" height="0.41"/><rect class="cls-4" x="26.29" y="34.4" width="6.18" height="2.31"/><rect class="cls-5" x="28.83" y="35.35" width="1.09" height="0.41"/><rect class="cls-4" x="26.29" y="37.46" width="6.18" height="2.31"/><rect class="cls-5" x="28.83" y="38.41" width="1.09" height="0.41"/><rect class="cls-4" x="26.29" y="40.53" width="6.18" height="2.31"/><rect class="cls-5" x="28.83" y="41.48" width="1.09" height="0.41"/><rect class="cls-4" x="26.29" y="43.59" width="6.18" height="2.31"/><rect class="cls-5" x="28.83" y="44.54" width="1.09" height="0.41"/><rect class="cls-4" x="33.22" y="19.07" width="6.18" height="2.31"/><rect class="cls-5" x="35.77" y="20.02" width="1.09" height="0.41"/><rect class="cls-4" x="33.22" y="22.14" width="6.18" height="2.31"/><rect class="cls-5" x="35.77" y="23.09" width="1.09" height="0.41"/><rect class="cls-4" x="33.22" y="25.2" width="6.18" height="2.31"/><rect class="cls-5" x="35.77" y="26.15" width="1.09" height="0.41"/><rect class="cls-4" x="33.22" y="28.27" width="6.18" height="2.31"/><rect class="cls-5" x="35.77" y="29.22" width="1.09" height="0.41"/><rect class="cls-4" x="33.22" y="31.33" width="6.18" height="2.31"/><rect class="cls-5" x="35.77" y="32.28" width="1.09" height="0.41"/><rect class="cls-4" x="33.22" y="34.4" width="6.18" height="2.31"/><rect class="cls-5" x="35.77" y="35.35" width="1.09" height="0.41"/><rect class="cls-4" x="33.22" y="37.46" width="6.18" height="2.31"/><rect class="cls-5" x="35.77" y="38.41" width="1.09" height="0.41"/><rect class="cls-4" x="33.22" y="40.53" width="6.18" height="2.31"/><rect class="cls-5" x="35.77" y="41.48" width="1.09" height="0.41"/><rect class="cls-4" x="33.22" y="43.59" width="6.18" height="2.31"/><rect class="cls-5" x="35.77" y="44.54" width="1.09" height="0.41"/><rect class="cls-4" x="40.16" y="19.07" width="6.18" height="2.31"/><rect class="cls-5" x="42.7" y="20.02" width="1.09" height="0.41"/><rect class="cls-4" x="40.16" y="22.14" width="6.18" height="2.31"/><rect class="cls-5" x="42.7" y="23.09" width="1.09" height="0.41"/><rect class="cls-4" x="40.16" y="25.2" width="6.18" height="2.31"/><rect class="cls-5" x="42.7" y="26.15" width="1.09" height="0.41"/><rect class="cls-4" x="40.16" y="28.27" width="6.18" height="2.31"/><rect class="cls-5" x="42.7" y="29.22" width="1.09" height="0.41"/><rect class="cls-4" x="40.16" y="31.33" width="6.18" height="2.31"/><rect class="cls-5" x="42.7" y="32.28" width="1.09" height="0.41"/><rect class="cls-4" x="40.16" y="34.4" width="6.18" height="2.31"/><rect class="cls-5" x="42.7" y="35.35" width="1.09" height="0.41"/><rect class="cls-4" x="40.16" y="37.46" width="6.18" height="2.31"/><rect class="cls-5" x="42.7" y="38.41" width="1.09" height="0.41"/><rect class="cls-4" x="40.16" y="40.53" width="6.18" height="2.31"/><rect class="cls-5" x="42.7" y="41.48" width="1.09" height="0.41"/><rect class="cls-4" x="40.16" y="43.59" width="6.18" height="2.31"/><rect class="cls-5" x="42.7" y="44.54" width="1.09" height="0.41"/><g class="cls-2"><g class="cls-8"><g class="cls-9"><path class="cls-4" d="M48.65,19.51l.66-.24v.43l-.66.23v-.43m2.28-1.88-3.72,1.45v2.32l3.72-1.2V17.62"/><polyline class="cls-5" points="49.31 19.27 48.65 19.51 48.65 19.93 49.31 19.7 49.31 19.27"/><path class="cls-4" d="M48.65,22.72l.66-.18V23l-.66.17v-.43M50.94,21l-3.72,1.12v2.32l3.72-.87V21"/><polyline class="cls-5" points="49.31 22.54 48.65 22.72 48.65 23.14 49.31 22.97 49.31 22.54"/><path class="cls-4" d="M48.65,25.93l.66-.12v.44l-.66.11v-.43m2.28-1.48-3.72.79v2.32L50.94,27V24.45"/><polyline class="cls-5" points="49.31 25.81 48.65 25.93 48.65 26.36 49.31 26.25 49.31 25.81"/><path class="cls-4" d="M48.65,29.14l.66-.06v.43l-.66.05v-.43m2.28-1.28-3.72.46v2.32l3.72-.21V27.87"/><polyline class="cls-5" points="49.31 29.08 48.65 29.14 48.65 29.57 49.31 29.52 49.31 29.08"/><path class="cls-4" d="M48.65,32.35h.66v.43h-.66v-.43m2.28-1.07-3.72.13v2.32l3.72.13V31.28"/><polyline class="cls-5" points="49.31 32.35 48.65 32.35 48.65 32.78 49.31 32.78 49.31 32.35"/><path class="cls-4" d="M48.65,35.57l.66.05v.44L48.65,36v-.43m-1.44-1.07v2.32l3.72.45V34.7l-3.72-.21"/><polyline class="cls-5" points="48.65 35.56 48.65 35.99 49.31 36.06 49.31 35.62 48.65 35.56"/><path class="cls-4" d="M48.65,38.77l.66.11v.44l-.66-.12v-.43m-1.44-1.2v2.32l3.72.79V38.11l-3.72-.54"/><polyline class="cls-5" points="48.65 38.77 48.65 39.2 49.31 39.33 49.31 38.89 48.65 38.77"/><path class="cls-4" d="M48.65,42l.66.17v.43l-.66-.18V42m-1.44-1.33V43l3.72,1.12V41.53l-3.72-.87"/><polyline class="cls-5" points="48.65 41.99 48.65 42.42 49.31 42.59 49.31 42.16 48.65 41.99"/><path class="cls-4" d="M48.65,45.2l.66.23v.43l-.66-.24V45.2m-1.44-1.46v2.32l3.72,1.45V44.94l-3.72-1.2"/><polyline class="cls-5" points="48.65 45.2 48.65 45.63 49.31 45.87 49.31 45.43 48.65 45.2"/><path class="cls-4" d="M53.27,17.83l.84-.3V18l-.84.29v-.48m2.93-2.26-4.75,1.85V20l4.75-1.53V15.57"/><polyline class="cls-5" points="54.11 17.53 53.27 17.83 53.27 18.32 54.11 18.02 54.11 17.53"/><path class="cls-4" d="M53.27,21.46l.84-.23v.49l-.84.22v-.48m2.93-2-4.75,1.43v2.6l4.75-1.11V19.46"/><polyline class="cls-5" points="54.11 21.23 53.27 21.46 53.27 21.94 54.11 21.72 54.11 21.23"/><path class="cls-4" d="M53.27,25.08l.84-.15v.49l-.84.14v-.48m2.93-1.74-4.75,1V27l4.75-.69V23.34"/><polyline class="cls-5" points="54.11 24.93 53.27 25.08 53.27 25.56 54.11 25.42 54.11 24.93"/><path class="cls-4" d="M53.27,28.7l.84-.08v.49l-.84.07V28.7m2.93-1.48-4.75.58v2.6l4.75-.26V27.22"/><polyline class="cls-5" points="54.11 28.62 53.27 28.7 53.27 29.19 54.11 29.12 54.11 28.62"/><path class="cls-4" d="M53.27,32.33h.84v.49h-.84v-.48m2.93-1.22-4.75.16v2.6L56.2,34V31.11"/><polyline class="cls-5" points="54.11 32.32 53.27 32.33 53.27 32.81 54.11 32.81 54.11 32.32"/><path class="cls-4" d="M53.27,35.95l.84.07v.49l-.84-.08v-.48m-1.83-1.22v2.6l4.75.58V35l-4.75-.27"/><polyline class="cls-5" points="53.27 35.95 53.27 36.43 54.11 36.51 54.11 36.02 53.27 35.95"/><path class="cls-4" d="M53.27,39.57l.84.14v.5l-.84-.15v-.49m-1.83-1.38v2.6l4.75,1V38.87l-4.75-.69"/><polyline class="cls-5" points="53.27 39.57 53.27 40.05 54.11 40.21 54.11 39.71 53.27 39.57"/><path class="cls-4" d="M53.27,43.19l.84.22v.49l-.84-.23v-.48m-1.83-1.55v2.6l4.75,1.43V42.76l-4.75-1.11"/><polyline class="cls-5" points="53.27 43.2 53.27 43.68 54.11 43.91 54.11 43.41 53.27 43.2"/><path class="cls-4" d="M53.27,46.82l.84.29v.49l-.84-.3v-.48m-1.83-1.71v2.6l4.08,1.59.67.26V46.64l-4.75-1.53"/><polyline class="cls-5" points="53.27 46.82 53.27 47.3 54.11 47.6 54.11 47.11 53.27 46.82"/><path class="cls-10" d="M59.25,15.67l1.11-.4v.57l-1.11.39v-.55m3.89-2.8L60.37,14l-3.5,1.36v3l6.27-2V12.87"/><polyline class="cls-5" points="60.36 15.27 59.25 15.67 59.25 16.23 60.36 15.84 60.36 15.27"/><path class="cls-10" d="M59.25,19.83l1.11-.3v.56l-1.11.29v-.55m3.89-2.45-6.27,1.88v3l6.27-1.46V17.37"/><polyline class="cls-5" points="60.36 19.53 59.25 19.83 59.25 20.38 60.36 20.09 60.36 19.53"/><path class="cls-10" d="M59.25,24l1.11-.2v.57l-1.11.19V24m3.89-2.11L56.87,23.2v3l6.27-.9V21.87"/><polyline class="cls-5" points="60.36 23.78 59.25 23.98 59.25 24.54 60.36 24.35 60.36 23.78"/><path class="cls-4" d="M59.25,28.14,60.36,28v.56l-1.11.09v-.55m3.89-1.76-6.27.77v3l6.27-.35V26.37"/><polyline class="cls-5" points="60.36 28.03 59.25 28.14 59.25 28.69 60.36 28.6 60.36 28.03"/><path class="cls-4" d="M59.25,32.29h1.11v.56H59.25v-.55m3.89-1.42-6.27.21v3l6.27.21V30.87"/><polyline class="cls-5" points="60.36 32.28 59.25 32.29 59.25 32.84 60.36 32.85 60.36 32.28"/><path class="cls-4" d="M59.25,36.44l1.11.09v.57L59.25,37v-.56M56.87,35v3l6.27.77V35.37L56.87,35"/><polyline class="cls-5" points="59.25 36.45 59.25 37 60.36 37.11 60.36 36.53 59.25 36.45"/><path class="cls-10" d="M59.25,40.6l1.11.19v.57l-1.11-.2V40.6M56.87,39v3l6.27,1.33V39.87L56.87,39"/><polyline class="cls-5" points="59.25 40.6 59.25 41.15 60.36 41.36 60.36 40.79 59.25 40.6"/><path class="cls-10" d="M59.25,44.76l1.11.29v.56l-1.11-.3v-.55m-2.38-1.84v3l6.27,1.88V44.38l-6.27-1.46"/><polyline class="cls-5" points="59.25 44.76 59.25 45.31 60.36 45.61 60.36 45.05 59.25 44.76"/><path class="cls-10" d="M59.25,48.91l1.11.39v.56l-1.11-.4v-.55m-2.38-2.06v3l3.5,1.36,2.77,1.08V48.88l-6.27-2"/><polyline class="cls-5" points="59.25 48.91 59.25 49.46 60.36 49.86 60.36 49.3 59.25 48.91"/></g></g></g><path class="cls-11" d="M17.56,57.5,33.73,46.72l4.34-28.41L49.69,9.62l-12.11-5L29.92,3.27,20.53,5.19l-8.35,8s-2.51,14.74-2,15.05S8.3,41.68,8.3,41.68Z"/></g><ellipse class="cls-3" cx="15.77" cy="31.16" rx="7.97" ry="25.58"/><rect class="cls-3" x="9.35" y="5.58" width="6.42" height="51.16"/><ellipse class="cls-12" cx="9.35" cy="31.16" rx="7.97" ry="25.58"/><circle class="cls-13" cx="16.75" cy="9.28" r="0.98" transform="translate(-1.66 14.56) rotate(-45)"/><path class="cls-4" d="M3.79,49.5C5.23,54,7.19,56.74,9.35,56.74c4.4,0,8-11.45,8-25.58a70.35,70.35,0,0,0-1.43-14.61S12.56,22,8.5,33.05C4.38,44.24,3.79,49.5,3.79,49.5Z"/><circle class="cls-13" cx="19.07" cy="16.57" r="0.98" transform="translate(-5.73 11.75) rotate(-30)"/><circle class="cls-13" cx="20.29" cy="23.87" r="0.98" transform="translate(-5.49 6.06) rotate(-15)"/><circle class="cls-13" cx="20.6" cy="31.16" r="0.98"/><circle class="cls-13" cx="20.29" cy="38.45" r="0.98" transform="translate(-22.1 48.1) rotate(-75)"/><circle class="cls-13" cx="19.31" cy="45.75" r="0.98" transform="translate(-29.96 39.6) rotate(-60)"/><circle class="cls-13" cx="17.31" cy="53.04" r="0.98" transform="translate(-32.43 27.78) rotate(-45)"/><rect class="cls-14" x="7.94" y="23.6" width="1.01" height="15.13"/><ellipse class="cls-3" cx="8.95" cy="31.16" rx="2.76" ry="7.56"/><ellipse class="cls-4" cx="8.06" cy="31.16" rx="2.76" ry="7.56"/><ellipse class="cls-3" cx="8.06" cy="31.16" rx="1.9" ry="5.62"/><ellipse class="cls-13" cx="8.5" cy="31.16" rx="1.46" ry="5.62"/><rect class="cls-13" x="40.16" y="28.27" width="6.18" height="2.31"/><rect class="cls-15" x="42.7" y="29.22" width="1.09" height="0.41"/></g></g></svg>