<svg xmlns="http://www.w3.org/2000/svg" xmlns:xlink="http://www.w3.org/1999/xlink" viewBox="0 0 104 104"><defs><clipPath id="clip-path"><circle cx="52" cy="52" r="41.43" fill="none"/></clipPath><clipPath id="clip-path-2"><polygon points="76.72 82.74 76.72 23.1 118.14 14.87 118.14 90.97 76.72 82.74" fill="none"/></clipPath><clipPath id="clip-path-3"><polyline points="76.72 74.85 76.72 30.99 118.14 14.87 118.14 90.97 76.72 74.85" fill="none"/></clipPath></defs><title>vault</title><g style="isolation:isolate"><g id="Layer_2" data-name="Layer 2"><circle cx="52" cy="52" r="52" fill="#112e51"/><path d="M52,0a52,52,0,0,0,0,104" fill="#205493"/><ellipse cx="52.75" cy="52" rx="42.18" ry="42.94" fill="#112e51"/><circle cx="52" cy="52" r="41.43" fill="#00bfe7"/><circle cx="39.75" cy="97.82" r="1.59" transform="translate(-65.03 110.9) rotate(-75)" fill="#328dc8"/><circle cx="64.25" cy="6.38" r="1.59" transform="translate(41.45 66.79) rotate(-75)" fill="#328dc8"/><circle cx="28.33" cy="93.1" r="1.59" transform="translate(-66.46 71.09) rotate(-60)" fill="#328dc8"/><circle cx="75.67" cy="11.11" r="1.59" transform="translate(28.21 71.09) rotate(-60)" fill="#328dc8"/><circle cx="18.53" cy="85.57" r="1.59" transform="translate(-55.08 38.17) rotate(-45)" fill="#328dc8"/><circle cx="85.47" cy="18.63" r="1.59" transform="translate(11.86 65.89) rotate(-45)" fill="#328dc8"/><circle cx="11.01" cy="75.77" r="1.59" transform="translate(-36.41 15.66) rotate(-30)" fill="#328dc8"/><circle cx="92.99" cy="28.44" r="1.59" transform="translate(-1.76 50.31) rotate(-30)" fill="#328dc8"/><circle cx="6.28" cy="64.35" r="1.59" transform="translate(-16.44 3.82) rotate(-15)" fill="#328dc8"/><circle cx="97.72" cy="39.85" r="1.59" transform="translate(-6.99 26.65) rotate(-15)" fill="#328dc8"/><circle cx="4.67" cy="52.1" r="1.59" fill="#328dc8"/><circle cx="99.33" cy="52.1" r="1.59" fill="#328dc8"/><circle cx="6.28" cy="39.85" r="1.59" transform="translate(-33.84 35.6) rotate(-75)" fill="#328dc8"/><circle cx="97.72" cy="64.35" r="1.59" transform="translate(10.27 142.09) rotate(-75)" fill="#328dc8"/><circle cx="11.01" cy="28.44" r="1.59" transform="translate(-19.12 23.75) rotate(-60)" fill="#328dc8"/><circle cx="92.99" cy="75.77" r="1.59" transform="translate(-19.12 118.42) rotate(-60)" fill="#328dc8"/><circle cx="18.53" cy="18.63" r="1.59" transform="translate(-7.75 18.56) rotate(-45)" fill="#328dc8"/><circle cx="85.47" cy="85.57" r="1.59" transform="translate(-35.48 85.5) rotate(-45)" fill="#328dc8"/><circle cx="28.33" cy="11.11" r="1.59" transform="translate(-1.76 15.66) rotate(-30)" fill="#328dc8"/><circle cx="75.67" cy="93.1" r="1.59" transform="matrix(0.87, -0.5, 0.5, 0.87, -36.41, 50.31)" fill="#328dc8"/><circle cx="39.75" cy="6.38" r="1.59" transform="translate(-0.3 10.51) rotate(-15)" fill="#328dc8"/><circle cx="64.25" cy="97.82" r="1.59" transform="translate(-23.13 19.96) rotate(-15)" fill="#328dc8"/><circle cx="52" cy="4.77" r="1.59" fill="#328dc8"/><circle cx="52" cy="99.44" r="1.59" fill="#328dc8"/><g clip-path="url(#clip-path)"><rect x="29.44" y="29.57" width="46.84" height="46.5" fill="#112e51"/><polygon points="92.26 23.01 75.9 29.72 75.86 76.07 93.01 82.93 100.96 57.44 98.08 31.45 92.26 23.01" fill="#112e51"/><rect x="31.44" y="30.99" width="10.04" height="3.75" fill="#205493"/><rect x="35.57" y="32.53" width="1.78" height="0.66" fill="#00bfe7"/><rect x="31.44" y="35.97" width="10.04" height="3.75" fill="#205493"/><rect x="35.57" y="37.51" width="1.78" height="0.66" fill="#00bfe7"/><rect x="31.44" y="40.95" width="10.04" height="3.75" fill="#205493"/><rect x="35.57" y="42.49" width="1.78" height="0.66" fill="#00bfe7"/><rect x="31.44" y="45.93" width="10.04" height="3.75" fill="#205493"/><rect x="35.57" y="47.48" width="1.78" height="0.66" fill="#00bfe7"/><rect x="31.44" y="50.91" width="10.04" height="3.75" fill="#205493"/><rect x="35.57" y="52.46" width="1.78" height="0.66" fill="#00bfe7"/><rect x="31.44" y="55.89" width="10.04" height="3.75" fill="#205493"/><rect x="35.57" y="57.44" width="1.78" height="0.66" fill="#00bfe7"/><rect x="31.44" y="60.87" width="10.04" height="3.75" fill="#205493"/><rect x="35.57" y="62.42" width="1.78" height="0.66" fill="#00bfe7"/><rect x="31.44" y="65.86" width="10.04" height="3.75" fill="#205493"/><rect x="35.57" y="67.4" width="1.78" height="0.66" fill="#00bfe7"/><rect x="31.44" y="70.84" width="10.04" height="3.75" fill="#205493"/><rect x="35.57" y="72.38" width="1.78" height="0.66" fill="#00bfe7"/><rect x="42.71" y="30.99" width="10.04" height="3.75" fill="#205493"/><rect x="46.85" y="32.53" width="1.78" height="0.66" fill="#00bfe7"/><rect x="42.71" y="35.97" width="10.04" height="3.75" fill="#205493"/><rect x="46.85" y="37.51" width="1.78" height="0.66" fill="#00bfe7"/><rect x="42.71" y="40.95" width="10.04" height="3.75" fill="#205493"/><rect x="46.85" y="42.49" width="1.78" height="0.66" fill="#00bfe7"/><rect x="42.71" y="45.93" width="10.04" height="3.75" fill="#205493"/><rect x="46.85" y="47.48" width="1.78" height="0.66" fill="#00bfe7"/><rect x="42.71" y="50.91" width="10.04" height="3.75" fill="#205493"/><rect x="46.85" y="52.46" width="1.78" height="0.66" fill="#00bfe7"/><rect x="42.71" y="55.89" width="10.04" height="3.75" fill="#205493"/><rect x="46.85" y="57.44" width="1.78" height="0.66" fill="#00bfe7"/><rect x="42.71" y="60.87" width="10.04" height="3.75" fill="#205493"/><rect x="46.85" y="62.42" width="1.78" height="0.66" fill="#00bfe7"/><rect x="42.71" y="65.86" width="10.04" height="3.75" fill="#205493"/><rect x="46.85" y="67.4" width="1.78" height="0.66" fill="#00bfe7"/><rect x="42.71" y="70.84" width="10.04" height="3.75" fill="#205493"/><rect x="46.85" y="72.38" width="1.78" height="0.66" fill="#00bfe7"/><rect x="53.99" y="30.99" width="10.04" height="3.75" fill="#205493"/><rect x="58.12" y="32.53" width="1.78" height="0.66" fill="#00bfe7"/><rect x="53.99" y="35.97" width="10.04" height="3.75" fill="#205493"/><rect x="58.12" y="37.51" width="1.78" height="0.66" fill="#00bfe7"/><rect x="53.99" y="40.95" width="10.04" height="3.75" fill="#205493"/><rect x="58.12" y="42.49" width="1.78" height="0.66" fill="#00bfe7"/><rect x="53.99" y="45.93" width="10.04" height="3.75" fill="#205493"/><rect x="58.12" y="47.48" width="1.78" height="0.66" fill="#00bfe7"/><rect x="53.99" y="50.91" width="10.04" height="3.75" fill="#205493"/><rect x="58.12" y="52.46" width="1.78" height="0.66" fill="#00bfe7"/><rect x="53.99" y="55.89" width="10.04" height="3.75" fill="#205493"/><rect x="58.12" y="57.44" width="1.78" height="0.66" fill="#00bfe7"/><rect x="53.99" y="60.87" width="10.04" height="3.75" fill="#205493"/><rect x="58.12" y="62.42" width="1.78" height="0.66" fill="#00bfe7"/><rect x="53.99" y="65.86" width="10.04" height="3.75" fill="#205493"/><rect x="58.12" y="67.4" width="1.78" height="0.66" fill="#00bfe7"/><rect x="53.99" y="70.84" width="10.04" height="3.75" fill="#205493"/><rect x="58.12" y="72.38" width="1.78" height="0.66" fill="#00bfe7"/><rect x="65.26" y="30.99" width="10.04" height="3.75" fill="#205493"/><rect x="69.39" y="32.53" width="1.78" height="0.66" fill="#00bfe7"/><rect x="65.26" y="35.97" width="10.04" height="3.75" fill="#205493"/><rect x="69.39" y="37.51" width="1.78" height="0.66" fill="#00bfe7"/><rect x="65.26" y="40.95" width="10.04" height="3.75" fill="#205493"/><rect x="69.39" y="42.49" width="1.78" height="0.66" fill="#00bfe7"/><rect x="65.26" y="45.93" width="10.04" height="3.75" fill="#205493"/><rect x="69.39" y="47.48" width="1.78" height="0.66" fill="#00bfe7"/><rect x="65.26" y="50.91" width="10.04" height="3.75" fill="#205493"/><rect x="69.39" y="52.46" width="1.78" height="0.66" fill="#00bfe7"/><rect x="65.26" y="55.89" width="10.04" height="3.75" fill="#205493"/><rect x="69.39" y="57.44" width="1.78" height="0.66" fill="#00bfe7"/><rect x="65.26" y="60.87" width="10.04" height="3.75" fill="#205493"/><rect x="69.39" y="62.42" width="1.78" height="0.66" fill="#00bfe7"/><rect x="65.26" y="65.86" width="10.04" height="3.75" fill="#205493"/><rect x="69.39" y="67.4" width="1.78" height="0.66" fill="#00bfe7"/><rect x="65.26" y="70.84" width="10.04" height="3.75" fill="#205493"/><rect x="69.39" y="72.38" width="1.78" height="0.66" fill="#00bfe7"/><g style="isolation:isolate"><g clip-path="url(#clip-path-2)"><g clip-path="url(#clip-path-3)"><path d="M79.06,31.7l1.07-.39V32l-1.07.37V31.7m3.71-3.06-6,2.35v3.77l6-2V28.64" fill="#205493"/><polyline points="80.13 31.31 79.06 31.7 79.06 32.39 80.13 32.02 80.13 31.31" fill="#00bfe7"/><path d="M79.06,36.92l1.07-.29v.71l-1.07.28v-.69m3.71-2.73-6,1.82v3.77l6-1.41V34.19" fill="#205493"/><polyline points="80.13 36.62 79.06 36.92 79.06 37.61 80.13 37.33 80.13 36.62" fill="#00bfe7"/><path d="M79.06,42.13l1.07-.19v.71l-1.07.18v-.7m3.71-2.4-6,1.28v3.77l6-.87V39.74" fill="#205493"/><polyline points="80.13 41.94 79.06 42.13 79.06 42.83 80.13 42.65 80.13 41.94" fill="#00bfe7"/><path d="M79.06,47.36l1.07-.1V48l-1.07.09v-.69m3.71-2.07-6,.74V49.8l6-.34V45.28" fill="#205493"/><polyline points="80.13 47.26 79.06 47.36 79.06 48.05 80.13 47.96 80.13 47.26" fill="#00bfe7"/><path d="M79.06,52.57h1.07v.71H79.06v-.69m3.71-1.74-6,.21v3.77l6,.21V50.83" fill="#205493"/><polyline points="80.13 52.57 79.06 52.57 79.06 53.27 80.13 53.27 80.13 52.57" fill="#00bfe7"/><path d="M79.06,57.79l1.07.09v.71l-1.07-.1v-.7M76.72,56v3.77l6,.74V56.38l-6-.34" fill="#205493"/><polyline points="79.06 57.79 79.06 58.49 80.13 58.59 80.13 57.88 79.06 57.79" fill="#00bfe7"/><path d="M79.06,63l1.07.18v.71l-1.07-.2V63m-2.34-2v3.77l6,1.28V61.93l-6-.87" fill="#205493"/><polyline points="79.06 63.01 79.06 63.71 80.13 63.91 80.13 63.19 79.06 63.01" fill="#00bfe7"/><path d="M79.06,68.23l1.07.28v.71l-1.07-.29v-.69m-2.34-2.16v3.77l6,1.82V67.48l-6-1.41" fill="#205493"/><polyline points="79.06 68.23 79.06 68.93 80.13 69.22 80.13 68.51 79.06 68.23" fill="#00bfe7"/><path d="M79.06,73.45l1.07.38v.71l-1.07-.39v-.7m-2.34-2.37v3.77l6,2.35V73l-6-2" fill="#205493"/><polyline points="79.06 73.45 79.06 74.15 80.13 74.53 80.13 73.83 79.06 73.45" fill="#00bfe7"/><path d="M86.57,29l1.36-.49v.8l-1.36.48V29m4.76-3.67-7.72,3v4.23l7.72-2.49V25.31" fill="#205493"/><polyline points="87.93 28.49 86.57 28.98 86.57 29.77 87.93 29.29 87.93 28.49" fill="#00bfe7"/><path d="M86.57,34.87l1.36-.37v.8l-1.36.35v-.78m4.76-3.25L83.6,33.93v4.23l7.72-1.81V31.61" fill="#205493"/><polyline points="87.93 34.5 86.57 34.87 86.57 35.65 87.93 35.3 87.93 34.5" fill="#00bfe7"/><path d="M86.57,40.75l1.36-.25v.8l-1.36.23v-.78m4.76-2.83L83.6,39.56v4.24l7.72-1.12V37.93" fill="#205493"/><polyline points="87.93 40.51 86.57 40.76 86.57 41.54 87.93 41.3 87.93 40.51" fill="#00bfe7"/><path d="M86.57,46.64l1.36-.13v.8l-1.36.11v-.78m4.76-2.4-7.72.94v4.23L91.33,49V44.24" fill="#205493"/><polyline points="87.93 46.51 86.57 46.64 86.57 47.43 87.93 47.31 87.93 46.51" fill="#00bfe7"/><path d="M86.57,52.53h1.36v.8H86.57v-.78m4.76-2-7.72.26V55l7.72.26V50.55" fill="#205493"/><polyline points="87.93 52.52 86.57 52.53 86.57 53.31 87.93 53.32 87.93 52.52" fill="#00bfe7"/><path d="M86.57,58.42l1.36.11v.8l-1.36-.13v-.78m-3-2v4.23l7.72.95V56.86l-7.72-.43" fill="#205493"/><polyline points="86.57 58.42 86.57 59.2 87.93 59.33 87.93 58.53 86.57 58.42" fill="#00bfe7"/><path d="M86.57,64.3l1.36.23v.8l-1.36-.25V64.3m-3-2.25v4.23l7.72,1.63V63.17L83.6,62.05" fill="#205493"/><polyline points="86.57 64.3 86.57 65.09 87.93 65.34 87.93 64.53 86.57 64.3" fill="#00bfe7"/><path d="M86.57,70.19l1.36.36v.8L86.57,71v-.78m-3-2.51v4.23l7.72,2.32V69.48l-7.72-1.8" fill="#205493"/><polyline points="86.57 70.19 86.57 70.98 87.93 71.35 87.93 70.55 86.57 70.19" fill="#00bfe7"/><path d="M86.57,76.08l1.36.48v.8l-1.36-.49v-.78m-3-2.78v4.23l6.64,2.59,1.09.42V75.79L83.6,73.3" fill="#205493"/><polyline points="86.57 76.08 86.57 76.86 87.93 77.35 87.93 76.56 86.57 76.08" fill="#00bfe7"/><path d="M96.28,25.47l1.8-.65v.92l-1.8.63v-.9m6.32-4.55L98.1,22.67l-5.69,2.22v4.82l10.2-3.29v-5.5" fill="#5b616a"/><polyline points="98.08 24.82 96.28 25.47 96.28 26.37 98.08 25.74 98.08 24.82" fill="#00bfe7"/><path d="M96.28,32.22l1.8-.49v.92l-1.8.47v-.9m6.32-4-10.2,3.06v4.82l10.2-2.38v-5.5" fill="#5b616a"/><polyline points="98.08 31.73 96.28 32.22 96.28 33.12 98.08 32.65 98.08 31.73" fill="#00bfe7"/><path d="M96.28,39l1.8-.33v.93l-1.8.31V39m6.32-3.43L92.41,37.7v4.82L102.6,41V35.54" fill="#5b616a"/><polyline points="98.08 38.64 96.28 38.97 96.28 39.87 98.08 39.56 98.08 38.64" fill="#00bfe7"/><path d="M96.28,45.72l1.8-.17v.92l-1.8.15v-.9m6.32-2.86-10.2,1.25v4.82l10.2-.57v-5.5" fill="#205493"/><polyline points="98.08 45.55 96.28 45.72 96.28 46.62 98.08 46.47 98.08 45.55" fill="#00bfe7"/><path d="M96.28,52.47h1.8v.92h-1.8v-.9m6.32-2.3-10.2.34v4.82l10.2.34v-5.5" fill="#205493"/><polyline points="98.08 52.46 96.28 52.47 96.28 53.37 98.08 53.38 98.08 52.46" fill="#00bfe7"/><path d="M96.28,59.22l1.8.15v.93l-1.8-.17v-.9m-3.87-2.31v4.82L102.6,63v-5.5l-10.2-.57" fill="#205493"/><polyline points="96.28 59.22 96.28 60.13 98.08 60.3 98.08 59.37 96.28 59.22" fill="#00bfe7"/><path d="M96.28,66l1.8.31v.92l-1.8-.33V66m-3.87-2.65v4.83l10.2,2.15V64.8l-10.2-1.47" fill="#5b616a"/><polyline points="96.28 65.97 96.28 66.88 98.08 67.2 98.08 66.28 96.28 65.97" fill="#00bfe7"/><path d="M96.28,72.73l1.8.47v.92l-1.8-.49v-.9m-3.87-3v4.82l10.2,3.06v-5.5l-10.2-2.38" fill="#5b616a"/><polyline points="96.28 72.73 96.28 73.63 98.08 74.11 98.08 73.2 96.28 72.73" fill="#00bfe7"/><path d="M96.28,79.48l1.8.63V81l-1.8-.65v-.89m-3.87-3.34V81l5.69,2.22,4.51,1.75v-5.5l-10.2-3.29" fill="#5b616a"/><polyline points="96.28 79.48 96.28 80.37 98.08 81.02 98.08 80.1 96.28 79.48" fill="#00bfe7"/></g></g></g><path d="M28.54,93.43,54.81,75.92l7.06-46.17L80.74,15.63,61.05,7.48,48.62,5.31,33.36,8.44l-13.58,13s-4.08,23.95-3.19,24.46-3.1,21.8-3.1,21.8Z" fill="#0071bb" opacity="0.34" style="mix-blend-mode:multiply"/></g><ellipse cx="25.63" cy="50.63" rx="12.95" ry="41.57" fill="#112e51"/><rect x="15.19" y="9.06" width="10.44" height="83.14" fill="#112e51"/><ellipse cx="15.19" cy="50.63" rx="12.95" ry="41.57" fill="#0071bb"/><circle cx="27.21" cy="15.08" r="1.59" transform="translate(-2.69 23.66) rotate(-45)" fill="#e21c3d"/><path d="M6.16,80.43c2.33,7.28,5.52,11.77,9,11.77,7.15,0,12.95-18.61,12.95-41.57a114.31,114.31,0,0,0-2.32-23.74s-5.41,8.89-12,26.82C7.11,71.89,6.16,80.43,6.16,80.43Z" fill="#205493"/><circle cx="30.98" cy="26.93" r="1.59" transform="translate(-9.31 19.1) rotate(-30)" fill="#e21c3d"/><circle cx="32.97" cy="38.78" r="1.59" transform="translate(-8.91 9.86) rotate(-15)" fill="#e21c3d"/><circle cx="33.47" cy="50.63" r="1.59" fill="#e21c3d"/><circle cx="32.97" cy="62.49" r="1.59" transform="translate(-35.92 78.16) rotate(-75)" fill="#e21c3d"/><circle cx="31.39" cy="74.34" r="1.59" transform="translate(-48.69 64.35) rotate(-60)" fill="#e21c3d"/><circle cx="28.13" cy="86.19" r="1.59" transform="translate(-52.7 45.14) rotate(-45)" fill="#e21c3d"/><rect x="12.9" y="38.34" width="1.65" height="24.58" fill="#49505a"/><ellipse cx="14.54" cy="50.63" rx="4.49" ry="12.29" fill="#112e51"/><ellipse cx="13.09" cy="50.63" rx="4.49" ry="12.29" fill="#205493"/><ellipse cx="13.09" cy="50.63" rx="3.09" ry="9.13" fill="#112e51"/><ellipse cx="13.81" cy="50.63" rx="2.37" ry="9.13" fill="#e21c3d"/><rect x="65.26" y="45.93" width="10.04" height="3.75" fill="#e21c3d"/><rect x="69.39" y="47.48" width="1.78" height="0.66" fill="#fff"/></g></g></svg>