<svg xmlns="http://www.w3.org/2000/svg" xmlns:xlink="http://www.w3.org/1999/xlink" viewBox="0 0 192 177.11"><defs><linearGradient id="linear-gradient" x1="34.08" x2="164.41" y1="28.59" y2="141.26" gradientUnits="userSpaceOnUse"><stop offset="0" stop-color="#0071bb"/><stop offset=".22" stop-color="#205493"/><stop offset="1" stop-color="#14365e"/></linearGradient><linearGradient id="New_Gradient_Swatch_2" x1="60.95" x2="170.06" y1="31.67" y2="177.74" gradientUnits="userSpaceOnUse"><stop offset="0" stop-color="#0071bb"/><stop offset=".53" stop-color="#205493"/><stop offset="1" stop-color="#14365e"/></linearGradient><linearGradient id="linear-gradient-2" x1="76.29" x2="130.41" y1="58.17" y2="118.73" gradientUnits="userSpaceOnUse"><stop offset="0" stop-color="#0071bb"/><stop offset="1" stop-color="#205493"/></linearGradient><linearGradient id="linear-gradient-3" x1="5.02" x2="92.75" y1="60.08" y2="60.08" gradientUnits="userSpaceOnUse"><stop offset=".75" stop-color="#0071bb"/><stop offset="1" stop-color="#205493"/></linearGradient><linearGradient id="New_Gradient_Swatch_1" x1="1.92" x2="19.44" y1="15.68" y2="15.68" gradientUnits="userSpaceOnUse"><stop offset=".53" stop-color="#0071bb"/><stop offset="1" stop-color="#205493"/></linearGradient><linearGradient xlink:href="#linear-gradient-3" id="linear-gradient-4" x1="5.02" x2="92.75" y1="117.65" y2="117.65"/><linearGradient xlink:href="#New_Gradient_Swatch_1" id="New_Gradient_Swatch_1-2" x1="1.92" x2="19.44" y1="162.05" y2="162.05"/><symbol id="New_Symbol_4" viewBox="0 0 8.5 83.83"><rect width="5.49" height="19.75" x="1.51" y="9.05" class="cls-1" rx="2" ry="2"/><rect width="8.5" height="11.63" class="cls-2" rx="2" ry="2"/><rect width="8.5" height="10.16" y="13.63" class="cls-2" rx="1.87" ry="1.87"/><path d="m8.5 75.7-4.25 8.13L0 75.7V27.65a1.87 1.87 0 0 1 1.87-1.87h4.76a1.87 1.87 0 0 1 1.87 1.87z" class="cls-2"/></symbol><style>.cls-1{fill:#b51e23}.cls-2{fill:#e21c3d}.cls-6{fill:#205493}.cls-7{fill:#112e51}.cls-8{fill:#32ccec}.cls-11{fill:#0072bd}.cls-12{fill:#e21d3e}.cls-15{fill:#00bfe7}</style></defs><circle cx="103.45" cy="88.55" r="88.55" fill="url(#linear-gradient)"/><circle cx="103.45" cy="88.55" r="72.84" fill="url(#New_Gradient_Swatch_2)" opacity=".39"/><circle cx="103.45" cy="88.55" r="43.07" fill="url(#linear-gradient-2)"/><rect width="34.96" height="22.26" x="86.07" y="30.32" class="cls-6" rx="3" ry="3"/><path d="M10.47 11.44h31.61v17.84H10.47z" class="cls-7"/><circle cx="24.15" cy="16.26" r="1.87" class="cls-2"/><circle cx="32.31" cy="16.26" r="1.87" class="cls-2"/><circle cx="28.12" cy="20.87" r="1.87" class="cls-2"/><circle cx="24.1" cy="25.15" r="1.87" class="cls-2"/><circle cx="32.31" cy="25.15" r="1.87" class="cls-2"/><rect width="6.21" height="54.3" x="7.37" y="2.62" class="cls-8" rx="2.92" ry="2.92"/><path fill="url(#linear-gradient-3)" d="M94.63 7.5H44.9a9.31 9.31 0 0 0-9.31 9.31V18a7 7 0 0 1-7 7H3.09a1.16 1.16 0 0 0-1.16 1.16v25.11a1.16 1.16 0 0 0 1.16 1.16h25.52a7 7 0 0 1 7 7v53.24h31.7V38a9.41 9.41 0 0 1 9.43-9.31h17.9z"/><path fill="url(#New_Gradient_Swatch_1)" d="M3.92 6.92h13.52a2 2 0 0 1 2 2v15.52H1.92V8.92a2 2 0 0 1 2-2"/><rect width="6.21" height="20.7" x="100.03" y="3.78" class="cls-8" rx="2.92" ry="2.92"/><path d="M94.58 29.89c0-2.5 17.93-2.5 17.93 0V7.5c0-2.5-17.93-2.5-17.93 0z" class="cls-11"/><path d="M95.75 53.17h15.6a1.16 1.16 0 0 0 1.16-1.17V30.77c0-2.5-17.93-2.5-17.93 0V52a1.16 1.16 0 0 0 1.17 1.17" class="cls-11"/><circle cx="90.46" cy="34.79" r="2.1" class="cls-7"/><circle cx="90.46" cy="41.45" r="2.1" class="cls-7"/><circle cx="90.46" cy="48.12" r="2.1" class="cls-7"/><circle cx="116.64" cy="34.79" r="2.1" class="cls-7"/><circle cx="116.64" cy="41.45" r="2.1" class="cls-7"/><circle cx="116.64" cy="48.12" r="2.1" class="cls-7"/><rect width="34.96" height="22.26" x="86.07" y="125.14" class="cls-6" rx="3" ry="3"/><path d="M10.47 148.44h31.61v17.84H10.47z" class="cls-7"/><circle cx="24.15" cy="161.46" r="1.87" class="cls-12"/><circle cx="32.31" cy="161.46" r="1.87" class="cls-12"/><circle cx="28.12" cy="156.86" r="1.87" class="cls-12"/><circle cx="24.1" cy="152.58" r="1.87" class="cls-12"/><circle cx="32.31" cy="152.58" r="1.87" class="cls-12"/><rect width="6.21" height="54.3" x="7.37" y="120.81" class="cls-8" rx="2.92" ry="2.92"/><path fill="url(#linear-gradient-4)" d="M94.63 170.22H44.9a9.31 9.31 0 0 1-9.31-9.31v-1.23a7 7 0 0 0-7-7H3.09a1.16 1.16 0 0 1-1.16-1.16v-25.06a1.16 1.16 0 0 1 1.16-1.16h25.52a7 7 0 0 0 7-7V65.07h31.7v74.66a9.41 9.41 0 0 0 9.42 9.27h17.9z"/><path fill="url(#New_Gradient_Swatch_1-2)" d="M1.92 153.29h17.52v15.52a2 2 0 0 1-2 2H3.92a2 2 0 0 1-2-2z"/><rect width="6.21" height="20.7" x="100.03" y="153.24" class="cls-8" rx="2.92" ry="2.92"/><path d="M94.58 147.83c0 2.5 17.93 2.5 17.93 0v22.39c0 2.5-17.93 2.5-17.93 0z" class="cls-11"/><path d="M95.75 124.55h15.6a1.16 1.16 0 0 1 1.16 1.16v21.23c0 2.5-17.93 2.5-17.93 0v-21.22a1.16 1.16 0 0 1 1.17-1.17" class="cls-11"/><circle cx="90.46" cy="142.94" r="2.1" class="cls-7"/><circle cx="90.46" cy="136.27" r="2.1" class="cls-7"/><circle cx="90.46" cy="129.61" r="2.1" class="cls-7"/><circle cx="116.64" cy="142.94" r="2.1" class="cls-7"/><circle cx="116.64" cy="136.27" r="2.1" class="cls-7"/><circle cx="116.64" cy="129.61" r="2.1" class="cls-7"/><path d="M2 86.13h75.27V91H2a2 2 0 0 1-2-2v-.86a2 2 0 0 1 2-2.01" class="cls-15"/><rect width="6.66" height="22.79" x="21.46" y="77.16" class="cls-2" rx="2" ry="2"/><circle cx="24.79" cy="80.88" r="1.94" class="cls-7"/><circle cx="24.79" cy="96.23" r="1.94" class="cls-7"/><rect width="8.25" height="34.73" x="4.14" y="71.19" class="cls-2" rx="2" ry="2"/><circle cx="8.27" cy="74.91" r="1.94" class="cls-7"/><circle cx="8.27" cy="102.2" r="1.94" class="cls-7"/><circle cx="103.45" cy="88.55" r="27.06" class="cls-6"/><circle cx="103.45" cy="88.55" r="26.18" fill="#0071bb"/><circle cx="103.45" cy="88.55" r="17.62" class="cls-7"/><use xlink:href="#New_Symbol_4" width="8.5" height="83.83" transform="matrix(.58 0 0 .58 100.97 39.78)"/><use xlink:href="#New_Symbol_4" width="8.5" height="83.83" transform="translate(105.92 137.33)scale(-.58)"/><use xlink:href="#New_Symbol_4" width="8.5" height="83.83" transform="rotate(-60 87.411 -18.78)scale(.58)"/><use xlink:href="#New_Symbol_4" width="8.5" height="83.83" transform="rotate(120 41.475 97.812)scale(.58)"/><use xlink:href="#New_Symbol_4" width="8.5" height="83.83" transform="rotate(240 64.44 39.515)scale(.58)"/><use xlink:href="#New_Symbol_4" width="8.5" height="83.83" transform="rotate(60 18.505 156.112)scale(.58)"/><circle cx="103.45" cy="88.55" r="5.91" class="cls-2"/><path d="M103.45 110.19a21.63 21.63 0 1 1 21.63-21.63 21.63 21.63 0 0 1-21.63 21.63m15.3-21.63a15.3 15.3 0 1 0-15.3 15.3 15.3 15.3 0 0 0 15.29-15.31z" class="cls-15"/><circle cx="103.45" cy="88.55" r="15.33" class="cls-7"/><path fill="#fff" d="M99.94 84h7.44v9.55h-7.44z"/><path d="m101.65 92 .63-3.58a1.9 1.9 0 0 1 1.17-3.4V81H98.6a1.88 1.88 0 0 0-1.88 1.88v9.22a1.1 1.1 0 0 0 .11.5c.41.82 2 3.47 6.61 5.49v-6a10.5 10.5 0 0 1-1.79-.09" class="cls-12"/><path d="M108.29 81h-4.84v4a1.9 1.9 0 0 1 1.19 3.39l.63 3.6a10.5 10.5 0 0 1-1.82.16v6c4.59-2 6.2-4.67 6.61-5.49a1.1 1.1 0 0 0 .11-.5V82.9a1.88 1.88 0 0 0-1.88-1.9" class="cls-1"/></svg>