<svg id="Layer_1" data-name="Layer 1" xmlns="http://www.w3.org/2000/svg" xmlns:xlink="http://www.w3.org/1999/xlink" viewBox="0 0 192 178"><defs><style>.cls-1{fill:#b51e23;}.cls-2{fill:#e21c3d;}.cls-3{fill:#112e51;}.cls-4,.cls-5{fill:#205493;}.cls-4{opacity:0.39;}.cls-6{fill:#32ccec;}.cls-7{fill:url(#New_Gradient_Swatch_1);}.cls-8{fill:url(#New_Gradient_Swatch_1-2);}.cls-9{fill:#0071bb;}.cls-10{fill:#e21d3e;}.cls-11{fill:url(#New_Gradient_Swatch_1-3);}.cls-12{fill:url(#New_Gradient_Swatch_1-4);}.cls-13{fill:#00bfe7;}.cls-14{fill:#fff;}</style><linearGradient id="New_Gradient_Swatch_1" x1="6.64" y1="60.08" x2="102.81" y2="60.08" gradientUnits="userSpaceOnUse"><stop offset="0.53" stop-color="#0071bb"/><stop offset="1" stop-color="#205493"/></linearGradient><linearGradient id="New_Gradient_Swatch_1-2" x1="1.92" y1="15.68" x2="19.44" y2="15.68" xlink:href="#New_Gradient_Swatch_1"/><linearGradient id="New_Gradient_Swatch_1-3" x1="6.64" y1="117.65" x2="102.81" y2="117.65" xlink:href="#New_Gradient_Swatch_1"/><linearGradient id="New_Gradient_Swatch_1-4" x1="1.92" y1="162.05" x2="19.44" y2="162.05" xlink:href="#New_Gradient_Swatch_1"/><symbol id="New_Symbol_4" data-name="New Symbol 4" viewBox="0 0 8.5 83.83"><rect class="cls-1" x="1.51" y="9.05" width="5.49" height="19.75" rx="2" ry="2"/><rect class="cls-2" width="8.5" height="11.63" rx="2" ry="2"/><rect class="cls-2" y="13.63" width="8.5" height="10.16" rx="1.87" ry="1.87"/><path class="cls-2" d="M8.5,75.7,4.25,83.83,0,75.7V27.65a1.87,1.87,0,0,1,1.87-1.87H6.63A1.87,1.87,0,0,1,8.5,27.65Z"/></symbol></defs><title>vault-door</title><circle class="cls-3" cx="103.45" cy="88.55" r="88.55"/><circle class="cls-4" cx="103.45" cy="88.55" r="72.84"/><circle class="cls-4" cx="103.45" cy="88.55" r="43.07"/><rect class="cls-5" x="86.07" y="30.32" width="34.96" height="22.26" rx="3" ry="3"/><rect class="cls-3" x="10.47" y="11.44" width="31.61" height="17.84"/><circle class="cls-2" cx="24.15" cy="16.26" r="1.87"/><circle class="cls-2" cx="32.31" cy="16.26" r="1.87"/><circle class="cls-2" cx="28.12" cy="20.87" r="1.87"/><circle class="cls-2" cx="24.1" cy="25.15" r="1.87"/><circle class="cls-2" cx="32.31" cy="25.15" r="1.87"/><rect class="cls-6" x="7.37" y="2.62" width="6.21" height="54.3" rx="2.92" ry="2.92"/><path class="cls-7" d="M94.63,7.5H44.9a9.31,9.31,0,0,0-9.31,9.31V18a7,7,0,0,1-7,7H3.09a1.16,1.16,0,0,0-1.16,1.16V51.27a1.16,1.16,0,0,0,1.16,1.16H28.61a7,7,0,0,1,7,7v53.24H67.31V38a9.41,9.41,0,0,1,9.43-9.31h17.9Z"/><path class="cls-8" d="M3.92,6.92H17.44a2,2,0,0,1,2,2V24.44a0,0,0,0,1,0,0H1.92a0,0,0,0,1,0,0V8.92A2,2,0,0,1,3.92,6.92Z"/><rect class="cls-6" x="100.03" y="3.78" width="6.21" height="20.7" rx="2.92" ry="2.92"/><path class="cls-9" d="M94.58,29.89c0-2.5,17.93-2.5,17.93,0V7.5c0-2.5-17.93-2.5-17.93,0Z"/><path class="cls-9" d="M95.75,53.17h15.6A1.16,1.16,0,0,0,112.51,52V30.77c0-2.5-17.93-2.5-17.93,0V52A1.16,1.16,0,0,0,95.75,53.17Z"/><circle class="cls-3" cx="90.46" cy="34.79" r="2.1"/><circle class="cls-3" cx="90.46" cy="41.45" r="2.1"/><circle class="cls-3" cx="90.46" cy="48.12" r="2.1"/><circle class="cls-3" cx="116.64" cy="34.79" r="2.1"/><circle class="cls-3" cx="116.64" cy="41.45" r="2.1"/><circle class="cls-3" cx="116.64" cy="48.12" r="2.1"/><rect class="cls-5" x="86.07" y="125.14" width="34.96" height="22.26" rx="3" ry="3"/><rect class="cls-3" x="10.47" y="148.44" width="31.61" height="17.84"/><circle class="cls-10" cx="24.15" cy="161.46" r="1.87"/><circle class="cls-10" cx="32.31" cy="161.46" r="1.87"/><circle class="cls-10" cx="28.12" cy="156.86" r="1.87"/><circle class="cls-10" cx="24.1" cy="152.58" r="1.87"/><circle class="cls-10" cx="32.31" cy="152.58" r="1.87"/><rect class="cls-6" x="7.37" y="120.81" width="6.21" height="54.3" rx="2.92" ry="2.92"/><path class="cls-11" d="M94.63,170.22H44.9a9.31,9.31,0,0,1-9.31-9.31v-1.23a7,7,0,0,0-7-7H3.09a1.16,1.16,0,0,1-1.16-1.16V126.46a1.16,1.16,0,0,1,1.16-1.16H28.61a7,7,0,0,0,7-7V65.07H67.31v74.66A9.41,9.41,0,0,0,76.73,149h17.9Z"/><path class="cls-12" d="M1.92,153.29H19.44a0,0,0,0,1,0,0v15.52a2,2,0,0,1-2,2H3.92a2,2,0,0,1-2-2V153.29a0,0,0,0,1,0,0Z"/><rect class="cls-6" x="100.03" y="153.24" width="6.21" height="20.7" rx="2.92" ry="2.92"/><path class="cls-9" d="M94.58,147.83c0,2.5,17.93,2.5,17.93,0v22.39c0,2.5-17.93,2.5-17.93,0Z"/><path class="cls-9" d="M95.75,124.55h15.6a1.16,1.16,0,0,1,1.16,1.16v21.23c0,2.5-17.93,2.5-17.93,0V125.72A1.16,1.16,0,0,1,95.75,124.55Z"/><circle class="cls-3" cx="90.46" cy="142.94" r="2.1"/><circle class="cls-3" cx="90.46" cy="136.27" r="2.1"/><circle class="cls-3" cx="90.46" cy="129.61" r="2.1"/><circle class="cls-3" cx="116.64" cy="142.94" r="2.1"/><circle class="cls-3" cx="116.64" cy="136.27" r="2.1"/><circle class="cls-3" cx="116.64" cy="129.61" r="2.1"/><path class="cls-13" d="M2,86.13H77.27a0,0,0,0,1,0,0V91a0,0,0,0,1,0,0H2a2,2,0,0,1-2-2v-.86A2,2,0,0,1,2,86.13Z"/><rect class="cls-2" x="21.46" y="77.16" width="6.66" height="22.79" rx="2" ry="2"/><circle class="cls-3" cx="24.79" cy="80.88" r="1.94"/><circle class="cls-3" cx="24.79" cy="96.23" r="1.94"/><rect class="cls-2" x="4.14" y="71.19" width="8.25" height="34.73" rx="2" ry="2"/><circle class="cls-3" cx="8.27" cy="74.91" r="1.94"/><circle class="cls-3" cx="8.27" cy="102.2" r="1.94"/><circle class="cls-5" cx="103.45" cy="88.55" r="27.06"/><circle class="cls-9" cx="103.45" cy="88.55" r="26.18"/><circle class="cls-3" cx="103.45" cy="88.55" r="17.62"/><use width="8.5" height="83.83" transform="translate(100.97 39.78) scale(0.58)" xlink:href="#New_Symbol_4"/><use width="8.5" height="83.83" transform="translate(105.92 137.33) rotate(180) scale(0.58)" xlink:href="#New_Symbol_4"/><use width="8.5" height="83.83" transform="translate(59.97 66.31) rotate(-60) scale(0.58)" xlink:href="#New_Symbol_4"/><use width="8.5" height="83.83" transform="translate(146.92 110.8) rotate(120) scale(0.58)" xlink:href="#New_Symbol_4"/><use width="8.5" height="83.83" transform="translate(62.44 115.08) rotate(-120) scale(0.58)" xlink:href="#New_Symbol_4"/><use width="8.5" height="83.83" transform="translate(144.45 62.03) rotate(60) scale(0.58)" xlink:href="#New_Symbol_4"/><circle class="cls-2" cx="103.45" cy="88.55" r="5.91"/><path class="cls-13" d="M103.45,110.19a21.63,21.63,0,1,1,21.63-21.63A21.63,21.63,0,0,1,103.45,110.19Zm15.3-21.63a15.3,15.3,0,1,0-15.3,15.3A15.3,15.3,0,0,0,118.74,88.55Z"/><circle class="cls-3" cx="103.45" cy="88.55" r="15.33"/><rect class="cls-14" x="99.94" y="84" width="7.44" height="9.55"/><path class="cls-10" d="M101.65,92l.63-3.58a1.9,1.9,0,0,1,1.17-3.4V81H98.6a1.88,1.88,0,0,0-1.88,1.88V92.1a1.13,1.13,0,0,0,.11.5c.41.82,2,3.47,6.61,5.49v-6A10.51,10.51,0,0,1,101.65,92Z"/><path class="cls-1" d="M108.29,81h-4.84v4h0a1.9,1.9,0,0,1,1.19,3.39l.63,3.6a10.51,10.51,0,0,1-1.82.16v6c4.59-2,6.2-4.67,6.61-5.49a1.13,1.13,0,0,0,.11-.5V82.9A1.88,1.88,0,0,0,108.29,81Z"/></svg>