<svg xmlns="http://www.w3.org/2000/svg" viewBox="0 0 104 104"><defs><clipPath id="a"><circle cx="52" cy="52" r="41.43" fill="none"/></clipPath><clipPath id="b"><path fill="none" d="M76.72 82.74V23.1l41.42-8.23v76.1z"/></clipPath><clipPath id="c"><path fill="none" d="M76.72 74.85V30.99l41.42-16.12v76.1z"/></clipPath></defs><circle cx="52" cy="52" r="52" fill="#112e51"/><path fill="#205493" d="M52 0a52 52 0 0 0 0 104"/><ellipse cx="52.75" cy="52" fill="#112e51" rx="42.18" ry="42.94"/><circle cx="52" cy="52" r="41.43" fill="#00bfe7"/><circle cx="39.75" cy="97.82" r="1.59" fill="#328dc8" transform="rotate(-75 39.749 97.824)"/><circle cx="64.25" cy="6.38" r="1.59" fill="#328dc8" transform="rotate(-75 64.246 6.386)"/><circle cx="28.33" cy="93.1" r="1.59" fill="#328dc8" transform="rotate(-60 28.336 93.101)"/><circle cx="75.67" cy="11.11" r="1.59" fill="#328dc8" transform="rotate(-60 75.67 11.114)"/><circle cx="18.53" cy="85.57" r="1.59" fill="#328dc8" transform="rotate(-45 18.535 85.572)"/><circle cx="85.47" cy="18.63" r="1.59" fill="#328dc8" transform="rotate(-45 85.466 18.629)"/><circle cx="11.01" cy="75.77" r="1.59" fill="#328dc8" transform="rotate(-30 11.017 75.772)"/><circle cx="92.99" cy="28.44" r="1.59" fill="#328dc8" transform="rotate(-30 93 28.44)"/><circle cx="6.28" cy="64.35" r="1.59" fill="#328dc8" transform="rotate(-15 6.288 64.347)"/><circle cx="97.72" cy="39.85" r="1.59" fill="#328dc8" transform="rotate(-15 97.718 39.872)"/><circle cx="4.67" cy="52.1" r="1.59" fill="#328dc8"/><circle cx="99.33" cy="52.1" r="1.59" fill="#328dc8"/><circle cx="6.28" cy="39.85" r="1.59" fill="#328dc8" transform="rotate(-75 6.277 39.85)"/><circle cx="97.72" cy="64.35" r="1.59" fill="#328dc8" transform="rotate(-75 97.723 64.353)"/><circle cx="11.01" cy="28.44" r="1.59" fill="#328dc8" transform="rotate(-60 11.008 28.433)"/><circle cx="92.99" cy="75.77" r="1.59" fill="#328dc8" transform="rotate(-60 92.995 75.768)"/><circle cx="18.53" cy="18.63" r="1.59" fill="#328dc8" transform="rotate(-45 18.529 18.635)"/><circle cx="85.47" cy="85.57" r="1.59" fill="#328dc8" transform="rotate(-45 85.468 85.578)"/><circle cx="28.33" cy="11.11" r="1.59" fill="#328dc8" transform="rotate(-30 28.342 11.114)"/><circle cx="75.67" cy="93.1" r="1.59" fill="#328dc8" transform="rotate(-29.9 76.048 93.367)"/><circle cx="39.75" cy="6.38" r="1.59" fill="#328dc8" transform="rotate(-15 39.766 6.394)"/><circle cx="64.25" cy="97.82" r="1.59" fill="#328dc8" transform="rotate(-15 64.24 97.825)"/><circle cx="52" cy="4.77" r="1.59" fill="#328dc8"/><circle cx="52" cy="99.44" r="1.59" fill="#328dc8"/><g clip-path="url(#a)"><path fill="#112e51" d="M29.44 29.57h46.84v46.5H29.44z"/><path fill="#112e51" d="M92.26 23.01 75.9 29.72l-.04 46.35 17.15 6.86 7.95-25.49-2.88-25.99z"/><path fill="#205493" d="M31.44 30.99h10.04v3.75H31.44z"/><path fill="#00bfe7" d="M35.57 32.53h1.78v.66h-1.78z"/><path fill="#205493" d="M31.44 35.97h10.04v3.75H31.44z"/><path fill="#00bfe7" d="M35.57 37.51h1.78v.66h-1.78z"/><path fill="#205493" d="M31.44 40.95h10.04v3.75H31.44z"/><path fill="#00bfe7" d="M35.57 42.49h1.78v.66h-1.78z"/><path fill="#205493" d="M31.44 45.93h10.04v3.75H31.44z"/><path fill="#00bfe7" d="M35.57 47.48h1.78v.66h-1.78z"/><path fill="#205493" d="M31.44 50.91h10.04v3.75H31.44z"/><path fill="#00bfe7" d="M35.57 52.46h1.78v.66h-1.78z"/><path fill="#205493" d="M31.44 55.89h10.04v3.75H31.44z"/><path fill="#00bfe7" d="M35.57 57.44h1.78v.66h-1.78z"/><path fill="#205493" d="M31.44 60.87h10.04v3.75H31.44z"/><path fill="#00bfe7" d="M35.57 62.42h1.78v.66h-1.78z"/><path fill="#205493" d="M31.44 65.86h10.04v3.75H31.44z"/><path fill="#00bfe7" d="M35.57 67.4h1.78v.66h-1.78z"/><path fill="#205493" d="M31.44 70.84h10.04v3.75H31.44z"/><path fill="#00bfe7" d="M35.57 72.38h1.78v.66h-1.78z"/><path fill="#205493" d="M42.71 30.99h10.04v3.75H42.71z"/><path fill="#00bfe7" d="M46.85 32.53h1.78v.66h-1.78z"/><path fill="#205493" d="M42.71 35.97h10.04v3.75H42.71z"/><path fill="#00bfe7" d="M46.85 37.51h1.78v.66h-1.78z"/><path fill="#205493" d="M42.71 40.95h10.04v3.75H42.71z"/><path fill="#00bfe7" d="M46.85 42.49h1.78v.66h-1.78z"/><path fill="#205493" d="M42.71 45.93h10.04v3.75H42.71z"/><path fill="#00bfe7" d="M46.85 47.48h1.78v.66h-1.78z"/><path fill="#205493" d="M42.71 50.91h10.04v3.75H42.71z"/><path fill="#00bfe7" d="M46.85 52.46h1.78v.66h-1.78z"/><path fill="#205493" d="M42.71 55.89h10.04v3.75H42.71z"/><path fill="#00bfe7" d="M46.85 57.44h1.78v.66h-1.78z"/><path fill="#205493" d="M42.71 60.87h10.04v3.75H42.71z"/><path fill="#00bfe7" d="M46.85 62.42h1.78v.66h-1.78z"/><path fill="#205493" d="M42.71 65.86h10.04v3.75H42.71z"/><path fill="#00bfe7" d="M46.85 67.4h1.78v.66h-1.78z"/><path fill="#205493" d="M42.71 70.84h10.04v3.75H42.71z"/><path fill="#00bfe7" d="M46.85 72.38h1.78v.66h-1.78z"/><path fill="#205493" d="M53.99 30.99h10.04v3.75H53.99z"/><path fill="#00bfe7" d="M58.12 32.53h1.78v.66h-1.78z"/><path fill="#205493" d="M53.99 35.97h10.04v3.75H53.99z"/><path fill="#00bfe7" d="M58.12 37.51h1.78v.66h-1.78z"/><path fill="#205493" d="M53.99 40.95h10.04v3.75H53.99z"/><path fill="#00bfe7" d="M58.12 42.49h1.78v.66h-1.78z"/><path fill="#205493" d="M53.99 45.93h10.04v3.75H53.99z"/><path fill="#00bfe7" d="M58.12 47.48h1.78v.66h-1.78z"/><path fill="#205493" d="M53.99 50.91h10.04v3.75H53.99z"/><path fill="#00bfe7" d="M58.12 52.46h1.78v.66h-1.78z"/><path fill="#205493" d="M53.99 55.89h10.04v3.75H53.99z"/><path fill="#00bfe7" d="M58.12 57.44h1.78v.66h-1.78z"/><path fill="#205493" d="M53.99 60.87h10.04v3.75H53.99z"/><path fill="#00bfe7" d="M58.12 62.42h1.78v.66h-1.78z"/><path fill="#205493" d="M53.99 65.86h10.04v3.75H53.99z"/><path fill="#00bfe7" d="M58.12 67.4h1.78v.66h-1.78z"/><path fill="#205493" d="M53.99 70.84h10.04v3.75H53.99z"/><path fill="#00bfe7" d="M58.12 72.38h1.78v.66h-1.78z"/><path fill="#205493" d="M65.26 30.99H75.3v3.75H65.26z"/><path fill="#00bfe7" d="M69.39 32.53h1.78v.66h-1.78z"/><path fill="#205493" d="M65.26 35.97H75.3v3.75H65.26z"/><path fill="#00bfe7" d="M69.39 37.51h1.78v.66h-1.78z"/><path fill="#205493" d="M65.26 40.95H75.3v3.75H65.26z"/><path fill="#00bfe7" d="M69.39 42.49h1.78v.66h-1.78z"/><path fill="#205493" d="M65.26 45.93H75.3v3.75H65.26z"/><path fill="#00bfe7" d="M69.39 47.48h1.78v.66h-1.78z"/><path fill="#205493" d="M65.26 50.91H75.3v3.75H65.26z"/><path fill="#00bfe7" d="M69.39 52.46h1.78v.66h-1.78z"/><path fill="#205493" d="M65.26 55.89H75.3v3.75H65.26z"/><path fill="#00bfe7" d="M69.39 57.44h1.78v.66h-1.78z"/><path fill="#205493" d="M65.26 60.87H75.3v3.75H65.26z"/><path fill="#00bfe7" d="M69.39 62.42h1.78v.66h-1.78z"/><path fill="#205493" d="M65.26 65.86H75.3v3.75H65.26z"/><path fill="#00bfe7" d="M69.39 67.4h1.78v.66h-1.78z"/><path fill="#205493" d="M65.26 70.84H75.3v3.75H65.26z"/><path fill="#00bfe7" d="M69.39 72.38h1.78v.66h-1.78z"/><g clip-path="url(#b)"><g clip-path="url(#c)"><path fill="#205493" d="m79.06 31.7 1.07-.39V32l-1.07.37zm3.71-3.06-6 2.35v3.77l6-2z"/><path fill="#00bfe7" d="m80.13 31.31-1.07.39v.69l1.07-.37z"/><path fill="#205493" d="m79.06 36.92 1.07-.29v.71l-1.07.28v-.69m3.71-2.73-6 1.82v3.77l6-1.41v-4.19"/><path fill="#00bfe7" d="m80.13 36.62-1.07.3v.69l1.07-.28z"/><path fill="#205493" d="m79.06 42.13 1.07-.19v.71l-1.07.18zm3.71-2.4-6 1.28v3.77l6-.87v-4.17"/><path fill="#00bfe7" d="m80.13 41.94-1.07.19v.7l1.07-.18z"/><path fill="#205493" d="m79.06 47.36 1.07-.1V48l-1.07.09v-.69m3.71-2.07-6 .74v3.73l6-.34v-4.18"/><path fill="#00bfe7" d="m80.13 47.26-1.07.1v.69l1.07-.09z"/><path fill="#205493" d="M79.06 52.57h1.07v.71h-1.07v-.69m3.71-1.74-6 .21v3.77l6 .21v-4.21"/><path fill="#00bfe7" d="M80.13 52.57h-1.07v.7h1.07z"/><path fill="#205493" d="m79.06 57.79 1.07.09v.71l-1.07-.1zM76.72 56v3.77l6 .74v-4.13l-6-.34"/><path fill="#00bfe7" d="M79.06 57.79v.7l1.07.1v-.71z"/><path fill="#205493" d="m79.06 63 1.07.18v.71l-1.07-.2zm-2.34-2v3.77l6 1.28v-4.12l-6-.87"/><path fill="#00bfe7" d="M79.06 63.01v.7l1.07.2v-.72z"/><path fill="#205493" d="m79.06 68.23 1.07.28v.71l-1.07-.29v-.69m-2.34-2.16v3.77l6 1.82v-4.19l-6-1.41"/><path fill="#00bfe7" d="M79.06 68.23v.7l1.07.29v-.71z"/><path fill="#205493" d="m79.06 73.45 1.07.38v.71l-1.07-.39zm-2.34-2.37v3.77l6 2.35V73l-6-2"/><path fill="#00bfe7" d="M79.06 73.45v.7l1.07.38v-.7z"/><path fill="#205493" d="m86.57 29 1.36-.49v.8l-1.36.48zm4.76-3.67-7.72 3v4.23l7.72-2.49v-4.76"/><path fill="#00bfe7" d="m87.93 28.49-1.36.49v.79l1.36-.48z"/><path fill="#205493" d="m86.57 34.87 1.36-.37v.8l-1.36.35zm4.76-3.25-7.73 2.31v4.23l7.72-1.81v-4.74"/><path fill="#00bfe7" d="m87.93 34.5-1.36.37v.78l1.36-.35z"/><path fill="#205493" d="m86.57 40.75 1.36-.25v.8l-1.36.23zm4.76-2.83-7.73 1.64v4.24l7.72-1.12v-4.75"/><path fill="#00bfe7" d="m87.93 40.51-1.36.25v.78l1.36-.24z"/><path fill="#205493" d="m86.57 46.64 1.36-.13v.8l-1.36.11zm4.76-2.4-7.72.94v4.23l7.72-.41z"/><path fill="#00bfe7" d="m87.93 46.51-1.36.13v.79l1.36-.12z"/><path fill="#205493" d="M86.57 52.53h1.36v.8h-1.36v-.78m4.76-2-7.72.26V55l7.72.26z"/><path fill="#00bfe7" d="m87.93 52.52-1.36.01v.78l1.36.01z"/><path fill="#205493" d="m86.57 58.42 1.36.11v.8l-1.36-.13zm-3-2v4.23l7.72.95v-4.74l-7.72-.43"/><path fill="#00bfe7" d="M86.57 58.42v.78l1.36.13v-.8z"/><path fill="#205493" d="m86.57 64.3 1.36.23v.8l-1.36-.25zm-3-2.25v4.23l7.72 1.63v-4.74l-7.69-1.12"/><path fill="#00bfe7" d="M86.57 64.3v.79l1.36.25v-.81z"/><path fill="#205493" d="m86.57 70.19 1.36.36v.8L86.57 71v-.78m-3-2.51v4.23l7.72 2.32v-4.78l-7.72-1.8"/><path fill="#00bfe7" d="M86.57 70.19v.79l1.36.37v-.8z"/><path fill="#205493" d="m86.57 76.08 1.36.48v.8l-1.36-.49v-.78m-3-2.78v4.23l6.64 2.59 1.09.42v-4.76l-7.7-2.49"/><path fill="#00bfe7" d="M86.57 76.08v.78l1.36.49v-.79z"/><path fill="#5b616a" d="m96.28 25.47 1.8-.65v.92l-1.8.63zm6.32-4.55-4.5 1.75-5.69 2.22v4.82l10.2-3.29v-5.5"/><path fill="#00bfe7" d="m98.08 24.82-1.8.65v.9l1.8-.63z"/><path fill="#5b616a" d="m96.28 32.22 1.8-.49v.92l-1.8.47zm6.32-4-10.2 3.06v4.82l10.2-2.38z"/><path fill="#00bfe7" d="m98.08 31.73-1.8.49v.9l1.8-.47z"/><path fill="#5b616a" d="m96.28 39 1.8-.33v.93l-1.8.31zm6.32-3.43L92.41 37.7v4.82L102.6 41v-5.46"/><path fill="#00bfe7" d="m98.08 38.64-1.8.33v.9l1.8-.31z"/><path fill="#205493" d="m96.28 45.72 1.8-.17v.92l-1.8.15zm6.32-2.86-10.2 1.25v4.82l10.2-.57z"/><path fill="#00bfe7" d="m98.08 45.55-1.8.17v.9l1.8-.15z"/><path fill="#205493" d="M96.28 52.47h1.8v.92h-1.8v-.9m6.32-2.3-10.2.34v4.82l10.2.34z"/><path fill="#00bfe7" d="m98.08 52.46-1.8.01v.9l1.8.01z"/><path fill="#205493" d="m96.28 59.22 1.8.15v.93l-1.8-.17v-.9m-3.87-2.31v4.82L102.6 63v-5.5l-10.2-.57"/><path fill="#00bfe7" d="M96.28 59.22v.91l1.8.17v-.93z"/><path fill="#5b616a" d="m96.28 66 1.8.31v.92l-1.8-.33zm-3.87-2.65v4.83l10.2 2.15V64.8l-10.2-1.47"/><path fill="#00bfe7" d="M96.28 65.97v.91l1.8.32v-.92z"/><path fill="#5b616a" d="m96.28 72.73 1.8.47v.92l-1.8-.49zm-3.87-3v4.82l10.2 3.06v-5.5z"/><path fill="#00bfe7" d="M96.28 72.73v.9l1.8.48v-.91z"/><path fill="#5b616a" d="m96.28 79.48 1.8.63V81l-1.8-.65v-.89m-3.87-3.34V81l5.69 2.22 4.51 1.75v-5.5l-10.2-3.29"/><path fill="#00bfe7" d="M96.28 79.48v.89l1.8.65v-.92z"/></g></g><path fill="#0071bb" d="m28.54 93.43 26.27-17.51 7.06-46.17 18.87-14.12-19.69-8.15-12.43-2.17-15.26 3.13-13.58 13S15.7 45.39 16.59 45.9s-3.1 21.8-3.1 21.8z" opacity=".34" style="mix-blend-mode:multiply"/></g><ellipse cx="25.63" cy="50.63" fill="#112e51" rx="12.95" ry="41.57"/><path fill="#112e51" d="M15.19 9.06h10.44V92.2H15.19z"/><ellipse cx="15.19" cy="50.63" fill="#0071bb" rx="12.95" ry="41.57"/><circle cx="27.21" cy="15.08" r="1.59" fill="#e21c3d" transform="rotate(-45 27.215 15.077)"/><path fill="#205493" d="M6.16 80.43c2.33 7.28 5.52 11.77 9 11.77 7.15 0 12.95-18.61 12.95-41.57a114.3 114.3 0 0 0-2.32-23.74s-5.41 8.89-12 26.82C7.11 71.89 6.16 80.43 6.16 80.43"/><circle cx="30.98" cy="26.93" r="1.59" fill="#e21c3d" transform="rotate(-30 30.986 26.923)"/><circle cx="32.97" cy="38.78" r="1.59" fill="#e21c3d" transform="rotate(-15 32.992 38.77)"/><circle cx="33.47" cy="50.63" r="1.59" fill="#e21c3d"/><circle cx="32.97" cy="62.49" r="1.59" fill="#e21c3d" transform="rotate(-75 32.97 62.486)"/><circle cx="31.39" cy="74.34" r="1.59" fill="#e21c3d" transform="rotate(-60 31.384 74.342)"/><circle cx="28.13" cy="86.19" r="1.59" fill="#e21c3d" transform="rotate(-45 28.139 86.185)"/><path fill="#49505a" d="M12.9 38.34h1.65v24.58H12.9z"/><ellipse cx="14.54" cy="50.63" fill="#112e51" rx="4.49" ry="12.29"/><ellipse cx="13.09" cy="50.63" fill="#205493" rx="4.49" ry="12.29"/><ellipse cx="13.09" cy="50.63" fill="#112e51" rx="3.09" ry="9.13"/><ellipse cx="13.81" cy="50.63" fill="#e21c3d" rx="2.37" ry="9.13"/><path fill="#e21c3d" d="M65.26 45.93H75.3v3.75H65.26z"/><path fill="#fff" d="M69.39 47.48h1.78v.66h-1.78z"/></svg>