<svg width="100" height="100" viewBox="0 0 100 100" fill="none" xmlns="http://www.w3.org/2000/svg"><circle cx="50" cy="50" r="48.5" fill="url(#a)" stroke="#A8B6C6" stroke-width="3"/><path fill-rule="evenodd" clip-rule="evenodd" d="M0 50C0 22.396 22.375 0 50 0s50 22.396 50 50h-2.9C97.1 23.965 76.001 2.88 50 2.88S2.9 23.967 2.9 50H0Z" fill="#A8B6C6"/><path d="M7.337 21.312h85.374c1.645.08 3.112 1.546 3.197 3.213V66.52c0 .63-.36 1.436-.992 2.101-.627.66-1.425 1.081-2.191 1.081H7.337c-.747 0-1.546-.418-2.18-1.082-.637-.667-1.002-1.473-1.002-2.1V24.494c0-.61.364-1.416 1.004-2.09.635-.669 1.434-1.092 2.178-1.092Z" fill="#fff" stroke="#112E51" stroke-width="1.25"/><mask id="b" fill="#fff"><path d="M92.292 70.857H7.77c-2.63 0-4.77-2.14-4.77-4.77v-41.16c0-2.631 2.14-4.77 4.77-4.77h84.522c2.63 0 4.77 2.139 4.77 4.77v41.16c0 2.63-2.14 4.77-4.77 4.77ZM7.77 21.216a3.715 3.715 0 0 0-3.71 3.71v41.16a3.715 3.715 0 0 0 3.71 3.712h84.522a3.715 3.715 0 0 0 3.71-3.711v-41.16a3.715 3.715 0 0 0-3.71-3.711H7.77Z"/></mask><path d="M92.292 70.857H7.77c-2.63 0-4.77-2.14-4.77-4.77v-41.16c0-2.631 2.14-4.77 4.77-4.77h84.522c2.63 0 4.77 2.139 4.77 4.77v41.16c0 2.63-2.14 4.77-4.77 4.77ZM7.77 21.216a3.715 3.715 0 0 0-3.71 3.71v41.16a3.715 3.715 0 0 0 3.71 3.712h84.522a3.715 3.715 0 0 0 3.71-3.711v-41.16a3.715 3.715 0 0 0-3.71-3.711H7.77Z" fill="#E5E5E5"/><path d="M92.292 70.857v-1.25H7.77v2.5h84.522v-1.25Zm-84.522 0v-1.25c-1.94 0-3.52-1.58-3.52-3.52h-2.5a6.025 6.025 0 0 0 6.02 6.02v-1.25ZM3 66.087h1.25v-41.16h-2.5v41.16H3Zm0-41.16h1.25c0-1.94 1.58-3.52 3.52-3.52v-2.5a6.025 6.025 0 0 0-6.02 6.02H3Zm4.77-4.77v1.25h84.522v-2.5H7.77v1.25Zm84.522 0v1.25c1.94 0 3.52 1.58 3.52 3.52h2.5a6.025 6.025 0 0 0-6.02-6.02v1.25Zm4.77 4.77h-1.25v41.16h2.5v-41.16h-1.25Zm0 41.16h-1.25c0 1.94-1.58 3.52-3.52 3.52v2.5a6.025 6.025 0 0 0 6.02-6.02h-1.25ZM7.77 21.216v-1.25a4.965 4.965 0 0 0-4.96 4.96h2.5a2.465 2.465 0 0 1 2.46-2.46v-1.25Zm-3.71 3.71H2.81v41.16h2.5v-41.16H4.06Zm0 41.16H2.81a4.965 4.965 0 0 0 4.96 4.962v-2.5a2.465 2.465 0 0 1-2.46-2.461H4.06Zm3.71 3.712v1.25h84.522v-2.5H7.77v1.25Zm84.522 0v1.25a4.965 4.965 0 0 0 4.96-4.961h-2.5a2.465 2.465 0 0 1-2.46 2.46v1.25Zm3.71-3.711h1.25v-41.16h-2.5v41.16h1.25Zm0-41.16h1.25a4.965 4.965 0 0 0-4.96-4.961v2.5a2.465 2.465 0 0 1 2.46 2.46h1.25Zm-3.71-3.711v-1.25H7.77v2.5h84.522v-1.25Z" fill="#112E51" mask="url(#b)"/><path d="M89.942 26.699H47.587a.56.56 0 0 0-.56.56v4.985c0 .31.25.56.56.56h42.355a.56.56 0 0 0 .56-.56V27.26a.56.56 0 0 0-.56-.561Zm-.202 21.946H77.004a.56.56 0 0 0-.561.56v14.41c0 .31.251.561.56.561h12.739a.56.56 0 0 0 .56-.56v-14.41a.56.56 0 0 0-.56-.562ZM66.442 36.308H47.625a.56.56 0 0 0-.56.56v2.316c0 .31.25.561.56.561h18.817a.56.56 0 0 0 .56-.56v-2.316a.56.56 0 0 0-.56-.561Zm23.444 0H71.07a.56.56 0 0 0-.561.56v2.316c0 .31.25.561.56.561h18.817a.56.56 0 0 0 .56-.56v-2.316a.56.56 0 0 0-.56-.561Zm-16.532 6.871h-25.78a.56.56 0 0 0-.562.56v2.316c0 .31.251.561.561.561h25.781a.56.56 0 0 0 .56-.56V43.74a.56.56 0 0 0-.56-.561Zm-3.548 6.875H47.573a.56.56 0 0 0-.56.56v2.316c0 .31.25.56.56.56h22.233a.56.56 0 0 0 .56-.56v-2.316a.56.56 0 0 0-.56-.56Zm.124 6.818h-8.885a.56.56 0 0 0-.56.561v2.316c0 .31.25.56.56.56h8.886a.56.56 0 0 0 .56-.56v-2.316a.56.56 0 0 0-.56-.56Z" fill="#5B616A"/><path d="M39.494 26.83h-29.36a.692.692 0 0 0-.692.693v36.781c0 .383.31.693.692.693h29.36c.383 0 .692-.31.692-.693V27.523a.692.692 0 0 0-.692-.692Z" fill="#EBF3FA"/><path fill-rule="evenodd" clip-rule="evenodd" d="M50 100C22.375 100 0 77.604 0 50h2.9c0 26.035 21.099 47.12 47.1 47.12S97.1 76.033 97.1 50h2.9c0 27.604-22.375 50-50 50Z" fill="#A8B6C6"/><path d="M50.3 88.6a16.3 16.3 0 1 1 16.3-16.3 16.317 16.317 0 0 1-16.3 16.3Z" fill="#112E51"/><path d="M50.3 88.6a16.3 16.3 0 1 1 16.3-16.3 16.317 16.317 0 0 1-16.3 16.3Z" fill="#fff"/><path d="M50.298 86.595a14.298 14.298 0 1 1 14.297-14.297 14.313 14.313 0 0 1-14.297 14.297Z" fill="#0E581E"/><path d="M50.299 58v28.598a14.299 14.299 0 0 1 0-28.598Z" fill="#18852E"/><path d="m57.851 68.13-1.79-1.789-10.736 10.737 1.79 1.79L57.85 68.131Z" fill="#fff"/><path d="m43.281 71.454-1.79 1.79 5.623 5.622 1.79-1.79-5.623-5.622Z" fill="#fff"/><defs><linearGradient id="a" x1="50" y1="0" x2="50" y2="100" gradientUnits="userSpaceOnUse"><stop stop-color="#EBF3FA"/><stop offset="1" stop-color="#EBF3FA"/></linearGradient></defs></svg>