<?xml version="1.0" encoding="UTF-8"?>
<svg width="541px" height="350px" viewBox="0 0 541 350" version="1.1" xmlns="http://www.w3.org/2000/svg" xmlns:xlink="http://www.w3.org/1999/xlink">
    <title>what-is-illo-header</title>
    <defs>
        <linearGradient x1="50%" y1="0%" x2="50%" y2="100%" id="linearGradient-1">
            <stop stop-color="#0071BB" offset="0%"></stop>
            <stop stop-color="#205493" offset="100%"></stop>
        </linearGradient>
        <linearGradient x1="-39.2376078%" y1="3.78855979%" x2="97.8145205%" y2="102.938988%" id="linearGradient-2">
            <stop stop-color="#E9F0F7" offset="0%"></stop>
            <stop stop-color="#E9F0F7" offset="1.63482198%"></stop>
            <stop stop-color="#E8EFF7" offset="6.99094577%"></stop>
            <stop stop-color="#205493" offset="100%"></stop>
        </linearGradient>
        <linearGradient x1="-39.2376078%" y1="35.6406768%" x2="97.8145205%" y2="66.4497803%" id="linearGradient-3">
            <stop stop-color="#E9F0F7" offset="0%"></stop>
            <stop stop-color="#E9F0F7" offset="1.63482198%"></stop>
            <stop stop-color="#E8EFF7" offset="6.99094577%"></stop>
            <stop stop-color="#205493" offset="100%"></stop>
        </linearGradient>
        <linearGradient x1="-39.2376078%" y1="24.0060649%" x2="97.8145205%" y2="79.7781808%" id="linearGradient-4">
            <stop stop-color="#E9F0F7" offset="0%"></stop>
            <stop stop-color="#E9F0F7" offset="1.63482198%"></stop>
            <stop stop-color="#E8EFF7" offset="6.99094577%"></stop>
            <stop stop-color="#205493" offset="100%"></stop>
        </linearGradient>
        <linearGradient x1="19.9927179%" y1="-365.902962%" x2="66.0782415%" y2="526.450893%" id="linearGradient-5">
            <stop stop-color="#E9F0F7" offset="0%"></stop>
            <stop stop-color="#E9F0F7" offset="1.63482198%"></stop>
            <stop stop-color="#E8EFF7" offset="6.99094577%"></stop>
            <stop stop-color="#205493" offset="100%"></stop>
        </linearGradient>
        <linearGradient x1="50%" y1="0%" x2="50%" y2="100%" id="linearGradient-6">
            <stop stop-color="#0071BB" offset="0%"></stop>
            <stop stop-color="#205493" offset="100%"></stop>
        </linearGradient>
        <linearGradient x1="-39.2376078%" y1="43.9419604%" x2="97.8145205%" y2="56.9399803%" id="linearGradient-7">
            <stop stop-color="#E9F0F7" offset="0%"></stop>
            <stop stop-color="#E9F0F7" offset="1.63482198%"></stop>
            <stop stop-color="#E8EFF7" offset="6.99094577%"></stop>
            <stop stop-color="#205493" offset="100%"></stop>
        </linearGradient>
        <linearGradient x1="-39.2376078%" y1="34.9105501%" x2="97.8145205%" y2="67.2862002%" id="linearGradient-8">
            <stop stop-color="#E9F0F7" offset="0%"></stop>
            <stop stop-color="#E9F0F7" offset="1.63482198%"></stop>
            <stop stop-color="#E8EFF7" offset="6.99094577%"></stop>
            <stop stop-color="#205493" offset="100%"></stop>
        </linearGradient>
    </defs>
    <g id="what-is-illo-header" stroke="none" stroke-width="1" fill="none" fill-rule="evenodd">
        <g id="desktop-what-is" transform="translate(51.000000, 0.000000)">
            <rect id="desktop-clear-bg" fill-opacity="0.05" fill="#FFFFFF" x="0" y="0" width="490" height="350" rx="7"></rect>
            <rect id="desktop-overlay-bg" fill="#112E51" x="3" y="3" width="484" height="344" rx="7"></rect>
            <path d="M7,3 L483,3 C485.209139,3 487,4.790861 487,7 L487,17 L487,17 L3,17 L3,7 C3,4.790861 4.790861,3 7,3 Z" id="desktop-bar-bg" fill="#0071BB"></path>
            <g id="desktop-bar-buttons" transform="translate(11.000000, 7.000000)" fill="#205493">
                <circle id="desktop-bar-button" cx="3" cy="3" r="3"></circle>
                <circle id="desktop-bar-button" cx="13" cy="3" r="3"></circle>
                <circle id="desktop-bar-button" cx="23" cy="3" r="3"></circle>
            </g>
            <rect id="desktop-border" stroke="url(#linearGradient-1)" stroke-width="1.5" x="3" y="3" width="484" height="344" rx="4"></rect>
            <g id="desktop-badges" transform="translate(371.000000, 32.000000)" fill="#CEDCED" fill-opacity="0.2" stroke="url(#linearGradient-2)">
                <rect id="desktop-badge" x="53" y="0" width="42" height="14" rx="7"></rect>
                <rect id="desktop-badge" x="0" y="0" width="42" height="14" rx="7"></rect>
            </g>
            <g id="desktop-data-component-02" transform="translate(129.000000, 182.000000)" fill="#CEDCED" fill-opacity="0.2">
                <rect id="desktop-container" stroke="url(#linearGradient-3)" x="0" y="24" width="296" height="55" rx="3"></rect>
                <rect id="desktop-text" x="10" y="39" width="116" height="8" rx="2"></rect>
                <rect id="desktop-text" x="10" y="57" width="73" height="8" rx="2"></rect>
                <rect id="desktop-text" x="249" y="57" width="37" height="8" rx="2"></rect>
                <rect id="desktop-heading" x="0" y="0" width="73" height="14" rx="2"></rect>
            </g>
            <g id="desktop-data-component-01" transform="translate(130.000000, 63.000000)" fill="#CEDCED">
                <rect id="desktop-container" stroke="url(#linearGradient-4)" fill-opacity="0.2" x="0" y="24" width="296" height="74" rx="3"></rect>
                <rect id="desktop-text" fill-opacity="0.3" x="249" y="75" width="37" height="8" rx="2"></rect>
                <rect id="desktop-text" fill-opacity="0.3" x="10" y="75" width="73" height="8" rx="2"></rect>
                <rect id="desktop-text" fill-opacity="0.3" x="249" y="57" width="37" height="8" rx="2"></rect>
                <rect id="desktop-text" fill-opacity="0.3" x="10" y="57" width="73" height="8" rx="2"></rect>
                <rect id="desktop-text" fill-opacity="0.3" x="10" y="39" width="116" height="8" rx="2"></rect>
                <rect id="desktop-heading" fill-opacity="0.2" x="0" y="0" width="73" height="14" rx="2"></rect>
            </g>
            <g id="desktop-sidenav" transform="translate(21.000000, 63.000000)" fill="#CEDCED" fill-opacity="0.2">
                <rect id="desktop-container" stroke="url(#linearGradient-5)" x="0" y="0" width="98" height="169" rx="3"></rect>
                <rect id="desktop-text" x="8" y="25" width="82" height="8" rx="2"></rect>
                <rect id="desktop-text" x="8" y="41" width="76" height="8" rx="2"></rect>
                <rect id="desktop-text" x="8" y="95" width="76" height="8" rx="2"></rect>
                <rect id="desktop-text" x="8" y="149" width="76" height="8" rx="2"></rect>
                <rect id="desktop-text" x="8" y="57" width="82" height="8" rx="2"></rect>
                <rect id="desktop-text" x="8" y="111" width="82" height="8" rx="2"></rect>
                <rect id="desktop-text" x="8" y="73" width="82" height="14" rx="2"></rect>
                <rect id="desktop-text" x="8" y="127" width="82" height="14" rx="2"></rect>
            </g>
            <g id="Group" transform="translate(21.000000, 29.000000)" fill-rule="nonzero">
                <g id="login-gov-logo-mark">
                    <path d="M13.6682692,0 L7.94230769,0 L7.94230769,20.705811 C13.375,18.2408335 15.2740385,15.0462227 15.7548077,14.0503718 C15.8451213,13.8599967 15.8911975,13.6507553 15.8894725,13.4390573 L15.8894725,2.27763921 C15.8894725,1.67357174 15.6554093,1.09424529 15.2388622,0.667105079 C14.822315,0.23996487 14.2573559,0 13.6682692,0 Z" id="Path" fill="#B51E23"></path>
                    <path d="M2.22115385,0 C0.994444452,0 -4.93766164e-05,1.01973381 -4.93766164e-05,2.27763921 L-4.93766164e-05,13.4390573 C-0.00177448869,13.6507553 0.044301831,13.8599967 0.134615385,14.0503718 C0.615384615,15.0363628 2.53846154,18.2556234 7.94230769,20.705811 L7.94230769,0 L2.22115385,0 Z" id="Path" fill="#E21D3E"></path>
                    <path d="M9.35096154,8.92321855 C10.1061857,8.31391629 10.4018415,7.28074996 10.0874424,6.34959322 C9.77304327,5.41843649 8.91768197,4.79392141 7.95673077,4.79392141 C6.99577957,4.79392141 6.14041827,5.41843649 5.82601913,6.34959322 C5.51162,7.28074996 5.80727582,8.31391629 6.5625,8.92321855 C6.3125,10.3726253 6.06570514,11.8220321 5.82211538,13.2714389 C6.52242168,13.3951469 7.23168683,13.4578169 7.94230769,13.4587772 C8.66307851,13.4735302 9.38373663,13.4240447 10.0961538,13.3108785 C9.84615385,11.831892 9.61538462,10.3824852 9.35096154,8.92321855 Z" id="Path" fill="#FFFFFF"></path>
                </g>
            </g>
        </g>
        <g id="mobile-what-is" transform="translate(0.000000, 80.000000)">
            <rect id="mobile-clear-bg" fill-opacity="0.05" fill="#FFFFFF" x="0" y="0" width="146" height="258" rx="7"></rect>
            <rect id="mobile-overlay-bg" fill="#112E51" x="3" y="3" width="140" height="252" rx="4"></rect>
            <path d="M7,3 L139,3 C141.209139,3 143,4.790861 143,7 L143,17 L143,17 L3,17 L3,7 C3,4.790861 4.790861,3 7,3 Z" id="mobile-bar-top" fill="#0071BB"></path>
            <rect id="desktop-border" stroke="url(#linearGradient-6)" stroke-width="1.5" x="3" y="3" width="140" height="252" rx="4"></rect>
            <circle id="mobile-camera" fill="#205493" cx="73" cy="10" r="3"></circle>
            <rect id="mobile-audio" fill="#205493" x="15" y="9" width="20" height="2" rx="1"></rect>
            <rect id="mobile-audio" fill="#205493" x="111" y="9" width="20" height="2" rx="1"></rect>
            <g id="Group" transform="translate(58.000000, 44.000000)" fill-rule="nonzero">
                <g id="login-gov-logo-mark">
                    <path d="M25.6280048,0 L14.8918269,0 L14.8918269,37.467658 C25.078125,33.0072225 28.6388221,27.2264982 29.5402644,25.4244822 C29.7096023,25.079994 29.7959954,24.7013667 29.7927608,24.3182942 L29.7927608,4.12144238 C29.7927608,3.0283679 29.3538925,1.9800629 28.5728666,1.20714252 C27.7918407,0.434222147 26.7325422,0 25.6280048,0 Z" id="Path" fill="#B51E23"></path>
                    <path d="M4.16466346,0 C1.86458335,0 -9.25811557e-05,1.84523261 -9.25811557e-05,4.12144238 L-9.25811557e-05,24.3182942 C-0.00332716629,24.7013667 0.0830659331,25.079994 0.252403846,25.4244822 C1.15384615,27.2086564 4.75961538,33.0339851 14.8918269,37.467658 L14.8918269,0 L4.16466346,0 Z" id="Path" fill="#E21D3E"></path>
                    <path d="M17.5330529,16.1467764 C18.9490982,15.0442295 19.5034529,13.1746904 18.9139545,11.4897401 C18.3244561,9.80478983 16.7206537,8.67471494 14.9188702,8.67471494 C13.1170867,8.67471494 11.5132843,9.80478983 10.9237859,11.4897401 C10.3342875,13.1746904 10.8886422,15.0442295 12.3046875,16.1467764 C11.8359375,18.7695125 11.3731971,21.3922485 10.9164663,24.0149846 C12.2295407,24.2388372 13.5594128,24.3522401 14.8918269,24.3539777 C16.2432722,24.3806738 17.5945062,24.2911285 18.9302885,24.0863516 C18.4615385,21.4100903 18.0288462,18.7873542 17.5330529,16.1467764 Z" id="Path" fill="#FFFFFF"></path>
                </g>
            </g>
            <g id="mobile-fields" transform="translate(15.000000, 107.000000)">
                <rect id="mobile-field" stroke="url(#linearGradient-7)" fill-opacity="0.2" fill="#CEDCED" x="0" y="38" width="116" height="14" rx="3"></rect>
                <g id="mobile-password" transform="translate(4.000000, 41.000000)" fill="#5C728D" fill-rule="nonzero">
                    <polygon id="*" points="2.38630807 8 4.0195599 5.19949812 5.64303178 7.94981179 7.17848411 6.84567127 5.20293399 4.41656211 8 3.58343789 7.47188264 1.8770389 4.70415648 3.1217064 4.96821516 0 3.1002445 0 3.31540342 3.11166876 0.606356968 1.89711418 0 3.60351317 2.87530562 4.42659975 0.850855746 6.90589711"></polygon>
                    <polygon id="*" points="14.3863081 8 16.0195599 5.19949812 17.6430318 7.94981179 19.1784841 6.84567127 17.202934 4.41656211 20 3.58343789 19.4718826 1.8770389 16.7041565 3.1217064 16.9682152 0 15.1002445 0 15.3154034 3.11166876 12.606357 1.89711418 12 3.60351317 14.8753056 4.42659975 12.8508557 6.90589711"></polygon>
                    <polygon id="*" points="26.3863081 8 28.0195599 5.19949812 29.6430318 7.94981179 31.1784841 6.84567127 29.202934 4.41656211 32 3.58343789 31.4718826 1.8770389 28.7041565 3.1217064 28.9682152 0 27.1002445 0 27.3154034 3.11166876 24.606357 1.89711418 24 3.60351317 26.8753056 4.42659975 24.8508557 6.90589711"></polygon>
                    <polygon id="*" points="26.3863081 8 28.0195599 5.19949812 29.6430318 7.94981179 31.1784841 6.84567127 29.202934 4.41656211 32 3.58343789 31.4718826 1.8770389 28.7041565 3.1217064 28.9682152 0 27.1002445 0 27.3154034 3.11166876 24.606357 1.89711418 24 3.60351317 26.8753056 4.42659975 24.8508557 6.90589711"></polygon>
                    <polygon id="*" points="38.3863081 8 40.0195599 5.19949812 41.6430318 7.94981179 43.1784841 6.84567127 41.202934 4.41656211 44 3.58343789 43.4718826 1.8770389 40.7041565 3.1217064 40.9682152 0 39.1002445 0 39.3154034 3.11166876 36.606357 1.89711418 36 3.60351317 38.8753056 4.42659975 36.8508557 6.90589711"></polygon>
                    <polygon id="*" points="50.3863081 8 52.0195599 5.19949812 53.6430318 7.94981179 55.1784841 6.84567127 53.202934 4.41656211 56 3.58343789 55.4718826 1.8770389 52.7041565 3.1217064 52.9682152 0 51.1002445 0 51.3154034 3.11166876 48.606357 1.89711418 48 3.60351317 50.8753056 4.42659975 48.8508557 6.90589711"></polygon>
                </g>
                <rect id="mobile-show-password" stroke="url(#linearGradient-8)" fill-opacity="0.1" fill="#CEDCED" x="74" y="26" width="42" height="8" rx="2"></rect>
                <rect id="mobile-field" stroke="url(#linearGradient-7)" fill-opacity="0.2" fill="#CEDCED" x="0" y="0" width="116" height="14" rx="3"></rect>
                <rect id="mobile-text" fill-opacity="0.2" fill="#CEDCED" x="4" y="4" width="73" height="6" rx="2"></rect>
            </g>
            <rect id="Rectangle" fill="#0071BB" x="15" y="183" width="116" height="20" rx="3"></rect>
        </g>
    </g>
</svg>