<svg width="541" height="350" xmlns="http://www.w3.org/2000/svg"><defs><linearGradient x1="50%" y1="0%" x2="50%" y2="100%" id="a"><stop stop-color="#0071BB" offset="0%"/><stop stop-color="#205493" offset="100%"/></linearGradient><linearGradient x1="-39.238%" y1="3.789%" x2="97.815%" y2="102.939%" id="b"><stop stop-color="#E9F0F7" offset="0%"/><stop stop-color="#E9F0F7" offset="1.635%"/><stop stop-color="#E8EFF7" offset="6.991%"/><stop stop-color="#205493" offset="100%"/></linearGradient><linearGradient x1="-39.238%" y1="35.641%" x2="97.815%" y2="66.45%" id="c"><stop stop-color="#E9F0F7" offset="0%"/><stop stop-color="#E9F0F7" offset="1.635%"/><stop stop-color="#E8EFF7" offset="6.991%"/><stop stop-color="#205493" offset="100%"/></linearGradient><linearGradient x1="-39.238%" y1="24.006%" x2="97.815%" y2="79.778%" id="d"><stop stop-color="#E9F0F7" offset="0%"/><stop stop-color="#E9F0F7" offset="1.635%"/><stop stop-color="#E8EFF7" offset="6.991%"/><stop stop-color="#205493" offset="100%"/></linearGradient><linearGradient x1="19.993%" y1="-365.903%" x2="66.078%" y2="526.451%" id="e"><stop stop-color="#E9F0F7" offset="0%"/><stop stop-color="#E9F0F7" offset="1.635%"/><stop stop-color="#E8EFF7" offset="6.991%"/><stop stop-color="#205493" offset="100%"/></linearGradient><linearGradient x1="50%" y1="0%" x2="50%" y2="100%" id="f"><stop stop-color="#0071BB" offset="0%"/><stop stop-color="#205493" offset="100%"/></linearGradient><linearGradient x1="-39.238%" y1="43.942%" x2="97.815%" y2="56.94%" id="g"><stop stop-color="#E9F0F7" offset="0%"/><stop stop-color="#E9F0F7" offset="1.635%"/><stop stop-color="#E8EFF7" offset="6.991%"/><stop stop-color="#205493" offset="100%"/></linearGradient><linearGradient x1="-39.238%" y1="34.911%" x2="97.815%" y2="67.286%" id="h"><stop stop-color="#E9F0F7" offset="0%"/><stop stop-color="#E9F0F7" offset="1.635%"/><stop stop-color="#E8EFF7" offset="6.991%"/><stop stop-color="#205493" offset="100%"/></linearGradient></defs><g fill="none" fill-rule="evenodd"><g transform="translate(51)"><rect fill-opacity=".05" fill="#FFF" width="490" height="350" rx="7"/><rect fill="#112E51" x="3" y="3" width="484" height="344" rx="7"/><path d="M7 3h476a4 4 0 014 4v10H3V7a4 4 0 014-4z" fill="#0071BB"/><g transform="translate(11 7)" fill="#205493"><circle cx="3" cy="3" r="3"/><circle cx="13" cy="3" r="3"/><circle cx="23" cy="3" r="3"/></g><rect stroke="url(#a)" stroke-width="1.5" x="3" y="3" width="484" height="344" rx="4"/><g transform="translate(371 32)" fill="#CEDCED" fill-opacity=".2" stroke="url(#b)"><rect x="53" width="42" height="14" rx="7"/><rect width="42" height="14" rx="7"/></g><g transform="translate(129 182)" fill="#CEDCED" fill-opacity=".2"><rect stroke="url(#c)" y="24" width="296" height="55" rx="3"/><rect x="10" y="39" width="116" height="8" rx="2"/><rect x="10" y="57" width="73" height="8" rx="2"/><rect x="249" y="57" width="37" height="8" rx="2"/><rect width="73" height="14" rx="2"/></g><g transform="translate(130 63)" fill="#CEDCED"><rect stroke="url(#d)" fill-opacity=".2" y="24" width="296" height="74" rx="3"/><rect fill-opacity=".3" x="249" y="75" width="37" height="8" rx="2"/><rect fill-opacity=".3" x="10" y="75" width="73" height="8" rx="2"/><rect fill-opacity=".3" x="249" y="57" width="37" height="8" rx="2"/><rect fill-opacity=".3" x="10" y="57" width="73" height="8" rx="2"/><rect fill-opacity=".3" x="10" y="39" width="116" height="8" rx="2"/><rect fill-opacity=".2" width="73" height="14" rx="2"/></g><g transform="translate(21 63)" fill="#CEDCED" fill-opacity=".2"><rect stroke="url(#e)" width="98" height="169" rx="3"/><rect x="8" y="25" width="82" height="8" rx="2"/><rect x="8" y="41" width="76" height="8" rx="2"/><rect x="8" y="95" width="76" height="8" rx="2"/><rect x="8" y="149" width="76" height="8" rx="2"/><rect x="8" y="57" width="82" height="8" rx="2"/><rect x="8" y="111" width="82" height="8" rx="2"/><rect x="8" y="73" width="82" height="14" rx="2"/><rect x="8" y="127" width="82" height="14" rx="2"/></g><g fill-rule="nonzero"><path d="M34.668 29h-5.726v20.706c5.433-2.465 7.332-5.66 7.813-6.656.09-.19.136-.4.134-.61V31.277c0-.604-.234-1.184-.65-1.61a2.194 2.194 0 00-1.57-.668z" fill="#B51E23"/><path d="M23.221 29C21.994 29 21 30.02 21 31.278v11.161a1.4 1.4 0 00.135.611c.48.986 2.403 4.206 7.807 6.656V29h-5.72z" fill="#E21D3E"/><path d="M30.351 37.923a2.348 2.348 0 00.736-2.573 2.26 2.26 0 00-2.13-1.556 2.26 2.26 0 00-2.131 1.556 2.348 2.348 0 00.736 2.573c-.25 1.45-.496 2.899-.74 4.348.7.124 1.41.187 2.12.188.721.015 1.442-.035 2.154-.148-.25-1.48-.48-2.929-.745-4.388z" fill="#FFF"/></g></g><g transform="translate(0 80)"><rect fill-opacity=".05" fill="#FFF" width="146" height="258" rx="7"/><rect fill="#112E51" x="3" y="3" width="140" height="252" rx="4"/><path d="M7 3h132a4 4 0 014 4v10H3V7a4 4 0 014-4z" fill="#0071BB"/><rect stroke="url(#f)" stroke-width="1.5" x="3" y="3" width="140" height="252" rx="4"/><circle fill="#205493" cx="73" cy="10" r="3"/><rect fill="#205493" x="15" y="9" width="20" height="2" rx="1"/><rect fill="#205493" x="111" y="9" width="20" height="2" rx="1"/><g fill-rule="nonzero"><path d="M83.628 44H72.892v37.468c10.186-4.46 13.747-10.242 14.648-12.044a2.46 2.46 0 00.253-1.106V48.121a4.1 4.1 0 00-1.22-2.914A4.187 4.187 0 0083.628 44z" fill="#B51E23"/><path d="M62.165 44C59.865 44 58 45.845 58 48.121v20.197a2.46 2.46 0 00.252 1.106c.902 1.785 4.508 7.61 14.64 12.044V44H62.165z" fill="#E21D3E"/><path d="M75.533 60.147a4.158 4.158 0 001.381-4.657 4.225 4.225 0 00-3.995-2.815 4.225 4.225 0 00-3.995 2.815 4.158 4.158 0 001.38 4.657c-.468 2.623-.93 5.245-1.388 7.868a23.84 23.84 0 003.976.339 23.579 23.579 0 004.038-.268c-.468-2.676-.901-5.299-1.397-7.94z" fill="#FFF"/></g><g transform="translate(15 107)"><rect stroke="url(#g)" fill-opacity=".2" fill="#CEDCED" y="38" width="116" height="14" rx="3"/><g fill="#5C728D" fill-rule="nonzero"><path d="M6.386 49l1.634-2.8 1.623 2.75 1.535-1.104-1.975-2.43L12 44.584l-.528-1.706-2.768 1.245L8.968 41H7.1l.215 3.112-2.709-1.215L4 44.604l2.875.823-2.024 2.479zm12 0l1.634-2.8 1.623 2.75 1.535-1.104-1.975-2.43L24 44.584l-.528-1.706-2.768 1.245.264-3.122H19.1l.215 3.112-2.709-1.215L16 44.604l2.875.823-2.024 2.479zm12 0l1.634-2.8 1.623 2.75 1.535-1.104-1.975-2.43L36 44.584l-.528-1.706-2.768 1.245.264-3.122H31.1l.215 3.112-2.709-1.215L28 44.604l2.875.823-2.024 2.479z"/><path d="M30.386 49l1.634-2.8 1.623 2.75 1.535-1.104-1.975-2.43L36 44.584l-.528-1.706-2.768 1.245.264-3.122H31.1l.215 3.112-2.709-1.215L28 44.604l2.875.823-2.024 2.479zm12 0l1.634-2.8 1.623 2.75 1.535-1.104-1.975-2.43L48 44.584l-.528-1.706-2.768 1.245.264-3.122H43.1l.215 3.112-2.709-1.215L40 44.604l2.875.823-2.024 2.479zm12 0l1.634-2.8 1.623 2.75 1.535-1.104-1.975-2.43L60 44.584l-.528-1.706-2.768 1.245.264-3.122H55.1l.215 3.112-2.709-1.215L52 44.604l2.875.823-2.024 2.479z"/></g><rect stroke="url(#h)" fill-opacity=".1" fill="#CEDCED" x="74" y="26" width="42" height="8" rx="2"/><rect stroke="url(#g)" fill-opacity=".2" fill="#CEDCED" width="116" height="14" rx="3"/><rect fill-opacity=".2" fill="#CEDCED" x="4" y="4" width="73" height="6" rx="2"/></g><rect fill="#0071BB" x="15" y="183" width="116" height="20" rx="3"/></g></g></svg>