<svg xmlns="http://www.w3.org/2000/svg" width="307" height="277" fill="none"><path fill="#cedced" d="M5 121q0 .522.004 1.044l12-.081q-.005-.48-.004-.963zm.014 2.08.018 1.047 11.997-.244-.016-.966zm.042 2.08.032 1.035 11.993-.406-.03-.954zm.071 2.089.046 1.037 11.986-.57-.042-.956zm.098 2.066.06 1.04 11.978-.732-.055-.958zm12.1 1.275-11.972.815.075 1.041 11.966-.897-.069-.96zM5.51 133.487q.043.522.09 1.042l11.952-1.062-.082-.96zm.184 2.074.103 1.03 11.937-1.226-.094-.947zm12.141.76-11.928 1.306.116 1.03 11.92-1.389-.108-.948zm.223 1.907L6.147 139.7l.131 1.03 11.899-1.554q-.062-.472-.12-.948zM6.419 141.78l.145 1.03 11.876-1.72-.133-.947zm.297 2.056.16 1.028 11.851-1.882-.147-.947-11.864 1.8zm.325 2.046.174 1.028 11.825-2.046-.16-.945-11.84 1.961zm12.165-.075-11.81 2.127.188 1.026 11.795-2.209zM7.781 149.99q.1.512.203 1.024l11.763-2.373-.187-.942zm.413 2.047.217 1.021 11.73-2.536-.2-.94zm.44 2.037.232 1.018 11.693-2.698-.213-.937zm.468 2.027.246 1.015 11.654-2.86-.226-.935zm.499 2.03.26 1.012 11.612-3.023-.238-.93L9.6 158.13zm.526 2.02.273 1.007 11.57-3.184-.252-.927zm.552 2.009.288 1.003 11.524-3.345-.264-.923zm.584 2.011.301.998 11.477-3.505-.277-.918zm.61 2 .316.992 11.426-3.665-.29-.913zm.639 1.987.328.987 11.374-3.823-.302-.908zm.654 1.949.341.981 11.321-3.98-.313-.902zm.69 1.963.355.975 11.264-4.136-.325-.897zm.717 1.952.371.978 11.206-4.292-.341-.9zm.748 1.951.383.972 11.146-4.448-.353-.894zm.773 1.939.397.964 11.082-4.603-.365-.886zm.8 1.925.409.956 11.017-4.756-.376-.879-11.05 4.68zm.825 1.912.42.947 10.951-4.907-.387-.872zm.851 1.898.437.948 10.881-5.06-.402-.872zm.882 1.897.449.94 10.81-5.211-.413-.864zm.908 1.883.46.93 10.736-5.36-.423-.856zm.932 1.868.476.928 10.66-5.508-.437-.855zm.958 1.853.486.918 10.584-5.655-.448-.845zm.982 1.838.502.916 10.504-5.802-.462-.843zm1.007 1.823.512.905 10.423-5.946-.471-.833zm11.42-4.2-10.382 6.02.526.9 10.34-6.09zm-9.327 7.81.536.89 10.255-6.231-.494-.82-10.297 6.162zm1.086 1.788.55.886 10.168-6.374-.507-.815zm1.11 1.772.56.872 10.079-6.513-.516-.803zm1.134 1.754.574.868 9.987-6.652-.528-.799zm1.158 1.738.587.861 9.894-6.789-.54-.793-9.941 6.72zm1.18 1.72.6.856 9.8-6.926-.552-.787L32 207.192zm1.204 1.704.607.84 9.705-7.058-.56-.774zm1.227 1.686.62.833 9.605-7.192-.57-.767zm1.24 1.657.631.825 9.507-7.322-.581-.76zm1.263 1.64.642.816 9.406-7.451-.591-.753zm1.266 1.598.654.809 9.305-7.578-.602-.744zm1.315 1.615.664.799 9.2-7.705-.611-.735-9.253 7.64zm1.345 1.606.675.789 9.093-7.83-.621-.727zm1.358 1.577.69.784 8.984-7.955-.635-.722zm1.38 1.558.698.773 8.875-8.077-.644-.712-8.93 8.016zm1.4 1.538.707.762 8.763-8.198-.651-.701-8.82 8.137zm1.43 1.53.72.754 8.65-8.318-.663-.695zm1.442 1.499.728.742 8.535-8.436-.67-.683zm1.462 1.48.74.733 8.419-8.552-.682-.675zm1.492 1.468.752.725 8.3-8.667-.693-.668zm1.502 1.439.758.71 8.18-8.78-.697-.654zm1.522 1.418.768.7 8.06-8.89-.708-.646zm1.552 1.406.777.69 7.936-9-.715-.636zm1.56 1.376.787.68 7.812-9.11-.724-.625zm1.58 1.355.8.671 7.686-9.215-.736-.618zm1.61 1.342.806.659 7.559-9.32-.743-.607zm1.617 1.312.813.645 7.43-9.423-.749-.595zm1.635 1.29.824.635 7.3-9.525-.759-.585-7.365 9.474zm1.654 1.266.833.626 7.168-9.624-.767-.576zm1.671 1.245.843.614 7.034-9.721-.775-.566zm1.69 1.223.85.601 6.9-9.817-.783-.554zm1.706 1.2.857.588 6.765-9.911-.79-.543zm1.724 1.176.867.578 6.627-10.004-.798-.533zm1.74 1.153.873.564 6.488-10.094-.803-.52zm1.759 1.13.88.552 6.348-10.183-.81-.51zm1.774 1.105.89.543 6.207-10.27-.82-.5zm7.925-9.231-6.135 10.313.897.53 6.063-10.356q-.413-.242-.825-.487m-4.34 11.364.905.517 5.92-10.438-.833-.476zm1.822 1.033.912.505 5.774-10.52-.839-.464zm1.826 1.003.917.49 5.629-10.597-.845-.452zm1.84.977.926.48 5.481-10.676-.851-.44zm1.857.953.93.466 5.334-10.75-.857-.429zm1.87.928.94.454 5.182-10.823-.864-.418zm1.885.903q.472.222.946.44l5.032-10.893-.87-.406zm1.9.877.95.427 4.88-10.963-.874-.393-4.956 10.93zm1.9.846.956.414 4.727-11.03-.878-.38-4.804 10.996zm1.928.826.962.4 4.573-11.094-.885-.368zm1.928.795.966.386 4.419-11.157-.89-.355zm1.942.769.973.374 4.263-11.218-.896-.344zm1.954.742.979.36 4.105-11.275-.9-.332zm1.967.716.984.347 3.947-11.332-.905-.319zm1.966.685.988.333 3.79-11.386-.909-.306-3.869 11.36zm1.992.663.992.319 3.63-11.438-.912-.293zm1.963.624.995.304 3.472-11.486-.915-.28zm2.002.605q.5.147 1 .29l3.313-11.533-.92-.268zm5.219-10.986-3.233 11.556 1.005.277 3.152-11.578zm-1.237 12.1 1.01.263 2.992-11.62-.928-.243zm1.98.51 1.012.25 2.833-11.661-.93-.23zm1.99.484 1.015.235 2.674-11.698-.934-.217-2.756 11.68zm2.013.46 1.018.222 2.513-11.734-.936-.204zm2.039.437 1.02.207 2.35-11.767-.939-.191zm2.048.409q.511.098 1.023.193l2.187-11.8-.942-.177zm2.044.378 1.026.18 2.023-11.829-.944-.165zm2.053.352 1.029.165 1.859-11.856-.947-.151-1.94 11.842zm2.063.323 1.03.15 1.695-11.879-.948-.139zm2.071.296 1.033.136 1.53-11.902-.95-.126zm2.066.265 1.033.122 1.366-11.922-.951-.112zm2.074.238 1.035.107 1.201-11.94-.953-.098zm2.067.208 1.037.093 1.038-11.955-.955-.086zm2.075.18 1.038.08.874-11.969-.956-.073zm2.083.152 1.04.065.71-11.979-.958-.06zm2.076.123 1.04.051.546-11.988-.958-.047zm2.083.095q.52.02 1.04.037l.383-11.994-.959-.034zm2.09.067 1.04.022.22-11.998-.96-.02zm2.08.038 1.041.008.058-12-.96-.007zm2.089.01 1.042-.006-.105-12-.962.006zm2.07-.018 1.046-.02-.267-11.997-.964.018zm2.08-.047 1.034-.033-.43-11.993-.952.031zm2.088-.075 1.036-.047-.594-11.986-.954.044.512 11.99zm2.08-.103 1.038-.062-.757-11.976-.956.057.676 11.981zm2.074-.13 1.04-.077-.922-11.965-.957.07zm2.08-.161 1.041-.09-1.085-11.952-.958.084 1.003 11.958zm2.074-.188 1.041-.106-1.25-11.934-.958.097zm2.08-.218 1.027-.118-1.413-11.917-.946.11zm2.071-.246 1.028-.133-1.578-11.895-.946.122zm2.063-.274 1.028-.147-1.742-11.873-.946.136zm2.07-.303 1.026-.162-1.907-11.847-.945.148zm2.044-.33 1.026-.175-2.07-11.82-.943.162 1.987 11.834zm2.05-.358 1.024-.19-2.232-11.79-.942.174zm2.056-.39q.512-.1 1.022-.204l-2.397-11.758-.94.188zm-.446-12.155 2.478 11.741 1.019-.218-2.56-11.724q-.468.102-.937.201m4.527 11.294q.508-.115 1.017-.233l-2.723-11.687-.935.214zm2.026-.472 1.013-.247-2.885-11.648-.932.227zm2.029-.502 1.009-.261-3.047-11.607-.928.24zm2.018-.53q.502-.135 1.005-.275l-3.208-11.563-.925.253zm2.007-.557 1-.289-3.368-11.517-.92.265zm2.01-.588q.498-.15.995-.302l-3.529-11.47-.916.279zm1.997-.614.99-.316-3.688-11.42-.91.291zm1.986-.642.985-.33-3.847-11.366-.906.303zm1.947-.658.979-.343-4.002-11.313-.9.315zm1.962-.694.983-.36-4.16-11.256-.904.33zm1.949-.72.976-.373-4.315-11.197-.898.342zm1.95-.752q.484-.191.969-.385l-4.47-11.136-.892.354zm1.937-.778.96-.397-4.624-11.073-.884.366zm1.923-.803.953-.41-4.778-11.008-.876.377zm1.91-.829.954-.426-4.93-10.94-.878.392zm1.909-.86.945-.438-5.082-10.87-.87.402zm1.882-.88.936-.45-5.232-10.8-.861.415zm1.88-.911.936-.466-5.382-10.725-.86.428zm1.866-.936.926-.477-5.53-10.65-.852.439zm1.851-.961.915-.488-5.676-10.572-.842.448zm1.836-.986.913-.503-5.822-10.493-.84.463 5.75 10.533zm1.833-1.017q.452-.255.902-.513l-5.967-10.411-.83.472zm1.805-1.035.899-.527-6.11-10.328-.828.486 6.039 10.37zm1.801-1.066.887-.537-6.253-10.242-.816.494zm1.785-1.09.883-.551-6.394-10.155-.813.508zm1.757-1.106.878-.565-6.534-10.066-.808.52zm1.752-1.137.865-.574-6.672-9.975-.795.529zm1.736-1.161q.43-.292.858-.587l-6.808-9.882-.79.54zm1.718-1.184.852-.6-6.944-9.787-.785.553zm1.712-1.215.845-.613-7.08-9.69-.777.565zm1.672-1.222.837-.625-7.21-9.591-.772.575zm1.655-1.243.829-.637-7.342-9.492-.763.586zm1.625-1.257.814-.643-7.469-9.392-.75.592zm1.62-1.288.804-.653-7.596-9.29-.741.602zm1.61-1.318.802-.669-7.723-9.184-.738.616 7.66 9.237zm1.594-1.34.791-.679-7.848-9.077-.73.626zm1.574-1.36.78-.69-7.972-8.968-.719.634zm1.565-1.392.77-.698-8.095-8.858-.709.643zm1.536-1.403.763-.712-8.216-8.746-.703.655zm1.516-1.424.751-.72-8.335-8.633-.691.663zm1.507-1.454.743-.733-8.453-8.518-.685.675zm1.476-1.466.73-.74-8.569-8.4-.672.68zm1.456-1.485.721-.75-8.683-8.284-.664.692zm1.445-1.515.712-.762-8.796-8.162-.656.702zm1.415-1.525.702-.772-8.908-8.04-.646.71zm1.394-1.544.691-.781-9.017-7.919-.636.72zm1.382-1.574.68-.79-9.125-7.793-.626.727zm1.352-1.582.668-.799-9.231-7.667-.615.735 9.178 7.73zm1.33-1.602.655-.805-9.335-7.54-.603.741zm1.317-1.63.646-.817-9.439-7.41-.594.752zm1.286-1.639.636-.827-9.54-7.28-.585.762 9.49 7.345zm1.264-1.656.622-.832-9.639-7.148-.572.766 9.59 7.214zm1.242-1.674.61-.84-9.736-7.016-.562.774zm1.219-1.692.6-.853-9.831-6.88-.554.786zm1.196-1.71.588-.859-9.926-6.744-.541.792zm1.173-1.725.575-.866-10.018-6.606-.53.796zm-8.914-8.28 10.063 6.536.564-.874-10.108-6.468q-.259.403-.52.805zm11.19 4.776.551-.882-10.197-6.327-.507.812zm1.094-1.765.54-.888-10.283-6.187-.496.819 10.24 6.256zm1.079-1.792.528-.899-10.368-6.043-.486.827zm1.054-1.81.516-.906-10.45-5.898-.475.834 10.41 5.97zm1.023-1.812.503-.913-10.53-5.754-.464.84zm.999-1.828.49-.918-10.61-5.608-.45.846zm.98-1.855.478-.926-10.687-5.46-.439.853zm.95-1.858.464-.932-10.762-5.31-.426.857zm.924-1.873.451-.94-10.833-5.16-.416.864zm.899-1.888.438-.945-10.904-5.01-.404.87zm.867-1.889.425-.949-10.973-4.858-.39.874zm.848-1.915.413-.958-11.04-4.704-.38.881 11.007 4.78zm.817-1.917.398-.96-11.104-4.551-.366.884zm.791-1.93.385-.968-11.166-4.395-.354.89zm.765-1.943.371-.972-11.226-4.24-.341.895zm.739-1.956.357-.977-11.284-4.083-.329.899zm.712-1.969.345-.984-11.34-3.925-.317.905zm.686-1.982.33-.988-11.394-3.766-.304.91zm.645-1.952.317-.992-11.444-3.61-.292.913 11.42 3.689zm.628-1.992.303-.997-11.493-3.449-.279.917 11.47 3.529zm.602-2.004q.146-.501.289-1.002l-11.54-3.288-.267.921zm.566-1.987.275-1.006-11.584-3.129-.254.925zm.54-1.999.261-1.008-11.627-2.969-.24.928 11.606 3.05zm.506-1.98.248-1.013-11.667-2.81-.228.932 11.647 2.89zm-11.205-4.723 11.685 2.732.233-1.016-11.703-2.65q-.105.467-.215.934m12.141.716q.112-.509.22-1.018l-11.74-2.49-.201.938zm-11.323-4.447 11.756 2.407.205-1.022-11.772-2.326q-.093.47-.19.94zm12.16.357.192-1.025-11.803-2.162-.177.943 11.789 2.244zm.375-2.045.178-1.027-11.833-1.999-.163.945zm.348-2.055.162-1.029-11.858-1.835-.15.948zm.319-2.064.148-1.03-11.883-1.67-.137.948zm.29-2.058.134-1.032-11.906-1.507-.123.95 11.894 1.59zm.26-2.066.12-1.035-11.924-1.343-.11.953 11.915 1.425zm.234-2.076.106-1.035-11.942-1.179-.097.954zm.206-2.083.091-1.037-11.957-1.013-.084.955zm.176-2.076q.04-.519.077-1.039l-11.97-.849-.071.956zm.147-2.07q.033-.519.063-1.039l-11.98-.686-.059.957zm.12-2.091.048-1.04-11.989-.522-.045.958zm.09-2.07.034-1.04-11.995-.359-.031.959zm.062-2.09q.012-.52.02-1.04l-11.998-.196-.019.959zm.034-2.082.006-1.04-12-.034-.005.96z"/><path fill="url(#a)" d="M16.56 51.666a.75.75 0 1 1 1.343.668c-37.925 76.292-6.79 168.866 69.543 206.771s168.958 6.786 206.883-69.506a.746.746 0 0 1 1.003-.332.75.75 0 0 1 .34 1c-38.294 77.034-131.818 108.455-208.893 70.182C9.704 222.175-21.734 128.7 16.56 51.666"/><path fill="url(#b)" d="M154.5 0C89.607 0 37 52.607 37 117.5S89.607 235 154.5 235c64.894 0 117.5-52.607 117.5-117.5S219.394 0 154.5 0m0 10C213.87 10 262 58.13 262 117.5S213.87 225 154.5 225 47 176.87 47 117.5 95.13 10 154.5 10"/><path fill="#cedced" d="M101.968 207.6c5.291 0 9.581-4.298 9.581-9.6s-4.29-9.6-9.581-9.6-9.581 4.298-9.581 9.6 4.29 9.6 9.581 9.6"/><path stroke="#ebf3fa" stroke-linecap="round" stroke-width="3" d="M101.865 182C93.103 182 86 189.163 86 198s7.103 16 15.865 16 15.866-7.163 15.866-16"/><path fill="#ebf3fa" d="M117.096 193.52c1.051 0 1.904-.86 1.904-1.92s-.853-1.92-1.904-1.92c-1.052 0-1.904.86-1.904 1.92s.852 1.92 1.904 1.92"/><path fill="#f2f9ff" d="M281 50H175a4 4 0 0 0-4 4v28a4 4 0 0 0 4 4h106a4 4 0 0 0 4-4V54a4 4 0 0 0-4-4"/><path fill="#cedced" d="M276 62h-67a1 1 0 0 0-1 1v2a1 1 0 0 0 1 1h67a1 1 0 0 0 1-1v-2a1 1 0 0 0-1-1m-13 8h-54a1 1 0 0 0-1 1v2a1 1 0 0 0 1 1h54a1 1 0 0 0 1-1v-2a1 1 0 0 0-1-1m-73.5 8a9.5 9.5 0 0 0 9.5-9.5 9.5 9.5 0 0 0-9.5-9.5 9.5 9.5 0 0 0-9.5 9.5 9.5 9.5 0 0 0 9.5 9.5"/><path fill="#0071bb" d="M122.5 55H93a4 4 0 0 0-4 4v38.071a4 4 0 0 0 4 4h29.5a4 4 0 0 0 4-4V59a4 4 0 0 0-4-4"/><path fill="#112e51" d="M119.072 90.357H96.429a1 1 0 0 0-1 1v2.286a1 1 0 0 0 1 1h22.643a1 1 0 0 0 1-1v-2.286a1 1 0 0 0-1-1M107.75 61.429c-6.807 0-12.321 5.514-12.321 12.321s5.514 12.321 12.321 12.321 12.321-5.514 12.321-12.321-5.514-12.321-12.321-12.321m0 4.77a4.37 4.37 0 0 1 4.039 2.699 4.37 4.37 0 0 1-.948 4.764 4.38 4.38 0 0 1-3.091 1.281 4.372 4.372 0 1 1 0-8.745zm0 17.09a9.52 9.52 0 0 1-7.279-3.388c.934-1.759 2.763-2.971 4.894-2.971q.181.001.353.054c.655.22 1.341.336 2.032.343.71 0 1.391-.134 2.032-.343q.173-.053.353-.054c2.131 0 3.96 1.212 4.894 2.97a9.51 9.51 0 0 1-7.279 3.39z"/><path fill="#0071bb" d="M217.929 147H193a2 2 0 0 0-2 2v35.618a2 2 0 0 0 2 2h24.929a2 2 0 0 0 2-2V149a2 2 0 0 0-2-2"/><path fill="#0071bb" d="M213.984 170.771h-17.039a2 2 0 0 0-2 2v29.015a2 2 0 0 0 2 2h17.039a2 2 0 0 0 2-2v-29.015a2 2 0 0 0-2-2"/><path fill="#f2f9ff" fill-rule="evenodd" d="M197.575 186.618h2.869v14.527h-2.869zm4.303 0h2.869v11.885h-2.869zm4.304 0h2.869v11.885h-2.869zm4.303 0h2.869v14.527h-2.869z" clip-rule="evenodd"/><path fill="#cedced" d="M205.464 170.771c5.084 0 9.205-4.139 9.205-9.244s-4.121-9.244-9.205-9.244-9.205 4.139-9.205 9.244 4.121 9.244 9.205 9.244"/><path fill="#f2f9ff" d="M105.5 128h-62c-7.456 0-13.5 6.044-13.5 13.5v1c0 7.456 6.044 13.5 13.5 13.5h62c7.456 0 13.5-6.044 13.5-13.5v-1c0-7.456-6.044-13.5-13.5-13.5"/><path fill="#0071bb" d="m40.839 149 2.627-4.55 2.612 4.468 2.47-1.794-3.178-3.947 4.5-1.354-.85-2.773-4.452 2.023.424-5.073h-3.005l.346 5.056-4.358-1.973-.975 2.773 4.625 1.337-3.256 4.03zm15.014 0 2.628-4.55 2.611 4.468 2.47-1.794-3.178-3.947 4.5-1.354-.85-2.773-4.452 2.023.425-5.073h-3.005l.346 5.056-4.358-1.973-.976 2.773 4.626 1.337-3.257 4.03zm16.087 0 2.628-4.55 2.611 4.468 2.47-1.794-3.178-3.947 4.5-1.354-.85-2.773-4.452 2.023.425-5.073h-3.005l.346 5.056-4.358-1.973-.976 2.773 4.626 1.337-3.257 4.03zm15.015 0 2.627-4.55 2.612 4.468 2.47-1.794-3.178-3.947 4.5-1.354-.85-2.773-4.453 2.023.425-5.073h-3.005l.346 5.056-4.358-1.973-.975 2.773 4.625 1.337-3.256 4.03zm15.014 0 2.628-4.55 2.611 4.468 2.47-1.794-3.178-3.947 4.5-1.354-.85-2.773-4.452 2.023.425-5.073h-3.005l.346 5.056-4.358-1.973-.976 2.773 4.626 1.337-3.257 4.03L101.97 149z"/><path fill="#f2f9ff" d="M150 21H44a4 4 0 0 0-4 4v13a4 4 0 0 0 4 4h106a4 4 0 0 0 4-4V25a4 4 0 0 0-4-4"/><path fill="#cedced" d="M131 30H50a1 1 0 0 0-1 1v2a1 1 0 0 0 1 1h81a1 1 0 0 0 1-1v-2a1 1 0 0 0-1-1m10 6a5 5 0 1 0 0-10 5 5 0 0 0 0 10"/><path fill="#f2f9ff" d="M149 124h90a4 4 0 0 0 4-4v-13a4 4 0 0 0-4-4h-90a4 4 0 0 0-4 4v13a4 4 0 0 0 4 4"/><path fill="#cedced" d="M166 115h69a1 1 0 0 0 1-1v-2a1 1 0 0 0-1-1h-69a1 1 0 0 0-1 1v2a1 1 0 0 0 1 1"/><path fill="#a6d5af" d="M283.5 57a5.5 5.5 0 1 0 0-11 5.5 5.5 0 0 0 0 11"/><path fill="#fcf197" d="M126.5 48a5.5 5.5 0 1 0 0-11 5.5 5.5 0 0 0 0 11m66 173a5.5 5.5 0 1 0 0-11 5.5 5.5 0 1 0 0 11m-102-116a5.5 5.5 0 1 0 0-11 5.5 5.5 0 0 0 0 11"/><path fill="#a6d5af" d="M57.5 162a5.5 5.5 0 1 0 0-11 5.5 5.5 0 0 0 0 11"/><path fill="#f5d600" d="M194.286 108.74h-5.357V92.6c0-18.786-15.224-34.075-33.929-34.075S121.071 73.814 121.071 92.6v16.14h-5.357c-5.915 0-10.714 4.82-10.714 10.76v43.043c0 5.94 4.8 10.76 10.714 10.76h78.572c5.915 0 10.714-4.82 10.714-10.76v-43.042c0-5.94-4.8-10.76-10.714-10.76zm-23.215 0H138.93V92.6c0-8.9 7.21-16.141 16.071-16.141s16.071 7.24 16.071 16.14v16.141z"/><path fill="#cab000" d="M205 139.15v22.29c0 6.627-5.373 12-12 12h-76c-6.627 0-12-5.373-12-12v-22.29zM139 105v4h-18v-4zm50 0v4h-18v-4z"/><path fill="#fff" d="M160.204 138.913c2.818-2.297 3.922-6.192 2.748-9.702s-4.366-5.864-7.952-5.864-6.779 2.354-7.952 5.864-.07 7.405 2.748 9.702a3785 3785 0 0 0-2.763 16.391c2.614.466 5.261.703 7.913.706 2.69.056 5.38-.13 8.039-.557-.933-5.576-1.795-11.04-2.781-16.54"/><defs><linearGradient id="a" x1="198.378" x2="7.478" y1="265.033" y2="74.468" gradientUnits="userSpaceOnUse"><stop stop-color="#0071bb"/><stop offset="1" stop-color="#cedced"/></linearGradient><linearGradient id="b" x1="173.457" x2="359.979" y1="170.229" y2="390.951" gradientUnits="userSpaceOnUse"><stop stop-color="#ebf3fa"/><stop offset="1" stop-color="#0071bb"/></linearGradient></defs></svg>