<svg width="307" height="277" viewBox="0 0 307 277" fill="none" xmlns="http://www.w3.org/2000/svg"><path d="M5 121c0 .348.001.696.004 1.044l12-.081C17 121.643 17 121.321 17 121H5zm.014 2.08l.018 1.047 11.997-.244-.016-.966-11.999.162v.001zm.042 2.08l.032 1.035 11.993-.406-.03-.954-11.995.325zm.071 2.089l.046 1.037 11.986-.57-.042-.956-11.99.489zm.098 2.066l.06 1.04 11.978-.732-.055-.958-11.983.65zm12.1 1.275l-11.972.815.075 1.041 11.966-.897-.069-.96v.001zM5.51 133.487c.029.348.058.695.09 1.042l11.952-1.062-.082-.96-11.96.98zm.184 2.074l.103 1.03 11.937-1.226-.094-.947-11.946 1.143zm12.141.76l-11.928 1.306.116 1.03 11.92-1.389-.108-.948v.001zm.223 1.907L6.147 139.7l.131 1.03 11.899-1.554c-.041-.315-.081-.631-.12-.948h.001zM6.419 141.78l.145 1.03 11.876-1.72-.133-.947-11.888 1.637zm.297 2.056l.16 1.028 11.851-1.882-.147-.947-11.864 1.8v.001zm.325 2.046l.174 1.028 11.825-2.046-.16-.945-11.84 1.961.001.002zm12.165-.075l-11.81 2.127.188 1.026 11.795-2.209-.173-.944zM7.781 149.99c.067.341.134.683.203 1.024l11.763-2.373-.187-.942-11.779 2.291zm.413 2.047l.217 1.021 11.73-2.536-.2-.94-11.747 2.455zm.44 2.037l.232 1.018 11.693-2.698-.213-.937-11.711 2.617h-.001zm.468 2.027l.246 1.015 11.654-2.86-.226-.935-11.674 2.78zm.499 2.03l.26 1.012 11.612-3.023-.238-.93L9.6 158.13l.001.001zm.526 2.02l.273 1.007 11.57-3.184-.252-.927-11.591 3.104zm.552 2.009l.288 1.003 11.524-3.345-.264-.923-11.548 3.265zm.584 2.011l.301.998 11.477-3.505-.277-.918-11.5 3.425h-.001zm.61 2l.316.992 11.426-3.665-.29-.913-11.451 3.586h-.001zm.639 1.987l.328.987 11.374-3.823-.302-.908-11.4 3.744zm.654 1.949l.341.981 11.321-3.98-.313-.902-11.349 3.9v.001zm.69 1.963l.355.975 11.264-4.136-.325-.897-11.293 4.058h-.001zm.717 1.952l.371.978 11.206-4.292-.341-.9-11.236 4.214zm.748 1.951l.383.972 11.146-4.448-.353-.894-11.176 4.37zm.773 1.939l.397.964 11.082-4.603-.365-.886-11.114 4.525zm.8 1.925l.409.956 11.017-4.756-.376-.879-11.05 4.68v-.001zm.825 1.912l.42.947 10.951-4.907-.387-.872-10.984 4.832zm.851 1.898l.437.948 10.881-5.06-.402-.872-10.916 4.984zm.882 1.897l.449.94 10.81-5.211-.413-.864-10.846 5.135zm.908 1.883l.46.93 10.736-5.36-.423-.856-10.773 5.286zm.932 1.868l.476.928 10.66-5.508-.437-.855-10.699 5.435zm.958 1.853l.486.918 10.584-5.655-.448-.845-10.622 5.582zm.982 1.838l.502.916 10.504-5.802-.462-.843-10.544 5.729zm1.007 1.823l.512.905 10.423-5.946-.471-.833-10.464 5.874zm11.42-4.2l-10.382 6.02.526.9 10.34-6.09a143.61 143.61 0 01-.485-.83h.001zm-9.327 7.81l.536.89 10.255-6.231-.494-.82-10.297 6.162v-.001zm1.086 1.788l.55.886 10.168-6.374-.507-.815-10.21 6.303h-.001zm1.11 1.772l.56.872 10.079-6.513-.516-.803-10.123 6.444zm1.134 1.754l.574.868 9.987-6.652-.528-.799-10.033 6.583zm1.158 1.738l.587.861 9.894-6.789-.54-.793-9.941 6.72v.001zm1.18 1.72l.6.856 9.8-6.926-.552-.787L32 207.192v-.001zm1.204 1.704l.607.84 9.705-7.058-.56-.774-9.752 6.992zm1.227 1.686l.62.833 9.605-7.192-.57-.767-9.655 7.126zm1.24 1.657l.631.825 9.507-7.322-.581-.76-9.557 7.257zm1.263 1.64l.642.816 9.406-7.451-.591-.753-9.457 7.387v.001zm1.266 1.598l.654.809 9.305-7.578-.602-.744-9.357 7.513zm1.315 1.615l.664.799 9.2-7.705-.611-.735-9.253 7.64v.001zm1.345 1.606l.675.789 9.093-7.83-.621-.727-9.147 7.768zm1.358 1.577l.69.784 8.984-7.955-.635-.722-9.039 7.893zm1.38 1.558l.698.773 8.875-8.077-.644-.712-8.93 8.016h.001zm1.4 1.538l.707.762 8.763-8.198-.651-.701-8.82 8.137h.001zm1.43 1.53l.72.754 8.65-8.318-.663-.695-8.707 8.259zm1.442 1.499l.728.742 8.535-8.436-.67-.683-8.593 8.377zm1.462 1.48l.74.733 8.419-8.552-.682-.675-8.477 8.493v.001zm1.492 1.468l.752.725 8.3-8.667-.693-.668-8.359 8.61zm1.502 1.439l.758.71 8.18-8.78-.697-.654-8.24 8.724h-.001zm1.522 1.418l.768.7 8.06-8.89-.708-.646-8.12 8.836zm1.552 1.406l.777.69 7.936-9-.715-.636-7.998 8.946zm1.56 1.376l.787.68 7.812-9.11-.724-.625-7.874 9.055h-.001zm1.58 1.355l.8.671 7.686-9.215-.736-.618-7.75 9.162zm1.61 1.342l.806.659 7.559-9.32-.743-.607-7.622 9.268zm1.617 1.312l.813.645 7.43-9.423-.749-.595-7.494 9.373zm1.635 1.29l.824.635 7.3-9.525-.759-.585-7.365 9.474v.001zm1.654 1.266l.833.626 7.168-9.624-.767-.576-7.234 9.574zm1.671 1.245l.843.614 7.034-9.721-.775-.566-7.102 9.673zm1.69 1.223l.85.601 6.9-9.817-.783-.554-6.967 9.77zm1.706 1.2l.857.588 6.765-9.911-.79-.543-6.832 9.865v.001zm1.724 1.176l.867.578 6.627-10.004-.798-.533-6.696 9.959zm1.74 1.153l.873.564 6.488-10.094-.803-.52-6.557 10.05h-.001zm1.759 1.13l.88.552 6.348-10.183-.81-.51-6.418 10.14v.001zm1.774 1.105l.89.543 6.207-10.27-.82-.5-6.277 10.227zm7.925-9.231l-6.135 10.313.897.53 6.063-10.356c-.275-.161-.55-.324-.825-.487zm-4.34 11.364l.905.517 5.92-10.438-.833-.476-5.992 10.397zm1.822 1.033l.912.505 5.774-10.52-.839-.464-5.847 10.48v-.001zm1.826 1.003l.917.49 5.629-10.597-.845-.452-5.701 10.559zm1.84.977l.926.48 5.481-10.676-.851-.44-5.555 10.636h-.001zm1.857.953l.93.466 5.334-10.75-.857-.429-5.407 10.713zm1.87.928l.94.454 5.182-10.823-.864-.418-5.258 10.787zm1.885.903c.315.148.63.295.946.44l5.032-10.893-.87-.406-5.108 10.859zm1.9.877l.95.427 4.88-10.963-.874-.393-4.956 10.93v-.001zm1.9.846l.956.414 4.727-11.03-.878-.38-4.804 10.996h-.001zm1.928.826l.962.4 4.573-11.094-.885-.368-4.65 11.062zm1.928.795l.966.386 4.419-11.157-.89-.355-4.495 11.126zm1.942.769l.973.374 4.263-11.218-.896-.344-4.34 11.188zm1.954.742l.979.36 4.105-11.275-.9-.332-4.184 11.247zm1.967.716l.984.347 3.947-11.332-.905-.319-4.026 11.304zm1.966.685l.988.333 3.79-11.386-.909-.306-3.869 11.36v-.001zm1.992.663l.992.319 3.63-11.438-.912-.293-3.71 11.412zm1.963.624l.995.304 3.472-11.486-.915-.28-3.552 11.462zm2.002.605c.333.098.667.195 1 .29l3.313-11.533-.92-.268-3.393 11.51v.001zm5.219-10.986l-3.233 11.556 1.005.277 3.152-11.578-.924-.255zm-1.237 12.1l1.01.263 2.992-11.62-.928-.243-3.074 11.6zm1.98.51l1.012.25 2.833-11.661-.93-.23-2.915 11.64v.001zm1.99.484l1.015.235 2.674-11.698-.934-.217-2.756 11.68h.001zm2.013.46l1.018.222 2.513-11.734-.936-.204-2.595 11.716zm2.039.437l1.02.207 2.35-11.767-.939-.191-2.431 11.75v.001zm2.048.409c.341.065.682.13 1.023.193l2.187-11.8-.942-.177-2.268 11.784zm2.044.378l1.026.18 2.023-11.829-.944-.165-2.105 11.814zm2.053.352l1.029.165 1.859-11.856-.947-.151-1.94 11.842h-.001zm2.063.323l1.03.15 1.695-11.879-.948-.139-1.777 11.868zm2.071.296l1.033.136 1.53-11.902-.95-.126-1.613 11.892zm2.066.265l1.033.122 1.366-11.922-.951-.112-1.448 11.912zm2.074.238l1.035.107 1.201-11.94-.953-.098-1.283 11.93v.001zm2.067.208l1.037.093 1.038-11.955-.955-.086-1.12 11.948zm2.075.18l1.038.08.874-11.969-.956-.073-.956 11.962zm2.083.152l1.04.065.71-11.979-.958-.06-.792 11.974zm2.076.123l1.04.051.546-11.988-.958-.047-.628 11.984zm2.083.095c.346.013.693.026 1.04.037l.383-11.994-.959-.034-.464 11.991zm2.09.067l1.04.022.22-11.998-.96-.02-.3 11.996zm2.08.038l1.041.008.058-12-.96-.007-.138 11.999h-.001zm2.089.01l1.042-.006-.105-12-.962.006.025 12zm2.07-.018l1.046-.02-.267-11.997-.964.018.186 11.999h-.001zm2.08-.047l1.034-.033-.43-11.993-.952.031.348 11.995zm2.088-.075l1.036-.047-.594-11.986-.954.044.512 11.99v-.001zm2.08-.103l1.038-.062-.757-11.976-.956.057.676 11.981h-.001zm2.074-.13l1.04-.077-.922-11.965-.957.07.839 11.971v.001zm2.08-.161l1.041-.09-1.085-11.952-.958.084 1.003 11.958h-.001zm2.074-.188l1.041-.106-1.25-11.934-.958.097 1.167 11.943zm2.08-.218l1.027-.118-1.413-11.917-.946.11 1.332 11.925zm2.071-.246l1.028-.133-1.578-11.895-.946.122 1.496 11.906zm2.063-.274l1.028-.147-1.742-11.873-.946.136 1.66 11.884zm2.07-.303l1.026-.162-1.907-11.847-.945.148 1.825 11.86.001.001zm2.044-.33l1.026-.175-2.07-11.82-.943.162 1.987 11.834v-.001zm2.05-.358l1.024-.19-2.232-11.79-.942.174 2.15 11.806zm2.056-.39c.341-.067.682-.135 1.022-.204l-2.397-11.758-.94.188 2.315 11.774zm-.446-12.155l2.478 11.741 1.019-.218-2.56-11.724c-.312.068-.624.135-.937.201zm4.527 11.294c.339-.077.678-.154 1.017-.233l-2.723-11.687-.935.214 2.641 11.706zm2.026-.472l1.013-.247-2.885-11.648-.932.227 2.804 11.668zm2.029-.502l1.009-.261-3.047-11.607-.928.24 2.966 11.628zm2.018-.53c.335-.09.67-.182 1.005-.275l-3.208-11.563-.925.253 3.128 11.585zm2.007-.557l1-.289-3.368-11.517-.92.265 3.288 11.541zm2.01-.588c.332-.1.663-.2.995-.302l-3.529-11.47-.916.279 3.45 11.493zm1.997-.614l.99-.316-3.688-11.42-.91.291 3.608 11.445zm1.986-.642l.985-.33-3.847-11.366-.906.303 3.768 11.393zm1.947-.658l.979-.343-4.002-11.313-.9.315 3.923 11.34v.001zm1.962-.694l.983-.36-4.16-11.256-.904.33 4.08 11.286h.001zm1.949-.72l.976-.373-4.315-11.197-.898.342 4.237 11.227v.001zm1.95-.752c.323-.127.646-.256.969-.385l-4.47-11.136-.892.354 4.393 11.167zm1.937-.778l.96-.397-4.624-11.073-.884.366 4.548 11.104zm1.923-.803l.953-.41-4.778-11.008-.876.377 4.701 11.041zm1.91-.829l.954-.426-4.93-10.94-.878.392 4.854 10.974zm1.909-.86l.945-.438-5.082-10.87-.87.402 5.007 10.906zm1.882-.88l.936-.45-5.232-10.8-.861.415 5.157 10.835zm1.88-.911l.936-.466-5.382-10.725-.86.428 5.306 10.763zm1.866-.936l.926-.477-5.53-10.65-.852.439 5.456 10.688zm1.851-.961l.915-.488-5.676-10.572-.842.448 5.603 10.612zm1.836-.986l.913-.503-5.822-10.493-.84.463 5.75 10.533h-.001zm1.833-1.017c.301-.17.602-.341.902-.513l-5.967-10.411-.83.472 5.895 10.452zm1.805-1.035l.899-.527-6.11-10.328-.828.486 6.039 10.37v-.001zm1.801-1.066l.887-.537-6.253-10.242-.816.494 6.182 10.285zm1.785-1.09l.883-.551-6.394-10.155-.813.508 6.324 10.198zm1.757-1.106l.878-.565-6.534-10.066-.808.52 6.464 10.111zm1.752-1.137l.865-.574-6.672-9.975-.795.529 6.602 10.02zm1.736-1.161c.287-.195.573-.39.858-.587l-6.808-9.882-.79.54 6.74 9.929zm1.718-1.184l.852-.6-6.944-9.787-.785.553 6.877 9.834zm1.712-1.215l.845-.613-7.08-9.69-.777.565 7.012 9.738zm1.672-1.222l.837-.625-7.21-9.591-.772.575 7.145 9.641zm1.655-1.243l.829-.637-7.342-9.492-.763.586 7.276 9.543zm1.625-1.257l.814-.643-7.469-9.392-.75.592 7.405 9.443zm1.62-1.288l.804-.653-7.596-9.29-.741.602 7.532 9.341h.001zm1.61-1.318l.802-.669-7.723-9.184-.738.616 7.66 9.237h-.001zm1.594-1.34l.791-.679-7.848-9.077-.73.626 7.787 9.13zm1.574-1.36c.26-.229.521-.459.78-.69l-7.972-8.968-.719.634 7.91 9.024h.001zm1.565-1.392l.77-.698-8.095-8.858-.709.643 8.034 8.913zm1.536-1.403l.763-.712-8.216-8.746-.703.655 8.156 8.803zm1.516-1.424l.751-.72-8.335-8.633-.691.663 8.275 8.69zm1.507-1.454l.743-.733-8.453-8.518-.685.675 8.395 8.576zm1.476-1.466l.73-.74-8.569-8.4-.672.68 8.51 8.46h.001zm1.456-1.485l.721-.75-8.683-8.284-.664.692 8.626 8.342zm1.445-1.515l.712-.762-8.796-8.162-.656.702 8.74 8.222zm1.415-1.525l.702-.772-8.908-8.04-.646.71 8.852 8.102zm1.394-1.544l.691-.781-9.017-7.919-.636.72 8.962 7.98zm1.382-1.574l.68-.79-9.125-7.793-.626.727 9.071 7.856zm1.352-1.582l.668-.799-9.231-7.667-.615.735 9.178 7.73v.001zm1.33-1.602l.655-.805-9.335-7.54-.603.741 9.283 7.604zm1.317-1.63l.646-.817-9.439-7.41-.594.752 9.387 7.475zm1.286-1.639l.636-.827-9.54-7.28-.585.762 9.49 7.345h-.001zm1.264-1.656l.622-.832-9.639-7.148-.572.766 9.59 7.214h-.001zm1.242-1.674l.61-.84-9.736-7.016-.562.774 9.688 7.082zm1.219-1.692l.6-.853-9.831-6.88-.554.786 9.785 6.947zm1.196-1.71l.588-.859-9.926-6.744-.541.792 9.879 6.812v-.001zm1.173-1.725l.575-.866-10.018-6.606-.53.796 9.973 6.676zm-8.914-8.28l10.063 6.536.564-.874-10.108-6.468c-.172.269-.346.537-.52.805l.001.001zm11.19 4.776l.551-.882-10.197-6.327-.507.812 10.152 6.397h.001zm1.094-1.765l.54-.888-10.283-6.187-.496.819 10.24 6.256h-.001zm1.079-1.792l.528-.899-10.368-6.043-.486.827 10.326 6.115zm1.054-1.81l.516-.906-10.45-5.898-.475.834 10.41 5.97h-.001zm1.023-1.812l.503-.913-10.53-5.754-.464.84 10.491 5.827zm.999-1.828l.49-.918-10.61-5.608-.45.846 10.57 5.68zm.98-1.855l.478-.926-10.687-5.46-.439.853 10.648 5.533zm.95-1.858l.464-.932-10.762-5.31-.426.857 10.724 5.385zm.924-1.873l.451-.94-10.833-5.16-.416.864 10.798 5.236zm.899-1.888l.438-.945-10.904-5.01-.404.87 10.87 5.085zm.867-1.889l.425-.949-10.973-4.858-.39.874 10.938 4.933zm.848-1.915l.413-.958-11.04-4.704-.38.881 11.007 4.78v.001zm.817-1.917l.398-.96-11.104-4.551-.366.884 11.072 4.627zm.791-1.93l.385-.968-11.166-4.395-.354.89 11.135 4.473zm.765-1.943l.371-.972-11.226-4.24-.341.895 11.196 4.317zm.739-1.956l.357-.977-11.284-4.083-.329.899 11.256 4.161zm.712-1.969l.345-.984-11.34-3.925-.317.905 11.312 4.004zm.686-1.982l.33-.988-11.394-3.766-.304.91 11.368 3.844zm.645-1.952l.317-.992-11.444-3.61-.292.913 11.42 3.689h-.001zm.628-1.992l.303-.997-11.493-3.449-.279.917 11.47 3.529h-.001zm.602-2.004c.097-.334.194-.668.289-1.002l-11.54-3.288-.267.921 11.518 3.369zm.566-1.987l.275-1.006-11.584-3.129-.254.925 11.563 3.21zm.54-1.999l.261-1.008-11.627-2.969-.24.928 11.606 3.05v-.001zm.506-1.98l.248-1.013-11.667-2.81-.228.932 11.647 2.89v.001zm-11.205-4.723l11.685 2.732.233-1.016-11.703-2.65c-.07.311-.142.623-.215.934zm12.141.716c.075-.34.148-.678.22-1.018l-11.74-2.49-.201.938 11.721 2.57zm-11.323-4.447l11.756 2.407.205-1.022-11.772-2.326c-.062.314-.125.627-.19.94l.001.001zm12.16.357l.192-1.025-11.803-2.162-.177.943 11.789 2.244h-.001zm.375-2.045l.178-1.027-11.833-1.999-.163.945 11.818 2.08v.001zm.348-2.055l.162-1.029-11.858-1.835-.15.948 11.846 1.916zm.319-2.064l.148-1.03-11.883-1.67-.137.948 11.872 1.752zm.29-2.058l.134-1.032-11.906-1.507-.123.95 11.894 1.59.001-.001zm.26-2.066l.12-1.035-11.924-1.343-.11.953 11.915 1.425h-.001zm.234-2.076l.106-1.035-11.942-1.179-.097.954 11.933 1.26zm.206-2.083l.091-1.037-11.957-1.013-.084.955 11.95 1.095zm.176-2.076c.027-.346.052-.692.077-1.039l-11.97-.849-.071.956 11.964.932zm.147-2.07c.022-.346.043-.692.063-1.039l-11.98-.686-.059.957 11.976.768zm.12-2.091l.048-1.04-11.989-.522-.045.958 11.985.604h.001zm.09-2.07l.034-1.04-11.995-.359-.031.959 11.991.44h.001zm.062-2.09c.008-.347.015-.693.02-1.04l-11.998-.196-.019.959 11.997.277zm.034-2.082l.006-1.04-12-.034-.005.96 11.999.114z" fill="#CEDCED"/><path d="M16.56 51.666a.75.75 0 111.343.668c-37.925 76.292-6.79 168.866 69.543 206.771 76.333 37.905 168.958 6.786 206.883-69.506a.746.746 0 011.003-.332.75.75 0 01.34 1c-38.294 77.034-131.818 108.455-208.893 70.182C9.704 222.175-21.734 128.7 16.56 51.666z" fill="url(#paint0_linear)"/><path d="M154.5 0C89.607 0 37 52.607 37 117.5S89.607 235 154.5 235c64.894 0 117.5-52.607 117.5-117.5S219.394 0 154.5 0zm0 10C213.87 10 262 58.13 262 117.5S213.87 225 154.5 225 47 176.87 47 117.5 95.13 10 154.5 10z" fill="url(#paint1_linear)"/><path d="M101.968 207.6c5.291 0 9.581-4.298 9.581-9.6s-4.29-9.6-9.581-9.6c-5.291 0-9.581 4.298-9.581 9.6s4.29 9.6 9.581 9.6z" fill="#CEDCED"/><path d="M101.865 182C93.103 182 86 189.163 86 198s7.103 16 15.865 16c8.763 0 15.866-7.163 15.866-16" stroke="#EBF3FA" stroke-width="3" stroke-linecap="round"/><path d="M117.096 193.52c1.051 0 1.904-.86 1.904-1.92s-.853-1.92-1.904-1.92c-1.052 0-1.904.86-1.904 1.92s.852 1.92 1.904 1.92z" fill="#EBF3FA"/><path d="M281 50H175a4 4 0 00-4 4v28a4 4 0 004 4h106a4 4 0 004-4V54a4 4 0 00-4-4z" fill="#F2F9FF"/><path d="M276 62h-67a1 1 0 00-1 1v2a1 1 0 001 1h67a1 1 0 001-1v-2a1 1 0 00-1-1zm-13 8h-54a1 1 0 00-1 1v2a1 1 0 001 1h54a1 1 0 001-1v-2a1 1 0 00-1-1zm-73.5 8a9.5 9.5 0 009.5-9.5 9.5 9.5 0 00-9.5-9.5 9.5 9.5 0 00-9.5 9.5 9.5 9.5 0 009.5 9.5z" fill="#CEDCED"/><path d="M122.5 55H93a4 4 0 00-4 4v38.071a4 4 0 004 4h29.5a4 4 0 004-4V59a4 4 0 00-4-4z" fill="#0071BB"/><path d="M119.072 90.357H96.429a1 1 0 00-1 1v2.286a1 1 0 001 1h22.643a1 1 0 001-1v-2.286a1 1 0 00-1-1zM107.75 61.429c-6.807 0-12.321 5.514-12.321 12.321 0 6.807 5.514 12.321 12.321 12.321 6.807 0 12.321-5.514 12.321-12.321 0-6.807-5.514-12.321-12.321-12.321zm0 4.77a4.369 4.369 0 014.039 2.699 4.367 4.367 0 01-.948 4.764 4.376 4.376 0 01-3.091 1.281 4.372 4.372 0 110-8.745v.001zm0 17.09a9.517 9.517 0 01-7.279-3.388c.934-1.759 2.763-2.971 4.894-2.971.12 0 .239.02.353.054.655.22 1.341.336 2.032.343.71 0 1.391-.134 2.032-.343.114-.034.234-.054.353-.054 2.131 0 3.96 1.212 4.894 2.97a9.514 9.514 0 01-7.279 3.39v-.001z" fill="#112E51"/><path d="M217.929 147H193a2 2 0 00-2 2v35.618a2 2 0 002 2h24.929a2 2 0 002-2V149a2 2 0 00-2-2z" fill="#0071BB"/><path d="M213.984 170.771h-17.039a2 2 0 00-2 2v29.015a2 2 0 002 2h17.039a2 2 0 002-2v-29.015a2 2 0 00-2-2z" fill="#0071BB"/><path fill-rule="evenodd" clip-rule="evenodd" d="M197.575 186.618h2.869v14.527h-2.869v-14.527zm4.303 0h2.869v11.885h-2.869v-11.885zm4.304 0h2.869v11.885h-2.869v-11.885zm4.303 0h2.869v14.527h-2.869v-14.527z" fill="#F2F9FF"/><path d="M205.464 170.771c5.084 0 9.205-4.139 9.205-9.244 0-5.105-4.121-9.244-9.205-9.244s-9.205 4.139-9.205 9.244c0 5.105 4.121 9.244 9.205 9.244z" fill="#CEDCED"/><path d="M105.5 128h-62c-7.456 0-13.5 6.044-13.5 13.5v1c0 7.456 6.044 13.5 13.5 13.5h62c7.456 0 13.5-6.044 13.5-13.5v-1c0-7.456-6.044-13.5-13.5-13.5z" fill="#F2F9FF"/><path d="M40.839 149l2.627-4.55 2.612 4.468 2.47-1.794-3.178-3.947 4.5-1.354-.85-2.773-4.452 2.023.424-5.073h-3.005l.346 5.056-4.358-1.973-.975 2.773 4.625 1.337-3.256 4.03 2.47 1.777zm15.014 0l2.628-4.55 2.611 4.468 2.47-1.794-3.178-3.947 4.5-1.354-.85-2.773-4.452 2.023.425-5.073h-3.005l.346 5.056-4.358-1.973-.976 2.773 4.626 1.337-3.257 4.03 2.47 1.777zm16.087 0l2.628-4.55 2.611 4.468 2.47-1.794-3.178-3.947 4.5-1.354-.85-2.773-4.452 2.023.425-5.073h-3.005l.346 5.056-4.358-1.973-.976 2.773 4.626 1.337-3.257 4.03L71.94 149zm15.015 0l2.627-4.55 2.612 4.468 2.47-1.794-3.178-3.947 4.5-1.354-.85-2.773-4.453 2.023.425-5.073h-3.005l.346 5.056-4.358-1.973-.975 2.773 4.625 1.337-3.256 4.03 2.47 1.777zm15.014 0l2.628-4.55 2.611 4.468 2.47-1.794-3.178-3.947 4.5-1.354-.85-2.773-4.452 2.023.425-5.073h-3.005l.346 5.056-4.358-1.973-.976 2.773 4.626 1.337-3.257 4.03L101.97 149h-.001z" fill="#0071BB"/><path d="M150 21H44a4 4 0 00-4 4v13a4 4 0 004 4h106a4 4 0 004-4V25a4 4 0 00-4-4z" fill="#F2F9FF"/><path d="M131 30H50a1 1 0 00-1 1v2a1 1 0 001 1h81a1 1 0 001-1v-2a1 1 0 00-1-1zm10 6a5 5 0 100-10 5 5 0 000 10z" fill="#CEDCED"/><path d="M149 124h90a4 4 0 004-4v-13a4 4 0 00-4-4h-90a4 4 0 00-4 4v13a4 4 0 004 4z" fill="#F2F9FF"/><path d="M166 115h69a1 1 0 001-1v-2a1 1 0 00-1-1h-69a1 1 0 00-1 1v2a1 1 0 001 1z" fill="#CEDCED"/><path d="M283.5 57a5.5 5.5 0 100-11 5.5 5.5 0 000 11z" fill="#A6D5AF"/><path d="M126.5 48a5.5 5.5 0 100-11 5.5 5.5 0 000 11zm66 173a5.5 5.5 0 100-11 5.5 5.5 0 100 11zm-102-116a5.5 5.5 0 100-11 5.5 5.5 0 000 11z" fill="#FCF197"/><path d="M57.5 162a5.5 5.5 0 100-11 5.5 5.5 0 000 11z" fill="#A6D5AF"/><path d="M194.286 108.74h-5.357V92.6c0-18.786-15.224-34.075-33.929-34.075-18.705 0-33.929 15.289-33.929 34.075v16.14h-5.357c-5.915 0-10.714 4.82-10.714 10.76v43.043c0 5.94 4.8 10.76 10.714 10.76h78.572c5.915 0 10.714-4.82 10.714-10.76v-43.042c0-5.94-4.8-10.76-10.714-10.76v-.001zm-23.215 0H138.93V92.6c0-8.9 7.21-16.141 16.071-16.141 8.862 0 16.071 7.24 16.071 16.14v16.141h-.001z" fill="#F5D600"/><path d="M205 139.15v22.29c0 6.627-5.373 12-12 12h-76c-6.627 0-12-5.373-12-12v-22.29h100zM139 105v4h-18v-4h18zm50 0v4h-18v-4h18z" fill="#CAB000"/><path d="M160.204 138.913c2.818-2.297 3.922-6.192 2.748-9.702-1.173-3.51-4.366-5.864-7.952-5.864-3.586 0-6.779 2.354-7.952 5.864-1.174 3.51-.07 7.405 2.748 9.702a3785.285 3785.285 0 00-2.763 16.391c2.614.466 5.261.703 7.913.706 2.69.056 5.38-.13 8.039-.557-.933-5.576-1.795-11.04-2.781-16.54z" fill="#fff"/><defs><linearGradient id="paint0_linear" x1="198.378" y1="265.033" x2="7.478" y2="74.468" gradientUnits="userSpaceOnUse"><stop stop-color="#0071BB"/><stop offset="1" stop-color="#CEDCED"/></linearGradient><linearGradient id="paint1_linear" x1="173.457" y1="170.229" x2="359.979" y2="390.951" gradientUnits="userSpaceOnUse"><stop stop-color="#EBF3FA"/><stop offset="1" stop-color="#0071BB"/></linearGradient></defs></svg>