<?xml version="1.0" encoding="UTF-8"?>
<svg width="307px" height="277px" viewBox="0 0 307 277" version="1.1" xmlns="http://www.w3.org/2000/svg" xmlns:xlink="http://www.w3.org/1999/xlink">
    <title>what-is-security</title>
    <defs>
        <linearGradient x1="67.0487013%" y1="94.8042932%" x2="-14.5662455%" y2="32.6304923%" id="linearGradient-1">
            <stop stop-color="#0071BB" offset="0%"></stop>
            <stop stop-color="#CEDCED" offset="100%"></stop>
        </linearGradient>
        <linearGradient x1="58.0668403%" y1="72.4375%" x2="137.4375%" y2="166.361979%" id="linearGradient-2">
            <stop stop-color="#EBF3FA" offset="0%"></stop>
            <stop stop-color="#0071BB" offset="100%"></stop>
        </linearGradient>
    </defs>
    <g id="what-is-security" stroke="none" stroke-width="1" fill="none" fill-rule="evenodd">
        <g id="bg-ovals" transform="translate(0.249832, 0.000000)" fill-rule="nonzero">
            <path d="M4.75016789,121 C4.75016789,121.348236 4.75134771,121.69634 4.75370643,122.044309 L16.7534308,121.962969 C16.7512558,121.642113 16.7501679,121.321122 16.7501679,121 L4.75016789,121 Z M4.76420455,123.079397 L4.78192468,124.126853 L16.7794459,123.882958 L16.7631099,122.917318 L4.76420455,123.079397 Z M4.80640395,125.159857 L4.8379278,126.19514 L16.8310654,125.789368 L16.8020105,124.835166 L4.80640395,125.159857 Z M4.87720526,127.248667 L4.92300437,128.286352 L16.9094661,127.716497 L16.8672628,126.760282 L4.87720526,127.248667 Z M4.97540488,129.315354 L5.03543514,130.35514 L17.0130539,129.622577 L16.9577477,128.664615 L4.97540488,129.315354 Z M17.0755518,130.589633 L5.10327763,131.404895 L5.17777552,132.446205 L17.1441744,131.548822 C17.1202109,131.229273 17.0973363,130.909542 17.0755518,130.589633 Z M5.25940992,133.486861 C5.28788535,133.834541 5.31755001,134.182022 5.34840263,134.529301 L17.3013247,133.467391 L17.2193643,132.507325 L5.25940992,133.486861 Z M5.44361563,135.561049 L5.54568223,136.590236 L17.4829933,135.365245 L17.3890068,134.417533 L5.44361563,135.561049 Z M17.5843015,136.320096 L5.65570807,137.627252 L5.77211486,138.656966 L17.6914775,137.268156 C17.65468,136.952344 17.6189542,136.636323 17.5843015,136.320096 Z M17.806751,138.228456 L5.89732502,139.700044 L6.02815878,140.729797 L17.9271941,139.176427 C17.8859714,138.860656 17.8458233,138.544664 17.806751,138.228456 Z M6.16887471,141.779035 L6.31420661,142.808338 L18.1905003,141.08972 L18.0567266,140.142277 L6.16887471,141.779035 Z M6.46631188,143.834528 L6.62602232,144.863091 L18.4774942,142.980908 L18.3305011,142.034247 L6.46631188,143.834528 Z M6.79127016,145.881092 L6.96531845,146.90853 L18.7897505,144.863339 L18.6295764,143.917802 L6.79127016,145.881092 Z M18.9561787,145.806138 L7.14617048,147.933038 L7.33458931,148.958865 L19.1295633,146.750112 C19.0706891,146.435718 19.0128937,146.121059 18.9561787,145.806138 Z M7.53140267,149.989959 C7.59783149,150.331496 7.66543419,150.67274 7.734209,151.013687 L19.497276,148.640871 C19.433994,148.327155 19.37179,148.013162 19.3106656,147.698897 L7.53140267,149.989959 Z M7.94434599,152.037053 L8.16145953,153.058299 L19.8903878,150.522113 L19.6906253,149.582482 L7.94434599,152.037053 Z M8.38479763,154.074108 L8.61612707,155.092493 L20.308703,152.393665 L20.0958718,151.456715 L8.38479763,154.074108 Z M8.85255444,156.100909 L9.09799763,157.116057 L20.7520264,154.255356 L20.5262196,153.321423 L8.85255444,156.100909 Z M9.3509935,158.131408 L9.61051389,159.142836 L21.2235272,156.119937 L20.9847774,155.189457 L9.3509935,158.131408 Z M9.8767093,160.151077 L10.15018,161.158415 L21.7199919,157.974164 L21.4684145,157.047471 L9.8767093,160.151077 Z M10.4294936,162.159701 L10.7167771,163.162581 L22.2412223,159.81786 L21.9769421,158.895282 L10.4294936,162.159701 Z M11.0132853,164.170994 C11.1124783,164.504025 11.2128189,164.836675 11.3143048,165.168938 L22.790901,161.663551 L22.5139871,160.745522 L11.0132853,164.170994 Z M11.624101,166.17065 L11.9386946,167.163298 L23.3652894,163.498201 L23.0758885,162.585045 L11.624101,166.17065 Z M12.2617273,168.158451 L12.5897235,169.145446 L23.9641861,165.321626 L23.6624542,164.413664 L12.2617273,168.158451 Z M12.9165446,170.106823 L13.257632,171.088048 L24.5786175,167.108691 L24.2648387,166.206026 L12.9165446,170.106823 Z M13.6067873,172.070436 L13.9609083,173.04531 L25.2255956,168.909271 L24.8998209,168.012432 L13.6067873,172.070436 Z M14.3232034,174.021546 L14.6941594,175.000176 L25.9001642,170.707688 L25.558894,169.807372 L14.3232034,174.021546 Z M15.0708253,175.973354 L15.4545546,176.944644 L26.5997236,172.496587 L26.2466921,171.602999 L15.0708253,175.973354 Z M15.8445509,177.912047 L16.2408255,178.875663 L27.3231117,174.273171 L26.9585265,173.386614 L15.8445509,177.912047 Z M16.6441625,179.837406 L17.0527451,180.793019 L28.0701241,176.037248 L27.6942012,175.158021 L16.6441625,179.837406 Z M17.4694421,181.749212 L17.8900865,182.6965 L28.8405563,177.788628 L28.4535202,176.917025 L17.4694421,181.749212 Z M18.3201718,183.647247 L18.7570454,184.595405 L29.6382735,179.535872 L29.2362875,178.663431 L18.3201718,183.647247 Z M19.2022623,185.544238 L19.6507986,186.483129 L30.4606822,181.272907 L30.0479459,180.408954 L19.2022623,185.544238 Z M20.1097123,187.426826 L20.5696303,188.356144 L31.3062079,182.996489 L30.8829778,182.141303 L20.1097123,187.426826 Z M21.0422998,189.294789 L21.5179357,190.223188 L32.1788987,184.714661 L31.7411829,183.860279 L21.0422998,189.294789 Z M21.999803,191.147907 L22.4862933,192.065956 L33.0700881,186.41058 L32.6223604,185.565678 L21.999803,191.147907 Z M22.9820001,192.985959 L23.4837756,193.901957 L33.9881284,188.100356 L33.5263096,187.2573 L22.9820001,192.985959 Z M23.9886697,194.808726 L24.5007243,195.713628 L34.9241332,189.767827 L34.4528295,188.93494 L23.9886697,194.808726 Z M35.4082947,190.60974 L25.0267346,196.628312 L25.5536125,197.529929 L35.8932675,191.439647 C35.7306534,191.163572 35.5689948,190.886935 35.4082947,190.60974 Z M26.0818491,198.419742 L26.618382,199.309547 L36.8733885,193.077787 L36.3795034,192.25871 L26.0818491,198.419742 Z M27.1682427,200.207333 L27.7190342,201.092787 L37.8865912,194.719344 L37.379555,193.904231 L27.1682427,200.207333 Z M28.2785458,201.978538 L28.8383499,202.85136 L38.9170262,196.338274 L38.4016677,195.53475 L28.2785458,201.978538 Z M29.4125334,203.733133 L29.9859696,204.600576 L39.9735691,197.94867 L39.4456353,197.150059 L29.4125334,203.733133 Z M30.5699808,205.470898 L31.1567281,206.332373 L41.0514652,199.543104 L40.5112514,198.74995 L30.5699808,205.470898 Z M31.7506634,207.191608 L32.350383,208.04654 L42.1504911,201.121377 L41.5983092,200.334213 L31.7506634,207.191608 Z M32.9543568,208.895043 L33.5616294,209.735906 L43.2657615,202.676882 L42.7066018,201.902639 L32.9543568,208.895043 Z M34.180837,210.58098 L34.8003351,211.414357 L44.4063612,204.222399 L43.8359221,203.455019 L34.180837,210.58098 Z M35.4213076,212.23791 L36.0526344,213.063406 L45.5595211,205.740899 L44.9781687,204.980748 L35.4213076,212.23791 Z M36.6838161,213.877144 L37.3265741,214.694233 L46.7326484,207.242672 L46.1407498,206.490237 L36.6838161,213.877144 Z M37.9504038,215.476377 L38.6041711,216.284844 L47.9091801,208.707456 L47.3071252,207.962938 L37.9504038,215.476377 Z M39.2650541,217.090737 L39.9294166,217.889636 L49.1296248,210.185341 L48.5177962,209.449614 L39.2650541,217.090737 Z M40.6105463,218.697291 L41.2850508,219.485984 L50.3780861,211.655485 L49.7569026,210.92914 L40.6105463,218.697291 Z M41.968474,220.274105 L42.6577596,221.058036 L51.6422988,213.103286 L51.00749,212.381312 L41.968474,220.274105 Z M43.3476324,221.831878 L44.0461034,222.604654 L52.920933,214.527686 L52.2776541,213.815975 L43.3476324,221.831878 Z M44.7477992,223.370388 L45.4549562,224.131564 L54.218473,215.933957 L53.5671862,215.232919 L44.7477992,223.370388 Z M46.1784891,224.89968 L46.8988766,225.653949 L55.5483227,217.336072 L54.884845,216.641389 L46.1784891,224.89968 Z M47.6201452,226.398864 L48.3481562,227.140533 L56.8831158,218.705222 L56.2126138,218.022141 L47.6201452,226.398864 Z M49.0821421,227.878119 L49.8222666,228.611748 L58.2407805,220.06022 L57.5591214,219.384544 L49.0821421,227.878119 Z M50.5744089,229.34708 L51.3260146,230.071815 L59.6257384,221.404948 L58.9335073,220.737465 L50.5744089,229.34708 Z M52.0765568,230.785673 L52.834054,231.496358 L61.0146401,222.716949 L60.3169879,222.062412 L52.0765568,230.785673 Z M53.5983791,232.20367 L54.3661306,232.904452 L62.4256656,224.013788 L61.7185771,223.368378 L53.5983791,232.20367 Z M55.1502053,233.610282 L55.9275044,234.300369 L63.8636531,225.299395 L63.1477823,224.663844 L55.1502053,233.610282 Z M56.710842,234.986277 L57.4970319,235.665225 L65.3091242,226.556372 L64.5850789,225.931091 L56.710842,234.986277 Z M58.2904875,236.341009 L59.0897003,237.012275 L66.7758754,227.796923 L66.039853,227.178731 L58.2904875,236.341009 Z M59.8998578,237.683249 L60.7064266,238.341924 L68.2647447,229.021419 L67.5219675,228.414838 L59.8998578,237.683249 Z M61.5169821,238.994636 L62.330199,239.640354 L69.7600601,230.217129 L69.0111826,229.622499 L61.5169821,238.994636 Z M63.1524494,240.284089 L63.9762485,240.91995 L71.2758417,231.395459 L70.5172442,230.809924 L63.1524494,240.284089 Z M64.8060385,241.551385 L65.6395259,242.17663 L72.8074341,232.552644 L72.0399425,231.976907 L64.8060385,241.551385 Z M66.4775276,242.796301 L67.3197832,243.4102 L74.3546032,233.688508 L73.5790678,233.123239 L66.4775276,242.796301 Z M68.1666954,244.018613 L69.0167728,244.620472 L75.9171158,234.802872 L75.1344105,234.248713 L68.1666954,244.018613 Z M69.87332,245.218096 L70.7302478,245.807255 L77.4947394,235.895562 L76.7057611,235.35312 L69.87332,245.218096 Z M71.5971795,246.394528 L72.4643857,246.973289 L79.091315,236.9691 L78.2929101,236.436255 L71.5971795,246.394528 Z M73.3380519,247.547683 L74.2100277,248.112396 L80.6984062,238.017796 L79.8956484,237.497911 L73.3380519,247.547683 Z M75.0957149,248.677338 L75.9757064,249.230123 L82.3238643,239.04676 L81.5137671,238.53788 L75.0957149,248.677338 Z M76.869946,249.783266 L77.7609674,250.325911 L83.9672669,240.055475 L83.1470573,239.555956 L76.869946,249.783266 Z M84.7953107,240.551933 L78.6605225,250.865244 L79.5570413,251.394353 L85.6205383,241.038967 C85.3449029,240.877572 85.0698254,240.715226 84.7953107,240.551933 Z M80.4548768,251.915931 L81.3598142,252.43332 L87.2798902,241.995279 L86.4469566,241.519058 L80.4548768,251.915931 Z M82.2773672,252.949497 L83.189164,253.454128 L88.9636171,242.934827 L88.1244136,242.470373 L82.2773672,252.949497 Z M84.1029773,253.951658 L85.0202768,254.442903 L90.6488791,243.844845 L89.8046547,243.392734 L84.1029773,253.951658 Z M85.9438322,254.929305 L86.8689683,255.408385 L92.3502325,244.733379 L91.4988393,244.292487 L85.9438322,254.929305 Z M87.7997119,255.882217 L88.7309812,256.348219 L94.0637593,245.598267 L93.2067646,245.169431 L87.7997119,255.882217 Z M89.6703961,256.810173 L90.6097265,257.264007 L95.7925994,246.440984 L94.9282287,246.023366 L89.6703961,256.810173 Z M91.5556641,257.71295 C91.8702889,257.860931 92.1854365,258.007824 92.5011017,258.153628 L97.5329794,247.259583 L96.6630295,246.854091 L91.5556641,257.71295 Z M93.4552948,258.590326 L94.4048439,259.016935 L99.2846604,248.053934 L98.410966,247.661405 L93.4552948,258.590326 Z M95.3559107,259.436333 L96.3111134,259.849677 L101.038593,248.820128 L100.159733,248.439821 L95.3559107,259.436333 Z M97.2835065,260.26242 L98.2452335,260.662726 L102.818081,249.568174 L101.933252,249.199876 L97.2835065,260.26242 Z M99.2114572,261.057049 L100.177408,261.443458 L104.595716,250.286462 L103.707031,249.930962 L99.2114572,261.057049 Z M101.1527,261.825751 L102.12657,262.199678 L106.388924,250.982177 L105.492981,250.638171 L101.1527,261.825751 Z M103.107015,262.568307 L104.085832,262.928557 L108.191376,251.652719 L107.290905,251.321305 L103.107015,262.568307 Z M105.074183,263.284499 L106.057828,263.631007 L110.005504,252.298935 L109.10061,251.980169 L105.074183,263.284499 Z M107.040287,263.969445 L108.02853,264.302215 L111.818414,252.9164 L110.909302,252.610276 L107.040287,263.969445 Z M109.032415,264.632441 L110.02416,264.950996 L113.654238,253.513229 L112.741911,253.220183 L109.032415,264.632441 Z M110.995143,265.255538 L111.990009,265.560083 L115.462661,254.073539 L114.547464,253.793382 L110.995143,265.255538 Z M112.997241,265.860741 C113.330479,265.958941 113.664094,266.055993 113.998081,266.151894 L117.309933,254.61796 L116.389235,254.350121 L112.997241,265.860741 Z M118.215883,254.874748 L114.982884,266.431033 L115.987921,266.708438 L119.140454,255.129943 C118.831931,255.04594 118.523739,254.960875 118.215883,254.874748 Z M116.979588,266.974799 L117.988344,267.238299 L120.980748,255.61739 L120.052735,255.374981 L116.979588,266.974799 Z M118.958793,267.484739 L119.970784,267.734401 L122.804549,256.073793 L121.873532,255.844108 L118.958793,267.484739 Z M120.948343,267.968501 L121.963741,268.204348 L124.638092,256.50615 L123.703904,256.289166 L120.948343,267.968501 Z M122.962354,268.429062 L123.979808,268.650675 L126.492981,256.916794 L125.556857,256.712896 L122.962354,268.429062 Z M125.000835,268.865652 L126.021423,269.07315 L128.37148,257.305515 L127.432418,257.114592 L125.000835,268.865652 Z M127.049326,269.274705 C127.39015,269.340302 127.731262,269.404731 128.072659,269.467989 L130.258958,257.668832 L129.317305,257.490975 L127.049326,269.274705 Z M129.093085,269.65343 L130.119007,269.832557 L132.142084,258.004321 L131.197973,257.839478 L129.093085,269.65343 Z M131.146293,270.004606 L132.174858,270.169564 L134.034121,258.314475 L133.087492,258.162658 L131.146293,270.004606 Z M133.208739,270.328037 L134.23967,270.478758 L135.934595,258.59906 L134.985691,258.460331 L133.208739,270.328037 Z M135.280214,270.623523 L136.313107,270.759934 L137.843222,258.857886 L136.892402,258.732314 L135.280214,270.623523 Z M137.345721,270.889073 L138.379331,271.011116 L139.745446,259.089131 L138.793844,258.976771 L137.345721,270.889073 Z M139.419711,271.126687 L140.454882,271.234462 L141.656516,259.294777 L140.703345,259.19554 L139.419711,271.126687 Z M141.487076,271.334779 L142.523907,271.428382 L143.561863,259.473356 L142.607018,259.387154 L141.487076,271.334779 Z M143.562396,271.514957 L144.600475,271.594337 L145.474466,259.626207 L144.518313,259.553091 L143.562396,271.514957 Z M145.645465,271.667034 L146.684695,271.732172 L147.394454,259.753181 L146.437069,259.693172 L145.645465,271.667034 Z M147.721012,271.790036 L148.760767,271.840992 L149.307298,259.853444 L148.349245,259.806492 L147.721012,271.790036 Z M149.803794,271.884976 C150.150311,271.898404 150.496987,271.910659 150.843819,271.921738 L151.226962,259.927856 L150.268464,259.893976 L149.803794,271.884976 Z M151.893611,271.951673 L152.93403,271.974245 L153.153643,259.976255 L152.194569,259.955448 L151.893611,271.951673 Z M153.975042,271.989772 L155.015619,271.99825 L155.07282,259.998386 L154.113375,259.99057 L153.975042,271.989772 Z M156.062866,271.999683 L157.105389,271.99404 L156.999809,259.994504 L156.038523,259.999708 L156.062866,271.999683 Z M158.133695,271.981554 L159.179377,271.961799 L158.911844,259.964781 L157.947873,259.982993 L158.133695,271.981554 Z M160.213181,271.935258 L161.246683,271.901746 L160.81729,259.909431 L159.864758,259.940318 L160.213181,271.935258 Z M162.300979,271.860356 L163.336853,271.812589 L162.7434,259.827272 L161.788883,259.871288 L162.300979,271.860356 Z M164.381685,271.757264 L165.419536,271.695188 L164.662228,259.719109 L163.706076,259.776297 L164.381685,271.757264 Z M166.455097,271.626161 L167.494534,271.549738 L166.573621,259.585127 L165.616182,259.655521 L166.455097,271.626161 Z M168.535957,271.465978 L169.576492,271.375083 L168.491097,259.424271 L167.532808,259.507981 L168.535957,271.465978 Z M170.609009,271.277749 L171.65025,271.172368 L170.400716,259.237601 L169.441925,259.334637 L170.609009,271.277749 Z M172.688874,271.060004 L173.716551,270.941678 L172.303193,259.025201 L171.357026,259.134142 L172.688874,271.060004 Z M174.760401,270.814189 L175.788087,270.681463 L174.210235,258.785649 L173.264184,258.907832 L174.760401,270.814189 Z M176.823384,270.540494 L177.850688,270.393388 L176.108824,258.520481 L175.163235,258.655887 L176.823384,270.540494 Z M178.892255,270.236862 L179.918689,270.075317 L178.012177,258.227735 L177.067488,258.376414 L178.892255,270.236862 Z M180.937461,269.907792 L181.962741,269.73194 L179.893305,257.911727 L178.949767,258.073559 L180.937461,269.907792 Z M182.98801,269.54878 L184.011648,269.358589 L181.778742,257.568164 L180.836792,257.743177 L182.98801,269.54878 Z M185.043491,269.159437 C185.384289,269.092424 185.724794,269.024242 186.065001,268.954892 L183.66813,257.196703 L182.728206,257.384912 L185.043491,269.159437 Z M184.597196,257.003991 L187.074743,268.745446 L188.093849,268.526709 L185.534851,256.802736 C185.222587,256.870894 184.910033,256.93798 184.597196,257.003991 Z M189.124665,268.297911 C189.463689,268.221409 189.802395,268.143742 190.140776,268.064911 L187.418106,256.377864 L186.483254,256.59223 L189.124665,268.297911 Z M191.149932,267.826133 L192.162779,267.579055 L189.278348,255.930877 L188.346539,256.158186 L191.149932,267.826133 Z M193.178854,267.323675 L194.187954,267.062558 L191.141445,255.455715 L190.213112,255.695933 L193.178854,267.323675 Z M195.196915,266.793971 C195.532267,266.703448 195.867263,266.611771 196.201897,266.518941 L192.994163,254.955618 L192.069639,255.208629 L195.196915,266.793971 Z M197.203899,266.237229 L198.204398,265.948426 L194.836322,254.430784 L193.915937,254.696462 L197.203899,266.237229 Z M199.213508,265.649483 C199.545737,265.549792 199.877585,265.448958 200.209046,265.346984 L196.68044,253.877505 L195.764625,254.15578 L199.213508,265.649483 Z M201.211449,265.034745 L202.201665,264.718712 L198.51349,253.299545 L197.60257,253.59027 L201.211449,265.034745 Z M203.197503,264.393226 L204.182042,264.063832 L200.335287,252.697106 L199.429584,253.000124 L203.197503,264.393226 Z M205.144122,263.734601 L206.122868,263.392158 L202.120721,252.079209 L201.220335,252.394235 L205.144122,263.734601 Z M207.105924,263.040528 L208.088906,262.681175 L203.929381,251.425138 L203.025081,251.755728 L207.105924,263.040528 Z M209.055193,262.320313 L210.031272,261.948075 L205.716305,250.750707 L204.818333,251.093158 L209.055193,262.320313 Z M211.005115,261.568897 C211.328484,261.44169 211.651392,261.313368 211.973832,261.183932 L207.503457,250.047696 L206.612232,250.401866 L211.005115,261.568897 Z M212.941891,260.791409 L213.902913,260.393945 L209.278266,249.320885 L208.394091,249.686567 L212.941891,260.791409 Z M214.8653,259.988067 L215.8183,259.578341 L211.040541,248.57048 L210.163714,248.947456 L214.8653,259.988067 Z M216.775125,259.159088 L217.729452,258.73299 L212.798989,247.792673 L211.920906,248.184729 L216.775125,259.159088 Z M218.684176,258.29871 L219.629528,257.860729 L214.547323,246.990072 L213.677458,247.393079 L218.684176,258.29871 Z M220.566081,257.418938 L221.502277,256.969395 L216.27059,246.169884 L215.409111,246.583549 L220.566081,257.418938 Z M222.446579,256.507859 L223.382297,256.042414 L218.00063,245.316852 L217.139549,245.745172 L222.446579,256.507859 Z M224.31242,255.571674 L225.238065,255.095125 L219.708438,244.44509 L218.856585,244.88365 L224.31242,255.571674 Z M226.163385,254.610605 L227.078665,254.123254 L221.402373,243.550661 L220.560015,243.999185 L226.163385,254.610605 Z M227.999252,253.624875 L228.91244,253.122283 L223.090114,242.629404 L222.249638,243.091977 L227.999252,253.624875 Z M229.832218,252.6077 C230.133457,252.437783 230.434107,252.266831 230.734163,252.094848 L224.76685,241.68374 L223.936678,242.155782 L229.832218,252.6077 Z M231.637125,251.573145 L232.535881,251.045554 L226.425259,240.717906 L225.59798,241.203539 L231.637125,251.573145 Z M233.438475,250.507259 L234.325271,249.970038 L228.072406,239.727886 L227.256093,240.222409 L233.438475,250.507259 Z M235.223627,249.417273 L236.106036,248.865847 L229.711697,238.711418 L228.899381,239.219042 L235.223627,249.417273 Z M236.980384,248.311069 L237.857936,247.745753 L231.324496,237.680259 L230.516612,238.200695 L236.980384,248.311069 Z M238.732589,247.173716 L239.597082,246.599785 L232.925632,236.625229 L232.129732,237.153622 L238.732589,247.173716 Z M240.467931,246.012935 C240.754767,245.818191 241.040933,245.622461 241.326424,245.425749 L234.517816,235.544308 L233.727403,236.08493 L240.467931,246.012935 Z M242.186187,244.828952 L243.038105,244.228849 L236.093811,234.442289 L235.309416,234.994826 L242.186187,244.828952 Z M243.898647,243.613701 L244.743282,243.001025 L237.663883,233.311747 L236.886162,233.875885 L243.898647,243.613701 Z M245.570555,242.392272 L246.407646,241.767429 L239.196438,232.175845 L238.425633,232.75121 L245.570555,242.392272 Z M247.224953,241.148618 C247.50202,240.937364 247.778359,240.725154 248.053964,240.511993 L240.712431,231.019792 L239.949039,231.606026 L247.224953,241.148618 Z M248.850475,239.891701 L249.664613,239.248808 L242.195629,229.856562 L241.445907,230.448588 L248.850475,239.891701 Z M250.469325,238.604402 L251.274521,237.95055 L243.67819,228.660999 L242.936681,229.263134 L250.469325,238.604402 Z M252.080915,237.286493 L252.8826,236.617002 L245.159107,227.432903 L244.420813,228.049458 L252.080915,237.286493 Z M253.673875,235.94694 L254.465315,235.267374 L246.616702,226.18997 L245.887825,226.815816 L253.673875,235.94694 Z M255.247983,234.585966 C255.509011,234.357137 255.769254,234.127412 256.028707,233.896797 L248.05653,224.927716 L247.337508,225.56242 L255.247983,234.585966 Z M256.813531,233.194318 L257.582928,232.496041 L249.487937,223.637648 L248.779335,224.28075 L256.813531,233.194318 Z M258.349138,231.791026 L259.112335,231.07905 L250.896509,222.33261 L250.193609,222.988337 L258.349138,231.791026 Z M259.865228,230.366982 L260.616222,229.646921 L252.281589,221.01362 L251.589923,221.676797 L259.865228,230.366982 Z M261.371691,228.912509 L262.115006,228.179864 L253.661977,219.662452 L252.977379,220.337223 L261.371691,228.912509 Z M262.847944,227.447487 L263.578094,226.70786 L255.00949,218.306729 L254.337017,218.987929 L262.847944,227.447487 Z M264.304014,225.962379 L265.025399,225.211327 L256.342462,216.928416 L255.678065,217.620137 L264.304014,225.962379 Z M265.749374,224.447102 L266.461163,223.685285 L257.664797,215.522936 L257.009243,216.224565 L265.749374,224.447102 Z M267.16427,222.922354 L267.865976,222.150399 L258.958611,214.109325 L258.312351,214.820284 L267.16427,222.922354 Z M268.558314,221.378187 L269.249313,220.596767 L260.232628,212.678471 L259.59624,213.398136 L268.558314,221.378187 Z M269.940553,219.80412 L270.620078,219.013973 L261.495044,211.220787 L260.869234,211.948475 L269.940553,219.80412 Z M271.292082,218.221649 L271.95972,217.423453 L262.728769,209.756019 L262.113921,210.491103 L271.292082,218.221649 Z M272.622092,216.620424 L273.277289,215.814913 L263.942135,208.274695 L263.33876,209.016495 L272.622092,216.620424 Z M273.939184,214.989584 L274.584973,214.172822 L265.146362,206.762517 L264.551669,207.514655 L273.939184,214.989584 Z M275.225336,213.35139 L275.861095,212.524198 L266.321486,205.244372 L265.736048,206.00609 L275.225336,213.35139 Z M276.489296,211.695108 L277.110825,210.863032 L267.472266,203.714732 L266.899954,204.48092 L276.489296,211.695108 Z M277.730844,210.020959 L278.341003,209.180222 L268.604999,202.165222 L268.043177,202.939354 L277.730844,210.020959 Z M278.949753,208.329165 L279.551027,207.476179 L269.719129,200.596225 L269.165511,201.381603 L278.949753,208.329165 Z M280.145801,206.619947 L280.734225,205.760282 L270.80851,199.016382 L270.266749,199.807874 L280.145801,206.619947 Z M281.318764,204.893527 L281.893716,204.028184 L271.876016,197.421695 L271.346682,198.218379 L281.318764,204.893527 Z M272.405105,196.613326 L282.468416,203.150127 L283.032094,202.275782 L272.924035,195.808392 C272.751983,196.077296 272.579005,196.345609 272.405105,196.613326 Z M283.594534,201.389971 L284.146136,200.507805 L273.949598,194.18083 L273.441811,194.992923 L283.594534,201.389971 Z M284.689474,199.625421 L285.228418,198.736546 L274.945873,192.55033 L274.449764,193.368557 L284.689474,199.625421 Z M285.768011,197.832527 L286.29582,196.934144 L275.928401,190.891245 L275.442567,191.718183 L285.768011,197.832527 Z M286.82234,196.023544 L287.338108,195.117072 L276.887762,189.218744 L276.413036,190.053084 L286.82234,196.023544 Z M287.845313,194.21116 L288.348365,193.297934 L277.817592,187.544429 L277.354594,188.384942 L287.845313,194.21116 Z M288.843961,192.383344 L289.333501,191.46484 L278.724253,185.857357 L278.273715,186.702683 L288.843961,192.383344 Z M289.824651,190.527639 L290.301709,189.601678 L279.615291,184.142699 L279.176262,184.994844 L289.824651,190.527639 Z M290.773817,188.669514 L291.237672,187.737676 L280.476608,182.427354 L280.049752,183.284866 L290.773817,188.669514 Z M291.697992,186.796618 L292.149547,185.856993 L281.315719,180.696743 L280.900202,181.561379 L291.697992,186.796618 Z M292.596956,184.909172 L293.035234,183.963719 L282.130693,178.954628 L281.727412,179.824586 L292.596956,184.909172 Z M293.464589,183.02047 L293.888872,182.07102 L282.916142,177.21312 L282.525756,178.086718 L293.464589,183.02047 Z M294.312639,181.104683 L294.7248,180.146669 L283.685264,175.442562 L283.306046,176.324003 L294.312639,181.104683 Z M295.129269,179.188272 L295.52702,178.227254 L284.423342,173.676613 L284.057397,174.560785 L295.129269,179.188272 Z M295.920157,177.258383 L296.305166,176.290266 L285.139248,171.894557 L284.785037,172.785231 L295.920157,177.258383 Z M296.685086,175.315234 L297.05624,174.342747 L285.830224,170.102868 L285.488771,170.997535 L296.685086,175.315234 Z M297.423837,173.359043 L297.781213,172.381972 L286.497172,168.29903 L286.168402,169.197893 L297.423837,173.359043 Z M298.136193,171.390032 L298.480732,170.40562 L287.140689,166.480899 L286.823735,167.386498 L298.136193,171.390032 Z M298.821936,169.40842 L299.152374,168.420173 L287.758553,164.654428 L287.454573,165.563543 L298.821936,169.40842 Z M299.467487,167.455808 L299.78412,166.463793 L288.339709,162.854713 L288.048432,163.767287 L299.467487,167.455808 Z M300.095643,165.463783 L300.398506,164.467158 L288.904894,161.017969 L288.626285,161.934784 L300.095643,165.463783 Z M300.696912,163.459981 C300.794476,163.126395 300.89089,162.792434 300.986152,162.458102 L289.445484,159.16979 L289.179405,160.091444 L300.696912,163.459981 Z M301.263293,161.472689 L301.538574,160.467355 L289.953678,157.33843 L289.700436,158.263276 L301.263293,161.472689 Z M301.803119,159.474367 L302.064295,158.466101 L290.437317,155.497365 L290.197046,156.42493 L301.803119,159.474367 Z M302.309145,157.493597 L302.556813,156.480776 L290.890425,153.670901 L290.662573,154.602686 L302.309145,157.493597 Z M291.104005,152.770893 L302.788964,155.502513 L303.022582,154.487284 L291.318941,151.836855 C291.248365,152.148498 291.17672,152.459845 291.104005,152.770893 Z M303.245524,153.486988 C303.319879,153.147919 303.393071,152.808538 303.465097,152.468851 L291.72608,149.979775 L291.524057,150.916534 L303.245524,153.486988 Z M291.922022,149.039582 L303.678053,151.447012 L303.883607,150.425228 L292.111157,148.09941 C292.049188,148.413076 291.986142,148.726468 291.922022,149.039582 Z M304.083017,149.397059 L304.274374,148.372354 L292.470732,146.210404 L292.294646,147.153331 L304.083017,149.397059 Z M304.457651,147.35188 L304.634805,146.324765 L292.802417,144.326113 L292.639389,145.271334 L304.457651,147.35188 Z M304.804708,145.297283 L304.967587,144.268108 L293.108687,142.433307 L292.958781,143.380512 L304.804708,145.297283 Z M305.123989,143.233478 L305.27248,142.202968 L293.389318,140.532501 L293.252639,141.481034 L305.123989,143.233478 Z M305.41333,141.175409 L305.547673,140.142527 L293.642641,138.635804 L293.51897,139.586631 L305.41333,141.175409 Z M305.6749,139.108677 L305.795008,138.07394 L293.870348,136.73137 L293.759768,137.684027 L305.6749,139.108677 Z M305.908508,137.033492 L306.0143,135.99752 L294.072266,134.819459 L293.974853,135.773388 L305.908508,137.033492 Z M306.113962,134.950059 L306.205426,133.912937 L294.248276,132.899741 L294.164043,133.854878 L306.113962,134.950059 Z M306.289907,132.873556 C306.316825,132.527684 306.342567,132.18162 306.367132,131.835369 L294.397217,130.986169 L294.326085,131.942446 L306.289907,132.873556 Z M306.43676,130.804355 C306.458956,130.45823 306.479977,130.111924 306.49982,129.765442 L294.519453,129.079295 L294.461358,130.036414 L306.43676,130.804355 Z M306.556466,128.712673 L306.605261,127.672892 L294.616606,127.151212 L294.571644,128.109318 L306.556466,128.712673 Z M306.646565,126.643933 L306.681275,125.6037 L294.686659,125.244261 L294.654669,126.202982 L306.646565,126.643933 Z M306.709153,124.553114 C306.717164,124.206464 306.724002,123.859668 306.729667,123.512728 L294.731266,123.316816 L294.712356,124.275891 L306.709153,124.553114 Z M306.743148,122.470716 C306.746459,122.124003 306.748599,121.777154 306.749568,121.430171 L294.749614,121.39668 L294.743695,122.356129 L306.743148,122.470716 Z" id="Path" fill="#CEDCED"></path>
            <path d="M16.3100994,51.6661471 C16.4944813,51.2952344 16.9446364,51.1440213 17.3155491,51.3284032 C17.6864617,51.5127851 17.8376748,51.9629403 17.6532929,52.3338529 C-20.2716445,128.625722 10.8637388,221.200429 87.1963309,259.105347 C163.529145,297.010376 256.153523,265.891341 294.078571,189.599251 C294.262953,189.228338 294.713108,189.077125 295.084021,189.261507 C295.454933,189.445889 295.606147,189.896044 295.421765,190.266956 C257.128016,267.300747 163.60367,298.722144 86.5291933,260.448823 C9.45449449,222.175392 -21.9837601,128.70016 16.3100994,51.6661471 Z" id="Path" fill="url(#linearGradient-1)"></path>
            <path d="M154.250168,0 C89.3567098,0 36.7501679,52.6065419 36.7501679,117.5 C36.7501679,182.393458 89.3567098,235 154.250168,235 C219.143626,235 271.750168,182.393458 271.750168,117.5 C271.750168,52.6065419 219.143626,0 154.250168,0 Z M154.250168,10 C213.620778,10 261.750168,58.1293894 261.750168,117.5 C261.750168,176.870611 213.620778,225 154.250168,225 C94.8795573,225 46.7501679,176.870611 46.7501679,117.5 C46.7501679,58.1293894 94.8795573,10 154.250168,10 Z" id="Oval" fill="url(#linearGradient-2)"></path>
        </g>
        <g id="totp" transform="translate(86.000000, 182.000000)">
            <ellipse id="Oval" fill="#CEDCED" cx="15.9677419" cy="16" rx="9.58064516" ry="9.6"></ellipse>
            <path d="M15.8653846,0 C7.10317464,0 0,7.163444 0,16 C0,24.836556 7.10317464,32 15.8653846,32 L15.8653846,32 C24.6275946,32 31.7307692,24.836556 31.7307692,16" id="Path" stroke="#EBF3FA" stroke-width="3" stroke-linecap="round"></path>
            <ellipse id="Oval" fill="#EBF3FA" cx="31.0961538" cy="9.6" rx="1.90384615" ry="1.92"></ellipse>
        </g>
        <g id="component-03" transform="translate(171.000000, 50.000000)">
            <rect id="Rectangle" fill="#F2F9FF" x="0" y="0" width="114" height="36" rx="4"></rect>
            <rect id="Rectangle" fill="#CEDCED" x="37" y="12" width="69" height="4" rx="1"></rect>
            <rect id="Rectangle" fill="#CEDCED" x="37" y="20" width="56" height="4" rx="1"></rect>
            <circle id="Oval" fill="#CEDCED" cx="18.5" cy="18.5" r="9.5"></circle>
        </g>
        <g id="identity" transform="translate(89.000000, 55.000000)">
            <rect id="Rectangle" fill="#0071BB" x="0" y="0" width="37.5" height="46.0714286" rx="4"></rect>
            <rect id="Rectangle" fill="#112E51" x="6.42857143" y="35.3571429" width="24.6428571" height="4.28571429" rx="1"></rect>
            <g id="user-circle-solid" transform="translate(6.428571, 6.428571)" fill="#112E51" fill-rule="nonzero">
                <path d="M12.3214286,0 C5.51483295,0 0,5.51483295 0,12.3214286 C0,19.1280242 5.51483295,24.6428571 12.3214286,24.6428571 C19.1280242,24.6428571 24.6428571,19.1280242 24.6428571,12.3214286 C24.6428571,5.51483295 19.1280242,0 12.3214286,0 Z M12.3214286,4.76958525 C14.7360311,4.76958525 16.6935484,6.72710253 16.6935484,9.14170507 C16.6935484,11.5563076 14.7360311,13.5138249 12.3214286,13.5138249 C9.90682604,13.5138249 7.94930876,11.5563076 7.94930876,9.14170507 C7.94930876,6.72710253 9.90682604,4.76958525 12.3214286,4.76958525 Z M12.3214286,21.8605991 C9.40502592,21.8605991 6.79169067,20.5390265 5.04284274,18.4722062 C5.97688652,16.7134217 7.80522753,15.5011521 9.93663594,15.5011521 C10.0558756,15.5011521 10.1751152,15.5210253 10.2893865,15.5558036 C10.9352679,15.7644729 11.6109591,15.8986175 12.3214286,15.8986175 C13.031898,15.8986175 13.7125576,15.7644729 14.3534706,15.5558036 C14.4677419,15.5210253 14.5869816,15.5011521 14.7062212,15.5011521 C16.8376296,15.5011521 18.6659706,16.7134217 19.6000144,18.4722062 C17.8511665,20.5390265 15.2378312,21.8605991 12.3214286,21.8605991 Z" id="Shape"></path>
            </g>
        </g>
        <g id="Group-3" transform="translate(191.000000, 147.000000)">
            <rect id="Rectangle" fill="#0071BB" x="0" y="0" width="28.9285714" height="39.6179402" rx="2"></rect>
            <rect id="Rectangle" fill="#0071BB" x="3.94480519" y="23.7707641" width="21.038961" height="33.0149502" rx="2"></rect>
            <rect id="Rectangle" fill="#F2F9FF" x="6.57467532" y="39.6179402" width="2.86894923" height="14.5265781"></rect>
            <rect id="Rectangle" fill="#F2F9FF" x="10.8780992" y="39.6179402" width="2.86894923" height="11.8853821"></rect>
            <rect id="Rectangle" fill="#F2F9FF" x="15.181523" y="39.6179402" width="2.86894923" height="11.8853821"></rect>
            <rect id="Rectangle" fill="#F2F9FF" x="19.4849469" y="39.6179402" width="2.86894923" height="14.5265781"></rect>
            <ellipse id="Oval" fill="#CEDCED" cx="14.4642857" cy="14.5265781" rx="9.20454545" ry="9.24418605"></ellipse>
        </g>
        <g id="totp-num" transform="translate(30.000000, 128.000000)">
            <rect id="Rectangle" fill="#F2F9FF" x="0" y="0" width="89" height="28" rx="13.5"></rect>
            <path d="M10.8388434,21 L13.4662485,16.4491844 L16.0779207,20.9184442 L18.5479962,19.1242158 L15.3699373,15.1769134 L19.8695652,13.8230866 L19.0199851,11.0501882 L14.5675561,13.0727729 L14.9923461,8 L11.9873498,8 L12.3334751,13.0564617 L7.97544382,11.0828105 L7,13.8557089 L11.6254917,15.1932246 L8.36876794,19.2220828 L10.8388434,21 Z M25.8533362,21 L28.4807413,16.4491844 L31.0924135,20.9184442 L33.5624889,19.1242158 L30.38443,15.1769134 L34.884058,13.8230866 L34.0344779,11.0501882 L29.5820488,13.0727729 L30.0068389,8 L27.0018426,8 L27.3479678,13.0564617 L22.9899366,11.0828105 L22.0144928,13.8557089 L26.6399844,15.1932246 L23.3832607,19.2220828 L25.8533362,21 Z M41.9402927,21 L44.5676978,16.4491844 L47.17937,20.9184442 L49.6494454,19.1242158 L46.4713866,15.1769134 L50.9710145,13.8230866 L50.1214344,11.0501882 L45.6690054,13.0727729 L46.0937954,8 L43.0887991,8 L43.4349243,13.0564617 L39.0768931,11.0828105 L38.1014493,13.8557089 L42.7269409,15.1932246 L39.4702172,19.2220828 L41.9402927,21 Z M56.9547854,21 L59.5821906,16.4491844 L62.1938627,20.9184442 L64.6639382,19.1242158 L61.4858793,15.1769134 L65.9855072,13.8230866 L65.1359271,11.0501882 L60.6834981,13.0727729 L61.1082882,8 L58.1032919,8 L58.4494171,13.0564617 L54.0913858,11.0828105 L53.115942,13.8557089 L57.7414337,15.1932246 L54.48471,19.2220828 L56.9547854,21 Z M71.9692782,21 L74.5966833,16.4491844 L77.2083555,20.9184442 L79.678431,19.1242158 L76.5003721,15.1769134 L81,13.8230866 L80.1504199,11.0501882 L75.6979909,13.0727729 L76.1227809,8 L73.1177846,8 L73.4639099,13.0564617 L69.1058786,11.0828105 L68.1304348,13.8557089 L72.7559264,15.1932246 L69.4992027,19.2220828 L71.9692782,21 Z" id="*****" fill="#0071BB" fill-rule="nonzero"></path>
        </g>
        <g id="component-01" transform="translate(40.000000, 21.000000)">
            <rect id="Rectangle" fill="#F2F9FF" x="0" y="0" width="114" height="21" rx="4"></rect>
            <rect id="Rectangle" fill="#CEDCED" x="9" y="9" width="83" height="4" rx="1"></rect>
            <circle id="Oval" fill="#CEDCED" cx="101" cy="10" r="5"></circle>
        </g>
        <g id="component-02" transform="translate(145.000000, 103.000000)">
            <rect id="Rectangle" fill="#F2F9FF" transform="translate(49.000000, 10.500000) rotate(-180.000000) translate(-49.000000, -10.500000) " x="0" y="0" width="98" height="21" rx="4"></rect>
            <rect id="Rectangle" fill="#CEDCED" transform="translate(55.500000, 10.000000) rotate(-180.000000) translate(-55.500000, -10.000000) " x="20" y="8" width="71" height="4" rx="1"></rect>
        </g>
        <g id="deco-ovals" transform="translate(52.000000, 37.000000)">
            <circle id="Oval" fill="#A6D5AF" cx="231.5" cy="14.5" r="5.5"></circle>
            <circle id="Oval" fill="#FCF197" cx="74.5" cy="5.5" r="5.5"></circle>
            <circle id="Oval" fill="#FCF197" cx="140.5" cy="178.5" r="5.5"></circle>
            <circle id="Oval" fill="#FCF197" cx="38.5" cy="62.5" r="5.5"></circle>
            <circle id="Oval" fill="#A6D5AF" cx="5.5" cy="119.5" r="5.5"></circle>
        </g>
        <g id="lockpad" transform="translate(105.000000, 58.000000)" fill-rule="nonzero">
            <g id="lock-solid-(1)">
                <path d="M89.2857143,50.7404357 L83.9285714,50.7404357 L83.9285714,34.5996646 C83.9285714,15.8136003 68.7053571,0.524703165 50,0.524703165 C31.2946429,0.524703165 16.0714286,15.8136003 16.0714286,34.5996646 L16.0714286,50.7404357 L10.7142857,50.7404357 C4.79910714,50.7404357 0,55.5602494 0,61.5009499 L0,104.543006 C0,110.483707 4.79910714,115.30352 10.7142857,115.30352 L89.2857143,115.30352 C95.2008929,115.30352 100,110.483707 100,104.543006 L100,61.5009499 C100,55.5602494 95.2008929,50.7404357 89.2857143,50.7404357 Z M66.0714286,50.7404357 L33.9285714,50.7404357 L33.9285714,34.5996646 C33.9285714,25.6998227 41.1383929,18.4588934 50,18.4588934 C58.8616071,18.4588934 66.0714286,25.6998227 66.0714286,34.5996646 L66.0714286,50.7404357 Z" id="Shape" fill="#F5D600"></path>
                <path d="M100,81.1504457 L100,103.439555 C100,110.066972 94.627417,115.439555 88,115.439555 L12,115.439555 C5.372583,115.439555 2.58798134e-15,110.066972 0,103.439555 L0,81.1504457 L100,81.1504457 Z M34,47 L34,51 L16,51 L16,47 L34,47 Z M84,47 L84,51 L66,51 L66,47 L84,47 Z" id="Rectangle-2" fill="#CAB000"></path>
            </g>
            <path d="M55.2035208,80.9126404 C58.0221537,78.6157692 59.1255945,74.7210686 57.9522002,71.2109109 C56.7788059,67.7007531 53.5864433,65.3465347 50,65.3465347 C46.4135567,65.3465347 43.2211941,67.7007531 42.0477998,71.2109109 C40.8744055,74.7210686 41.9778463,78.6157692 44.7964792,80.9126404 C43.8634341,86.3764319 42.9423512,91.8402235 42.0332303,97.3040151 C44.6468997,97.770354 47.2940052,98.0065996 49.9461705,98.0102195 C52.6362172,98.0658338 55.3258433,97.8792894 57.9847129,97.4526897 C57.0516678,91.8773922 56.1903954,86.4136006 55.2035208,80.9126404 Z" id="Path" fill="#FFFFFF"></path>
        </g>
    </g>
</svg>