<svg xmlns="http://www.w3.org/2000/svg" viewBox="0 0 463 288"><defs><style>.st0{fill:#38020b}.st2{mix-blend-mode:multiply;opacity:.3;isolation:isolate}.st2,.st4{fill:#0071bb}.st6{fill-rule:evenodd}.st9{fill:#fff}.st12{fill:none;stroke:#fff;stroke-linecap:round;stroke-miterlimit:10;stroke-width:5.3px}.st14{fill:#0c0305;fill-opacity:.6}.st6{fill-opacity:.2}</style></defs><g style="isolation:isolate"><g id="Layer_1"><rect x="60.3" y="27.4" width="295.4" height="238.3" rx="30.2" ry="30.2" style="fill:#ecf3fa"/><path d="M276.4 276.9v8.6H86.1v-8.6c0-9 1.8-17.9 5.2-26.2 3.4-8.3 8.5-15.9 14.8-22.2 12.9-12.9 30.3-20.1 48.5-20.1h3.8v-17.5c-8.2-3.9-15.4-9.9-20.6-17.3-5.3-7.4-8.6-16.1-9.5-25.2h-.3c-5.4-1-9.4-5.7-9.4-11.2v-13.3c0-2.7 1-5.3 2.7-7.4s4.2-3.4 6.8-3.9v-5.9c-.2-14.2 5.4-27.9 15.4-38 20.7-20.9 54.5-21.1 75.4-.4l.4.4c10 10.1 15.6 23.8 15.4 38v5.9c2.7.5 5.1 1.8 6.8 3.9s2.7 4.7 2.7 7.4v13.3c0 2.8-1 5.4-2.8 7.5-1.8 2-4.2 3.4-6.8 3.8h-.2c-1 9.1-4.2 17.8-9.5 25.2-5.3 7.4-12.4 13.4-20.6 17.3v17.5h3.8c18.2 0 35.6 7.2 48.4 20.1 12.8 12.9 20.1 30.3 20.1 48.4Z" style="fill:#644221" id="b"/><path class="st6" d="M204.1 190.9v7.6c-.8.4-1.6.7-2.4 1.1-13.1 5.5-27.9 5.5-41.1 0-.8-.3-1.5-.6-2.2-1V191c.7.4 1.5.7 2.2 1 13.1 5.5 27.9 5.5 41.1 0l2.4-1Z"/><path d="m78.1 217.8-3.3 21.1-20.7 7.4-17.4-13.7 3.3-21 20.7-7.4 17.4 13.6Z" style="fill:#f3b8be"/><path d="m101.5 251.8-10.6 19.3-22.5.5-11.9-18.8 10.6-19.3 22.5-.5 12 18.8Z" style="fill:#fff0f3"/><path d="m66.8 242.8.2 18.5-16.5 9.1-16.7-9.4-.2-18.5 16.5-9.1 16.7 9.3q0 .1 0 0Z" style="fill:#e21c3d"/><path class="st4" d="m66.1 246.4-5.1-.5-2.1-4.6 3.1-4.1 5.1.5 2.1 4.6-3.1 4.1Z"/><path d="M128.1 213.6c-12.4 5.2-23 14-30.5 25.3-7.4 11.2-11.4 24.4-11.4 37.9v8.6h190.4v-8.6c0-13.5-4-26.6-11.4-37.9-7.5-11.2-18-20-30.5-25.3-14.6 6.2-34.2 20.5-34.2 20.5l-19.1 21.1-19.2-20.1s-18.9-19.6-34.1-21.5Z" style="fill:#700315;fill-rule:evenodd" id="c"/><path class="st0" d="M142.8 113.3c3.7-5.2 13.9-8.2 22.7-6 1 .2 2.1-.4 2.3-1.4v-.7c0-.5-.3-.9-.8-1.2-.2 0-.4-.3-.7-.3-10.2-2.5-22 .9-26.8 7.5-.6.9-.3 2 .5 2.6s2 .4 2.6-.4h.2Zm76.8 0c-3.7-5.2-13.9-8.2-22.7-6a2 2 0 0 1-2.3-1.4 2 2 0 0 1 1.4-2.3c10.2-2.5 22 .9 26.8 7.5.6.9.4 2-.4 2.6-.2 0-.4.3-.7.3-.7.2-1.5 0-2-.8 0 0-.1 0-.1.1Z"/><path d="M127.2 136.6c.3 1.4 1.6 1.2 1.9 0-.4-1.5 3-51.6 12.2-58.5 3.4-2.4 21.5-17.9 39.9-17.9s36.7 15.5 40.1 17.9c9.2 6.9 12.8 55.6 12.4 57.1.3 1.2 1.6 1.4 1.9 0 .5-7.3 5.7-60.6-16.9-75.1-7.7-5-23.6-7.8-37.4-7.7-13.6.2-27.5 3.9-35.2 8.8-23.1 14.7-19.6 43.8-19 51.1l.2 24.3Z" style="fill-rule:evenodd;fill:#38020b"/><path class="st4" d="M430.3 146.4c0 41.2-34.1 74.6-76.3 74.6s-76.3-33.4-76.3-74.6 34.1-74.6 76.3-74.6 76.3 33.4 76.3 74.6Z"/><circle class="st2" cx="327.1" cy="171.7" r="20.1"/><path class="st12" d="M306.9 160.6h40"/><path style="fill:none;stroke:#fff;stroke-linecap:round;stroke-miterlimit:10;stroke-width:5.1px" d="M326.9 150.5v10.1"/><path class="st12" d="M336.6 161.3s1 23.4-27.5 33.5"/><path class="st12" d="M318.3 169.4c2 8.2 7.4 17.4 22.8 22.9"/><path class="st0" d="M159.7 12.4c.8.7 6.7 9.2 8.1 7.4-.4-6.2 1.6-11.6 8.4-12.5 19.5-2.6 15.2 28.1 30.1 32.9S222 40 230 45.7c6.2 4.4 5.2 10.7 7.9 15.4 1.6 2.8 5.6 3.4 7.6 8 2.9 6.7 1.5 11.4-.2 18.1-2.3 8.8-7.4 23.7-9 32-4-23.7-21.2-52.2-47.6-52.7-13.3-.2-19.2 7.4-30.2 8.8-3 .4-6.2-.2-9.5.3-7.7 1.2-12.3 7.3-15.3 13.8l-6.8 25.4c-2.2-14.3-11-37-4.5-47.9s6.4-3.4 7.3-6.7c-8.5-5-38.9-21.4-22.2-33 8.6-6 19.3 1.3 27.6 4.3 1.6-.3 1.2-1.4.7-2.6-1.2-2.7-4.4-6.6-5-9.6-1.1-6.3-.5-13.4 6.2-16.1 7.9-3.2 16.9 4.1 22.6 9.2h.1Zm-31.6 201.4 40.4 71.6-8.5-67.1-1.5-20.7s-12.4.8-19 3.7-10.3 6.7-11.5 12.5h.1Zm106.4 0-40.4 71.6 8.5-67.1 1.5-20.7s12.4.8 19 3.7 10.3 6.7 11.5 12.5h-.1Z"/><path style="fill-rule:evenodd;fill:#e2cdd0" d="m162.2 235.1 6.4 50.3h25.5l6.4-51.3-19.1 21.1-19.2-20.1z"/><path class="st9" d="M324 128.9c.6-13.5 8.3-22.1 21.7-24.1 3.7-.6 7.5-.7 11.2-.5-7.6.5-15.9 2-21.7 7.1-5.1 4.3-6.8 11-6.4 17.5H324Zm2.5 6.6 6-6.6h-12.1l6.1 6.6zm60.4 27.2c-.6 13.5-8.3 22.1-21.7 24.1-3.7.6-7.5.7-11.2.5 7.6-.5 15.9-2 21.7-7.1 5.1-4.3 6.8-11 6.4-17.5h4.8Zm-2.4-6.6-6 6.6h12l-6-6.6z"/><circle class="st2" cx="384.6" cy="114.1" r="20.1"/><path class="st9" d="m367.3 138.3 13.8-38.5h7l13.8 38.5h-6.5l-3.4-9.7h-14.7l-3.5 9.7h-6.5Zm11.5-15.4h11.6l-5.8-16.8-5.8 16.8Z"/><path class="st14" d="M194.4 163.3h-26.8c2.5 7.8 5.3 10.5 13.4 11.7 8.2-1 10.7-4.1 13.4-11.7Z"/><path class="st6" d="M169.7 142.7c0 4.2 5.1 7.6 11.4 7.6s11.4-3.4 11.4-7.6"/><path class="st14" d="M156.4 131.3c3.2 0 5.7-2.6 5.7-5.7s-2.6-5.7-5.7-5.7-1.5 0-2.2.4c-2.9 1.2-4.3 4.5-3.1 7.5.9 2.1 3 3.5 5.3 3.5Zm49.5 0c2.3 0 4.4-1.4 5.3-3.5 1.2-2.9-.2-6.2-3.1-7.5-.3 0-.7-.3-1.1-.3-2.3-.5-4.6.5-5.9 2.4-1.5 2.3-1.2 5.3.7 7.2 1.1 1.1 2.5 1.7 4 1.7h.1Z"/></g></g></svg>