<svg id="Layer_1" xmlns="http://www.w3.org/2000/svg" version="1.1" viewBox="0 0 463 288"><defs><style>.st0{fill:#e6e6e6}.st1{fill-opacity:.6}.st7{fill:#5c5c5c}</style></defs><rect x="60.3" y="27.4" width="295.4" height="238.3" rx="30.2" ry="30.2" style="fill:#ecf3fa"/><path d="m78.1 217.8-3.3 21.1-20.7 7.4-17.4-13.7 3.3-21 20.7-7.4 17.4 13.6Z" style="fill:#e21c3d"/><path d="m101.5 251.8-10.6 19.3-22.5.5-11.9-18.8 10.6-19.3 22.5-.5 12 18.8Z" style="fill:#f3b8be"/><path d="m66.8 242.8.2 18.5-16.5 9.1-16.7-9.4-.2-18.5 16.5-9.1 16.7 9.3q0 .1 0 0Z" style="fill:#fff0f3"/><path d="m66.1 246.4-5.1-.5-2.1-4.6 3.1-4.1 5.1.5 2.1 4.6-3.1 4.1Zm364.2-100c0 41.2-34.1 74.6-76.3 74.6s-76.3-33.4-76.3-74.6 34.1-74.6 76.3-74.6 76.3 33.4 76.3 74.6Z" style="fill:#0071bb"/><path d="M345.4 165.4c0-4.9.7-9.2 2.2-12.8s3.4-6.8 5.6-9.5 4.4-5.2 6.6-7.5 4-4.6 5.5-6.9c1.5-2.3 2.3-4.9 2.3-7.6s-1.2-5.7-3.6-7.6-5.4-2.8-9-2.8-4.8.5-7.1 1.6-4.3 2.5-6.1 4.4c-1.8 1.9-3.2 4.1-4.2 6.7l-16.7-4c2.9-7.1 7.2-12.5 13.1-16.3s12.9-5.7 21.1-5.7 12 1 16.8 3.1 8.5 4.8 11.2 8.3 4 7.3 4 11.5-.9 8.1-2.7 11.2c-1.8 3.1-3.9 5.9-6.5 8.3-2.6 2.4-5.1 4.9-7.7 7.3-2.6 2.4-4.7 5.1-6.5 8-1.7 2.9-2.6 6.4-2.6 10.5h-15.8v-.2h.1Zm-2.9 30.4v-21H364v21h-21.5Z" style="fill:#fff"/><path d="M203.6 194.2v16.9h3.7c36.9 0 66.7 29.6 66.7 66.1v8.3H88.6v-8.3c0-36.5 29.9-66.1 66.8-66.1h3.7v-16.9c-16-7.5-27.5-22.9-29.4-41.1-5.4-.8-9.6-5.4-9.6-10.9v-12.9c0-5.5 4-10 9.3-10.9v-5.7c0-28.4 23.2-51.4 51.9-51.4s51.9 23 51.9 51.4v5.7c5.3.9 9.3 5.4 9.3 10.9v12.9c0 5.6-4.1 10.2-9.6 10.9-1.9 18.2-13.4 33.6-29.4 41.1Z" style="fill:#d08b5b"/><path class="st0" d="M213.2 210.6c34.4 2.8 61.4 31.6 61.4 66.6v8.3h-186v-8.3c0-35.4 27.5-64.4 62.3-66.7v1.1c0 11 13.9 19.9 31.1 19.9s31.1-8.9 31.1-19.9v-1Z"/><path d="M213.2 210.6c34.4 2.8 61.4 31.6 61.4 66.6v8.3h-186v-8.3c0-35.4 27.5-64.4 62.3-66.7v1.1c0 11 13.9 19.9 31.1 19.9s31.1-8.9 31.1-19.9v-1Z" style="fill:#262e33;fill-rule:evenodd" id="c"/><path d="M204.1 194.1v7.6c-.8.4-1.6.7-2.4 1.1-13.1 5.5-27.9 5.5-41.1 0-.8-.3-1.5-.6-2.2-1v-7.6c.7.4 1.5.7 2.2 1 13.1 5.5 27.9 5.5 41.1 0l2.4-1Z" style="fill-opacity:.1;fill-rule:evenodd"/><path d="M218.9 213c0 13.8-16.5 25-36.9 25s-36.9-11.2-36.9-25 0-1.2.1-1.8c1.9-.3 3.7-.5 5.6-.6v1.1c0 11 13.9 19.9 31.1 19.9s31.1-8.9 31.1-19.9v-1c1.9.2 3.8.4 5.6.7v1.7Z" style="isolation:isolate;opacity:.6;fill-opacity:.2"/><path d="M88.6 277.2c0-35.9 28.4-65.2 64-66.8-2.8 10.8-4.4 23.3-4.4 36.6s1.8 27.3 5 38.5H88.7v-8.3Zm186 8.3H211c3.2-11.2 5-24.4 5-38.5s-1.6-25.8-4.4-36.5c35.1 2 63 31.1 63 66.7v8.3Z" style="fill-rule:evenodd;fill:#3a4c5a"/><path class="st0" d="m227.2 263.3 8.9-6.6c1.3-1 3.2-1 4.5 0l6.1 4.8-19.5 1.9Z"/><path d="M152.8 209.4c-3.7 17.9-2.2 43.3 4.6 76.1h-14.9l-13-33.4 5.6-8.4-5.6-5.6 17.7-27.9c1.9-.6 3.7-.9 5.6-.9Zm57.6 0c3.7 17.9 2.2 43.3-4.6 76.1h14.9l13-33.4-5.6-8.4 5.6-5.6-17.7-27.9c-1.9-.6-3.7-.9-5.6-.9Z" style="fill:#2f4351"/><path d="M168.4 165.3c0 7.1 5.7 12.9 12.7 12.9s12.7-5.8 12.7-12.9" style="fill-opacity:.7"/><path d="M170.2 147.8c0 4.1 4.9 7.4 10.9 7.4s10.9-3.3 10.9-7.4" style="fill-opacity:.2"/><circle class="st1" cx="157.5" cy="131.3" r="5.5"/><circle class="st1" cx="204.8" cy="131.3" r="5.5"/><path class="st1" d="M144.4 119.4c3.6-5.1 13.3-7.9 21.7-5.8 1 .2 2-.4 2.2-1.3.2-1-.4-2-1.3-2.2-9.8-2.4-21.1.9-25.6 7.3-.6.8-.4 2 .4 2.6.8.6 1.9.4 2.5-.4Zm73.5 0c-3.6-5.1-13.3-7.9-21.7-5.8-1 .2-2-.4-2.2-1.3-.2-1 .4-2 1.3-2.2 9.8-2.4 21.1.9 25.6 7.3.6.8.4 2-.4 2.6-.8.6-1.9.4-2.5-.4Z"/><path d="M115.4 105.7V187c-.2 28.9-6.8 75.8-19.3 83.1 57.4 15.4 66.2-35 63.5-75.3v-.4c-16.1-7.6-27.6-23.4-29.2-42-5.3-.8-9.4-5.4-9.4-10.9v-9.2c10-20.8 31.9-29 51-36.1 12.2-4.6 23.4-8.7 29.4-15.5 2.1 1.9 4.4 3.7 6.8 5.7 9.4 7.5 20.6 16.5 25 32.2v.2c4.6.8 8.2 4.3 9 8.9v-20.1c0-1.2 0-2.4-.1-3.5 4.2-15.6-2.9-34.7-11.6-43.3-8.7-8.1-20.5-11.3-28.5-7.8-10.7-16.1-41.5-12.2-59.8 1.4-12.2 9-22.8 23.6-25.6 42-.7 3.1-1.1 6.3-1.1 9.4Zm117.5 46.7c-1.6 18.6-13.1 34.3-29.2 42v16.9h3.7c34.9 0 63.4 26.9 66 61 8.1-10.4 10-24.9 3.6-37.4l-24.8-48.4c-6.6-12.9-10.1-27.3-10.1-41.8v-1.2c-.8 4.6-4.5 8.3-9.2 9Z" style="fill:#4a312c;fill-rule:evenodd"/><path d="M120.9 132.3c16.4-29.7 64.9-29.7 80.4-44.8 9.9 7.8 26.2 13.8 31.8 30.9-5.6-19.7-21.9-28.8-31.8-37.7-15.5 17.3-64 17.4-80.4 51.6Z" style="fill-rule:evenodd;fill-opacity:.2"/><ellipse class="st7" cx="244.3" cy="135.3" rx="9.3" ry="16.7"/><ellipse class="st7" cx="118.9" cy="135.3" rx="9.3" ry="16.7"/><path d="M118.9 120s1.5-36.5 16-52c24.3-26.1 66.4-25.4 91.4 0 15.1 15.3 18 52 18 52s18.1 46.8 0 64c-23.4 7.5-34.9 8.6-52 3.3" style="fill:none;stroke:#5c5c5c;stroke-width:2px"/><ellipse class="st7" cx="187.6" cy="188.7" rx="10" ry="4.7"/></svg>