<svg width="517" height="460" viewBox="0 0 517 460" fill="none" xmlns="http://www.w3.org/2000/svg">
<path d="M312.5 148L326.789 159.25H298.211L312.5 148Z" fill="#DEDEDE"/>
<rect x="307" y="106" width="118" height="55" rx="27.5" fill="#DEDEDE"/>
<path d="M338.528 132.652H335.564V129.592H338.528V132.652ZM338.588 145.864H335.528L336.236 134.284H337.904L338.588 145.864ZM353.847 134.152H344.967V142H342.399V124.648H344.967V131.92H353.847V124.648H356.415V142H353.847V134.152ZM365.171 142.24C363.427 142.24 362.027 141.688 360.971 140.584C359.923 139.472 359.399 137.896 359.399 135.856C359.399 134.552 359.623 133.416 360.071 132.448C360.527 131.472 361.187 130.712 362.051 130.168C362.915 129.624 363.959 129.352 365.183 129.352C366.927 129.352 368.319 129.92 369.359 131.056C370.399 132.192 370.919 133.792 370.919 135.856C370.919 137.112 370.699 138.22 370.259 139.18C369.819 140.14 369.171 140.892 368.315 141.436C367.459 141.972 366.411 142.24 365.171 142.24ZM365.183 140.26C366.239 140.26 367.035 139.852 367.571 139.036C368.115 138.212 368.387 137.128 368.387 135.784C368.387 134.96 368.279 134.212 368.063 133.54C367.847 132.86 367.503 132.32 367.031 131.92C366.567 131.52 365.951 131.32 365.183 131.32C364.111 131.32 363.299 131.724 362.747 132.532C362.203 133.34 361.931 134.424 361.931 135.784C361.931 136.592 362.039 137.336 362.255 138.016C362.471 138.696 362.815 139.24 363.287 139.648C363.767 140.056 364.399 140.26 365.183 140.26ZM377.038 142.168C376.054 142.168 375.322 142.004 374.842 141.676C374.37 141.348 374.058 140.924 373.906 140.404C373.754 139.876 373.678 139.316 373.678 138.724V124.168H376.21V138.46C376.21 139.612 376.674 140.224 377.602 140.296L378.25 140.32V141.952C377.81 142.096 377.406 142.168 377.038 142.168ZM384.353 142.24C383.153 142.24 382.165 141.92 381.389 141.28C380.621 140.64 380.237 139.744 380.237 138.592C380.237 137.216 380.721 136.188 381.689 135.508C382.665 134.828 384.225 134.468 386.369 134.428L388.409 134.368V133.468C388.409 132.756 388.197 132.196 387.773 131.788C387.349 131.38 386.697 131.18 385.817 131.188C385.153 131.196 384.561 131.352 384.041 131.656C383.521 131.96 383.185 132.456 383.033 133.144H380.801C380.873 131.904 381.365 130.964 382.277 130.324C383.197 129.676 384.417 129.352 385.937 129.352C387.625 129.352 388.869 129.696 389.669 130.384C390.477 131.072 390.881 132.052 390.881 133.324V142H388.709L388.505 139.72C388.041 140.672 387.453 141.332 386.741 141.7C386.029 142.06 385.233 142.24 384.353 142.24ZM385.157 140.452C385.677 140.452 386.185 140.332 386.681 140.092C387.177 139.844 387.585 139.528 387.905 139.144C388.233 138.752 388.401 138.34 388.409 137.908V135.856L386.729 135.892C385.449 135.908 384.457 136.104 383.753 136.48C383.057 136.848 382.709 137.468 382.709 138.34C382.709 139.004 382.937 139.524 383.393 139.9C383.857 140.268 384.445 140.452 385.157 140.452ZM397.322 124.648L396.65 137.332H394.97L394.262 124.648H397.322ZM397.262 138.94V142H394.298V138.94H397.262Z" fill="black"/>
<path d="M354.5 224L368.789 235.25H340.211L354.5 224Z" fill="#DEDEDE"/>
<rect x="349" y="182" width="118" height="55" rx="27.5" fill="#DEDEDE"/>
<path d="M388.843 212.152H379.963V220H377.395V202.648H379.963V209.92H388.843V202.648H391.411V220H388.843V212.152ZM397.071 214.396C397.063 215.508 397.339 216.436 397.899 217.18C398.459 217.924 399.291 218.296 400.395 218.296C401.131 218.296 401.767 218.128 402.303 217.792C402.847 217.456 403.203 216.956 403.371 216.292H405.747C405.595 217.148 405.255 217.868 404.727 218.452C404.199 219.036 403.555 219.48 402.795 219.784C402.043 220.088 401.259 220.24 400.443 220.24C399.267 220.24 398.231 219.988 397.335 219.484C396.439 218.972 395.739 218.244 395.235 217.3C394.739 216.356 394.491 215.232 394.491 213.928C394.491 212.64 394.719 211.504 395.175 210.52C395.631 209.528 396.287 208.752 397.143 208.192C398.007 207.632 399.051 207.352 400.275 207.352C402.067 207.352 403.435 207.916 404.379 209.044C405.331 210.164 405.807 211.664 405.807 213.544V214.396H397.071ZM397.071 212.728H403.359C403.359 211.752 403.103 210.928 402.591 210.256C402.087 209.576 401.311 209.236 400.263 209.236C399.551 209.236 398.959 209.408 398.487 209.752C398.015 210.096 397.659 210.536 397.419 211.072C397.187 211.608 397.071 212.16 397.071 212.728ZM412.034 220.168C411.05 220.168 410.318 220.004 409.838 219.676C409.366 219.348 409.054 218.924 408.902 218.404C408.75 217.876 408.674 217.316 408.674 216.724V202.168H411.206V216.46C411.206 217.612 411.67 218.224 412.598 218.296L413.246 218.32V219.952C412.806 220.096 412.402 220.168 412.034 220.168ZM418.995 220.168C418.011 220.168 417.279 220.004 416.799 219.676C416.327 219.348 416.015 218.924 415.863 218.404C415.711 217.876 415.635 217.316 415.635 216.724V202.168H418.167V216.46C418.167 217.612 418.631 218.224 419.559 218.296L420.207 218.32V219.952C419.767 220.096 419.363 220.168 418.995 220.168ZM427.8 220.24C426.056 220.24 424.656 219.688 423.6 218.584C422.552 217.472 422.028 215.896 422.028 213.856C422.028 212.552 422.252 211.416 422.7 210.448C423.156 209.472 423.816 208.712 424.68 208.168C425.544 207.624 426.588 207.352 427.812 207.352C429.556 207.352 430.948 207.92 431.988 209.056C433.028 210.192 433.548 211.792 433.548 213.856C433.548 215.112 433.328 216.22 432.888 217.18C432.448 218.14 431.8 218.892 430.944 219.436C430.088 219.972 429.04 220.24 427.8 220.24ZM427.812 218.26C428.868 218.26 429.664 217.852 430.2 217.036C430.744 216.212 431.016 215.128 431.016 213.784C431.016 212.96 430.908 212.212 430.692 211.54C430.476 210.86 430.132 210.32 429.66 209.92C429.196 209.52 428.58 209.32 427.812 209.32C426.74 209.32 425.928 209.724 425.376 210.532C424.832 211.34 424.56 212.424 424.56 213.784C424.56 214.592 424.668 215.336 424.884 216.016C425.1 216.696 425.444 217.24 425.916 217.648C426.396 218.056 427.028 218.26 427.812 218.26ZM439.138 202.648L438.466 215.332H436.786L436.078 202.648H439.138ZM439.078 216.94V220H436.114V216.94H439.078Z" fill="black"/>
<rect x="399" y="262" width="118" height="55" rx="27.5" fill="#DEDEDE"/>
<path d="M413.567 297V279.648H419.339C421.491 279.648 423.111 280.04 424.199 280.824C425.295 281.6 425.843 282.716 425.843 284.172C425.843 285.084 425.607 285.864 425.135 286.512C424.671 287.16 423.855 287.704 422.687 288.144C423.607 288.352 424.327 288.668 424.847 289.092C425.367 289.516 425.731 290.008 425.939 290.568C426.155 291.12 426.263 291.704 426.263 292.32C426.263 295.44 424.023 297 419.543 297H413.567ZM416.135 287.16H419.795C420.363 287.16 420.919 287.08 421.463 286.92C422.007 286.752 422.455 286.476 422.807 286.092C423.167 285.708 423.347 285.18 423.347 284.508C423.347 283.564 422.991 282.864 422.279 282.408C421.567 281.952 420.643 281.724 419.507 281.724H416.135V287.16ZM416.135 294.912H419.555C420.891 294.912 421.907 294.684 422.603 294.228C423.307 293.764 423.659 293.072 423.659 292.152C423.659 291.152 423.283 290.424 422.531 289.968C421.787 289.512 420.875 289.284 419.795 289.284H416.135V294.912ZM434.44 297.24C432.696 297.24 431.296 296.688 430.24 295.584C429.192 294.472 428.668 292.896 428.668 290.856C428.668 289.552 428.892 288.416 429.34 287.448C429.796 286.472 430.456 285.712 431.32 285.168C432.184 284.624 433.228 284.352 434.452 284.352C436.196 284.352 437.588 284.92 438.628 286.056C439.668 287.192 440.188 288.792 440.188 290.856C440.188 292.112 439.968 293.22 439.528 294.18C439.088 295.14 438.44 295.892 437.584 296.436C436.728 296.972 435.68 297.24 434.44 297.24ZM434.452 295.26C435.508 295.26 436.304 294.852 436.84 294.036C437.384 293.212 437.656 292.128 437.656 290.784C437.656 289.96 437.548 289.212 437.332 288.54C437.116 287.86 436.772 287.32 436.3 286.92C435.836 286.52 435.22 286.32 434.452 286.32C433.38 286.32 432.568 286.724 432.016 287.532C431.472 288.34 431.2 289.424 431.2 290.784C431.2 291.592 431.308 292.336 431.524 293.016C431.74 293.696 432.084 294.24 432.556 294.648C433.036 295.056 433.668 295.26 434.452 295.26ZM442.947 297V284.592H445.455V286.38C445.751 285.884 446.211 285.436 446.835 285.036C447.467 284.636 448.275 284.436 449.259 284.436C450.035 284.436 450.751 284.592 451.407 284.904C452.071 285.208 452.603 285.688 453.003 286.344C453.403 286.992 453.603 287.832 453.603 288.864V297H451.035V289.14C451.035 288.252 450.795 287.592 450.315 287.16C449.835 286.728 449.223 286.512 448.479 286.512C447.967 286.512 447.483 286.596 447.027 286.764C446.579 286.932 446.215 287.188 445.935 287.532C445.655 287.868 445.515 288.292 445.515 288.804V297H442.947ZM459.88 279.66V282.192H457.192V279.66H459.88ZM459.832 297.384C459.832 298.592 459.56 299.492 459.016 300.084C458.472 300.684 457.536 300.984 456.208 300.984C455.544 300.984 455.12 300.932 454.936 300.828C454.744 300.732 454.648 300.684 454.648 300.684V298.968L455.8 298.896C456.336 298.848 456.712 298.704 456.928 298.464C457.152 298.224 457.264 297.84 457.264 297.312V284.592H459.832V297.384ZM468.401 297.24C466.657 297.24 465.257 296.688 464.201 295.584C463.153 294.472 462.629 292.896 462.629 290.856C462.629 289.552 462.853 288.416 463.301 287.448C463.757 286.472 464.417 285.712 465.281 285.168C466.145 284.624 467.189 284.352 468.413 284.352C470.157 284.352 471.549 284.92 472.589 286.056C473.629 287.192 474.149 288.792 474.149 290.856C474.149 292.112 473.929 293.22 473.489 294.18C473.049 295.14 472.401 295.892 471.545 296.436C470.689 296.972 469.641 297.24 468.401 297.24ZM468.413 295.26C469.469 295.26 470.265 294.852 470.801 294.036C471.345 293.212 471.617 292.128 471.617 290.784C471.617 289.96 471.509 289.212 471.293 288.54C471.077 287.86 470.733 287.32 470.261 286.92C469.797 286.52 469.181 286.32 468.413 286.32C467.341 286.32 466.529 286.724 465.977 287.532C465.433 288.34 465.161 289.424 465.161 290.784C465.161 291.592 465.269 292.336 465.485 293.016C465.701 293.696 466.045 294.24 466.517 294.648C466.997 295.056 467.629 295.26 468.413 295.26ZM481.28 297.24C480.448 297.232 479.672 297.072 478.952 296.76C478.232 296.448 477.648 295.984 477.2 295.368C476.752 294.744 476.528 293.972 476.528 293.052V284.592H479.108V292.776C479.108 293.52 479.34 294.124 479.804 294.588C480.268 295.052 480.968 295.284 481.904 295.284C482.752 295.284 483.432 295.064 483.944 294.624C484.456 294.176 484.712 293.524 484.712 292.668V284.592H487.268V297H485.276L484.988 294.6C484.764 295.576 484.3 296.264 483.596 296.664C482.892 297.056 482.12 297.248 481.28 297.24ZM490.713 297V284.592H493.173V287.136C493.477 286.224 493.965 285.532 494.637 285.06C495.317 284.588 496.077 284.352 496.917 284.352C497.077 284.352 497.233 284.364 497.385 284.388C497.545 284.404 497.669 284.436 497.757 284.484V286.956C497.653 286.908 497.517 286.876 497.349 286.86C497.189 286.844 497.049 286.832 496.929 286.824C495.833 286.744 494.949 286.932 494.277 287.388C493.613 287.844 493.281 288.56 493.281 289.536V297H490.713ZM502.967 279.648L502.295 292.332H500.615L499.907 279.648H502.967ZM502.907 293.94V297H499.943V293.94H502.907Z" fill="black"/>
<path d="M408.5 305L422.789 316.25H394.211L408.5 305Z" fill="#DEDEDE"/>
<path d="M229.586 268.694V285.584H233.294C270.162 285.584 300.049 315.192 300.049 351.715V359.981H114.619V351.715C114.619 315.192 144.506 285.584 181.374 285.584H185.083V268.694C169.101 261.173 157.613 245.802 155.697 227.611C150.296 226.854 146.142 222.257 146.142 216.698V203.839C146.142 198.378 150.152 193.844 155.414 192.97V187.307C155.414 158.9 178.659 135.872 207.334 135.872C236.009 135.872 259.255 158.9 259.255 187.307V192.97C264.517 193.844 268.526 198.378 268.526 203.839V216.698C268.526 222.257 264.372 226.854 258.972 227.611C257.055 245.802 245.568 261.173 229.586 268.694Z" fill="#D0C6AC"/>
<mask id="mask0_9_1287" style="mask-type:alpha" maskUnits="userSpaceOnUse" x="114" y="135" width="187" height="225">
<path fill-rule="evenodd" clip-rule="evenodd" d="M229.903 268.616V285.521H233.622C270.592 285.521 300.562 315.154 300.562 351.708V359.981H114.617V351.708C114.617 315.154 144.587 285.521 181.557 285.521H185.276V268.616C169.25 261.089 157.731 245.705 155.809 227.498C150.393 226.741 146.228 222.14 146.228 216.576V203.707C146.228 198.241 150.249 193.703 155.525 192.828V187.16C155.525 158.729 178.835 135.681 207.59 135.681C236.344 135.681 259.654 158.729 259.654 187.16V192.828C264.93 193.703 268.951 198.241 268.951 203.707V216.576C268.951 222.14 264.786 226.741 259.37 227.498C257.448 245.705 245.929 261.089 229.903 268.616Z" fill="white"/>
</mask>
<g mask="url(#mask0_9_1287)">
<rect x="84.8662" y="135.681" width="245.446" height="224.3" fill="#D08B5B"/>
</g>
<mask id="mask1_9_1287" style="mask-type:alpha" maskUnits="userSpaceOnUse" x="114" y="135" width="187" height="226">
<path fill-rule="evenodd" clip-rule="evenodd" d="M229.903 268.683V285.596H233.622C270.592 285.596 300.562 315.243 300.562 351.816V360.093H114.617V351.816C114.617 315.243 144.587 285.596 181.557 285.596H185.276V268.683C169.25 261.152 157.731 245.76 155.809 227.544C150.393 226.787 146.228 222.183 146.228 216.617V203.741C146.228 198.272 150.249 193.732 155.525 192.856V187.186C155.525 158.74 178.835 135.681 207.59 135.681C236.344 135.681 259.654 158.74 259.654 187.186V192.856C264.93 193.732 268.951 198.272 268.951 203.741V216.617C268.951 222.183 264.786 226.787 259.37 227.544C257.448 245.76 245.929 261.152 229.903 268.683Z" fill="white"/>
</mask>
<g mask="url(#mask1_9_1287)">
<path d="M259.654 208.339V229.492C259.654 257.937 236.344 280.997 207.59 280.997C178.835 280.997 155.525 257.937 155.525 229.492V208.339V222.135C155.525 250.58 178.835 273.639 207.59 273.639C236.344 273.639 259.654 250.58 259.654 222.135V208.339Z" fill="black" fill-opacity="0.1"/>
</g>
<path d="M239.163 285.03C273.54 287.844 300.561 316.605 300.561 351.671V359.981H114.617V351.671C114.617 316.288 142.129 287.324 176.951 284.96C176.923 285.307 176.909 285.656 176.909 286.008C176.909 297.025 190.853 305.956 208.054 305.956C225.255 305.956 239.2 297.025 239.2 286.008C239.2 285.68 239.187 285.354 239.163 285.03Z" fill="#E6E6E6"/>
<mask id="mask2_9_1287" style="mask-type:alpha" maskUnits="userSpaceOnUse" x="114" y="284" width="187" height="76">
<path fill-rule="evenodd" clip-rule="evenodd" d="M239.163 285.03C273.54 287.844 300.561 316.605 300.561 351.671V359.981H114.617V351.671C114.617 316.288 142.129 287.324 176.951 284.96C176.923 285.307 176.909 285.656 176.909 286.008C176.909 297.025 190.853 305.956 208.054 305.956C225.255 305.956 239.2 297.025 239.2 286.008C239.2 285.68 239.187 285.354 239.163 285.03Z" fill="white"/>
</mask>
<g mask="url(#mask2_9_1287)">
<rect x="84.8662" y="257.824" width="245.446" height="102.157" fill="#262E33"/>
</g>
<mask id="mask3_9_1287" style="mask-type:alpha" maskUnits="userSpaceOnUse" x="114" y="284" width="187" height="76">
<path fill-rule="evenodd" clip-rule="evenodd" d="M239.163 285.03C273.54 287.844 300.561 316.605 300.561 351.671V359.981H114.617V351.671C114.617 316.288 142.129 287.324 176.951 284.96C176.923 285.307 176.909 285.656 176.909 286.008C176.909 297.025 190.853 305.956 208.054 305.956C225.255 305.956 239.2 297.025 239.2 286.008C239.2 285.68 239.187 285.354 239.163 285.03Z" fill="white"/>
</mask>
<g mask="url(#mask3_9_1287)">
<g opacity="0.6">
<ellipse cx="208.054" cy="287.401" rx="36.8496" ry="24.9949" fill="black" fill-opacity="0.16"/>
</g>
</g>
<path fill-rule="evenodd" clip-rule="evenodd" d="M114.617 351.671C114.617 315.747 142.985 286.44 178.568 284.878C175.737 295.658 174.119 308.14 174.119 321.444C174.119 335.567 175.942 348.763 179.104 359.981H114.617V351.671ZM300.562 359.981H237.004C240.166 348.763 241.989 335.567 241.989 321.444C241.989 308.16 240.376 295.695 237.553 284.926C272.693 286.959 300.562 316.065 300.562 351.671V359.981Z" fill="#3A4C5A"/>
<path d="M253.146 337.695L262.03 331.04C263.372 330.035 265.221 330.051 266.545 331.079L272.67 335.838L253.146 337.695Z" fill="#E6E6E6"/>
<path d="M178.768 283.837C175.049 301.789 176.599 327.171 183.417 359.981H168.541L155.525 326.552L161.103 318.194L155.525 312.623L173.19 284.765C175.075 284.18 176.934 283.87 178.768 283.837Z" fill="#2F4351"/>
<path d="M236.411 283.837C240.129 301.789 238.58 327.171 231.762 359.981H246.637L259.654 326.552L254.075 318.194L259.654 312.623L241.989 284.765C240.104 284.18 238.244 283.87 236.411 283.837Z" fill="#2F4351"/>
<path d="M194.403 239.752C194.403 246.868 200.103 252.636 207.135 252.636C214.167 252.636 219.867 246.868 219.867 239.752" fill="black" fill-opacity="0.7"/>
<path d="M196.221 222.267C196.221 226.333 201.107 229.629 207.135 229.629C213.162 229.629 218.048 226.333 218.048 222.267" fill="black" fill-opacity="0.16"/>
<ellipse cx="183.489" cy="205.701" rx="5.45666" ry="5.52184" fill="black" fill-opacity="0.6"/>
<ellipse cx="230.78" cy="205.701" rx="5.45666" ry="5.52184" fill="black" fill-opacity="0.6"/>
<path d="M170.421 193.883C173.981 188.813 183.742 185.97 192.15 188.06C193.125 188.302 194.111 187.699 194.35 186.711C194.59 185.724 193.993 184.727 193.017 184.485C183.253 182.058 171.95 185.35 167.456 191.751C166.874 192.579 167.066 193.728 167.885 194.317C168.703 194.906 169.839 194.712 170.421 193.883Z" fill="black" fill-opacity="0.6"/>
<path d="M243.849 193.883C240.288 188.813 230.528 185.97 222.12 188.06C221.144 188.302 220.159 187.699 219.919 186.711C219.68 185.724 220.277 184.727 221.252 184.485C231.016 182.058 242.319 185.35 246.814 191.751C247.396 192.579 247.204 193.728 246.385 194.317C245.566 194.906 244.431 194.712 243.849 193.883Z" fill="black" fill-opacity="0.6"/>
<mask id="mask4_9_1287" style="mask-type:alpha" maskUnits="userSpaceOnUse" x="86" y="103" width="243" height="258">
<rect x="86.1787" y="103" width="242.821" height="257.093" fill="white"/>
</mask>
<g mask="url(#mask4_9_1287)">
<path fill-rule="evenodd" clip-rule="evenodd" d="M141.365 180.17V261.425C141.189 290.361 134.564 337.173 122.05 344.484C179.406 359.907 188.21 309.459 185.515 269.192V268.835C169.39 261.188 157.877 245.425 156.274 226.833C150.959 226.039 146.884 221.463 146.884 215.937V206.755C156.872 185.911 178.773 177.743 197.877 170.619C210.128 166.051 221.228 161.911 227.3 155.132C229.354 156.993 231.681 158.857 234.128 160.819C243.519 168.343 254.693 177.297 259.097 192.982V193.135C263.686 193.903 267.314 197.498 268.125 202.065V182.002C268.125 180.815 268.076 179.64 267.98 178.478C272.157 162.863 265.135 143.781 256.338 135.136C247.617 127.04 235.825 123.825 227.868 127.352C217.194 111.247 186.347 115.157 168.039 128.709C155.875 137.717 145.233 152.335 142.425 170.736C141.732 173.769 141.365 176.927 141.365 180.17ZM258.905 226.833C257.302 245.424 245.789 261.188 229.664 268.835V285.719H233.343C268.206 285.719 296.777 312.612 299.375 346.75C307.519 336.379 309.399 321.823 302.995 309.318L278.208 260.922C271.581 247.982 268.125 233.657 268.125 219.123V217.872C267.303 222.503 263.584 226.134 258.905 226.833Z" fill="#272C2E"/>
<mask id="mask5_9_1287" style="mask-type:alpha" maskUnits="userSpaceOnUse" x="122" y="116" width="185" height="232">
<path fill-rule="evenodd" clip-rule="evenodd" d="M141.365 261.425V180.17C141.365 176.927 141.732 173.769 142.425 170.736C145.233 152.335 155.875 137.717 168.039 128.709C186.347 115.157 217.194 111.247 227.868 127.352C235.825 123.825 247.617 127.04 256.338 135.136C265.135 143.781 272.157 162.863 267.98 178.478C268.076 179.64 268.125 180.815 268.125 182.002V202.065C267.314 197.498 263.686 193.903 259.097 193.135V192.982C253.545 173.208 237.233 164.133 227.3 155.132C211.761 172.482 163.277 172.543 146.884 206.755V215.937C146.884 221.463 150.959 226.039 156.274 226.833C157.877 245.425 169.39 261.188 185.515 268.835V269.192C188.21 309.459 179.406 359.907 122.05 344.484C134.564 337.173 141.189 290.361 141.365 261.425ZM229.664 268.835C245.789 261.188 257.302 245.424 258.905 226.833C263.584 226.134 267.303 222.503 268.125 217.872V219.123C268.125 233.657 271.581 247.982 278.208 260.922L302.995 309.318C309.399 321.823 307.519 336.379 299.375 346.75C296.777 312.612 268.206 285.719 233.343 285.719H229.664V268.835Z" fill="white"/>
</mask>
<g mask="url(#mask5_9_1287)">
<rect x="122.05" y="116.775" width="242.821" height="257.093" fill="#4A312C"/>
</g>
<path fill-rule="evenodd" clip-rule="evenodd" d="M146.884 206.755C163.277 177.065 211.761 177.012 227.3 161.955C237.213 169.751 253.479 175.782 259.063 192.862C253.479 173.172 237.213 164.115 227.3 155.132C211.761 172.482 163.277 172.543 146.884 206.755Z" fill="black" fill-opacity="0.16"/>
</g>
<ellipse cx="270.296" cy="209.772" rx="9.33928" ry="16.6773" fill="#5C5C5C"/>
<ellipse cx="144.883" cy="209.772" rx="9.33928" ry="16.6773" fill="#5C5C5C"/>
<path d="M144.883 194.429C144.883 194.429 146.407 157.957 160.893 142.396C185.212 116.273 227.255 116.953 252.285 142.396C267.364 157.725 270.296 194.429 270.296 194.429C270.296 194.429 288.447 241.264 270.296 258.47C246.933 265.98 235.359 267.083 218.263 261.805" stroke="#5C5C5C" stroke-width="2"/>
<ellipse cx="213.593" cy="263.139" rx="10.0064" ry="4.66964" fill="#5C5C5C"/>
<path d="M120.152 338.765L117.184 357.628L98.6571 364.214L83.0827 351.998L86.0416 333.17L104.576 326.554L120.152 338.765Z" fill="#E21C3D"/>
<path d="M141.151 369.161L131.634 386.408L111.481 386.842L100.834 370.01L110.316 352.755L130.468 352.326L141.151 369.161Z" fill="#F3B8BE"/>
<path d="M110.099 361.074L110.317 377.583L95.5746 385.752L80.6165 377.375L80.3978 360.866L95.1321 352.732L110.099 361.074Z" fill="#FFF0F3"/>
<path d="M110.93 365.277L106.36 364.858L104.521 360.751L107.253 357.063L111.823 357.482L113.662 361.589L110.93 365.277Z" fill="#0071BB"/>
<path fill-rule="evenodd" clip-rule="evenodd" d="M333 420.995C359.509 420.995 381 399.957 381 373.998C381 348.039 359.509 327 333 327C306.491 327 285 348.039 285 373.998C285 399.957 306.491 420.995 333 420.995ZM319.148 347.058C315.421 349.425 312.648 352.809 310.828 357.21L321.409 359.717C322.348 357.349 323.841 355.455 325.889 354.035C327.965 352.587 330.156 351.862 332.46 351.862C334.764 351.862 336.669 352.447 338.177 353.617C339.713 354.787 340.481 356.36 340.481 358.338C340.481 360.093 339.997 361.68 339.03 363.101C338.092 364.521 336.925 365.942 335.532 367.362C334.138 368.782 332.73 370.342 331.308 372.041C329.914 373.712 328.733 375.676 327.766 377.932C326.828 380.16 326.358 382.806 326.358 385.87H336.385C336.385 383.335 336.94 381.163 338.049 379.352C339.158 377.514 340.524 375.857 342.145 374.381C343.795 372.877 345.43 371.373 347.052 369.869C348.701 368.337 350.067 366.61 351.148 364.688C352.257 362.766 352.826 360.441 352.854 357.711C352.854 355.093 352.001 352.712 350.294 350.567C348.616 348.423 346.255 346.71 343.212 345.429C340.168 344.147 336.612 343.507 332.545 343.507C327.34 343.507 322.874 344.691 319.148 347.058ZM338.177 404.753V391.718H324.524V404.753H338.177Z" fill="#205493"/>
</svg>
