<svg width="462" height="318" viewBox="0 0 462 318" fill="none" xmlns="http://www.w3.org/2000/svg"><path d="M257.5 45l14.289 11.25h-28.578L257.5 45z" fill="#DEDEDE"/><rect x="252" y="3" width="118" height="55" rx="27.5" fill="#DEDEDE"/><path d="M283.528 29.652h-2.964v-3.06h2.964v3.06zm.06 13.212h-3.06l.708-11.58h1.668l.684 11.58zm15.259-11.712h-8.88V39h-2.568V21.648h2.568v7.272h8.88v-7.272h2.568V39h-2.568v-7.848zm11.324 8.088c-1.744 0-3.144-.552-4.2-1.656-1.048-1.112-1.572-2.688-1.572-4.728 0-1.304.224-2.44.672-3.408.456-.976 1.116-1.736 1.98-2.28.864-.544 1.908-.816 3.132-.816 1.744 0 3.136.568 4.176 1.704 1.04 1.136 1.56 2.736 1.56 4.8 0 1.256-.22 2.364-.66 3.324-.44.96-1.088 1.712-1.944 2.256-.856.536-1.904.804-3.144.804zm.012-1.98c1.056 0 1.852-.408 2.388-1.224.544-.824.816-1.908.816-3.252 0-.824-.108-1.572-.324-2.244-.216-.68-.56-1.22-1.032-1.62-.464-.4-1.08-.6-1.848-.6-1.072 0-1.884.404-2.436 1.212-.544.808-.816 1.892-.816 3.252 0 .808.108 1.552.324 2.232.216.68.56 1.224 1.032 1.632.48.408 1.112.612 1.896.612zm11.855 1.908c-.984 0-1.716-.164-2.196-.492a2.307 2.307 0 01-.936-1.272 6.045 6.045 0 01-.228-1.68V21.168h2.532V35.46c0 1.152.464 1.764 1.392 1.836l.648.024v1.632c-.44.144-.844.216-1.212.216zm7.315.072c-1.2 0-2.188-.32-2.964-.96-.768-.64-1.152-1.536-1.152-2.688 0-1.376.484-2.404 1.452-3.084.976-.68 2.536-1.04 4.68-1.08l2.04-.06v-.9c0-.712-.212-1.272-.636-1.68-.424-.408-1.076-.608-1.956-.6-.664.008-1.256.164-1.776.468-.52.304-.856.8-1.008 1.488h-2.232c.072-1.24.564-2.18 1.476-2.82.92-.648 2.14-.972 3.66-.972 1.688 0 2.932.344 3.732 1.032.808.688 1.212 1.668 1.212 2.94V39h-2.172l-.204-2.28c-.464.952-1.052 1.612-1.764 1.98-.712.36-1.508.54-2.388.54zm.804-1.788c.52 0 1.028-.12 1.524-.36a3.749 3.749 0 001.224-.948c.328-.392.496-.804.504-1.236v-2.052l-1.68.036c-1.28.016-2.272.212-2.976.588-.696.368-1.044.988-1.044 1.86 0 .664.228 1.184.684 1.56.464.368 1.052.552 1.764.552zm12.165-15.804l-.672 12.684h-1.68l-.708-12.684h3.06zm-.06 14.292V39h-2.964v-3.06h2.964z" fill="#000"/><path d="M299.5 121l14.289 11.25h-28.578L299.5 121z" fill="#DEDEDE"/><rect x="294" y="79" width="118" height="55" rx="27.5" fill="#DEDEDE"/><path d="M333.843 109.152h-8.88V117h-2.568V99.648h2.568v7.272h8.88v-7.272h2.568V117h-2.568v-7.848zm8.228 2.244c-.008 1.112.268 2.04.828 2.784.56.744 1.392 1.116 2.496 1.116.736 0 1.372-.168 1.908-.504.544-.336.9-.836 1.068-1.5h2.376c-.152.856-.492 1.576-1.02 2.16a5.135 5.135 0 01-1.932 1.332 6.218 6.218 0 01-2.352.456c-1.176 0-2.212-.252-3.108-.756a5.366 5.366 0 01-2.1-2.184c-.496-.944-.744-2.068-.744-3.372 0-1.288.228-2.424.684-3.408.456-.992 1.112-1.768 1.968-2.328.864-.56 1.908-.84 3.132-.84 1.792 0 3.16.564 4.104 1.692.952 1.12 1.428 2.62 1.428 4.5v.852h-8.736zm0-1.668h6.288c0-.976-.256-1.8-.768-2.472-.504-.68-1.28-1.02-2.328-1.02-.712 0-1.304.172-1.776.516a3.248 3.248 0 00-1.068 1.32 4.13 4.13 0 00-.348 1.656zm14.963 7.44c-.984 0-1.716-.164-2.196-.492a2.307 2.307 0 01-.936-1.272 6.045 6.045 0 01-.228-1.68V99.168h2.532v14.292c0 1.152.464 1.764 1.392 1.836l.648.024v1.632c-.44.144-.844.216-1.212.216zm6.961 0c-.984 0-1.716-.164-2.196-.492a2.307 2.307 0 01-.936-1.272 6.045 6.045 0 01-.228-1.68V99.168h2.532v14.292c0 1.152.464 1.764 1.392 1.836l.648.024v1.632c-.44.144-.844.216-1.212.216zm8.805.072c-1.744 0-3.144-.552-4.2-1.656-1.048-1.112-1.572-2.688-1.572-4.728 0-1.304.224-2.44.672-3.408.456-.976 1.116-1.736 1.98-2.28.864-.544 1.908-.816 3.132-.816 1.744 0 3.136.568 4.176 1.704 1.04 1.136 1.56 2.736 1.56 4.8 0 1.256-.22 2.364-.66 3.324-.44.96-1.088 1.712-1.944 2.256-.856.536-1.904.804-3.144.804zm.012-1.98c1.056 0 1.852-.408 2.388-1.224.544-.824.816-1.908.816-3.252 0-.824-.108-1.572-.324-2.244-.216-.68-.56-1.22-1.032-1.62-.464-.4-1.08-.6-1.848-.6-1.072 0-1.884.404-2.436 1.212-.544.808-.816 1.892-.816 3.252 0 .808.108 1.552.324 2.232.216.68.56 1.224 1.032 1.632.48.408 1.112.612 1.896.612zm11.326-15.612l-.672 12.684h-1.68l-.708-12.684h3.06zm-.06 14.292V117h-2.964v-3.06h2.964z" fill="#000"/><rect x="344" y="159" width="118" height="55" rx="27.5" fill="#DEDEDE"/><path d="M358.567 194v-17.352h5.772c2.152 0 3.772.392 4.86 1.176 1.096.776 1.644 1.892 1.644 3.348 0 .912-.236 1.692-.708 2.34-.464.648-1.28 1.192-2.448 1.632.92.208 1.64.524 2.16.948.52.424.884.916 1.092 1.476.216.552.324 1.136.324 1.752 0 3.12-2.24 4.68-6.72 4.68h-5.976zm2.568-9.84h3.66c.568 0 1.124-.08 1.668-.24a2.97 2.97 0 001.344-.828c.36-.384.54-.912.54-1.584 0-.944-.356-1.644-1.068-2.1-.712-.456-1.636-.684-2.772-.684h-3.372v5.436zm0 7.752h3.42c1.336 0 2.352-.228 3.048-.684.704-.464 1.056-1.156 1.056-2.076 0-1-.376-1.728-1.128-2.184-.744-.456-1.656-.684-2.736-.684h-3.66v5.628zm18.305 2.328c-1.744 0-3.144-.552-4.2-1.656-1.048-1.112-1.572-2.688-1.572-4.728 0-1.304.224-2.44.672-3.408.456-.976 1.116-1.736 1.98-2.28.864-.544 1.908-.816 3.132-.816 1.744 0 3.136.568 4.176 1.704 1.04 1.136 1.56 2.736 1.56 4.8 0 1.256-.22 2.364-.66 3.324-.44.96-1.088 1.712-1.944 2.256-.856.536-1.904.804-3.144.804zm.012-1.98c1.056 0 1.852-.408 2.388-1.224.544-.824.816-1.908.816-3.252 0-.824-.108-1.572-.324-2.244-.216-.68-.56-1.22-1.032-1.62-.464-.4-1.08-.6-1.848-.6-1.072 0-1.884.404-2.436 1.212-.544.808-.816 1.892-.816 3.252 0 .808.108 1.552.324 2.232.216.68.56 1.224 1.032 1.632.48.408 1.112.612 1.896.612zm8.495 1.74v-12.408h2.508v1.788c.296-.496.756-.944 1.38-1.344.632-.4 1.44-.6 2.424-.6.776 0 1.492.156 2.148.468a3.597 3.597 0 011.596 1.44c.4.648.6 1.488.6 2.52V194h-2.568v-7.86c0-.888-.24-1.548-.72-1.98-.48-.432-1.092-.648-1.836-.648-.512 0-.996.084-1.452.252a2.513 2.513 0 00-1.092.768c-.28.336-.42.76-.42 1.272V194h-2.568zm16.933-17.34v2.532h-2.688v-2.532h2.688zm-.048 17.724c0 1.208-.272 2.108-.816 2.7-.544.6-1.48.9-2.808.9-.664 0-1.088-.052-1.272-.156l-.288-.144v-1.716l1.152-.072c.536-.048.912-.192 1.128-.432.224-.24.336-.624.336-1.152v-12.72h2.568v12.792zm8.569-.144c-1.744 0-3.144-.552-4.2-1.656-1.048-1.112-1.572-2.688-1.572-4.728 0-1.304.224-2.44.672-3.408.456-.976 1.116-1.736 1.98-2.28.864-.544 1.908-.816 3.132-.816 1.744 0 3.136.568 4.176 1.704 1.04 1.136 1.56 2.736 1.56 4.8 0 1.256-.22 2.364-.66 3.324-.44.96-1.088 1.712-1.944 2.256-.856.536-1.904.804-3.144.804zm.012-1.98c1.056 0 1.852-.408 2.388-1.224.544-.824.816-1.908.816-3.252 0-.824-.108-1.572-.324-2.244-.216-.68-.56-1.22-1.032-1.62-.464-.4-1.08-.6-1.848-.6-1.072 0-1.884.404-2.436 1.212-.544.808-.816 1.892-.816 3.252 0 .808.108 1.552.324 2.232.216.68.56 1.224 1.032 1.632.48.408 1.112.612 1.896.612zm12.867 1.98a5.938 5.938 0 01-2.328-.48 4.175 4.175 0 01-1.752-1.392c-.448-.624-.672-1.396-.672-2.316v-8.46h2.58v8.184c0 .744.232 1.348.696 1.812.464.464 1.164.696 2.1.696.848 0 1.528-.22 2.04-.66.512-.448.768-1.1.768-1.956v-8.076h2.556V194h-1.992l-.288-2.4c-.224.976-.688 1.664-1.392 2.064a4.588 4.588 0 01-2.316.576zm9.433-.24v-12.408h2.46v2.544c.304-.912.792-1.604 1.464-2.076a3.907 3.907 0 012.28-.708c.16 0 .316.012.468.036a1 1 0 01.372.096v2.472a1.275 1.275 0 00-.408-.096c-.16-.016-.3-.028-.42-.036-1.096-.08-1.98.108-2.652.564-.664.456-.996 1.172-.996 2.148V194h-2.568zm12.254-17.352l-.672 12.684h-1.68l-.708-12.684h3.06zm-.06 14.292V194h-2.964v-3.06h2.964z" fill="#000"/><path d="M353.5 202l14.289 11.25h-28.578L353.5 202z" fill="#DEDEDE"/><path d="M174.586 165.694v16.89h3.708c36.868 0 66.755 29.608 66.755 66.131v8.266H59.619v-8.266c0-36.523 29.887-66.131 66.755-66.131h3.709v-16.89c-15.982-7.521-27.47-22.892-29.386-41.083-5.401-.757-9.555-5.354-9.555-10.913v-12.859c0-5.461 4.01-9.995 9.272-10.87v-5.662c0-28.407 23.245-51.435 51.92-51.435s51.921 23.028 51.921 51.435v5.663c5.262.874 9.271 5.408 9.271 10.869v12.859c0 5.559-4.154 10.156-9.554 10.913-1.917 18.191-13.404 33.562-29.386 41.083z" fill="#D0C6AC"/><mask id="a" style="mask-type:alpha" maskUnits="userSpaceOnUse" x="59" y="32" width="187" height="225"><path fill-rule="evenodd" clip-rule="evenodd" d="M174.903 165.616v16.905h3.719c36.97 0 66.94 29.633 66.94 66.187v8.273H59.617v-8.273c0-36.554 29.97-66.187 66.94-66.187h3.719v-16.905c-16.026-7.527-27.545-22.911-29.467-41.118-5.416-.757-9.581-5.358-9.581-10.922v-12.869c0-5.466 4.02-10.004 9.297-10.88V84.16c0-28.431 23.31-51.479 52.065-51.479 28.754 0 52.064 23.048 52.064 51.479v5.668c5.276.875 9.297 5.413 9.297 10.879v12.869c0 5.564-4.165 10.165-9.581 10.922-1.922 18.207-13.441 33.591-29.467 41.118z" fill="#fff"/></mask><g mask="url(#a)"><path fill="#D08B5B" d="M29.866 32.681h245.446v224.3H29.866z"/></g><mask id="b" style="mask-type:alpha" maskUnits="userSpaceOnUse" x="59" y="32" width="187" height="226"><path fill-rule="evenodd" clip-rule="evenodd" d="M174.903 165.683v16.913h3.719c36.97 0 66.94 29.647 66.94 66.22v8.277H59.617v-8.277c0-36.573 29.97-66.22 66.94-66.22h3.719v-16.913c-16.026-7.531-27.545-22.923-29.467-41.139-5.416-.757-9.581-5.361-9.581-10.927v-12.876c0-5.47 4.02-10.009 9.297-10.885v-5.67c0-28.446 23.31-51.505 52.065-51.505 28.754 0 52.064 23.06 52.064 51.505v5.67c5.276.876 9.297 5.416 9.297 10.885v12.876c0 5.566-4.165 10.17-9.581 10.927-1.922 18.216-13.441 33.608-29.467 41.139z" fill="#fff"/></mask><g mask="url(#b)"><path d="M204.654 105.339v21.153c0 28.445-23.31 51.505-52.064 51.505-28.755 0-52.065-23.06-52.065-51.505v-21.153 13.796c0 28.445 23.31 51.504 52.065 51.504 28.754 0 52.064-23.059 52.064-51.504v-13.796z" fill="#000" fill-opacity=".1"/></g><path d="M184.163 182.03c34.377 2.814 61.398 31.575 61.398 66.641v8.31H59.617v-8.31c0-35.383 27.512-64.347 62.334-66.711-.028.347-.042.696-.042 1.048 0 11.017 13.944 19.948 31.145 19.948s31.146-8.931 31.146-19.948c0-.328-.013-.654-.037-.978z" fill="#E6E6E6"/><mask id="c" style="mask-type:alpha" maskUnits="userSpaceOnUse" x="59" y="181" width="187" height="76"><path fill-rule="evenodd" clip-rule="evenodd" d="M184.163 182.03c34.377 2.814 61.398 31.575 61.398 66.641v8.31H59.617v-8.31c0-35.383 27.512-64.347 62.334-66.711-.028.347-.042.696-.042 1.048 0 11.017 13.944 19.948 31.145 19.948s31.146-8.931 31.146-19.948c0-.328-.013-.654-.037-.978z" fill="#fff"/></mask><g mask="url(#c)"><path fill="#262E33" d="M29.866 154.824h245.446v102.157H29.866z"/></g><mask id="d" style="mask-type:alpha" maskUnits="userSpaceOnUse" x="59" y="181" width="187" height="76"><path fill-rule="evenodd" clip-rule="evenodd" d="M184.163 182.03c34.377 2.814 61.398 31.575 61.398 66.641v8.31H59.617v-8.31c0-35.383 27.512-64.347 62.334-66.711-.028.347-.042.696-.042 1.048 0 11.017 13.944 19.948 31.145 19.948s31.146-8.931 31.146-19.948c0-.328-.013-.654-.037-.978z" fill="#fff"/></mask><g mask="url(#d)"><ellipse cx="153.054" cy="184.401" rx="36.85" ry="24.995" fill="#000" fill-opacity=".16" opacity=".6"/></g><path fill-rule="evenodd" clip-rule="evenodd" d="M59.617 248.671c0-35.924 28.368-65.231 63.951-66.793-2.831 10.78-4.449 23.262-4.449 36.566 0 14.123 1.823 27.319 4.985 38.537H59.617v-8.31zm185.945 8.31h-63.558c3.162-11.218 4.985-24.414 4.985-38.537 0-13.284-1.613-25.749-4.436-36.518 35.14 2.033 63.009 31.139 63.009 66.745v8.31z" fill="#3A4C5A"/><path d="M198.146 234.695l8.884-6.655a3.724 3.724 0 014.515.039l6.125 4.759-19.524 1.857z" fill="#E6E6E6"/><path d="M123.768 180.837c-3.719 17.952-2.169 43.334 4.649 76.144h-14.876l-13.016-33.429 5.578-8.358-5.578-5.571 17.665-27.858c1.885-.585 3.744-.895 5.578-.928zm57.643 0c3.718 17.952 2.169 43.334-4.649 76.144h14.875l13.017-33.429-5.579-8.358 5.579-5.571-17.665-27.858c-1.885-.585-3.745-.895-5.578-.928z" fill="#2F4351"/><path d="M139.403 136.752c0 7.116 5.7 12.884 12.732 12.884 7.032 0 12.732-5.768 12.732-12.884" fill="#000" fill-opacity=".7"/><path d="M141.221 119.267c0 4.066 4.886 7.362 10.914 7.362 6.027 0 10.913-3.296 10.913-7.362" fill="#000" fill-opacity=".16"/><ellipse cx="128.489" cy="102.701" rx="5.457" ry="5.522" fill="#000" fill-opacity=".6"/><ellipse cx="175.78" cy="102.701" rx="5.457" ry="5.522" fill="#000" fill-opacity=".6"/><path d="M115.421 90.883c3.56-5.07 13.321-7.913 21.729-5.823a1.818 1.818 0 002.2-1.349 1.842 1.842 0 00-1.333-2.226c-9.764-2.427-21.067.865-25.561 7.266a1.855 1.855 0 00.429 2.566 1.805 1.805 0 002.536-.434zm73.428 0c-3.561-5.07-13.321-7.912-21.729-5.823a1.819 1.819 0 01-2.201-1.349 1.843 1.843 0 011.333-2.226c9.764-2.427 21.067.865 25.562 7.266.582.828.39 1.977-.429 2.566a1.805 1.805 0 01-2.536-.434z" fill="#000" fill-opacity=".6"/><mask id="e" style="mask-type:alpha" maskUnits="userSpaceOnUse" x="31" y="0" width="243" height="258"><path fill="#fff" d="M31.179 0H274v257.093H31.179z"/></mask><g mask="url(#e)"><path fill-rule="evenodd" clip-rule="evenodd" d="M86.365 77.17v81.255c-.176 28.936-6.8 75.748-19.315 83.059 57.356 15.423 66.16-35.025 63.465-75.292v-.357c-16.125-7.647-27.638-23.41-29.241-42.002-5.314-.794-9.39-5.37-9.39-10.896v-9.182c9.988-20.844 31.889-29.012 50.993-36.136 12.251-4.568 23.351-8.708 29.423-15.487 2.054 1.861 4.381 3.725 6.828 5.687 9.391 7.524 20.565 16.478 24.969 32.163v.153a11.038 11.038 0 019.028 8.93V79.002c0-1.187-.049-2.362-.145-3.524 4.177-15.615-2.845-34.697-11.642-43.342-8.721-8.096-20.513-11.31-28.47-7.784-10.674-16.105-41.521-12.195-59.829 1.357-12.164 9.008-22.806 23.626-25.614 42.026a42.305 42.305 0 00-1.06 9.435zm117.54 46.663c-1.603 18.591-13.116 34.355-29.241 42.002v16.884h3.679c34.863 0 63.434 26.893 66.032 61.031 8.144-10.371 10.024-24.927 3.62-37.432l-24.787-48.396a91.694 91.694 0 01-10.083-41.799v-1.251a11.037 11.037 0 01-9.22 8.961z" fill="#272C2E"/><mask id="f" style="mask-type:alpha" maskUnits="userSpaceOnUse" x="67" y="13" width="185" height="232"><path fill-rule="evenodd" clip-rule="evenodd" d="M86.365 158.425V77.17c0-3.243.367-6.401 1.06-9.434 2.808-18.4 13.45-33.019 25.614-42.027 18.308-13.552 49.155-17.462 59.829-1.357 7.957-3.527 19.749-.312 28.47 7.784 8.797 8.645 15.819 27.727 11.642 43.342.096 1.162.145 2.337.145 3.524v20.063a11.038 11.038 0 00-9.028-8.93v-.153c-5.552-19.774-21.864-28.85-31.797-37.85-15.539 17.35-64.023 17.411-80.416 51.623v9.182c0 5.526 4.076 10.102 9.39 10.896 1.603 18.592 13.116 34.355 29.241 42.002v.357c2.695 40.267-6.109 90.715-63.465 75.292 12.514-7.311 19.139-54.123 19.315-83.059zm88.299 7.41c16.125-7.647 27.638-23.411 29.241-42.002a11.037 11.037 0 009.22-8.961v1.251a91.694 91.694 0 0010.083 41.799l24.787 48.396c6.404 12.505 4.524 27.061-3.62 37.432-2.598-34.138-31.169-61.031-66.032-61.031h-3.679v-16.884z" fill="#fff"/></mask><g mask="url(#f)"><path fill="#4A312C" d="M67.05 13.775h242.821v257.093H67.05z"/></g><path fill-rule="evenodd" clip-rule="evenodd" d="M91.884 103.755c16.393-29.69 64.877-29.743 80.416-44.8 9.913 7.796 26.179 13.827 31.763 30.907-5.584-19.69-21.85-28.747-31.763-37.73-15.539 17.35-64.023 17.411-80.416 51.623z" fill="#000" fill-opacity=".16"/></g><ellipse cx="215.296" cy="106.772" rx="9.339" ry="16.677" fill="#5C5C5C"/><ellipse cx="89.883" cy="106.772" rx="9.339" ry="16.677" fill="#5C5C5C"/><path d="M89.883 91.429s1.524-36.472 16.01-52.033c24.319-26.123 66.362-25.443 91.392 0 15.079 15.33 18.011 52.033 18.011 52.033s18.151 46.835 0 64.041c-23.363 7.51-34.937 8.613-52.033 3.335" stroke="#5C5C5C" stroke-width="2"/><ellipse cx="158.593" cy="160.139" rx="10.006" ry="4.67" fill="#5C5C5C"/><path d="M65.152 235.765l-2.968 18.863-18.527 6.586-15.574-12.216 2.959-18.828 18.534-6.616 15.576 12.211z" fill="#E21C3D"/><path d="M86.151 266.161l-9.517 17.247-20.153.434-10.647-16.832 9.482-17.255 20.152-.429 10.683 16.835z" fill="#F3B8BE"/><path d="M55.099 258.074l.218 16.509-14.742 8.169-14.959-8.377-.218-16.509 14.734-8.134 14.967 8.342z" fill="#FFF0F3"/><path d="M55.93 262.277l-4.57-.419-1.839-4.107 2.732-3.688 4.57.419 1.839 4.107-2.732 3.688z" fill="#0071BB"/><path fill-rule="evenodd" clip-rule="evenodd" d="M278 317.995c26.509 0 48-21.038 48-46.997S304.509 224 278 224s-48 21.039-48 46.998c0 25.959 21.491 46.997 48 46.997zm-13.852-73.937c-3.727 2.367-6.5 5.751-8.32 10.152l10.581 2.507c.939-2.368 2.432-4.262 4.48-5.682 2.076-1.448 4.267-2.173 6.571-2.173 2.304 0 4.209.585 5.717 1.755 1.536 1.17 2.304 2.743 2.304 4.721 0 1.755-.484 3.342-1.451 4.763-.938 1.42-2.105 2.841-3.498 4.261a79.68 79.68 0 00-4.224 4.679c-1.394 1.671-2.575 3.635-3.542 5.891-.938 2.228-1.408 4.874-1.408 7.938h10.027c0-2.535.555-4.707 1.664-6.518a22.231 22.231 0 014.096-4.971 781.565 781.565 0 004.907-4.512 21.28 21.28 0 004.096-5.181c1.109-1.922 1.678-4.247 1.706-6.977 0-2.618-.853-4.999-2.56-7.144-1.678-2.144-4.039-3.857-7.082-5.138-3.044-1.282-6.6-1.922-10.667-1.922-5.205 0-9.671 1.184-13.397 3.551zm19.029 57.695v-13.035h-13.653v13.035h13.653z" fill="#205493"/></svg>