<svg width="500" height="460" viewBox="0 0 500 460" fill="none" xmlns="http://www.w3.org/2000/svg">
<path d="M111.217 362.43L121.633 346.426L141.234 347.986L150.457 365.5L140.063 381.475L120.443 379.94L111.217 362.43Z" fill="#E21C3D"/>
<path d="M104.471 326.107L120.205 314.254L138.776 322.093L141.616 341.806L125.911 353.681L107.343 345.838L104.471 326.107Z" fill="#F3B8BE"/>
<path d="M129.508 346.177L136.055 331.019L152.849 329.588L163.078 343.346L156.532 358.503L139.76 359.906L129.508 346.177Z" fill="#FFF0F3"/>
<path d="M130.467 342L134.467 344.25V348.75L130.467 351L126.467 348.75V344.25L130.467 342Z" fill="#0071BB"/>
<path d="M318.646 261L334 275.243L329.859 296.241L310.359 303L295 288.757L299.146 267.759L318.646 261Z" fill="#EA7B85"/>
<path d="M308.128 275.789L317.902 282.677L316.772 294.574L305.866 299.591L296.088 292.706L297.217 280.808L308.128 275.789Z" fill="#E21C3D"/>
<path d="M298.977 273.174L304.822 277.514L304.32 284.81L297.96 287.745L292.115 283.405L292.617 276.109L298.977 273.174Z" fill="#0071BB" fill-opacity="0.5"/>
<path d="M312.5 148L326.789 159.25H298.211L312.5 148Z" fill="#DEDEDE"/>
<rect x="307" y="106" width="118" height="55" rx="27.5" fill="#DEDEDE"/>
<path d="M338.528 132.652H335.564V129.592H338.528V132.652ZM338.588 145.864H335.528L336.236 134.284H337.904L338.588 145.864ZM353.847 134.152H344.967V142H342.399V124.648H344.967V131.92H353.847V124.648H356.415V142H353.847V134.152ZM365.171 142.24C363.427 142.24 362.027 141.688 360.971 140.584C359.923 139.472 359.399 137.896 359.399 135.856C359.399 134.552 359.623 133.416 360.071 132.448C360.527 131.472 361.187 130.712 362.051 130.168C362.915 129.624 363.959 129.352 365.183 129.352C366.927 129.352 368.319 129.92 369.359 131.056C370.399 132.192 370.919 133.792 370.919 135.856C370.919 137.112 370.699 138.22 370.259 139.18C369.819 140.14 369.171 140.892 368.315 141.436C367.459 141.972 366.411 142.24 365.171 142.24ZM365.183 140.26C366.239 140.26 367.035 139.852 367.571 139.036C368.115 138.212 368.387 137.128 368.387 135.784C368.387 134.96 368.279 134.212 368.063 133.54C367.847 132.86 367.503 132.32 367.031 131.92C366.567 131.52 365.951 131.32 365.183 131.32C364.111 131.32 363.299 131.724 362.747 132.532C362.203 133.34 361.931 134.424 361.931 135.784C361.931 136.592 362.039 137.336 362.255 138.016C362.471 138.696 362.815 139.24 363.287 139.648C363.767 140.056 364.399 140.26 365.183 140.26ZM377.038 142.168C376.054 142.168 375.322 142.004 374.842 141.676C374.37 141.348 374.058 140.924 373.906 140.404C373.754 139.876 373.678 139.316 373.678 138.724V124.168H376.21V138.46C376.21 139.612 376.674 140.224 377.602 140.296L378.25 140.32V141.952C377.81 142.096 377.406 142.168 377.038 142.168ZM384.353 142.24C383.153 142.24 382.165 141.92 381.389 141.28C380.621 140.64 380.237 139.744 380.237 138.592C380.237 137.216 380.721 136.188 381.689 135.508C382.665 134.828 384.225 134.468 386.369 134.428L388.409 134.368V133.468C388.409 132.756 388.197 132.196 387.773 131.788C387.349 131.38 386.697 131.18 385.817 131.188C385.153 131.196 384.561 131.352 384.041 131.656C383.521 131.96 383.185 132.456 383.033 133.144H380.801C380.873 131.904 381.365 130.964 382.277 130.324C383.197 129.676 384.417 129.352 385.937 129.352C387.625 129.352 388.869 129.696 389.669 130.384C390.477 131.072 390.881 132.052 390.881 133.324V142H388.709L388.505 139.72C388.041 140.672 387.453 141.332 386.741 141.7C386.029 142.06 385.233 142.24 384.353 142.24ZM385.157 140.452C385.677 140.452 386.185 140.332 386.681 140.092C387.177 139.844 387.585 139.528 387.905 139.144C388.233 138.752 388.401 138.34 388.409 137.908V135.856L386.729 135.892C385.449 135.908 384.457 136.104 383.753 136.48C383.057 136.848 382.709 137.468 382.709 138.34C382.709 139.004 382.937 139.524 383.393 139.9C383.857 140.268 384.445 140.452 385.157 140.452ZM397.322 124.648L396.65 137.332H394.97L394.262 124.648H397.322ZM397.262 138.94V142H394.298V138.94H397.262Z" fill="black"/>
<path d="M360.5 245L374.789 256.25H346.211L360.5 245Z" fill="#DEDEDE"/>
<rect x="355" y="203" width="118" height="55" rx="27.5" fill="#DEDEDE"/>
<path d="M394.843 233.152H385.963V241H383.395V223.648H385.963V230.92H394.843V223.648H397.411V241H394.843V233.152ZM403.071 235.396C403.063 236.508 403.339 237.436 403.899 238.18C404.459 238.924 405.291 239.296 406.395 239.296C407.131 239.296 407.767 239.128 408.303 238.792C408.847 238.456 409.203 237.956 409.371 237.292H411.747C411.595 238.148 411.255 238.868 410.727 239.452C410.199 240.036 409.555 240.48 408.795 240.784C408.043 241.088 407.259 241.24 406.443 241.24C405.267 241.24 404.231 240.988 403.335 240.484C402.439 239.972 401.739 239.244 401.235 238.3C400.739 237.356 400.491 236.232 400.491 234.928C400.491 233.64 400.719 232.504 401.175 231.52C401.631 230.528 402.287 229.752 403.143 229.192C404.007 228.632 405.051 228.352 406.275 228.352C408.067 228.352 409.435 228.916 410.379 230.044C411.331 231.164 411.807 232.664 411.807 234.544V235.396H403.071ZM403.071 233.728H409.359C409.359 232.752 409.103 231.928 408.591 231.256C408.087 230.576 407.311 230.236 406.263 230.236C405.551 230.236 404.959 230.408 404.487 230.752C404.015 231.096 403.659 231.536 403.419 232.072C403.187 232.608 403.071 233.16 403.071 233.728ZM418.034 241.168C417.05 241.168 416.318 241.004 415.838 240.676C415.366 240.348 415.054 239.924 414.902 239.404C414.75 238.876 414.674 238.316 414.674 237.724V223.168H417.206V237.46C417.206 238.612 417.67 239.224 418.598 239.296L419.246 239.32V240.952C418.806 241.096 418.402 241.168 418.034 241.168ZM424.995 241.168C424.011 241.168 423.279 241.004 422.799 240.676C422.327 240.348 422.015 239.924 421.863 239.404C421.711 238.876 421.635 238.316 421.635 237.724V223.168H424.167V237.46C424.167 238.612 424.631 239.224 425.559 239.296L426.207 239.32V240.952C425.767 241.096 425.363 241.168 424.995 241.168ZM433.8 241.24C432.056 241.24 430.656 240.688 429.6 239.584C428.552 238.472 428.028 236.896 428.028 234.856C428.028 233.552 428.252 232.416 428.7 231.448C429.156 230.472 429.816 229.712 430.68 229.168C431.544 228.624 432.588 228.352 433.812 228.352C435.556 228.352 436.948 228.92 437.988 230.056C439.028 231.192 439.548 232.792 439.548 234.856C439.548 236.112 439.328 237.22 438.888 238.18C438.448 239.14 437.8 239.892 436.944 240.436C436.088 240.972 435.04 241.24 433.8 241.24ZM433.812 239.26C434.868 239.26 435.664 238.852 436.2 238.036C436.744 237.212 437.016 236.128 437.016 234.784C437.016 233.96 436.908 233.212 436.692 232.54C436.476 231.86 436.132 231.32 435.66 230.92C435.196 230.52 434.58 230.32 433.812 230.32C432.74 230.32 431.928 230.724 431.376 231.532C430.832 232.34 430.56 233.424 430.56 234.784C430.56 235.592 430.668 236.336 430.884 237.016C431.1 237.696 431.444 238.24 431.916 238.648C432.396 239.056 433.028 239.26 433.812 239.26ZM445.138 223.648L444.466 236.332H442.786L442.078 223.648H445.138ZM445.078 237.94V241H442.114V237.94H445.078Z" fill="black"/>
<path d="M138.5 206L152.789 217.25H124.211L138.5 206Z" fill="#DEDEDE"/>
<rect x="28" y="163" width="118" height="55" rx="27.5" fill="#DEDEDE"/>
<path d="M42.5671 198V180.648H48.3391C50.4911 180.648 52.1111 181.04 53.1991 181.824C54.2951 182.6 54.8431 183.716 54.8431 185.172C54.8431 186.084 54.6071 186.864 54.1351 187.512C53.6711 188.16 52.8551 188.704 51.6871 189.144C52.6071 189.352 53.3271 189.668 53.8471 190.092C54.3671 190.516 54.7311 191.008 54.9391 191.568C55.1551 192.12 55.2631 192.704 55.2631 193.32C55.2631 196.44 53.0231 198 48.5431 198H42.5671ZM45.1351 188.16H48.7951C49.3631 188.16 49.9191 188.08 50.4631 187.92C51.0071 187.752 51.4551 187.476 51.8071 187.092C52.1671 186.708 52.3471 186.18 52.3471 185.508C52.3471 184.564 51.9911 183.864 51.2791 183.408C50.5671 182.952 49.6431 182.724 48.5071 182.724H45.1351V188.16ZM45.1351 195.912H48.5551C49.8911 195.912 50.9071 195.684 51.6031 195.228C52.3071 194.764 52.6591 194.072 52.6591 193.152C52.6591 192.152 52.2831 191.424 51.5311 190.968C50.7871 190.512 49.8751 190.284 48.7951 190.284H45.1351V195.912ZM63.4402 198.24C61.6962 198.24 60.2962 197.688 59.2402 196.584C58.1922 195.472 57.6682 193.896 57.6682 191.856C57.6682 190.552 57.8922 189.416 58.3402 188.448C58.7962 187.472 59.4562 186.712 60.3202 186.168C61.1842 185.624 62.2282 185.352 63.4522 185.352C65.1962 185.352 66.5882 185.92 67.6282 187.056C68.6682 188.192 69.1882 189.792 69.1882 191.856C69.1882 193.112 68.9682 194.22 68.5282 195.18C68.0882 196.14 67.4402 196.892 66.5842 197.436C65.7282 197.972 64.6802 198.24 63.4402 198.24ZM63.4522 196.26C64.5082 196.26 65.3042 195.852 65.8402 195.036C66.3842 194.212 66.6562 193.128 66.6562 191.784C66.6562 190.96 66.5482 190.212 66.3322 189.54C66.1162 188.86 65.7722 188.32 65.3002 187.92C64.8362 187.52 64.2202 187.32 63.4522 187.32C62.3802 187.32 61.5682 187.724 61.0162 188.532C60.4722 189.34 60.2002 190.424 60.2002 191.784C60.2002 192.592 60.3082 193.336 60.5242 194.016C60.7402 194.696 61.0842 195.24 61.5562 195.648C62.0362 196.056 62.6682 196.26 63.4522 196.26ZM71.947 198V185.592H74.455V187.38C74.751 186.884 75.211 186.436 75.835 186.036C76.467 185.636 77.275 185.436 78.259 185.436C79.035 185.436 79.751 185.592 80.407 185.904C81.071 186.208 81.603 186.688 82.003 187.344C82.403 187.992 82.603 188.832 82.603 189.864V198H80.035V190.14C80.035 189.252 79.795 188.592 79.315 188.16C78.835 187.728 78.223 187.512 77.479 187.512C76.967 187.512 76.483 187.596 76.027 187.764C75.579 187.932 75.215 188.188 74.935 188.532C74.655 188.868 74.515 189.292 74.515 189.804V198H71.947ZM88.8803 180.66V183.192H86.1923V180.66H88.8803ZM88.8323 198.384C88.8323 199.592 88.5603 200.492 88.0163 201.084C87.4723 201.684 86.5363 201.984 85.2083 201.984C84.5443 201.984 84.1203 201.932 83.9363 201.828C83.7443 201.732 83.6483 201.684 83.6483 201.684V199.968L84.8003 199.896C85.3363 199.848 85.7123 199.704 85.9283 199.464C86.1523 199.224 86.2643 198.84 86.2643 198.312V185.592H88.8323V198.384ZM97.4011 198.24C95.6571 198.24 94.2571 197.688 93.2011 196.584C92.1531 195.472 91.6291 193.896 91.6291 191.856C91.6291 190.552 91.8531 189.416 92.3011 188.448C92.7571 187.472 93.4171 186.712 94.2811 186.168C95.1451 185.624 96.1891 185.352 97.4131 185.352C99.1571 185.352 100.549 185.92 101.589 187.056C102.629 188.192 103.149 189.792 103.149 191.856C103.149 193.112 102.929 194.22 102.489 195.18C102.049 196.14 101.401 196.892 100.545 197.436C99.6891 197.972 98.6411 198.24 97.4011 198.24ZM97.4131 196.26C98.4691 196.26 99.2651 195.852 99.8011 195.036C100.345 194.212 100.617 193.128 100.617 191.784C100.617 190.96 100.509 190.212 100.293 189.54C100.077 188.86 99.7331 188.32 99.2611 187.92C98.7971 187.52 98.1811 187.32 97.4131 187.32C96.3411 187.32 95.5291 187.724 94.9771 188.532C94.4331 189.34 94.1611 190.424 94.1611 191.784C94.1611 192.592 94.2691 193.336 94.4851 194.016C94.7011 194.696 95.0451 195.24 95.5171 195.648C95.9971 196.056 96.6291 196.26 97.4131 196.26ZM110.28 198.24C109.448 198.232 108.672 198.072 107.952 197.76C107.232 197.448 106.648 196.984 106.2 196.368C105.752 195.744 105.528 194.972 105.528 194.052V185.592H108.108V193.776C108.108 194.52 108.34 195.124 108.804 195.588C109.268 196.052 109.968 196.284 110.904 196.284C111.752 196.284 112.432 196.064 112.944 195.624C113.456 195.176 113.712 194.524 113.712 193.668V185.592H116.268V198H114.276L113.988 195.6C113.764 196.576 113.3 197.264 112.596 197.664C111.892 198.056 111.12 198.248 110.28 198.24ZM119.713 198V185.592H122.173V188.136C122.477 187.224 122.965 186.532 123.637 186.06C124.317 185.588 125.077 185.352 125.917 185.352C126.077 185.352 126.233 185.364 126.385 185.388C126.545 185.404 126.669 185.436 126.757 185.484V187.956C126.653 187.908 126.517 187.876 126.349 187.86C126.189 187.844 126.049 187.832 125.929 187.824C124.833 187.744 123.949 187.932 123.277 188.388C122.613 188.844 122.281 189.56 122.281 190.536V198H119.713ZM131.967 180.648L131.295 193.332H129.615L128.907 180.648H131.967ZM131.907 194.94V198H128.943V194.94H131.907Z" fill="black"/>
<path d="M243.338 269.746V284.613H246.608C279.105 284.613 305.45 310.674 305.45 342.822V350.098H141.999V342.822C141.999 310.674 168.343 284.613 200.841 284.613H204.11V269.746C190.023 263.126 179.897 249.596 178.207 233.583C173.447 232.917 169.785 228.871 169.785 223.978V212.659C169.785 207.852 173.32 203.861 177.958 203.092V198.107C177.958 173.102 198.448 152.833 223.724 152.833C249 152.833 269.491 173.102 269.491 198.107V203.092C274.129 203.861 277.663 207.852 277.663 212.659V223.978C277.663 228.871 274.002 232.917 269.241 233.583C267.552 249.596 257.426 263.126 243.338 269.746Z" fill="#D0C6AC"/>
<mask id="mask0_8_5805" style="mask-type:alpha" maskUnits="userSpaceOnUse" x="141" y="152" width="165" height="199">
<path fill-rule="evenodd" clip-rule="evenodd" d="M243.338 269.746V284.613H246.608C279.105 284.613 305.45 310.674 305.45 342.822V350.098H141.999V342.822C141.999 310.674 168.343 284.613 200.841 284.613H204.11V269.746C190.023 263.126 179.897 249.596 178.207 233.583C173.447 232.917 169.785 228.871 169.785 223.978V212.659C169.785 207.852 173.32 203.861 177.958 203.092V198.107C177.958 173.102 198.448 152.833 223.724 152.833C249 152.833 269.491 173.102 269.491 198.107V203.092C274.129 203.861 277.663 207.852 277.663 212.659V223.978C277.663 228.871 274.002 232.917 269.241 233.583C267.552 249.596 257.426 263.126 243.338 269.746Z" fill="white"/>
</mask>
<g mask="url(#mask0_8_5805)">
<rect x="115.846" y="152.833" width="215.756" height="197.266" fill="#D08B5B"/>
</g>
<mask id="mask1_8_5805" style="mask-type:alpha" maskUnits="userSpaceOnUse" x="141" y="152" width="165" height="199">
<path fill-rule="evenodd" clip-rule="evenodd" d="M243.338 269.746V284.613H246.608C279.105 284.613 305.45 310.674 305.45 342.822V350.098H141.999V342.822C141.999 310.674 168.343 284.613 200.841 284.613H204.11V269.746C190.023 263.126 179.897 249.596 178.207 233.583C173.447 232.917 169.785 228.871 169.785 223.978V212.659C169.785 207.852 173.32 203.861 177.958 203.092V198.107C177.958 173.102 198.448 152.833 223.724 152.833C249 152.833 269.491 173.102 269.491 198.107V203.092C274.129 203.861 277.663 207.852 277.663 212.659V223.978C277.663 228.871 274.002 232.917 269.241 233.583C267.552 249.596 257.426 263.126 243.338 269.746Z" fill="white"/>
</mask>
<g mask="url(#mask1_8_5805)">
<path d="M269.491 216.701V235.296C269.491 260.3 249 280.57 223.724 280.57C198.448 280.57 177.958 260.3 177.958 235.296V216.701V228.828C177.958 253.832 198.448 274.102 223.724 274.102C249 274.102 269.491 253.832 269.491 228.828V216.701Z" fill="black" fill-opacity="0.1"/>
</g>
<path d="M251.479 284.115C281.698 286.569 305.45 311.644 305.45 342.215V349.46H141.999V342.215C141.999 311.367 166.183 286.115 196.792 284.054C196.767 284.357 196.755 284.661 196.755 284.968C196.755 294.573 209.012 302.36 224.133 302.36C239.253 302.36 251.511 294.573 251.511 284.968C251.511 284.682 251.5 284.398 251.479 284.115Z" fill="#E6E6E6"/>
<mask id="mask2_8_5805" style="mask-type:alpha" maskUnits="userSpaceOnUse" x="141" y="284" width="165" height="66">
<path fill-rule="evenodd" clip-rule="evenodd" d="M251.479 284.115C281.698 286.569 305.45 311.644 305.45 342.215V349.46H141.999V342.215C141.999 311.367 166.183 286.115 196.792 284.054C196.767 284.357 196.755 284.661 196.755 284.968C196.755 294.573 209.012 302.36 224.133 302.36C239.253 302.36 251.511 294.573 251.511 284.968C251.511 284.682 251.5 284.398 251.479 284.115Z" fill="white"/>
</mask>
<g mask="url(#mask2_8_5805)">
<rect x="115.846" y="260.396" width="215.756" height="89.0647" fill="#262E33"/>
</g>
<mask id="mask3_8_5805" style="mask-type:alpha" maskUnits="userSpaceOnUse" x="141" y="284" width="165" height="66">
<path fill-rule="evenodd" clip-rule="evenodd" d="M251.479 284.115C281.698 286.569 305.45 311.644 305.45 342.215V349.46H141.999V342.215C141.999 311.367 166.183 286.115 196.792 284.054C196.767 284.357 196.755 284.661 196.755 284.968C196.755 294.573 209.012 302.36 224.133 302.36C239.253 302.36 251.511 294.573 251.511 284.968C251.511 284.682 251.5 284.398 251.479 284.115Z" fill="white"/>
</mask>
<g mask="url(#mask3_8_5805)">
<g opacity="0.6">
<ellipse cx="224.133" cy="286.182" rx="32.3921" ry="21.7916" fill="black" fill-opacity="0.16"/>
</g>
</g>
<path fill-rule="evenodd" clip-rule="evenodd" d="M141.999 342.214C141.999 310.89 166.935 285.336 198.213 283.975C195.725 293.374 194.303 304.258 194.303 315.858C194.303 328.172 195.905 339.679 198.685 349.46H141.999V342.214ZM305.45 349.46H249.581C252.36 339.679 253.963 328.172 253.963 315.858C253.963 304.275 252.545 293.407 250.063 284.017C280.953 285.789 305.45 311.168 305.45 342.215V349.46Z" fill="#3A4C5A"/>
<path d="M263.77 330.028L271.58 324.225C272.759 323.349 274.384 323.363 275.548 324.259L280.932 328.408L263.77 330.028Z" fill="#E6E6E6"/>
<path d="M198.389 283.066C195.12 298.72 196.482 320.851 202.475 349.46H189.399L177.958 320.312L182.861 313.025L177.958 308.166L193.486 283.876C195.143 283.365 196.777 283.095 198.389 283.066Z" fill="#2F4351"/>
<path d="M249.059 283.066C252.328 298.72 250.966 320.851 244.973 349.46H258.049L269.491 320.312L264.587 313.025L269.491 308.166L253.963 283.876C252.306 283.365 250.671 283.095 249.059 283.066Z" fill="#2F4351"/>
<path d="M212.133 244.315C212.133 250.57 217.143 255.641 223.325 255.641C229.506 255.641 234.517 250.57 234.517 244.315" fill="black" fill-opacity="0.7"/>
<path d="M213.731 228.944C213.731 232.519 218.026 235.416 223.325 235.416C228.623 235.416 232.918 232.519 232.918 228.944" fill="black" fill-opacity="0.16"/>
<ellipse cx="202.539" cy="214.383" rx="4.7966" ry="4.85389" fill="black" fill-opacity="0.6"/>
<ellipse cx="244.11" cy="214.383" rx="4.7966" ry="4.85389" fill="black" fill-opacity="0.6"/>
<path d="M191.052 203.994C194.181 199.538 202.762 197.039 210.152 198.875C211.01 199.088 211.876 198.558 212.086 197.69C212.297 196.822 211.773 195.946 210.915 195.733C202.332 193.6 192.396 196.494 188.445 202.12C187.934 202.848 188.102 203.858 188.822 204.376C189.542 204.893 190.54 204.722 191.052 203.994Z" fill="black" fill-opacity="0.6"/>
<path d="M255.598 203.994C252.468 199.538 243.888 197.039 236.497 198.875C235.64 199.088 234.774 198.558 234.563 197.69C234.352 196.822 234.877 195.946 235.734 195.733C244.318 193.6 254.253 196.494 258.204 202.12C258.716 202.848 258.547 203.858 257.827 204.376C257.107 204.893 256.109 204.722 255.598 203.994Z" fill="black" fill-opacity="0.6"/>
<mask id="mask4_8_5805" style="mask-type:alpha" maskUnits="userSpaceOnUse" x="117" y="124" width="214" height="227">
<rect x="117" y="124.104" width="213.448" height="225.994" fill="white"/>
</mask>
<g mask="url(#mask4_8_5805)">
<path fill-rule="evenodd" clip-rule="evenodd" d="M165.511 191.94V263.366C165.356 288.802 159.533 329.951 148.532 336.377C198.95 349.935 206.689 305.59 204.32 270.193V269.879C190.146 263.158 180.025 249.301 178.616 232.959C173.945 232.261 170.362 228.238 170.362 223.38V215.309C179.142 196.986 198.393 189.807 215.186 183.544C225.955 179.529 235.714 175.89 241.051 169.93C242.856 171.567 244.901 173.205 247.053 174.93C255.308 181.544 265.13 189.415 269.001 203.202V203.336C273.035 204.012 276.225 207.172 276.937 211.187V193.55C276.937 192.507 276.894 191.474 276.809 190.453C280.482 176.727 274.309 159.953 266.576 152.354C258.91 145.237 248.544 142.411 241.55 145.511C232.167 131.354 205.051 134.791 188.958 146.704C178.266 154.622 168.911 167.472 166.442 183.647C165.833 186.313 165.511 189.089 165.511 191.94ZM268.833 232.958C267.423 249.301 257.303 263.158 243.129 269.879V284.721H246.363C277.008 284.721 302.123 308.361 304.407 338.37C311.566 329.253 313.219 316.457 307.589 305.465L285.801 262.924C279.975 251.549 276.937 238.956 276.937 226.181V225.082C276.215 229.152 272.946 232.344 268.833 232.958Z" fill="#272C2E"/>
<mask id="mask5_8_5805" style="mask-type:alpha" maskUnits="userSpaceOnUse" x="148" y="136" width="163" height="203">
<path fill-rule="evenodd" clip-rule="evenodd" d="M165.511 263.366V191.94C165.511 189.089 165.833 186.313 166.442 183.647C168.911 167.472 178.266 154.622 188.958 146.704C205.051 134.791 232.167 131.354 241.55 145.511C248.544 142.411 258.91 145.237 266.576 152.354C274.309 159.953 280.482 176.727 276.809 190.453C276.894 191.474 276.937 192.507 276.937 193.55V211.187C276.225 207.172 273.035 204.012 269.001 203.336V203.202C264.121 185.82 249.782 177.843 241.051 169.93C227.391 185.182 184.772 185.236 170.362 215.309V223.38C170.362 228.238 173.945 232.261 178.616 232.959C180.025 249.301 190.146 263.158 204.32 269.879V270.193C206.689 305.59 198.95 349.935 148.532 336.377C159.533 329.951 165.356 288.802 165.511 263.366ZM243.129 269.879C257.303 263.158 267.423 249.301 268.833 232.958C272.946 232.344 276.215 229.152 276.937 225.082V226.181C276.937 238.956 279.975 251.549 285.801 262.924L307.589 305.465C313.219 316.457 311.566 329.253 304.407 338.37C302.123 308.361 277.008 284.721 246.363 284.721H243.129V269.879Z" fill="white"/>
</mask>
<g mask="url(#mask5_8_5805)">
<rect x="148.532" y="136.213" width="213.448" height="225.994" fill="#4A312C"/>
</g>
<path fill-rule="evenodd" clip-rule="evenodd" d="M170.362 215.309C184.772 189.211 227.391 189.164 241.051 175.929C249.765 182.781 264.063 188.082 268.971 203.097C264.063 185.788 249.765 177.827 241.051 169.931C227.391 185.182 184.772 185.236 170.362 215.309Z" fill="black" fill-opacity="0.16"/>
</g>
<ellipse cx="278.846" cy="217.961" rx="8.20956" ry="14.6599" fill="#5C5C5C"/>
<ellipse cx="168.603" cy="217.961" rx="8.20956" ry="14.6599" fill="#5C5C5C"/>
<path d="M168.603 204.474C168.603 204.474 169.943 172.414 182.677 158.735C204.054 135.772 241.011 136.369 263.013 158.735C276.269 172.21 278.846 204.474 278.846 204.474C278.846 204.474 294.801 245.644 278.846 260.768C258.309 267.37 248.135 268.339 233.107 263.7" stroke="#5C5C5C" stroke-width="2"/>
<ellipse cx="229.002" cy="264.872" rx="8.79595" ry="4.10478" fill="#5C5C5C"/>
<path fill-rule="evenodd" clip-rule="evenodd" d="M334 404.995C360.509 404.995 382 383.957 382 357.998C382 332.039 360.509 311 334 311C307.491 311 286 332.039 286 357.998C286 383.957 307.491 404.995 334 404.995ZM320.148 331.058C316.421 333.425 313.648 336.809 311.828 341.21L322.409 343.717C323.348 341.349 324.841 339.455 326.889 338.035C328.965 336.587 331.156 335.862 333.46 335.862C335.764 335.862 337.669 336.447 339.177 337.617C340.713 338.787 341.481 340.36 341.481 342.338C341.481 344.093 340.997 345.68 340.03 347.101C339.092 348.521 337.925 349.942 336.532 351.362C335.138 352.782 333.73 354.342 332.308 356.041C330.914 357.712 329.733 359.676 328.766 361.932C327.828 364.16 327.358 366.806 327.358 369.87H337.385C337.385 367.335 337.94 365.163 339.049 363.352C340.158 361.514 341.524 359.857 343.145 358.381C344.795 356.877 346.43 355.373 348.052 353.869C349.701 352.337 351.067 350.61 352.148 348.688C353.257 346.766 353.826 344.441 353.854 341.711C353.854 339.093 353.001 336.712 351.294 334.567C349.616 332.423 347.255 330.71 344.212 329.429C341.168 328.147 337.612 327.507 333.545 327.507C328.34 327.507 323.874 328.691 320.148 331.058ZM339.177 388.753V375.718H325.524V388.753H339.177Z" fill="#205493"/>
</svg>
