<svg width="462" height="318" viewBox="0 0 462 318" fill="none" xmlns="http://www.w3.org/2000/svg">
<path d="M257.5 45L271.789 56.25H243.211L257.5 45Z" fill="#DEDEDE"/>
<rect x="252" y="3" width="118" height="55" rx="27.5" fill="#DEDEDE"/>
<path d="M283.528 29.652H280.564V26.592H283.528V29.652ZM283.588 42.864H280.528L281.236 31.284H282.904L283.588 42.864ZM298.847 31.152H289.967V39H287.399V21.648H289.967V28.92H298.847V21.648H301.415V39H298.847V31.152ZM310.171 39.24C308.427 39.24 307.027 38.688 305.971 37.584C304.923 36.472 304.399 34.896 304.399 32.856C304.399 31.552 304.623 30.416 305.071 29.448C305.527 28.472 306.187 27.712 307.051 27.168C307.915 26.624 308.959 26.352 310.183 26.352C311.927 26.352 313.319 26.92 314.359 28.056C315.399 29.192 315.919 30.792 315.919 32.856C315.919 34.112 315.699 35.22 315.259 36.18C314.819 37.14 314.171 37.892 313.315 38.436C312.459 38.972 311.411 39.24 310.171 39.24ZM310.183 37.26C311.239 37.26 312.035 36.852 312.571 36.036C313.115 35.212 313.387 34.128 313.387 32.784C313.387 31.96 313.279 31.212 313.063 30.54C312.847 29.86 312.503 29.32 312.031 28.92C311.567 28.52 310.951 28.32 310.183 28.32C309.111 28.32 308.299 28.724 307.747 29.532C307.203 30.34 306.931 31.424 306.931 32.784C306.931 33.592 307.039 34.336 307.255 35.016C307.471 35.696 307.815 36.24 308.287 36.648C308.767 37.056 309.399 37.26 310.183 37.26ZM322.038 39.168C321.054 39.168 320.322 39.004 319.842 38.676C319.37 38.348 319.058 37.924 318.906 37.404C318.754 36.876 318.678 36.316 318.678 35.724V21.168H321.21V35.46C321.21 36.612 321.674 37.224 322.602 37.296L323.25 37.32V38.952C322.81 39.096 322.406 39.168 322.038 39.168ZM329.353 39.24C328.153 39.24 327.165 38.92 326.389 38.28C325.621 37.64 325.237 36.744 325.237 35.592C325.237 34.216 325.721 33.188 326.689 32.508C327.665 31.828 329.225 31.468 331.369 31.428L333.409 31.368V30.468C333.409 29.756 333.197 29.196 332.773 28.788C332.349 28.38 331.697 28.18 330.817 28.188C330.153 28.196 329.561 28.352 329.041 28.656C328.521 28.96 328.185 29.456 328.033 30.144H325.801C325.873 28.904 326.365 27.964 327.277 27.324C328.197 26.676 329.417 26.352 330.937 26.352C332.625 26.352 333.869 26.696 334.669 27.384C335.477 28.072 335.881 29.052 335.881 30.324V39H333.709L333.505 36.72C333.041 37.672 332.453 38.332 331.741 38.7C331.029 39.06 330.233 39.24 329.353 39.24ZM330.157 37.452C330.677 37.452 331.185 37.332 331.681 37.092C332.177 36.844 332.585 36.528 332.905 36.144C333.233 35.752 333.401 35.34 333.409 34.908V32.856L331.729 32.892C330.449 32.908 329.457 33.104 328.753 33.48C328.057 33.848 327.709 34.468 327.709 35.34C327.709 36.004 327.937 36.524 328.393 36.9C328.857 37.268 329.445 37.452 330.157 37.452ZM342.322 21.648L341.65 34.332H339.97L339.262 21.648H342.322ZM342.262 35.94V39H339.298V35.94H342.262Z" fill="black"/>
<path d="M299.5 121L313.789 132.25H285.211L299.5 121Z" fill="#DEDEDE"/>
<rect x="294" y="79" width="118" height="55" rx="27.5" fill="#DEDEDE"/>
<path d="M333.843 109.152H324.963V117H322.395V99.648H324.963V106.92H333.843V99.648H336.411V117H333.843V109.152ZM342.071 111.396C342.063 112.508 342.339 113.436 342.899 114.18C343.459 114.924 344.291 115.296 345.395 115.296C346.131 115.296 346.767 115.128 347.303 114.792C347.847 114.456 348.203 113.956 348.371 113.292H350.747C350.595 114.148 350.255 114.868 349.727 115.452C349.199 116.036 348.555 116.48 347.795 116.784C347.043 117.088 346.259 117.24 345.443 117.24C344.267 117.24 343.231 116.988 342.335 116.484C341.439 115.972 340.739 115.244 340.235 114.3C339.739 113.356 339.491 112.232 339.491 110.928C339.491 109.64 339.719 108.504 340.175 107.52C340.631 106.528 341.287 105.752 342.143 105.192C343.007 104.632 344.051 104.352 345.275 104.352C347.067 104.352 348.435 104.916 349.379 106.044C350.331 107.164 350.807 108.664 350.807 110.544V111.396H342.071ZM342.071 109.728H348.359C348.359 108.752 348.103 107.928 347.591 107.256C347.087 106.576 346.311 106.236 345.263 106.236C344.551 106.236 343.959 106.408 343.487 106.752C343.015 107.096 342.659 107.536 342.419 108.072C342.187 108.608 342.071 109.16 342.071 109.728ZM357.034 117.168C356.05 117.168 355.318 117.004 354.838 116.676C354.366 116.348 354.054 115.924 353.902 115.404C353.75 114.876 353.674 114.316 353.674 113.724V99.168H356.206V113.46C356.206 114.612 356.67 115.224 357.598 115.296L358.246 115.32V116.952C357.806 117.096 357.402 117.168 357.034 117.168ZM363.995 117.168C363.011 117.168 362.279 117.004 361.799 116.676C361.327 116.348 361.015 115.924 360.863 115.404C360.711 114.876 360.635 114.316 360.635 113.724V99.168H363.167V113.46C363.167 114.612 363.631 115.224 364.559 115.296L365.207 115.32V116.952C364.767 117.096 364.363 117.168 363.995 117.168ZM372.8 117.24C371.056 117.24 369.656 116.688 368.6 115.584C367.552 114.472 367.028 112.896 367.028 110.856C367.028 109.552 367.252 108.416 367.7 107.448C368.156 106.472 368.816 105.712 369.68 105.168C370.544 104.624 371.588 104.352 372.812 104.352C374.556 104.352 375.948 104.92 376.988 106.056C378.028 107.192 378.548 108.792 378.548 110.856C378.548 112.112 378.328 113.22 377.888 114.18C377.448 115.14 376.8 115.892 375.944 116.436C375.088 116.972 374.04 117.24 372.8 117.24ZM372.812 115.26C373.868 115.26 374.664 114.852 375.2 114.036C375.744 113.212 376.016 112.128 376.016 110.784C376.016 109.96 375.908 109.212 375.692 108.54C375.476 107.86 375.132 107.32 374.66 106.92C374.196 106.52 373.58 106.32 372.812 106.32C371.74 106.32 370.928 106.724 370.376 107.532C369.832 108.34 369.56 109.424 369.56 110.784C369.56 111.592 369.668 112.336 369.884 113.016C370.1 113.696 370.444 114.24 370.916 114.648C371.396 115.056 372.028 115.26 372.812 115.26ZM384.138 99.648L383.466 112.332H381.786L381.078 99.648H384.138ZM384.078 113.94V117H381.114V113.94H384.078Z" fill="black"/>
<rect x="344" y="159" width="118" height="55" rx="27.5" fill="#DEDEDE"/>
<path d="M358.567 194V176.648H364.339C366.491 176.648 368.111 177.04 369.199 177.824C370.295 178.6 370.843 179.716 370.843 181.172C370.843 182.084 370.607 182.864 370.135 183.512C369.671 184.16 368.855 184.704 367.687 185.144C368.607 185.352 369.327 185.668 369.847 186.092C370.367 186.516 370.731 187.008 370.939 187.568C371.155 188.12 371.263 188.704 371.263 189.32C371.263 192.44 369.023 194 364.543 194H358.567ZM361.135 184.16H364.795C365.363 184.16 365.919 184.08 366.463 183.92C367.007 183.752 367.455 183.476 367.807 183.092C368.167 182.708 368.347 182.18 368.347 181.508C368.347 180.564 367.991 179.864 367.279 179.408C366.567 178.952 365.643 178.724 364.507 178.724H361.135V184.16ZM361.135 191.912H364.555C365.891 191.912 366.907 191.684 367.603 191.228C368.307 190.764 368.659 190.072 368.659 189.152C368.659 188.152 368.283 187.424 367.531 186.968C366.787 186.512 365.875 186.284 364.795 186.284H361.135V191.912ZM379.44 194.24C377.696 194.24 376.296 193.688 375.24 192.584C374.192 191.472 373.668 189.896 373.668 187.856C373.668 186.552 373.892 185.416 374.34 184.448C374.796 183.472 375.456 182.712 376.32 182.168C377.184 181.624 378.228 181.352 379.452 181.352C381.196 181.352 382.588 181.92 383.628 183.056C384.668 184.192 385.188 185.792 385.188 187.856C385.188 189.112 384.968 190.22 384.528 191.18C384.088 192.14 383.44 192.892 382.584 193.436C381.728 193.972 380.68 194.24 379.44 194.24ZM379.452 192.26C380.508 192.26 381.304 191.852 381.84 191.036C382.384 190.212 382.656 189.128 382.656 187.784C382.656 186.96 382.548 186.212 382.332 185.54C382.116 184.86 381.772 184.32 381.3 183.92C380.836 183.52 380.22 183.32 379.452 183.32C378.38 183.32 377.568 183.724 377.016 184.532C376.472 185.34 376.2 186.424 376.2 187.784C376.2 188.592 376.308 189.336 376.524 190.016C376.74 190.696 377.084 191.24 377.556 191.648C378.036 192.056 378.668 192.26 379.452 192.26ZM387.947 194V181.592H390.455V183.38C390.751 182.884 391.211 182.436 391.835 182.036C392.467 181.636 393.275 181.436 394.259 181.436C395.035 181.436 395.751 181.592 396.407 181.904C397.071 182.208 397.603 182.688 398.003 183.344C398.403 183.992 398.603 184.832 398.603 185.864V194H396.035V186.14C396.035 185.252 395.795 184.592 395.315 184.16C394.835 183.728 394.223 183.512 393.479 183.512C392.967 183.512 392.483 183.596 392.027 183.764C391.579 183.932 391.215 184.188 390.935 184.532C390.655 184.868 390.515 185.292 390.515 185.804V194H387.947ZM404.88 176.66V179.192H402.192V176.66H404.88ZM404.832 194.384C404.832 195.592 404.56 196.492 404.016 197.084C403.472 197.684 402.536 197.984 401.208 197.984C400.544 197.984 400.12 197.932 399.936 197.828C399.744 197.732 399.648 197.684 399.648 197.684V195.968L400.8 195.896C401.336 195.848 401.712 195.704 401.928 195.464C402.152 195.224 402.264 194.84 402.264 194.312V181.592H404.832V194.384ZM413.401 194.24C411.657 194.24 410.257 193.688 409.201 192.584C408.153 191.472 407.629 189.896 407.629 187.856C407.629 186.552 407.853 185.416 408.301 184.448C408.757 183.472 409.417 182.712 410.281 182.168C411.145 181.624 412.189 181.352 413.413 181.352C415.157 181.352 416.549 181.92 417.589 183.056C418.629 184.192 419.149 185.792 419.149 187.856C419.149 189.112 418.929 190.22 418.489 191.18C418.049 192.14 417.401 192.892 416.545 193.436C415.689 193.972 414.641 194.24 413.401 194.24ZM413.413 192.26C414.469 192.26 415.265 191.852 415.801 191.036C416.345 190.212 416.617 189.128 416.617 187.784C416.617 186.96 416.509 186.212 416.293 185.54C416.077 184.86 415.733 184.32 415.261 183.92C414.797 183.52 414.181 183.32 413.413 183.32C412.341 183.32 411.529 183.724 410.977 184.532C410.433 185.34 410.161 186.424 410.161 187.784C410.161 188.592 410.269 189.336 410.485 190.016C410.701 190.696 411.045 191.24 411.517 191.648C411.997 192.056 412.629 192.26 413.413 192.26ZM426.28 194.24C425.448 194.232 424.672 194.072 423.952 193.76C423.232 193.448 422.648 192.984 422.2 192.368C421.752 191.744 421.528 190.972 421.528 190.052V181.592H424.108V189.776C424.108 190.52 424.34 191.124 424.804 191.588C425.268 192.052 425.968 192.284 426.904 192.284C427.752 192.284 428.432 192.064 428.944 191.624C429.456 191.176 429.712 190.524 429.712 189.668V181.592H432.268V194H430.276L429.988 191.6C429.764 192.576 429.3 193.264 428.596 193.664C427.892 194.056 427.12 194.248 426.28 194.24ZM435.713 194V181.592H438.173V184.136C438.477 183.224 438.965 182.532 439.637 182.06C440.317 181.588 441.077 181.352 441.917 181.352C442.077 181.352 442.233 181.364 442.385 181.388C442.545 181.404 442.669 181.436 442.757 181.484V183.956C442.653 183.908 442.517 183.876 442.349 183.86C442.189 183.844 442.049 183.832 441.929 183.824C440.833 183.744 439.949 183.932 439.277 184.388C438.613 184.844 438.281 185.56 438.281 186.536V194H435.713ZM447.967 176.648L447.295 189.332H445.615L444.907 176.648H447.967ZM447.907 190.94V194H444.943V190.94H447.907Z" fill="black"/>
<path d="M353.5 202L367.789 213.25H339.211L353.5 202Z" fill="#DEDEDE"/>
<path d="M174.586 165.694V182.584H178.294C215.162 182.584 245.049 212.192 245.049 248.715V256.981H59.6189V248.715C59.6189 212.192 89.5061 182.584 126.374 182.584H130.083V165.694C114.101 158.173 102.613 142.802 100.697 124.611C95.296 123.854 91.1421 119.257 91.1421 113.698V100.839C91.1421 95.378 95.1516 90.8444 100.414 89.9699V84.3066C100.414 55.8999 123.659 32.8717 152.334 32.8717C181.009 32.8717 204.255 55.8999 204.255 84.3066V89.9699C209.517 90.8444 213.526 95.378 213.526 100.839V113.698C213.526 119.257 209.372 123.854 203.972 124.611C202.055 142.802 190.568 158.173 174.586 165.694Z" fill="#D0C6AC"/>
<mask id="mask0_9_1287" style="mask-type:alpha" maskUnits="userSpaceOnUse" x="59" y="32" width="187" height="225">
<path fill-rule="evenodd" clip-rule="evenodd" d="M174.903 165.616V182.521H178.622C215.592 182.521 245.562 212.154 245.562 248.708V256.981H59.6174V248.708C59.6174 212.154 89.5875 182.521 126.557 182.521H130.276V165.616C114.25 158.089 102.731 142.705 100.809 124.498C95.3934 123.741 91.228 119.14 91.228 113.576V100.707C91.228 95.2406 95.2486 90.7032 100.525 89.8279V84.1598C100.525 55.729 123.835 32.6812 152.59 32.6812C181.344 32.6812 204.654 55.729 204.654 84.1598V89.8279C209.93 90.7032 213.951 95.2406 213.951 100.707V113.576C213.951 119.14 209.786 123.741 204.37 124.498C202.448 142.705 190.929 158.089 174.903 165.616Z" fill="white"/>
</mask>
<g mask="url(#mask0_9_1287)">
<rect x="29.8662" y="32.6811" width="245.446" height="224.3" fill="#D08B5B"/>
</g>
<mask id="mask1_9_1287" style="mask-type:alpha" maskUnits="userSpaceOnUse" x="59" y="32" width="187" height="226">
<path fill-rule="evenodd" clip-rule="evenodd" d="M174.903 165.683V182.596H178.622C215.592 182.596 245.562 212.243 245.562 248.816V257.093H59.6174V248.816C59.6174 212.243 89.5875 182.596 126.557 182.596H130.276V165.683C114.25 158.152 102.731 142.76 100.809 124.544C95.3934 123.787 91.228 119.183 91.228 113.617V100.741C91.228 95.2719 95.2486 90.7322 100.525 89.8565V84.1855C100.525 55.7405 123.835 32.6812 152.59 32.6812C181.344 32.6812 204.654 55.7405 204.654 84.1855V89.8565C209.93 90.7322 213.951 95.2719 213.951 100.741V113.617C213.951 119.183 209.786 123.787 204.37 124.544C202.448 142.76 190.929 158.152 174.903 165.683Z" fill="white"/>
</mask>
<g mask="url(#mask1_9_1287)">
<path d="M204.654 105.339V126.492C204.654 154.937 181.344 177.997 152.59 177.997C123.835 177.997 100.525 154.937 100.525 126.492V105.339V119.135C100.525 147.58 123.835 170.639 152.59 170.639C181.344 170.639 204.654 147.58 204.654 119.135V105.339Z" fill="black" fill-opacity="0.1"/>
</g>
<path d="M184.163 182.03C218.54 184.844 245.561 213.605 245.561 248.671V256.981H59.6172V248.671C59.6172 213.288 87.1295 184.324 121.951 181.96C121.923 182.307 121.909 182.656 121.909 183.008C121.909 194.025 135.853 202.956 153.054 202.956C170.255 202.956 184.2 194.025 184.2 183.008C184.2 182.68 184.187 182.354 184.163 182.03Z" fill="#E6E6E6"/>
<mask id="mask2_9_1287" style="mask-type:alpha" maskUnits="userSpaceOnUse" x="59" y="181" width="187" height="76">
<path fill-rule="evenodd" clip-rule="evenodd" d="M184.163 182.03C218.54 184.844 245.561 213.605 245.561 248.671V256.981H59.6172V248.671C59.6172 213.288 87.1295 184.324 121.951 181.96C121.923 182.307 121.909 182.656 121.909 183.008C121.909 194.025 135.853 202.956 153.054 202.956C170.255 202.956 184.2 194.025 184.2 183.008C184.2 182.68 184.187 182.354 184.163 182.03Z" fill="white"/>
</mask>
<g mask="url(#mask2_9_1287)">
<rect x="29.8662" y="154.824" width="245.446" height="102.157" fill="#262E33"/>
</g>
<mask id="mask3_9_1287" style="mask-type:alpha" maskUnits="userSpaceOnUse" x="59" y="181" width="187" height="76">
<path fill-rule="evenodd" clip-rule="evenodd" d="M184.163 182.03C218.54 184.844 245.561 213.605 245.561 248.671V256.981H59.6172V248.671C59.6172 213.288 87.1295 184.324 121.951 181.96C121.923 182.307 121.909 182.656 121.909 183.008C121.909 194.025 135.853 202.956 153.054 202.956C170.255 202.956 184.2 194.025 184.2 183.008C184.2 182.68 184.187 182.354 184.163 182.03Z" fill="white"/>
</mask>
<g mask="url(#mask3_9_1287)">
<g opacity="0.6">
<ellipse cx="153.054" cy="184.401" rx="36.8496" ry="24.9949" fill="black" fill-opacity="0.16"/>
</g>
</g>
<path fill-rule="evenodd" clip-rule="evenodd" d="M59.6172 248.671C59.6172 212.747 87.9851 183.44 123.568 181.878C120.737 192.658 119.119 205.14 119.119 218.444C119.119 232.567 120.942 245.763 124.104 256.981H59.6172V248.671ZM245.562 256.981H182.004C185.166 245.763 186.989 232.567 186.989 218.444C186.989 205.16 185.376 192.695 182.553 181.926C217.693 183.959 245.562 213.065 245.562 248.671V256.981Z" fill="#3A4C5A"/>
<path d="M198.146 234.695L207.03 228.04C208.372 227.035 210.221 227.051 211.545 228.079L217.67 232.838L198.146 234.695Z" fill="#E6E6E6"/>
<path d="M123.768 180.837C120.049 198.789 121.599 224.171 128.417 256.981H113.541L100.525 223.552L106.103 215.194L100.525 209.623L118.19 181.765C120.075 181.18 121.934 180.87 123.768 180.837Z" fill="#2F4351"/>
<path d="M181.411 180.837C185.129 198.789 183.58 224.171 176.762 256.981H191.637L204.654 223.552L199.075 215.194L204.654 209.623L186.989 181.765C185.104 181.18 183.244 180.87 181.411 180.837Z" fill="#2F4351"/>
<path d="M139.403 136.752C139.403 143.868 145.103 149.636 152.135 149.636C159.167 149.636 164.867 143.868 164.867 136.752" fill="black" fill-opacity="0.7"/>
<path d="M141.221 119.267C141.221 123.333 146.107 126.629 152.135 126.629C158.162 126.629 163.048 123.333 163.048 119.267" fill="black" fill-opacity="0.16"/>
<ellipse cx="128.489" cy="102.701" rx="5.45666" ry="5.52184" fill="black" fill-opacity="0.6"/>
<ellipse cx="175.78" cy="102.701" rx="5.45666" ry="5.52184" fill="black" fill-opacity="0.6"/>
<path d="M115.421 90.883C118.981 85.8133 128.742 82.9704 137.15 85.0599C138.125 85.3023 139.111 84.6985 139.35 83.7113C139.59 82.7241 138.993 81.7273 138.017 81.4848C128.253 79.0584 116.95 82.3503 112.456 88.7505C111.874 89.5791 112.066 90.7282 112.885 91.3171C113.703 91.906 114.839 91.7116 115.421 90.883Z" fill="black" fill-opacity="0.6"/>
<path d="M188.849 90.883C185.288 85.8133 175.528 82.9705 167.12 85.0599C166.144 85.3023 165.159 84.6986 164.919 83.7114C164.68 82.7241 165.277 81.7273 166.252 81.4849C176.016 79.0584 187.319 82.3503 191.814 88.7505C192.396 89.5792 192.204 90.7282 191.385 91.3171C190.566 91.906 189.431 91.7116 188.849 90.883Z" fill="black" fill-opacity="0.6"/>
<mask id="mask4_9_1287" style="mask-type:alpha" maskUnits="userSpaceOnUse" x="31" y="0" width="243" height="258">
<rect x="31.1787" width="242.821" height="257.093" fill="white"/>
</mask>
<g mask="url(#mask4_9_1287)">
<path fill-rule="evenodd" clip-rule="evenodd" d="M86.3654 77.1701V158.425C86.1889 187.361 79.5643 234.173 67.05 241.484C124.406 256.907 133.21 206.459 130.515 166.192V165.835C114.39 158.188 102.877 142.425 101.274 123.833C95.9595 123.039 91.884 118.463 91.884 112.937V103.755C101.872 82.9106 123.773 74.7434 142.877 67.6193C155.128 63.0507 166.228 58.911 172.3 52.1319C174.354 53.993 176.681 55.8574 179.128 57.8188C188.519 65.3434 199.693 74.2971 204.097 89.9823V90.1346C208.686 90.9032 212.314 94.4982 213.125 99.0652V79.0016C213.125 77.8154 213.076 76.6403 212.98 75.4781C217.157 59.8633 210.135 40.7811 201.338 32.1363C192.617 24.0398 180.825 20.8252 172.868 24.352C162.194 8.24662 131.347 12.1569 113.039 25.709C100.875 34.7173 90.2331 49.3353 87.4249 67.7355C86.7316 70.769 86.3654 73.9269 86.3654 77.1701ZM203.905 123.833C202.302 142.424 190.789 158.188 174.664 165.835V182.719H178.343C213.206 182.719 241.777 209.612 244.375 243.75C252.519 233.379 254.399 218.823 247.995 206.318L223.208 157.922C216.581 144.982 213.125 130.657 213.125 116.123V114.872C212.303 119.503 208.584 123.134 203.905 123.833Z" fill="#272C2E"/>
<mask id="mask5_9_1287" style="mask-type:alpha" maskUnits="userSpaceOnUse" x="67" y="13" width="185" height="232">
<path fill-rule="evenodd" clip-rule="evenodd" d="M86.3654 158.425V77.1701C86.3654 73.9269 86.7316 70.769 87.4249 67.7355C90.2331 49.3353 100.875 34.7173 113.039 25.709C131.347 12.1569 162.194 8.24662 172.868 24.352C180.825 20.8252 192.617 24.0398 201.338 32.1363C210.135 40.7811 217.157 59.8633 212.98 75.4781C213.076 76.6403 213.125 77.8154 213.125 79.0016V99.0652C212.314 94.4982 208.686 90.9032 204.097 90.1346V89.9823C198.545 70.2084 182.233 61.1328 172.3 52.1319C156.761 69.4821 108.277 69.5432 91.884 103.755V112.937C91.884 118.463 95.9595 123.039 101.274 123.833C102.877 142.425 114.39 158.188 130.515 165.835V166.192C133.21 206.459 124.406 256.907 67.05 241.484C79.5643 234.173 86.1889 187.361 86.3654 158.425ZM174.664 165.835C190.789 158.188 202.302 142.424 203.905 123.833C208.584 123.134 212.303 119.503 213.125 114.872V116.123C213.125 130.657 216.581 144.982 223.208 157.922L247.995 206.318C254.399 218.823 252.519 233.379 244.375 243.75C241.777 209.612 213.206 182.719 178.343 182.719H174.664V165.835Z" fill="white"/>
</mask>
<g mask="url(#mask5_9_1287)">
<rect x="67.05" y="13.7746" width="242.821" height="257.093" fill="#4A312C"/>
</g>
<path fill-rule="evenodd" clip-rule="evenodd" d="M91.8843 103.755C108.277 74.0653 156.761 74.0123 172.3 58.9553C182.213 66.7507 198.479 72.7816 204.063 89.8619C198.479 70.1716 182.213 61.1146 172.3 52.132C156.761 69.4823 108.277 69.5434 91.8843 103.755Z" fill="black" fill-opacity="0.16"/>
</g>
<ellipse cx="215.296" cy="106.772" rx="9.33928" ry="16.6773" fill="#5C5C5C"/>
<ellipse cx="89.8827" cy="106.772" rx="9.33928" ry="16.6773" fill="#5C5C5C"/>
<path d="M89.8828 91.429C89.8828 91.429 91.4066 54.957 105.893 39.3959C130.212 13.2729 172.255 13.9526 197.285 39.3959C212.364 54.7253 215.296 91.429 215.296 91.429C215.296 91.429 233.447 138.264 215.296 155.47C191.933 162.98 180.359 164.083 163.263 158.805" stroke="#5C5C5C" stroke-width="2"/>
<ellipse cx="158.593" cy="160.139" rx="10.0064" ry="4.66964" fill="#5C5C5C"/>
<path d="M65.1516 235.765L62.1843 254.628L43.6571 261.214L28.0827 248.998L31.0416 230.17L49.576 223.554L65.1516 235.765Z" fill="#E21C3D"/>
<path d="M86.1514 266.161L76.634 283.408L56.4812 283.842L45.8341 267.01L55.316 249.755L75.4676 249.326L86.1514 266.161Z" fill="#F3B8BE"/>
<path d="M55.0988 258.074L55.3174 274.583L40.5746 282.752L25.6165 274.375L25.3978 257.866L40.1321 249.732L55.0988 258.074Z" fill="#FFF0F3"/>
<path d="M55.9302 262.277L51.36 261.858L49.5212 257.751L52.2526 254.063L56.8229 254.482L58.6617 258.589L55.9302 262.277Z" fill="#0071BB"/>
<path fill-rule="evenodd" clip-rule="evenodd" d="M278 317.995C304.509 317.995 326 296.957 326 270.998C326 245.039 304.509 224 278 224C251.491 224 230 245.039 230 270.998C230 296.957 251.491 317.995 278 317.995ZM264.148 244.058C260.421 246.425 257.648 249.809 255.828 254.21L266.409 256.717C267.348 254.349 268.841 252.455 270.889 251.035C272.965 249.587 275.156 248.862 277.46 248.862C279.764 248.862 281.669 249.447 283.177 250.617C284.713 251.787 285.481 253.36 285.481 255.338C285.481 257.093 284.997 258.68 284.03 260.101C283.092 261.521 281.925 262.942 280.532 264.362C279.138 265.782 277.73 267.342 276.308 269.041C274.914 270.712 273.733 272.676 272.766 274.932C271.828 277.16 271.358 279.806 271.358 282.87H281.385C281.385 280.335 281.94 278.163 283.049 276.352C284.158 274.514 285.524 272.857 287.145 271.381C288.795 269.877 290.43 268.373 292.052 266.869C293.701 265.337 295.067 263.61 296.148 261.688C297.257 259.766 297.826 257.441 297.854 254.711C297.854 252.093 297.001 249.712 295.294 247.567C293.616 245.423 291.255 243.71 288.212 242.429C285.168 241.147 281.612 240.507 277.545 240.507C272.34 240.507 267.874 241.691 264.148 244.058ZM283.177 301.753V288.718H269.524V301.753H283.177Z" fill="#205493"/>
</svg>
