<svg xmlns="http://www.w3.org/2000/svg" width="8" height="7" fill="none"><path fill="#0071bb" fill-rule="evenodd" d="M4.403.625q.063 0 .103.04.04.039.04.102v.284a.14.14 0 0 1-.04.102.14.14 0 0 1-.103.04H1.278a.68.68 0 0 0-.501.209.68.68 0 0 0-.209.501v3.693q0 .294.209.502a.68.68 0 0 0 .501.209h3.694q.293 0 .501-.209a.68.68 0 0 0 .209-.502v-1.42q0-.062.04-.102a.14.14 0 0 1 .102-.04h.284a.136.136 0 0 1 .142.142v1.42q0 .53-.375.904c-.375.374-.551.375-.903.375H1.278A1.23 1.23 0 0 1 .375 6.5 1.23 1.23 0 0 1 0 5.597V1.903Q0 1.375.375 1C.75.625.926.625 1.278.625zM7.711 0q.117 0 .203.086A.28.28 0 0 1 8 .289v2.313a.28.28 0 0 1-.086.203.28.28 0 0 1-.203.086.28.28 0 0 1-.203-.086l-.795-.795-2.945 2.945a.143.143 0 0 1-.208 0l-.515-.515a.143.143 0 0 1 0-.208L5.99 1.287 5.195.492A.28.28 0 0 1 5.109.29q0-.117.086-.203A.28.28 0 0 1 5.398 0z" clip-rule="evenodd"/></svg>