<svg width="8" height="7" viewBox="0 0 8 7" fill="none" xmlns="http://www.w3.org/2000/svg">
<path fill-rule="evenodd" clip-rule="evenodd" d="M4.40325 0.625C4.44488 0.625 4.47887 0.63825 4.5055 0.665C4.532 0.6915 4.54537 0.725625 4.54537 0.767V1.05113C4.54537 1.09263 4.532 1.12662 4.50537 1.15325C4.47887 1.17975 4.44488 1.19325 4.40325 1.19325H1.27838C1.08312 1.19325 0.915875 1.26262 0.77675 1.40175C0.637625 1.54087 0.568125 1.708 0.568125 1.90338V5.5965C0.568125 5.79187 0.637625 5.959 0.77675 6.09812C0.915875 6.23725 1.083 6.30662 1.27838 6.30662H4.97162C5.16687 6.30662 5.33413 6.23725 5.47325 6.09812C5.61225 5.959 5.68175 5.79187 5.68175 5.5965V4.17625C5.68175 4.13475 5.695 4.10075 5.72175 4.07412C5.74825 4.0475 5.78225 4.03412 5.82375 4.03412H6.10787C6.14925 4.03412 6.18337 4.0475 6.21 4.07412C6.23675 4.10075 6.25 4.13475 6.25 4.17637V5.59675C6.25 5.94887 6.125 6.25 5.87488 6.5C5.62488 6.75 5.32362 6.87512 4.97162 6.87512H1.27838C0.92625 6.875 0.625125 6.75 0.375 6.49988C0.125 6.24988 0 5.94862 0 5.59662V1.90338C0 1.55125 0.125 1.25013 0.375 1.00013C0.625125 0.75 0.92625 0.625 1.27838 0.625H4.40325ZM7.71075 0C7.78912 0 7.857 0.028625 7.91412 0.08575C7.97125 0.143 8 0.21075 8 0.289V2.60162C8 2.67987 7.97137 2.74762 7.91412 2.80487C7.857 2.86212 7.78912 2.89075 7.71088 2.89075C7.63263 2.89075 7.56488 2.862 7.50763 2.80487L6.71263 2.00988L3.76787 4.95487C3.73787 4.98488 3.70312 4.99988 3.664 4.99988C3.62488 4.99988 3.59025 4.98488 3.56013 4.95487L3.04513 4.43988C3.03092 4.42656 3.01958 4.41047 3.01182 4.3926C3.00406 4.37474 3.00004 4.35548 3 4.336C3 4.29688 3.015 4.26225 3.04513 4.23225L5.99 1.28725L5.195 0.49225C5.13788 0.435125 5.10925 0.36725 5.10925 0.289C5.10925 0.21075 5.13788 0.143 5.19513 0.08575C5.25225 0.028625 5.32013 0 5.39825 0L7.71075 0Z" fill="#0071BB"/>
</svg>
