<svg width="8" height="7" viewBox="0 0 8 7" fill="none" xmlns="http://www.w3.org/2000/svg"><path fill-rule="evenodd" clip-rule="evenodd" d="M4.403.625c.042 0 .076.013.103.04.026.026.04.06.04.102v.284a.138.138 0 01-.04.102.138.138 0 01-.103.04H1.278a.684.684 0 00-.501.209.684.684 0 00-.209.501v3.693c0 .196.07.363.209.502.139.14.306.209.501.209h3.694c.195 0 .362-.07.501-.209a.684.684 0 00.209-.502v-1.42c0-.041.013-.075.04-.102a.138.138 0 01.102-.04h.284c.041 0 .075.014.102.04.027.027.04.06.04.102v1.42c0 .353-.125.654-.375.904s-.551.375-.903.375H1.278c-.352 0-.653-.125-.903-.375A1.231 1.231 0 010 5.597V1.903C0 1.551.125 1.25.375 1s.551-.375.903-.375h3.125zM7.711 0c.078 0 .146.029.203.086A.278.278 0 018 .289v2.313a.278.278 0 01-.086.203.278.278 0 01-.203.086.278.278 0 01-.203-.086l-.795-.795-2.945 2.945a.143.143 0 01-.208 0l-.515-.515a.143.143 0 010-.208L5.99 1.287 5.195.492A.278.278 0 015.109.29c0-.078.029-.146.086-.203A.278.278 0 015.398 0h2.313z" fill="#0071BB"/></svg>