<svg id="Layer_1" data-name="Layer 1" xmlns="http://www.w3.org/2000/svg" viewBox="0 0 1400 700"><defs><mask id="mask" x="50.87" y="215.2" width="217.49" height="243.31" maskUnits="userSpaceOnUse"><path class="cls-14" d="M60.76 353.72c0 57.37 44.26 103.88 98.86 103.88s98.86-46.52 98.86-103.88h9.89V215.2H50.87v138.5h9.89v.02Z" id="c"/></mask><mask id="mask-1" x="77.22" y="366.64" width="164.75" height="90.96" maskUnits="userSpaceOnUse"><path class="cls-14" d="M187.57 387.72c30.47 2.62 54.4 29.44 54.4 62.12v7.75H77.22v-7.75c0-32.98 24.37-59.99 55.22-62.18-.02.32-.04.64-.04.97 0 10.27 12.36 18.59 27.59 18.59s27.59-8.32 27.59-18.59c.02-.3.02-.6-.02-.91Z" id="d"/></mask><mask id="mask-2" x="51.95" y="215.6" width="215.49" height="241.35" maskUnits="userSpaceOnUse"><path class="cls-27" d="M267.44 215.6H51.95v241.35h215.49V215.6Z" id="e"/></mask><mask id="mask-3" x="546.91" y="113.78" width="77.96" height="82.39" maskUnits="userSpaceOnUse"><path class="cls-14" d="M590.73 134.05c.02.38.04.79.04 1.18v11.19c0 6.37-3.67 12.17-9.43 14.9v2.56c5.35.43 10.52 1.18 13.55 1.97 2.94-3.99 6.74-7.7 6.76-15.02.02-5.59-8.15-28.13-11.77-32.66-2.39-2.99-8.45-3.99-15.6-4.12-7.15-.13-12.98 1.63-15.31 4.42-3.14 3.76-12.09 26.79-12.07 32.36.02 7.29 3.85 11.01 6.76 15.01 3.03-.79 8.2-1.51 13.55-1.97v-2.56a16.489 16.489 0 0 1-9.43-14.9v-11.19c0-.38.02-.79.04-1.18h8.31l1.14-6.32.82 6.32h22.62Z" id="i"/></mask><mask id="mask-4" x="527.8" y="580.42" width="123.66" height="68.27" maskUnits="userSpaceOnUse"><path class="cls-14" d="M610.63 596.25c22.87 1.96 40.83 22.1 40.83 46.63v5.82H527.8v-5.82c0-24.76 18.29-45.02 41.45-46.67-.01.24-.03.48-.03.73 0 7.71 9.28 13.95 20.71 13.95s20.71-6.24 20.71-13.95c.01-.23.01-.45-.01-.68Z" id="d-2" data-name="d"/></mask><mask id="mask-5" x="508.76" y="467.32" width="161.74" height="181.15" maskUnits="userSpaceOnUse"><path class="cls-27" d="M670.5 467.32H508.76v181.15H670.5V467.32Z" id="e-2" data-name="e"/></mask><mask id="mask-6" x="590.64" y="593.63" width="18.94" height="19.48" maskUnits="userSpaceOnUse"><path class="cls-14" d="m602.23 599.93-.06.21-.68 2a3.124 3.124 0 0 1-2.6 2.09l-.16.46c.93.4 1.81.85 2.3 1.18.77-.53 1.68-.96 2.13-2.27.35-1 .27-5.52-.1-6.56-.24-.68-1.27-1.23-2.54-1.69-1.27-.46-2.42-.5-3-.15-.79.48-3.8 4.05-4.14 5.04-.44 1.3.01 2.2.29 3.1.59.04 1.56.23 2.54.48l.16-.46c-.86-.84-1.16-2.1-.77-3.24l.68-2c.02-.07.05-.14.08-.21l1.49.51.59-1.06-.24 1.18 4.04 1.38Z" id="i-2" data-name="i"/></mask><clipPath id="clippath"><path class="cls-1" d="M160.58 168.95c-62.24 0-112.69 119.08-112.69 181.32s50.45 112.69 112.69 112.69 112.69-50.45 112.69-112.69-50.45-181.32-112.69-181.32Z"/></clipPath><clipPath id="clippath-1"><path class="cls-1" d="M43.61 168.95h242.48v298.29H43.61z"/></clipPath><clipPath id="clippath-2"><circle class="cls-1" cx="631.92" cy="550.95" r="127.13"/></clipPath><style>.cls-1,.cls-3,.cls-6{fill:none}.cls-3{stroke-width:7px}.cls-10,.cls-11{fill:rgba(1,1,1,.6)}.cls-11,.cls-14,.cls-15,.cls-16,.cls-18,.cls-19,.cls-20,.cls-21,.cls-23,.cls-24,.cls-25{fill-rule:evenodd}.cls-26{fill:#ecf3fa}.cls-14,.cls-27{fill:#fff}.cls-15,.cls-29{fill:rgba(1,1,1,.16)}.cls-30{fill:#adadad}.cls-29,.cls-30{isolation:isolate;opacity:.6}.cls-31{fill:#d1d3d4}.cls-16{fill:#ebf3fa}.cls-32{fill:#009664}.cls-3{stroke:#112e51}.cls-3,.cls-6{stroke-miterlimit:10}.cls-33{fill:#0071bb}.cls-18{fill:#f0f0f0}.cls-21,.cls-41{fill:#dedede}.cls-44{fill:#fed3ad}.cls-19{fill:#e6e7e8}.cls-47{fill:#fedbb5}.cls-48{fill:#808285}.cls-20{fill:#5c5c5c}.cls-49{fill:#cdd7ee}.cls-23,.cls-50{fill:#e2623a}.cls-6{stroke:#0071bb;stroke-width:3px}.cls-24{fill:#e6e6e5}.cls-25{fill:#939598}</style></defs><circle cx="160.58" cy="350.27" r="112.53" style="fill:#ecf3fa;stroke-width:7px;stroke:#112e50"/><path class="cls-1" d="M43.61 168.95h242.48v298.29H43.61z"/><g style="clip-path:url(#clippath)"><g style="mask:url(#mask)"><path class="cls-47" d="M179.37 371.56v15.91h3.3c32.75 0 41.71 22.47 48.59 26.64l-143.68.54c7.51-7.31 16.19-27.16 48.94-27.16h3.3v-15.91c-14.2-7.09-24.41-21.57-26.12-38.72-4.79-.71-8.49-5.06-8.49-10.29v-12.12c0-5.15 3.56-9.42 8.24-10.25v-5.34c0-26.78 20.66-48.47 46.12-48.47s46.12 21.71 46.12 48.47v5.34c4.68.82 8.24 5.1 8.24 10.25v12.12c0 5.24-3.7 9.57-8.49 10.29-1.67 17.11-11.88 31.61-26.08 38.7Z"/><path class="cls-15" d="M139.21 370.97c.5.61-2.68 5.64.63 7.81s15.21 2.64 20.96 2.64c4.31 0 15.62-1.17 18.57-2.64 4.94-2.48.57-7.05 1.21-7.81-5.06 1.35-13.13 2.8-21.29 2.72-7.59-.04-15.23-1.41-20.08-2.72Z"/><path class="cls-21" d="M159.19 458.51 87.6 414.63c6.23-11.44 14.01-24.77 44.86-26.98-.02.32-.04.64-.04.97 0 10.27 12.36 18.58 27.59 18.58s27.59-8.32 27.59-18.59c0-.3-.02-.6-.04-.91 30.47 2.62 38.71 20.06 43.69 26.38l-65.8 40.41"/><path class="cls-30" d="M160.02 413.24c18.03 0 32.65-10.43 32.65-23.3s-14.62-23.3-32.65-23.3-32.65 10.43-32.65 23.3 14.62 23.3 32.65 23.3Z" style="mask:url(#mask-1)"/></g><path class="cls-10" d="M146.78 345.46c0 4.63 5.02 7.75 11.42 7.75s11.42-3.12 11.42-7.75c0-.95-.77-1.73-1.63-1.73-1.05 0-1.53.79-1.63 1.73-1.02 2.54-3.53 4.07-8.16 4.31-4.64-.24-7.15-1.77-8.16-4.31-.11-.95-.57-1.73-1.63-1.73-.89.03-1.61.79-1.63 1.73Z"/><path class="cls-15" d="M148.42 328.22c0 3.8 4.39 6.88 9.79 6.88s9.79-3.08 9.79-6.88"/><path class="cls-10" d="M136.98 317.87c2.71 0 4.9-2.31 4.91-5.17 0-2.86-2.19-5.17-4.89-5.18h-.02c-2.7 0-4.9 2.3-4.91 5.16v.02c0 2.86 2.2 5.17 4.91 5.18Zm42.45 0c2.71 0 4.9-2.32 4.91-5.17 0-2.86-2.19-5.17-4.89-5.18h-.02c-2.71 0-4.9 2.32-4.91 5.18 0 2.86 2.2 5.17 4.91 5.18Z"/><path class="cls-11" d="M134.17 292.16c-4.73.22-12.4 3.86-12.21 8.92 0 .16.23.24.34.1 2.24-2.56 18.22-5.13 23.84-3.77.52.12.9-.4.57-.8-2.78-3.3-8.3-4.67-12.55-4.45Zm48.9 0c4.73.22 12.4 3.86 12.21 8.92 0 .16-.23.24-.35.1-2.24-2.56-18.22-5.13-23.84-3.77-.52.12-.9-.4-.57-.8 2.78-3.3 8.3-4.67 12.55-4.45Z"/><path class="cls-15" d="M107.48 281.29c10.56-28.51 21.73-42.77 33.5-42.77.44 0 23.88-.2 39.22-.3 16.86 8.08 28.47 25.07 28.47 44.73v12.83h-67.7l-2.28-19.98-3.16 19.98h-28.05v-12.83c-.02-.55-.02-1.1 0-1.65Z" style="mask:url(#mask-2)"/><path class="cls-41" d="M89.07 432.62c3.05 2.64 6.37 5.2 9.69 7.47 16.25 10.51 18.54 10.16 26.12 13.3 9.02 3.24 20.14 5.19 28.57 5.68 3.37.19 5.26.21 5.26.21l-.02-1.71s-70.27-42.54-71.11-42.94c-.89 1.35-4.35 7.32-5.71 10.25-.36.73-.01.81.78 1.67 1.77 1.95 4.39 4.26 6.35 5.99l.08.07Z"/><path class="cls-41" d="m239.87 425.01-8.61-10.93-70.8 43.4-1.78.09.02 1.71s24.59 1.49 50.46-11.39c18.98-9.45 30.71-22.88 30.71-22.88Z"/><path class="cls-23" d="M205.3 291.45c.08 1.15.11 2.3.11 3.44v32.76c0 19.25-10.67 35.88-26.12 43.62v7.51c14.81 1.29 29.16 3.46 37.54 5.76 8.13-11.68 18.68-22.59 18.78-43.96.08-16.37-22.59-82.38-32.65-95.67-6.65-8.78-23.68-16.59-43.53-16.97-19.83-.38-35.72 9.66-42.17 17.84-8.72 11.04-33.53 78.45-33.46 94.82.1 21.39 10.66 32.28 18.78 43.96 8.39-2.29 22.75-4.47 37.54-5.76v-7.51c-15.44-7.75-26.12-24.37-26.12-43.62v-32.78c0-1.17.04-2.31.11-3.44h23.05l3.16-18.48 2.28 18.48h62.7Z"/></g><g style="clip-path:url(#clippath-1)"><path d="M48.05 350.27c0 62.15 50.38 112.53 112.53 112.53s112.53-50.38 112.53-112.53" style="stroke-width:7px;stroke:#112e50;fill:none"/></g><circle class="cls-26" cx="631.92" cy="144.59" r="127.13"/><circle class="cls-3" cx="631.92" cy="144.59" r="127.13"/><path class="cls-14" d="M729.1 201.15H534.75c-5.37 0-9.75-4.32-9.75-9.67V97.7c0-5.34 4.37-9.67 9.75-9.67H729.1c5.37 0 9.75 4.32 9.75 9.67v93.78c0 5.34-4.35 9.67-9.75 9.67Z"/><path d="M729.1 201.15H534.75c-5.37 0-9.75-4.32-9.75-9.67V97.7c0-5.34 4.37-9.67 9.75-9.67H729.1c5.37 0 9.75 4.32 9.75 9.67v93.78c0 5.34-4.35 9.67-9.75 9.67Z" style="stroke:#112e51;stroke-width:2.13px;fill:none"/><path class="cls-20" d="M721.04 115.66h-92.06c-2.16.01-3.93-1.73-3.94-3.89v-6.11a3.943 3.943 0 0 1 3.94-3.92h92.06c2.19 0 3.94 1.74 3.94 3.92v6.09c0 2.17-1.77 3.92-3.94 3.92Zm-.46 71.47h-23.96c-2.16.01-3.93-1.73-3.94-3.89v-27.58a3.937 3.937 0 0 1 3.94-3.92h23.96c2.19 0 3.94 1.74 3.94 3.92v27.56c.02 2.15-1.76 3.92-3.94 3.92Zm-53.57-55.68h-37.95a3.92 3.92 0 1 1 0-7.84h37.95c2.16 0 3.92 1.75 3.92 3.92s-1.75 3.92-3.92 3.92Zm53.91 0h-37.95c-2.16 0-3.92-1.75-3.92-3.92s1.75-3.92 3.92-3.92h37.95c2.16 0 3.92 1.75 3.92 3.92s-1.75 3.92-3.92 3.92Zm-38.01 15.67h-53.96c-2.16 0-3.92-1.75-3.92-3.92s1.75-3.92 3.92-3.92h53.96c2.16 0 3.92 1.75 3.92 3.92s-1.75 3.92-3.92 3.92Zm-8.18 15.64h-45.8c-2.16 0-3.92-1.75-3.92-3.92s1.75-3.92 3.92-3.92h45.8c2.16 0 3.92 1.75 3.92 3.92s-1.75 3.92-3.92 3.92Zm-30.86 15.74h-15.1c-2.16.01-3.93-1.73-3.94-3.89v-.02a3.943 3.943 0 0 1 3.94-3.92h15.1c2.19 0 3.94 1.74 3.94 3.92.02 2.15-1.75 3.92-3.94 3.92Zm31.16-.18h-15.1c-2.16.01-3.93-1.73-3.94-3.89v-.02a3.943 3.943 0 0 1 3.94-3.92h15.1c2.19 0 3.94 1.74 3.94 3.92.02 2.15-1.75 3.92-3.94 3.92Z"/><path class="cls-18" d="M584.29 166.79c10.89.88 19.45 10.01 19.45 21.11v2.63h-58.9v-2.63c0-11.21 8.72-20.38 19.75-21.13 0 .11-.02.23-.02.34 0 3.49 4.42 6.32 9.86 6.32s9.86-2.83 9.86-6.32c.02-.11 0-.2 0-.32Z"/><path class="cls-27" d="M613.17 158.19h-77.76v32.36h77.76v-32.36Z"/><path class="cls-29" d="M574.42 175.47c6.45 0 11.68-3.56 11.68-7.93s-5.22-7.93-11.68-7.93-11.68 3.55-11.68 7.93c.02 4.39 5.24 7.93 11.68 7.93Z"/><path class="cls-16" d="M604.42 188.99h-60.95c-2.69 0-4.87-2.18-4.87-4.82v-77.29a4.833 4.833 0 0 1 4.87-4.82h60.95c2.69 0 4.87 2.18 4.87 4.82v77.29c0 2.65-2.19 4.82-4.87 4.82Z"/><path class="cls-47" d="M581.35 161.32v5.41h1.19c10.86 1.21 20.13 7.95 20.13 19.66l.94 2.31-57.65-1.54-.09-.77c0-11.71 8.11-18.45 20.18-19.66h1.18v-5.41a16.51 16.51 0 0 1-9.34-13.16 3.548 3.548 0 0 1-3.03-3.49v-4.12c0-1.74 1.28-3.19 2.94-3.49v-1.81c0-9.1 7.38-16.48 16.48-16.48 9.11 0 16.49 7.38 16.49 16.48v1.81c1.7.29 2.94 1.76 2.94 3.49v4.12a3.51 3.51 0 0 1-3.03 3.49 16.525 16.525 0 0 1-9.34 13.16Z"/><path class="cls-15" d="M567.18 161.32c.04.86 0 .34.04 2.27.02 1.16 5.24 1.09 7.22 1.09 1.48 0 6.83-.11 6.92-1.09.09-.95 0-1.63 0-2.27-1.73.39-4.51.77-7.29.75-2.32-.04-4.63-.29-6.9-.75Z"/><path class="cls-10" d="M570.17 152.3c0 1.59 1.82 2.65 4.12 2.65s4.12-1.07 4.12-2.65c0-.32-.27-.58-.59-.59-.39 0-.55.27-.59.59-.36.86-1.28 1.39-2.94 1.48-1.66-.09-2.57-.61-2.94-1.48-.05-.32-.21-.59-.59-.59-.32 0-.59.26-.59.58Z"/><path class="cls-15" d="M570.76 146.42c0 1.29 1.57 2.36 3.53 2.36s3.53-1.07 3.53-2.36"/><path class="cls-10" d="M566.64 142.89c.98 0 1.77-.79 1.78-1.77 0-.98-.8-1.78-1.78-1.78s-1.78.8-1.78 1.78.8 1.77 1.78 1.77Zm15.3 0c.98 0 1.77-.79 1.78-1.77 0-.98-.8-1.78-1.78-1.78s-1.78.8-1.78 1.78c.02.98.8 1.77 1.78 1.77Z"/><path class="cls-11" d="M565.61 134.1c-1.71.07-4.46 1.32-4.4 3.04 0 .04.09.09.14.04.82-.86 6.58-1.75 8.61-1.29.18.04.32-.14.2-.27-1.02-1.13-3.03-1.59-4.56-1.52Zm17.65 0c1.71.07 4.47 1.32 4.4 3.04 0 .04-.09.09-.14.04-.82-.86-6.58-1.75-8.61-1.29-.18.04-.32-.14-.2-.27 1.03-1.13 3.01-1.59 4.56-1.52Z"/><path class="cls-15" d="M555.45 130.59c3.8-9.74 7.84-14.61 12.07-14.61l14.15-.11c6.08 2.76 10.27 8.56 10.27 15.26v4.37H567.5l-.82-6.82-1.14 6.82h-10.11v-4.37c0-.18.02-.36.02-.54Z"/><g style="mask:url(#mask-3)"><path class="cls-24" d="M590.73 134.05c.02.38.04.79.04 1.18v11.19c0 6.37-3.67 12.17-9.43 14.9v2.56c5.35.43 10.52 1.18 13.55 1.97 2.94-3.99 6.74-7.7 6.76-15.01.02-5.6-8.15-28.13-11.77-32.66-2.39-2.99-8.45-3.99-15.6-4.12-7.15-.14-12.98 1.63-15.31 4.41-3.14 3.76-12.09 26.79-12.07 32.36.02 7.29 3.85 11.01 6.76 15.02 3.03-.79 8.2-1.52 13.55-1.97v-2.56a16.478 16.478 0 0 1-9.43-14.9v-11.19c0-.38.02-.79.04-1.18h8.31l1.14-6.32.82 6.32h22.62Z"/><path class="cls-50" d="M624.87 113.78h-77.76v82.39h77.76v-82.39Z"/></g><path class="cls-21" d="M584.26 166.77c10.89.84 19.61 9.4 19.61 19.82v2.4h-58.9v-2.4c0-10.51 8.7-19.21 19.75-19.91v.41c0 3.26 4.42 5.93 9.86 5.93s9.61-2.42 9.61-5.69c0-.11.07-.48.07-.57Z"/><path class="cls-32" d="M720.31 271.72c16.78 0 30.39-13.6 30.39-30.39 0-16.78-13.61-30.38-30.39-30.38s-30.39 13.6-30.39 30.38c0 16.79 13.61 30.39 30.39 30.39"/><path class="cls-27" d="m719.75 252.57 15.97-15.97a4.593 4.593 0 0 0 0-6.49 4.605 4.605 0 0 0-6.5 0l-12.72 12.72-5.1-5.1a4.605 4.605 0 0 0-6.5 0c-1.79 1.79-1.79 4.71 0 6.49l8.34 8.35c.9.9 2.07 1.35 3.25 1.35s2.35-.45 3.25-1.35"/><rect class="cls-27" x="1059.5" y="256.68" width="300.04" height="183" rx="23.02" ry="23.02"/><path class="cls-26" d="M1082.52 256.68h254c12.71 0 23.02 10.31 23.02 23.02v45.32H1059.5V279.7c0-12.71 10.31-23.02 23.02-23.02Z"/><rect class="cls-3" x="1059.5" y="256.68" width="300.04" height="183" rx="23.02" ry="23.02"/><path d="M1168.79 390.15h81.46m-94.11-15.63h106.75" style="stroke:#d0d2d3;stroke-linecap:round;stroke-width:7.13px;fill:none"/><path d="M1227.8 292.76h-18.28v64.52c17.35-7.64 23.42-17.64 24.95-20.74.29-.59.43-1.24.43-1.9v-34.78c0-3.92-3.18-7.1-7.1-7.1Z" style="fill:#b51e23"/><path d="M1191.23 292.76c-3.92 0-7.1 3.18-7.1 7.1v34.78c0 .66.14 1.31.43 1.9 1.53 3.1 7.6 13.1 24.95 20.74v-64.52h-18.28Z" style="fill:#e21d3e"/><path class="cls-27" d="M1214.01 320.57c1.64-1.32 2.71-3.32 2.71-5.59 0-3.98-3.23-7.2-7.2-7.2s-7.2 3.22-7.2 7.2c0 2.3 1.1 4.33 2.78 5.65-.79 4.51-1.58 9.03-2.36 13.54 2.24.39 4.51.59 6.78.59 2.3 0 4.6-.19 6.87-.59l-2.37-13.6Z"/><circle cx="631.92" cy="550.95" r="127.13" style="stroke-miterlimit:10;stroke:#112e51;fill:#ecf3fa;stroke-width:7px"/><path class="cls-31" d="M553.56 490.15h273.41v148.67H553.56z"/><path class="cls-25" d="M826.97 579.71h-6.95v3.05h6.95v-3.05Zm0-73.1h-6.95v3.05h6.95v-3.05Zm0 79.16h-4.8v3.05h4.8v-3.05Zm0-73.07h-4.8v3.05h4.8v-3.05Zm0 79.16h-6.95v3.05h6.95v-3.05Zm0-73.07h-6.95v3.05h6.95v-3.05Zm0 79.16h-4.8V601h4.8v-3.05Zm0-73.06h-4.8v3.05h4.8v-3.05Zm0 79.15h-6.95v3.05h6.95v-3.05Zm0-73.06h-6.95v3.05h6.95v-3.05Zm0 79.15h-4.8v3.05h4.8v-3.05Zm0-73.06h-4.8v3.05h4.8v-3.05Zm0 79.16h-6.95v3.05h6.95v-3.05Zm0-73.07h-6.95v3.05h6.95v-3.05Zm0 79.16h-4.8v3.05h4.8v-3.05Zm0-73.07h-4.8v3.05h4.8v-3.05Zm0 79.16h-6.95v3.05h6.95v-3.05Zm0-73.07h-6.95v3.05h6.95v-3.05Zm0 6.1h-4.8v3.05h4.8v-3.05Zm0 6.09h-6.95v3.05h6.95v-3.05Zm0 6.09h-4.8v3.05h4.8v-3.05Zm-273.41 6.08h6.95v3.05h-6.95v-3.05Zm0-73.1h6.95v3.05h-6.95v-3.05Zm0 79.16h4.8v3.05h-4.8v-3.05Zm0-73.07h4.8v3.05h-4.8v-3.05Zm0 79.16h6.95v3.05h-6.95v-3.05Zm0-73.06h6.95v3.05h-6.95v-3.05Zm0 79.15h4.8v3.05h-4.8v-3.05Zm0-73.06h4.8v3.05h-4.8v-3.05Zm0 79.16h6.95v3.05h-6.95v-3.05Zm0-73.07h6.95v3.05h-6.95v-3.05Zm0 79.16h4.8v3.05h-4.8v-3.05Zm0-73.07h4.8v3.05h-4.8v-3.05Zm0 79.16h6.95v3.05h-6.95v-3.05Zm0-73.07h6.95v3.05h-6.95v-3.05Zm0 79.16h4.8v3.05h-4.8v-3.05Zm0-73.06h4.8v3.05h-4.8v-3.05Zm0 79.15h6.95v3.04h-6.95v-3.04Zm0-73.06h6.95v3.05h-6.95v-3.05Zm0 6.09h4.8v3.05h-4.8v-3.05Zm0 6.09h6.95v3.05h-6.95v-3.05Zm0 6.09h4.8v3.05h-4.8v-3.05Z"/><path class="cls-31" d="M550.73 470.75h279.08c4.34 0 7.86 3.52 7.86 7.86v16.19c0 4.34-3.52 7.86-7.86 7.86H550.73c-4.34 0-7.86-3.52-7.86-7.86v-16.19c0-4.34 3.52-7.86 7.86-7.86Z"/><path d="M837.26 497.28c-1.04 3.12-4 5.38-7.46 5.38H550.72c-3.46 0-6.41-2.26-7.46-5.38h293.99Zm-286.53-26.53h279.08c3.46 0 6.41 2.26 7.46 5.38H543.28c1.05-3.12 4-5.38 7.46-5.38Z" style="fill:#bcbec0;fill-rule:evenodd"/><path d="M630.58 466.04h126.9c6.79 0 12.34 4.58 12.34 10.19v20.94c0 5.6-5.55 10.19-12.34 10.19h-126.9c-6.79 0-12.34-4.58-12.34-10.19v-20.94c0-5.6 5.55-10.19 12.34-10.19Z" style="fill:#0071bb;fill-rule:evenodd"/><path class="cls-25" d="M644.94 527.31h90.65v111.5h-6.37V533.87H651.1v104.94h-6.16v-111.5z"/><path class="cls-48" d="M651.1 533.87h78.11v104.94H651.1z"/><path d="M553.56 615.61h91.38v23.21h-91.38zm182.03 0h91.38v23.21h-91.38z" style="fill:#a7a9ac"/><path class="cls-49" d="M574.55 532.62h53.64v59.22h-53.64z"/><path class="cls-14" d="M570 527.6h62.73v69.26H570V527.6Zm19.21 64.24v-39.91h-14.67v39.91h14.67Zm3.45-39.91v39.91h15.74v-39.91h-15.74Zm19.18 0v39.91h16.34v-39.91h-16.34Zm-37.29-3.44h53.64v-15.86h-53.64v15.86Z"/><path class="cls-49" d="M750.38 532.53h53.64v59.22h-53.64z"/><path class="cls-14" d="M745.83 527.51h62.73v69.26h-62.73v-69.26Zm19.22 64.24v-39.91h-14.67v39.91h14.67Zm3.44-39.91v39.91h15.74v-39.91h-15.74Zm19.19 0v39.91h16.34v-39.91h-16.34Zm-37.3-3.44h53.64v-15.87h-53.64v15.87Z"/><path class="cls-19" d="M655.4 538.52h35.06v100.29H655.4V538.52Zm5.61 5.82v84.05h24.1v-84.05h-24.1Z"/><path class="cls-49" d="M661.01 544.34h24.1v84.05h-24.1z"/><path class="cls-19" d="M690.46 538.52h35.06v100.29h-35.06V538.52Zm5.61 5.82v84.05h24.1v-84.05h-24.1Z"/><path class="cls-49" d="M696.07 544.34h24.1v84.05h-24.1z"/><path class="cls-48" d="M690.07 538.52h.79v100.29h-.79z"/><path d="M686.61 577.05h1.56v23.79h-1.56zm5.89 0h1.56v23.79h-1.56z" style="fill:#112e51"/><path d="m661.01 544.34 24.1 84.05v-84.05h-24.1zm35.06.01 24.11 84.05v-84.05h-24.11z" style="fill:#ecf3fa;fill-rule:evenodd"/><text transform="translate(642.59 492.49)" style="font-family:PublicSans-Bold,'Public Sans';font-size:15.59px;font-weight:700;fill:#fff"><tspan x="0" y="0" style="letter-spacing:0">P</tspan><tspan x="10.2" y="0" style="letter-spacing:0">O</tspan><tspan x="22.12" y="0" style="letter-spacing:0">S</tspan><tspan x="32.87" y="0">T OFFICE</tspan></text><g style="clip-path:url(#clippath-2)"><path d="M565.72 596.53c-.16.01-.32.03-.48.06.07-.03.13-.05.22-.06h.26Zm48.11.06-.49-.06h.26a.7.7 0 0 1 .23.06Z" style="fill:#324160"/><path class="cls-47" d="m643.42 616.05-107.83.4c5.63-5.48 12.15-20.38 36.73-20.38h2.47v-11.94c-10.65-5.32-18.32-16.19-19.6-29.07-3.6-.53-6.37-3.79-6.37-7.72v-9.1c0-3.87 2.67-7.07 6.18-7.69v-4.01c0-20.1 15.51-36.38 34.62-36.38s34.62 16.3 34.62 36.38v4.01c3.51.62 6.18 3.82 6.18 7.69v9.1c0 3.93-2.77 7.18-6.37 7.72-1.25 12.85-8.92 23.72-19.56 29.04h-.01v11.95h2.47c24.58 0 31.31 16.87 36.47 20Z"/><path class="cls-21" d="M649.08 671.19c-.42-4.94-.81-9.88-1.19-14.82-.85-11.12-1.53-22.26-2.59-33.36-.31-3.28-.77-5.19-1.91-6.97h.02c-.04-.05-.07-.1-.11-.15-.21-.32-.45-.64-.71-.96-3.46-4.84-9.31-14.55-25.81-17.84-.71-.23-1.38-.4-1.99-.48-.35-.04-.67-.05-.97-.03l-.49-.06c-.88-.12-1.78-.22-2.71-.3a8.797 8.797 0 0 1-.19 2.67c-1.43 6.77-10.06 11.96-20.49 11.96s-18.23-4.71-20.24-11c-.31-.95-.47-1.94-.47-2.95 0-.24.02-.48.03-.72-1.23.09-2.41.2-3.55.34-.16.01-.32.03-.48.06-.01-.01-.02-.01-.02 0-.3-.02-.61-.01-.96.03-.47.06-.98.18-1.5.33-17.81 2.92-22.96 11.77-27.16 19.49h.02c-.96 1.68-1.37 3.54-1.66 6.57-1.06 11.1-1.74 22.24-2.59 33.36-.38 4.94-.77 9.88-1.19 14.82-.06.66.08.98.73 1.23 9.56 3.66 19.34 6.67 29.3 9.04.13.03.27.03.41.03.67-.15.49-.43.2-.85-.19-.27-.35-.56-.53-.84 9.69 1.57 19.44 2.26 29.22 2.21 9.87.06 19.69-.64 29.46-2.24-.19.29-.36.59-.55.88-.29.43-.47.7.2.85.14 0 .28 0 .41-.03 9.96-2.38 19.74-5.38 29.3-9.04.66-.25.79-.56.73-1.23Z"/><path class="cls-30" d="M589.95 615.4c13.54 0 24.51-7.83 24.51-17.49s-10.97-17.49-24.51-17.49-24.51 7.83-24.51 17.49 10.97 17.49 24.51 17.49Z" style="mask:url(#mask-4)"/><path class="cls-30" d="m552.98 637.53-2.06 41.51 1.32.37.74-41.88zm73.32 0 2.06 41.51-1.32.37-.74-41.88z"/><path class="cls-15" d="M604.48 584.11v5.53c-.1.06-.21.12-.33.18-2.21 1.1-10.7 1.98-13.94 1.98-4.15 0-12.57-.32-15.42-1.8v-5.85c3.65.93 8.98 1.81 14.29 1.84 5.83.07 11.58-.91 15.4-1.88Z"/><path class="cls-10" d="M579.94 564.79c0 3.48 3.77 5.82 8.57 5.82s8.57-2.34 8.57-5.82c0-.71-.57-1.3-1.22-1.3-.79 0-1.15.59-1.22 1.3-.76 1.9-2.65 3.05-6.13 3.23-3.48-.18-5.36-1.33-6.13-3.23-.09-.71-.43-1.3-1.22-1.3-.67.02-1.21.59-1.22 1.3Z"/><path class="cls-15" d="M581.18 551.85c0 2.85 3.29 5.17 7.35 5.17s7.35-2.31 7.35-5.17"/><path class="cls-10" d="M572.59 544.08c2.03 0 3.68-1.74 3.68-3.88 0-2.14-1.64-3.88-3.67-3.89h-.01c-2.03 0-3.68 1.73-3.68 3.87v.01c0 2.14 1.65 3.88 3.68 3.89Zm31.86 0c2.03 0 3.68-1.74 3.68-3.88 0-2.14-1.64-3.88-3.67-3.89h-.01c-2.03 0-3.68 1.74-3.68 3.89 0 2.14 1.65 3.88 3.68 3.89Z"/><path class="cls-11" d="M570.47 524.78c-3.55.17-9.3 2.9-9.16 6.69 0 .12.17.18.26.08 1.68-1.92 13.68-3.85 17.89-2.83.39.09.68-.3.43-.6-2.08-2.48-6.23-3.51-9.42-3.34Zm36.71 0c3.55.17 9.3 2.9 9.16 6.69 0 .12-.17.18-.26.08-1.68-1.92-13.68-3.85-17.89-2.83-.39.09-.68-.3-.43-.6 2.08-2.48 6.23-3.51 9.42-3.34Z"/><path class="cls-15" d="M550.44 516.62c7.92-21.4 16.31-32.1 25.14-32.1.33 0 17.92-.15 29.44-.23 12.66 6.06 21.37 18.82 21.37 33.57v9.63h-50.81l-1.71-14.99-2.37 14.99h-21.06v-9.63c-.01-.41-.01-.83 0-1.24Z" style="mask:url(#mask-5)"/><path class="cls-23" d="M623.86 524.25c.06.86.09 1.72.09 2.58v24.59c0 14.45-8.01 26.93-19.6 32.74v5.64c11.12.97 21.89 2.6 28.17 4.32 6.1-8.77 14.02-16.96 14.09-32.99.06-12.29-16.96-61.83-24.51-71.8-4.99-6.59-17.78-12.45-32.68-12.74-14.89-.29-26.81 7.25-31.65 13.39-6.54 8.28-25.17 58.88-25.11 71.17.07 16.05 8 24.23 14.09 32.99 6.3-1.72 17.07-3.36 28.17-4.32v-5.64c-11.59-5.82-19.6-18.29-19.6-32.74v-24.61c0-.88.03-1.74.09-2.58h17.3l2.37-13.87 1.71 13.87h47.06Z"/><path class="cls-47" d="M645.45 650.68c-9.43-4.63-14.1-12.03-21.82-19.7 0 0 7.19-2.55 5.2-6.82 9.76 3.23 12.06-12.4 10.98-15.12 7.82-5.67 22.49 1 27.27 4.68-.73 9.95 1.62 21.82-1.8 31.02l3.05 29.08-24.52.22 1.64-23.37Z"/><path class="cls-47" d="M640.94 633.27s-9.04 5.87-12.13 2.63c-3.08-3.24-10.73-9.97-13.83-11.69-.89-.5-1.87-1.02-2.99-1.59-.92-.47-2.65-1.18-2.82-2.33-.19-1.27 1.85-3.52 7.57-2.45 3.17.6 5.33 1.96 7.31 3.16 1.79 1.09 4.1 2.83 7.75 4.34 2.1 1.62 9.13 7.93 9.13 7.93Z"/><path class="cls-44" d="M622.17 623.04c.56.21 1.68.01 1.99-.5l.6-1.78-.81-.4-13.74-1.86 11.95 4.55Z"/><path class="cls-47" d="m666.25 624.36 1.43-18.49.35-16.86c.02-.9-.74-1.64-1.64-1.57-2.39.17-4.06 2.54-3.74 7.72l-.4 8.16-4.72 19.71 8.72 1.33Z"/><path class="cls-47" d="m660.65 621.12 1.48-22.87-.59-21.11c-.03-.95-.83-1.69-1.79-1.64-3.14.17-5.23 3.18-4.49 9.8l-.06 13.57-4.58 21.21 10.04 1.04Z"/><path class="cls-47" d="m656.92 616.07-4.06-22.55-5.66-20.39a1.64 1.64 0 0 0-2.01-1.15c-3.08.87-4.44 4.3-2.11 10.63l3.2 13.18.65 21.69 9.99-1.4Z"/><path class="cls-47" d="M649.48 613.44c-.95-7.66-2.08-15.11-6.97-18.43l-22.03-4.98c-1.35-.25-2.26 3.34.66 5.94 1.36 1.21 4.66 2.14 7.13 2.49l9.59 2.88 3.48 13.77 8.15-1.67Z"/><path class="cls-44" d="M654.16 643.65c-.06.02-.25-.3-.54-.9-.07-.15-.15-.32-.23-.5-.09-.18-.19-.38-.29-.59-.21-.42-.43-.91-.72-1.42-.14-.26-.28-.53-.43-.82-.15-.28-.33-.57-.5-.86l-.27-.45c-.05-.08-.09-.16-.14-.23-.05-.08-.1-.15-.15-.23-.2-.31-.4-.63-.61-.95-.87-1.28-1.9-2.65-3.08-3.99a40.859 40.859 0 0 0-3.6-3.53c-.3-.25-.59-.49-.87-.72l-.21-.18c-.07-.06-.14-.11-.21-.16-.14-.11-.28-.21-.42-.32-.28-.21-.54-.42-.8-.6s-.52-.36-.76-.53c-.48-.35-.93-.62-1.32-.88-.2-.13-.38-.25-.55-.36-.17-.11-.33-.2-.47-.29-.56-.35-.86-.58-.83-.64.03-.06.39.05 1.01.3.16.06.33.14.52.22.19.08.38.19.6.29.42.22.92.45 1.43.77.26.15.53.32.81.49.28.17.56.37.85.57.15.1.29.2.45.31.08.05.15.1.23.16.07.06.15.11.22.17.3.23.61.47.92.71 1.23 1.01 2.53 2.2 3.75 3.58a32.83 32.83 0 0 1 3.1 4.15c.2.34.4.68.6 1 .05.08.1.16.14.24.05.08.09.16.13.24.08.16.17.32.25.48.16.32.33.61.46.91.13.3.26.59.39.86.26.54.43 1.06.6 1.51.08.22.16.43.22.63s.11.38.15.54c.18.65.24 1.02.18 1.04Z"/><path class="cls-44" d="M649.86 635.5c-.13-.02-.12-.78.13-1.96.03-.15.07-.3.11-.46.04-.16.09-.32.14-.5.09-.34.22-.7.35-1.08.28-.75.63-1.56 1.06-2.38.44-.82.92-1.56 1.39-2.21.24-.32.47-.62.7-.89.12-.14.22-.27.34-.39.11-.12.22-.24.33-.35.84-.87 1.47-1.29 1.56-1.2.21.21-1.79 2.35-3.44 5.5-1.69 3.13-2.36 5.98-2.65 5.92Zm6.09-14.94c.03.06-.17.21-.55.41-.09.05-.2.11-.32.17-.12.06-.25.11-.39.17-.28.12-.6.26-.96.38-.18.06-.37.13-.57.2-.2.07-.41.12-.63.19-.43.13-.91.24-1.4.35-1 .2-2.11.36-3.28.44-1.18.06-2.3.03-3.31-.05-.51-.05-.99-.1-1.43-.18-.22-.04-.44-.07-.64-.11-.2-.04-.4-.09-.59-.13-.38-.08-.71-.18-1-.27-.15-.04-.28-.08-.41-.13-.12-.05-.23-.09-.33-.13-.4-.16-.61-.28-.59-.35.02-.07.26-.07.68-.03.11.01.22.03.35.04.13.01.27.03.41.05.3.03.63.09 1 .12l.58.06c.2.02.41.03.63.05.44.04.9.06 1.4.09.98.03 2.06.04 3.2-.02 1.13-.07 2.2-.2 3.18-.35.48-.08.95-.16 1.38-.25.21-.04.42-.08.62-.13s.39-.09.57-.13c.37-.08.69-.17.98-.23.15-.03.28-.06.41-.09.12-.03.24-.06.34-.08.41-.09.66-.12.68-.05Zm-9.55-20.74s.32 6.54.35 7.62c.03 1.07-.39 1.08-.44-.15-.05-1.24-.32-8.28-.32-8.28l.41.82Zm8.06 2.46s-1.07 5.1-1.39 6.05-.44.44-.31-.11 1.58-6.52 1.58-6.52l.13.58Zm7.17 3.52s-.95 3.52-1.09 3.91-.58.57-.35-.12c.22-.69 1.49-4.62 1.49-4.62l-.05.83Zm2.92 5.69c0-.1-.23-.16-.55-.25-.16-.05-.35-.11-.55-.18a5.614 5.614 0 0 1-1.24-.66c-.18-.13-.33-.25-.46-.35-.26-.21-.43-.36-.52-.31-.08.04-.04.29.16.62.1.16.24.34.43.52.19.17.41.34.67.48.26.14.53.23.78.29.25.05.48.07.67.06.39-.02.61-.13.6-.21Zm1.77-15.42c-.06-.18-.84-.06-1.77-.12-.93-.05-1.68-.26-1.77-.09-.04.08.11.25.42.41.31.16.77.31 1.31.34.53.03 1.01-.06 1.34-.19.33-.13.5-.27.47-.36Zm-2.12 8.11c.53.06 1.02.01 1.36-.09.34-.1.53-.23.51-.31-.04-.18-.84-.14-1.79-.26-.95-.11-1.71-.34-1.8-.17-.04.08.11.25.42.42.3.17.77.34 1.3.41Zm-7.83 5.04c-1.49-.31-2.58-.97-2.68-.81-.05.07.17.34.61.65.22.15.5.31.82.45.32.14.69.26 1.09.35.4.08.79.12 1.15.13.36 0 .68-.02.95-.07.54-.09.86-.25.85-.33-.02-.19-1.3-.04-2.78-.38Zm-.12-22.53c.4.12.97.21 1.6.2.63-.01 1.2-.12 1.59-.26.39-.13.61-.28.59-.37-.05-.18-1.02-.06-2.2-.04-1.18.03-2.15-.06-2.2.12-.02.09.21.23.61.34Zm2.5 11.97c.27-.08.51-.17.69-.27.38-.2.56-.39.52-.47-.09-.17-1 .16-2.15.21-1.15.07-2.09-.17-2.17 0-.03.08.17.26.57.41.2.08.44.15.72.19.28.04.59.06.91.05.32-.02.63-.07.9-.14Zm-7.22 9.64c-.1.01-.22.03-.34.03-.12.01-.25.02-.39.02-.27 0-.57 0-.88-.03-.31-.03-.6-.09-.86-.15-.13-.03-.26-.06-.37-.1-.12-.03-.23-.07-.32-.1-.4-.13-.66-.23-.71-.15-.05.07.12.31.5.57.1.06.2.13.33.19.12.07.26.12.4.17.29.1.62.18.98.22.35.03.7.02 1-.02.15-.03.3-.05.43-.09.13-.03.25-.08.36-.12.43-.18.64-.38.61-.46-.04-.09-.31-.05-.73 0Zm-6.03-25.83c-1.16.34-2.15.42-2.16.61 0 .09.25.19.68.22.43.03 1.03-.01 1.66-.19.63-.18 1.17-.46 1.51-.72.35-.26.51-.47.46-.55-.11-.16-1 .3-2.16.63Zm5.36 11.99c-.07-.07-.31.09-.67.29-.09.05-.19.11-.3.16-.11.06-.23.11-.35.17-.25.1-.53.21-.83.29-.3.08-.6.12-.87.15-.14 0-.27.03-.39.03h-.34c-.42 0-.7-.02-.73.07-.03.08.21.26.66.39.11.03.24.06.38.08.14.02.29.03.44.04.31 0 .66-.03 1.01-.12s.67-.23.94-.38c.13-.08.26-.16.37-.25.11-.08.21-.17.29-.25.34-.33.45-.61.39-.67Zm-9.79 3.4c-.09-.02-.22.22-.43.58-.1.18-.23.39-.38.61-.16.22-.33.45-.54.68-.21.23-.42.43-.63.6-.21.17-.4.32-.57.44-.34.24-.57.39-.54.48.03.08.32.09.75-.07.22-.08.46-.2.72-.37.25-.17.51-.39.75-.65s.43-.54.57-.81c.14-.27.24-.53.29-.75.11-.45.08-.74 0-.76Zm1.69 10.68c-1.41.3-2.6.19-2.64.38-.02.09.27.23.78.32.25.05.56.07.89.07a5.891 5.891 0 0 0 2.15-.44c.31-.13.58-.27.8-.41.43-.28.64-.53.59-.6-.11-.16-1.16.41-2.57.68Zm-11.8-13.1c-.02-.42-.14-.67-.22-.66-.19.02-.21.97-.75 1.95-.51.99-1.26 1.59-1.16 1.75.05.07.31.01.66-.22.35-.23.78-.65 1.08-1.22.15-.29.25-.58.32-.86.06-.28.08-.53.07-.74Z"/><path d="M596.2 587.29c-.88-.3-1.87.26-2.21 1.26l-6.83 19.93c-.34 1 .09 2.05.98 2.35l34.23 11.73c.88.3 1.87-.26 2.21-1.26l6.83-19.93c.34-1-.09-2.05-.98-2.35l-34.23-11.73Z" style="fill:#919191"/><path class="cls-14" d="m621.87 621.49-34.22-11.73c-.95-.32-1.41-1.49-1.03-2.6l6.69-19.52c.38-1.11 1.46-1.75 2.41-1.42l34.22 11.73c.95.32 1.41 1.49 1.03 2.6l-6.69 19.52c-.38 1.11-1.46 1.75-2.41 1.42Z"/><path class="cls-20" d="m626.64 604.62-16.45-5.64a.742.742 0 0 1-.47-.94l.37-1.09c.14-.39.56-.59.94-.46l16.45 5.64c.39.13.6.55.46.94l-.37 1.09a.74.74 0 0 1-.94.46Zm-4.46 12.74-4.28-1.47a.742.742 0 0 1-.47-.94l1.69-4.92c.14-.39.56-.59.94-.46l4.28 1.47c.39.13.6.55.46.94l-1.69 4.92c-.13.39-.55.59-.94.46Zm-6.16-13.23-6.78-2.32a.737.737 0 0 1-.46-.94c.13-.39.55-.59.94-.46s6.78 2.32 6.78 2.32c.39.13.59.55.46.94s-.55.59-.94.46Zm9.63 3.3-6.78-2.32c-.39-.13-.59-.55-.46-.94s.55-.59.94-.46l6.78 2.32c.39.13.59.55.46.94s-.55.59-.94.46Zm-7.75.47-9.64-3.3c-.39-.13-.59-.55-.46-.94s.55-.59.94-.46l9.64 3.3c.39.13.59.55.46.94s-.55.59-.94.46Zm-2.42 2.3-8.18-2.8c-.39-.13-.59-.55-.46-.94s.55-.59.94-.46l8.18 2.8c.39.13.59.55.46.94s-.55.59-.94.46Zm-6.48.92-2.7-.92a.742.742 0 0 1-.47-.94c.14-.39.56-.59.94-.46l2.7.92c.39.13.6.55.46.94-.13.39-.55.59-.94.46Zm5.58 1.88-2.7-.92a.742.742 0 0 1-.47-.94c.14-.39.56-.59.94-.46l2.7.92c.39.13.6.55.46.94-.13.39-.55.59-.94.46Z"/><path class="cls-18" d="M599.08 605.38c1.89.82 2.86 2.98 2.18 4.96l-.16.47-10.52-3.61.16-.47c.69-2 2.81-3.11 4.82-2.57 0 .02-.02.04-.03.06-.21.62.4 1.4 1.38 1.73s1.94.1 2.15-.53c.01-.02.01-.04.02-.06Z"/><path class="cls-27" d="m604.76 605.61-13.89-4.76-1.98 5.78 13.89 4.76 1.98-5.78Z"/><path class="cls-29" d="M596.78 606.33c1.15.39 2.31.08 2.57-.7s-.45-1.74-1.6-2.13-2.31-.08-2.57.7c-.26.79.45 1.74 1.6 2.13Z"/><path class="cls-16" d="m601.31 610.58-10.89-3.73a.922.922 0 0 1-.58-1.16l4.73-13.81c.17-.48.69-.73 1.16-.56l10.89 3.73c.48.16.74.69.58 1.16l-4.73 13.81c-.16.47-.69.73-1.17.56Z"/><path class="cls-47" d="m598.89 604.22-.33.97.21.07c1.87.88 3.11 2.65 2.39 4.75l.03.47-10.21-3.8.03-.14c.72-2.09 2.58-2.8 4.81-2.28l.21.07.33-.97c-.78-.76-1.1-1.86-.86-2.92a.68.68 0 0 1-.33-.81l.25-.74c.11-.31.42-.49.74-.44l.11-.32a3.118 3.118 0 0 1 3.95-1.94c1.63.56 2.49 2.33 1.94 3.95s-.11.32-.11.32c.29.16.42.5.31.8l-.25.74c-.11.32-.44.5-.75.44-.46.98-1.4 1.66-2.47 1.78Z"/><path class="cls-15" d="M596.35 603.35c-.04.16-.02.06-.13.41-.07.21.87.52 1.22.64.26.09 1.23.4 1.3.23.07-.16.1-.29.14-.41a7.15 7.15 0 0 1-1.35-.31c-.41-.15-.81-.33-1.19-.56Z"/><path class="cls-10" d="M597.44 601.93c-.1.28.16.59.57.73s.8.06.9-.22a.108.108 0 0 0-.07-.14c-.07-.02-.11.01-.14.07-.12.13-.31.17-.62.08-.29-.12-.42-.27-.43-.44.01-.06 0-.12-.07-.14-.06-.02-.12 0-.14.07Z"/><path class="cls-15" d="M597.91 600.91c-.08.23.14.52.49.64s.7.03.77-.21"/><path class="cls-10" d="M597.39 600.03a.339.339 0 1 0-.21-.43c-.06.18.03.36.21.43Zm2.73.94a.339.339 0 1 0-.21-.43c-.06.18.03.36.21.43Z"/><path class="cls-11" d="M597.74 598.4c-.31-.09-.88-.04-.97.27 0 0 .01.02.02.02.2-.1 1.28.09 1.62.3.03.02.07 0 .05-.04-.11-.26-.44-.47-.72-.55Zm3.15 1.08c.3.12.72.51.6.81 0 0-.02.01-.03 0-.09-.2-1.07-.71-1.46-.76-.04 0-.05-.04-.02-.06.25-.14.63-.1.91 0Z"/><path class="cls-15" d="M596.14 597.15c1.28-1.51 2.29-2.13 3.05-1.87l2.53.85c.92.87 1.31 2.16.9 3.36l-.27.78-4.37-1.5.27-1.27-.62 1.15-1.81-.62.27-.78s.03-.06.04-.1Z"/><g style="mask:url(#mask-6)"><path class="cls-24" d="m602.23 599.93-.06.21-.69 2a3.097 3.097 0 0 1-2.6 2.08l-.16.46c.93.4 1.81.85 2.3 1.18.77-.53 1.68-.96 2.13-2.27.35-1 .27-5.52-.1-6.56-.24-.68-1.27-1.23-2.54-1.69-1.27-.46-2.42-.5-3-.15-.79.48-3.8 4.05-4.14 5.04-.44 1.3.01 2.2.29 3.1.59.04 1.56.23 2.54.48l.16-.46c-.86-.84-1.16-2.1-.77-3.24l.69-2c.02-.07.05-.14.08-.21l1.49.51.59-1.06-.24 1.18 4.04 1.38Z"/><path class="cls-50" d="m609.57 598.39-13.89-4.76-5.04 14.72 13.89 4.76 5.04-14.72Z"/></g><path class="cls-21" d="M599.07 605.38c1.89.82 2.93 2.88 2.29 4.74l-.15.43-10.52-3.61.15-.43c.64-1.88 2.73-2.9 4.75-2.35l-.02.07c-.2.58.43 1.33 1.4 1.66s1.87.16 2.07-.43c0-.02.04-.08.05-.1Z"/><path class="cls-47" d="M619.32 592.97c.75 3.4 4.05 4.03 8.46 3.42l-8.46-3.42Z"/><path class="cls-44" d="M664.21 648.54s-.08 0-.2.04c-.11.05-.28.13-.49.22-.42.19-1.04.42-1.84.59-.8.16-1.77.25-2.86.21-1.09-.03-2.28-.19-3.56-.36-1.27-.16-2.51-.29-3.66-.25-1.14.03-2.17.23-2.99.52-.82.29-1.43.66-1.8.97l-.24.21c-.07.06-.12.12-.16.17-.08.1-.12.16-.1.18.02.02.08 0 .2-.06l.47-.26c.41-.22 1.01-.49 1.8-.7.79-.21 1.76-.33 2.84-.33 1.08 0 2.28.14 3.55.3 1.27.16 2.5.3 3.64.3 1.14 0 2.17-.15 3-.39.83-.25 1.46-.58 1.86-.85.1-.07.18-.14.26-.19.07-.06.13-.12.17-.16.09-.09.13-.15.11-.17Z"/></g><path class="cls-3" d="M718.26 644.27c-22.67 20.99-53.01 33.81-86.34 33.81-70.21 0-127.13-56.92-127.13-127.13s56.92-127.13 127.13-127.13c29.97 0 57.53 10.37 79.26 27.73"/><path class="cls-32" d="M824.57 517.08c16.78 0 30.39-13.6 30.39-30.39 0-16.78-13.61-30.38-30.39-30.38s-30.39 13.6-30.39 30.38c0 16.79 13.61 30.39 30.39 30.39"/><path class="cls-27" d="m824.01 497.93 15.97-15.97a4.593 4.593 0 0 0 0-6.49 4.605 4.605 0 0 0-6.5 0l-12.72 12.72-5.1-5.1a4.605 4.605 0 0 0-6.5 0c-1.79 1.79-1.79 4.71 0 6.49l8.34 8.35a4.59 4.59 0 0 0 6.5 0"/><path class="cls-6" d="M272.11 348.18h60.34c13.5 0 24.44-13.15 24.44-29.37V173.97c0-16.22 10.94-29.37 24.44-29.37h123.69"/><path class="cls-33" d="M272.68 359.46c-6.23 0-11.28-5.05-11.28-11.28s5.05-11.28 11.28-11.28 11.28 5.05 11.28 11.28-5.05 11.28-11.28 11.28Z"/><circle class="cls-33" cx="504.45" cy="144.59" r="11.28" transform="rotate(-37.98 504.48 144.586)"/><path class="cls-6" d="M272.11 348.72h60.34c13.5 0 24.44 13.15 24.44 29.37v144.84c0 16.22 10.94 29.37 24.44 29.37h123.69"/><path class="cls-33" d="M272.68 360c-6.23 0-11.28-5.05-11.28-11.28s5.05-11.28 11.28-11.28 11.28 5.05 11.28 11.28S278.91 360 272.68 360Zm231.77 203.59c6.23 0 11.28-5.05 11.28-11.28s-5.05-11.28-11.28-11.28-11.28 5.05-11.28 11.28 5.05 11.28 11.28 11.28Z"/><path class="cls-6" d="M1059.18 348.72h-60.34c-13.5 0-24.44 13.15-24.44 29.37v144.84c0 16.22-10.94 29.37-24.44 29.37H826.27"/><path class="cls-33" d="M1058.62 337.45c6.23 0 11.28 5.05 11.28 11.28s-5.05 11.28-11.28 11.28-11.28-5.05-11.28-11.28 5.05-11.28 11.28-11.28ZM826.84 541.03c-6.23 0-11.28 5.05-11.28 11.28s5.05 11.28 11.28 11.28 11.28-5.05 11.28-11.28-5.05-11.28-11.28-11.28Z"/><path class="cls-6" d="M1059.18 348.18h-60.34c-13.5 0-24.44-13.15-24.44-29.37V173.97c0-16.22-10.94-29.37-24.44-29.37H760.35"/><path class="cls-33" d="M1058.62 336.9c6.23 0 11.28 5.05 11.28 11.28s-5.05 11.28-11.28 11.28-11.28-5.05-11.28-11.28 5.05-11.28 11.28-11.28Z"/><circle class="cls-33" cx="760.92" cy="144.59" r="11.28" transform="rotate(-26.57 760.778 144.597)"/></svg>