<svg width="521" height="134" viewBox="0 0 521 134" fill="none" xmlns="http://www.w3.org/2000/svg">
<path d="M60.1743 1.65668L3.83433 34.9063L3.42847 98.379L60.3665 132.638L116.301 98.7826V34.0992L60.1743 1.65668Z" fill="url(#paint0_radial_9_1152)"/>
<path d="M3.97363 98.0709L4.36881 35.8089L59.2775 66.6691L59.8329 131.682L3.97363 98.0709Z" fill="url(#paint1_linear_9_1152)"/>
<path d="M4.8917 36.722L58.7323 66.9769L59.2877 130.736L4.50721 97.7734L4.8917 36.722ZM3.83433 34.9061L3.42847 98.3787L60.3665 132.637L59.7897 66.361L3.83433 34.9061Z" fill="#FEF0F2"/>
<mask id="mask0_9_1152" style="mask-type:alpha" maskUnits="userSpaceOnUse" x="0" y="4" width="122" height="129">
<path fill-rule="evenodd" clip-rule="evenodd" d="M5.5112 77.363C5.5112 107.618 30.1832 132.149 60.6121 132.149C91.041 132.149 115.713 107.618 115.713 77.363H121.224V4.31134H0V77.3523H5.5112V77.363Z" fill="white"/>
</mask>
<g mask="url(#mask0_9_1152)">
<path d="M71.6238 86.7715V90.5839V95.1609H73.4609C91.7139 95.1609 96.7124 107.012 100.547 109.211L20.4641 109.497C24.6509 105.642 29.4891 95.1716 47.7422 95.1716H49.5792V90.5946V86.7822C41.6649 83.0441 35.9722 75.4087 35.0217 66.3609C32.3515 65.9892 30.2901 63.6954 30.2901 60.9343V54.5414C30.2901 51.8228 32.2768 49.5715 34.8828 49.1361V46.3219C34.8828 32.198 46.3964 20.7608 60.5908 20.7608C74.7959 20.7608 86.2988 32.2086 86.2988 46.3219V49.1361C88.9049 49.5715 90.8915 51.8228 90.8915 54.5414V60.9343C90.8915 63.6954 88.8301 65.9786 86.16 66.3609C85.2308 75.3875 79.5381 83.0335 71.6238 86.7715Z" fill="#FEDBB5"/>
<path fill-rule="evenodd" clip-rule="evenodd" d="M49.2373 86.4635C49.515 86.7821 47.742 89.4371 49.5898 90.5841C51.4375 91.7311 58.0701 91.9753 61.2743 91.9753C63.6774 91.9753 69.979 91.3594 71.6238 90.5841C74.3794 89.2778 71.9442 86.8671 72.2967 86.4635C69.477 87.175 64.9805 87.9397 60.4306 87.8972C56.2011 87.876 51.9395 87.1538 49.2373 86.4635Z" fill="#010101" fill-opacity="0.16"/>
<path fill-rule="evenodd" clip-rule="evenodd" d="M60.3772 132.626L20.4746 109.487C23.9458 103.455 28.2821 96.4247 45.4778 95.2565C45.4671 95.4264 45.4564 95.5964 45.4564 95.7663C45.4564 101.182 52.3454 105.568 60.8364 105.568C69.3275 105.568 76.2164 101.182 76.2164 95.7663C76.2164 95.607 76.2058 95.4477 76.1951 95.2884C93.1771 96.6689 97.7698 105.865 100.547 109.2L63.8697 130.513" fill="#DEDEDE"/>
<mask id="mask1_9_1152" style="mask-type:alpha" maskUnits="userSpaceOnUse" x="14" y="95" width="93" height="38">
<path fill-rule="evenodd" clip-rule="evenodd" d="M76.1949 95.2978C93.1769 96.6784 106.517 110.824 106.517 128.059V132.148H14.6855V128.059C14.6855 110.664 28.2712 96.4235 45.4669 95.266C45.4562 95.4359 45.4455 95.6058 45.4455 95.7757C45.4455 101.192 52.3345 105.578 60.8255 105.578C69.3166 105.578 76.2056 101.192 76.2056 95.7757C76.2162 95.6164 76.2162 95.4571 76.1949 95.2978Z" fill="white"/>
</mask>
<g mask="url(#mask1_9_1152)">
<g opacity="0.6">
<g opacity="0.6">
<path opacity="0.6" d="M60.8364 108.755C70.8878 108.755 79.0361 103.253 79.0361 96.4675C79.0361 89.6816 70.8878 84.1805 60.8364 84.1805C50.785 84.1805 42.6367 89.6816 42.6367 96.4675C42.6367 103.253 50.785 108.755 60.8364 108.755Z" fill="#ADADAD"/>
</g>
</g>
</g>
</g>
<path d="M53.4563 73.0087C53.4563 75.4508 56.2546 77.0966 59.8219 77.0966C63.3892 77.0966 66.1875 75.4508 66.1875 73.0087C66.1875 72.5096 65.7602 72.0955 65.2796 72.0955C64.6922 72.0955 64.4252 72.5096 64.3718 73.0087C63.8057 74.3465 62.4066 75.1535 59.8219 75.2809C57.2372 75.1535 55.8381 74.3465 55.272 73.0087C55.2079 72.5096 54.9516 72.0955 54.3642 72.0955C53.8942 72.0955 53.4563 72.5096 53.4563 73.0087Z" fill="#010101" fill-opacity="0.6"/>
<path fill-rule="evenodd" clip-rule="evenodd" d="M54.375 63.9186C54.375 65.9253 56.8209 67.5497 59.8328 67.5497C62.8448 67.5497 65.2906 65.9253 65.2906 63.9186" fill="#010101" fill-opacity="0.16"/>
<path d="M47.9983 58.4604C49.5043 58.4604 50.7325 57.2392 50.7325 55.7312C50.7325 54.2232 49.515 53.0019 47.9983 53.0019C46.4817 53.0019 45.2642 54.2232 45.2642 55.7312C45.2748 57.2392 46.4924 58.4604 47.9983 58.4604Z" fill="#010101" fill-opacity="0.6"/>
<path d="M71.6559 58.4604C73.1618 58.4604 74.3901 57.2392 74.3901 55.7312C74.3901 54.2232 73.1725 53.0019 71.6559 53.0019C70.1499 53.0019 68.9216 54.2232 68.9216 55.7312C68.9323 57.2392 70.1499 58.4604 71.6559 58.4604Z" fill="#010101" fill-opacity="0.6"/>
<path fill-rule="evenodd" clip-rule="evenodd" d="M46.4285 44.8991C43.7904 45.0159 39.5182 46.9377 39.625 49.6029C39.625 49.6878 39.7532 49.7303 39.8173 49.6559C41.0669 48.3075 49.9745 46.9484 53.1039 47.6704C53.3923 47.7341 53.6059 47.458 53.4243 47.2457C51.8756 45.5043 48.7996 44.7823 46.4285 44.8991Z" fill="#010101" fill-opacity="0.6"/>
<path fill-rule="evenodd" clip-rule="evenodd" d="M73.6852 44.8991C76.3232 45.0159 80.5954 46.9377 80.4886 49.6029C80.4886 49.6878 80.3605 49.7303 80.2964 49.6559C79.0468 48.3075 70.1392 46.9484 67.0098 47.6704C66.7215 47.7341 66.5079 47.458 66.6894 47.2457C68.2381 45.5043 71.3141 44.7823 73.6852 44.8991Z" fill="#010101" fill-opacity="0.6"/>
<mask id="mask2_9_1152" style="mask-type:alpha" maskUnits="userSpaceOnUse" x="0" y="4" width="121" height="128">
<path d="M120.712 4.52386H0.598877V131.809H120.712V4.52386Z" fill="white"/>
</mask>
<g mask="url(#mask2_9_1152)">
<path fill-rule="evenodd" clip-rule="evenodd" d="M31.5505 39.1656C37.4355 24.1279 43.6622 16.6091 50.2201 16.6091C50.4657 16.6091 63.528 16.5029 72.0831 16.4498C81.482 20.7084 87.9545 29.6715 87.9545 40.0364V46.8012H50.2201L48.9491 36.2664L47.1868 46.8012H31.5505V40.0364C31.5398 39.7497 31.5398 39.4523 31.5505 39.1656Z" fill="#010101" fill-opacity="0.16"/>
<mask id="mask3_9_1152" style="mask-type:alpha" maskUnits="userSpaceOnUse" x="18" y="13" width="85" height="81">
<path fill-rule="evenodd" clip-rule="evenodd" d="M86.0747 44.5274C86.1174 45.1327 86.1388 45.738 86.1388 46.3434V63.6213C86.1388 73.7735 80.1897 82.5452 71.5812 86.6231V90.5841C79.8373 91.2638 87.837 92.4107 92.5044 93.6213C97.0329 87.462 102.918 81.7062 102.971 70.439C103.014 61.8053 90.379 26.9947 84.7717 19.9858C81.0655 15.3557 71.7201 13.8265 60.655 13.6247C49.6006 13.423 40.5969 16.1309 36.9975 20.4424C32.1379 26.2619 18.3065 61.8159 18.3492 70.4496C18.4026 81.7275 24.2876 87.4726 28.8162 93.6319C33.4942 92.4213 41.494 91.2744 49.7394 90.5947V86.6337C41.1309 82.5452 35.1818 73.7841 35.1818 63.6319V46.3434C35.1818 45.7274 35.2032 45.1221 35.2459 44.5274H48.0946L49.8569 34.7787L51.1279 44.5274H86.0747V44.5274Z" fill="white"/>
</mask>
<g mask="url(#mask3_9_1152)">
<path fill-rule="evenodd" clip-rule="evenodd" d="M86.0747 44.5274C86.1174 45.1327 86.1388 45.738 86.1388 46.3434V63.6213C86.1388 73.7735 80.1897 82.5452 71.5812 86.6231V90.5841C79.8373 91.2638 87.837 92.4107 92.5044 93.6213C97.0329 87.462 102.918 81.7062 102.971 70.439C103.014 61.8053 90.3789 26.9947 84.7717 19.9858C81.0655 15.3557 71.72 13.8265 60.655 13.6247C49.6006 13.423 40.5969 16.1309 36.9975 20.4424C32.1379 26.2619 18.3065 61.8159 18.3492 70.4496C18.4026 81.7275 24.2876 87.4726 28.8162 93.6319C33.4942 92.4213 41.494 91.2744 49.7394 90.5947V86.6337C41.1309 82.5452 35.1818 73.7841 35.1818 63.6319V46.3434C35.1818 45.7274 35.2032 45.1221 35.2459 44.5274H48.0946L49.8569 34.7787L51.1279 44.5274H86.0747V44.5274Z" fill="#E6E6E5"/>
<path d="M137.256 13.4767H17.1426V140.762H137.256V13.4767Z" fill="#E2623A"/>
</g>
</g>
<path d="M60.1743 1.65668L3.83433 34.9063L3.42847 98.379L60.3665 132.638L116.301 98.7826V34.0992L60.1743 1.65668Z" stroke="#005087" stroke-width="2"/>
<path d="M116.311 68.3046C118.081 68.3046 119.515 66.8782 119.515 65.1186C119.515 63.3591 118.081 61.9327 116.311 61.9327C114.542 61.9327 113.107 63.3591 113.107 65.1186C113.107 66.8782 114.542 68.3046 116.311 68.3046Z" fill="#0071BB" stroke="#005087" stroke-miterlimit="10"/>
<path d="M119.515 65.1185H201.98" stroke="#005087" stroke-miterlimit="10"/>
<path d="M261.791 1.65668L205.451 34.9063L205.045 98.3791L261.983 132.638L317.917 98.7826V34.0992L261.791 1.65668Z" fill="url(#paint2_radial_9_1152)"/>
<path d="M205.579 98.0709L205.975 35.8088L260.883 66.669L261.449 131.682L205.579 98.0709Z" fill="url(#paint3_linear_9_1152)"/>
<path d="M206.508 36.7219L260.349 66.9769L260.904 130.736L206.124 97.7734L206.508 36.7219ZM205.451 34.906L205.045 98.3787L261.983 132.637L261.406 66.3609L205.451 34.906Z" fill="#FEF0F2"/>
<path d="M261.791 1.65668L205.451 34.9063L205.045 98.3791L261.983 132.638L317.917 98.7826V34.0992L261.791 1.65668Z" stroke="#005087" stroke-width="2"/>
<path fill-rule="evenodd" clip-rule="evenodd" d="M307.408 93.791H216.27C213.75 93.791 211.699 91.7627 211.699 89.2565V45.2813C211.699 42.7751 213.75 40.7468 216.27 40.7468H307.408C309.928 40.7468 311.979 42.7751 311.979 45.2813V89.2565C311.979 91.7627 309.939 93.791 307.408 93.791Z" fill="white"/>
<path d="M307.408 93.791H216.27C213.75 93.791 211.699 91.7627 211.699 89.2565V45.2813C211.699 42.7751 213.75 40.7468 216.27 40.7468H307.408C309.928 40.7468 311.979 42.7751 311.979 45.2813V89.2565C311.979 91.7627 309.939 93.791 307.408 93.791Z" stroke="#112E51"/>
<path fill-rule="evenodd" clip-rule="evenodd" d="M303.627 53.7028H260.456C259.431 53.7028 258.608 52.8851 258.608 51.8656V49.0088C258.608 47.9999 259.441 47.1716 260.456 47.1716H303.627C304.652 47.1716 305.474 47.9893 305.474 49.0088V51.8656C305.474 52.8745 304.652 53.7028 303.627 53.7028Z" fill="#5C5C5C"/>
<path fill-rule="evenodd" clip-rule="evenodd" d="M303.413 87.2181H292.177C291.152 87.2181 290.329 86.4004 290.329 85.3809V72.4566C290.329 71.4477 291.162 70.6194 292.177 70.6194H303.413C304.438 70.6194 305.261 71.4371 305.261 72.4566V85.3809C305.272 86.3898 304.438 87.2181 303.413 87.2181Z" fill="#5C5C5C"/>
<path fill-rule="evenodd" clip-rule="evenodd" d="M278.293 61.1039H260.499C259.474 61.1039 258.651 60.2863 258.651 59.2669C258.651 58.2476 259.484 57.43 260.499 57.43H278.293C279.318 57.43 280.14 58.2476 280.14 59.2669C280.14 60.2863 279.318 61.1039 278.293 61.1039Z" fill="#5C5C5C"/>
<path fill-rule="evenodd" clip-rule="evenodd" d="M303.573 61.1039H285.779C284.754 61.1039 283.932 60.2863 283.932 59.2669C283.932 58.2476 284.765 57.43 285.779 57.43H303.573C304.599 57.43 305.421 58.2476 305.421 59.2669C305.421 60.2863 304.599 61.1039 303.573 61.1039Z" fill="#5C5C5C"/>
<path fill-rule="evenodd" clip-rule="evenodd" d="M285.747 68.4526H260.445C259.42 68.4526 258.597 67.635 258.597 66.6156C258.597 65.5963 259.431 64.7787 260.445 64.7787H285.747C286.773 64.7787 287.595 65.5963 287.595 66.6156C287.595 67.635 286.762 68.4526 285.747 68.4526Z" fill="#5C5C5C"/>
<path fill-rule="evenodd" clip-rule="evenodd" d="M281.913 75.7905H260.435C259.409 75.7905 258.587 74.973 258.587 73.9537C258.587 72.9344 259.42 72.1168 260.435 72.1168H281.913C282.939 72.1168 283.761 72.9344 283.761 73.9537C283.761 74.973 282.939 75.7905 281.913 75.7905Z" fill="#5C5C5C"/>
<path fill-rule="evenodd" clip-rule="evenodd" d="M267.441 83.1711H260.36C259.335 83.1711 258.512 82.3535 258.512 81.3342C258.512 80.3255 259.345 79.4973 260.36 79.4973H267.441C268.467 79.4973 269.289 80.3149 269.289 81.3342C269.3 82.3429 268.467 83.1711 267.441 83.1711Z" fill="#5C5C5C"/>
<path fill-rule="evenodd" clip-rule="evenodd" d="M282.052 83.0862H274.971C273.946 83.0862 273.123 82.2686 273.123 81.2492C273.123 80.2405 273.956 79.4122 274.971 79.4122H282.052C283.078 79.4122 283.9 80.2299 283.9 81.2492C283.911 82.258 283.078 83.0862 282.052 83.0862Z" fill="#5C5C5C"/>
<path fill-rule="evenodd" clip-rule="evenodd" d="M239.501 77.6805C244.606 78.0947 248.622 82.3745 248.622 87.5782V88.8101H221.002V87.5782C221.002 82.3214 225.093 78.0204 230.262 77.6699C230.262 77.723 230.251 77.7761 230.251 77.8292C230.251 79.4647 232.323 80.7921 234.876 80.7921C237.429 80.7921 239.501 79.4647 239.501 77.8292C239.511 77.7761 239.501 77.7336 239.501 77.6805Z" fill="#F0F0F0"/>
<path d="M253.044 73.6459H216.58V88.8215H253.044V73.6459Z" fill="white"/>
<g opacity="0.6">
<g opacity="0.6">
<path opacity="0.6" d="M234.876 81.7496C237.899 81.7496 240.355 80.0823 240.355 78.0327C240.355 75.9831 237.909 74.3158 234.876 74.3158C231.843 74.3158 229.397 75.9831 229.397 78.0327C229.408 80.0929 231.853 81.7496 234.876 81.7496Z" fill="#010101" fill-opacity="0.16"/>
</g>
</g>
<path fill-rule="evenodd" clip-rule="evenodd" d="M248.942 88.0883H220.361C219.101 88.0883 218.076 87.0688 218.076 85.8264V49.582C218.076 48.3289 219.101 47.3201 220.361 47.3201H248.942C250.203 47.3201 251.228 48.3395 251.228 49.582V85.8264C251.228 87.0688 250.203 88.0883 248.942 88.0883Z" fill="#EBF3FA"/>
<path d="M238.123 75.1113V77.6494H238.679C243.771 78.2155 248.12 81.3782 248.12 86.8685L248.56 87.9501L221.524 87.2293L221.484 86.8685C221.484 81.3782 225.289 78.2155 230.946 77.6494H231.501V75.1113C229.12 73.9856 227.411 71.6706 227.122 68.9414C226.321 68.8245 225.702 68.1343 225.702 67.306V65.3732C225.702 64.5555 226.3 63.8758 227.08 63.7378V62.8882C227.08 58.6192 230.54 55.1572 234.812 55.1572C239.085 55.1572 242.545 58.6192 242.545 62.8882V63.7378C243.325 63.8652 243.923 64.5555 243.923 65.3732V67.306C243.923 68.1449 243.303 68.8352 242.502 68.9414C242.214 71.6706 240.505 73.975 238.123 75.1113Z" fill="#FEDBB5"/>
<path fill-rule="evenodd" clip-rule="evenodd" d="M231.48 75.1113C231.501 75.5155 231.48 75.2709 231.501 76.175C231.512 76.7175 233.958 76.6856 234.887 76.6856C235.581 76.6856 238.091 76.6324 238.134 76.175C238.176 75.7283 238.134 75.4092 238.134 75.1113C237.322 75.2922 236.019 75.473 234.716 75.4624C233.488 75.4517 232.259 75.2709 231.48 75.1113Z" fill="#010101" fill-opacity="0.16"/>
<path d="M232.879 70.8852C232.879 71.6299 233.734 72.1299 234.812 72.1299C235.891 72.1299 236.746 71.6299 236.746 70.8852C236.746 70.7363 236.617 70.6086 236.468 70.6086C236.286 70.6086 236.212 70.7363 236.19 70.8852C236.019 71.2895 235.592 71.5342 234.812 71.5767C234.033 71.5342 233.605 71.2895 233.435 70.8852C233.413 70.7363 233.338 70.6086 233.157 70.6086C233.007 70.6086 232.879 70.7257 232.879 70.8852Z" fill="#010101" fill-opacity="0.6"/>
<path fill-rule="evenodd" clip-rule="evenodd" d="M233.157 68.1237C233.157 68.7302 233.894 69.2303 234.813 69.2303C235.731 69.2303 236.468 68.7302 236.468 68.1237" fill="#010101" fill-opacity="0.16"/>
<path d="M231.224 66.4713C231.683 66.4713 232.057 66.0986 232.057 65.6408C232.057 65.183 231.683 64.8104 231.224 64.8104C230.764 64.8104 230.391 65.183 230.391 65.6408C230.391 66.0986 230.764 66.4713 231.224 66.4713Z" fill="#010101" fill-opacity="0.6"/>
<path d="M238.401 66.4713C238.86 66.4713 239.234 66.0986 239.234 65.6408C239.234 65.183 238.86 64.8104 238.401 64.8104C237.941 64.8104 237.568 65.183 237.568 65.6408C237.578 66.0986 237.941 66.4713 238.401 66.4713Z" fill="#010101" fill-opacity="0.6"/>
<path fill-rule="evenodd" clip-rule="evenodd" d="M230.743 62.3467C229.942 62.3786 228.65 62.9637 228.682 63.7722C228.682 63.7934 228.724 63.8147 228.746 63.7934C229.13 63.3892 231.833 62.9743 232.783 63.1871C232.869 63.2083 232.933 63.1232 232.879 63.0594C232.399 62.5275 231.459 62.3148 230.743 62.3467Z" fill="#010101" fill-opacity="0.6"/>
<path fill-rule="evenodd" clip-rule="evenodd" d="M239.02 62.3467C239.821 62.3786 241.114 62.9637 241.082 63.7722C241.082 63.7934 241.039 63.8147 241.017 63.7934C240.633 63.3892 237.931 62.9743 236.98 63.1871C236.895 63.2083 236.831 63.1232 236.884 63.0594C237.365 62.5275 238.294 62.3148 239.02 62.3467Z" fill="#010101" fill-opacity="0.6"/>
<path fill-rule="evenodd" clip-rule="evenodd" d="M225.979 60.702C227.763 56.1355 229.654 53.8522 231.64 53.8522C231.715 53.8522 235.677 53.8204 238.273 53.7991C241.124 55.0947 243.09 57.8134 243.09 60.9569V63.0065H231.629L231.245 59.8099L230.711 63.0065H225.969V60.9569C225.969 60.8719 225.979 60.7869 225.979 60.702Z" fill="#010101" fill-opacity="0.16"/>
<mask id="mask4_9_1152" style="mask-type:alpha" maskUnits="userSpaceOnUse" x="221" y="52" width="27" height="26">
<path fill-rule="evenodd" clip-rule="evenodd" d="M242.524 62.3257C242.535 62.5062 242.545 62.6974 242.545 62.8779V68.1241C242.545 71.2039 240.74 73.8694 238.123 75.1119V76.312C240.633 76.5138 243.058 76.8642 244.478 77.2359C245.856 75.3668 247.64 73.6252 247.65 70.195C247.661 67.5719 243.827 57.0052 242.129 54.8812C241.007 53.4794 238.166 53.0122 234.812 52.9484C231.459 52.8847 228.725 53.7131 227.635 55.0193C226.161 56.7822 221.964 67.5825 221.974 70.195C221.985 73.6146 223.779 75.3562 225.146 77.2359C226.567 76.8642 228.992 76.5244 231.501 76.312V75.1119C228.885 73.8694 227.08 71.2145 227.08 68.1241V62.8779C227.08 62.6974 227.09 62.5062 227.101 62.3257H230.999L231.534 59.3628L231.918 62.3257H242.524V62.3257Z" fill="white"/>
</mask>
<g mask="url(#mask4_9_1152)">
<path fill-rule="evenodd" clip-rule="evenodd" d="M242.524 62.3261C242.535 62.5067 242.545 62.6978 242.545 62.8784V68.1246C242.545 71.2043 240.74 73.8699 238.123 75.1124V76.3125C240.633 76.5142 243.058 76.8647 244.478 77.2364C245.856 75.3673 247.64 73.6256 247.65 70.1954C247.661 67.5723 243.827 57.0056 242.129 54.8816C241.007 53.4798 238.166 53.0125 234.812 52.9488C231.459 52.8851 228.725 53.7134 227.635 55.0197C226.161 56.7826 221.964 67.583 221.974 70.1954C221.985 73.615 223.779 75.3567 225.146 77.2364C226.567 76.8647 228.992 76.5249 231.501 76.3125V75.1124C228.885 73.8699 227.08 71.2149 227.08 68.1246V62.8784C227.08 62.6978 227.09 62.5067 227.101 62.3261H230.999L231.534 59.3632L231.918 62.3261H242.524V62.3261Z" fill="#E6E6E5"/>
<path d="M258.533 52.822H222.07V91.4557H258.533V52.822Z" fill="#E2623A"/>
</g>
<path fill-rule="evenodd" clip-rule="evenodd" d="M239.49 77.6706C244.595 78.0635 248.686 82.0779 248.686 86.963V88.0887H221.066V86.963C221.066 82.0354 225.146 77.9573 230.326 77.6281C230.326 77.6812 230.326 77.7768 230.326 77.8193C230.326 79.3485 232.398 80.6017 234.951 80.6017C237.503 80.6017 239.458 79.4654 239.458 77.9361C239.458 77.883 239.49 77.7131 239.49 77.6706Z" fill="#DEDEDE"/>
<path fill-rule="evenodd" clip-rule="evenodd" d="M301.405 99.5683L307.461 93.7699L312.524 99.5683L320.78 90.9449H323.952L327.295 96L323.952 100.63L311.253 111.473L301.405 99.5683Z" fill="white"/>
<path fill-rule="evenodd" clip-rule="evenodd" d="M314.713 115.371C323.493 115.371 330.606 108.298 330.606 99.5685C330.606 90.839 323.493 83.7662 314.713 83.7662C305.934 83.7662 298.821 90.839 298.821 99.5685C298.821 108.298 305.944 115.371 314.713 115.371ZM324.667 96.2127L312.876 107.937C312.481 108.33 311.829 108.33 311.424 107.937L304.759 101.31C304.353 100.907 304.353 100.269 304.759 99.8659L306.211 98.4216C306.607 98.0286 307.258 98.0286 307.664 98.4216L312.15 102.882L321.762 93.3241C322.168 92.9311 322.809 92.9311 323.215 93.3241L324.667 94.7684C325.073 95.1719 325.073 95.8091 324.667 96.2127Z" fill="#65BB61"/>
<path d="M205.184 68.3046C206.954 68.3046 208.388 66.8782 208.388 65.1186C208.388 63.3591 206.954 61.9327 205.184 61.9327C203.414 61.9327 201.98 63.3591 201.98 65.1186C201.98 66.8782 203.414 68.3046 205.184 68.3046Z" fill="#0071BB" stroke="#005087" stroke-miterlimit="10"/>
<path d="M463.397 1.65668L407.057 34.9063L406.651 98.379L463.589 132.638L519.523 98.7826V34.0992L463.397 1.65668Z" fill="url(#paint4_radial_9_1152)"/>
<path d="M407.196 98.0709L407.591 35.8089L462.49 66.6691L463.056 131.682L407.196 98.0709Z" fill="url(#paint5_linear_9_1152)"/>
<path d="M408.115 36.722L461.955 66.9769L462.511 130.736L407.719 97.7734L408.115 36.722ZM407.057 34.9061L406.651 98.3787L463.589 132.637L463.013 66.361L407.057 34.9061Z" fill="#FEF0F2"/>
<path d="M463.397 1.65668L407.057 34.9063L406.651 98.379L463.589 132.638L519.523 98.7826V34.0992L463.397 1.65668Z" stroke="#005087" stroke-width="2"/>
<path d="M504.186 100.662H423.014C417.118 100.662 412.333 95.9045 412.333 90.0425V42.6477C412.333 36.7858 417.118 32.0283 423.014 32.0283H504.186C510.082 32.0283 514.867 36.7858 514.867 42.6477V90.0425C514.867 95.9045 510.082 100.662 504.186 100.662Z" fill="white" stroke="#112E51" stroke-width="3"/>
<path d="M513.329 58.9814H413.989V44.2517C413.434 36.6903 418.71 32.9309 424.67 33.6318H502.648C509.441 33.0159 513.98 38.4001 513.329 44.2517V58.9814Z" fill="#ECF3FB"/>
<path d="M463.6 70.3229C471.103 70.3229 477.186 64.275 477.186 56.8145C477.186 49.3541 471.103 43.3062 463.6 43.3062C456.097 43.3062 450.014 49.3541 450.014 56.8145C450.014 64.275 456.097 70.3229 463.6 70.3229Z" fill="#112E51"/>
<path d="M463.6 70.3229C471.103 70.3229 477.186 64.275 477.186 56.8145C477.186 49.3541 471.103 43.3062 463.6 43.3062C456.097 43.3062 450.014 49.3541 450.014 56.8145C450.014 64.275 456.097 70.3229 463.6 70.3229Z" stroke="#112E51" stroke-width="2" stroke-miterlimit="10" stroke-linecap="round" stroke-dasharray="2 2"/>
<path d="M463.6 48.1803L466.185 53.3947L471.974 54.223L467.787 58.2904L468.769 64.0145L463.6 61.3065L458.42 64.0145L459.413 58.2904L455.227 54.223L461.015 53.3947L463.6 48.1803Z" fill="white" stroke="#112E51" stroke-miterlimit="10" stroke-linecap="round" stroke-linejoin="round"/>
<path d="M476.384 82.0173H451.819C451.232 82.0173 450.751 81.539 450.751 80.9543V79.8912C450.751 79.3066 451.232 78.8282 451.819 78.8282H476.384C476.972 78.8282 477.452 79.3066 477.452 79.8912V80.9543C477.452 81.539 476.972 82.0173 476.384 82.0173Z" fill="#C8D3DF"/>
<path d="M474.783 87.6777H453.422C452.834 87.6777 452.354 87.1993 452.354 86.6146V85.5515C452.354 84.9668 452.834 84.4885 453.422 84.4885H474.783C475.37 84.4885 475.851 84.9668 475.851 85.5515V86.6146C475.851 87.1993 475.37 87.6777 474.783 87.6777Z" fill="#C8D3DF"/>
<path d="M406.651 68.3046C408.421 68.3046 409.855 66.8782 409.855 65.1186C409.855 63.3591 408.421 61.9327 406.651 61.9327C404.882 61.9327 403.447 63.3591 403.447 65.1186C403.447 66.8782 404.882 68.3046 406.651 68.3046Z" fill="#0071BB" stroke="#005087" stroke-miterlimit="10"/>
<path d="M321.121 65.1941L403.447 65.1185" stroke="#005087" stroke-miterlimit="10"/>
<path d="M317.918 68.3789C319.687 68.3789 321.122 66.9525 321.122 65.193C321.122 63.4335 319.687 62.0071 317.918 62.0071C316.148 62.0071 314.713 63.4335 314.713 65.193C314.713 66.9525 316.148 68.3789 317.918 68.3789Z" fill="#0071BB" stroke="#005087" stroke-miterlimit="10"/>
<defs>
<radialGradient id="paint0_radial_9_1152" cx="0" cy="0" r="1" gradientUnits="userSpaceOnUse" gradientTransform="translate(59.8722 67.1493) rotate(90) scale(65.485 56.4373)">
<stop stop-color="white"/>
<stop offset="1" stop-color="#FFF0F3"/>
</radialGradient>
<linearGradient id="paint1_linear_9_1152" x1="3.9715" y1="83.748" x2="59.8358" y2="83.748" gradientUnits="userSpaceOnUse">
<stop stop-color="white" stop-opacity="0.5"/>
<stop offset="1" stop-color="#FEF0F2"/>
</linearGradient>
<radialGradient id="paint2_radial_9_1152" cx="0" cy="0" r="1" gradientUnits="userSpaceOnUse" gradientTransform="translate(261.493 67.1493) rotate(90) scale(65.4851 56.4373)">
<stop stop-color="white"/>
<stop offset="1" stop-color="#FFF0F3"/>
</radialGradient>
<linearGradient id="paint3_linear_9_1152" x1="205.582" y1="83.7479" x2="261.447" y2="83.7479" gradientUnits="userSpaceOnUse">
<stop stop-color="white" stop-opacity="0.5"/>
<stop offset="1" stop-color="#FEF0F2"/>
</linearGradient>
<radialGradient id="paint4_radial_9_1152" cx="0" cy="0" r="1" gradientUnits="userSpaceOnUse" gradientTransform="translate(463.098 67.1493) rotate(90) scale(65.485 56.4372)">
<stop stop-color="white"/>
<stop offset="1" stop-color="#FFF0F3"/>
</radialGradient>
<linearGradient id="paint5_linear_9_1152" x1="407.192" y1="83.748" x2="463.057" y2="83.748" gradientUnits="userSpaceOnUse">
<stop stop-color="white" stop-opacity="0.5"/>
<stop offset="1" stop-color="#FEF0F2"/>
</linearGradient>
</defs>
</svg>
