<svg width="521" height="194" viewBox="0 0 521 194" fill="none" xmlns="http://www.w3.org/2000/svg">
<path d="M182.686 177.428H185.014V188.996H182.686V177.428ZM190.166 189.156C189.056 189.156 188.192 188.775 187.574 188.012C186.955 187.244 186.646 186.178 186.646 184.812C186.646 183.516 186.928 182.484 187.494 181.716C188.059 180.948 188.872 180.564 189.934 180.564C190.526 180.564 191.04 180.69 191.478 180.94C191.915 181.191 192.232 181.492 192.43 181.844V177.108H194.774V188.996H193.078L192.814 187.3C192.712 187.604 192.558 187.898 192.35 188.18C192.147 188.463 191.867 188.698 191.51 188.884C191.158 189.066 190.71 189.156 190.166 189.156ZM190.678 187.476C191.27 187.476 191.71 187.271 191.998 186.86C192.286 186.45 192.43 185.756 192.43 184.78C192.419 183.1 191.84 182.26 190.694 182.26C190.187 182.26 189.766 182.455 189.43 182.844C189.094 183.228 188.926 183.874 188.926 184.78C188.926 185.703 189.083 186.383 189.398 186.82C189.712 187.258 190.139 187.476 190.678 187.476ZM198.701 185.396C198.696 186.031 198.848 186.535 199.157 186.908C199.466 187.282 199.901 187.468 200.461 187.468C200.861 187.468 201.21 187.383 201.509 187.212C201.813 187.042 202.024 186.762 202.141 186.372H204.245C204.154 186.959 203.92 187.46 203.541 187.876C203.168 188.292 202.714 188.61 202.181 188.828C201.648 189.047 201.093 189.156 200.517 189.156C199.696 189.156 198.976 188.986 198.357 188.644C197.738 188.298 197.256 187.81 196.909 187.18C196.562 186.551 196.389 185.81 196.389 184.956C196.389 184.13 196.546 183.386 196.861 182.724C197.176 182.058 197.632 181.532 198.229 181.148C198.832 180.759 199.554 180.564 200.397 180.564C201.24 180.564 201.946 180.743 202.517 181.1C203.093 181.452 203.525 181.946 203.813 182.58C204.106 183.21 204.253 183.938 204.253 184.764V185.396H198.701ZM198.693 184.004H202.069C202.069 183.503 201.93 183.076 201.653 182.724C201.376 182.372 200.957 182.196 200.397 182.196C200.034 182.196 199.725 182.284 199.469 182.46C199.218 182.636 199.026 182.863 198.893 183.14C198.76 183.412 198.693 183.7 198.693 184.004ZM205.875 188.996V180.724H208.171V181.892C208.363 181.594 208.648 181.314 209.027 181.052C209.405 180.786 209.92 180.652 210.571 180.652C211.077 180.652 211.549 180.751 211.987 180.948C212.429 181.146 212.787 181.458 213.059 181.884C213.331 182.306 213.467 182.858 213.467 183.54V188.996H211.131V183.828C211.131 183.38 210.995 183.044 210.723 182.82C210.456 182.596 210.133 182.484 209.755 182.484C209.371 182.484 209.016 182.586 208.691 182.788C208.371 182.991 208.211 183.295 208.211 183.7V188.996H205.875ZM220.024 182.348H218.184L218.2 186.756C218.2 187.06 218.259 187.252 218.376 187.332C218.493 187.407 218.68 187.444 218.936 187.444H220.048V188.884C219.936 188.932 219.768 188.978 219.544 189.02C219.32 189.063 219.005 189.084 218.6 189.084C217.875 189.084 217.312 188.991 216.912 188.804C216.517 188.618 216.243 188.356 216.088 188.02C215.933 187.684 215.856 187.295 215.856 186.852V182.348H214.512V180.724H215.936L216.52 178.228H218.184V180.716H220.024V182.348ZM224.126 177.436V179.54H221.854V177.436H224.126ZM224.102 180.724V188.996H221.87V180.724H224.102ZM231.259 182.348H229.419L229.435 186.756C229.435 187.06 229.493 187.252 229.611 187.332C229.728 187.407 229.915 187.444 230.171 187.444H231.283V188.884C231.171 188.932 231.003 188.978 230.779 189.02C230.555 189.063 230.24 189.084 229.835 189.084C229.109 189.084 228.547 188.991 228.147 188.804C227.752 188.618 227.477 188.356 227.323 188.02C227.168 187.684 227.091 187.295 227.091 186.852V182.348H225.747V180.724H227.171L227.755 178.228H229.419V180.716H231.259V182.348ZM234.303 191.636C233.738 191.636 233.338 191.588 233.103 191.492C232.874 191.402 232.759 191.356 232.759 191.356V189.868L233.575 189.9C234.055 189.927 234.41 189.89 234.639 189.788C234.874 189.692 235.031 189.575 235.111 189.436C235.197 189.298 235.255 189.188 235.287 189.108L235.439 188.652L232.223 180.724H234.535L236.519 186.116L238.527 180.724H240.807L237.455 189.044C237.167 189.748 236.861 190.287 236.535 190.66C236.215 191.034 235.871 191.29 235.503 191.428C235.135 191.567 234.735 191.636 234.303 191.636ZM252.362 180.724L249.258 188.996H247.57L244.458 180.724H246.57L248.378 185.996H248.442L250.226 180.724H252.362ZM255.123 185.396C255.118 186.031 255.27 186.535 255.579 186.908C255.888 187.282 256.323 187.468 256.883 187.468C257.283 187.468 257.632 187.383 257.931 187.212C258.235 187.042 258.446 186.762 258.563 186.372H260.667C260.576 186.959 260.342 187.46 259.963 187.876C259.59 188.292 259.136 188.61 258.603 188.828C258.07 189.047 257.515 189.156 256.939 189.156C256.118 189.156 255.398 188.986 254.779 188.644C254.16 188.298 253.678 187.81 253.331 187.18C252.984 186.551 252.811 185.81 252.811 184.956C252.811 184.13 252.968 183.386 253.283 182.724C253.598 182.058 254.054 181.532 254.651 181.148C255.254 180.759 255.976 180.564 256.819 180.564C257.662 180.564 258.368 180.743 258.939 181.1C259.515 181.452 259.947 181.946 260.235 182.58C260.528 183.21 260.675 183.938 260.675 184.764V185.396H255.123ZM255.115 184.004H258.491C258.491 183.503 258.352 183.076 258.075 182.724C257.798 182.372 257.379 182.196 256.819 182.196C256.456 182.196 256.147 182.284 255.891 182.46C255.64 182.636 255.448 182.863 255.315 183.14C255.182 183.412 255.115 183.7 255.115 184.004ZM262.297 188.996V180.724H264.545V182.684C264.742 182.05 265.065 181.538 265.513 181.148C265.961 180.759 266.513 180.564 267.169 180.564C267.345 180.564 267.465 180.58 267.529 180.612V182.836C267.481 182.82 267.422 182.81 267.353 182.804C267.289 182.794 267.23 182.786 267.177 182.78C266.254 182.7 265.598 182.823 265.209 183.148C264.825 183.474 264.633 183.914 264.633 184.468V188.996H262.297ZM271.173 177.436V179.54H268.901V177.436H271.173ZM271.149 180.724V188.996H268.917V180.724H271.149ZM278.313 180.724V182.348H276.569V188.996H274.233V182.348H272.705V180.724H274.233V179.532C274.233 178.866 274.428 178.348 274.817 177.98C275.212 177.612 275.769 177.428 276.489 177.428H278.385L278.393 178.98H277.305C277.007 178.98 276.801 179.055 276.689 179.204C276.583 179.348 276.529 179.588 276.529 179.924V180.724H278.313ZM282.057 177.436V179.54H279.785V177.436H282.057ZM282.033 180.724V188.996H279.801V180.724H282.033ZM287.7 180.564C288.393 180.564 288.991 180.706 289.492 180.988C289.999 181.271 290.396 181.652 290.684 182.132C290.977 182.612 291.145 183.148 291.188 183.74H289.244C289.191 183.41 289.041 183.095 288.796 182.796C288.556 182.492 288.196 182.34 287.716 182.34C287.172 182.34 286.729 182.551 286.388 182.972C286.052 183.388 285.884 184.023 285.884 184.876C285.884 185.687 286.049 186.327 286.38 186.796C286.711 187.266 287.172 187.5 287.764 187.5C288.079 187.5 288.34 187.423 288.548 187.268C288.761 187.114 288.927 186.93 289.044 186.716C289.161 186.498 289.236 186.295 289.268 186.108H291.164C291.127 186.679 290.961 187.196 290.668 187.66C290.375 188.119 289.975 188.484 289.468 188.756C288.967 189.023 288.377 189.156 287.7 189.156C286.932 189.156 286.247 188.986 285.644 188.644C285.041 188.303 284.567 187.815 284.22 187.18C283.879 186.54 283.708 185.778 283.708 184.892C283.708 184.039 283.873 183.287 284.204 182.636C284.535 181.986 284.999 181.479 285.596 181.116C286.193 180.748 286.895 180.564 287.7 180.564ZM295.15 189.156C294.355 189.156 293.691 188.938 293.158 188.5C292.624 188.063 292.358 187.439 292.358 186.628C292.358 185.722 292.694 185.034 293.366 184.564C294.043 184.09 295.115 183.844 296.582 183.828L297.614 183.812V183.316C297.614 182.938 297.502 182.647 297.278 182.444C297.059 182.236 296.718 182.135 296.254 182.14C295.912 182.146 295.587 182.226 295.278 182.38C294.974 182.535 294.766 182.804 294.654 183.188H292.71C292.752 182.292 293.112 181.631 293.79 181.204C294.467 180.778 295.323 180.564 296.358 180.564C297.627 180.564 298.526 180.799 299.054 181.268C299.587 181.732 299.854 182.37 299.854 183.18V188.996H297.902L297.71 187.572C297.427 188.17 297.072 188.583 296.646 188.812C296.224 189.042 295.726 189.156 295.15 189.156ZM295.934 187.62C296.216 187.62 296.486 187.556 296.742 187.428C296.998 187.295 297.206 187.124 297.366 186.916C297.531 186.703 297.614 186.476 297.614 186.236V185.012L296.774 185.028C296.384 185.034 296.022 185.079 295.686 185.164C295.35 185.25 295.078 185.394 294.87 185.596C294.667 185.794 294.566 186.06 294.566 186.396C294.566 186.78 294.696 187.082 294.958 187.3C295.224 187.514 295.55 187.62 295.934 187.62ZM306.587 182.348H304.747L304.763 186.756C304.763 187.06 304.821 187.252 304.939 187.332C305.056 187.407 305.243 187.444 305.499 187.444H306.611V188.884C306.499 188.932 306.331 188.978 306.107 189.02C305.883 189.063 305.568 189.084 305.163 189.084C304.437 189.084 303.875 188.991 303.475 188.804C303.08 188.618 302.805 188.356 302.651 188.02C302.496 187.684 302.419 187.295 302.419 186.852V182.348H301.075V180.724H302.499L303.083 178.228H304.747V180.716H306.587V182.348ZM310.688 177.436V179.54H308.416V177.436H310.688ZM310.664 180.724V188.996H308.432V180.724H310.664ZM316.333 189.156C315.522 189.156 314.816 188.983 314.213 188.636C313.616 188.29 313.152 187.799 312.821 187.164C312.496 186.53 312.333 185.778 312.333 184.908C312.333 184.039 312.496 183.279 312.821 182.628C313.152 181.978 313.616 181.471 314.213 181.108C314.816 180.746 315.525 180.564 316.341 180.564C317.157 180.564 317.864 180.743 318.461 181.1C319.058 181.458 319.52 181.962 319.845 182.612C320.17 183.258 320.333 184.023 320.333 184.908C320.333 185.74 320.173 186.476 319.853 187.116C319.538 187.751 319.082 188.25 318.485 188.612C317.893 188.975 317.176 189.156 316.333 189.156ZM316.341 187.42C316.752 187.42 317.082 187.3 317.333 187.06C317.584 186.82 317.765 186.506 317.877 186.116C317.994 185.722 318.053 185.292 318.053 184.828C318.053 184.391 318 183.98 317.893 183.596C317.786 183.207 317.608 182.892 317.357 182.652C317.112 182.407 316.773 182.284 316.341 182.284C315.93 182.284 315.597 182.399 315.341 182.628C315.09 182.858 314.906 183.164 314.789 183.548C314.672 183.932 314.613 184.359 314.613 184.828C314.613 185.26 314.666 185.676 314.773 186.076C314.88 186.471 315.058 186.794 315.309 187.044C315.56 187.295 315.904 187.42 316.341 187.42ZM321.89 188.996V180.724H324.186V181.892C324.378 181.594 324.664 181.314 325.042 181.052C325.421 180.786 325.936 180.652 326.586 180.652C327.093 180.652 327.565 180.751 328.002 180.948C328.445 181.146 328.802 181.458 329.074 181.884C329.346 182.306 329.482 182.858 329.482 183.54V188.996H327.146V183.828C327.146 183.38 327.01 183.044 326.738 182.82C326.472 182.596 326.149 182.484 325.77 182.484C325.386 182.484 325.032 182.586 324.706 182.788C324.386 182.991 324.226 183.295 324.226 183.7V188.996H321.89Z" fill="#112E51"/>
<path d="M208.092 16.8326L223.044 25.9983V44.2667L208.092 53.4324L193.139 44.2667V25.9811L208.092 16.8326Z" fill="#E21C3D"/>
<path d="M223.045 21.1385L233.725 27.3267V39.7089L223.045 45.8972L212.364 39.7089V27.3267L223.045 21.1385Z" fill="#0071BB"/>
<path d="M215.083 0.96582L223.787 2.54462L226.824 11.1841L221.175 18.2761L212.472 16.6973L209.429 8.05158L215.083 0.96582Z" fill="#F3B8BE" fill-opacity="0.5"/>
<path d="M60.1743 3.84772L3.83433 37.068L3.42847 100.485L60.3665 134.713L116.301 100.888V36.2616L60.1743 3.84772Z" fill="url(#paint0_radial_9_1146)"/>
<path d="M3.97363 100.177L4.36881 37.9697L59.2775 68.8027L59.8329 133.758L3.97363 100.177Z" fill="url(#paint1_linear_9_1146)"/>
<path d="M4.8917 38.8821L58.7323 69.1103L59.2877 132.813L4.50721 99.8796L4.8917 38.8821ZM3.83433 37.0677L3.42847 100.484L60.3665 134.713L59.7897 68.4949L3.83433 37.0677Z" fill="#FEF0F2"/>
<mask id="mask0_9_1146" style="mask-type:alpha" maskUnits="userSpaceOnUse" x="0" y="6" width="122" height="129">
<path fill-rule="evenodd" clip-rule="evenodd" d="M5.5112 79.4871C5.5112 109.715 30.1832 134.225 60.6121 134.225C91.041 134.225 115.713 109.715 115.713 79.4871H121.224V6.50006H0V79.4765H5.5112V79.4871Z" fill="white"/>
</mask>
<g mask="url(#mask0_9_1146)">
<path d="M71.6238 88.8874V92.6964V97.2694H73.4609C91.7139 97.2694 96.7124 109.11 100.547 111.307L20.4641 111.593C24.6509 107.742 29.4891 97.28 47.7422 97.28H49.5792V92.707V88.898C41.6649 85.1633 35.9722 77.5346 35.0217 68.4948C32.3515 68.1234 30.2901 65.8316 30.2901 63.073V56.6857C30.2901 53.9695 32.2768 51.7202 34.8828 51.2852V48.4735C34.8828 34.3621 46.3964 22.935 60.5908 22.935C74.7959 22.935 86.2988 34.3727 86.2988 48.4735V51.2852C88.9049 51.7202 90.8915 53.9695 90.8915 56.6857V63.073C90.8915 65.8316 88.8301 68.1128 86.16 68.4948C85.2308 77.5134 79.5381 85.1526 71.6238 88.8874Z" fill="#FEDBB5"/>
<path fill-rule="evenodd" clip-rule="evenodd" d="M49.2373 88.5797C49.515 88.898 47.742 91.5506 49.5898 92.6965C51.4375 93.8425 58.0701 94.0865 61.2743 94.0865C63.6774 94.0865 69.979 93.4711 71.6238 92.6965C74.3794 91.3915 71.9442 88.9829 72.2967 88.5797C69.477 89.2906 64.9805 90.0546 60.4306 90.0121C56.2011 89.9909 51.9395 89.2694 49.2373 88.5797Z" fill="#010101" fill-opacity="0.16"/>
<path fill-rule="evenodd" clip-rule="evenodd" d="M60.3772 134.702L20.4746 111.583C23.9458 105.556 28.2821 98.5321 45.4778 97.365C45.4671 97.5348 45.4564 97.7045 45.4564 97.8743C45.4564 103.285 52.3454 107.667 60.8364 107.667C69.3275 107.667 76.2164 103.285 76.2164 97.8743C76.2164 97.7151 76.2058 97.556 76.1951 97.3968C93.1772 98.7761 97.7698 107.964 100.547 111.296L63.8697 132.591" fill="#DEDEDE"/>
<mask id="mask1_9_1146" style="mask-type:alpha" maskUnits="userSpaceOnUse" x="14" y="97" width="93" height="38">
<path fill-rule="evenodd" clip-rule="evenodd" d="M76.1949 97.4061C93.1769 98.7854 106.517 112.918 106.517 130.138V134.223H14.6855V130.138C14.6855 112.759 28.2712 98.5308 45.4669 97.3743C45.4562 97.544 45.4455 97.7138 45.4455 97.8836C45.4455 103.295 52.3345 107.677 60.8255 107.677C69.3166 107.677 76.2055 103.295 76.2055 97.8836C76.2162 97.7244 76.2162 97.5652 76.1949 97.4061Z" fill="white"/>
</mask>
<g mask="url(#mask1_9_1146)">
<g opacity="0.6">
<g opacity="0.6">
<path opacity="0.6" d="M60.8364 110.85C70.8878 110.85 79.0361 105.354 79.0361 98.5745C79.0361 91.7947 70.8878 86.2986 60.8364 86.2986C50.785 86.2986 42.6367 91.7947 42.6367 98.5745C42.6367 105.354 50.785 110.85 60.8364 110.85Z" fill="#ADADAD"/>
</g>
</g>
</g>
</g>
<path d="M53.4563 75.1367C53.4563 77.5766 56.2546 79.2209 59.8219 79.2209C63.3892 79.2209 66.1875 77.5766 66.1875 75.1367C66.1875 74.6381 65.7602 74.2244 65.2796 74.2244C64.6922 74.2244 64.4252 74.6381 64.3718 75.1367C63.8057 76.4734 62.4066 77.2796 59.8219 77.4069C57.2372 77.2796 55.8381 76.4734 55.272 75.1367C55.2079 74.6381 54.9516 74.2244 54.3642 74.2244C53.8942 74.2244 53.4563 74.6381 53.4563 75.1367Z" fill="#010101" fill-opacity="0.6"/>
<path fill-rule="evenodd" clip-rule="evenodd" d="M54.375 66.0547C54.375 68.0596 56.8209 69.6826 59.8328 69.6826C62.8448 69.6826 65.2906 68.0596 65.2906 66.0547" fill="#010101" fill-opacity="0.16"/>
<path d="M47.9983 60.6011C49.5043 60.6011 50.7325 59.381 50.7325 57.8744C50.7325 56.3677 49.515 55.1476 47.9983 55.1476C46.4817 55.1476 45.2642 56.3677 45.2642 57.8744C45.2748 59.381 46.4924 60.6011 47.9983 60.6011Z" fill="#010101" fill-opacity="0.6"/>
<path d="M71.6559 60.6011C73.1618 60.6011 74.3901 59.381 74.3901 57.8744C74.3901 56.3677 73.1725 55.1476 71.6559 55.1476C70.1499 55.1476 68.9216 56.3677 68.9216 57.8744C68.9323 59.381 70.1499 60.6011 71.6559 60.6011Z" fill="#010101" fill-opacity="0.6"/>
<path fill-rule="evenodd" clip-rule="evenodd" d="M46.4285 47.0519C43.7904 47.1686 39.5182 49.0887 39.625 51.7514C39.625 51.8362 39.7532 51.8787 39.8173 51.8044C41.0669 50.4572 49.9745 49.0993 53.1039 49.8207C53.3923 49.8843 53.6059 49.6085 53.4243 49.3964C51.8756 47.6566 48.7996 46.9352 46.4285 47.0519Z" fill="#010101" fill-opacity="0.6"/>
<path fill-rule="evenodd" clip-rule="evenodd" d="M73.6852 47.0519C76.3232 47.1686 80.5954 49.0887 80.4886 51.7514C80.4886 51.8362 80.3605 51.8787 80.2964 51.8044C79.0468 50.4572 70.1392 49.0993 67.0098 49.8207C66.7215 49.8843 66.5079 49.6085 66.6894 49.3964C68.2381 47.6566 71.3141 46.9352 73.6852 47.0519Z" fill="#010101" fill-opacity="0.6"/>
<mask id="mask2_9_1146" style="mask-type:alpha" maskUnits="userSpaceOnUse" x="0" y="6" width="121" height="128">
<path d="M120.712 6.71234H0.598877V133.885H120.712V6.71234Z" fill="white"/>
</mask>
<g mask="url(#mask2_9_1146)">
<path fill-rule="evenodd" clip-rule="evenodd" d="M31.5505 41.3227C37.4355 26.2988 43.6622 18.7868 50.2201 18.7868C50.4657 18.7868 63.528 18.6807 72.0831 18.6277C81.482 22.8823 87.9545 31.8373 87.9545 42.1928V48.9514H50.2201L48.9491 38.4262L47.1868 48.9514H31.5505V42.1928C31.5398 41.9063 31.5398 41.6092 31.5505 41.3227Z" fill="#010101" fill-opacity="0.16"/>
<mask id="mask3_9_1146" style="mask-type:alpha" maskUnits="userSpaceOnUse" x="18" y="15" width="85" height="81">
<path fill-rule="evenodd" clip-rule="evenodd" d="M86.0747 46.6806C86.1174 47.2854 86.1388 47.8901 86.1388 48.4949V65.7576C86.1388 75.9009 80.1897 84.6648 71.5812 88.7391V92.6967C79.8373 93.3757 87.837 94.5216 92.5044 95.7312C97.0329 89.5773 102.918 83.8266 102.971 72.5693C103.014 63.9433 90.3789 29.1633 84.7717 22.1606C81.0655 17.5346 71.72 16.0067 60.655 15.8052C49.6006 15.6036 40.5969 18.3091 36.9975 22.6168C32.1379 28.4312 18.3065 63.9539 18.3492 72.5799C18.4026 83.8478 24.2876 89.5879 28.8162 95.7418C33.4942 94.5322 41.494 93.3863 49.7394 92.7073V88.7497C41.1309 84.6648 35.1818 75.9115 35.1818 65.7682V48.4949C35.1818 47.8795 35.2032 47.2748 35.2459 46.6806H48.0946L49.8569 36.9405L51.1279 46.6806H86.0747V46.6806Z" fill="white"/>
</mask>
<g mask="url(#mask3_9_1146)">
<path fill-rule="evenodd" clip-rule="evenodd" d="M86.0747 46.6806C86.1174 47.2854 86.1388 47.8901 86.1388 48.4949V65.7576C86.1388 75.9009 80.1897 84.6648 71.5812 88.7391V92.6967C79.8373 93.3757 87.837 94.5216 92.5044 95.7312C97.0329 89.5773 102.918 83.8266 102.971 72.5693C103.014 63.9433 90.3789 29.1633 84.7717 22.1606C81.0655 17.5346 71.72 16.0067 60.655 15.8052C49.6006 15.6036 40.5969 18.3091 36.9975 22.6168C32.1379 28.4312 18.3065 63.9539 18.3492 72.5799C18.4026 83.8478 24.2876 89.5879 28.8162 95.7418C33.4942 94.5322 41.494 93.3863 49.7394 92.7073V88.7497C41.1309 84.6648 35.1818 75.9115 35.1818 65.7682V48.4949C35.1818 47.8795 35.2032 47.2748 35.2459 46.6806H48.0946L49.8569 36.9405L51.1279 46.6806H86.0747V46.6806Z" fill="#E6E6E5"/>
<path d="M137.256 15.6573H17.1426V142.83H137.256V15.6573Z" fill="#E2623A"/>
</g>
</g>
<path d="M60.1743 3.84772L3.83433 37.068L3.42847 100.485L60.3665 134.713L116.301 100.888V36.2616L60.1743 3.84772Z" stroke="#005087" stroke-width="2"/>
<path d="M116.311 70.4366C118.081 70.4366 119.515 69.0115 119.515 67.2535C119.515 65.4956 118.081 64.0705 116.311 64.0705C114.542 64.0705 113.107 65.4956 113.107 67.2535C113.107 69.0115 114.542 70.4366 116.311 70.4366Z" fill="#0071BB" stroke="#005087" stroke-miterlimit="10"/>
<path d="M119.515 67.2535H201.98" stroke="#005087" stroke-miterlimit="10"/>
<path d="M261.791 3.84772L205.451 37.068L205.045 100.485L261.983 134.713L317.917 100.888V36.2616L261.791 3.84772Z" fill="url(#paint2_radial_9_1146)"/>
<path d="M205.579 100.177L205.975 37.9697L260.883 68.8027L261.449 133.758L205.579 100.177Z" fill="url(#paint3_linear_9_1146)"/>
<path d="M206.508 38.8821L260.349 69.1103L260.904 132.813L206.124 99.8796L206.508 38.8821ZM205.451 37.0677L205.045 100.484L261.983 134.713L261.406 68.4949L205.451 37.0677Z" fill="#FEF0F2"/>
<path d="M261.791 3.84772L205.451 37.068L205.045 100.485L261.983 134.713L317.917 100.888V36.2616L261.791 3.84772Z" stroke="#005087" stroke-width="2"/>
<path fill-rule="evenodd" clip-rule="evenodd" d="M307.408 95.9008H216.27C213.75 95.9008 211.699 93.8742 211.699 91.3702V47.4338C211.699 44.9299 213.75 42.9033 216.27 42.9033H307.408C309.928 42.9033 311.979 44.9299 311.979 47.4338V91.3702C311.979 93.8742 309.939 95.9008 307.408 95.9008Z" fill="white"/>
<path d="M307.408 95.9008H216.27C213.75 95.9008 211.699 93.8742 211.699 91.3702V47.4338C211.699 44.9299 213.75 42.9033 216.27 42.9033H307.408C309.928 42.9033 311.979 44.9299 311.979 47.4338V91.3702C311.979 93.8742 309.939 95.9008 307.408 95.9008Z" stroke="#112E51"/>
<path fill-rule="evenodd" clip-rule="evenodd" d="M303.627 55.8477H260.456C259.431 55.8477 258.608 55.0307 258.608 54.0121V51.158C258.608 50.15 259.441 49.3224 260.456 49.3224H303.627C304.652 49.3224 305.474 50.1394 305.474 51.158V54.0121C305.474 55.0201 304.652 55.8477 303.627 55.8477Z" fill="#5C5C5C"/>
<path fill-rule="evenodd" clip-rule="evenodd" d="M303.413 89.3331H292.177C291.152 89.3331 290.329 88.5162 290.329 87.4976V74.5851C290.329 73.5771 291.162 72.7495 292.177 72.7495H303.413C304.438 72.7495 305.261 73.5665 305.261 74.5851V87.4976C305.272 88.5055 304.438 89.3331 303.413 89.3331Z" fill="#5C5C5C"/>
<path fill-rule="evenodd" clip-rule="evenodd" d="M278.293 63.2423H260.499C259.474 63.2423 258.651 62.4255 258.651 61.407C258.651 60.3886 259.484 59.5718 260.499 59.5718H278.293C279.318 59.5718 280.14 60.3886 280.14 61.407C280.14 62.4255 279.318 63.2423 278.293 63.2423Z" fill="#5C5C5C"/>
<path fill-rule="evenodd" clip-rule="evenodd" d="M303.573 63.2423H285.779C284.754 63.2423 283.932 62.4255 283.932 61.407C283.932 60.3886 284.765 59.5718 285.779 59.5718H303.573C304.599 59.5718 305.421 60.3886 305.421 61.407C305.421 62.4255 304.599 63.2423 303.573 63.2423Z" fill="#5C5C5C"/>
<path fill-rule="evenodd" clip-rule="evenodd" d="M285.747 70.5845H260.445C259.42 70.5845 258.597 69.7676 258.597 68.7492C258.597 67.7308 259.431 66.914 260.445 66.914H285.747C286.773 66.914 287.595 67.7308 287.595 68.7492C287.595 69.7676 286.762 70.5845 285.747 70.5845Z" fill="#5C5C5C"/>
<path fill-rule="evenodd" clip-rule="evenodd" d="M281.913 77.916H260.435C259.409 77.916 258.587 77.0991 258.587 76.0808C258.587 75.0624 259.42 74.2456 260.435 74.2456H281.913C282.939 74.2456 283.761 75.0624 283.761 76.0808C283.761 77.0991 282.939 77.916 281.913 77.916Z" fill="#5C5C5C"/>
<path fill-rule="evenodd" clip-rule="evenodd" d="M267.441 85.29H260.36C259.335 85.29 258.512 84.4732 258.512 83.4548C258.512 82.4471 259.345 81.6196 260.36 81.6196H267.441C268.467 81.6196 269.289 82.4365 269.289 83.4548C269.3 84.4626 268.467 85.29 267.441 85.29Z" fill="#5C5C5C"/>
<path fill-rule="evenodd" clip-rule="evenodd" d="M282.052 85.2051H274.971C273.946 85.2051 273.123 84.3883 273.123 83.3699C273.123 82.3621 273.956 81.5347 274.971 81.5347H282.052C283.078 81.5347 283.9 82.3515 283.9 83.3699C283.911 84.3777 283.078 85.2051 282.052 85.2051Z" fill="#5C5C5C"/>
<path fill-rule="evenodd" clip-rule="evenodd" d="M239.501 79.8044C244.606 80.2182 248.622 84.4941 248.622 89.6931V90.9239H221.002V89.6931C221.002 84.4411 225.093 80.144 230.262 79.7938C230.262 79.8469 230.251 79.8999 230.251 79.953C230.251 81.5869 232.323 82.9132 234.876 82.9132C237.429 82.9132 239.501 81.5869 239.501 79.953C239.511 79.8999 239.501 79.8575 239.501 79.8044Z" fill="#F0F0F0"/>
<path d="M253.044 75.7734H216.58V90.9352H253.044V75.7734Z" fill="white"/>
<g opacity="0.6">
<g opacity="0.6">
<path opacity="0.6" d="M234.876 83.8697C237.899 83.8697 240.355 82.2039 240.355 80.1562C240.355 78.1084 237.909 76.4426 234.876 76.4426C231.843 76.4426 229.397 78.1084 229.397 80.1562C229.408 82.2145 231.853 83.8697 234.876 83.8697Z" fill="#010101" fill-opacity="0.16"/>
</g>
</g>
<path fill-rule="evenodd" clip-rule="evenodd" d="M248.942 90.2031H220.361C219.101 90.2031 218.076 89.1845 218.076 87.9431V51.7308C218.076 50.4788 219.101 49.4708 220.361 49.4708H248.942C250.203 49.4708 251.228 50.4894 251.228 51.7308V87.9431C251.228 89.1845 250.203 90.2031 248.942 90.2031Z" fill="#EBF3FA"/>
<path d="M238.123 77.2375V79.7733H238.679C243.771 80.339 248.12 83.4988 248.12 88.9843L248.56 90.0649L221.524 89.3448L221.484 88.9843C221.484 83.4988 225.289 80.339 230.946 79.7733H231.501V77.2375C229.12 76.1128 227.411 73.7998 227.122 71.073C226.321 70.9563 225.702 70.2667 225.702 69.4391V67.508C225.702 66.691 226.3 66.012 227.08 65.8741V65.0253C227.08 60.76 230.54 57.3011 234.812 57.3011C239.085 57.3011 242.545 60.76 242.545 65.0253V65.8741C243.325 66.0014 243.923 66.691 243.923 67.508V69.4391C243.923 70.2773 243.303 70.9669 242.502 71.073C242.214 73.7998 240.505 76.1022 238.123 77.2375Z" fill="#FEDBB5"/>
<path fill-rule="evenodd" clip-rule="evenodd" d="M231.48 77.2375C231.501 77.6407 231.48 77.3967 231.501 78.2986C231.512 78.8397 233.958 78.8079 234.887 78.8079C235.581 78.8079 238.091 78.7548 238.134 78.2986C238.176 77.8529 238.134 77.5346 238.134 77.2375C237.322 77.4179 236.019 77.5983 234.716 77.5877C233.488 77.5771 232.259 77.3967 231.48 77.2375Z" fill="#010101" fill-opacity="0.16"/>
<path d="M232.879 73.0147C232.879 73.7575 233.734 74.2562 234.812 74.2562C235.891 74.2562 236.746 73.7575 236.746 73.0147C236.746 72.8661 236.617 72.7388 236.468 72.7388C236.286 72.7388 236.212 72.8661 236.19 73.0147C236.019 73.4179 235.592 73.662 234.812 73.7044C234.033 73.662 233.605 73.4179 233.435 73.0147C233.413 72.8661 233.338 72.7388 233.157 72.7388C233.007 72.7388 232.879 72.8555 232.879 73.0147Z" fill="#010101" fill-opacity="0.6"/>
<path fill-rule="evenodd" clip-rule="evenodd" d="M233.157 70.2561C233.157 70.8615 233.894 71.3606 234.813 71.3606C235.731 71.3606 236.468 70.8615 236.468 70.2561" fill="#010101" fill-opacity="0.16"/>
<path d="M231.224 68.602C231.683 68.602 232.057 68.2304 232.057 67.7738C232.057 67.3172 231.683 66.9456 231.224 66.9456C230.764 66.9456 230.391 67.3172 230.391 67.7738C230.391 68.2304 230.764 68.602 231.224 68.602Z" fill="#010101" fill-opacity="0.6"/>
<path d="M238.401 68.602C238.86 68.602 239.234 68.2304 239.234 67.7738C239.234 67.3172 238.86 66.9456 238.401 66.9456C237.941 66.9456 237.568 67.3172 237.568 67.7738C237.578 68.2304 237.941 68.602 238.401 68.602Z" fill="#010101" fill-opacity="0.6"/>
<path fill-rule="evenodd" clip-rule="evenodd" d="M230.743 64.4842C229.942 64.516 228.65 65.0996 228.682 65.906C228.682 65.9272 228.724 65.9485 228.746 65.9272C229.13 65.524 231.833 65.1102 232.783 65.3224C232.869 65.3437 232.933 65.2588 232.879 65.1951C232.399 64.6646 231.459 64.4523 230.743 64.4842Z" fill="#010101" fill-opacity="0.6"/>
<path fill-rule="evenodd" clip-rule="evenodd" d="M239.02 64.4842C239.821 64.516 241.114 65.0996 241.082 65.906C241.082 65.9272 241.039 65.9485 241.017 65.9272C240.633 65.524 237.931 65.1102 236.98 65.3224C236.895 65.3437 236.831 65.2588 236.884 65.1951C237.365 64.6646 238.294 64.4523 239.02 64.4842Z" fill="#010101" fill-opacity="0.6"/>
<path fill-rule="evenodd" clip-rule="evenodd" d="M225.979 62.8407C227.763 58.2783 229.654 55.9971 231.64 55.9971C231.715 55.9971 235.677 55.9653 238.273 55.9441C241.124 57.2385 243.09 59.9547 243.09 63.0953V65.1431H231.629L231.245 61.9494L230.711 65.1431H225.969V63.0953C225.969 63.0104 225.979 62.9256 225.979 62.8407Z" fill="#010101" fill-opacity="0.16"/>
<mask id="mask4_9_1146" style="mask-type:alpha" maskUnits="userSpaceOnUse" x="221" y="55" width="27" height="25">
<path fill-rule="evenodd" clip-rule="evenodd" d="M242.524 64.4629C242.535 64.6433 242.545 64.8343 242.545 65.0146V70.256C242.545 73.333 240.74 75.9961 238.123 77.2375V78.4364C240.633 78.638 243.058 78.9881 244.478 79.3595C245.856 77.4921 247.64 75.7521 247.65 72.325C247.661 69.7043 243.827 59.1472 242.129 57.0252C241.007 55.6247 238.166 55.1578 234.812 55.0942C231.459 55.0305 228.725 55.8581 227.635 57.1632C226.161 58.9244 221.964 69.7149 221.974 72.325C221.985 75.7415 223.779 77.4815 225.146 79.3595C226.567 78.9881 228.992 78.6486 231.501 78.4364V77.2375C228.885 75.9961 227.08 73.3436 227.08 70.256V65.0146C227.08 64.8343 227.09 64.6433 227.101 64.4629H230.999L231.534 61.5027L231.918 64.4629H242.524V64.4629Z" fill="white"/>
</mask>
<g mask="url(#mask4_9_1146)">
<path fill-rule="evenodd" clip-rule="evenodd" d="M242.524 64.4631C242.535 64.6434 242.545 64.8344 242.545 65.0148V70.2562C242.545 73.3332 240.74 75.9963 238.123 77.2377V78.4367C240.633 78.6383 243.058 78.9884 244.478 79.3597C245.856 77.4924 247.64 75.7523 247.65 72.3252C247.661 69.7045 243.827 59.1474 242.129 57.0254C241.007 55.6248 238.166 55.158 234.812 55.0943C231.459 55.0306 228.725 55.8582 227.635 57.1633C226.161 58.9246 221.964 69.7151 221.974 72.3252C221.985 75.7417 223.779 77.4817 225.146 79.3597C226.567 78.9884 228.992 78.6489 231.501 78.4367V77.2377C228.885 75.9963 227.08 73.3438 227.08 70.2562V65.0148C227.08 64.8344 227.09 64.6434 227.101 64.4631H230.999L231.534 61.5028L231.918 64.4631H242.524V64.4631Z" fill="#E6E6E5"/>
<path d="M258.533 54.9678H222.07V93.5674H258.533V54.9678Z" fill="#E2623A"/>
</g>
<path fill-rule="evenodd" clip-rule="evenodd" d="M239.49 79.7946C244.595 80.1872 248.686 84.1978 248.686 89.0785V90.2032H221.066V89.0785C221.066 84.1554 225.146 80.0811 230.326 79.7521C230.326 79.8052 230.326 79.9007 230.326 79.9431C230.326 81.471 232.398 82.723 234.951 82.723C237.503 82.723 239.458 81.5877 239.458 80.0598C239.458 80.0068 239.49 79.837 239.49 79.7946Z" fill="#DEDEDE"/>
<path fill-rule="evenodd" clip-rule="evenodd" d="M301.405 101.673L307.461 95.8795L312.524 101.673L320.78 93.0572H323.952L327.295 98.1077L323.952 102.734L311.253 113.567L301.405 101.673Z" fill="white"/>
<path fill-rule="evenodd" clip-rule="evenodd" d="M314.713 117.461C323.493 117.461 330.606 110.394 330.606 101.673C330.606 92.9512 323.493 85.8848 314.713 85.8848C305.934 85.8848 298.821 92.9512 298.821 101.673C298.821 110.394 305.944 117.461 314.713 117.461ZM324.667 98.3199L312.876 110.033C312.481 110.426 311.829 110.426 311.424 110.033L304.759 103.413C304.353 103.01 304.353 102.373 304.759 101.97L306.211 100.527C306.607 100.134 307.258 100.134 307.664 100.527L312.15 104.983L321.762 95.4339C322.168 95.0414 322.809 95.0414 323.215 95.4339L324.667 96.8769C325.073 97.2801 325.073 97.9167 324.667 98.3199Z" fill="#65BB61"/>
<path d="M205.184 70.4366C206.954 70.4366 208.388 69.0115 208.388 67.2535C208.388 65.4956 206.954 64.0705 205.184 64.0705C203.414 64.0705 201.98 65.4956 201.98 67.2535C201.98 69.0115 203.414 70.4366 205.184 70.4366Z" fill="#0071BB" stroke="#005087" stroke-miterlimit="10"/>
<path d="M463.397 3.84772L407.057 37.068L406.651 100.485L463.589 134.713L519.523 100.888V36.2616L463.397 3.84772Z" fill="url(#paint4_radial_9_1146)"/>
<path d="M407.196 100.177L407.591 37.9697L462.49 68.8027L463.056 133.758L407.196 100.177Z" fill="url(#paint5_linear_9_1146)"/>
<path d="M408.115 38.8821L461.955 69.1103L462.511 132.813L407.719 99.8796L408.115 38.8821ZM407.057 37.0677L406.651 100.484L463.589 134.713L463.013 68.4949L407.057 37.0677Z" fill="#FEF0F2"/>
<path d="M463.397 3.84772L407.057 37.068L406.651 100.485L463.589 134.713L519.523 100.888V36.2616L463.397 3.84772Z" stroke="#005087" stroke-width="2"/>
<path d="M504.186 102.766H423.014C417.118 102.766 412.333 98.0122 412.333 92.1555V44.8025C412.333 38.9458 417.118 34.1924 423.014 34.1924H504.186C510.082 34.1924 514.867 38.9458 514.867 44.8025V92.1555C514.867 98.0122 510.082 102.766 504.186 102.766Z" fill="white" stroke="#112E51" stroke-width="3"/>
<path d="M513.329 61.121H413.989V46.4048C413.434 38.8504 418.71 35.0944 424.67 35.7946H502.648C509.441 35.1793 513.98 40.5586 513.329 46.4048V61.121Z" fill="#ECF3FB"/>
<path d="M463.6 72.4524C471.103 72.4524 477.186 66.41 477.186 58.9564C477.186 51.5028 471.103 45.4604 463.6 45.4604C456.097 45.4604 450.014 51.5028 450.014 58.9564C450.014 66.41 456.097 72.4524 463.6 72.4524Z" fill="#112E51"/>
<path d="M463.6 72.4524C471.103 72.4524 477.186 66.41 477.186 58.9564C477.186 51.5028 471.103 45.4604 463.6 45.4604C456.097 45.4604 450.014 51.5028 450.014 58.9564C450.014 66.41 456.097 72.4524 463.6 72.4524Z" stroke="#112E51" stroke-width="2" stroke-miterlimit="10" stroke-linecap="round" stroke-dasharray="2 2"/>
<path d="M463.6 50.3303L466.185 55.5399L471.974 56.3675L467.787 60.4312L468.769 66.15L463.6 63.4444L458.42 66.15L459.413 60.4312L455.227 56.3675L461.015 55.5399L463.6 50.3303Z" fill="white" stroke="#112E51" stroke-miterlimit="10" stroke-linecap="round" stroke-linejoin="round"/>
<path d="M476.384 84.1353H451.819C451.232 84.1353 450.751 83.6576 450.751 83.0739V82.0125C450.751 81.4287 451.232 80.9511 451.819 80.9511H476.384C476.972 80.9511 477.452 81.4287 477.452 82.0125V83.0739C477.452 83.6576 476.972 84.1353 476.384 84.1353Z" fill="#C8D3DF"/>
<path d="M474.783 89.7906H453.422C452.834 89.7906 452.354 89.313 452.354 88.7292V87.6678C452.354 87.0841 452.834 86.6064 453.422 86.6064H474.783C475.37 86.6064 475.851 87.0841 475.851 87.6678V88.7292C475.851 89.313 475.37 89.7906 474.783 89.7906Z" fill="#C8D3DF"/>
<path d="M406.651 70.4366C408.421 70.4366 409.855 69.0115 409.855 67.2535C409.855 65.4956 408.421 64.0705 406.651 64.0705C404.882 64.0705 403.447 65.4956 403.447 67.2535C403.447 69.0115 404.882 70.4366 406.651 70.4366Z" fill="#0071BB" stroke="#005087" stroke-miterlimit="10"/>
<path d="M321.121 67.3283L403.447 67.2535" stroke="#005087" stroke-miterlimit="10"/>
<path d="M317.918 70.5109C319.687 70.5109 321.122 69.0858 321.122 67.3279C321.122 65.5699 319.687 64.1448 317.918 64.1448C316.148 64.1448 314.713 65.5699 314.713 67.3279C314.713 69.0858 316.148 70.5109 317.918 70.5109Z" fill="#0071BB" stroke="#005087" stroke-miterlimit="10"/>
<defs>
<radialGradient id="paint0_radial_9_1146" cx="0" cy="0" r="1" gradientUnits="userSpaceOnUse" gradientTransform="translate(59.8722 69.2826) rotate(90) scale(65.4273 56.4373)">
<stop stop-color="white"/>
<stop offset="1" stop-color="#FFF0F3"/>
</radialGradient>
<linearGradient id="paint1_linear_9_1146" x1="3.9715" y1="85.8665" x2="59.8358" y2="85.8665" gradientUnits="userSpaceOnUse">
<stop stop-color="white" stop-opacity="0.5"/>
<stop offset="1" stop-color="#FEF0F2"/>
</linearGradient>
<radialGradient id="paint2_radial_9_1146" cx="0" cy="0" r="1" gradientUnits="userSpaceOnUse" gradientTransform="translate(261.493 69.2826) rotate(90) scale(65.4273 56.4373)">
<stop stop-color="white"/>
<stop offset="1" stop-color="#FFF0F3"/>
</radialGradient>
<linearGradient id="paint3_linear_9_1146" x1="205.582" y1="85.8665" x2="261.447" y2="85.8665" gradientUnits="userSpaceOnUse">
<stop stop-color="white" stop-opacity="0.5"/>
<stop offset="1" stop-color="#FEF0F2"/>
</linearGradient>
<radialGradient id="paint4_radial_9_1146" cx="0" cy="0" r="1" gradientUnits="userSpaceOnUse" gradientTransform="translate(463.098 69.2826) rotate(90) scale(65.4273 56.4372)">
<stop stop-color="white"/>
<stop offset="1" stop-color="#FFF0F3"/>
</radialGradient>
<linearGradient id="paint5_linear_9_1146" x1="407.192" y1="85.8665" x2="463.057" y2="85.8665" gradientUnits="userSpaceOnUse">
<stop stop-color="white" stop-opacity="0.5"/>
<stop offset="1" stop-color="#FEF0F2"/>
</linearGradient>
</defs>
</svg>
