<svg width="521" height="194" viewBox="0 0 521 194" fill="none" xmlns="http://www.w3.org/2000/svg"><path d="M182.686 177.428h2.328v11.568h-2.328v-11.568zm7.48 11.728c-1.11 0-1.974-.381-2.592-1.144-.619-.768-.928-1.834-.928-3.2 0-1.296.282-2.328.848-3.096.565-.768 1.378-1.152 2.44-1.152.592 0 1.106.126 1.544.376.437.251.754.552.952.904v-4.736h2.344v11.888h-1.696l-.264-1.696a3.19 3.19 0 01-.464.88 2.34 2.34 0 01-.84.704c-.352.182-.8.272-1.344.272zm.512-1.68c.592 0 1.032-.205 1.32-.616.288-.41.432-1.104.432-2.08-.011-1.68-.59-2.52-1.736-2.52a1.6 1.6 0 00-1.264.584c-.336.384-.504 1.03-.504 1.936 0 .923.157 1.603.472 2.04.314.438.741.656 1.28.656zm8.023-2.08c-.005.635.147 1.139.456 1.512.309.374.744.56 1.304.56.4 0 .749-.085 1.048-.256.304-.17.515-.45.632-.84h2.104a2.82 2.82 0 01-.704 1.504 3.665 3.665 0 01-1.36.952 4.338 4.338 0 01-1.664.328c-.821 0-1.541-.17-2.16-.512a3.669 3.669 0 01-1.448-1.464c-.347-.629-.52-1.37-.52-2.224 0-.826.157-1.57.472-2.232a3.723 3.723 0 011.368-1.576c.603-.389 1.325-.584 2.168-.584.843 0 1.549.179 2.12.536a3.28 3.28 0 011.296 1.48c.293.63.44 1.358.44 2.184v.632h-5.552zm-.008-1.392h3.376c0-.501-.139-.928-.416-1.28-.277-.352-.696-.528-1.256-.528-.363 0-.672.088-.928.264a1.734 1.734 0 00-.576.68c-.133.272-.2.56-.2.864zm7.182 4.992v-8.272h2.296v1.168c.192-.298.477-.578.856-.84.378-.266.893-.4 1.544-.4.506 0 .978.099 1.416.296.442.198.8.51 1.072.936.272.422.408.974.408 1.656v5.456h-2.336v-5.168c0-.448-.136-.784-.408-1.008a1.457 1.457 0 00-.968-.336 1.98 1.98 0 00-1.064.304c-.32.203-.48.507-.48.912v5.296h-2.336zm14.149-6.648h-1.84l.016 4.408c0 .304.059.496.176.576.117.075.304.112.56.112h1.112v1.44c-.112.048-.28.094-.504.136a5.315 5.315 0 01-.944.064c-.725 0-1.288-.093-1.688-.28-.395-.186-.669-.448-.824-.784a2.76 2.76 0 01-.232-1.168v-4.504h-1.344v-1.624h1.424l.584-2.496h1.664v2.488h1.84v1.632zm4.102-4.912v2.104h-2.272v-2.104h2.272zm-.024 3.288v8.272h-2.232v-8.272h2.232zm7.157 1.624h-1.84l.016 4.408c0 .304.058.496.176.576.117.075.304.112.56.112h1.112v1.44c-.112.048-.28.094-.504.136a5.315 5.315 0 01-.944.064c-.726 0-1.288-.093-1.688-.28-.395-.186-.67-.448-.824-.784a2.76 2.76 0 01-.232-1.168v-4.504h-1.344v-1.624h1.424l.584-2.496h1.664v2.488h1.84v1.632zm3.044 9.288c-.565 0-.965-.048-1.2-.144l-.344-.136v-1.488l.816.032c.48.027.835-.01 1.064-.112.235-.096.392-.213.472-.352a2.24 2.24 0 00.176-.328l.152-.456-3.216-7.928h2.312l1.984 5.392 2.008-5.392h2.28l-3.352 8.32c-.288.704-.594 1.243-.92 1.616-.32.374-.664.63-1.032.768a3.369 3.369 0 01-1.2.208zm18.059-10.912l-3.104 8.272h-1.688l-3.112-8.272h2.112l1.808 5.272h.064l1.784-5.272h2.136zm2.761 4.672c-.005.635.147 1.139.456 1.512.309.374.744.56 1.304.56.4 0 .749-.085 1.048-.256.304-.17.515-.45.632-.84h2.104a2.82 2.82 0 01-.704 1.504 3.665 3.665 0 01-1.36.952 4.338 4.338 0 01-1.664.328c-.821 0-1.541-.17-2.16-.512a3.669 3.669 0 01-1.448-1.464c-.347-.629-.52-1.37-.52-2.224 0-.826.157-1.57.472-2.232a3.723 3.723 0 011.368-1.576c.603-.389 1.325-.584 2.168-.584.843 0 1.549.179 2.12.536a3.28 3.28 0 011.296 1.48c.293.63.44 1.358.44 2.184v.632h-5.552zm-.008-1.392h3.376c0-.501-.139-.928-.416-1.28-.277-.352-.696-.528-1.256-.528-.363 0-.672.088-.928.264a1.734 1.734 0 00-.576.68c-.133.272-.2.56-.2.864zm7.182 4.992v-8.272h2.248v1.96c.197-.634.52-1.146.968-1.536.448-.389 1-.584 1.656-.584.176 0 .296.016.36.048v2.224a.782.782 0 00-.176-.032 4.236 4.236 0 00-.176-.024c-.923-.08-1.579.043-1.968.368-.384.326-.576.766-.576 1.32v4.528h-2.336zm8.876-11.56v2.104h-2.272v-2.104h2.272zm-.024 3.288v8.272h-2.232v-8.272h2.232zm7.164 0v1.624h-1.744v6.648h-2.336v-6.648h-1.528v-1.624h1.528v-1.192c0-.666.195-1.184.584-1.552.395-.368.952-.552 1.672-.552h1.896l.008 1.552h-1.088c-.298 0-.504.075-.616.224-.106.144-.16.384-.16.72v.8h1.784zm3.744-3.288v2.104h-2.272v-2.104h2.272zm-.024 3.288v8.272h-2.232v-8.272h2.232zm5.667-.16c.693 0 1.291.142 1.792.424.507.283.904.664 1.192 1.144a3.53 3.53 0 01.504 1.608h-1.944a1.981 1.981 0 00-.448-.944c-.24-.304-.6-.456-1.08-.456a1.63 1.63 0 00-1.328.632c-.336.416-.504 1.051-.504 1.904 0 .811.165 1.451.496 1.92.331.47.792.704 1.384.704.315 0 .576-.077.784-.232.213-.154.379-.338.496-.552a2.03 2.03 0 00.224-.608h1.896a3.253 3.253 0 01-.496 1.552 3.17 3.17 0 01-1.2 1.096c-.501.267-1.091.4-1.768.4-.768 0-1.453-.17-2.056-.512a3.651 3.651 0 01-1.424-1.464c-.341-.64-.512-1.402-.512-2.288 0-.853.165-1.605.496-2.256a3.703 3.703 0 011.392-1.52c.597-.368 1.299-.552 2.104-.552zm7.45 8.592c-.795 0-1.459-.218-1.992-.656-.534-.437-.8-1.061-.8-1.872 0-.906.336-1.594 1.008-2.064.677-.474 1.749-.72 3.216-.736l1.032-.016v-.496c0-.378-.112-.669-.336-.872-.219-.208-.56-.309-1.024-.304a2.25 2.25 0 00-.976.24c-.304.155-.512.424-.624.808h-1.944c.042-.896.402-1.557 1.08-1.984.677-.426 1.533-.64 2.568-.64 1.269 0 2.168.235 2.696.704.533.464.8 1.102.8 1.912v5.816h-1.952l-.192-1.424c-.283.598-.638 1.011-1.064 1.24-.422.23-.92.344-1.496.344zm.784-1.536c.282 0 .552-.064.808-.192.256-.133.464-.304.624-.512.165-.213.248-.44.248-.68v-1.224l-.84.016c-.39.006-.752.051-1.088.136-.336.086-.608.23-.816.432-.203.198-.304.464-.304.8 0 .384.13.686.392.904.266.214.592.32.976.32zm10.653-5.272h-1.84l.016 4.408c0 .304.058.496.176.576.117.075.304.112.56.112h1.112v1.44c-.112.048-.28.094-.504.136a5.315 5.315 0 01-.944.064c-.726 0-1.288-.093-1.688-.28-.395-.186-.67-.448-.824-.784a2.76 2.76 0 01-.232-1.168v-4.504h-1.344v-1.624h1.424l.584-2.496h1.664v2.488h1.84v1.632zm4.101-4.912v2.104h-2.272v-2.104h2.272zm-.024 3.288v8.272h-2.232v-8.272h2.232zm5.669 8.432c-.811 0-1.517-.173-2.12-.52a3.565 3.565 0 01-1.392-1.472c-.325-.634-.488-1.386-.488-2.256 0-.869.163-1.629.488-2.28a3.703 3.703 0 011.392-1.52c.603-.362 1.312-.544 2.128-.544.816 0 1.523.179 2.12.536a3.595 3.595 0 011.384 1.512c.325.646.488 1.411.488 2.296 0 .832-.16 1.568-.48 2.208a3.565 3.565 0 01-1.368 1.496c-.592.363-1.309.544-2.152.544zm.008-1.736c.411 0 .741-.12.992-.36s.432-.554.544-.944c.117-.394.176-.824.176-1.288 0-.437-.053-.848-.16-1.232-.107-.389-.285-.704-.536-.944-.245-.245-.584-.368-1.016-.368-.411 0-.744.115-1 .344-.251.23-.435.536-.552.92a4.382 4.382 0 00-.176 1.28c0 .432.053.848.16 1.248.107.395.285.718.536.968.251.251.595.376 1.032.376zm5.549 1.576v-8.272h2.296v1.168c.192-.298.478-.578.856-.84.379-.266.894-.4 1.544-.4.507 0 .979.099 1.416.296.443.198.8.51 1.072.936.272.422.408.974.408 1.656v5.456h-2.336v-5.168c0-.448-.136-.784-.408-1.008a1.453 1.453 0 00-.968-.336c-.384 0-.738.102-1.064.304-.32.203-.48.507-.48.912v5.296h-2.336z" fill="#112E51"/><path d="M208.092 16.833l14.952 9.165v18.269l-14.952 9.165-14.953-9.165V25.98l14.953-9.148z" fill="#E21C3D"/><path d="M223.045 21.139l10.68 6.188v12.382l-10.68 6.188-10.681-6.188V27.327l10.681-6.189z" fill="#0071BB"/><path d="M215.083.966l8.704 1.579 3.037 8.64-5.649 7.091-8.703-1.579-3.043-8.645 5.654-7.086z" fill="#F3B8BE" fill-opacity=".5"/><path d="M60.174 3.848l-56.34 33.22-.406 63.417 56.939 34.228 55.934-33.825V36.262L60.174 3.848z" fill="url(#paint0_radial_9_1146)"/><path d="M3.974 100.177l.395-62.207 54.909 30.833.555 64.955-55.86-33.581z" fill="url(#paint1_linear_9_1146)"/><path d="M4.892 38.882l53.84 30.228.556 63.703L4.508 99.88l.384-60.998zm-1.058-1.814l-.406 63.416 56.939 34.229-.577-66.218L3.834 37.068z" fill="#FEF0F2"/><mask id="a" style="mask-type:alpha" maskUnits="userSpaceOnUse" x="0" y="6" width="122" height="129"><path fill-rule="evenodd" clip-rule="evenodd" d="M5.511 79.487c0 30.228 24.672 54.738 55.101 54.738s55.101-24.51 55.101-54.738h5.511V6.5H0v72.977h5.511v.01z" fill="#fff"/></mask><g mask="url(#a)"><path d="M71.624 88.887v8.382h1.837c18.253 0 23.251 11.841 27.086 14.038l-80.083.286c4.187-3.851 9.025-14.313 27.278-14.313h1.837V88.898c-7.914-3.735-13.607-11.363-14.557-20.403-2.67-.372-4.732-2.663-4.732-5.422v-6.387c0-2.717 1.987-4.966 4.593-5.4v-2.813c0-14.11 11.513-25.538 25.708-25.538 14.205 0 25.708 11.438 25.708 25.539v2.811c2.606.435 4.592 2.684 4.592 5.4v6.388c0 2.759-2.06 5.04-4.731 5.422-.93 9.018-6.622 16.658-14.536 20.392z" fill="#FEDBB5"/><path fill-rule="evenodd" clip-rule="evenodd" d="M49.237 88.58c.278.318-1.495 2.97.353 4.117 1.847 1.145 8.48 1.39 11.684 1.39 2.403 0 8.705-.616 10.35-1.39 2.755-1.306.32-3.714.673-4.117-2.82.71-7.316 1.475-11.866 1.432-4.23-.021-8.491-.743-11.194-1.432z" fill="#010101" fill-opacity=".16"/><path fill-rule="evenodd" clip-rule="evenodd" d="M60.377 134.702l-39.902-23.119c3.47-6.027 7.807-13.05 25.003-14.218-.01.17-.022.34-.022.51 0 5.41 6.89 9.792 15.38 9.792 8.492 0 15.38-4.382 15.38-9.793 0-.159-.01-.318-.02-.477 16.981 1.38 21.574 10.567 24.351 13.899L63.87 132.591" fill="#DEDEDE"/><mask id="b" style="mask-type:alpha" maskUnits="userSpaceOnUse" x="14" y="97" width="93" height="38"><path fill-rule="evenodd" clip-rule="evenodd" d="M76.195 97.406c16.982 1.38 30.322 15.512 30.322 32.732v4.085H14.686v-4.085c0-17.379 13.585-31.607 30.78-32.764a8.1 8.1 0 00-.02.51c0 5.411 6.889 9.793 15.38 9.793 8.49 0 15.38-4.382 15.38-9.793.01-.16.01-.319-.011-.478z" fill="#fff"/></mask><g mask="url(#b)"><path opacity=".6" d="M60.836 110.85c10.052 0 18.2-5.496 18.2-12.275 0-6.78-8.148-12.276-18.2-12.276-10.051 0-18.2 5.496-18.2 12.275 0 6.78 8.149 12.276 18.2 12.276z" fill="#ADADAD"/></g></g><path d="M53.456 75.137c0 2.44 2.799 4.084 6.366 4.084 3.567 0 6.365-1.644 6.365-4.084a.927.927 0 00-.907-.913c-.588 0-.855.414-.908.913-.566 1.336-1.965 2.143-4.55 2.27-2.585-.127-3.984-.934-4.55-2.27-.064-.499-.32-.913-.908-.913a.935.935 0 00-.908.913z" fill="#010101" fill-opacity=".6"/><path fill-rule="evenodd" clip-rule="evenodd" d="M54.375 66.055c0 2.005 2.446 3.628 5.458 3.628s5.458-1.623 5.458-3.628" fill="#010101" fill-opacity=".16"/><path d="M47.998 60.601a2.726 2.726 0 100-5.454 2.726 2.726 0 00-2.734 2.727 2.74 2.74 0 002.734 2.727zM71.656 60.601a2.726 2.726 0 100-5.454 2.733 2.733 0 00-2.734 2.727 2.74 2.74 0 002.734 2.727z" fill="#010101" fill-opacity=".6"/><path fill-rule="evenodd" clip-rule="evenodd" d="M46.428 47.052c-2.638.117-6.91 2.037-6.803 4.7 0 .084.128.127.192.052 1.25-1.347 10.157-2.705 13.287-1.983.288.063.502-.212.32-.425-1.548-1.74-4.624-2.46-6.995-2.344zM73.685 47.052c2.638.117 6.91 2.037 6.804 4.7 0 .084-.129.127-.193.052-1.25-1.347-10.157-2.705-13.286-1.983-.288.063-.502-.212-.32-.425 1.548-1.74 4.624-2.46 6.995-2.344z" fill="#010101" fill-opacity=".6"/><mask id="c" style="mask-type:alpha" maskUnits="userSpaceOnUse" x="0" y="6" width="121" height="128"><path d="M120.712 6.712H.599v127.173h120.113V6.712z" fill="#fff"/></mask><g mask="url(#c)"><path fill-rule="evenodd" clip-rule="evenodd" d="M31.55 41.323c5.885-15.024 12.112-22.536 18.67-22.536.246 0 13.308-.106 21.863-.16 9.399 4.255 15.871 13.21 15.871 23.566v6.758H50.22l-1.27-10.525-1.763 10.525H31.55v-6.758c-.011-.287-.011-.584 0-.87z" fill="#010101" fill-opacity=".16"/><mask id="d" style="mask-type:alpha" maskUnits="userSpaceOnUse" x="18" y="15" width="85" height="81"><path fill-rule="evenodd" clip-rule="evenodd" d="M86.075 46.68c.042.605.064 1.21.064 1.815v17.263c0 10.143-5.95 18.907-14.558 22.981v3.958c8.256.679 16.256 1.825 20.923 3.034 4.529-6.154 10.414-11.904 10.467-23.162.043-8.626-12.592-43.406-18.2-50.408-3.706-4.626-13.051-6.154-24.116-6.356-11.054-.201-20.058 2.504-23.657 6.812-4.86 5.814-18.691 41.337-18.649 49.963.054 11.268 5.939 17.008 10.467 23.162 4.678-1.21 12.678-2.356 20.923-3.035V88.75c-8.608-4.085-14.557-12.838-14.557-22.982V48.495c0-.615.021-1.22.064-1.814h12.849l1.762-9.74 1.27 9.74h34.948z" fill="#fff"/></mask><g mask="url(#d)"><path fill-rule="evenodd" clip-rule="evenodd" d="M86.075 46.68c.042.605.064 1.21.064 1.815v17.263c0 10.143-5.95 18.907-14.558 22.981v3.958c8.256.679 16.256 1.825 20.923 3.034 4.529-6.154 10.414-11.904 10.467-23.162.043-8.626-12.592-43.406-18.2-50.408-3.706-4.626-13.051-6.154-24.116-6.356-11.054-.201-20.058 2.504-23.657 6.812-4.86 5.814-18.691 41.337-18.649 49.963.054 11.268 5.939 17.008 10.467 23.162 4.678-1.21 12.678-2.356 20.923-3.035V88.75c-8.608-4.085-14.557-12.838-14.557-22.982V48.495c0-.615.021-1.22.064-1.814h12.849l1.762-9.74 1.27 9.74h34.948z" fill="#E6E6E5"/><path d="M137.256 15.657H17.143V142.83h120.113V15.657z" fill="#E2623A"/></g></g><path d="M60.174 3.848l-56.34 33.22-.406 63.417 56.939 34.228 55.934-33.825V36.262L60.174 3.848z" stroke="#005087" stroke-width="2"/><path d="M116.311 70.437c1.77 0 3.204-1.425 3.204-3.183 0-1.758-1.434-3.184-3.204-3.184-1.769 0-3.204 1.426-3.204 3.184 0 1.757 1.435 3.183 3.204 3.183z" fill="#0071BB" stroke="#005087" stroke-miterlimit="10"/><path d="M119.515 67.254h82.465" stroke="#005087" stroke-miterlimit="10"/><path d="M261.791 3.848l-56.34 33.22-.406 63.417 56.938 34.228 55.934-33.825V36.262L261.791 3.848z" fill="url(#paint2_radial_9_1146)"/><path d="M205.579 100.177l.396-62.207 54.908 30.833.566 64.955-55.87-33.581z" fill="url(#paint3_linear_9_1146)"/><path d="M206.508 38.882l53.841 30.228.555 63.703-54.78-32.933.384-60.998zm-1.057-1.814l-.406 63.416 56.938 34.229-.577-66.218-55.955-31.427z" fill="#FEF0F2"/><path d="M261.791 3.848l-56.34 33.22-.406 63.417 56.938 34.228 55.934-33.825V36.262L261.791 3.848z" stroke="#005087" stroke-width="2"/><path fill-rule="evenodd" clip-rule="evenodd" d="M307.408 95.9H216.27c-2.52 0-4.571-2.026-4.571-4.53V47.434c0-2.504 2.051-4.53 4.571-4.53h91.138c2.52 0 4.571 2.026 4.571 4.53V91.37c0 2.504-2.04 4.53-4.571 4.53z" fill="#fff"/><path d="M307.408 95.9H216.27c-2.52 0-4.571-2.026-4.571-4.53V47.434c0-2.504 2.051-4.53 4.571-4.53h91.138c2.52 0 4.571 2.026 4.571 4.53V91.37c0 2.504-2.04 4.53-4.571 4.53z" stroke="#112E51"/><path fill-rule="evenodd" clip-rule="evenodd" d="M303.627 55.848h-43.171a1.836 1.836 0 01-1.848-1.836v-2.854a1.85 1.85 0 011.848-1.836h43.171c1.025 0 1.847.817 1.847 1.836v2.854a1.842 1.842 0 01-1.847 1.836zM303.413 89.333h-11.236a1.836 1.836 0 01-1.848-1.835V74.585a1.85 1.85 0 011.848-1.835h11.236c1.025 0 1.848.817 1.848 1.835v12.913c.011 1.007-.823 1.835-1.848 1.835zM278.293 63.242h-17.794a1.836 1.836 0 01-1.848-1.835c0-1.018.833-1.835 1.848-1.835h17.794a1.835 1.835 0 110 3.67zM303.573 63.242h-17.794a1.835 1.835 0 110-3.67h17.794a1.835 1.835 0 110 3.67zM285.747 70.585h-25.302a1.836 1.836 0 01-1.848-1.836c0-1.018.834-1.835 1.848-1.835h25.302c1.026 0 1.848.817 1.848 1.835a1.842 1.842 0 01-1.848 1.836zM281.913 77.916h-21.478a1.835 1.835 0 01-1.848-1.835c0-1.019.833-1.835 1.848-1.835h21.478a1.835 1.835 0 110 3.67zM267.441 85.29h-7.081a1.836 1.836 0 01-1.848-1.835c0-1.008.833-1.835 1.848-1.835h7.081c1.026 0 1.848.816 1.848 1.835.011 1.008-.822 1.835-1.848 1.835zM282.052 85.205h-7.081a1.836 1.836 0 01-1.848-1.835c0-1.008.833-1.835 1.848-1.835h7.081c1.026 0 1.848.817 1.848 1.835.011 1.008-.822 1.835-1.848 1.835z" fill="#5C5C5C"/><path fill-rule="evenodd" clip-rule="evenodd" d="M239.501 79.804c5.105.414 9.121 4.69 9.121 9.89v1.23h-27.62v-1.23c0-5.253 4.091-9.55 9.26-9.9 0 .053-.011.106-.011.159 0 1.634 2.072 2.96 4.625 2.96s4.625-1.326 4.625-2.96c.01-.053 0-.096 0-.149z" fill="#F0F0F0"/><path d="M253.044 75.773H216.58v15.162h36.464V75.773z" fill="#fff"/><path opacity=".6" d="M234.876 83.87c3.023 0 5.479-1.666 5.479-3.714s-2.446-3.713-5.479-3.713-5.479 1.665-5.479 3.713c.011 2.058 2.456 3.714 5.479 3.714z" fill="#010101" fill-opacity=".16"/><path fill-rule="evenodd" clip-rule="evenodd" d="M248.942 90.203h-28.581c-1.26 0-2.285-1.019-2.285-2.26V51.731c0-1.252 1.025-2.26 2.285-2.26h28.581c1.261 0 2.286 1.018 2.286 2.26v36.212c0 1.242-1.025 2.26-2.286 2.26z" fill="#EBF3FA"/><path d="M238.123 77.237v2.536h.556c5.092.566 9.441 3.726 9.441 9.211l.44 1.08-27.036-.72-.04-.36c0-5.485 3.805-8.645 9.462-9.21h.555v-2.537a7.73 7.73 0 01-4.379-6.164 1.66 1.66 0 01-1.42-1.634v-1.931c0-.817.598-1.496 1.378-1.634v-.849c0-4.265 3.46-7.724 7.732-7.724 4.273 0 7.733 3.459 7.733 7.724v.85c.78.126 1.378.816 1.378 1.633v1.931c0 .838-.62 1.528-1.421 1.634a7.743 7.743 0 01-4.379 6.165z" fill="#FEDBB5"/><path fill-rule="evenodd" clip-rule="evenodd" d="M231.48 77.237c.021.404 0 .16.021 1.062.011.54 2.457.509 3.386.509.694 0 3.204-.053 3.247-.51.042-.445 0-.763 0-1.06-.812.18-2.115.36-3.418.35a17.874 17.874 0 01-3.236-.35z" fill="#010101" fill-opacity=".16"/><path d="M232.879 73.015c0 .742.855 1.241 1.933 1.241 1.079 0 1.934-.499 1.934-1.241a.282.282 0 00-.278-.276c-.182 0-.256.127-.278.276-.171.403-.598.647-1.378.69-.779-.043-1.207-.287-1.377-.69-.022-.149-.097-.276-.278-.276a.275.275 0 00-.278.276z" fill="#010101" fill-opacity=".6"/><path fill-rule="evenodd" clip-rule="evenodd" d="M233.157 70.256c0 .606.737 1.105 1.656 1.105.918 0 1.655-.5 1.655-1.105" fill="#010101" fill-opacity=".16"/><path d="M231.224 68.602a.832.832 0 00.833-.828.832.832 0 00-.833-.828.831.831 0 00-.833.828c0 .456.373.828.833.828zM238.401 68.602a.832.832 0 00.833-.828.832.832 0 00-.833-.828.831.831 0 00-.833.828c.01.456.373.828.833.828z" fill="#010101" fill-opacity=".6"/><path fill-rule="evenodd" clip-rule="evenodd" d="M230.743 64.484c-.801.032-2.093.616-2.061 1.422 0 .021.042.042.064.021.384-.403 3.087-.817 4.037-.605.086.022.15-.063.096-.127-.48-.53-1.42-.743-2.136-.71zM239.02 64.484c.801.032 2.094.616 2.062 1.422 0 .021-.043.042-.065.021-.384-.403-3.086-.817-4.037-.605-.085.022-.149-.063-.096-.127.481-.53 1.41-.743 2.136-.71z" fill="#010101" fill-opacity=".6"/><path fill-rule="evenodd" clip-rule="evenodd" d="M225.979 62.84c1.784-4.562 3.675-6.843 5.661-6.843l6.633-.053c2.851 1.294 4.817 4.01 4.817 7.151v2.048h-11.461l-.384-3.194-.534 3.194h-4.742v-2.048c0-.085.01-.17.01-.254z" fill="#010101" fill-opacity=".16"/><mask id="e" style="mask-type:alpha" maskUnits="userSpaceOnUse" x="221" y="55" width="27" height="25"><path fill-rule="evenodd" clip-rule="evenodd" d="M242.524 64.463c.011.18.021.371.021.552v5.241a7.727 7.727 0 01-4.422 6.981v1.2c2.51.201 4.935.551 6.355.922 1.378-1.867 3.162-3.607 3.172-7.034.011-2.62-3.823-13.178-5.521-15.3-1.122-1.4-3.963-1.867-7.317-1.93-3.353-.064-6.087.763-7.177 2.068-1.474 1.761-5.671 12.552-5.661 15.162.011 3.416 1.805 5.156 3.172 7.034 1.421-.37 3.846-.71 6.355-.923v-1.199a7.716 7.716 0 01-4.421-6.981v-5.241c0-.18.01-.372.021-.552h3.898l.535-2.96.384 2.96h10.606z" fill="#fff"/></mask><g mask="url(#e)"><path fill-rule="evenodd" clip-rule="evenodd" d="M242.524 64.463c.011.18.021.371.021.552v5.241a7.727 7.727 0 01-4.422 6.982v1.199c2.51.201 4.935.551 6.355.923 1.378-1.868 3.162-3.608 3.172-7.035.011-2.62-3.823-13.178-5.521-15.3-1.122-1.4-3.963-1.867-7.317-1.93-3.353-.064-6.087.763-7.177 2.068-1.474 1.762-5.671 12.552-5.661 15.162.011 3.417 1.805 5.157 3.172 7.035 1.421-.372 3.846-.711 6.355-.923v-1.2a7.716 7.716 0 01-4.421-6.98v-5.242c0-.18.01-.372.021-.552h3.898l.535-2.96.384 2.96h10.606z" fill="#E6E6E5"/><path d="M258.533 54.968H222.07v38.6h36.463v-38.6z" fill="#E2623A"/></g><path fill-rule="evenodd" clip-rule="evenodd" d="M239.49 79.795c5.105.392 9.196 4.403 9.196 9.284v1.124h-27.62V89.08c0-4.924 4.08-8.998 9.26-9.327v.191c0 1.528 2.072 2.78 4.625 2.78 2.552 0 4.507-1.135 4.507-2.663 0-.053.032-.223.032-.265z" fill="#DEDEDE"/><path fill-rule="evenodd" clip-rule="evenodd" d="M301.405 101.673l6.056-5.794 5.063 5.794 8.256-8.616h3.172l3.343 5.05-3.343 4.627-12.699 10.833-9.848-11.894z" fill="#fff"/><path fill-rule="evenodd" clip-rule="evenodd" d="M314.713 117.461c8.78 0 15.893-7.067 15.893-15.788 0-8.722-7.113-15.788-15.893-15.788-8.779 0-15.892 7.066-15.892 15.788 0 8.721 7.123 15.788 15.892 15.788zm9.954-19.141l-11.791 11.713a1.041 1.041 0 01-1.452 0l-6.665-6.62a1.007 1.007 0 010-1.443l1.452-1.443a1.043 1.043 0 011.453 0l4.486 4.456 9.612-9.55a1.044 1.044 0 011.453 0l1.452 1.444c.406.403.406 1.04 0 1.443z" fill="#65BB61"/><path d="M205.184 70.437c1.77 0 3.204-1.425 3.204-3.183 0-1.758-1.434-3.184-3.204-3.184-1.77 0-3.204 1.426-3.204 3.184 0 1.757 1.434 3.183 3.204 3.183z" fill="#0071BB" stroke="#005087" stroke-miterlimit="10"/><path d="M463.397 3.848l-56.34 33.22-.406 63.417 56.938 34.228 55.934-33.825V36.262L463.397 3.848z" fill="url(#paint4_radial_9_1146)"/><path d="M407.196 100.177l.395-62.207 54.899 30.833.566 64.955-55.86-33.581z" fill="url(#paint5_linear_9_1146)"/><path d="M408.115 38.882l53.84 30.228.556 63.703-54.792-32.933.396-60.998zm-1.058-1.814l-.406 63.416 56.938 34.229-.576-66.218-55.956-31.427z" fill="#FEF0F2"/><path d="M463.397 3.848l-56.34 33.22-.406 63.417 56.938 34.228 55.934-33.825V36.262L463.397 3.848z" stroke="#005087" stroke-width="2"/><path d="M504.186 102.766h-81.172c-5.896 0-10.681-4.754-10.681-10.61V44.802c0-5.856 4.785-10.61 10.681-10.61h81.172c5.896 0 10.681 4.754 10.681 10.61v47.354c0 5.856-4.785 10.61-10.681 10.61z" fill="#fff" stroke="#112E51" stroke-width="3"/><path d="M513.329 61.121h-99.34V46.405c-.555-7.555 4.721-11.31 10.681-10.61h77.978c6.793-.616 11.332 4.764 10.681 10.61V61.12z" fill="#ECF3FB"/><path d="M463.6 72.452c7.503 0 13.586-6.042 13.586-13.496 0-7.453-6.083-13.496-13.586-13.496s-13.586 6.043-13.586 13.496c0 7.454 6.083 13.496 13.586 13.496z" fill="#112E51"/><path d="M463.6 72.452c7.503 0 13.586-6.042 13.586-13.496 0-7.453-6.083-13.496-13.586-13.496s-13.586 6.043-13.586 13.496c0 7.454 6.083 13.496 13.586 13.496z" stroke="#112E51" stroke-width="2" stroke-miterlimit="10" stroke-linecap="round" stroke-dasharray="2 2"/><path d="M463.6 50.33l2.585 5.21 5.789.828-4.187 4.063.982 5.719-5.169-2.706-5.18 2.706.993-5.719-4.186-4.063 5.788-.828 2.585-5.21z" fill="#fff" stroke="#112E51" stroke-miterlimit="10" stroke-linecap="round" stroke-linejoin="round"/><path d="M476.384 84.135h-24.565a1.068 1.068 0 01-1.068-1.061v-1.061c0-.584.481-1.062 1.068-1.062h24.565c.588 0 1.068.478 1.068 1.062v1.06c0 .585-.48 1.062-1.068 1.062zM474.783 89.79h-21.361a1.067 1.067 0 01-1.068-1.06v-1.062c0-.584.48-1.062 1.068-1.062h21.361c.587 0 1.068.478 1.068 1.062v1.061c0 .584-.481 1.062-1.068 1.062z" fill="#C8D3DF"/><path d="M406.651 70.437c1.77 0 3.204-1.425 3.204-3.183 0-1.758-1.434-3.184-3.204-3.184-1.769 0-3.204 1.426-3.204 3.184 0 1.757 1.435 3.183 3.204 3.183z" fill="#0071BB" stroke="#005087" stroke-miterlimit="10"/><path d="M321.121 67.328l82.326-.075" stroke="#005087" stroke-miterlimit="10"/><path d="M317.918 70.51c1.769 0 3.204-1.424 3.204-3.182s-1.435-3.183-3.204-3.183c-1.77 0-3.205 1.425-3.205 3.183 0 1.758 1.435 3.183 3.205 3.183z" fill="#0071BB" stroke="#005087" stroke-miterlimit="10"/><defs><radialGradient id="paint0_radial_9_1146" cx="0" cy="0" r="1" gradientUnits="userSpaceOnUse" gradientTransform="matrix(0 65.4273 -56.4373 0 59.872 69.283)"><stop stop-color="#fff"/><stop offset="1" stop-color="#FFF0F3"/></radialGradient><radialGradient id="paint2_radial_9_1146" cx="0" cy="0" r="1" gradientUnits="userSpaceOnUse" gradientTransform="matrix(0 65.4273 -56.4373 0 261.493 69.283)"><stop stop-color="#fff"/><stop offset="1" stop-color="#FFF0F3"/></radialGradient><radialGradient id="paint4_radial_9_1146" cx="0" cy="0" r="1" gradientUnits="userSpaceOnUse" gradientTransform="matrix(0 65.4273 -56.4372 0 463.098 69.283)"><stop stop-color="#fff"/><stop offset="1" stop-color="#FFF0F3"/></radialGradient><linearGradient id="paint1_linear_9_1146" x1="3.971" y1="85.867" x2="59.836" y2="85.867" gradientUnits="userSpaceOnUse"><stop stop-color="#fff" stop-opacity=".5"/><stop offset="1" stop-color="#FEF0F2"/></linearGradient><linearGradient id="paint3_linear_9_1146" x1="205.582" y1="85.867" x2="261.447" y2="85.867" gradientUnits="userSpaceOnUse"><stop stop-color="#fff" stop-opacity=".5"/><stop offset="1" stop-color="#FEF0F2"/></linearGradient><linearGradient id="paint5_linear_9_1146" x1="407.192" y1="85.867" x2="463.057" y2="85.867" gradientUnits="userSpaceOnUse"><stop stop-color="#fff" stop-opacity=".5"/><stop offset="1" stop-color="#FEF0F2"/></linearGradient></defs></svg>