<svg width="521" height="134" viewBox="0 0 521 134" fill="none" xmlns="http://www.w3.org/2000/svg"><path d="M60.174 1.657l-56.34 33.25-.406 63.472 56.939 34.259L116.3 98.783V34.099L60.174 1.657z" fill="url(#paint0_radial_9_1152)"/><path d="M3.974 98.07l.395-62.261 54.909 30.86.555 65.013-55.86-33.611z" fill="url(#paint1_linear_9_1152)"/><path d="M4.892 36.722l53.84 30.255.556 63.759-54.78-32.963.384-61.051zm-1.058-1.816L3.428 98.38l56.939 34.258-.577-66.276L3.834 34.906z" fill="#FEF0F2"/><mask id="a" style="mask-type:alpha" maskUnits="userSpaceOnUse" x="0" y="4" width="122" height="129"><path fill-rule="evenodd" clip-rule="evenodd" d="M5.511 77.363c0 30.255 24.672 54.786 55.101 54.786s55.101-24.531 55.101-54.786h5.511V4.311H0v73.041h5.511v.011z" fill="#fff"/></mask><g mask="url(#a)"><path d="M71.624 86.772v8.389h1.837c18.253 0 23.251 11.851 27.086 14.05l-80.083.286c4.187-3.855 9.025-14.325 27.278-14.325h1.837v-8.39c-7.914-3.738-13.607-11.373-14.557-20.421-2.67-.372-4.732-2.666-4.732-5.427v-6.393c0-2.718 1.987-4.97 4.593-5.405v-2.814c0-14.124 11.513-25.561 25.708-25.561 14.205 0 25.708 11.448 25.708 25.56v2.815c2.606.435 4.592 2.687 4.592 5.405v6.393c0 2.761-2.06 5.045-4.731 5.427-.93 9.026-6.622 16.672-14.536 20.41z" fill="#FEDBB5"/><path fill-rule="evenodd" clip-rule="evenodd" d="M49.237 86.463c.278.32-1.495 2.974.353 4.121 1.847 1.147 8.48 1.391 11.684 1.391 2.403 0 8.705-.616 10.35-1.39 2.755-1.307.32-3.718.673-4.121-2.82.711-7.316 1.476-11.866 1.433-4.23-.021-8.491-.743-11.194-1.434z" fill="#010101" fill-opacity=".16"/><path fill-rule="evenodd" clip-rule="evenodd" d="M60.377 132.626l-39.902-23.139c3.47-6.032 7.807-13.062 25.003-14.23-.01.17-.022.34-.022.51 0 5.415 6.89 9.801 15.38 9.801 8.492 0 15.38-4.386 15.38-9.802 0-.159-.01-.318-.02-.478 16.981 1.38 21.574 10.577 24.351 13.912L63.87 130.513" fill="#DEDEDE"/><mask id="b" style="mask-type:alpha" maskUnits="userSpaceOnUse" x="14" y="95" width="93" height="38"><path fill-rule="evenodd" clip-rule="evenodd" d="M76.195 95.298c16.982 1.38 30.322 15.526 30.322 32.761v4.089H14.686v-4.089c0-17.395 13.585-31.635 30.78-32.793-.01.17-.02.34-.02.51 0 5.416 6.889 9.802 15.38 9.802 8.49 0 15.38-4.386 15.38-9.802.01-.16.01-.319-.011-.478z" fill="#fff"/></mask><g mask="url(#b)"><path opacity=".6" d="M60.836 108.755c10.052 0 18.2-5.502 18.2-12.287 0-6.786-8.148-12.288-18.2-12.288-10.051 0-18.2 5.502-18.2 12.287 0 6.786 8.149 12.288 18.2 12.288z" fill="#ADADAD"/></g></g><path d="M53.456 73.009c0 2.442 2.799 4.088 6.366 4.088 3.567 0 6.365-1.646 6.365-4.088 0-.5-.427-.913-.907-.913-.588 0-.855.414-.908.913-.566 1.338-1.965 2.144-4.55 2.272-2.585-.128-3.984-.934-4.55-2.272-.064-.5-.32-.913-.908-.913a.935.935 0 00-.908.913z" fill="#010101" fill-opacity=".6"/><path fill-rule="evenodd" clip-rule="evenodd" d="M54.375 63.919c0 2.006 2.446 3.63 5.458 3.63s5.458-1.624 5.458-3.63" fill="#010101" fill-opacity=".16"/><path d="M47.998 58.46a2.734 2.734 0 002.735-2.729 2.727 2.727 0 00-2.735-2.73 2.727 2.727 0 00-2.734 2.73 2.74 2.74 0 002.734 2.73zM71.656 58.46a2.734 2.734 0 002.734-2.729 2.727 2.727 0 00-2.734-2.73 2.734 2.734 0 00-2.734 2.73 2.74 2.74 0 002.734 2.73z" fill="#010101" fill-opacity=".6"/><path fill-rule="evenodd" clip-rule="evenodd" d="M46.428 44.9c-2.638.116-6.91 2.038-6.803 4.703 0 .085.128.127.192.053 1.25-1.349 10.157-2.708 13.287-1.986.288.064.502-.212.32-.424-1.548-1.742-4.624-2.464-6.995-2.347zM73.685 44.9c2.638.116 6.91 2.038 6.804 4.703 0 .085-.129.127-.193.053-1.25-1.349-10.157-2.708-13.286-1.986-.288.064-.502-.212-.32-.424 1.548-1.742 4.624-2.464 6.995-2.347z" fill="#010101" fill-opacity=".6"/><mask id="c" style="mask-type:alpha" maskUnits="userSpaceOnUse" x="0" y="4" width="121" height="128"><path d="M120.712 4.524H.599v127.285h120.113V4.524z" fill="#fff"/></mask><g mask="url(#c)"><path fill-rule="evenodd" clip-rule="evenodd" d="M31.55 39.166c5.885-15.038 12.112-22.557 18.67-22.557.246 0 13.308-.106 21.863-.16 9.399 4.26 15.871 13.223 15.871 23.587v6.765H50.22l-1.27-10.535-1.763 10.535H31.55v-6.765c-.011-.286-.011-.584 0-.87z" fill="#010101" fill-opacity=".16"/><mask id="d" style="mask-type:alpha" maskUnits="userSpaceOnUse" x="18" y="13" width="85" height="81"><path fill-rule="evenodd" clip-rule="evenodd" d="M86.075 44.527c.042.606.064 1.211.064 1.816v17.278c0 10.152-5.95 18.924-14.558 23.002v3.961c8.256.68 16.256 1.827 20.923 3.037 4.529-6.159 10.414-11.915 10.467-23.182.043-8.634-12.592-43.444-18.2-50.453-3.706-4.63-13.05-6.16-24.116-6.361-11.054-.202-20.058 2.506-23.657 6.817-4.86 5.82-18.691 41.374-18.649 50.008.054 11.278 5.939 17.023 10.467 23.182 4.678-1.21 12.678-2.358 20.923-3.037v-3.961c-8.608-4.089-14.557-12.85-14.557-23.002V46.343c0-.616.021-1.22.064-1.816h12.849l1.762-9.748 1.27 9.748h34.948z" fill="#fff"/></mask><g mask="url(#d)"><path fill-rule="evenodd" clip-rule="evenodd" d="M86.075 44.527c.042.606.064 1.211.064 1.816v17.278c0 10.152-5.95 18.924-14.558 23.002v3.961c8.256.68 16.256 1.827 20.923 3.037 4.529-6.159 10.414-11.915 10.467-23.182.043-8.634-12.592-43.444-18.2-50.453-3.706-4.63-13.051-6.16-24.116-6.361-11.054-.202-20.058 2.506-23.657 6.817-4.86 5.82-18.691 41.374-18.649 50.008.054 11.278 5.939 17.023 10.467 23.182 4.678-1.21 12.678-2.358 20.923-3.037v-3.961c-8.608-4.089-14.557-12.85-14.557-23.002V46.343c0-.616.021-1.22.064-1.816h12.849l1.762-9.748 1.27 9.748h34.948z" fill="#E6E6E5"/><path d="M137.256 13.477H17.143v127.285h120.113V13.477z" fill="#E2623A"/></g></g><path d="M60.174 1.657l-56.34 33.25-.406 63.472 56.939 34.259L116.3 98.783V34.099L60.174 1.657z" stroke="#005087" stroke-width="2"/><path d="M116.311 68.305a3.195 3.195 0 003.204-3.186 3.195 3.195 0 00-3.204-3.186 3.195 3.195 0 00-3.204 3.186 3.195 3.195 0 003.204 3.186z" fill="#0071BB" stroke="#005087" stroke-miterlimit="10"/><path d="M119.515 65.118h82.465" stroke="#005087" stroke-miterlimit="10"/><path d="M261.791 1.657l-56.34 33.25-.406 63.472 56.938 34.259 55.934-33.855V34.099L261.791 1.657z" fill="url(#paint2_radial_9_1152)"/><path d="M205.579 98.07l.396-62.261 54.908 30.86.566 65.013-55.87-33.611z" fill="url(#paint3_linear_9_1152)"/><path d="M206.508 36.722l53.841 30.255.555 63.759-54.78-32.963.384-61.051zm-1.057-1.816l-.406 63.473 56.938 34.258-.577-66.276-55.955-31.455z" fill="#FEF0F2"/><path d="M261.791 1.657l-56.34 33.25-.406 63.472 56.938 34.259 55.934-33.855V34.099L261.791 1.657z" stroke="#005087" stroke-width="2"/><path fill-rule="evenodd" clip-rule="evenodd" d="M307.408 93.791H216.27c-2.52 0-4.571-2.028-4.571-4.534V45.28c0-2.506 2.051-4.534 4.571-4.534h91.138c2.52 0 4.571 2.028 4.571 4.534v43.976c0 2.506-2.04 4.534-4.571 4.534z" fill="#fff"/><path d="M307.408 93.791H216.27c-2.52 0-4.571-2.028-4.571-4.534V45.28c0-2.506 2.051-4.534 4.571-4.534h91.138c2.52 0 4.571 2.028 4.571 4.534v43.976c0 2.506-2.04 4.534-4.571 4.534z" stroke="#112E51"/><path fill-rule="evenodd" clip-rule="evenodd" d="M303.627 53.703h-43.171a1.837 1.837 0 01-1.848-1.837v-2.857a1.85 1.85 0 011.848-1.837h43.171c1.025 0 1.847.817 1.847 1.837v2.857a1.843 1.843 0 01-1.847 1.837zM303.413 87.218h-11.236a1.837 1.837 0 01-1.848-1.837V72.457a1.85 1.85 0 011.848-1.838h11.236c1.025 0 1.848.818 1.848 1.838V85.38c.011 1.009-.823 1.837-1.848 1.837zM278.293 61.104h-17.794a1.837 1.837 0 110-3.674h17.794a1.836 1.836 0 110 3.674zM303.573 61.104h-17.794a1.836 1.836 0 110-3.674h17.794a1.836 1.836 0 110 3.674zM285.747 68.453h-25.302a1.837 1.837 0 110-3.674h25.302a1.836 1.836 0 110 3.674zM281.913 75.79h-21.478a1.836 1.836 0 110-3.673h21.478a1.836 1.836 0 110 3.673zM267.441 83.171h-7.081a1.837 1.837 0 01-1.848-1.837 1.85 1.85 0 011.848-1.837h7.081c1.026 0 1.848.818 1.848 1.837.011 1.009-.822 1.837-1.848 1.837zM282.052 83.086h-7.081a1.837 1.837 0 01-1.848-1.837 1.85 1.85 0 011.848-1.837h7.081c1.026 0 1.848.818 1.848 1.837.011 1.009-.822 1.837-1.848 1.837z" fill="#5C5C5C"/><path fill-rule="evenodd" clip-rule="evenodd" d="M239.501 77.68c5.105.415 9.121 4.694 9.121 9.898v1.232h-27.62v-1.232c0-5.257 4.091-9.558 9.26-9.908 0 .053-.011.106-.011.16 0 1.635 2.072 2.962 4.625 2.962s4.625-1.327 4.625-2.963c.01-.053 0-.095 0-.148z" fill="#F0F0F0"/><path d="M253.044 73.646H216.58V88.82h36.464V73.647z" fill="#fff"/><path opacity=".6" d="M234.876 81.75c3.023 0 5.479-1.668 5.479-3.717 0-2.05-2.446-3.717-5.479-3.717s-5.479 1.667-5.479 3.717c.011 2.06 2.456 3.717 5.479 3.717z" fill="#010101" fill-opacity=".16"/><path fill-rule="evenodd" clip-rule="evenodd" d="M248.942 88.088h-28.581c-1.26 0-2.285-1.02-2.285-2.262V49.582c0-1.253 1.025-2.262 2.285-2.262h28.581c1.261 0 2.286 1.02 2.286 2.262v36.244c0 1.243-1.025 2.262-2.286 2.262z" fill="#EBF3FA"/><path d="M238.123 75.111v2.538h.556c5.092.567 9.441 3.73 9.441 9.22l.44 1.081-27.036-.72-.04-.362c0-5.49 3.805-8.652 9.462-9.219h.555v-2.538a7.737 7.737 0 01-4.379-6.17 1.66 1.66 0 01-1.42-1.635v-1.933c0-.818.598-1.497 1.378-1.635v-.85a7.73 7.73 0 017.732-7.73 7.731 7.731 0 017.733 7.73v.85a1.66 1.66 0 011.378 1.635v1.933c0 .839-.62 1.53-1.421 1.635a7.749 7.749 0 01-4.379 6.17z" fill="#FEDBB5"/><path fill-rule="evenodd" clip-rule="evenodd" d="M231.48 75.111c.021.404 0 .16.021 1.064.011.543 2.457.51 3.386.51.694 0 3.204-.053 3.247-.51.042-.447 0-.766 0-1.064-.812.181-2.115.362-3.418.351a17.837 17.837 0 01-3.236-.35z" fill="#010101" fill-opacity=".16"/><path d="M232.879 70.885c0 .745.855 1.245 1.933 1.245 1.079 0 1.934-.5 1.934-1.245a.283.283 0 00-.278-.276c-.182 0-.256.127-.278.276-.171.404-.598.65-1.378.692-.779-.043-1.207-.287-1.377-.692-.022-.149-.097-.276-.278-.276a.275.275 0 00-.278.276z" fill="#010101" fill-opacity=".6"/><path fill-rule="evenodd" clip-rule="evenodd" d="M233.157 68.124c0 .606.737 1.106 1.656 1.106.918 0 1.655-.5 1.655-1.106" fill="#010101" fill-opacity=".16"/><path d="M231.224 66.471a.833.833 0 00.833-.83.833.833 0 00-1.666 0c0 .458.373.83.833.83zM238.401 66.471a.833.833 0 00.833-.83.833.833 0 00-1.666 0c.01.458.373.83.833.83z" fill="#010101" fill-opacity=".6"/><path fill-rule="evenodd" clip-rule="evenodd" d="M230.743 62.347c-.801.032-2.093.617-2.061 1.425 0 .021.042.043.064.021.384-.404 3.087-.819 4.037-.606.086.021.15-.064.096-.128-.48-.531-1.42-.744-2.136-.712zM239.02 62.347c.801.032 2.094.617 2.062 1.425 0 .021-.043.043-.065.021-.384-.404-3.086-.819-4.037-.606-.085.021-.149-.064-.096-.128.481-.531 1.41-.744 2.136-.712z" fill="#010101" fill-opacity=".6"/><path fill-rule="evenodd" clip-rule="evenodd" d="M225.979 60.702c1.784-4.566 3.675-6.85 5.661-6.85l6.633-.053c2.851 1.296 4.817 4.014 4.817 7.158v2.05h-11.461l-.384-3.197-.534 3.197h-4.742v-2.05c0-.085.01-.17.01-.255z" fill="#010101" fill-opacity=".16"/><mask id="e" style="mask-type:alpha" maskUnits="userSpaceOnUse" x="221" y="52" width="27" height="26"><path fill-rule="evenodd" clip-rule="evenodd" d="M242.524 62.326c.011.18.021.371.021.552v5.246a7.735 7.735 0 01-4.422 6.988v1.2c2.51.202 4.935.552 6.355.924 1.378-1.87 3.162-3.61 3.172-7.041.011-2.623-3.823-13.19-5.521-15.314-1.122-1.402-3.963-1.869-7.317-1.933-3.353-.063-6.087.765-7.177 2.071-1.474 1.763-5.671 12.563-5.661 15.176.011 3.42 1.805 5.161 3.172 7.04 1.421-.37 3.846-.71 6.355-.923v-1.2a7.724 7.724 0 01-4.421-6.988v-5.246c0-.18.01-.372.021-.552h3.898l.535-2.963.384 2.963h10.606z" fill="#fff"/></mask><g mask="url(#e)"><path fill-rule="evenodd" clip-rule="evenodd" d="M242.524 62.326c.011.18.021.372.021.552v5.247a7.735 7.735 0 01-4.422 6.987v1.2c2.51.202 4.935.553 6.355.924 1.378-1.869 3.162-3.61 3.172-7.04.011-2.624-3.823-13.19-5.521-15.314-1.122-1.402-3.963-1.87-7.317-1.933-3.353-.064-6.087.764-7.177 2.07-1.474 1.764-5.671 12.564-5.661 15.176.011 3.42 1.805 5.162 3.172 7.041 1.421-.371 3.846-.711 6.355-.924v-1.2a7.724 7.724 0 01-4.421-6.987v-5.247c0-.18.01-.371.021-.552h3.898l.535-2.963.384 2.963h10.606z" fill="#E6E6E5"/><path d="M258.533 52.822H222.07v38.634h36.463V52.822z" fill="#E2623A"/></g><path fill-rule="evenodd" clip-rule="evenodd" d="M239.49 77.67c5.105.394 9.196 4.408 9.196 9.293v1.126h-27.62v-1.126c0-4.928 4.08-9.006 9.26-9.335v.191c0 1.53 2.072 2.783 4.625 2.783 2.552 0 4.507-1.137 4.507-2.666 0-.053.032-.223.032-.265z" fill="#DEDEDE"/><path fill-rule="evenodd" clip-rule="evenodd" d="M301.405 99.568l6.056-5.798 5.063 5.798 8.256-8.623h3.172L327.295 96l-3.343 4.63-12.699 10.843-9.848-11.905z" fill="#fff"/><path fill-rule="evenodd" clip-rule="evenodd" d="M314.713 115.371c8.78 0 15.893-7.073 15.893-15.802 0-8.73-7.113-15.803-15.893-15.803-8.779 0-15.892 7.073-15.892 15.802 0 8.73 7.123 15.803 15.892 15.803zm9.954-19.158l-11.791 11.724a1.041 1.041 0 01-1.452 0l-6.665-6.627a1.008 1.008 0 010-1.444l1.452-1.444a1.043 1.043 0 011.453 0l4.486 4.46 9.612-9.558a1.043 1.043 0 011.453 0l1.452 1.444c.406.404.406 1.041 0 1.445z" fill="#65BB61"/><path d="M205.184 68.305a3.195 3.195 0 003.204-3.186 3.195 3.195 0 00-3.204-3.186 3.195 3.195 0 00-3.204 3.186 3.195 3.195 0 003.204 3.186z" fill="#0071BB" stroke="#005087" stroke-miterlimit="10"/><path d="M463.397 1.657l-56.34 33.25-.406 63.472 56.938 34.259 55.934-33.855V34.099L463.397 1.657z" fill="url(#paint4_radial_9_1152)"/><path d="M407.196 98.07l.395-62.261 54.899 30.86.566 65.013-55.86-33.611z" fill="url(#paint5_linear_9_1152)"/><path d="M408.115 36.722l53.84 30.255.556 63.759-54.792-32.963.396-61.051zm-1.058-1.816l-.406 63.473 56.938 34.258-.576-66.276-55.956-31.455z" fill="#FEF0F2"/><path d="M463.397 1.657l-56.34 33.25-.406 63.472 56.938 34.259 55.934-33.855V34.099L463.397 1.657z" stroke="#005087" stroke-width="2"/><path d="M504.186 100.662h-81.172c-5.896 0-10.681-4.758-10.681-10.62V42.649c0-5.862 4.785-10.62 10.681-10.62h81.172c5.896 0 10.681 4.758 10.681 10.62v47.395c0 5.861-4.785 10.619-10.681 10.619z" fill="#fff" stroke="#112E51" stroke-width="3"/><path d="M513.329 58.981h-99.34v-14.73c-.555-7.56 4.721-11.32 10.681-10.62h77.978c6.793-.615 11.332 4.77 10.681 10.62v14.73z" fill="#ECF3FB"/><path d="M463.6 70.323c7.503 0 13.586-6.048 13.586-13.508 0-7.46-6.083-13.509-13.586-13.509s-13.586 6.048-13.586 13.509c0 7.46 6.083 13.508 13.586 13.508z" fill="#112E51"/><path d="M463.6 70.323c7.503 0 13.586-6.048 13.586-13.508 0-7.46-6.083-13.509-13.586-13.509s-13.586 6.048-13.586 13.509c0 7.46 6.083 13.508 13.586 13.508z" stroke="#112E51" stroke-width="2" stroke-miterlimit="10" stroke-linecap="round" stroke-dasharray="2 2"/><path d="M463.6 48.18l2.585 5.215 5.789.828-4.187 4.067.982 5.724-5.169-2.707-5.18 2.707.993-5.724-4.186-4.067 5.788-.828 2.585-5.215z" fill="#fff" stroke="#112E51" stroke-miterlimit="10" stroke-linecap="round" stroke-linejoin="round"/><path d="M476.384 82.017h-24.565a1.069 1.069 0 01-1.068-1.063v-1.063c0-.584.481-1.063 1.068-1.063h24.565c.588 0 1.068.479 1.068 1.063v1.063c0 .585-.48 1.063-1.068 1.063zM474.783 87.678h-21.361a1.068 1.068 0 01-1.068-1.063v-1.063c0-.585.48-1.064 1.068-1.064h21.361c.587 0 1.068.479 1.068 1.064v1.063c0 .584-.481 1.063-1.068 1.063z" fill="#C8D3DF"/><path d="M406.651 68.305a3.195 3.195 0 003.204-3.186 3.195 3.195 0 00-3.204-3.186 3.195 3.195 0 00-3.204 3.186 3.195 3.195 0 003.204 3.186z" fill="#0071BB" stroke="#005087" stroke-miterlimit="10"/><path d="M321.121 65.194l82.326-.076" stroke="#005087" stroke-miterlimit="10"/><path d="M317.918 68.379a3.195 3.195 0 003.204-3.186 3.195 3.195 0 00-3.204-3.186 3.196 3.196 0 00-3.205 3.186 3.196 3.196 0 003.205 3.186z" fill="#0071BB" stroke="#005087" stroke-miterlimit="10"/><defs><radialGradient id="paint0_radial_9_1152" cx="0" cy="0" r="1" gradientUnits="userSpaceOnUse" gradientTransform="matrix(0 65.485 -56.4373 0 59.872 67.15)"><stop stop-color="#fff"/><stop offset="1" stop-color="#FFF0F3"/></radialGradient><radialGradient id="paint2_radial_9_1152" cx="0" cy="0" r="1" gradientUnits="userSpaceOnUse" gradientTransform="matrix(0 65.4851 -56.4373 0 261.493 67.15)"><stop stop-color="#fff"/><stop offset="1" stop-color="#FFF0F3"/></radialGradient><radialGradient id="paint4_radial_9_1152" cx="0" cy="0" r="1" gradientUnits="userSpaceOnUse" gradientTransform="matrix(0 65.485 -56.4372 0 463.098 67.15)"><stop stop-color="#fff"/><stop offset="1" stop-color="#FFF0F3"/></radialGradient><linearGradient id="paint1_linear_9_1152" x1="3.971" y1="83.748" x2="59.836" y2="83.748" gradientUnits="userSpaceOnUse"><stop stop-color="#fff" stop-opacity=".5"/><stop offset="1" stop-color="#FEF0F2"/></linearGradient><linearGradient id="paint3_linear_9_1152" x1="205.582" y1="83.748" x2="261.447" y2="83.748" gradientUnits="userSpaceOnUse"><stop stop-color="#fff" stop-opacity=".5"/><stop offset="1" stop-color="#FEF0F2"/></linearGradient><linearGradient id="paint5_linear_9_1152" x1="407.192" y1="83.748" x2="463.057" y2="83.748" gradientUnits="userSpaceOnUse"><stop stop-color="#fff" stop-opacity=".5"/><stop offset="1" stop-color="#FEF0F2"/></linearGradient></defs></svg>