<svg width="523" height="190" viewBox="0 0 523 190" fill="none" xmlns="http://www.w3.org/2000/svg"><path d="M135.453 184.468V172.9h3.392l2.648 8.248 2.672-8.248h3.384v11.568h-2.36v-8.848l-2.784 8.848h-1.832l-2.768-8.808v8.808h-2.352zm17.44.16a3.741 3.741 0 01-1.488-.312 3.018 3.018 0 01-1.192-.912c-.315-.405-.472-.901-.472-1.488v-5.72h2.336v5.424c0 .384.125.699.376.944s.619.368 1.104.368c.453 0 .816-.117 1.088-.352.272-.24.408-.573.408-1v-5.384h2.312v8.272h-1.76l-.272-1.64c-.096.485-.277.859-.544 1.12a2.08 2.08 0 01-.904.528 3.437 3.437 0 01-.992.152zm9.061-.016c-.614 0-1.099-.072-1.456-.216-.352-.144-.614-.333-.784-.568a1.88 1.88 0 01-.328-.792 5.484 5.484 0 01-.072-.888v-9.568h2.288v9.28c0 .304.066.552.2.744.133.192.378.307.736.344l.392.024v1.44c-.16.059-.326.107-.496.144a2.207 2.207 0 01-.48.056zm7.134-6.792h-1.84l.016 4.408c0 .304.059.496.176.576.117.075.304.112.56.112h1.112v1.44c-.112.048-.28.093-.504.136a5.315 5.315 0 01-.944.064c-.725 0-1.288-.093-1.688-.28-.395-.187-.669-.448-.824-.784a2.76 2.76 0 01-.232-1.168v-4.504h-1.344v-1.624H165l.584-2.496h1.664v2.488h1.84v1.632zm4.102-4.912v2.104h-2.272v-2.104h2.272zm-.024 3.288v8.272h-2.232v-8.272h2.232zm6.444 3.304v1.696l-4.368.008V179.5h4.368zm7.002-3.304v1.624h-1.744v6.648h-2.336v-6.648h-1.528v-1.624h1.528v-1.192c0-.667.194-1.184.584-1.552.394-.368.952-.552 1.672-.552h1.896l.008 1.552h-1.088c-.299 0-.504.075-.616.224-.107.144-.16.384-.16.72v.8h1.784zm3.961 8.432c-.795 0-1.459-.219-1.992-.656-.533-.437-.8-1.061-.8-1.872 0-.907.336-1.595 1.008-2.064.677-.475 1.749-.72 3.216-.736l1.032-.016v-.496c0-.379-.112-.669-.336-.872-.219-.208-.56-.309-1.024-.304a2.225 2.225 0 00-.976.24c-.304.155-.512.424-.624.808h-1.944c.043-.896.403-1.557 1.08-1.984.677-.427 1.533-.64 2.568-.64 1.269 0 2.168.235 2.696.704.533.464.8 1.101.8 1.912v5.816h-1.952l-.192-1.424c-.283.597-.637 1.011-1.064 1.24-.421.229-.92.344-1.496.344zm.784-1.536c.283 0 .552-.064.808-.192.256-.133.464-.304.624-.512.165-.213.248-.44.248-.68v-1.224l-.84.016a4.674 4.674 0 00-1.088.136 1.758 1.758 0 00-.816.432c-.203.197-.304.464-.304.8 0 .384.131.685.392.904.267.213.592.32.976.32zm9.532-7.056c.693 0 1.291.141 1.792.424.507.283.904.664 1.192 1.144a3.53 3.53 0 01.504 1.608h-1.944a1.977 1.977 0 00-.448-.944c-.24-.304-.6-.456-1.08-.456a1.63 1.63 0 00-1.328.632c-.336.416-.504 1.051-.504 1.904 0 .811.165 1.451.496 1.92.331.469.792.704 1.384.704.315 0 .576-.077.784-.232.213-.155.379-.339.496-.552a2.04 2.04 0 00.224-.608h1.896a3.253 3.253 0 01-.496 1.552 3.17 3.17 0 01-1.2 1.096c-.501.267-1.091.4-1.768.4-.768 0-1.453-.171-2.056-.512a3.651 3.651 0 01-1.424-1.464c-.341-.64-.512-1.403-.512-2.288 0-.853.165-1.605.496-2.256a3.697 3.697 0 011.392-1.52c.597-.368 1.299-.552 2.104-.552zm9.887 1.784h-1.84l.016 4.408c0 .304.058.496.176.576.117.075.304.112.56.112h1.112v1.44c-.112.048-.28.093-.504.136a5.315 5.315 0 01-.944.064c-.726 0-1.288-.093-1.688-.28-.395-.187-.67-.448-.824-.784a2.76 2.76 0 01-.232-1.168v-4.504h-1.344v-1.624h1.424l.584-2.496h1.664v2.488h1.84v1.632zm5.012 6.808c-.811 0-1.518-.173-2.12-.52a3.558 3.558 0 01-1.392-1.472c-.326-.635-.488-1.387-.488-2.256 0-.869.162-1.629.488-2.28a3.684 3.684 0 011.392-1.52c.602-.363 1.312-.544 2.128-.544.816 0 1.522.179 2.12.536a3.59 3.59 0 011.384 1.512c.325.645.488 1.411.488 2.296 0 .832-.16 1.568-.48 2.208a3.57 3.57 0 01-1.368 1.496c-.592.363-1.31.544-2.152.544zm.008-1.736c.41 0 .741-.12.992-.36.25-.24.432-.555.544-.944.117-.395.176-.824.176-1.288 0-.437-.054-.848-.16-1.232a2.019 2.019 0 00-.536-.944c-.246-.245-.584-.368-1.016-.368-.411 0-.744.115-1 .344-.251.229-.435.536-.552.92a4.349 4.349 0 00-.176 1.28c0 .432.053.848.16 1.248.106.395.285.717.536.968.25.251.594.376 1.032.376zm5.549 1.576v-8.272h2.248v1.96c.197-.635.52-1.147.968-1.536.448-.389 1-.584 1.656-.584.176 0 .296.016.36.048v2.224a.73.73 0 00-.176-.032 2.354 2.354 0 00-.176-.024c-.923-.08-1.579.043-1.968.368-.384.325-.576.765-.576 1.32v4.528h-2.336zm12.291.16c-.795 0-1.459-.219-1.992-.656-.534-.437-.8-1.061-.8-1.872 0-.907.336-1.595 1.008-2.064.677-.475 1.749-.72 3.216-.736l1.032-.016v-.496c0-.379-.112-.669-.336-.872-.219-.208-.56-.309-1.024-.304a2.222 2.222 0 00-.976.24c-.304.155-.512.424-.624.808h-1.944c.042-.896.402-1.557 1.08-1.984.677-.427 1.533-.64 2.568-.64 1.269 0 2.168.235 2.696.704.533.464.8 1.101.8 1.912v5.816h-1.952l-.192-1.424c-.283.597-.638 1.011-1.064 1.24-.422.229-.92.344-1.496.344zm.784-1.536c.282 0 .552-.064.808-.192.256-.133.464-.304.624-.512.165-.213.248-.44.248-.68v-1.224l-.84.016c-.39.005-.752.051-1.088.136a1.758 1.758 0 00-.816.432c-.203.197-.304.464-.304.8 0 .384.13.685.392.904.266.213.592.32.976.32zm8.926 1.536a3.741 3.741 0 01-1.488-.312 3.018 3.018 0 01-1.192-.912c-.315-.405-.472-.901-.472-1.488v-5.72h2.336v5.424c0 .384.125.699.376.944s.619.368 1.104.368c.453 0 .816-.117 1.088-.352.272-.24.408-.573.408-1v-5.384h2.312v8.272h-1.76l-.272-1.64c-.096.485-.277.859-.544 1.12a2.08 2.08 0 01-.904.528 3.437 3.437 0 01-.992.152zm11.414-6.808h-1.84l.016 4.408c0 .304.059.496.176.576.117.075.304.112.56.112h1.112v1.44c-.112.048-.28.093-.504.136a5.315 5.315 0 01-.944.064c-.725 0-1.288-.093-1.688-.28-.395-.187-.669-.448-.824-.784a2.76 2.76 0 01-.232-1.168v-4.504h-1.344v-1.624h1.424l.584-2.496h1.664v2.488h1.84v1.632zm1.726 6.648V172.58h2.32v4.808a3.92 3.92 0 01.504-.568c.202-.192.456-.352.76-.48s.674-.192 1.112-.192c.522 0 1.002.104 1.44.312.437.203.786.499 1.048.888.266.389.4.864.4 1.424v5.696h-2.344v-5.352c0-.373-.136-.659-.408-.856a1.587 1.587 0 00-.976-.304c-.384 0-.734.104-1.048.312-.315.203-.472.509-.472.92v5.28h-2.336zm11.404-3.6c-.005.635.147 1.139.456 1.512.309.373.744.56 1.304.56.4 0 .749-.085 1.048-.256.304-.171.515-.451.632-.84h2.104a2.82 2.82 0 01-.704 1.504 3.676 3.676 0 01-1.36.952 4.338 4.338 0 01-1.664.328c-.821 0-1.541-.171-2.16-.512a3.682 3.682 0 01-1.448-1.464c-.347-.629-.52-1.371-.52-2.224 0-.827.157-1.571.472-2.232a3.718 3.718 0 011.368-1.576c.603-.389 1.325-.584 2.168-.584.843 0 1.549.179 2.12.536a3.275 3.275 0 011.296 1.48c.293.629.44 1.357.44 2.184v.632h-5.552zm-.008-1.392h3.376c0-.501-.139-.928-.416-1.28-.277-.352-.696-.528-1.256-.528-.363 0-.672.088-.928.264a1.734 1.734 0 00-.576.68c-.133.272-.2.56-.2.864zm7.182 4.992v-8.272h2.296v1.168c.192-.299.477-.579.856-.84.378-.267.893-.4 1.544-.4.506 0 .978.099 1.416.296.442.197.8.509 1.072.936.272.421.408.973.408 1.656v5.456h-2.336V179.3c0-.448-.136-.784-.408-1.008a1.457 1.457 0 00-.968-.336 1.97 1.97 0 00-1.064.304c-.32.203-.48.507-.48.912v5.296h-2.336zm14.149-6.648h-1.84l.016 4.408c0 .304.059.496.176.576.117.075.304.112.56.112h1.112v1.44c-.112.048-.28.093-.504.136a5.315 5.315 0 01-.944.064c-.725 0-1.288-.093-1.688-.28-.395-.187-.669-.448-.824-.784a2.76 2.76 0 01-.232-1.168v-4.504h-1.344v-1.624h1.424l.584-2.496h1.664v2.488h1.84v1.632zm4.102-4.912v2.104h-2.272v-2.104h2.272zm-.024 3.288v8.272h-2.232v-8.272h2.232zm5.66-.16c.694 0 1.291.141 1.792.424.507.283.904.664 1.192 1.144.294.48.462 1.016.504 1.608h-1.944a1.968 1.968 0 00-.448-.944c-.24-.304-.6-.456-1.08-.456-.544 0-.986.211-1.328.632-.336.416-.504 1.051-.504 1.904 0 .811.166 1.451.496 1.92.331.469.792.704 1.384.704.315 0 .576-.077.784-.232.214-.155.379-.339.496-.552.118-.219.192-.421.224-.608h1.896a3.242 3.242 0 01-.496 1.552 3.17 3.17 0 01-1.2 1.096c-.501.267-1.09.4-1.768.4-.768 0-1.453-.171-2.056-.512a3.658 3.658 0 01-1.424-1.464c-.341-.64-.512-1.403-.512-2.288 0-.853.166-1.605.496-2.256a3.697 3.697 0 011.392-1.52c.598-.368 1.299-.552 2.104-.552zm7.45 8.592c-.794 0-1.458-.219-1.992-.656-.533-.437-.8-1.061-.8-1.872 0-.907.336-1.595 1.008-2.064.678-.475 1.75-.72 3.216-.736l1.032-.016v-.496c0-.379-.112-.669-.336-.872-.218-.208-.56-.309-1.024-.304a2.229 2.229 0 00-.976.24c-.304.155-.512.424-.624.808h-1.944c.043-.896.403-1.557 1.08-1.984.678-.427 1.534-.64 2.568-.64 1.27 0 2.168.235 2.696.704.534.464.8 1.101.8 1.912v5.816h-1.952l-.192-1.424c-.282.597-.637 1.011-1.064 1.24-.421.229-.92.344-1.496.344zm.784-1.536c.283 0 .552-.064.808-.192.256-.133.464-.304.624-.512.166-.213.248-.44.248-.68v-1.224l-.84.016a4.674 4.674 0 00-1.088.136 1.758 1.758 0 00-.816.432c-.202.197-.304.464-.304.8 0 .384.131.685.392.904.267.213.592.32.976.32zm10.653-5.272h-1.84l.016 4.408c0 .304.059.496.176.576.117.075.304.112.56.112h1.112v1.44c-.112.048-.28.093-.504.136a5.315 5.315 0 01-.944.064c-.725 0-1.288-.093-1.688-.28-.395-.187-.669-.448-.824-.784a2.76 2.76 0 01-.232-1.168v-4.504h-1.344v-1.624h1.424l.584-2.496h1.664v2.488h1.84v1.632zm4.102-4.912v2.104h-2.272v-2.104h2.272zm-.024 3.288v8.272h-2.232v-8.272h2.232zm5.668 8.432c-.81 0-1.517-.173-2.12-.52a3.57 3.57 0 01-1.392-1.472c-.325-.635-.488-1.387-.488-2.256 0-.869.163-1.629.488-2.28a3.697 3.697 0 011.392-1.52c.603-.363 1.312-.544 2.128-.544.816 0 1.523.179 2.12.536a3.577 3.577 0 011.384 1.512c.326.645.488 1.411.488 2.296 0 .832-.16 1.568-.48 2.208a3.558 3.558 0 01-1.368 1.496c-.592.363-1.309.544-2.152.544zm.008-1.736c.411 0 .742-.12.992-.36.251-.24.432-.555.544-.944.118-.395.176-.824.176-1.288 0-.437-.053-.848-.16-1.232a2.002 2.002 0 00-.536-.944c-.245-.245-.584-.368-1.016-.368-.41 0-.744.115-1 .344-.25.229-.434.536-.552.92a4.382 4.382 0 00-.176 1.28c0 .432.054.848.16 1.248.107.395.286.717.536.968.251.251.595.376 1.032.376zm5.55 1.576v-8.272h2.296v1.168c.192-.299.477-.579.856-.84.379-.267.893-.4 1.544-.4.507 0 .979.099 1.416.296.443.197.8.509 1.072.936.272.421.408.973.408 1.656v5.456h-2.336V179.3c0-.448-.136-.784-.408-1.008a1.455 1.455 0 00-.968-.336 1.97 1.97 0 00-1.064.304c-.32.203-.48.507-.48.912v5.296h-2.336zm16.755-11.856c-.555 1.045-1 2.179-1.336 3.4a14.021 14.021 0 00-.504 3.736c0 1.216.152 2.387.456 3.512a20.596 20.596 0 001.32 3.496h-1.64a23.995 23.995 0 01-1.168-2.216 11.981 11.981 0 01-.784-2.264 11.297 11.297 0 01-.272-2.544c0-1.328.208-2.597.624-3.808a14.114 14.114 0 011.648-3.312h1.656zm1.744 11.856V172.9h3.392l2.648 8.248 2.672-8.248h3.384v11.568h-2.36v-8.848l-2.784 8.848h-1.832l-2.768-8.808v8.808h-2.352zm14.687-11.568h7.872l-.008 1.952h-5.512v2.904h4.776v1.912h-4.776v4.8h-2.352V172.9zm7.879 11.568l4.144-11.568h2.464l4.136 11.568h-2.328l-.944-2.68h-4.16l-.968 2.68h-2.344zm3.832-4.72h3.08l-1.528-4.592-1.552 4.592zm7.717-7.136c.554 1.045 1 2.179 1.336 3.4.336 1.221.504 2.467.504 3.736 0 1.216-.152 2.387-.456 3.512a20.596 20.596 0 01-1.32 3.496h1.64a24.24 24.24 0 001.168-2.216c.336-.725.594-1.48.776-2.264.186-.784.28-1.632.28-2.544 0-1.328-.211-2.597-.632-3.808a13.903 13.903 0 00-1.64-3.312h-1.656z" fill="#112E51"/><path d="M59.846 3.183L3.824 34.966 3.42 95.638l56.618 32.746 55.619-32.36v-61.83l-55.81-31.01z" fill="url(#paint0_radial_1083_4055)"/><path d="M3.95 95.344l.393-59.515 54.6 29.499.563 62.143L3.95 95.344z" fill="url(#paint1_linear_1083_4055)"/><path d="M4.875 36.701l53.538 28.92.552 60.946L4.482 95.059 4.875 36.7zm-1.051-1.736L3.42 95.637l56.618 32.747-.574-63.352-55.64-30.067z" fill="#FEF0F2"/><mask id="a" style="mask-type:alpha" maskUnits="userSpaceOnUse" x="0" y="5" width="121" height="123"><path fill-rule="evenodd" clip-rule="evenodd" d="M5.48 75.54c0 28.919 24.533 52.368 54.791 52.368 30.258 0 54.791-23.449 54.791-52.369h5.48V5.721H0V75.54h5.48z" fill="#fff"/></mask><g mask="url(#a)"><path d="M71.231 84.532v8.03h1.827c18.15 0 23.12 11.328 26.933 13.429l-79.632.275c4.163-3.685 8.974-13.694 27.125-13.694h1.826v-8.03c-7.87-3.572-13.53-10.87-14.475-19.52-2.655-.355-4.705-2.547-4.705-5.187v-6.11c0-2.599 1.975-4.75 4.567-5.167v-2.69c0-13.5 11.449-24.433 25.563-24.433 14.125 0 25.564 10.942 25.564 24.433v2.69c2.591.416 4.566 2.568 4.566 5.167v6.11c0 2.64-2.05 4.822-4.704 5.188-.925 8.638-6.585 15.936-14.455 19.51z" fill="#D08C5B"/><mask id="b" style="mask-type:alpha" maskUnits="userSpaceOnUse" x="14" y="21" width="92" height="107"><path fill-rule="evenodd" clip-rule="evenodd" d="M71.231 84.532v8.03h1.827c18.15 0 32.87 14.068 32.87 31.416v3.929H14.614v-3.929c0-17.348 14.72-31.417 32.87-31.417h1.827v-8.029c-7.87-3.573-13.53-10.872-14.476-19.52-2.655-.355-4.705-2.548-4.705-5.187v-6.111c0-2.599 1.976-4.75 4.567-5.167v-2.69c0-13.5 11.449-24.433 25.563-24.433 14.126 0 25.564 10.943 25.564 24.433v2.69c2.591.416 4.567 2.568 4.567 5.167v6.11c0 2.64-2.05 4.823-4.705 5.188-.924 8.648-6.585 15.947-14.455 19.52z" fill="#fff"/></mask><g mask="url(#b)"><path fill-rule="evenodd" clip-rule="evenodd" d="M49.31 84.532c.032.386-.042 1.97 0 3.95.043 2.01 7.552 1.918 10.632 1.918 2.304 0 11.247.02 11.29-1.665.063-2.193-.086-3.716.052-4.264-2.697.68-7.01 1.411-11.364 1.37-4.057-.02-8.018-.65-10.61-1.31z" fill="#010101" fill-opacity=".16"/></g><path fill-rule="evenodd" clip-rule="evenodd" d="M60.048 128.374l-39.689-22.119c3.452-5.766 7.764-12.486 24.863-13.602a7.211 7.211 0 00-.022.487c0 5.177 6.85 9.369 15.294 9.369 8.443 0 15.293-4.192 15.293-9.369 0-.152-.01-.305-.021-.457 16.887 1.32 21.453 10.11 24.215 13.298L63.51 126.354" fill="#0C72BA"/><mask id="c" style="mask-type:alpha" maskUnits="userSpaceOnUse" x="14" y="92" width="92" height="36"><path fill-rule="evenodd" clip-rule="evenodd" d="M75.777 92.692c16.886 1.32 30.151 14.841 30.151 31.316v3.908H14.614v-3.908c0-16.627 13.509-30.24 30.608-31.346-.01.162-.021.325-.021.487 0 5.177 6.85 9.369 15.293 9.369s15.294-4.192 15.294-9.369c.01-.152 0-.304-.011-.457z" fill="#fff"/></mask><g mask="url(#c)"><path opacity=".6" d="M60.505 105.544c9.994 0 18.097-5.258 18.097-11.744 0-6.487-8.103-11.745-18.097-11.745-9.995 0-18.098 5.258-18.098 11.745 0 6.486 8.103 11.744 18.098 11.744z" fill="#205594"/></g><path d="M53.877 70.747c0 3.37 2.857 6.112 6.394 6.112 3.526 0 6.394-2.731 6.394-6.112" fill="#010101" fill-opacity=".7"/><path d="M54.791 62.454c0 1.93 2.453 3.493 5.48 3.493 3.027 0 5.48-1.564 5.48-3.493" fill="#010101" fill-opacity=".16"/><path d="M48.397 57.217c1.514 0 2.74-1.173 2.74-2.62 0-1.446-1.226-2.619-2.74-2.619-1.513 0-2.74 1.173-2.74 2.62 0 1.446 1.227 2.619 2.74 2.619zm23.748 0c1.513 0 2.74-1.173 2.74-2.62 0-1.446-1.227-2.619-2.74-2.619-1.513 0-2.74 1.173-2.74 2.62 0 1.446 1.227 2.619 2.74 2.619zm-30.301-8.222c1.785-2.406 6.691-3.757 10.908-2.762.488.112.987-.172 1.104-.64a.874.874 0 00-.669-1.055c-4.907-1.147-10.578.406-12.83 3.441-.297.396-.19.934.213 1.218a.935.935 0 001.274-.203zm36.864 0c-1.784-2.406-6.69-3.757-10.907-2.762-.489.112-.988-.172-1.105-.64a.874.874 0 01.67-1.055c4.906-1.147 10.578.406 12.83 3.441.297.396.19.934-.213 1.218-.415.285-.988.193-1.275-.203z" fill="#010101" fill-opacity=".6"/></g><path d="M59.846 3.183L3.824 34.966 3.42 95.638l56.618 32.746 55.619-32.36v-61.83l-55.81-31.01z" stroke="#005087" stroke-width="2"/><mask id="d" style="mask-type:alpha" maskUnits="userSpaceOnUse" x="0" y="5" width="121" height="123"><path d="M120.531 5.721H0v122.187h120.531V5.721z" fill="#fff"/></mask><g mask="url(#d)"><path fill-rule="evenodd" clip-rule="evenodd" d="M41.059 29.88h38.424c8.327-4.599 9.899-12.75 4.004-19.825-1.465-1.766-4.004 5.126-11.788 5.553-7.785.426-7.042-2.751-15.326-1.564-8.284 1.188-7.37 7.552-12.776 9.075-3.611 1.025-4.46 3.269-2.538 6.76z" fill="#262F33"/><mask id="e" style="mask-type:alpha" maskUnits="userSpaceOnUse" x="40" y="9" width="48" height="21"><path fill-rule="evenodd" clip-rule="evenodd" d="M41.186 29.88H79.62c8.326-4.599 9.898-12.75 4.004-19.825-1.466-1.766-4.004 5.126-11.789 5.553-7.785.426-7.041-2.751-15.325-1.564-8.284 1.188-7.37 7.553-12.777 9.075-3.621 1.026-4.47 3.269-2.548 6.76z" fill="#fff"/></mask><g mask="url(#e)"><path d="M120.202 5.72H-.33v122.186h120.532V5.72z" fill="#4B322D"/></g></g><path d="M115.667 66.89c1.76 0 3.186-1.363 3.186-3.045s-1.426-3.046-3.186-3.046-3.186 1.364-3.186 3.046c0 1.682 1.426 3.046 3.186 3.046z" fill="#0071BB" stroke="#005087" stroke-miterlimit="10"/><path d="M118.853 63.844h81.99" stroke="#005087" stroke-miterlimit="10"/><path d="M306.052 9.545l11.146.708 4.941 9.595-6.215 8.888-11.157-.686-4.931-9.595 6.216-8.91z" fill="#0071BB"/><path d="M293.95 22.049l10.653-2.909 7.978 7.223-2.627 10.126-10.624 2.908-7.99-7.223 2.61-10.125z" fill="#E21C3D"/><path d="M326.937 14.877l7.947 14.25-6.924 14.93-14.866.672-7.947-14.221 6.918-14.93 14.872-.701z" fill="#F3B8BE" fill-opacity=".5"/><path d="M263.504 3.183l-56.023 31.783-.403 60.672 56.617 32.746 55.62-32.36v-61.83l-55.811-31.01z" fill="url(#paint2_radial_1083_4055)"/><path d="M207.619 95.344l.393-59.515 54.589 29.499.563 62.143-55.545-32.127z" fill="url(#paint3_linear_1083_4055)"/><path d="M208.533 36.701l53.538 28.92.552 60.946-54.472-31.508.382-58.358zm-1.052-1.736l-.403 60.672 56.618 32.747-.574-63.352-55.641-30.067z" fill="#FEF0F2"/><path d="M263.504 3.183l-56.023 31.783-.403 60.672 56.617 32.746 55.62-32.36v-61.83l-55.811-31.01z" stroke="#005087" stroke-width="2"/><path d="M256.187 36.02h60.993c3.377 0 6.118 2.62 6.118 5.848v8.12c0 3.228-2.741 5.847-6.118 5.847h-60.993c-3.377 0-6.117-2.619-6.117-5.847v-8.12c0-3.228 2.74-5.847 6.117-5.847z" fill="#fff" stroke="#A8B6C6" stroke-width="2"/><path fill-rule="evenodd" clip-rule="evenodd" d="M260.552 50.547l1.954-2.72 1.954 2.72 1.073-.914-1.54-2.974 2.666-1.269-.415-1.451-2.825.761-.244-3.39h-1.349l-.244 3.42-2.804-.791-.414 1.451 2.666 1.27-1.561 2.973 1.083.914zm13.817 0l1.954-2.72 1.954 2.72 1.073-.914-1.54-2.974 2.666-1.269-.414-1.451-2.825.761-.245-3.39h-1.349l-.244 3.42-2.804-.791-.414 1.451 2.666 1.27-1.561 2.973 1.083.914zm14.391-2.72l-1.944 2.72-1.094-.914 1.562-2.974-2.666-1.269.414-1.451 2.804.791.244-3.42h1.349l.244 3.39 2.825-.761.414 1.451-2.665 1.27 1.54 2.973-1.073.914-1.954-2.72zm10.482 2.72l1.944-2.72 1.954 2.72 1.073-.914-1.54-2.974 2.665-1.269-.414-1.451-2.825.761-.244-3.39h-1.349l-.244 3.42-2.804-.791-.414 1.451 2.665 1.27-1.561 2.973 1.094.914zm9.962-.914l1.094.914 1.944-2.72 1.954 2.72 1.072-.914-1.54-2.974 2.666-1.269-.414-1.451-2.825.761-.244-3.39h-1.349l-.244 3.42-2.804-.791-.414 1.451 2.665 1.27-1.561 2.973z" fill="#5C626B"/><path fill-rule="evenodd" clip-rule="evenodd" d="M260.552 50.547l1.954-2.72 1.954 2.72 1.073-.914-1.54-2.974 2.666-1.269-.415-1.451-2.825.761-.244-3.39h-1.349l-.244 3.42-2.804-.791-.414 1.451 2.666 1.27-1.561 2.973 1.083.914zm13.817 0l1.954-2.72 1.954 2.72 1.073-.914-1.54-2.974 2.666-1.269-.414-1.451-2.825.761-.245-3.39h-1.349l-.244 3.42-2.804-.791-.414 1.451 2.666 1.27-1.561 2.973 1.083.914zm14.391-2.72l-1.944 2.72-1.094-.914 1.562-2.974-2.666-1.269.414-1.451 2.804.791.244-3.42h1.349l.244 3.39 2.825-.761.414 1.451-2.665 1.27 1.54 2.973-1.073.914-1.954-2.72zm10.482 2.72l1.944-2.72 1.954 2.72 1.073-.914-1.54-2.974 2.665-1.269-.414-1.451-2.825.761-.244-3.39h-1.349l-.244 3.42-2.804-.791-.414 1.451 2.665 1.27-1.561 2.973 1.094.914zm9.962-.914l1.094.914 1.944-2.72 1.954 2.72 1.072-.914-1.54-2.974 2.666-1.269-.414-1.451-2.825.761-.244-3.39h-1.349l-.244 3.42-2.804-.791-.414 1.451 2.665 1.27-1.561 2.973z" fill="#5C626B"/><path d="M293.348 90.166c10.681 0 19.34-8.276 19.34-18.485s-8.659-18.485-19.34-18.485-19.34 8.276-19.34 18.485 8.659 18.485 19.34 18.485z" fill="#ECF3FB"/><path d="M286.2 119.147l.351-28.494 14.794-1.3-.435 13.644-1.264 3.583 1.402 1.563-.839 4.527.754 5.522-8.104 8.152-6.659-7.197z" fill="#fff"/><path d="M302.247 87.689h-.764v1.218l1.126-.578-.362-.64zm0-.213h.765-.765zm0-.366h.765v-.74h-.775l.01.74zm-.392 0v-.73.73zm-15.846.061v-.73.73zm-.383 0v-.73h-.754v.72l.754.01zm0 .366h.765-.765zm0 .7l-.308.67 1.073.457.011-1.117-.776-.01zm-.01.792h.765v-.487l-.468-.193-.297.68zm16.621-.518l-.351-.65-.414.204v.446h.765zm-.053 13.166h-.765v.041l.765-.041zm-.733 1.837l-.542-.517.542.517zm-2.071 1.99l-.542-.518-.531.518.531.517.542-.517zm2.209 2.121l-.542.518.542-.518zm-.021 3.401l-.542-.518.542.518zm-2.241 2.162l-.542-.518-.531.518.531.518.542-.518zm2.209 2.122l.542-.518-.542.518zm-.032 3.39l.542.518-.542-.518zm-7.009 6.771l.541.517-.541-.517zm-3.526.02l-.542.518.542-.518zm-4.822-4.649l.542-.518-.542.518zm-.712-1.695h.765-.765zm15.984-17.46h.765-.765zm.053-12.83h.765v-1.138l-1.083.467.318.67zm-.053 12.84h-.765v.041l.765-.041zm0 .01l.765-.04-.765.04zm-.51 1.29l-.541-.518.541.518zm-2.336 2.253l-.542-.518.542.518zm-.266.254l-.541-.518-.531.518.531.517.541-.517zm.266.254l.541-.518-.541.518zm2.474 2.385l-.541.518.541-.518zm-.021 2.365l.542.518-.542-.518zm-2.506 2.416l.541.518-.541-.518zm-.266.264l-.541-.518-.531.518.531.518.541-.518zm.266.254l.541-.518-.541.518zm2.464 2.385l-.542.518.542-.518zm-.022 2.365l.542.518-.542-.518zm-7.009 6.771l.542.518-.542-.518zm-2.443.02l-.541.518.541-.518zm-4.811-4.659l-.541.518.541-.518zm-.499-1.177l-.765-.011.765.011zm0 0l.765.01-.765-.01zm.181-29.824l.265-.68-1.03-.365-.011 1.045h.776zm15.091-1.269l.329.66.436-.193v-.456l-.765-.01zm-15.091.488h-.765v.497l.488.183.277-.68zm.01-.64v-.73h-.754v.72l.754.01zm15.081-.06h.765V87.1h-.775l.01.741zm-8.124-35.021c-10.897 0-19.723 8.445-19.723 18.85h1.53c0-9.603 8.146-17.389 18.193-17.389v-1.461zm19.722 18.86c0-10.415-8.836-18.85-19.722-18.85v1.462c10.047 0 18.192 7.785 18.192 17.388h1.53zM302.598 88.33c6.224-3.168 10.472-9.44 10.472-16.658h-1.53c0 6.659-3.908 12.435-9.654 15.358l.712 1.3zm-1.115-.853v.203l1.529.01v-.203l-1.529-.01zm0-.366v.366l1.529.01v-.365l-1.529-.01zm.382.731h.382l-.01-1.461h-.382l.01 1.461zm-15.856.061l15.856-.06-.01-1.462-15.857.06.011 1.462zm-.383 0h.383l-.011-1.462h-.382l.01 1.462zm.765-.365v-.366l-1.529-.01v.366l1.529.01zm0 .7v-.7l-1.529-.01v.7l1.529.01zm-12.776-16.556c0 7.674 4.8 14.282 11.693 17.226l.626-1.33c-6.361-2.71-10.79-8.81-10.79-15.886h-1.529v-.01zm12.298 16.678c-6.786-2.761-11.534-9.187-11.534-16.678h-1.529c0 8.09 5.14 15.044 12.458 18.028l.605-1.35zm-11.534-16.678c0-10.009 8.486-18.12 18.958-18.12v-1.46c-11.321 0-20.487 8.77-20.487 19.58h1.529zm18.969-18.13c10.471 0 18.957 8.111 18.957 18.12h1.529c0-10.82-9.176-19.581-20.486-19.581v1.462zm18.957 18.13c0 7.065-4.238 13.196-10.408 16.18l.69 1.3c6.67-3.228 11.247-9.847 11.247-17.49h-1.529v.01zm-10.833 16.83l-.053 13.176 1.529.01.054-13.176-1.53-.01zm-.053 13.207c.021.477-.159.944-.52 1.279l1.083 1.025c.648-.63.998-1.492.956-2.376l-1.519.072zm-.51 1.279l-2.06 1.989 1.083 1.025 2.061-1.989-1.084-1.025zm-2.071 3.014l2.199 2.122 1.083-1.025-2.198-2.122-1.084 1.025zm2.209 2.132c.669.64.669 1.705-.021 2.365l1.083 1.025c1.264-1.218 1.296-3.197.022-4.425l-1.084 1.035zm-.021 2.365l-2.241 2.162 1.084 1.026 2.24-2.163-1.083-1.025zm-2.241 3.188l2.199 2.121 1.083-1.025-2.198-2.122-1.084 1.026zm2.199 2.131c.669.64.669 1.706-.022 2.365l1.084 1.026c1.264-1.218 1.295-3.198.021-4.426l-1.083 1.035zm-.022 2.365l-7.009 6.771 1.083 1.025 7.01-6.77-1.084-1.026zm-7.009 6.771c-.68.66-1.774.66-2.443.02l-1.083 1.026c1.274 1.238 3.345 1.197 4.609-.021l-1.083-1.025zm-2.443.02l-4.821-4.649-1.084 1.025 4.822 4.65 1.083-1.026zm-4.811-4.659a1.63 1.63 0 01-.499-1.177l-1.529-.011a3.042 3.042 0 00.934 2.213l1.094-1.025zm-.499-1.177l.181-30.118-1.53-.01-.18 30.128h1.529zm15.984-17.46l.053-12.83-1.529-.01-.054 12.83 1.53.01zm0 .01v-.01l-1.53-.01v.01l1.53.01zm0-.03l-1.53.061v.01l1.53-.071zm-.733 1.847c.51-.487.775-1.157.733-1.837l-1.53.071a.99.99 0 01-.297.741l1.094 1.025zm-2.337 2.244l2.326-2.254-1.083-1.025-2.326 2.253 1.083 1.026zm-.265.253l.265-.253-1.083-1.026-.265.254 1.083 1.025zm.265-.761l-.265-.254-1.083 1.025.265.254 1.083-1.025zm2.475 2.375l-2.475-2.385-1.083 1.025 2.475 2.386 1.083-1.026zm-.021 3.401c.977-.944.987-2.457.021-3.391l-1.083 1.026a.936.936 0 01-.021 1.34l1.083 1.025zm-2.507 2.416l2.507-2.416-1.083-1.025-2.507 2.416 1.083 1.025zm-.265.254l.265-.254-1.083-1.025-.265.253 1.083 1.026zm.265-.772l-.265-.254-1.083 1.026.265.253 1.083-1.025zm2.475 2.386l-2.475-2.386-1.083 1.025 2.475 2.386 1.083-1.025zm-.032 3.39c.977-.944.988-2.457.021-3.39l-1.083 1.025a.936.936 0 01-.021 1.34l1.083 1.025zm-7.009 6.771l7.009-6.771-1.083-1.025-7.01 6.77 1.084 1.026zm-3.526.02c.966.934 2.548.924 3.526-.02l-1.084-1.026c-.393.376-.998.366-1.359.021l-1.083 1.025zm-4.822-4.649l4.822 4.649 1.083-1.025-4.822-4.649-1.083 1.025zm-.712-1.695c0 .639.255 1.248.723 1.695l1.083-1.025a.944.944 0 01-.276-.66l-1.53-.01zm0 0l1.53.01-1.53-.01zm.181-29.834l-.181 29.834 1.53.01.18-29.834-1.529-.01zm7.732.487c-2.358 0-4.62-.416-6.691-1.167l-.542 1.37a21.31 21.31 0 007.233 1.26V89.8zm7.806-1.603a19.542 19.542 0 01-7.817 1.603v1.462c3.006 0 5.873-.62 8.443-1.736l-.626-1.33zm-7.806 2.334c3.026 0 5.894-.65 8.464-1.817l-.658-1.32a18.829 18.829 0 01-7.806 1.675v1.462zm-7.244-1.31a20.553 20.553 0 007.244 1.31V89.07c-2.358 0-4.61-.426-6.681-1.207l-.563 1.36zm-.478-1.319v.64l1.53.01v-.64l-1.53-.01zm15.846-.792l-15.091.061.01 1.462 15.092-.06-.011-1.463zm.765.944v-.213l-1.529-.01v.213l1.529.01z" fill="#A8B6C6"/><path d="M293.348 70.351c3.05 0 5.522-2.363 5.522-5.278 0-2.915-2.472-5.279-5.522-5.279-3.05 0-5.523 2.364-5.523 5.279s2.473 5.278 5.523 5.278z" stroke="#A8B6C6" stroke-width="2"/><path d="M312.688 71.681c0-10.212-8.656-18.485-19.34-18.485s-19.34 8.273-19.34 18.485 8.656 18.485 19.34 18.485m-3.463 4.507v18.708" stroke="#A8B6C6" stroke-width="2" stroke-linecap="round"/><path d="M205.41 11.659c0-2.02 1.71-3.654 3.823-3.654h54.536c2.114 0 3.823 1.634 3.823 3.654v98.342c0 2.02-1.709 3.654-3.823 3.654h-54.536c-2.113 0-3.823-1.634-3.823-3.654V11.659z" fill="#fff"/><path fill-rule="evenodd" clip-rule="evenodd" d="M253.086 8.665v1.625c0 2.02-1.71 3.655-3.824 3.655h-26.901c-2.114 0-3.824-1.635-3.824-3.655V8.665h34.549z" fill="#102F51" stroke="#102F51" stroke-width="2"/><path d="M236.507 55.551c-9.537 0-17.268 7.39-17.268 16.505 0 9.116 7.731 16.506 17.268 16.506 9.538 0 17.269-7.39 17.269-16.505" stroke="#102F51" stroke-width="3" stroke-linecap="round"/><path d="M223.21 33.047v-.609c.308-.274.595-.538.85-.771.255-.244.478-.467.669-.68.191-.214.329-.417.435-.59a1.06 1.06 0 00.16-.527c0-.234-.064-.407-.181-.518-.127-.122-.287-.183-.51-.183-.18 0-.34.05-.478.142a2.913 2.913 0 00-.393.325l-.616-.579c.245-.243.489-.426.733-.548a2.05 2.05 0 01.892-.193c.245 0 .457.04.648.112.202.071.372.173.51.305.138.121.255.284.329.456a1.556 1.556 0 01-.01 1.208 2.98 2.98 0 01-.351.61 5.043 5.043 0 01-.499.609c-.181.203-.372.396-.573.589.127-.01.254-.03.403-.04.149-.011.287-.021.404-.021h.977v.903h-3.399zm4.291 0v-.873h1.051v-2.68h-.913v-.67c.265-.05.488-.112.669-.173.181-.07.361-.152.531-.243h.828v3.766h.914v.873h-3.08zm5.363.082c-.393 0-.733-.061-1.009-.173a1.931 1.931 0 01-.679-.487l.52-.68c.149.131.308.243.478.334.18.092.372.132.584.132.244 0 .435-.05.573-.142a.478.478 0 00.213-.406.576.576 0 00-.064-.274.42.42 0 00-.202-.203 1.154 1.154 0 00-.393-.132 3.667 3.667 0 00-.647-.05v-.762c.223 0 .403-.01.541-.04a1.14 1.14 0 00.351-.123.478.478 0 00.191-.193.536.536 0 00.064-.253.495.495 0 00-.149-.376.666.666 0 00-.446-.142 1.1 1.1 0 00-.478.112 2.161 2.161 0 00-.436.304l-.562-.66c.223-.182.456-.325.701-.426.254-.112.52-.163.828-.163.255 0 .478.03.68.092.212.05.382.132.531.244.148.111.265.243.34.395.085.153.127.335.127.539a.958.958 0 01-.212.619c-.138.162-.34.304-.595.406v.03a1.5 1.5 0 01.69.407c.181.182.276.426.276.73 0 .214-.053.406-.148.58a1.383 1.383 0 01-.393.425 1.82 1.82 0 01-.574.264 3.14 3.14 0 01-.701.072zm4.248-.082v-.873h1.052v-2.68h-.914v-.67c.266-.05.489-.112.67-.173.18-.07.361-.152.531-.243h.828v3.766h.913v.873h-3.08zm5.512.082c-.244 0-.467-.03-.679-.092a1.697 1.697 0 01-.531-.264 1.193 1.193 0 01-.351-.406 1.044 1.044 0 01-.127-.518c0-.284.074-.517.233-.69.16-.183.361-.325.585-.447v-.03a2.156 2.156 0 01-.468-.457c-.127-.173-.18-.386-.18-.64 0-.193.042-.365.116-.528a1.12 1.12 0 01.319-.406 1.46 1.46 0 01.489-.253c.191-.061.403-.092.626-.092.223 0 .425.03.606.091.18.061.339.143.467.254.127.112.223.244.297.406.075.153.106.325.106.518a.985.985 0 01-.191.6 1.691 1.691 0 01-.446.415v.03c.234.123.436.275.595.468.159.193.244.436.244.741 0 .183-.042.355-.127.508a1.296 1.296 0 01-.351.406 1.893 1.893 0 01-.541.274c-.191.081-.425.111-.691.111zm.308-2.792c.202-.224.298-.447.298-.68 0-.183-.053-.326-.16-.427a.556.556 0 00-.424-.173.565.565 0 00-.383.132c-.106.092-.159.224-.159.407 0 .192.074.334.234.446.138.102.339.203.594.295zm-.286 2.05c.191 0 .339-.05.467-.142.127-.101.18-.243.18-.436a.433.433 0 00-.074-.264.592.592 0 00-.202-.193 1.888 1.888 0 00-.329-.173c-.127-.05-.255-.111-.414-.172a1.66 1.66 0 00-.266.335.78.78 0 00-.106.406.6.6 0 00.223.487.975.975 0 00.521.152zm4.152.742a1.82 1.82 0 01-.69-.132 1.623 1.623 0 01-.584-.407 1.963 1.963 0 01-.404-.71c-.106-.295-.148-.64-.148-1.056 0-.437.053-.812.159-1.127.117-.315.255-.579.435-.782a1.794 1.794 0 011.37-.609 1.9 1.9 0 01.829.173 2.2 2.2 0 01.584.386l-.584.64a1.02 1.02 0 00-.34-.224.9.9 0 00-.425-.102.935.935 0 00-.372.071.877.877 0 00-.318.244c-.085.112-.16.264-.213.447a2.912 2.912 0 00-.095.68.967.967 0 01.212-.203 1.63 1.63 0 01.255-.152c.085-.041.17-.071.255-.092.085-.02.17-.04.244-.04.213 0 .404.03.574.091.18.06.329.142.456.264.128.122.234.264.308.447.075.182.107.396.107.64 0 .243-.043.456-.128.649a1.4 1.4 0 01-.35.487 1.516 1.516 0 01-.51.315 1.799 1.799 0 01-.627.102zm-.021-.802a.59.59 0 00.425-.173c.127-.122.18-.315.18-.579 0-.243-.063-.426-.18-.517a.656.656 0 00-.446-.153.858.858 0 00-.733.467c.021.183.064.335.117.457.053.122.106.223.18.305a.779.779 0 00.213.162.94.94 0 00.244.03zM234.32 74.636c-.393 0-.733-.061-1.009-.173a1.925 1.925 0 01-.68-.487l.52-.68c.149.131.308.243.478.334.181.092.372.133.584.133.245 0 .436-.051.574-.143a.48.48 0 00.212-.406.576.576 0 00-.064-.274.418.418 0 00-.201-.203 1.172 1.172 0 00-.393-.132c-.17-.03-.383-.05-.648-.05v-.762a2.7 2.7 0 00.542-.04c.148-.031.265-.072.35-.123a.472.472 0 00.191-.192.525.525 0 00.064-.254.492.492 0 00-.149-.376.666.666 0 00-.446-.142 1.1 1.1 0 00-.478.112 2.13 2.13 0 00-.435.304l-.563-.66c.223-.182.457-.325.701-.426.255-.112.52-.162.828-.162.255 0 .478.03.68.09.212.052.382.133.531.245.149.111.266.243.34.395.085.153.127.336.127.539a.958.958 0 01-.212.619c-.138.162-.34.305-.595.406v.03c.276.082.51.214.69.406.181.183.277.427.277.732 0 .213-.053.406-.149.578a1.383 1.383 0 01-.393.427 1.838 1.838 0 01-.574.264c-.223.04-.456.07-.7.07zm4.067 0c-.393 0-.733-.061-1.009-.183a2.434 2.434 0 01-.701-.467l.51-.68c.149.132.308.233.478.325.17.09.361.132.573.132.255 0 .447-.061.595-.183.149-.122.223-.305.223-.538 0-.234-.074-.416-.212-.538-.138-.122-.319-.183-.552-.183-.075 0-.139.01-.192.01-.053.01-.116.02-.17.04-.053.021-.106.041-.169.072-.054.03-.117.06-.192.111l-.509-.304.138-2.345h2.75v.903h-1.784l-.085.873c.096-.04.181-.06.255-.08.085-.021.181-.031.287-.031.212 0 .403.03.584.091.191.06.35.142.499.264.138.122.255.264.34.447.085.182.127.396.127.64 0 .253-.053.487-.148.69a1.451 1.451 0 01-.393.507 1.72 1.72 0 01-.574.315 2.047 2.047 0 01-.669.112z" fill="#5C626B"/><path d="M207.853 8.005h55.917c2.113 0 3.823 1.634 3.823 3.654v98.342c0 2.02-1.71 3.654-3.823 3.654h-55.917c-2.114 0-3.823-1.634-3.823-3.654V11.659c0-2.02 1.709-3.654 3.823-3.654z" stroke="#102F51" stroke-width="3"/><path d="M204.029 66.89c1.76 0 3.187-1.363 3.187-3.045s-1.427-3.046-3.187-3.046c-1.759 0-3.186 1.364-3.186 3.046 0 1.682 1.427 3.046 3.186 3.046z" fill="#0071BB" stroke="#005087" stroke-miterlimit="10"/><path d="M463.986 3.183l-56.023 31.783-.403 60.672 56.617 32.746 55.62-32.36v-61.83l-55.811-31.01z" fill="url(#paint4_radial_1083_4055)"/><path d="M408.09 95.344l.393-59.515 54.6 29.499.563 62.143-55.556-32.127z" fill="url(#paint5_linear_1083_4055)"/><path d="M409.015 36.701l53.537 28.92.553 60.946-54.483-31.508.393-58.358zm-1.052-1.736l-.403 60.672 56.617 32.747-.573-63.352-55.641-30.067z" fill="#FEF0F2"/><path d="M463.986 3.183l-56.023 31.783-.403 60.672 56.617 32.746 55.62-32.36v-61.83l-55.811-31.01z" stroke="#005087" stroke-width="2"/><path d="M504.535 97.82H423.82c-5.863 0-10.621-4.548-10.621-10.151V42.365c0-5.603 4.758-10.15 10.621-10.15h80.715c5.863 0 10.621 4.547 10.621 10.15V87.67c0 5.603-4.748 10.15-10.621 10.15z" fill="#fff" stroke="#102F51" stroke-width="3"/><path d="M513.625 57.967h-98.781V43.888c-.552-7.227 4.695-10.82 10.621-10.15h77.54c6.754-.59 11.268 4.557 10.62 10.15v14.08z" fill="#EBF3FA"/><path d="M464.177 68.818c7.461 0 13.51-5.78 13.51-12.912 0-7.13-6.049-12.912-13.51-12.912-7.461 0-13.509 5.781-13.509 12.912 0 7.132 6.048 12.912 13.509 12.912z" fill="#102F51"/><path d="M464.177 68.818c7.461 0 13.51-5.78 13.51-12.912 0-7.13-6.049-12.912-13.51-12.912-7.461 0-13.509 5.781-13.509 12.912 0 7.132 6.048 12.912 13.509 12.912z" stroke="#102F51" stroke-width="2" stroke-miterlimit="10" stroke-linecap="round" stroke-dasharray="2 2"/><path d="M464.177 47.654l2.581 4.974 5.746.802-4.163 3.877.987 5.482-5.151-2.589-5.14 2.589.977-5.482-4.163-3.877 5.756-.802 2.57-4.974z" fill="#fff" stroke="#102F51" stroke-miterlimit="10" stroke-linecap="round" stroke-linejoin="round"/><path d="M476.9 79.987h-24.427c-.584 0-1.062-.457-1.062-1.016v-1.016c0-.559.478-1.016 1.062-1.016H476.9c.585 0 1.062.457 1.062 1.016v1.016c0 .569-.477 1.016-1.062 1.016zm-1.592 5.42h-21.241c-.584 0-1.062-.457-1.062-1.016v-1.015c0-.56.478-1.016 1.062-1.016h21.241c.584 0 1.062.457 1.062 1.016v1.015c0 .56-.478 1.016-1.062 1.016z" fill="#DEDEDE"/><path d="M407.56 66.89c1.759 0 3.186-1.363 3.186-3.045s-1.427-3.046-3.186-3.046c-1.76 0-3.186 1.364-3.186 3.046 0 1.682 1.426 3.046 3.186 3.046z" fill="#0071BB" stroke="#005087" stroke-miterlimit="10"/><path d="M322.511 63.916l81.863-.072" stroke="#005087" stroke-miterlimit="10"/><path d="M319.325 66.962c1.759 0 3.186-1.364 3.186-3.046 0-1.682-1.427-3.046-3.186-3.046-1.76 0-3.186 1.364-3.186 3.046 0 1.682 1.426 3.046 3.186 3.046z" fill="#0071BB" stroke="#005087" stroke-miterlimit="10"/><defs><radialGradient id="paint0_radial_1083_4055" cx="0" cy="0" r="1" gradientUnits="userSpaceOnUse" gradientTransform="matrix(0 62.5954 -56.1197 0 59.545 65.782)"><stop stop-color="#fff"/><stop offset="1" stop-color="#FFF0F3"/></radialGradient><radialGradient id="paint2_radial_1083_4055" cx="0" cy="0" r="1" gradientUnits="userSpaceOnUse" gradientTransform="scale(56.1197 62.5954) rotate(90 1.82 2.87)"><stop stop-color="#fff"/><stop offset="1" stop-color="#FFF0F3"/></radialGradient><radialGradient id="paint4_radial_1083_4055" cx="0" cy="0" r="1" gradientUnits="userSpaceOnUse" gradientTransform="matrix(0 62.5954 -56.1197 0 463.676 65.782)"><stop stop-color="#fff"/><stop offset="1" stop-color="#FFF0F3"/></radialGradient><linearGradient id="paint1_linear_1083_4055" x1="3.954" y1="81.651" x2="59.504" y2="81.651" gradientUnits="userSpaceOnUse"><stop stop-color="#fff" stop-opacity=".5"/><stop offset="1" stop-color="#FEF0F2"/></linearGradient><linearGradient id="paint3_linear_1083_4055" x1="207.617" y1="81.651" x2="263.167" y2="81.651" gradientUnits="userSpaceOnUse"><stop stop-color="#fff" stop-opacity=".5"/><stop offset="1" stop-color="#FEF0F2"/></linearGradient><linearGradient id="paint5_linear_1083_4055" x1="408.092" y1="81.651" x2="463.641" y2="81.651" gradientUnits="userSpaceOnUse"><stop stop-color="#fff" stop-opacity=".5"/><stop offset="1" stop-color="#FEF0F2"/></linearGradient></defs></svg>