<svg width="523" height="132" viewBox="0 0 523 132" fill="none" xmlns="http://www.w3.org/2000/svg">
<path d="M59.8464 3.18335L3.8235 34.9658L3.41992 95.6376L60.0375 128.384L115.657 96.0234V34.1943L59.8464 3.18335Z" fill="url(#paint0_radial_1083_4057)"/>
<path d="M3.95044 95.3439L4.3434 35.8292L58.9431 65.3277L59.506 127.471L3.95044 95.3439Z" fill="url(#paint1_linear_1083_4057)"/>
<path d="M4.87492 36.7011L58.4126 65.621L58.9649 126.567L4.48197 95.0585L4.87492 36.7011ZM3.8235 34.9653L3.41992 95.6371L60.0375 128.384L59.464 65.0322L3.8235 34.9653Z" fill="#FEF0F2"/>
<mask id="mask0_1083_4057" style="mask-type:alpha" maskUnits="userSpaceOnUse" x="0" y="5" width="121" height="123">
<path fill-rule="evenodd" clip-rule="evenodd" d="M5.48015 75.5391C5.48015 104.459 30.0134 127.908 60.271 127.908C90.5287 127.908 115.062 104.459 115.062 75.5391H120.542V5.72131H0V75.5391H5.48015Z" fill="white"/>
</mask>
<g mask="url(#mask0_1083_4057)">
<path d="M71.2311 84.5325V92.5619H73.0578C91.2081 92.5619 96.1785 103.89 99.9913 105.991L20.3591 106.266C24.5223 102.581 29.3334 92.572 47.4838 92.572H49.3105V84.5427C41.4407 80.9696 35.78 73.6711 34.8348 65.0226C32.1797 64.6673 30.1299 62.4747 30.1299 59.8355V53.7247C30.1299 51.1261 32.1053 48.9741 34.6967 48.5579V45.8679C34.6967 32.3673 46.1456 21.4348 60.2602 21.4348C74.3854 21.4348 85.8236 32.3774 85.8236 45.8679V48.5579C88.415 48.9741 90.3904 51.1261 90.3904 53.7247V59.8355C90.3904 62.4747 88.3406 64.6572 85.6855 65.0226C84.7615 73.661 79.1008 80.9594 71.2311 84.5325Z" fill="#D08C5B"/>
<mask id="mask1_1083_4057" style="mask-type:alpha" maskUnits="userSpaceOnUse" x="14" y="21" width="92" height="107">
<path fill-rule="evenodd" clip-rule="evenodd" d="M71.2314 84.532V92.5613H73.0581C91.2085 92.5613 105.928 106.63 105.928 123.978V127.907H14.6138V123.978C14.6138 106.63 29.3337 92.5613 47.4841 92.5613H49.3108V84.532C41.441 80.9589 35.7803 73.6604 34.8351 65.0119C32.18 64.6566 30.1302 62.464 30.1302 59.8248V53.714C30.1302 51.1154 32.1057 48.9634 34.697 48.5472V45.8572C34.697 32.3566 46.1459 21.4241 60.2605 21.4241C74.3857 21.4241 85.8239 32.3667 85.8239 45.8572V48.5472C88.4153 48.9634 90.3907 51.1154 90.3907 53.714V59.8248C90.3907 62.464 88.3409 64.6465 85.6858 65.0119C84.7618 73.6604 79.1011 80.9589 71.2314 84.532Z" fill="white"/>
</mask>
<g mask="url(#mask1_1083_4057)">
<path fill-rule="evenodd" clip-rule="evenodd" d="M49.3106 84.5319C49.3425 84.9177 49.2681 86.5015 49.3106 88.4812C49.3531 90.4914 56.8617 90.4 59.9417 90.4C62.2463 90.4 71.1887 90.4203 71.2312 88.735C71.2949 86.5421 71.1463 85.0192 71.2843 84.471C68.5867 85.1512 64.2748 85.8822 59.9204 85.8416C55.8634 85.8213 51.902 85.1918 49.3106 84.5319Z" fill="#010101" fill-opacity="0.16"/>
</g>
<path fill-rule="evenodd" clip-rule="evenodd" d="M60.0478 128.374L20.3591 106.255C23.8108 100.489 28.1227 93.7693 45.2216 92.6527C45.211 92.8151 45.2004 92.9775 45.2004 93.14C45.2004 98.3169 52.0506 102.509 60.4938 102.509C68.9371 102.509 75.7873 98.3169 75.7873 93.14C75.7873 92.9877 75.7767 92.8354 75.766 92.6832C92.6526 94.0028 97.2194 102.793 99.9807 105.981L63.51 126.354" fill="#0C72BA"/>
<mask id="mask2_1083_4057" style="mask-type:alpha" maskUnits="userSpaceOnUse" x="14" y="92" width="92" height="36">
<path fill-rule="evenodd" clip-rule="evenodd" d="M75.7769 92.6924C92.6635 94.012 105.928 107.533 105.928 124.008V127.916H14.6138V124.008C14.6138 107.381 28.123 93.7684 45.2219 92.662C45.2113 92.8244 45.2007 92.9868 45.2007 93.1492C45.2007 98.3262 52.0509 102.518 60.4941 102.518C68.9374 102.518 75.7876 98.3262 75.7876 93.1492C75.7982 92.997 75.7876 92.8447 75.7769 92.6924Z" fill="white"/>
</mask>
<g mask="url(#mask2_1083_4057)">
<g opacity="0.6">
<g opacity="0.6">
<path opacity="0.6" d="M60.5047 105.544C70.4995 105.544 78.602 100.286 78.602 93.7997C78.602 87.3134 70.4995 82.0552 60.5047 82.0552C50.5099 82.0552 42.4075 87.3134 42.4075 93.7997C42.4075 100.286 50.5099 105.544 60.5047 105.544Z" fill="#205594"/>
</g>
</g>
</g>
<path d="M53.8774 70.7471C53.8774 74.1177 56.7343 76.8588 60.271 76.8588C63.7969 76.8588 66.6645 74.1278 66.6645 70.7471" fill="#010101" fill-opacity="0.7"/>
<path d="M54.791 62.4537C54.791 64.3832 57.2443 65.9471 60.2712 65.9471C63.298 65.9471 65.7513 64.3832 65.7513 62.4537" fill="#010101" fill-opacity="0.16"/>
<path d="M48.3973 57.2169C49.9106 57.2169 51.1374 56.0441 51.1374 54.5975C51.1374 53.1509 49.9106 51.9781 48.3973 51.9781C46.884 51.9781 45.6572 53.1509 45.6572 54.5975C45.6572 56.0441 46.884 57.2169 48.3973 57.2169Z" fill="#010101" fill-opacity="0.6"/>
<path d="M72.1449 57.2169C73.6582 57.2169 74.8849 56.0441 74.8849 54.5975C74.8849 53.1509 73.6582 51.9781 72.1449 51.9781C70.6316 51.9781 69.4048 53.1509 69.4048 54.5975C69.4048 56.0441 70.6316 57.2169 72.1449 57.2169Z" fill="#010101" fill-opacity="0.6"/>
<path d="M41.8444 48.9945C43.6287 46.5885 48.5353 45.2383 52.7516 46.2332C53.2402 46.3449 53.7393 46.0606 53.8562 45.5936C53.973 45.1266 53.6756 44.6495 53.1871 44.5378C48.2804 43.3907 42.6091 44.9439 40.3576 47.9793C40.0602 48.3752 40.1664 48.9133 40.57 49.1975C40.9736 49.4818 41.5471 49.3904 41.8444 48.9945Z" fill="#010101" fill-opacity="0.6"/>
<path d="M78.7082 48.9945C76.924 46.5885 72.0174 45.2383 67.801 46.2332C67.3125 46.3449 66.8133 46.0606 66.6965 45.5936C66.5797 45.1266 66.8771 44.6495 67.3656 44.5378C72.2723 43.3907 77.9436 44.9439 80.1951 47.9793C80.4925 48.3752 80.3863 48.9133 79.9827 49.1975C79.5685 49.4818 78.995 49.3904 78.7082 48.9945Z" fill="#010101" fill-opacity="0.6"/>
</g>
<path d="M59.8464 3.18335L3.8235 34.9658L3.41992 95.6376L60.0375 128.384L115.657 96.0234V34.1943L59.8464 3.18335Z" stroke="#005087" stroke-width="2"/>
<mask id="mask3_1083_4057" style="mask-type:alpha" maskUnits="userSpaceOnUse" x="0" y="5" width="121" height="123">
<path d="M120.531 5.72131H0V127.908H120.531V5.72131Z" fill="white"/>
</mask>
<g mask="url(#mask3_1083_4057)">
<path fill-rule="evenodd" clip-rule="evenodd" d="M41.0586 29.8796H79.4834C87.8098 25.2813 89.3817 17.1301 83.4873 10.055C82.0217 8.28876 79.4834 15.1812 71.6986 15.6075C63.9138 16.0338 64.6573 12.8566 56.3733 14.0443C48.0893 15.2319 49.0027 21.5965 43.5969 23.1191C39.9859 24.1444 39.1363 26.3877 41.0586 29.8796Z" fill="#262F33"/>
<mask id="mask4_1083_4057" style="mask-type:alpha" maskUnits="userSpaceOnUse" x="40" y="9" width="48" height="21">
<path fill-rule="evenodd" clip-rule="evenodd" d="M41.1856 29.8798H79.621C87.9474 25.2814 89.5193 17.1302 83.6249 10.055C82.1593 8.28875 79.621 15.1812 71.8362 15.6076C64.0514 16.0339 64.7949 12.8567 56.5109 14.0443C48.227 15.232 49.1403 21.5966 43.7345 23.1192C40.1129 24.1445 39.2633 26.3878 41.1856 29.8798Z" fill="white"/>
</mask>
<g mask="url(#mask4_1083_4057)">
<path d="M120.202 5.71997H-0.32959V127.906H120.202V5.71997Z" fill="#4B322D"/>
</g>
</g>
<path d="M115.667 66.8905C117.427 66.8905 118.853 65.5269 118.853 63.8449C118.853 62.1628 117.427 60.7993 115.667 60.7993C113.907 60.7993 112.481 62.1628 112.481 63.8449C112.481 65.5269 113.907 66.8905 115.667 66.8905Z" fill="#0071BB" stroke="#005087" stroke-miterlimit="10"/>
<path d="M118.853 63.8444H200.843" stroke="#005087" stroke-miterlimit="10"/>
<path d="M306.052 9.54504L317.198 10.2526L322.139 19.848L315.924 28.7358L304.767 28.0501L299.836 18.4547L306.052 9.54504Z" fill="#0071BB"/>
<path d="M293.95 22.0485L304.603 19.1403L312.581 26.3633L309.954 36.489L299.33 39.3972L291.34 32.1742L293.95 22.0485Z" fill="#E21C3D"/>
<path d="M326.937 14.8765L334.884 29.1278L327.96 44.0578L313.094 44.7288L305.147 30.508L312.065 15.578L326.937 14.8765Z" fill="#F3B8BE" fill-opacity="0.5"/>
<path d="M263.504 3.18335L207.481 34.9658L207.078 95.6376L263.695 128.384L319.315 96.0234V34.1943L263.504 3.18335Z" fill="url(#paint2_radial_1083_4057)"/>
<path d="M207.619 95.344L208.012 35.8293L262.601 65.3278L263.164 127.471L207.619 95.344Z" fill="url(#paint3_linear_1083_4057)"/>
<path d="M208.533 36.7011L262.071 65.621L262.623 126.567L208.151 95.0586L208.533 36.7011ZM207.481 34.9653L207.078 95.6372L263.696 128.384L263.122 65.0323L207.481 34.9653Z" fill="#FEF0F2"/>
<path d="M263.504 3.18335L207.481 34.9658L207.078 95.6376L263.695 128.384L319.315 96.0234V34.1943L263.504 3.18335Z" stroke="#005087" stroke-width="2"/>
<path d="M256.187 36.0209H317.18C320.557 36.0209 323.298 38.6398 323.298 41.8678V49.9884C323.298 53.2164 320.557 55.8353 317.18 55.8353H256.187C252.81 55.8353 250.07 53.2164 250.07 49.9884V41.8678C250.07 38.6398 252.81 36.0209 256.187 36.0209Z" fill="white" stroke="#A8B6C6" stroke-width="2"/>
<path fill-rule="evenodd" clip-rule="evenodd" d="M260.552 50.5469L262.506 47.8265L264.46 50.5469L265.533 49.6333L263.993 46.6591L266.659 45.3903L266.244 43.9387L263.419 44.7L263.175 41.3096H261.826L261.582 44.7305L258.778 43.9387L258.364 45.3903L261.03 46.6591L259.469 49.6333L260.552 50.5469ZM274.369 50.5469L276.323 47.8265L278.277 50.5469L279.35 49.6333L277.81 46.6591L280.476 45.3903L280.062 43.9387L277.237 44.7L276.992 41.3096H275.643L275.399 44.7305L272.595 43.9387L272.181 45.3903L274.847 46.6591L273.286 49.6333L274.369 50.5469ZM288.76 47.8265L286.816 50.5469L285.722 49.6333L287.284 46.6591L284.618 45.3903L285.032 43.9387L287.836 44.7305L288.08 41.3096H289.429L289.673 44.7L292.498 43.9387L292.912 45.3903L290.247 46.6591L291.787 49.6333L290.714 50.5469L288.76 47.8265ZM299.242 50.5469L301.186 47.8265L303.14 50.5469L304.213 49.6333L302.673 46.6591L305.338 45.3903L304.924 43.9387L302.099 44.7L301.855 41.3096H300.506L300.262 44.7305L297.458 43.9387L297.044 45.3903L299.709 46.6591L298.148 49.6333L299.242 50.5469ZM309.204 49.6333L310.298 50.5469L312.242 47.8265L314.196 50.5469L315.268 49.6333L313.728 46.6591L316.394 45.3903L315.98 43.9387L313.155 44.7L312.911 41.3096H311.562L311.318 44.7305L308.514 43.9387L308.1 45.3903L310.765 46.6591L309.204 49.6333Z" fill="#5C626B"/>
<path fill-rule="evenodd" clip-rule="evenodd" d="M260.552 50.5469L262.506 47.8265L264.46 50.5469L265.533 49.6333L263.993 46.6591L266.659 45.3903L266.244 43.9387L263.419 44.7L263.175 41.3096H261.826L261.582 44.7305L258.778 43.9387L258.364 45.3903L261.03 46.6591L259.469 49.6333L260.552 50.5469ZM274.369 50.5469L276.323 47.8265L278.277 50.5469L279.35 49.6333L277.81 46.6591L280.476 45.3903L280.062 43.9387L277.237 44.7L276.992 41.3096H275.643L275.399 44.7305L272.595 43.9387L272.181 45.3903L274.847 46.6591L273.286 49.6333L274.369 50.5469ZM288.76 47.8265L286.816 50.5469L285.722 49.6333L287.284 46.6591L284.618 45.3903L285.032 43.9387L287.836 44.7305L288.08 41.3096H289.429L289.673 44.7L292.498 43.9387L292.912 45.3903L290.247 46.6591L291.787 49.6333L290.714 50.5469L288.76 47.8265ZM299.242 50.5469L301.186 47.8265L303.14 50.5469L304.213 49.6333L302.673 46.6591L305.338 45.3903L304.924 43.9387L302.099 44.7L301.855 41.3096H300.506L300.262 44.7305L297.458 43.9387L297.044 45.3903L299.709 46.6591L298.148 49.6333L299.242 50.5469ZM309.204 49.6333L310.298 50.5469L312.242 47.8265L314.196 50.5469L315.268 49.6333L313.728 46.6591L316.394 45.3903L315.98 43.9387L313.155 44.7L312.911 41.3096H311.562L311.318 44.7305L308.514 43.9387L308.1 45.3903L310.765 46.6591L309.204 49.6333Z" fill="#5C626B"/>
<path d="M293.348 90.166C304.029 90.166 312.688 81.89 312.688 71.6811C312.688 61.4722 304.029 53.1963 293.348 53.1963C282.667 53.1963 274.008 61.4722 274.008 71.6811C274.008 81.89 282.667 90.166 293.348 90.166Z" fill="#ECF3FB"/>
<path d="M286.2 119.147L286.551 90.6531L301.345 89.3538L300.91 102.997L299.646 106.58L301.048 108.143L300.209 112.67L300.963 118.192L292.859 126.344L286.2 119.147Z" fill="white"/>
<path d="M302.247 87.689H301.483V88.9071L302.609 88.3285L302.247 87.689ZM302.247 87.4759H303.012H302.247ZM302.247 87.1104H303.012V86.3694H302.237L302.247 87.1104ZM301.855 87.1104V86.3796V87.1104ZM286.009 87.1713V86.4405V87.1713ZM285.626 87.1713V86.4405H284.872V87.1612L285.626 87.1713ZM285.626 87.5368H286.391H285.626ZM285.626 88.2372L285.318 88.9071L286.391 89.3639L286.402 88.2473L285.626 88.2372ZM285.616 89.0289H286.381V88.5417L285.913 88.3488L285.616 89.0289ZM302.237 88.5112L301.886 87.8616L301.472 88.0646V88.5112H302.237ZM302.184 101.677H301.419V101.697V101.718L302.184 101.677ZM301.451 103.514L300.909 102.997L301.451 103.514ZM299.38 105.504L298.838 104.986L298.307 105.504L298.838 106.021L299.38 105.504ZM301.589 107.625L301.047 108.143L301.589 107.625ZM301.568 111.026L301.026 110.508L301.568 111.026ZM299.327 113.188L298.785 112.67L298.254 113.188L298.785 113.706L299.327 113.188ZM301.536 115.31L302.078 114.792L301.536 115.31ZM301.504 118.7L302.046 119.218L301.504 118.7ZM294.495 125.471L295.036 125.988L294.495 125.471ZM290.969 125.491L290.427 126.009L290.969 125.491ZM286.147 120.842L286.689 120.324L286.147 120.842ZM285.435 119.147H286.2H285.435ZM301.419 101.687H302.184H301.419ZM301.472 88.8564H302.237V87.7195L301.154 88.1864L301.472 88.8564ZM301.419 101.697H300.654V101.718V101.738L301.419 101.697ZM301.419 101.707L302.184 101.667L301.419 101.707ZM300.909 102.997L300.368 102.479L300.909 102.997ZM298.573 105.25L298.031 104.732L298.573 105.25ZM298.307 105.504L297.766 104.986L297.235 105.504L297.766 106.021L298.307 105.504ZM298.573 105.758L299.114 105.24L298.573 105.758ZM301.047 108.143L300.506 108.661L301.047 108.143ZM301.026 110.508L301.568 111.026L301.026 110.508ZM298.52 112.924L299.061 113.442L298.52 112.924ZM298.254 113.188L297.713 112.67L297.182 113.188L297.713 113.706L298.254 113.188ZM298.52 113.442L299.061 112.924L298.52 113.442ZM300.984 115.827L300.442 116.345L300.984 115.827ZM300.962 118.192L301.504 118.71L300.962 118.192ZM293.953 124.963L294.495 125.481L293.953 124.963ZM291.51 124.983L290.969 125.501L291.51 124.983ZM286.699 120.324L286.158 120.842L286.699 120.324ZM286.2 119.147L285.435 119.136L286.2 119.147ZM286.2 119.147L286.965 119.157L286.2 119.147ZM286.381 89.3233L286.646 88.6432L285.616 88.2778L285.605 89.3233H286.381ZM301.472 88.0544L301.801 88.7143L302.237 88.5214V88.0646L301.472 88.0544ZM286.381 88.5417H285.616V89.0391L286.104 89.2218L286.381 88.5417ZM286.391 87.9022V87.1713H285.637V87.892L286.391 87.9022ZM301.472 87.8413H302.237V87.1003H301.462L301.472 87.8413ZM293.348 52.8208C282.451 52.8208 273.625 61.2663 273.625 71.6709H275.155C275.155 62.0682 283.301 54.2825 293.348 54.2825V52.8208ZM313.07 71.6811C313.07 61.2663 304.234 52.8309 293.348 52.8309V54.2926C303.395 54.2926 311.54 62.0784 311.54 71.6811H313.07ZM302.598 88.3285C308.822 85.1614 313.07 78.8882 313.07 71.6709H311.54C311.54 78.3299 307.632 84.1058 301.886 87.0292L302.598 88.3285ZM301.483 87.4759V87.6789L303.012 87.689V87.486L301.483 87.4759ZM301.483 87.1104V87.4759L303.012 87.486V87.1206L301.483 87.1104ZM301.865 87.8413H302.247L302.237 86.3796H301.855L301.865 87.8413ZM286.009 87.9022L301.865 87.8413L301.855 86.3796L285.998 86.4405L286.009 87.9022ZM285.626 87.9022H286.009L285.998 86.4405H285.616L285.626 87.9022ZM286.391 87.5368V87.1713L284.862 87.1612V87.5266L286.391 87.5368ZM286.391 88.2372V87.5368L284.862 87.5266V88.227L286.391 88.2372ZM273.615 71.6811C273.615 79.3552 278.415 85.9634 285.308 88.9071L285.934 87.5773C279.573 84.8671 275.144 78.7664 275.144 71.6912H273.615V71.6811ZM285.913 88.359C279.127 85.5979 274.379 79.1724 274.379 71.6811H272.85C272.85 79.7713 277.99 86.7247 285.308 89.709L285.913 88.359ZM274.379 71.6811C274.379 61.6723 282.865 53.5618 293.337 53.5618V52.1001C282.016 52.1001 272.85 60.8704 272.85 71.6811H274.379ZM293.348 53.5516C303.819 53.5516 312.305 61.6622 312.305 71.6709H313.834C313.834 60.8501 304.658 52.0899 293.348 52.0899V53.5516ZM312.305 71.6811C312.305 78.7461 308.067 84.8772 301.897 87.8616L302.587 89.1609C309.257 85.9329 313.834 79.3145 313.834 71.6709H312.305V71.6811ZM301.472 88.5112L301.419 101.687L302.948 101.697L303.002 88.5214L301.472 88.5112ZM301.419 101.718C301.44 102.195 301.26 102.662 300.899 102.997L301.982 104.022C302.63 103.392 302.98 102.53 302.938 101.646L301.419 101.718ZM300.909 102.997L298.849 104.986L299.932 106.011L301.993 104.022L300.909 102.997ZM298.838 106.011L301.037 108.133L302.12 107.108L299.922 104.986L298.838 106.011ZM301.047 108.143C301.716 108.783 301.716 109.848 301.026 110.508L302.109 111.533C303.373 110.315 303.405 108.336 302.131 107.108L301.047 108.143ZM301.026 110.508L298.785 112.67L299.869 113.696L302.109 111.533L301.026 110.508ZM298.785 113.696L300.984 115.817L302.067 114.792L299.869 112.67L298.785 113.696ZM300.984 115.827C301.653 116.467 301.653 117.533 300.962 118.192L302.046 119.218C303.31 118 303.341 116.02 302.067 114.792L300.984 115.827ZM300.962 118.192L293.953 124.963L295.036 125.988L302.046 119.218L300.962 118.192ZM293.953 124.963C293.273 125.623 292.179 125.623 291.51 124.983L290.427 126.009C291.701 127.247 293.772 127.206 295.036 125.988L293.953 124.963ZM291.51 124.983L286.689 120.334L285.605 121.359L290.427 126.009L291.51 124.983ZM286.699 120.324C286.381 120.02 286.2 119.593 286.2 119.147L284.671 119.136C284.66 119.959 285 120.761 285.605 121.349L286.699 120.324ZM286.2 119.147L286.381 89.0289L284.851 89.0188L284.671 119.147H286.2ZM302.184 101.687L302.237 88.8564L300.708 88.8462L300.654 101.677L302.184 101.687ZM302.184 101.697V101.687L300.654 101.677V101.687L302.184 101.697ZM302.184 101.667L300.654 101.728V101.738L302.184 101.667ZM301.451 103.514C301.961 103.027 302.226 102.357 302.184 101.677L300.654 101.748C300.665 102.022 300.559 102.286 300.357 102.489L301.451 103.514ZM299.114 105.758L301.44 103.504L300.357 102.479L298.031 104.732L299.114 105.758ZM298.849 106.011L299.114 105.758L298.031 104.732L297.766 104.986L298.849 106.011ZM299.114 105.25L298.849 104.996L297.766 106.021L298.031 106.275L299.114 105.25ZM301.589 107.625L299.114 105.24L298.031 106.265L300.506 108.651L301.589 107.625ZM301.568 111.026C302.545 110.082 302.555 108.569 301.589 107.635L300.506 108.661C300.867 109.016 300.877 109.615 300.485 110.001L301.568 111.026ZM299.061 113.442L301.568 111.026L300.485 110.001L297.978 112.417L299.061 113.442ZM298.796 113.696L299.061 113.442L297.978 112.417L297.713 112.67L298.796 113.696ZM299.061 112.924L298.796 112.67L297.713 113.696L297.978 113.949L299.061 112.924ZM301.536 115.31L299.061 112.924L297.978 113.949L300.453 116.335L301.536 115.31ZM301.504 118.7C302.481 117.756 302.492 116.243 301.525 115.31L300.442 116.335C300.803 116.69 300.814 117.289 300.421 117.675L301.504 118.7ZM294.495 125.471L301.504 118.7L300.421 117.675L293.411 124.445L294.495 125.471ZM290.969 125.491C291.935 126.425 293.517 126.415 294.495 125.471L293.411 124.445C293.018 124.821 292.413 124.811 292.052 124.466L290.969 125.491ZM286.147 120.842L290.969 125.491L292.052 124.466L287.23 119.817L286.147 120.842ZM285.435 119.147C285.435 119.786 285.69 120.395 286.158 120.842L287.241 119.817C287.071 119.644 286.965 119.41 286.965 119.157L285.435 119.147ZM285.435 119.147L286.965 119.157L285.435 119.147ZM285.616 89.3132L285.435 119.147L286.965 119.157L287.145 89.3233L285.616 89.3132ZM293.348 89.8004C290.99 89.8004 288.728 89.3842 286.657 88.633L286.115 90.0034C288.367 90.8155 290.809 91.2621 293.348 91.2621V89.8004ZM301.154 88.1966C298.775 89.2319 296.13 89.8004 293.337 89.8004V91.2621C296.343 91.2621 299.21 90.6429 301.78 89.5263L301.154 88.1966ZM293.348 90.5313C296.374 90.5313 299.242 89.8816 301.812 88.7143L301.154 87.3946C298.785 88.4706 296.141 89.0695 293.348 89.0695V90.5313ZM286.104 89.2218C288.345 90.0643 290.788 90.5313 293.348 90.5313V89.0695C290.99 89.0695 288.738 88.6432 286.667 87.8616L286.104 89.2218ZM285.626 87.9022V88.5417L287.156 88.5518V87.9123L285.626 87.9022ZM301.472 87.1104L286.381 87.1713L286.391 88.633L301.483 88.5721L301.472 87.1104ZM302.237 88.0544V87.8413L300.708 87.8311V88.0443L302.237 88.0544Z" fill="#A8B6C6"/>
<path d="M293.348 70.3514C296.398 70.3514 298.87 67.9881 298.87 65.0729C298.87 62.1576 296.398 59.7944 293.348 59.7944C290.298 59.7944 287.825 62.1576 287.825 65.0729C287.825 67.9881 290.298 70.3514 293.348 70.3514Z" stroke="#A8B6C6" stroke-width="2"/>
<path d="M312.688 71.6811C312.688 61.4693 304.032 53.1963 293.348 53.1963C282.664 53.1963 274.008 61.4693 274.008 71.6811C274.008 81.893 282.664 90.166 293.348 90.166" stroke="#A8B6C6" stroke-width="2" stroke-linecap="round"/>
<path d="M289.885 94.6729V113.381" stroke="#A8B6C6" stroke-width="2" stroke-linecap="round"/>
<path d="M205.41 11.659C205.41 9.63894 207.12 8.00464 209.233 8.00464H263.769C265.883 8.00464 267.592 9.63894 267.592 11.659V110.001C267.592 112.021 265.883 113.655 263.769 113.655H209.233C207.12 113.655 205.41 112.021 205.41 110.001V11.659Z" fill="white"/>
<path fill-rule="evenodd" clip-rule="evenodd" d="M253.086 8.66528V10.2896C253.086 12.3099 251.376 13.9445 249.262 13.9445H222.361C220.247 13.9445 218.537 12.3099 218.537 10.2896V8.66528H253.086Z" fill="#102F51" stroke="#102F51" stroke-width="2"/>
<path d="M236.507 55.5512C226.97 55.5512 219.239 62.941 219.239 72.0565C219.239 81.172 226.97 88.5618 236.507 88.5618C246.045 88.5618 253.776 81.172 253.776 72.0565" stroke="#102F51" stroke-width="3" stroke-linecap="round"/>
<path d="M223.21 33.0473V32.4382C223.518 32.1641 223.805 31.9001 224.06 31.6666C224.315 31.4229 224.538 31.1996 224.729 30.9864C224.92 30.7732 225.058 30.5701 225.164 30.3976C225.271 30.2148 225.324 30.0321 225.324 29.8696C225.324 29.6361 225.26 29.4635 225.143 29.3519C225.016 29.23 224.856 29.1691 224.633 29.1691C224.453 29.1691 224.293 29.2199 224.155 29.3112C224.017 29.4026 223.89 29.5143 223.762 29.6361L223.146 29.0574C223.391 28.8138 223.635 28.631 223.879 28.5092C224.134 28.3874 224.432 28.3163 224.771 28.3163C225.016 28.3163 225.228 28.3569 225.419 28.428C225.621 28.4991 225.791 28.6006 225.929 28.7326C226.067 28.8544 226.184 29.0168 226.258 29.1894C226.333 29.3722 226.375 29.5752 226.375 29.7986C226.375 29.9915 226.333 30.1945 226.248 30.3976C226.163 30.6006 226.046 30.8036 225.897 31.0067C225.759 31.2097 225.589 31.4128 225.398 31.6158C225.217 31.8189 225.026 32.0118 224.825 32.2047C224.952 32.1945 225.079 32.1742 225.228 32.1641C225.377 32.1539 225.515 32.1438 225.632 32.1438H226.609V33.0473H223.21V33.0473ZM227.501 33.0473V32.1742H228.552V29.494H227.639V28.8239C227.904 28.7732 228.127 28.7123 228.308 28.6513C228.489 28.5803 228.669 28.4991 228.839 28.4077H229.667V32.1742H230.581V33.0473H227.501ZM232.864 33.1285C232.471 33.1285 232.131 33.0676 231.855 32.956C231.579 32.8341 231.356 32.6717 231.176 32.4686L231.696 31.7884C231.845 31.9204 232.004 32.0321 232.174 32.1235C232.354 32.2148 232.546 32.2554 232.758 32.2554C233.002 32.2554 233.193 32.2047 233.331 32.1133C233.47 32.0118 233.544 31.8798 233.544 31.7072C233.544 31.6057 233.523 31.5143 233.48 31.4331C233.448 31.3519 233.374 31.2808 233.278 31.23C233.183 31.1691 233.045 31.1285 232.885 31.0981C232.716 31.0676 232.503 31.0473 232.238 31.0473V30.2859C232.461 30.2859 232.641 30.2757 232.779 30.2453C232.928 30.2148 233.045 30.1742 233.13 30.1234C233.225 30.0625 233.289 30.0016 233.321 29.9305C233.363 29.8493 233.385 29.7681 233.385 29.6767C233.385 29.5143 233.331 29.3925 233.236 29.3011C233.13 29.2097 232.981 29.159 232.79 29.159C232.62 29.159 232.461 29.1996 232.312 29.2706C232.174 29.3417 232.025 29.4432 231.876 29.5752L231.314 28.9153C231.537 28.7326 231.77 28.5904 232.015 28.4889C232.269 28.3772 232.535 28.3265 232.843 28.3265C233.098 28.3265 233.321 28.3569 233.523 28.4178C233.735 28.4686 233.905 28.5498 234.054 28.6615C234.202 28.7732 234.319 28.9051 234.394 29.0574C234.479 29.2097 234.521 29.3925 234.521 29.5955C234.521 29.8392 234.447 30.0422 234.309 30.2148C234.171 30.3772 233.969 30.5194 233.714 30.6209V30.6514C233.99 30.7326 234.224 30.8646 234.404 31.0575C234.585 31.2402 234.68 31.4839 234.68 31.7884C234.68 32.0016 234.627 32.1945 234.532 32.3671C234.436 32.5295 234.309 32.6717 234.139 32.7935C233.979 32.9052 233.788 32.9966 233.565 33.0575C233.342 33.1082 233.108 33.1285 232.864 33.1285ZM237.112 33.0473V32.1742H238.164V29.494H237.25V28.8239C237.516 28.7732 237.739 28.7123 237.92 28.6513C238.1 28.5803 238.281 28.4991 238.451 28.4077H239.279V32.1742H240.192V33.0473H237.112ZM242.624 33.1285C242.38 33.1285 242.157 33.0981 241.945 33.0372C241.743 32.9763 241.562 32.8849 241.414 32.7732C241.265 32.6615 241.148 32.5295 241.063 32.3671C240.978 32.2148 240.936 32.0422 240.936 31.8493C240.936 31.5651 241.01 31.3316 241.169 31.159C241.329 30.9762 241.53 30.8341 241.754 30.7123V30.6818C241.562 30.5498 241.414 30.3874 241.286 30.225C241.159 30.0524 241.106 29.8392 241.106 29.5854C241.106 29.3925 241.148 29.2199 241.222 29.0574C241.297 28.895 241.403 28.763 241.541 28.6513C241.679 28.5397 241.838 28.4584 242.03 28.3975C242.221 28.3366 242.433 28.3062 242.656 28.3062C242.879 28.3062 243.081 28.3366 243.262 28.3975C243.442 28.4584 243.601 28.5397 243.729 28.6513C243.856 28.763 243.952 28.895 244.026 29.0574C244.101 29.2097 244.132 29.3823 244.132 29.5752C244.132 29.7986 244.069 30.0016 243.941 30.1742C243.814 30.3468 243.665 30.4788 243.495 30.5904V30.6209C243.729 30.7427 243.931 30.895 244.09 31.0879C244.249 31.2808 244.334 31.5245 244.334 31.829C244.334 32.0118 244.292 32.1844 244.207 32.3367C244.122 32.4889 244.005 32.6311 243.856 32.7428C243.708 32.8544 243.527 32.9458 243.315 33.0169C243.124 33.0981 242.89 33.1285 242.624 33.1285ZM242.932 30.3366C243.134 30.1133 243.23 29.8899 243.23 29.6564C243.23 29.4737 243.177 29.3315 243.07 29.23C242.964 29.1183 242.826 29.0574 242.646 29.0574C242.497 29.0574 242.37 29.098 242.263 29.1894C242.157 29.2808 242.104 29.4128 242.104 29.5955C242.104 29.7884 242.178 29.9305 242.338 30.0422C242.476 30.1437 242.677 30.2453 242.932 30.3366ZM242.646 32.3874C242.837 32.3874 242.985 32.3367 243.113 32.2453C243.24 32.1438 243.293 32.0016 243.293 31.8087C243.293 31.7072 243.272 31.6158 243.219 31.5448C243.177 31.4737 243.102 31.4026 243.017 31.3519C242.922 31.291 242.816 31.23 242.688 31.1793C242.561 31.1285 242.433 31.0676 242.274 31.0067C242.168 31.1082 242.083 31.2199 242.008 31.3417C241.934 31.4636 241.902 31.6057 241.902 31.7478C241.902 31.9509 241.977 32.1133 242.125 32.2351C242.274 32.3265 242.444 32.3874 242.646 32.3874ZM246.798 33.1285C246.565 33.1285 246.331 33.0879 246.108 32.9966C245.885 32.9052 245.694 32.7732 245.524 32.5905C245.354 32.4077 245.216 32.1641 245.12 31.8798C245.014 31.5854 244.972 31.2402 244.972 30.8239C244.972 30.3874 245.025 30.0118 245.131 29.697C245.248 29.3823 245.386 29.1184 245.566 28.9153C245.747 28.7123 245.959 28.56 246.193 28.4584C246.437 28.3569 246.681 28.3062 246.936 28.3062C247.255 28.3062 247.531 28.3671 247.765 28.4787C247.998 28.5904 248.19 28.7123 248.349 28.8645L247.765 29.5041C247.68 29.4128 247.563 29.3417 247.425 29.2808C247.287 29.2097 247.149 29.1793 247 29.1793C246.873 29.1793 246.745 29.1996 246.628 29.2503C246.511 29.3011 246.405 29.3823 246.31 29.494C246.225 29.6057 246.15 29.7579 246.097 29.9407C246.044 30.1234 246.012 30.3569 246.002 30.6209C246.065 30.5397 246.129 30.4788 246.214 30.4179C246.299 30.3569 246.384 30.3062 246.469 30.2656C246.554 30.225 246.639 30.1945 246.724 30.1742C246.809 30.1539 246.894 30.1336 246.968 30.1336C247.181 30.1336 247.372 30.164 247.542 30.225C247.722 30.2859 247.871 30.3671 247.998 30.4889C248.126 30.6107 248.232 30.7529 248.306 30.9356C248.381 31.1184 248.413 31.3316 248.413 31.5752C248.413 31.8189 248.37 32.0321 248.285 32.225C248.2 32.4179 248.083 32.5803 247.935 32.7123C247.797 32.8443 247.616 32.956 247.425 33.027C247.234 33.0981 247.021 33.1285 246.798 33.1285ZM246.777 32.3265C246.947 32.3265 247.085 32.2656 247.202 32.1539C247.329 32.0321 247.382 31.8392 247.382 31.5752C247.382 31.3316 247.319 31.1488 247.202 31.0575C247.085 30.9559 246.936 30.9052 246.756 30.9052C246.628 30.9052 246.501 30.9458 246.363 31.0168C246.235 31.0879 246.119 31.1996 246.023 31.3722C246.044 31.5549 246.087 31.7072 246.14 31.829C246.193 31.9509 246.246 32.0524 246.32 32.1336C246.384 32.2047 246.458 32.2554 246.533 32.296C246.607 32.3163 246.692 32.3265 246.777 32.3265Z" fill="#5C626B"/>
<path d="M234.32 74.6356C233.927 74.6356 233.587 74.5747 233.311 74.463C233.034 74.3412 232.811 74.1788 232.631 73.9757L233.151 73.2955C233.3 73.4275 233.459 73.5392 233.629 73.6305C233.81 73.7219 234.001 73.7625 234.213 73.7625C234.458 73.7625 234.649 73.7118 234.787 73.6204C234.925 73.5189 234.999 73.3869 234.999 73.2143C234.999 73.1128 234.978 73.0214 234.935 72.9402C234.904 72.859 234.829 72.7879 234.734 72.7371C234.638 72.6762 234.5 72.6356 234.341 72.6051C234.171 72.5747 233.958 72.5544 233.693 72.5544V71.793C233.916 71.793 234.096 71.7828 234.235 71.7524C234.383 71.7219 234.5 71.6813 234.585 71.6305C234.681 71.5696 234.744 71.5087 234.776 71.4376C234.819 71.3564 234.84 71.2752 234.84 71.1838C234.84 71.0214 234.787 70.8996 234.691 70.8082C234.585 70.7168 234.436 70.6661 234.245 70.6661C234.075 70.6661 233.916 70.7067 233.767 70.7777C233.629 70.8488 233.48 70.9503 233.332 71.0823L232.769 70.4224C232.992 70.2397 233.226 70.0975 233.47 69.996C233.725 69.8843 233.99 69.8336 234.298 69.8336C234.553 69.8336 234.776 69.864 234.978 69.9249C235.19 69.9757 235.36 70.0569 235.509 70.1686C235.658 70.2803 235.775 70.4122 235.849 70.5645C235.934 70.7168 235.976 70.8996 235.976 71.1026C235.976 71.3463 235.902 71.5493 235.764 71.7219C235.626 71.8843 235.424 72.0265 235.169 72.128V72.1584C235.445 72.2397 235.679 72.3717 235.859 72.5645C236.04 72.7473 236.136 72.9909 236.136 73.2955C236.136 73.5087 236.083 73.7016 235.987 73.8742C235.891 74.0366 235.764 74.1788 235.594 74.3006C235.435 74.4123 235.243 74.5036 235.02 74.5646C234.797 74.6052 234.564 74.6356 234.32 74.6356ZM238.387 74.6356C237.994 74.6356 237.654 74.5747 237.378 74.4529C237.102 74.3311 236.868 74.1686 236.677 73.9859L237.187 73.3057C237.336 73.4376 237.495 73.5392 237.665 73.6305C237.835 73.7219 238.026 73.7625 238.238 73.7625C238.493 73.7625 238.685 73.7016 238.833 73.5798C238.982 73.458 239.056 73.2752 239.056 73.0417C239.056 72.8082 238.982 72.6255 238.844 72.5036C238.706 72.3818 238.525 72.3209 238.292 72.3209C238.217 72.3209 238.153 72.331 238.1 72.331C238.047 72.3412 237.984 72.3513 237.93 72.3716C237.877 72.392 237.824 72.4123 237.761 72.4427C237.707 72.4732 237.644 72.5036 237.569 72.5544L237.06 72.2498L237.198 69.9046H239.948V70.8082H238.164L238.079 71.6813C238.175 71.6407 238.26 71.6204 238.334 71.6001C238.419 71.5798 238.515 71.5696 238.621 71.5696C238.833 71.5696 239.024 71.6001 239.205 71.661C239.396 71.7219 239.555 71.8031 239.704 71.9249C239.842 72.0468 239.959 72.1889 240.044 72.3716C240.129 72.5544 240.171 72.7676 240.171 73.0113C240.171 73.2651 240.118 73.4986 240.023 73.7016C239.927 73.9047 239.8 74.0671 239.63 74.2092C239.47 74.3412 239.279 74.4529 239.056 74.5239C238.854 74.595 238.621 74.6356 238.387 74.6356Z" fill="#5C626B"/>
<path d="M207.853 8.00464H263.77C265.883 8.00464 267.593 9.63894 267.593 11.659V110.001C267.593 112.021 265.883 113.655 263.77 113.655H207.853C205.739 113.655 204.03 112.021 204.03 110.001V11.659C204.03 9.63894 205.739 8.00464 207.853 8.00464Z" stroke="#102F51" stroke-width="3"/>
<path d="M204.029 66.8905C205.789 66.8905 207.216 65.5269 207.216 63.8449C207.216 62.1628 205.789 60.7993 204.029 60.7993C202.27 60.7993 200.843 62.1628 200.843 63.8449C200.843 65.5269 202.27 66.8905 204.029 66.8905Z" fill="#0071BB" stroke="#005087" stroke-miterlimit="10"/>
<path d="M463.986 3.18335L407.963 34.9658L407.56 95.6376L464.177 128.384L519.797 96.0234V34.1943L463.986 3.18335Z" fill="url(#paint4_radial_1083_4057)"/>
<path d="M408.09 95.3439L408.483 35.8292L463.083 65.3277L463.646 127.471L408.09 95.3439Z" fill="url(#paint5_linear_1083_4057)"/>
<path d="M409.015 36.7011L462.552 65.621L463.105 126.567L408.622 95.0585L409.015 36.7011ZM407.963 34.9653L407.56 95.6371L464.177 128.384L463.604 65.0322L407.963 34.9653Z" fill="#FEF0F2"/>
<path d="M463.986 3.18335L407.963 34.9658L407.56 95.6376L464.177 128.384L519.797 96.0234V34.1943L463.986 3.18335Z" stroke="#005087" stroke-width="2"/>
<path d="M504.535 97.8196H423.82C417.957 97.8196 413.199 93.272 413.199 87.6687V42.3653C413.199 36.762 417.957 32.2144 423.82 32.2144H504.535C510.398 32.2144 515.156 36.762 515.156 42.3653V87.6687C515.156 93.272 510.408 97.8196 504.535 97.8196Z" fill="white" stroke="#102F51" stroke-width="3"/>
<path d="M513.625 57.9674H414.844V43.8882C414.292 36.6608 419.539 33.0675 425.465 33.7374H503.005C509.759 33.1487 514.273 38.2951 513.625 43.8882V57.9674Z" fill="#EBF3FA"/>
<path d="M464.177 68.8184C471.638 68.8184 477.687 63.0375 477.687 55.9064C477.687 48.7753 471.638 42.9944 464.177 42.9944C456.716 42.9944 450.668 48.7753 450.668 55.9064C450.668 63.0375 456.716 68.8184 464.177 68.8184Z" fill="#102F51"/>
<path d="M464.177 68.8184C471.638 68.8184 477.687 63.0375 477.687 55.9064C477.687 48.7753 471.638 42.9944 464.177 42.9944C456.716 42.9944 450.668 48.7753 450.668 55.9064C450.668 63.0375 456.716 68.8184 464.177 68.8184Z" stroke="#102F51" stroke-width="2" stroke-miterlimit="10" stroke-linecap="round" stroke-dasharray="2 2"/>
<path d="M464.177 47.6539L466.758 52.6279L472.504 53.4298L468.341 57.3075L469.328 62.7889L464.177 60.2005L459.037 62.7889L460.014 57.3075L455.851 53.4298L461.607 52.6279L464.177 47.6539Z" fill="white" stroke="#102F51" stroke-miterlimit="10" stroke-linecap="round" stroke-linejoin="round"/>
<path d="M476.9 79.9869H452.473C451.889 79.9869 451.411 79.5297 451.411 78.971V77.9551C451.411 77.3964 451.889 76.9392 452.473 76.9392H476.9C477.485 76.9392 477.962 77.3964 477.962 77.9551V78.971C477.962 79.5399 477.485 79.9869 476.9 79.9869Z" fill="#DEDEDE"/>
<path d="M475.308 85.4073H454.067C453.483 85.4073 453.005 84.9502 453.005 84.3915V83.3756C453.005 82.8169 453.483 82.3598 454.067 82.3598H475.308C475.892 82.3598 476.37 82.8169 476.37 83.3756V84.3915C476.37 84.9502 475.892 85.4073 475.308 85.4073Z" fill="#DEDEDE"/>
<path d="M407.56 66.8905C409.319 66.8905 410.746 65.5269 410.746 63.8449C410.746 62.1628 409.319 60.7993 407.56 60.7993C405.8 60.7993 404.374 62.1628 404.374 63.8449C404.374 65.5269 405.8 66.8905 407.56 66.8905Z" fill="#0071BB" stroke="#005087" stroke-miterlimit="10"/>
<path d="M322.511 63.9165L404.374 63.8444" stroke="#005087" stroke-miterlimit="10"/>
<path d="M319.325 66.9615C321.084 66.9615 322.511 65.598 322.511 63.9159C322.511 62.2338 321.084 60.8702 319.325 60.8702C317.565 60.8702 316.139 62.2338 316.139 63.9159C316.139 65.598 317.565 66.9615 319.325 66.9615Z" fill="#0071BB" stroke="#005087" stroke-miterlimit="10"/>
<defs>
<radialGradient id="paint0_radial_1083_4057" cx="0" cy="0" r="1" gradientUnits="userSpaceOnUse" gradientTransform="translate(59.545 65.7822) rotate(90) scale(62.5954 56.1197)">
<stop stop-color="white"/>
<stop offset="1" stop-color="#FFF0F3"/>
</radialGradient>
<linearGradient id="paint1_linear_1083_4057" x1="3.95426" y1="81.6509" x2="59.5037" y2="81.6509" gradientUnits="userSpaceOnUse">
<stop stop-color="white" stop-opacity="0.5"/>
<stop offset="1" stop-color="#FEF0F2"/>
</linearGradient>
<radialGradient id="paint2_radial_1083_4057" cx="0" cy="0" r="1" gradientUnits="userSpaceOnUse" gradientTransform="translate(263.207 65.7822) rotate(90) scale(62.5954 56.1197)">
<stop stop-color="white"/>
<stop offset="1" stop-color="#FFF0F3"/>
</radialGradient>
<linearGradient id="paint3_linear_1083_4057" x1="207.617" y1="81.651" x2="263.167" y2="81.651" gradientUnits="userSpaceOnUse">
<stop stop-color="white" stop-opacity="0.5"/>
<stop offset="1" stop-color="#FEF0F2"/>
</linearGradient>
<radialGradient id="paint4_radial_1083_4057" cx="0" cy="0" r="1" gradientUnits="userSpaceOnUse" gradientTransform="translate(463.676 65.7822) rotate(90) scale(62.5954 56.1197)">
<stop stop-color="white"/>
<stop offset="1" stop-color="#FFF0F3"/>
</radialGradient>
<linearGradient id="paint5_linear_1083_4057" x1="408.092" y1="81.6509" x2="463.641" y2="81.6509" gradientUnits="userSpaceOnUse">
<stop stop-color="white" stop-opacity="0.5"/>
<stop offset="1" stop-color="#FEF0F2"/>
</linearGradient>
</defs>
</svg>
