<svg id="Layer_1" xmlns="http://www.w3.org/2000/svg" version="1.1" viewBox="0 0 419 111"><defs><mask id="mask" x="2.1" y="11.8" width="69.4" height="77.4" maskUnits="userSpaceOnUse"><path class="st18" d="M5.3 56c0 18.3 14.1 33.2 31.6 33.2S68.5 74.3 68.5 56h3.2V11.8H2.1V56h3.2Z" id="c"/></mask><mask id="mask-1" x="10.6" y="21.7" width="52.6" height="67.5" maskUnits="userSpaceOnUse"><path class="st18" d="M43.2 61.7v5.1h1.1c10.5 0 18.9 8.9 18.9 19.9v2.5H10.6v-2.5c0-11 8.5-19.9 18.9-19.9h1.1v-5.1c-4.5-2.3-7.8-6.9-8.3-12.4-1.5-.2-2.7-1.6-2.7-3.3v-3.9c0-1.6 1.1-3 2.6-3.3v-1.7c0-8.6 6.6-15.5 14.7-15.5s14.7 6.9 14.7 15.5v1.7c1.5.3 2.6 1.6 2.6 3.3V46c0 1.7-1.2 3.1-2.7 3.3-.5 5.5-3.8 10.1-8.3 12.4Z" id="d"/></mask><mask id="mask-2" x="2.3" y="11.8" width="69.2" height="77.4" maskUnits="userSpaceOnUse"><path class="st18" d="M5.4 55.9C5.4 74.2 19.5 89 36.9 89s31.5-14.8 31.5-33.1h3.1V11.8H2.3v44.1h3.1Z" id="c1" data-name="c"/></mask><mask id="mask-3" x="10.7" y="60" width="52.4" height="28.9" maskUnits="userSpaceOnUse"><path class="st18" d="M45.8 66.7c9.7.8 17.3 9.4 17.3 19.8V89H10.7v-2.5c0-10.5 7.8-19.1 17.6-19.8v.3c0 3.3 3.9 5.9 8.8 5.9s8.8-2.6 8.8-5.9v-.3Z" id="d1" data-name="d"/></mask><mask id="mask-4" x="-2.8" y="13.2" width="78.9" height="80.6" maskUnits="userSpaceOnUse"><path class="st23" d="M76.1 13.2H-2.6v80.6h78.7V13.2Z" id="f"/></mask><mask id="mask-5" x="-2.8" y="13.2" width="78.7" height="80.6" maskUnits="userSpaceOnUse"><path class="st18" d="M24.3 29.1h25.1c5.4-3 6.5-8.4 2.6-13.1-1-1.2-2.6 3.4-7.7 3.7-5.1.3-4.6-1.8-10-1s-4.8 5-8.3 6c-2.4.7-2.9 2.2-1.7 4.5Z" id="g"/></mask><clipPath id="clippath"><path class="st0" d="M37.2-2.9C17.4-2.9 1.3 35 1.3 54.8s16.1 35.9 35.9 35.9 35.9-16.1 35.9-35.9S57-2.9 37.2-2.9Z"/></clipPath><clipPath id="clippath-1"><path class="st0" d="M0-2.9h77.2V92H0z"/></clipPath><style>.st0,.st3,.st7{fill:none}.st18,.st22{fill-rule:evenodd}.st18,.st23{fill:#fff}.st25{fill:#0c72ba}.st3{stroke:#0071bb;stroke-width:1px}.st3,.st7{stroke-miterlimit:10}.st22{fill:#5c626b}.st7{stroke-width:2.2px}.st36{fill:#ecf3fa}.st41{fill:#0071bb}.st7{stroke:#112e51}</style></defs><path d="m241 21.9 7.3.5 3.2 6.3-4.1 5.8-7.3-.4-3.2-6.3L241 22Z" style="fill:#0071bb"/><path d="m233 30.1 7-1.9 5.2 4.7-1.7 6.6-7 1.9-5.2-4.7 1.7-6.6Z" style="fill:#e21c3d"/><path d="m254.7 25.4 5.2 9.3-4.5 9.8-9.7.4-5.2-9.3 4.5-9.8 9.7-.5Z" style="fill:#f3b8be;fill-opacity:.5"/><rect class="st23" x="321.9" y="25" width="95.5" height="58.2" rx="7.3" ry="7.3"/><path class="st36" d="M329.2 25H410c4 0 7.3 3.3 7.3 7.3v14.4h-95.5V32.3c0-4 3.3-7.3 7.3-7.3Z"/><rect class="st7" x="321.9" y="25" width="95.5" height="58.2" rx="7.3" ry="7.3"/><path d="M356.7 67.4h25.9m-30-4.9h34" style="stroke:#d0d2d3;stroke-width:2.3px;stroke-linecap:round;fill:none"/><path d="M375.4 36.5h-5.8V57c5.5-2.4 7.5-5.6 7.9-6.6 0-.2.1-.4.1-.6V38.7c0-1.2-1-2.3-2.3-2.3Z" style="fill:#b51e23"/><path d="M363.8 36.5c-1.2 0-2.3 1-2.3 2.3v11.1c0 .2 0 .4.1.6.5 1 2.4 4.2 7.9 6.6V36.6h-5.8Z" style="fill:#e21d3e"/><path class="st23" d="M371.1 45.3c.5-.4.9-1.1.9-1.8 0-1.3-1-2.3-2.3-2.3s-2.3 1-2.3 2.3.4 1.4.9 1.8c-.3 1.4-.5 2.9-.8 4.3.7.1 1.4.2 2.2.2.7 0 1.5 0 2.2-.2-.3-1.4-.5-2.9-.8-4.3Z"/><circle cx="37.2" cy="54.8" r="35.8" style="fill:#ecf3fa;stroke-width:2.2px;stroke:#112e50"/><path class="st0" d="M0-2.9h77.2V92H0z"/><g style="clip-path:url(#clippath)"><g style="mask:url(#mask)"><path d="M43.2 61.7v5.1h1.1c10.5 0 13.3 7.2 15.5 8.5l-45.9.2c2.4-2.3 5.2-8.7 15.6-8.7h1.1v-5.1c-4.5-2.3-7.8-6.9-8.3-12.4-1.5-.2-2.7-1.6-2.7-3.3v-3.9c0-1.6 1.1-3 2.6-3.3v-1.7c0-8.6 6.6-15.5 14.7-15.5s14.7 6.9 14.7 15.5v1.7c1.5.3 2.6 1.6 2.6 3.3V46c0 1.7-1.2 3.1-2.7 3.3-.5 5.5-3.8 10.1-8.3 12.4Z" style="fill:#d08c5b"/><g style="mask:url(#mask-1)"><path d="M30.5 61.7v2.5c0 1.3 4.3 1.2 6.1 1.2s6.5 0 6.5-1.1v-2.7c-1.6.4-4 .9-6.5.9-2.3 0-4.6-.4-6.1-.8Z" style="fill-rule:evenodd;fill-opacity:.2;fill:#010101"/></g><path d="M33.2 52.9c0 2.1 1.6 3.9 3.7 3.9s3.7-1.7 3.7-3.9" style="fill-opacity:.7;fill:#010101"/><path d="M33.7 47.7c0 1.2 1.4 2.2 3.2 2.2s3.2-1 3.2-2.2" style="fill-opacity:.2;fill:#010101"/><path d="M30 44.4c.9 0 1.6-.7 1.6-1.7S30.9 41 30 41s-1.6.7-1.6 1.7.7 1.7 1.6 1.7Zm13.7 0c.9 0 1.6-.7 1.6-1.7s-.7-1.7-1.6-1.7-1.6.7-1.6 1.7.7 1.7 1.6 1.7Zm-17.5-5.2c1-1.5 3.9-2.4 6.3-1.7.3 0 .6-.1.6-.4 0-.3-.1-.6-.4-.7-2.8-.7-6.1.3-7.4 2.2-.2.3-.1.6.1.8.2.2.6.1.7-.1Zm21.3 0c-1-1.5-3.9-2.4-6.3-1.7-.3 0-.6-.1-.6-.4 0-.3.1-.6.4-.7 2.8-.7 6.1.3 7.4 2.2.2.3.1.6-.1.8-.2.2-.6.1-.7-.1Z" style="fill-opacity:.6;fill:#010101"/></g><g style="mask:url(#mask-2)"><path d="M36.8 89.2 14 75.2c2-3.6 4.5-7.9 14.3-8.6v.3c0 3.3 3.9 5.9 8.8 5.9s8.8-2.6 8.8-5.9v-.3c9.7.8 12.3 6.4 13.9 8.4L38.9 87.9" style="fill:#0c72ba;fill-rule:evenodd"/><g style="mask:url(#mask-3)"><g style="isolation:isolate;opacity:.6"><path d="M37 74.8c5.7 0 10.4-3.3 10.4-7.4S42.7 60 37 60s-10.4 3.3-10.4 7.4 4.7 7.4 10.4 7.4Z" style="fill:#205594;isolation:isolate;opacity:.6"/></g></g></g><path class="st25" d="M14.4 81c1 .8 2 1.7 3.1 2.4 5.2 3.3 5.9 3.2 8.3 4.2 2.9 1 6.4 1.7 9.1 1.8s1.7 0 1.7 0v-.5S14.2 75.4 14 75.2c-.3.4-1.4 2.3-1.8 3.3-.1.2 0 .3.2.5.6.6 1.4 1.4 2 1.9Z"/><path class="st25" d="M62.4 78.5 59.7 75 37.2 88.8h-.6v.6s7.8.5 16.1-3.6 9.8-7.3 9.8-7.3Z"/></g><g style="clip-path:url(#clippath-1)"><path d="M1.4 54.8c0 19.8 16 35.8 35.8 35.8S73 74.6 73 54.8" style="stroke-width:2.2px;stroke:#112e50;fill:none"/></g><circle class="st36" cx="204.8" cy="55.3" r="40.5"/><circle class="st7" cx="204.8" cy="55.3" r="40.5"/><path class="st3" d="M72.7 54.1h91.7"/><path class="st41" d="M72.9 57.7c-2 0-3.6-1.6-3.6-3.6s1.6-3.6 3.6-3.6 3.6 1.6 3.6 3.6-1.6 3.6-3.6 3.6Zm91.4 0c2 0 3.6-1.6 3.6-3.6s-1.6-3.6-3.6-3.6-3.6 1.6-3.6 3.6 1.6 3.6 3.6 3.6Z"/><path d="M203.9 39.2h40c2.2 0 4 1.7 4 3.8v5.3c0 2.1-1.8 3.8-4 3.8h-40c-2.2 0-4-1.7-4-3.8V43c0-2.1 1.8-3.8 4-3.8Z" style="stroke:#a8b6c6;stroke-width:1.3px;fill:#fff"/><path class="st22" d="m206.8 48.7 1.3-1.8 1.3 1.8.7-.6-1-1.9 1.7-.8-.3-1-1.9.5-.2-2.2h-.9l-.2 2.2-1.8-.5-.3 1 1.7.8-1 1.9.7.6Zm9.1 0 1.3-1.8 1.3 1.8.7-.6-1-1.9 1.7-.8-.3-1-1.9.5-.2-2.2h-.9l-.2 2.2-1.8-.5-.3 1 1.7.8-1 1.9.7.6Zm9.4-1.8-1.3 1.8-.7-.6 1-1.9-1.7-.8.3-1 1.8.5.2-2.2h.9l.2 2.2 1.9-.5.3 1-1.7.8 1 1.9-.7.6-1.3-1.8Zm6.9 1.8 1.3-1.8 1.3 1.8.7-.6-1-1.9 1.7-.8-.3-1-1.9.5-.2-2.2h-.9l-.2 2.2-1.8-.5-.3 1 1.7.8-1 1.9.7.6Zm6.5-.6.7.6 1.3-1.8 1.3 1.8.7-.6-1-1.9 1.7-.8-.3-1-1.9.5-.2-2.2h-.9l-.2 2.2-1.8-.5-.3 1 1.7.8-1 1.9Z"/><path class="st22" d="m206.8 48.7 1.3-1.8 1.3 1.8.7-.6-1-1.9 1.7-.8-.3-1-1.9.5-.2-2.2h-.9l-.2 2.2-1.8-.5-.3 1 1.7.8-1 1.9.7.6Zm9.1 0 1.3-1.8 1.3 1.8.7-.6-1-1.9 1.7-.8-.3-1-1.9.5-.2-2.2h-.9l-.2 2.2-1.8-.5-.3 1 1.7.8-1 1.9.7.6Zm9.4-1.8-1.3 1.8-.7-.6 1-1.9-1.7-.8.3-1 1.8.5.2-2.2h.9l.2 2.2 1.9-.5.3 1-1.7.8 1 1.9-.7.6-1.3-1.8Zm6.9 1.8 1.3-1.8 1.3 1.8.7-.6-1-1.9 1.7-.8-.3-1-1.9.5-.2-2.2h-.9l-.2 2.2-1.8-.5-.3 1 1.7.8-1 1.9.7.6Zm6.5-.6.7.6 1.3-1.8 1.3 1.8.7-.6-1-1.9 1.7-.8-.3-1-1.9.5-.2-2.2h-.9l-.2 2.2-1.8-.5-.3 1 1.7.8-1 1.9Z"/><path d="M228.3 74.7c7 0 12.7-5.4 12.7-12.1s-5.7-12.1-12.7-12.1-12.7 5.4-12.7 12.1 5.7 12.1 12.7 12.1Z" style="fill:#ecf3fb"/><path class="st23" d="m223.6 93.7.2-18.7 9.7-.9-.3 8.9-.8 2.3.9 1-.5 3 .5 3.6-5.3 5.3-4.4-4.7Z"/><path d="M234.1 73.1h-.5v.8l.7-.4-.2-.4Zm0-.2h.5-.5Zm0-.2h.5v-.5h-.5v.5Zm-.2 0v-.5.5Zm-10.4 0v-.5.5Zm-.3 0v-.5h-.5v.5h.5Zm0 .3h.5-.5Zm0 .4-.2.4.7.3v-.7h-.5Zm0 .6h.5v-.3h-.3c0-.1-.2.3-.2.3Zm10.9-.4-.2-.4h-.3v.4h.5Zm0 8.6h-.5.5Zm-.5 1.2-.4-.3.4.3Zm-1.4 1.3-.4-.3-.3.3.3.3.4-.3Zm1.5 1.4-.4.3.4-.3Zm0 2.3-.4-.3.4.3Zm-1.5 1.4-.4-.3-.3.3.3.3.4-.3Zm1.5 1.4.4-.3-.4.3Zm-.1 2.2.4.3-.4-.3Zm-4.6 4.4.4.3-.4-.3Zm-2.3 0-.4.3.4-.3Zm-3.1-3 .4-.3-.4.3Zm-.5-1.1h.5-.5Zm10.5-11.5h.5-.5Zm0-8.4h.5v-.7l-.7.3.2.4Zm0 8.5h-.5.5Zm0 0h.5-.5Zm-.4.8-.4-.3.4.3Zm-1.5 1.5-.4-.3.4.3Zm-.2.1-.4-.3-.3.3.3.3.4-.3Zm.2.2.4-.3-.4.3Zm1.6 1.6-.4.3.4-.3Zm0 1.5.4.3-.4-.3Zm-1.6 1.6.4.3-.4-.3Zm-.2.2-.4-.3-.3.3.3.3.4-.3Zm.2.1.4-.3-.4.3Zm1.6 1.6-.4.3.4-.3Zm0 1.6.4.3-.4-.3Zm-4.6 4.4.4.3-.4-.3Zm-1.6 0-.4.3.4-.3Zm-3.2-3-.4.3.4-.3Zm-.3-.8h-.5.5Zm0 0h.5-.5Zm.1-19.6.2-.4-.7-.2v.7h.5Zm9.9-.8.2.4h.3v-.4h-.5Zm-9.9.3h-.5v.3h.3c0 .1.2-.3.2-.3Zm0-.4v-.5h-.5v.5h.5Zm9.9 0h.5v-.5h-.5v.5Zm-5.3-23c-7.1 0-12.9 5.5-12.9 12.4h1c0-6.3 5.3-11.4 11.9-11.4v-1Zm12.9 12.4c0-6.8-5.8-12.4-12.9-12.4v1c6.6 0 11.9 5.1 11.9 11.4h1Zm-6.8 10.9c4.1-2.1 6.9-6.2 6.9-10.9h-1c0 4.4-2.6 8.1-6.3 10.1l.5.9Zm-.8-.6c0 .1 1 .1 1 .1 0-.1-1-.1-1-.1Zm0-.2v.2h1v-.2h-1Zm.3.5h.3v-1h-.3v1Zm-10.4 0h10.4v-1h-10.4v1Zm-.3 0h.3v-1h-.3v1Zm.5-.2v-.2h-1v.2h1Zm0 .4v-.5h-1v.5h1Zm-8.3-10.8c0 5 3.1 9.4 7.7 11.3l.4-.9c-4.2-1.8-7.1-5.8-7.1-10.4h-1Zm8 10.9c-4.4-1.8-7.6-6-7.6-10.9h-1c0 5.3 3.4 9.9 8.2 11.8l.4-.9Zm-7.5-10.9c0-6.6 5.6-11.9 12.4-11.9v-1c-7.4 0-13.4 5.7-13.4 12.8h1Zm12.4-11.9c6.9 0 12.4 5.3 12.4 11.9h1c0-7.1-6-12.8-13.4-12.8v1Zm12.4 11.9c0 4.6-2.8 8.6-6.8 10.6l.5.9c4.4-2.1 7.4-6.5 7.4-11.5h-1Zm-7.1 11v8.6h1v-8.6h-1Zm0 8.7c0 .3-.1.6-.3.8l.7.7c.4-.4.7-1 .6-1.6h-1Zm-.4.8-1.4 1.3.7.7 1.4-1.3-.7-.7Zm-1.3 2 1.4 1.4.7-.7-1.4-1.4-.7.7Zm1.4 1.4c.4.4.4 1.1 0 1.5l.7.7c.8-.8.8-2.1 0-2.9l-.7.7Zm0 1.5-1.5 1.4.7.7 1.5-1.4-.7-.7Zm-1.4 2.1 1.4 1.4.7-.7-1.4-1.4-.7.7Zm1.4 1.4c.4.4.4 1.1 0 1.5l.7.7c.8-.8.8-2.1 0-2.9l-.7.7Zm0 1.6-4.6 4.4.7.7 4.6-4.4-.7-.7Zm-4.6 4.4c-.4.4-1.2.4-1.6 0l-.7.7c.8.8 2.2.8 3 0l-.7-.7Zm-1.6 0-3.2-3-.7.7 3.2 3 .7-.7Zm-3.2-3c-.2-.2-.3-.5-.3-.8h-1c0 .5.2 1.1.6 1.4l.7-.7Zm-.3-.8V74h-.9v19.7h.9Zm10.5-11.5v-8.4h-1v8.4h1Zm0 .1h-1 1Zm0-.1h-1 1Zm-.5 1.2c.3-.3.5-.8.5-1.2h-1c0 .2 0 .4-.2.5l.7.7Zm-1.5 1.5 1.5-1.5-.7-.7-1.5 1.5.7.7Zm-.2.2.2-.2-.7-.7-.2.2.7.7Zm.2-.5-.2-.2-.7.7.2.2.7-.7Zm1.6 1.5-1.6-1.6-.7.7 1.6 1.6.7-.7Zm0 2.3c.6-.6.6-1.6 0-2.2l-.7.7c.2.2.2.6 0 .9l.7.7ZM232 90l1.6-1.6-.7-.7-1.6 1.6.7.7Zm-.1.1.2-.2-.7-.7-.2.2.7.7Zm.1-.5-.2-.2-.7.7.2.2.7-.7Zm1.7 1.6-1.6-1.6-.7.7 1.6 1.6.7-.7Zm-.1 2.2c.6-.6.6-1.6 0-2.2l-.7.7c.2.2.2.6 0 .9l.7.7Zm-4.6 4.4 4.6-4.4-.7-.7-4.6 4.4.7.7Zm-2.3 0c.6.6 1.7.6 2.3 0l-.7-.7c-.3.2-.7.2-.9 0l-.7.7Zm-3.1-3 3.2 3 .7-.7-3.2-3-.7.7Zm-.5-1.1c0 .4.2.8.5 1.1l.7-.7c-.1-.1-.2-.3-.2-.4h-1Zm0 0h1-1Zm.1-19.6v19.6h.9V74.1h-.9Zm5.1.4c-1.5 0-3-.3-4.4-.8l-.4.9c1.5.5 3.1.8 4.7.8v-1Zm5.1-1.1c-1.6.7-3.4 1.1-5.1 1.1v1c2 0 3.8-.4 5.5-1.1l-.4-.9Zm-5.1 1.5c2 0 3.9-.4 5.5-1.2l-.4-.9c-1.6.7-3.4 1.1-5.1 1.1v1Zm-4.8-.8c1.5.6 3.1.9 4.7.9v-1c-1.5 0-3-.3-4.4-.8l-.4.9Zm-.3-.9v.4h1v-.4h-1Zm10.4-.5h-9.9v1h9.9v-1Zm.5.6c0-.1-1-.1-1-.1 0 .1 1 .1 1 .1Z" style="fill:#a8b6c6"/><path d="M228.3 61.7c2 0 3.6-1.5 3.6-3.5s-1.6-3.5-3.6-3.5-3.6 1.5-3.6 3.5 1.6 3.5 3.6 3.5Z" style="stroke:#a8b6c6;stroke-width:1.3px;fill:none"/><path d="M241 62.6c0-6.7-5.7-12.1-12.7-12.1s-12.7 5.4-12.7 12.1 5.7 12.1 12.7 12.1m-2.3 2.9v12.3" style="stroke:#a8b6c6;stroke-width:1.3px;stroke-linecap:round;fill:none"/><path class="st23" d="M170.7 23.2c0-1.3 1.1-2.4 2.5-2.4h35.7c1.4 0 2.5 1.1 2.5 2.4v64.4c0 1.3-1.1 2.4-2.5 2.4h-35.7c-1.4 0-2.5-1.1-2.5-2.4V23.2Z"/><path d="M201.9 21.3v1.1c0 1.3-1.1 2.4-2.5 2.4h-17.6c-1.4 0-2.5-1.1-2.5-2.4v-1.1h22.6Z" style="stroke:#102f51;stroke-width:1.3px;fill:#102f51;fill-rule:evenodd"/><path d="M191 52c-6.3 0-11.3 4.8-11.3 10.8s5.1 10.8 11.3 10.8 11.3-4.8 11.3-10.8" style="stroke-width:2px;stroke:#102f51;stroke-linecap:round;fill:none"/><path d="M182.3 37.3v-.4c.2-.2.4-.4.6-.5l.4-.4c.1-.1.2-.3.3-.4 0-.1.1-.2.1-.3 0-.2 0-.3-.1-.3 0 0-.2-.1-.3-.1h-.3s-.2.1-.3.2l-.4-.4c.2-.2.3-.3.5-.4.2 0 .4-.1.6-.1h.4c.1 0 .2.1.3.2 0 0 .2.2.2.3.1.3.1.5 0 .8 0 .1-.1.3-.2.4 0 .1-.2.3-.3.4-.1.1-.2.3-.4.4h1.2v.6h-2.2Zm2.8 0v-.6h.7v-1.8h-.6v-.4c.2 0 .3 0 .4-.1.1 0 .2 0 .3-.2h.5v2.5h.6v.6h-2Zm3.6 0c-.3 0-.5 0-.7-.1-.2 0-.3-.2-.4-.3l.3-.4s.2.2.3.2h.8s.1-.2.1-.3v-.2s0-.1-.1-.1h-.7v-.5h.6l.1-.1v-.4h-.6c-.1 0-.2.1-.3.2l-.4-.4c.1-.1.3-.2.5-.3.2 0 .3-.1.5-.1h.4c.1 0 .3 0 .3.2 0 0 .2.2.2.3v.4c0 .1 0 .3-.1.4 0 .1-.2.2-.4.3.2 0 .3.2.5.3.1.1.2.3.2.5v.4c0 .1-.2.2-.3.3-.1 0-.2.1-.4.2h-.5Zm2.7 0v-.6h.7v-1.8h-.6v-.4c.2 0 .3 0 .4-.1.1 0 .2 0 .3-.2h.5v2.5h.6v.6h-2Zm3.6 0h-.4c-.1 0-.2 0-.3-.2 0 0-.2-.2-.2-.3v-.3c0-.2 0-.3.2-.5.1-.1.2-.2.4-.3l-.3-.3c0-.1-.1-.3-.1-.4v-.3c0-.1.1-.2.2-.3 0 0 .2-.1.3-.2h.8c.1 0 .2 0 .3.2 0 0 .1.2.2.3v.3c0 .1 0 .3-.1.4 0 .1-.2.2-.3.3.2.1.3.2.4.3s.2.3.2.5v.3c0 .1-.1.2-.2.3-.1 0-.2.1-.4.2h-.5Zm.3-1.8c.1-.1.2-.3.2-.4s0-.2-.1-.3c0 0-.2-.1-.3-.1h-.3s-.1.1-.1.3 0 .2.2.3l.4.2Zm-.2 1.3h.3s.1-.2.1-.3v-.2l-.1-.1s-.1 0-.2-.1c0 0-.2 0-.3-.1l-.2.2v.3c0 .1 0 .2.1.3h.3Zm2.7.5h-.5c-.1 0-.3-.2-.4-.3-.1-.1-.2-.3-.3-.5v-.7c0-.3 0-.5.1-.7 0-.2.2-.4.3-.5.2-.3.6-.4.9-.4.2 0 .4 0 .5.1.1 0 .3.1.4.3l-.4.4s-.1-.1-.2-.1h-.5s-.2 0-.2.2c0 0-.1.2-.1.3v.4l.1-.1h1c.1 0 .2 0 .3.2 0 0 .2.2.2.3v.8c0 .1-.1.2-.2.3 0 0-.2.2-.3.2h-.4Zm0-.5c.1 0 .2 0 .3-.1 0 0 .1-.2.1-.4s0-.3-.1-.3c0 0-.2-.1-.3-.1-.2 0-.4.1-.5.3v.3s0 .1.1.2l.1.1h.2Zm-8.2 27.7c-.3 0-.5 0-.7-.1-.2 0-.3-.2-.4-.3l.3-.4s.2.2.3.2h.8s.1-.2.1-.3v-.2s0-.1-.1-.1h-.7v-.5h.6l.1-.1v-.4h-.6c-.1 0-.2.1-.3.2l-.4-.4c.1-.1.3-.2.5-.3.2 0 .3-.1.5-.1h.4c.1 0 .3 0 .3.2 0 0 .2.2.2.3v.4c0 .1 0 .3-.1.4 0 .1-.2.2-.4.3.2 0 .3.2.5.3.1.1.2.3.2.5v.4c0 .1-.2.2-.3.3-.1 0-.2.1-.4.2h-.5Zm2.7 0c-.3 0-.5 0-.7-.1-.2 0-.3-.2-.5-.3l.3-.4s.2.2.3.2h.4c.2 0 .3 0 .4-.1 0 0 .1-.2.1-.4s0-.3-.1-.4-.2-.1-.4-.1h-.4l-.3-.2v-1.5h1.9v.6h-1.2v.6h.7c.1 0 .2 0 .3.2 0 0 .2.2.2.3v.9c0 .1-.1.2-.3.3-.1 0-.2.2-.4.2h-.4Z" style="fill:#5c626b"/><path d="M172.3 20.8h36.6c1.4 0 2.5 1.1 2.5 2.4v64.4c0 1.3-1.1 2.4-2.5 2.4h-36.6c-1.4 0-2.5-1.1-2.5-2.4V23.2c0-1.3 1.1-2.4 2.5-2.4Z" style="stroke-width:2px;stroke:#102f51;fill:none"/><path class="st3" d="M245 54.1h77.1"/><path class="st41" d="M245.2 57.7c-2 0-3.6-1.6-3.6-3.6s1.6-3.6 3.6-3.6 3.6 1.6 3.6 3.6-1.6 3.6-3.6 3.6Zm76.7 0c2 0 3.6-1.6 3.6-3.6s-1.6-3.6-3.6-3.6-3.6 1.6-3.6 3.6 1.6 3.6 3.6 3.6Z"/><g style="mask:url(#mask-4)"><path d="M24.2 29.1h25.1c5.4-3 6.5-8.4 2.6-13.1-1-1.2-2.6 3.4-7.7 3.7-5.1.3-4.6-1.8-10-1s-4.8 5-8.3 6c-2.4.7-2.9 2.2-1.7 4.5Z" style="fill:#262f33;fill-rule:evenodd"/><g style="mask:url(#mask-5)"><path d="M75.9 13.2H-2.8v80.6h78.7V13.2Z" style="fill:#4b322d"/></g></g></svg>