<svg xmlns="http://www.w3.org/2000/svg" width="49" height="49" fill="none"><path fill="url(#a)" stroke="#0071bb" stroke-width="1.5" d="m21.083 3.5-.4-.2-.4.2-16 9.4-.4.2v18.8l.4.2 16.1 9.7.4.2.4-.2 15.9-9.6.4-.2V12.9l-.4-.2z"/><path fill="url(#b)" d="m21.083 41.3-.2-19-16-9-.1 18.1z"/><path fill="url(#c)" d="m5.283 13.8 15.3 8.7.2 18.3-15.7-9.5zm-.3-.6-.2 18.2 16.3 9.9-.2-19z"/><path fill="#0071bb" d="m20.983 3.7 16 9.3v18.5l-16 9.7-16.2-9.8.1-18.2zm0-.7-.3.2-16 9.5-.3.2v.3l-.2 18.2v.3l.3.2 16.2 9.8.3.2.3-.2 16-9.7.3-.2V12.6l-.3-.2-16-9.3z"/><path fill="#d0c6ac" d="M20.573 26.105v1.95h.429c4.263 0 7.719 3.42 7.719 7.636v.955H7.279v-.955c0-4.217 3.456-7.636 7.72-7.636h.428v-1.95c-1.848-.868-3.176-2.643-3.398-4.744a1.28 1.28 0 0 1-1.105-1.26v-1.484c0-.631.464-1.155 1.072-1.256v-.653c0-3.28 2.688-5.94 6.004-5.94s6.004 2.66 6.004 5.94v.654a1.28 1.28 0 0 1 1.072 1.255V20.1c0 .642-.48 1.173-1.105 1.26-.222 2.1-1.55 3.876-3.398 4.744z"/><mask id="a" width="22" height="27" x="7" y="10" maskUnits="userSpaceOnUse" style="mask-type:alpha"><path fill="#fff" fill-rule="evenodd" d="M20.573 26.105v1.95h.429c4.263 0 7.719 3.42 7.719 7.636v.955H7.279v-.955c0-4.217 3.456-7.636 7.72-7.636h.428v-1.95c-1.848-.868-3.176-2.643-3.398-4.744a1.28 1.28 0 0 1-1.105-1.26v-1.484c0-.631.464-1.155 1.072-1.256v-.653c0-3.28 2.688-5.94 6.004-5.94s6.004 2.66 6.004 5.94v.654a1.28 1.28 0 0 1 1.072 1.255V20.1c0 .642-.48 1.173-1.105 1.26-.222 2.1-1.55 3.876-3.398 4.744z" clip-rule="evenodd"/></mask><g mask="url(#a)"><path fill="#d08b5b" d="M3.849 10.769H32.15v25.877H3.85z"/></g><mask id="b" width="22" height="27" x="7" y="10" maskUnits="userSpaceOnUse" style="mask-type:alpha"><path fill="#fff" fill-rule="evenodd" d="M20.573 26.105v1.95h.429c4.263 0 7.719 3.42 7.719 7.636v.955H7.279v-.955c0-4.217 3.456-7.636 7.72-7.636h.428v-1.95c-1.848-.868-3.176-2.643-3.398-4.744a1.28 1.28 0 0 1-1.105-1.26v-1.484c0-.631.464-1.155 1.072-1.256v-.653c0-3.28 2.688-5.94 6.004-5.94s6.004 2.66 6.004 5.94v.654a1.28 1.28 0 0 1 1.072 1.255V20.1c0 .642-.48 1.173-1.105 1.26-.222 2.1-1.55 3.876-3.398 4.744z" clip-rule="evenodd"/></mask><g mask="url(#b)"><path fill="#000" fill-opacity=".1" d="M24.004 19.147v2.439c0 3.28-2.688 5.94-6.004 5.94s-6.004-2.66-6.004-5.94v-2.44 1.592c0 3.28 2.688 5.939 6.004 5.939s6.004-2.66 6.004-5.94z"/></g><path fill="#e6e6e6" d="M21.64 27.99c3.965.322 7.08 3.611 7.08 7.622v.95H7.28v-.95c0-4.047 3.172-7.36 7.187-7.63l-.005.12c0 1.26 1.608 2.281 3.592 2.281s3.591-1.021 3.591-2.281a1 1 0 0 0-.004-.112z"/><mask id="c" width="22" height="10" x="7" y="27" maskUnits="userSpaceOnUse" style="mask-type:alpha"><path fill="#fff" fill-rule="evenodd" d="M21.64 27.99c3.965.322 7.08 3.611 7.08 7.622v.95H7.28v-.95c0-4.047 3.172-7.36 7.187-7.63l-.005.12c0 1.26 1.608 2.281 3.592 2.281s3.591-1.021 3.591-2.281a1 1 0 0 0-.004-.112z" clip-rule="evenodd"/></mask><g mask="url(#c)"><path fill="#262e33" d="M3.849 24.878H32.15v11.684H3.85z"/></g><mask id="d" width="22" height="10" x="7" y="27" maskUnits="userSpaceOnUse" style="mask-type:alpha"><path fill="#fff" fill-rule="evenodd" d="M21.64 27.99c3.965.322 7.08 3.611 7.08 7.622v.95H7.28v-.95c0-4.047 3.172-7.36 7.187-7.63l-.005.12c0 1.26 1.608 2.281 3.592 2.281s3.591-1.021 3.591-2.281a1 1 0 0 0-.004-.112z" clip-rule="evenodd"/></mask><g mask="url(#d)"><ellipse cx="18.054" cy="28.261" fill="#000" fill-opacity=".16" opacity=".6" rx="4.249" ry="2.859"/></g><mask id="e" width="28" height="30" x="4" y="7" maskUnits="userSpaceOnUse" style="mask-type:alpha"><path fill="#fff" d="M4 7h28v29.646H4z"/></mask><g mask="url(#e)"><path fill="#272c2e" fill-rule="evenodd" d="M10.364 15.899v9.37c-.02 3.336-.785 8.734-2.228 9.577 6.614 1.778 7.63-4.039 7.319-8.682v-.041a5.93 5.93 0 0 1-3.372-4.844A1.27 1.27 0 0 1 11 20.023v-1.059c1.152-2.404 3.677-3.345 5.88-4.167 1.413-.527 2.693-1.004 3.393-1.786.237.215.505.43.787.656 1.083.868 2.372 1.9 2.88 3.709v.018a1.27 1.27 0 0 1 1.04 1.03V16.11a5 5 0 0 0-.016-.407c.481-1.8-.328-4-1.343-4.997-1.005-.934-2.365-1.305-3.283-.898-1.23-1.857-4.788-1.406-6.899.157-1.402 1.038-2.63 2.724-2.953 4.846q-.121.526-.122 1.088m13.553 5.38a5.93 5.93 0 0 1-3.372 4.844v1.947h.425c4.02 0 7.314 3.1 7.614 7.037A4.02 4.02 0 0 0 29 30.791l-2.858-5.58a10.6 10.6 0 0 1-1.163-4.82v-.145a1.27 1.27 0 0 1-1.063 1.033z" clip-rule="evenodd"/><mask id="f" width="22" height="28" x="8" y="8" maskUnits="userSpaceOnUse" style="mask-type:alpha"><path fill="#fff" fill-rule="evenodd" d="M10.364 25.268v-9.37q.001-.56.122-1.087c.324-2.122 1.55-3.808 2.953-4.846 2.111-1.563 5.668-2.014 6.9-.157.917-.407 2.277-.036 3.282.898 1.015.997 1.824 3.197 1.343 4.998q.016.2.016.406v2.313a1.27 1.27 0 0 0-1.04-1.03v-.017c-.64-2.28-2.522-3.327-3.667-4.365C18.48 15.012 12.89 15.02 11 18.964v1.059c0 .637.47 1.165 1.083 1.256a5.93 5.93 0 0 0 3.372 4.844v.04c.31 4.644-.705 10.461-7.319 8.683 1.443-.843 2.207-6.241 2.228-9.578m10.181.855a5.93 5.93 0 0 0 3.372-4.844 1.27 1.27 0 0 0 1.063-1.033v.144c0 1.676.399 3.328 1.163 4.82l2.858 5.58a4.02 4.02 0 0 1-.417 4.317 7.63 7.63 0 0 0-7.614-7.037h-.424z" clip-rule="evenodd"/></mask><g mask="url(#f)"><path fill="#4a312c" d="M8.136 8.587h28v29.645h-28z"/></g><path fill="#000" fill-opacity=".16" fill-rule="evenodd" d="M11 18.964c1.89-3.423 7.481-3.43 9.273-5.166 1.143.9 3.019 1.595 3.663 3.564-.644-2.27-2.52-3.315-3.663-4.35-1.792 2-7.383 2.007-9.273 5.952" clip-rule="evenodd"/></g><ellipse cx="25.5" cy="19.411" fill="#5c5c5c" rx="1.5" ry="2"/><ellipse cx="10.5" cy="19.411" fill="#5c5c5c" rx="1.5" ry="2"/><path stroke="#5c5c5c" d="M10.5 17.452s.333-3.699 2.07-5.452c2.915-2.943 7.955-2.867 10.955 0 1.807 1.727 2.508 5.452 2.508 5.452s1.643 5.11-.533 7.048c-2.8.846-4.45 1.095-6.5.5"/><ellipse cx="18.5" cy="24.911" fill="#5c5c5c" rx="1.5" ry=".5"/><path fill="#205493" fill-rule="evenodd" d="M32 42a6 6 0 1 0 0-12 6 6 0 0 0 0 12m-1.732-9.44q-.698.454-1.04 1.297l1.323.32q.176-.454.56-.726.39-.277.821-.277.433 0 .715.224.288.224.288.603 0 .336-.181.608a3.7 3.7 0 0 1-.437.544q-.261.27-.529.597a3 3 0 0 0-.442.752 2.7 2.7 0 0 0-.176 1.013h1.253q0-.484.208-.832.209-.352.512-.634l.614-.576a2.7 2.7 0 0 0 .512-.662q.208-.368.213-.89 0-.502-.32-.912-.315-.411-.885-.656t-1.334-.246q-.976 0-1.675.454zm2.38 7.366v-1.664H30.94v1.664h1.707z" clip-rule="evenodd"/><path fill="#fff" d="M29.229 33.857q.34-.843 1.04-1.296.698-.454 1.674-.454.763 0 1.333.246.57.245.886.656.32.41.32.912-.006.522-.213.89a2.7 2.7 0 0 1-.512.662q-.305.288-.614.576a2.8 2.8 0 0 0-.512.634 1.6 1.6 0 0 0-.208.832H31.17q0-.586.176-1.013.18-.432.443-.752a10 10 0 0 1 .528-.597 3.7 3.7 0 0 0 .437-.544 1.1 1.1 0 0 0 .181-.608.72.72 0 0 0-.288-.603q-.282-.224-.714-.224c-.432 0-.562.092-.822.277a1.56 1.56 0 0 0-.56.726zm3.418 4.405v1.664h-1.706v-1.664z"/></svg>