<svg width="309" height="26" viewBox="0 0 309 26" fill="none" xmlns="http://www.w3.org/2000/svg"><path d="m167.654 5.35-4.445 12.001-4.423-12.001h-3.934l6.368 15.907h3.774l6.434-15.907h-3.774z" fill="#112E51"/><path fill-rule="evenodd" clip-rule="evenodd" d="M135.747 13.327c0-4.66 3.758-8.09 8.703-8.09 4.957 0 8.709 3.522 8.709 8.09 0 4.57-3.758 8.091-8.709 8.091-4.95 0-8.703-3.43-8.703-8.09zm3.758-.021c-.015 2.728 2.222 4.952 5 4.973a4.99 4.99 0 0 0 3.504-1.471 4.808 4.808 0 0 0 1.398-3.48 4.807 4.807 0 0 0-1.396-3.484 4.99 4.99 0 0 0-3.506-1.474 5.032 5.032 0 0 0-3.55 1.443 4.852 4.852 0 0 0-1.45 3.493z" fill="#112E51"/><path d="M125.324 8.349a6.852 6.852 0 0 1 4.445 1.774l2.061-2.567a10.31 10.31 0 0 0-6.506-2.32c-5.049 0-8.84 3.48-8.84 8.091 0 4.612 3.73 8.091 8.637 8.091a12.136 12.136 0 0 0 6.593-2.07v-6.84h-6.027v2.81h2.829v2.098a7.45 7.45 0 0 1-3.17.863 5.082 5.082 0 0 1-4.521-2.434 4.891 4.891 0 0 1 0-5.062 5.082 5.082 0 0 1 4.521-2.434h-.022zm-13.736 8.894a2.03 2.03 0 0 0-1.493.597 1.956 1.956 0 0 0-.568 1.48 2.014 2.014 0 0 0 .997 1.839 2.094 2.094 0 0 0 2.122 0 2.014 2.014 0 0 0 .997-1.839 1.94 1.94 0 0 0-.56-1.484 2.015 2.015 0 0 0-1.495-.593zm-10.368-1.666L93.346 5.35h-3.335v15.907h3.495v-10.2l7.851 10.2h3.33V5.35h-3.467v10.227zM80.731 5.35h3.659v15.907h-3.659zM69.088 8.349a6.853 6.853 0 0 1 4.445 1.774l2.06-2.567a10.308 10.308 0 0 0-6.505-2.32c-5.05 0-8.846 3.48-8.846 8.091 0 4.612 3.73 8.091 8.637 8.091a12.137 12.137 0 0 0 6.593-2.07v-6.84h-6.021v2.81h2.83v2.098a7.456 7.456 0 0 1-3.171.863 5.083 5.083 0 0 1-4.521-2.434 4.89 4.89 0 0 1 0-5.062 5.083 5.083 0 0 1 4.52-2.434h-.021z" fill="#112E51"/><path fill-rule="evenodd" clip-rule="evenodd" d="M39.357 13.327c0-4.66 3.758-8.09 8.703-8.09 4.956 0 8.704 3.522 8.704 8.09 0 4.57-3.748 8.091-8.704 8.091s-8.703-3.43-8.703-8.09zm3.747 0c-.003 2.72 2.23 4.931 5 4.952a4.99 4.99 0 0 0 3.511-1.467 4.807 4.807 0 0 0 1.401-3.485 4.808 4.808 0 0 0-1.407-3.473 4.99 4.99 0 0 0-3.505-1.462 5.031 5.031 0 0 0-3.55 1.442 4.847 4.847 0 0 0-1.45 3.493z" fill="#112E51"/><path d="M29.808 5.35h-3.66v15.907h10.605v-3.134h-6.945V5.35z" fill="#112E51"/><path d="M15.62 2H9.078v22.655c6.209-2.697 8.379-6.193 8.929-7.282.103-.208.155-.437.153-.669V4.492a2.47 2.47 0 0 0-.743-1.762A2.562 2.562 0 0 0 15.62 2z" fill="#B51E23"/><path d="M2.538 2C1.136 2 0 3.116 0 4.492v12.212c-.002.232.05.46.154.669.55 1.079 2.747 4.601 8.923 7.282V2H2.538z" fill="#E21D3E"/><path d="M10.687 11.763a2.502 2.502 0 0 0 .841-2.816 2.574 2.574 0 0 0-2.435-1.702 2.574 2.574 0 0 0-2.435 1.702 2.502 2.502 0 0 0 .842 2.816 988.359 988.359 0 0 0-.846 4.758c.8.135 1.61.203 2.423.205.824.016 1.647-.038 2.462-.162-.286-1.619-.55-3.204-.852-4.8z" fill="#fff"/><path d="M175.628 21V5.094h6.083c1.159 0 2.204.205 3.135.616.931.41 1.665 1.012 2.2 1.804.543.785.814 1.745.814 2.882 0 1.577-.513 2.809-1.54 3.696-1.019.887-2.394 1.331-4.125 1.331h-2.805V21h-3.762zm3.729-8.415h2.728c.667 0 1.217-.235 1.65-.704a2.4 2.4 0 0 0 .66-1.683c0-.667-.235-1.214-.704-1.639a2.317 2.317 0 0 0-1.639-.649h-2.695v4.675zM189.364 21l5.654-15.906h3.883L204.566 21h-3.718l-1.177-3.388h-5.368L193.104 21h-3.74zm5.753-6.611h3.696l-1.837-5.698-1.859 5.698zM221.435 21h-3.85l-2.453-5.808h-2.728V21h-3.751V5.094h6.963c1.328 0 2.402.216 3.223.649.822.425 1.423 1.012 1.804 1.76.382.74.572 1.584.572 2.53 0 1.24-.256 2.207-.77 2.904a5.868 5.868 0 0 1-1.881 1.65L221.435 21zm-6.336-8.635c.704 0 1.269-.22 1.694-.66.433-.447.649-.983.649-1.606 0-.645-.22-1.173-.66-1.584a2.226 2.226 0 0 0-1.573-.616h-2.805v4.466h2.695zm9.576-3.96V5.094h13.035v3.311h-4.62V21h-3.762V8.405h-4.653zm27.53-3.311h3.74V21h-3.377l-7.095-10.208V21h-3.751V5.094h3.751l6.732 9.702V5.094zM261.21 21V5.094h11.341l-.022 3.124h-7.546v3.245h6.435v3.058h-6.457v3.322l7.656.011V21H261.21zm28.94 0h-3.85l-2.453-5.808h-2.728V21h-3.751V5.094h6.963c1.328 0 2.402.216 3.223.649.822.425 1.423 1.012 1.804 1.76.382.74.572 1.584.572 2.53 0 1.24-.256 2.207-.77 2.904a5.868 5.868 0 0 1-1.881 1.65L290.15 21zm-6.336-8.635c.704 0 1.269-.22 1.694-.66.433-.447.649-.983.649-1.606 0-.645-.22-1.173-.66-1.584a2.226 2.226 0 0 0-1.573-.616h-2.805v4.466h2.695zm17.013 8.855a9.725 9.725 0 0 1-2.387-.297 7.893 7.893 0 0 1-2.145-.913 5.423 5.423 0 0 1-1.595-1.54c-.41-.616-.656-1.338-.737-2.167h3.828c.14.645.477 1.144 1.012 1.496.536.345 1.203.517 2.002.517.506 0 .979-.055 1.419-.165.44-.117.796-.3 1.067-.55.272-.257.407-.594.407-1.012 0-.36-.124-.645-.374-.858-.242-.22-.564-.392-.968-.517a10.29 10.29 0 0 0-1.309-.33l-2.596-.495c-1.21-.213-2.178-.697-2.904-1.452s-1.1-1.778-1.122-3.069c-.014-1.034.261-1.921.825-2.662.565-.74 1.328-1.309 2.288-1.705.968-.403 2.039-.605 3.212-.605 1.408 0 2.596.216 3.564.649.976.425 1.716 1.008 2.222 1.749.506.74.767 1.58.781 2.519h-3.729c-.073-.726-.359-1.24-.858-1.54-.491-.3-1.125-.451-1.903-.451-.843 0-1.466.161-1.87.484-.403.315-.605.686-.605 1.111 0 .418.132.755.396 1.012.272.25.789.451 1.551.605l2.585.484c1.049.19 1.881.484 2.497.88.616.396 1.071.843 1.364 1.342.294.491.484.99.572 1.496.088.499.132.95.132 1.353 0 .873-.286 1.661-.858 2.365-.564.697-1.345 1.25-2.343 1.661-.99.403-2.13.605-3.421.605z" fill="#E21C3D"/></svg>