<svg width="49" height="49" viewBox="" fill="none" xmlns="http://www.w3.org/2000/svg">
  <path d="m21.0831 3.50005-.4-.2-.4.2L4.28312 12.9001l-.4.1999v18.8001l.4.2 16.09998 9.7.4.2.4-.2 15.9-9.6.4-.2v-19.1l-.4-.2-16-9.20005Z" fill="url(#a)" stroke="#0071BB" stroke-width="1.5"/>
  <path d="m21.0831 41.3-.2-19-15.99999-9-.1 18.1 16.29999 9.9Z" fill="url(#b)"/>
  <path d="m5.28311 13.8 15.29999 8.7.2 18.3-15.69999-9.5.2-17.5Zm-.3-.6-.2 18.2 16.29999 9.9-.2-19-15.89999-9.1Z" fill="url(#c)"/>
  <path d="m20.9831 3.7 16 9.3v18.5l-16 9.7-16.19998-9.8.1-18.2L20.9831 3.7Zm0-.7-.3.2-15.99998 9.5-.3.2v.3l-.2 18.2v.3l.3.2 16.19998 9.8.3.2.3-.2 16-9.7.3-.2V12.6l-.3-.2-16-9.3-.3-.1Z" fill="#0071BB"/>
  <path fill-rule="evenodd" clip-rule="evenodd" d="M31.2462 37H10.6615C9.73846 37 9 36.2883 9 35.3988V9.60123C9 8.71166 9.73846 8 10.6615 8h20.677C32.2615 8 33 8.71166 33 9.60123V35.3988C32.9077 36.2883 32.1692 37 31.2462 37Z" fill="#EBF2FA" stroke="#767676" stroke-miterlimit="10"/>
  <mask id="d" style="mask-type:alpha" maskUnits="userSpaceOnUse" x="9" y="9" width="23" height="28">
    <path d="M23.4987 25.7663v2.0416h.4084c4.3896 0 7.9625 3.5729 7.9625 7.9625v1.0209H9.81958v-1.0209c0-4.3896 3.57292-7.9625 7.96252-7.9625h.4083v-2.0416c-1.9396-.9188-3.2667-2.7563-3.4708-5.0021-.6125-.1021-1.1229-.6125-1.1229-1.3271v-1.5313c0-.6125.5104-1.225 1.1229-1.327v-.7146c0-3.4709 2.7562-6.22712 6.2271-6.22712 3.3687 0 6.227 2.75622 6.227 6.22712v.7146c.6125.102 1.123.6125 1.123 1.327v1.5313c0 .7146-.5105 1.225-1.123 1.3271-.4083 2.2458-1.8375 4.0833-3.675 5.0021Z" fill="#fff"/>
  </mask>
  <g mask="url(#d)">
    <path d="M23.4987 25.46v2.0417h.4084c4.3896 0 7.9625 3.4708 7.9625 7.7583v1.0208H9.81958V35.26c0-4.2875 3.57292-7.7583 7.96252-7.7583h.4083V25.46c-1.9396-.9187-3.2667-2.6542-3.4708-4.9-.6125-.1021-1.1229-.6125-1.1229-1.3271v-1.5312c0-.6125.5104-1.225 1.1229-1.3271V15.66c0-3.3687 2.7562-6.02292 6.2271-6.02292 3.3687 0 6.227 2.75622 6.227 6.02292v.7146c.6125.1021 1.123.6125 1.123 1.3271v1.5312c0 .6125-.5105 1.225-1.123 1.3271-.4083 2.1438-1.8375 3.9813-3.675 4.9Z" fill="#CFC5AB"/>
    <path d="M32.4821 5.85999H7.47166V36.1787H32.4821V5.85999Z" fill="#AE744C"/>
    <path fill-rule="evenodd" clip-rule="evenodd" d="M24.5196 27.8079c4.0833.3063 7.35 3.5729 7.35 7.4521l-.1021 1.5313h-22.05v-1.4292c0-3.9813 3.3688-7.2479 7.4521-7.5542v.2042c0 1.225 1.6333 2.2458 3.675 2.2458 2.0417 0 3.5729-.9187 3.5729-2.1437.1021-.1021.1021-.3063.1021-.3063Z" fill="#D0D2D3"/>
  </g>
  <path fill-rule="evenodd" clip-rule="evenodd" d="m27.1133 35.6475 2.2459-2.2458 1.9395 2.2458 3.0625-3.2666h1.225l1.2251 1.8375-1.2251 1.8375-4.7979 4.0833-3.675-4.4917Z" fill="#fff"/>
  <path fill-rule="evenodd" clip-rule="evenodd" d="M32.1154 41.5683c3.2667 0 5.9208-2.6541 5.9208-5.9208 0-3.2667-2.6541-5.9208-5.9208-5.9208-3.2667 0-5.9208 2.6541-5.9208 5.9208 0 3.2667 2.5521 5.9208 5.9208 5.9208Zm3.675-7.2479L31.4008 38.71c-.1021.1021-.4083.1021-.5104 0l-2.45-2.45c-.1021-.1021-.1021-.4083 0-.5104l.5104-.5104c.1021-.1021.4084-.1021.5104 0l1.6334 1.6333 3.5729-3.5729c.1021-.1021.4083-.1021.5104 0l.5104.5104c.3063.1021.3063.4083.1021.5104Z" fill="#64BA61"/>
  <defs>
    <linearGradient id="b" x1="4.82801" y1="27.2573" x2="21.0561" y2="27.2573" gradientUnits="userSpaceOnUse">
      <stop stop-color="#fff" stop-opacity=".5"/>
      <stop offset="1" stop-color="#FEF0F2"/>
    </linearGradient>
    <linearGradient id="c" x1="4.82801" y1="27.2573" x2="21.0561" y2="27.2573" gradientUnits="userSpaceOnUse">
      <stop stop-color="#fff" stop-opacity=".5"/>
      <stop offset="1" stop-color="#FEF0F2"/>
    </linearGradient>
    <radialGradient id="a" cx="0" cy="0" r="1" gradientUnits="userSpaceOnUse" gradientTransform="matrix(0 18.4877 -15.9957 0 20.618 22.6737)">
      <stop stop-color="#fff"/>
      <stop offset="1" stop-color="#FEF0F2"/>
    </radialGradient>
  </defs>
</svg>
