<svg width="49" height="49" viewBox="0" fill="none" xmlns="http://www.w3.org/2000/svg"><path d="M21.083 3.5l-.4-.2-.4.2-16 9.4-.4.2v18.8l.4.2 16.1 9.7.4.2.4-.2 15.9-9.6.4-.2V12.9l-.4-.2-16-9.2z" fill="url(#a)" stroke="#0071BB" stroke-width="1.5"/><path d="M21.083 41.3l-.2-19-16-9-.1 18.1 16.3 9.9z" fill="url(#b)"/><path d="M5.283 13.8l15.3 8.7.2 18.3-15.7-9.5.2-17.5zm-.3-.6l-.2 18.2 16.3 9.9-.2-19-15.9-9.1z" fill="url(#c)"/><path d="M20.983 3.7l16 9.3v18.5l-16 9.7-16.2-9.8.1-18.2 16.1-9.5zm0-.7l-.3.2-16 9.5-.3.2v.3l-.2 18.2v.3l.3.2 16.2 9.8.3.2.3-.2 16-9.7.3-.2V12.6l-.3-.2-16-9.3-.3-.1z" fill="#0071BB"/><path fill-rule="evenodd" clip-rule="evenodd" d="M31.246 37H10.662C9.738 37 9 36.288 9 35.399V9.6C9 8.711 9.738 8 10.662 8h20.676C32.261 8 33 8.712 33 9.601V35.4c-.092.89-.83 1.601-1.754 1.601z" fill="#EBF2FA" stroke="#767676" stroke-miterlimit="10"/><mask id="a" style="mask-type:alpha" maskUnits="userSpaceOnUse" x="9" y="9" width="23" height="28"><path d="M23.499 25.766v2.042h.408c4.39 0 7.963 3.573 7.963 7.962v1.021H9.82v-1.02c0-4.39 3.573-7.963 7.962-7.963h.408v-2.042c-1.94-.918-3.266-2.756-3.47-5.002a1.328 1.328 0 01-1.123-1.327v-1.531c0-.613.51-1.225 1.123-1.327v-.715a6.187 6.187 0 016.227-6.227c3.368 0 6.227 2.756 6.227 6.227v.715a1.328 1.328 0 011.123 1.327v1.531c0 .715-.51 1.225-1.123 1.327-.409 2.246-1.838 4.084-3.675 5.002z" fill="#fff"/></mask><g mask="url(#a)"><path d="M23.499 25.46v2.042h.408c4.39 0 7.963 3.47 7.963 7.758v1.02H9.82v-1.02c0-4.287 3.573-7.758 7.962-7.758h.408V25.46c-1.94-.919-3.266-2.654-3.47-4.9a1.328 1.328 0 01-1.123-1.327v-1.531c0-.613.51-1.225 1.123-1.327v-.715c0-3.369 2.756-6.023 6.227-6.023 3.368 0 6.227 2.756 6.227 6.023v.715a1.328 1.328 0 011.123 1.327v1.53c0 .613-.51 1.226-1.123 1.328-.409 2.144-1.838 3.981-3.675 4.9z" fill="#CFC5AB"/><path d="M32.482 5.86H7.472v30.319h25.01V5.86z" fill="#AE744C"/><path fill-rule="evenodd" clip-rule="evenodd" d="M24.52 27.808c4.083.306 7.35 3.573 7.35 7.452l-.103 1.531H9.717v-1.429c0-3.981 3.37-7.248 7.453-7.554v.204c0 1.225 1.633 2.246 3.675 2.246 2.041 0 3.572-.919 3.572-2.144.103-.102.103-.306.103-.306z" fill="#D0D2D3"/></g><path fill-rule="evenodd" clip-rule="evenodd" d="M27.113 35.648l2.246-2.246 1.94 2.245 3.062-3.266h1.225l1.225 1.837-1.225 1.838-4.798 4.083-3.675-4.492z" fill="#fff"/><path fill-rule="evenodd" clip-rule="evenodd" d="M32.115 41.568a5.925 5.925 0 005.921-5.92 5.925 5.925 0 00-5.92-5.921 5.925 5.925 0 00-5.921 5.92c0 3.267 2.552 5.921 5.92 5.921zm3.675-7.248l-4.39 4.39c-.101.102-.407.102-.51 0l-2.45-2.45c-.102-.102-.102-.408 0-.51l.51-.51c.103-.103.41-.103.511 0l1.634 1.633 3.573-3.573c.102-.102.408-.102.51 0l.51.51c.307.102.307.408.102.51z" fill="#64BA61"/><defs><linearGradient id="b" x1="4.828" y1="27.257" x2="21.056" y2="27.257" gradientUnits="userSpaceOnUse"><stop stop-color="#fff" stop-opacity=".5"/><stop offset="1" stop-color="#FEF0F2"/></linearGradient><linearGradient id="c" x1="4.828" y1="27.257" x2="21.056" y2="27.257" gradientUnits="userSpaceOnUse"><stop stop-color="#fff" stop-opacity=".5"/><stop offset="1" stop-color="#FEF0F2"/></linearGradient><radialGradient id="a" cx="0" cy="0" r="1" gradientUnits="userSpaceOnUse" gradientTransform="matrix(0 18.4877 -15.9957 0 20.618 22.674)"><stop stop-color="#fff"/><stop offset="1" stop-color="#FEF0F2"/></radialGradient></defs></svg>