<svg width="49" height="49" fill="none" xmlns="http://www.w3.org/2000/svg">
  <path d="m21.0831 3.50005-.4-.2-.4.2L4.28312 12.9001l-.4.1999v18.8001l.4.2 16.09998 9.7.4.2.4-.2 15.9-9.6.4-.2v-19.1l-.4-.2-16-9.20005Z" fill="url(#a)" stroke="#0071BB" stroke-width="1.5"/>
  <path d="m21.0831 41.3-.2-19-15.99999-9-.1 18.1 16.29999 9.9Z" fill="url(#b)"/>
  <path d="m5.28311 13.8 15.29999 8.7.2 18.3-15.69999-9.5.2-17.5Zm-.3-.6-.2 18.2 16.29999 9.9-.2-19-15.89999-9.1Z" fill="url(#c)"/>
  <path d="m20.9831 3.7 16 9.3v18.5l-16 9.7-16.19999-9.8.1-18.2L20.9831 3.7Zm0-.7-.3.2-15.99999 9.5-.3.2v.3l-.2 18.2v.3l.29999.2 16.2 9.8.3.2.3-.2 16-9.7.3-.2V12.6l-.3-.2-16-9.3-.3-.1Z" fill="#0071BB"/>
  <path d="M20.573 26.1051v1.9503h.4288c4.2631 0 7.7189 3.4187 7.7189 7.6359v.9544H7.2793v-.9544c0-4.2172 3.4559-7.6359 7.7189-7.6359h.4288v-1.9503c-1.8479-.8684-3.1763-2.6433-3.3979-4.7437-.6244-.0874-1.1048-.6182-1.1048-1.2601v-1.4847c0-.6306.4637-1.1541 1.0721-1.2551v-.6539c0-3.2801 2.6879-5.939 6.0036-5.939 3.3157 0 6.0036 2.6589 6.0036 5.939v.6539c.6085.101 1.0721.6245 1.0721 1.2551v1.4847c0 .6419-.4803 1.1727-1.1048 1.2601-.2216 2.1004-1.5499 3.8753-3.3979 4.7437Z" fill="#D0C6AC"/>
  <mask id="d" style="mask-type:alpha" maskUnits="userSpaceOnUse" x="7" y="10" width="22" height="27">
    <path fill-rule="evenodd" clip-rule="evenodd" d="M20.573 26.1051v1.9503h.4288c4.2631 0 7.7189 3.4187 7.7189 7.6359v.9544H7.2793v-.9544c0-4.2172 3.4559-7.6359 7.7189-7.6359h.4288v-1.9503c-1.8479-.8684-3.1763-2.6433-3.3979-4.7437-.6244-.0874-1.1048-.6182-1.1048-1.2601v-1.4847c0-.6306.4637-1.1541 1.0721-1.2551v-.6539c0-3.2801 2.6879-5.939 6.0036-5.939 3.3157 0 6.0036 2.6589 6.0036 5.939v.6539c.6085.101 1.0721.6245 1.0721 1.2551v1.4847c0 .6419-.4803 1.1727-1.1048 1.2601-.2216 2.1004-1.5499 3.8753-3.3979 4.7437Z" fill="#fff"/>
  </mask>
  <g mask="url(#d)">
    <path fill="#D08B5B" d="M3.84866 10.7686h28.3027v25.8772H3.84866z"/>
  </g>
  <mask id="e" style="mask-type:alpha" maskUnits="userSpaceOnUse" x="7" y="10" width="22" height="27">
    <path fill-rule="evenodd" clip-rule="evenodd" d="M20.573 26.1051v1.9503h.4288c4.2631 0 7.7189 3.4187 7.7189 7.6359v.9544H7.2793v-.9544c0-4.2172 3.4559-7.6359 7.7189-7.6359h.4288v-1.9503c-1.8479-.8684-3.1763-2.6433-3.3979-4.7437-.6244-.0874-1.1048-.6182-1.1048-1.2601v-1.4847c0-.6306.4637-1.1541 1.0721-1.2551v-.6539c0-3.2801 2.6879-5.939 6.0036-5.939 3.3157 0 6.0036 2.6589 6.0036 5.939v.6539c.6085.101 1.0721.6245 1.0721 1.2551v1.4847c0 .6419-.4803 1.1727-1.1048 1.2601-.2216 2.1004-1.5499 3.8753-3.3979 4.7437Z" fill="#fff"/>
  </mask>
  <g mask="url(#e)">
    <path d="M24.0036 19.1468v2.4392c0 3.2801-2.6879 5.9391-6.0036 5.9391-3.3157 0-6.0036-2.659-6.0036-5.9391v-2.4392 1.5908c0 3.28 2.6879 5.939 6.0036 5.939 3.3157 0 6.0036-2.659 6.0036-5.939v-1.5908Z" fill="#000" fill-opacity=".1"/>
  </g>
  <path d="M21.6408 27.99c3.9641.3218 7.0799 3.6112 7.0799 7.6215v.9504H7.2793v-.9504c0-4.0466 3.1725-7.3591 7.1877-7.6295-.0032.0397-.0048.0796-.0048.1198 0 1.26 1.6079 2.2815 3.5914 2.2815s3.5915-1.0215 3.5915-2.2815c0-.0375-.0015-.0748-.0043-.1118Z" fill="#E6E6E6"/>
  <mask id="f" style="mask-type:alpha" maskUnits="userSpaceOnUse" x="7" y="27" width="22" height="10">
    <path fill-rule="evenodd" clip-rule="evenodd" d="M21.6408 27.99c3.9641.3218 7.0799 3.6112 7.0799 7.6215v.9504H7.2793v-.9504c0-4.0466 3.1725-7.3591 7.1877-7.6295-.0032.0397-.0048.0796-.0048.1198 0 1.26 1.6079 2.2815 3.5914 2.2815s3.5915-1.0215 3.5915-2.2815c0-.0375-.0015-.0748-.0043-.1118Z" fill="#fff"/>
  </mask>
  <g mask="url(#f)">
    <path fill="#262E33" d="M3.84866 24.8785h28.3027v11.6834H3.84866z"/>
  </g>
  <mask id="g" style="mask-type:alpha" maskUnits="userSpaceOnUse" x="7" y="27" width="22" height="10">
    <path fill-rule="evenodd" clip-rule="evenodd" d="M21.6408 27.99c3.9641.3218 7.0799 3.6112 7.0799 7.6215v.9504H7.2793v-.9504c0-4.0466 3.1725-7.3591 7.1877-7.6295-.0032.0397-.0048.0796-.0048.1198 0 1.26 1.6079 2.2815 3.5914 2.2815s3.5915-1.0215 3.5915-2.2815c0-.0375-.0015-.0748-.0043-.1118Z" fill="#fff"/>
  </mask>
  <g mask="url(#g)">
    <ellipse cx="18.0536" cy="28.2611" rx="4.24917" ry="2.8586" fill="#000" fill-opacity=".16" opacity=".6"/>
  </g>
  <mask id="h" style="mask-type:alpha" maskUnits="userSpaceOnUse" x="4" y="7" width="28" height="30">
    <path fill="#fff" d="M4 7h28v29.6457H4z"/>
  </mask>
  <g mask="url(#h)">
    <path fill-rule="evenodd" clip-rule="evenodd" d="M10.3636 15.8986v9.3696c-.0203 3.3367-.78422 8.7346-2.22725 9.5776 6.61375 1.7785 7.62895-4.0387 7.31815-8.682v-.0412c-1.8593-.8817-3.1869-2.6994-3.3718-4.8432C11.4699 21.1878 11 20.6602 11 20.0229v-1.0587c1.1517-2.4037 3.6771-3.3454 5.88-4.1669 1.4127-.5268 2.6927-1.0042 3.3928-1.7859.2369.2146.5052.4296.7874.6558 1.0829.8676 2.3714 1.9001 2.8792 3.7088v.0176c.5291.0886.9475.5031 1.041 1.0297v-2.3135c0-.1368-.0056-.2723-.0167-.4063.4817-1.8006-.328-4.001-1.3425-4.9978-1.0056-.93361-2.3653-1.3043-3.2829-.89761-1.2308-1.85714-4.7878-1.40624-6.8989.15647-1.4026 1.03874-2.6298 2.72434-2.9536 4.84614-.08.3498-.1222.7139-.1222 1.0879Zm13.5537 5.3808c-.1849 2.1438-1.5125 3.9615-3.3718 4.8432v1.947h.4242c4.0201 0 7.3146 3.101 7.6142 7.0376.9391-1.1959 1.1559-2.8745.4174-4.3164l-2.8582-5.5806c-.7642-1.4921-1.1627-3.144-1.1627-4.8198v-.1443c-.0947.5339-.5236.9527-1.0631 1.0333Z" fill="#272C2E"/>
    <mask id="i" style="mask-type:alpha" maskUnits="userSpaceOnUse" x="8" y="8" width="22" height="28">
      <path fill-rule="evenodd" clip-rule="evenodd" d="M10.3636 25.2682v-9.3696c0-.374.0422-.7381.1222-1.0879.3238-2.1218 1.551-3.8074 2.9536-4.84614 2.1111-1.56271 5.6681-2.01361 6.8989-.15647.9176-.40669 2.2773-.036 3.2829.89761 1.0145.9968 1.8242 3.1972 1.3425 4.9978.0111.134.0167.2695.0167.4063v2.3135c-.0935-.5266-.5119-.9411-1.041-1.0297v-.0176c-.6402-2.2802-2.5211-3.3267-3.6666-4.3646-1.7918 2.0007-7.3825 2.0077-9.2728 5.9528v1.0587c0 .6373.4699 1.1649 1.0827 1.2565.1849 2.1438 1.5125 3.9615 3.3718 4.8432v.0412c.3108 4.6433-.7044 10.4605-7.31815 8.682 1.44303-.843 2.20695-6.2409 2.22725-9.5776Zm10.1819.8544c1.8593-.8817 3.1869-2.6994 3.3718-4.8432.5395-.0806.9684-.4994 1.0631-1.0333v.1443c0 1.6758.3985 3.3277 1.1627 4.8198l2.8582 5.5806c.7385 1.4419.5217 3.1205-.4174 4.3164-.2996-3.9366-3.5941-7.0376-7.6142-7.0376h-.4242v-1.947Z" fill="#fff"/>
    </mask>
    <g mask="url(#i)">
      <path fill="#4A312C" d="M8.13635 8.58667h28v29.6457h-28z"/>
    </g>
    <path fill-rule="evenodd" clip-rule="evenodd" d="M11 18.9642c1.8903-3.4236 7.481-3.4297 9.2728-5.166 1.1432.8989 3.0187 1.5943 3.6627 3.5639-.644-2.2705-2.5195-3.3149-3.6627-4.3507-1.7918 2.0007-7.3825 2.0077-9.2728 5.9528Z" fill="#000" fill-opacity=".16"/>
  </g>
  <ellipse cx="25.5" cy="19.4114" rx="1.5" ry="2" fill="#5C5C5C"/>
  <ellipse cx="10.5" cy="19.4114" rx="1.5" ry="2" fill="#5C5C5C"/>
  <path d="M10.5 17.4521s.3334-3.699 2.0699-5.4522c2.9151-2.94299 7.9547-2.86642 10.9549 0 1.8076 1.7271 2.5082 5.4522 2.5082 5.4522s1.6427 5.1095-.533 7.0478c-2.8005.8462-4.4507 1.0946-6.5.5" stroke="#5C5C5C"/>
  <ellipse cx="18.5" cy="24.9114" rx="1.5" ry=".5" fill="#5C5C5C"/>
  <path fill-rule="evenodd" clip-rule="evenodd" d="M32 41.9994c3.3137 0 6-2.6858 6-5.9997S35.3137 30 32 30s-6 2.6858-6 5.9997 2.6863 5.9997 6 5.9997Zm-1.7315-9.4388c-.4658.3022-.8125.7342-1.04 1.296l1.3226.32c.1174-.3022.304-.544.56-.7253.2596-.1849.5334-.2774.8214-.2774.288 0 .5262.0747.7146.224.192.1494.288.3502.288.6027 0 .224-.0604.4267-.1813.608-.1173.1813-.2631.3627-.4373.544-.1743.1813-.3503.3804-.528.5973-.1743.2134-.3218.464-.4427.752-.1173.2845-.176.6222-.176 1.0134h1.2533c0-.3236.0694-.6009.208-.832.1387-.2347.3094-.4463.512-.6347.2062-.192.4107-.384.6134-.576.2062-.1956.3768-.416.512-.6613.1386-.2454.2097-.5423.2133-.8907 0-.3342-.1067-.6382-.32-.912-.2098-.2738-.5049-.4925-.8853-.656-.3805-.1636-.8249-.2453-1.3334-.2453-.6506 0-1.2089.1511-1.6746.4533Zm2.3786 7.3653v-1.664h-1.7066v1.664h1.7066Z" fill="#205493"/>
  <path d="M29.2285 33.8566c.2275-.5618.5742-.9938 1.04-1.296.4657-.3023 1.024-.4534 1.6746-.4534.5085 0 .9529.0818 1.3334.2454.3804.1635.6755.3822.8853.656.2133.2738.32.5778.32.912-.0036.3484-.0747.6453-.2133.8906-.1352.2454-.3058.4658-.512.6614-.2027.192-.4072.384-.6134.576-.2026.1884-.3733.4-.512.6346-.1386.2312-.208.5085-.208.832h-1.2533c0-.3911.0587-.7288.176-1.0133.1209-.288.2684-.5387.4427-.752.1777-.2169.3537-.416.528-.5973.1742-.1814.32-.3627.4373-.544.1209-.1814.1813-.384.1813-.608 0-.2525-.096-.4534-.288-.6027-.1884-.1493-.4266-.224-.7146-.224-.288 0-.5618.0925-.8214.2773-.256.1814-.4426.4231-.56.7254l-1.3226-.32Zm3.4186 4.4053v1.664h-1.7066v-1.664h1.7066Z" fill="#fff"/>
  <defs>
    <linearGradient id="b" x1="4.82801" y1="27.2573" x2="21.0561" y2="27.2573" gradientUnits="userSpaceOnUse">
      <stop stop-color="#fff" stop-opacity=".5"/>
      <stop offset="1" stop-color="#FEF0F2"/>
    </linearGradient>
    <linearGradient id="c" x1="4.82801" y1="27.2573" x2="21.0561" y2="27.2573" gradientUnits="userSpaceOnUse">
      <stop stop-color="#fff" stop-opacity=".5"/>
      <stop offset="1" stop-color="#FEF0F2"/>
    </linearGradient>
    <radialGradient id="a" cx="0" cy="0" r="1" gradientUnits="userSpaceOnUse" gradientTransform="matrix(0 18.4877 -15.9957 0 20.618 22.6737)">
      <stop stop-color="#fff"/>
      <stop offset="1" stop-color="#FEF0F2"/>
    </radialGradient>
  </defs>
</svg>
