<svg width="46" height="46" viewBox="" fill="none" xmlns="http://www.w3.org/2000/svg">
  <path d="m23.8809 3.51489-.3781-.2183-.3765.22107L7.1414 12.9026l-.36738.2157-.00288.426-.1211 17.9303-.00289.4279.36691.2202 16.13624 9.6848.3868.2322.3864-.233 15.8638-9.5648.3627-.2187V12.9064l-.375-.2165-15.8941-9.17501Z" fill="url(#a)" stroke="#0071BB" stroke-width="1.5"/>
  <path d="m23.837 41.2715-.1523-18.9987-15.95403-9.0427-.12178 18.2071L23.837 41.2715Z" fill="url(#b)"/>
  <path d="m8.03514 13.7781 15.34516 8.6774.1522 18.268L7.91335 31.285l.12179-17.5069Zm-.30447-.548-.12178 18.2071L23.837 41.2715l-.1523-18.9987-15.95403-9.0427Z" fill="url(#c)"/>
  <path d="m23.8066 3.70027 16.0149 9.28623v18.5421l-15.954 9.7124-16.25857-9.8038.12179-18.2071L23.8066 3.70027ZM23.7761 3l-.3044.18268L7.42625 12.7125l-.30446.1827v.3349L7 31.4372v.3349l.30447.1827 16.22813 9.8343.3044.1827.3045-.1827 15.9541-9.7125.3044-.1827V12.6516l-.3044-.1827L24.111 3.18268 23.7761 3Z" fill="#0071BB"/>
  <path d="M5.85797 8.75H34.142c1.1382 0 2.108.96593 2.108 2.2092v4.0816c0 1.2433-.9698 2.2092-2.108 2.2092H5.85797c-1.13821 0-2.10797-.9659-2.10797-2.2092v-4.0816c0-1.24327.96976-2.2092 2.10797-2.2092Z" fill="#fff" stroke="#767676" stroke-width="1.5"/>
  <path fill-rule="evenodd" clip-rule="evenodd" d="m8 15 .85714-1.1868L9.71429 15l.47621-.3956-.66669-1.2747 1.19049-.5275-.1905-.6593-1.2857.3076L9.14286 11h-.61905l-.09524 1.4945-1.23809-.3516L7 12.7582l1.19048.5275-.71429 1.2747L8 15Zm6.1905 0 .8571-1.1868L15.9048 15l.4762-.3956-.6667-1.2747 1.1905-.5275-.1905-.6593-1.2857.3076L15.3333 11h-.619l-.0953 1.4945-1.238-.3516-.1905.6153 1.1905.5275-.7143 1.2747.5238.4396Zm6.4285-1.1868L19.7619 15l-.4762-.3956L20 13.3297l-1.1905-.5275.1905-.6154 1.2381.3517.0952-1.4945h.5715L21 12.4945l1.2857-.3077.1905.6154-1.1905.5275.6667 1.2747-.4762.3956-.8572-1.1868ZM25.3333 15l.8572-1.1868L27.0476 15l.4762-.3956-.6667-1.2747 1.1905-.5275-.1905-.6154-1.2857.3077-.0952-1.4505h-.6191l-.0952 1.4945-1.2381-.3517-.1905.6154 1.1905.5275-.7143 1.2747.5238.3956Zm4.4762-.3956.4762.3956.8572-1.1868L32 15l.4762-.3956-.6667-1.2747L33 12.8022l-.1905-.6154-1.2857.3077-.0952-1.4505h-.6191l-.0952 1.4945-1.2381-.3956-.1905.6153 1.1905.5275-.6667 1.3187Z" fill="#5B616B"/>
  <path fill-rule="evenodd" clip-rule="evenodd" d="m8 15 .85714-1.1868L9.71429 15l.47621-.3956-.66669-1.2747 1.19049-.5275-.1905-.6593-1.2857.3076L9.14286 11h-.61905l-.09524 1.4945-1.23809-.3516L7 12.7582l1.19048.5275-.71429 1.2747L8 15Zm6.1905 0 .8571-1.1868L15.9048 15l.4762-.3956-.6667-1.2747 1.1905-.5275-.1905-.6593-1.2857.3076L15.3333 11h-.619l-.0953 1.4945-1.238-.3516-.1905.6153 1.1905.5275-.7143 1.2747.5238.4396Zm6.4285-1.1868L19.7619 15l-.4762-.3956L20 13.3297l-1.1905-.5275.1905-.6154 1.2381.3517.0952-1.4945h.5715L21 12.4945l1.2857-.3077.1905.6154-1.1905.5275.6667 1.2747-.4762.3956-.8572-1.1868ZM25.3333 15l.8572-1.1868L27.0476 15l.4762-.3956-.6667-1.2747 1.1905-.5275-.1905-.6154-1.2857.3077-.0952-1.4505h-.6191l-.0952 1.4945-1.2381-.3517-.1905.6154 1.1905.5275-.7143 1.2747.5238.3956Zm4.4762-.3956.4762.3956.8572-1.1868L32 15l.4762-.3956-.6667-1.2747L33 12.8022l-.1905-.6154-1.2857.3077-.0952-1.4505h-.6191l-.0952 1.4945-1.2381-.3956-.1905.6153 1.1905.5275-.6667 1.3187Z" fill="#454545"/>
  <path d="m30 42.5785.1479-13.9339L37 28l-.1972 6.6446-.5915 1.7356.6408.7438-.3944 2.2314.3451 2.6777L33.0563 46 30 42.5785Z" fill="#fff"/>
  <path d="M37.5855 27.6689h-.3446v.5699l.5415-.2849-.1969-.285Zm0-.2849h.3446v-.3324h-.3446v.3324Zm-7.6788.0475v-.3324h-.3445v.3324h.3445Zm0 .4749-.1476.3324.4922.19v-.5224h-.3446Zm0 .3799h.3446v-.2375l-.1969-.0949-.1477.3324Zm7.6788-.2375-.1477-.2849-.1969.095v.1899h.3446Zm-1.329 7.9308-.2461-.2374-.2462.2374.2462.2375.2461-.2375Zm0 3.6093-.2461-.2375-.2462.2375.2462.2374.2461-.2374Zm.9844-11.3976h.3446v-.5224l-.4922.2375.1476.2849Zm-1.4767 7.7883-.2461-.2374-.2461.2374.2461.2375.2461-.2375Zm0 3.6093-.2461-.2375-.2461.2375.2461.2374.2461-.2374Zm-5.5129-11.1601.1477-.3325-.4923-.1899v.4749l.3446.0475Zm6.9896-.6174.1477.3324.1969-.095v-.2374h-.3446Zm-6.9896.2374h-.3446v.2375l.2462.095.0984-.3325Zm0-.2849v-.3324h-.3446v.3324h.3446Zm6.9896-.0475h.3446v-.3324h-.3446v.3324Zm-3.7901-16.384c-5.07 0-9.1555 3.9417-9.1555 8.8331h.6892c0-4.5115 3.7901-8.1207 8.4171-8.1207v-.7124h.0492Zm9.1554 8.8331c0-4.8914-4.0855-8.8331-9.1554-8.8331v.6649c4.6761 0 8.4171 3.6567 8.4171 8.1207h.7383v.0475Zm-4.8238 7.7884c2.9041-1.4722 4.873-4.4166 4.873-7.7884h-.6891c0 3.1344-1.8212 5.8413-4.4793 7.171l.2954.6174Zm-.5415-.38v.095h.6892v-.095h-.6892Zm0-.1899v.1899h.6892v-.1899h-.6892Zm.1969.3324h.1969v-.6648h-.1969v.6648Zm-7.3834.0475 7.3342-.0475v-.6648l-7.3342.0475v.6648Zm-.1477 0h.1969v-.6648h-.1969v.6648Zm.3446-.19v-.1899h-.6891v.1899h.6891Zm0 .3325v-.3325h-.6891v.3325h.6891Zm-5.9067-7.7409c0 3.6093 2.215 6.6961 5.4145 8.0733l.2953-.6174c-2.9534-1.2822-5.0207-4.1316-5.0207-7.4559h-.6891Zm5.7098 7.7884c-3.1503-1.2823-5.3653-4.3216-5.3653-7.7884H24c0 3.7992 2.3627 7.0285 5.7591 8.4532l.2953-.6648Zm-5.3653-7.7884c0-4.7015 3.9378-8.5006 8.8109-8.5006V11c-5.2668 0-9.5 4.0841-9.5 9.1655h.6891Zm8.7617-8.4532c4.873 0 8.8109 3.7992 8.8109 8.5007h.6891c0-5.0814-4.2332-9.1655-9.5-9.1655v.6648Zm8.8109 8.4532c0 3.3243-1.969 6.1737-4.8239 7.5509l.3446.6174C40.8834 26.8141 43 23.7273 43 20.1655h-.7383Zm-5.0208 7.8833-.0492 6.1737h.6891l.0493-6.1737h-.6892Zm0 6.1737c0 .2375-.0984.4274-.2461.6174l.4922.4749c.2954-.285.4431-.7124.4431-1.0923h-.6892Zm-.2461.6174-.9352.9498.4922.4749.9352-.9498-.4922-.4749Zm-.9844 1.3772 1.0336.9973.4923-.4749-1.0337-.9973-.4922.4749Zm1.0336.9973c.2954.2849.2954.8073 0 1.0922l.4923.4749c.5906-.5698.5906-1.4721 0-2.0895l-.4923.5224Zm0 1.1397-1.0336.9973.4922.4749 1.0337-.9973-.4923-.4749Zm-1.0336 1.4722 1.0336.9973.4923-.4749-1.0337-.9973-.4922.4749Zm.9844.9973c.2954.2849.2954.8073 0 1.0923l.4922.4749c.5907-.5699.5907-1.4722 0-2.0896l-.4922.5224Zm0 1.0923-3.2487 3.1818.4922.4749 3.2487-3.1818-.4922-.4749Zm-3.2487 3.1818c-.2953.3324-.8368.3324-1.1321 0l-.4922.4749c.5906.5699 1.5751.5699 2.1165 0l-.4922-.4749Zm-1.1321 0-2.215-2.1845-.4923.4749 2.2151 2.1845.4922-.4749Zm-2.215-2.1845c-.1477-.1425-.2461-.3325-.2461-.5699h-.6892c0 .3799.1477.7598.443 1.0448l.4923-.4749Zm-.2461-.5224.0984-14.1045h-.6891l-.0985 14.1045h.6892Zm7.4326-8.1683.0492-5.9837h-.6891l-.0492 5.9837h.6891Zm-.3446.8548c.2461-.2374.3446-.5223.3446-.8548l-.6891.0475c0 .1425-.0492.2375-.1477.3324l.4922.4749Zm-1.0829 1.0448 1.0829-1.0448-.4922-.4749-1.0829 1.0448.4922.4749Zm-.1476.095.1476-.1425-.4922-.4749-.1477.1425.4923.4749Zm.1476-.3324-.1476-.1425-.4923.4749.1477.1425.4922-.4749Zm1.1322 1.0922-1.1322-1.0922-.4922.4749 1.1321 1.0922.4923-.4749Zm0 1.6147c.443-.4274.443-1.1398 0-1.5672l-.4923.4749c.1477.1425.1969.4274 0 .6174l.4923.4749Zm-1.1814 1.1397 1.1814-1.1397-.4923-.4749-1.1813 1.1397.4922.4749Zm-.0984.095.1476-.1424-.4922-.4749-.1477.1424.4923.4749Zm.0984-.3799-.1477-.1425-.4922.4749.1477.1425.4922-.4749Zm1.1814 1.1398-1.1322-1.0923-.4922.4749 1.1321 1.0923.4923-.4749Zm-.0493 1.5671c.443-.4274.443-1.1397 0-1.5671l-.4922.4749c.1477.1424.1969.4274 0 .6173l.4922.4749Zm-3.2487 3.1818 3.2487-3.1818-.4922-.4749L33.5 44.8602l.4922.4749Zm-1.6243 0c.443.4275 1.1813.4275 1.6243 0l-.4922-.4749c-.1969.19-.443.19-.6399 0l-.4922.4749Zm-2.215-2.1845 2.215 2.1845.4922-.4749-2.215-2.1845-.4922.4749Zm-.3446-.7598c0 .2849.0984.5699.3446.8073l.4922-.4749c-.0985-.095-.1477-.19-.1477-.2849l-.6891-.0475Zm.0984-13.962-.0984 13.962h.6891l.0985-13.962h-.6892Zm3.5441.2374c-1.0829 0-2.1166-.1899-3.1011-.5224l-.2461.6174c1.0337.3799 2.1658.5699 3.3472.5699v-.6649Zm3.6425-.7598c-1.0829.4749-2.3135.7598-3.6425.7598v.6649c1.3782 0 2.7072-.285 3.9378-.8074l-.2953-.6173Zm-3.6425 1.0922c1.3782 0 2.7565-.2849 3.9378-.8548l-.2953-.6173c-1.0829.5223-2.3135.8073-3.5933.8073v.6648h-.0492Zm-3.3472-.6173c1.0337.3799 2.1658.6173 3.3472.6173v-.6648c-1.0829 0-2.1166-.19-3.1011-.5699l-.2461.6174Zm-.1969-.6174v.2849h.6892v-.2849h-.6892Zm7.3342-.3799-6.9896.0475v.6648l6.9896-.0475v-.6648Zm.3446.4274v-.095h-.6891v.095h.6891Z" fill="#767676"/>
  <path d="M42.5 20.5c0 4.9706-4.0294 9-9 9s-9-4.0294-9-9 4.0294-9 9-9 9 4.0294 9 9Z" fill="#EBF3FA" stroke="#767676"/>
  <path d="M33.5 19c1.3807 0 2.5-1.1193 2.5-2.5S34.8807 14 33.5 14 31 15.1193 31 16.5s1.1193 2.5 2.5 2.5Z" stroke="#767676"/>
  <path d="M32 31v9" stroke="#767676" stroke-linecap="round"/>
  <defs>
    <linearGradient id="b" x1="7.61647" y1="27.2522" x2="23.8488" y2="27.2522" gradientUnits="userSpaceOnUse">
      <stop stop-color="#fff" stop-opacity=".5"/>
      <stop offset="1" stop-color="#FEF0F2"/>
    </linearGradient>
    <linearGradient id="c" x1="7.61647" y1="27.2522" x2="23.8488" y2="27.2522" gradientUnits="userSpaceOnUse">
      <stop stop-color="#fff" stop-opacity=".5"/>
      <stop offset="1" stop-color="#FEF0F2"/>
    </linearGradient>
    <radialGradient id="a" cx="0" cy="0" r="1" gradientUnits="userSpaceOnUse" gradientTransform="matrix(0 18.4895 -15.9973 0 23.4023 22.6601)">
      <stop stop-color="#fff"/>
      <stop offset="1" stop-color="#FFF0F3"/>
    </radialGradient>
  </defs>
</svg>
