<svg xmlns="http://www.w3.org/2000/svg" width="309" height="26" fill="none"><path fill="#112e51" d="m167.654 5.35-4.445 12.001-4.423-12.001h-3.934l6.368 15.907h3.774l6.434-15.907z"/><path fill="#112e51" fill-rule="evenodd" d="M135.747 13.327c0-4.66 3.758-8.09 8.703-8.09 4.957 0 8.709 3.522 8.709 8.09 0 4.57-3.758 8.091-8.709 8.091s-8.703-3.43-8.703-8.09zm3.758-.021c-.015 2.728 2.222 4.952 5 4.973a5 5 0 0 0 3.504-1.471 4.8 4.8 0 0 0 1.398-3.48 4.8 4.8 0 0 0-1.396-3.484 5 5 0 0 0-3.506-1.474 5.03 5.03 0 0 0-3.55 1.443 4.85 4.85 0 0 0-1.45 3.493" clip-rule="evenodd"/><path fill="#112e51" d="M125.324 8.349a6.85 6.85 0 0 1 4.445 1.774l2.061-2.567a10.3 10.3 0 0 0-6.506-2.32c-5.049 0-8.84 3.48-8.84 8.091 0 4.612 3.73 8.091 8.637 8.091a12.14 12.14 0 0 0 6.593-2.07v-6.84h-6.027v2.81h2.829v2.098a7.45 7.45 0 0 1-3.17.863 5.08 5.08 0 0 1-4.521-2.434 4.89 4.89 0 0 1 0-5.062 5.08 5.08 0 0 1 4.521-2.434zm-13.736 8.894a2.03 2.03 0 0 0-1.493.597 1.96 1.96 0 0 0-.568 1.48 2.01 2.01 0 0 0 .997 1.839 2.1 2.1 0 0 0 2.122 0 2.01 2.01 0 0 0 .997-1.839 1.94 1.94 0 0 0-.56-1.484 2.02 2.02 0 0 0-1.495-.593m-10.368-1.666L93.346 5.35h-3.335v15.907h3.495v-10.2l7.851 10.2h3.33V5.35h-3.467zM80.731 5.35h3.659v15.907h-3.659zM69.088 8.349a6.85 6.85 0 0 1 4.445 1.774l2.06-2.567a10.3 10.3 0 0 0-6.505-2.32c-5.05 0-8.846 3.48-8.846 8.091 0 4.612 3.73 8.091 8.637 8.091a12.14 12.14 0 0 0 6.593-2.07v-6.84h-6.021v2.81h2.83v2.098a7.46 7.46 0 0 1-3.171.863 5.08 5.08 0 0 1-4.521-2.434 4.89 4.89 0 0 1 0-5.062 5.08 5.08 0 0 1 4.52-2.434z"/><path fill="#112e51" fill-rule="evenodd" d="M39.357 13.327c0-4.66 3.758-8.09 8.703-8.09 4.956 0 8.704 3.522 8.704 8.09 0 4.57-3.748 8.091-8.704 8.091s-8.703-3.43-8.703-8.09zm3.747 0c-.003 2.72 2.23 4.931 5 4.952a5 5 0 0 0 3.511-1.467 4.8 4.8 0 0 0 1.401-3.485 4.8 4.8 0 0 0-1.407-3.473 5 5 0 0 0-3.505-1.462 5.03 5.03 0 0 0-3.55 1.442 4.85 4.85 0 0 0-1.45 3.493" clip-rule="evenodd"/><path fill="#112e51" d="M29.808 5.35h-3.66v15.907h10.605v-3.134h-6.945z"/><path fill="#b51e23" d="M15.62 2H9.078v22.655c6.209-2.697 8.379-6.193 8.929-7.282.103-.208.155-.437.153-.669V4.492a2.47 2.47 0 0 0-.743-1.762A2.56 2.56 0 0 0 15.62 2"/><path fill="#e21d3e" d="M2.538 2C1.136 2 0 3.116 0 4.492v12.212c-.002.232.05.46.154.669.55 1.079 2.747 4.601 8.923 7.282V2z"/><path fill="#fff" d="M10.687 11.763a2.5 2.5 0 0 0 .841-2.816 2.57 2.57 0 0 0-2.435-1.702 2.57 2.57 0 0 0-2.435 1.702 2.5 2.5 0 0 0 .842 2.816 988 988 0 0 0-.846 4.758q1.202.202 2.423.205 1.238.024 2.462-.162c-.286-1.619-.55-3.204-.852-4.8z"/><path fill="#e21c3d" d="M175.628 21V5.094h6.083q1.738 0 3.135.616t2.2 1.804q.814 1.177.814 2.882 0 2.366-1.54 3.696-1.528 1.33-4.125 1.331h-2.805V21zm3.729-8.415h2.728q1 0 1.65-.704a2.4 2.4 0 0 0 .66-1.683q0-1.001-.704-1.639a2.32 2.32 0 0 0-1.639-.649h-2.695zM189.364 21l5.654-15.906h3.883L204.566 21h-3.718l-1.177-3.388h-5.368L193.104 21zm5.753-6.611h3.696l-1.837-5.698zM221.435 21h-3.85l-2.453-5.808h-2.728V21h-3.751V5.094h6.963q1.992 0 3.223.649 1.233.638 1.804 1.76.572 1.11.572 2.53 0 1.86-.77 2.904a5.9 5.9 0 0 1-1.881 1.65zm-6.336-8.635q1.056 0 1.694-.66.65-.671.649-1.606 0-.968-.66-1.584a2.23 2.23 0 0 0-1.573-.616h-2.805v4.466zm9.576-3.96V5.094h13.035v3.311h-4.62V21h-3.762V8.405zm27.53-3.311h3.74V21h-3.377l-7.095-10.208V21h-3.751V5.094h3.751l6.732 9.702zM261.21 21V5.094h11.341l-.022 3.124h-7.546v3.245h6.435v3.058h-6.457v3.322l7.656.011V21zm28.94 0h-3.85l-2.453-5.808h-2.728V21h-3.751V5.094h6.963q1.992 0 3.223.649 1.233.638 1.804 1.76.572 1.11.572 2.53 0 1.86-.77 2.904a5.9 5.9 0 0 1-1.881 1.65zm-6.336-8.635q1.056 0 1.694-.66.65-.671.649-1.606 0-.968-.66-1.584a2.23 2.23 0 0 0-1.573-.616h-2.805v4.466zm17.013 8.855a9.7 9.7 0 0 1-2.387-.297 7.9 7.9 0 0 1-2.145-.913 5.4 5.4 0 0 1-1.595-1.54q-.615-.924-.737-2.167h3.828q.21.968 1.012 1.496.804.517 2.002.517.759 0 1.419-.165.66-.175 1.067-.55.407-.385.407-1.012 0-.54-.374-.858-.363-.33-.968-.517a10 10 0 0 0-1.309-.33l-2.596-.495q-1.815-.32-2.904-1.452c-1.089-1.132-1.1-1.778-1.122-3.069q-.021-1.55.825-2.662.848-1.11 2.288-1.705 1.452-.605 3.212-.605 2.112 0 3.564.649 1.464.638 2.222 1.749.76 1.11.781 2.519h-3.729q-.11-1.09-.858-1.54-.736-.45-1.903-.451-1.264 0-1.87.484-.605.473-.605 1.111 0 .627.396 1.012.408.375 1.551.605l2.585.484q1.573.286 2.497.88t1.364 1.342q.44.737.572 1.496.132.749.132 1.353 0 1.31-.858 2.365-.846 1.045-2.343 1.661-1.485.605-3.421.605"/></svg>