<svg width="49" height="49" viewBox="0 0 49 49" fill="none" xmlns="http://www.w3.org/2000/svg"><path d="m21.083 3.5-.4-.2-.4.2-16 9.4-.4.2v18.8l.4.2 16.1 9.7.4.2.4-.2 15.9-9.6.4-.2V12.9l-.4-.2-16-9.2z" fill="url(#a)" stroke="#0071BB" stroke-width="1.5"/><path d="m21.083 41.3-.2-19-16-9-.1 18.1 16.3 9.9z" fill="url(#b)"/><path d="m5.283 13.8 15.3 8.7.2 18.3-15.7-9.5.2-17.5zm-.3-.6-.2 18.2 16.3 9.9-.2-19-15.9-9.1z" fill="url(#c)"/><path d="m20.983 3.7 16 9.3v18.5l-16 9.7-16.2-9.8.1-18.2 16.1-9.5zm0-.7-.3.2-16 9.5-.3.2v.3l-.2 18.2v.3l.3.2 16.2 9.8.3.2.3-.2 16-9.7.3-.2V12.6l-.3-.2-16-9.3-.3-.1z" fill="#0071BB"/><path d="M20.573 26.105v1.95h.429c4.263 0 7.719 3.42 7.719 7.636v.955H7.279v-.955c0-4.217 3.456-7.636 7.72-7.636h.428v-1.95c-1.848-.868-3.176-2.643-3.398-4.744a1.278 1.278 0 0 1-1.105-1.26v-1.484c0-.631.464-1.155 1.072-1.256v-.653c0-3.28 2.688-5.94 6.004-5.94 3.316 0 6.004 2.66 6.004 5.94v.654a1.277 1.277 0 0 1 1.072 1.255V20.1c0 .642-.48 1.173-1.105 1.26-.222 2.1-1.55 3.876-3.398 4.744z" fill="#D0C6AC"/><mask id="a" style="mask-type:alpha" maskUnits="userSpaceOnUse" x="7" y="10" width="22" height="27"><path fill-rule="evenodd" clip-rule="evenodd" d="M20.573 26.105v1.95h.429c4.263 0 7.719 3.42 7.719 7.636v.955H7.279v-.955c0-4.217 3.456-7.636 7.72-7.636h.428v-1.95c-1.848-.868-3.176-2.643-3.398-4.744a1.278 1.278 0 0 1-1.105-1.26v-1.484c0-.631.464-1.155 1.072-1.256v-.653c0-3.28 2.688-5.94 6.004-5.94 3.316 0 6.004 2.66 6.004 5.94v.654a1.277 1.277 0 0 1 1.072 1.255V20.1c0 .642-.48 1.173-1.105 1.26-.222 2.1-1.55 3.876-3.398 4.744z" fill="#fff"/></mask><g mask="url(#a)"><path fill="#D08B5B" d="M3.849 10.769H32.15v25.877H3.85z"/></g><mask id="b" style="mask-type:alpha" maskUnits="userSpaceOnUse" x="7" y="10" width="22" height="27"><path fill-rule="evenodd" clip-rule="evenodd" d="M20.573 26.105v1.95h.429c4.263 0 7.719 3.42 7.719 7.636v.955H7.279v-.955c0-4.217 3.456-7.636 7.72-7.636h.428v-1.95c-1.848-.868-3.176-2.643-3.398-4.744a1.278 1.278 0 0 1-1.105-1.26v-1.484c0-.631.464-1.155 1.072-1.256v-.653c0-3.28 2.688-5.94 6.004-5.94 3.316 0 6.004 2.66 6.004 5.94v.654a1.277 1.277 0 0 1 1.072 1.255V20.1c0 .642-.48 1.173-1.105 1.26-.222 2.1-1.55 3.876-3.398 4.744z" fill="#fff"/></mask><g mask="url(#b)"><path d="M24.004 19.147v2.439c0 3.28-2.688 5.94-6.004 5.94-3.316 0-6.004-2.66-6.004-5.94v-2.44 1.592c0 3.28 2.688 5.939 6.004 5.939 3.316 0 6.004-2.66 6.004-5.94v-1.59z" fill="#000" fill-opacity=".1"/></g><path d="M21.64 27.99c3.965.322 7.08 3.611 7.08 7.622v.95H7.28v-.95c0-4.047 3.172-7.36 7.187-7.63a1.49 1.49 0 0 0-.005.12c0 1.26 1.608 2.281 3.592 2.281s3.591-1.021 3.591-2.281a1.38 1.38 0 0 0-.004-.112z" fill="#E6E6E6"/><mask id="c" style="mask-type:alpha" maskUnits="userSpaceOnUse" x="7" y="27" width="22" height="10"><path fill-rule="evenodd" clip-rule="evenodd" d="M21.64 27.99c3.965.322 7.08 3.611 7.08 7.622v.95H7.28v-.95c0-4.047 3.172-7.36 7.187-7.63a1.49 1.49 0 0 0-.005.12c0 1.26 1.608 2.281 3.592 2.281s3.591-1.021 3.591-2.281a1.38 1.38 0 0 0-.004-.112z" fill="#fff"/></mask><g mask="url(#c)"><path fill="#262E33" d="M3.849 24.878H32.15v11.684H3.85z"/></g><mask id="d" style="mask-type:alpha" maskUnits="userSpaceOnUse" x="7" y="27" width="22" height="10"><path fill-rule="evenodd" clip-rule="evenodd" d="M21.64 27.99c3.965.322 7.08 3.611 7.08 7.622v.95H7.28v-.95c0-4.047 3.172-7.36 7.187-7.63a1.49 1.49 0 0 0-.005.12c0 1.26 1.608 2.281 3.592 2.281s3.591-1.021 3.591-2.281a1.38 1.38 0 0 0-.004-.112z" fill="#fff"/></mask><g mask="url(#d)"><ellipse cx="18.054" cy="28.261" rx="4.249" ry="2.859" fill="#000" fill-opacity=".16" opacity=".6"/></g><mask id="e" style="mask-type:alpha" maskUnits="userSpaceOnUse" x="4" y="7" width="28" height="30"><path fill="#fff" d="M4 7h28v29.646H4z"/></mask><g mask="url(#e)"><path fill-rule="evenodd" clip-rule="evenodd" d="M10.364 15.899v9.37c-.02 3.336-.785 8.734-2.228 9.577 6.614 1.778 7.63-4.039 7.319-8.682v-.041a5.933 5.933 0 0 1-3.372-4.844A1.271 1.271 0 0 1 11 20.023v-1.059c1.152-2.404 3.677-3.345 5.88-4.167 1.413-.527 2.693-1.004 3.393-1.786.237.215.505.43.787.656 1.083.868 2.372 1.9 2.88 3.709v.018a1.27 1.27 0 0 1 1.04 1.03V16.11a4.92 4.92 0 0 0-.016-.407c.481-1.8-.328-4-1.343-4.997-1.005-.934-2.365-1.305-3.283-.898-1.23-1.857-4.788-1.406-6.899.157-1.402 1.038-2.63 2.724-2.953 4.846-.08.35-.122.714-.122 1.088zm13.553 5.38a5.933 5.933 0 0 1-3.372 4.844v1.947h.425c4.02 0 7.314 3.1 7.614 7.037A4.018 4.018 0 0 0 29 30.791l-2.858-5.58a10.573 10.573 0 0 1-1.163-4.82v-.145a1.273 1.273 0 0 1-1.063 1.033z" fill="#272C2E"/><mask id="f" style="mask-type:alpha" maskUnits="userSpaceOnUse" x="8" y="8" width="22" height="28"><path fill-rule="evenodd" clip-rule="evenodd" d="M10.364 25.268v-9.37c0-.373.042-.737.122-1.087.324-2.122 1.55-3.808 2.953-4.846 2.111-1.563 5.668-2.014 6.9-.157.917-.407 2.277-.036 3.282.898 1.015.997 1.824 3.197 1.343 4.998.01.133.016.269.016.406v2.313a1.273 1.273 0 0 0-1.04-1.03v-.017c-.64-2.28-2.522-3.327-3.667-4.365C18.48 15.012 12.89 15.02 11 18.964v1.059c0 .637.47 1.165 1.083 1.256a5.933 5.933 0 0 0 3.372 4.844v.04c.31 4.644-.705 10.461-7.319 8.683 1.443-.843 2.207-6.241 2.228-9.578zm10.181.855a5.933 5.933 0 0 0 3.372-4.844 1.27 1.27 0 0 0 1.063-1.033v.144c0 1.676.399 3.328 1.163 4.82l2.858 5.58a4.018 4.018 0 0 1-.417 4.317 7.632 7.632 0 0 0-7.614-7.037h-.424v-1.947z" fill="#fff"/></mask><g mask="url(#f)"><path fill="#4A312C" d="M8.136 8.587h28v29.645h-28z"/></g><path fill-rule="evenodd" clip-rule="evenodd" d="M11 18.964c1.89-3.423 7.481-3.43 9.273-5.166 1.143.9 3.019 1.595 3.663 3.564-.644-2.27-2.52-3.315-3.663-4.35-1.792 2-7.383 2.007-9.273 5.952z" fill="#000" fill-opacity=".16"/></g><ellipse cx="25.5" cy="19.411" rx="1.5" ry="2" fill="#5C5C5C"/><ellipse cx="10.5" cy="19.411" rx="1.5" ry="2" fill="#5C5C5C"/><path d="M10.5 17.452s.333-3.699 2.07-5.452c2.915-2.943 7.955-2.867 10.955 0 1.807 1.727 2.508 5.452 2.508 5.452s1.643 5.11-.533 7.048c-2.8.846-4.45 1.095-6.5.5" stroke="#5C5C5C"/><ellipse cx="18.5" cy="24.911" rx="1.5" ry=".5" fill="#5C5C5C"/><path fill-rule="evenodd" clip-rule="evenodd" d="M32 42a6 6 0 1 0 0-12 6 6 0 0 0 0 12zm-1.732-9.44c-.465.303-.812.735-1.04 1.297l1.323.32c.118-.303.304-.544.56-.726.26-.185.533-.277.821-.277.289 0 .527.075.715.224.192.15.288.35.288.603 0 .224-.06.426-.181.608a3.665 3.665 0 0 1-.437.544c-.175.18-.35.38-.529.597a3.04 3.04 0 0 0-.442.752 2.65 2.65 0 0 0-.176 1.013h1.253c0-.323.07-.6.208-.832.139-.234.31-.446.512-.634l.614-.576a2.71 2.71 0 0 0 .512-.662c.138-.245.21-.542.213-.89 0-.335-.107-.639-.32-.912-.21-.274-.505-.493-.885-.656-.381-.164-.825-.246-1.334-.246-.65 0-1.209.151-1.675.454zm2.38 7.366v-1.664H30.94v1.664h1.707z" fill="#205493"/><path d="M29.229 33.857c.227-.562.574-.994 1.04-1.296.465-.303 1.024-.454 1.674-.454.509 0 .953.082 1.333.246.38.163.676.382.886.656.213.273.32.577.32.912-.004.348-.075.645-.213.89a2.708 2.708 0 0 1-.512.662c-.203.192-.408.384-.614.576a2.83 2.83 0 0 0-.512.634 1.589 1.589 0 0 0-.208.832H31.17c0-.39.059-.729.176-1.013.12-.288.268-.539.443-.752a9.47 9.47 0 0 1 .528-.597 3.67 3.67 0 0 0 .437-.544 1.08 1.08 0 0 0 .181-.608.724.724 0 0 0-.288-.603c-.188-.15-.426-.224-.714-.224s-.562.092-.822.277a1.56 1.56 0 0 0-.56.726l-1.322-.32zm3.418 4.405v1.664h-1.706v-1.664h1.706z" fill="#fff"/></svg>