<svg width="46" height="46" viewBox="0 0 46 46" fill="none" xmlns="http://www.w3.org/2000/svg"><path d="M23.88 3.515l-.377-.218-.377.22-15.985 9.386-.367.215-.003.426-.121 17.93-.003.428.367.22 16.136 9.686.387.232.387-.233 15.863-9.565.363-.219V12.906l-.375-.216-15.894-9.175z" fill="url(#a)" stroke="#0071BB" stroke-width="1.5"/><path d="M23.837 41.272l-.152-19L7.73 13.23l-.122 18.207 16.228 9.835z" fill="url(#b)"/><path d="M8.035 13.778l15.345 8.678.152 18.268-15.619-9.439.122-17.507zm-.304-.548l-.122 18.207 16.228 9.835-.152-19L7.73 13.23z" fill="url(#c)"/><path d="M23.807 3.7l16.015 9.287v18.542L23.867 41.24 7.61 31.437l.12-18.207L23.807 3.7zm-.03-.7l-.305.183-16.046 9.53-.304.182v.335L7 31.437v.335l.304.183 16.229 9.834.304.183.305-.183 15.954-9.712.304-.183V12.652l-.304-.183L24.11 3.183 23.776 3z" fill="#0071BB"/><path d="M5.858 8.75h28.284c1.138 0 2.108.966 2.108 2.21v4.08c0 1.244-.97 2.21-2.108 2.21H5.858c-1.138 0-2.108-.966-2.108-2.21v-4.08c0-1.244.97-2.21 2.108-2.21z" fill="#fff" stroke="#767676" stroke-width="1.5"/><path fill-rule="evenodd" clip-rule="evenodd" d="M8 15l.857-1.187L9.714 15l.476-.396-.666-1.274 1.19-.528-.19-.66-1.286.309L9.143 11h-.62l-.094 1.494-1.239-.351-.19.615 1.19.528-.714 1.274L8 15zm6.19 0l.858-1.187.857 1.187.476-.396-.667-1.274 1.19-.528-.19-.66-1.285.309L15.333 11h-.619l-.095 1.494-1.238-.351-.19.615 1.19.528-.714 1.274.524.44zm6.429-1.187L19.762 15l-.476-.396L20 13.33l-1.19-.528.19-.615 1.238.352.095-1.495h.572l.095 1.45 1.286-.307.19.615-1.19.528.666 1.274-.476.396-.857-1.187zM25.333 15l.858-1.187.857 1.187.476-.396-.667-1.274 1.19-.528-.19-.615-1.286.308-.095-1.451h-.619l-.095 1.495-1.238-.352-.19.615 1.19.528-.714 1.274.523.396zm4.477-.396l.476.396.857-1.187L32 15l.476-.396-.667-1.274L33 12.802l-.19-.615-1.286.308-.095-1.451h-.62l-.095 1.494-1.238-.395-.19.615 1.19.528-.666 1.318z" fill="#5B616B"/><path fill-rule="evenodd" clip-rule="evenodd" d="M8 15l.857-1.187L9.714 15l.476-.396-.666-1.274 1.19-.528-.19-.66-1.286.309L9.143 11h-.62l-.094 1.494-1.239-.351-.19.615 1.19.528-.714 1.274L8 15zm6.19 0l.858-1.187.857 1.187.476-.396-.667-1.274 1.19-.528-.19-.66-1.285.309L15.333 11h-.619l-.095 1.494-1.238-.351-.19.615 1.19.528-.714 1.274.524.44zm6.429-1.187L19.762 15l-.476-.396L20 13.33l-1.19-.528.19-.615 1.238.352.095-1.495h.572l.095 1.45 1.286-.307.19.615-1.19.528.666 1.274-.476.396-.857-1.187zM25.333 15l.858-1.187.857 1.187.476-.396-.667-1.274 1.19-.528-.19-.615-1.286.308-.095-1.451h-.619l-.095 1.495-1.238-.352-.19.615 1.19.528-.714 1.274.523.396zm4.477-.396l.476.396.857-1.187L32 15l.476-.396-.667-1.274L33 12.802l-.19-.615-1.286.308-.095-1.451h-.62l-.095 1.494-1.238-.395-.19.615 1.19.528-.666 1.318z" fill="#454545"/><path d="M30 42.578l.148-13.933L37 28l-.197 6.645-.592 1.735.641.744-.394 2.231.345 2.678L33.056 46 30 42.578z" fill="#fff"/><path d="M37.586 27.669h-.345v.57l.541-.285-.196-.285zm0-.285h.344v-.332h-.344v.332zm-7.68.048v-.333h-.344v.332h.345zm0 .474l-.147.333.492.19v-.523h-.344zm0 .38h.345v-.237l-.197-.095-.147.332zm7.68-.237l-.148-.285-.197.095v.19h.345zm-1.33 7.93l-.246-.237-.246.238.246.237.247-.237zm0 3.61l-.246-.238-.246.238.246.237.247-.237zm.985-11.398h.345v-.522l-.493.237.148.285zm-1.477 7.789l-.246-.238-.246.238.246.237.246-.237zm0 3.609l-.246-.238-.246.238.246.237.246-.237zm-5.513-11.16l.148-.333-.492-.19v.475l.344.048zm6.99-.618l.148.333.197-.095v-.238h-.345zm-6.99.238h-.344v.237l.246.095.098-.332zm0-.285v-.333h-.344v.333h.344zm6.99-.048h.345v-.332h-.345v.332zm-3.79-16.384c-5.07 0-9.156 3.942-9.156 8.833h.69c0-4.511 3.79-8.12 8.417-8.12v-.713h.049zm9.155 8.833c0-4.89-4.085-8.833-9.155-8.833v.665c4.676 0 8.417 3.657 8.417 8.121h.738v.047zm-4.824 7.789c2.905-1.472 4.873-4.417 4.873-7.789h-.689c0 3.135-1.82 5.842-4.479 7.171l.295.618zm-.541-.38v.095h.69v-.095h-.69zm0-.19v.19h.69v-.19h-.69zm.197.332h.197v-.664h-.197v.664zm-7.384.048l7.335-.048v-.664l-7.335.047v.665zm-.147 0h.197v-.665h-.197v.665zm.344-.19v-.19h-.689v.19h.69zm0 .332v-.332h-.689v.332h.69zm-5.906-7.74c0 3.609 2.215 6.696 5.414 8.073l.295-.618c-2.953-1.282-5.02-4.131-5.02-7.456h-.69zm5.71 7.788c-3.15-1.282-5.366-4.322-5.366-7.789H24c0 3.8 2.363 7.029 5.76 8.454l.294-.665zm-5.366-7.789c0-4.701 3.938-8.5 8.811-8.5V11c-5.267 0-9.5 4.084-9.5 9.165h.69zm8.762-8.453c4.873 0 8.81 3.8 8.81 8.501h.69c0-5.081-4.233-9.166-9.5-9.166v.665zm8.81 8.453c0 3.325-1.968 6.174-4.823 7.551l.344.618C40.883 26.814 43 23.727 43 20.166h-.738zm-5.02 7.884l-.05 6.173h.69l.05-6.173h-.69zm0 6.173c0 .238-.098.428-.246.618l.492.475c.295-.285.443-.713.443-1.093h-.69zm-.246.618l-.935.95.492.475.935-.95-.492-.475zm-.985 1.377l1.034.997.492-.475-1.033-.997-.493.475zm1.034.997a.784.784 0 010 1.093l.492.474c.59-.57.59-1.472 0-2.089l-.492.522zm0 1.14l-1.034.997.493.475 1.033-.997-.492-.475zm-1.034 1.472l1.034.998.492-.475-1.033-.998-.493.475zm.985.998a.784.784 0 010 1.092l.492.475c.59-.57.59-1.472 0-2.09l-.492.523zm0 1.092l-3.249 3.182.492.475 3.249-3.182-.492-.475zm-3.249 3.182a.767.767 0 01-1.132 0l-.492.475c.59.57 1.575.57 2.116 0l-.492-.475zm-1.132 0l-2.215-2.185-.492.475 2.215 2.185.492-.475zm-2.215-2.185a.773.773 0 01-.246-.57h-.69c0 .38.148.76.444 1.045l.492-.475zm-.246-.522l.098-14.105h-.689l-.098 14.105h.689zm7.433-8.168l.049-5.984h-.69l-.049 5.983h.69zm-.345.854c.246-.237.345-.522.345-.855l-.69.048a.425.425 0 01-.147.332l.492.475zm-1.083 1.045l1.083-1.045-.492-.475-1.083 1.045.492.475zm-.148.095l.148-.142-.492-.475-.148.142.492.475zm.148-.332l-.148-.143-.492.475.148.143.492-.475zm1.132 1.092l-1.132-1.092-.492.475 1.132 1.092.492-.475zm0 1.615a1.09 1.09 0 000-1.568l-.492.475a.432.432 0 010 .618l.492.475zm-1.181 1.14l1.181-1.14-.492-.475-1.181 1.14.492.474zm-.099.094l.148-.142-.492-.475-.148.142.492.475zm.099-.38l-.148-.142-.492.475.148.142.492-.475zm1.181 1.14l-1.132-1.092-.492.475 1.132 1.092.492-.475zm-.05 1.567a1.09 1.09 0 000-1.567l-.491.475a.432.432 0 010 .617l.492.475zm-3.248 3.182l3.249-3.182-.492-.475L33.5 44.86l.492.475zm-1.624 0a1.189 1.189 0 001.624 0l-.492-.475c-.197.19-.443.19-.64 0l-.492.475zm-2.215-2.184l2.215 2.184.492-.475-2.215-2.184-.492.475zm-.345-.76c0 .285.099.57.345.807l.492-.475c-.098-.095-.148-.19-.148-.285l-.689-.047zm.099-13.962l-.099 13.962h.69l.098-13.962h-.69zm3.544.237a9.64 9.64 0 01-3.101-.522l-.246.617c1.033.38 2.165.57 3.347.57v-.665zm3.642-.76a9.048 9.048 0 01-3.642.76v.665a10.05 10.05 0 003.938-.807l-.296-.618zM33.451 29c1.378 0 2.756-.285 3.938-.855l-.296-.618a8.281 8.281 0 01-3.593.808V29h-.05zm-3.347-.618A9.717 9.717 0 0033.45 29v-.665a8.54 8.54 0 01-3.101-.57l-.246.617zm-.197-.617v.285h.689v-.285h-.69zm7.334-.38l-6.99.047v.665l6.99-.047v-.665zm.345.427v-.095h-.69v.095h.69z" fill="#767676"/><path d="M42.5 20.5a9 9 0 11-18 0 9 9 0 0118 0z" fill="#EBF3FA" stroke="#767676"/><path d="M33.5 19a2.5 2.5 0 100-5 2.5 2.5 0 000 5z" stroke="#767676"/><path d="M32 31v9" stroke="#767676" stroke-linecap="round"/><defs><linearGradient id="b" x1="7.616" y1="27.252" x2="23.849" y2="27.252" gradientUnits="userSpaceOnUse"><stop stop-color="#fff" stop-opacity=".5"/><stop offset="1" stop-color="#FEF0F2"/></linearGradient><linearGradient id="c" x1="7.616" y1="27.252" x2="23.849" y2="27.252" gradientUnits="userSpaceOnUse"><stop stop-color="#fff" stop-opacity=".5"/><stop offset="1" stop-color="#FEF0F2"/></linearGradient><radialGradient id="a" cx="0" cy="0" r="1" gradientUnits="userSpaceOnUse" gradientTransform="matrix(0 18.4895 -15.9973 0 23.402 22.66)"><stop stop-color="#fff"/><stop offset="1" stop-color="#FFF0F3"/></radialGradient></defs></svg>