<svg width="524" height="312" viewBox="0" fill="none" xmlns="http://www.w3.org/2000/svg"><path d="M411.5 68l97.428 56.25v112.5L411.5 293l-97.428-56.25v-112.5L411.5 68z" fill="#FFF0F3"/><path d="M411.5 68l97.428 56.25v112.5L411.5 293l-97.428-56.25v-112.5L411.5 68z" fill="#FFF0F3"/><path d="M411.5 68l97.428 56.25v112.5L411.5 293l-97.428-56.25v-112.5L411.5 68zm-263-68l97.428 56.25v112.5L148.5 225l-97.428-56.25V56.25L148.5 0z" fill="#FFF0F3"/><path d="M148.5 0l97.428 56.25v112.5L148.5 225l-97.428-56.25V56.25L148.5 0z" fill="#FFF0F3"/><path d="M148.5 0l97.428 56.25v112.5L148.5 225l-97.428-56.25V56.25L148.5 0z" fill="#CEDCED"/><path d="M113.25 11.701l-.75-.433-.75.433-97.428 56.25-.75.433v114.232l.75.433 97.428 56.25.75.433.75-.433 97.428-56.25.75-.433V68.384l-.75-.433-97.428-56.25z" fill="#0071BB" stroke="#fff" stroke-width="3"/><path d="M374.25 81.701l-.75-.433-.75.433-97.428 56.25-.75.433v114.232l.75.433 97.428 56.25.75.433.75-.433 97.428-56.25.75-.433V138.384l-.75-.433-97.428-56.25z" fill="#E21C3D" stroke="#fff" stroke-width="3"/><path d="M62.321 111V97.986h3.816l2.98 9.279 3.005-9.279h3.807V111h-2.655v-9.954L70.142 111h-2.06l-3.115-9.909V111h-2.646zm19.62.18c-.57 0-1.128-.117-1.674-.351a3.393 3.393 0 01-1.341-1.026c-.354-.456-.531-1.014-.531-1.674v-6.435h2.628v6.102c0 .432.14.786.423 1.062.282.276.696.414 1.242.414.51 0 .918-.132 1.224-.396.306-.27.459-.645.459-1.125v-6.057h2.6V111h-1.98l-.305-1.845c-.108.546-.312.966-.612 1.26a2.34 2.34 0 01-1.017.594c-.378.114-.75.171-1.116.171zm10.193-.018c-.69 0-1.236-.081-1.638-.243-.396-.162-.69-.375-.882-.639a2.12 2.12 0 01-.369-.891 6.176 6.176 0 01-.08-.999V97.626h2.573v10.44c0 .342.075.621.225.837.15.216.426.345.828.387l.441.027v1.62c-.18.066-.366.12-.558.162a2.45 2.45 0 01-.54.063zm8.026-7.641h-2.07l.018 4.959c0 .342.066.558.198.648.132.084.342.126.63.126h1.251v1.62a2.912 2.912 0 01-.567.153c-.252.048-.606.072-1.062.072-.816 0-1.449-.105-1.899-.315-.444-.21-.753-.504-.927-.882-.174-.378-.26-.816-.26-1.314v-5.067h-1.513v-1.827h1.602l.657-2.808h1.872v2.799h2.07v1.836zm4.615-5.526v2.367h-2.556v-2.367h2.556zm-.027 3.699V111h-2.511v-9.306h2.511zm7.25 3.717v1.908l-4.914.009v-1.917h4.914zm7.876-3.717v1.827h-1.962V111h-2.628v-7.479h-1.719v-1.827h1.719v-1.341c0-.75.219-1.332.657-1.746.444-.414 1.071-.621 1.881-.621h2.133l.009 1.746h-1.224c-.336 0-.567.084-.693.252-.12.162-.18.432-.18.81v.9h2.007zm4.457 9.486c-.894 0-1.641-.246-2.241-.738-.6-.492-.9-1.194-.9-2.106 0-1.02.378-1.794 1.134-2.322.762-.534 1.968-.81 3.618-.828l1.161-.018v-.558c0-.426-.126-.753-.378-.981-.246-.234-.63-.348-1.152-.342-.384.006-.75.096-1.098.27-.342.174-.576.477-.702.909h-2.187c.048-1.008.453-1.752 1.215-2.232.762-.48 1.725-.72 2.889-.72 1.428 0 2.439.264 3.033.792.6.522.9 1.239.9 2.151V111h-2.196l-.216-1.602c-.318.672-.717 1.137-1.197 1.395-.474.258-1.035.387-1.683.387zm.882-1.728c.318 0 .621-.072.909-.216.288-.15.522-.342.702-.576.186-.24.279-.495.279-.765v-1.377l-.945.018c-.438.006-.846.057-1.224.153s-.684.258-.918.486c-.228.222-.342.522-.342.9 0 .432.147.771.441 1.017.3.24.666.36 1.098.36zm10.723-7.938c.78 0 1.452.159 2.016.477.57.318 1.017.747 1.341 1.287.33.54.519 1.143.567 1.809h-2.187c-.06-.372-.228-.726-.504-1.062-.27-.342-.675-.513-1.215-.513-.612 0-1.11.237-1.494.711-.378.468-.567 1.182-.567 2.142 0 .912.186 1.632.558 2.16.372.528.891.792 1.557.792.354 0 .648-.087.882-.261a1.89 1.89 0 00.558-.621c.132-.246.216-.474.252-.684h2.133a3.66 3.66 0 01-.558 1.746c-.33.516-.78.927-1.35 1.233-.564.3-1.227.45-1.989.45-.864 0-1.635-.192-2.313-.576a4.112 4.112 0 01-1.602-1.647c-.384-.72-.576-1.578-.576-2.574 0-.96.186-1.806.558-2.538a4.154 4.154 0 011.566-1.71c.672-.414 1.461-.621 2.367-.621zm11.123 2.007h-2.07l.018 4.959c0 .342.066.558.198.648.132.084.342.126.63.126h1.251v1.62a2.915 2.915 0 01-.567.153c-.252.048-.606.072-1.062.072-.816 0-1.449-.105-1.899-.315-.444-.21-.753-.504-.927-.882-.174-.378-.261-.816-.261-1.314v-5.067h-1.512v-1.827h1.602l.657-2.808h1.872v2.799h2.07v1.836zm5.638 7.659c-.912 0-1.707-.195-2.385-.585a4.012 4.012 0 01-1.566-1.656c-.366-.714-.549-1.56-.549-2.538 0-.978.183-1.833.549-2.565a4.154 4.154 0 011.566-1.71c.678-.408 1.476-.612 2.394-.612.918 0 1.713.201 2.385.603a4.035 4.035 0 011.557 1.701c.366.726.549 1.587.549 2.583 0 .936-.18 1.764-.54 2.484a4.012 4.012 0 01-1.539 1.683c-.666.408-1.473.612-2.421.612zm.009-1.953c.462 0 .834-.135 1.116-.405.282-.27.486-.624.612-1.062.132-.444.198-.927.198-1.449 0-.492-.06-.954-.18-1.386-.12-.438-.321-.792-.603-1.062-.276-.276-.657-.414-1.143-.414-.462 0-.837.129-1.125.387-.282.258-.489.603-.621 1.035a4.915 4.915 0 00-.198 1.44c0 .486.06.954.18 1.404.12.444.321.807.603 1.089.282.282.669.423 1.161.423zm6.243 1.773v-9.306h2.529v2.205c.222-.714.585-1.29 1.089-1.728.504-.438 1.125-.657 1.863-.657.198 0 .333.018.405.054v2.502a.836.836 0 00-.198-.036 3.072 3.072 0 00-.198-.027c-1.038-.09-1.776.048-2.214.414-.432.366-.648.861-.648 1.485V111h-2.628zM54.168 132.18c-.894 0-1.641-.246-2.241-.738-.6-.492-.9-1.194-.9-2.106 0-1.02.378-1.794 1.134-2.322.762-.534 1.968-.81 3.618-.828l1.16-.018v-.558c0-.426-.125-.753-.377-.981-.246-.234-.63-.348-1.152-.342-.384.006-.75.096-1.098.27-.342.174-.576.477-.702.909h-2.187c.048-1.008.453-1.752 1.215-2.232.762-.48 1.725-.72 2.889-.72 1.428 0 2.439.264 3.033.792.6.522.9 1.239.9 2.151V132h-2.196l-.216-1.602c-.318.672-.717 1.137-1.197 1.395-.474.258-1.035.387-1.683.387zm.882-1.728c.318 0 .62-.072.909-.216.288-.15.522-.342.702-.576.186-.24.279-.495.279-.765v-1.377l-.945.018c-.438.006-.846.057-1.224.153s-.684.258-.918.486c-.228.222-.342.522-.342.9 0 .432.147.771.44 1.017.3.24.667.36 1.099.36zm10.042 1.728c-.57 0-1.128-.117-1.674-.351a3.393 3.393 0 01-1.34-1.026c-.355-.456-.532-1.014-.532-1.674v-6.435h2.628v6.102c0 .432.141.786.423 1.062.282.276.696.414 1.242.414.51 0 .918-.132 1.224-.396.306-.27.46-.645.46-1.125v-6.057h2.6V132h-1.98l-.306-1.845c-.108.546-.312.966-.612 1.26a2.34 2.34 0 01-1.017.594c-.378.114-.75.171-1.116.171zm12.84-7.659h-2.07l.019 4.959c0 .342.066.558.198.648.132.084.342.126.63.126h1.25v1.62a2.915 2.915 0 01-.566.153c-.252.048-.606.072-1.062.072-.816 0-1.45-.105-1.9-.315-.443-.21-.752-.504-.926-.882-.174-.378-.261-.816-.261-1.314v-5.067h-1.512v-1.827h1.602l.657-2.808h1.872v2.799h2.07v1.836zM79.875 132v-13.374h2.61v5.409c.15-.21.339-.423.567-.639.228-.216.513-.396.855-.54.342-.144.759-.216 1.251-.216.588 0 1.128.117 1.62.351.492.228.885.561 1.179.999.3.438.45.972.45 1.602V132H85.77v-6.021c0-.42-.153-.741-.459-.963-.306-.228-.672-.342-1.098-.342-.432 0-.825.117-1.179.351-.354.228-.531.573-.531 1.035V132h-2.628zm12.83-4.05c-.006.714.165 1.281.513 1.701.348.42.837.63 1.467.63.45 0 .843-.096 1.179-.288.342-.192.579-.507.71-.945h2.368a3.173 3.173 0 01-.792 1.692c-.42.468-.93.825-1.53 1.071s-1.224.369-1.872.369c-.924 0-1.734-.192-2.43-.576a4.137 4.137 0 01-1.63-1.647c-.39-.708-.584-1.542-.584-2.502 0-.93.177-1.767.53-2.511a4.18 4.18 0 011.54-1.773c.678-.438 1.49-.657 2.439-.657s1.743.201 2.385.603a3.687 3.687 0 011.458 1.665c.33.708.495 1.527.495 2.457v.711h-6.246zm-.01-1.566h3.799c0-.564-.156-1.044-.468-1.44-.312-.396-.783-.594-1.413-.594-.408 0-.756.099-1.044.297a1.954 1.954 0 00-.648.765 2.18 2.18 0 00-.225.972zm8.08 5.616v-9.306h2.583v1.314c.216-.336.537-.651.963-.945.426-.3 1.005-.45 1.737-.45.57 0 1.101.111 1.593.333.498.222.9.573 1.206 1.053.306.474.459 1.095.459 1.863V132h-2.628v-5.814c0-.504-.153-.882-.459-1.134a1.637 1.637 0 00-1.089-.378 2.22 2.22 0 00-1.197.342c-.36.228-.54.57-.54 1.026V132h-2.628zm15.918-7.479h-2.07l.018 4.959c0 .342.066.558.198.648.132.084.342.126.63.126h1.251v1.62a2.915 2.915 0 01-.567.153c-.252.048-.606.072-1.062.072-.816 0-1.449-.105-1.899-.315-.444-.21-.753-.504-.927-.882-.174-.378-.261-.816-.261-1.314v-5.067h-1.512v-1.827h1.602l.657-2.808h1.872v2.799h2.07v1.836zm4.615-5.526v2.367h-2.556v-2.367h2.556zm-.027 3.699V132h-2.511v-9.306h2.511zm6.368-.18c.78 0 1.452.159 2.016.477.57.318 1.017.747 1.341 1.287.33.54.519 1.143.567 1.809h-2.187c-.06-.372-.228-.726-.504-1.062-.27-.342-.675-.513-1.215-.513-.612 0-1.11.237-1.494.711-.378.468-.567 1.182-.567 2.142 0 .912.186 1.632.558 2.16.372.528.891.792 1.557.792.354 0 .648-.087.882-.261a1.89 1.89 0 00.558-.621c.132-.246.216-.474.252-.684h2.133a3.66 3.66 0 01-.558 1.746c-.33.516-.78.927-1.35 1.233-.564.3-1.227.45-1.989.45-.864 0-1.635-.192-2.313-.576a4.112 4.112 0 01-1.602-1.647c-.384-.72-.576-1.578-.576-2.574 0-.96.186-1.806.558-2.538a4.154 4.154 0 011.566-1.71c.672-.414 1.461-.621 2.367-.621zm8.381 9.666c-.894 0-1.641-.246-2.241-.738-.6-.492-.9-1.194-.9-2.106 0-1.02.378-1.794 1.134-2.322.762-.534 1.968-.81 3.618-.828l1.161-.018v-.558c0-.426-.126-.753-.378-.981-.246-.234-.63-.348-1.152-.342-.384.006-.75.096-1.098.27-.342.174-.576.477-.702.909h-2.187c.048-1.008.453-1.752 1.215-2.232.762-.48 1.725-.72 2.889-.72 1.428 0 2.439.264 3.033.792.6.522.9 1.239.9 2.151V132h-2.196l-.216-1.602c-.318.672-.717 1.137-1.197 1.395-.474.258-1.035.387-1.683.387zm.882-1.728c.318 0 .621-.072.909-.216.288-.15.522-.342.702-.576.186-.24.279-.495.279-.765v-1.377l-.945.018c-.438.006-.846.057-1.224.153s-.684.258-.918.486c-.228.222-.342.522-.342.9 0 .432.147.771.441 1.017.3.24.666.36 1.098.36zm11.985-5.931h-2.07l.018 4.959c0 .342.066.558.198.648.132.084.342.126.63.126h1.251v1.62a2.915 2.915 0 01-.567.153c-.252.048-.606.072-1.062.072-.816 0-1.449-.105-1.899-.315-.444-.21-.753-.504-.927-.882-.174-.378-.261-.816-.261-1.314v-5.067h-1.512v-1.827h1.602l.657-2.808h1.872v2.799h2.07v1.836zm4.614-5.526v2.367h-2.556v-2.367h2.556zm-.027 3.699V132h-2.511v-9.306h2.511zm6.377 9.486c-.912 0-1.707-.195-2.385-.585a4.012 4.012 0 01-1.566-1.656c-.366-.714-.549-1.56-.549-2.538 0-.978.183-1.833.549-2.565a4.154 4.154 0 011.566-1.71c.678-.408 1.476-.612 2.394-.612.918 0 1.713.201 2.385.603a4.035 4.035 0 011.557 1.701c.366.726.549 1.587.549 2.583 0 .936-.18 1.764-.54 2.484a4.012 4.012 0 01-1.539 1.683c-.666.408-1.473.612-2.421.612zm.009-1.953c.462 0 .834-.135 1.116-.405.282-.27.486-.624.612-1.062.132-.444.198-.927.198-1.449 0-.492-.06-.954-.18-1.386-.12-.438-.321-.792-.603-1.062-.276-.276-.657-.414-1.143-.414-.462 0-.837.129-1.125.387-.282.258-.489.603-.621 1.035a4.915 4.915 0 00-.198 1.44c0 .486.06.954.18 1.404.12.444.321.807.603 1.089.282.282.669.423 1.161.423zm6.243 1.773v-9.306h2.583v1.314c.216-.336.537-.651.963-.945.426-.3 1.005-.45 1.737-.45.57 0 1.101.111 1.593.333.498.222.9.573 1.206 1.053.306.474.459 1.095.459 1.863V132h-2.628v-5.814c0-.504-.153-.882-.459-1.134a1.637 1.637 0 00-1.089-.378 2.22 2.22 0 00-1.197.342c-.36.228-.54.57-.54 1.026V132h-2.628zm-73.462 7.662a18.732 18.732 0 00-1.503 3.825 15.774 15.774 0 00-.567 4.203c0 1.368.171 2.685.513 3.951.342 1.266.837 2.577 1.485 3.933h-1.845a27.086 27.086 0 01-1.314-2.493 13.462 13.462 0 01-.882-2.547 12.687 12.687 0 01-.306-2.862c0-1.494.234-2.922.702-4.284a15.893 15.893 0 011.854-3.726h1.863zM94.612 153v-13.014h3.816l2.979 9.279 3.006-9.279h3.807V153h-2.655v-9.954L102.433 153h-2.061l-3.114-9.909V153h-2.646zm16.524-13.014h8.856l-.009 2.196h-6.201v3.267h5.373v2.151h-5.373v5.4h-2.646v-13.014zM119.999 153l4.662-13.014h2.772L132.086 153h-2.619l-1.062-3.015h-4.68L122.636 153h-2.637zm4.311-5.31h3.465l-1.719-5.166-1.746 5.166zm8.681-8.028a18.732 18.732 0 011.503 3.825c.378 1.374.567 2.775.567 4.203 0 1.368-.171 2.685-.513 3.951-.342 1.266-.837 2.577-1.485 3.933h1.845c.498-.84.936-1.671 1.314-2.493.378-.816.669-1.665.873-2.547.21-.882.315-1.836.315-2.862a12.94 12.94 0 00-.711-4.284 15.641 15.641 0 00-1.845-3.726h-1.863zm207.928 21.324h2.619V174h-2.619v-13.014zm8.414 13.194c-1.248 0-2.22-.429-2.916-1.287-.696-.864-1.044-2.064-1.044-3.6 0-1.458.318-2.619.954-3.483.636-.864 1.551-1.296 2.745-1.296.666 0 1.245.141 1.737.423.492.282.849.621 1.071 1.017v-5.328h2.637V174h-1.908l-.297-1.908a3.578 3.578 0 01-.522.99 2.638 2.638 0 01-.945.792c-.396.204-.9.306-1.512.306zm.576-1.89c.666 0 1.161-.231 1.485-.693.324-.462.486-1.242.486-2.34-.012-1.89-.663-2.835-1.953-2.835a1.8 1.8 0 00-1.422.657c-.378.432-.567 1.158-.567 2.178 0 1.038.177 1.803.531 2.295.354.492.834.738 1.44.738zm9.026-2.34c-.006.714.165 1.281.513 1.701.348.42.837.63 1.467.63.45 0 .843-.096 1.179-.288.342-.192.579-.507.711-.945h2.367a3.173 3.173 0 01-.792 1.692c-.42.468-.93.825-1.53 1.071s-1.224.369-1.872.369c-.924 0-1.734-.192-2.43-.576a4.137 4.137 0 01-1.629-1.647c-.39-.708-.585-1.542-.585-2.502 0-.93.177-1.767.531-2.511a4.18 4.18 0 011.539-1.773c.678-.438 1.491-.657 2.439-.657s1.743.201 2.385.603a3.687 3.687 0 011.458 1.665c.33.708.495 1.527.495 2.457v.711h-6.246zm-.009-1.566h3.798c0-.564-.156-1.044-.468-1.44-.312-.396-.783-.594-1.413-.594-.408 0-.756.099-1.044.297a1.954 1.954 0 00-.648.765 2.18 2.18 0 00-.225.972zm8.08 5.616v-9.306h2.583v1.314c.216-.336.537-.651.963-.945.426-.3 1.005-.45 1.737-.45.57 0 1.101.111 1.593.333.498.222.9.573 1.206 1.053.306.474.459 1.095.459 1.863V174h-2.628v-5.814c0-.504-.153-.882-.459-1.134a1.637 1.637 0 00-1.089-.378 2.22 2.22 0 00-1.197.342c-.36.228-.54.57-.54 1.026V174h-2.628zm15.918-7.479h-2.07l.018 4.959c0 .342.066.558.198.648.132.084.342.126.63.126h1.251v1.62a2.915 2.915 0 01-.567.153c-.252.048-.606.072-1.062.072-.816 0-1.449-.105-1.899-.315-.444-.21-.753-.504-.927-.882-.174-.378-.261-.816-.261-1.314v-5.067h-1.512v-1.827h1.602l.657-2.808h1.872v2.799h2.07v1.836zm4.614-5.526v2.367h-2.556v-2.367h2.556zm-.027 3.699V174H385v-9.306h2.511zm8.052 1.827h-2.07l.018 4.959c0 .342.066.558.198.648.132.084.342.126.63.126h1.251v1.62a2.915 2.915 0 01-.567.153c-.252.048-.606.072-1.062.072-.816 0-1.449-.105-1.899-.315-.444-.21-.753-.504-.927-.882-.174-.378-.261-.816-.261-1.314v-5.067h-1.512v-1.827h1.602l.657-2.808h1.872v2.799h2.07v1.836zm3.425 10.449c-.636 0-1.086-.054-1.35-.162l-.387-.153v-1.674l.918.036c.54.03.939-.012 1.197-.126.264-.108.441-.24.531-.396.096-.156.162-.279.198-.369l.171-.513-3.618-8.919h2.601l2.232 6.066 2.259-6.066h2.565l-3.771 9.36c-.324.792-.669 1.398-1.035 1.818-.36.42-.747.708-1.161.864a3.798 3.798 0 01-1.35.234zm-65.307 8.724L330.189 195h-1.899l-3.501-9.306h2.376l2.034 5.931h.072l2.007-5.931h2.403zm3.106 5.256c-.006.714.165 1.281.513 1.701.348.42.837.63 1.467.63.45 0 .843-.096 1.179-.288.342-.192.579-.507.711-.945h2.367a3.173 3.173 0 01-.792 1.692c-.42.468-.93.825-1.53 1.071s-1.224.369-1.872.369c-.924 0-1.734-.192-2.43-.576a4.137 4.137 0 01-1.629-1.647c-.39-.708-.585-1.542-.585-2.502 0-.93.177-1.767.531-2.511a4.18 4.18 0 011.539-1.773c.678-.438 1.491-.657 2.439-.657s1.743.201 2.385.603a3.687 3.687 0 011.458 1.665c.33.708.495 1.527.495 2.457v.711h-6.246zm-.009-1.566h3.798c0-.564-.156-1.044-.468-1.44-.312-.396-.783-.594-1.413-.594-.408 0-.756.099-1.044.297a1.954 1.954 0 00-.648.765 2.18 2.18 0 00-.225.972zm8.079 5.616v-9.306h2.529v2.205c.222-.714.585-1.29 1.089-1.728.504-.438 1.125-.657 1.863-.657.198 0 .333.018.405.054v2.502a.836.836 0 00-.198-.036 3.072 3.072 0 00-.198-.027c-1.038-.09-1.776.048-2.214.414-.432.366-.648.861-.648 1.485V195h-2.628zm9.986-13.005v2.367h-2.556v-2.367h2.556zm-.027 3.699V195h-2.511v-9.306h2.511zm8.06 0v1.827h-1.962V195h-2.628v-7.479h-1.719v-1.827h1.719v-1.341c0-.75.219-1.332.657-1.746.444-.414 1.071-.621 1.881-.621h2.133l.009 1.746h-1.224c-.336 0-.567.084-.693.252-.12.162-.18.432-.18.81v.9h2.007zm4.212-3.699v2.367h-2.556v-2.367h2.556zm-.027 3.699V195h-2.511v-9.306h2.511zm6.375-.18c.78 0 1.452.159 2.016.477.57.318 1.017.747 1.341 1.287.33.54.519 1.143.567 1.809h-2.187c-.06-.372-.228-.726-.504-1.062-.27-.342-.675-.513-1.215-.513-.612 0-1.11.237-1.494.711-.378.468-.567 1.182-.567 2.142 0 .912.186 1.632.558 2.16.372.528.891.792 1.557.792.354 0 .648-.087.882-.261a1.89 1.89 0 00.558-.621c.132-.246.216-.474.252-.684h2.133a3.66 3.66 0 01-.558 1.746c-.33.516-.78.927-1.35 1.233-.564.3-1.227.45-1.989.45-.864 0-1.635-.192-2.313-.576a4.112 4.112 0 01-1.602-1.647c-.384-.72-.576-1.578-.576-2.574 0-.96.186-1.806.558-2.538a4.154 4.154 0 011.566-1.71c.672-.414 1.461-.621 2.367-.621zm8.381 9.666c-.894 0-1.641-.246-2.241-.738-.6-.492-.9-1.194-.9-2.106 0-1.02.378-1.794 1.134-2.322.762-.534 1.968-.81 3.618-.828l1.161-.018v-.558c0-.426-.126-.753-.378-.981-.246-.234-.63-.348-1.152-.342-.384.006-.75.096-1.098.27-.342.174-.576.477-.702.909h-2.187c.048-1.008.453-1.752 1.215-2.232.762-.48 1.725-.72 2.889-.72 1.428 0 2.439.264 3.033.792.6.522.9 1.239.9 2.151V195h-2.196l-.216-1.602c-.318.672-.717 1.137-1.197 1.395-.474.258-1.035.387-1.683.387zm.882-1.728c.318 0 .621-.072.909-.216.288-.15.522-.342.702-.576.186-.24.279-.495.279-.765v-1.377l-.945.018c-.438.006-.846.057-1.224.153s-.684.258-.918.486c-.228.222-.342.522-.342.9 0 .432.147.771.441 1.017.3.24.666.36 1.098.36zm11.985-5.931h-2.07l.018 4.959c0 .342.066.558.198.648.132.084.342.126.63.126h1.251v1.62a2.915 2.915 0 01-.567.153c-.252.048-.606.072-1.062.072-.816 0-1.449-.105-1.899-.315-.444-.21-.753-.504-.927-.882-.174-.378-.261-.816-.261-1.314v-5.067h-1.512v-1.827h1.602l.657-2.808h1.872v2.799h2.07v1.836zm4.614-5.526v2.367h-2.556v-2.367h2.556zm-.027 3.699V195h-2.511v-9.306h2.511zm6.377 9.486c-.912 0-1.707-.195-2.385-.585a4.012 4.012 0 01-1.566-1.656c-.366-.714-.549-1.56-.549-2.538 0-.978.183-1.833.549-2.565a4.154 4.154 0 011.566-1.71c.678-.408 1.476-.612 2.394-.612.918 0 1.713.201 2.385.603a4.035 4.035 0 011.557 1.701c.366.726.549 1.587.549 2.583 0 .936-.18 1.764-.54 2.484a4.012 4.012 0 01-1.539 1.683c-.666.408-1.473.612-2.421.612zm.009-1.953c.462 0 .834-.135 1.116-.405.282-.27.486-.624.612-1.062.132-.444.198-.927.198-1.449 0-.492-.06-.954-.18-1.386-.12-.438-.321-.792-.603-1.062-.276-.276-.657-.414-1.143-.414-.462 0-.837.129-1.125.387-.282.258-.489.603-.621 1.035a4.915 4.915 0 00-.198 1.44c0 .486.06.954.18 1.404.12.444.321.807.603 1.089.282.282.669.423 1.161.423zM411.9 195v-9.306h2.583v1.314c.216-.336.537-.651.963-.945.426-.3 1.005-.45 1.737-.45.57 0 1.101.111 1.593.333.498.222.9.573 1.206 1.053.306.474.459 1.095.459 1.863V195h-2.628v-5.814c0-.504-.153-.882-.459-1.134a1.637 1.637 0 00-1.089-.378 2.22 2.22 0 00-1.197.342c-.36.228-.54.57-.54 1.026V195H411.9zm-92.903 7.662a18.732 18.732 0 00-1.503 3.825 15.774 15.774 0 00-.567 4.203c0 1.368.171 2.685.513 3.951.342 1.266.837 2.577 1.485 3.933h-1.845a27.086 27.086 0 01-1.314-2.493 13.462 13.462 0 01-.882-2.547 12.687 12.687 0 01-.306-2.862c0-1.494.234-2.922.702-4.284a15.893 15.893 0 011.854-3.726h1.863zm10.503.324h2.628V216h-2.367l-6.183-8.955V216h-2.619v-13.014h2.601l5.94 8.613v-8.613zm5.539 0h2.619V216h-2.619v-13.014zm10.424 13.194a7.423 7.423 0 01-1.89-.243 6.072 6.072 0 01-1.701-.729 4.273 4.273 0 01-1.26-1.215c-.33-.486-.528-1.056-.594-1.71h2.691c.132.588.444 1.041.936 1.359.498.318 1.101.477 1.809.477.714 0 1.329-.135 1.845-.405.522-.27.783-.681.783-1.233 0-.492-.21-.858-.63-1.098-.42-.24-.945-.423-1.575-.549l-2.25-.459c-.984-.186-1.764-.576-2.34-1.17-.576-.594-.873-1.392-.891-2.394-.006-.816.21-1.521.648-2.115.444-.6 1.044-1.062 1.8-1.386.762-.324 1.614-.486 2.556-.486 1.122 0 2.064.177 2.826.531.768.348 1.35.822 1.746 1.422.402.594.609 1.257.621 1.989h-2.637c-.072-.684-.339-1.164-.801-1.44s-1.032-.414-1.71-.414c-.702 0-1.26.15-1.674.45-.414.294-.621.675-.621 1.143 0 .378.123.684.369.918.252.234.726.426 1.422.576l2.232.459c.792.156 1.425.387 1.899.693.474.306.828.651 1.062 1.035.24.384.396.777.468 1.179.078.396.117.762.117 1.098 0 .702-.219 1.335-.657 1.899-.438.558-1.053 1.002-1.845 1.332-.786.324-1.704.486-2.754.486zm6.425-10.854v-2.34h10.413v2.34h-3.843V216h-2.637v-10.674h-3.933zm20.594-2.52c.894 0 1.692.141 2.394.423.708.282 1.266.696 1.674 1.242.408.54.612 1.206.612 1.998 0 .672-.183 1.242-.549 1.71a3.731 3.731 0 01-1.35 1.071c.396.084.783.282 1.161.594.384.306.699.684.945 1.134.246.444.369.915.369 1.413 0 .774-.219 1.446-.657 2.016-.438.57-1.05 1.011-1.836 1.323-.786.306-1.707.459-2.763.459-1.05 0-1.968-.153-2.754-.459-.786-.312-1.398-.753-1.836-1.323-.432-.57-.648-1.242-.648-2.016 0-.498.123-.969.369-1.413a3.76 3.76 0 01.936-1.134c.378-.312.768-.51 1.17-.594a3.813 3.813 0 01-1.359-1.071c-.372-.468-.558-1.038-.558-1.71 0-.792.204-1.458.612-1.998.414-.546.975-.96 1.683-1.242.708-.282 1.503-.423 2.385-.423zm0 5.427c.6 0 1.092-.159 1.476-.477.39-.324.585-.771.585-1.341 0-.564-.195-1.011-.585-1.341-.39-.33-.882-.495-1.476-.495-.588 0-1.077.165-1.467.495-.39.33-.585.777-.585 1.341 0 .57.195 1.017.585 1.341.39.318.879.477 1.467.477zm0 5.976c.768 0 1.368-.171 1.8-.513.438-.348.657-.807.657-1.377 0-.576-.219-1.044-.657-1.404-.432-.366-1.032-.549-1.8-.549-.756 0-1.353.183-1.791.549-.432.36-.648.828-.648 1.404 0 .57.216 1.029.648 1.377.438.342 1.035.513 1.791.513zm11.808-11.403c1.548 0 2.769.579 3.663 1.737.894 1.158 1.341 2.817 1.341 4.977 0 2.154-.444 3.807-1.332 4.959-.882 1.146-2.106 1.719-3.672 1.719-1.578 0-2.811-.573-3.699-1.719-.882-1.146-1.323-2.796-1.323-4.95 0-2.166.447-3.828 1.341-4.986.9-1.158 2.127-1.737 3.681-1.737zm0 11.241c.78 0 1.347-.345 1.701-1.035.36-.69.54-1.851.54-3.483 0-1.662-.183-2.853-.549-3.573-.366-.72-.933-1.08-1.701-1.08s-1.341.363-1.719 1.089c-.372.726-.558 1.914-.558 3.564 0 1.62.186 2.778.558 3.474.372.696.948 1.044 1.728 1.044zm11.548-11.241c1.548 0 2.769.579 3.663 1.737.894 1.158 1.341 2.817 1.341 4.977 0 2.154-.444 3.807-1.332 4.959-.882 1.146-2.106 1.719-3.672 1.719-1.578 0-2.811-.573-3.699-1.719-.882-1.146-1.323-2.796-1.323-4.95 0-2.166.447-3.828 1.341-4.986.9-1.158 2.127-1.737 3.681-1.737zm0 11.241c.78 0 1.347-.345 1.701-1.035.36-.69.54-1.851.54-3.483 0-1.662-.183-2.853-.549-3.573-.366-.72-.933-1.08-1.701-1.08s-1.341.363-1.719 1.089c-.372.726-.558 1.914-.558 3.564 0 1.62.186 2.778.558 3.474.372.696.948 1.044 1.728 1.044zm11.782-3.636v1.908l-4.914.009v-1.917h4.914zm7.327-7.605c.81 0 1.56.15 2.25.45a4.09 4.09 0 011.692 1.287c.438.558.678 1.23.72 2.016h-2.403c-.324-1.116-1.059-1.674-2.205-1.674-.936 0-1.635.39-2.097 1.17-.456.78-.621 1.803-.495 3.069.3-.426.714-.759 1.242-.999s1.101-.36 1.719-.36c.876 0 1.644.165 2.304.495a3.74 3.74 0 011.557 1.395c.372.594.558 1.293.558 2.097 0 .852-.21 1.614-.63 2.286-.414.666-.993 1.194-1.737 1.584-.744.384-1.605.576-2.583.576-1.11 0-2.067-.267-2.871-.801-.798-.534-1.413-1.284-1.845-2.25-.426-.966-.639-2.1-.639-3.402 0-1.428.216-2.661.648-3.699.438-1.038 1.065-1.836 1.881-2.394.816-.564 1.794-.846 2.934-.846zm-.189 6.921c-.372 0-.732.084-1.08.252a2.52 2.52 0 00-.846.63c-.216.252-.324.51-.324.774-.006.87.198 1.554.612 2.052s.957.747 1.629.747c.624 0 1.155-.216 1.593-.648.444-.432.666-.984.666-1.656 0-.72-.216-1.257-.648-1.611-.426-.36-.96-.54-1.602-.54zm6.637-2.736c0-.936.219-1.713.657-2.331a4.026 4.026 0 011.782-1.386c.75-.312 1.587-.468 2.511-.468.972 0 1.836.126 2.592.378.762.252 1.362.636 1.8 1.152.438.516.657 1.17.657 1.962 0 .642-.189 1.209-.567 1.701-.372.492-.975.879-1.809 1.161.48.132.924.333 1.332.603.408.27.735.615.981 1.035.246.42.369.924.369 1.512 0 .852-.246 1.569-.738 2.151-.486.576-1.14 1.011-1.962 1.305-.816.294-1.722.438-2.718.432-1.566-.006-2.781-.384-3.645-1.134-.864-.75-1.305-1.779-1.323-3.087h2.529c.126.744.411 1.281.855 1.611.45.324.987.486 1.611.486.81 0 1.443-.171 1.899-.513.462-.348.693-.792.693-1.332 0-.558-.237-.999-.711-1.323-.468-.33-1.065-.504-1.791-.522l-1.242-.045v-2.088l1.116-.063c.702-.03 1.266-.207 1.692-.531.426-.33.639-.744.639-1.242 0-.474-.219-.855-.657-1.143-.432-.288-.984-.432-1.656-.432-.618 0-1.158.162-1.62.486-.462.318-.717.873-.765 1.665h-2.511zm-89.346 20.523c.78 0 1.452.159 2.016.477.57.318 1.017.747 1.341 1.287.33.54.519 1.143.567 1.809h-2.187c-.06-.372-.228-.726-.504-1.062-.27-.342-.675-.513-1.215-.513-.612 0-1.11.237-1.494.711-.378.468-.567 1.182-.567 2.142 0 .912.186 1.632.558 2.16.372.528.891.792 1.557.792.354 0 .648-.087.882-.261a1.89 1.89 0 00.558-.621c.132-.246.216-.474.252-.684h2.133a3.66 3.66 0 01-.558 1.746c-.33.516-.78.927-1.35 1.233-.564.3-1.227.45-1.989.45-.864 0-1.635-.192-2.313-.576a4.112 4.112 0 01-1.602-1.647c-.384-.72-.576-1.578-.576-2.574 0-.96.186-1.806.558-2.538a4.154 4.154 0 011.566-1.71c.672-.414 1.461-.621 2.367-.621zm9.729 9.666c-.912 0-1.707-.195-2.385-.585a4.012 4.012 0 01-1.566-1.656c-.366-.714-.549-1.56-.549-2.538 0-.978.183-1.833.549-2.565a4.154 4.154 0 011.566-1.71c.678-.408 1.476-.612 2.394-.612.918 0 1.713.201 2.385.603a4.035 4.035 0 011.557 1.701c.366.726.549 1.587.549 2.583 0 .936-.18 1.764-.54 2.484a4.012 4.012 0 01-1.539 1.683c-.666.408-1.473.612-2.421.612zm.009-1.953c.462 0 .834-.135 1.116-.405.282-.27.486-.624.612-1.062.132-.444.198-.927.198-1.449 0-.492-.06-.954-.18-1.386-.12-.438-.321-.792-.603-1.062-.276-.276-.657-.414-1.143-.414-.462 0-.837.129-1.125.387-.282.258-.489.603-.621 1.035a4.915 4.915 0 00-.198 1.44c0 .486.06.954.18 1.404.12.444.321.807.603 1.089.282.282.669.423 1.161.423zM348.03 237v-9.306h2.574v1.314c.282-.408.66-.759 1.134-1.053.48-.294 1.083-.441 1.809-.441.474 0 .957.126 1.449.378.498.252.885.624 1.161 1.116.3-.426.693-.78 1.179-1.062a3.183 3.183 0 011.638-.432c.462 0 .927.105 1.395.315.468.21.858.558 1.17 1.044.318.486.477 1.149.477 1.989V237h-2.628v-5.814c0-.564-.156-.96-.468-1.188a1.701 1.701 0 00-1.026-.342c-.234 0-.471.048-.711.144-.24.09-.444.237-.612.441-.168.204-.252.471-.252.801V237H353.7v-6.048c0-.42-.159-.741-.477-.963a1.72 1.72 0 00-.999-.333c-.36 0-.711.114-1.053.342-.342.228-.513.576-.513 1.044V237h-2.628zm16.119 2.898v-12.204h2.637l.009 1.341a3.372 3.372 0 011.179-1.08 3.33 3.33 0 011.71-.441c1.038 0 1.893.387 2.565 1.161.678.774 1.017 1.974 1.017 3.6 0 1.128-.168 2.055-.504 2.781-.33.72-.786 1.254-1.368 1.602-.582.348-1.239.522-1.971.522-.6 0-1.128-.153-1.584-.459a3.48 3.48 0 01-1.062-1.116v4.293h-2.628zm4.644-4.644c.564 0 1.041-.234 1.431-.702.39-.474.585-1.227.585-2.259 0-.894-.186-1.596-.558-2.106-.366-.51-.852-.765-1.458-.765-.684 0-1.191.276-1.521.828-.33.546-.495 1.227-.495 2.043 0 .522.072 1.008.216 1.458.144.45.366.813.666 1.089.3.276.678.414 1.134.414zm9.19 1.908c-.69 0-1.236-.081-1.638-.243-.396-.162-.69-.375-.882-.639a2.12 2.12 0 01-.369-.891 6.176 6.176 0 01-.081-.999v-10.764h2.574v10.44c0 .342.075.621.225.837.15.216.426.345.828.387l.441.027v1.62c-.18.066-.366.12-.558.162a2.45 2.45 0 01-.54.063zm5.486-13.167v2.367h-2.556v-2.367h2.556zm-.027 3.699V237h-2.511v-9.306h2.511zm5.081 9.486c-.894 0-1.641-.246-2.241-.738-.6-.492-.9-1.194-.9-2.106 0-1.02.378-1.794 1.134-2.322.762-.534 1.968-.81 3.618-.828l1.161-.018v-.558c0-.426-.126-.753-.378-.981-.246-.234-.63-.348-1.152-.342-.384.006-.75.096-1.098.27-.342.174-.576.477-.702.909h-2.187c.048-1.008.453-1.752 1.215-2.232.762-.48 1.725-.72 2.889-.72 1.428 0 2.439.264 3.033.792.6.522.9 1.239.9 2.151V237h-2.196l-.216-1.602c-.318.672-.717 1.137-1.197 1.395-.474.258-1.035.387-1.683.387zm.882-1.728c.318 0 .621-.072.909-.216.288-.15.522-.342.702-.576.186-.24.279-.495.279-.765v-1.377l-.945.018c-.438.006-.846.057-1.224.153s-.684.258-.918.486c-.228.222-.342.522-.342.9 0 .432.147.771.441 1.017.3.24.666.36 1.098.36zm6.737 1.548v-9.306h2.583v1.314c.216-.336.537-.651.963-.945.426-.3 1.005-.45 1.737-.45.57 0 1.101.111 1.593.333.498.222.9.573 1.206 1.053.306.474.459 1.095.459 1.863V237h-2.628v-5.814c0-.504-.153-.882-.459-1.134a1.637 1.637 0 00-1.089-.378 2.22 2.22 0 00-1.197.342c-.36.228-.54.57-.54 1.026V237h-2.628zm15.918-7.479h-2.07l.018 4.959c0 .342.066.558.198.648.132.084.342.126.63.126h1.251v1.62a2.915 2.915 0 01-.567.153c-.252.048-.606.072-1.062.072-.816 0-1.449-.105-1.899-.315-.444-.21-.753-.504-.927-.882-.174-.378-.261-.816-.261-1.314v-5.067h-1.512v-1.827h1.602l.657-2.808h1.872v2.799h2.07v1.836zm1.155-5.859a18.732 18.732 0 011.503 3.825c.378 1.374.567 2.775.567 4.203 0 1.368-.171 2.685-.513 3.951-.342 1.266-.837 2.577-1.485 3.933h1.845c.498-.84.936-1.671 1.314-2.493.378-.816.669-1.665.873-2.547.21-.882.315-1.836.315-2.862a12.94 12.94 0 00-.711-4.284 15.641 15.641 0 00-1.845-3.726h-1.863z" fill="#fff"/></svg>