<svg xmlns="http://www.w3.org/2000/svg" width="524" height="312" fill="none"><path fill="#fff0f3" d="m411.5 68 97.428 56.25v112.5L411.5 293l-97.428-56.25v-112.5z"/><path fill="#fff0f3" d="m411.5 68 97.428 56.25v112.5L411.5 293l-97.428-56.25v-112.5z"/><path fill="#fff0f3" d="m411.5 68 97.428 56.25v112.5L411.5 293l-97.428-56.25v-112.5zm-263-68 97.428 56.25v112.5L148.5 225l-97.428-56.25V56.25z"/><path fill="#fff0f3" d="m148.5 0 97.428 56.25v112.5L148.5 225l-97.428-56.25V56.25z"/><path fill="#cedced" d="m148.5 0 97.428 56.25v112.5L148.5 225l-97.428-56.25V56.25z"/><path fill="#0071bb" stroke="#fff" stroke-width="3" d="m113.25 11.701-.75-.433-.75.433-97.428 56.25-.75.433v114.232l.75.433 97.428 56.25.75.433.75-.433 97.428-56.25.75-.433V68.384l-.75-.433z"/><path fill="#e21c3d" stroke="#fff" stroke-width="3" d="m374.25 81.701-.75-.433-.75.433-97.428 56.25-.75.433v114.232l.75.433 97.428 56.25.75.433.75-.433 97.428-56.25.75-.433V138.384l-.75-.433z"/><path fill="#fff" d="M62.321 111V97.986h3.816l2.98 9.279 3.005-9.279h3.807V111h-2.655v-9.954L70.142 111h-2.06l-3.115-9.909V111zm19.62.18q-.855 0-1.674-.351a3.4 3.4 0 0 1-1.341-1.026q-.531-.684-.531-1.674v-6.435h2.628v6.102q0 .648.423 1.062t1.242.414q.765 0 1.224-.396.459-.405.459-1.125v-6.057h2.6V111h-1.98l-.305-1.845q-.162.819-.612 1.26a2.34 2.34 0 0 1-1.017.594q-.567.171-1.116.171m10.193-.018q-1.035 0-1.638-.243-.594-.243-.882-.639a2.1 2.1 0 0 1-.369-.891 6 6 0 0 1-.08-.999V97.626h2.573v10.44q0 .513.225.837t.828.387l.441.027v1.62q-.27.099-.558.162a2.5 2.5 0 0 1-.54.063m8.026-7.641h-2.07l.018 4.959q0 .513.198.648.198.126.63.126h1.251v1.62a3 3 0 0 1-.567.153q-.378.072-1.062.072-1.224 0-1.899-.315-.666-.315-.927-.882-.26-.567-.26-1.314v-5.067h-1.513v-1.827h1.602l.657-2.808h1.872v2.799h2.07zm4.615-5.526v2.367h-2.556v-2.367zm-.027 3.699V111h-2.511v-9.306zm7.25 3.717v1.908l-4.914.009v-1.917zm7.876-3.717v1.827h-1.962V111h-2.628v-7.479h-1.719v-1.827h1.719v-1.341q0-1.125.657-1.746.666-.621 1.881-.621h2.133l.009 1.746h-1.224q-.504 0-.693.252-.18.243-.18.81v.9zm4.457 9.486q-1.341 0-2.241-.738t-.9-2.106q0-1.53 1.134-2.322 1.143-.801 3.618-.828l1.161-.018v-.558q0-.639-.378-.981-.369-.351-1.152-.342-.576.009-1.098.27-.513.261-.702.909h-2.187q.072-1.512 1.215-2.232t2.889-.72q2.142 0 3.033.792.9.783.9 2.151V111h-2.196l-.216-1.602q-.477 1.008-1.197 1.395-.711.387-1.683.387m.882-1.728q.477 0 .909-.216.432-.225.702-.576.279-.36.279-.765v-1.377l-.945.018q-.657.009-1.224.153c-.567.144-.684.258-.918.486q-.342.333-.342.9 0 .648.441 1.017.45.36 1.098.36m10.723-7.938q1.17 0 2.016.477.855.477 1.341 1.287.495.81.567 1.809h-2.187q-.09-.558-.504-1.062-.405-.513-1.215-.513-.918 0-1.494.711-.567.702-.567 2.142 0 1.368.558 2.16t1.557.792q.531 0 .882-.261a1.9 1.9 0 0 0 .558-.621q.198-.369.252-.684h2.133a3.66 3.66 0 0 1-.558 1.746q-.495.774-1.35 1.233-.846.45-1.989.45-1.296 0-2.313-.576a4.1 4.1 0 0 1-1.602-1.647q-.576-1.08-.576-2.574 0-1.44.558-2.538a4.15 4.15 0 0 1 1.566-1.71q1.008-.621 2.367-.621m11.123 2.007h-2.07l.018 4.959q0 .513.198.648.198.126.63.126h1.251v1.62a3 3 0 0 1-.567.153q-.378.072-1.062.072-1.224 0-1.899-.315-.666-.315-.927-.882t-.261-1.314v-5.067h-1.512v-1.827h1.602l.657-2.808h1.872v2.799h2.07zm5.638 7.659q-1.368 0-2.385-.585a4 4 0 0 1-1.566-1.656q-.549-1.071-.549-2.538t.549-2.565a4.15 4.15 0 0 1 1.566-1.71q1.017-.612 2.394-.612t2.385.603a4.04 4.04 0 0 1 1.557 1.701q.549 1.089.549 2.583 0 1.404-.54 2.484a4 4 0 0 1-1.539 1.683q-.999.612-2.421.612m.009-1.953q.693 0 1.116-.405t.612-1.062q.198-.666.198-1.449 0-.738-.18-1.386-.18-.657-.603-1.062-.414-.414-1.143-.414-.693 0-1.125.387-.423.387-.621 1.035a5 5 0 0 0-.198 1.44q0 .729.18 1.404.18.666.603 1.089t1.161.423m6.243 1.773v-9.306h2.529v2.205q.333-1.071 1.089-1.728t1.863-.657q.297 0 .405.054v2.502a.8.8 0 0 0-.198-.036 3 3 0 0 0-.198-.027q-1.557-.135-2.214.414-.648.549-.648 1.485V111zM54.168 132.18q-1.341 0-2.241-.738t-.9-2.106q0-1.53 1.134-2.322 1.143-.801 3.618-.828l1.16-.018v-.558q0-.639-.377-.981-.369-.351-1.152-.342-.576.009-1.098.27-.513.261-.702.909h-2.187q.072-1.512 1.215-2.232t2.889-.72q2.142 0 3.033.792.9.783.9 2.151V132h-2.196l-.216-1.602q-.477 1.008-1.197 1.395-.711.387-1.683.387m.882-1.728q.476 0 .909-.216.432-.225.702-.576.279-.36.279-.765v-1.377l-.945.018q-.657.009-1.224.153c-.567.144-.684.258-.918.486q-.342.333-.342.9 0 .648.44 1.017.45.36 1.099.36m10.042 1.728q-.855 0-1.674-.351a3.4 3.4 0 0 1-1.34-1.026q-.532-.684-.532-1.674v-6.435h2.628v6.102q0 .648.423 1.062t1.242.414q.765 0 1.224-.396.46-.405.46-1.125v-6.057h2.6V132h-1.98l-.306-1.845q-.162.819-.612 1.26a2.34 2.34 0 0 1-1.017.594q-.567.171-1.116.171m12.84-7.659h-2.07l.019 4.959q0 .513.198.648.198.126.63.126h1.25v1.62a3 3 0 0 1-.566.153q-.378.072-1.062.072-1.225 0-1.9-.315-.665-.315-.926-.882t-.261-1.314v-5.067h-1.512v-1.827h1.602l.657-2.808h1.872v2.799h2.07zM79.875 132v-13.374h2.61v5.409q.225-.315.567-.639t.855-.54 1.251-.216q.882 0 1.62.351.738.342 1.179.999.45.657.45 1.602V132H85.77v-6.021q0-.63-.459-.963-.459-.342-1.098-.342-.648 0-1.179.351-.531.342-.531 1.035V132zm12.83-4.05q-.009 1.071.513 1.701t1.467.63q.675 0 1.179-.288.513-.288.71-.945h2.368a3.17 3.17 0 0 1-.792 1.692q-.63.702-1.53 1.071c-.9.369-1.224.369-1.872.369q-1.386 0-2.43-.576a4.14 4.14 0 0 1-1.63-1.647q-.585-1.062-.584-2.502 0-1.395.53-2.511a4.2 4.2 0 0 1 1.54-1.773q1.016-.657 2.439-.657c1.423 0 1.743.201 2.385.603a3.7 3.7 0 0 1 1.458 1.665q.495 1.062.495 2.457v.711zm-.01-1.566h3.799q0-.846-.468-1.44t-1.413-.594q-.612 0-1.044.297a1.95 1.95 0 0 0-.648.765 2.2 2.2 0 0 0-.225.972zm8.08 5.616v-9.306h2.583v1.314q.324-.504.963-.945.639-.45 1.737-.45.855 0 1.593.333.747.333 1.206 1.053.459.711.459 1.863V132h-2.628v-5.814q0-.756-.459-1.134a1.64 1.64 0 0 0-1.089-.378 2.2 2.2 0 0 0-1.197.342q-.54.342-.54 1.026V132zm15.918-7.479h-2.07l.018 4.959q0 .513.198.648.198.126.63.126h1.251v1.62a3 3 0 0 1-.567.153q-.378.072-1.062.072-1.224 0-1.899-.315-.666-.315-.927-.882t-.261-1.314v-5.067h-1.512v-1.827h1.602l.657-2.808h1.872v2.799h2.07zm4.615-5.526v2.367h-2.556v-2.367zm-.027 3.699V132h-2.511v-9.306zm6.368-.18q1.17 0 2.016.477.855.477 1.341 1.287.495.81.567 1.809h-2.187q-.09-.558-.504-1.062-.405-.513-1.215-.513-.918 0-1.494.711-.567.702-.567 2.142 0 1.368.558 2.16t1.557.792q.531 0 .882-.261a1.9 1.9 0 0 0 .558-.621q.198-.369.252-.684h2.133a3.66 3.66 0 0 1-.558 1.746q-.495.774-1.35 1.233-.846.45-1.989.45-1.296 0-2.313-.576a4.1 4.1 0 0 1-1.602-1.647q-.576-1.08-.576-2.574 0-1.44.558-2.538a4.15 4.15 0 0 1 1.566-1.71q1.008-.621 2.367-.621m8.381 9.666q-1.341 0-2.241-.738t-.9-2.106q0-1.53 1.134-2.322 1.143-.801 3.618-.828l1.161-.018v-.558q0-.639-.378-.981-.369-.351-1.152-.342-.576.009-1.098.27-.513.261-.702.909h-2.187q.072-1.512 1.215-2.232t2.889-.72q2.142 0 3.033.792.9.783.9 2.151V132h-2.196l-.216-1.602q-.477 1.008-1.197 1.395-.711.387-1.683.387m.882-1.728q.477 0 .909-.216.432-.225.702-.576.279-.36.279-.765v-1.377l-.945.018q-.657.009-1.224.153c-.567.144-.684.258-.918.486q-.342.333-.342.9 0 .648.441 1.017.45.36 1.098.36m11.985-5.931h-2.07l.018 4.959q0 .513.198.648.198.126.63.126h1.251v1.62a3 3 0 0 1-.567.153q-.378.072-1.062.072-1.224 0-1.899-.315-.666-.315-.927-.882t-.261-1.314v-5.067h-1.512v-1.827h1.602l.657-2.808h1.872v2.799h2.07zm4.614-5.526v2.367h-2.556v-2.367zm-.027 3.699V132h-2.511v-9.306zm6.377 9.486q-1.368 0-2.385-.585a4 4 0 0 1-1.566-1.656q-.549-1.071-.549-2.538t.549-2.565a4.15 4.15 0 0 1 1.566-1.71q1.017-.612 2.394-.612t2.385.603a4.04 4.04 0 0 1 1.557 1.701q.549 1.089.549 2.583 0 1.404-.54 2.484a4 4 0 0 1-1.539 1.683q-.999.612-2.421.612m.009-1.953q.693 0 1.116-.405t.612-1.062q.198-.666.198-1.449 0-.738-.18-1.386-.18-.657-.603-1.062-.414-.414-1.143-.414-.693 0-1.125.387-.423.387-.621 1.035a5 5 0 0 0-.198 1.44q0 .729.18 1.404.18.666.603 1.089t1.161.423m6.243 1.773v-9.306h2.583v1.314q.324-.504.963-.945.639-.45 1.737-.45.855 0 1.593.333.747.333 1.206 1.053.459.711.459 1.863V132h-2.628v-5.814q0-.756-.459-1.134a1.64 1.64 0 0 0-1.089-.378 2.2 2.2 0 0 0-1.197.342q-.54.342-.54 1.026V132zm-73.462 7.662a18.7 18.7 0 0 0-1.503 3.825 15.8 15.8 0 0 0-.567 4.203q0 2.052.513 3.951t1.485 3.933h-1.845a27 27 0 0 1-1.314-2.493 13.5 13.5 0 0 1-.882-2.547 12.7 12.7 0 0 1-.306-2.862q0-2.241.702-4.284a16 16 0 0 1 1.854-3.726zM94.612 153v-13.014h3.816l2.979 9.279 3.006-9.279h3.807V153h-2.655v-9.954L102.433 153h-2.061l-3.114-9.909V153zm16.524-13.014h8.856l-.009 2.196h-6.201v3.267h5.373v2.151h-5.373v5.4h-2.646zM119.999 153l4.662-13.014h2.772L132.086 153h-2.619l-1.062-3.015h-4.68L122.636 153zm4.311-5.31h3.465l-1.719-5.166zm8.681-8.028a18.7 18.7 0 0 1 1.503 3.825q.567 2.061.567 4.203 0 2.052-.513 3.951t-1.485 3.933h1.845q.747-1.26 1.314-2.493.567-1.224.873-2.547.315-1.323.315-2.862a13 13 0 0 0-.711-4.284 15.6 15.6 0 0 0-1.845-3.726zm207.928 21.324h2.619V174h-2.619zm8.414 13.194q-1.872 0-2.916-1.287-1.044-1.296-1.044-3.6 0-2.187.954-3.483t2.745-1.296q.999 0 1.737.423t1.071 1.017v-5.328h2.637V174h-1.908l-.297-1.908a3.6 3.6 0 0 1-.522.99 2.64 2.64 0 0 1-.945.792q-.594.306-1.512.306m.576-1.89q.999 0 1.485-.693t.486-2.34q-.018-2.835-1.953-2.835a1.8 1.8 0 0 0-1.422.657q-.567.648-.567 2.178 0 1.557.531 2.295t1.44.738m9.026-2.34q-.009 1.071.513 1.701t1.467.63q.675 0 1.179-.288.513-.288.711-.945h2.367a3.17 3.17 0 0 1-.792 1.692q-.63.702-1.53 1.071c-.9.369-1.224.369-1.872.369q-1.386 0-2.43-.576a4.14 4.14 0 0 1-1.629-1.647q-.585-1.062-.585-2.502 0-1.395.531-2.511a4.2 4.2 0 0 1 1.539-1.773q1.017-.657 2.439-.657c1.422 0 1.743.201 2.385.603a3.7 3.7 0 0 1 1.458 1.665q.495 1.062.495 2.457v.711zm-.009-1.566h3.798q0-.846-.468-1.44t-1.413-.594q-.612 0-1.044.297a1.95 1.95 0 0 0-.648.765 2.2 2.2 0 0 0-.225.972m8.08 5.616v-9.306h2.583v1.314q.324-.504.963-.945.639-.45 1.737-.45.855 0 1.593.333.747.333 1.206 1.053.459.711.459 1.863V174h-2.628v-5.814q0-.756-.459-1.134a1.64 1.64 0 0 0-1.089-.378 2.2 2.2 0 0 0-1.197.342q-.54.342-.54 1.026V174zm15.918-7.479h-2.07l.018 4.959q0 .513.198.648.198.126.63.126h1.251v1.62a3 3 0 0 1-.567.153q-.378.072-1.062.072-1.224 0-1.899-.315-.666-.315-.927-.882t-.261-1.314v-5.067h-1.512v-1.827h1.602l.657-2.808h1.872v2.799h2.07zm4.614-5.526v2.367h-2.556v-2.367zm-.027 3.699V174H385v-9.306zm8.052 1.827h-2.07l.018 4.959q0 .513.198.648.198.126.63.126h1.251v1.62a3 3 0 0 1-.567.153q-.378.072-1.062.072-1.224 0-1.899-.315-.666-.315-.927-.882t-.261-1.314v-5.067h-1.512v-1.827h1.602l.657-2.808h1.872v2.799h2.07zm3.425 10.449q-.954 0-1.35-.162l-.387-.153v-1.674l.918.036q.81.045 1.197-.126.396-.162.531-.396.144-.234.198-.369l.171-.513-3.618-8.919h2.601l2.232 6.066 2.259-6.066h2.565l-3.771 9.36q-.486 1.188-1.035 1.818-.54.63-1.161.864a3.8 3.8 0 0 1-1.35.234m-65.307 8.724L330.189 195h-1.899l-3.501-9.306h2.376l2.034 5.931h.072l2.007-5.931zm3.106 5.256q-.009 1.071.513 1.701t1.467.63q.675 0 1.179-.288.513-.288.711-.945h2.367a3.17 3.17 0 0 1-.792 1.692q-.63.702-1.53 1.071c-.9.369-1.224.369-1.872.369q-1.386 0-2.43-.576a4.14 4.14 0 0 1-1.629-1.647q-.585-1.062-.585-2.502 0-1.395.531-2.511a4.2 4.2 0 0 1 1.539-1.773q1.017-.657 2.439-.657c1.422 0 1.743.201 2.385.603a3.7 3.7 0 0 1 1.458 1.665q.495 1.062.495 2.457v.711zm-.009-1.566h3.798q0-.846-.468-1.44t-1.413-.594q-.612 0-1.044.297a1.95 1.95 0 0 0-.648.765 2.2 2.2 0 0 0-.225.972m8.079 5.616v-9.306h2.529v2.205q.333-1.071 1.089-1.728t1.863-.657q.297 0 .405.054v2.502a.8.8 0 0 0-.198-.036 3 3 0 0 0-.198-.027q-1.557-.135-2.214.414-.648.549-.648 1.485V195zm9.986-13.005v2.367h-2.556v-2.367zm-.027 3.699V195h-2.511v-9.306zm8.06 0v1.827h-1.962V195h-2.628v-7.479h-1.719v-1.827h1.719v-1.341q0-1.125.657-1.746.666-.621 1.881-.621h2.133l.009 1.746h-1.224q-.504 0-.693.252-.18.243-.18.81v.9zm4.212-3.699v2.367h-2.556v-2.367zm-.027 3.699V195h-2.511v-9.306zm6.375-.18q1.17 0 2.016.477.855.477 1.341 1.287.495.81.567 1.809h-2.187q-.09-.558-.504-1.062-.405-.513-1.215-.513-.918 0-1.494.711-.567.702-.567 2.142 0 1.368.558 2.16t1.557.792q.531 0 .882-.261a1.9 1.9 0 0 0 .558-.621q.198-.369.252-.684h2.133a3.66 3.66 0 0 1-.558 1.746q-.495.774-1.35 1.233-.846.45-1.989.45-1.296 0-2.313-.576a4.1 4.1 0 0 1-1.602-1.647q-.576-1.08-.576-2.574 0-1.44.558-2.538a4.15 4.15 0 0 1 1.566-1.71q1.008-.621 2.367-.621m8.381 9.666q-1.341 0-2.241-.738t-.9-2.106q0-1.53 1.134-2.322 1.143-.801 3.618-.828l1.161-.018v-.558q0-.639-.378-.981-.369-.351-1.152-.342-.576.009-1.098.27-.513.261-.702.909h-2.187q.072-1.512 1.215-2.232t2.889-.72q2.142 0 3.033.792.9.783.9 2.151V195h-2.196l-.216-1.602q-.477 1.008-1.197 1.395-.711.387-1.683.387m.882-1.728q.477 0 .909-.216.432-.225.702-.576.279-.36.279-.765v-1.377l-.945.018q-.657.009-1.224.153c-.567.144-.684.258-.918.486q-.342.333-.342.9 0 .648.441 1.017.45.36 1.098.36m11.985-5.931h-2.07l.018 4.959q0 .513.198.648.198.126.63.126h1.251v1.62a3 3 0 0 1-.567.153q-.378.072-1.062.072-1.224 0-1.899-.315-.666-.315-.927-.882t-.261-1.314v-5.067h-1.512v-1.827h1.602l.657-2.808h1.872v2.799h2.07zm4.614-5.526v2.367h-2.556v-2.367zm-.027 3.699V195h-2.511v-9.306zm6.377 9.486q-1.368 0-2.385-.585a4 4 0 0 1-1.566-1.656q-.549-1.071-.549-2.538t.549-2.565a4.15 4.15 0 0 1 1.566-1.71q1.017-.612 2.394-.612t2.385.603a4.04 4.04 0 0 1 1.557 1.701q.549 1.089.549 2.583 0 1.404-.54 2.484a4 4 0 0 1-1.539 1.683q-.999.612-2.421.612m.009-1.953q.693 0 1.116-.405t.612-1.062q.198-.666.198-1.449 0-.738-.18-1.386-.18-.657-.603-1.062-.414-.414-1.143-.414-.693 0-1.125.387-.423.387-.621 1.035a5 5 0 0 0-.198 1.44q0 .729.18 1.404.18.666.603 1.089t1.161.423M411.9 195v-9.306h2.583v1.314q.324-.504.963-.945.639-.45 1.737-.45.855 0 1.593.333.747.333 1.206 1.053.459.711.459 1.863V195h-2.628v-5.814q0-.756-.459-1.134a1.64 1.64 0 0 0-1.089-.378 2.2 2.2 0 0 0-1.197.342q-.54.342-.54 1.026V195zm-92.903 7.662a18.7 18.7 0 0 0-1.503 3.825 15.8 15.8 0 0 0-.567 4.203q0 2.052.513 3.951t1.485 3.933h-1.845a27 27 0 0 1-1.314-2.493 13.5 13.5 0 0 1-.882-2.547 12.7 12.7 0 0 1-.306-2.862q0-2.241.702-4.284a16 16 0 0 1 1.854-3.726zm10.503.324h2.628V216h-2.367l-6.183-8.955V216h-2.619v-13.014h2.601l5.94 8.613zm5.539 0h2.619V216h-2.619zm10.424 13.194a7.4 7.4 0 0 1-1.89-.243 6 6 0 0 1-1.701-.729 4.3 4.3 0 0 1-1.26-1.215q-.495-.729-.594-1.71h2.691q.198.882.936 1.359.747.477 1.809.477 1.071 0 1.845-.405.783-.405.783-1.233 0-.738-.63-1.098t-1.575-.549l-2.25-.459q-1.476-.279-2.34-1.17t-.891-2.394q-.009-1.224.648-2.115.666-.9 1.8-1.386 1.143-.486 2.556-.486 1.683 0 2.826.531 1.152.522 1.746 1.422.603.891.621 1.989h-2.637q-.108-1.026-.801-1.44c-.693-.414-1.032-.414-1.71-.414q-1.053 0-1.674.45-.621.441-.621 1.143 0 .567.369.918.378.351 1.422.576l2.232.459q1.188.234 1.899.693t1.062 1.035q.36.576.468 1.179.117.594.117 1.098 0 1.053-.657 1.899-.657.837-1.845 1.332-1.179.486-2.754.486m6.425-10.854v-2.34h10.413v2.34h-3.843V216h-2.637v-10.674zm20.594-2.52q1.341 0 2.394.423 1.062.423 1.674 1.242.612.81.612 1.998 0 1.008-.549 1.71a3.7 3.7 0 0 1-1.35 1.071q.594.126 1.161.594.576.459.945 1.134.369.666.369 1.413 0 1.161-.657 2.016t-1.836 1.323q-1.179.459-2.763.459-1.575 0-2.754-.459-1.179-.468-1.836-1.323-.648-.855-.648-2.016 0-.747.369-1.413a3.8 3.8 0 0 1 .936-1.134q.567-.468 1.17-.594a3.8 3.8 0 0 1-1.359-1.071q-.558-.702-.558-1.71 0-1.188.612-1.998.621-.819 1.683-1.242t2.385-.423m0 5.427q.9 0 1.476-.477.585-.486.585-1.341 0-.846-.585-1.341t-1.476-.495q-.882 0-1.467.495t-.585 1.341q0 .855.585 1.341.585.477 1.467.477m0 5.976q1.152 0 1.8-.513.657-.522.657-1.377 0-.864-.657-1.404-.648-.549-1.8-.549-1.134 0-1.791.549-.648.54-.648 1.404 0 .855.648 1.377.657.513 1.791.513m11.808-11.403q2.322 0 3.663 1.737t1.341 4.977q0 3.231-1.332 4.959-1.323 1.719-3.672 1.719-2.367 0-3.699-1.719-1.323-1.719-1.323-4.95 0-3.249 1.341-4.986 1.35-1.737 3.681-1.737m0 11.241q1.17 0 1.701-1.035.54-1.035.54-3.483 0-2.493-.549-3.573t-1.701-1.08c-1.152 0-1.341.363-1.719 1.089q-.558 1.089-.558 3.564 0 2.43.558 3.474t1.728 1.044m11.548-11.241q2.322 0 3.663 1.737t1.341 4.977q0 3.231-1.332 4.959-1.323 1.719-3.672 1.719-2.367 0-3.699-1.719-1.323-1.719-1.323-4.95 0-3.249 1.341-4.986 1.35-1.737 3.681-1.737m0 11.241q1.17 0 1.701-1.035.54-1.035.54-3.483 0-2.493-.549-3.573t-1.701-1.08c-1.152 0-1.341.363-1.719 1.089q-.558 1.089-.558 3.564 0 2.43.558 3.474t1.728 1.044m11.782-3.636v1.908l-4.914.009v-1.917zm7.327-7.605q1.215 0 2.25.45a4.1 4.1 0 0 1 1.692 1.287q.657.837.72 2.016h-2.403q-.486-1.674-2.205-1.674-1.404 0-2.097 1.17-.684 1.17-.495 3.069.45-.639 1.242-.999c.792-.36 1.101-.36 1.719-.36q1.314 0 2.304.495a3.74 3.74 0 0 1 1.557 1.395q.558.891.558 2.097 0 1.278-.63 2.286-.621.999-1.737 1.584-1.116.576-2.583.576-1.665 0-2.871-.801-1.197-.801-1.845-2.25-.639-1.449-.639-3.402 0-2.142.648-3.699.657-1.557 1.881-2.394 1.224-.846 2.934-.846m-.189 6.921q-.558 0-1.08.252a2.5 2.5 0 0 0-.846.63q-.324.378-.324.774-.009 1.305.612 2.052c.621.747.957.747 1.629.747q.936 0 1.593-.648.666-.648.666-1.656 0-1.08-.648-1.611-.639-.54-1.602-.54m6.637-2.736q0-1.404.657-2.331a4.03 4.03 0 0 1 1.782-1.386q1.125-.468 2.511-.468 1.458 0 2.592.378 1.143.378 1.8 1.152t.657 1.962q0 .963-.567 1.701-.558.738-1.809 1.161.72.198 1.332.603t.981 1.035.369 1.512q0 1.278-.738 2.151-.729.864-1.962 1.305-1.224.441-2.718.432-2.349-.009-3.645-1.134t-1.323-3.087h2.529q.189 1.116.855 1.611.675.486 1.611.486 1.215 0 1.899-.513.693-.522.693-1.332 0-.837-.711-1.323-.702-.495-1.791-.522l-1.242-.045v-2.088l1.116-.063q1.053-.045 1.692-.531.639-.495.639-1.242 0-.711-.657-1.143-.648-.432-1.656-.432-.927 0-1.62.486-.693.477-.765 1.665zm-89.346 20.523q1.17 0 2.016.477.855.477 1.341 1.287.495.81.567 1.809h-2.187q-.09-.558-.504-1.062-.405-.513-1.215-.513-.918 0-1.494.711-.567.702-.567 2.142 0 1.368.558 2.16t1.557.792q.531 0 .882-.261a1.9 1.9 0 0 0 .558-.621q.198-.369.252-.684h2.133a3.66 3.66 0 0 1-.558 1.746q-.495.774-1.35 1.233-.846.45-1.989.45-1.296 0-2.313-.576a4.1 4.1 0 0 1-1.602-1.647q-.576-1.08-.576-2.574 0-1.44.558-2.538a4.15 4.15 0 0 1 1.566-1.71q1.008-.621 2.367-.621m9.729 9.666q-1.368 0-2.385-.585a4 4 0 0 1-1.566-1.656q-.549-1.071-.549-2.538t.549-2.565a4.15 4.15 0 0 1 1.566-1.71q1.017-.612 2.394-.612t2.385.603a4.04 4.04 0 0 1 1.557 1.701q.549 1.089.549 2.583 0 1.404-.54 2.484a4 4 0 0 1-1.539 1.683q-.999.612-2.421.612m.009-1.953q.693 0 1.116-.405t.612-1.062q.198-.666.198-1.449 0-.738-.18-1.386-.18-.657-.603-1.062-.414-.414-1.143-.414-.693 0-1.125.387-.423.387-.621 1.035a5 5 0 0 0-.198 1.44q0 .729.18 1.404.18.666.603 1.089t1.161.423M348.03 237v-9.306h2.574v1.314q.423-.612 1.134-1.053.72-.441 1.809-.441.711 0 1.449.378.747.378 1.161 1.116.45-.639 1.179-1.062a3.2 3.2 0 0 1 1.638-.432q.693 0 1.395.315t1.17 1.044q.477.729.477 1.989V237h-2.628v-5.814q0-.846-.468-1.188a1.7 1.7 0 0 0-1.026-.342q-.351 0-.711.144-.36.135-.612.441t-.252.801V237H353.7v-6.048q0-.63-.477-.963a1.72 1.72 0 0 0-.999-.333q-.54 0-1.053.342t-.513 1.044V237zm16.119 2.898v-12.204h2.637l.009 1.341a3.4 3.4 0 0 1 1.179-1.08 3.33 3.33 0 0 1 1.71-.441q1.557 0 2.565 1.161 1.017 1.161 1.017 3.6 0 1.692-.504 2.781-.495 1.08-1.368 1.602t-1.971.522q-.9 0-1.584-.459a3.5 3.5 0 0 1-1.062-1.116v4.293zm4.644-4.644q.846 0 1.431-.702.585-.711.585-2.259 0-1.341-.558-2.106-.549-.765-1.458-.765-1.026 0-1.521.828-.495.819-.495 2.043 0 .783.216 1.458t.666 1.089 1.134.414m9.19 1.908q-1.035 0-1.638-.243-.594-.243-.882-.639a2.1 2.1 0 0 1-.369-.891 6 6 0 0 1-.081-.999v-10.764h2.574v10.44q0 .513.225.837t.828.387l.441.027v1.62q-.27.099-.558.162a2.5 2.5 0 0 1-.54.063m5.486-13.167v2.367h-2.556v-2.367zm-.027 3.699V237h-2.511v-9.306zm5.081 9.486q-1.341 0-2.241-.738t-.9-2.106q0-1.53 1.134-2.322 1.143-.801 3.618-.828l1.161-.018v-.558q0-.639-.378-.981-.369-.351-1.152-.342-.576.009-1.098.27-.513.261-.702.909h-2.187q.072-1.512 1.215-2.232t2.889-.72q2.142 0 3.033.792.9.783.9 2.151V237h-2.196l-.216-1.602q-.477 1.008-1.197 1.395-.711.387-1.683.387m.882-1.728q.477 0 .909-.216.432-.225.702-.576.279-.36.279-.765v-1.377l-.945.018q-.657.009-1.224.153c-.567.144-.684.258-.918.486q-.342.333-.342.9 0 .648.441 1.017.45.36 1.098.36m6.737 1.548v-9.306h2.583v1.314q.324-.504.963-.945.639-.45 1.737-.45.855 0 1.593.333.747.333 1.206 1.053.459.711.459 1.863V237h-2.628v-5.814q0-.756-.459-1.134a1.64 1.64 0 0 0-1.089-.378 2.2 2.2 0 0 0-1.197.342q-.54.342-.54 1.026V237zm15.918-7.479h-2.07l.018 4.959q0 .513.198.648.198.126.63.126h1.251v1.62a3 3 0 0 1-.567.153q-.378.072-1.062.072-1.224 0-1.899-.315-.666-.315-.927-.882t-.261-1.314v-5.067h-1.512v-1.827h1.602l.657-2.808h1.872v2.799h2.07zm1.155-5.859a18.7 18.7 0 0 1 1.503 3.825q.567 2.061.567 4.203 0 2.052-.513 3.951t-1.485 3.933h1.845q.747-1.26 1.314-2.493.567-1.224.873-2.547.315-1.323.315-2.862a13 13 0 0 0-.711-4.284 15.6 15.6 0 0 0-1.845-3.726z"/></svg>