<svg xmlns="http://www.w3.org/2000/svg" version="1.1" id="Layer_1" x="0" y="0" style="enable-background:new 0 0 792 792" xml:space="preserve" viewBox="67.3 76 648.4 648.4"><style>.st0{fill:#fff}.st2{fill:#9d6527}.st3,.st4{fill:none;stroke:#9d6527;stroke-width:3;stroke-miterlimit:10}.st4{stroke:#1f3d1c;stroke-width:6;stroke-linejoin:round}.st5{stroke-linecap:round}.st5,.st6{fill:none;stroke:#1f3d1c;stroke-width:6;stroke-miterlimit:10}.st8{fill:#301716}.st10,.st9{fill:none;stroke:#301716;stroke-width:3;stroke-miterlimit:10}.st10,.st15{stroke-linejoin:round;stroke-linecap:round}.st15{stroke:#301716;stroke-width:2}.st15,.st16,.st17{fill:none;stroke-miterlimit:10}.st16{stroke:#fff;stroke-width:3;stroke-linecap:round}.st17{stroke:#1f2a59;stroke-width:6}.st18{fill:#1f2a59}</style><circle class="st0" cx="391.5" cy="400.2" r="324.2"/><path class="st2" d="m392.5 566.7 8.7 2.6-.5 9.6 46.3-28.4-3.2-5.9zM521 502.3l5.8 4.3 2.2 8.9 28.5-25.5z"/><path class="st3" d="m438 550.8 91.6-45.7"/><path class="st2" d="m392.8 540.7 7.2 5-3.3 8.5 50.8-12.4-1.2-6.2zm136.7-21.1 4 5.5-.5 8.7 33.5-14.8z"/><path class="st3" d="m439.2 539.6 97.3-15"/><path class="st2" d="m406.2 585 8.6-.2 2.4 8.9 33.6-39.6-4.6-4.4zm97.3-96.4 6.5 2.1 4.7 7.5 18.3-31.6z"/><path class="st3" d="m442.8 557.1 69.4-68.5"/><path class="st4" d="M305.8 494.4s14.7 2.1 16.1 13.2c0 0-2.3 22.9.4 27 0 0-14.1-16.9-13.4-24.8.6-8-1.4-14.6-3.1-15.4z"/><path class="st5" d="M197.9 483.9s1.5 24.9 20.1 22.8c-.1-.1 2.4-11.8-20.1-22.8z"/><path class="st6" d="M211.9 513.6s7.7 8.7 20.1 2.5c-.1 0-5.3-9.3-20.1-2.5zm51.6 13.7s-11.8-2.1-16.2 2.9-11.2 4.8-12.1 5.2c0 0 20.6 9.6 28.3-8.1z"/><path class="st4" d="M285 533.2s-11.8-1.7-16.4 1.9c-4.6 3.7-9.8 8.3-12.7 8.7 0 0 22.9 3.7 29.1-10.6z"/><path class="st5" d="M300.5 538.6s-12.3 1.2-18.5 6.2-9.6 5.4-10.4 5.6c-.1 0 17.2 6.5 28.9-11.8z"/><path class="st6" d="M247.1 521.3s-8.9-1.2-12.3.8-11.4 1.7-11.4 1.7 9.5 10.8 23.7-2.5z"/><path class="st5" d="M308.5 531.7s-19.5-8.9-25.1-34.3c-.1 0 20.6 5.2 25.1 34.3zm-44.7-35.9s2.5 23.7 23.5 31.2c.2.1-7.3-24-23.5-31.2zm-18.6-1.5s5.4 22.6 18.1 27.4c-.1 0-.1-19.9-18.1-27.4zm-19.5.6s4.8 17.9 19.3 20.8c-.1 0-.2-16-19.3-20.8z"/><path class="st6" d="M314 538.4s-16.6 6.2-27.6 21.8c.1 0 22.8-3.6 27.6-21.8zm8.7 2.9S304.8 556 302.5 570c0 .1 20.2-1.9 20.2-28.7z"/><path d="M326.5 537.9s-70.8-11-104.7-30.9" style="fill:none;stroke:#1f3d1c;stroke-width:6;stroke-linecap:round;stroke-linejoin:round;stroke-miterlimit:10"/><path class="st8" d="M256.5 276s7.5 7.5 9.2-6c0 0 12.2-4.2 14.4-14.9 0 0 6.9 8.8 16.4 10 0 0-4.2 10.7-3.4 12.7 0 0-14.7-.5-19.2 11.7 0 0-15.4-5.5-11.7 13.2 0 0-3.2-1.2-2.7 8.2 0 0-3.7 2.2-3.5 6.5 0 0-5 1.7-5 3.2 0 0 .2-13.2-.5-14.9 0 0 3.7-1.2 3.7-5.7 0-.1 1-4.2 2.3-24zm-27.1 35.7s-5 37.6-.7 36.9c0 0 9 2.2 16.4-47.6 0 0 6.9 65.6-27.9 95.3 0-.1.5-30.8 12.2-84.6z"/><path class="st8" d="M234.1 379.9s-8.2 13.7-11 15.4c0 0 4.4 76.5-6.1 63.8l-2.2-12.2.8 33.9c.1 0 27.8-9.7 18.5-100.9z"/><path class="st8" d="M222.9 484.4s39 4.7 23.7-127.3c0 0-5 14.3-8.7 16.7 0 0 13.3 65.3-15 110.6z"/><path class="st8" d="M248.6 355.1s9-4.7 9.7-9c0 0 15.3 90.3-12.7 124.7 0 0 16.9-52.7 3-115.7z"/><path class="st8" d="M260.2 339.1s7-5.7 7-7.3c0-1.7 19 81.7-9 128.3 0 0 16.6-63.3 2-121z"/><path class="st8" d="M270.2 327.1s4.3-5 5.3-9.7c0 0 22 84-2.7 112.7 0 0 9.7-56.7-2.6-103zm60.6 65s1.3 9.3 3.3 13.3c0 0-8.3 8.3-20 5.7.1 0 16.4-14.7 16.7-19z"/><path class="st8" d="M328.2 375.8s1 12.7 1.7 13.7c0 0-15.7 28.3-32 17.7 0 0 21.7-16 21.3-31.3 0-.1 7 .9 9-.1z"/><path class="st8" d="M316.2 375.4s-4.7 24.7-23.3 28.7c0 0-6-2-5.3-8.7 0 0 16.3-9.3 19.3-25.3-.1 0 5.3 4 9.3 5.3z"/><path class="st8" d="M304.5 368.4s-7 19.3-15.3 22l-.3-16s10.7-10 10.7-12.3c-.1 0 3.6 6.7 4.9 6.3zm-19.3-20s3.3 18.7 3 22.3c0 0 8.3-7.7 8.7-10.7 0 0-6-7.3-8.7-12.3l-3 .7zm41 11.7s-1 10.7.3 12.7c0 0-5.7 2-14.3-3.7 0 0 8.3-7 9-9h5zm-35-33.7s-6.7 8.3-9.3 4.7c0 0-1.7-11-1.3-12.3l4.3-2c-.1 0 5.3 10.3 6.3 9.6zm18.6-.6s-6.3 20 4.7 23c0 0 .3-12.3 1-14.7s-6.3-7.3-5.7-8.3z"/><path class="st8" d="M299.2 307.4s-4.3 11-4 16c0 0-16.3-5.3-1.3-27-.1 0 3.9 10.4 5.3 11zm-13-4.6s-2.3 6.7-1.3 9-6.3 4.7-6.3-1c-.1 0-2.8-5 7.6-8zm-5-15.4s4.7 14-3.3 16.3l-1.3-12.3 4.6-4zm16.6-9s18 46 27.3 53c0 0-1 21.7.3 25.3 0 0-11.7 1-7-23 0 0-23-33.7-23-39.7.1.1-3.6-12.6 2.4-15.6zm-14.3 6.4s5.3-3.7 8.3-2.7c0 0 2.3 13.3-4.3 16 0 0-3.3 2.7-4-13.3z"/><path class="st9" d="M344.8 328.9c-11-1-14.6-25.1-14.6-25.1-2.6-35.6-16.3-49.3-16.3-49.3s-8.7-11.3-26-11c0 0-40-4-62 77.7"/><path class="st9" d="M339.5 327.6s31.3 12.5 33.3-33.2c0 0 .4-11.5-6.6-17.5"/><path class="st8" d="M301 246.9s22.7 3.5 27.6 43.2c0 0 2.8 44.2 20.5 43.8 0 0-27.2 2.2-32.8-38.2-.1.1-6.8-45.1-15.3-48.8z"/><path class="st9" d="M448.8 325.4s-34.7-29.7-42-54.7c0 0-5.8-18.2-26.2-18.5 0 0-16.4-1.1-16.5 5.8"/><path class="st8" d="m301.3 312.6 5.9 8.8-3.2 15c0 .1-12.2-9.5-2.7-23.8zm-7.1 15.8s3 9.3 6 10.3c0 0-8.7 5-8.3 7.3-.1.1-15.7-7.2 2.3-17.6z"/><path class="st8" d="M302.2 341.4s3.3 6.7 7.7 8.7c0 0-9.7 5-9 6.7-.1 0-17.7-8.7 1.3-15.4z"/><path class="st8" d="M311.8 352.1s6 6.3 7.3 6c0 0-8.3 7.3-8.3 8.3s-18-7.3 1-14.3zm-61.2-27s-2.3 20-3 25c0 0 10.7 1 10.3-28.7 0 0-7 .7-7.3 3.7zm10.2-11.7s1.7 16.7.7 18.7c0 0 9-1.3 3.7-25.3 0 0-3.4 3-4.4 6.6zm4.7-14.6s4.3 18 4.3 22.7c0 0 9.3-4.3 2.7-28.3 0-.1-7 .9-7 5.6z"/><path class="st10" d="M363 270.2s-14.4-.5-16.7 7.9c0 0-4.6-17 18.6-19.2"/><path d="m351.5 274.4 12.5-.1s2.4 4.4 10 4.4" style="fill:none;stroke:#301716;stroke-width:3;stroke-linecap:round;stroke-miterlimit:10"/><circle class="st8" cx="372" cy="264.3" r="2.3"/><path d="M377.8 261.6s-7.8-1.1-7.4 2.1" style="fill:none;stroke:#301716;stroke-width:2;stroke-miterlimit:10"/><path class="st10" d="M364.3 261.1s-1.2 5.2.2 10.2"/><path d="M225.9 321.1s-16.5 74.4-10.4 158.6" style="fill:none;stroke:#2f1615;stroke-width:3;stroke-linecap:round;stroke-miterlimit:10"/><path class="st8" d="M556.5 365.1s12 20.3 17.7 22.7c0 0 .7 95.3 2.7 99.3-.1 0-34.7-21.3-20.4-122z"/><path class="st8" d="m546.2 346.1 7 15s-11.3 102.3 9 115.7c0 0-41.7-18.7-16-130.7z"/><path class="st8" d="M543.8 342.1s-20.7 85-3.7 114c0 0-21.3.3-9-120 0 0 4.3 1 7 .7.1 0 4.7 4.6 5.7 5.3z"/><path class="st8" d="M519.2 329.4s6.3 5 8.3 5c0 0-8.3 99.3 0 110 0 0-23.7-10.3-8.3-115zm-50.7 44s-4.3 45.7 18.7 42.3c0 0-15.7-15.4-11.4-44.7l-7.3 2.4z"/><path class="st8" d="M485.2 364.1s-3.4 3.6-6.7 6.1c-1 .7-5.6 46.6 21.7 41.9 0 0-17.7-7.3-15-48z"/><path class="st8" d="M496.2 354.4c-.9 31.2 16.3 50.6 16.3 50.6-26 15.6-24.7-43.2-24.7-43.2l8.4-7.4z"/><path class="st8" d="m503.8 344-5.9 7.4s3.1 40.6 13.4 42.3c0 0-.3-27.8 1.1-28.4-.1 0-5.7-1.3-8.6-21.3zm2-4.2s2 18.4 6.7 20.7c0 0 3.6-29.9 4.6-31.6l-2.7-1.2c-.2.1-8.6 3.3-8.6 12.1zm-40.1 35.3s-1.6.7-2.8.5c0 0-3.3 25.1-5.1 27.6 0 0 .5 5.1 13.9 9.7 0 0-6.9-13.6-6-37.8z"/><path class="st9" d="M566.2 328.8s-18.3-86.3-75-91c0 0-33.7-2-33.7 39 0 0 4.3 46-5.7 51"/><path class="st8" d="M543.8 309.1s-3.7 42.7 30.7 74.3c0 0-1-82.7-34.7-105.3 0 0 14 26.3 16.7 35 0 0-6.7-8.3-8.3-8-1.7.3 6 12 6 21 0 0-10.4-13-10.4-17zm-4 1.3s-1 20 1.7 24c0 0-14.7 1.3-14.7-31.3 0 0 10.4 8 13 7.3zm-16.3-10.6s-.3 24.7 4.7 30c0 0-18.7-2.3-15-43 0 0 10.3 9.3 10.3 13zm-13-14.4s-2 25.3.3 31c0 0-11.7-6-10-19.3l9.7-11.7zm-8.7 26.4s7 11.7 12 12c0 0-6 9-17-3 0 0 6.4-7.7 5-9zm-6.6 11.3s7.3 6.3 10.3 6.7c0 0-1.7 14.3-15 3.3 0 0 4-7.3 4.7-10zm-6 12.3s8.3 5 11 6c0 0-3 15.3-20.3 3.7-.1 0 9.6-6.7 9.3-9.7zm-10.7 12s11 6.7 13.3 5.7c0 0-4.3 10.3-18.3 0 0 0 5-2.3 5-5.7zm-7.3 8s9.7 6.3 12.3 6c0 0-3.7 10-17.3-2 0 0 5.3-2.6 5-4zm-6 6.7s7 5 8.7 5c0 0-5.7 5.3-9.7 4l-1.7-9.7 2.7.7z"/><path class="st8" d="M456.5 327.4s19.7-16.7 15.7-49c0 0-2.3-14.7 6.3-13.7 0 0 0-28 31-10.3 0 0 19.3 14.3 24.3 22.7 0 0-8.7 3.7-11.7-2 0 0 19.3 17.7 19.3 20 0 0 2.3 7 1 9s-9.3 2.3-10.7-.7c0 0-11.7-12-12.7-21.3 0 0-13-.7-19-14.7 0 0-4 8.3-12.7 6.7 0 0 2 33.3-8 47 0 0-10 19-17.3 21s-28.7 8-45-6c0 0 5.3.7 5.7-7 0 0 7.7 7 14 5.3 0 0 5-1 5.3-7.3 0 0 5-.3 6.3-3 .2 0 5.5 5 8.2 3.3z"/><path class="st15" d="M393.2 318.1s2.7-.7 2.7-4c0 0 4.3 2.7 4.7-1.7 0 0 3.3 5.7 5.7 4"/><path class="st8" d="M422.5 299.4c1 6.7-3.7 7.7-3.7 7.7 1.3 11.3-4.7 5.7-4.7 5.7-2.7 7-6.7 5-6.7 5s1.3 3.7 10.3.3c0 0 2.7 2.3 4.3-3 0 0 2.7 2 2.7-5.3 0 0 5.7.7 5.7-2l-7.9-8.4z"/><path class="st15" d="M399.5 323.1s2.7 5 6.3 1.3m4.4 4.7s7.7 4 8-1.3"/><path class="st10" d="M418.5 321.4s6.7 1.7 9.3-6c0 0 6.3 5 5-5.3m-9.3 14.7s7 1.7 9-3c0 0 5.3 1.7 5-7m-9 13s3.3 3 6.7-2.3c0 0 5 1 7.3-4.7"/><path class="st8" d="M491.2 277.1s8.3-1 9-4c0 0 4.3 6.7 7.3 9.3 0 0-5.3 15-16.3 7v-12.3zm-.7 16s5 3.3 7 3c0 0 4.3 20-5 24.3 0 0-4-5.7-5.3-9 0 0 3.6-14.3 3.3-18.3zm-4 22s10.3 9-.3 19c0 0-2.3-10-3.3-11.7-.1 0 3.9-5.3 3.6-7.3zm-17.3 26-6.7 4 .3 11.7s11-.4 6.4-15.7z"/><path class="st8" d="M471.2 339.8s1 8.3.3 10.3c0 0 10.3-2.7 4-16.7l-4.3 6.4zm10-15.4-4 7s3 8 2.7 9.7c-.4 1.7 8.9-2.3 1.3-16.7zm-138.4 98.4s.3 15.7-4.3 24.7c0 0-14 24.3-2 40.3 0 0 22.7 9.7 25.7-12 0 0 4.3-13 3.3-23.7l-22.7-29.3z"/><path class="st8" d="M339.2 517.1s-15.3-4-16.7 9c0 0-2 17.3 4.7 20 0 0 4.3.7 6.7 0 0 0 3 4 10.3 2 0 0 8 4.7 11.7-2.3 0 0-4.7-5.7-4.3-8.7 0 0-1-4 5.3-4.7 0 0 3.7-5.3-2.3-10.7 0 0-2.7-15.7 6.7-26.7 0 0-1.3-5.7-3-6.7h-20l-1.3 3.3s-6.3 5.7 1.7 10c-.2.2 1.1 8.5.5 15.5zm112-99.7s9.7 14 8.3 42.3c0 0 1 10.7 3 13.7 0 0 6 15-2.7 22 0 0-9 4.7-4.7 20 0 0 16-4.3 19.3 7 0 0 8.7 29-8.7 24.3 0 0 .9 8.9-10.1 6.2 0 0-2.9 4.5-7.9 2.8 0 0-.3-17-9-22 0 0-3.7-5 3-8.7 0 0-2.3-15.7-6.3-17.7 0 0-9-35.7-20-41 .1.1 35.4-39.2 35.8-48.9zm-49.4 58.7c11 59.7-1 63.3-1 63.3-13-9.3-3.7-63.7-3.7-63.7l4.7.4z"/><path class="st8" d="m395.5 475.4-4-2.3s-16 56.7 1.7 65c0 0-2.7-30 2.3-62.7z"/><path class="st8" d="M387.5 470.8s-20 51-5 59.3c0 0 1-36 7.3-58l-2.3-1.3z"/><path class="st8" d="M382.8 467.4s-6.3 12.7-12 27.7c0 0-9 16.3 1.3 25.7 0 0 10-42.3 14-50.7l-3.3-2.7zm21.4 8.4 3.7-2.3s17.5 56.3-.2 64.7c.1-.1 1.8-29.8-3.5-62.4z"/><path class="st8" d="M413.3 470.8s20 51 5 59.3c0 0-2.2-36-8.5-58l3.5-1.3z"/><path class="st8" d="M418 467.4s5.8 11.7 11.5 26.7c0 0 9.5 17.3-.8 26.7 0 0-10-42.3-14-50.7l3.3-2.7zm-36.8-.6s-14 29.7-14 34c0 0-10.3-1.7 10-37.3l4 3.3z"/><path class="st8" d="M375.5 461.8s-13.3 28-12.3 30c0 0-7 2 5.7-35l6.6 5z"/><path class="st16" d="M330.8 522.8s-6.3 4.3-2 15.7m8-12.7s-2.7 2.7-1.3 13m9.7-9.7s-5.3 3-2.3 12.3m120.6-17.6s4.7-.7 4.7 13.3m-14-9.3s5.3 3.3 5 14.3m-13.4-12.3s5.3 5.7 4.7 15.7"/><path class="st0" d="M443.5 434.8s12 27.3 8.3 48.3c0 0 1.7 2 2.7-.3 0 0 3-34.7-8-54 0 0-2 6.3-3 6zm-7.7 8s12.3 11 10 29.3l-2-1.7s-3-18.3-11-23l3-4.6zm-5.3 48.3s9.3 3 15.7-.3c0 0 3.7 3.3-.7 5 0 0-9.7 4.3-11.3 4-1.7-.4-3.7-8.7-3.7-8.7z"/><path class="st16" d="M435.5 469.8s7 6.7 7.7 12.3"/><circle class="st17" cx="391.5" cy="400.2" r="308.1"/><circle class="st17" cx="391.5" cy="400.2" r="231.1"/><path class="st18" d="m209.6 563.1 3.6 4.3-38.7 32.6-4.7-5.6c-6.2-7.3-10-15.8-1.3-23.2 6-5 13.3-4.8 18.9.7l7-27 4.5 5.3-7.1 26 .9 1.1 16.9-14.2zm-20.8 17.5-1.1-1.3c-4.1-4.9-9.2-9-15.2-4-6.4 5.4-3.1 10.6 1.3 15.8l1.1 1.3 13.9-11.8zm-19.1-47.3 15.6-1.5 3 5.4-57.8 4.9 35.7-45.4 3 5.5-9.8 12.1 10.3 19zm-27.8 2.6 22-2.1-8.2-15-13.8 17.1zm18.3-57.6 1.9 5.3-47.8 16.8-1.9-5.3 47.8-16.8zm-11.8-22.2-3-13.6 5.1-1.1 4.2 19.2-49.5 10.9-1.2-5.5 44.4-9.9zm-.2-33.7.3 5.6-50.5 3-.4-7.3c-.6-9.6 1.4-18.7 12.9-19.3 7.8-.5 13.6 4.1 14.7 11.8l21.7-17.4.4 6.9-21.3 16.6.1 1.4 22.1-1.3zm-27 1.6-.1-1.7c-.4-6.4-2-12.7-9.8-12.3-8.3.5-8.8 6.6-8.4 13.4l.1 1.7 18.2-1.1zm8.7-93.4c14.4 2.3 23.9 16 21.6 30.3-2.3 14.3-15.6 24.2-30 21.9-14.3-2.3-24-16-21.7-30.3 2.3-14.3 15.8-24.2 30.1-21.9zm-7.7 46.6c11.3 1.8 22.2-5.8 24-17.1 1.8-11.3-6.1-22-17.4-23.9-11.3-1.8-22.2 5.7-24 17.1-1.7 11.4 6.2 22.1 17.4 23.9zm27.5-69 10.8 11.3-2.4 5.7-39.5-42.4h57.8l-2.5 5.7-15.6-.2-8.6 19.9zM130.6 288l15.2 16 6.8-15.7-22-.3zm11.5-45.7 5.6-7.7c4.4-6.2 8.9-10.6 16.5-12.4 7.4-1.8 14.5.1 20.6 4.5 6 4.3 9.7 10.3 10.5 17.8.8 8-1.9 13.5-6.5 20l-5.5 7.6-41.2-29.8zm42.5 18.6c3.6-5 5.9-9.7 5.1-16-.7-5.7-3.8-10.5-8.3-13.8-4.7-3.4-10.5-4.8-16.2-3.5-6 1.4-9.7 5-13.2 9.9l-2.4 3.3 32.6 23.5 2.4-3.4zm57.3-53.6-4.6 3.3-29.8-40.9 5.9-4.3c7.8-5.7 16.5-8.9 23.2.4 4.6 6.3 3.9 13.6-2 18.8l26.4 8.9-5.6 4.1-25.5-9-1.1.8 13.1 17.9zm-16.1-22 1.4-1c5.2-3.8 9.7-8.5 5-14.9-4.9-6.7-10.3-3.8-15.8.2l-1.4 1 10.8 14.7zm25.9-44.9 23.7-11.4 2.3 4.7-18.6 9 6.6 13.6 18-8.7 2.3 4.7-18 8.7 8.7 17.9 18.6-9 2.3 4.7-23.8 11.4-22.1-45.6zm75 24.5-5.4 1.6-12.5-43.7-11.8 3.4-1.4-5 29.1-8.3 1.4 5-11.9 3.4 12.5 43.6zm31.3-6.5-5.6.8-7.5-50.1 5.6-.8 7.5 50.1zm24.2-2.1-5.6.1-.8-50.7 7.3-.1c9.6-.2 18.6 2.3 18.8 13.7.1 7.8-4.7 13.4-12.5 14.2l16.5 22.4-6.9.1-15.7-22h-1.4l.3 22.3zm-.5-27.2h1.7c6.4-.1 12.8-1.4 12.7-9.3-.1-8.3-6.3-9-13-8.9h-1.7l.3 18.2zm47.3-21.5 25.9 4.4-.9 5.2-20.3-3.5-2.5 14.8 19.7 3.4-.9 5.2-19.7-3.4-3.4 19.6 20.3 3.5-.9 5.2-25.9-4.4 8.6-50zm60.7 11 .5 46.4 33.5-32.1-11.3 53.4-5.3-2.2 7.3-34.1-.1-.1-29.1 27.2-.9-39.8-.1-.1-19.3 29.1-5.3-2.2 30.1-45.5zm63.3 34.8 21.3 15.3-3.1 4.3-16.7-12-8.8 12.2 16.3 11.7-3.1 4.3-16.3-11.7-11.6 16.1 16.7 12-3.1 4.3-21.3-15.3 29.7-41.2zm44.5 32-4.5 57 29.2-26.2 3.8 4.2-39.4 35.3 4.4-57-29.1 26-3.8-4.2 39.4-35.1zm7 95.8-2.8-4.9 39.4-22.6-6.1-10.6 4.5-2.6 15.1 26.2-4.5 2.6-6.2-10.7-39.4 22.6zm71 38.9 1.9 8.1c2.1 9 .5 17.3-9.5 19.6-4 .9-7.7.2-10.7-2.6-.1 6.2-4.6 10.9-10.5 12.3-9.8 2.3-15.6-4.8-17.8-14.5l-2.6-11.5 49.2-11.4zm-43 15.8 1.3 5.5c1.4 6.2 4.4 12.3 12 10.6 7.7-1.8 7.1-9.4 5.7-15.4l-1.1-4.8-17.9 4.1zm22.5-5.2.5 2.1c1.4 6.2 3.4 11.4 11 9.6 7.5-1.7 7.2-6.6 5.6-13.4l-.5-2.2-16.6 3.9zm6.1 95c-14.6.2-26.3-11.5-26.6-26-.2-14.4 11.1-26.6 25.7-26.8 14.5-.2 26.5 11.5 26.7 26 .3 14.4-11.3 26.5-25.8 26.8zm-.6-47.2c-11.4.2-20.8 9.6-20.6 21.1s9.9 20.6 21.3 20.4c11.5-.2 20.8-9.5 20.6-21.1-.3-11.6-9.8-20.6-21.3-20.4zM645 451.6l-12.5-9.4 1.5-6 46 35.4-57 9.5 1.5-6.1 15.4-2.4 5.1-21zm22.1 16.7L649.5 455l-4.1 16.6 21.7-3.3zM615.2 498l2.4-5.1 45.8 21.7-3.1 6.6c-4.1 8.7-10.3 15.7-20.6 10.8-7-3.3-9.9-10.1-7.2-17.5l-27.4 4.8 3-6.3 26.7-4.3.6-1.3-20.2-9.4zm24.6 11.7-.7 1.6c-2.7 5.8-4.4 12.1 2.7 15.5 7.5 3.6 10.9-1.6 13.8-7.7l.7-1.5-16.5-7.9zm-1.6 52.6-5.7 7.6c-4.5 6.1-9.1 10.4-16.7 12.2-7.4 1.7-14.4-.3-20.5-4.8-5.9-4.4-9.5-10.5-10.2-17.9-.7-8.1 2.1-13.5 6.9-19.9l5.6-7.5 40.6 30.3zM596 542.9c-3.7 5-6.1 9.6-5.4 16 .6 5.7 3.6 10.6 8.1 13.9 4.6 3.5 10.4 5 16.1 3.8 6.1-1.3 9.8-4.9 13.3-9.7l2.5-3.3-32.2-24.1-2.4 3.4zM370.8 196.1h15.5l4.8-14.8 4.8 14.8h15.5l-12.5 9.1 4.8 14.8-12.6-9.2-12.5 9.2 4.8-14.8-12.6-9.1zm-59.8 18 14.5-5.3-.5-15.5 9.5 12.3 14.6-5.3-8.7 12.8 9.5 12.3-14.9-4.3-8.7 12.9-.5-15.5-14.8-4.4zm142.5 4.6-.5 15.5-8.7-12.9-14.9 4.3 9.5-12.3-8.7-12.8 14.6 5.3 9.5-12.3-.5 15.5 14.5 5.3-14.8 4.4zM260 646.2l-4.2 14.9-5.3-14.6-15.5.6 12.2-9.6-5.4-14.5 12.9 8.6L267 622l-4.2 14.9 12.9 8.6-15.7.7zm254-6.2 12.9-8.6-4.2-14.9 12.2 9.6 12.9-8.6-5.4 14.5 12.2 9.6-15.5-.6-5.3 14.6-4.2-14.9-15.6-.7z"/><path class="st0" d="M327.8 333.9s43.1 12.6 67-11.4v55.1H329l-1.2-43.7zm134.2 0s-43.1 12.6-67-11.4v55.1h67v-43.7z"/><path d="M395.2 481.2s62.4-24 65.2-103h-66.1 1-66.1c2.8 79 65.2 103 65.2 103h.8z" style="fill:#fff;stroke:#fff;stroke-miterlimit:10"/><path class="st18" d="M321.3 668.4c-.8 3.7-1.8 7.8-.2 11.5 1.5 3.5 5.3 6.1 8.9 6.9 3.5.8 7.8 0 10.6-2.3 3.3-2.6 4.1-6.9 4.9-10.8l6.4-29.4 5.5 1.2-6.7 30.9c-1.2 5.4-2.5 9.5-7.3 12.7-4.2 2.9-9.5 3.8-14.5 2.7-4.6-1-9-3.8-11.7-7.8-3.4-5.1-3-9.7-1.7-15.3l6.7-30.9 5.5 1.2-6.4 29.4zm49.2 25.7c-.2 2.1-2 3.7-4.1 3.5-2.1-.2-3.6-2.1-3.4-4.1s2-3.5 4.1-3.3c2.1.2 3.7 1.9 3.4 3.9zm37.5-37.3c-2.1-3.4-4.6-5.4-8.8-5.3-4.5.1-8.3 3.4-8.2 8 .1 4.4 4.6 6.3 8.1 7.7l3.4 1.4c6.6 2.7 12.3 5.9 12.5 13.9.2 8.8-6.7 15.8-15.5 16-8.1.2-14.3-4.9-16.1-12.7l5.5-1.7c.9 5.1 4.9 9.3 10.3 9.1 5.4-.1 10.3-4.4 10.1-10.1-.1-5.9-4.8-7.8-9.6-9.8l-3.1-1.3c-6-2.5-11.1-5.4-11.3-12.7-.2-7.8 6.3-13 13.8-13.2 5.6-.1 10.5 2.6 13.3 7.5l-4.4 3.2zm28.2 34.8c.3 2.1-1.1 4-3.2 4.3-2.1.3-4-1.2-4.2-3.3-.3-2 1.2-3.9 3.2-4.2 2-.2 3.8 1.2 4.2 3.2zm20.1-15.2-2.1 15.4-5.9 1.6 8.6-57.2 35.8 45.1-6 1.6-9.5-12.3-20.9 5.8zm3.9-27.5-3 21.8 16.5-4.5-13.5-17.3zm49 21.8c.8 1.9-.1 4.2-2 5-1.9.8-4.1-.2-4.9-2.1-.8-1.9.1-4 2-4.8 1.9-.9 4 0 4.9 1.9zM331.8 338.2s40.6 11.8 63.2-10.7v51.9h-63.2v-41.2zm126.4 0S417.6 350 395 327.5v51.9h63.2v-41.2z"/><path d="M395.3 476.9s58.8-22.6 61.4-97.1h-62.2.9-62.3c2.6 74.4 61.4 97.1 61.4 97.1h.8z" style="fill:#fff;stroke:#b21f24;stroke-miterlimit:10"/><path d="m399 475.1-4.2 1.6-5.6-2.7.3-93.9 9.3-.1zm-20.5-7.7-4.5-2.8-5-5.1.3-79.3 9.4-.4zM358 448.6l-4.8-6.5-5-7.5.3-54.6 9.5-.3zm-19.5-37.2-1.7-3.9-1.6-9.7-2-18 5.1-.1zm71.3 56.8 5.7-3.4 4.3-3.5-.6-81.1h-9.4zm20.5-17.6 4.5-5.4 4.9-7.7-.2-57.6-9.5-.1zm20.2-36.4 3.5-10.3 1.8-11.5 1-12.8-6.5.3z" style="fill:#b21f24"/><path class="st0" d="M380.5 366.9h4.4l1.4-4.2 1.4 4.2h4.4l-3.6 2.6 1.4 4.2-3.6-2.6-3.6 2.6 1.4-4.2-3.6-2.6zm-20.7 0h4.4l1.4-4.2 1.4 4.2h4.4l-3.6 2.6 1.4 4.2-3.6-2.6-3.6 2.6 1.4-4.2-3.6-2.6zm-19.6 0h4.4l1.4-4.2 1.4 4.2h4.4l-3.6 2.6 1.4 4.2-3.6-2.6-3.6 2.6 1.4-4.2-3.6-2.6zm101.8 0h4.4l1.4-4.2 1.4 4.2h4.4l-3.6 2.6 1.4 4.2-3.6-2.6-3.6 2.6 1.4-4.2-3.6-2.6zm-20.8 0h4.4l1.4-4.2 1.4 4.2h4.4l-3.6 2.6 1.4 4.2-3.6-2.6-3.6 2.6 1.4-4.2-3.6-2.6zm-19.7 0h4.4l1.4-4.2 1.4 4.2h4.4l-3.6 2.6 1.4 4.2-3.6-2.6-3.6 2.6 1.4-4.2-3.6-2.6zm-21-16.6h4.4l1.4-4.2 1.4 4.2h4.4l-3.6 2.6 1.4 4.2-3.6-2.6-3.6 2.6 1.4-4.2-3.6-2.6zm-20.7 0h4.4l1.4-4.2 1.4 4.2h4.4l-3.6 2.6 1.4 4.2-3.6-2.6-3.6 2.6 1.4-4.2-3.6-2.6zm-19.6 0h4.4l1.4-4.2 1.4 4.2h4.4l-3.6 2.6 1.4 4.2-3.6-2.6-3.6 2.6 1.4-4.2-3.6-2.6zm101.8 0h4.4l1.4-4.2 1.4 4.2h4.4l-3.6 2.6 1.4 4.2-3.6-2.6-3.6 2.6 1.4-4.2-3.6-2.6zm-20.8 0h4.4l1.4-4.2 1.4 4.2h4.4l-3.6 2.6 1.4 4.2-3.6-2.6-3.6 2.6 1.4-4.2-3.6-2.6zm-19.7 0h4.4l1.4-4.2 1.4 4.2h4.4l-3.6 2.6 1.4 4.2-3.6-2.6-3.6 2.6 1.4-4.2-3.6-2.6zm-12.3-14.9h4.4l1.4-4.2 1.4 4.2h4.4l-3.6 2.6 1.4 4.2-3.6-2.6-3.6 2.6 1.4-4.2-3.6-2.6z"/><path class="st8" d="M353.5 538c.4.7-.2 1.6.5 2.1 3.1 1.9 17.7 11.7 20.2 30.4 0 0 2.7 15.5 10 17.8 0 0 3.2 2.3 5.9-8.7 0 0 2.3-11.4-2.3-15.1 0 0-9.1-5.5-11.4-11.4 0 0-14.2-18.6-21.9-18.6 0 0-1.8 1.9-1 3.5z"/><path class="st0" d="M384.8 574.3s-.8 2.7-.8 3.7.2 4.9.2 4.9.2 1.7 1.2.3c1-1.3.5-3 .5-3.7s-.2-2.7 0-3.7c.1-1-.4-1.7-1.1-1.5z"/><path class="st16" d="M344.2 451.3s-12.3 20.3-2.7 33.6m7-25.1s-6.4 10.1-3.2 16.6"/></svg>