<svg width="509" height="644" viewBox="0 0 509 644" fill="none" xmlns="http://www.w3.org/2000/svg"><g clip-path="url(#clip0_2_3222)"><path d="M417.5 502C545.906 502 650 397.906 650 269.5S545.906 37 417.5 37 185 141.094 185 269.5 289.094 502 417.5 502z" stroke="url(#paint0_linear_2_3222)" stroke-width="15" stroke-miterlimit="10" style="mix-blend-mode:screen"/><path d="M414 460c106.039 0 192-86.409 192-193S520.039 74 414 74s-192 86.409-192 193 85.961 193 192 193z" stroke="url(#paint1_linear_2_3222)" stroke-width="15" stroke-miterlimit="10" style="mix-blend-mode:screen"/><path d="M410 415c83.395 0 151-67.605 151-151s-67.605-151-151-151-151 67.605-151 151 67.605 151 151 151z" stroke="url(#paint2_linear_2_3222)" stroke-width="15" stroke-miterlimit="10" style="mix-blend-mode:screen"/><path d="M165.5 400l7.5 4.747v9.5L165.5 419l-7.5-4.753v-9.5l7.5-4.747z" fill="#FFF0F3"/><path d="M140.12 335l5.88 10.025-5.123 10.503-10.997.472-5.88-10.004 5.118-10.503L140.12 335z" fill="#75B2DA" fill-opacity=".5"/><path d="M117 406l10 5.749v11.502L117 429l-10-5.749v-11.502L117 406z" fill="#00A2C4"/><path d="M188.96 502.076l4.04 12.995-9.46 9.929-13.5-3.076-4.04-12.995 9.471-9.929 13.489 3.076z" fill="#8FA9C9"/><path d="M328.352 581l8.648 7.814-2.352 11.5-11 3.686-8.648-7.814 2.357-11.5L328.352 581z" fill="#FFF0F3"/><path d="M261.505 584l9.997 1.639 3.498 9.003-6.5 7.358-10.002-1.634-3.498-9.003 6.505-7.363z" fill="#00BFE7"/><path opacity=".5" d="M330.201 555l8.006 1.459 2.793 7.986-5.196 6.555-8.005-1.459-2.799-7.992 5.201-6.549z" fill="#4D9CD0" fill-opacity=".5"/><path d="M86.474 559.581l15.5-3.581L113 566.916l-4.474 14.503-15.5 3.581L82 574.084l4.474-14.503z" fill="#0071BB"/><path d="M469.784 463.951L486.263 460 498 472.046l-4.784 15.998L476.737 492 465 479.954l4.784-16.003z" fill="#E21C3D"/><path d="M203.852 271l10.495.664 4.653 9-5.852 8.336-10.506-.643-4.642-9 5.852-8.357z" fill="#FFF0F3"/><path d="M432.068 407.736L454.557 403 470 419.775l-7.057 21.489-22.49 4.736L425 429.267l7.068-21.531z" fill="#EA7B85"/><path d="M436.484 390.528L455.971 389 467 405.47l-8.458 18.002L439.061 425 428 408.53l8.484-18.002z" fill="#00A2C4"/><path d="M154.457 498.728L164.488 496l7.512 6.775-2.474 9.497L159.523 515 152 508.225l2.457-9.497zM58.36 544.727L67.868 542 75 548.773l-2.36 9.5L63.138 561 56 554.227l2.36-9.5z" fill="#EA7B85"/><path d="M265 574.444L283.45 560l21.498 9.054L308 592.556 289.55 607l-21.503-9.054L265 574.444z" fill="#E21C3D"/><path d="M364.07 548l3.93 3.746-1.066 5.508-4.995 1.746-3.939-3.721 1.066-5.513L364.07 548z" fill="#CEDCED"/><path d="M117 376l14 8.515v16.97L117 410l-14-8.515v-16.986L117 376z" fill="#EA7B85"/><path d="M223.497 274L238 282.259v16.482L223.497 307 209 298.741v-16.497L223.497 274z" fill="#E21C3D"/><path opacity=".5" d="M119.49 309l6.51 4v8l-6.5 4-6.5-4v-8l6.49-4z" fill="#FFF0F3"/><path d="M77.003 363L82 365.499v5.002L77.003 373 72 370.501v-5.002L77.003 363z" fill="#E21C3D"/><path d="M136.646 360L152 374.243l-4.141 20.998-19.5 6.759L113 387.757l4.146-20.998 19.5-6.759z" fill="#FFF0F3"/><path d="M79.609 579.075l16-4.075L107 587.423l-4.645 16.502-16 4.075L75 595.577l4.609-16.502z" fill="#FFF0F2"/><path d="M54.229 513.528L73.263 512 84 528.472l-8.234 18L56.768 548 46 531.528l8.229-18z" fill="#E21C3D"/><path d="M78.869 486l18.995 5.219L103 510.711 89.126 525l-18.995-5.182L65 500.326 78.869 486z" fill="#fff" fill-opacity=".5"/><path d="M83.5 430l3.5 2.25v4.5L83.5 439l-3.5-2.25v-4.5l3.5-2.25z" fill="#00A2C4"/><path d="M388 305.282L398.173 299l10.498 5.712.329 12L398.827 323l-10.498-5.712-.329-12.006z" fill="#FFF0F2"/><path d="M315 272.67l6.287-3.67 6.513 3.328.2 7.002-6.287 3.67-6.513-3.328-.2-7.002z" fill="#CEDCED"/><path d="M367.722 281.098L387.725 274 404 287.394l-3.717 20.498L380.275 315 364 301.6l3.722-20.502z" fill="#00A2C4"/><path opacity=".5" d="M106.471 573.686l9.007-2.728 6.757 6.775L120 587.23l-8.998 2.728-6.767-6.77 2.236-9.502z" fill="#00A2C4"/><path d="M381.481 239l6.519 3.747v7.5L381.497 254 375 250.247v-7.5l6.481-3.747z" fill="#EA7B85"/><path d="M470.503 315l3.497 2v4l-3.497 2-3.503-2v-4l3.503-2z" fill="#205493"/><path d="M311.899 339l-72.374 42.9-.525 81.895L312.151 508 384 464.319v-83.462L311.899 339z" fill="url(#paint3_radial_2_3222)" style="mix-blend-mode:hard-light"/><g style="mix-blend-mode:overlay"><path style="mix-blend-mode:overlay" d="M239.333 462.864l.513-81.204 71.182 40.238.733 84.802-72.428-43.836z" fill="url(#paint4_linear_2_3222)"/><path d="M240.108 382.094l70.669 39.951.722 84.178-71.904-43.495.523-80.634h-.01zm-.513-.895L239.071 463l72.957 44.155-.738-85.419-71.716-40.537h.021z" fill="#FFF0F2"/></g><path d="M311.899 339l-72.374 42.9-.525 81.895L312.151 508 384 464.319v-83.462L311.899 339z" stroke="#00A2C4" stroke-width="2"/><path d="M312 343a4 4 0 100-8 4 4 0 000 8zm74 43a4 4 0 100-8 4 4 0 000 8zm0 82a4 4 0 100-8 4 4 0 000 8zm-146-82a4 4 0 100-8 4 4 0 000 8zm0 82a4 4 0 100-8 4 4 0 000 8zm72 42a4 4 0 100-8 4 4 0 000 8z" fill="#00A2C4"/><path d="M289.769 410.338l-82.753-47.778L311.292 303 414 362.56m0 0l-82.296 47.778M414 362.56v119.552M207 362.56v119.552m207 0l-82.296-48.445M414 482.112L311.292 541l-104.276-58.888 82.753-48.445" stroke="#00A2C4" stroke-width="2"/><path d="M311 311a6 6 0 100-12 6 6 0 000 12z" fill="#00A2C4"/><path d="M413.5 367a3.5 3.5 0 100-7 3.5 3.5 0 000 7z" fill="#00BFE7"/><path d="M413.5 484a3.5 3.5 0 100-7 3.5 3.5 0 000 7zm-206-117a3.5 3.5 0 100-7 3.5 3.5 0 000 7zm0 117a3.5 3.5 0 100-7 3.5 3.5 0 000 7zM311 545a6 6 0 100-12 6 6 0 000 12z" fill="#00A2C4"/><path d="M335.042 379H312v86c21.874-10.24 29.513-23.507 31.456-27.642a6.01 6.01 0 00.544-2.543V388.46c.002-2.503-.939-4.906-2.621-6.693a8.858 8.858 0 00-2.9-2.05 8.55 8.55 0 00-3.437-.717z" fill="#B51E23"/><path d="M287.503 379a9.719 9.719 0 00-3.663.735 9.573 9.573 0 00-3.095 2.058 9.348 9.348 0 00-2.051 3.065 9.185 9.185 0 00-.693 3.602v46.355c-.011.879.185 1.75.573 2.543 2.058 4.093 10.282 17.464 33.426 27.642v-86h-24.497z" fill="#E21D3E"/><path d="M315.768 416.629c1.39-1.286 2.4-3.03 2.894-4.995a11.325 11.325 0 00-.136-5.989c-.556-1.933-1.632-3.616-3.073-4.81-1.442-1.193-3.176-1.835-4.955-1.835s-3.514.642-4.955 1.835c-1.441 1.194-2.517 2.877-3.073 4.81a11.33 11.33 0 00-.128 5.993c.497 1.965 1.511 3.708 2.905 4.991l-2.805 18.563c2.638.524 5.311.791 7.988.797 2.725.064 5.45-.147 8.142-.631-.934-6.312-1.822-12.502-2.804-18.729z" fill="#fff"/></g><defs><linearGradient id="paint0_linear_2_3222" x1="177.162" y1="269.5" x2="657.838" y2="269.5" gradientUnits="userSpaceOnUse"><stop stop-color="#0071BB"/><stop offset="1" stop-color="#B7DDE9"/></linearGradient><linearGradient id="paint1_linear_2_3222" x1="214.181" y1="267" x2="613.814" y2="267" gradientUnits="userSpaceOnUse"><stop stop-color="#0071BB"/><stop offset="1" stop-color="#00A2C4"/></linearGradient><linearGradient id="paint2_linear_2_3222" x1="122623" y1="20724.5" x2="305355" y2="20724.5" gradientUnits="userSpaceOnUse"><stop stop-color="#0071BB"/><stop offset="1" stop-color="#B7DDE9"/></linearGradient><linearGradient id="paint4_linear_2_3222" x1="239.333" y1="444.177" x2="311.761" y2="444.177" gradientUnits="userSpaceOnUse"><stop stop-color="#fff" stop-opacity=".5"/><stop offset="1" stop-color="#FFF0F2"/></linearGradient><radialGradient id="paint3_radial_2_3222" cx="0" cy="0" r="1" gradientUnits="userSpaceOnUse" gradientTransform="scale(72.8721 84.9335) rotate(90 -.35 4.61)"><stop stop-color="#fff"/><stop offset="1" stop-color="#FFF0F3"/></radialGradient><clipPath id="clip0_2_3222"><path fill="#fff" d="M0 0h509v644H0z"/></clipPath></defs></svg>