<svg width="463" height="579" viewBox="0 0 25 25" fill="none" xmlns="http://www.w3.org/2000/svg"><path d="M371.5 473C499.906 473 604 368.906 604 240.5S499.906 8 371.5 8 139 112.094 139 240.5 243.094 473 371.5 473z" stroke="url(#a)" stroke-width="15" stroke-miterlimit="10" style="mix-blend-mode:screen"/><path d="M368 431c106.039 0 192-86.409 192-193S474.039 45 368 45s-192 86.409-192 193 85.961 193 192 193z" stroke="url(#b)" stroke-width="15" stroke-miterlimit="10" style="mix-blend-mode:screen"/><path d="M364 386c83.395 0 151-67.605 151-151S447.395 84 364 84s-151 67.605-151 151 67.605 151 151 151z" stroke="url(#c)" stroke-width="15" stroke-miterlimit="10" style="mix-blend-mode:screen"/><path d="M119.5 371l7.5 4.747v9.5L119.5 390l-7.5-4.753v-9.5l7.5-4.747z" fill="#FFF0F3"/><path d="M94.12 306l5.88 10.025-5.123 10.503L83.88 327 78 316.996l5.118-10.503L94.12 306z" fill="#75B2DA" fill-opacity=".5"/><path d="M71 377l10 5.749v11.502L71 400l-10-5.749v-11.502L71 377z" fill="#00A2C4"/><path d="M142.96 473.076l4.04 12.995-9.46 9.929-13.5-3.076-4.04-12.995 9.471-9.929 13.489 3.076z" fill="#8FA9C9"/><path d="M282.352 552l8.648 7.814-2.352 11.5-11 3.686-8.648-7.814 2.357-11.5L282.352 552z" fill="#FFF0F3"/><path d="M215.505 555l9.997 1.639 3.498 9.003-6.5 7.358-10.002-1.634-3.498-9.003 6.505-7.363z" fill="#00BFE7"/><path opacity=".5" d="M284.201 526l8.006 1.459 2.793 7.986-5.196 6.555-8.005-1.459-2.799-7.992 5.201-6.549z" fill="#4D9CD0" fill-opacity=".5"/><path d="M40.474 530.581l15.5-3.581L67 537.916l-4.474 14.503-15.5 3.581L36 545.084l4.474-14.503z" fill="#0071BB"/><path d="M423.784 434.951L440.263 431 452 443.046l-4.784 15.998L430.737 463 419 450.954l4.784-16.003z" fill="#E21C3D"/><path d="M157.852 242l10.495.664 4.653 9-5.852 8.336-10.506-.643-4.642-9 5.852-8.357z" fill="#FFF0F3"/><path d="M386.068 378.736L408.557 374 424 390.775l-7.057 21.489-22.49 4.736L379 400.267l7.068-21.531z" fill="#EA7B85"/><path d="M390.484 361.528L409.971 360 421 376.47l-8.458 18.002L393.061 396 382 379.53l8.484-18.002z" fill="#00A2C4"/><path d="M108.457 469.728L118.488 467l7.512 6.775-2.474 9.497L113.523 486 106 479.225l2.457-9.497zM12.36 515.727L21.868 513 29 519.773l-2.36 9.5L17.138 532 10 525.227l2.36-9.5z" fill="#EA7B85"/><path d="M219 545.444L237.45 531l21.498 9.054L262 563.556 243.55 578l-21.503-9.054L219 545.444z" fill="#E21C3D"/><path d="M318.07 519l3.93 3.746-1.066 5.508-4.995 1.746-3.939-3.721 1.066-5.513L318.07 519z" fill="#CEDCED"/><path d="M71 347l14 8.515v16.97L71 381l-14-8.515v-16.986L71 347z" fill="#EA7B85"/><path d="M177.497 245L192 253.259v16.482L177.497 278 163 269.741v-16.497L177.497 245z" fill="#E21C3D"/><path opacity=".5" d="M73.49 280l6.51 4v8l-6.5 4-6.5-4v-8l6.49-4z" fill="#FFF0F3"/><path d="M31.003 334L36 336.499v5.002L31.003 344 26 341.501v-5.002L31.003 334z" fill="#E21C3D"/><path d="M90.646 331L106 345.243l-4.141 20.998-19.5 6.759L67 358.757l4.146-20.998 19.5-6.759z" fill="#FFF0F3" style="mix-blend-mode:multiply"/><path d="M33.609 550.075l16-4.075L61 558.423l-4.645 16.502-16 4.075L29 566.577l4.609-16.502z" fill="#FFF0F2"/><path d="M8.229 484.528L27.263 483 38 499.472l-8.234 18L10.769 519 0 502.528l8.229-18z" fill="#E21C3D"/><path d="M32.869 457l18.995 5.219L57 481.711 43.126 496l-18.995-5.182L19 471.326 32.869 457z" fill="#fff" fill-opacity=".5" style="mix-blend-mode:overlay"/><path d="M37.5 401l3.5 2.25v4.5L37.5 410l-3.5-2.25v-4.5l3.5-2.25z" fill="#00A2C4"/><path d="M342 276.282L352.173 270l10.498 5.712.329 12L352.827 294l-10.498-5.712-.329-12.006z" fill="#FFF0F2"/><path d="M269 243.67l6.287-3.67 6.513 3.328.2 7.002-6.287 3.67-6.513-3.328-.2-7.002z" fill="#CEDCED"/><path d="M321.722 252.098L341.725 245 358 258.394l-3.717 20.498L334.275 286 318 272.6l3.722-20.502z" fill="#00A2C4" style="mix-blend-mode:multiply"/><path opacity=".5" d="M60.47 544.686l9.008-2.728 6.757 6.775L74 558.23l-8.998 2.728-6.767-6.77 2.236-9.502z" fill="#00A2C4"/><path d="M335.481 210l6.519 3.747v7.5L335.497 225 329 221.247v-7.5l6.481-3.747z" fill="#EA7B85"/><path d="M424.503 286l3.497 2v4l-3.497 2-3.503-2v-4l3.503-2z" fill="#205493"/><path d="M265.899 310l-72.374 42.9-.525 81.895L266.151 479 338 435.319v-83.462L265.899 310z" fill="url(#d)" style="mix-blend-mode:hard-light"/><g style="mix-blend-mode:overlay"><path style="mix-blend-mode:overlay" d="M193.333 433.864l.513-81.204 71.182 40.238.733 84.802-72.428-43.836z" fill="url(#e)"/><path d="M194.108 353.094l70.669 39.951.722 84.178-71.904-43.495.523-80.634h-.01zm-.513-.895L193.071 434l72.957 44.155-.738-85.419-71.716-40.537h.021z" fill="#FFF0F2" style="mix-blend-mode:overlay"/></g><path d="M265.899 310l-72.374 42.9-.525 81.895L266.151 479 338 435.319v-83.462L265.899 310z" stroke="#00A2C4" stroke-width="2"/><path d="M266 314a4 4 0 100-8 4 4 0 000 8zm74 43a4 4 0 100-8 4 4 0 000 8zm0 82a4 4 0 100-8 4 4 0 000 8zm-146-82a4 4 0 100-8 4 4 0 000 8zm0 82a4 4 0 100-8 4 4 0 000 8zm72 42a4 4 0 100-8 4 4 0 000 8z" fill="#00A2C4"/><path d="M243.769 381.338l-82.753-47.778L265.292 274 368 333.56m0 0l-82.296 47.778M368 333.56v119.552M161 333.56v119.552m207 0l-82.296-48.445M368 453.112L265.292 512l-104.276-58.888 82.753-48.445" stroke="#00A2C4" stroke-width="2"/><path d="M265 282a6 6 0 100-12 6 6 0 000 12z" fill="#00A2C4"/><path d="M367.5 338a3.5 3.5 0 100-7 3.5 3.5 0 000 7z" fill="#00BFE7"/><path d="M367.5 455a3.5 3.5 0 100-7 3.5 3.5 0 000 7zm-206-117a3.5 3.5 0 100-7 3.5 3.5 0 000 7zm0 117a3.5 3.5 0 100-7 3.5 3.5 0 000 7zM265 516a6 6 0 100-12 6 6 0 000 12z" fill="#00A2C4"/><path d="M289.042 350H266v86c21.874-10.24 29.513-23.507 31.456-27.642a6.01 6.01 0 00.544-2.543V359.46c.002-2.503-.939-4.906-2.621-6.693a8.858 8.858 0 00-2.9-2.05 8.55 8.55 0 00-3.437-.717z" fill="#B51E23"/><path d="M241.503 350a9.719 9.719 0 00-3.663.735 9.573 9.573 0 00-3.095 2.058 9.348 9.348 0 00-2.051 3.065 9.185 9.185 0 00-.693 3.602v46.355c-.011.879.185 1.75.573 2.543 2.058 4.093 10.282 17.464 33.426 27.642v-86h-24.497z" fill="#E21D3E"/><path d="M269.768 387.629c1.39-1.286 2.4-3.03 2.894-4.995a11.325 11.325 0 00-.136-5.989c-.556-1.933-1.632-3.616-3.073-4.81-1.442-1.193-3.176-1.835-4.955-1.835s-3.514.642-4.955 1.835c-1.441 1.194-2.517 2.877-3.073 4.81a11.33 11.33 0 00-.128 5.993c.497 1.965 1.511 3.708 2.905 4.991l-2.805 18.563c2.638.524 5.311.791 7.988.797 2.725.064 5.45-.147 8.142-.631-.934-6.312-1.822-12.502-2.804-18.729z" fill="#fff"/><defs><linearGradient id="a" x1="131.162" y1="240.5" x2="611.838" y2="240.5" gradientUnits="userSpaceOnUse"><stop stop-color="#0071BB"/><stop offset="1" stop-color="#B7DDE9"/></linearGradient><linearGradient id="b" x1="168.181" y1="238" x2="567.814" y2="238" gradientUnits="userSpaceOnUse"><stop stop-color="#0071BB"/><stop offset="1" stop-color="#00A2C4"/></linearGradient><linearGradient id="c" x1="122577" y1="20695.5" x2="305309" y2="20695.5" gradientUnits="userSpaceOnUse"><stop stop-color="#0071BB"/><stop offset="1" stop-color="#B7DDE9"/></linearGradient><linearGradient id="e" x1="193.333" y1="415.177" x2="265.761" y2="415.177" gradientUnits="userSpaceOnUse"><stop stop-color="#fff" stop-opacity=".5"/><stop offset="1" stop-color="#FFF0F2"/></linearGradient><radialGradient id="d" cx="0" cy="0" r="1" gradientUnits="userSpaceOnUse" gradientTransform="matrix(0 84.9335 -72.8721 0 264.464 392.161)"><stop stop-color="#fff"/><stop offset="1" stop-color="#FFF0F3"/></radialGradient></defs></svg>