<svg id="Layer_1" data-name="Layer 1" xmlns="http://www.w3.org/2000/svg" xmlns:xlink="http://www.w3.org/1999/xlink" viewBox="0 0 463 579"><defs><linearGradient id="linear-gradient" x1="131.5" y1="339.5" x2="612.176" y2="339.5" gradientTransform="matrix(1 0 0 -1 0 580)" gradientUnits="userSpaceOnUse"><stop offset="0" stop-color="#0071bb"/><stop offset="1" stop-color="#b7dde9"/></linearGradient><linearGradient id="linear-gradient-2" x1="168.5" y1="342" x2="568.133" y2="342" gradientTransform="matrix(1 0 0 -1 0 580)" gradientUnits="userSpaceOnUse"><stop offset="0" stop-color="#0071bb"/><stop offset="1" stop-color="#00a2c4"/></linearGradient><linearGradient id="linear-gradient-3" x1="122577" y1="345" x2="305309" y2="345" xlink:href="#linear-gradient"/><linearGradient id="linear-gradient-4" x1="193.333" y1="164.82" x2="265.761" y2="164.82" gradientTransform="matrix(1 0 0 -1 0 580)" gradientUnits="userSpaceOnUse"><stop offset="0" stop-color="#fff" stop-opacity=".5"/><stop offset="1" stop-color="#fff0f2"/></linearGradient><radialGradient id="radial-gradient" cx="-725.057" cy="839.99" r="1" gradientTransform="matrix(0 84.9335 72.8721 0 -60947.38 61973.75)" gradientUnits="userSpaceOnUse"><stop offset="0" stop-color="#fff"/><stop offset="1" stop-color="#fff0f3"/></radialGradient><style>.cls-21{fill:none}.cls-4{fill:#fff0f3}.cls-6{fill:#00a2c4}.cls-8{fill:#00bfe7}.cls-11{fill:#e21c3d}.cls-12{fill:#ea7b85}.cls-13{fill:#cedced}.cls-15{fill:#fff0f2}.cls-21{stroke:#00a2c4;stroke-width:2px}</style></defs><path d="M371.5 473C499.906 473 604 368.906 604 240.5S499.906 8 371.5 8 139 112.094 139 240.5 243.094 473 371.5 473z" stroke="url(#linear-gradient)" stroke-miterlimit="10" stroke-width="15" fill="none"/><path d="M368 431c106.039 0 192-86.409 192-193S474.039 45 368 45s-192 86.409-192 193 85.961 193 192 193z" stroke="url(#linear-gradient-2)" stroke-miterlimit="10" stroke-width="15" fill="none"/><path d="M364 386a151 151 0 10-151-151 151 151 0 00151 151z" stroke="url(#linear-gradient-3)" stroke-miterlimit="10" stroke-width="15" fill="none"/><path class="cls-4" d="M119.5 371l7.5 4.747v9.5L119.5 390l-7.5-4.753v-9.5z"/><path d="M94.12 306l5.88 10.025-5.123 10.503L83.88 327 78 316.996l5.118-10.503z" fill-opacity=".5" fill="#75b2da"/><path class="cls-6" d="M71 377l10 5.749v11.502L71 400l-10-5.749v-11.502z"/><path d="M142.96 473.076l4.04 12.995-9.46 9.929-13.5-3.076-4.04-12.995 9.471-9.929z" fill="#8fa9c9"/><path class="cls-4" d="M282.352 552l8.648 7.814-2.352 11.5-11 3.686-8.648-7.814 2.357-11.5z"/><path class="cls-8" d="M215.505 555l9.997 1.639 3.498 9.003-6.5 7.358-10.002-1.634-3.498-9.003z"/><path d="M284.201 526l8.006 1.459 2.793 7.986-5.196 6.555-8.005-1.459-2.799-7.992z" style="isolation:isolate" opacity=".5" fill="#4d9cd0" fill-opacity=".5"/><path d="M40.474 530.581l15.5-3.581L67 537.916l-4.474 14.503-15.5 3.581L36 545.084z" fill="#0071bb"/><path class="cls-11" d="M423.784 434.951L440.263 431 452 443.046l-4.784 15.998L430.737 463 419 450.954z"/><path class="cls-4" d="M157.852 242l10.495.664 4.653 9-5.852 8.336-10.506-.643-4.642-9z"/><path class="cls-12" d="M386.068 378.736L408.557 374 424 390.775l-7.057 21.489-22.49 4.736L379 400.267z"/><path class="cls-6" d="M390.484 361.528L409.971 360 421 376.47l-8.458 18.002L393.061 396 382 379.53z"/><path class="cls-12" d="M108.457 469.728L118.488 467l7.512 6.775-2.474 9.497L113.523 486 106 479.225zM12.36 515.727L21.868 513 29 519.773l-2.36 9.5L17.138 532 10 525.227z"/><path class="cls-11" d="M219 545.444L237.45 531l21.498 9.054L262 563.556 243.55 578l-21.503-9.054z"/><path class="cls-13" d="M318.07 519l3.93 3.746-1.066 5.508-4.995 1.746-3.939-3.721 1.066-5.513z"/><path class="cls-12" d="M71 347l14 8.515v16.97L71 381l-14-8.515v-16.986z"/><path class="cls-11" d="M177.497 245L192 253.259v16.482L177.497 278 163 269.741v-16.497z"/><path d="M73.49 280l6.51 4v8l-6.5 4-6.5-4v-8z" style="isolation:isolate" opacity=".5" fill="#fff0f3"/><path class="cls-11" d="M31.003 334L36 336.499v5.002L31.003 344 26 341.501v-5.002z"/><path class="cls-4" d="M90.646 331L106 345.243l-4.141 20.998-19.5 6.759L67 358.757l4.146-20.998z"/><path class="cls-15" d="M33.609 550.075l16-4.075L61 558.423l-4.645 16.502-16 4.075L29 566.577z"/><path class="cls-11" d="M8.229 484.528L27.263 483 38 499.472l-8.234 18L10.769 519 0 502.528z"/><path d="M32.869 457l18.995 5.219L57 481.711 43.126 496l-18.995-5.182L19 471.326z" fill="#fff" fill-opacity=".5"/><path class="cls-6" d="M37.5 401l3.5 2.25v4.5L37.5 410l-3.5-2.25v-4.5z"/><path class="cls-15" d="M342 276.282L352.173 270l10.498 5.712.329 12L352.827 294l-10.498-5.712z"/><path class="cls-13" d="M269 243.67l6.287-3.67 6.513 3.328.2 7.002-6.287 3.67-6.513-3.328z"/><path class="cls-6" d="M321.722 252.098L341.725 245 358 258.394l-3.717 20.498L334.275 286 318 272.6z"/><path d="M60.47 544.686l9.009-2.728 6.756 6.775L74 558.23l-8.998 2.728-6.767-6.77z" style="isolation:isolate" opacity=".5" fill="#00a2c4"/><path class="cls-12" d="M335.481 210l6.519 3.747v7.5L335.497 225 329 221.247v-7.5z"/><path d="M424.503 286l3.497 2v4l-3.497 2-3.503-2v-4z" fill="#205493"/><path d="M265.899 310l-72.374 42.9-.525 81.895L266.151 479 338 435.319v-83.462z" fill="url(#radial-gradient)"/><path d="M193.333 433.864l.513-81.204 71.182 40.238.733 84.802z" fill="url(#linear-gradient-4)"/><path class="cls-15" d="M194.108 353.094l70.669 39.951.722 84.178-71.904-43.495.523-80.634zm-.513-.895L193.071 434l72.957 44.155-.738-85.419-71.716-40.537z"/><path class="cls-21" d="M265.899 310l-72.374 42.9-.525 81.895L266.151 479 338 435.319v-83.462z"/><path class="cls-6" d="M266 314a4 4 0 10-4-4 4 4 0 004 4zM340 357a4 4 0 10-4-4 4 4 0 004 4zM340 439a4 4 0 10-4-4 4 4 0 004 4zM194 357a4 4 0 10-4-4 4 4 0 004 4zM194 439a4 4 0 10-4-4 4 4 0 004 4zM266 481a4 4 0 10-4-4 4 4 0 004 4z"/><path class="cls-21" d="M243.769 381.338l-82.753-47.778L265.292 274 368 333.56m0 0l-82.296 47.778M368 333.56v119.552M161 333.56v119.552m207 0l-82.296-48.445M368 453.112L265.292 512l-104.276-58.888 82.753-48.445"/><path class="cls-6" d="M265 282a6 6 0 10-6-6 6 6 0 006 6z"/><path class="cls-8" d="M367.5 338a3.5 3.5 0 10-3.5-3.5 3.5 3.5 0 003.5 3.5z"/><path class="cls-6" d="M367.5 455a3.5 3.5 0 10-3.5-3.5 3.5 3.5 0 003.5 3.5zM161.5 338a3.5 3.5 0 10-3.5-3.5 3.5 3.5 0 003.5 3.5zM161.5 455a3.5 3.5 0 10-3.5-3.5 3.5 3.5 0 003.5 3.5zM265 516a6 6 0 10-6-6 6 6 0 006 6z"/><path d="M289.042 350H266v86c21.874-10.24 29.513-23.507 31.456-27.642a6.01 6.01 0 00.544-2.543V359.46a9.758 9.758 0 00-2.621-6.693 8.857 8.857 0 00-2.9-2.05 8.55 8.55 0 00-3.437-.717z" fill="#b51e23"/><path d="M241.503 350a9.72 9.72 0 00-3.663.735 9.573 9.573 0 00-3.095 2.058 9.348 9.348 0 00-2.051 3.065 9.185 9.185 0 00-.693 3.602v46.355a5.626 5.626 0 00.573 2.543c2.058 4.093 10.282 17.464 33.426 27.642v-86z" fill="#e21d3e"/><path d="M269.768 387.629a10.163 10.163 0 002.894-4.995 11.325 11.325 0 00-.136-5.989 9.707 9.707 0 00-3.073-4.81 7.607 7.607 0 00-9.91 0 9.707 9.707 0 00-3.073 4.81 11.329 11.329 0 00-.128 5.993 10.147 10.147 0 002.905 4.991l-2.805 18.563a41.462 41.462 0 007.988.797 40.6 40.6 0 008.142-.631c-.934-6.312-1.822-12.502-2.804-18.729z" fill="#fff"/></svg>