<svg width="463" height="579" fill="none" xmlns="http://www.w3.org/2000/svg">
  <path d="M371.5 473C499.906 473 604 368.906 604 240.5S499.906 8 371.5 8 139 112.094 139 240.5 243.094 473 371.5 473Z" stroke="url(#a)" stroke-width="15" stroke-miterlimit="10" style="mix-blend-mode:screen"/>
  <path d="M368 431c106.039 0 192-86.409 192-193S474.039 45 368 45s-192 86.409-192 193 85.961 193 192 193Z" stroke="url(#b)" stroke-width="15" stroke-miterlimit="10" style="mix-blend-mode:screen"/>
  <path d="M364 386c83.395 0 151-67.605 151-151S447.395 84 364 84s-151 67.605-151 151 67.605 151 151 151Z" stroke="url(#c)" stroke-width="15" stroke-miterlimit="10" style="mix-blend-mode:screen"/>
  <path d="m119.5 371 7.5 4.747v9.5L119.5 390l-7.5-4.753v-9.5l7.5-4.747Z" fill="#FFF0F3"/>
  <path d="m94.12 306 5.88 10.025-5.123 10.503L83.88 327 78 316.996l5.118-10.503L94.12 306Z" fill="#75B2DA" fill-opacity=".5"/>
  <path d="m71 377 10 5.749v11.502L71 400l-10-5.749v-11.502L71 377Z" fill="#00A2C4"/>
  <path d="m142.96 473.076 4.04 12.995-9.46 9.929-13.5-3.076-4.04-12.995 9.471-9.929 13.489 3.076Z" fill="#8FA9C9"/>
  <path d="m282.352 552 8.648 7.814-2.352 11.5-11 3.686-8.648-7.814 2.357-11.5L282.352 552Z" fill="#FFF0F3"/>
  <path d="m215.505 555 9.997 1.639 3.498 9.003-6.5 7.358-10.002-1.634-3.498-9.003 6.505-7.363Z" fill="#00BFE7"/>
  <path opacity=".5" d="m284.201 526 8.006 1.459 2.793 7.986-5.196 6.555-8.005-1.459-2.799-7.992 5.201-6.549Z" fill="#4D9CD0" fill-opacity=".5"/>
  <path d="m40.474 530.581 15.5-3.581L67 537.916l-4.474 14.503-15.5 3.581L36 545.084l4.474-14.503Z" fill="#0071BB"/>
  <path d="M423.784 434.951 440.263 431 452 443.046l-4.784 15.998L430.737 463 419 450.954l4.784-16.003Z" fill="#E21C3D"/>
  <path d="m157.852 242 10.495.664 4.653 9-5.852 8.336-10.506-.643-4.642-9 5.852-8.357Z" fill="#FFF0F3"/>
  <path d="M386.068 378.736 408.557 374 424 390.775l-7.057 21.489-22.49 4.736L379 400.267l7.068-21.531Z" fill="#EA7B85"/>
  <path d="M390.484 361.528 409.971 360 421 376.47l-8.458 18.002L393.061 396 382 379.53l8.484-18.002Z" fill="#00A2C4"/>
  <path d="M108.457 469.728 118.488 467l7.512 6.775-2.474 9.497L113.523 486 106 479.225l2.457-9.497ZM12.36 515.727 21.868 513 29 519.773l-2.36 9.5L17.138 532 10 525.227l2.36-9.5Z" fill="#EA7B85"/>
  <path d="M219 545.444 237.45 531l21.498 9.054L262 563.556 243.55 578l-21.503-9.054L219 545.444Z" fill="#E21C3D"/>
  <path d="m318.07 519 3.93 3.746-1.066 5.508-4.995 1.746-3.939-3.721 1.066-5.513L318.07 519Z" fill="#CEDCED"/>
  <path d="m71 347 14 8.515v16.97L71 381l-14-8.515v-16.986L71 347Z" fill="#EA7B85"/>
  <path d="M177.497 245 192 253.259v16.482L177.497 278 163 269.741v-16.497L177.497 245Z" fill="#E21C3D"/>
  <path opacity=".5" d="m73.49 280 6.51 4v8l-6.5 4-6.5-4v-8l6.49-4Z" fill="#FFF0F3"/>
  <path d="M31.003 334 36 336.499v5.002L31.003 344 26 341.501v-5.002L31.003 334Z" fill="#E21C3D"/>
  <path d="M90.646 331 106 345.243l-4.141 20.998-19.5 6.759L67 358.757l4.146-20.998 19.5-6.759Z" fill="#FFF0F3" style="mix-blend-mode:multiply"/>
  <path d="m33.609 550.075 16-4.075L61 558.423l-4.645 16.502-16 4.075L29 566.577l4.609-16.502Z" fill="#FFF0F2"/>
  <path d="M8.229 484.528 27.263 483 38 499.472l-8.234 18L10.769 519 0 502.528l8.229-18Z" fill="#E21C3D"/>
  <path d="m32.869 457 18.995 5.219L57 481.711 43.126 496l-18.995-5.182L19 471.326 32.869 457Z" fill="#fff" fill-opacity=".5" style="mix-blend-mode:overlay"/>
  <path d="m37.5 401 3.5 2.25v4.5L37.5 410l-3.5-2.25v-4.5l3.5-2.25Z" fill="#00A2C4"/>
  <path d="M342 276.282 352.173 270l10.498 5.712.329 12L352.827 294l-10.498-5.712-.329-12.006Z" fill="#FFF0F2"/>
  <path d="m269 243.67 6.287-3.67 6.513 3.328.2 7.002-6.287 3.67-6.513-3.328-.2-7.002Z" fill="#CEDCED"/>
  <path d="M321.722 252.098 341.725 245 358 258.394l-3.717 20.498L334.275 286 318 272.6l3.722-20.502Z" fill="#00A2C4" style="mix-blend-mode:multiply"/>
  <path opacity=".5" d="m60.47 544.686 9.008-2.728 6.757 6.775L74 558.23l-8.998 2.728-6.767-6.77 2.236-9.502Z" fill="#00A2C4"/>
  <path d="m335.481 210 6.519 3.747v7.5L335.497 225 329 221.247v-7.5l6.481-3.747Z" fill="#EA7B85"/>
  <path d="m424.503 286 3.497 2v4l-3.497 2-3.503-2v-4l3.503-2Z" fill="#205493"/>
  <path d="m265.899 310-72.374 42.9-.525 81.895L266.151 479 338 435.319v-83.462L265.899 310Z" fill="url(#d)" style="mix-blend-mode:hard-light"/>
  <g style="mix-blend-mode:overlay">
    <path style="mix-blend-mode:overlay" d="m193.333 433.864.513-81.204 71.182 40.238.733 84.802-72.428-43.836Z" fill="url(#e)"/>
    <path d="m194.108 353.094 70.669 39.951.722 84.178-71.904-43.495.523-80.634h-.01Zm-.513-.895L193.071 434l72.957 44.155-.738-85.419-71.716-40.537h.021Z" fill="#FFF0F2" style="mix-blend-mode:overlay"/>
  </g>
  <path d="m265.899 310-72.374 42.9-.525 81.895L266.151 479 338 435.319v-83.462L265.899 310Z" stroke="#00A2C4" stroke-width="2"/>
  <path d="M266 314a4 4 0 1 0 0-8 4 4 0 0 0 0 8Zm74 43a4 4 0 1 0 0-8 4 4 0 0 0 0 8Zm0 82a4 4 0 1 0 0-8 4 4 0 0 0 0 8Zm-146-82a4 4 0 1 0 0-8 4 4 0 0 0 0 8Zm0 82a4 4 0 1 0 0-8 4 4 0 0 0 0 8Zm72 42a4 4 0 1 0 0-8 4 4 0 0 0 0 8Z" fill="#00A2C4"/>
  <path d="m243.769 381.338-82.753-47.778L265.292 274 368 333.56m0 0-82.296 47.778M368 333.56v119.552M161 333.56v119.552m207 0-82.296-48.445M368 453.112 265.292 512l-104.276-58.888 82.753-48.445" stroke="#00A2C4" stroke-width="2"/>
  <path d="M265 282a6 6 0 1 0 0-12 6 6 0 0 0 0 12Z" fill="#00A2C4"/>
  <path d="M367.5 338a3.5 3.5 0 1 0 0-7 3.5 3.5 0 0 0 0 7Z" fill="#00BFE7"/>
  <path d="M367.5 455a3.5 3.5 0 1 0 0-7 3.5 3.5 0 0 0 0 7Zm-206-117a3.5 3.5 0 1 0 0-7 3.5 3.5 0 0 0 0 7Zm0 117a3.5 3.5 0 1 0 0-7 3.5 3.5 0 0 0 0 7ZM265 516a6 6 0 1 0 0-12 6 6 0 0 0 0 12Z" fill="#00A2C4"/>
  <path d="M289.042 350H266v86c21.874-10.24 29.513-23.507 31.456-27.642a6.01 6.01 0 0 0 .544-2.543V359.46c.002-2.503-.939-4.906-2.621-6.693a8.858 8.858 0 0 0-2.9-2.05 8.55 8.55 0 0 0-3.437-.717Z" fill="#B51E23"/>
  <path d="M241.503 350a9.719 9.719 0 0 0-3.663.735 9.573 9.573 0 0 0-3.095 2.058 9.348 9.348 0 0 0-2.051 3.065 9.185 9.185 0 0 0-.693 3.602v46.355c-.011.879.185 1.75.573 2.543 2.058 4.093 10.282 17.464 33.426 27.642v-86h-24.497Z" fill="#E21D3E"/>
  <path d="M269.768 387.629c1.39-1.286 2.4-3.03 2.894-4.995a11.325 11.325 0 0 0-.136-5.989c-.556-1.933-1.632-3.616-3.073-4.81-1.442-1.193-3.176-1.835-4.955-1.835s-3.514.642-4.955 1.835c-1.441 1.194-2.517 2.877-3.073 4.81a11.33 11.33 0 0 0-.128 5.993c.497 1.965 1.511 3.708 2.905 4.991l-2.805 18.563c2.638.524 5.311.791 7.988.797 2.725.064 5.45-.147 8.142-.631-.934-6.312-1.822-12.502-2.804-18.729Z" fill="#fff"/>
  <defs>
    <linearGradient id="a" x1="131.162" y1="240.5" x2="611.838" y2="240.5" gradientUnits="userSpaceOnUse">
      <stop stop-color="#0071BB"/>
      <stop offset="1" stop-color="#B7DDE9"/>
    </linearGradient>
    <linearGradient id="b" x1="168.181" y1="238" x2="567.814" y2="238" gradientUnits="userSpaceOnUse">
      <stop stop-color="#0071BB"/>
      <stop offset="1" stop-color="#00A2C4"/>
    </linearGradient>
    <linearGradient id="c" x1="122577" y1="20695.5" x2="305309" y2="20695.5" gradientUnits="userSpaceOnUse">
      <stop stop-color="#0071BB"/>
      <stop offset="1" stop-color="#B7DDE9"/>
    </linearGradient>
    <linearGradient id="e" x1="193.333" y1="415.177" x2="265.761" y2="415.177" gradientUnits="userSpaceOnUse">
      <stop stop-color="#fff" stop-opacity=".5"/>
      <stop offset="1" stop-color="#FFF0F2"/>
    </linearGradient>
    <radialGradient id="d" cx="0" cy="0" r="1" gradientUnits="userSpaceOnUse" gradientTransform="matrix(0 84.9335 -72.8721 0 264.464 392.161)">
      <stop stop-color="#fff"/>
      <stop offset="1" stop-color="#FFF0F3"/>
    </radialGradient>
  </defs>
</svg>
