<svg width="200" height="202" viewBox="0 0 200 202" fill="none" xmlns="http://www.w3.org/2000/svg">
<g clip-path="url(#clip0_10_1308)">
<path d="M97.4839 0.748242C94.0088 0.846165 91.9913 3.00016 92.0609 5.61615C92.2431 11.9255 100.453 10.3307 100.565 14.5695C100.635 16.7659 99.0804 17.8012 97.0631 17.8711C96.0123 17.899 94.0367 17.4097 93.4763 16.3885C93.1119 15.689 92.7617 14.6395 92.5516 13.3384L91.7248 13.5624L92.1172 17.6472C93.3781 18.5146 95.5354 18.8502 97.2309 18.8223C100.845 18.6964 102.849 16.4585 102.793 13.3107C102.64 8.3304 94.402 9.71503 94.2766 4.97261C94.2209 3.08391 95.5084 1.92287 97.3588 1.86694C99.4322 1.79699 100.287 3.33582 100.721 5.15432L101.562 5.02823L101.099 1.18154C99.8946 1.09761 98.6898 0.719879 97.4848 0.747844L97.4839 0.748242ZM107.935 1.46184L107.823 2.28683L110.163 3.0564L107.978 17.6891L105.512 17.745L105.386 18.5847L117.868 20.4315L119.508 16.4162L118.611 16.2765L117.224 18.7944L110.401 17.7732L111.424 11.1005L115.963 11.7717L116.117 13.7163L116.846 13.8424C116.916 12.4854 117.252 10.1771 117.602 8.87595L116.888 8.7917L116.145 10.5406L111.606 9.86944L112.573 3.56013L117.995 4.35741L118.303 6.84763L119.046 6.97317L119.256 3.15403L107.935 1.46164L107.935 1.46184ZM131.686 6.73797C128.125 6.76599 125.496 8.80083 124.076 12.5411C121.75 18.6965 124.931 22.6698 130.241 24.6422C131.754 25.2296 133.449 25.6353 135.299 25.8172L138.17 23.3128L137.764 22.6411C135.733 24.306 133.351 24.642 130.913 23.7188C126.598 22.124 124.959 17.1293 126.752 12.359C128.391 8.05014 131.6 7.05702 135.761 8.63783C140.23 10.3026 140.72 12.6111 140.174 14.8216L140.972 15.1293L142.289 10.8482C140.636 9.64511 137.946 8.26045 136.279 7.64485C134.616 7.02318 133.08 6.72681 131.686 6.73777L131.686 6.73797ZM66.4382 7.00155L59.5594 9.49177L59.8675 10.3032L62.2629 9.86949L67.3208 23.7467L65.1633 24.9918L65.4713 25.7891L77.0716 21.5923L76.4549 16.6401L75.6848 16.92L75.4747 20.5432L69.5203 22.7112L64.5886 9.02961L66.7043 7.79864L66.4381 7.00136L66.4382 7.00155ZM147.473 12.8771L147.025 13.5901L148.776 15.283L143.214 23.5087C141.001 26.6283 141.337 30.1956 145.694 33.1054C150.317 36.225 153.834 34.5607 156.552 30.5598L161.203 23.6909L163.457 24.7121L163.948 23.9986L158.274 20.1517L157.783 20.8512L159.564 22.5859L154.785 29.6081C154.042 30.7413 152.809 32.5321 151.366 32.9656C149.545 33.5112 147.625 32.7836 146.617 32.0982C143.464 29.9719 143.619 27.146 145.748 24.1244L150.806 16.6402L153.062 17.6473L153.524 16.9761L147.471 12.8773L147.473 12.8771ZM46.7277 16.0804L45.649 16.7657L48.9136 34.0989L47.3722 35.5821L47.8065 36.3234L53.0746 32.994L52.6261 32.2804L50.3287 33.2038L49.1236 27.8876L54.4755 24.5301L59.0285 27.7616L57.2073 29.3844L57.6416 30.098L63.7222 26.2788L63.2873 25.5794L61.2561 26.3489L46.7275 16.0805L46.7277 16.0804ZM47.469 19.5642L53.3545 23.7468L48.8846 26.5589L47.469 19.5642ZM35.5045 24.3484L30.0687 29.2027L30.6288 29.8184L32.7303 28.5309L42.6214 39.5131L41.0806 41.4576L41.6689 42.0729L47.1047 37.2186L46.5446 36.5892L44.4432 37.8903L34.5378 26.8945L36.0928 24.95L35.5044 24.3483L35.5045 24.3484ZM167.857 27.6642L167.241 28.2093L168.656 30.3778L157.784 40.4083H157.783L155.71 38.8132L155.093 39.4012L160.123 44.8565L160.768 44.2554L159.409 42.1989L163.878 38.0717C164.537 38.7852 165.153 39.4012 165.755 39.9467C165.111 42.6607 164.564 45.584 164.186 48.4799C164.186 48.7037 164.663 49.5573 164.929 50.075L165.853 51.7674L166.568 51.4739C165.98 49.8651 166.414 47.9625 166.68 46.4516L167.675 41.2052C169.678 41.6809 171.99 41.4853 173.545 40.0444C175.73 38.0438 175.044 35.4558 173.391 33.6374L167.856 27.6614L167.857 27.6642ZM170.449 32.0423C170.786 32.2523 171.135 32.5603 171.471 32.938C173.391 34.9944 173.167 37.0927 171.136 38.9674C168.572 41.3316 167.465 40.3523 165.391 38.1L165.308 38.0022L165.209 37.8902L165.167 37.8478L165.111 37.7924L165.069 37.75L165.027 37.694L164.985 37.6521L164.943 37.5962L164.901 37.5543L164.859 37.4983L164.817 37.4565L164.775 37.4146L164.747 37.3723L164.719 37.3304L170.449 32.0423L170.449 32.0423ZM26.6769 33.0499C25.0378 34.281 22.9221 36.4075 21.8155 37.7924C17.8508 42.7168 18.3555 47.4311 22.7266 50.8865C27.9102 54.9714 32.6593 53.1945 36.1759 48.7599C37.1705 47.5008 38.0535 46.0178 38.796 44.3249L37.3112 40.8141L36.5405 40.9956C37.5073 43.4298 37.1008 45.7801 35.5037 47.8364C32.6317 51.4458 27.3921 51.4739 23.3854 48.2984C19.7707 45.4306 19.8265 42.0731 22.5864 38.5896C25.5425 34.8684 27.9104 35.0921 29.8296 36.3233L30.376 35.6379L26.6772 33.0499L26.6769 33.0499ZM181.432 43.1642L180.717 43.612L181.712 45.8919L169.341 54.0202L167.646 52.2436L166.931 52.6909L170.98 58.8046L171.694 58.3426L170.7 56.0627L183.028 47.9344V47.9349L184.724 49.7116L185.438 49.2496L181.431 43.1643L181.432 43.1642ZM128.183 44.5349C117.689 44.4356 114.422 48.5082 114.422 48.5082H114.423L114.142 49.1799L113.876 49.837L113.61 50.4669L113.344 51.0962L113.078 51.6978L112.825 52.2995L112.559 52.8587L112.293 53.4185L112.027 53.9641L111.76 54.4816L111.494 54.9712L111.228 55.4609L110.947 55.9229L110.667 56.3566L110.373 56.7762L110.079 57.168L109.771 57.5457L109.463 57.9093L109.14 58.231L108.804 58.5386L108.468 58.8185L108.117 59.0843L107.753 59.3223L107.375 59.5321L106.969 59.7136L106.562 59.8675L106.142 60.0077L105.708 60.1055L105.245 60.1892L104.783 60.2316L104.292 60.2593L103.774 60.2452C93.2527 59.7555 91.6275 53.5304 91.5297 52.6773C91.3756 51.4742 93.6029 50.1729 93.6029 50.1729C93.0144 50.1729 88.5032 50.4532 82.801 48.7604C74.9135 46.4801 74.8856 51.88 74.8856 51.88C74.8856 51.88 65.1903 49.3476 63.9015 54.2719C63.2851 56.5801 63.8318 59.8816 63.8318 59.8816C63.8318 59.8816 70.8646 56.1465 76.2725 60.5811C80.896 64.4281 81.8488 67.6041 88.5037 75.2143C91.9082 79.0613 100.51 91.7214 111.396 86.0139C111.396 86.0139 109.911 83.1604 102.64 78.32C99.4594 76.2216 94.5838 74.067 91.4738 71.5772C88.5737 69.2269 87.3966 68.2898 81.6102 61.631C79.1724 58.833 71.7611 55.0698 67.474 56.4968C67.0818 56.6367 67.0119 56.9867 66.6756 57.2245C66.6756 57.2245 66.5494 55.3495 66.8296 54.6082C67.2359 53.559 71.5793 53.2514 76.791 54.7343C76.791 54.7343 75.7824 50.6071 79.8734 51.3205C84.0064 52.048 88.0552 53.4469 89.3162 53.0972C89.3162 53.0972 89.3999 62.6101 104.391 63.5754C111.76 64.037 114.787 56.0212 116.636 52.9575C117.196 52.0481 118.485 50.2714 119.816 49.9217C129.497 47.3476 147.289 47.5296 158.119 65.8419C162.617 73.55 169.622 89.5258 172.578 94.5473C179.919 107.11 185.411 104.829 190.105 100.521C190.105 100.521 183.156 104.382 176.963 90.1408C174.161 83.6776 164.536 62.6098 157.279 56.0899C153.651 52.7883 148.368 47.7799 138.786 45.7795C134.627 44.9165 131.122 44.5616 128.184 44.5338L128.183 44.5349ZM66.3013 46.5751C57.4417 46.7471 50.5828 51.1759 44.4425 56.706C36.4569 63.9105 31.4277 76.5709 26.6223 86.8251C21.9849 96.6736 20.0791 97.9884 16.0024 100.213L15.8342 100.311L15.6802 100.395L15.512 100.465L15.3444 100.534L15.1898 100.604L15.0216 100.674L14.8676 100.73L14.7136 100.786L14.4055 100.884L14.111 100.968L13.8171 101.038L13.5227 101.094L13.2424 101.122L12.9762 101.15L12.7101 101.164L12.458 101.178H12.2197L11.996 101.164L11.7717 101.136L11.5475 101.108L11.3515 101.08L11.155 101.038L10.9733 101.01L10.8051 100.954L10.6505 100.912L10.5106 100.87L10.3707 100.828L10.2445 100.772L10.1465 100.73L10.0485 100.689L9.96416 100.66L9.9081 100.619L9.85204 100.59L9.81013 100.577L9.78237 100.563C9.78237 100.563 13.2008 104.41 16.3111 104.284C24.8571 103.976 31.0355 89.8325 33.305 85.188C36.3033 79.0187 41.641 65.267 50.5233 57.587C58.2568 50.9418 66.2845 49.1932 68.8062 48.9695C74.0739 48.5778 74.2419 47.5004 74.2419 47.5004C71.4193 46.8119 68.7822 46.5267 66.3015 46.5749L66.3013 46.5751ZM78.5573 52.9147V52.9288H78.5708V52.9424L78.585 52.9566L78.5992 52.9707L78.6133 52.9984L78.6269 53.0126L78.6552 53.0544L78.683 53.0968L78.7249 53.1528L78.7673 53.2087L78.8092 53.2642L78.8512 53.3343L78.8931 53.4044L78.9355 53.4881L78.9916 53.5723L79.0335 53.656L79.0896 53.7403L79.1456 53.8381L79.1875 53.9218L79.2436 54.0337L79.2855 54.1316L79.3274 54.2299L79.3699 54.3414L79.4118 54.4397L79.4537 54.5517L79.4814 54.6636L79.5097 54.7751L79.5375 54.887L79.5658 54.999L79.5799 55.1109L79.5936 55.2229V55.3348V55.4468C79.5936 55.4468 81.0509 54.2157 84.1613 54.2718C84.1613 54.2718 79.9444 53.0967 78.5574 52.9147L78.5573 52.9147ZM187.752 53.0968L183.647 54.3696L184.025 55.1669L186.883 54.8174C187.262 55.5028 187.626 56.2439 188.004 57.0413L189.265 59.8393L175.886 65.8408L174.344 63.5049L173.56 63.8408L176.838 71.087L177.609 70.7375L176.867 68.0653L190.246 62.0637L191.549 64.9181C191.914 65.7855 192.25 66.6105 192.53 67.366L190.246 69.0165L190.624 69.8562L194.421 67.9116L187.752 53.0969L187.752 53.0968ZM128.952 53.2006C124.763 53.2271 121.875 53.9924 121.875 53.9924C121.595 54.1463 120.895 54.5242 120.614 54.9718C119.564 56.7624 118.12 59.6583 118.12 59.6583C140.046 60.7354 144.459 87.4416 144.459 87.4416L144.936 87.6655L145.412 87.8889L145.874 88.1128L146.323 88.3508L146.757 88.5742L147.192 88.8122L147.598 89.0503L148.004 89.2737L148.397 89.4976L148.774 89.7356L149.139 89.959L149.49 90.1688L149.84 90.3927L150.162 90.6025L150.47 90.7987L150.764 91.0079L151.045 91.19L151.311 91.3856L151.563 91.5536L151.787 91.7215L152.011 91.8753L152.207 92.0296L152.39 92.1693L152.544 92.2954L152.698 92.4074L152.824 92.5052L152.936 92.5889L153.02 92.659L153.09 92.715L153.146 92.7568L153.174 92.7851L153.188 92.7987C153.187 92.7959 148.06 76.1094 141.742 67.6605C136.194 60.274 127.494 57.7279 127.494 57.7279C139.893 57.0145 143.871 62.2466 148.158 68.192C152.599 74.2634 159.324 95.3873 163.583 99.655C166.68 102.802 171.751 103.39 171.751 103.39C170.547 101.754 165.517 93.6257 161.51 83.5952C156.705 71.4268 150.878 61.6347 145.904 58.1509C140.122 54.0938 133.701 53.1756 128.952 53.2062L128.952 53.2006ZM16.2574 53.9555C12.9465 53.9287 10.06 55.7325 8.23973 59.6854C5.9561 64.6098 7.86171 69.1424 13.0176 71.5066C17.5429 73.577 22.306 72.4159 24.9258 66.6523L25.1217 66.2045L25.304 65.743L25.4581 65.2958L25.5843 64.8479L25.6965 64.4001L25.7803 63.9528L25.8505 63.5191L25.8924 63.0854L25.9207 62.6517V62.2316L25.8924 61.812L25.8646 61.4066L25.7944 61.0006L25.7101 60.5952L25.6121 60.2033L25.5 59.8256L25.3459 59.4479L25.1919 59.0843L25.0096 58.7343L24.8136 58.3849L24.5894 58.049L24.3515 57.7132L24.099 57.4055L23.8187 57.0979L23.5248 56.8039L23.2167 56.524L22.8803 56.2441L22.5298 55.9925L22.1657 55.7544L21.7874 55.5169L21.3814 55.3071L20.9748 55.0974V55.0968C19.3563 54.3622 17.764 53.9698 16.2589 53.9587L16.2574 53.9555ZM60.9034 56.118L60.8756 56.1321L60.8054 56.1457L60.665 56.1881L60.4691 56.2577L60.2448 56.3419L59.9509 56.4539L59.6287 56.5935L59.2504 56.7756L58.8438 56.9854L58.3959 57.237L57.9055 57.5169L57.3732 57.8528L56.8267 58.2305L56.2384 58.6501L55.6217 59.1397L54.9773 59.6713L54.3051 60.2588L53.6188 60.9023L52.9041 61.6159L52.1753 62.3854L51.4329 63.2245L50.6764 64.1479L49.8915 65.1273L49.1073 66.1903L48.3229 67.3235L47.5103 68.555L47.1179 69.1985L46.7119 69.8561L46.3053 70.5414L45.8993 71.2545L45.4927 71.9822L45.1003 72.7235L44.6942 73.5072L44.2877 74.3045L43.8816 75.13L43.4892 75.9692L43.0832 76.8366L42.6908 77.7322L42.6902 77.7317C32.9673 99.9328 27.2376 104.214 27.2376 104.214C37.1006 104.214 42.7744 91.8612 45.6185 84.5446C53.8142 63.1407 61.2539 61.4478 61.2539 61.4478C60.8756 60.1887 60.9034 56.118 60.9034 56.118L60.9034 56.118ZM15.3852 56.4098C16.7152 56.4038 18.16 56.704 19.6441 57.3772L19.9804 57.5452L20.3163 57.7131L20.6385 57.881L20.9612 58.0626L21.2693 58.2588L21.5774 58.4544L21.8713 58.6506L22.1516 58.8599L22.4319 59.0838L22.6845 59.3077L22.9365 59.5457L23.1749 59.7832L23.3991 60.0354L23.6087 60.287L23.791 60.5528L23.9733 60.8186L24.1415 61.0985L24.2814 61.3784L24.4077 61.6724L24.5198 61.98L24.6036 62.2876L24.6738 62.5952L24.7299 62.917L24.7576 63.2528V63.5887L24.7435 63.9387L24.7016 64.2881L24.6319 64.6381L24.5475 65.0159L24.4354 65.3794L24.2955 65.7713L24.1274 66.1626C22.3341 70.0655 18.0467 70.9331 13.0451 68.6528C8.94198 66.7662 7.49902 63.5356 9.06822 60.1908C10.089 57.9202 12.4608 56.426 15.3868 56.4121L15.3852 56.4098ZM116.691 62.036C115.99 63.5749 113.3 66.9181 113.3 66.9181C129.594 74.2907 129.65 84.2371 129.65 84.2371L129.888 84.2094H130.126H130.378H130.645L130.925 84.223L131.206 84.2513L131.5 84.2654L131.793 84.3072L132.088 84.3349L132.382 84.3773L132.984 84.4752L133.573 84.5871L133.867 84.6431L134.147 84.6991L134.428 84.7551L134.694 84.8105L134.946 84.8665L135.198 84.9224L135.436 84.9784L135.661 85.0344L135.857 85.0904L136.053 85.1322L136.221 85.1746L136.375 85.2165L136.445 85.2442L136.515 85.2583L136.571 85.2725L136.627 85.2866L136.669 85.3002L136.711 85.3143H136.753L136.781 85.3284H136.81L136.823 85.3426H136.837C134.4 68.0097 116.691 62.0359 116.691 62.0359L116.691 62.036ZM70.9969 62.3241C70.8582 62.3252 70.7158 62.3314 70.5696 62.3436C68.3981 62.5255 60.1743 64.6101 52.9311 81.1177L52.6089 81.8448L52.3008 82.5302L52.0064 83.2019L51.7261 83.8313L51.4463 84.447L51.1938 85.0345L50.9418 85.5943L50.7034 86.1259L50.4655 86.6432L50.2554 87.1188L50.0453 87.5944L49.8488 88.0286L49.6671 88.434L49.4989 88.8259L49.3307 89.2036L49.1767 89.5389L49.0362 89.8612L48.8964 90.1688L48.7701 90.4346L48.658 90.7004L48.56 90.9243L48.462 91.134L48.3782 91.3297L48.2938 91.4976L48.2378 91.6514L48.1817 91.7775L48.1257 91.8754L48.0837 91.9732L48.056 92.0292L48.0418 92.0851L48.0277 92.1134V92.127V92.1275C50.8297 90.169 56.4051 88.322 56.4051 88.322C63.5642 66.5544 74.2961 63.4769 74.2961 63.4769C74.2961 63.4769 73.0769 62.3088 70.9966 62.3241L70.9969 62.3241ZM77.505 66.5258L76.5802 67.0715L75.6838 67.659L74.8151 68.2889L73.9884 68.96L73.1899 69.6737L72.4192 70.415L71.6768 71.1704L70.9622 71.9541L70.29 72.7655L69.6314 73.5769L69.0148 74.4025L68.4264 75.2416L67.8658 76.0671L67.3335 76.8927L66.8295 77.7182L66.3532 78.5296L65.9183 79.3128L65.4981 80.0959L65.1199 80.8378L64.7558 81.5508L64.4336 82.2367L64.1396 82.8938L63.8593 83.4954L63.6209 84.0552L63.4108 84.5731L63.229 85.0204L63.0745 85.4264L62.9487 85.7617L62.8927 85.9019L62.8508 86.028L62.8083 86.1394L62.7806 86.2236L62.7523 86.2938L62.7387 86.3497L62.7245 86.3775V86.391C64.6439 85.8034 68.8609 85.3139 68.8609 85.3139C72.1391 75.9829 80.307 69.5756 80.307 69.5756L77.505 66.5256L77.505 66.5258ZM109.363 69.9401L109.293 70.0243L109.223 70.108L109.069 70.2618L108.886 70.402L108.704 70.5417L108.495 70.6819L108.285 70.8075L108.046 70.9336L107.808 71.0455L107.57 71.1575L107.317 71.2694L107.051 71.3673L106.785 71.4651L106.519 71.5488L106.267 71.6472L106 71.7167L105.734 71.801L105.468 71.8711L105.216 71.9265L104.977 71.9825L104.739 72.0385L104.515 72.0944L104.291 72.1368L104.095 72.1787L103.913 72.2205L103.731 72.2488L103.591 72.2765L103.52 72.2906L103.45 72.3042H103.394L103.339 72.3184H103.296L103.24 72.3325H103.212L103.184 72.3466H103.156H103.142H103.129C113.776 78.1384 117.096 84.5451 117.096 84.5451C119.352 83.9576 123.947 83.9299 123.947 83.9299C120.431 75.0886 109.363 69.9402 109.363 69.9402L109.363 69.9401ZM195.497 71.0591L194.657 71.2271L194.783 73.7031L187.386 80.8239L181.488 82.1391L180.437 79.3967L179.61 79.551L181.432 87.6228L182.23 87.4408L182.02 84.5168L187.876 83.188L197.585 86.238L198.426 88.0842L199.253 87.9027L197.908 81.9012L197.095 82.0691L197.221 84.5452L189.32 82.2647L195.372 76.3197L196.324 78.6278L197.137 78.4458L195.498 71.0593L195.497 71.0591ZM83.6135 74.0674C83.6135 74.0674 78.2192 77.8303 75.3191 85.5246C75.3191 85.5246 77.5326 85.4965 78.5553 85.6784C79.5639 85.9022 81.1472 85.93 81.1472 85.93H81.1483L81.2179 85.5805L81.3159 85.2305L81.428 84.867L81.5685 84.517L81.7225 84.1534L81.8765 83.7898L82.0589 83.4403L82.2407 83.0768L82.4371 82.7268L82.6472 82.3768L82.8573 82.0273L83.081 81.6914L83.3053 81.3556L83.5295 81.0338L83.7538 80.7262L83.9774 80.4181L84.2017 80.1246L84.4259 79.8311L84.636 79.5648L84.8461 79.3132L85.0421 79.0751L85.2385 78.8376L85.4203 78.6278L85.5885 78.4458L85.7426 78.2643L85.883 78.124L85.9951 77.9844L86.0512 77.9284L86.0931 77.8724L86.1491 77.8306L86.1769 77.7882L86.2193 77.7463L86.2471 77.7186L86.2613 77.7045L86.2748 77.6903L86.289 77.6768L83.6133 74.0674L83.6135 74.0674ZM2.90177 75.3402C2.4955 76.4734 1.82317 77.5508 1.571 78.754C0.800449 82.1393 2.41139 84.6297 5.00313 85.1893C11.1395 86.5743 11.6299 78.2086 15.7629 79.1316C17.8924 79.5792 18.5647 81.3419 18.1022 83.3425C17.8921 84.3917 16.9255 86.1822 15.7907 86.4479C15.0201 86.6717 13.9136 86.7002 12.5826 86.6022L12.6104 87.4691L16.6876 88.0848C17.8224 87.0636 18.691 85.0632 19.0552 83.3984C19.8678 79.8591 18.1307 77.3684 15.0766 76.6831C10.2152 75.5919 9.52856 83.9298 4.90512 82.9086C3.0558 82.4749 2.22903 80.9359 2.62132 79.159C3.08364 77.0887 4.77885 76.6552 6.67014 76.6552L6.7262 75.8297L2.90143 75.34L2.90177 75.3402ZM181.463 116.54L179.516 122.471L180.329 122.751L181.463 120.569L193.12 124.304L176.532 131.788L175.145 136.097L175.943 136.363L177.12 134.18L191.2 138.671L190.878 141.133L191.676 141.385L193.61 135.285L192.811 135.048L191.634 137.328L179.249 133.355C182.92 131.662 194.703 126.332 196.986 125.311L197.35 124.136L181.925 119.226L182.262 116.778L181.463 116.54L181.463 116.54ZM1.21024 117.004L0.369873 117.213L1.92489 123.201L2.75165 122.977L2.54156 120.515L8.01913 121.005L9.60243 127.104L5.11916 130.462L4.11006 128.209L3.2697 128.419L5.06309 135.358L5.90345 135.148L5.77773 133.021L19.9836 122.291L19.6897 121.06L2.13501 118.948L1.21027 117.003L1.21024 117.004ZM111.219 118.753L111.177 169.633L116.557 168.388L116.585 118.755H111.219L111.219 118.753ZM121.754 118.753L121.852 167.073L127.162 165.535L127.134 118.753H121.754V118.753ZM132.864 118.753V163.59C132.864 163.59 138.23 163.743 138.23 155.713V118.755H132.864V118.753ZM68.0396 118.851V155.796C68.0396 163.742 73.3773 163.686 73.3773 163.686V118.85H68.0396V118.851ZM79.1494 118.851V165.841L84.5013 167.1V118.852H79.1494V118.851ZM89.6852 118.851L89.7129 168.485L95.0506 169.813V118.85H89.6851L89.6852 118.851ZM100.178 118.851V170.947L102.854 173.732L105.517 171.003L105.544 118.851H100.178L100.178 118.851ZM9.35079 121.188L16.4396 121.957L10.6533 126.308L9.35085 121.188L9.35079 121.188ZM21.7219 129.693L20.9789 130.056L21.6794 132.435L8.52417 139.136L7.03938 137.149L6.26868 137.541L10.3036 145.487C12.8674 150.509 17.2525 153.307 23.1088 150.327C28.6848 147.516 28.2924 142.563 25.9109 137.919L21.7221 129.693H21.7219ZM22.9824 134.492C23.5288 135.387 24.0332 136.283 24.4955 137.206C26.8352 141.794 26.191 145.823 21.0634 148.412C16.8463 150.566 13.3013 149.153 11.3539 145.361L11.2282 145.096L11.1019 144.844L10.9898 144.592L10.8777 144.326L10.7656 144.075L10.6676 143.822L10.5696 143.571L10.4716 143.319L10.2893 142.815L10.2055 142.55L10.107 142.297L10.0232 142.032L9.93933 141.766L9.84082 141.486L9.757 141.207L22.9825 134.492L22.9824 134.492ZM177.077 140.255C174.295 140.322 171.717 141.828 169.738 145.026C166.88 149.643 168.169 154.357 172.988 157.351C177.247 159.967 182.081 159.407 185.443 154.021L185.695 153.588L185.919 153.154L186.129 152.734L186.311 152.3L186.48 151.866L186.619 151.447L186.732 151.013L186.83 150.593L186.9 150.173L186.956 149.754L186.998 149.334V148.928L186.984 148.509L186.956 148.103L186.9 147.712L186.83 147.32L186.732 146.928L186.619 146.537L186.493 146.159L186.339 145.795L186.157 145.431L185.961 145.082L185.751 144.732L185.513 144.396L185.26 144.074L184.98 143.752L184.7 143.445L184.378 143.137L184.055 142.857L183.705 142.577L183.341 142.312L182.949 142.059V142.06C180.98 140.839 178.98 140.21 177.077 140.256L177.077 140.255ZM176.093 142.609C177.74 142.572 179.55 143.044 181.337 144.158L181.66 144.367L181.968 144.564L182.276 144.787L182.57 144.997L182.85 145.221L183.131 145.459L183.397 145.696L183.649 145.934L183.901 146.186L184.126 146.452L184.35 146.704L184.546 146.97L184.742 147.249L184.924 147.529L185.078 147.809L185.219 148.103L185.344 148.397L185.456 148.69L185.541 148.998L185.61 149.306L185.666 149.628L185.695 149.949V150.271L185.681 150.607L185.653 150.943L185.597 151.278L185.512 151.614L185.4 151.964L185.26 152.314L185.106 152.678L184.91 153.041L184.7 153.405C182.416 157.098 178.073 157.405 173.422 154.51C169.569 152.132 168.518 148.76 170.493 145.612C171.625 143.802 173.685 142.662 176.093 142.608L176.093 142.609ZM30.9688 147.893L30.3244 148.48L31.7678 150.718L19.7468 159.434L18.0094 158.147L17.365 158.735L21.2881 163.071L21.9042 162.512L20.6997 160.511L31.6131 152.467L31.6555 152.453L31.6833 152.467L24.9305 166.947L25.1128 167.198L40.4677 161.868L40.5237 161.84L40.5662 161.868L31.0674 172.095L29.1194 170.584L28.5033 171.144L33.2811 176.459L33.8972 175.914L32.6644 173.913L42.7234 162.946H42.7239L44.7274 164.54L45.3435 163.967L41.7991 160.022L28.7135 164.526L34.584 151.922L30.9688 147.893L30.9688 147.893ZM164.441 152.887L159.636 158.357L160.252 158.916L162.185 157.378L173.324 167.142L172.035 169.227L172.637 169.786L177.485 164.302L176.84 163.743L174.921 165.296L163.797 155.559L165.058 153.433L164.442 152.887L164.441 152.887ZM157.997 160.05L145.346 170.276L147.602 173.913L148.288 173.354L147.237 170.639C147.797 170.15 148.4 169.59 149.086 169.045L151.496 167.1L160.715 178.502L158.823 180.558L159.384 181.216L165.549 176.221L165.03 175.578L162.62 176.949L153.373 165.561L155.839 163.589C156.554 163.002 157.282 162.484 157.941 162.022L160.126 163.813L160.827 163.225L157.997 160.05L157.997 160.05ZM47.1215 165.17L46.6311 165.813L48.3259 167.632L39.4438 179.453L37.2302 178.348L36.7398 178.991L42.568 183.398L43.0867 182.712L41.3912 180.908L50.2733 169.073H50.2739L52.4592 170.206L52.9915 169.535L47.1215 165.17L47.1215 165.17ZM54.5325 170.836L54.1542 171.605L56.1718 173.018L49.6852 186.322V186.322L47.3176 185.636L46.9534 186.406L52.7114 189.176L53.0755 188.448L50.9882 186.966L56.6901 175.271C57.8249 179.146 61.4398 191.526 62.1122 193.919L63.2187 194.478L70.3499 179.915L72.7175 180.601L73.0681 179.831L67.4216 177.089L67.0439 177.859L69.061 179.271L63.6954 190.295L58.6375 172.808L54.5327 170.836L54.5325 170.836ZM139.07 173.731L137.921 174.332L139.953 191.861L138.3 193.218L138.692 193.959L144.184 191.064L143.778 190.294L141.438 191.092L140.597 185.678H140.598L146.187 182.684L150.502 186.224L148.555 187.763L148.933 188.504L155.28 185.119L154.888 184.377L152.814 184.993L139.07 173.731L139.07 173.731ZM139.547 177.27L145.136 181.845L140.443 184.349L139.547 177.27H139.547ZM125.101 179.857C124.509 179.861 123.901 179.96 123.309 180.138L115.505 182.446L115.715 183.244L118.307 182.936L122.51 197.093L120.156 198.241L120.409 199.038L127.526 196.954L127.288 196.142L124.85 196.422L123.113 190.602C124.01 190.323 124.878 190.043 125.621 189.735C127.778 191.526 130.146 193.274 132.612 194.911C132.808 195.037 133.76 194.967 134.349 194.953L136.282 194.883L136.31 194.072C134.657 193.904 133.116 192.687 131.883 191.778L127.582 188.602C128.913 186.993 129.753 184.839 129.165 182.81C128.513 180.691 126.877 179.847 125.101 179.858L125.101 179.857ZM75.2269 180.278L75.0027 181.118L77.2582 182.125L73.5036 196.45L71.0239 196.24L70.8138 197.037L77.9029 198.884L78.1266 198.087L75.8711 197.065L79.6396 182.754L82.0774 182.964L82.2875 182.125L75.2265 180.278L75.2269 180.278ZM123.245 181.283C125.161 181.214 126.48 182.332 127.106 184.503C128.087 187.833 126.728 188.378 123.8 189.245L123.73 189.259L123.674 189.287L123.604 189.301L123.534 189.315L123.394 189.357L123.338 189.371L123.268 189.399L123.198 189.413L123.142 189.427L123.086 189.455L123.016 189.469L122.96 189.483L122.931 189.497H122.904L122.889 189.511H122.862L122.833 189.525H122.806L120.592 182.041C120.928 181.845 121.362 181.677 121.825 181.523C122.329 181.379 122.803 181.3 123.245 181.284L123.245 181.283ZM113.951 182.755L97.7692 183.916L97.5591 188.168L98.3859 188.098L99.0864 185.3C99.8429 185.216 100.67 185.09 101.538 185.02L104.621 184.81L105.671 199.444L102.953 200.059L103.009 200.884L110.939 200.339L110.869 199.471L108.095 199.248L107.016 184.629L110.196 184.405C111.093 184.349 111.99 184.321 112.788 184.321L113.587 187.021L114.511 186.965L113.951 182.754L113.951 182.755ZM89.2185 183.157C86.4629 183.256 84.6594 184.956 84.3896 187.245C83.6471 193.498 92.0394 193.121 91.535 197.345C91.2548 199.5 89.5873 200.339 87.5559 200.087C86.4771 199.961 84.6282 199.192 84.194 198.087C83.9558 197.373 83.7734 196.268 83.7313 194.953L82.9051 195.037L82.695 199.164C83.8018 200.171 85.8892 200.856 87.5843 201.038C91.199 201.472 93.5106 199.528 93.8887 196.422C94.4632 191.428 86.1132 191.623 86.6597 186.909C86.8839 185.062 88.3273 184.069 90.1487 184.293C92.2502 184.531 92.8945 186.195 93.0485 188.042L93.8889 188.014L94.0152 184.167C92.8383 183.915 91.6615 183.328 90.4565 183.216C90.0257 183.162 89.6125 183.143 89.2188 183.157L89.2185 183.157Z" fill="#333366"/>
<path d="M102.285 91.0036C101.696 90.9927 99.2208 91.0447 97.3574 92.5748C97.3574 92.5748 94.3734 94.6734 94.3034 98.0869C94.3034 98.0869 94.7375 102.367 97.7918 103.934C97.7918 103.934 97.9179 104.34 102.485 106.41C102.485 106.41 105.512 107.264 105.47 109.419C105.47 109.419 105.932 112.188 102.233 112.286C102.233 112.286 99.2069 112.692 97.582 110.034C96.223 107.852 96.5311 106.005 96.433 105.642L93.9674 107.46L93.9397 112.93C93.9397 112.93 97.4841 115.21 101.435 115.154C101.435 115.154 105.932 115.182 108.09 113.028C108.09 113.028 110.499 111.615 110.471 107.67C110.443 103.823 109.014 101.976 105.596 100.437C105.596 100.437 102.948 99.57 101.841 99.3181C101.841 99.3181 99.277 98.4645 99.3611 96.4921C99.4311 95.6527 99.8377 93.5684 102.948 93.5965C107.291 93.6525 106.955 98.367 106.955 98.7165L109.518 97.0796L109.084 91.8057C109.084 91.8057 107.669 92.0297 105.442 91.2883L105.386 91.2741L105.33 91.2606L105.26 91.2323L105.189 91.2182L105.12 91.2046L105.035 91.1905L104.951 91.1763L104.867 91.1622L104.769 91.1486L104.671 91.1345L104.573 91.1203L104.475 91.1062L104.377 91.0926H104.265L104.054 91.0644L103.844 91.0502L103.62 91.0366L103.41 91.0225L103.186 91.0084H103.088H102.99H102.878H102.78H102.682H102.597H102.514H102.416C102.416 91.0084 102.37 91.0056 102.286 91.004L102.285 91.0036ZM123.696 91.5295L115.631 111.851C114.176 112.045 113.219 112.355 113.219 112.355H113.245V114.903H122.502V112.355C122.502 112.355 121.601 112.054 120.194 111.86L121.326 109.112H128.668L129.774 111.851C128.616 112.061 127.824 112.296 127.771 112.312H127.745V112.321V114.903H138.073V112.355H138.064C138.033 112.345 136.85 111.95 135.243 111.712L127.675 91.5292H123.695L123.696 91.5295ZM76.1989 91.8078L65.5135 91.8512V94.4252H65.5484C65.5484 94.4252 66.6457 94.7517 68.1174 94.9991C68.1056 96.5832 68.0308 107.744 68.3961 108.721C68.8023 109.672 68.9045 111.107 70.5296 112.59C70.5296 112.59 73.7045 115.569 78.5242 115.303C78.5242 115.303 83.6398 115.485 86.1615 112.408C86.1615 112.408 88.3916 110.665 88.5737 107.112V94.9381C90.1484 94.7519 91.195 94.4251 91.1949 94.4251H91.1688V91.8077H81.8768V94.4251C81.8768 94.4251 82.7359 94.6956 84.0713 94.8859V107.156C84.0713 107.156 84.4662 112.129 78.82 112.59C78.82 112.59 73.9868 112.876 73.9868 107.112V94.9641C75.2786 94.7213 76.1813 94.425 76.1813 94.425H76.1987V91.8076L76.1989 91.8078ZM124.933 99.652L127.371 105.974H122.538L124.932 99.6517L124.933 99.652Z" fill="#CC3333"/>
</g>
<defs>
<clipPath id="clip0_10_1308">
<rect width="200" height="201.46" fill="white"/>
</clipPath>
</defs>
</svg>
