<svg width="200" height="202" viewBox="0 0 200 202" fill="none" xmlns="http://www.w3.org/2000/svg"><g clip-path="url(#clip0_10_1308)"><path d="M97.484.748C94.009.846 91.99 3 92.06 5.616c.182 6.31 8.392 4.715 8.504 8.954.07 2.196-1.485 3.231-3.502 3.301-1.05.028-3.026-.461-3.587-1.482-.364-.7-.714-1.75-.924-3.05l-.827.223.392 4.085c1.261.868 3.418 1.203 5.114 1.175 3.614-.126 5.618-2.363 5.562-5.511-.153-4.98-8.391-3.596-8.516-8.338-.056-1.89 1.231-3.05 3.082-3.106 2.073-.07 2.928 1.469 3.362 3.287l.841-.126-.463-3.846c-1.204-.084-2.41-.462-3.614-.434h-.001zm10.451.714l-.112.825 2.34.77-2.185 14.632-2.466.056-.126.84 12.482 1.846 1.64-4.015-.897-.14-1.387 2.518-6.823-1.02 1.023-6.674 4.539.672.154 1.944.729.126c.07-1.357.406-3.665.756-4.966l-.714-.084-.743 1.749-4.539-.672.967-6.309 5.422.797.308 2.49.743.126.21-3.819-11.321-1.692zm23.751 5.276c-3.561.028-6.19 2.063-7.61 5.803-2.326 6.155.855 10.129 6.165 12.101 1.513.588 3.208.993 5.058 1.175l2.871-2.504-.406-.672c-2.031 1.665-4.413 2.001-6.851 1.078-4.315-1.595-5.954-6.59-4.161-11.36 1.639-4.309 4.848-5.302 9.009-3.721 4.469 1.665 4.959 3.973 4.413 6.184l.798.307 1.317-4.28c-1.653-1.204-4.343-2.589-6.01-3.204-1.663-.622-3.199-.918-4.593-.907zm-65.248.264l-6.879 2.49.309.811 2.395-.434 5.058 13.878-2.158 1.245.308.797 11.6-4.197-.616-4.952-.77.28-.21 3.623-5.955 2.168L64.59 9.03l2.115-1.231L66.438 7zm81.035 5.875l-.448.713 1.751 1.693-5.562 8.226c-2.213 3.12-1.877 6.687 2.48 9.596 4.623 3.12 8.14 1.456 10.858-2.545l4.651-6.87 2.254 1.022.491-.713-5.674-3.847-.491.7 1.781 1.734-4.779 7.022c-.743 1.133-1.976 2.924-3.419 3.358-1.821.545-3.741-.182-4.749-.868-3.153-2.126-2.998-4.952-.869-7.974l5.058-7.484 2.256 1.007.462-.67-6.053-4.1h.002zM46.728 16.08l-1.079.686 3.265 17.333-1.542 1.483.434.741 5.269-3.329-.449-.714-2.297.924-1.205-5.316 5.351-3.358 4.553 3.232-1.82 1.622.434.714 6.08-3.82-.435-.699-2.03.77-14.53-10.268zm.741 3.484l5.886 4.183-4.47 2.812-1.416-6.995zm-11.965 4.784l-5.435 4.855.56.615 2.101-1.287 9.891 10.982-1.54 1.945.588.615 5.436-4.854-.56-.63-2.102 1.301-9.905-10.995 1.555-1.945-.589-.602zm132.353 3.316l-.616.545 1.415 2.169-10.872 10.03h-.001l-2.073-1.595-.617.588 5.03 5.455.645-.6-1.359-2.057 4.469-4.127c.659.713 1.275 1.33 1.877 1.875a85.245 85.245 0 00-1.569 8.533c0 .224.477 1.077.743 1.595l.924 1.692.715-.293c-.588-1.609-.154-3.511.112-5.022l.995-5.247c2.003.476 4.315.28 5.87-1.16 2.185-2.001 1.499-4.59-.154-6.408l-5.535-5.976.001.003zm2.592 4.378c.337.21.686.518 1.022.896 1.92 2.056 1.696 4.155-.335 6.03-2.564 2.364-3.671 1.384-5.745-.868l-.083-.098-.099-.112-.042-.042-.056-.056-.042-.042-.042-.056-.042-.042-.042-.056-.042-.042-.042-.056-.042-.041-.042-.042-.028-.043-.028-.042 5.73-5.288zM26.677 33.05c-1.64 1.231-3.755 3.358-4.861 4.742-3.965 4.925-3.46 9.64.91 13.094 5.184 4.085 9.933 2.308 13.45-2.126.994-1.26 1.877-2.742 2.62-4.435l-1.485-3.51-.77.18c.966 2.435.56 4.785-1.037 6.841-2.872 3.61-8.112 3.638-12.119.462-3.614-2.867-3.559-6.225-.799-9.708 2.957-3.722 5.324-3.498 7.244-2.267l.546-.685-3.699-2.588zm154.755 10.114l-.715.448.995 2.28-12.371 8.128-1.695-1.776-.715.447 4.049 6.114.714-.462-.994-2.28 12.328-8.129 1.696 1.778.714-.462-4.007-6.086h.001zm-53.249 1.37c-10.494-.098-13.761 3.974-13.761 3.974h.001l-.281.672-.266.657-.266.63-.266.63-.266.6-.253.602-.266.56-.266.56-.266.545-.267.518-.266.49-.266.489-.281.462-.28.434-.294.42-.294.391-.308.378-.308.363-.323.322-.336.308-.336.28-.351.265-.364.238-.378.21-.406.182-.407.154-.42.14-.434.097-.463.084-.462.043-.491.027-.518-.014c-10.521-.49-12.147-6.715-12.244-7.568-.154-1.203 2.073-2.504 2.073-2.504-.589 0-5.1.28-10.802-1.413-7.888-2.28-7.915 3.12-7.915 3.12s-9.696-2.532-10.984 2.392c-.617 2.308-.07 5.61-.07 5.61s7.033-3.735 12.44.7c4.624 3.846 5.577 7.022 12.232 14.632 3.404 3.847 12.006 16.507 22.892 10.8 0 0-1.485-2.854-8.756-7.694-3.18-2.098-8.056-4.253-11.166-6.743-2.9-2.35-4.077-3.287-9.864-9.946-2.438-2.798-9.849-6.561-14.136-5.134-.392.14-.462.49-.798.727 0 0-.127-1.874.154-2.616.406-1.049 4.75-1.357 9.961.126 0 0-1.009-4.127 3.082-3.413 4.133.727 8.182 2.126 9.443 1.776 0 0 .084 9.513 15.075 10.478 7.369.462 10.396-7.554 12.245-10.617.56-.91 1.849-2.687 3.18-3.036 9.681-2.574 27.473-2.392 38.303 15.92 4.498 7.708 11.503 23.684 14.459 28.705 7.341 12.563 12.833 10.282 17.527 5.974 0 0-6.949 3.861-13.142-10.38-2.802-6.463-12.427-27.531-19.684-34.051-3.628-3.302-8.911-8.31-18.493-10.31-4.159-.864-7.664-1.218-10.602-1.246h-.001zm-61.882 2.041c-8.86.172-15.718 4.6-21.858 10.131-7.986 7.204-13.015 19.865-17.82 30.12-4.638 9.848-6.544 11.162-10.62 13.387l-.169.098-.154.084-.168.07-.168.069-.154.07-.168.07-.154.056-.154.056-.309.098-.294.084-.294.07-.294.056-.28.028-.267.028-.266.014-.252.014h-.238l-.224-.014-.224-.028-.225-.028-.196-.028-.196-.042-.182-.028-.168-.056-.155-.042-.14-.042-.14-.042-.125-.056-.098-.042-.098-.041-.085-.029-.056-.041-.056-.029-.042-.013-.028-.014s3.419 3.847 6.53 3.721c8.545-.308 14.723-14.452 16.993-19.096 2.998-6.17 8.336-19.921 17.218-27.601 7.734-6.645 15.761-8.394 18.283-8.618 5.268-.391 5.436-1.469 5.436-1.469-2.823-.688-5.46-.973-7.94-.925zm12.256 6.34v.014h.014v.013l.014.015.014.014.014.027.014.015.028.041.028.043.042.056.042.056.042.055.042.07.042.07.043.084.056.084.041.084.057.084.056.098.041.084.057.112.041.098.042.098.043.111.042.099.042.112.027.112.029.111.027.112.029.112.014.112.014.112v.224s1.457-1.231 4.567-1.175c0 0-4.217-1.175-5.604-1.357zm109.195.182l-4.105 1.273.378.797 2.858-.35a40.27 40.27 0 011.121 2.224l1.261 2.798-13.379 6.002-1.542-2.336-.784.336 3.278 7.246.771-.35-.742-2.672 13.379-6.001 1.303 2.854c.365.867.701 1.692.981 2.448l-2.284 1.65.378.84 3.797-1.944-6.669-14.815zm-58.8.104c-4.189.026-7.077.791-7.077.791-.28.154-.98.532-1.261.98-1.05 1.79-2.494 4.686-2.494 4.686 21.926 1.077 26.339 27.784 26.339 27.784l.477.224.476.223.462.224.449.238.434.223.435.238.406.238.406.224.393.224.377.238.365.223.351.21.35.224.322.21.308.196.294.209.281.182.266.196.252.168.224.168.224.153.196.155.183.14.154.125.154.112.126.098.112.084.084.07.07.056.056.042.028.028.014.014c-.001-.003-5.128-16.69-11.446-25.139-5.548-7.386-14.248-9.932-14.248-9.932 12.399-.714 16.377 4.519 20.664 10.464 4.441 6.071 11.166 27.195 15.425 31.463 3.097 3.147 8.168 3.735 8.168 3.735-1.204-1.636-6.234-9.764-10.241-19.795-4.805-12.168-10.632-21.96-15.606-25.444-5.782-4.057-12.203-4.975-16.952-4.945v-.005zm-112.695.755c-3.31-.027-6.197 1.776-8.017 5.73-2.284 4.924-.378 9.456 4.778 11.82 4.525 2.071 9.288.91 11.908-4.854l.196-.448.182-.461.154-.447.126-.448.113-.448.083-.447.07-.434.042-.434.029-.433v-.42l-.029-.42-.027-.405-.07-.406-.085-.406-.098-.392-.112-.377-.154-.378-.154-.364-.182-.35-.196-.35-.225-.335-.237-.336-.253-.307-.28-.308-.294-.294-.308-.28-.337-.28-.35-.252-.364-.238-.379-.237-.406-.21-.406-.21c-1.619-.735-3.211-1.127-4.716-1.138l-.002-.004zm44.646 2.162l-.027.014-.07.014-.141.042-.196.07-.224.084-.294.112-.322.14-.379.182-.406.21-.448.251-.49.28-.533.336-.546.377-.589.42-.616.49-.645.531-.672.588-.686.643-.715.714-.729.77-.742.838-.757.924-.785.98-.784 1.062-.784 1.133-.813 1.232-.392.643-.406.658-.407.685-.406.713-.406.728-.393.742-.406.783-.406.797-.406.826-.393.84-.406.867-.392.895c-9.724 22.2-15.453 26.482-15.453 26.482 9.863 0 15.536-12.353 18.38-19.67 8.196-21.403 15.636-23.096 15.636-23.096-.378-1.26-.35-5.33-.35-5.33zm-45.518.292c1.33-.006 2.775.294 4.26.967l.335.168.336.168.323.168.322.182.308.196.308.195.294.197.28.209.28.224.253.224.252.238.239.237.224.252.21.252.182.266.182.266.169.28.14.28.126.293.112.308.084.308.07.307.056.322.028.336v.336l-.014.35-.042.35-.07.35-.085.377-.112.363-.14.392-.168.392c-1.793 3.903-6.08 4.77-11.082 2.49-4.103-1.887-5.546-5.117-3.977-8.462 1.021-2.27 3.393-3.765 6.319-3.779l-.002-.002zm101.306 5.626c-.701 1.539-3.391 4.882-3.391 4.882 16.294 7.373 16.35 17.32 16.35 17.32l.238-.029h.757l.28.014.281.028.294.014.293.042.295.028.294.042.602.098.589.112.294.056.28.056.281.056.266.056.252.055.252.056.238.056.225.056.196.056.196.042.168.043.154.041.07.028.07.014.056.014.056.015.042.013.042.014h.042l.028.014h.029l.013.015h.014c-2.437-17.333-20.146-23.307-20.146-23.307zm-45.694.288a5.676 5.676 0 00-.427.02c-2.172.181-10.396 2.266-17.639 18.774l-.322.727-.308.685-.295.672-.28.63-.28.615-.252.587-.252.56-.239.532-.238.517-.21.476-.21.475-.196.435-.182.405-.168.392-.168.378-.154.335-.14.322-.14.308-.127.266-.112.265-.098.224-.098.21-.084.196-.084.168-.056.153-.056.127-.056.097-.042.098-.028.056-.014.056-.014.028v.014c2.802-1.958 8.377-3.805 8.377-3.805 7.16-21.768 17.891-24.845 17.891-24.845s-1.22-1.168-3.3-1.153zm6.508 4.202l-.925.546-.896.587-.869.63-.827.671-.798.714-.77.741-.743.755-.715.784-.672.812-.659.81-.616.827-.589.839-.56.825-.532.826-.505.825-.476.812-.435.783-.42.783-.378.742-.364.713-.322.686-.294.657-.28.601-.24.56-.21.518-.181.447-.154.406-.126.336-.056.14-.042.126-.043.111-.027.085-.029.07-.013.056-.014.028v.013c1.919-.588 6.136-1.077 6.136-1.077 3.278-9.331 11.446-15.738 11.446-15.738l-2.802-3.05zm31.858 3.414l-.07.084-.07.084-.154.154-.183.14-.182.14-.209.14-.21.126-.239.126-.238.112-.238.111-.253.112-.266.098-.266.098-.266.084-.252.098-.267.07-.266.084-.266.07-.252.056-.239.055-.238.056-.224.056-.224.043-.196.042-.182.041-.182.029-.14.028-.071.014-.07.013h-.056l-.055.014h-.043l-.056.014h-.028l-.028.015h-.055c10.647 5.791 13.967 12.198 13.967 12.198 2.256-.587 6.851-.615 6.851-.615-3.516-8.841-14.584-13.99-14.584-13.99zm86.134 1.12l-.84.167.126 2.476-7.397 7.12-5.898 1.316-1.051-2.742-.827.154 1.822 8.072.798-.182-.21-2.924 5.856-1.329 9.709 3.05.841 1.846.827-.181-1.345-6.002-.813.168.126 2.476-7.901-2.28 6.052-5.945.952 2.308.813-.182-1.639-7.387h-.001zM83.613 74.066S78.22 77.83 75.32 85.525c0 0 2.214-.029 3.236.153 1.009.224 2.592.252 2.592.252h.001l.07-.35.098-.35.112-.363.14-.35.154-.364.154-.363.183-.35.182-.363.196-.35.21-.35.21-.35.224-.336.224-.335.224-.322.225-.308.223-.308.225-.293.224-.294.21-.266.21-.252.196-.238.197-.237.181-.21.168-.182.155-.182.14-.14.112-.14.056-.056.042-.056.056-.041.028-.043.042-.042.028-.027.014-.014.014-.015.014-.013-2.676-3.61zM2.903 75.34c-.407 1.133-1.079 2.21-1.331 3.414-.77 3.385.84 5.876 3.432 6.435 6.136 1.385 6.627-6.98 10.76-6.057 2.13.447 2.802 2.21 2.34 4.21-.21 1.05-1.178 2.84-2.312 3.106-.77.224-1.877.252-3.208.154l.027.867 4.078.616c1.134-1.021 2.003-3.022 2.367-4.687.813-3.539-.924-6.03-3.978-6.715-4.862-1.091-5.548 7.247-10.172 6.226-1.85-.434-2.676-1.973-2.284-3.75.463-2.07 2.158-2.504 4.05-2.504l.055-.825-3.825-.49zm178.561 41.2l-1.947 5.931.813.28 1.134-2.182 11.657 3.735-16.588 7.484-1.387 4.309.798.266 1.177-2.183 14.08 4.491-.322 2.462.798.252 1.934-6.1-.799-.237-1.177 2.28-12.385-3.973a3253.5 3253.5 0 0117.737-8.044l.364-1.175-15.425-4.91.337-2.448-.799-.238zm-180.253.464l-.84.209 1.555 5.988.827-.224-.21-2.462 5.477.49 1.583 6.099-4.483 3.358-1.009-2.253-.84.21 1.793 6.939.84-.21-.125-2.127 14.206-10.73-.294-1.231-17.555-2.112-.925-1.945v.001zm110.009 1.749l-.042 50.88 5.38-1.245.028-49.633h-5.366v-.002zm10.535 0l.098 48.32 5.31-1.538-.028-46.782h-5.38zm11.11 0v44.837s5.366.153 5.366-7.877v-36.958h-5.366v-.002zm-64.824.098v36.945c0 7.946 5.337 7.89 5.337 7.89V118.85H68.04v.001zm11.11 0v46.99L84.5 167.1v-48.248H79.15v-.001zm10.535 0l.028 49.634 5.338 1.328V118.85h-5.366v.001zm10.493 0v52.096l2.676 2.785 2.663-2.729.027-52.152h-5.366zm-90.827 2.337l7.089.769-5.787 4.351-1.302-5.12zm12.37 8.505l-.742.363.7 2.379-13.155 6.701-1.485-1.987-.77.392 4.035 7.946c2.563 5.022 6.949 7.82 12.805 4.84 5.576-2.811 5.183-7.764 2.802-12.408l-4.189-8.226zm1.261 4.799a36.97 36.97 0 011.514 2.714c2.34 4.588 1.695 8.617-3.433 11.206-4.217 2.154-7.762.741-9.71-3.051l-.125-.265-.126-.252-.112-.252-.112-.266-.112-.251-.098-.253-.098-.251-.098-.252-.183-.504-.083-.265-.099-.253-.084-.265-.084-.266-.098-.28-.084-.279 13.226-6.715zm154.095 5.763c-2.782.067-5.36 1.573-7.339 4.771-2.858 4.617-1.569 9.331 3.25 12.325 4.259 2.616 9.093 2.056 12.455-3.33l.252-.433.224-.434.21-.42.182-.434.169-.434.139-.419.113-.434.098-.42.07-.42.056-.419.042-.42v-.406l-.014-.419-.028-.406-.056-.391-.07-.392-.098-.392-.113-.391-.126-.378-.154-.364-.182-.364-.196-.349-.21-.35-.238-.336-.253-.322-.28-.322-.28-.307-.322-.308-.323-.28-.35-.28-.364-.265-.392-.253v.001c-1.969-1.221-3.969-1.85-5.872-1.804v-.001zm-.984 2.354c1.647-.037 3.457.435 5.244 1.549l.323.209.308.197.308.223.294.21.28.224.281.238.266.237.252.238.252.252.225.266.224.252.196.266.196.279.182.28.154.28.141.294.125.294.112.293.085.308.069.308.056.322.029.321v.322l-.014.336-.028.336-.056.335-.085.336-.112.35-.14.35-.154.364-.196.363-.21.364c-2.284 3.693-6.627 4-11.278 1.105-3.853-2.378-4.904-5.75-2.929-8.898 1.132-1.81 3.192-2.95 5.6-3.004v.001zm-145.124 5.284l-.645.587 1.444 2.238-12.021 8.716-1.738-1.287-.644.588 3.923 4.336.616-.559-1.204-2.001 10.913-8.044.043-.014.027.014-6.753 14.48.183.251 15.355-5.33.056-.028.042.028-9.499 10.227-1.948-1.511-.616.56 4.778 5.315.616-.545-1.233-2.001 10.06-10.967 2.003 1.594.617-.573-3.545-3.945-13.085 4.504 5.87-12.604-3.615-4.029zm133.472 4.994l-4.805 5.47.616.559 1.933-1.538 11.139 9.764-1.289 2.085.602.559 4.848-5.484-.645-.559-1.919 1.553-11.124-9.737 1.261-2.126-.616-.546h-.001zm-6.444 7.163l-12.651 10.226 2.256 3.637.686-.559-1.051-2.715c.56-.489 1.163-1.049 1.849-1.594l2.41-1.945 9.219 11.402-1.892 2.056.561.658 6.165-4.995-.519-.643-2.41 1.371-9.247-11.388 2.466-1.972a34.3 34.3 0 012.102-1.567l2.185 1.791.701-.588-2.83-3.175zm-110.876 5.12l-.49.643 1.695 1.819-8.882 11.821-2.214-1.105-.49.643 5.828 4.407.519-.686-1.696-1.804 8.882-11.835 2.186 1.133.532-.671-5.87-4.365zm7.411 5.666l-.378.769 2.018 1.413-6.487 13.304-2.367-.686-.365.77 5.758 2.77.364-.728-2.087-1.482 5.702-11.695c1.135 3.875 4.75 16.255 5.422 18.648l1.107.559 7.13-14.563 2.368.686.351-.77-5.646-2.742-.378.77 2.017 1.412-5.366 11.024-5.057-17.487-4.105-1.972zm84.538 2.895l-1.149.601 2.032 17.529-1.653 1.357.392.741 5.492-2.895-.406-.77-2.34.798-.841-5.414h.001l5.589-2.994 4.315 3.54-1.947 1.539.378.741 6.347-3.385-.392-.742-2.074.616-13.744-11.262zm.477 3.539l5.589 4.575-4.693 2.504-.896-7.079zm-14.446 2.587c-.592.004-1.2.103-1.792.281l-7.804 2.308.21.798 2.592-.308 4.203 14.157-2.354 1.148.253.797 7.117-2.084-.238-.812-2.438.28-1.737-5.82c.897-.279 1.765-.559 2.508-.867a82.028 82.028 0 006.991 5.176c.196.126 1.148.056 1.737.042l1.933-.07.028-.811c-1.653-.168-3.194-1.385-4.427-2.294l-4.301-3.176c1.331-1.609 2.171-3.763 1.583-5.792-.652-2.119-2.288-2.963-4.064-2.952v-.001zm-49.874.421l-.224.84 2.255 1.007-3.754 14.325-2.48-.21-.21.797 7.089 1.847.224-.797-2.256-1.022 3.769-14.311 2.437.21.21-.839-7.06-1.847zm48.018 1.005c1.916-.069 3.235 1.049 3.861 3.22.981 3.33-.378 3.875-3.306 4.742l-.07.014-.056.028-.07.014-.07.014-.14.042-.056.014-.07.028-.07.014-.056.014-.056.028-.07.014-.056.014-.029.014h-.027l-.015.014h-.027l-.029.014h-.027l-2.214-7.484c.336-.196.77-.364 1.233-.518a5.973 5.973 0 011.42-.239v-.001zm-9.294 1.472l-16.182 1.161-.21 4.252.827-.07.7-2.798c.757-.084 1.584-.21 2.452-.28l3.083-.21 1.05 14.634-2.718.615.056.825 7.93-.545-.07-.868-2.774-.223-1.079-14.619 3.18-.224a42.462 42.462 0 012.592-.084l.799 2.7.924-.056-.56-4.211v.001zm-24.732.402c-2.756.099-4.56 1.799-4.83 4.088-.742 6.253 7.65 5.876 7.146 10.1-.28 2.155-1.948 2.994-3.98 2.742-1.078-.126-2.927-.895-3.361-2-.238-.714-.42-1.819-.463-3.134l-.826.084-.21 4.127c1.107 1.007 3.194 1.692 4.89 1.874 3.614.434 5.926-1.51 6.304-4.616.574-4.994-7.776-4.799-7.23-9.513.225-1.847 1.668-2.84 3.49-2.616 2.101.238 2.745 1.902 2.9 3.749l.84-.028.126-3.847c-1.177-.252-2.353-.839-3.558-.951a7.744 7.744 0 00-1.238-.059z" fill="#336"/><path d="M102.285 91.004c-.589-.011-3.064.04-4.928 1.57 0 0-2.984 2.1-3.054 5.513 0 0 .434 4.28 3.489 5.847 0 0 .126.406 4.693 2.476 0 0 3.027.854 2.985 3.009 0 0 .462 2.769-3.237 2.867 0 0-3.026.406-4.651-2.252-1.359-2.182-1.05-4.029-1.149-4.392l-2.466 1.818-.027 5.47s3.544 2.28 7.495 2.224c0 0 4.497.028 6.655-2.126 0 0 2.409-1.413 2.381-5.358-.028-3.847-1.457-5.694-4.875-7.233 0 0-2.648-.867-3.755-1.119 0 0-2.564-.853-2.48-2.826.07-.84.477-2.924 3.587-2.895 4.343.056 4.007 4.77 4.007 5.12l2.563-1.637-.434-5.274s-1.415.224-3.642-.518l-.056-.014-.056-.013-.07-.029-.071-.014-.069-.013-.085-.014-.084-.015-.084-.014-.098-.013-.098-.014-.098-.015-.098-.014-.098-.013h-.112l-.211-.029-.21-.014-.224-.013-.21-.015-.224-.014H102.416l-.13-.004h-.001zm21.411.525l-8.065 20.322c-1.455.194-2.412.504-2.412.504h.026v2.548h9.257v-2.548s-.901-.301-2.308-.495l1.132-2.748h7.342l1.106 2.739c-1.158.21-1.95.445-2.003.461h-.026V114.903h10.328v-2.548h-.009c-.031-.01-1.214-.405-2.821-.643l-7.568-20.183h-3.98.001zm-47.497.279l-10.686.043v2.574h.035s1.098.327 2.57.574c-.012 1.584-.087 12.745.278 13.722.406.951.508 2.386 2.134 3.869 0 0 3.174 2.979 7.994 2.713 0 0 5.116.182 7.638-2.895 0 0 2.23-1.743 2.412-5.296V94.938c1.574-.186 2.621-.513 2.62-.513h-.025v-2.617h-9.292v2.617s.859.27 2.194.46v12.271s.395 4.973-5.251 5.434c0 0-4.833.286-4.833-5.478V94.964c1.292-.243 2.194-.539 2.194-.539h.018v-2.617zm48.734 7.844l2.438 6.322h-4.833l2.394-6.322h.001z" fill="#C33"/></g><defs><clipPath id="clip0_10_1308"><path fill="#fff" d="M0 0h200v201.46H0z"/></clipPath></defs></svg>