<svg width="463" height="332" viewBox="0 0 463 332" fill="none" xmlns="http://www.w3.org/2000/svg">
<mask id="mask0_93_2328" style="mask-type:alpha" maskUnits="userSpaceOnUse" x="61" y="39" width="191" height="233">
<path d="M179.19 177.316V194.776H183.017C201.168 194.786 218.572 201.994 231.402 214.815C244.231 227.637 251.437 245.021 251.433 263.146V271.695H61.3118V263.146C61.3101 254.169 63.0792 245.279 66.5183 236.984C69.9573 228.69 74.9988 221.153 81.355 214.804C87.7111 208.455 95.2573 203.419 103.563 199.982C111.868 196.546 120.77 194.777 129.76 194.776H133.562V177.316C125.318 173.406 118.217 167.446 112.941 160.01C107.665 152.573 104.39 143.908 103.43 134.844C100.714 134.451 98.231 133.094 96.4352 131.022C94.6394 128.95 93.6513 126.301 93.6517 123.56V110.265C93.6519 107.573 94.6066 104.967 96.3466 102.91C98.0866 100.853 100.5 99.477 103.158 99.0264V93.1743C103.08 86.1442 104.4 79.1685 107.04 72.6511C109.681 66.1337 113.59 60.204 118.541 55.2053C123.492 50.2066 129.386 46.2382 135.883 43.5299C142.381 40.8215 149.351 39.4269 156.392 39.4269C163.433 39.4269 170.403 40.8215 176.901 43.5299C183.398 46.2382 189.292 50.2066 194.243 55.2053C199.194 60.204 203.103 66.1337 205.744 72.6511C208.384 79.1685 209.704 86.1442 209.626 93.1743V99.0264C212.284 99.477 214.697 100.853 216.437 102.91C218.177 104.967 219.132 107.573 219.132 110.265V123.56C219.132 126.304 218.141 128.955 216.341 131.027C214.542 133.1 212.054 134.455 209.335 134.844C208.374 143.909 205.097 152.576 199.818 160.013C194.54 167.45 187.437 173.408 179.19 177.316Z" fill="#D0C6AC"/>
</mask>
<g mask="url(#mask0_93_2328)">
<path d="M281.85 40.0003H30.8953V271.695H281.85V40.0003Z" fill="#FBB676"/>
<path fill-rule="evenodd" clip-rule="evenodd" d="M209.607 115.012V136.862C209.684 143.892 208.365 150.868 205.724 157.385C203.084 163.902 199.175 169.832 194.224 174.831C189.273 179.83 183.378 183.798 176.881 186.506C170.384 189.215 163.413 190.609 156.373 190.609C149.332 190.609 142.361 189.215 135.864 186.506C129.367 183.798 123.472 179.83 118.521 174.831C113.57 169.832 109.662 163.902 107.021 157.385C104.381 150.868 103.061 143.892 103.139 136.862V129.257C103.061 136.287 104.381 143.263 107.021 149.78C109.662 156.298 113.57 162.228 118.521 167.226C123.472 172.225 129.367 176.193 135.864 178.902C142.361 181.61 149.332 183.005 156.373 183.005C163.413 183.005 170.384 181.61 176.881 178.902C183.378 176.193 189.273 172.225 194.224 167.226C199.175 162.228 203.084 156.298 205.724 149.78C208.365 143.263 209.684 136.287 209.607 129.257V115.012Z" fill="black" fill-opacity="0.1"/>
</g>
<mask id="mask1_93_2328" style="mask-type:alpha" maskUnits="userSpaceOnUse" x="61" y="179" width="191" height="93">
<path fill-rule="evenodd" clip-rule="evenodd" d="M133.562 179.651C116.524 181.558 103.404 186.764 103.126 200.137C90.7221 205.37 80.1383 214.138 72.6978 225.345C65.2573 236.551 61.2902 249.7 61.2925 263.146V271.695H251.434V263.146C251.436 249.7 247.469 236.551 240.028 225.345C232.588 214.138 222.004 205.37 209.6 200.137C209.341 186.757 196.221 181.558 179.164 179.651V197.647C179.164 200.639 178.574 203.601 177.427 206.365C176.281 209.129 174.601 211.64 172.482 213.756C170.364 215.871 167.849 217.549 165.081 218.694C162.313 219.839 159.346 220.428 156.35 220.428C153.354 220.428 150.387 219.839 147.619 218.694C144.852 217.549 142.337 215.871 140.218 213.756C138.1 211.64 136.419 209.129 135.273 206.365C134.126 203.601 133.536 200.639 133.536 197.647L133.562 179.651Z" fill="#B7C1DB"/>
</mask>
<g mask="url(#mask1_93_2328)">
<path d="M281.85 167.254H30.8953V271.695H281.85V167.254Z" fill="#008099"/>
<path fill-rule="evenodd" clip-rule="evenodd" d="M127.857 225.867V271.695H121.2V222.459C123.349 223.726 125.572 224.864 127.857 225.867ZM191.546 222.459V260.773C191.546 261.654 191.195 262.5 190.571 263.123C189.947 263.746 189.1 264.097 188.217 264.097C187.334 264.097 186.488 263.746 185.864 263.123C185.239 262.5 184.889 261.654 184.889 260.773V225.854C187.174 224.857 189.397 223.724 191.546 222.459Z" fill="#F4F4F4"/>
<path fill-rule="evenodd" clip-rule="evenodd" d="M117.36 179.32C103.055 182.023 93.1597 187.41 93.1597 197.918C93.1597 216.638 124.567 231.809 156.376 231.809C188.185 231.809 219.586 216.638 219.586 197.918C219.586 187.41 209.691 182.023 195.386 179.32C204.025 182.502 209.633 187.85 209.633 196.747C209.633 216.115 183.186 231.809 156.402 231.809C129.618 231.809 103.165 216.115 103.165 196.747C103.139 187.85 108.727 182.502 117.36 179.32Z" fill="black" fill-opacity="0.18"/>
</g>
<path d="M126.212 153.08C121.232 154.561 115.773 148.088 103.139 129.257C103.139 129.257 104.868 150.196 107.827 156.417C114.303 170.067 122.624 173.171 132.895 179.78C150.749 183.324 160.657 183.725 178.018 179.78C189.182 174.348 198.229 171.374 204.756 156.417C207.489 150.151 209.937 129.568 209.937 129.568C198.494 146.225 189.61 155.99 184.72 153.08C182.499 142.953 179.922 138.653 173.861 136.855C166.018 134.528 163.545 136.855 156.311 138.065C149.033 135.433 146.021 135.478 141.268 136.396C133.238 138.931 130.227 143.115 126.212 153.08Z" fill="#9E5D26"/>
<path d="M154.524 146.4L156.292 146.503V146.432H157.988C165.008 146.329 168.24 146.335 172.436 146.432C173.99 147.482 175.349 148.795 176.451 150.312C177.276 151.64 177.797 153.132 177.979 154.684C176.736 160.57 173.578 165.881 168.997 169.789H165.436C164.075 167.965 162.431 166.369 160.566 165.062L160.495 165.017L160.43 164.985C159.096 164.165 157.56 163.733 155.994 163.737C154.65 163.865 153.351 164.284 152.186 164.965L151.953 165.088L151.765 165.269L147.232 169.796H143.619C141.567 167.746 139.755 165.47 138.218 163.012C136.699 160.392 135.49 157.603 134.617 154.703C134.956 152.992 135.615 151.359 136.56 149.892C137.566 148.538 138.784 147.354 140.167 146.387C144.946 146.014 149.746 146.019 154.524 146.4Z" fill="#FBB676" stroke="#FBB676"/>
<path d="M169.658 149.743H142.919C145.464 157.503 148.19 160.271 156.292 161.422C164.509 160.419 167.003 157.348 169.658 149.743Z" fill="#503523" stroke="#503523" stroke-width="0.5"/>
<path fill-rule="evenodd" clip-rule="evenodd" d="M144.966 129.257C144.966 133.454 150.075 136.855 156.376 136.855C162.677 136.855 167.78 133.454 167.78 129.257" fill="black" fill-opacity="0.16"/>
<path d="M131.658 117.863C132.786 117.863 133.889 117.529 134.828 116.903C135.766 116.277 136.497 115.388 136.929 114.347C137.361 113.306 137.474 112.16 137.254 111.055C137.033 109.95 136.49 108.935 135.692 108.138C134.894 107.341 133.878 106.799 132.771 106.579C131.664 106.359 130.517 106.472 129.475 106.903C128.432 107.334 127.541 108.064 126.914 109.001C126.287 109.938 125.953 111.04 125.953 112.166C125.953 113.677 126.554 115.126 127.624 116.195C128.694 117.263 130.145 117.863 131.658 117.863Z" fill="#006CAB" fill-opacity="0.6"/>
<path d="M181.075 117.863C182.203 117.865 183.307 117.532 184.246 116.906C185.185 116.281 185.917 115.392 186.35 114.351C186.783 113.31 186.897 112.164 186.677 111.059C186.458 109.953 185.915 108.938 185.118 108.14C184.32 107.343 183.303 106.8 182.197 106.579C181.09 106.359 179.942 106.471 178.899 106.902C177.856 107.333 176.965 108.064 176.338 109.001C175.711 109.938 175.376 111.039 175.376 112.166C175.376 113.676 175.976 115.124 177.045 116.192C178.113 117.261 179.563 117.862 181.075 117.863Z" fill="#006CAB" fill-opacity="0.6"/>
<path d="M118.001 100.003C121.718 94.7715 131.923 91.8422 140.711 93.9955C140.953 94.055 141.205 94.0662 141.452 94.0285C141.699 93.9908 141.935 93.9049 142.149 93.7758C142.362 93.6467 142.548 93.4769 142.696 93.276C142.844 93.0752 142.95 92.8472 143.01 92.6052C143.069 92.3632 143.081 92.1118 143.043 91.8655C143.005 91.6191 142.919 91.3826 142.79 91.1695C142.661 90.9563 142.491 90.7707 142.289 90.6231C142.088 90.4756 141.86 90.3691 141.618 90.3096C131.412 87.8006 119.6 91.202 114.899 97.8043C114.633 98.2157 114.537 98.7135 114.63 99.194C114.723 99.6745 114.998 100.101 115.397 100.384C115.797 100.667 116.291 100.786 116.775 100.715C117.26 100.644 117.699 100.389 118.001 100.003Z" fill="black" fill-opacity="0.6"/>
<path d="M194.751 100.003C191.028 94.7715 180.828 91.8422 172.034 93.9955C171.545 94.1156 171.027 94.0365 170.596 93.7758C170.165 93.5151 169.856 93.094 169.735 92.6052C169.615 92.1164 169.694 91.6 169.955 91.1695C170.216 90.739 170.638 90.4297 171.128 90.3096C181.333 87.8006 193.145 91.202 197.847 97.8043C197.991 98.0072 198.094 98.2366 198.15 98.4794C198.206 98.7221 198.213 98.9735 198.172 99.2191C198.13 99.4647 198.041 99.6997 197.908 99.9107C197.776 100.122 197.603 100.305 197.4 100.449C197.196 100.593 196.967 100.696 196.724 100.752C196.481 100.808 196.229 100.815 195.983 100.774C195.737 100.732 195.502 100.643 195.29 100.511C195.079 100.378 194.896 100.206 194.751 100.003Z" fill="black" fill-opacity="0.6"/>
<path fill-rule="evenodd" clip-rule="evenodd" d="M102.193 98.8713C102.517 100.287 103.78 100.035 104.091 98.8713C103.65 97.4163 107.251 71.5503 116.446 64.6894C119.892 62.2968 138.322 60.1628 156.674 60.1628C174.806 60.1628 192.899 62.3097 196.299 64.6894C205.52 71.5503 209.095 97.4163 208.655 98.8713C208.965 100.035 210.228 100.287 210.559 98.8713C211.07 91.5835 216.296 61.2363 193.722 46.6996C186.002 41.7269 170.189 38.8752 156.395 39.0498C142.848 39.2243 128.893 42.9296 121.219 47.8312C98.1848 62.4585 101.675 91.5383 102.193 98.8713Z" fill="#9E5D26" stroke="#9E5D26" stroke-miterlimit="10"/>
<path d="M118.752 93.8209H137.363C140.455 93.8209 143.419 95.0472 145.605 97.2301C147.791 99.413 149.019 102.374 149.019 105.461V108.759C149.019 113.758 147.031 118.552 143.491 122.087C139.95 125.622 135.149 127.608 130.143 127.608H127.818C122.322 127.608 117.051 125.428 113.165 121.548C109.279 117.667 107.095 112.404 107.095 106.916V105.461C107.095 102.374 108.324 99.413 110.51 97.2301C112.696 95.0472 115.66 93.8209 118.752 93.8209V93.8209Z" stroke="#252C2F" stroke-width="5" stroke-miterlimit="10"/>
<path d="M175.376 93.6852H193.987C197.079 93.6852 200.043 94.9115 202.229 97.0943C204.415 99.2772 205.644 102.238 205.644 105.325V108.623C205.644 113.622 203.655 118.417 200.115 121.952C196.575 125.487 191.773 127.473 186.767 127.473H184.442C178.946 127.473 173.675 125.292 169.789 121.412C165.903 117.531 163.719 112.268 163.719 106.78V105.325C163.719 102.238 164.948 99.2772 167.134 97.0943C169.32 94.9115 172.284 93.6852 175.376 93.6852Z" stroke="#252C2F" stroke-width="5" stroke-miterlimit="10"/>
<path d="M162.845 101.865H149.441C149.029 101.865 148.696 102.198 148.696 102.609C148.696 103.02 149.029 103.353 149.441 103.353H162.845C163.257 103.353 163.59 103.02 163.59 102.609C163.59 102.198 163.257 101.865 162.845 101.865Z" stroke="#252C2F" stroke-width="5" stroke-miterlimit="10"/>
<path d="M105.515 101.749H98.2691C97.8256 101.749 97.4661 102.108 97.4661 102.551C97.4661 102.994 97.8256 103.353 98.2691 103.353H105.515C105.959 103.353 106.318 102.994 106.318 102.551C106.318 102.108 105.959 101.749 105.515 101.749Z" stroke="#252C2F" stroke-width="5" stroke-miterlimit="10"/>
<path d="M213.635 102.441H206.388C205.945 102.441 205.585 102.8 205.585 103.243C205.585 103.685 205.945 104.044 206.388 104.044H213.635C214.078 104.044 214.438 103.685 214.438 103.243C214.438 102.8 214.078 102.441 213.635 102.441Z" stroke="#252C2F" stroke-width="5" stroke-miterlimit="10"/>
<path d="M134.177 68.3171C123.317 68.4982 117.411 74.2016 106.869 84.4445L102.2 100.772C99.8751 87.529 100.031 71.9836 114.549 48.9694C128.796 36.8318 138.14 35.6096 158.584 35.6096C179.307 37.9699 189.668 39.0433 201.227 53.1596C210.844 69.106 209.257 78.8187 209.257 89.7923C209.257 100.766 184.002 79.1226 175.13 62.9176C164.995 70.6774 137.57 77.2473 134.171 75.4561C130.771 73.6649 134.177 68.3171 134.177 68.3171Z" fill="#9E5D26"/>
<path d="M65.1261 250.821L62.1599 269.645L43.64 276.218L28.0717 264.026L31.0294 245.237L49.5566 238.635L65.1261 250.821Z" fill="#E21C3D"/>
<path d="M86.1178 281.155L76.6041 298.366L56.4592 298.799L45.8163 282.002L55.2945 264.782L75.4382 264.354L86.1178 281.155Z" fill="#F3B8BE"/>
<path d="M55.077 273.084L55.2956 289.559L40.5586 297.711L25.6063 289.352L25.3878 272.877L40.1163 264.76L55.077 273.084Z" fill="#FFF0F3"/>
<path d="M55.9085 277.279L51.3401 276.861L49.502 272.762L52.2323 269.082L56.8007 269.5L58.6388 273.599L55.9085 277.279Z" fill="#0071BB"/>
<path d="M441.234 110.119H282.417C281.025 110.119 279.896 111.246 279.896 112.637V221.763C279.896 223.154 281.025 224.281 282.417 224.281H441.234C442.626 224.281 443.755 223.154 443.755 221.763V112.637C443.755 111.246 442.626 110.119 441.234 110.119Z" fill="#CEDCEC"/>
<path d="M441.234 112.637V221.753H282.417V112.637H441.234ZM441.234 107.602H282.417C281.08 107.602 279.798 108.132 278.852 109.076C277.906 110.021 277.375 111.301 277.375 112.637V221.753C277.375 223.088 277.906 224.369 278.852 225.313C279.798 226.258 281.08 226.788 282.417 226.788H441.234C442.571 226.788 443.854 226.258 444.799 225.313C445.745 224.369 446.276 223.088 446.276 221.753V112.637C446.276 111.301 445.745 110.021 444.799 109.076C443.854 108.132 442.571 107.602 441.234 107.602Z" fill="#454546"/>
<path d="M264.316 210.968L272.293 226.899H450.834L459.728 210.968H378.127L372.611 216.174H349.598L346.835 210.968H264.316Z" fill="#454546" stroke="#454546" stroke-width="3" stroke-linecap="round" stroke-linejoin="round"/>
<path d="M421.721 120.763H301.718C300.326 120.763 299.197 121.89 299.197 123.28V198.18C299.197 199.57 300.326 200.697 301.718 200.697H421.721C423.113 200.697 424.242 199.57 424.242 198.18V123.28C424.242 121.89 423.113 120.763 421.721 120.763Z" fill="#F2F9FD"/>
<path d="M421.721 123.28V198.17H301.718V123.28H421.721ZM421.721 118.245H301.718C300.381 118.245 299.099 118.776 298.153 119.72C297.208 120.664 296.676 121.945 296.676 123.28V198.17C296.676 199.505 297.208 200.786 298.153 201.73C299.099 202.674 300.381 203.204 301.718 203.204H421.721C423.058 203.204 424.341 202.674 425.286 201.73C426.232 200.786 426.763 199.505 426.763 198.17V123.28C426.763 121.945 426.232 120.664 425.286 119.72C424.341 118.776 423.058 118.245 421.721 118.245Z" fill="#122E50"/>
<path d="M421.71 121.518H299.59V137.136H421.71V121.518Z" fill="#122E50"/>
<path d="M414.36 126.926H381.677C381.036 126.926 380.517 127.444 380.517 128.084V128.265C380.517 128.904 381.036 129.423 381.677 129.423H414.36C415 129.423 415.52 128.904 415.52 128.265V128.084C415.52 127.444 415 126.926 414.36 126.926Z" fill="#F2F9FD"/>
<path d="M309.171 129.423C309.862 129.423 310.422 128.864 310.422 128.174C310.422 127.485 309.862 126.926 309.171 126.926C308.48 126.926 307.92 127.485 307.92 128.174C307.92 128.864 308.48 129.423 309.171 129.423Z" fill="#F2F9FD"/>
<path d="M314.748 129.423C315.439 129.423 315.999 128.864 315.999 128.174C315.999 127.485 315.439 126.926 314.748 126.926C314.057 126.926 313.497 127.485 313.497 128.174C313.497 128.864 314.057 129.423 314.748 129.423Z" fill="#F2F9FD"/>
<path d="M320.263 129.423C320.954 129.423 321.514 128.864 321.514 128.174C321.514 127.485 320.954 126.926 320.263 126.926C319.573 126.926 319.013 127.485 319.013 128.174C319.013 128.864 319.573 129.423 320.263 129.423Z" fill="#F2F9FD"/>
<path d="M421.721 137.136H301.718V168.292H421.721V137.136Z" fill="#EBF3F2"/>
<path d="M381.646 140.671H339.666V147.126H381.646V140.671Z" fill="#122E50"/>
<path d="M381.646 156.199H339.666V162.653H381.646V156.199Z" fill="#122E50"/>
<path d="M366.449 173.398H360.65L359.551 174.959L360.65 177.98C360.943 177.973 361.234 178.024 361.507 178.13C361.78 178.235 362.03 178.394 362.241 178.596C362.453 178.798 362.623 179.039 362.741 179.307C362.859 179.574 362.923 179.862 362.93 180.155C362.928 180.484 362.849 180.808 362.7 181.101C362.552 181.395 362.337 181.65 362.072 181.846L362.819 185.975C362.102 186.092 361.377 186.15 360.65 186.146L359.551 189.942L360.65 192.963C366.136 190.647 368.062 187.616 368.546 186.68C368.638 186.502 368.686 186.306 368.688 186.106V175.563C368.672 174.981 368.427 174.43 368.005 174.028C367.584 173.626 367.021 173.407 366.439 173.418" fill="#B51E23"/>
<path d="M358.502 185.945L359.259 181.836C358.986 181.641 358.764 181.384 358.61 181.087C358.455 180.789 358.374 180.459 358.371 180.124C358.387 179.533 358.637 178.972 359.066 178.565C359.495 178.157 360.068 177.936 360.661 177.949V173.398H354.862C354.569 173.387 354.277 173.435 354.003 173.538C353.729 173.642 353.478 173.799 353.266 174.001C353.054 174.203 352.884 174.445 352.767 174.713C352.649 174.981 352.587 175.27 352.583 175.563V186.106C352.584 186.306 352.633 186.502 352.724 186.68C353.208 187.616 355.134 190.647 360.63 192.963V186.136C359.908 186.135 359.186 186.077 358.472 185.965" fill="#E21D3E"/>
<path d="M362.082 181.816C362.347 181.62 362.562 181.365 362.71 181.071C362.859 180.777 362.938 180.453 362.94 180.124C362.901 179.546 362.644 179.003 362.219 178.607C361.795 178.211 361.236 177.99 360.655 177.99C360.075 177.99 359.515 178.211 359.091 178.607C358.667 179.003 358.41 179.546 358.371 180.124C358.374 180.459 358.455 180.789 358.609 181.087C358.764 181.384 358.986 181.641 359.259 181.836L358.502 185.945C359.216 186.057 359.938 186.114 360.66 186.116C361.387 186.124 362.113 186.067 362.829 185.945L362.082 181.816Z" fill="white"/>
<path d="M325.292 264.137C325.292 290.043 303.81 311.039 277.311 311.039C250.812 311.039 229.33 290.043 229.33 264.137C229.33 238.232 250.812 217.236 277.311 217.236C303.81 217.236 325.292 238.232 325.292 264.137Z" fill="#205493"/>
<ellipse rx="24.9867" ry="24.9522" transform="matrix(0.95685 0.290581 -0.291467 0.956581 277.311 264.139)" fill="white"/>
<ellipse rx="14.992" ry="14.9713" transform="matrix(0.95685 0.290582 -0.291467 0.956581 277.027 263.856)" fill="#205493"/>
<path d="M282.83 232.248H271.33L273.33 241.248H280.83L282.83 232.248Z" fill="white"/>
<path d="M271.33 296.248L282.83 296.248L280.83 287.248L273.33 287.248L271.33 296.248Z" fill="white"/>
<path d="M309.11 269.826L309.048 258.326L300.059 260.375L300.099 267.874L309.11 269.826Z" fill="white"/>
<path d="M304.107 246.176L296.125 237.898L291.034 245.584L296.24 250.983L304.107 246.176Z" fill="white"/>
<path d="M250.052 282.32L258.035 290.599L263.125 282.912L257.92 277.513L250.052 282.32Z" fill="white"/>
<path d="M257.85 238.032L249.926 246.366L257.827 251.118L262.995 245.683L257.85 238.032Z" fill="white"/>
<path d="M296.309 290.465L304.233 282.13L296.332 277.378L291.165 282.814L296.309 290.465Z" fill="white"/>
<path d="M245.049 258.671L245.111 270.171L254.1 268.122L254.06 260.622L245.049 258.671Z" fill="white"/>
</svg>
