<svg id="Layer_1" xmlns="http://www.w3.org/2000/svg" version="1.1" viewBox="0 0 463 288"><defs><style>.st0{fill:#9e5d26}.st2{fill:#503523;stroke:#503523;stroke-width:.5px}.st6{fill-rule:evenodd;fill-opacity:.2}.st15{fill:#0071bb}</style></defs><rect x="60.3" y="27.4" width="295.4" height="238.3" rx="30.2" ry="30.2" style="fill:#ecf3fa"/><path class="st15" d="M430.3 147.8c0 41.2-34.1 74.6-76.3 74.6s-76.3-33.4-76.3-74.6 34.1-74.6 76.3-74.6 76.3 33.4 76.3 74.6Z"/><path d="m78.1 217.8-3.3 21.1-20.7 7.4-17.4-13.7 3.3-21 20.7-7.4 17.4 13.6Z" style="fill:#fff0f3"/><path d="m101.5 251.8-10.6 19.3-22.5.5-11.9-18.8 10.6-19.3 22.5-.5 12 18.8Z" style="fill:#e21c3d"/><path d="m66.8 242.8.2 18.5-16.5 9.1-16.7-9.4-.2-18.5 16.5-9.1 16.7 9.3q0 .1 0 0Z" style="fill:#f3b8be"/><path class="st15" d="m66.1 246.4-5.1-.5-2.1-4.6 3.1-4.1 5.1.5 2.1 4.6-3.1 4.1Z"/><path d="m400 153.9-7.3-4.4v-7l7.3-4.3c2.2-1.3 3-3.9 2.1-6.3l-3.8-9.3c-1-2.3-3.5-3.6-5.9-3l-8.3 2.1-4.9-4.9 2.1-8.2c.6-2.4-.6-4.9-2.9-5.9l-9.2-3.8c-2.3-1-5 0-6.3 2.1l-4.4 7.3h-7l-4.3-7.3c-1.3-2.2-3.9-3-6.3-2.1l-9.3 3.8c-2.3 1-3.6 3.5-3 5.9l2.1 8.3-4.9 4.9-8.3-2.1c-2.4-.6-4.9.6-5.9 3l-3.8 9.2c-1 2.3 0 5 2.1 6.3l7.3 4.4v7l-7.3 4.3c-2.2 1.3-3.1 3.9-2.1 6.3l3.8 9.3c1 2.3 3.5 3.6 5.9 3l8.3-2.1 4.9 4.9-2.1 8.2c-.6 2.4.6 4.9 3 5.9l9.2 3.8c2.3 1 5 0 6.3-2.1l4.4-7.3h7l4.3 7.3c1.3 2.2 3.9 3 6.3 2.1l9.3-3.8c2.3-1 3.6-3.5 3-5.9l-2.1-8.3 4.9-4.9 8.3 2.1c2.4.6 4.9-.6 5.9-3l3.8-9.2c1-2.3 0-5-2.1-6.3h-.1Zm-52.3 16.2c-15.3-4.7-22.5-22-14.9-36.1 5.6-10.4 18.1-15.6 29.4-12.1 15.3 4.7 22.5 22 14.9 36.1-5.6 10.4-18.1 15.5-29.4 12.1Z" style="fill:#fff"/><path d="M204.2 190.9v17.5h3.8c18.2 0 35.6 7.2 48.4 20.1 12.8 12.8 20.1 30.3 20 48.4v8.6H86.2v-8.6c0-9 1.8-17.9 5.2-26.2s8.5-15.9 14.8-22.2c12.9-12.9 30.3-20.1 48.5-20.1h3.8v-17.5c-8.2-3.9-15.4-9.9-20.6-17.3s-8.6-16.1-9.5-25.2c-5.6-.8-9.8-5.6-9.8-11.3v-13.3c0-2.7 1-5.3 2.7-7.4 1.7-2.1 4.2-3.4 6.8-3.9v-5.9c-.2-14.2 5.4-27.9 15.4-38 20.7-20.9 54.5-21.1 75.4-.4l.4.4c10 10.1 15.6 23.8 15.4 38v5.9c2.7.4 5.1 1.8 6.8 3.9s2.7 4.7 2.7 7.4v13.3c0 2.8-1 5.4-2.8 7.5-1.8 2.1-4.3 3.4-7 3.8-1 9.1-4.2 17.8-9.5 25.2s-12.4 13.4-20.6 17.3Z" style="fill:#fbb676" id="b"/><path d="M265 238.9c-5.7-8.5-13.1-15.6-21.8-20.8-2.8-1.7-5.7-3.2-8.8-4.5v-.8c-.8-12.8-13.7-17.8-30.4-19.7v18c0 6.1-2.4 11.9-6.7 16.1-6.5 6.5-16.4 8.5-24.9 4.9-8.5-3.5-14.1-11.9-14.1-21.1v-17.9c-16.2 1.8-28.7 6.6-30.2 18.5 0 .6-.1 1.3-.2 2-3 1.2-5.9 2.7-8.6 4.4-8.7 5.2-16.2 12.4-21.9 20.9C90 250.1 86 263.3 86 276.8v8.6h190.4v-8.6c0-13.5-4-26.6-11.4-37.9Zm-106.6-45.8c0 .1 0 .1.1.1h-.1Z" style="fill:#008099"/><path d="M209.9 239.5v35c0 .9.4 1.8 1 2.4s1.4 1 2.4 1c1.8 0 3.3-1.5 3.3-3.3v-38.4c-2.1 1.3-4.4 2.4-6.7 3.4Zm-58-.4c-.4-.2-.9-.4-1.4-.6-.7-.3-1.4-.7-2.1-1l-2.1-1.2c-.1 0-.2-.1-.3-.2v49.3h6.7v-45.9c-.3-.1-.6-.2-.8-.4Z" style="fill-rule:evenodd;fill:#f4f4f4"/><path class="st6" d="M169.9 142.8c0 4.2 5.1 7.6 11.4 7.6s11.4-3.4 11.4-7.6"/><path class="st2" d="M142.9 113.5c3.7-5.2 13.9-8.2 22.7-6 1 .2 2.1-.4 2.3-1.4v-.7c0-.5-.4-.9-.8-1.2-.2-.2-.4-.2-.7-.3-10.2-2.5-22 .9-26.8 7.5-.6.9-.3 2 .5 2.6s2 .4 2.6-.4Zm76.9 0c-3.7-5.2-13.9-8.2-22.7-6-1 .2-2.1-.4-2.3-1.4s.4-2.1 1.4-2.3c10.2-2.5 22 .9 26.8 7.5.6.8.4 2-.4 2.7-.2.2-.4.2-.7.3-.8.2-1.5-.1-2-.8Z"/><path d="M127.1 112.3c.3 1.4 1.6 1.2 1.9 0-.4-1.5 3.2-27.4 12.4-34.2 3.4-2.4 21.9-4.5 40.3-4.5s36.3 2.2 39.7 4.5c9.2 6.9 12.8 32.8 12.4 34.2.3 1.2 1.6 1.4 1.9 0 .5-7.3 5.7-37.7-16.9-52.3-7.7-5-23.6-7.8-37.4-7.7-13.6.2-27.5 3.9-35.2 8.8-23.1 14.6-19.6 43.8-19.1 51.1Z" style="stroke:#9e5d26;stroke-miterlimit:10;fill-rule:evenodd;fill:#9e5d26"/><path d="M143.7 107.3h18.6c3.1 0 6.1 1.2 8.2 3.4 2.2 2.2 3.4 5.2 3.4 8.2v3.3c0 5-2 9.8-5.5 13.4-3.6 3.5-8.4 5.5-13.4 5.5h-2.3c-5.5 0-10.8-2.2-14.7-6.1-3.9-3.9-6.1-9.2-6.1-14.7v-1.5c0-3.1 1.2-6.1 3.4-8.2 2.2-2.2 5.2-3.4 8.2-3.4Zm56.7-.2H219c3.1 0 6.1 1.2 8.2 3.4 2.2 2.2 3.4 5.2 3.4 8.2v3.3c0 5-2 9.8-5.5 13.4-3.6 3.5-8.4 5.5-13.4 5.5h-2.3c-5.5 0-10.8-2.2-14.7-6.1-3.9-3.9-6.1-9.2-6.1-14.7v-1.5c0-3.1 1.2-6.1 3.4-8.2 2.2-2.2 5.2-3.4 8.2-3.4Zm-12.6 8.2h-13.4c-.4 0-.7.3-.7.8s.3.7.7.7h13.4c.4 0 .8-.3.8-.7s-.3-.8-.7-.8Zm-57.4-.1h-7.2c-.4 0-.8.3-.8.8s.3.8.8.8h7.3c.4 0 .8-.3.8-.8 0-.4-.3-.8-.8-.8Zm108.3.7h-7.2c-.4 0-.8.3-.8.8 0 .4.3.8.8.8h7.3c.4 0 .8-.3.8-.8 0-.4-.3-.8-.8-.8Z" style="fill:none;stroke:#252c2f;stroke-width:5px;stroke-miterlimit:10"/><path class="st0" d="M159.1 81.7c-10.9.2-16.8 5.9-27.3 16.2l-4.7 16.4c-2.3-13.3-2.2-28.8 12.4-51.9C153.8 50.2 163.1 49 183.6 49c20.8 2.4 31.1 3.4 42.7 17.6 9.6 16 8 25.7 8 36.7S209 92.6 200.1 76.4c-10.1 7.8-37.6 14.3-41 12.6-3.4-1.8 0-7.2 0-7.2Z"/><path class="st6" d="M204.1 189.8v7.6c-.8.4-1.6.7-2.4 1.1-13.1 5.5-27.9 5.5-41.1 0-.8-.3-1.5-.6-2.2-1v-7.6c.7.4 1.5.7 2.2 1 13.1 5.5 27.9 5.5 41.1 0l2.4-1Z"/><path class="st0" d="M151.1 166.6c-5 1.5-10.4-5-23.1-23.9 0 0 1.7 21 4.7 27.2 6.5 13.7 14.8 16.8 25.1 23.4 17.9 3.6 27.8 3.9 45.2 0 11.2-5.4 20.2-8.4 26.8-23.4 2.7-6.3 5.2-26.9 5.2-26.9-11.5 16.7-20.4 26.5-25.2 23.6-2.2-10.1-4.8-14.4-10.9-16.2-7.9-2.3-10.3 0-17.6 1.2-7.3-2.6-10.3-2.6-15.1-1.7-8 2.5-11.1 6.7-15.1 16.7Z"/><path d="M179.5 159.9h1.8c0 .1 0 0 0 0h1.7c7-.1 10.3-.1 14.5 0 1.6 1.1 2.9 2.4 4 3.9.8 1.3 1.4 2.8 1.5 4.4-1.2 5.9-4.4 11.2-9 15.1h-3.6c-1.4-1.8-3-3.4-4.9-4.7-1.3-.8-2.9-1.2-4.4-1.2-1.3.1-2.6.6-3.8 1.2h-.2c0 .1-.2.3-.2.3l-4.5 4.5h-3.6c-2.1-2.1-3.9-4.3-5.4-6.8-1.5-2.6-2.7-5.4-3.6-8.3.3-1.7 1-3.4 1.9-4.8 1-1.4 2.2-2.5 3.6-3.5 4.8-.4 9.6-.4 14.4 0Z" style="stroke:#fbb676;fill:#fbb676"/><path class="st2" d="M194.6 163.3h-26.8c2.6 7.8 5.3 10.6 13.4 11.7 8.2-1 10.7-4.1 13.4-11.7Z"/><path class="st6" d="M151.9 239.1c8.4 3.8 18.2 6.2 28.2 6.3-9.5-.1-18.8-1.6-27.3-4-2.3-.7-4.5-1.4-6.7-2.2-13.2-5-23.4-12.5-26.8-21.2 2.8-1.7 5.6-3.1 8.6-4.4 0-.7 0-1.4.2-2 .6 10.4 8.8 19.6 20.4 25.8.7.4 1.4.7 2 1 .5.2.9.4 1.4.6Zm91.4-21c-3.5 8.7-13.6 16.2-26.8 21.1-2.1.8-4.4 1.5-6.7 2.2-8.5 2.5-17.8 3.9-27.3 4 9.6-.2 19.1-2.3 27.3-5.9 2.3-1 4.6-2.2 6.7-3.4 9.9-5.9 16.9-14.1 18-23.3v.8c3 1.3 6 2.8 8.8 4.5Z"/><path d="M156.6 131.3c3.2 0 5.7-2.6 5.7-5.7s-2.6-5.7-5.7-5.7c-.7 0-1.5.1-2.2.4-2.9 1.2-4.3 4.5-3.1 7.5.9 2.1 3 3.5 5.3 3.5Zm49.5 0c2.3 0 4.4-1.4 5.3-3.5 1.2-2.9-.2-6.2-3.1-7.5-.3-.1-.7-.3-1.1-.3-2.3-.5-4.6.5-5.9 2.4-1.5 2.3-1.2 5.3.7 7.2 1.1 1.1 2.5 1.7 4 1.7Z" style="fill:#006cab;fill-opacity:.6"/></svg>