<svg width="463" height="292" viewBox="0 0 463 292" fill="none" xmlns="http://www.w3.org/2000/svg">
<g clip-path="url(#clip0_93_2328)">
<mask id="mask0_93_2328" style="mask-type:alpha" maskUnits="userSpaceOnUse" x="61" y="4" width="191" height="234">
<path d="M179.398 142.955V160.445H183.23C201.402 160.456 218.826 167.676 231.671 180.52C244.516 193.364 251.729 210.779 251.726 228.936V237.499H61.3831V228.936C61.3814 219.943 63.1526 211.037 66.5956 202.728C70.0387 194.419 75.086 186.869 81.4496 180.509C87.8131 174.149 95.3681 169.103 103.683 165.661C111.998 162.218 120.911 160.446 129.911 160.445H133.717V142.955C125.463 139.038 118.355 133.068 113.073 125.618C107.791 118.168 104.512 109.488 103.55 100.408C100.831 100.015 98.3452 98.6551 96.5474 96.5792C94.7495 94.5033 93.7602 91.8498 93.7606 89.1046V75.7861C93.7608 73.0887 94.7166 70.4784 96.4586 68.4177C98.2007 66.357 100.616 64.9789 103.278 64.5276V58.6651C103.2 51.6227 104.521 44.6347 107.165 38.1059C109.808 31.577 113.722 25.6369 118.679 20.6294C123.635 15.6219 129.537 11.6466 136.042 8.93344C142.546 6.2203 149.525 4.8233 156.574 4.8233C163.623 4.8233 170.602 6.2203 177.106 8.93344C183.611 11.6466 189.513 15.6219 194.469 20.6294C199.426 25.6369 203.339 31.577 205.983 38.1059C208.626 44.6347 209.948 51.6227 209.87 58.6651V64.5276C212.531 64.9789 214.947 66.357 216.689 68.4177C218.431 70.4784 219.387 73.0887 219.387 75.7861V89.1046C219.387 91.8527 218.395 94.5086 216.593 96.5849C214.791 98.6612 212.301 100.019 209.578 100.408C208.616 109.489 205.335 118.171 200.051 125.621C194.766 133.071 187.655 139.04 179.398 142.955Z" fill="#D0C6AC"/>
</mask>
<g mask="url(#mask0_93_2328)">
<path d="M282.178 5.39767H30.9312V237.499H282.178V5.39767Z" fill="#FBB676"/>
<path fill-rule="evenodd" clip-rule="evenodd" d="M209.85 80.5409V102.43C209.928 109.472 208.607 116.46 205.964 122.989C203.32 129.518 199.407 135.458 194.45 140.465C189.493 145.473 183.592 149.448 177.087 152.161C170.582 154.874 163.603 156.271 156.554 156.271C149.506 156.271 142.527 154.874 136.022 152.161C129.517 149.448 123.616 145.473 118.659 140.465C113.702 135.458 109.789 129.518 107.145 122.989C104.502 116.46 103.181 109.472 103.259 102.43V94.8116C103.181 101.854 104.502 108.842 107.145 115.371C109.789 121.9 113.702 127.84 118.659 132.847C123.616 137.855 129.517 141.83 136.022 144.543C142.527 147.256 149.506 148.653 156.554 148.653C163.603 148.653 170.582 147.256 177.087 144.543C183.592 141.83 189.493 137.855 194.45 132.847C199.407 127.84 203.32 121.9 205.964 115.371C208.607 108.842 209.928 101.854 209.85 94.8116V80.5409Z" fill="black" fill-opacity="0.1"/>
</g>
<mask id="mask1_93_2328" style="mask-type:alpha" maskUnits="userSpaceOnUse" x="61" y="145" width="191" height="93">
<path fill-rule="evenodd" clip-rule="evenodd" d="M133.717 145.294C116.66 147.205 103.525 152.419 103.246 165.815C90.8276 171.058 80.2315 179.841 72.7824 191.068C65.3332 202.294 61.3615 215.466 61.3638 228.936V237.499H251.726V228.936C251.728 215.466 247.757 202.294 240.308 191.068C232.858 179.841 222.262 171.058 209.844 165.815C209.585 152.413 196.45 147.205 179.373 145.294V163.321C179.373 166.318 178.782 169.286 177.634 172.055C176.486 174.824 174.804 177.34 172.683 179.459C170.562 181.578 168.044 183.259 165.273 184.406C162.502 185.553 159.531 186.143 156.532 186.143C153.533 186.143 150.562 185.553 147.791 184.406C145.02 183.259 142.502 181.578 140.381 179.459C138.26 177.34 136.578 174.824 135.43 172.055C134.282 169.286 133.691 166.318 133.691 163.321L133.717 145.294Z" fill="#B7C1DB"/>
</mask>
<g mask="url(#mask1_93_2328)">
<path d="M282.178 132.876H30.9314V237.499H282.178V132.876Z" fill="#008099"/>
<path fill-rule="evenodd" clip-rule="evenodd" d="M128.006 191.591V237.499H121.341V188.177C123.493 189.446 125.718 190.586 128.006 191.591ZM191.769 188.177V226.558C191.769 227.441 191.418 228.288 190.793 228.913C190.168 229.537 189.32 229.888 188.436 229.888C187.553 229.888 186.705 229.537 186.08 228.913C185.455 228.288 185.104 227.441 185.104 226.558V191.578C187.392 190.58 189.618 189.444 191.769 188.177Z" fill="#F4F4F4"/>
<path fill-rule="evenodd" clip-rule="evenodd" d="M117.496 144.963C103.175 147.67 93.2681 153.066 93.2681 163.593C93.2681 182.346 124.712 197.543 156.558 197.543C188.404 197.543 219.841 182.346 219.841 163.593C219.841 153.066 209.935 147.67 195.613 144.963C204.262 148.15 209.877 153.507 209.877 162.42C209.877 181.822 183.399 197.543 156.584 197.543C129.769 197.543 103.285 181.822 103.285 162.42C103.259 153.507 108.854 148.15 117.496 144.963Z" fill="black" fill-opacity="0.18"/>
</g>
<path d="M126.359 118.676C121.373 120.159 115.908 113.675 103.259 94.8116C103.259 94.8116 104.99 115.787 107.953 122.019C114.436 135.693 122.767 138.803 133.05 145.423C150.924 148.973 160.844 149.375 178.225 145.423C189.403 139.982 198.46 137.002 204.995 122.019C207.731 115.742 210.181 95.1225 210.181 95.1225C198.725 111.809 189.83 121.591 184.936 118.676C182.712 108.532 180.131 104.224 174.063 102.423C166.212 100.091 163.735 102.423 156.493 103.634C149.206 100.998 146.191 101.043 141.433 101.963C133.393 104.502 130.379 108.694 126.359 118.676Z" fill="#9E5D26"/>
<path d="M154.704 111.984L156.474 112.088V112.017H158.173C165.2 111.913 168.436 111.92 172.637 112.017C174.193 113.069 175.553 114.384 176.656 115.904C177.482 117.233 178.005 118.728 178.187 120.283C176.942 126.18 173.78 131.5 169.194 135.415H165.628C164.266 133.587 162.62 131.988 160.753 130.68L160.682 130.634L160.617 130.602C159.282 129.78 157.744 129.347 156.176 129.352C154.831 129.48 153.53 129.9 152.364 130.582L152.13 130.705L151.942 130.887L147.404 135.421H143.786C141.732 133.368 139.918 131.088 138.379 128.626C136.858 126.001 135.648 123.207 134.774 120.302C135.113 118.588 135.773 116.952 136.719 115.482C137.726 114.126 138.946 112.94 140.331 111.971C145.115 111.598 149.921 111.602 154.704 111.984Z" fill="#FBB676" stroke="#FBB676"/>
<path d="M169.855 115.333H143.086C145.634 123.107 148.363 125.879 156.474 127.033C164.701 126.028 167.197 122.951 169.855 115.333Z" fill="#503523" stroke="#503523" stroke-width="0.5"/>
<path fill-rule="evenodd" clip-rule="evenodd" d="M145.135 94.8116C145.135 99.0157 150.25 102.423 156.558 102.423C162.866 102.423 167.975 99.0157 167.975 94.8116" fill="black" fill-opacity="0.16"/>
<path d="M131.811 83.3976C132.941 83.3976 134.045 83.0629 134.985 82.4358C135.924 81.8087 136.656 80.9174 137.088 79.8746C137.521 78.8318 137.634 77.6843 137.413 76.5772C137.193 75.4702 136.649 74.4533 135.85 73.6552C135.051 72.857 134.034 72.3135 132.926 72.0933C131.818 71.8731 130.669 71.9861 129.626 72.418C128.582 72.85 127.69 73.5815 127.062 74.52C126.435 75.4585 126.1 76.5619 126.1 77.6906C126.1 79.2042 126.701 80.6558 127.773 81.7261C128.844 82.7963 130.297 83.3976 131.811 83.3976Z" fill="#006CAB" fill-opacity="0.6"/>
<path d="M181.285 83.3976C182.415 83.3989 183.52 83.0653 184.46 82.439C185.401 81.8127 186.134 80.9218 186.567 79.8791C187 78.8364 187.114 77.6887 186.895 76.5812C186.675 75.4737 186.132 74.4562 185.333 73.6575C184.534 72.8587 183.517 72.3145 182.409 72.0937C181.3 71.873 180.152 71.9857 179.108 72.4174C178.063 72.8492 177.171 73.5806 176.543 74.5193C175.915 75.458 175.58 76.5616 175.58 77.6906C175.58 79.2031 176.181 80.6537 177.251 81.7238C178.32 82.7939 179.772 83.3959 181.285 83.3976Z" fill="#006CAB" fill-opacity="0.6"/>
<path d="M118.138 65.5057C121.86 60.2652 132.077 57.3307 140.875 59.4878C141.118 59.5474 141.37 59.5586 141.617 59.5208C141.864 59.4831 142.101 59.397 142.314 59.2677C142.528 59.1384 142.714 58.9683 142.862 58.7671C143.01 58.5659 143.117 58.3375 143.177 58.0951C143.236 57.8526 143.247 57.6008 143.21 57.3541C143.172 57.1073 143.086 56.8704 142.956 56.6568C142.827 56.4433 142.657 56.2573 142.455 56.1095C142.254 55.9617 142.025 55.855 141.783 55.7954C131.565 53.282 119.739 56.6894 115.033 63.3033C114.767 63.7154 114.671 64.2141 114.764 64.6954C114.857 65.1768 115.132 65.6038 115.532 65.8875C115.932 66.1713 116.426 66.2899 116.912 66.2188C117.397 66.1477 117.836 65.8923 118.138 65.5057Z" fill="black" fill-opacity="0.6"/>
<path d="M194.978 65.5057C191.25 60.2652 181.039 57.3307 172.235 59.4878C171.745 59.6081 171.227 59.5289 170.795 59.2677C170.364 59.0065 170.053 58.5847 169.933 58.0951C169.813 57.6054 169.892 57.0881 170.153 56.6568C170.415 56.2256 170.837 55.9157 171.327 55.7954C181.545 53.282 193.37 56.6894 198.077 63.3033C198.222 63.5066 198.325 63.7364 198.381 63.9796C198.437 64.2228 198.444 64.4745 198.403 64.7206C198.361 64.9666 198.271 65.202 198.139 65.4134C198.006 65.6249 197.833 65.8081 197.63 65.9527C197.426 66.0973 197.196 66.2005 196.953 66.2563C196.709 66.3121 196.457 66.3195 196.211 66.2779C195.965 66.2364 195.729 66.1469 195.518 66.0144C195.306 65.8819 195.123 65.7091 194.978 65.5057Z" fill="black" fill-opacity="0.6"/>
<path fill-rule="evenodd" clip-rule="evenodd" d="M102.312 64.3722C102.636 65.7908 103.901 65.5382 104.212 64.3722C103.771 62.9146 107.376 37.0032 116.582 30.1302C120.031 27.7334 138.483 25.5957 156.856 25.5957C175.009 25.5957 193.124 27.7463 196.527 30.1302C205.76 37.0032 209.338 62.9146 208.898 64.3722C209.209 65.5382 210.473 65.7908 210.804 64.3722C211.316 57.0716 216.548 26.671 193.947 12.1088C186.219 7.12729 170.387 4.27055 156.577 4.44546C143.014 4.62036 129.043 8.33217 121.36 13.2424C98.2991 27.8953 101.794 57.0263 102.312 64.3722Z" fill="#9E5D26" stroke="#9E5D26" stroke-miterlimit="10"/>
<path d="M118.89 59.3129H137.523C140.618 59.3129 143.586 60.5414 145.775 62.7281C147.964 64.9148 149.193 67.8806 149.193 70.9731V74.2768C149.193 79.2849 147.202 84.0878 143.658 87.6291C140.113 91.1703 135.307 93.1598 130.294 93.1598H127.967C122.464 93.1598 117.187 90.9758 113.297 87.0883C109.406 83.2009 107.22 77.9283 107.22 72.4306V70.9731C107.22 67.8806 108.45 64.9148 110.638 62.7281C112.827 60.5414 115.795 59.3129 118.89 59.3129V59.3129Z" stroke="#252C2F" stroke-width="5" stroke-miterlimit="10"/>
<path d="M175.58 59.1769H194.213C197.308 59.1769 200.276 60.4054 202.465 62.5921C204.653 64.7788 205.883 67.7446 205.883 70.8371V74.1408C205.883 79.1488 203.892 83.9518 200.348 87.493C196.803 91.0343 191.996 93.0237 186.984 93.0237H184.657C179.154 93.0237 173.877 90.8398 169.987 86.9523C166.096 83.0648 163.91 77.7923 163.91 72.2946V70.8371C163.91 67.7446 165.14 64.7788 167.328 62.5921C169.517 60.4054 172.485 59.1769 175.58 59.1769Z" stroke="#252C2F" stroke-width="5" stroke-miterlimit="10"/>
<path d="M163.035 67.3714H149.614C149.203 67.3714 148.869 67.7049 148.869 68.1163C148.869 68.5278 149.203 68.8613 149.614 68.8613H163.035C163.447 68.8613 163.78 68.5278 163.78 68.1163C163.78 67.7049 163.447 67.3714 163.035 67.3714Z" stroke="#252C2F" stroke-width="5" stroke-miterlimit="10"/>
<path d="M105.638 67.2548H98.3835C97.9395 67.2548 97.5796 67.6144 97.5796 68.058C97.5796 68.5016 97.9395 68.8613 98.3835 68.8613H105.638C106.082 68.8613 106.442 68.5016 106.442 68.058C106.442 67.6144 106.082 67.2548 105.638 67.2548Z" stroke="#252C2F" stroke-width="5" stroke-miterlimit="10"/>
<path d="M213.883 67.9479H206.629C206.185 67.9479 205.825 68.3076 205.825 68.7512C205.825 69.1948 206.185 69.5544 206.629 69.5544H213.883C214.327 69.5544 214.687 69.1948 214.687 68.7512C214.687 68.3076 214.327 67.9479 213.883 67.9479Z" stroke="#252C2F" stroke-width="5" stroke-miterlimit="10"/>
<path d="M134.333 33.7643C123.461 33.9456 117.548 39.6591 106.993 49.92L102.319 66.2766C99.9914 53.01 100.147 37.4372 114.683 14.3825C128.946 2.22355 138.301 0.999237 158.769 0.999237C179.515 3.36366 189.889 4.43898 201.461 18.5802C211.089 34.5546 209.501 44.2843 209.501 55.2772C209.501 66.2702 184.216 44.5888 175.334 28.3552C165.187 36.1287 137.731 42.7102 134.327 40.9158C130.923 39.1214 134.333 33.7643 134.333 33.7643Z" fill="#9E5D26"/>
<path d="M65.2017 216.589L62.2321 235.446L43.6906 242.03L28.1042 229.818L31.0653 210.996L49.6141 204.381L65.2017 216.589Z" fill="#E21C3D"/>
<path d="M86.2178 246.976L76.693 264.218L56.5246 264.652L45.8693 247.825L55.3586 230.575L75.5257 230.146L86.2178 246.976Z" fill="#F3B8BE"/>
<path d="M55.141 238.891L55.3598 255.395L40.6057 263.562L25.636 255.188L25.4172 238.683L40.1628 230.552L55.141 238.891Z" fill="#FFF0F3"/>
<path d="M55.9733 243.094L51.3996 242.675L49.5594 238.569L52.2929 234.882L56.8666 235.301L58.7068 239.407L55.9733 243.094Z" fill="#0071BB"/>
<path d="M441.747 75.6397H282.746C281.352 75.6397 280.222 76.7688 280.222 78.1616V187.48C280.222 188.873 281.352 190.002 282.746 190.002H441.747C443.141 190.002 444.271 188.873 444.271 187.48V78.1616C444.271 76.7688 443.141 75.6397 441.747 75.6397Z" fill="#CEDCEC"/>
<path d="M441.747 78.1616V187.47H282.746V78.1616H441.747ZM441.747 73.1179H282.746C281.407 73.1179 280.123 73.6493 279.176 74.5952C278.23 75.541 277.698 76.8239 277.698 78.1616V187.47C277.698 188.808 278.23 190.091 279.176 191.037C280.123 191.982 281.407 192.514 282.746 192.514H441.747C443.086 192.514 444.37 191.982 445.317 191.037C446.264 190.091 446.795 188.808 446.795 187.47V78.1616C446.795 76.8239 446.264 75.541 445.317 74.5952C444.37 73.6493 443.086 73.1179 441.747 73.1179Z" fill="#454546"/>
<path d="M264.623 176.666L272.609 192.625H451.359L460.263 176.666H378.567L373.044 181.882H350.005L347.239 176.666H264.623Z" fill="#454546" stroke="#454546" stroke-width="3" stroke-linecap="round" stroke-linejoin="round"/>
<path d="M422.212 86.3023H302.069C300.675 86.3023 299.545 87.4314 299.545 88.8242V163.855C299.545 165.248 300.675 166.377 302.069 166.377H422.212C423.606 166.377 424.736 165.248 424.736 163.855V88.8242C424.736 87.4314 423.606 86.3023 422.212 86.3023Z" fill="#F2F9FD"/>
<path d="M422.212 88.8242V163.845H302.069V88.8242H422.212ZM422.212 83.7804H302.069C300.731 83.7804 299.447 84.3118 298.5 85.2577C297.553 86.2036 297.021 87.4865 297.021 88.8242V163.845C297.021 165.183 297.553 166.466 298.5 167.412C299.447 168.357 300.731 168.889 302.069 168.889H422.212C423.55 168.889 424.834 168.357 425.781 167.412C426.728 166.466 427.26 165.183 427.26 163.845V88.8242C427.26 87.4865 426.728 86.2036 425.781 85.2577C424.834 84.3118 423.55 83.7804 422.212 83.7804Z" fill="#122E50"/>
<path d="M422.201 87.0588H299.939V102.705H422.201V87.0588Z" fill="#122E50"/>
<path d="M414.842 92.4758H382.121C381.48 92.4758 380.96 92.9952 380.96 93.6359V93.8175C380.96 94.4582 381.48 94.9775 382.121 94.9775H414.842C415.483 94.9775 416.003 94.4582 416.003 93.8175V93.6359C416.003 92.9952 415.483 92.4758 414.842 92.4758Z" fill="#F2F9FD"/>
<path d="M309.53 94.9775C310.222 94.9775 310.783 94.4175 310.783 93.7267C310.783 93.0359 310.222 92.4758 309.53 92.4758C308.839 92.4758 308.278 93.0359 308.278 93.7267C308.278 94.4175 308.839 94.9775 309.53 94.9775Z" fill="#F2F9FD"/>
<path d="M315.114 94.9775C315.805 94.9775 316.366 94.4175 316.366 93.7267C316.366 93.0359 315.805 92.4758 315.114 92.4758C314.422 92.4758 313.862 93.0359 313.862 93.7267C313.862 94.4175 314.422 94.9775 315.114 94.9775Z" fill="#F2F9FD"/>
<path d="M320.636 94.9775C321.327 94.9775 321.887 94.4175 321.887 93.7267C321.887 93.0359 321.327 92.4758 320.636 92.4758C319.944 92.4758 319.384 93.0359 319.384 93.7267C319.384 94.4175 319.944 94.9775 320.636 94.9775Z" fill="#F2F9FD"/>
<path d="M422.211 102.705H302.069V133.915H422.211V102.705Z" fill="#EBF3F2"/>
<path d="M382.09 106.245H340.061V112.711H382.09V106.245Z" fill="#122E50"/>
<path d="M382.09 121.8H340.061V128.266H382.09V121.8Z" fill="#122E50"/>
<path d="M366.875 139.03H361.07L359.969 140.593L361.07 143.62C361.363 143.613 361.654 143.664 361.928 143.77C362.201 143.876 362.451 144.034 362.663 144.237C362.875 144.439 363.044 144.681 363.163 144.949C363.281 145.217 363.345 145.506 363.352 145.798C363.35 146.128 363.271 146.453 363.122 146.747C362.973 147.041 362.758 147.296 362.493 147.493L363.241 151.629C362.523 151.747 361.797 151.804 361.07 151.801L359.969 155.604L361.07 158.63C366.562 156.31 368.491 153.273 368.975 152.335C369.067 152.157 369.115 151.96 369.116 151.76V141.199C369.101 140.616 368.855 140.064 368.433 139.661C368.012 139.259 367.448 139.039 366.865 139.05" fill="#B51E23"/>
<path d="M358.92 151.599L359.677 147.483C359.404 147.287 359.181 147.03 359.027 146.732C358.872 146.434 358.791 146.104 358.788 145.768C358.804 145.176 359.054 144.614 359.484 144.206C359.913 143.797 360.487 143.576 361.08 143.589V139.03H355.275C354.982 139.019 354.689 139.067 354.415 139.171C354.14 139.274 353.89 139.432 353.677 139.634C353.464 139.836 353.294 140.079 353.177 140.347C353.059 140.616 352.997 140.905 352.993 141.199V151.76C352.994 151.96 353.043 152.157 353.135 152.335C353.619 153.273 355.547 156.31 361.05 158.63V151.79C360.326 151.789 359.604 151.732 358.889 151.619" fill="#E21D3E"/>
<path d="M362.503 147.463C362.767 147.266 362.983 147.011 363.131 146.717C363.28 146.422 363.359 146.098 363.361 145.768C363.322 145.188 363.065 144.645 362.64 144.248C362.216 143.851 361.656 143.63 361.074 143.63C360.493 143.63 359.933 143.851 359.509 144.248C359.084 144.645 358.827 145.188 358.788 145.768C358.79 146.104 358.872 146.434 359.026 146.732C359.181 147.03 359.404 147.287 359.676 147.483L358.919 151.599C359.634 151.711 360.356 151.769 361.08 151.77C361.807 151.779 362.533 151.721 363.25 151.599L362.503 147.463Z" fill="white"/>
<path d="M325.671 229.929C325.671 255.88 304.163 276.913 277.634 276.913C251.104 276.913 229.596 255.88 229.596 229.929C229.596 203.978 251.104 182.945 277.634 182.945C304.163 182.945 325.671 203.978 325.671 229.929Z" fill="#205493"/>
<ellipse rx="25.017" ry="24.9948" transform="matrix(0.956802 0.290739 -0.291309 0.956629 277.634 229.931)" fill="white"/>
<ellipse rx="15.0102" ry="14.9969" transform="matrix(0.956802 0.290739 -0.291309 0.956629 277.349 229.647)" fill="#205493"/>
<path d="M283.096 197.947H271.596L273.596 206.947H281.096L283.096 197.947Z" fill="white"/>
<path d="M271.596 261.947L283.096 261.947L281.096 252.947L273.596 252.947L271.596 261.947Z" fill="white"/>
<path d="M309.377 235.524L309.315 224.025L300.326 226.073L300.366 233.573L309.377 235.524Z" fill="white"/>
<path d="M304.374 211.875L296.391 203.596L291.301 211.283L296.506 216.682L304.374 211.875Z" fill="white"/>
<path d="M250.319 248.019L258.302 256.297L263.392 248.611L258.186 243.212L250.319 248.019Z" fill="white"/>
<path d="M258.117 203.731L250.193 212.065L258.094 216.817L263.262 211.381L258.117 203.731Z" fill="white"/>
<path d="M296.576 256.163L304.5 247.829L296.599 243.077L291.431 248.512L296.576 256.163Z" fill="white"/>
<path d="M245.316 224.369L245.378 235.869L254.367 233.821L254.327 226.321L245.316 224.369Z" fill="white"/>
</g>
<defs>
<clipPath id="clip0_93_2328">
<rect width="462.464" height="291.611" fill="white" transform="translate(0.0739746 0.389252)"/>
</clipPath>
</defs>
</svg>
