<svg width="463" height="292" viewBox="0 0 463 292" fill="none" xmlns="http://www.w3.org/2000/svg"><g clip-path="url(#clip0_93_2328)"><mask id="a" style="mask-type:alpha" maskUnits="userSpaceOnUse" x="61" y="4" width="191" height="234"><path d="M179.398 142.955v17.49h3.832a68.567 68.567 0 0148.441 20.075 68.45 68.45 0 0120.055 48.416v8.563H61.383v-8.563a68.43 68.43 0 015.213-26.208 68.474 68.474 0 0114.854-22.219 68.58 68.58 0 0148.461-20.064h3.806v-17.49a53.337 53.337 0 01-20.644-17.337 53.294 53.294 0 01-9.523-25.21 11.427 11.427 0 01-9.79-11.303V75.786c0-2.697.957-5.308 2.699-7.368a11.43 11.43 0 016.819-3.89v-5.863a53.24 53.24 0 0115.401-38.036 53.332 53.332 0 0175.79 0 53.22 53.22 0 0115.401 38.036v5.863a11.433 11.433 0 016.819 3.89 11.414 11.414 0 012.698 7.368v13.319a11.41 11.41 0 01-2.794 7.48 11.428 11.428 0 01-7.015 3.823 53.286 53.286 0 01-9.527 25.213 53.339 53.339 0 01-20.653 17.334z" fill="#D0C6AC"/></mask><g mask="url(#a)"><path d="M282.178 5.398H30.931v232.101h251.247V5.398z" fill="#FBB676"/><path fill-rule="evenodd" clip-rule="evenodd" d="M209.85 80.54v21.89a53.22 53.22 0 01-15.4 38.035 53.292 53.292 0 01-17.363 11.696 53.343 53.343 0 01-41.065 0 53.292 53.292 0 01-28.877-29.172 53.22 53.22 0 01-3.886-20.559v-7.618a53.22 53.22 0 0015.4 38.035 53.292 53.292 0 0017.363 11.696 53.342 53.342 0 0041.065 0 53.292 53.292 0 0028.877-29.172 53.22 53.22 0 003.886-20.56v-14.27z" fill="#000" fill-opacity=".1"/></g><mask id="b" style="mask-type:alpha" maskUnits="userSpaceOnUse" x="61" y="145" width="191" height="93"><path fill-rule="evenodd" clip-rule="evenodd" d="M133.717 145.294c-17.057 1.911-30.192 7.125-30.471 20.521a68.557 68.557 0 00-30.464 25.253 68.467 68.467 0 00-11.418 37.868v8.563h190.362v-8.563a68.47 68.47 0 00-11.418-37.868 68.565 68.565 0 00-30.464-25.253c-.259-13.402-13.394-18.61-30.471-20.521v18.027a22.806 22.806 0 01-6.69 16.138 22.848 22.848 0 01-24.892 4.947 22.818 22.818 0 01-14.1-21.085l.026-18.027z" fill="#B7C1DB"/></mask><g mask="url(#b)"><path d="M282.178 132.876H30.931v104.623h251.247V132.876z" fill="#008099"/><path fill-rule="evenodd" clip-rule="evenodd" d="M128.006 191.591v45.908h-6.665v-49.322a63 63 0 006.665 3.414zm63.763-3.414v38.381a3.33 3.33 0 01-3.333 3.33 3.33 3.33 0 01-3.332-3.33v-34.98a61.88 61.88 0 006.665-3.401z" fill="#F4F4F4"/><path fill-rule="evenodd" clip-rule="evenodd" d="M117.496 144.963c-14.321 2.707-24.228 8.103-24.228 18.63 0 18.753 31.444 33.95 63.29 33.95s63.283-15.197 63.283-33.95c0-10.527-9.906-15.923-24.228-18.63 8.649 3.187 14.264 8.544 14.264 17.457 0 19.402-26.478 35.123-53.293 35.123-26.815 0-53.299-15.721-53.299-35.123-.026-8.913 5.569-14.27 14.211-17.457z" fill="#000" fill-opacity=".18"/></g><path d="M126.359 118.676c-4.986 1.483-10.451-5.001-23.1-23.864 0 0 1.731 20.975 4.694 27.207 6.483 13.674 14.814 16.784 25.097 23.404 17.874 3.55 27.794 3.952 45.175 0 11.178-5.441 20.235-8.421 26.77-23.404 2.736-6.277 5.186-26.897 5.186-26.897-11.456 16.687-20.351 26.469-25.245 23.554-2.224-10.144-4.805-14.452-10.873-16.253-7.851-2.332-10.328 0-17.57 1.211-7.287-2.636-10.302-2.591-15.06-1.671-8.04 2.539-11.054 6.731-15.074 16.713z" fill="#9E5D26"/><path d="M154.704 111.984l1.77.104v-.071h1.699c7.027-.104 10.263-.097 14.464 0a16.12 16.12 0 014.019 3.887 10.638 10.638 0 011.531 4.379 27.316 27.316 0 01-8.993 15.132h-3.566a21.375 21.375 0 00-4.875-4.735l-.071-.046-.065-.032a8.419 8.419 0 00-4.441-1.25 9.295 9.295 0 00-3.812 1.23l-.234.123-.188.182-4.538 4.534h-3.618a38.344 38.344 0 01-5.407-6.795 39.038 39.038 0 01-3.605-8.324c.339-1.714.999-3.35 1.945-4.82a15.736 15.736 0 013.612-3.511 91.348 91.348 0 0114.373.013z" fill="#FBB676" stroke="#FBB676"/><path d="M169.855 115.333h-26.769c2.548 7.774 5.277 10.546 13.388 11.7 8.227-1.005 10.723-4.082 13.381-11.7z" fill="#503523" stroke="#503523" stroke-width=".5"/><path fill-rule="evenodd" clip-rule="evenodd" d="M145.135 94.812c0 4.204 5.115 7.611 11.423 7.611s11.417-3.407 11.417-7.611" fill="#000" fill-opacity=".16"/><path d="M131.811 83.398a5.707 5.707 0 10-2.185-10.98 5.708 5.708 0 002.185 10.98zm49.474 0a5.714 5.714 0 005.282-3.519 5.705 5.705 0 00-4.158-7.785 5.716 5.716 0 00-5.866 2.425 5.703 5.703 0 00.708 7.205 5.712 5.712 0 004.034 1.674z" fill="#006CAB" fill-opacity=".6"/><path d="M118.138 65.506c3.722-5.24 13.939-8.175 22.737-6.018a1.905 1.905 0 002.335-2.134 1.895 1.895 0 00-.755-1.245 1.904 1.904 0 00-.672-.314c-10.218-2.513-22.044.894-26.75 7.508a1.901 1.901 0 00.499 2.585 1.907 1.907 0 002.606-.382zm76.84 0c-3.728-5.24-13.939-8.175-22.743-6.018a1.905 1.905 0 01-2.302-1.393 1.903 1.903 0 011.394-2.3c10.218-2.513 22.043.894 26.75 7.508a1.897 1.897 0 01-1.124 2.953 1.904 1.904 0 01-1.975-.75z" fill="#000" fill-opacity=".6"/><path fill-rule="evenodd" clip-rule="evenodd" d="M102.312 64.372c.324 1.419 1.589 1.166 1.9 0-.441-1.457 3.164-27.369 12.37-34.242 3.449-2.397 21.901-4.534 40.274-4.534 18.153 0 36.268 2.15 39.671 4.534 9.233 6.873 12.811 32.785 12.371 34.242.311 1.166 1.575 1.419 1.906 0 .512-7.3 5.744-37.701-16.857-52.263-7.728-4.982-23.56-7.838-37.37-7.664-13.563.175-27.534 3.887-35.217 8.797-23.06 14.653-19.566 43.784-19.048 51.13z" fill="#9E5D26" stroke="#9E5D26" stroke-miterlimit="10"/><path d="M118.89 59.313h18.633c3.095 0 6.063 1.228 8.252 3.415a11.653 11.653 0 013.418 8.245v3.304c0 5.008-1.991 9.81-5.535 13.352a18.908 18.908 0 01-13.364 5.53h-2.327a20.753 20.753 0 01-14.67-6.07 20.72 20.72 0 01-6.077-14.658v-1.458c0-3.092 1.23-6.058 3.418-8.245a11.676 11.676 0 018.252-3.415v0zm56.69-.136h18.633c3.095 0 6.063 1.228 8.252 3.415a11.657 11.657 0 013.418 8.245v3.304c0 5.008-1.991 9.81-5.535 13.352a18.91 18.91 0 01-13.364 5.53h-2.327a20.753 20.753 0 01-14.67-6.07 20.72 20.72 0 01-6.077-14.658v-1.458c0-3.092 1.23-6.058 3.418-8.245a11.676 11.676 0 018.252-3.415z" stroke="#252C2F" stroke-width="5" stroke-miterlimit="10"/><path d="M163.035 67.371h-13.421a.745.745 0 000 1.49h13.421a.745.745 0 100-1.49zm-57.397-.116h-7.255a.804.804 0 100 1.606h7.255a.804.804 0 100-1.606zm108.245.693h-7.254a.804.804 0 100 1.606h7.254a.804.804 0 100-1.606z" stroke="#252C2F" stroke-width="5" stroke-miterlimit="10"/><path d="M134.333 33.764c-10.872.182-16.785 5.895-27.34 16.156l-4.674 16.357c-2.328-13.267-2.172-28.84 12.364-51.895C128.946 2.225 138.301 1 158.769 1c20.746 2.365 31.12 3.44 42.692 17.581 9.628 15.975 8.04 25.704 8.04 36.697 0 10.993-25.285-10.688-34.167-26.922-10.147 7.774-37.603 14.355-41.007 12.56-3.404-1.794.006-7.15.006-7.15z" fill="#9E5D26"/><path d="M65.202 216.589l-2.97 18.857-18.541 6.584-15.587-12.212 2.961-18.822 18.55-6.615 15.587 12.208z" fill="#E21C3D"/><path d="M86.218 246.976l-9.525 17.242-20.168.434-10.656-16.827 9.49-17.25 20.167-.429 10.692 16.83z" fill="#F3B8BE"/><path d="M55.141 238.891l.219 16.504-14.754 8.167-14.97-8.374-.219-16.505 14.746-8.131 14.978 8.339z" fill="#FFF0F3"/><path d="M55.973 243.094l-4.573-.419-1.84-4.106 2.733-3.687 4.574.419 1.84 4.106-2.734 3.687z" fill="#0071BB"/><path d="M441.747 75.64H282.746a2.523 2.523 0 00-2.524 2.522V187.48a2.523 2.523 0 002.524 2.522h159.001a2.523 2.523 0 002.524-2.522V78.162a2.523 2.523 0 00-2.524-2.522z" fill="#CEDCEC"/><path d="M441.747 78.162V187.47H282.746V78.162h159.001zm0-5.044H282.746a5.044 5.044 0 00-5.048 5.044V187.47a5.045 5.045 0 005.048 5.044h159.001a5.04 5.04 0 005.048-5.044V78.162a5.04 5.04 0 00-1.478-3.567 5.052 5.052 0 00-3.57-1.477z" fill="#454546"/><path d="M264.623 176.666l7.986 15.959h178.75l8.904-15.959h-81.696l-5.523 5.216h-23.039l-2.766-5.216h-82.616z" fill="#454546" stroke="#454546" stroke-width="3" stroke-linecap="round" stroke-linejoin="round"/><path d="M422.212 86.302H302.069a2.523 2.523 0 00-2.524 2.522v75.031a2.523 2.523 0 002.524 2.522h120.143a2.523 2.523 0 002.524-2.522v-75.03a2.523 2.523 0 00-2.524-2.523z" fill="#F2F9FD"/><path d="M422.212 88.824v75.021H302.069v-75.02h120.143zm0-5.044H302.069a5.051 5.051 0 00-5.048 5.044v75.021c0 1.338.532 2.621 1.479 3.567a5.054 5.054 0 003.569 1.477h120.143a5.054 5.054 0 003.569-1.477 5.042 5.042 0 001.479-3.567v-75.02a5.051 5.051 0 00-5.048-5.044z" fill="#122E50"/><path d="M422.201 87.059H299.939v15.646h122.262V87.059z" fill="#122E50"/><path d="M414.842 92.476h-32.721a1.16 1.16 0 00-1.161 1.16v.181c0 .641.52 1.16 1.161 1.16h32.721a1.16 1.16 0 001.161-1.16v-.181c0-.64-.52-1.16-1.161-1.16zM309.53 94.978a1.252 1.252 0 10.002-2.504 1.252 1.252 0 00-.002 2.504zm5.584 0a1.252 1.252 0 100-2.504 1.252 1.252 0 000 2.504zm5.522 0a1.25 1.25 0 100-2.502 1.25 1.25 0 000 2.502z" fill="#F2F9FD"/><path d="M422.211 102.705H302.069v31.21h120.142v-31.21z" fill="#EBF3F2"/><path d="M382.09 106.245h-42.029v6.466h42.029v-6.466zm0 15.555h-42.029v6.466h42.029V121.8z" fill="#122E50"/><path d="M366.875 139.03h-5.805l-1.101 1.563 1.101 3.027a2.228 2.228 0 012.282 2.178 2.128 2.128 0 01-.859 1.695l.748 4.136c-.718.118-1.444.175-2.171.172l-1.101 3.803 1.101 3.026c5.492-2.32 7.421-5.357 7.905-6.295.092-.178.14-.375.141-.575v-10.561a2.211 2.211 0 00-2.251-2.149" fill="#B51E23"/><path d="M358.92 151.599l.757-4.116a2.127 2.127 0 01-.889-1.715 2.24 2.24 0 012.292-2.179v-4.559h-5.805a2.194 2.194 0 00-1.598.604 2.192 2.192 0 00-.684 1.565v10.561c.001.2.05.397.142.575.484.938 2.412 3.975 7.915 6.295v-6.84a13.962 13.962 0 01-2.161-.171" fill="#E21D3E"/><path d="M362.503 147.463a2.125 2.125 0 00.858-1.695 2.289 2.289 0 00-2.287-2.138 2.29 2.29 0 00-2.286 2.138 2.127 2.127 0 00.888 1.715l-.757 4.116c.715.112 1.437.17 2.161.171.727.009 1.453-.049 2.17-.171l-.747-4.136z" fill="#fff"/><path d="M325.671 229.929c0 25.951-21.508 46.984-48.037 46.984-26.53 0-48.038-21.033-48.038-46.984s21.508-46.984 48.038-46.984c26.529 0 48.037 21.033 48.037 46.984z" fill="#205493"/><ellipse rx="25.017" ry="24.995" transform="rotate(16.902 -634.95 1049.266) skewX(-.034)" fill="#fff"/><ellipse rx="15.01" ry="14.997" transform="rotate(16.902 -634.137 1048.165) skewX(-.034)" fill="#205493"/><path d="M283.096 197.947h-11.5l2 9h7.5l2-9zm-11.5 64h11.5l-2-9h-7.5l-2 9zm37.781-26.423l-.062-11.499-8.989 2.048.04 7.5 9.011 1.951zm-5.003-23.649l-7.983-8.279-5.09 7.687 5.205 5.399 7.868-4.807zm-54.055 36.144l7.983 8.278 5.09-7.686-5.206-5.399-7.867 4.807zm7.798-44.288l-7.924 8.334 7.901 4.752 5.168-5.436-5.145-7.65zm38.459 52.432l7.924-8.334-7.901-4.752-5.168 5.435 5.145 7.651zm-51.26-31.794l.062 11.5 8.989-2.048-.04-7.5-9.011-1.952z" fill="#fff"/></g><defs><clipPath id="clip0_93_2328"><path fill="#fff" transform="translate(.074 .39)" d="M0 0h462.464v291.611H0z"/></clipPath></defs></svg>