<svg width="41" height="41" viewBox="0 0 41 41" fill="none" xmlns="http://www.w3.org/2000/svg"><path d="M2.86 34.564h3.417c.94 0 1.708-.769 1.708-1.708V17.48c0-.94-.768-1.709-1.708-1.709H2.86v18.792zm33.877-12.163c.188-.427.29-.889.29-1.367v-1.845a3.427 3.427 0 0 0-3.417-3.417h-9.395l1.571-7.943A1.712 1.712 0 0 0 25.65 6.7a8.201 8.201 0 0 0-1.503-2.084l-.786-.803-10.95 10.95a3.427 3.427 0 0 0-1.008 2.426v13.393c0 2.187 1.794 3.981 3.998 3.981h13.854a3.44 3.44 0 0 0 2.938-1.657L36.737 22.4z" fill="#205493"/></svg>