<svg width="32" height="30" viewBox="0 0 32 30" fill="none" xmlns="http://www.w3.org/2000/svg">
<path d="M0 29V13C0 12.4477 0.447715 12 1 12H3.33072C3.73573 12 4.10308 12.2448 4.24709 12.6234C6.99863 19.8559 5.37467 26.0826 4.23553 29.3452C4.09754 29.7405 3.72201 30 3.30337 30H1C0.447715 30 0 29.5523 0 29Z" fill="#205493"/>
<path d="M18.5095 0.944582C14.2176 4.82132 11.4494 6.9878 8.13371 11.8047C8.04618 11.9319 7.98879 12.0808 7.96798 12.2338C6.69683 21.5767 6.71844 28.932 10.3836 29.9695C10.4597 29.991 10.54 30 10.6192 30H25.5597C25.8402 30 26.1093 29.8835 26.292 29.6706C28.3714 27.2483 29.6902 24.0297 31.922 18.6866C31.9731 18.5645 32 18.4318 32 18.2995V15.5C31.7933 13.7834 31.3717 13.0107 30.2537 12.1813C30.0908 12.0604 29.8913 12 29.6884 12H20.9419C20.244 12 19.7604 11.3024 19.9694 10.6365C20.6316 8.52639 20.9389 6.59799 21.4537 3.75528C21.4839 3.58833 21.472 3.41499 21.4152 3.25511C20.9909 2.06049 20.5743 1.38072 19.5879 0.802898C19.242 0.600271 18.807 0.675867 18.5095 0.944582Z" fill="#205493"/>
</svg>
