<svg width="8" height="12" viewBox="0 0 8 12" fill="none" xmlns="http://www.w3.org/2000/svg"><g clip-path="url(#clip0_722_666)"><path d="M6.882 6.276L1.347 11.88a.485.485 0 01-.283.121.418.418 0 01-.27-.12l-.673-.607a.39.39 0 01-.12-.27.485.485 0 01.12-.228L4.85 5.994.12 1.347A.485.485 0 010 .997a.418.418 0 01.12-.27L.728.123A.418.418 0 01.997 0a.485.485 0 01.35.122l5.535 5.602a.418.418 0 01.122.27.418.418 0 01-.122.282z" fill="#fff"/></g><defs><clipPath id="clip0_722_666"><path fill="#fff" d="M0 0h7.003v12H0z"/></clipPath></defs></svg>