<svg width="115" height="111" viewBox="0 0 115 111" fill="none" xmlns="http://www.w3.org/2000/svg"><path d="M52.25 109.759c28.262 0 51.173-22.994 51.173-51.359 0-28.365-22.911-51.359-51.173-51.359S1.077 30.035 1.077 58.4c0 28.365 22.91 51.359 51.173 51.359z" fill="#F2F9FF"/><path d="M74.813 42.907c9.837 0 17.812 8.004 17.812 17.877a17.883 17.883 0 01-9.256 15.684l-.056.03-.046 11.31a3.07 3.07 0 01-.723 2.139l-.157.172-1.176 1.191 1.295 1.313c1.113 1.129 1.15 2.927.128 4.118l-.146.159-1.325 1.342.124.126c-.649.476-1.31.936-1.982 1.38l-1.484-1.505 2.98-3.02a.661.661 0 00.017-.923l-2.95-2.99 2.831-2.868c.134-.136.205-.323.194-.578l.052-12.837.66-.326a15.498 15.498 0 008.645-13.917c0-8.557-6.912-15.494-15.438-15.494-8.525 0-15.437 6.937-15.437 15.494 0 6.341 3.83 11.97 9.577 14.339l.74.305-.163 28.206a.638.638 0 00.178.45l.418.423c-.797.312-1.604.603-2.42.873a3.015 3.015 0 01-.551-1.76l.154-26.619-.343-.163a17.885 17.885 0 01-9.96-15.648L57 60.784c0-9.873 7.975-17.877 17.813-17.877z" fill="#A8B6C6"/><path d="M52.25 5.96c28.857 0 52.25 23.478 52.25 52.44 0 28.962-23.393 52.44-52.25 52.44S0 87.362 0 58.4C0 29.438 23.393 5.96 52.25 5.96zm.539 4.325c-26.775 0-48.48 21.784-48.48 48.656s21.705 48.656 48.48 48.656c26.774 0 48.479-21.784 48.479-48.656s-21.705-48.656-48.48-48.656h.001z" fill="url(#paint0_linear)"/><path d="M73.625 75.085c8.526 0 15.438-6.937 15.438-15.494 0-8.557-6.912-15.494-15.438-15.494S58.187 51.034 58.187 59.59c0 8.557 6.912 15.494 15.438 15.494z" fill="#F2F9FF"/><path d="M74.813 59.59c2.623 0 4.75-2.133 4.75-4.766s-2.127-4.767-4.75-4.767-4.75 2.134-4.75 4.767c0 2.633 2.127 4.767 4.75 4.767z" stroke="#A8B6C6" stroke-width="2"/><path d="M71.844 81.54v16.885m19.594-37.642c0-9.215-7.444-16.685-16.626-16.685-9.181 0-16.624 7.47-16.624 16.685S65.63 77.47 74.811 77.47l16.627-16.687z" stroke="#A8B6C6" stroke-width="2" stroke-linecap="round"/><path fill-rule="evenodd" clip-rule="evenodd" d="M12.125 5.96h43.438a5 5 0 015 5v60.55H7.124V10.96a5 5 0 015-5h.001z" fill="#fff"/><path fill-rule="evenodd" clip-rule="evenodd" d="M48.094 6.555a4.766 4.766 0 01-4.768 4.767H23.174a4.766 4.766 0 01-4.768-4.767h29.688z" fill="#112E51" stroke="#112E51" stroke-width="2"/><path d="M33.844 48.865C25.646 48.865 19 55.535 19 63.763S25.646 78.66 33.844 78.66s14.843-6.67 14.843-14.898" stroke="#112E51" stroke-width="3" stroke-linecap="round"/><path d="M16.81 26.686h4.12v-.71h-1.85c-.33 0-.72.03-1.07.06 1.51-1.58 2.6-2.77 2.6-3.97 0-1.13-.73-1.88-1.91-1.88-.83 0-1.4.39-1.93.97l.47.47c.37-.43.83-.77 1.36-.77.81 0 1.21.52 1.21 1.25 0 1.03-1.08 2.18-3 4.09v.49zm5.36 0h3.6v-.68h-1.32v-5.7h-.63c-.35.21-.77.37-1.35.47v.53h1.16v4.7h-1.46v.68zm6.541.12c1.17 0 2.1-.69 2.1-1.82 0-.88-.61-1.44-1.38-1.62v-.04c.69-.26 1.16-.75 1.16-1.52 0-1.03-.8-1.62-1.91-1.62-.75 0-1.34.34-1.83.8l.44.52c.38-.38.83-.65 1.36-.65.68 0 1.1.39 1.1 1.01 0 .67-.45 1.19-1.81 1.19v.63c1.52 0 2.04.51 2.04 1.27 0 .71-.55 1.17-1.32 1.17-.75 0-1.25-.36-1.63-.76l-.42.54c.43.47 1.08.9 2.1.9zm5.403-.12h3.6v-.68h-1.32v-5.7h-.63c-.35.21-.77.37-1.35.47v.53h1.16v4.7h-1.46v.68zm6.68.12c1.24 0 2.06-.75 2.06-1.7 0-.86-.54-1.31-1.11-1.64v-.04c.39-.3.88-.87.88-1.54 0-.99-.69-1.7-1.8-1.7-1.03 0-1.81.66-1.81 1.64 0 .67.42 1.14.89 1.47v.04c-.6.32-1.2.89-1.2 1.72 0 1.01.89 1.75 2.09 1.75zm.45-3.6c-.77-.3-1.47-.62-1.47-1.38 0-.62.44-1.03 1.03-1.03.7 0 1.11.5 1.11 1.13 0 .47-.24.9-.67 1.28zm-.43 2.99c-.78 0-1.37-.51-1.37-1.22 0-.58.38-1.05.89-1.39.92.37 1.73.67 1.73 1.49 0 .66-.51 1.12-1.25 1.12zm5.061-2.79c.79 0 1.18.52 1.18 1.35 0 .84-.48 1.4-1.11 1.4-.81 0-1.3-.67-1.4-1.91.4-.59.92-.84 1.33-.84zm.07 3.4c1.03 0 1.89-.83 1.89-2.05 0-1.31-.72-1.97-1.82-1.97-.52 0-1.09.31-1.49.8.04-2.02.79-2.71 1.68-2.71.4 0 .79.19 1.05.5l.46-.51c-.36-.39-.85-.68-1.54-.68-1.27 0-2.43.99-2.43 3.55 0 2.05.95 3.07 2.2 3.07zM30.924 58.985c1.17 0 2.1-.69 2.1-1.82 0-.88-.61-1.44-1.38-1.62v-.04c.69-.26 1.16-.75 1.16-1.52 0-1.03-.8-1.62-1.91-1.62-.75 0-1.34.34-1.83.8l.44.52c.38-.38.83-.65 1.36-.65.68 0 1.1.39 1.1 1.01 0 .67-.45 1.19-1.81 1.19v.63c1.52 0 2.04.51 2.04 1.27 0 .71-.55 1.17-1.32 1.17-.75 0-1.25-.36-1.63-.76l-.42.54c.43.47 1.08.9 2.1.9zm4.95 0c1.11 0 2.15-.78 2.15-2.16 0-1.38-.89-2-1.98-2-.39 0-.68.1-.98.26l.17-1.89h2.47v-.71h-3.19l-.21 3.07.44.28c.38-.25.65-.39 1.09-.39.82 0 1.36.52 1.36 1.4 0 .89-.62 1.46-1.4 1.46-.75 0-1.23-.35-1.61-.73l-.4.54c.44.44 1.07.87 2.09.87z" fill="#5B616A"/><path d="M59.376 12.497c.798.126 1.59.271 2.375.437l-.001 82.412c0 3.869-3.061 7.02-6.885 7.147l-.24.004-23.4.001a47.388 47.388 0 01-4.304-2.383l27.704-.002c2.55 0 4.631-2.017 4.745-4.549l.005-.218.001-82.849zM7.123 43.793V75.39A47.54 47.54 0 014.75 64.956V54.228a47.539 47.539 0 012.373-10.435zm0-11.843l-.001.26a51.774 51.774 0 00-2.37 4.403l-.001-.092a52.339 52.339 0 012.372-4.571zM52.25 5.96c2.348 0 4.66.155 6.926.456.535.447 1.005.97 1.391 1.555a51.983 51.983 0 00-4.547-.612 4.754 4.754 0 00-1.178-.203l-.217-.005-13.497-.001A52.268 52.268 0 0152.25 5.96z" fill="#112E51"/><path d="M48.094 59.592c.984 0 1.781-.8 1.781-1.788 0-.987-.797-1.788-1.781-1.788-.984 0-1.781.8-1.781 1.788s.797 1.788 1.781 1.788z" fill="#112E51"/><path d="M63.042 41.714l1.697-2.92 1.687 2.868 1.595-1.152-2.052-2.533 2.906-.869-.549-1.78-2.876 1.3.275-3.257h-1.941l.223 3.245-2.814-1.266-.63 1.78 2.987.857-2.103 2.586 1.595 1.14v.001zm9.5 0l1.697-2.92 1.687 2.868 1.595-1.152-2.052-2.533 2.906-.869-.549-1.78-2.876 1.3.275-3.257h-1.941l.223 3.245-2.814-1.266-.63 1.78 2.987.857-2.103 2.586 1.595 1.14v.001zm9.5 0l1.697-2.92 1.687 2.868 1.595-1.152-2.052-2.533 2.906-.869-.549-1.78-2.876 1.3.275-3.257h-1.941l.223 3.245-2.814-1.266-.63 1.78 2.987.857-2.103 2.586 1.595 1.14v.001zm10.688 0l1.697-2.92 1.686 2.868 1.596-1.152-2.053-2.533 2.906-.869-.548-1.78-2.876 1.3.274-3.257h-1.94l.223 3.245-2.815-1.266-.63 1.78 2.988.857-2.104 2.586 1.596 1.14v.001z" fill="#0071BB"/><path d="M54.625 4.767c3.935 0 7.125 3.202 7.125 7.151V58.4h-2.376l.001-46.482a4.76 4.76 0 00-4.533-4.762l-.217-.005h-42.75c-2.623 0-4.75 2.134-4.75 4.767L7.124 58.4H4.75V11.92c0-3.95 3.19-7.152 7.125-7.152h42.75z" fill="#112E51"/><path d="M52.25 109.759c28.262 0 51.173-22.994 51.173-51.359 0-28.365-22.911-51.359-51.173-51.359S1.077 30.035 1.077 58.4c0 28.365 22.91 51.359 51.173 51.359z" fill="#F9FCFF"/><path d="M52.25 5.96c28.857 0 52.25 23.478 52.25 52.44 0 28.962-23.393 52.44-52.25 52.44S0 87.362 0 58.4C0 29.438 23.393 5.96 52.25 5.96zm.539 4.325c-26.775 0-48.48 21.784-48.48 48.656s21.705 48.656 48.48 48.656c26.774 0 48.479-21.784 48.479-48.656s-21.705-48.656-48.48-48.656h.001z" fill="url(#paint1_linear)"/><path d="M69.758 68.812h24.43a2 2 0 002-2V32.096a2 2 0 00-2-2h-24.43a2 2 0 00-2 2v34.716a2 2 0 002 2z" fill="#A8B6C6"/><path d="M73.635 45.582h16.676a2 2 0 002-2V15.319a2 2 0 00-2-2H73.635a2 2 0 00-2 2v28.263a2 2 0 002 2z" fill="#A8B6C6"/><path fill-rule="evenodd" clip-rule="evenodd" d="M89.727 30.096h-2.819V15.9h2.82v14.196zm-4.23 0h-2.819V18.48h2.82v11.615zm-4.229 0H78.45V18.48h2.82v11.615zm-4.229 0H74.22V15.9h2.82v14.196z" fill="#EBF3FA"/><path d="M81.973 45.582c-4.996 0-9.046 4.045-9.046 9.034 0 4.99 4.05 9.034 9.046 9.034 4.996 0 9.046-4.045 9.046-9.034 0-4.99-4.05-9.034-9.046-9.034z" fill="#EBF3FA"/><path fill-rule="evenodd" clip-rule="evenodd" d="M106 66.742a8 8 0 018 8v5.25a8.001 8.001 0 01-8 8H61.75v-21.25H106z" fill="#EBF3FA"/><path d="M63.308 82.326l2.017-3.472 2.006 3.41 1.896-1.37-2.44-3.01 3.455-1.033-.653-2.115-3.418 1.543.326-3.87H64.19l.266 3.857-3.346-1.505-.75 2.115 3.552 1.02-2.5 3.074 1.896 1.356zm11.293 0l2.017-3.472 2.005 3.41 1.897-1.37-2.44-3.01 3.454-1.033-.652-2.115-3.419 1.543.327-3.87h-2.308l.266 3.857-3.346-1.505-.749 2.115 3.552 1.02-2.5 3.074 1.896 1.356zm11.292 0l2.017-3.472 2.006 3.41 1.896-1.37-2.44-3.01 3.455-1.033-.653-2.115-3.418 1.543.326-3.87h-2.307l.266 3.857-3.346-1.505-.75 2.115 3.552 1.02-2.5 3.074 1.896 1.356zm12.704 0l2.017-3.472 2.006 3.41 1.896-1.37-2.44-3.01 3.455-1.033-.653-2.115-3.418 1.543.326-3.87H99.48l.266 3.857L96.4 74.76l-.75 2.115 3.552 1.02-2.5 3.074 1.896 1.356z" fill="#112E51"/><path fill-rule="evenodd" clip-rule="evenodd" d="M12.125 5.96h43.438a5 5 0 015 5V58.4H7.124V10.96a5 5 0 015-5h.001z" fill="#fff"/><path d="M49.354 5.391v1.187c0 3.28-2.668 5.938-5.959 5.938h-20.26a5.956 5.956 0 01-5.954-5.67l-.035-1.455h32.208zm-15.51 41.686c.984 0 1.781.8 1.781 1.788 0 .987-.797 1.788-1.781 1.788-7.214 0-13.063 5.87-13.063 13.11 0 7.24 5.849 13.11 13.063 13.11s13.062-5.87 13.062-13.11c0-.988.798-1.788 1.782-1.788.983 0 1.78.8 1.78 1.788 0 9.215-7.443 16.685-16.624 16.685-9.182 0-16.625-7.47-16.625-16.685s7.443-16.686 16.625-16.686z" fill="#A8B6C6"/><path d="M19.978 29.493v-1.376h-1.415c-.332 0-.819.044-1.173.089 1.14-1.2 2.246-2.465 2.246-3.652 0-1.354-.94-2.242-2.323-2.242-1.006 0-1.659.377-2.356 1.12l.885.878c.354-.378.741-.722 1.25-.722.608 0 .995.377.995 1.066 0 .999-1.26 2.209-3.052 3.907v.932h4.943zm5.73 0v-1.32H24.39v-5.728h-1.194c-.498.3-.985.5-1.748.644v1.01h1.316v4.073H21.24v1.321h4.468zm3.284.133c1.416 0 2.61-.743 2.61-2.053 0-.91-.586-1.487-1.393-1.72v-.045c.752-.322 1.172-.832 1.172-1.565 0-1.232-.973-1.931-2.422-1.931-.863 0-1.57.344-2.212.899l.818.999c.443-.389.819-.622 1.316-.622.553 0 .863.289.863.777 0 .566-.398.944-1.659.944v1.154c1.526 0 1.891.388 1.891 1.01 0 .533-.453.833-1.139.833-.597 0-1.117-.3-1.537-.71l-.752 1.031c.509.6 1.305 1 2.444 1v-.001zm10.606-.133v-1.32h-1.316v-5.728h-1.194c-.498.3-.985.5-1.748.644v1.01h1.316v4.073H35.13v1.321h4.468zm3.506.133c1.493 0 2.489-.843 2.489-1.953 0-.933-.542-1.476-1.217-1.843v-.044c.487-.322.918-.866.918-1.543 0-1.166-.852-1.931-2.135-1.931-1.305 0-2.245.743-2.245 1.942 0 .744.399 1.254.94 1.665v.044c-.663.356-1.194.877-1.194 1.732 0 1.143 1.04 1.931 2.444 1.931zm.443-4.24c-.72-.277-1.206-.555-1.206-1.132 0-.544.354-.81.785-.81.531 0 .852.366.852.91 0 .366-.155.71-.431 1.032zm-.41 3.108c-.586 0-1.083-.366-1.083-.988 0-.433.232-.832.541-1.12.885.377 1.482.61 1.482 1.231 0 .589-.398.877-.94.877zm6.006 1.132c1.272 0 2.333-.899 2.333-2.364 0-1.487-.884-2.175-2.09-2.175-.431 0-1.04.277-1.404.743.055-1.643.674-2.198 1.448-2.198.41 0 .852.234 1.095.5l.852-.977c-.443-.455-1.117-.843-2.046-.843-1.482 0-2.843 1.187-2.843 3.818 0 2.475 1.294 3.496 2.655 3.496zm-.033-1.22c-.487 0-.952-.356-1.095-1.466.287-.5.696-.699 1.061-.699.531 0 .918.277.918 1.021 0 .8-.398 1.143-.884 1.143v.001z" fill="#112E51"/><path d="M19.978 29.493v-1.376h-1.415c-.332 0-.819.044-1.173.089 1.14-1.2 2.246-2.465 2.246-3.652 0-1.354-.94-2.242-2.323-2.242-1.006 0-1.659.377-2.356 1.12l.885.878c.354-.378.741-.722 1.25-.722.608 0 .995.377.995 1.066 0 .999-1.26 2.209-3.052 3.907v.932h4.943zm5.73 0v-1.32H24.39v-5.728h-1.194c-.498.3-.985.5-1.748.644v1.01h1.316v4.073H21.24v1.321h4.468zm3.284.133c1.416 0 2.61-.743 2.61-2.053 0-.91-.586-1.487-1.393-1.72v-.045c.752-.322 1.172-.832 1.172-1.565 0-1.232-.973-1.931-2.422-1.931-.863 0-1.57.344-2.212.899l.818.999c.443-.389.819-.622 1.316-.622.553 0 .863.289.863.777 0 .566-.398.944-1.659.944v1.154c1.526 0 1.891.388 1.891 1.01 0 .533-.453.833-1.139.833-.597 0-1.117-.3-1.537-.71l-.752 1.031c.509.6 1.305 1 2.444 1v-.001zm10.606-.133v-1.32h-1.316v-5.728h-1.194c-.498.3-.985.5-1.748.644v1.01h1.316v4.073H35.13v1.321h4.468zm3.506.133c1.493 0 2.489-.843 2.489-1.953 0-.933-.542-1.476-1.217-1.843v-.044c.487-.322.918-.866.918-1.543 0-1.166-.852-1.931-2.135-1.931-1.305 0-2.245.743-2.245 1.942 0 .744.399 1.254.94 1.665v.044c-.663.356-1.194.877-1.194 1.732 0 1.143 1.04 1.931 2.444 1.931zm.443-4.24c-.72-.277-1.206-.555-1.206-1.132 0-.544.354-.81.785-.81.531 0 .852.366.852.91 0 .366-.155.71-.431 1.032zm-.41 3.108c-.586 0-1.083-.366-1.083-.988 0-.433.232-.832.541-1.12.885.377 1.482.61 1.482 1.231 0 .589-.398.877-.94.877zm6.006 1.132c1.272 0 2.333-.899 2.333-2.364 0-1.487-.884-2.175-2.09-2.175-.431 0-1.04.277-1.404.743.055-1.643.674-2.198 1.448-2.198.41 0 .852.234 1.095.5l.852-.977c-.443-.455-1.117-.843-2.046-.843-1.482 0-2.843 1.187-2.843 3.818 0 2.475 1.294 3.496 2.655 3.496zm-.033-1.22c-.487 0-.952-.356-1.095-1.466.287-.5.696-.699 1.061-.699.531 0 .918.277.918 1.021 0 .8-.398 1.143-.884 1.143v.001zM30.692 67.783c1.415 0 2.61-.744 2.61-2.054 0-.91-.586-1.487-1.394-1.72v-.045c.752-.322 1.173-.832 1.173-1.565 0-1.232-.974-1.931-2.422-1.931-.863 0-1.57.344-2.212.899l.818.999c.442-.389.818-.622 1.316-.622.553 0 .863.289.863.777 0 .566-.398.944-1.66.944v1.154c1.527 0 1.892.389 1.892 1.01 0 .533-.453.833-1.14.833-.596 0-1.116-.3-1.536-.71l-.752 1.032c.508.6 1.305.999 2.444.999zm5.883 0c1.372 0 2.577-.9 2.577-2.464 0-1.499-1.028-2.187-2.234-2.187-.287 0-.52.044-.785.166l.122-1.32h2.577V60.6H34.85l-.199 3.563.73.466c.42-.266.63-.355 1.04-.355.652 0 1.106.378 1.106 1.088 0 .721-.465 1.099-1.184 1.099-.597 0-1.095-.311-1.515-.7l-.73 1.033c.553.555 1.327.988 2.477.988v.001z" fill="#112E51"/><path d="M30.692 67.783c1.415 0 2.61-.744 2.61-2.054 0-.91-.586-1.487-1.394-1.72v-.045c.752-.322 1.173-.832 1.173-1.565 0-1.232-.974-1.931-2.422-1.931-.863 0-1.57.344-2.212.899l.818.999c.442-.389.818-.622 1.316-.622.553 0 .863.289.863.777 0 .566-.398.944-1.66.944v1.154c1.527 0 1.892.389 1.892 1.01 0 .533-.453.833-1.14.833-.596 0-1.116-.3-1.536-.71l-.752 1.032c.508.6 1.305.999 2.444.999zm5.883 0c1.372 0 2.577-.9 2.577-2.464 0-1.499-1.028-2.187-2.234-2.187-.287 0-.52.044-.785.166l.122-1.32h2.577V60.6H34.85l-.199 3.563.73.466c.42-.266.63-.355 1.04-.355.652 0 1.106.378 1.106 1.088 0 .721-.465 1.099-1.184 1.099-.597 0-1.095-.311-1.515-.7l-.73 1.033c.553.555 1.327.988 2.477.988v.001z" fill="#112E51"/><path d="M59.376 12.497c.798.126 1.59.271 2.375.437l-.001 82.412c0 3.869-3.061 7.02-6.885 7.147l-.24.004-23.4.001a47.388 47.388 0 01-4.304-2.383l27.704-.002c2.55 0 4.631-2.017 4.745-4.549l.005-.218.001-82.849zM7.123 43.793V75.39A47.54 47.54 0 014.75 64.956V54.228a47.539 47.539 0 012.373-10.435zm0-11.843l-.001.26a51.774 51.774 0 00-2.37 4.403l-.001-.092a52.339 52.339 0 012.372-4.571zM52.25 5.96c2.348 0 4.66.155 6.926.456.535.447 1.005.97 1.391 1.555a51.983 51.983 0 00-4.547-.612 4.754 4.754 0 00-1.178-.203l-.217-.005-13.497-.001A52.268 52.268 0 0152.25 5.96z" fill="#A8B6C6"/><path d="M47.797 60.188a2.082 2.082 0 002.078-2.086c0-1.152-.93-2.086-2.078-2.086a2.082 2.082 0 00-2.078 2.086c0 1.152.93 2.086 2.078 2.086z" fill="#A8B6C6"/><path d="M54.625 4.767c3.935 0 7.125 3.202 7.125 7.151V58.4h-2.376l.001-46.482a4.76 4.76 0 00-4.533-4.762l-.217-.005h-42.75c-2.623 0-4.75 2.134-4.75 4.767L7.124 58.4H4.75V11.92c0-3.95 3.19-7.152 7.125-7.152h42.75z" fill="#A8B6C6"/><path d="M27.906 109.648c3.607 0 6.531-2.935 6.531-6.555 0-3.62-2.924-6.555-6.531-6.555-3.607 0-6.531 2.935-6.531 6.555 0 3.62 2.924 6.555 6.531 6.555z" fill="#A6D5AF"/><path d="M61.156 13.11c3.607 0 6.531-2.935 6.531-6.555 0-3.62-2.924-6.555-6.531-6.555-3.607 0-6.531 2.935-6.531 6.555 0 3.62 2.924 6.555 6.531 6.555z" fill="#FCF197"/><defs><linearGradient id="paint0_linear" x1="52.25" y1="58.4" x2="52.25" y2="456.96" gradientUnits="userSpaceOnUse"><stop stop-color="#EBF3FA"/><stop offset="1" stop-color="#0071BB"/></linearGradient><linearGradient id="paint1_linear" x1="69.89" y1="5.96" x2="-52.693" y2="357.778" gradientUnits="userSpaceOnUse"><stop stop-color="#EBF3FA"/><stop offset="1" stop-color="#0071BB"/></linearGradient></defs></svg>