<svg width="115" height="111" xmlns="http://www.w3.org/2000/svg" xmlns:xlink="http://www.w3.org/1999/xlink"><defs><linearGradient x1="50%" y1="50%" x2="50%" y2="430.015%" id="a"><stop stop-color="#EBF3FA" offset="0%"/><stop stop-color="#0071BB" offset="100%"/></linearGradient><linearGradient x1="33.12%" y1="0%" x2="149.667%" y2="335.711%" id="b"><stop stop-color="#EBF3FA" offset="0%"/><stop stop-color="#0071BB" offset="100%"/></linearGradient><path d="M19.978 29.493v-1.376h-1.415c-.332 0-.819.044-1.173.089 1.14-1.2 2.246-2.465 2.246-3.652 0-1.354-.94-2.242-2.323-2.242-1.006 0-1.659.377-2.356 1.12l.885.878c.354-.378.741-.722 1.25-.722.608 0 .995.377.995 1.066 0 .999-1.26 2.209-3.052 3.907v.932h4.943zm5.73 0v-1.32H24.39v-5.728h-1.194c-.498.3-.985.5-1.748.644v1.01h1.316v4.073H21.24v1.321h4.468zm3.284.133c1.416 0 2.61-.743 2.61-2.053 0-.91-.586-1.487-1.393-1.72v-.045c.752-.322 1.172-.832 1.172-1.565 0-1.232-.973-1.931-2.422-1.931-.863 0-1.57.344-2.212.899l.818.999c.443-.389.819-.622 1.316-.622.553 0 .863.289.863.777 0 .566-.398.944-1.659.944v1.154c1.526 0 1.891.388 1.891 1.01 0 .533-.453.833-1.139.833-.597 0-1.117-.3-1.537-.71l-.752 1.031c.509.6 1.305 1 2.444 1zm10.606-.133v-1.32h-1.316v-5.728h-1.194c-.498.3-.985.5-1.748.644v1.01h1.316v4.073H35.13v1.321h4.468zm3.506.133c1.493 0 2.489-.843 2.489-1.953 0-.933-.542-1.476-1.217-1.843v-.044c.487-.322.918-.866.918-1.543 0-1.166-.852-1.931-2.135-1.931-1.305 0-2.245.743-2.245 1.942 0 .744.399 1.254.94 1.665v.044c-.663.356-1.194.877-1.194 1.732 0 1.143 1.04 1.931 2.444 1.931zm.443-4.24c-.72-.277-1.206-.555-1.206-1.132 0-.544.354-.81.785-.81.531 0 .852.366.852.91 0 .366-.155.71-.431 1.032zm-.41 3.108c-.586 0-1.083-.366-1.083-.988 0-.433.232-.832.541-1.12.885.377 1.482.61 1.482 1.231 0 .589-.398.877-.94.877zm6.006 1.132c1.272 0 2.333-.899 2.333-2.364 0-1.487-.884-2.175-2.09-2.175-.431 0-1.04.277-1.404.743.055-1.643.674-2.198 1.448-2.198.41 0 .852.234 1.095.5l.852-.977c-.443-.455-1.117-.843-2.046-.843-1.482 0-2.843 1.187-2.843 3.818 0 2.475 1.294 3.496 2.655 3.496zm-.033-1.22c-.487 0-.952-.356-1.095-1.466.287-.5.696-.699 1.061-.699.531 0 .918.277.918 1.021 0 .8-.398 1.143-.884 1.143z" id="c"/><path d="M30.692 67.783c1.415 0 2.61-.744 2.61-2.054 0-.91-.586-1.487-1.394-1.72v-.045c.752-.322 1.173-.832 1.173-1.565 0-1.232-.974-1.931-2.422-1.931-.863 0-1.57.344-2.212.899l.818.999c.442-.389.818-.622 1.316-.622.553 0 .863.289.863.777 0 .566-.398.944-1.66.944v1.154c1.527 0 1.892.389 1.892 1.01 0 .533-.453.833-1.14.833-.596 0-1.116-.3-1.536-.71l-.752 1.032c.508.6 1.305.999 2.444.999zm5.883 0c1.372 0 2.577-.9 2.577-2.464 0-1.499-1.028-2.187-2.234-2.187-.287 0-.52.044-.785.166l.122-1.32h2.577V60.6H34.85l-.199 3.563.73.466c.42-.266.63-.355 1.04-.355.652 0 1.106.378 1.106 1.088 0 .721-.465 1.099-1.184 1.099-.597 0-1.095-.311-1.515-.7l-.73 1.033c.553.555 1.327.988 2.477.988z" id="d"/></defs><g fill="none" fill-rule="evenodd"><g transform="translate(0 5.96)"><ellipse fill="#F2F9FF" cx="52.25" cy="52.44" rx="51.173" ry="51.359"/><path d="M74.813 36.947c9.837 0 17.812 8.004 17.812 17.877a17.883 17.883 0 01-9.256 15.684l-.056.03-.046 11.31a3.071 3.071 0 01-.723 2.139l-.157.172-1.176 1.191 1.295 1.313c1.113 1.129 1.15 2.927.128 4.118l-.146.159-1.325 1.342.124.126c-.649.476-1.31.936-1.982 1.38l-1.484-1.505 2.98-3.02a.661.661 0 00.017-.923l-2.95-2.99 2.831-2.868c.134-.136.205-.323.194-.578l.052-12.837.66-.326a15.498 15.498 0 008.645-13.917c0-8.557-6.912-15.494-15.438-15.494-8.525 0-15.437 6.937-15.437 15.494 0 6.341 3.83 11.97 9.577 14.339l.74.305-.163 28.206a.632.632 0 00.178.45l.418.423c-.797.312-1.604.603-2.42.873a3.015 3.015 0 01-.551-1.76l.154-26.619-.343-.163a17.884 17.884 0 01-9.96-15.648L57 54.824c0-9.873 7.975-17.877 17.813-17.877z" fill="#A8B6C6" fill-rule="nonzero"/><path d="M52.25 0C23.393 0 0 23.478 0 52.44c0 28.962 23.393 52.44 52.25 52.44s52.25-23.478 52.25-52.44C104.5 23.478 81.107 0 52.25 0zm-.539 4.325c26.775 0 48.48 21.784 48.48 48.656s-21.705 48.656-48.48 48.656c-26.774 0-48.479-21.784-48.479-48.656S24.937 4.325 51.712 4.325z" fill="url(#a)" fill-rule="nonzero" transform="matrix(-1 0 0 1 104.5 0)"/></g><ellipse fill="#F2F9FF" cx="73.625" cy="59.591" rx="15.438" ry="15.494"/><ellipse stroke="#A8B6C6" stroke-width="2" cx="74.813" cy="54.824" rx="4.75" ry="4.767"/><path d="M91.438 60.783c0-9.215-7.444-16.685-16.626-16.685-9.181 0-16.624 7.47-16.624 16.685S65.63 77.47 74.811 77.47m-2.967 4.071v16.884" stroke="#A8B6C6" stroke-width="2" stroke-linecap="round"/><path d="M12.125 5.96h43.438a5 5 0 015 5v60.55H7.124V10.96a5 5 0 015-5z" fill="#FFF"/><path d="M48.094 6.555a4.767 4.767 0 01-4.768 4.767H23.174a4.767 4.767 0 01-4.768-4.767h29.688z" stroke="#112E51" stroke-width="2" fill="#112E51"/><path d="M33.844 48.865C25.646 48.865 19 55.535 19 63.763S25.646 78.66 33.844 78.66h0c8.198 0 14.843-6.67 14.843-14.898" stroke="#112E51" stroke-width="3" stroke-linecap="round"/><text fill="#5B616A" font-family="SourceSansPro-Bold, Source Sans Pro" font-size="10" font-weight="bold"><tspan x="16.41" y="26.686">213 186</tspan></text><text fill="#5B616A" font-family="SourceSansPro-Bold, Source Sans Pro" font-size="10" font-weight="bold"><tspan x="28.564" y="58.865">35</tspan></text><path d="M59.376 12.497c.798.126 1.59.271 2.375.437l-.001 82.412c0 3.869-3.061 7.02-6.885 7.147l-.24.004-23.4.001a47.355 47.355 0 01-4.304-2.383l27.704-.002c2.55 0 4.631-2.017 4.745-4.549l.005-.218zM7.123 43.793V75.39A47.54 47.54 0 014.75 64.956V54.228a47.54 47.54 0 012.373-10.435zm0-11.843l-.001.26a51.784 51.784 0 00-2.37 4.403l-.001-.092a52.35 52.35 0 012.372-4.571zM52.25 5.96c2.348 0 4.66.155 6.926.456.535.447 1.005.97 1.391 1.555a51.98 51.98 0 00-4.547-.612 4.753 4.753 0 00-1.178-.203l-.217-.005-13.497-.001A52.267 52.267 0 0152.25 5.96z" fill="#112E51" fill-rule="nonzero"/><ellipse fill="#112E51" cx="48.094" cy="57.804" rx="1.781" ry="1.788"/><path d="M63.042 41.714l1.697-2.92 1.687 2.868 1.595-1.152-2.052-2.533 2.906-.869-.549-1.78-2.876 1.299.275-3.256h-1.941l.223 3.245-2.814-1.266-.63 1.78 2.987.857-2.103 2.586 1.595 1.14zm9.5 0l1.697-2.92 1.687 2.868 1.595-1.152-2.052-2.533 2.906-.869-.549-1.78-2.876 1.299.275-3.256h-1.941l.223 3.245-2.814-1.266-.63 1.78 2.987.857-2.103 2.586 1.595 1.14zm9.5 0l1.697-2.92 1.687 2.868 1.595-1.152-2.052-2.533 2.906-.869-.549-1.78-2.876 1.299.275-3.256h-1.941l.223 3.245-2.814-1.266-.63 1.78 2.987.857-2.103 2.586 1.595 1.14zm10.688 0l1.697-2.92 1.686 2.868 1.596-1.152-2.053-2.533 2.906-.869-.548-1.78-2.876 1.299.274-3.256h-1.94l.223 3.245-2.815-1.266-.63 1.78 2.988.857-2.104 2.586 1.596 1.14z" fill="#0071BB" fill-rule="nonzero"/><path d="M54.625 4.767c3.935 0 7.125 3.202 7.125 7.151V58.4h-2.376l.001-46.482a4.76 4.76 0 00-4.533-4.762l-.217-.005h-42.75c-2.623 0-4.75 2.134-4.75 4.767L7.124 58.4H4.75V11.92c0-3.95 3.19-7.152 7.125-7.152z" fill="#112E51" fill-rule="nonzero"/><g transform="translate(0 5.96)"><ellipse fill="#F9FCFF" cx="52.25" cy="52.44" rx="51.173" ry="51.359"/><path d="M52.25 0C23.393 0 0 23.478 0 52.44c0 28.962 23.393 52.44 52.25 52.44s52.25-23.478 52.25-52.44C104.5 23.478 81.107 0 52.25 0zm-.539 4.325c26.775 0 48.48 21.784 48.48 48.656s-21.705 48.656-48.48 48.656c-26.774 0-48.479-21.784-48.479-48.656S24.937 4.325 51.712 4.325z" fill="url(#b)" fill-rule="nonzero" transform="matrix(-1 0 0 1 104.5 0)"/></g><g transform="rotate(-180 48.094 34.406)"><rect fill="#A8B6C6" width="28.43" height="38.716" rx="2"/><rect fill="#A8B6C6" x="3.877" y="23.23" width="20.676" height="32.263" rx="2"/><path fill="#EBF3FA" d="M6.461 38.716H9.28v14.196H6.461zm4.23 0h2.819v11.615h-2.819zm4.229 0h2.819v11.615H14.92zm4.229 0h2.819v14.196h-2.819z"/><ellipse fill="#EBF3FA" cx="14.215" cy="14.196" rx="9.046" ry="9.034"/></g><path d="M106 66.742a8 8 0 018 8v5.25a8 8 0 01-8 8H61.75v-21.25H106z" fill="#EBF3FA"/><path d="M63.308 82.326l2.017-3.472 2.006 3.41 1.896-1.369-2.44-3.011 3.455-1.033-.653-2.115-3.418 1.543.326-3.87H64.19l.266 3.857-3.346-1.505-.75 2.115 3.552 1.02-2.5 3.074 1.896 1.356zm11.293 0l2.017-3.472 2.005 3.41 1.897-1.369-2.44-3.011 3.454-1.033-.652-2.115-3.419 1.543.327-3.87h-2.308l.266 3.857-3.346-1.505-.749 2.115 3.552 1.02-2.5 3.074 1.896 1.356zm11.292 0l2.017-3.472 2.006 3.41 1.896-1.369-2.44-3.011 3.455-1.033-.653-2.115-3.418 1.543.326-3.87h-2.307l.266 3.857-3.346-1.505-.75 2.115 3.552 1.02-2.5 3.074 1.896 1.356zm12.704 0l2.017-3.472 2.006 3.41 1.896-1.369-2.44-3.011 3.455-1.033-.653-2.115-3.418 1.543.326-3.87H99.48l.266 3.857-3.346-1.505-.75 2.115 3.552 1.02-2.5 3.074 1.896 1.356z" fill="#112E51" fill-rule="nonzero"/><path d="M12.125 5.96h43.438a5 5 0 015 5V58.4H7.124V10.96a5 5 0 015-5z" fill="#FFF"/><path d="M49.354 5.391v1.187c0 3.28-2.668 5.938-5.959 5.938h-20.26a5.956 5.956 0 01-5.954-5.671l-.035-1.454h32.208zm-15.51 41.686c.984 0 1.781.8 1.781 1.788 0 .987-.797 1.788-1.781 1.788-7.214 0-13.063 5.87-13.063 13.11 0 7.24 5.849 13.11 13.063 13.11s13.062-5.87 13.062-13.11c0-.988.798-1.788 1.782-1.788.983 0 1.78.8 1.78 1.788 0 9.215-7.443 16.685-16.624 16.685-9.182 0-16.625-7.47-16.625-16.685s7.443-16.686 16.625-16.686z" fill="#A8B6C6" fill-rule="nonzero"/><g fill-rule="nonzero" fill="#112E51"><use xlink:href="#c"/><use xlink:href="#c"/></g><g fill-rule="nonzero" fill="#112E51"><use xlink:href="#d"/><use xlink:href="#d"/></g><path d="M59.376 12.497c.798.126 1.59.271 2.375.437l-.001 82.412c0 3.869-3.061 7.02-6.885 7.147l-.24.004-23.4.001a47.355 47.355 0 01-4.304-2.383l27.704-.002c2.55 0 4.631-2.017 4.745-4.549l.005-.218zM7.123 43.793V75.39A47.54 47.54 0 014.75 64.956V54.228a47.54 47.54 0 012.373-10.435zm0-11.843l-.001.26a51.784 51.784 0 00-2.37 4.403l-.001-.092a52.35 52.35 0 012.372-4.571zM52.25 5.96c2.348 0 4.66.155 6.926.456.535.447 1.005.97 1.391 1.555a51.98 51.98 0 00-4.547-.612 4.753 4.753 0 00-1.178-.203l-.217-.005-13.497-.001A52.267 52.267 0 0152.25 5.96z" fill="#A8B6C6" fill-rule="nonzero"/><ellipse fill="#A8B6C6" cx="47.797" cy="58.102" rx="2.078" ry="2.086"/><path d="M54.625 4.767c3.935 0 7.125 3.202 7.125 7.151V58.4h-2.376l.001-46.482a4.76 4.76 0 00-4.533-4.762l-.217-.005h-42.75c-2.623 0-4.75 2.134-4.75 4.767L7.124 58.4H4.75V11.92c0-3.95 3.19-7.152 7.125-7.152z" fill="#A8B6C6" fill-rule="nonzero"/><ellipse fill="#A6D5AF" cx="27.906" cy="103.093" rx="6.531" ry="6.555"/><ellipse fill="#FCF197" cx="61.156" cy="6.555" rx="6.531" ry="6.555"/></g></svg>