<?xml version="1.0" encoding="UTF-8"?>
<svg width="115px" height="111px" viewBox="0 0 115 111" version="1.1" xmlns="http://www.w3.org/2000/svg" xmlns:xlink="http://www.w3.org/1999/xlink">
    <title>Group 9</title>
    <defs>
        <linearGradient x1="50%" y1="50%" x2="50%" y2="430.015346%" id="linearGradient-1">
            <stop stop-color="#EBF3FA" offset="0%"></stop>
            <stop stop-color="#0071BB" offset="100%"></stop>
        </linearGradient>
        <linearGradient x1="33.1199518%" y1="0%" x2="149.667419%" y2="335.711115%" id="linearGradient-2">
            <stop stop-color="#EBF3FA" offset="0%"></stop>
            <stop stop-color="#0071BB" offset="100%"></stop>
        </linearGradient>
        <path d="M19.9783582,29.4932692 L19.9783582,28.1168692 L18.5627164,28.1168692 C18.2309254,28.1168692 17.7442985,28.1612692 17.3903881,28.2056692 C18.5295373,27.0068692 19.6355075,25.7414692 19.6355075,24.5537692 C19.6355075,23.1995692 18.6954328,22.3115692 17.3129701,22.3115692 C16.3065373,22.3115692 15.6540149,22.6889692 14.9572537,23.4326692 L15.8420299,24.3095692 C16.1959403,23.9321692 16.5830299,23.5880692 17.0917761,23.5880692 C17.7000597,23.5880692 18.0871493,23.9654692 18.0871493,24.6536692 C18.0871493,25.6526692 16.8263433,26.8625692 15.0346716,28.5608692 L15.0346716,29.4932692 L19.9783582,29.4932692 Z M25.7072836,29.4932692 L25.7072836,28.1723692 L24.3911791,28.1723692 L24.3911791,22.4447692 L23.1967313,22.4447692 C22.6990448,22.7444692 22.2124179,22.9442692 21.4492985,23.0885692 L21.4492985,24.0986692 L22.765403,24.0986692 L22.765403,28.1723692 L21.2391642,28.1723692 L21.2391642,29.4932692 L25.7072836,29.4932692 Z M28.9920149,29.6264692 C30.4076567,29.6264692 31.6021045,28.8827692 31.6021045,27.5729692 C31.6021045,26.6627692 31.0159403,26.0855692 30.2085821,25.8524692 L30.2085821,25.8080692 C30.9606418,25.4861692 31.3809104,24.9755692 31.3809104,24.2429692 C31.3809104,23.0108692 30.4076567,22.3115692 28.9588358,22.3115692 C28.0961791,22.3115692 27.3883582,22.6556692 26.7468955,23.2106692 L27.5653134,24.2096692 C28.0077015,23.8211692 28.3837313,23.5880692 28.8814179,23.5880692 C29.434403,23.5880692 29.7440746,23.8766692 29.7440746,24.3650692 C29.7440746,24.9311692 29.3459254,25.3085692 28.0851194,25.3085692 L28.0851194,26.4629692 C29.6113582,26.4629692 29.9763284,26.8514692 29.9763284,27.4730692 C29.9763284,28.0058692 29.5228806,28.3055692 28.8371791,28.3055692 C28.2399552,28.3055692 27.7201493,28.0058692 27.2998806,27.5951692 L26.5478209,28.6274692 C27.0565672,29.2268692 27.8528657,29.6264692 28.9920149,29.6264692 Z M39.5982687,29.4932692 L39.5982687,28.1723692 L38.2821642,28.1723692 L38.2821642,22.4447692 L37.0877164,22.4447692 C36.5900299,22.7444692 36.103403,22.9442692 35.3402836,23.0885692 L35.3402836,24.0986692 L36.6563881,24.0986692 L36.6563881,28.1723692 L35.1301493,28.1723692 L35.1301493,29.4932692 L39.5982687,29.4932692 Z M43.104194,29.6264692 C44.5972537,29.6264692 45.5926269,28.7828692 45.5926269,27.6728692 C45.5926269,26.7404692 45.0507015,26.1965692 44.3760597,25.8302692 L44.3760597,25.7858692 C44.8626866,25.4639692 45.2940149,24.9200692 45.2940149,24.2429692 C45.2940149,23.0774692 44.4424179,22.3115692 43.1594925,22.3115692 C41.8544478,22.3115692 40.9143731,23.0552692 40.9143731,24.2540692 C40.9143731,24.9977692 41.3125224,25.5083692 41.8544478,25.9190692 L41.8544478,25.9634692 C41.1908657,26.3186692 40.66,26.8403692 40.66,27.6950692 C40.66,28.8383692 41.6996119,29.6264692 43.104194,29.6264692 Z M43.5465821,25.3862692 C42.8277015,25.1087692 42.3410746,24.8312692 42.3410746,24.2540692 C42.3410746,23.7101692 42.6949851,23.4437692 43.1263134,23.4437692 C43.6571791,23.4437692 43.9779104,23.8100692 43.9779104,24.3539692 C43.9779104,24.7202692 43.8230746,25.0643692 43.5465821,25.3862692 Z M43.1373731,28.4942692 C42.551209,28.4942692 42.0535224,28.1279692 42.0535224,27.5063692 C42.0535224,27.0734692 42.2857761,26.6738692 42.5954478,26.3852692 C43.4802239,26.7626692 44.0774478,26.9957692 44.0774478,27.6173692 C44.0774478,28.2056692 43.6792985,28.4942692 43.1373731,28.4942692 Z M49.142791,29.6264692 C50.4146567,29.6264692 51.4763881,28.7273692 51.4763881,27.2621692 C51.4763881,25.7747692 50.5916119,25.0865692 49.3861045,25.0865692 C48.9547761,25.0865692 48.3464925,25.3640692 47.9815224,25.8302692 C48.0368209,24.1874692 48.6561642,23.6324692 49.4303433,23.6324692 C49.8395522,23.6324692 50.2819403,23.8655692 50.5252537,24.1319692 L51.3768507,23.1551692 C50.9344627,22.7000692 50.2598209,22.3115692 49.330806,22.3115692 C47.848806,22.3115692 46.4884627,23.4992692 46.4884627,26.1299692 C46.4884627,28.6052692 47.7824478,29.6264692 49.142791,29.6264692 Z M49.1096119,28.4054692 C48.6229851,28.4054692 48.1584776,28.0502692 48.0147015,26.9402692 C48.3022537,26.4407692 48.7114627,26.2409692 49.0764328,26.2409692 C49.6072985,26.2409692 49.9943881,26.5184692 49.9943881,27.2621692 C49.9943881,28.0613692 49.5962388,28.4054692 49.1096119,28.4054692 Z" id="path-3"></path>
        <path d="M30.6917351,67.7827192 C32.1073769,67.7827192 33.3018246,67.0390192 33.3018246,65.7292192 C33.3018246,64.8190192 32.7156604,64.2418192 31.9083022,64.0087192 L31.9083022,63.9643192 C32.6603619,63.6424192 33.0806306,63.1318192 33.0806306,62.3992192 C33.0806306,61.1671192 32.1073769,60.4678192 30.658556,60.4678192 C29.7958993,60.4678192 29.0880784,60.8119192 28.4466157,61.3669192 L29.2650336,62.3659192 C29.7074216,61.9774192 30.0834515,61.7443192 30.5811381,61.7443192 C31.1341231,61.7443192 31.4437948,62.0329192 31.4437948,62.5213192 C31.4437948,63.0874192 31.0456455,63.4648192 29.7848396,63.4648192 L29.7848396,64.6192192 C31.3110784,64.6192192 31.6760485,65.0077192 31.6760485,65.6293192 C31.6760485,66.1621192 31.2226007,66.4618192 30.5368993,66.4618192 C29.9396754,66.4618192 29.4198694,66.1621192 28.9996007,65.7514192 L28.247541,66.7837192 C28.7562873,67.3831192 29.5525858,67.7827192 30.6917351,67.7827192 Z M36.5754963,67.7827192 C37.9468993,67.7827192 39.1524067,66.8836192 39.1524067,65.3185192 C39.1524067,63.8200192 38.1238545,63.1318192 36.918347,63.1318192 C36.6307948,63.1318192 36.398541,63.1762192 36.1331082,63.2983192 L36.2547649,61.9774192 L38.8316754,61.9774192 L38.8316754,60.6010192 L34.8501828,60.6010192 L34.6511082,64.1641192 L35.3810485,64.6303192 C35.8013172,64.3639192 36.0114515,64.2751192 36.4206604,64.2751192 C37.0731828,64.2751192 37.5266306,64.6525192 37.5266306,65.3629192 C37.5266306,66.0844192 37.0621231,66.4618192 36.3432425,66.4618192 C35.7460187,66.4618192 35.2483321,66.1510192 34.8280634,65.7625192 L34.0981231,66.7948192 C34.6511082,67.3498192 35.4252873,67.7827192 36.5754963,67.7827192 Z" id="path-4"></path>
    </defs>
    <g id="hi-fi-[for-screenshots]" stroke="none" stroke-width="1" fill="none" fill-rule="evenodd">
        <g id="create-page-desktop-1440-v1" transform="translate(-213.000000, -1237.000000)">
            <g id="Group-9" transform="translate(213.000000, 1237.000000)">
                <g id="Group-4" transform="translate(0.000000, 5.959135)">
                    <ellipse id="Oval" fill="#F2F9FF" cx="52.25" cy="52.4403846" rx="51.1726804" ry="51.3591396"></ellipse>
                    <path d="M74.8125,36.9466269 C84.6500721,36.9466269 92.625,44.9506132 92.625,54.8240308 C92.625,61.4383293 89.0131745,67.4024524 83.3685659,70.5077302 L83.3685659,70.5077302 L83.312625,70.5370846 L83.2665535,81.8481198 C83.3064779,82.6290775 83.0455151,83.394447 82.5441463,83.9868589 L82.5441463,83.9868589 L82.386584,84.1592364 L81.21075,85.3503014 L82.5059439,86.6630966 C83.6194627,87.7917121 83.6557373,89.5901619 82.6338158,90.7812554 L82.6338158,90.7812554 L82.4879055,90.9397927 L81.16325,92.2819668 L81.2871909,92.4078328 C80.6382431,92.8835613 79.9772722,93.3437551 79.3048213,93.787869 L77.8206068,92.2826834 L80.8002936,89.2625989 C81.0578316,89.0015693 81.0607156,88.5859601 80.818332,88.3402904 L80.818332,88.3402904 L77.8687091,85.3506774 L80.6990017,82.4820126 C80.8330101,82.346197 80.9043246,82.1590453 80.8931231,81.9043851 L80.8931231,81.9043851 L80.9446956,69.0668952 L81.6059154,68.7411127 C86.8537189,66.1555239 90.25,60.7961072 90.25,54.8240308 C90.25,46.2670689 83.3383958,39.3302808 74.8125,39.3302808 C66.2866042,39.3302808 59.375,46.2670689 59.375,54.8240308 C59.375,61.1653994 63.2058052,66.7940839 68.951749,69.1625484 L68.951749,69.1625484 L69.6927676,69.4679945 L69.5285729,97.6742009 C69.5274003,97.8458832 69.5923549,98.007091 69.7071104,98.1234023 L69.7071104,98.1234023 L70.1246911,98.5473207 C69.3276714,98.8587895 68.5205831,99.1500417 67.7040516,99.4204496 C67.3432613,98.9101037 67.1492824,98.2942671 67.153621,97.6590688 L67.153621,97.6590688 L67.3075,71.0412274 L66.965394,70.8777175 C61.0606356,67.9688776 57.1554092,61.9749478 57.0045333,55.2296327 L57.0045333,55.2296327 L57,54.8240308 C57,44.9506132 64.9749279,36.9466269 74.8125,36.9466269 Z" id="Combined-Shape" fill="#A8B6C6" fill-rule="nonzero"></path>
                    <path d="M52.25,0 C23.3931218,0 0,23.4783599 0,52.4403846 C0,81.4024093 23.3931218,104.880769 52.25,104.880769 C81.1068782,104.880769 104.5,81.4024093 104.5,52.4403846 C104.5,23.4783599 81.1068782,0 52.25,0 Z M51.7113402,4.32498017 C78.4857633,4.32498017 100.190722,26.1090255 100.190722,52.9810071 C100.190722,79.8529888 78.4857633,101.637034 51.7113402,101.637034 C24.9369172,101.637034 3.23195876,79.8529888 3.23195876,52.9810071 C3.23195876,26.1090255 24.9369172,4.32498017 51.7113402,4.32498017 Z" id="Oval" fill="url(#linearGradient-1)" fill-rule="nonzero" transform="translate(52.250000, 52.440385) scale(-1, 1) translate(-52.250000, -52.440385) "></path>
                </g>
                <ellipse id="Oval" fill="#F2F9FF" cx="73.625" cy="59.5913462" rx="15.4375" ry="15.49375"></ellipse>
                <ellipse id="Oval" stroke="#A8B6C6" stroke-width="2" cx="74.8125" cy="54.8240385" rx="4.75" ry="4.76730769"></ellipse>
                <path d="M91.4375,60.7831731 C91.4375,51.5679834 83.994234,44.0975962 74.8125,44.0975962 C65.630766,44.0975962 58.1875,51.5679834 58.1875,60.7831731 C58.1875,69.9983628 65.630766,77.46875 74.8125,77.46875" id="Path" stroke="#A8B6C6" stroke-width="2" stroke-linecap="round"></path>
                <line x1="71.84375" y1="81.5408253" x2="71.84375" y2="98.4250401" id="Line-2" stroke="#A8B6C6" stroke-width="2" stroke-linecap="round"></line>
                <path d="M12.125,5.95913462 L55.5625,5.95913462 C58.3239237,5.95913462 60.5625,8.19771087 60.5625,10.9591346 L60.5625,71.5096154 L60.5625,71.5096154 L7.125,71.5096154 L7.125,10.9591346 C7.125,8.19771087 9.36357625,5.95913462 12.125,5.95913462 Z" id="Rectangle-Copy" fill="#FFFFFF"></path>
                <path d="M30.8663462,-5.90504808 C33.4992575,-5.90504808 35.6336538,-3.77065172 35.6336538,-1.13774038 L35.6336538,19.0151442 C35.6336538,21.6480556 33.4992575,23.7824519 30.8663462,23.7824519 L30.8663462,23.7824519 L30.8663462,23.7824519 L30.8663462,-5.90504808 Z" id="Rectangle-Copy-5" stroke="#112E51" stroke-width="2" fill="#112E51" transform="translate(33.250000, 8.938702) rotate(-270.000000) translate(-33.250000, -8.938702) "></path>
                <path d="M33.84375,48.8649038 C25.6457732,48.8649038 19,55.5348925 19,63.7627404 C19,71.9905883 25.6457732,78.6605769 33.84375,78.6605769 L33.84375,78.6605769 C42.0417268,78.6605769 48.6875,71.9905883 48.6875,63.7627404" id="Path" stroke="#112E51" stroke-width="3" stroke-linecap="round"></path>
                <text id="213-186" fill="#5B616A" font-family="SourceSansPro-Bold, Source Sans Pro" font-size="10" font-weight="bold" line-spacing="24">
                    <tspan x="16.41" y="26.6855769">213 186</tspan>
                </text>
                <text id="35" fill="#5B616A" font-family="SourceSansPro-Bold, Source Sans Pro" font-size="10" font-weight="bold" line-spacing="24">
                    <tspan x="28.56375" y="58.8649038">35</tspan>
                </text>
                <path d="M59.3756015,12.4968977 C60.1741341,12.6226612 60.9660654,12.768392 61.7508722,12.9335651 L61.75,95.3461538 C61.75,99.2149215 58.6889031,102.366127 54.8649684,102.493136 L54.625,102.497115 L31.2255981,102.498124 C29.7462385,101.776918 28.3097799,100.980915 26.9211036,100.115013 L54.625,100.113462 C57.1754817,100.113462 59.2564697,98.0959958 59.3701121,95.5643741 L59.375,95.3461538 Z M7.12345759,43.7929344 L7.12344659,75.3897265 C5.960264,72.0648331 5.15390872,68.5714002 4.75049362,64.9557086 L4.75039481,54.2278693 C5.15377832,50.6118512 5.96017411,47.1181087 7.12345759,43.7929344 Z M7.12333092,31.9495524 L7.12203763,32.2107757 C6.26412335,33.6349858 5.47256029,35.103967 4.75164797,36.6134039 L4.75084948,36.5206296 C5.46850344,34.9538039 6.26085674,33.4285798 7.12333092,31.9495524 Z M52.25,5.95913462 C54.5979949,5.95913462 56.9098166,6.11457482 59.1758067,6.41576157 C59.7114822,6.8625253 60.1808697,7.38656764 60.5669864,7.97084224 C59.0720912,7.70223686 57.555566,7.49693225 56.0196865,7.35909531 C55.644857,7.24439288 55.2503411,7.17431178 54.842428,7.15586721 L54.625,7.15096154 L41.1278881,7.1497089 C44.7120163,6.36987203 48.4332159,5.95913462 52.25,5.95913462 Z" id="Combined-Shape" fill="#112E51" fill-rule="nonzero"></path>
                <ellipse id="Oval" fill="#112E51" cx="48.09375" cy="57.8036058" rx="1.78125" ry="1.78774038"></ellipse>
                <path d="M63.0420232,41.7139423 L64.739074,38.793443 L66.4259627,41.6616036 L68.0213936,40.5101523 L65.9686736,37.9769593 L68.875,37.1081369 L68.3262531,35.3286212 L65.4504126,36.6266209 L65.7247861,33.3711538 L63.7838478,33.3711538 L64.0074114,36.6161531 L61.1925428,35.3495566 L60.5625,37.1290724 L63.5501222,37.987427 L61.4465923,40.5729587 L63.0420232,41.7139423 Z M72.5420232,41.7139423 L74.239074,38.793443 L75.9259627,41.6616036 L77.5213936,40.5101523 L75.4686736,37.9769593 L78.375,37.1081369 L77.8262531,35.3286212 L74.9504126,36.6266209 L75.2247861,33.3711538 L73.2838478,33.3711538 L73.5074114,36.6161531 L70.6925428,35.3495566 L70.0625,37.1290724 L73.0501222,37.987427 L70.9465923,40.5729587 L72.5420232,41.7139423 Z M82.0420232,41.7139423 L83.739074,38.793443 L85.4259627,41.6616036 L87.0213936,40.5101523 L84.9686736,37.9769593 L87.875,37.1081369 L87.3262531,35.3286212 L84.4504126,36.6266209 L84.7247861,33.3711538 L82.7838478,33.3711538 L83.0074114,36.6161531 L80.1925428,35.3495566 L79.5625,37.1290724 L82.5501222,37.987427 L80.4465923,40.5729587 L82.0420232,41.7139423 Z M92.7295232,41.7139423 L94.426574,38.793443 L96.1134627,41.6616036 L97.7088936,40.5101523 L95.6561736,37.9769593 L98.5625,37.1081369 L98.0137531,35.3286212 L95.1379126,36.6266209 L95.4122861,33.3711538 L93.4713478,33.3711538 L93.6949114,36.6161531 L90.8800428,35.3495566 L90.25,37.1290724 L93.2376222,37.987427 L91.1340923,40.5729587 L92.7295232,41.7139423 Z" id="************" fill="#0071BB" fill-rule="nonzero"></path>
                <path d="M54.625,4.76730769 C58.5600288,4.76730769 61.75,7.96890223 61.75,11.9182692 L61.75,11.9182692 L61.75,58.3995192 L59.374,58.3993077 L59.375,11.9182692 C59.375,9.35849432 57.3648587,7.26992377 54.842428,7.15586721 L54.625,7.15096154 L11.875,7.15096154 C9.25164744,7.15096154 7.125,9.28535789 7.125,11.9182692 L7.125,11.9182692 L7.124,58.3993077 L4.75,58.3995192 L4.75,11.9182692 C4.75,7.96890223 7.93997116,4.76730769 11.875,4.76730769 L11.875,4.76730769 Z" id="Combined-Shape" fill="#112E51" fill-rule="nonzero"></path>
                <g id="Group-4" transform="translate(0.000000, 5.959135)">
                    <ellipse id="Oval" fill="#F9FCFF" cx="52.25" cy="52.4403846" rx="51.1726804" ry="51.3591396"></ellipse>
                    <path d="M52.25,0 C23.3931218,0 0,23.4783599 0,52.4403846 C0,81.4024093 23.3931218,104.880769 52.25,104.880769 C81.1068782,104.880769 104.5,81.4024093 104.5,52.4403846 C104.5,23.4783599 81.1068782,0 52.25,0 Z M51.7113402,4.32498017 C78.4857633,4.32498017 100.190722,26.1090255 100.190722,52.9810071 C100.190722,79.8529888 78.4857633,101.637034 51.7113402,101.637034 C24.9369172,101.637034 3.23195876,79.8529888 3.23195876,52.9810071 C3.23195876,26.1090255 24.9369172,4.32498017 51.7113402,4.32498017 Z" id="Oval" fill="url(#linearGradient-2)" fill-rule="nonzero" transform="translate(52.250000, 52.440385) scale(-1, 1) translate(-52.250000, -52.440385) "></path>
                </g>
                <g id="Group-3" transform="translate(81.937500, 40.804390) rotate(-180.000000) translate(-81.937500, -40.804390) translate(67.687500, 12.796457)">
                    <rect id="Rectangle" fill="#A8B6C6" x="0" y="0" width="28.429803" height="38.7159208" rx="2"></rect>
                    <rect id="Rectangle" fill="#A8B6C6" x="3.87679131" y="23.2295525" width="20.6762203" height="32.2632674" rx="2"></rect>
                    <rect id="Rectangle" fill="#EBF3FA" x="6.46131885" y="38.7159208" width="2.81948459" height="14.1958376"></rect>
                    <rect id="Rectangle" fill="#EBF3FA" x="10.6905457" y="38.7159208" width="2.81948459" height="11.6147762"></rect>
                    <rect id="Rectangle" fill="#EBF3FA" x="14.9197726" y="38.7159208" width="2.81948459" height="11.6147762"></rect>
                    <rect id="Rectangle" fill="#EBF3FA" x="19.1489995" y="38.7159208" width="2.81948459" height="14.1958376"></rect>
                    <ellipse id="Oval" fill="#EBF3FA" cx="14.2149015" cy="14.1958376" rx="9.04584639" ry="9.03371486"></ellipse>
                </g>
                <g id="Group-5" transform="translate(59.375000, 66.742308)">
                    <path d="M46.625,0 C51.043278,-1.69980292e-15 54.625,3.581722 54.625,8 L54.625,13.2504989 C54.625,17.6687769 51.043278,21.2504989 46.625,21.2504989 L2.375,21.25 L2.375,0 L46.625,0 Z" id="Combined-Shape" fill="#EBF3FA"></path>
                    <path d="M3.93320686,15.5836992 L5.95045584,12.1121622 L7.95562549,15.5214853 L9.85208112,14.1527789 L7.4120554,11.141625 L10.8667453,10.1088739 L10.2144612,7.99360047 L6.79600931,9.53650579 L7.12215136,5.66679971 L4.81499833,5.66679971 L5.0807437,9.524063 L1.73476784,8.01848604 L0.985849057,10.1337595 L4.53717362,11.1540678 L2.03675122,14.2274357 L3.93320686,15.5836992 Z M15.2256597,15.5836992 L17.2429087,12.1121622 L19.2480783,15.5214853 L21.144534,14.1527789 L18.7045082,11.141625 L22.1591981,10.1088739 L21.506914,7.99360047 L18.0884621,9.53650579 L18.4146042,5.66679971 L16.1074512,5.66679971 L16.3731965,9.524063 L13.0272207,8.01848604 L12.2783019,10.1337595 L15.8296264,11.1540678 L13.3292041,14.2274357 L15.2256597,15.5836992 Z M26.5181125,15.5836992 L28.5353615,12.1121622 L30.5405312,15.5214853 L32.4369868,14.1527789 L29.9969611,11.141625 L33.4516509,10.1088739 L32.7993668,7.99360047 L29.380915,9.53650579 L29.707057,5.66679971 L27.399904,5.66679971 L27.6656494,9.524063 L24.3196735,8.01848604 L23.5707547,10.1337595 L27.1220793,11.1540678 L24.6216569,14.2274357 L26.5181125,15.5836992 Z M39.2221219,15.5836992 L41.2393709,12.1121622 L43.2445406,15.5214853 L45.1409962,14.1527789 L42.7009705,11.141625 L46.1556604,10.1088739 L45.5033763,7.99360047 L42.0849244,9.53650579 L42.4110665,5.66679971 L40.1039134,5.66679971 L40.3696588,9.524063 L37.0236829,8.01848604 L36.2747642,10.1337595 L39.8260887,11.1540678 L37.3256663,14.2274357 L39.2221219,15.5836992 Z" id="************" fill="#112E51" fill-rule="nonzero"></path>
                </g>
                <path d="M12.125,5.95913462 L55.5625,5.95913462 C58.3239237,5.95913462 60.5625,8.19771087 60.5625,10.9591346 L60.5625,58.3995192 L60.5625,58.3995192 L7.125,58.3995192 L7.125,10.9591346 C7.125,8.19771087 9.36357625,5.95913462 12.125,5.95913462 Z" id="Rectangle-Copy" fill="#FFFFFF"></path>
                <path d="M49.3544548,5.39099322 L49.3544548,6.57849322 C49.3544548,9.85768392 46.6864593,12.5159932 43.3953201,12.5159932 L43.3953201,12.5159932 L23.1342625,12.5159932 C19.953727,12.5159932 17.3379758,10.0275556 17.1813203,6.84467563 L17.1813203,6.84467563 L17.1455452,5.39099322 L49.3544548,5.39099322 Z" id="Combined-Shape" fill="#A8B6C6" fill-rule="nonzero"></path>
                <path d="M33.84375,47.0771635 C34.8275072,47.0771635 35.625,47.8775621 35.625,48.8649038 C35.625,49.8522456 34.8275072,50.6526442 33.84375,50.6526442 C26.6295305,50.6526442 20.78125,56.5222342 20.78125,63.7627404 C20.78125,71.0032466 26.6295305,76.8728365 33.84375,76.8728365 C41.0579695,76.8728365 46.90625,71.0032466 46.90625,63.7627404 C46.90625,62.7753986 47.7037428,61.975 48.6875,61.975 C49.6712572,61.975 50.46875,62.7753986 50.46875,63.7627404 C50.46875,72.9779301 43.025484,80.4483173 33.84375,80.4483173 C24.662016,80.4483173 17.21875,72.9779301 17.21875,63.7627404 C17.21875,54.5475507 24.662016,47.0771635 33.84375,47.0771635 Z" id="Path" fill="#A8B6C6" fill-rule="nonzero"></path>
                <g id="213186" fill-rule="nonzero" fill="#112E51">
                    <use xlink:href="#path-3"></use>
                    <use xlink:href="#path-3"></use>
                </g>
                <g id="35" fill-rule="nonzero" fill="#112E51">
                    <use xlink:href="#path-4"></use>
                    <use xlink:href="#path-4"></use>
                </g>
                <path d="M59.3756015,12.4968977 C60.1741341,12.6226612 60.9660654,12.768392 61.7508722,12.9335651 L61.75,95.3461538 C61.75,99.2149215 58.6889031,102.366127 54.8649684,102.493136 L54.625,102.497115 L31.2255981,102.498124 C29.7462385,101.776918 28.3097799,100.980915 26.9211036,100.115013 L54.625,100.113462 C57.1754817,100.113462 59.2564697,98.0959958 59.3701121,95.5643741 L59.375,95.3461538 Z M7.12345759,43.7929344 L7.12344659,75.3897265 C5.960264,72.0648331 5.15390872,68.5714002 4.75049362,64.9557086 L4.75039481,54.2278693 C5.15377832,50.6118512 5.96017411,47.1181087 7.12345759,43.7929344 Z M7.12333092,31.9495524 L7.12203763,32.2107757 C6.26412335,33.6349858 5.47256029,35.103967 4.75164797,36.6134039 L4.75084948,36.5206296 C5.46850344,34.9538039 6.26085674,33.4285798 7.12333092,31.9495524 Z M52.25,5.95913462 C54.5979949,5.95913462 56.9098166,6.11457482 59.1758067,6.41576157 C59.7114822,6.8625253 60.1808697,7.38656764 60.5669864,7.97084224 C59.0720912,7.70223686 57.555566,7.49693225 56.0196865,7.35909531 C55.644857,7.24439288 55.2503411,7.17431178 54.842428,7.15586721 L54.625,7.15096154 L41.1278881,7.1497089 C44.7120163,6.36987203 48.4332159,5.95913462 52.25,5.95913462 Z" id="Combined-Shape" fill="#A8B6C6" fill-rule="nonzero"></path>
                <ellipse id="Oval" fill="#A8B6C6" cx="47.796875" cy="58.1015625" rx="2.078125" ry="2.08569712"></ellipse>
                <path d="M54.625,4.76730769 C58.5600288,4.76730769 61.75,7.96890223 61.75,11.9182692 L61.75,11.9182692 L61.75,58.3995192 L59.374,58.3993077 L59.375,11.9182692 C59.375,9.35849432 57.3648587,7.26992377 54.842428,7.15586721 L54.625,7.15096154 L11.875,7.15096154 C9.25164744,7.15096154 7.125,9.28535789 7.125,11.9182692 L7.125,11.9182692 L7.124,58.3993077 L4.75,58.3995192 L4.75,11.9182692 C4.75,7.96890223 7.93997116,4.76730769 11.875,4.76730769 L11.875,4.76730769 Z" id="Combined-Shape" fill="#A8B6C6" fill-rule="nonzero"></path>
                <ellipse id="Oval" fill="#A6D5AF" cx="27.90625" cy="103.093029" rx="6.53125" ry="6.55504808"></ellipse>
                <ellipse id="Oval" fill="#FCF197" cx="61.15625" cy="6.55504808" rx="6.53125" ry="6.55504808"></ellipse>
            </g>
        </g>
    </g>
</svg>