<?xml version="1.0" encoding="UTF-8"?>
<svg width="665px" height="339px" viewBox="0 0 665 339" version="1.1" xmlns="http://www.w3.org/2000/svg" xmlns:xlink="http://www.w3.org/1999/xlink">
    <title>Group 11</title>
    <defs>
        <linearGradient x1="50%" y1="0%" x2="50%" y2="100%" id="linearGradient-1">
            <stop stop-color="#0071BB" offset="0%"></stop>
            <stop stop-color="#205493" offset="100%"></stop>
        </linearGradient>
        <linearGradient x1="-39.2376078%" y1="43.9419604%" x2="97.8145205%" y2="56.9399803%" id="linearGradient-2">
            <stop stop-color="#E9F0F7" offset="0%"></stop>
            <stop stop-color="#E9F0F7" offset="1.63482198%"></stop>
            <stop stop-color="#E8EFF7" offset="6.99094577%"></stop>
            <stop stop-color="#205493" offset="100%"></stop>
        </linearGradient>
        <linearGradient x1="-39.2376078%" y1="34.9105501%" x2="97.8145205%" y2="67.2862002%" id="linearGradient-3">
            <stop stop-color="#E9F0F7" offset="0%"></stop>
            <stop stop-color="#E9F0F7" offset="1.63482198%"></stop>
            <stop stop-color="#E8EFF7" offset="6.99094577%"></stop>
            <stop stop-color="#205493" offset="100%"></stop>
        </linearGradient>
    </defs>
    <g id="hi-fi-[for-screenshots]" stroke="none" stroke-width="1" fill="none" fill-rule="evenodd">
        <g id="create-page-desktop-1440-v1" transform="translate(-775.000000, -219.000000)">
            <g id="Group-11" transform="translate(777.000000, 221.000000)">
                <line x1="283" y1="131" x2="663" y2="131" id="Path-3" stroke="#E21C3D" stroke-width="4"></line>
                <circle id="Oval" stroke="#E21C3D" stroke-width="4" fill="#112E51" transform="translate(272.000000, 132.000000) rotate(-90.000000) translate(-272.000000, -132.000000) " cx="272" cy="132" r="11"></circle>
                <line x1="486" y1="91" x2="663" y2="91" id="Path-3" stroke="#E21C3D" stroke-width="4"></line>
                <circle id="Oval" stroke="#E21C3D" stroke-width="4" fill="#112E51" transform="translate(480.000000, 92.000000) rotate(-90.000000) translate(-480.000000, -92.000000) " cx="480" cy="92" r="11"></circle>
                <line x1="147" y1="51" x2="663" y2="51" id="Path-3" stroke="#E21C3D" stroke-width="4"></line>
                <line x1="331" y1="11" x2="663" y2="11" id="Path-3" stroke="#E21C3D" stroke-width="4"></line>
                <circle id="Oval" stroke="#E21C3D" stroke-width="4" fill="#112E51" transform="translate(136.000000, 51.000000) rotate(-90.000000) translate(-136.000000, -51.000000) " cx="136" cy="51" r="11"></circle>
                <line x1="413" y1="291" x2="663" y2="291" id="Path-3" stroke="#E21C3D" stroke-width="4"></line>
                <line x1="331" y1="211" x2="663" y2="211" id="Path-3" stroke="#E21C3D" stroke-width="4"></line>
                <circle id="Oval" stroke="#E21C3D" stroke-width="4" fill="#112E51" transform="translate(413.000000, 291.000000) rotate(-90.000000) translate(-413.000000, -291.000000) " cx="413" cy="291" r="11"></circle>
                <circle id="Oval" stroke="#E21C3D" stroke-width="4" fill="#112E51" transform="translate(331.000000, 11.000000) rotate(-90.000000) translate(-331.000000, -11.000000) " cx="331" cy="11" r="11"></circle>
                <line x1="217" y1="171" x2="663" y2="171" id="Path-3" stroke="#E21C3D" stroke-width="4"></line>
                <circle id="Oval" stroke="#E21C3D" stroke-width="4" fill="#112E51" transform="translate(331.000000, 211.000000) rotate(-90.000000) translate(-331.000000, -211.000000) " cx="331" cy="211" r="11"></circle>
                <line x1="22" y1="251" x2="663" y2="251" id="Path-3" stroke="#E21C3D" stroke-width="4"></line>
                <circle id="Oval" stroke="#E21C3D" stroke-width="4" fill="#112E51" transform="translate(11.000000, 251.000000) rotate(-90.000000) translate(-11.000000, -251.000000) " cx="11" cy="251" r="11"></circle>
                <line x1="22" y1="251" x2="663" y2="251" id="Path-3" stroke="#E21C3D" stroke-width="4"></line>
                <circle id="Oval" stroke="#E21C3D" stroke-width="4" fill="#112E51" transform="translate(11.000000, 251.000000) rotate(-90.000000) translate(-11.000000, -251.000000) " cx="11" cy="251" r="11"></circle>
                <path d="M73,107 L205,107 C208.865993,107 212,110.134007 212,114 L212,337 L212,337 L66,337 L66,114 C66,110.134007 69.1340068,107 73,107 Z" id="mobile-clear-bg" fill-opacity="0.05" fill="#FFFFFF"></path>
                <path d="M70,111 L202,111 C204.209139,111 206,112.790861 206,115 L206,337 L206,337 L66,337 L66,115 C66,112.790861 67.790861,111 70,111 Z" id="mobile-overlay-bg" fill="#112E51"></path>
                <path d="M70,111 L202,111 C204.209139,111 206,112.790861 206,115 L206,125 L206,125 L66,125 L66,115 C66,112.790861 67.790861,111 70,111 Z" id="mobile-bar-top" fill="#0071BB"></path>
                <path d="M66,337 L66,115.072072 C66,112.823129 67.790861,111 70,111 L202,111 C204.209139,111 206,112.823129 206,115.072072 L206,337 L206,337" id="Path" stroke="url(#linearGradient-1)" stroke-width="1.5"></path>
                <circle id="mobile-camera" fill="#205493" cx="136" cy="118" r="3"></circle>
                <rect id="mobile-audio" fill="#205493" x="78" y="117" width="20" height="2" rx="1"></rect>
                <rect id="mobile-audio" fill="#205493" x="174" y="117" width="20" height="2" rx="1"></rect>
                <g id="Group" transform="translate(121.000000, 152.000000)" fill-rule="nonzero">
                    <g id="login-gov-logo-mark">
                        <path d="M25.6280048,0 L14.8918269,0 L14.8918269,37.467658 C25.078125,33.0072225 28.6388221,27.2264982 29.5402644,25.4244822 C29.7096023,25.079994 29.7959954,24.7013667 29.7927608,24.3182942 L29.7927608,4.12144238 C29.7927608,3.0283679 29.3538925,1.9800629 28.5728666,1.20714252 C27.7918407,0.434222147 26.7325422,0 25.6280048,0 Z" id="Path" fill="#B51E23"></path>
                        <path d="M4.16466346,0 C1.86458335,0 -9.25811557e-05,1.84523261 -9.25811557e-05,4.12144238 L-9.25811557e-05,24.3182942 C-0.00332716629,24.7013667 0.0830659331,25.079994 0.252403846,25.4244822 C1.15384615,27.2086564 4.75961538,33.0339851 14.8918269,37.467658 L14.8918269,0 L4.16466346,0 Z" id="Path" fill="#E21D3E"></path>
                        <path d="M17.5330529,16.1467764 C18.9490982,15.0442295 19.5034529,13.1746904 18.9139545,11.4897401 C18.3244561,9.80478983 16.7206537,8.67471494 14.9188702,8.67471494 C13.1170867,8.67471494 11.5132843,9.80478983 10.9237859,11.4897401 C10.3342875,13.1746904 10.8886422,15.0442295 12.3046875,16.1467764 C11.8359375,18.7695125 11.3731971,21.3922485 10.9164663,24.0149846 C12.2295407,24.2388372 13.5594128,24.3522401 14.8918269,24.3539777 C16.2432722,24.3806738 17.5945062,24.2911285 18.9302885,24.0863516 C18.4615385,21.4100903 18.0288462,18.7873542 17.5330529,16.1467764 Z" id="Path" fill="#FFFFFF"></path>
                    </g>
                </g>
                <g id="mobile-fields" transform="translate(78.000000, 215.000000)">
                    <rect id="mobile-field" stroke="url(#linearGradient-2)" fill-opacity="0.2" fill="#CEDCED" x="0" y="38" width="116" height="14" rx="3"></rect>
                    <g id="mobile-password" transform="translate(4.000000, 41.000000)" fill="#5C728D" fill-rule="nonzero">
                        <polygon id="*" points="2.38630807 8 4.0195599 5.19949812 5.64303178 7.94981179 7.17848411 6.84567127 5.20293399 4.41656211 8 3.58343789 7.47188264 1.8770389 4.70415648 3.1217064 4.96821516 0 3.1002445 0 3.31540342 3.11166876 0.606356968 1.89711418 0 3.60351317 2.87530562 4.42659975 0.850855746 6.90589711"></polygon>
                        <polygon id="*" points="14.3863081 8 16.0195599 5.19949812 17.6430318 7.94981179 19.1784841 6.84567127 17.202934 4.41656211 20 3.58343789 19.4718826 1.8770389 16.7041565 3.1217064 16.9682152 0 15.1002445 0 15.3154034 3.11166876 12.606357 1.89711418 12 3.60351317 14.8753056 4.42659975 12.8508557 6.90589711"></polygon>
                        <polygon id="*" points="26.3863081 8 28.0195599 5.19949812 29.6430318 7.94981179 31.1784841 6.84567127 29.202934 4.41656211 32 3.58343789 31.4718826 1.8770389 28.7041565 3.1217064 28.9682152 0 27.1002445 0 27.3154034 3.11166876 24.606357 1.89711418 24 3.60351317 26.8753056 4.42659975 24.8508557 6.90589711"></polygon>
                        <polygon id="*" points="26.3863081 8 28.0195599 5.19949812 29.6430318 7.94981179 31.1784841 6.84567127 29.202934 4.41656211 32 3.58343789 31.4718826 1.8770389 28.7041565 3.1217064 28.9682152 0 27.1002445 0 27.3154034 3.11166876 24.606357 1.89711418 24 3.60351317 26.8753056 4.42659975 24.8508557 6.90589711"></polygon>
                        <polygon id="*" points="38.3863081 8 40.0195599 5.19949812 41.6430318 7.94981179 43.1784841 6.84567127 41.202934 4.41656211 44 3.58343789 43.4718826 1.8770389 40.7041565 3.1217064 40.9682152 0 39.1002445 0 39.3154034 3.11166876 36.606357 1.89711418 36 3.60351317 38.8753056 4.42659975 36.8508557 6.90589711"></polygon>
                        <polygon id="*" points="50.3863081 8 52.0195599 5.19949812 53.6430318 7.94981179 55.1784841 6.84567127 53.202934 4.41656211 56 3.58343789 55.4718826 1.8770389 52.7041565 3.1217064 52.9682152 0 51.1002445 0 51.3154034 3.11166876 48.606357 1.89711418 48 3.60351317 50.8753056 4.42659975 48.8508557 6.90589711"></polygon>
                    </g>
                    <rect id="mobile-show-password" stroke="url(#linearGradient-3)" fill-opacity="0.1" fill="#CEDCED" x="74" y="26" width="42" height="8" rx="2"></rect>
                    <rect id="mobile-field" stroke="url(#linearGradient-2)" fill-opacity="0.2" fill="#CEDCED" x="0" y="0" width="116" height="14" rx="3"></rect>
                    <rect id="mobile-text" fill-opacity="0.2" fill="#CEDCED" x="4" y="4" width="73" height="6" rx="2"></rect>
                </g>
                <rect id="Rectangle" fill="#0071BB" x="78" y="291" width="116" height="20" rx="3"></rect>
                <circle id="Oval" stroke="#E21C3D" stroke-width="4" fill="#112E51" transform="translate(206.000000, 171.000000) rotate(-90.000000) translate(-206.000000, -171.000000) " cx="206" cy="171" r="11"></circle>
            </g>
        </g>
    </g>
</svg>