<svg width="665" height="339" xmlns="http://www.w3.org/2000/svg"><defs><linearGradient x1="50%" y1="0%" x2="50%" y2="100%" id="a"><stop stop-color="#0071BB" offset="0%"/><stop stop-color="#205493" offset="100%"/></linearGradient><linearGradient x1="-39.238%" y1="43.942%" x2="97.815%" y2="56.94%" id="b"><stop stop-color="#E9F0F7" offset="0%"/><stop stop-color="#E9F0F7" offset="1.635%"/><stop stop-color="#E8EFF7" offset="6.991%"/><stop stop-color="#205493" offset="100%"/></linearGradient><linearGradient x1="-39.238%" y1="34.911%" x2="97.815%" y2="67.286%" id="c"><stop stop-color="#E9F0F7" offset="0%"/><stop stop-color="#E9F0F7" offset="1.635%"/><stop stop-color="#E8EFF7" offset="6.991%"/><stop stop-color="#205493" offset="100%"/></linearGradient></defs><g transform="translate(2 2)" fill="none" fill-rule="evenodd"><path stroke="#E21C3D" stroke-width="4" d="M283 131h380"/><circle stroke="#E21C3D" stroke-width="4" fill="#112E51" transform="rotate(-90 272 132)" cx="272" cy="132" r="11"/><path stroke="#E21C3D" stroke-width="4" d="M486 91h177"/><circle stroke="#E21C3D" stroke-width="4" fill="#112E51" transform="rotate(-90 480 92)" cx="480" cy="92" r="11"/><path stroke="#E21C3D" stroke-width="4" d="M147 51h516M331 11h332"/><circle stroke="#E21C3D" stroke-width="4" fill="#112E51" transform="rotate(-90 136 51)" cx="136" cy="51" r="11"/><path stroke="#E21C3D" stroke-width="4" d="M413 291h250m-332-80h332"/><circle stroke="#E21C3D" stroke-width="4" fill="#112E51" transform="rotate(-90 413 291)" cx="413" cy="291" r="11"/><circle stroke="#E21C3D" stroke-width="4" fill="#112E51" transform="rotate(-90 331 11)" cx="331" cy="11" r="11"/><path stroke="#E21C3D" stroke-width="4" d="M217 171h446"/><circle stroke="#E21C3D" stroke-width="4" fill="#112E51" transform="rotate(-90 331 211)" cx="331" cy="211" r="11"/><path stroke="#E21C3D" stroke-width="4" d="M22 251h641"/><circle stroke="#E21C3D" stroke-width="4" fill="#112E51" transform="rotate(-90 11 251)" cx="11" cy="251" r="11"/><path stroke="#E21C3D" stroke-width="4" d="M22 251h641"/><circle stroke="#E21C3D" stroke-width="4" fill="#112E51" transform="rotate(-90 11 251)" cx="11" cy="251" r="11"/><path d="M73 107h132a7 7 0 017 7v223H66V114a7 7 0 017-7z" fill-opacity=".05" fill="#FFF"/><path d="M70 111h132a4 4 0 014 4v222H66V115a4 4 0 014-4z" fill="#112E51"/><path d="M70 111h132a4 4 0 014 4v10H66v-10a4 4 0 014-4z" fill="#0071BB"/><path d="M66 337V115.072c0-2.249 1.79-4.072 4-4.072h132c2.21 0 4 1.823 4 4.072V337h0" stroke="url(#a)" stroke-width="1.5"/><circle fill="#205493" cx="136" cy="118" r="3"/><rect fill="#205493" x="78" y="117" width="20" height="2" rx="1"/><rect fill="#205493" x="174" y="117" width="20" height="2" rx="1"/><g fill-rule="nonzero"><path d="M146.628 152h-10.736v37.468c10.186-4.46 13.747-10.242 14.648-12.044a2.46 2.46 0 00.253-1.106v-20.197a4.1 4.1 0 00-1.22-2.914 4.187 4.187 0 00-2.945-1.207z" fill="#B51E23"/><path d="M125.165 152c-2.3 0-4.165 1.845-4.165 4.121v20.197a2.46 2.46 0 00.252 1.106c.902 1.785 4.508 7.61 14.64 12.044V152h-10.727z" fill="#E21D3E"/><path d="M138.533 168.147a4.158 4.158 0 001.381-4.657 4.225 4.225 0 00-3.995-2.815 4.225 4.225 0 00-3.995 2.815 4.158 4.158 0 001.38 4.657c-.468 2.623-.93 5.245-1.388 7.868a23.84 23.84 0 003.976.339 23.579 23.579 0 004.038-.268c-.468-2.676-.901-5.299-1.397-7.94z" fill="#FFF"/></g><g transform="translate(78 215)"><rect stroke="url(#b)" fill-opacity=".2" fill="#CEDCED" y="38" width="116" height="14" rx="3"/><g fill="#5C728D" fill-rule="nonzero"><path d="M6.386 49l1.634-2.8 1.623 2.75 1.535-1.104-1.975-2.43L12 44.584l-.528-1.706-2.768 1.245L8.968 41H7.1l.215 3.112-2.709-1.215L4 44.604l2.875.823-2.024 2.479zm12 0l1.634-2.8 1.623 2.75 1.535-1.104-1.975-2.43L24 44.584l-.528-1.706-2.768 1.245.264-3.122H19.1l.215 3.112-2.709-1.215L16 44.604l2.875.823-2.024 2.479zm12 0l1.634-2.8 1.623 2.75 1.535-1.104-1.975-2.43L36 44.584l-.528-1.706-2.768 1.245.264-3.122H31.1l.215 3.112-2.709-1.215L28 44.604l2.875.823-2.024 2.479z"/><path d="M30.386 49l1.634-2.8 1.623 2.75 1.535-1.104-1.975-2.43L36 44.584l-.528-1.706-2.768 1.245.264-3.122H31.1l.215 3.112-2.709-1.215L28 44.604l2.875.823-2.024 2.479zm12 0l1.634-2.8 1.623 2.75 1.535-1.104-1.975-2.43L48 44.584l-.528-1.706-2.768 1.245.264-3.122H43.1l.215 3.112-2.709-1.215L40 44.604l2.875.823-2.024 2.479zm12 0l1.634-2.8 1.623 2.75 1.535-1.104-1.975-2.43L60 44.584l-.528-1.706-2.768 1.245.264-3.122H55.1l.215 3.112-2.709-1.215L52 44.604l2.875.823-2.024 2.479z"/></g><rect stroke="url(#c)" fill-opacity=".1" fill="#CEDCED" x="74" y="26" width="42" height="8" rx="2"/><rect stroke="url(#b)" fill-opacity=".2" fill="#CEDCED" width="116" height="14" rx="3"/><rect fill-opacity=".2" fill="#CEDCED" x="4" y="4" width="73" height="6" rx="2"/></g><rect fill="#0071BB" x="78" y="291" width="116" height="20" rx="3"/><circle stroke="#E21C3D" stroke-width="4" fill="#112E51" transform="rotate(-90 206 171)" cx="206" cy="171" r="11"/></g></svg>