<svg width="111" height="100" viewBox="0 0 111 100" fill="none" xmlns="http://www.w3.org/2000/svg"><g clip-path="url(#a)"><path d="M104.549 50c0 26.819-21.736 48.56-48.55 48.56-26.81 0-48.55-21.741-48.55-48.56C7.45 23.181 29.185 1.44 56 1.44c26.812 0 48.55 21.741 48.55 48.56Z" fill="#fff"/><path fill-rule="evenodd" clip-rule="evenodd" d="M6 50C6 22.396 28.375 0 56 0s50 22.396 50 50h-2.9c0-26.035-21.099-47.12-47.1-47.12S8.9 23.967 8.9 50H6Z" fill="#A8B6C6"/><path fill-rule="evenodd" clip-rule="evenodd" d="M96.826 50H14.068v23.487a48.024 48.024 0 0 0 6.987 9.617c.087.003.174.006.26.006h68.262a7.27 7.27 0 0 0 1.507-.158 48.07 48.07 0 0 0 5.74-7.567V50h.002Z" fill="#fff"/><path d="M14.07 18.619a7.246 7.246 0 0 1 7.246-7.247h69.367a7.246 7.246 0 0 1 7.246 7.247v9.308h-83.86V18.62Z" fill="#112E51"/><path d="M21.244 21.304a1.655 1.655 0 1 0 0-3.31 1.655 1.655 0 0 0 0 3.31Zm5.515 0a1.655 1.655 0 1 0 0-3.31 1.655 1.655 0 0 0 0 3.31Zm5.518 0a1.655 1.655 0 1 0 0-3.31 1.655 1.655 0 0 0 0 3.31Z" fill="#fff"/><path fill-rule="evenodd" clip-rule="evenodd" d="M61.55 19.65c0-1.194.973-2.16 2.173-2.16h28.69c1.202 0 2.174.966 2.174 2.16a2.166 2.166 0 0 1-2.174 2.159H63.725a2.167 2.167 0 0 1-2.176-2.16Z" fill="#fff"/><path fill-rule="evenodd" clip-rule="evenodd" d="M21.316 9.923a8.696 8.696 0 0 0-8.696 8.696v52.017a47.786 47.786 0 0 0 2.899 5.305V18.616a5.797 5.797 0 0 1 5.797-5.797h69.367a5.797 5.797 0 0 1 5.797 5.797v57.326a47.824 47.824 0 0 0 2.898-5.303V18.62a8.696 8.696 0 0 0-8.695-8.696H21.316ZM89.525 84.56a48.265 48.265 0 0 0 2.962-3.185 5.8 5.8 0 0 1-1.804.285H21.316a5.775 5.775 0 0 1-1.802-.285 48.809 48.809 0 0 0 2.961 3.184l67.05.001Z" fill="#112E51"/><path fill-rule="evenodd" clip-rule="evenodd" d="M56 100C28.375 100 6 77.604 6 50h2.9c0 26.035 21.099 47.12 47.1 47.12S103.1 76.033 103.1 50h2.9c0 27.604-22.375 50-50 50Z" fill="#A8B6C6"/><path d="M64.278 36.757H54.8V70.49c8.993-4.015 12.136-9.22 12.932-10.844.15-.31.226-.652.223-.995V40.467a3.73 3.73 0 0 0-1.077-2.623 3.66 3.66 0 0 0-2.6-1.087Z" fill="#B51E23"/><path d="M45.333 36.757c-2.032 0-3.676 1.66-3.676 3.71v18.185a2.25 2.25 0 0 0 .221.996c.797 1.608 3.98 6.852 12.923 10.843V36.757h-9.468Z" fill="#E21D3E"/><path d="M57.133 51.294a3.79 3.79 0 0 0-.137-6.026 3.736 3.736 0 0 0-2.17-.703 3.735 3.735 0 0 0-3.528 2.536 3.789 3.789 0 0 0 1.22 4.193 1731 1731 0 0 0-1.225 7.084c1.16.202 2.333.305 3.508.305a20.394 20.394 0 0 0 3.566-.241c-.415-2.41-.797-4.771-1.234-7.148Z" fill="#fff"/></g><defs><clipPath id="a"><path fill="#fff" transform="translate(6)" d="M0 0h100v100H0z"/></clipPath></defs></svg>