<svg width="74" height="72" viewBox="0 0 74 72" fill="none" xmlns="http://www.w3.org/2000/svg"><g clip-path="url(#a)"><path d="M37 68.467c18.49 0 33.478-15.103 33.478-33.734C70.478 16.103 55.49 1 37 1 18.51 1 3.522 16.103 3.522 34.733c0 18.63 14.989 33.734 33.478 33.734Z" fill="#EBF3FA"/><path d="M70.478 34.733C70.478 16.103 55.49 1 37 1 18.51 1 3.522 16.103 3.522 34.733" stroke="#A8B6C6" stroke-width="2"/><path d="M8.087 34.733h57.065v18a5 5 0 0 1-5 5H13.087a5 5 0 0 1-5-5v-18Z" fill="#fff"/><path d="M60.913 7.9H13.087a5 5 0 0 0-5 5v39.833a5 5 0 0 0 5 5h47.826a5 5 0 0 0 5-5V12.9a5 5 0 0 0-5-5Z" stroke="#112E51" stroke-width="2"/><path d="M8.087 12.9a5 5 0 0 1 5-5h47.826a5 5 0 0 1 5 5v6.5H8.087v-6.5Z" fill="#112E51"/><path d="M42.326 13.65H62.11" stroke="#fff" stroke-width="3" stroke-linecap="round"/><path d="M13.033 14.8c.63 0 1.141-.515 1.141-1.15 0-.635-.511-1.15-1.141-1.15s-1.142.515-1.142 1.15c0 .635.511 1.15 1.142 1.15Zm3.804 0c.63 0 1.141-.515 1.141-1.15 0-.635-.51-1.15-1.141-1.15-.63 0-1.141.515-1.141 1.15 0 .635.51 1.15 1.14 1.15Zm3.804 0c.63 0 1.142-.515 1.142-1.15 0-.635-.511-1.15-1.142-1.15-.63 0-1.141.515-1.141 1.15 0 .635.511 1.15 1.141 1.15Z" fill="#fff"/><path d="M2 34.733C2 54.211 17.67 70 37 70s35-15.79 35-35.267" stroke="#fff" stroke-width="4"/><path d="M3.522 34.733c0 18.63 14.989 33.734 33.478 33.734 18.49 0 33.478-15.103 33.478-33.734" stroke="#A8B6C6" stroke-width="2"/><path d="M37 51.77c-7.657 0-13.885-6.228-13.885-13.885S29.343 24 37 24s13.885 6.228 13.885 13.885S44.657 51.77 37 51.77Z" fill="#E21C3D"/><path d="M37 24v27.77c7.657 0 13.885-6.228 13.885-13.885S44.657 24 37 24Z" fill="#B51E23"/><path d="M44.775 35.94H29.224a1.944 1.944 0 1 0 0 3.889h15.551a1.944 1.944 0 1 0 0-3.888Z" fill="#fff"/><mask id="b" style="mask-type:alpha" maskUnits="userSpaceOnUse" x="29" y="28" width="16" height="16"><path d="M37 43.717a7.776 7.776 0 1 0 0-15.551 7.776 7.776 0 0 0 0 15.55Z" fill="#454545"/></mask><g mask="url(#b)"><path d="M44.776 28.166H29.224v7.775h15.552v-7.776Z" fill="#fff"/></g><mask id="c" style="mask-type:alpha" maskUnits="userSpaceOnUse" x="29" y="38" width="16" height="9"><path d="M33.112 46.438a3.888 3.888 0 1 0 0-7.775 3.888 3.888 0 0 0 0 7.775Z" fill="#454545"/><path d="M40.888 46.438a3.888 3.888 0 1 0 0-7.775 3.888 3.888 0 0 0 0 7.775Z" fill="#454545"/><path d="M44.776 38.663H29.224v3.887h15.552v-3.887Z" fill="#454545"/></mask><g mask="url(#c)"><path d="M44.776 40.606H29.224v5.832h15.552v-5.832Z" fill="#fff"/></g><path d="M34.279 42.162h-2.333a.778.778 0 0 0 0 1.555h2.333a.778.778 0 1 0 0-1.555Z" fill="#E21C3D"/><path d="M42.054 42.162h-2.332a.778.778 0 1 0 0 1.555h2.332a.778.778 0 1 0 0-1.555Z" fill="#8B0A21"/></g><defs><clipPath id="a"><path fill="#fff" d="M0 0h74v72H0z"/></clipPath></defs></svg>