<svg width="74" height="72" viewBox="0 0 74 72" fill="none" xmlns="http://www.w3.org/2000/svg">
<ellipse cx="37" cy="34.7333" rx="33.4783" ry="33.7333" fill="#EBF3FA"/>
<path d="M70.4782 34.7333C70.4782 16.1029 55.4895 1 37 1C18.5105 1 3.52173 16.1029 3.52173 34.7333" stroke="#A8B6C6" stroke-width="2"/>
<path d="M8.08691 34.7333H65.1521V52.7333C65.1521 55.4948 62.9136 57.7333 60.1521 57.7333H13.0869C10.3255 57.7333 8.08691 55.4948 8.08691 52.7333V34.7333Z" fill="white"/>
<rect x="8.08691" y="7.90002" width="57.8261" height="49.8333" rx="5" stroke="#112E51" stroke-width="2"/>
<path d="M8.08691 12.9C8.08691 10.1386 10.3255 7.90002 13.0869 7.90002H60.913C63.6744 7.90002 65.913 10.1386 65.913 12.9V19.4H8.08691V12.9Z" fill="#112E51"/>
<ellipse cx="13.0327" cy="13.65" rx="1.1413" ry="1.15" fill="white"/>
<ellipse cx="16.837" cy="13.65" rx="1.1413" ry="1.15" fill="white"/>
<ellipse cx="20.6413" cy="13.65" rx="1.1413" ry="1.15" fill="white"/>
<path d="M42.326 13.65H62.1087" stroke="white" stroke-width="3" stroke-linecap="round"/>
<path d="M2 34.7333C2 54.2106 17.67 70 37 70V70C56.33 70 72 54.2106 72 34.7333" stroke="white" stroke-width="4"/>
<path d="M3.52173 34.7333C3.52173 53.3637 18.5105 68.4667 37 68.4667V68.4667C55.4895 68.4667 70.4782 53.3637 70.4782 34.7333" stroke="#A8B6C6" stroke-width="2"/>
<path d="M42.7084 25.5333H36.1733V48.967C42.3737 46.1773 44.5411 42.5618 45.0898 41.4348C45.1929 41.2193 45.2454 40.9825 45.2434 40.7429V28.111C45.2434 27.4274 44.9763 26.7717 44.5009 26.2883C44.0255 25.8049 43.3807 25.5333 42.7084 25.5333Z" fill="#B51E23"/>
<path d="M29.6437 25.5333C28.2437 25.5333 27.1087 26.6874 27.1087 28.111V40.7429C27.1067 40.9825 27.1593 41.2193 27.2623 41.4348C27.811 42.5507 30.0059 46.1941 36.1733 48.967V25.5333H29.6437Z" fill="#E21D3E"/>
<path d="M37.781 35.6321C38.643 34.9425 38.9804 33.7733 38.6216 32.7194C38.2627 31.6656 37.2865 30.9588 36.1898 30.9588C35.093 30.9588 34.1168 31.6656 33.758 32.7194C33.3992 33.7733 33.7366 34.9425 34.5985 35.6321C34.3132 37.2725 34.0315 38.9128 33.7535 40.5532C34.5528 40.6932 35.3623 40.7641 36.1733 40.7652C36.9959 40.7819 37.8184 40.7259 38.6315 40.5978C38.3462 38.924 38.0828 37.2836 37.781 35.6321Z" fill="white"/>
</svg>
