<svg width="69" height="69" viewBox="0 0 69 69" fill="none" xmlns="http://www.w3.org/2000/svg"><path d="M67.999 34.5c0 18.505-14.998 33.507-33.5 33.507C16 68.007 1 53.005 1 34.5 1 15.995 15.998.993 34.5.993 53 .993 67.998 15.995 67.998 34.5h.001z" fill="#EBF3FA"/><path fill-rule="evenodd" clip-rule="evenodd" d="M0 34.5C0 15.453 15.439 0 34.5 0S69 15.453 69 34.5h-2.001c0-17.964-14.558-32.513-32.499-32.513-17.941 0-32.499 14.55-32.499 32.513H0z" fill="#A8B6C6"/><path fill-rule="evenodd" clip-rule="evenodd" d="M62.67 34.5H5.567v16.206a33.138 33.138 0 0 0 4.821 6.636c.06.002.12.004.18.004h47.1c.35 0 .698-.037 1.04-.109a33.163 33.163 0 0 0 3.96-5.221V34.5h.002z" fill="#fff"/><path d="M5.568 12.847a5 5 0 0 1 5-5h47.863a5 5 0 0 1 5 5v6.423H5.568v-6.423z" fill="#112E51"/><path d="M10.518 14.7a1.142 1.142 0 1 0 0-2.284 1.142 1.142 0 0 0 0 2.284zm3.806 0a1.142 1.142 0 1 0 0-2.284 1.142 1.142 0 0 0 0 2.284zm3.807 0a1.142 1.142 0 1 0 0-2.284 1.142 1.142 0 0 0 0 2.284z" fill="#fff"/><path fill-rule="evenodd" clip-rule="evenodd" d="M38.329 13.558c0-.823.672-1.49 1.5-1.49h19.796c.829 0 1.5.667 1.5 1.49s-.671 1.49-1.5 1.49H39.83a1.494 1.494 0 0 1-1.501-1.49z" fill="#fff"/><path fill-rule="evenodd" clip-rule="evenodd" d="M10.568 6.847a6 6 0 0 0-6 6v35.892a32.975 32.975 0 0 0 2 3.66V12.845a4 4 0 0 1 4-4h47.863a4 4 0 0 1 4 4V52.4a32.981 32.981 0 0 0 2-3.659V12.847a6 6 0 0 0-6-6H10.568zm47.064 51.499a33.304 33.304 0 0 0 2.044-2.198c-.392.128-.81.197-1.245.197H10.568a3.99 3.99 0 0 1-1.243-.197c.648.762 1.33 1.496 2.043 2.197h46.264v.001z" fill="#112E51"/><path fill-rule="evenodd" clip-rule="evenodd" d="M34.5 69C15.439 69 0 53.547 0 34.5h2.001c0 17.964 14.558 32.513 32.499 32.513 17.941 0 32.499-14.55 32.499-32.513H69C69 53.547 53.561 69 34.5 69z" fill="#A8B6C6"/><path d="M40.212 25.362h-6.54v23.276c6.205-2.77 8.374-6.362 8.923-7.482.103-.214.156-.45.154-.687V27.922c0-.679-.268-1.33-.743-1.81a2.526 2.526 0 0 0-1.794-.75z" fill="#B51E23"/><path d="M27.14 25.362c-1.402 0-2.537 1.146-2.537 2.56V40.47c-.002.238.05.473.153.687.55 1.11 2.746 4.728 8.917 7.482V25.362h-6.534.001z" fill="#E21D3E"/><path d="M35.282 35.393a2.614 2.614 0 0 0-.095-4.158 2.578 2.578 0 0 0-1.497-.485 2.577 2.577 0 0 0-2.434 1.75 2.614 2.614 0 0 0 .841 2.893c-.285 1.63-.567 3.258-.845 4.888.8.139 1.61.21 2.421.21.823.017 1.646-.039 2.46-.166-.286-1.663-.55-3.292-.851-4.932z" fill="#fff"/></svg>