<svg width="74" height="71" viewBox="0 0 74 71" fill="none" xmlns="http://www.w3.org/2000/svg">
<ellipse cx="37" cy="34.2444" rx="33.4783" ry="33.2444" fill="#EBF3FA"/>
<path d="M70.4782 34.2444C70.4782 15.884 55.4895 1 37 1C18.5105 1 3.52173 15.884 3.52173 34.2444" stroke="#A8B6C6" stroke-width="2"/>
<path d="M8.08698 25.2832H65.1522V51.9111C65.1522 54.6725 62.9136 56.9111 60.1522 56.9111H13.087C10.3256 56.9111 8.08698 54.6725 8.08698 51.9111V25.2832Z" fill="white"/>
<rect x="8.08698" y="7.79999" width="57.8261" height="49.1111" rx="5" stroke="#112E51" stroke-width="2"/>
<path d="M8.88239 13.5907C8.88239 10.8293 11.121 8.5907 13.8824 8.5907H60.1176C62.879 8.5907 65.1176 10.8293 65.1176 13.5907V19.924H8.88239V13.5907Z" fill="#EBF3FA"/>
<path d="M2 34.2444C2 53.4394 17.67 69 37 69V69C56.33 69 72 53.4394 72 34.2444" stroke="white" stroke-width="4"/>
<path d="M3.52173 34.2444C3.52173 52.6048 18.5105 67.4889 37 67.4889V67.4889C55.4895 67.4889 70.4782 52.6048 70.4782 34.2444" stroke="#A8B6C6" stroke-width="2"/>
<rect width="19.0909" height="3.16279" rx="1" transform="matrix(1 0 0 -1 27.4545 44.4884)" fill="#A8B6C6"/>
<rect width="15.9091" height="3.16279" rx="1" transform="matrix(1 0 0 -1 29.0455 49.2325)" fill="#A8B6C6"/>
<ellipse cx="37" cy="25.5117" rx="11.9318" ry="11.8605" stroke="#112E51" stroke-dasharray="1"/>
<ellipse cx="37" cy="25.5116" rx="10.3409" ry="10.2791" fill="#112E51"/>
<path d="M36.2319 18.8629L34.4843 22.3385L30.5742 22.8976C29.873 22.9974 29.592 23.8452 30.1005 24.3309L32.9293 27.0347L32.2603 30.8541C32.1398 31.5445 32.8812 32.0616 33.5021 31.7387L37 29.9353L40.4979 31.7387C41.1188 32.059 41.8601 31.5445 41.7397 30.8541L41.0706 27.0347L43.8995 24.3309C44.4079 23.8452 44.1269 22.9974 43.4257 22.8976L39.5157 22.3385L37.7681 18.8629C37.4549 18.2434 36.5477 18.2355 36.2319 18.8629Z" fill="white"/>
</svg>
