<svg width="69" height="69" fill="none" xmlns="http://www.w3.org/2000/svg"><path d="M67.838 34.5c0 18.412-14.926 33.337-33.338 33.337S1.162 52.912 1.162 34.5c0-18.412 14.926-33.337 33.338-33.337S67.838 16.088 67.838 34.5z" fill="#EBF3FA"/><path fill-rule="evenodd" clip-rule="evenodd" d="M0 34.5C0 15.445 15.447 0 34.5 0S69 15.445 69 34.5h-2.324c0-17.768-14.404-32.174-32.176-32.174-17.772 0-32.176 14.406-32.176 32.174H0z" fill="#A8B6C6"/><path d="M5.708 25.514h56.826v25.902c0 3.21-2.6 5.814-5.809 5.814H11.517a5.812 5.812 0 01-5.81-5.814V25.514z" fill="#fff"/><path d="M6.908 13.665a4.65 4.65 0 014.647-4.652h45.89a4.65 4.65 0 014.647 4.652v6.713H6.908v-6.713z" fill="#EBF3FA"/><path fill-rule="evenodd" clip-rule="evenodd" d="M11.517 6.818a6.974 6.974 0 00-6.971 6.978v33.41a32.432 32.432 0 002.331 4.481 4.726 4.726 0 01-.008-.272V13.796a4.65 4.65 0 014.648-4.652h45.966a4.65 4.65 0 014.647 4.652v37.619c0 .092-.003.183-.008.273a32.437 32.437 0 002.332-4.48V13.796a6.974 6.974 0 00-6.971-6.978H11.517zm45.057 51.574a32.722 32.722 0 002.534-2.618 4.633 4.633 0 01-1.625.292H11.517a4.632 4.632 0 01-1.624-.291 32.433 32.433 0 002.534 2.617h44.147z" fill="#112E51"/><path d="M24.994 43.61c0 .642.52 1.163 1.162 1.163h16.688c.641 0 1.162-.52 1.162-1.163v-.846c0-.642-.52-1.163-1.162-1.163H26.156c-.641 0-1.162.521-1.162 1.163v.846zm1.585 4.757c0 .642.52 1.163 1.162 1.163H41.26c.641 0 1.162-.521 1.162-1.163v-.846c0-.642-.52-1.163-1.162-1.163H27.74c-.64 0-1.161.52-1.161 1.163v.846z" fill="#A8B6C6"/><path fill-rule="evenodd" clip-rule="evenodd" d="M33.889 13.283a12.653 12.653 0 011.222 0l-.056 1.162a11.485 11.485 0 00-1.11 0l-.056-1.162zm-2.418.356c.393-.098.794-.177 1.2-.237l.17 1.15c-.37.055-.732.127-1.088.216l-.282-1.129zm4.858-.237c.407.06.807.14 1.2.237l-.282 1.129a11.235 11.235 0 00-1.087-.216l.169-1.15zm-7.159 1.062c.367-.175.744-.331 1.13-.47l.392 1.095c-.35.126-.692.268-1.024.425l-.498-1.05zm9.53-.47c.386.139.763.296 1.13.47l-.497 1.05c-.333-.157-.675-.3-1.024-.425l.391-1.095zm-11.625 1.729c.327-.243.666-.47 1.017-.681l.598.997c-.318.19-.625.397-.922.617l-.693-.933zm13.834-.681c.35.21.69.438 1.016.68l-.693.934c-.296-.22-.604-.426-.922-.617l.599-.997zm-15.643 2.323c.274-.302.562-.59.865-.865l.78.861c-.274.25-.536.511-.785.786l-.86-.782zM42.87 16.5c.302.274.59.563.864.865l-.86.782c-.249-.275-.51-.537-.785-.786l.78-.861zm-19.06 2.829c.21-.351.437-.69.68-1.018l.932.694c-.22.296-.426.604-.617.922l-.996-.598zm20.7-1.018c.244.327.47.667.681 1.018l-.996.598c-.19-.318-.397-.626-.617-.922l.933-.694zM22.764 21.54c.138-.386.295-.764.468-1.131l1.05.498c-.157.333-.3.675-.424 1.025l-1.094-.392zm23.006-1.131c.174.367.33.745.468 1.131l-1.093.392c-.126-.35-.267-.692-.425-1.025l1.05-.498zm-23.6 3.504c.06-.407.139-.808.237-1.202l1.127.282c-.089.357-.16.72-.215 1.09l-1.15-.17zm24.421-1.202c.098.394.178.795.238 1.202l-1.15.17a11.17 11.17 0 00-.215-1.09l1.127-.282zm-24.555 3.032c0-.205.005-.409.015-.612l1.16.056a11.506 11.506 0 000 1.112l-1.16.056c-.01-.203-.015-.407-.015-.612zm24.911-.612a12.676 12.676 0 010 1.224l-1.16-.056a11.51 11.51 0 000-1.111l1.16-.057zm-24.54 3.644a12.458 12.458 0 01-.237-1.201l1.15-.17c.053.37.125.733.214 1.09l-1.127.281zm24.422-1.201a12.5 12.5 0 01-.238 1.201l-1.127-.282c.089-.356.161-.72.215-1.089l1.15.17zm-23.598 3.504a12.43 12.43 0 01-.47-1.13l1.095-.393c.125.35.267.692.425 1.026l-1.05.497zm23.005-1.13a12.43 12.43 0 01-.468 1.13l-1.05-.497c.157-.334.3-.676.425-1.026l1.093.392zM24.49 33.174a12.5 12.5 0 01-.68-1.017l.996-.599c.19.318.397.626.617.923l-.933.693zm20.702-1.017c-.21.35-.437.69-.68 1.017l-.933-.693c.22-.297.426-.605.617-.923l.996.599zm-19.06 2.829a12.619 12.619 0 01-.865-.866l.86-.781c.249.274.51.536.785.785l-.78.862zm17.603-.866c-.273.302-.562.591-.864.866l-.78-.862c.273-.249.535-.51.784-.785l.86.781zm-15.642 2.324c-.35-.21-.69-.438-1.017-.681l.693-.934c.297.22.604.427.922.618l-.598.997zm13.833-.681c-.327.243-.666.47-1.016.68l-.599-.996c.318-.191.626-.397.922-.618l.693.934zM30.3 37.492a12.386 12.386 0 01-1.13-.47l.497-1.05c.333.158.675.3 1.025.425l-.392 1.095zm9.53-.47a12.05 12.05 0 01-1.13.47l-.391-1.095c.35-.125.69-.267 1.024-.425l.497 1.05zm-7.158 1.063a12.42 12.42 0 01-1.2-.238l.28-1.128c.357.089.72.161 1.089.215l-.17 1.15zm4.857-.238c-.393.098-.794.178-1.2.238l-.17-1.15c.37-.055.732-.127 1.089-.216l.281 1.128zm-3.029.371c-.205 0-.409-.005-.611-.015l.056-1.161a11.486 11.486 0 001.11 0l.056 1.161c-.202.01-.406.015-.61.015z" fill="#112E51"/><path d="M44.798 25.743c0 5.693-4.61 10.308-10.298 10.308-5.687 0-10.298-4.615-10.298-10.308s4.61-10.308 10.298-10.308c5.687 0 10.298 4.615 10.298 10.308z" fill="#112E51"/><path d="M33.735 19.076l-1.74 3.486-3.894.56c-.698.1-.978.95-.472 1.438l2.817 2.71-.666 3.83c-.12.693.618 1.212 1.237.888L34.5 30.18l3.483 1.808c.618.321 1.357-.195 1.237-.887l-.666-3.83 2.816-2.712c.507-.486.227-1.337-.471-1.437l-3.894-.56-1.74-3.486c-.312-.62-1.215-.629-1.53 0z" fill="#fff"/><path fill-rule="evenodd" clip-rule="evenodd" d="M34.5 69C15.447 69 0 53.555 0 34.5h2.324c0 17.768 14.404 32.174 32.176 32.174 17.772 0 32.176-14.406 32.176-32.174H69C69 53.555 53.553 69 34.5 69z" fill="#A8B6C6"/></svg>