<svg xmlns="http://www.w3.org/2000/svg" width="69" height="69" fill="none"><path fill="#ebf3fa" d="M67.838 34.5c0 18.412-14.926 33.337-33.338 33.337S1.162 52.912 1.162 34.5 16.088 1.163 34.5 1.163 67.838 16.088 67.838 34.5"/><path fill="#a8b6c6" fill-rule="evenodd" d="M0 34.5C0 15.445 15.447 0 34.5 0S69 15.445 69 34.5h-2.324c0-17.768-14.404-32.174-32.176-32.174S2.324 16.732 2.324 34.5z" clip-rule="evenodd"/><path fill="#fff" d="M5.708 25.514h56.826v25.902c0 3.21-2.6 5.814-5.809 5.814H11.517a5.81 5.81 0 0 1-5.81-5.814z"/><path fill="#ebf3fa" d="M6.908 13.665a4.65 4.65 0 0 1 4.647-4.652h45.89a4.65 4.65 0 0 1 4.647 4.652v6.713H6.908z"/><path fill="#112e51" fill-rule="evenodd" d="M11.517 6.818a6.974 6.974 0 0 0-6.971 6.978v33.41a32.4 32.4 0 0 0 2.33 4.481 5 5 0 0 1-.007-.272V13.796a4.65 4.65 0 0 1 4.648-4.652h45.966a4.65 4.65 0 0 1 4.647 4.652v37.619q0 .138-.008.273a32.4 32.4 0 0 0 2.332-4.48V13.796a6.976 6.976 0 0 0-6.971-6.978zm45.057 51.574a33 33 0 0 0 2.534-2.618c-.52.194-1.07.293-1.625.292H11.517a4.6 4.6 0 0 1-1.624-.291 33 33 0 0 0 2.534 2.617z" clip-rule="evenodd"/><path fill="#a8b6c6" d="M24.994 43.61c0 .642.52 1.163 1.162 1.163h16.688c.64 0 1.162-.52 1.162-1.163v-.846c0-.642-.52-1.163-1.162-1.163H26.156c-.641 0-1.162.521-1.162 1.163zm1.585 4.757c0 .642.52 1.163 1.162 1.163H41.26c.64 0 1.162-.521 1.162-1.163v-.846c0-.642-.52-1.163-1.162-1.163H27.74c-.64 0-1.161.52-1.161 1.163z"/><path fill="#112e51" fill-rule="evenodd" d="M33.889 13.283q.611-.03 1.222 0l-.056 1.162q-.555-.027-1.11 0zm-2.418.356q.59-.147 1.2-.237l.17 1.15q-.554.082-1.088.216zm4.858-.237q.61.09 1.2.237l-.282 1.129a11 11 0 0 0-1.087-.216zm-7.16 1.062q.552-.262 1.13-.47l.393 1.095q-.526.19-1.024.425zm9.53-.47q.58.209 1.13.47l-.496 1.05q-.5-.236-1.024-.425zm-11.624 1.729q.49-.364 1.017-.681l.598.997q-.477.286-.922.617zm13.834-.681q.526.316 1.016.68l-.693.934q-.444-.33-.922-.617zm-15.643 2.323q.41-.453.865-.865l.78.861q-.411.374-.785.786zM42.87 16.5q.453.412.864.865l-.86.782q-.374-.412-.785-.786zm-19.06 2.829q.315-.526.68-1.018l.932.694q-.33.445-.617.922l-.996-.598zm20.7-1.018q.366.491.68 1.018l-.995.598q-.286-.477-.617-.922l.933-.694zM22.764 21.54q.208-.58.468-1.131l1.05.498q-.237.5-.424 1.025zm23.006-1.131q.261.551.468 1.131l-1.093.392q-.189-.525-.425-1.025zm-23.6 3.504q.09-.61.237-1.202l1.127.282q-.134.535-.215 1.09l-1.15-.17zm24.42-1.202q.149.591.239 1.202l-1.15.17a11 11 0 0 0-.215-1.09zm-24.554 3.032q0-.307.015-.612l1.16.056q-.027.556 0 1.112l-1.16.056q-.015-.305-.015-.612m24.91-.612q.03.612 0 1.224l-1.16-.056a12 12 0 0 0 0-1.111zm-24.54 3.644a13 13 0 0 1-.236-1.201l1.15-.17q.08.555.214 1.09zm24.423-1.201q-.09.607-.238 1.201l-1.127-.282q.133-.535.215-1.089zM23.23 31.078a12 12 0 0 1-.47-1.13l1.095-.393q.188.525.425 1.026zm23.005-1.13q-.206.576-.468 1.13l-1.05-.497q.236-.501.425-1.026l1.093.392zM24.49 33.174a13 13 0 0 1-.68-1.017l.996-.599q.286.477.617.923zm20.702-1.017q-.315.526-.68 1.017l-.933-.693q.33-.446.617-.923zm-19.06 2.829a12 12 0 0 1-.865-.866l.86-.781q.373.411.785.785zm17.603-.866q-.41.453-.864.866l-.78-.862q.41-.373.784-.785zm-15.642 2.324q-.526-.316-1.017-.681l.693-.934q.445.33.922.618zm13.833-.681q-.49.365-1.016.68l-.6-.996q.479-.287.923-.618zM30.3 37.492a12 12 0 0 1-1.13-.47l.497-1.05q.5.237 1.025.425zm9.53-.47a12 12 0 0 1-1.13.47l-.391-1.095q.524-.188 1.024-.425zm-7.158 1.063q-.606-.09-1.2-.238l.28-1.128q.535.134 1.089.215zm4.857-.238q-.59.147-1.2.238l-.17-1.15q.554-.082 1.089-.216l.28 1.128zm-3.03.371q-.306 0-.61-.015l.056-1.161q.555.027 1.11 0l.056 1.161q-.303.015-.61.015z" clip-rule="evenodd"/><path fill="#112e51" d="M44.798 25.743c0 5.693-4.61 10.308-10.298 10.308s-10.298-4.615-10.298-10.308 4.61-10.308 10.298-10.308 10.298 4.615 10.298 10.308"/><path fill="#fff" d="m33.735 19.076-1.74 3.486-3.894.56c-.698.1-.978.95-.472 1.438l2.817 2.71-.666 3.83c-.12.693.618 1.212 1.237.888L34.5 30.18l3.483 1.808c.618.321 1.357-.195 1.237-.887l-.666-3.83 2.816-2.712c.507-.486.227-1.337-.47-1.437l-3.895-.56-1.74-3.486c-.312-.62-1.215-.629-1.53 0"/><path fill="#a8b6c6" fill-rule="evenodd" d="M34.5 69C15.447 69 0 53.555 0 34.5h2.324c0 17.768 14.404 32.174 32.176 32.174S66.676 52.268 66.676 34.5H69C69 53.555 53.553 69 34.5 69" clip-rule="evenodd"/></svg>