<svg width="90" height="74" viewBox="0 0 90 74" fill="none" xmlns="http://www.w3.org/2000/svg">
<circle cx="48.5" cy="35.5" r="34.5" fill="#EBF3FA"/>
<path d="M83 35.5C83 16.4462 67.5538 1 48.5 1C29.4462 1 14 16.4462 14 35.5" stroke="#A8B6C6" stroke-width="2"/>
<path d="M7 12.1111H55.2222V39C55.2222 41.7614 52.9836 44 50.2222 44H12C9.23858 44 7 41.7614 7 39V12.1111Z" fill="white"/>
<rect x="7" y="2" width="49" height="42" rx="5" stroke="#112E51" stroke-width="2"/>
<path d="M7 7C7 4.23857 9.23858 2 12 2H51C53.7614 2 56 4.23858 56 7V12.1111H7V7Z" fill="#112E51"/>
<ellipse cx="10.9337" cy="6.66669" rx="0.82265" ry="0.777778" fill="white"/>
<ellipse cx="14.2244" cy="6.66669" rx="0.82265" ry="0.777778" fill="white"/>
<ellipse cx="17.5149" cy="6.66669" rx="0.82265" ry="0.777778" fill="white"/>
<path d="M36.4359 7.05558H52.8889" stroke="white" stroke-width="3" stroke-linecap="round"/>
<path d="M65.9216 47.4735V51.6051H66.8252C75.8081 51.6051 83.0901 58.8475 83.0901 67.7814V69.8035H37.9099V67.7814C37.9099 58.8475 45.1919 51.6051 54.1748 51.6051H55.0784V47.4735C51.1844 45.6338 48.3854 41.8738 47.9185 37.424C46.6026 37.239 45.5905 36.1144 45.5905 34.7547V31.6092C45.5905 30.2733 46.5675 29.1644 47.8496 28.9505V27.5652C47.8496 20.6165 53.5134 14.9835 60.5 14.9835C67.4867 14.9835 73.1505 20.6165 73.1505 27.5652V28.9505C74.4325 29.1644 75.4095 30.2733 75.4095 31.6092V34.7547C75.4095 36.1144 74.3974 37.239 73.0815 37.424C72.6146 41.8738 69.8156 45.6338 65.9216 47.4735Z" fill="#D0C6AC"/>
<mask id="mask0" mask-type="alpha" maskUnits="userSpaceOnUse" x="37" y="14" width="47" height="56">
<path fill-rule="evenodd" clip-rule="evenodd" d="M65.9216 47.4735V51.6051H66.8252C75.8081 51.6051 83.0901 58.8475 83.0901 67.7814V69.8035H37.9099V67.7814C37.9099 58.8475 45.1919 51.6051 54.1748 51.6051H55.0784V47.4735C51.1844 45.6338 48.3854 41.8738 47.9185 37.424C46.6026 37.239 45.5905 36.1144 45.5905 34.7547V31.6092C45.5905 30.2733 46.5675 29.1644 47.8496 28.9505V27.5652C47.8496 20.6165 53.5134 14.9835 60.5 14.9835C67.4867 14.9835 73.1505 20.6165 73.1505 27.5652V28.9505C74.4325 29.1644 75.4095 30.2733 75.4095 31.6092V34.7547C75.4095 36.1144 74.3974 37.239 73.0815 37.424C72.6146 41.8738 69.8156 45.6338 65.9216 47.4735Z" fill="white"/>
</mask>
<g mask="url(#mask0)">
<rect x="30.681" y="14.9835" width="59.6378" height="54.82" fill="#D08B5B"/>
</g>
<mask id="mask1" mask-type="alpha" maskUnits="userSpaceOnUse" x="37" y="14" width="47" height="56">
<path fill-rule="evenodd" clip-rule="evenodd" d="M65.9216 47.4735V51.6051H66.8252C75.8081 51.6051 83.0901 58.8475 83.0901 67.7814V69.8035H37.9099V67.7814C37.9099 58.8475 45.1919 51.6051 54.1748 51.6051H55.0784V47.4735C51.1844 45.6338 48.3854 41.8738 47.9185 37.424C46.6026 37.239 45.5905 36.1144 45.5905 34.7547V31.6092C45.5905 30.2733 46.5675 29.1644 47.8496 28.9505V27.5652C47.8496 20.6165 53.5134 14.9835 60.5 14.9835C67.4867 14.9835 73.1505 20.6165 73.1505 27.5652V28.9505C74.4325 29.1644 75.4095 30.2733 75.4095 31.6092V34.7547C75.4095 36.1144 74.3974 37.239 73.0815 37.424C72.6146 41.8738 69.8156 45.6338 65.9216 47.4735Z" fill="white"/>
</mask>
<g mask="url(#mask1)">
<path d="M73.1505 32.7326V37.9001C73.1505 44.8487 67.4867 50.4817 60.5001 50.4817C53.5134 50.4817 47.8496 44.8487 47.8496 37.9001V32.7326V36.1027C47.8496 43.0513 53.5134 48.6843 60.5001 48.6843C67.4867 48.6843 73.1505 43.0513 73.1505 36.1027V32.7326Z" fill="black" fill-opacity="0.1"/>
</g>
<path d="M68.1717 51.4667C76.5246 52.1485 83.0901 59.1168 83.0901 67.6126V69.626H37.9099V67.6126C37.9099 59.0399 44.5948 52.0225 53.0555 51.4497C53.0487 51.5338 53.0453 51.6184 53.0453 51.7035C53.0453 54.3728 56.4334 56.5367 60.613 56.5367C64.7925 56.5367 68.1806 54.3728 68.1806 51.7035C68.1806 51.6241 68.1776 51.5452 68.1717 51.4667Z" fill="#E6E6E6"/>
<mask id="mask2" mask-type="alpha" maskUnits="userSpaceOnUse" x="37" y="51" width="47" height="19">
<path fill-rule="evenodd" clip-rule="evenodd" d="M68.1717 51.4667C76.5246 52.1485 83.0901 59.1168 83.0901 67.6126V69.626H37.9099V67.6126C37.9099 59.0399 44.5948 52.0225 53.0555 51.4497C53.0487 51.5338 53.0453 51.6184 53.0453 51.7035C53.0453 54.3728 56.4334 56.5367 60.613 56.5367C64.7925 56.5367 68.1806 54.3728 68.1806 51.7035C68.1806 51.6241 68.1776 51.5452 68.1717 51.4667Z" fill="white"/>
</mask>
<g mask="url(#mask2)">
<rect x="30.681" y="44.8751" width="59.6378" height="24.751" fill="#262E33"/>
</g>
<mask id="mask3" mask-type="alpha" maskUnits="userSpaceOnUse" x="37" y="51" width="47" height="19">
<path fill-rule="evenodd" clip-rule="evenodd" d="M68.1717 51.4667C76.5246 52.1485 83.0901 59.1168 83.0901 67.6126V69.626H37.9099V67.6126C37.9099 59.0399 44.5948 52.0225 53.0555 51.4497C53.0487 51.5338 53.0453 51.6184 53.0453 51.7035C53.0453 54.3728 56.4334 56.5367 60.613 56.5367C64.7925 56.5367 68.1806 54.3728 68.1806 51.7035C68.1806 51.6241 68.1776 51.5452 68.1717 51.4667Z" fill="white"/>
</mask>
<g mask="url(#mask3)">
<g opacity="0.6">
<ellipse cx="60.6129" cy="52.0411" rx="8.95361" ry="6.05585" fill="black" fill-opacity="0.16"/>
</g>
</g>
<path fill-rule="evenodd" clip-rule="evenodd" d="M37.9099 67.6126C37.9099 58.9076 44.8027 51.8062 53.4485 51.4278C52.7606 54.0399 52.3676 57.0644 52.3676 60.2881C52.3676 63.7102 52.8105 66.9079 53.5788 69.626H37.9099V67.6126ZM83.0901 69.626H67.6471C68.4154 66.9079 68.8583 63.7102 68.8583 60.2881C68.8583 57.0692 68.4664 54.0489 67.7805 51.4394C76.3187 51.932 83.0901 58.9846 83.0901 67.6126V69.626Z" fill="#3A4C5A"/>
<path d="M71.5691 64.2258L73.7278 62.6132C74.0538 62.3697 74.503 62.3736 74.8247 62.6228L76.313 63.7758L71.5691 64.2258Z" fill="#E6E6E6"/>
<path d="M53.4971 51.1753C52.5935 55.5255 52.97 61.6757 54.6266 69.626H51.0122L47.8496 61.5257L49.205 59.5006L47.8496 58.1506L52.1417 51.4003C52.5998 51.2584 53.0516 51.1834 53.4971 51.1753Z" fill="#2F4351"/>
<path d="M67.5029 51.1753C68.4065 55.5255 68.03 61.6757 66.3734 69.626H69.9878L73.1504 61.5257L71.795 59.5006L73.1504 58.1506L68.8583 51.4003C68.4002 51.2584 67.9484 51.1834 67.5029 51.1753Z" fill="#2F4351"/>
<path d="M57.2959 40.4063C57.2959 42.1446 58.681 43.5537 60.3895 43.5537C62.0981 43.5537 63.4832 42.1446 63.4832 40.4063" fill="black" fill-opacity="0.7"/>
<path d="M57.7378 36.1348C57.7378 37.1281 58.925 37.9333 60.3895 37.9333C61.854 37.9333 63.0412 37.1281 63.0412 36.1348" fill="black" fill-opacity="0.16"/>
<ellipse cx="54.6442" cy="32.0882" rx="1.32584" ry="1.34889" fill="black" fill-opacity="0.6"/>
<ellipse cx="66.1348" cy="32.0882" rx="1.32584" ry="1.34889" fill="black" fill-opacity="0.6"/>
<path d="M51.4689 29.2012C52.3339 27.9628 54.7056 27.2683 56.7485 27.7787C56.9856 27.838 57.2249 27.6905 57.2831 27.4493C57.3413 27.2082 57.1964 26.9646 56.9593 26.9054C54.5868 26.3127 51.8405 27.1168 50.7484 28.6803C50.607 28.8827 50.6536 29.1634 50.8526 29.3073C51.0515 29.4511 51.3275 29.4036 51.4689 29.2012Z" fill="black" fill-opacity="0.6"/>
<path d="M69.3102 29.2012C68.4451 27.9628 66.0735 27.2683 64.0305 27.7787C63.7935 27.838 63.5541 27.6905 63.4959 27.4493C63.4377 27.2082 63.5827 26.9646 63.8197 26.9054C66.1922 26.3127 68.9386 27.1168 70.0307 28.6803C70.1721 28.8827 70.1254 29.1634 69.9265 29.3073C69.7275 29.4511 69.4516 29.4036 69.3102 29.2012Z" fill="black" fill-opacity="0.6"/>
<mask id="mask4" mask-type="alpha" maskUnits="userSpaceOnUse" x="31" y="7" width="59" height="63">
<rect x="31" y="7" width="59" height="62.8035" fill="white"/>
</mask>
<g mask="url(#mask4)">
<path fill-rule="evenodd" clip-rule="evenodd" d="M44.4091 25.8514V45.7006C44.3662 52.7693 42.7566 64.2045 39.7159 65.9904C53.6521 69.758 55.7913 57.4346 55.1364 47.5979V47.5107C51.2185 45.6427 48.4211 41.7919 48.0315 37.2505C46.7403 37.0565 45.75 35.9386 45.75 34.5887V32.3457C48.1768 27.2537 53.4982 25.2586 58.14 23.5183C61.1168 22.4023 63.814 21.391 65.2892 19.735C65.7883 20.1896 66.3536 20.6451 66.9484 21.1242C69.2301 22.9623 71.9451 25.1496 73.0152 28.9812V29.0184C74.1301 29.2062 75.0118 30.0844 75.2088 31.2V26.2988C75.2088 26.009 75.1969 25.722 75.1735 25.4381C76.1886 21.6236 74.4824 16.9622 72.3447 14.8504C70.2259 12.8726 67.3606 12.0873 65.4272 12.9489C62.8336 9.01459 55.3386 9.9698 50.8902 13.2803C47.9347 15.4809 45.3489 19.0519 44.6666 23.5467C44.4981 24.2877 44.4091 25.0591 44.4091 25.8514ZM72.9686 37.2505C72.579 41.7919 69.7815 45.6427 65.8637 47.5107V51.6353H66.7576C75.2285 51.6353 82.1705 58.2047 82.8017 66.5442C84.7807 64.0106 85.2375 60.4547 83.6814 57.4L77.6588 45.5778C76.0485 42.4168 75.2088 38.9173 75.2088 35.3671V35.0615C75.0091 36.1926 74.1055 37.0797 72.9686 37.2505Z" fill="#272C2E"/>
<mask id="mask5" mask-type="alpha" maskUnits="userSpaceOnUse" x="39" y="10" width="46" height="57">
<path fill-rule="evenodd" clip-rule="evenodd" d="M44.4091 45.7006V25.8514C44.4091 25.0591 44.4981 24.2877 44.6666 23.5467C45.3489 19.0519 47.9347 15.4809 50.8902 13.2803C55.3386 9.9698 62.8336 9.01459 65.4272 12.9489C67.3606 12.0873 70.2259 12.8726 72.3447 14.8504C74.4824 16.9622 76.1886 21.6236 75.1735 25.4381C75.1969 25.722 75.2088 26.009 75.2088 26.2988V31.2C75.0118 30.0844 74.1301 29.2062 73.0152 29.0184V28.9812C71.6662 24.1508 67.7028 21.9338 65.2892 19.735C61.5136 23.9734 49.7331 23.9883 45.75 32.3457V34.5887C45.75 35.9386 46.7403 37.0565 48.0315 37.2505C48.4211 41.7919 51.2185 45.6427 55.1364 47.5107V47.5979C55.7913 57.4346 53.6521 69.758 39.7159 65.9904C42.7566 64.2045 44.3662 52.7693 44.4091 45.7006ZM65.8637 47.5107C69.7815 45.6427 72.579 41.7919 72.9686 37.2505C74.1055 37.0797 75.0091 36.1926 75.2088 35.0615V35.3671C75.2088 38.9173 76.0485 42.4168 77.6588 45.5778L83.6814 57.4C85.2375 60.4547 84.7807 64.0106 82.8017 66.5442C82.1705 58.2047 75.2285 51.6353 66.7576 51.6353H65.8637V47.5107Z" fill="white"/>
</mask>
<g mask="url(#mask5)">
<rect x="39.7159" y="10.3645" width="59" height="62.8035" fill="#4A312C"/>
</g>
<path fill-rule="evenodd" clip-rule="evenodd" d="M45.75 32.3457C49.7331 25.0929 61.5136 25.08 65.2892 21.4018C67.6979 23.3061 71.65 24.7793 73.0069 28.9518C71.65 24.1417 67.6979 21.9293 65.2892 19.735C61.5136 23.9734 49.7331 23.9883 45.75 32.3457Z" fill="black" fill-opacity="0.16"/>
</g>
<path d="M13 36C13 55.8823 29.1177 72 49 72V72C68.8823 72 85 55.8823 85 36" stroke="white" stroke-width="3"/>
<path d="M14 35C14 54.33 29.4462 70 48.5 70V70C67.5538 70 83 54.33 83 35" stroke="#A8B6C6" stroke-width="2"/>
<rect x="12" y="31" width="8" height="12" fill="white"/>
<rect width="19" height="22" rx="1" transform="matrix(1 0 0 -1 11 38)" fill="#A8B6C6"/>
<path fill-rule="evenodd" clip-rule="evenodd" d="M83.3626 49C83.3626 49 80.7817 57.5228 61.2504 71.6879C54.3773 76.6726 77.8251 72.1094 83.3626 71.6879C88.3156 71.3109 89 70.9139 89 70.9139L83.3626 49Z" fill="white"/>
<rect width="11" height="3" rx="1" transform="matrix(1 0 0 -1 32 19)" fill="#A8B6C6"/>
<rect width="11" height="3" rx="1" transform="matrix(1 0 0 -1 32 25)" fill="#A8B6C6"/>
<rect width="11" height="3" rx="1" transform="matrix(1 0 0 -1 32 32)" fill="#A8B6C6"/>
<mask id="path-43-outside-1" maskUnits="userSpaceOnUse" x="0" y="12" width="22" height="22" fill="black">
<rect fill="white" y="12" width="22" height="22"/>
<path fill-rule="evenodd" clip-rule="evenodd" d="M18.1552 24.2702L19.7701 25.1629C19.9558 25.2645 20.0392 25.475 19.9824 25.6746C19.5616 26.9701 18.8451 28.1387 17.9088 29.1076C17.7647 29.2601 17.5335 29.2927 17.3477 29.1911L15.7328 28.2984C15.0504 28.8536 14.2695 29.2855 13.4279 29.5722V31.3576C13.4279 31.5609 13.2801 31.7387 13.0716 31.7822C11.7485 32.0653 10.3232 32.0798 8.9319 31.7822C8.7234 31.7387 8.57555 31.5609 8.57555 31.3576V29.5722C7.73018 29.2891 6.94926 28.8572 6.27068 28.2984L4.65576 29.1911C4.4738 29.2927 4.23876 29.2564 4.09471 29.1076C3.15835 28.1351 2.44187 26.9665 2.02108 25.6746C1.96043 25.4786 2.04383 25.2681 2.22958 25.1665L3.84451 24.2738C3.6815 23.4319 3.6815 22.5681 3.84451 21.7262L2.22958 20.8335C2.04383 20.7319 1.95664 20.5214 2.02108 20.3254C2.44187 19.0299 3.15835 17.8613 4.09471 16.8924C4.23876 16.7399 4.47001 16.7073 4.65576 16.8089L6.26689 17.7016C6.94926 17.1464 7.73018 16.7145 8.57176 16.4278V14.6424C8.57176 14.4391 8.71961 14.2613 8.92811 14.2178C10.2511 13.9347 11.6765 13.9202 13.0678 14.2178C13.2763 14.2613 13.4241 14.4391 13.4241 14.6424V16.4242C14.2695 16.7073 15.0504 17.1391 15.729 17.698L17.3439 16.8053C17.5259 16.7037 17.7609 16.7399 17.905 16.8887C18.8413 17.8613 19.5578 19.0299 19.9786 20.3218C20.0392 20.5178 19.9558 20.7282 19.7701 20.8298L18.1552 21.7226C18.3182 22.5645 18.3182 23.4282 18.1552 24.2702ZM7.96522 22.9964C7.96522 24.5968 9.32615 25.8996 10.9979 25.8996C12.6697 25.8996 14.0307 24.5968 14.0307 22.9964C14.0307 21.396 12.6697 20.0932 10.9979 20.0932C9.32615 20.0932 7.96522 21.396 7.96522 22.9964Z"/>
</mask>
<path fill-rule="evenodd" clip-rule="evenodd" d="M18.1552 24.2702L19.7701 25.1629C19.9558 25.2645 20.0392 25.475 19.9824 25.6746C19.5616 26.9701 18.8451 28.1387 17.9088 29.1076C17.7647 29.2601 17.5335 29.2927 17.3477 29.1911L15.7328 28.2984C15.0504 28.8536 14.2695 29.2855 13.4279 29.5722V31.3576C13.4279 31.5609 13.2801 31.7387 13.0716 31.7822C11.7485 32.0653 10.3232 32.0798 8.9319 31.7822C8.7234 31.7387 8.57555 31.5609 8.57555 31.3576V29.5722C7.73018 29.2891 6.94926 28.8572 6.27068 28.2984L4.65576 29.1911C4.4738 29.2927 4.23876 29.2564 4.09471 29.1076C3.15835 28.1351 2.44187 26.9665 2.02108 25.6746C1.96043 25.4786 2.04383 25.2681 2.22958 25.1665L3.84451 24.2738C3.6815 23.4319 3.6815 22.5681 3.84451 21.7262L2.22958 20.8335C2.04383 20.7319 1.95664 20.5214 2.02108 20.3254C2.44187 19.0299 3.15835 17.8613 4.09471 16.8924C4.23876 16.7399 4.47001 16.7073 4.65576 16.8089L6.26689 17.7016C6.94926 17.1464 7.73018 16.7145 8.57176 16.4278V14.6424C8.57176 14.4391 8.71961 14.2613 8.92811 14.2178C10.2511 13.9347 11.6765 13.9202 13.0678 14.2178C13.2763 14.2613 13.4241 14.4391 13.4241 14.6424V16.4242C14.2695 16.7073 15.0504 17.1391 15.729 17.698L17.3439 16.8053C17.5259 16.7037 17.7609 16.7399 17.905 16.8887C18.8413 17.8613 19.5578 19.0299 19.9786 20.3218C20.0392 20.5178 19.9558 20.7282 19.7701 20.8298L18.1552 21.7226C18.3182 22.5645 18.3182 23.4282 18.1552 24.2702ZM7.96522 22.9964C7.96522 24.5968 9.32615 25.8996 10.9979 25.8996C12.6697 25.8996 14.0307 24.5968 14.0307 22.9964C14.0307 21.396 12.6697 20.0932 10.9979 20.0932C9.32615 20.0932 7.96522 21.396 7.96522 22.9964Z" fill="#112E51"/>
<path d="M19.7701 25.1629L19.0444 26.4757L19.0502 26.4789L19.7701 25.1629ZM18.1552 24.2702L16.6825 23.985L16.4753 25.0554L17.4295 25.5829L18.1552 24.2702ZM19.9824 25.6746L21.409 26.1379L21.4175 26.1119L21.425 26.0856L19.9824 25.6746ZM17.9088 29.1076L16.8301 28.0653L16.8243 28.0713L16.8186 28.0773L17.9088 29.1076ZM17.3477 29.1911L16.622 30.5039L16.6278 30.5071L17.3477 29.1911ZM15.7328 28.2984L16.4585 26.9856L15.5719 26.4955L14.786 27.1349L15.7328 28.2984ZM13.4279 29.5722L12.9442 28.1523L11.9279 28.4985V29.5722H13.4279ZM13.0716 31.7822L12.7649 30.3139L12.7577 30.3154L13.0716 31.7822ZM8.9319 31.7822L9.24564 30.3154L9.23858 30.3139L8.9319 31.7822ZM8.57555 29.5722H10.0756V28.4926L9.05182 28.1498L8.57555 29.5722ZM6.27068 28.2984L7.22429 27.1405L6.43728 26.4923L5.54498 26.9856L6.27068 28.2984ZM4.65576 29.1911L3.93005 27.8783L3.92443 27.8815L4.65576 29.1911ZM4.09471 29.1076L3.01411 30.148L3.01704 30.151L4.09471 29.1076ZM2.02108 25.6746L0.588149 26.1181L0.591411 26.1286L0.594827 26.1391L2.02108 25.6746ZM2.22958 25.1665L2.94946 26.4825L2.95529 26.4793L2.22958 25.1665ZM3.84451 24.2738L4.57021 25.5866L5.5244 25.0591L5.31716 23.9887L3.84451 24.2738ZM3.84451 21.7262L5.31716 22.0113L5.5244 20.9409L4.57021 20.4134L3.84451 21.7262ZM2.22958 20.8335L2.95529 19.5207L2.94945 19.5175L2.22958 20.8335ZM2.02108 20.3254L3.44602 20.794L3.44772 20.7888L2.02108 20.3254ZM4.09471 16.8924L5.17335 17.9347L5.17914 17.9287L5.18486 17.9227L4.09471 16.8924ZM4.65576 16.8089L5.38278 15.4968L5.37563 15.4929L4.65576 16.8089ZM6.26689 17.7016L5.53988 19.0137L6.42697 19.5052L7.21362 18.8651L6.26689 17.7016ZM8.57176 16.4278L9.05546 17.8477L10.0718 17.5015V16.4278H8.57176ZM8.92811 14.2178L9.23479 15.6861L9.24193 15.6846L8.92811 14.2178ZM13.0678 14.2178L12.754 15.6846L12.7611 15.6861L13.0678 14.2178ZM13.4241 16.4242H11.9241V17.5038L12.9479 17.8466L13.4241 16.4242ZM15.729 17.698L14.7754 18.8559L15.5624 19.504L16.4547 19.0108L15.729 17.698ZM17.3439 16.8053L18.0696 18.118L18.0752 18.1149L17.3439 16.8053ZM17.905 16.8887L18.9856 15.8484L18.9826 15.8454L17.905 16.8887ZM19.9786 20.3218L21.4115 19.8783L21.4083 19.8677L21.4048 19.8572L19.9786 20.3218ZM19.7701 20.8298L19.0502 19.5139L19.0444 19.5171L19.7701 20.8298ZM18.1552 21.7226L17.4295 20.4098L16.4753 20.9373L16.6825 22.0077L18.1552 21.7226ZM20.4958 23.8501L18.8809 22.9574L17.4295 25.5829L19.0444 26.4757L20.4958 23.8501ZM21.425 26.0856C21.6684 25.2313 21.3076 24.2942 20.49 23.8469L19.0502 26.4789C18.6041 26.2348 18.4101 25.7187 18.5398 25.2636L21.425 26.0856ZM18.9874 30.15C20.0767 29.0228 20.9153 27.658 21.409 26.1379L18.5557 25.2112C18.2079 26.2823 17.6136 27.2546 16.8301 28.0653L18.9874 30.15ZM16.6278 30.5071C17.3872 30.9225 18.3676 30.8059 18.9989 30.138L16.8186 28.0773C17.1618 27.7142 17.6797 27.663 18.0676 27.8751L16.6278 30.5071ZM15.0071 29.6111L16.622 30.5039L18.0734 27.8783L16.4585 26.9856L15.0071 29.6111ZM13.9116 30.992C14.9201 30.6485 15.8581 30.1303 16.6795 29.4619L14.786 27.1349C14.2428 27.5769 13.6189 27.9224 12.9442 28.1523L13.9116 30.992ZM14.9279 31.3576V29.5722H11.9279V31.3576H14.9279ZM13.3782 33.2505C14.2453 33.0694 14.9279 32.3079 14.9279 31.3576H11.9279C11.9279 30.8138 12.3149 30.4079 12.7649 30.3139L13.3782 33.2505ZM8.61816 33.249C10.2214 33.592 11.8607 33.5752 13.3854 33.249L12.7577 30.3154C11.6364 30.5553 10.4249 30.5676 9.24564 30.3154L8.61816 33.249ZM7.07555 31.3576C7.07555 32.3079 7.75819 33.0694 8.62522 33.2505L9.23858 30.3139C9.6886 30.4079 10.0756 30.8138 10.0756 31.3576H7.07555ZM7.07555 29.5722V31.3576H10.0756V29.5722H7.07555ZM5.31708 29.4562C6.13896 30.1331 7.08208 30.6539 8.09928 30.9945L9.05182 28.1498C8.37829 27.9242 7.75955 27.5814 7.22429 27.1405L5.31708 29.4562ZM5.38146 30.5039L6.99639 29.6111L5.54498 26.9856L3.93006 27.8783L5.38146 30.5039ZM3.01704 30.151C3.62847 30.7825 4.6045 30.9378 5.38709 30.5007L3.92443 27.8815C4.34309 27.6477 4.84905 27.7303 5.17238 28.0643L3.01704 30.151ZM0.594827 26.1391C1.08862 27.6552 1.92685 29.0187 3.01411 30.148L5.1753 28.0673C4.38986 27.2515 3.79513 26.2778 3.44734 25.21L0.594827 26.1391ZM1.50971 23.8505C0.700027 24.2935 0.315945 25.2386 0.588149 26.1181L3.45401 25.2311C3.60491 25.7186 3.38763 26.2428 2.94945 26.4825L1.50971 23.8505ZM3.1188 22.961L1.50388 23.8538L2.95529 26.4793L4.57021 25.5866L3.1188 22.961ZM2.37185 21.4411C2.17238 22.4714 2.17238 23.5286 2.37185 24.5589L5.31716 23.9887C5.19061 23.3351 5.19061 22.6649 5.31716 22.0113L2.37185 21.4411ZM1.50388 22.1462L3.1188 23.039L4.57021 20.4134L2.95529 19.5207L1.50388 22.1462ZM0.596155 19.8568C0.294384 20.7745 0.721972 21.7185 1.50971 22.1494L2.94945 19.5175C3.36568 19.7452 3.61889 20.2683 3.44601 20.794L0.596155 19.8568ZM3.01606 15.85C1.9268 16.9772 1.08815 18.342 0.594445 19.862L3.44772 20.7888C3.7956 19.7177 4.38991 18.7454 5.17335 17.9347L3.01606 15.85ZM5.37563 15.4929C4.61626 15.0775 3.63585 15.1941 3.00456 15.862L5.18486 17.9227C4.84167 18.2858 4.32376 18.337 3.93589 18.1249L5.37563 15.4929ZM6.9939 16.3896L5.38277 15.4969L3.92875 18.1209L5.53988 19.0137L6.9939 16.3896ZM8.08807 15.008C7.07959 15.3515 6.14162 15.8697 5.32016 16.5381L7.21362 18.8651C7.75689 18.4231 8.38077 18.0776 9.05546 17.8477L8.08807 15.008ZM7.07176 14.6424V16.4278H10.0718V14.6424H7.07176ZM8.62143 12.7495C7.7544 12.9306 7.07176 13.6921 7.07176 14.6424H10.0718C10.0718 15.1862 9.68481 15.5921 9.23479 15.6861L8.62143 12.7495ZM13.3815 12.751C11.7783 12.408 10.139 12.4248 8.61428 12.751L9.24193 15.6846C10.3633 15.4447 11.5747 15.4324 12.754 15.6846L13.3815 12.751ZM14.9241 14.6424C14.9241 13.6921 14.2415 12.9306 13.3745 12.7495L12.7611 15.6861C12.3111 15.5921 11.9241 15.1862 11.9241 14.6424H14.9241ZM14.9241 16.4242V14.6424H11.9241V16.4242H14.9241ZM16.6826 16.5401C15.8607 15.8633 14.9176 15.3424 13.9004 15.0018L12.9479 17.8466C13.6214 18.0721 14.2401 18.415 14.7754 18.8559L16.6826 16.5401ZM16.6182 15.4925L15.0033 16.3852L16.4547 19.0108L18.0696 18.118L16.6182 15.4925ZM18.9826 15.8454C18.3712 15.2138 17.3952 15.0586 16.6126 15.4956L18.0752 18.1149C17.6566 18.3487 17.1506 18.2661 16.8273 17.9321L18.9826 15.8454ZM21.4048 19.8572C20.9111 18.3412 20.0728 16.9777 18.9856 15.8484L16.8244 17.9291C17.6098 18.7449 18.2045 19.7185 18.5523 20.7863L21.4048 19.8572ZM20.49 22.1458C21.2996 21.7029 21.6837 20.7577 21.4115 19.8783L18.5457 20.7653C18.3948 20.2778 18.612 19.7536 19.0502 19.5139L20.49 22.1458ZM18.8809 23.0354L20.4958 22.1426L19.0444 19.5171L17.4295 20.4098L18.8809 23.0354ZM19.6278 24.5553C19.8273 23.525 19.8273 22.4677 19.6278 21.4375L16.6825 22.0077C16.8091 22.6613 16.8091 23.3314 16.6825 23.985L19.6278 24.5553ZM10.9979 24.3996C10.0922 24.3996 9.46522 23.7073 9.46522 22.9964H6.46522C6.46522 25.4862 8.56009 27.3996 10.9979 27.3996V24.3996ZM12.5307 22.9964C12.5307 23.7073 11.9037 24.3996 10.9979 24.3996V27.3996C13.4358 27.3996 15.5307 25.4862 15.5307 22.9964H12.5307ZM10.9979 21.5932C11.9037 21.5932 12.5307 22.2854 12.5307 22.9964H15.5307C15.5307 20.5065 13.4358 18.5932 10.9979 18.5932V21.5932ZM9.46522 22.9964C9.46522 22.2854 10.0922 21.5932 10.9979 21.5932V18.5932C8.56009 18.5932 6.46522 20.5065 6.46522 22.9964H9.46522Z" fill="white" mask="url(#path-43-outside-1)"/>
<circle cx="12" cy="23" r="2" fill="white"/>
</svg>
