<svg width="74" height="69" viewBox="0 0 74 69" fill="none" xmlns="http://www.w3.org/2000/svg">
<ellipse cx="38.5614" cy="34.5" rx="33.3273" ry="33.5" fill="#EBF3FA"/>
<path fill-rule="evenodd" clip-rule="evenodd" d="M4.23413 34.5C4.23413 15.451 19.5981 0 38.5614 0C57.5247 0 72.8887 15.451 72.8887 34.5H70.8887C70.8887 16.5458 56.4104 2 38.5614 2C20.7124 2 6.23413 16.5458 6.23413 34.5H4.23413Z" fill="#A8B6C6"/>
<path d="M4.99976 11.6587H51.9609V37.8746C51.9609 40.636 49.7224 42.8746 46.9609 42.8746H9.99976C7.23833 42.8746 4.99976 40.636 4.99976 37.8746V11.6587Z" fill="white"/>
<path fill-rule="evenodd" clip-rule="evenodd" d="M4 6.00001C4 3.23858 6.23857 1 9 1H48.7186C51.4801 1 53.7186 3.23858 53.7186 6V39.1136C53.7186 41.875 51.4801 44.1136 48.7186 44.1136H9C6.23858 44.1136 4 41.875 4 39.1136V6.00001ZM9 3C7.34315 3 6 4.34315 6 6.00001V39.1136C6 40.7704 7.34315 42.1136 9 42.1136H48.7186C50.3755 42.1136 51.7186 40.7704 51.7186 39.1136V6C51.7186 4.34315 50.3755 3 48.7186 3H9Z" fill="#112E51"/>
<path d="M5 6.76123C5 3.99981 7.23858 1.76123 10 1.76123H47.7186C50.4801 1.76123 52.7186 3.99981 52.7186 6.76123V11.6589H5V6.76123Z" fill="#112E51"/>
<ellipse cx="8.83043" cy="6.32911" rx="0.801137" ry="0.761363" fill="white"/>
<ellipse cx="12.0345" cy="6.32899" rx="0.801137" ry="0.761363" fill="white"/>
<ellipse cx="15.2396" cy="6.32899" rx="0.801137" ry="0.761363" fill="white"/>
<path d="M33.6655 6.70966H49.6883" stroke="white" stroke-width="3" stroke-linecap="round"/>
<rect width="18.936" height="21.3182" rx="1" transform="matrix(1 0 0 -1 8.78711 36.7842)" fill="#A8B6C6"/>
<rect width="10.6041" height="3.04545" rx="1" transform="matrix(1 0 0 -1 29.2375 30.6932)" fill="#A8B6C6"/>
<rect width="10.6041" height="3.04545" rx="1" transform="matrix(1 0 0 -1 29.2375 24.6022)" fill="#A8B6C6"/>
<rect width="10.6041" height="3.04545" rx="1" transform="matrix(1 0 0 -1 29.2375 18.5114)" fill="#A8B6C6"/>
<mask id="path-14-outside-1" maskUnits="userSpaceOnUse" x="0.455078" y="12" width="20" height="20" fill="black">
<rect fill="white" x="0.455078" y="12" width="20" height="20"/>
<path d="M18.2507 23.9226L16.8152 23.129C16.9601 22.3806 16.9601 21.6129 16.8152 20.8645L18.2507 20.071C18.4158 19.9807 18.49 19.7936 18.436 19.6194C18.062 18.471 17.4251 17.4323 16.5928 16.5678C16.4648 16.4355 16.2559 16.4032 16.0941 16.4936L14.6586 17.2871C14.0554 16.7903 13.3613 16.4065 12.6099 16.1549V14.571C12.6099 14.3904 12.4784 14.2323 12.2931 14.1936C11.0564 13.9291 9.78942 13.942 8.6134 14.1936C8.42806 14.2323 8.29665 14.3904 8.29665 14.571V16.1581C7.54857 16.4129 6.85442 16.7968 6.24787 17.2903L4.81575 16.4968C4.65064 16.4065 4.44509 16.4355 4.31704 16.571C3.48473 17.4323 2.84785 18.471 2.47382 19.6226C2.41653 19.7968 2.49404 19.9839 2.65915 20.0742L4.09464 20.8677C3.94974 21.6161 3.94974 22.3839 4.09464 23.1323L2.65915 23.9258C2.49404 24.0161 2.4199 24.2032 2.47382 24.3774C2.84785 25.5258 3.48473 26.5645 4.31704 27.429C4.44509 27.5613 4.65401 27.5935 4.81575 27.5032L6.25124 26.7097C6.85442 27.2064 7.54857 27.5903 8.30001 27.8419V29.429C8.30001 29.6096 8.43143 29.7677 8.61677 29.8064C9.85344 30.0709 11.1204 30.058 12.2965 29.8064C12.4818 29.7677 12.6132 29.6096 12.6132 29.429V27.8419C13.3613 27.5871 14.0554 27.2032 14.662 26.7097L16.0975 27.5032C16.2626 27.5935 16.4681 27.5645 16.5962 27.429C17.4285 26.5677 18.0654 25.529 18.4394 24.3774C18.49 24.2 18.4158 24.0129 18.2507 23.9226Z"/>
</mask>
<path d="M18.2507 23.9226L16.8152 23.129C16.9601 22.3806 16.9601 21.6129 16.8152 20.8645L18.2507 20.071C18.4158 19.9807 18.49 19.7936 18.436 19.6194C18.062 18.471 17.4251 17.4323 16.5928 16.5678C16.4648 16.4355 16.2559 16.4032 16.0941 16.4936L14.6586 17.2871C14.0554 16.7903 13.3613 16.4065 12.6099 16.1549V14.571C12.6099 14.3904 12.4784 14.2323 12.2931 14.1936C11.0564 13.9291 9.78942 13.942 8.6134 14.1936C8.42806 14.2323 8.29665 14.3904 8.29665 14.571V16.1581C7.54857 16.4129 6.85442 16.7968 6.24787 17.2903L4.81575 16.4968C4.65064 16.4065 4.44509 16.4355 4.31704 16.571C3.48473 17.4323 2.84785 18.471 2.47382 19.6226C2.41653 19.7968 2.49404 19.9839 2.65915 20.0742L4.09464 20.8677C3.94974 21.6161 3.94974 22.3839 4.09464 23.1323L2.65915 23.9258C2.49404 24.0161 2.4199 24.2032 2.47382 24.3774C2.84785 25.5258 3.48473 26.5645 4.31704 27.429C4.44509 27.5613 4.65401 27.5935 4.81575 27.5032L6.25124 26.7097C6.85442 27.2064 7.54857 27.5903 8.30001 27.8419V29.429C8.30001 29.6096 8.43143 29.7677 8.61677 29.8064C9.85344 30.0709 11.1204 30.058 12.2965 29.8064C12.4818 29.7677 12.6132 29.6096 12.6132 29.429V27.8419C13.3613 27.5871 14.0554 27.2032 14.662 26.7097L16.0975 27.5032C16.2626 27.5935 16.4681 27.5645 16.5962 27.429C17.4285 26.5677 18.0654 25.529 18.4394 24.3774C18.49 24.2 18.4158 24.0129 18.2507 23.9226Z" fill="#112E51"/>
<path d="M18.2507 23.9226L17.525 25.2354L17.5308 25.2385L18.2507 23.9226ZM16.8152 23.129L15.3426 22.8439L15.1353 23.9143L16.0895 24.4418L16.8152 23.129ZM16.8152 20.8645L16.0895 19.5518L15.1353 20.0792L15.3426 21.1496L16.8152 20.8645ZM18.2507 20.071L17.5308 18.755L17.525 18.7582L18.2507 20.071ZM18.436 19.6194L19.869 19.1759L19.8657 19.1653L19.8623 19.1548L18.436 19.6194ZM16.5928 16.5678L17.6734 15.5274L17.6705 15.5244L16.5928 16.5678ZM16.0941 16.4936L16.8198 17.8063L16.8254 17.8032L16.0941 16.4936ZM14.6586 17.2871L13.705 18.445L14.492 19.0931L15.3843 18.5999L14.6586 17.2871ZM12.6099 16.1549H11.1099V17.2345L12.1336 17.5772L12.6099 16.1549ZM12.2931 14.1936L11.9794 15.6604L11.9864 15.6619L12.2931 14.1936ZM8.6134 14.1936L8.92008 15.6619L8.92722 15.6604L8.6134 14.1936ZM8.29665 16.1581L8.78034 17.578L9.79665 17.2317V16.1581H8.29665ZM6.24787 17.2903L5.52086 18.6024L6.40795 19.0939L7.1946 18.4538L6.24787 17.2903ZM4.81575 16.4968L5.54277 15.1847L5.53563 15.1808L4.81575 16.4968ZM4.31704 16.571L5.39569 17.6134L5.40147 17.6074L5.40719 17.6013L4.31704 16.571ZM2.47382 19.6226L3.89875 20.0912L3.90046 20.086L2.47382 19.6226ZM2.65915 20.0742L3.38486 18.7614L3.37902 18.7582L2.65915 20.0742ZM4.09464 20.8677L5.56729 21.1529L5.77454 20.0825L4.82034 19.555L4.09464 20.8677ZM4.09464 23.1323L4.82034 24.445L5.77454 23.9175L5.56729 22.8471L4.09464 23.1323ZM2.65915 23.9258L3.37903 25.2418L3.38485 25.2386L2.65915 23.9258ZM2.47382 24.3774L1.04088 24.8209L1.04415 24.8315L1.04756 24.842L2.47382 24.3774ZM4.31704 27.429L3.23644 28.4694L3.23937 28.4724L4.31704 27.429ZM4.81575 27.5032L4.09004 26.1904L4.08442 26.1936L4.81575 27.5032ZM6.25124 26.7097L7.20485 25.5518L6.41784 24.9036L5.52554 25.3969L6.25124 26.7097ZM8.30001 27.8419H9.80001V26.7623L8.77628 26.4195L8.30001 27.8419ZM8.61677 29.8064L8.93051 28.3396L8.92344 28.3381L8.61677 29.8064ZM12.2965 29.8064L11.9898 28.3381L11.9826 28.3396L12.2965 29.8064ZM12.6132 27.8419L12.1295 26.422L11.1132 26.7683V27.8419H12.6132ZM14.662 26.7097L15.3877 25.3969L14.5011 24.9068L13.7153 25.5462L14.662 26.7097ZM16.0975 27.5032L15.3718 28.816L15.3776 28.8192L16.0975 27.5032ZM16.5962 27.429L15.5175 26.3866L15.5118 26.3926L15.506 26.3987L16.5962 27.429ZM18.4394 24.3774L19.8661 24.8408L19.8745 24.8147L19.882 24.7884L18.4394 24.3774ZM18.9764 22.6098L17.5409 21.8163L16.0895 24.4418L17.525 25.2353L18.9764 22.6098ZM18.2879 23.4142C18.4692 22.4774 18.4692 21.5161 18.2879 20.5794L15.3426 21.1496C15.451 21.7097 15.451 22.2839 15.3426 22.8439L18.2879 23.4142ZM17.5409 22.1773L18.9764 21.3837L17.525 18.7582L16.0895 19.5518L17.5409 22.1773ZM18.9706 21.3869C19.7596 20.9553 20.1344 20.0335 19.869 19.1759L17.0031 20.0629C16.8455 19.5536 17.072 19.006 17.5308 18.755L18.9706 21.3869ZM19.8623 19.1548C19.4153 17.7823 18.6566 16.5487 17.6734 15.5274L15.5122 17.6081C16.1936 18.3159 16.7088 19.1596 17.0098 20.0839L19.8623 19.1548ZM17.6705 15.5244C17.0751 14.9094 16.1252 14.7582 15.3628 15.1839L16.8254 17.8032C16.3866 18.0483 15.8545 17.9616 15.5152 17.6111L17.6705 15.5244ZM15.3684 15.1808L13.9329 15.9743L15.3843 18.5999L16.8198 17.8063L15.3684 15.1808ZM15.6122 16.1293C14.8657 15.5145 14.0094 15.0416 13.0861 14.7325L12.1336 17.5772C12.7132 17.7713 13.2451 18.0662 13.705 18.445L15.6122 16.1293ZM14.1099 16.1549V14.571H11.1099V16.1549H14.1099ZM14.1099 14.571C14.1099 13.6433 13.4436 12.9015 12.5998 12.7253L11.9864 15.6619C11.5132 15.5631 11.1099 15.1374 11.1099 14.571H14.1099ZM12.6068 12.7268C11.1582 12.4169 9.67725 12.432 8.29957 12.7268L8.92722 15.6604C9.90159 15.4519 10.9547 15.4412 11.9794 15.6604L12.6068 12.7268ZM8.30672 12.7253C7.46286 12.9015 6.79665 13.6433 6.79665 14.571H9.79665C9.79665 15.1374 9.39327 15.5631 8.92008 15.6619L8.30672 12.7253ZM6.79665 14.571V16.1581H9.79665V14.571H6.79665ZM7.81295 14.7382C6.89799 15.0499 6.04678 15.5201 5.30114 16.1269L7.1946 18.4538C7.66205 18.0735 8.19916 17.7759 8.78034 17.578L7.81295 14.7382ZM6.97488 15.9783L5.54276 15.1848L4.08874 17.8088L5.52086 18.6024L6.97488 15.9783ZM5.53563 15.1808C4.79689 14.7767 3.84217 14.8897 3.22689 15.5407L5.40719 17.6013C5.048 17.9814 4.50439 18.0362 4.09588 17.8128L5.53563 15.1808ZM3.23839 15.5286C2.25317 16.5481 1.49413 17.7831 1.04718 19.1592L3.90046 20.086C4.20158 19.1588 4.71628 18.3164 5.39569 17.6134L3.23839 15.5286ZM1.04889 19.154C0.754279 20.0499 1.17218 20.9706 1.93928 21.3902L3.37902 18.7582C3.81589 18.9972 4.07879 19.5437 3.89874 20.0912L1.04889 19.154ZM1.93345 21.387L3.36894 22.1805L4.82034 19.555L3.38485 18.7614L1.93345 21.387ZM2.62199 20.5826C2.44063 21.5193 2.44063 22.4807 2.62199 23.4174L5.56729 22.8471C5.45886 22.2871 5.45886 21.7129 5.56729 21.1529L2.62199 20.5826ZM3.36894 21.8195L1.93345 22.613L3.38485 25.2386L4.82034 24.445L3.36894 21.8195ZM1.93928 22.6098C1.15023 23.0415 0.775421 23.9632 1.04088 24.8209L3.90675 23.9339C4.06438 24.4432 3.83784 24.9908 3.37902 25.2418L1.93928 22.6098ZM1.04756 24.842C1.4946 26.2145 2.25322 27.4481 3.23645 28.4694L5.39763 26.3887C4.71623 25.6809 4.20111 24.8371 3.90007 23.9129L1.04756 24.842ZM3.23937 28.4724C3.8348 29.0874 4.78472 29.2386 5.54709 28.8128L4.08442 26.1936C4.5233 25.9485 5.05538 26.0352 5.39471 26.3856L3.23937 28.4724ZM5.54146 28.816L6.97695 28.0224L5.52554 25.3969L4.09005 26.1904L5.54146 28.816ZM5.29764 27.8675C6.04412 28.4823 6.90047 28.9551 7.82375 29.2643L8.77628 26.4195C8.19668 26.2255 7.66472 25.9305 7.20485 25.5518L5.29764 27.8675ZM6.80001 27.8419V29.429H9.80001V27.8419H6.80001ZM6.80001 29.429C6.80001 30.3567 7.46623 31.0985 8.31009 31.2747L8.92344 28.3381C9.39664 28.4369 9.80001 28.8626 9.80001 29.429H6.80001ZM8.30302 31.2732C9.75168 31.5831 11.2326 31.568 12.6103 31.2732L11.9826 28.3396C11.0083 28.5481 9.95521 28.5588 8.93051 28.3396L8.30302 31.2732ZM12.6031 31.2747C13.447 31.0985 14.1132 30.3567 14.1132 29.429H11.1132C11.1132 28.8626 11.5166 28.4369 11.9898 28.3381L12.6031 31.2747ZM14.1132 29.429V27.8419H11.1132V29.429H14.1132ZM13.0969 29.2618C14.0119 28.9501 14.8631 28.4799 15.6087 27.8731L13.7153 25.5462C13.2478 25.9265 12.7107 26.2241 12.1295 26.422L13.0969 29.2618ZM13.9363 28.0224L15.3718 28.816L16.8232 26.1904L15.3877 25.3969L13.9363 28.0224ZM15.3776 28.8192C16.1163 29.2233 17.0711 29.1104 17.6863 28.4593L15.506 26.3987C15.8652 26.0186 16.4088 25.9638 16.8174 26.1872L15.3776 28.8192ZM17.6748 28.4714C18.6601 27.4519 19.4191 26.2169 19.8661 24.8408L17.0128 23.914C16.7117 24.8412 16.197 25.6836 15.5175 26.3866L17.6748 28.4714ZM19.882 24.7884C20.1191 23.9563 19.7676 23.0426 18.9706 22.6066L17.5308 25.2385C17.064 24.9832 16.8609 24.4437 16.9968 23.9664L19.882 24.7884Z" fill="white" mask="url(#path-14-outside-1)"/>
<circle cx="10.4551" cy="22" r="2" fill="white"/>
<path fill-rule="evenodd" clip-rule="evenodd" d="M55.2131 49.8421V45.8118C59.0124 44.0171 61.7433 40.3493 62.1989 36.0086C63.4828 35.8281 64.4703 34.731 64.4703 33.4046V30.3362C64.4703 29.0331 63.5171 27.9513 62.2662 27.7426V26.3912C62.2662 19.6129 56.7401 14.1179 49.9233 14.1179C43.1066 14.1179 37.5805 19.6129 37.5805 26.3912V27.7426C36.3296 27.9513 35.3764 29.0331 35.3764 30.3362V33.4046C35.3764 34.731 36.3639 35.8281 37.6478 36.0086C38.1034 40.3493 40.8343 44.0171 44.6336 45.8118V49.8421H43.7519C34.9875 49.8421 27.8826 56.907 27.8826 65.6221V66.3071L31.1014 67.5946H43.4829C50.791 66.1441 60.0555 62.0899 66.0828 53.3589C63.3553 51.1597 59.8798 49.8421 56.0948 49.8421H55.2131Z" fill="#D0C6AC"/>
<mask id="mask0" mask-type="alpha" maskUnits="userSpaceOnUse" x="27" y="14" width="45" height="54">
<path fill-rule="evenodd" clip-rule="evenodd" d="M55.2131 45.8118V49.8421H56.0948V49.8421C64.8592 49.8421 71.9641 56.907 71.9641 65.6221V67.5946H27.8826V65.6221C27.8826 56.907 34.9875 49.8421 43.7519 49.8421V49.8421H44.6336V45.8118C40.8343 44.0171 38.1034 40.3493 37.6478 36.0086C36.3639 35.8281 35.3764 34.731 35.3764 33.4046V30.3362C35.3764 29.0331 36.3296 27.9513 37.5805 27.7426V26.3912V26.3912C37.5805 19.6129 43.1066 14.1179 49.9233 14.1179V14.1179V14.1179C56.7401 14.1179 62.2662 19.6129 62.2662 26.3912V27.7426C63.5171 27.9513 64.4703 29.0331 64.4703 30.3362V33.4046C64.4703 34.731 63.4828 35.8281 62.1989 36.0086C61.7433 40.3493 59.0124 44.0171 55.2131 45.8118Z" fill="white"/>
</mask>
<g mask="url(#mask0)">
<path fill-rule="evenodd" clip-rule="evenodd" d="M79.0172 14.1177H20.8296V67.5943H27.1152V66.0001L31.1007 67.5943H43.4829C54.344 65.4386 69.5259 57.5322 71.9813 37.0705H73.8154V67.5943H79.0172V14.1177Z" fill="#D08B5B"/>
</g>
<mask id="mask1" mask-type="alpha" maskUnits="userSpaceOnUse" x="27" y="14" width="45" height="54">
<path fill-rule="evenodd" clip-rule="evenodd" d="M55.2131 45.8118V49.8421H56.0948V49.8421C64.8592 49.8421 71.9641 56.907 71.9641 65.6221V67.5946H27.8826V65.6221C27.8826 56.907 34.9875 49.8421 43.7519 49.8421V49.8421H44.6336V45.8118C40.8343 44.0171 38.1034 40.3493 37.6478 36.0086C36.3639 35.8281 35.3764 34.731 35.3764 33.4046V30.3362C35.3764 29.0331 36.3296 27.9513 37.5805 27.7426V26.3912V26.3912C37.5805 19.6129 43.1066 14.1179 49.9233 14.1179V14.1179V14.1179C56.7401 14.1179 62.2662 19.6129 62.2662 26.3912V27.7426C63.5171 27.9513 64.4703 29.0331 64.4703 30.3362V33.4046C64.4703 34.731 63.4828 35.8281 62.1989 36.0086C61.7433 40.3493 59.0124 44.0171 55.2131 45.8118Z" fill="white"/>
</mask>
<g mask="url(#mask1)">
<path d="M62.2662 31.4318V36.4726C62.2662 43.251 56.7402 48.7459 49.9234 48.7459C43.1066 48.7459 37.5806 43.251 37.5806 36.4726V31.4318V34.7193C37.5806 41.4976 43.1066 46.9926 49.9234 46.9926C56.7402 46.9926 62.2662 41.4976 62.2662 34.7193V31.4318Z" fill="black" fill-opacity="0.1"/>
</g>
<path fill-rule="evenodd" clip-rule="evenodd" d="M66.1635 53.2414C60.362 61.7265 51.5104 65.8279 44.3078 67.4214H27.8826V65.4573C27.8826 57.0947 34.4049 50.2491 42.6599 49.6904C42.6533 49.7724 42.6499 49.855 42.6499 49.938C42.6499 52.5419 45.9557 54.6528 50.0336 54.6528C54.1114 54.6528 57.4172 52.5419 57.4172 49.938C57.4172 49.8606 57.4143 49.7835 57.4085 49.707C60.7187 49.9771 63.7411 51.2589 66.1635 53.2414Z" fill="#E6E6E6"/>
<mask id="mask2" mask-type="alpha" maskUnits="userSpaceOnUse" x="27" y="49" width="45" height="19">
<path fill-rule="evenodd" clip-rule="evenodd" d="M57.4085 49.707C65.5583 50.3721 71.9641 57.1697 71.9641 65.4573V67.4214H27.8826V65.4573C27.8826 57.0947 34.4049 50.2491 42.6599 49.6904C42.6533 49.7724 42.6499 49.855 42.6499 49.938C42.6499 52.5419 45.9557 54.6528 50.0336 54.6528C54.1114 54.6528 57.4172 52.5419 57.4172 49.938C57.4172 49.8606 57.4143 49.7835 57.4085 49.707Z" fill="white"/>
</mask>
<g mask="url(#mask2)">
<path fill-rule="evenodd" clip-rule="evenodd" d="M20.8296 43.2767H70.7599C66.4186 58.7281 53.9005 65.299 44.3077 67.4212H30.6683L27.1152 66V67.4212H20.8296V43.2767ZM73.8155 43.2767V67.4212H79.0172V43.2767H73.8155Z" fill="#262E33"/>
</g>
<mask id="mask3" mask-type="alpha" maskUnits="userSpaceOnUse" x="27" y="49" width="45" height="19">
<path fill-rule="evenodd" clip-rule="evenodd" d="M57.4085 49.707C65.5583 50.3721 71.9641 57.1697 71.9641 65.4573V67.4214H27.8826V65.4573C27.8826 57.0947 34.4049 50.2491 42.6599 49.6904C42.6533 49.7724 42.6499 49.855 42.6499 49.938C42.6499 52.5419 45.9557 54.6528 50.0336 54.6528C54.1114 54.6528 57.4172 52.5419 57.4172 49.938C57.4172 49.8606 57.4143 49.7835 57.4085 49.707Z" fill="white"/>
</mask>
<g mask="url(#mask3)">
<g opacity="0.6">
<ellipse cx="50.0337" cy="50.2672" rx="8.73589" ry="5.90746" fill="black" fill-opacity="0.16"/>
</g>
</g>
<path fill-rule="evenodd" clip-rule="evenodd" d="M27.8826 65.4571C27.8826 56.9655 34.6077 50.0381 43.0433 49.6689C42.3722 52.217 41.9887 55.1675 41.9887 58.3122C41.9887 61.6504 42.4208 64.7697 43.1704 67.4212H30.668L27.8826 66.3071V65.4571ZM66.1643 53.2405C63.8195 56.6702 60.9765 59.3837 57.9454 61.5049C58.0336 60.4698 58.0797 59.4025 58.0797 58.3119C58.0797 55.1719 57.6974 52.2255 57.0281 49.68C60.4873 49.8795 63.6492 51.1824 66.1643 53.2405Z" fill="#3A4C5A"/>
<path d="M43.0908 49.4226C42.2091 53.6662 42.5765 59.6657 44.1928 67.4212H40.6663L37.5806 59.5194L38.903 57.5439L37.5806 56.227L41.7683 49.6421C42.2152 49.5037 42.656 49.4305 43.0908 49.4226Z" fill="#2F4351"/>
<path fill-rule="evenodd" clip-rule="evenodd" d="M61.6098 58.5392L60.9435 57.5438L62.266 56.2268L58.0782 49.642C57.6313 49.5035 57.1905 49.4304 56.7558 49.4225C57.4379 52.7059 57.3724 57.0405 56.5591 62.4263C58.307 61.3227 60.0095 60.0346 61.6098 58.5392Z" fill="#2F4351"/>
<path d="M46.7974 38.9174C46.7974 40.613 48.1487 41.9876 49.8158 41.9876V41.9876C51.4828 41.9876 52.8342 40.613 52.8342 38.9174" fill="black" fill-opacity="0.7"/>
<path d="M47.2283 34.7509C47.2283 35.7198 48.3866 36.5053 49.8155 36.5053V36.5053C51.2444 36.5053 52.4027 35.7198 52.4027 34.7509" fill="black" fill-opacity="0.16"/>
<ellipse cx="44.2101" cy="30.8031" rx="1.2936" ry="1.31584" fill="black" fill-opacity="0.6"/>
<ellipse cx="55.4213" cy="30.8031" rx="1.2936" ry="1.31584" fill="black" fill-opacity="0.6"/>
<path d="M41.1121 27.9869C41.9561 26.7788 44.2701 26.1013 46.2634 26.5992C46.4946 26.657 46.7282 26.5131 46.785 26.2779C46.8417 26.0426 46.7003 25.8051 46.469 25.7473C44.1542 25.1691 41.4747 25.9536 40.4091 27.4787C40.2711 27.6762 40.3167 27.95 40.5108 28.0903C40.7049 28.2306 40.9741 28.1843 41.1121 27.9869Z" fill="black" fill-opacity="0.6"/>
<path d="M58.519 27.9869C57.675 26.7788 55.361 26.1013 53.3677 26.5992C53.1365 26.657 52.9029 26.5131 52.8462 26.2779C52.7894 26.0426 52.9308 25.8051 53.1621 25.7473C55.4769 25.1691 58.1564 25.9536 59.222 27.4787C59.36 27.6762 59.3144 27.95 59.1203 28.0903C58.9262 28.2306 58.657 28.1843 58.519 27.9869Z" fill="black" fill-opacity="0.6"/>
<path fill-rule="evenodd" clip-rule="evenodd" d="M34.2238 44.0819V24.7192C34.2238 23.9463 34.3106 23.1938 34.475 22.4709C35.1407 18.0862 37.6636 14.6028 40.5473 12.4561C44.8875 9.22671 52.2003 8.29491 54.7308 12.1328C56.6173 11.2923 59.4128 12.0584 61.4801 13.9878C63.5658 16.0478 65.2305 20.595 64.2401 24.316C64.2629 24.5929 64.2746 24.8729 64.2746 25.1556V29.9367C64.0824 28.8484 63.2221 27.9917 62.1343 27.8086V27.7723C61.0903 24.0345 58.4412 21.9009 56.215 20.1078C55.6347 19.6404 55.0832 19.1961 54.5962 18.7526C53.1569 20.3681 50.5252 21.3545 47.6209 22.4432C43.0919 24.1409 37.8999 26.0871 35.5321 31.0543V33.2423C35.5321 34.5592 36.4983 35.6497 37.7581 35.8389C38.1382 40.2691 40.8677 44.0255 44.6903 45.8477V45.9328C45.3292 55.5284 43.2421 67.5499 29.6448 63.8746C32.6115 62.1324 34.182 50.9774 34.2238 44.0819ZM55.1568 45.848C58.9794 44.0258 61.7089 40.2694 62.089 35.8392C63.1983 35.6726 64.0799 34.8072 64.2747 33.7038V34.0019C64.2747 37.4652 65.094 40.8789 66.6651 43.9625L68.9082 48.3647C68.0636 50.2204 67.0877 51.9164 66.0099 53.4643C63.2969 51.2197 59.8198 49.8716 56.029 49.8716H55.1568V45.848Z" fill="#272C2E"/>
<mask id="mask4" mask-type="alpha" maskUnits="userSpaceOnUse" x="29" y="9" width="45" height="56">
<path fill-rule="evenodd" clip-rule="evenodd" d="M34.2238 44.0819V24.7192C34.2238 23.9463 34.3106 23.1938 34.475 22.4709C35.1407 18.0862 37.6636 14.6028 40.5473 12.4561C44.8875 9.22671 52.2003 8.29491 54.7308 12.1328C56.6173 11.2923 59.4128 12.0584 61.4801 13.9878C63.5658 16.0478 65.2305 20.595 64.2401 24.316C64.2629 24.5929 64.2746 24.8729 64.2746 25.1556V29.9367C64.0824 28.8484 63.2221 27.9917 62.1343 27.8086V27.7723C60.8181 23.0602 56.9511 20.8975 54.5962 18.7526C50.9124 22.8871 39.4184 22.9017 35.5321 31.0543V33.2423C35.5321 34.5592 36.4983 35.6497 37.7581 35.8389C38.1382 40.2691 40.8677 44.0255 44.6903 45.8477V45.9328C45.3292 55.5284 43.2421 67.5499 29.6448 63.8746C32.6115 62.1324 34.182 50.9774 34.2238 44.0819ZM55.1568 45.848C58.9794 44.0258 61.7089 40.2694 62.089 35.8392C63.1983 35.6726 64.0799 34.8072 64.2747 33.7038V34.0019V34.0019C64.2747 37.4652 65.094 40.8789 66.6651 43.9625L72.5413 55.495C74.0596 58.4749 73.6138 61.9436 71.683 64.4151C71.0672 56.28 64.2939 49.8716 56.029 49.8716V49.8716H55.1568V45.848Z" fill="white"/>
</mask>
<g mask="url(#mask4)">
<path fill-rule="evenodd" clip-rule="evenodd" d="M87.2101 9.60999H29.6448V70.8745H87.2101V9.60999ZM37.7452 68.2503C47.9345 68.0465 69.0469 61.5253 71.9814 37.0709H73.8155V68.2503H37.7452Z" fill="#4A312C"/>
</g>
<path fill-rule="evenodd" clip-rule="evenodd" d="M35.5322 31.0546C39.4185 23.9796 50.9125 23.9669 54.5963 20.3789C56.9464 22.2365 60.8025 23.6737 62.1263 27.7438C60.8025 23.0517 56.9464 20.8935 54.5963 18.7529C50.9125 22.8874 39.4185 22.902 35.5322 31.0546Z" fill="black" fill-opacity="0.16"/>
<path fill-rule="evenodd" clip-rule="evenodd" d="M5.10498 42.2553C8.60589 57.5718 22.2526 69 38.5614 69C57.5247 69 72.8887 53.5489 72.8887 34.5H70.8887C70.8887 52.4541 56.4104 67 38.5614 67C23.9671 67 11.6262 57.2751 7.61095 43.9139C6.61119 43.6314 5.73996 43.0426 5.10498 42.2553Z" fill="#A8B6C6"/>
</svg>
