<svg width="82" height="69" viewBox="0 0 82 69" fill="none" xmlns="http://www.w3.org/2000/svg">
<ellipse cx="46.4464" cy="34.5" rx="33.3273" ry="33.5" fill="#EBF3FA"/>
<path fill-rule="evenodd" clip-rule="evenodd" d="M12.1191 34.5C12.1191 15.451 27.4831 0 46.4464 0C65.4097 0 80.7737 15.451 80.7737 34.5H78.7737C78.7737 16.5458 64.2954 2 46.4464 2C28.5974 2 14.1191 16.5458 14.1191 34.5H12.1191Z" fill="#A8B6C6"/>
<path d="M4.88477 11.6586H51.846V37.8745C51.846 40.6359 49.6074 42.8745 46.846 42.8745H9.88477C7.12334 42.8745 4.88477 40.6359 4.88477 37.8745V11.6586Z" fill="white"/>
<rect x="4.88501" y="1.76117" width="47.7186" height="41.1136" rx="4" stroke="#112E51" stroke-width="2"/>
<path d="M4.88501 6.76117C4.88501 3.99975 7.12359 1.76117 9.88501 1.76117H47.6036C50.3651 1.76117 52.6036 3.99975 52.6036 6.76117V11.6589H4.88501V6.76117Z" fill="#112E51"/>
<ellipse cx="8.71544" cy="6.32905" rx="0.801137" ry="0.761363" fill="white"/>
<ellipse cx="11.9195" cy="6.32887" rx="0.801137" ry="0.761363" fill="white"/>
<ellipse cx="15.1246" cy="6.32887" rx="0.801137" ry="0.761363" fill="white"/>
<path d="M33.5505 6.7096H49.5733" stroke="white" stroke-width="3" stroke-linecap="round"/>
<rect width="18.936" height="21.3182" rx="1" transform="matrix(1 0 0 -1 8.67212 36.7841)" fill="#A8B6C6"/>
<rect width="10.6041" height="3.04545" rx="1" transform="matrix(1 0 0 -1 29.1226 30.6932)" fill="#A8B6C6"/>
<rect width="10.6041" height="3.04545" rx="1" transform="matrix(1 0 0 -1 29.1226 24.6021)" fill="#A8B6C6"/>
<rect width="10.6041" height="3.04545" rx="1" transform="matrix(1 0 0 -1 29.1226 18.5113)" fill="#A8B6C6"/>
<mask id="path-14-outside-1" maskUnits="userSpaceOnUse" x="0.340088" y="12" width="20" height="20" fill="black">
<rect fill="white" x="0.340088" y="12" width="20" height="20"/>
<path d="M18.1357 23.9226L16.7002 23.129C16.8451 22.3806 16.8451 21.6129 16.7002 20.8645L18.1357 20.071C18.3008 19.9807 18.375 19.7936 18.3211 19.6194C17.947 18.471 17.3102 17.4323 16.4778 16.5678C16.3498 16.4355 16.1409 16.4032 15.9791 16.4936L14.5436 17.2871C13.9405 16.7903 13.2463 16.4065 12.4949 16.1549V14.571C12.4949 14.3904 12.3634 14.2323 12.1781 14.1936C10.9414 13.9291 9.67443 13.942 8.49841 14.1936C8.31307 14.2323 8.18165 14.3904 8.18165 14.571V16.1581C7.43358 16.4129 6.73943 16.7968 6.13288 17.2903L4.70076 16.4968C4.53565 16.4065 4.3301 16.4355 4.20205 16.571C3.36973 17.4323 2.73286 18.471 2.35883 19.6226C2.30154 19.7968 2.37905 19.9839 2.54416 20.0742L3.97965 20.8677C3.83475 21.6161 3.83475 22.3839 3.97965 23.1323L2.54416 23.9258C2.37905 24.0161 2.30491 24.2032 2.35883 24.3774C2.73286 25.5258 3.36973 26.5645 4.20205 27.429C4.3301 27.5613 4.53902 27.5935 4.70076 27.5032L6.13625 26.7097C6.73943 27.2064 7.43358 27.5903 8.18502 27.8419V29.429C8.18502 29.6096 8.31644 29.7677 8.50178 29.8064C9.73845 30.0709 11.0055 30.058 12.1815 29.8064C12.3668 29.7677 12.4982 29.6096 12.4982 29.429V27.8419C13.2463 27.5871 13.9405 27.2032 14.547 26.7097L15.9825 27.5032C16.1476 27.5935 16.3532 27.5645 16.4812 27.429C17.3135 26.5677 17.9504 25.529 18.3244 24.3774C18.375 24.2 18.3008 24.0129 18.1357 23.9226Z"/>
</mask>
<path d="M18.1357 23.9226L16.7002 23.129C16.8451 22.3806 16.8451 21.6129 16.7002 20.8645L18.1357 20.071C18.3008 19.9807 18.375 19.7936 18.3211 19.6194C17.947 18.471 17.3102 17.4323 16.4778 16.5678C16.3498 16.4355 16.1409 16.4032 15.9791 16.4936L14.5436 17.2871C13.9405 16.7903 13.2463 16.4065 12.4949 16.1549V14.571C12.4949 14.3904 12.3634 14.2323 12.1781 14.1936C10.9414 13.9291 9.67443 13.942 8.49841 14.1936C8.31307 14.2323 8.18165 14.3904 8.18165 14.571V16.1581C7.43358 16.4129 6.73943 16.7968 6.13288 17.2903L4.70076 16.4968C4.53565 16.4065 4.3301 16.4355 4.20205 16.571C3.36973 17.4323 2.73286 18.471 2.35883 19.6226C2.30154 19.7968 2.37905 19.9839 2.54416 20.0742L3.97965 20.8677C3.83475 21.6161 3.83475 22.3839 3.97965 23.1323L2.54416 23.9258C2.37905 24.0161 2.30491 24.2032 2.35883 24.3774C2.73286 25.5258 3.36973 26.5645 4.20205 27.429C4.3301 27.5613 4.53902 27.5935 4.70076 27.5032L6.13625 26.7097C6.73943 27.2064 7.43358 27.5903 8.18502 27.8419V29.429C8.18502 29.6096 8.31644 29.7677 8.50178 29.8064C9.73845 30.0709 11.0055 30.058 12.1815 29.8064C12.3668 29.7677 12.4982 29.6096 12.4982 29.429V27.8419C13.2463 27.5871 13.9405 27.2032 14.547 26.7097L15.9825 27.5032C16.1476 27.5935 16.3532 27.5645 16.4812 27.429C17.3135 26.5677 17.9504 25.529 18.3244 24.3774C18.375 24.2 18.3008 24.0129 18.1357 23.9226Z" fill="#112E51"/>
<path d="M18.1357 23.9226L17.41 25.2354L17.4159 25.2385L18.1357 23.9226ZM16.7002 23.129L15.2276 22.8439L15.0203 23.9143L15.9745 24.4418L16.7002 23.129ZM16.7002 20.8645L15.9745 19.5518L15.0203 20.0792L15.2276 21.1496L16.7002 20.8645ZM18.1357 20.071L17.4158 18.755L17.41 18.7582L18.1357 20.071ZM18.3211 19.6194L19.754 19.1759L19.7507 19.1653L19.7473 19.1548L18.3211 19.6194ZM16.4778 16.5678L17.5584 15.5274L17.5555 15.5244L16.4778 16.5678ZM15.9791 16.4936L16.7048 17.8063L16.7105 17.8032L15.9791 16.4936ZM14.5436 17.2871L13.59 18.445L14.377 19.0931L15.2693 18.5999L14.5436 17.2871ZM12.4949 16.1549H10.9949V17.2345L12.0186 17.5772L12.4949 16.1549ZM12.1781 14.1936L11.8644 15.6604L11.8714 15.6619L12.1781 14.1936ZM8.49841 14.1936L8.80509 15.6619L8.81223 15.6604L8.49841 14.1936ZM8.18165 16.1581L8.66535 17.578L9.68165 17.2317V16.1581H8.18165ZM6.13288 17.2903L5.40587 18.6024L6.29296 19.0939L7.07961 18.4538L6.13288 17.2903ZM4.70076 16.4968L5.42778 15.1847L5.42064 15.1808L4.70076 16.4968ZM4.20205 16.571L5.2807 17.6134L5.28648 17.6074L5.2922 17.6013L4.20205 16.571ZM2.35883 19.6226L3.78376 20.0912L3.78546 20.086L2.35883 19.6226ZM2.54416 20.0742L3.26987 18.7614L3.26403 18.7582L2.54416 20.0742ZM3.97965 20.8677L5.4523 21.1529L5.65955 20.0825L4.70535 19.555L3.97965 20.8677ZM3.97965 23.1323L4.70535 24.445L5.65955 23.9175L5.4523 22.8471L3.97965 23.1323ZM2.54416 23.9258L3.26404 25.2418L3.26986 25.2386L2.54416 23.9258ZM2.35883 24.3774L0.925894 24.8209L0.929156 24.8315L0.932573 24.842L2.35883 24.3774ZM4.20205 27.429L3.12145 28.4694L3.12438 28.4724L4.20205 27.429ZM4.70076 27.5032L3.97505 26.1904L3.96943 26.1936L4.70076 27.5032ZM6.13625 26.7097L7.08986 25.5518L6.30285 24.9036L5.41055 25.3969L6.13625 26.7097ZM8.18502 27.8419H9.68502V26.7623L8.66129 26.4195L8.18502 27.8419ZM8.50178 29.8064L8.81552 28.3396L8.80845 28.3381L8.50178 29.8064ZM12.1815 29.8064L11.8748 28.3381L11.8677 28.3396L12.1815 29.8064ZM12.4982 27.8419L12.0145 26.422L10.9982 26.7683V27.8419H12.4982ZM14.547 26.7097L15.2727 25.3969L14.3861 24.9068L13.6003 25.5462L14.547 26.7097ZM15.9825 27.5032L15.2568 28.816L15.2626 28.8192L15.9825 27.5032ZM16.4812 27.429L15.4026 26.3866L15.3968 26.3926L15.3911 26.3987L16.4812 27.429ZM18.3244 24.3774L19.7511 24.8408L19.7595 24.8147L19.767 24.7884L18.3244 24.3774ZM18.8614 22.6098L17.4259 21.8163L15.9745 24.4418L17.41 25.2353L18.8614 22.6098ZM18.1729 23.4142C18.3542 22.4774 18.3542 21.5161 18.1729 20.5794L15.2276 21.1496C15.336 21.7097 15.336 22.2839 15.2276 22.8439L18.1729 23.4142ZM17.4259 22.1773L18.8614 21.3837L17.41 18.7582L15.9745 19.5518L17.4259 22.1773ZM18.8556 21.3869C19.6446 20.9553 20.0195 20.0335 19.754 19.1759L16.8881 20.0629C16.7305 19.5536 16.957 19.006 17.4159 18.755L18.8556 21.3869ZM19.7473 19.1548C19.3003 17.7823 18.5417 16.5487 17.5584 15.5274L15.3972 17.6081C16.0786 18.3159 16.5938 19.1596 16.8948 20.0839L19.7473 19.1548ZM17.5555 15.5244C16.9601 14.9094 16.0102 14.7582 15.2478 15.1839L16.7105 17.8032C16.2716 18.0483 15.7395 17.9616 15.4002 17.6111L17.5555 15.5244ZM15.2534 15.1808L13.8179 15.9743L15.2693 18.5999L16.7048 17.8063L15.2534 15.1808ZM15.4972 16.1293C14.7508 15.5145 13.8944 15.0416 12.9711 14.7325L12.0186 17.5772C12.5982 17.7713 13.1302 18.0662 13.59 18.445L15.4972 16.1293ZM13.9949 16.1549V14.571H10.9949V16.1549H13.9949ZM13.9949 14.571C13.9949 13.6433 13.3286 12.9015 12.4848 12.7253L11.8714 15.6619C11.3982 15.5631 10.9949 15.1374 10.9949 14.571H13.9949ZM12.4919 12.7268C11.0432 12.4169 9.56226 12.432 8.18458 12.7268L8.81223 15.6604C9.7866 15.4519 10.8397 15.4412 11.8644 15.6604L12.4919 12.7268ZM8.19173 12.7253C7.34787 12.9015 6.68165 13.6433 6.68165 14.571H9.68165C9.68165 15.1374 9.27828 15.5631 8.80508 15.6619L8.19173 12.7253ZM6.68165 14.571V16.1581H9.68165V14.571H6.68165ZM7.69796 14.7382C6.783 15.0499 5.93179 15.5201 5.18615 16.1269L7.07961 18.4538C7.54706 18.0735 8.08417 17.7759 8.66535 17.578L7.69796 14.7382ZM6.85989 15.9783L5.42777 15.1848L3.97375 17.8088L5.40587 18.6024L6.85989 15.9783ZM5.42064 15.1808C4.6819 14.7767 3.72718 14.8897 3.1119 15.5407L5.2922 17.6013C4.93301 17.9814 4.3894 18.0362 3.98089 17.8128L5.42064 15.1808ZM3.1234 15.5286C2.13818 16.5481 1.37914 17.7831 0.93219 19.1592L3.78546 20.086C4.08659 19.1588 4.60129 18.3164 5.2807 17.6134L3.1234 15.5286ZM0.933901 19.154C0.639289 20.0499 1.05719 20.9706 1.82429 21.3902L3.26403 18.7582C3.7009 18.9972 3.9638 19.5437 3.78375 20.0912L0.933901 19.154ZM1.81846 21.387L3.25395 22.1805L4.70535 19.555L3.26986 18.7614L1.81846 21.387ZM2.507 20.5826C2.32564 21.5193 2.32564 22.4807 2.507 23.4174L5.4523 22.8471C5.34387 22.2871 5.34387 21.7129 5.4523 21.1529L2.507 20.5826ZM3.25395 21.8195L1.81846 22.613L3.26986 25.2386L4.70535 24.445L3.25395 21.8195ZM1.82429 22.6098C1.03524 23.0415 0.66043 23.9632 0.925894 24.8209L3.79176 23.9339C3.94939 24.4432 3.72285 24.9908 3.26403 25.2418L1.82429 22.6098ZM0.932573 24.842C1.37961 26.2145 2.13823 27.4481 3.12146 28.4694L5.28264 26.3887C4.60124 25.6809 4.08612 24.8371 3.78508 23.9129L0.932573 24.842ZM3.12438 28.4724C3.71981 29.0874 4.66973 29.2386 5.4321 28.8128L3.96943 26.1936C4.40831 25.9485 4.94039 26.0352 5.27972 26.3856L3.12438 28.4724ZM5.42647 28.816L6.86196 28.0224L5.41055 25.3969L3.97506 26.1904L5.42647 28.816ZM5.18265 27.8675C5.92913 28.4823 6.78548 28.9551 7.70876 29.2643L8.66129 26.4195C8.08169 26.2255 7.54973 25.9305 7.08986 25.5518L5.18265 27.8675ZM6.68502 27.8419V29.429H9.68502V27.8419H6.68502ZM6.68502 29.429C6.68502 30.3567 7.35124 31.0985 8.1951 31.2747L8.80845 28.3381C9.28164 28.4369 9.68502 28.8626 9.68502 29.429H6.68502ZM8.18803 31.2732C9.63669 31.5831 11.1176 31.568 12.4953 31.2732L11.8677 28.3396C10.8933 28.5481 9.84022 28.5588 8.81552 28.3396L8.18803 31.2732ZM12.4882 31.2747C13.332 31.0985 13.9982 30.3567 13.9982 29.429H10.9982C10.9982 28.8626 11.4016 28.4369 11.8748 28.3381L12.4882 31.2747ZM13.9982 29.429V27.8419H10.9982V29.429H13.9982ZM12.9819 29.2618C13.8969 28.9501 14.7481 28.4799 15.4937 27.8731L13.6003 25.5462C13.1328 25.9265 12.5957 26.2241 12.0145 26.422L12.9819 29.2618ZM13.8213 28.0224L15.2568 28.816L16.7082 26.1904L15.2727 25.3969L13.8213 28.0224ZM15.2626 28.8192C16.0014 29.2233 16.9561 29.1104 17.5714 28.4593L15.3911 26.3987C15.7502 26.0186 16.2939 25.9638 16.7024 26.1872L15.2626 28.8192ZM17.5599 28.4714C18.5451 27.4519 19.3041 26.2169 19.7511 24.8408L16.8978 23.914C16.5967 24.8412 16.082 25.6836 15.4026 26.3866L17.5599 28.4714ZM19.767 24.7884C20.0041 23.9563 19.6526 23.0426 18.8556 22.6066L17.4159 25.2385C16.949 24.9832 16.7459 24.4437 16.8818 23.9664L19.767 24.7884Z" fill="white" mask="url(#path-14-outside-1)"/>
<circle cx="10.3401" cy="22" r="2" fill="white"/>
<path fill-rule="evenodd" clip-rule="evenodd" d="M63.0979 49.842V45.8117C66.8971 44.017 69.6281 40.3492 70.0837 36.0084C71.3675 35.828 72.355 34.7309 72.355 33.4045V30.3361C72.355 29.033 71.4019 27.9512 70.1509 27.7425V26.3911C70.1509 19.6128 64.6249 14.1178 57.8081 14.1178C50.9914 14.1178 45.4653 19.6128 45.4653 26.3911V27.7425C44.2144 27.9512 43.2612 29.033 43.2612 30.3361V33.4045C43.2612 34.7309 44.2487 35.828 45.5325 36.0084C45.9881 40.3492 48.7191 44.017 52.5183 45.8117V49.842H51.6367C42.8723 49.842 35.7673 56.9069 35.7673 65.622V66.3069L38.9861 67.5944H51.3676C58.6758 66.1439 67.9403 62.0897 73.9675 53.3588C71.2401 51.1596 67.7646 49.842 63.9795 49.842H63.0979Z" fill="#D0C6AC"/>
<mask id="mask0" mask-type="alpha" maskUnits="userSpaceOnUse" x="35" y="14" width="45" height="54">
<path fill-rule="evenodd" clip-rule="evenodd" d="M63.0979 45.8117V49.842H63.9795V49.842C72.7439 49.842 79.8489 56.9069 79.8489 65.622V67.5944H35.7673V65.622C35.7673 56.9069 42.8723 49.842 51.6367 49.842V49.842H52.5183V45.8117C48.7191 44.017 45.9881 40.3492 45.5325 36.0084C44.2487 35.828 43.2612 34.7309 43.2612 33.4045V30.3361C43.2612 29.033 44.2144 27.9512 45.4653 27.7425V26.3911V26.3911C45.4653 19.6128 50.9914 14.1178 57.8081 14.1178V14.1178V14.1178C64.6249 14.1178 70.1509 19.6128 70.1509 26.3911V27.7425C71.4019 27.9512 72.355 29.033 72.355 30.3361V33.4045C72.355 34.7309 71.3675 35.828 70.0837 36.0084C69.6281 40.3492 66.8971 44.017 63.0979 45.8117Z" fill="white"/>
</mask>
<g mask="url(#mask0)">
<path fill-rule="evenodd" clip-rule="evenodd" d="M86.902 14.1176H28.7144V67.5942H35V66L38.9855 67.5942H51.3676C62.2287 65.4385 77.4107 57.5321 79.8661 37.0704H81.7002V67.5942H86.902V14.1176Z" fill="#D08B5B"/>
</g>
<mask id="mask1" mask-type="alpha" maskUnits="userSpaceOnUse" x="35" y="14" width="45" height="54">
<path fill-rule="evenodd" clip-rule="evenodd" d="M63.0979 45.8117V49.842H63.9795V49.842C72.7439 49.842 79.8489 56.9069 79.8489 65.622V67.5944H35.7673V65.622C35.7673 56.9069 42.8723 49.842 51.6367 49.842V49.842H52.5183V45.8117C48.7191 44.017 45.9881 40.3492 45.5325 36.0084C44.2487 35.828 43.2612 34.7309 43.2612 33.4045V30.3361C43.2612 29.033 44.2144 27.9512 45.4653 27.7425V26.3911V26.3911C45.4653 19.6128 50.9914 14.1178 57.8081 14.1178V14.1178V14.1178C64.6249 14.1178 70.1509 19.6128 70.1509 26.3911V27.7425C71.4019 27.9512 72.355 29.033 72.355 30.3361V33.4045C72.355 34.7309 71.3675 35.828 70.0837 36.0084C69.6281 40.3492 66.8971 44.017 63.0979 45.8117Z" fill="white"/>
</mask>
<g mask="url(#mask1)">
<path d="M70.151 31.4316V36.4725C70.151 43.2508 64.6249 48.7458 57.8082 48.7458C50.9914 48.7458 45.4653 43.2508 45.4653 36.4725V31.4316V34.7191C45.4653 41.4975 50.9914 46.9925 57.8082 46.9925C64.6249 46.9925 70.151 41.4975 70.151 34.7191V31.4316Z" fill="black" fill-opacity="0.1"/>
</g>
<path fill-rule="evenodd" clip-rule="evenodd" d="M74.0483 53.2413C68.2468 61.7265 59.3951 65.8279 52.1926 67.4213H35.7673V65.4572C35.7673 57.0946 42.2896 50.2491 50.5447 49.6904C50.538 49.7724 50.5347 49.8549 50.5347 49.938C50.5347 52.5419 53.8404 54.6527 57.9183 54.6527C61.9962 54.6527 65.302 52.5419 65.302 49.938C65.302 49.8605 65.299 49.7835 65.2933 49.7069C68.6034 49.9771 71.6259 51.2589 74.0483 53.2413Z" fill="#E6E6E6"/>
<mask id="mask2" mask-type="alpha" maskUnits="userSpaceOnUse" x="35" y="49" width="45" height="19">
<path fill-rule="evenodd" clip-rule="evenodd" d="M65.2933 49.7069C73.4431 50.372 79.8489 57.1696 79.8489 65.4572V67.4213H35.7673V65.4572C35.7673 57.0946 42.2896 50.2491 50.5447 49.6904C50.538 49.7724 50.5347 49.8549 50.5347 49.938C50.5347 52.5419 53.8404 54.6527 57.9183 54.6527C61.9962 54.6527 65.302 52.5419 65.302 49.938C65.302 49.8605 65.299 49.7835 65.2933 49.7069Z" fill="white"/>
</mask>
<g mask="url(#mask2)">
<path fill-rule="evenodd" clip-rule="evenodd" d="M28.7144 43.2767H78.6447C74.3033 58.7281 61.7852 65.299 52.1924 67.4212H38.553L35 66V67.4212H28.7144V43.2767ZM81.7003 43.2767V67.4212H86.902V43.2767H81.7003Z" fill="#262E33"/>
</g>
<mask id="mask3" mask-type="alpha" maskUnits="userSpaceOnUse" x="35" y="49" width="45" height="19">
<path fill-rule="evenodd" clip-rule="evenodd" d="M65.2933 49.7069C73.4431 50.372 79.8489 57.1696 79.8489 65.4572V67.4213H35.7673V65.4572C35.7673 57.0946 42.2896 50.2491 50.5447 49.6904C50.538 49.7724 50.5347 49.8549 50.5347 49.938C50.5347 52.5419 53.8404 54.6527 57.9183 54.6527C61.9962 54.6527 65.302 52.5419 65.302 49.938C65.302 49.8605 65.299 49.7835 65.2933 49.7069Z" fill="white"/>
</mask>
<g mask="url(#mask3)">
<g opacity="0.6">
<ellipse cx="57.9185" cy="50.2671" rx="8.73589" ry="5.90746" fill="black" fill-opacity="0.16"/>
</g>
</g>
<path fill-rule="evenodd" clip-rule="evenodd" d="M35.7673 65.457C35.7673 56.9654 42.4925 50.038 50.928 49.6688C50.2569 52.2169 49.8734 55.1673 49.8734 58.3121C49.8734 61.6503 50.3056 64.7696 51.0552 67.4211H38.5528L35.7673 66.3069V65.457ZM74.049 53.2404C71.7043 56.6701 68.8612 59.3836 65.8301 61.5048C65.9184 60.4696 65.9645 59.4024 65.9645 58.3118C65.9645 55.1718 65.5821 52.2254 64.9129 49.6799C68.372 49.8794 71.5339 51.1823 74.049 53.2404Z" fill="#3A4C5A"/>
<path d="M50.9755 49.4224C50.0939 53.666 50.4612 59.6655 52.0776 67.421H48.551L45.4653 59.5192L46.7878 57.5438L45.4653 56.2268L49.6531 49.6419C50.1 49.5035 50.5408 49.4303 50.9755 49.4224Z" fill="#2F4351"/>
<path fill-rule="evenodd" clip-rule="evenodd" d="M69.4946 58.539L68.8283 57.5437L70.1507 56.2267L65.963 49.6419C65.5161 49.5034 65.0753 49.4302 64.6405 49.4224C65.3227 52.7057 65.2571 57.0403 64.4438 62.4261C66.1918 61.3226 67.8942 60.0344 69.4946 58.539Z" fill="#2F4351"/>
<path d="M54.6821 38.9174C54.6821 40.6131 56.0335 41.9877 57.7005 41.9877V41.9877C59.3676 41.9877 60.7189 40.6131 60.7189 38.9174" fill="black" fill-opacity="0.7"/>
<path d="M55.113 34.7509C55.113 35.7198 56.2714 36.5053 57.7002 36.5053V36.5053C59.1291 36.5053 60.2874 35.7198 60.2874 34.7509" fill="black" fill-opacity="0.16"/>
<ellipse cx="52.0949" cy="30.8031" rx="1.2936" ry="1.31584" fill="black" fill-opacity="0.6"/>
<ellipse cx="63.3061" cy="30.8031" rx="1.2936" ry="1.31584" fill="black" fill-opacity="0.6"/>
<path d="M48.9968 27.9869C49.8409 26.7788 52.1549 26.1013 54.1481 26.5992C54.3794 26.657 54.6129 26.5131 54.6697 26.2779C54.7265 26.0426 54.5851 25.8051 54.3538 25.7473C52.039 25.1691 49.3594 25.9536 48.2939 27.4787C48.1559 27.6762 48.2014 27.95 48.3956 28.0903C48.5897 28.2306 48.8589 28.1843 48.9968 27.9869Z" fill="black" fill-opacity="0.6"/>
<path d="M66.4038 27.9869C65.5598 26.7788 63.2458 26.1013 61.2525 26.5992C61.0212 26.657 60.7877 26.5131 60.7309 26.2779C60.6741 26.0426 60.8156 25.8051 61.0468 25.7473C63.3617 25.1691 66.0412 25.9536 67.1068 27.4787C67.2447 27.6762 67.1992 27.95 67.0051 28.0903C66.811 28.2306 66.5418 28.1843 66.4038 27.9869Z" fill="black" fill-opacity="0.6"/>
<path fill-rule="evenodd" clip-rule="evenodd" d="M42.1086 44.0819V24.7191C42.1086 23.9463 42.1954 23.1937 42.3598 22.4709C43.0255 18.0862 45.5484 14.6027 48.4321 12.4561C52.7723 9.22665 60.0851 8.29485 62.6156 12.1327C64.502 11.2923 67.2976 12.0583 69.3649 13.9877C71.4506 16.0477 73.1153 20.5949 72.1249 24.3159C72.1477 24.5928 72.1593 24.8729 72.1593 25.1555V29.9366C71.9672 28.8483 71.1069 27.9917 70.0191 27.8085V27.7722C68.975 24.0345 66.326 21.9008 64.0998 20.1078C63.5195 19.6403 62.9679 19.1961 62.481 18.7526C61.0416 20.368 58.41 21.3545 55.5056 22.4432C50.9767 24.1408 45.7847 26.087 43.4169 31.0542V33.2423C43.4169 34.5591 44.3831 35.6496 45.6429 35.8388C46.023 40.269 48.7524 44.0255 52.575 45.8476V45.9328C53.214 55.5283 51.1268 67.5498 37.5295 63.8745C40.4963 62.1324 42.0668 50.9774 42.1086 44.0819ZM63.0416 45.8479C66.8642 44.0258 69.5936 40.2693 69.9737 35.8391C71.083 35.6725 71.9646 34.8072 72.1595 33.7038V34.0019C72.1595 37.4651 72.9788 40.8789 74.5499 43.9624L76.793 48.3647C75.9484 50.2203 74.9725 51.9163 73.8946 53.4643C71.1816 51.2197 67.7046 49.8715 63.9138 49.8715H63.0416V45.8479Z" fill="#272C2E"/>
<mask id="mask4" mask-type="alpha" maskUnits="userSpaceOnUse" x="37" y="9" width="45" height="56">
<path fill-rule="evenodd" clip-rule="evenodd" d="M42.1086 44.0819V24.7191C42.1086 23.9463 42.1954 23.1937 42.3598 22.4709C43.0255 18.0862 45.5484 14.6027 48.4321 12.4561C52.7723 9.22665 60.0851 8.29485 62.6156 12.1327C64.502 11.2923 67.2976 12.0583 69.3649 13.9877C71.4506 16.0477 73.1153 20.5949 72.1249 24.3159C72.1477 24.5928 72.1593 24.8729 72.1593 25.1555V29.9366C71.9672 28.8483 71.1069 27.9917 70.0191 27.8085V27.7722C68.7029 23.0601 64.8359 20.8975 62.481 18.7526C58.7972 22.8871 47.3031 22.9016 43.4169 31.0542V33.2423C43.4169 34.5591 44.3831 35.6496 45.6429 35.8388C46.023 40.269 48.7524 44.0255 52.575 45.8476V45.9328C53.214 55.5283 51.1268 67.5498 37.5295 63.8745C40.4963 62.1324 42.0668 50.9774 42.1086 44.0819ZM63.0416 45.8479C66.8642 44.0258 69.5936 40.2693 69.9737 35.8391C71.083 35.6725 71.9646 34.8072 72.1595 33.7038V34.0019V34.0019C72.1595 37.4651 72.9788 40.8789 74.5499 43.9624L80.426 55.495C81.9443 58.4748 81.4986 61.9436 79.5678 64.415C78.9519 56.2799 72.1787 49.8715 63.9138 49.8715V49.8715H63.0416V45.8479Z" fill="white"/>
</mask>
<g mask="url(#mask4)">
<path fill-rule="evenodd" clip-rule="evenodd" d="M95.0949 9.60992H37.5295V70.8744H95.0949V9.60992ZM45.63 68.2502C55.8193 68.0464 76.9316 61.5253 79.8662 37.0708H81.7003V68.2502H45.63Z" fill="#4A312C"/>
</g>
<path fill-rule="evenodd" clip-rule="evenodd" d="M43.417 31.0545C47.3032 23.9794 58.7973 23.9668 62.4811 20.3788C64.8312 22.2364 68.6872 23.6735 70.0111 27.7437C68.6872 23.0516 64.8312 20.8933 62.4811 18.7528C58.7973 22.8873 47.3032 22.9019 43.417 31.0545Z" fill="black" fill-opacity="0.16"/>
<path fill-rule="evenodd" clip-rule="evenodd" d="M13.4019 43.875C17.4653 58.3705 30.7178 69 46.4464 69C65.4097 69 80.7737 53.5489 80.7737 34.5H78.7737C78.7737 52.4541 64.2954 67 46.4464 67C31.8379 67 19.4873 57.2562 15.4843 43.875H13.4019Z" fill="#A8B6C6"/>
</svg>
