<svg width="74" height="69" fill="none" xmlns="http://www.w3.org/2000/svg"><ellipse cx="38.561" cy="34.5" rx="33.327" ry="33.5" fill="#EBF3FA"/><path fill-rule="evenodd" clip-rule="evenodd" d="M4.234 34.5C4.234 15.451 19.598 0 38.561 0 57.525 0 72.89 15.451 72.89 34.5h-2C70.889 16.546 56.41 2 38.56 2 20.712 2 6.234 16.546 6.234 34.5h-2z" fill="#A8B6C6"/><path d="M5 11.659h46.96v26.216a5 5 0 01-5 5H10a5 5 0 01-5-5V11.659z" fill="#fff"/><path fill-rule="evenodd" clip-rule="evenodd" d="M4 6a5 5 0 015-5h39.719a5 5 0 015 5v33.114a5 5 0 01-5 5H9a5 5 0 01-5-5V6zm5-3a3 3 0 00-3 3v33.114a3 3 0 003 3h39.719a3 3 0 003-3V6a3 3 0 00-3-3H9z" fill="#112E51"/><path d="M5 6.761a5 5 0 015-5h37.719a5 5 0 015 5v4.898H5V6.76z" fill="#112E51"/><ellipse cx="8.83" cy="6.329" rx=".801" ry=".761" fill="#fff"/><ellipse cx="12.034" cy="6.329" rx=".801" ry=".761" fill="#fff"/><ellipse cx="15.24" cy="6.329" rx=".801" ry=".761" fill="#fff"/><path d="M33.666 6.71h16.022" stroke="#fff" stroke-width="3" stroke-linecap="round"/><rect width="18.936" height="21.318" rx="1" transform="matrix(1 0 0 -1 8.787 36.784)" fill="#A8B6C6"/><rect width="10.604" height="3.045" rx="1" transform="matrix(1 0 0 -1 29.238 30.693)" fill="#A8B6C6"/><rect width="10.604" height="3.045" rx="1" transform="matrix(1 0 0 -1 29.238 24.602)" fill="#A8B6C6"/><rect width="10.604" height="3.045" rx="1" transform="matrix(1 0 0 -1 29.238 18.511)" fill="#A8B6C6"/><mask id="a" maskUnits="userSpaceOnUse" x=".455" y="12" width="20" height="20" fill="#000"><path fill="#fff" d="M.455 12h20v20h-20z"/><path d="M18.25 23.923l-1.435-.794a5.953 5.953 0 000-2.265l1.436-.793a.383.383 0 00.185-.452 7.96 7.96 0 00-1.843-3.051.418.418 0 00-.499-.074l-1.435.793a6.433 6.433 0 00-2.05-1.132V14.57a.39.39 0 00-.316-.377 8.84 8.84 0 00-3.68 0 .39.39 0 00-.316.377v1.587a6.637 6.637 0 00-2.05 1.132l-1.431-.793a.413.413 0 00-.499.074 7.913 7.913 0 00-1.843 3.052.379.379 0 00.185.451l1.436.794a5.953 5.953 0 000 2.264l-1.436.794a.383.383 0 00-.185.451 7.96 7.96 0 001.843 3.052.419.419 0 00.499.074l1.435-.793A6.46 6.46 0 008.3 27.841v1.587c0 .18.131.339.317.377a8.84 8.84 0 003.68 0 .39.39 0 00.316-.377v-1.587a6.637 6.637 0 002.049-1.132l1.435.793c.166.09.371.061.5-.074a7.913 7.913 0 001.842-3.052.391.391 0 00-.188-.454z"/></mask><path d="M18.25 23.923l-1.435-.794a5.953 5.953 0 000-2.265l1.436-.793a.383.383 0 00.185-.452 7.96 7.96 0 00-1.843-3.051.418.418 0 00-.499-.074l-1.435.793a6.433 6.433 0 00-2.05-1.132V14.57a.39.39 0 00-.316-.377 8.84 8.84 0 00-3.68 0 .39.39 0 00-.316.377v1.587a6.637 6.637 0 00-2.05 1.132l-1.431-.793a.413.413 0 00-.499.074 7.913 7.913 0 00-1.843 3.052.379.379 0 00.185.451l1.436.794a5.953 5.953 0 000 2.264l-1.436.794a.383.383 0 00-.185.451 7.96 7.96 0 001.843 3.052.419.419 0 00.499.074l1.435-.793A6.46 6.46 0 008.3 27.841v1.587c0 .18.131.339.317.377a8.84 8.84 0 003.68 0 .39.39 0 00.316-.377v-1.587a6.637 6.637 0 002.049-1.132l1.435.793c.166.09.371.061.5-.074a7.913 7.913 0 001.842-3.052.391.391 0 00-.188-.454z" fill="#112E51"/><path d="M18.25 23.923l-.725 1.312.006.003.72-1.315zm-1.435-.794l-1.472-.285-.208 1.07.955.528.725-1.313zm0-2.265l-.726-1.312-.954.527.208 1.07 1.472-.285zm1.436-.793l-.72-1.316-.006.003.726 1.313zm.185-.452l1.433-.443-.003-.01-.004-.011-1.426.464zm-1.843-3.051l1.08-1.04-.002-.004-1.078 1.044zm-.499-.074l.726 1.312.005-.003-.73-1.31zm-1.435.793l-.954 1.158.787.648.892-.493-.725-1.313zm-2.05-1.132h-1.5v1.08l1.025.342.476-1.422zm-.316-1.961l-.314 1.466.007.002.307-1.468zm-3.68 0l.307 1.468.007-.002-.314-1.466zm-.316 1.964l.483 1.42 1.017-.346v-1.074h-1.5zm-2.05 1.132l-.726 1.312.887.492.787-.64-.947-1.164zm-1.431-.793l.727-1.312-.007-.004-.72 1.316zm-.499.074l1.079 1.042.005-.006.006-.006-1.09-1.03zm-1.843 3.052l1.425.468.001-.005-1.426-.463zm.185.451l.726-1.313-.006-.003-.72 1.316zm1.436.794l1.472.285.208-1.07-.955-.528-.725 1.313zm0 2.264l.725 1.313.955-.527-.208-1.07-1.472.284zm-1.436.794l.72 1.316.006-.003-.726-1.313zm-.185.451l-1.433.444.003.01.004.011 1.426-.465zm1.843 3.052l-1.08 1.04.002.003 1.078-1.043zm.499.074L4.09 26.19l-.006.004.732 1.31zm1.435-.793l.954-1.158-.787-.648-.892.493.725 1.313zM8.3 27.842h1.5v-1.08l-1.024-.343-.476 1.423zm.317 1.964l.314-1.466-.008-.002-.306 1.468zm3.68 0l-.307-1.468-.007.002.313 1.466zm.316-1.964l-.483-1.42-1.017.346v1.074h1.5zm2.049-1.132l.726-1.313-.887-.49-.786.64.947 1.163zm1.435.793l-.725 1.313.006.003.72-1.316zm.5-.074l-1.08-1.042-.005.006-.006.006 1.09 1.03zm1.842-3.052l1.427.464.009-.026.007-.027-1.443-.41zm.537-1.767l-1.435-.794-1.451 2.626 1.435.793 1.451-2.625zm-.688.804a7.455 7.455 0 000-2.835l-2.945.57c.108.56.108 1.135 0 1.695l2.945.57zm-.747-1.237l1.435-.793-1.451-2.626-1.435.794 1.45 2.625zm1.43-.79a1.883 1.883 0 00.898-2.211l-2.866.887a1.117 1.117 0 01.528-1.308l1.44 2.632zm.891-2.232a9.46 9.46 0 00-2.189-3.628l-2.16 2.081a6.46 6.46 0 011.497 2.476l2.852-.93zm-2.191-3.63a1.919 1.919 0 00-2.308-.341l1.462 2.62c-.438.244-.97.158-1.31-.193l2.155-2.087zm-2.303-.344l-1.435.793 1.451 2.626 1.436-.794-1.452-2.625zm.244.948a7.932 7.932 0 00-2.526-1.397l-.952 2.845c.58.194 1.111.49 1.571.868l1.907-2.316zm-1.502.026V14.57h-3v1.584h3zm0-1.584a1.89 1.89 0 00-1.51-1.846l-.614 2.937a1.11 1.11 0 01-.876-1.091h3zm-1.503-1.844a10.339 10.339 0 00-4.307 0l.627 2.933a7.34 7.34 0 013.052 0l.628-2.933zm-4.3-.002a1.89 1.89 0 00-1.51 1.846h3c0 .566-.404.992-.877 1.09l-.613-2.936zm-1.51 1.846v1.587h3v-1.587h-3zm1.016.167a8.136 8.136 0 00-2.512 1.389l1.894 2.327a5.136 5.136 0 011.585-.876l-.967-2.84zm-.838 1.24l-1.432-.793-1.454 2.624 1.432.793 1.454-2.624zm-1.44-.797a1.913 1.913 0 00-2.308.36l2.18 2.06c-.359.38-.903.435-1.311.212l1.44-2.632zm-2.297.348a9.413 9.413 0 00-2.19 3.63l2.852.927a6.412 6.412 0 011.496-2.473L3.238 15.53zm-2.19 3.625a1.879 1.879 0 00.891 2.236l1.44-2.632c.437.24.7.786.52 1.333l-2.85-.937zm.885 2.233l1.436.793 1.451-2.625-1.435-.794-1.452 2.626zm.689-.804a7.453 7.453 0 000 2.834l2.945-.57a4.453 4.453 0 010-1.694l-2.945-.57zm.747 1.237l-1.436.793 1.452 2.626 1.435-.794-1.45-2.625zm-1.43.79a1.883 1.883 0 00-.898 2.21l2.866-.886a1.117 1.117 0 01-.528 1.308l-1.44-2.632zm-.891 2.232a9.46 9.46 0 002.188 3.627l2.162-2.08A6.462 6.462 0 013.9 23.913l-2.852.929zm2.191 3.63a1.918 1.918 0 002.308.34l-1.463-2.618a1.082 1.082 0 011.31.192L3.24 28.472zm2.302.344l1.436-.794-1.451-2.625-1.436.793 1.451 2.626zm-.243-.948a7.934 7.934 0 002.526 1.396l.952-2.845a4.933 4.933 0 01-1.571-.867l-1.907 2.316zm1.502-.026v1.587h3v-1.587h-3zm0 1.587c0 .928.666 1.67 1.51 1.846l.613-2.937c.474.099.877.525.877 1.091h-3zm1.503 1.844c1.449.31 2.93.295 4.307 0l-.627-2.933a7.34 7.34 0 01-3.052 0l-.628 2.933zm4.3.002a1.89 1.89 0 001.51-1.846h-3c0-.566.404-.992.877-1.09l.613 2.936zm1.51-1.846v-1.587h-3v1.587h3zm-1.016-.167a8.135 8.135 0 002.512-1.389l-1.894-2.327a5.137 5.137 0 01-1.585.876l.967 2.84zm.84-1.24l1.435.794 1.451-2.626-1.435-.793-1.452 2.625zm1.44.797a1.913 1.913 0 002.31-.36l-2.181-2.06c.36-.38.903-.435 1.311-.212l-1.44 2.632zm2.298-.348a9.412 9.412 0 002.191-3.63l-2.853-.927a6.41 6.41 0 01-1.496 2.473l2.158 2.084zm2.207-3.683a1.891 1.891 0 00-.911-2.181l-1.44 2.631a1.109 1.109 0 01-.534-1.272l2.885.822z" fill="#fff" mask="url(#a)"/><circle cx="10.455" cy="22" r="2" fill="#fff"/><path fill-rule="evenodd" clip-rule="evenodd" d="M55.213 49.842v-4.03c3.8-1.795 6.53-5.463 6.986-9.803a2.636 2.636 0 002.271-2.604v-3.069a2.635 2.635 0 00-2.204-2.593V26.39c0-6.778-5.526-12.273-12.343-12.273-6.816 0-12.343 5.495-12.343 12.273v1.352a2.635 2.635 0 00-2.204 2.593v3.069c0 1.326.988 2.423 2.272 2.604.455 4.34 3.186 8.008 6.986 9.803v4.03h-.882c-8.765 0-15.87 7.065-15.87 15.78v.685l3.22 1.288h12.38c7.309-1.45 16.574-5.505 22.6-14.236a15.859 15.859 0 00-9.987-3.517h-.882z" fill="#D0C6AC"/><mask id="b" maskUnits="userSpaceOnUse" x="27" y="14" width="45" height="54"><path fill-rule="evenodd" clip-rule="evenodd" d="M55.213 45.812v4.03h.882c8.764 0 15.87 7.065 15.87 15.78v1.973H27.882v-1.973c0-8.715 7.104-15.78 15.869-15.78h.882v-4.03c-3.8-1.795-6.53-5.463-6.986-9.803a2.636 2.636 0 01-2.272-2.604v-3.069c0-1.303.954-2.385 2.205-2.593V26.39c0-6.778 5.526-12.273 12.342-12.273 6.817 0 12.343 5.495 12.343 12.273v1.352a2.635 2.635 0 012.204 2.593v3.069a2.636 2.636 0 01-2.271 2.604c-.456 4.34-3.187 8.008-6.986 9.803z" fill="#fff"/></mask><g mask="url(#b)"><path fill-rule="evenodd" clip-rule="evenodd" d="M79.017 14.118H20.83v53.476h6.285V66l3.986 1.594h12.382C54.344 65.44 69.526 57.532 71.98 37.071h1.834v30.523h5.202V14.118z" fill="#D08B5B"/></g><mask id="c" maskUnits="userSpaceOnUse" x="27" y="14" width="45" height="54"><path fill-rule="evenodd" clip-rule="evenodd" d="M55.213 45.812v4.03h.882c8.764 0 15.87 7.065 15.87 15.78v1.973H27.882v-1.973c0-8.715 7.104-15.78 15.869-15.78h.882v-4.03c-3.8-1.795-6.53-5.463-6.986-9.803a2.636 2.636 0 01-2.272-2.604v-3.069c0-1.303.954-2.385 2.205-2.593V26.39c0-6.778 5.526-12.273 12.342-12.273 6.817 0 12.343 5.495 12.343 12.273v1.352a2.635 2.635 0 012.204 2.593v3.069a2.636 2.636 0 01-2.271 2.604c-.456 4.34-3.187 8.008-6.986 9.803z" fill="#fff"/></mask><g mask="url(#c)"><path d="M62.266 31.432v5.04c0 6.779-5.526 12.274-12.343 12.274-6.816 0-12.342-5.495-12.342-12.273v-5.041 3.287c0 6.779 5.526 12.274 12.342 12.274 6.817 0 12.343-5.495 12.343-12.274v-3.287z" fill="#000" fill-opacity=".1"/></g><path fill-rule="evenodd" clip-rule="evenodd" d="M66.163 53.241c-5.801 8.486-14.653 12.587-21.855 14.18H27.883v-1.964c0-8.362 6.522-15.208 14.777-15.767a2.92 2.92 0 00-.01.248c0 2.604 3.306 4.715 7.384 4.715 4.077 0 7.383-2.111 7.383-4.715 0-.077-.003-.155-.009-.231 3.31.27 6.333 1.552 8.755 3.534z" fill="#E6E6E6"/><mask id="d" maskUnits="userSpaceOnUse" x="27" y="49" width="45" height="19"><path fill-rule="evenodd" clip-rule="evenodd" d="M57.408 49.707c8.15.665 14.556 7.463 14.556 15.75v1.964H27.883v-1.964c0-8.362 6.522-15.208 14.777-15.767a2.92 2.92 0 00-.01.248c0 2.604 3.306 4.715 7.384 4.715 4.077 0 7.383-2.111 7.383-4.715 0-.077-.003-.155-.009-.231z" fill="#fff"/></mask><g mask="url(#d)"><path fill-rule="evenodd" clip-rule="evenodd" d="M20.83 43.277h49.93C66.419 58.728 53.9 65.299 44.308 67.42h-13.64L27.115 66v1.421H20.83V43.277zm52.986 0V67.42h5.201V43.277h-5.201z" fill="#262E33"/></g><mask id="e" maskUnits="userSpaceOnUse" x="27" y="49" width="45" height="19"><path fill-rule="evenodd" clip-rule="evenodd" d="M57.408 49.707c8.15.665 14.556 7.463 14.556 15.75v1.964H27.883v-1.964c0-8.362 6.522-15.208 14.777-15.767a2.92 2.92 0 00-.01.248c0 2.604 3.306 4.715 7.384 4.715 4.077 0 7.383-2.111 7.383-4.715 0-.077-.003-.155-.009-.231z" fill="#fff"/></mask><g mask="url(#e)"><ellipse cx="50.034" cy="50.267" rx="8.736" ry="5.907" fill="#000" fill-opacity=".16" opacity=".6"/></g><path fill-rule="evenodd" clip-rule="evenodd" d="M27.883 65.457c0-8.491 6.725-15.419 15.16-15.788-.67 2.548-1.054 5.498-1.054 8.643 0 3.338.432 6.458 1.181 9.11H30.668l-2.785-1.115v-.85zm38.281-12.216c-2.345 3.43-5.188 6.143-8.219 8.264.089-1.035.135-2.102.135-3.193 0-3.14-.383-6.087-1.052-8.632 3.46.2 6.621 1.502 9.136 3.56z" fill="#3A4C5A"/><path d="M43.09 49.423c-.88 4.243-.514 10.243 1.103 17.998h-3.527l-3.085-7.902 1.322-1.975-1.322-1.317 4.187-6.585a4.748 4.748 0 011.323-.22z" fill="#2F4351"/><path fill-rule="evenodd" clip-rule="evenodd" d="M61.61 58.54l-.666-.996 1.322-1.317-4.188-6.585a4.744 4.744 0 00-1.322-.22c.682 3.284.616 7.619-.197 13.004a33.874 33.874 0 005.05-3.887z" fill="#2F4351"/><path d="M46.797 38.917c0 1.696 1.352 3.07 3.019 3.07s3.018-1.374 3.018-3.07" fill="#000" fill-opacity=".7"/><path d="M47.228 34.75c0 .97 1.159 1.755 2.587 1.755 1.43 0 2.588-.785 2.588-1.754" fill="#000" fill-opacity=".16"/><ellipse cx="44.21" cy="30.803" rx="1.294" ry="1.316" fill="#000" fill-opacity=".6"/><ellipse cx="55.421" cy="30.803" rx="1.294" ry="1.316" fill="#000" fill-opacity=".6"/><path d="M41.112 27.987c.844-1.208 3.158-1.886 5.151-1.388a.44.44 0 00.206-.852c-2.315-.578-4.994.207-6.06 1.732a.443.443 0 00.102.611c.194.14.463.094.601-.103zm17.407 0c-.844-1.208-3.158-1.886-5.151-1.388a.43.43 0 01-.522-.321.44.44 0 01.316-.53c2.315-.579 4.994.206 6.06 1.73a.443.443 0 01-.102.612.427.427 0 01-.601-.103z" fill="#000" fill-opacity=".6"/><path fill-rule="evenodd" clip-rule="evenodd" d="M34.224 44.082V24.719c0-.773.087-1.525.251-2.248.666-4.385 3.189-7.868 6.072-10.015 4.34-3.23 11.653-4.161 14.184-.323 1.886-.84 4.682-.075 6.75 1.855 2.085 2.06 3.75 6.607 2.76 10.328.022.277.034.557.034.84v4.78a2.623 2.623 0 00-2.14-2.127v-.037c-1.045-3.737-3.694-5.871-5.92-7.664a35.718 35.718 0 01-1.619-1.355c-1.44 1.615-4.07 2.602-6.975 3.69-4.53 1.698-9.721 3.644-12.089 8.611v2.188c0 1.317.966 2.408 2.226 2.597a12.26 12.26 0 006.932 10.009v.085c.64 9.595-1.448 21.617-15.045 17.942 2.966-1.743 4.537-12.898 4.579-19.793zm20.933 1.766a12.259 12.259 0 006.932-10.009 2.623 2.623 0 002.186-2.135v.298c0 3.463.819 6.877 2.39 9.96l2.243 4.403a32.376 32.376 0 01-2.898 5.1 15.603 15.603 0 00-9.981-3.593h-.872v-4.024z" fill="#272C2E"/><mask id="f" maskUnits="userSpaceOnUse" x="29" y="9" width="45" height="56"><path fill-rule="evenodd" clip-rule="evenodd" d="M34.224 44.082V24.719c0-.773.087-1.525.251-2.248.666-4.385 3.189-7.868 6.072-10.015 4.34-3.23 11.653-4.161 14.184-.323 1.886-.84 4.682-.075 6.75 1.855 2.085 2.06 3.75 6.607 2.76 10.328.022.277.034.557.034.84v4.78a2.623 2.623 0 00-2.14-2.127v-.037c-1.317-4.712-5.184-6.874-7.539-9.02-3.684 4.135-15.178 4.15-19.064 12.302v2.188c0 1.317.966 2.408 2.226 2.597a12.26 12.26 0 006.932 10.009v.085c.64 9.595-1.448 21.617-15.045 17.942 2.966-1.743 4.537-12.898 4.579-19.793zm20.933 1.766a12.259 12.259 0 006.932-10.009 2.623 2.623 0 002.186-2.135v.298c0 3.463.819 6.877 2.39 9.96l5.876 11.533a8.34 8.34 0 01-.858 8.92c-.616-8.135-7.39-14.543-15.654-14.543h-.872v-4.024z" fill="#fff"/></mask><g mask="url(#f)"><path fill-rule="evenodd" clip-rule="evenodd" d="M87.21 9.61H29.645v61.264H87.21V9.61zM37.745 68.25c10.19-.204 31.302-6.725 34.236-31.18h1.835v31.18h-36.07z" fill="#4A312C"/></g><path fill-rule="evenodd" clip-rule="evenodd" d="M35.532 31.055c3.887-7.075 15.38-7.088 19.064-10.676 2.35 1.857 6.207 3.295 7.53 7.365-1.323-4.692-5.18-6.85-7.53-8.991-3.683 4.134-15.177 4.149-19.064 12.302z" fill="#000" fill-opacity=".16"/><path fill-rule="evenodd" clip-rule="evenodd" d="M5.105 42.255C8.605 57.572 22.253 69 38.561 69 57.525 69 72.89 53.549 72.89 34.5h-2C70.889 52.454 56.41 67 38.56 67c-14.594 0-26.935-9.725-30.95-23.086a4.954 4.954 0 01-2.506-1.659z" fill="#A8B6C6"/></svg>