<svg xmlns="http://www.w3.org/2000/svg" width="71" height="69" fill="none"><g clip-path="url(#a)"><ellipse cx="36.106" cy="34.5" fill="#ebf3fa" rx="33.327" ry="33.5"/><path fill="#a8b6c6" fill-rule="evenodd" d="M1.779 34.5C1.779 15.451 17.143 0 36.106 0 55.07 0 70.434 15.451 70.434 34.5h-2C68.434 16.546 53.955 2 36.106 2S3.78 16.546 3.78 34.5h-2z" clip-rule="evenodd"/><path fill="#fff" d="M2.545 11.659h46.96v26.216a5 5 0 0 1-5 5H7.546a5 5 0 0 1-5-5z"/><path fill="#112e51" fill-rule="evenodd" d="M1.545 6a5 5 0 0 1 5-5h39.719a5 5 0 0 1 5 5v33.114a5 5 0 0 1-5 5H6.544a5 5 0 0 1-5-5V6zm5-3a3 3 0 0 0-3 3v33.114a3 3 0 0 0 3 3h39.719a3 3 0 0 0 3-3V6a3 3 0 0 0-3-3H6.544z" clip-rule="evenodd"/><path fill="#112e51" d="M2.545 6.761a5 5 0 0 1 5-5h37.719a5 5 0 0 1 5 5v4.898H2.545V6.76z"/><ellipse cx="6.375" cy="6.329" fill="#fff" rx=".801" ry=".761"/><ellipse cx="9.579" cy="6.329" fill="#fff" rx=".801" ry=".761"/><ellipse cx="12.784" cy="6.329" fill="#fff" rx=".801" ry=".761"/><path stroke="#fff" stroke-linecap="round" stroke-width="3" d="M31.21 6.71h16.023"/><rect width="18.936" height="21.318" fill="#a8b6c6" rx="1" transform="matrix(1 0 0 -1 6.332 36.784)"/><rect width="10.604" height="3.045" fill="#a8b6c6" rx="1" transform="matrix(1 0 0 -1 26.782 30.693)"/><rect width="10.604" height="3.045" fill="#a8b6c6" rx="1" transform="matrix(1 0 0 -1 26.782 24.602)"/><rect width="10.604" height="3.045" fill="#a8b6c6" rx="1" transform="matrix(1 0 0 -1 26.782 18.511)"/><mask id="b" width="20" height="20" x="-2" y="12" fill="#000" maskUnits="userSpaceOnUse"><path fill="#fff" d="M-2 12h20v20H-2z"/><path d="m15.796 23.923-1.436-.794a6 6 0 0 0 0-2.264l1.436-.794a.38.38 0 0 0 .185-.452 7.96 7.96 0 0 0-1.843-3.051.42.42 0 0 0-.499-.074l-1.435.793a6.4 6.4 0 0 0-2.05-1.132V14.57a.39.39 0 0 0-.316-.377 8.8 8.8 0 0 0-3.68 0 .39.39 0 0 0-.316.377v1.587a6.6 6.6 0 0 0-2.05 1.132l-1.431-.793a.41.41 0 0 0-.499.074 7.9 7.9 0 0 0-1.843 3.052.38.38 0 0 0 .185.451l1.436.794a6 6 0 0 0 0 2.264l-1.436.794a.38.38 0 0 0-.185.452 7.96 7.96 0 0 0 1.843 3.051.42.42 0 0 0 .499.074l1.435-.793c.603.496 1.297.88 2.049 1.132v1.587c0 .18.131.339.317.378a8.8 8.8 0 0 0 3.68 0 .39.39 0 0 0 .316-.378v-1.587a6.6 6.6 0 0 0 2.049-1.132l1.435.793c.165.09.371.062.5-.074a7.9 7.9 0 0 0 1.842-3.051.39.39 0 0 0-.188-.455z"/></mask><path fill="#112e51" d="m15.796 23.923-1.436-.794a6 6 0 0 0 0-2.264l1.436-.794a.38.38 0 0 0 .185-.452 7.96 7.96 0 0 0-1.843-3.051.42.42 0 0 0-.499-.074l-1.435.793a6.4 6.4 0 0 0-2.05-1.132V14.57a.39.39 0 0 0-.316-.377 8.8 8.8 0 0 0-3.68 0 .39.39 0 0 0-.316.377v1.587a6.6 6.6 0 0 0-2.05 1.132l-1.431-.793a.41.41 0 0 0-.499.074 7.9 7.9 0 0 0-1.843 3.052.38.38 0 0 0 .185.451l1.436.794a6 6 0 0 0 0 2.264l-1.436.794a.38.38 0 0 0-.185.452 7.96 7.96 0 0 0 1.843 3.051.42.42 0 0 0 .499.074l1.435-.793c.603.496 1.297.88 2.049 1.132v1.587c0 .18.131.339.317.378a8.8 8.8 0 0 0 3.68 0 .39.39 0 0 0 .316-.378v-1.587a6.6 6.6 0 0 0 2.049-1.132l1.435.793c.165.09.371.062.5-.074a7.9 7.9 0 0 0 1.842-3.051.39.39 0 0 0-.188-.455z"/><path fill="#fff" d="m15.796 23.923-.726 1.312.006.004zm-1.436-.794-1.473-.285-.207 1.07.954.528zm0-2.264-.726-1.313-.954.527.207 1.07zm1.436-.794-.72-1.316-.006.003zm.185-.452 1.433-.443-.003-.01-.004-.011zm-1.843-3.051 1.08-1.04-.003-.004zm-.499-.074.726 1.312.005-.003-.731-1.31zm-1.435.793-.954 1.158.787.648.892-.493-.726-1.313zm-2.05-1.132h-1.5v1.08l1.024.342.477-1.422zm-.316-1.961-.314 1.466.007.002zm-3.68 0 .307 1.468.007-.002zm-.316 1.964.483 1.42 1.017-.346v-1.074zm-2.05 1.132-.726 1.312.887.492.787-.64-.947-1.164zm-1.431-.793.727-1.312-.007-.004zm-.499.074 1.079 1.042.005-.006.006-.006zM.019 19.623l1.425.468.001-.005zm.185.451.726-1.313-.006-.003zm1.436.794 1.472.285.207-1.07-.954-.528zm0 2.264.725 1.313.954-.527-.207-1.07zm-1.436.794.72 1.316.006-.003zm-.185.452-1.433.443.003.01.003.011zm1.843 3.051-1.08 1.04.002.003zm.499.074-.726-1.313-.006.004.732 1.31zm1.435-.793.954-1.158-.787-.648-.893.493zm2.049 1.132h1.5v-1.08L6.32 26.42zm.317 1.965.313-1.467-.007-.002zm3.68 0-.307-1.469-.007.002zm.316-1.965-.484-1.42-1.016.346v1.074zm2.049-1.132.726-1.313-.887-.49-.786.64zm1.435.793-.725 1.313.005.003zm.5-.074-1.08-1.042-.005.006-.006.006zm1.842-3.051 1.427.463.008-.026.008-.027zm.537-1.768-1.435-.794-1.452 2.626 1.436.793zm-.688.804a7.5 7.5 0 0 0 0-2.835l-2.946.57c.109.56.109 1.135 0 1.695zm-.747-1.237 1.435-.793-1.451-2.626-1.436.794zm1.43-.79a1.88 1.88 0 0 0 .898-2.211l-2.866.887a1.12 1.12 0 0 1 .528-1.308zm.891-2.232a9.46 9.46 0 0 0-2.189-3.628l-2.16 2.081a6.46 6.46 0 0 1 1.497 2.476l2.852-.93zm-2.192-3.63a1.92 1.92 0 0 0-2.307-.341l1.462 2.62a1.08 1.08 0 0 1-1.31-.193zm-2.302-.344-1.435.793 1.451 2.626 1.436-.794zm.244.948a7.9 7.9 0 0 0-2.526-1.397l-.953 2.845c.58.194 1.112.49 1.572.868zm-1.502.026V14.57h-3v1.584h3zm0-1.584a1.89 1.89 0 0 0-1.51-1.846l-.614 2.937a1.11 1.11 0 0 1-.876-1.09h3zm-1.503-1.844a10.3 10.3 0 0 0-4.308 0l.628 2.933a7.3 7.3 0 0 1 3.052 0zm-4.3-.002a1.89 1.89 0 0 0-1.51 1.846h3c0 .566-.404.992-.877 1.091zm-1.51 1.846v1.587h3v-1.587zm1.016.167a8.1 8.1 0 0 0-2.512 1.389l1.894 2.327a5.1 5.1 0 0 1 1.585-.876zm-.838 1.24-1.432-.793-1.454 2.624 1.432.793zm-1.44-.797a1.91 1.91 0 0 0-2.308.36l2.18 2.06c-.36.38-.903.435-1.311.212l1.44-2.632zm-2.297.348a9.4 9.4 0 0 0-2.19 3.63l2.852.927a6.4 6.4 0 0 1 1.496-2.473zm-2.19 3.625a1.88 1.88 0 0 0 .891 2.236l1.44-2.632c.437.24.7.786.52 1.333l-2.85-.937zm.885 2.233 1.436.794 1.451-2.626-1.435-.793zm.689-.804a7.5 7.5 0 0 0 0 2.834l2.945-.57a4.5 4.5 0 0 1 0-1.694zm.747 1.237-1.436.793L.93 25.24l1.435-.794zm-1.43.79a1.88 1.88 0 0 0-.898 2.211l2.866-.887a1.12 1.12 0 0 1-.528 1.308zm-.892 2.232a9.46 9.46 0 0 0 2.19 3.627l2.16-2.08a6.46 6.46 0 0 1-1.497-2.476zm2.192 3.63a1.92 1.92 0 0 0 2.308.34l-1.463-2.618a1.08 1.08 0 0 1 1.31.192L.785 28.472zm2.302.344 1.436-.793-1.452-2.626-1.435.794zm-.243-.948a7.9 7.9 0 0 0 2.526 1.396l.952-2.844a4.9 4.9 0 0 1-1.571-.868zm1.502-.026v1.587h3v-1.587zm0 1.587c0 .928.666 1.67 1.51 1.846l.613-2.937c.474.099.877.525.877 1.091zm1.503 1.844c1.449.31 2.93.295 4.307 0l-.627-2.933a7.3 7.3 0 0 1-3.053 0zm4.3.002a1.89 1.89 0 0 0 1.51-1.846h-3c0-.566.404-.992.877-1.09zm1.51-1.846v-1.587h-3v1.587zm-1.016-.167a8.1 8.1 0 0 0 2.512-1.389l-1.894-2.327a5.1 5.1 0 0 1-1.586.876zm.84-1.24 1.435.794 1.451-2.625-1.435-.794-1.452 2.626zm1.44.797a1.91 1.91 0 0 0 2.31-.36L13.05 26.4c.36-.38.903-.435 1.311-.212l-1.44 2.632zm2.298-.348a9.4 9.4 0 0 0 2.191-3.63l-2.853-.927a6.4 6.4 0 0 1-1.495 2.473zm2.207-3.683a1.89 1.89 0 0 0-.912-2.181l-1.44 2.632a1.11 1.11 0 0 1-.533-1.273z" mask="url(#b)"/><circle cx="8" cy="22" r="2" fill="#fff"/><path fill="#d0c6ac" fill-rule="evenodd" d="M52.758 49.842v-4.03c3.8-1.795 6.53-5.463 6.986-9.803a2.636 2.636 0 0 0 2.271-2.605v-3.068a2.635 2.635 0 0 0-2.204-2.593V26.39c0-6.778-5.526-12.273-12.343-12.273S35.125 19.613 35.125 26.39v1.352a2.635 2.635 0 0 0-2.204 2.593v3.069c0 1.326.988 2.423 2.272 2.603.455 4.341 3.186 8.01 6.986 9.804v4.03h-.882c-8.765 0-15.87 7.065-15.87 15.78v.685l3.22 1.287h12.38c7.309-1.45 16.573-5.504 22.6-14.235a15.86 15.86 0 0 0-9.987-3.517z" clip-rule="evenodd"/><mask id="c" width="45" height="54" x="25" y="14" maskUnits="userSpaceOnUse"><path fill="#fff" fill-rule="evenodd" d="M52.758 45.812v4.03h.882c8.764 0 15.869 7.065 15.869 15.78v1.972H25.427v-1.972c0-8.715 7.105-15.78 15.87-15.78h.882v-4.03c-3.8-1.795-6.53-5.463-6.986-9.803a2.636 2.636 0 0 1-2.272-2.605v-3.068c0-1.303.953-2.385 2.204-2.593V26.39c0-6.778 5.526-12.273 12.343-12.273s12.343 5.495 12.343 12.273v1.352a2.635 2.635 0 0 1 2.204 2.593v3.069a2.636 2.636 0 0 1-2.271 2.603c-.456 4.341-3.187 8.01-6.986 9.804z" clip-rule="evenodd"/></mask><g mask="url(#c)"><path fill="#d08b5b" fill-rule="evenodd" d="M76.562 14.118H18.374v53.476h6.286V66l3.986 1.594h12.382C51.888 65.44 67.07 57.532 69.526 37.07h1.834v30.524h5.202z" clip-rule="evenodd"/></g><mask id="d" width="45" height="54" x="25" y="14" maskUnits="userSpaceOnUse"><path fill="#fff" fill-rule="evenodd" d="M52.758 45.812v4.03h.882c8.764 0 15.869 7.065 15.869 15.78v1.972H25.427v-1.972c0-8.715 7.105-15.78 15.87-15.78h.882v-4.03c-3.8-1.795-6.53-5.463-6.986-9.803a2.636 2.636 0 0 1-2.272-2.605v-3.068c0-1.303.953-2.385 2.204-2.593V26.39c0-6.778 5.526-12.273 12.343-12.273s12.343 5.495 12.343 12.273v1.352a2.635 2.635 0 0 1 2.204 2.593v3.069a2.636 2.636 0 0 1-2.271 2.603c-.456 4.341-3.187 8.01-6.986 9.804z" clip-rule="evenodd"/></mask><g mask="url(#d)"><path fill="#000" fill-opacity=".1" d="M59.811 31.432v5.04c0 6.779-5.526 12.274-12.343 12.274S35.125 43.25 35.125 36.472v-5.04 3.287c0 6.779 5.526 12.273 12.343 12.273s12.343-5.494 12.343-12.273z"/></g><path fill="#e6e6e6" fill-rule="evenodd" d="M63.709 53.241c-5.802 8.486-14.654 12.587-21.856 14.18H25.427v-1.964c0-8.362 6.523-15.208 14.778-15.767a3 3 0 0 0-.01.248c0 2.604 3.306 4.715 7.383 4.715 4.078 0 7.384-2.111 7.384-4.715q0-.116-.009-.231c3.31.27 6.333 1.552 8.755 3.534z" clip-rule="evenodd"/><mask id="e" width="45" height="19" x="25" y="49" maskUnits="userSpaceOnUse"><path fill="#fff" fill-rule="evenodd" d="M54.953 49.707c8.15.665 14.556 7.463 14.556 15.75v1.964H25.427v-1.964c0-8.362 6.523-15.208 14.778-15.767a3 3 0 0 0-.01.248c0 2.604 3.306 4.715 7.383 4.715 4.078 0 7.384-2.111 7.384-4.715q0-.116-.009-.231" clip-rule="evenodd"/></mask><g mask="url(#e)"><path fill="#262e33" fill-rule="evenodd" d="M18.375 43.277h49.93c-4.342 15.451-16.86 22.022-26.452 24.144h-13.64L24.66 66v1.421h-6.285zm52.985 0V67.42h5.202V43.277z" clip-rule="evenodd"/></g><mask id="f" width="45" height="19" x="25" y="49" maskUnits="userSpaceOnUse"><path fill="#fff" fill-rule="evenodd" d="M54.953 49.707c8.15.665 14.556 7.463 14.556 15.75v1.964H25.427v-1.964c0-8.362 6.523-15.208 14.778-15.767a3 3 0 0 0-.01.248c0 2.604 3.306 4.715 7.383 4.715 4.078 0 7.384-2.111 7.384-4.715q0-.116-.009-.231" clip-rule="evenodd"/></mask><g mask="url(#f)"><ellipse cx="47.579" cy="50.267" fill="#000" fill-opacity=".16" opacity=".6" rx="8.736" ry="5.907"/></g><path fill="#3a4c5a" fill-rule="evenodd" d="M25.427 65.457c0-8.491 6.726-15.419 15.161-15.788-.67 2.548-1.054 5.498-1.054 8.643 0 3.338.432 6.458 1.181 9.11H28.213l-2.786-1.115zM63.71 53.241c-2.345 3.43-5.188 6.143-8.219 8.264q.133-1.554.135-3.193c0-3.14-.383-6.087-1.052-8.632 3.46.2 6.621 1.502 9.136 3.56z" clip-rule="evenodd"/><path fill="#2f4351" d="M40.636 49.423q-1.323 6.365 1.102 17.998H38.21l-3.085-7.902 1.322-1.975-1.322-1.317 4.187-6.585a4.8 4.8 0 0 1 1.323-.22z"/><path fill="#2f4351" fill-rule="evenodd" d="m59.155 58.54-.667-.996 1.323-1.317-4.188-6.585a4.7 4.7 0 0 0-1.322-.22q1.023 4.926-.197 13.004a34 34 0 0 0 5.05-3.887z" clip-rule="evenodd"/><path fill="#000" fill-opacity=".7" d="M44.342 38.917c0 1.696 1.352 3.07 3.019 3.07s3.018-1.374 3.018-3.07"/><path fill="#000" fill-opacity=".16" d="M44.773 34.75c0 .97 1.158 1.755 2.587 1.755s2.588-.785 2.588-1.754"/><ellipse cx="41.755" cy="30.803" fill="#000" fill-opacity=".6" rx="1.294" ry="1.316"/><ellipse cx="52.966" cy="30.803" fill="#000" fill-opacity=".6" rx="1.294" ry="1.316"/><path fill="#000" fill-opacity=".6" d="M38.657 27.987c.844-1.208 3.158-1.886 5.151-1.388a.44.44 0 0 0 .206-.852c-2.315-.578-4.994.207-6.06 1.732a.443.443 0 0 0 .102.611c.194.14.463.094.6-.103zm17.407 0c-.844-1.208-3.158-1.886-5.151-1.388a.43.43 0 0 1-.522-.321.44.44 0 0 1 .316-.53c2.315-.579 4.994.206 6.06 1.73a.443.443 0 0 1-.102.612.427.427 0 0 1-.601-.103"/><path fill="#272c2e" fill-rule="evenodd" d="M31.769 44.082V24.719c0-.773.087-1.525.25-2.248.667-4.385 3.19-7.868 6.073-10.015 4.34-3.23 11.653-4.161 14.184-.323 1.886-.84 4.682-.075 6.75 1.855 2.085 2.06 3.75 6.607 2.759 10.328q.035.415.035.84v4.78a2.62 2.62 0 0 0-2.14-2.127v-.037c-1.045-3.737-3.694-5.871-5.92-7.664a36 36 0 0 1-1.619-1.355c-1.44 1.615-4.07 2.602-6.975 3.69-4.53 1.698-9.721 3.644-12.089 8.611v2.188c0 1.317.966 2.408 2.226 2.597a12.26 12.26 0 0 0 6.932 10.009v.085c.64 9.595-1.448 21.617-15.045 17.942 2.966-1.743 4.537-12.898 4.579-19.793m20.933 1.766a12.26 12.26 0 0 0 6.932-10.009 2.62 2.62 0 0 0 2.186-2.135v.298c0 3.463.819 6.877 2.39 9.96l2.243 4.403a32.4 32.4 0 0 1-2.898 5.1 15.6 15.6 0 0 0-9.981-3.593h-.872z" clip-rule="evenodd"/><mask id="g" width="44" height="56" x="27" y="9" maskUnits="userSpaceOnUse"><path fill="#fff" fill-rule="evenodd" d="M31.769 44.082V24.719c0-.773.087-1.525.25-2.248.667-4.385 3.19-7.868 6.073-10.015 4.34-3.23 11.653-4.161 14.184-.323 1.886-.84 4.682-.075 6.75 1.855 2.085 2.06 3.75 6.607 2.759 10.328q.035.415.035.84v4.78a2.62 2.62 0 0 0-2.14-2.127v-.037c-1.317-4.712-5.184-6.874-7.539-9.02-3.684 4.135-15.178 4.15-19.064 12.302v2.188c0 1.317.966 2.408 2.226 2.597a12.26 12.26 0 0 0 6.932 10.009v.085c.64 9.595-1.448 21.617-15.045 17.942 2.966-1.743 4.537-12.898 4.579-19.793m20.933 1.766a12.26 12.26 0 0 0 6.932-10.009 2.62 2.62 0 0 0 2.186-2.135v.298c0 3.463.819 6.877 2.39 9.96l5.876 11.533a8.34 8.34 0 0 1-.858 8.92c-.616-8.135-7.39-14.543-15.654-14.543h-.872z" clip-rule="evenodd"/></mask><g mask="url(#g)"><path fill="#4a312c" fill-rule="evenodd" d="M84.755 9.61H27.19v61.264h57.565zM35.29 68.25c10.19-.204 31.302-6.725 34.236-31.18h1.834v31.18z" clip-rule="evenodd"/></g><path fill="#000" fill-opacity=".16" fill-rule="evenodd" d="M33.077 31.055c3.886-7.075 15.38-7.088 19.064-10.676 2.35 1.857 6.206 3.295 7.53 7.365-1.324-4.692-5.18-6.85-7.53-8.991-3.684 4.134-15.178 4.149-19.064 12.302" clip-rule="evenodd"/><path fill="#a8b6c6" fill-rule="evenodd" d="M2.65 42.255C6.15 57.572 19.798 69 36.106 69c18.964 0 34.328-15.451 34.328-34.5h-2c0 17.954-14.479 32.5-32.328 32.5-14.594 0-26.935-9.725-30.95-23.086a4.95 4.95 0 0 1-2.506-1.659" clip-rule="evenodd"/></g><defs><clipPath id="a"><path fill="#fff" d="M0 0h71v69H0z"/></clipPath></defs></svg>