<svg width="69" height="82" viewBox="0 0 69 82" fill="none" xmlns="http://www.w3.org/2000/svg"><path d="M34.5 80.026c18.501 0 33.499-15.019 33.499-33.545 0-18.526-14.998-33.545-33.499-33.545-18.501 0-33.499 15.019-33.499 33.545 0 18.526 14.998 33.545 33.499 33.545z" fill="#EBF3FA"/><path fill-rule="evenodd" clip-rule="evenodd" d="M0 46.48c0-19.077 15.445-34.545 34.5-34.545S69 27.403 69 46.481h-2.001c0-17.975-14.552-32.545-32.499-32.545-17.947 0-32.499 14.57-32.499 32.545H0v-.001z" fill="#A8B6C6"/><path fill-rule="evenodd" clip-rule="evenodd" d="M62.67 46.48H5.57v16.004a33.175 33.175 0 0 0 5.034 6.868H57.67c.267 0 .53-.02.784-.06a33.199 33.199 0 0 0 4.216-5.498V46.48z" fill="#fff"/><path fill-rule="evenodd" clip-rule="evenodd" d="M10.568 30.232a6 6 0 0 0-6 6v24.283a33.016 33.016 0 0 0 2 3.661V36.232a4 4 0 0 1 4-4h47.863a4 4 0 0 1 4 4v27.946a32.995 32.995 0 0 0 2-3.66V36.232a6 6 0 0 0-6-6H10.568zm46.835 40.12a33.233 33.233 0 0 0 2.016-2.123c-.316.08-.647.123-.988.123H10.568c-.34 0-.67-.043-.986-.123.64.737 1.313 1.445 2.015 2.123h45.806z" fill="#112E51"/><path d="M34.12 1.5c9.46 0 17.13 7.704 17.13 17.208l-.001 12.525h-7.994v-12.45c0-5.068-4.09-9.177-9.135-9.177-4.96 0-8.997 3.97-9.133 8.92l-.003.257v12.45h-7.995V18.708C16.99 9.204 24.66 1.5 34.12 1.5z" fill="#fff" stroke="#112E51" stroke-width="2"/><path fill-rule="evenodd" clip-rule="evenodd" d="M34.5 81.026C15.445 81.026 0 65.558 0 46.481h2.001c0 17.975 14.552 32.544 32.499 32.544 17.947 0 32.499-14.57 32.499-32.544H69c0 19.077-15.445 34.545-34.5 34.545z" fill="#A8B6C6"/><path d="M34.5 60.966c6.307 0 11.42-5.12 11.42-11.436S40.807 38.094 34.5 38.094c-6.307 0-11.42 5.12-11.42 11.436s5.113 11.436 11.42 11.436z" fill="#fff"/><path fill-rule="evenodd" clip-rule="evenodd" d="M23.08 49.53c0-6.317 5.111-11.436 11.42-11.436 6.31 0 11.42 5.119 11.42 11.436 0 6.318-5.11 11.436-11.42 11.436-6.309 0-11.42-5.118-11.42-11.436zm17.02 3.786a.556.556 0 0 0 0-.784l-3.02-3.002 3.024-2.997a.556.556 0 0 0 0-.784l-1.823-1.826a.552.552 0 0 0-.783 0L34.5 46.948l-2.993-3.03a.552.552 0 0 0-.783 0L28.9 45.745a.554.554 0 0 0 0 .783l3.021 3.002-3.02 2.998a.554.554 0 0 0 0 .783l1.818 1.827a.553.553 0 0 0 .783 0l2.998-3.026 2.993 3.026a.553.553 0 0 0 .783 0l1.824-1.822z" fill="#E21C3D"/></svg>