<svg xmlns="http://www.w3.org/2000/svg" width="69" height="82" fill="none"><path fill="#ebf3fa" d="M34.5 80.026c18.501 0 33.499-15.019 33.499-33.545S53.001 12.936 34.5 12.936 1.001 27.955 1.001 46.481 15.999 80.026 34.5 80.026"/><path fill="#a8b6c6" fill-rule="evenodd" d="M0 46.48c0-19.077 15.445-34.545 34.5-34.545S69 27.403 69 46.481h-2.001c0-17.975-14.552-32.545-32.499-32.545S2.001 28.506 2.001 46.481H0z" clip-rule="evenodd"/><path fill="#fff" fill-rule="evenodd" d="M62.67 46.48H5.57v16.004a33.2 33.2 0 0 0 5.034 6.868H57.67q.402 0 .784-.06a33.2 33.2 0 0 0 4.216-5.498z" clip-rule="evenodd"/><path fill="#112e51" fill-rule="evenodd" d="M10.568 30.232a6 6 0 0 0-6 6v24.283a33 33 0 0 0 2 3.661V36.232a4 4 0 0 1 4-4h47.863a4 4 0 0 1 4 4v27.946a33 33 0 0 0 2-3.66V36.232a6 6 0 0 0-6-6zm46.835 40.12a33 33 0 0 0 2.016-2.123q-.475.121-.988.123H10.568q-.511-.002-.986-.123.961 1.106 2.015 2.123z" clip-rule="evenodd"/><path fill="#fff" stroke="#112e51" stroke-width="2" d="M34.12 1.5c9.46 0 17.13 7.704 17.13 17.208l-.001 12.525h-7.994v-12.45c0-5.068-4.09-9.177-9.135-9.177-4.96 0-8.997 3.97-9.133 8.92l-.003.257v12.45h-7.995V18.708C16.99 9.204 24.66 1.5 34.12 1.5z"/><path fill="#a8b6c6" fill-rule="evenodd" d="M34.5 81.026C15.445 81.026 0 65.558 0 46.481h2.001c0 17.975 14.552 32.544 32.499 32.544s32.499-14.57 32.499-32.544H69c0 19.077-15.445 34.545-34.5 34.545" clip-rule="evenodd"/><path fill="#fff" d="M34.5 60.966c6.307 0 11.42-5.12 11.42-11.436S40.807 38.094 34.5 38.094s-11.42 5.12-11.42 11.436 5.113 11.436 11.42 11.436"/><path fill="#e21c3d" fill-rule="evenodd" d="M23.08 49.53c0-6.317 5.111-11.436 11.42-11.436s11.42 5.119 11.42 11.436-5.11 11.436-11.42 11.436-11.42-5.118-11.42-11.436m17.02 3.786a.556.556 0 0 0 0-.784l-3.02-3.002 3.024-2.997a.556.556 0 0 0 0-.784l-1.823-1.826a.55.55 0 0 0-.783 0L34.5 46.948l-2.993-3.03a.55.55 0 0 0-.783 0L28.9 45.745a.554.554 0 0 0 0 .783l3.021 3.002-3.02 2.998a.554.554 0 0 0 0 .783l1.818 1.827a.553.553 0 0 0 .783 0l2.998-3.026 2.993 3.026a.553.553 0 0 0 .783 0z" clip-rule="evenodd"/></svg>