<svg width="74" height="83" viewBox="0 0 74 83" fill="none" xmlns="http://www.w3.org/2000/svg">
<ellipse cx="37" cy="45.9524" rx="33.4783" ry="33.5238" fill="#EBF3FA"/>
<path d="M70.4782 45.9524C70.4782 27.4377 55.4895 12.4286 37 12.4286C18.5105 12.4286 3.52173 27.4377 3.52173 45.9524" stroke="#A8B6C6" stroke-width="2"/>
<path d="M8.08691 45.9524H65.1521V63.8095C65.1521 66.571 62.9136 68.8095 60.1521 68.8095H13.0869C10.3255 68.8095 8.08691 66.571 8.08691 63.8095V45.9524Z" fill="white"/>
<rect x="8.08691" y="30.7143" width="57.8261" height="38.0952" rx="5" stroke="#112E51" stroke-width="2"/>
<path d="M2 45.9524C2 65.3087 17.67 81 37 81V81C56.33 81 72 65.3087 72 45.9524" stroke="white" stroke-width="4"/>
<path d="M3.52173 45.9524C3.52173 64.4671 18.5105 79.4762 37 79.4762V79.4762C55.4895 79.4762 70.4782 64.4671 70.4782 45.9524" stroke="#A8B6C6" stroke-width="2"/>
<path d="M36.62 1C46.0746 1 53.7391 8.69945 53.7391 18.1972L53.7383 30.7143H45.7498L45.7502 18.2725C45.7502 13.207 41.6625 9.10065 36.62 9.10065C31.663 9.10065 27.6286 13.069 27.4933 18.0158L27.4898 18.2725L27.4895 30.7143H19.5L19.5009 18.1972C19.5009 8.69945 27.1654 1 36.62 1Z" fill="white" stroke="#112E51" stroke-width="2"/>
<ellipse cx="37" cy="49" rx="11.413" ry="11.4286" fill="white"/>
<path fill-rule="evenodd" clip-rule="evenodd" d="M25.5869 49C25.5869 42.6866 30.6952 37.5714 37 37.5714C43.3047 37.5714 48.413 42.6866 48.413 49C48.413 55.3133 43.3047 60.4286 37 60.4286C30.6952 60.4286 25.5869 55.3133 25.5869 49ZM42.596 52.7834C42.8123 52.5668 42.8123 52.2166 42.596 52L39.5771 49L42.6006 46.0046C42.8169 45.788 42.8169 45.4378 42.6006 45.2212L40.7782 43.3963C40.5619 43.1797 40.2122 43.1797 39.9959 43.3963L37 46.4193L34.0086 43.3917C33.7923 43.1751 33.4426 43.1751 33.2263 43.3917L31.4039 45.2166C31.1876 45.4332 31.1876 45.7834 31.4039 46L34.4228 49L31.4039 51.9954C31.1876 52.212 31.1876 52.5622 31.4039 52.7788L33.2217 54.6037C33.438 54.8203 33.7877 54.8203 34.004 54.6037L37 51.5806L39.9913 54.6037C40.2076 54.8203 40.5573 54.8203 40.7736 54.6037L42.596 52.7834Z" fill="#E21C3D"/>
</svg>
