<svg width="88" height="68" viewBox="0 0 88 68" fill="none" xmlns="http://www.w3.org/2000/svg">
<circle cx="41.0667" cy="32.5333" r="31.5333" fill="#EBF3FA"/>
<path d="M72.6 32.5333C72.6 15.118 58.482 1 41.0667 1C23.6513 1 9.53333 15.118 9.53333 32.5333" stroke="#A8B6C6" stroke-width="2"/>
<path d="M38.1334 11.0901H82.1566V35.6C82.1566 38.3615 79.9181 40.6 77.1566 40.6H43.1334C40.3719 40.6 38.1334 38.3614 38.1334 35.6V11.0901Z" fill="white"/>
<rect x="38.1334" y="1.73334" width="44.7333" height="38.8667" rx="5" stroke="#112E51" stroke-width="2"/>
<path d="M38.1334 6.73334C38.1334 3.97191 40.3719 1.73334 43.1334 1.73334H77.8667C80.6281 1.73334 82.8667 3.97191 82.8667 6.73334V11.0901H38.1334V6.73334Z" fill="#112E51"/>
<ellipse cx="41.7246" cy="6.05185" rx="0.751018" ry="0.719753" fill="white"/>
<ellipse cx="44.7287" cy="6.05185" rx="0.751018" ry="0.719753" fill="white"/>
<ellipse cx="47.7327" cy="6.05185" rx="0.751018" ry="0.719753" fill="white"/>
<path d="M65.0061 6.4117H80.0265" stroke="white" stroke-width="3" stroke-linecap="round"/>
<path d="M32.5 42.509V46.3619H33.3334C41.6176 46.3619 48.3334 53.116 48.3334 61.4476V63.3333H6.66669V61.4476C6.66669 53.116 13.3824 46.3619 21.6667 46.3619H22.5V42.509C18.9089 40.7933 16.3276 37.2868 15.8969 33.137C14.6834 32.9645 13.75 31.9157 13.75 30.6476V27.7143C13.75 26.4685 14.651 25.4343 15.8334 25.2348V23.9429C15.8334 17.4627 21.0567 12.2095 27.5 12.2095C33.9433 12.2095 39.1667 17.4627 39.1667 23.9429V25.2348C40.3491 25.4343 41.25 26.4685 41.25 27.7143V30.6476C41.25 31.9157 40.3166 32.9645 39.1031 33.137C38.6725 37.2868 36.0911 40.7933 32.5 42.509Z" fill="#D0C6AC"/>
<mask id="mask0" mask-type="alpha" maskUnits="userSpaceOnUse" x="6" y="12" width="43" height="52">
<path fill-rule="evenodd" clip-rule="evenodd" d="M32.5 42.509V46.3619H33.3334C41.6176 46.3619 48.3334 53.116 48.3334 61.4476V63.3333H6.66669V61.4476C6.66669 53.116 13.3824 46.3619 21.6667 46.3619H22.5V42.509C18.9089 40.7933 16.3276 37.2868 15.8969 33.137C14.6834 32.9645 13.75 31.9157 13.75 30.6476V27.7143C13.75 26.4685 14.651 25.4343 15.8334 25.2348V23.9429C15.8334 17.4627 21.0567 12.2095 27.5 12.2095C33.9433 12.2095 39.1667 17.4627 39.1667 23.9429V25.2348C40.3491 25.4343 41.25 26.4685 41.25 27.7143V30.6476C41.25 31.9157 40.3166 32.9645 39.1031 33.137C38.6725 37.2868 36.0911 40.7933 32.5 42.509Z" fill="white"/>
</mask>
<g mask="url(#mask0)">
<rect y="12.2095" width="55" height="51.1238" fill="#D08B5B"/>
</g>
<mask id="mask1" mask-type="alpha" maskUnits="userSpaceOnUse" x="6" y="12" width="43" height="52">
<path fill-rule="evenodd" clip-rule="evenodd" d="M32.5 42.509V46.3619H33.3334C41.6176 46.3619 48.3334 53.116 48.3334 61.4476V63.3333H6.66669V61.4476C6.66669 53.116 13.3824 46.3619 21.6667 46.3619H22.5V42.509C18.9089 40.7933 16.3276 37.2868 15.8969 33.137C14.6834 32.9645 13.75 31.9157 13.75 30.6476V27.7143C13.75 26.4685 14.651 25.4343 15.8334 25.2348V23.9429C15.8334 17.4627 21.0567 12.2095 27.5 12.2095C33.9433 12.2095 39.1667 17.4627 39.1667 23.9429V25.2348C40.3491 25.4343 41.25 26.4685 41.25 27.7143V30.6476C41.25 31.9157 40.3166 32.9645 39.1031 33.137C38.6725 37.2868 36.0911 40.7933 32.5 42.509Z" fill="white"/>
</mask>
<g mask="url(#mask1)">
<path d="M39.1667 28.7619V33.5809C39.1667 40.0611 33.9434 45.3143 27.5 45.3143C21.0567 45.3143 15.8334 40.0611 15.8334 33.5809V28.7619V31.9048C15.8334 38.3849 21.0567 43.6381 27.5 43.6381C33.9434 43.6381 39.1667 38.3849 39.1667 31.9048V28.7619Z" fill="black" fill-opacity="0.1"/>
</g>
<path d="M34.5751 46.4237C42.2785 47.0586 48.3334 53.5474 48.3334 61.4585V63.3333H6.66669V61.4585C6.66669 53.4758 12.8317 46.9412 20.6345 46.4079C20.6282 46.4862 20.625 46.565 20.625 46.6443C20.625 49.1299 23.7497 51.1448 27.6042 51.1448C31.4587 51.1448 34.5834 49.1299 34.5834 46.6443C34.5834 46.5703 34.5806 46.4968 34.5751 46.4237Z" fill="#E6E6E6"/>
<mask id="mask2" mask-type="alpha" maskUnits="userSpaceOnUse" x="6" y="46" width="43" height="18">
<path fill-rule="evenodd" clip-rule="evenodd" d="M34.5751 46.4237C42.2785 47.0586 48.3334 53.5474 48.3334 61.4585V63.3333H6.66669V61.4585C6.66669 53.4758 12.8317 46.9412 20.6345 46.4079C20.6282 46.4862 20.625 46.565 20.625 46.6443C20.625 49.1299 23.7497 51.1448 27.6042 51.1448C31.4587 51.1448 34.5834 49.1299 34.5834 46.6443C34.5834 46.5703 34.5806 46.4968 34.5751 46.4237Z" fill="white"/>
</mask>
<g mask="url(#mask2)">
<rect y="40.2857" width="55" height="23.0476" fill="#262E33"/>
</g>
<mask id="mask3" mask-type="alpha" maskUnits="userSpaceOnUse" x="6" y="46" width="43" height="18">
<path fill-rule="evenodd" clip-rule="evenodd" d="M34.5751 46.4237C42.2785 47.0586 48.3334 53.5474 48.3334 61.4585V63.3333H6.66669V61.4585C6.66669 53.4758 12.8317 46.9412 20.6345 46.4079C20.6282 46.4862 20.625 46.565 20.625 46.6443C20.625 49.1299 23.7497 51.1448 27.6042 51.1448C31.4587 51.1448 34.5834 49.1299 34.5834 46.6443C34.5834 46.5703 34.5806 46.4968 34.5751 46.4237Z" fill="white"/>
</mask>
<g mask="url(#mask3)">
<g opacity="0.6">
<ellipse cx="27.6042" cy="46.9585" rx="8.25731" ry="5.63909" fill="black" fill-opacity="0.16"/>
</g>
</g>
<path fill-rule="evenodd" clip-rule="evenodd" d="M6.66669 61.4585C6.66669 53.3526 13.0234 46.7399 20.9969 46.3875C20.3625 48.8198 20 51.6362 20 54.6381C20 57.8247 20.4085 60.8023 21.117 63.3333H6.66669V61.4585ZM48.3334 63.3333H34.0913C34.7999 60.8023 35.2084 57.8247 35.2084 54.6381C35.2084 51.6407 34.8469 48.8282 34.2143 46.3983C42.0886 46.857 48.3334 53.4243 48.3334 61.4585V63.3333Z" fill="#3A4C5A"/>
<path d="M37.7084 58.3048L39.6992 56.8032C39.9998 56.5764 40.4142 56.5801 40.7108 56.8121L42.0834 57.8858L37.7084 58.3048Z" fill="#E6E6E6"/>
<path d="M21.0417 46.1524C20.2084 50.2032 20.5556 55.9302 22.0834 63.3334H18.75L15.8334 55.7905L17.0834 53.9048L15.8334 52.6476L19.7917 46.3619C20.2141 46.2298 20.6308 46.1599 21.0417 46.1524Z" fill="#2F4351"/>
<path d="M33.9584 46.1524C34.7917 50.2032 34.4445 55.9302 32.9167 63.3334H36.25L39.1667 55.7905L37.9167 53.9048L39.1667 52.6476L35.2084 46.3619C34.7859 46.2298 34.3693 46.1599 33.9584 46.1524Z" fill="#2F4351"/>
<path fill-rule="evenodd" clip-rule="evenodd" d="M23.5663 35.9126C23.7866 37.9013 25.4638 39.4476 27.5 39.4476C29.5426 39.4476 31.2238 37.8917 31.4358 35.8941C31.4529 35.7333 31.2744 35.4667 31.0506 35.4667C27.9477 35.4667 25.5704 35.4667 23.9765 35.4667C23.7514 35.4667 23.5442 35.7136 23.5663 35.9126Z" fill="black" fill-opacity="0.7"/>
<mask id="mask4" mask-type="alpha" maskUnits="userSpaceOnUse" x="23" y="35" width="9" height="5">
<path fill-rule="evenodd" clip-rule="evenodd" d="M23.5663 35.9126C23.7866 37.9013 25.4638 39.4476 27.5 39.4476C29.5426 39.4476 31.2238 37.8917 31.4358 35.8941C31.4529 35.7333 31.2744 35.4667 31.0506 35.4667C27.9477 35.4667 25.5704 35.4667 23.9765 35.4667C23.7514 35.4667 23.5442 35.7136 23.5663 35.9126Z" fill="white"/>
</mask>
<g mask="url(#mask4)">
<rect x="24.3751" y="33.1619" width="6.45833" height="3.35238" rx="1.67619" fill="white"/>
</g>
<mask id="mask5" mask-type="alpha" maskUnits="userSpaceOnUse" x="23" y="35" width="9" height="5">
<path fill-rule="evenodd" clip-rule="evenodd" d="M23.5663 35.9126C23.7866 37.9013 25.4638 39.4476 27.5 39.4476C29.5426 39.4476 31.2238 37.8917 31.4358 35.8941C31.4529 35.7333 31.2744 35.4667 31.0506 35.4667C27.9477 35.4667 25.5704 35.4667 23.9765 35.4667C23.7514 35.4667 23.5442 35.7136 23.5663 35.9126Z" fill="white"/>
</mask>
<g mask="url(#mask5)">
<ellipse cx="26.4584" cy="40.0762" rx="2.29167" ry="2.30476" fill="#FF4F6D"/>
<ellipse cx="28.5417" cy="40.0762" rx="2.29167" ry="2.30476" fill="#FF4F6D"/>
</g>
<path d="M25 31.9048C25 32.8305 26.1193 33.581 27.5 33.581C28.8807 33.581 30 32.8305 30 31.9048" fill="black" fill-opacity="0.16"/>
<path d="M19.2001 28.2271C19.5847 27.4311 20.4509 26.8762 21.4578 26.8762C22.4612 26.8762 23.3248 27.4272 23.7116 28.2187C23.8264 28.4538 23.663 28.6462 23.4981 28.5036C22.9874 28.0621 22.2623 27.7863 21.4578 27.7863C20.6786 27.7863 19.9737 28.0451 19.4662 28.4627C19.2806 28.6153 19.0875 28.4599 19.2001 28.2271Z" fill="black" fill-opacity="0.6"/>
<path d="M31.2834 28.2271C31.6681 27.4311 32.5343 26.8762 33.5412 26.8762C34.5445 26.8762 35.4082 27.4272 35.7949 28.2187C35.9097 28.4538 35.7463 28.6462 35.5814 28.5036C35.0707 28.0621 34.3456 27.7863 33.5412 27.7863C32.7619 27.7863 32.057 28.0451 31.5495 28.4627C31.3639 28.6153 31.1709 28.4599 31.2834 28.2271Z" fill="black" fill-opacity="0.6"/>
<path d="M19.0896 25.4427C19.9053 24.2885 22.1412 23.6413 24.0673 24.117C24.2908 24.1722 24.5164 24.0347 24.5713 23.81C24.6262 23.5852 24.4895 23.3583 24.266 23.3031C22.0293 22.7507 19.44 23.5001 18.4104 24.9573C18.2771 25.1459 18.3211 25.4075 18.5086 25.5416C18.6962 25.6756 18.9563 25.6314 19.0896 25.4427Z" fill="black" fill-opacity="0.6"/>
<path d="M35.9104 25.4427C35.0948 24.2885 32.8588 23.6413 30.9328 24.117C30.7093 24.1722 30.4836 24.0347 30.4287 23.81C30.3739 23.5852 30.5105 23.3583 30.734 23.3031C32.9708 22.7507 35.56 23.5001 36.5897 24.9573C36.723 25.1459 36.679 25.4075 36.4914 25.5416C36.3038 25.6756 36.0437 25.6314 35.9104 25.4427Z" fill="black" fill-opacity="0.6"/>
<mask id="mask6" mask-type="alpha" maskUnits="userSpaceOnUse" x="0" y="4" width="55" height="60">
<rect y="4.66669" width="55" height="58.6667" fill="white"/>
</mask>
<g mask="url(#mask6)">
<path fill-rule="evenodd" clip-rule="evenodd" d="M12.5 22.2764V40.8181C12.46 47.4212 10.9595 58.1032 8.125 59.7715C21.1163 63.2909 23.1105 51.7792 22.5 42.5905V42.509C18.8478 40.7641 16.24 37.1669 15.8768 32.9246C14.6731 32.7434 13.75 31.6992 13.75 30.4381V28.3429C16.0123 23.5863 20.9729 21.7226 25.3 20.097C28.0749 19.0544 30.5893 18.1098 31.9645 16.5628C32.4297 16.9875 32.9567 17.413 33.5112 17.8606C35.6382 19.5776 38.1692 21.6208 39.1667 25.2V25.2348C40.206 25.4102 41.0279 26.2305 41.2116 27.2727V22.6943C41.2116 22.4236 41.2004 22.1555 41.1786 21.8903C42.1249 18.3271 40.5344 13.9727 38.5417 12C36.5665 10.1525 33.8955 9.41891 32.0931 10.2237C29.6754 6.54857 22.6885 7.44087 18.5417 10.5334C15.7865 12.589 13.376 15.9247 12.74 20.1235C12.5829 20.8157 12.5 21.5363 12.5 22.2764ZM39.1232 32.9246C38.76 37.1669 36.1522 40.7641 32.5 42.509V46.3619H33.3333C41.2299 46.3619 47.7013 52.4986 48.2897 60.2888C50.1345 57.9221 50.5604 54.6004 49.1097 51.7469L43.4955 40.7034C41.9943 37.7506 41.2116 34.4816 41.2116 31.1652V30.8798C41.0254 31.9364 40.1831 32.765 39.1232 32.9246Z" fill="#272C2E"/>
<mask id="mask7" mask-type="alpha" maskUnits="userSpaceOnUse" x="8" y="7" width="42" height="54">
<path fill-rule="evenodd" clip-rule="evenodd" d="M12.5 40.8181V22.2764C12.5 21.5363 12.5829 20.8157 12.74 20.1235C13.376 15.9247 15.7865 12.589 18.5417 10.5334C22.6885 7.44087 29.6754 6.54857 32.0931 10.2237C33.8955 9.41891 36.5665 10.1525 38.5417 12C40.5344 13.9727 42.1249 18.3271 41.1786 21.8903C41.2004 22.1555 41.2116 22.4236 41.2116 22.6943V27.2727C41.0279 26.2305 40.206 25.4102 39.1667 25.2348V25.2C37.9091 20.6878 34.2145 18.6168 31.9645 16.5628C28.4449 20.522 17.463 20.536 13.75 28.3429V30.4381C13.75 31.6992 14.6731 32.7434 15.8768 32.9246C16.24 37.1669 18.8478 40.7641 22.5 42.509V42.5905C23.1105 51.7792 21.1163 63.2909 8.125 59.7715C10.9595 58.1032 12.46 47.4212 12.5 40.8181ZM32.5 42.509C36.1522 40.7641 38.76 37.1669 39.1232 32.9246C40.1831 32.765 41.0254 31.9364 41.2116 30.8798V31.1652C41.2116 34.4816 41.9943 37.7506 43.4955 40.7034L49.1097 51.7469C50.5604 54.6004 50.1345 57.9221 48.2897 60.2888C47.7013 52.4986 41.2299 46.3619 33.3333 46.3619H32.5V42.509Z" fill="white"/>
</mask>
<g mask="url(#mask7)">
<rect x="8.125" y="7.80957" width="55" height="58.6667" fill="#4A312C"/>
</g>
<path fill-rule="evenodd" clip-rule="evenodd" d="M13.75 28.3429C17.4631 21.5679 28.4449 21.5558 31.9645 18.1199C34.2099 19.8987 37.8941 21.2749 39.159 25.1725C37.8941 20.6794 34.2099 18.6126 31.9645 16.5629C28.4449 20.5221 17.4631 20.536 13.75 28.3429Z" fill="black" fill-opacity="0.16"/>
</g>
<path d="M8.06665 32.5333C8.06665 50.7587 22.8413 65.5333 41.0667 65.5333V65.5333C59.292 65.5333 74.0667 50.7587 74.0667 32.5333" stroke="white" stroke-width="3"/>
<path d="M9.53333 32.5333C9.53333 49.9487 23.6513 64.0667 41.0667 64.0667V64.0667C58.482 64.0667 72.6 49.9487 72.6 32.5333" stroke="#A8B6C6" stroke-width="2"/>
<rect x="69.6667" y="24.6" width="6.6" height="15" fill="white"/>
<path d="M66.3667 40.6H75.1667" stroke="#112E51" stroke-width="2" stroke-linecap="square"/>
<path fill-rule="evenodd" clip-rule="evenodd" d="M9.532 45C9.532 45 11.8814 52.7501 29.6617 65.6309C35.9186 70.1636 14.573 66.0141 9.532 65.6309C5.02301 65.2881 4.39999 64.9271 4.39999 64.9271L9.532 45Z" fill="white"/>
<circle cx="82.5" cy="15.3" r="5.5" fill="white"/>
<path fill-rule="evenodd" clip-rule="evenodd" d="M82.5 20.7995C85.5375 20.7995 88 18.3375 88 15.2997C88 12.262 85.5375 9.79999 82.5 9.79999C79.4625 9.79999 77 12.262 77 15.2997C77 18.3375 79.4625 20.7995 82.5 20.7995ZM85.9444 14.1315L81.8638 18.2119C81.7252 18.3502 81.5006 18.3502 81.362 18.2119L79.0556 15.9055C78.917 15.7666 78.917 15.5422 79.0556 15.4039L79.5574 14.9016C79.696 14.7634 79.9206 14.7634 80.0592 14.9016L81.6129 16.4552L84.9408 13.1276C85.0794 12.9894 85.3041 12.9894 85.4426 13.1276L85.9444 13.6292C86.083 13.7682 86.083 13.9926 85.9444 14.1315Z" fill="#63BB60"/>
<rect width="17.6" height="2.93333" rx="1" transform="matrix(1 0 0 -1 51.3333 30.3333)" fill="#A8B6C6"/>
<rect width="14.6667" height="2.93333" rx="1" transform="matrix(1 0 0 -1 52.8 34.7333)" fill="#A8B6C6"/>
<path fill-rule="evenodd" clip-rule="evenodd" d="M60.5 13.4667C57.0566 13.4667 54.2667 16.2566 54.2667 19.7C54.2667 23.1434 57.0566 25.9333 60.5 25.9333C63.9434 25.9333 66.7333 23.1434 66.7333 19.7C66.7333 16.2566 63.9434 13.4667 60.5 13.4667ZM60.5 15.8796C61.7215 15.8796 62.7118 16.8699 62.7118 18.0914C62.7118 19.3129 61.7215 20.3032 60.5 20.3032C59.2785 20.3032 58.2882 19.3129 58.2882 18.0914C58.2882 16.8699 59.2785 15.8796 60.5 15.8796ZM56.8178 22.8116C57.7025 23.8572 59.0246 24.5258 60.5 24.5258C61.9754 24.5258 63.2975 23.8572 64.1822 22.8116C63.7097 21.9219 62.7847 21.3086 61.7064 21.3086C61.6461 21.3086 61.5858 21.3187 61.528 21.3363C61.2038 21.4418 60.8594 21.5097 60.5 21.5097C60.1406 21.5097 59.7987 21.4418 59.472 21.3363C59.4142 21.3187 59.3539 21.3086 59.2935 21.3086C58.2153 21.3086 57.2903 21.9219 56.8178 22.8116Z" fill="#A8B6C6"/>
<rect width="17.6" height="2.93333" rx="1" transform="matrix(1 0 0 -1 51.3333 30.3333)" fill="#A8B6C6"/>
<rect width="14.6667" height="2.93333" rx="1" transform="matrix(1 0 0 -1 52.8 34.7333)" fill="#A8B6C6"/>
<path fill-rule="evenodd" clip-rule="evenodd" d="M60.5 13.4667C57.0566 13.4667 54.2667 16.2566 54.2667 19.7C54.2667 23.1434 57.0566 25.9333 60.5 25.9333C63.9434 25.9333 66.7333 23.1434 66.7333 19.7C66.7333 16.2566 63.9434 13.4667 60.5 13.4667ZM60.5 15.8796C61.7215 15.8796 62.7118 16.8699 62.7118 18.0914C62.7118 19.3129 61.7215 20.3032 60.5 20.3032C59.2785 20.3032 58.2882 19.3129 58.2882 18.0914C58.2882 16.8699 59.2785 15.8796 60.5 15.8796ZM56.8178 22.8116C57.7025 23.8572 59.0246 24.5258 60.5 24.5258C61.9754 24.5258 63.2975 23.8572 64.1822 22.8116C63.7097 21.9219 62.7847 21.3086 61.7064 21.3086C61.6461 21.3086 61.5858 21.3187 61.528 21.3363C61.2038 21.4418 60.8594 21.5097 60.5 21.5097C60.1406 21.5097 59.7987 21.4418 59.472 21.3363C59.4142 21.3187 59.3539 21.3086 59.2935 21.3086C58.2153 21.3086 57.2903 21.9219 56.8178 22.8116Z" fill="#A8B6C6"/>
</svg>
