<svg width="71" height="69" viewBox="0 0 71 69" fill="none" xmlns="http://www.w3.org/2000/svg"><g clip-path="url(#a)"><path d="M69.705 34.5c0 18.411-14.926 33.337-33.337 33.337C17.956 67.837 3.03 52.911 3.03 34.5c0-18.412 14.925-33.337 33.337-33.337 18.411 0 33.337 14.925 33.337 33.337z" fill="#EBF3FA"/><path fill-rule="evenodd" clip-rule="evenodd" d="M1.868 34.5c0-19.054 15.446-34.5 34.5-34.5 19.054 0 34.5 15.446 34.5 34.5h-2.326c0-17.77-14.405-32.174-32.174-32.174-17.77 0-32.174 14.405-32.174 32.174H1.868z" fill="#A8B6C6"/><path d="M21.283 11.83h46.541v25.383a5.815 5.815 0 0 1-5.814 5.814H27.098a5.815 5.815 0 0 1-5.815-5.814V11.83z" fill="#fff"/><path fill-rule="evenodd" clip-rule="evenodd" d="M20.12 6.59A5.815 5.815 0 0 1 25.935.775h37.988a5.815 5.815 0 0 1 5.815 5.815v31.786a5.815 5.815 0 0 1-5.815 5.815H25.935a5.815 5.815 0 0 1-5.815-5.815V6.59zm5.815-3.49a3.489 3.489 0 0 0-3.489 3.489v31.786a3.489 3.489 0 0 0 3.489 3.489h37.988a3.489 3.489 0 0 0 3.49-3.489V6.59a3.489 3.489 0 0 0-3.49-3.489H25.935z" fill="#112E51"/><path d="M21.283 7.753a5.815 5.815 0 0 1 5.815-5.815H62.76a5.815 5.815 0 0 1 5.815 5.815v4.077H21.283V7.753z" fill="#112E51"/><path d="M25.874 6.504c0 .42-.356.761-.794.761-.439 0-.794-.34-.794-.76s.355-.762.794-.762c.438 0 .794.341.794.761zm3.176-.001c0 .42-.356.761-.795.761-.438 0-.794-.34-.794-.76s.356-.762.794-.762c.439 0 .794.341.794.761zm3.175 0c0 .42-.355.761-.794.761-.438 0-.794-.34-.794-.76s.356-.762.794-.762c.439 0 .794.341.794.761z" fill="#fff"/><path fill-rule="evenodd" clip-rule="evenodd" d="M47.948 6.884c0-.964.781-1.745 1.745-1.745h15.88a1.744 1.744 0 0 1 0 3.489h-15.88a1.744 1.744 0 0 1-1.745-1.744z" fill="#fff"/><path d="M71.002 16.28a5.815 5.815 0 1 1-11.63 0 5.815 5.815 0 0 1 11.63 0z" fill="#fff"/><path fill-rule="evenodd" clip-rule="evenodd" d="M65.187 22.095a5.814 5.814 0 1 0 .001-11.629 5.814 5.814 0 0 0 0 11.629zm3.642-7.05-4.314 4.314a.376.376 0 0 1-.53 0l-2.44-2.438a.375.375 0 0 1 0-.53l.531-.531a.376.376 0 0 1 .531 0l1.643 1.642 3.518-3.518a.376.376 0 0 1 .53 0l.53.53a.376.376 0 0 1 0 .532z" fill="#63BB60"/><path d="M34 30.875c0 .621.727 1.125 1.625 1.125h22.75c.898 0 1.625-.504 1.625-1.125v-.75c0-.621-.727-1.125-1.625-1.125h-22.75c-.898 0-1.625.504-1.625 1.125v.75zm2 5c0 .621.739 1.125 1.65 1.125h18.7c.911 0 1.65-.504 1.65-1.125v-.75c0-.621-.739-1.125-1.65-1.125h-18.7c-.911 0-1.65.504-1.65 1.125v.75z" fill="#A8B6C6"/><path fill-rule="evenodd" clip-rule="evenodd" d="M45.93 14.342a6.589 6.589 0 0 0-6.59 6.59c0 3.64 2.949 6.59 6.59 6.59a6.59 6.59 0 0 0 6.59-6.59 6.59 6.59 0 0 0-6.59-6.59zm-.001 2.551a2.338 2.338 0 1 1 0 4.677 2.338 2.338 0 0 1 0-4.677zm-3.893 7.33a5.092 5.092 0 0 0 3.893 1.811 5.09 5.09 0 0 0 3.893-1.812 2.963 2.963 0 0 0-2.617-1.589.65.65 0 0 0-.189.03 3.505 3.505 0 0 1-1.087.183 3.51 3.51 0 0 1-1.087-.184.65.65 0 0 0-.188-.029c-1.14 0-2.118.648-2.618 1.59z" fill="#A8B6C6"/><mask id="b" maskUnits="userSpaceOnUse" x="0" y="13" width="45" height="55"><path fill-rule="evenodd" clip-rule="evenodd" d="M27.311 45.046v4.073h.881c8.758 0 15.858 7.14 15.858 15.949v1.994H0v-1.994c0-8.808 7.1-15.949 15.858-15.949h.881v-4.073a12.41 12.41 0 0 1-6.98-9.908 2.654 2.654 0 0 1-2.27-2.632v-3.1c0-1.318.952-2.411 2.202-2.622v-1.366c0-6.85 5.522-12.404 12.334-12.404 6.812 0 12.334 5.553 12.334 12.404v1.366a2.654 2.654 0 0 1 2.203 2.621v3.101c0 1.34-.987 2.45-2.27 2.632a12.41 12.41 0 0 1-6.981 9.908z" fill="#fff"/></mask><g mask="url(#b)"><path fill-rule="evenodd" clip-rule="evenodd" d="M51.098 13.014H-7.048v54.048h4.51L3.456 44.74s2.636 8.343 21.997 22.322h25.646V13.014z" fill="#D08B5B"/></g><path fill-rule="evenodd" clip-rule="evenodd" d="M44.05 65.08c0-8.364-6.4-15.224-14.545-15.895.006.077.009.155.009.233 0 2.628-3.304 4.758-7.378 4.758-4.075 0-7.379-2.13-7.379-4.758 0-.084.004-.167.01-.25a15.701 15.701 0 0 0-7.24 2.339c2.221 4.277 8.69 11.684 21.247 15.555H44.05V65.08z" fill="#E6E6E6"/><mask id="c" maskUnits="userSpaceOnUse" x="0" y="49" width="45" height="19"><path fill-rule="evenodd" clip-rule="evenodd" d="M29.505 49.185c8.144.671 14.545 7.53 14.545 15.894v1.983H0v-1.983c0-8.439 6.518-15.347 14.767-15.91-.006.082-.01.165-.01.249 0 2.628 3.304 4.758 7.379 4.758 4.074 0 7.378-2.13 7.378-4.758 0-.078-.003-.156-.009-.233z" fill="#fff"/></mask><g mask="url(#c)"><path fill-rule="evenodd" clip-rule="evenodd" d="M51.098 42.696H-7.048v24.366h4.453L3.398 44.74s2.636 8.343 21.997 22.322h25.703V42.696z" fill="#262E33"/></g><mask id="d" maskUnits="userSpaceOnUse" x="0" y="49" width="45" height="19"><path fill-rule="evenodd" clip-rule="evenodd" d="M29.505 49.185c8.144.671 14.545 7.53 14.545 15.894v1.983H0v-1.983c0-8.439 6.518-15.347 14.767-15.91-.006.082-.01.165-.01.249 0 2.628 3.304 4.758 7.379 4.758 4.074 0 7.378-2.13 7.378-4.758 0-.078-.003-.156-.009-.233z" fill="#fff"/></mask><g mask="url(#d)"><path d="M30.865 49.751c0 3.293-3.908 5.962-8.73 5.962-4.82 0-8.729-2.67-8.729-5.962s3.908-5.962 8.73-5.962c4.82 0 8.73 2.67 8.73 5.962z" fill="#000" fill-opacity=".16" opacity=".6"/></g><path fill-rule="evenodd" clip-rule="evenodd" d="M14.097 57.959v-.09c0-3.173.383-6.15 1.053-8.722-2.704.12-5.233.92-7.42 2.236 1.541 1.844 3.608 4.047 6.367 6.576zm14.897 9.103H44.05V65.08c0-8.494-6.601-15.437-14.926-15.922.669 2.57 1.05 5.543 1.05 8.712 0 3.368-.431 6.516-1.18 9.192z" fill="#3A4C5A"/><path d="m32.818 61.745 2.104-1.587a.877.877 0 0 1 1.07.01l1.45 1.134-4.624.443z" fill="#E6E6E6"/><path fill-rule="evenodd" clip-rule="evenodd" d="M14.984 58.762c-.397-3.953-.326-7.241.214-9.864a4.701 4.701 0 0 0-1.322.221l-3.368 5.348a83.03 83.03 0 0 0 4.476 4.295z" fill="#2F4351"/><path d="M28.853 48.898c.881 4.282.514 10.337-1.101 18.164h3.524l3.083-7.975-1.321-1.993 1.321-1.33-4.185-6.645a4.7 4.7 0 0 0-1.321-.221z" fill="#2F4351"/><path fill-rule="evenodd" clip-rule="evenodd" d="M17.866 38.072c.233 2.103 2.006 3.737 4.16 3.737 2.159 0 3.936-1.645 4.16-3.756.018-.17-.17-.452-.407-.452H18.3c-.238 0-.457.26-.434.471z" fill="#000" fill-opacity=".7"/><mask id="e" maskUnits="userSpaceOnUse" x="17" y="37" width="10" height="5"><path fill-rule="evenodd" clip-rule="evenodd" d="M17.866 38.072c.233 2.103 2.006 3.737 4.16 3.737 2.159 0 3.936-1.645 4.16-3.756.018-.17-.17-.452-.407-.452H18.3c-.238 0-.457.26-.434.471z" fill="#fff"/></mask><g mask="url(#e)"><path d="M18.721 36.936c0-.979.794-1.772 1.772-1.772h3.284a1.772 1.772 0 0 1 0 3.544h-3.284a1.772 1.772 0 0 1-1.772-1.772z" fill="#fff"/></g><mask id="f" maskUnits="userSpaceOnUse" x="17" y="37" width="10" height="5"><path fill-rule="evenodd" clip-rule="evenodd" d="M17.866 38.072c.233 2.103 2.006 3.737 4.16 3.737 2.159 0 3.936-1.645 4.16-3.756.018-.17-.17-.452-.407-.452H18.3c-.238 0-.457.26-.434.471z" fill="#fff"/></mask><g mask="url(#f)" fill="#FF4F6D"><path d="M23.347 42.474a2.43 2.43 0 0 1-2.423 2.437 2.43 2.43 0 0 1-2.423-2.437 2.43 2.43 0 0 1 2.423-2.436 2.43 2.43 0 0 1 2.423 2.436z"/><path d="M25.55 42.474a2.43 2.43 0 0 1-2.424 2.436 2.43 2.43 0 0 1-2.422-2.436 2.43 2.43 0 0 1 2.422-2.437 2.43 2.43 0 0 1 2.423 2.437z"/></g><path d="M19.382 33.835c0 .979 1.184 1.772 2.643 1.772 1.46 0 2.643-.793 2.643-1.772" fill="#000" fill-opacity=".16"/><path d="M13.25 29.947c.407-.841 1.323-1.428 2.387-1.428 1.061 0 1.974.583 2.383 1.42.122.248-.051.451-.226.3-.54-.466-1.306-.758-2.157-.758-.823 0-1.569.274-2.105.715-.196.162-.4-.003-.281-.249zm12.775 0c.407-.841 1.322-1.428 2.387-1.428 1.06 0 1.974.583 2.383 1.42.12.248-.052.451-.226.3-.54-.466-1.307-.758-2.157-.758-.824 0-1.57.274-2.106.715-.196.162-.4-.003-.281-.249zm-12.891-2.943c.862-1.22 3.226-1.904 5.262-1.401a.443.443 0 0 0 .21-.86c-2.364-.585-5.102.208-6.19 1.748a.444.444 0 0 0 .104.618.439.439 0 0 0 .614-.105zm17.782 0c-.862-1.22-3.226-1.905-5.262-1.402a.443.443 0 0 1-.21-.86c2.365-.585 5.102.208 6.19 1.748.142.2.095.476-.103.618a.439.439 0 0 1-.614-.104z" fill="#000" fill-opacity=".6"/><mask id="g" maskUnits="userSpaceOnUse" x="1" y="8" width="45" height="56"><path fill-rule="evenodd" clip-rule="evenodd" d="M6.167 43.258V23.656c0-.782.088-1.544.254-2.276.673-4.439 3.22-7.965 6.134-10.139 4.384-3.27 11.77-4.212 14.326-.327 1.906-.85 4.73-.075 6.818 1.878 2.106 2.085 3.788 6.689 2.787 10.456.023.28.035.564.035.85v4.84a2.653 2.653 0 0 0-2.162-2.154v-.037c-1.33-4.77-5.235-6.96-7.614-9.131-3.72 4.185-15.33 4.2-19.256 12.454v2.215c0 1.333.976 2.437 2.248 2.628a12.41 12.41 0 0 0 7.002 10.133v.086c.646 9.714-1.462 21.885-15.197 18.164 2.997-1.764 4.583-13.057 4.625-20.038zm21.144 1.788a12.41 12.41 0 0 0 7.002-10.133 2.652 2.652 0 0 0 2.208-2.161v.301c0 3.506.828 6.962 2.414 10.084l5.936 11.675a8.458 8.458 0 0 1-.867 9.03c-.622-8.235-7.464-14.723-15.812-14.723h-.88v-4.073z" fill="#fff"/></mask><g mask="url(#g)"><path fill-rule="evenodd" clip-rule="evenodd" d="M59.688 8.36H1.542v43.293l1.856-6.913s2.862 9.056 24.52 24.108c.949.66 1.376 1.162 1.386 1.535h30.384V8.361zM15.405 70.384a538.52 538.52 0 0 1-5.16-.69c-2.91-.398-5.417-.74-6.847-.845-.69-.05-1.307-.101-1.856-.151v1.686h13.863z" fill="#4A312C"/></g><path fill-rule="evenodd" clip-rule="evenodd" d="M7.489 30.07c3.925-7.163 15.535-7.176 19.256-10.808 2.374 1.88 6.269 3.335 7.606 7.456-1.337-4.75-5.232-6.935-7.606-9.102-3.72 4.185-15.33 4.2-19.256 12.454z" fill="#000" fill-opacity=".16"/><path fill-rule="evenodd" clip-rule="evenodd" d="M67.394 43.05c-3.745 13.619-16.217 23.624-31.026 23.624-17.77 0-32.174-14.405-32.174-32.174H1.868c0 19.054 15.446 34.5 34.5 34.5 19.054 0 34.5-15.446 34.5-34.5h-1.12v3.876a5.806 5.806 0 0 1-2.354 4.674z" fill="#A8B6C6"/></g><defs><clipPath id="a"><path fill="#fff" d="M0 0h71v69H0z"/></clipPath></defs></svg>