<svg width="80" height="69" viewBox="0 0 80 69" fill="none" xmlns="http://www.w3.org/2000/svg">
<path d="M69.7048 34.5C69.7048 52.9115 54.7793 67.837 36.3678 67.837C17.9563 67.837 3.03076 52.9115 3.03076 34.5C3.03076 16.0885 17.9563 1.16296 36.3678 1.16296C54.7793 1.16296 69.7048 16.0885 69.7048 34.5Z" fill="#EBF3FA"/>
<path fill-rule="evenodd" clip-rule="evenodd" d="M1.86792 34.4999C1.86792 15.4462 17.3141 0 36.3679 0C55.4217 0 70.8678 15.4462 70.8678 34.4999H68.542C68.542 16.7307 54.1371 2.32584 36.3679 2.32584C18.5986 2.32584 4.19376 16.7307 4.19376 34.4999H1.86792Z" fill="#A8B6C6"/>
<path d="M26.283 11.8296H72.8243V37.2128C72.8243 40.4241 70.2211 43.0274 67.0097 43.0274H32.0976C28.8862 43.0274 26.283 40.4241 26.283 37.2128V11.8296Z" fill="white"/>
<path fill-rule="evenodd" clip-rule="evenodd" d="M25.1201 6.58975C25.1201 3.37843 27.7234 0.775146 30.9347 0.775146H68.9234C72.1347 0.775146 74.738 3.37844 74.738 6.58975V38.3762C74.738 41.5875 72.1347 44.1908 68.9234 44.1908H30.9347C27.7234 44.1908 25.1201 41.5875 25.1201 38.3762V6.58975ZM30.9347 3.10099C29.0079 3.10099 27.446 4.66296 27.446 6.58975V38.3762C27.446 40.303 29.0079 41.865 30.9347 41.865H68.9234C70.8502 41.865 72.4122 40.303 72.4122 38.3762V6.58975C72.4122 4.66296 70.8502 3.10099 68.9234 3.10099H30.9347Z" fill="#112E51"/>
<path d="M26.283 7.75254C26.283 4.54122 28.8862 1.93793 32.0976 1.93793H67.7604C70.9717 1.93793 73.575 4.54122 73.575 7.75254V11.8299H26.283V7.75254Z" fill="#112E51"/>
<path d="M30.8736 6.50439C30.8736 6.92464 30.5181 7.26531 30.0796 7.26531C29.6411 7.26531 29.2856 6.92464 29.2856 6.50439C29.2856 6.08415 29.6411 5.74347 30.0796 5.74347C30.5181 5.74347 30.8736 6.08415 30.8736 6.50439Z" fill="white"/>
<path d="M34.0491 6.50329C34.0491 6.92354 33.6937 7.26422 33.2552 7.26422C32.8167 7.26422 32.4612 6.92354 32.4612 6.50329C32.4612 6.08305 32.8167 5.74237 33.2552 5.74237C33.6937 5.74237 34.0491 6.08305 34.0491 6.50329Z" fill="white"/>
<path d="M37.2252 6.50329C37.2252 6.92354 36.8697 7.26422 36.4312 7.26422C35.9927 7.26422 35.6372 6.92354 35.6372 6.50329C35.6372 6.08305 35.9927 5.74237 36.4312 5.74237C36.8697 5.74237 37.2252 6.08305 37.2252 6.50329Z" fill="white"/>
<path fill-rule="evenodd" clip-rule="evenodd" d="M52.9482 6.88366C52.9482 5.92027 53.7292 5.13928 54.6926 5.13928H70.5721C71.5355 5.13928 72.3165 5.92027 72.3165 6.88366C72.3165 7.84706 71.5355 8.62805 70.5721 8.62805H54.6926C53.7292 8.62805 52.9482 7.84706 52.9482 6.88366Z" fill="white"/>
<path d="M79.002 16.2808C79.002 19.4921 76.3987 22.0954 73.1874 22.0954C69.9761 22.0954 67.3728 19.4921 67.3728 16.2808C67.3728 13.0695 69.9761 10.4662 73.1874 10.4662C76.3987 10.4662 79.002 13.0695 79.002 16.2808Z" fill="white"/>
<path fill-rule="evenodd" clip-rule="evenodd" d="M73.1874 22.0948C76.3987 22.0948 79.002 19.492 79.002 16.2805C79.002 13.069 76.3987 10.4662 73.1874 10.4662C69.9761 10.4662 67.3728 13.069 67.3728 16.2805C67.3728 19.492 69.9761 22.0948 73.1874 22.0948ZM76.8289 15.0455L72.5148 19.3593C72.3683 19.5054 72.1308 19.5054 71.9843 19.3593L69.5459 16.921C69.3994 16.7741 69.3994 16.5368 69.5459 16.3907L70.0764 15.8596C70.223 15.7135 70.4604 15.7135 70.607 15.8596L72.2496 17.5021L75.7678 13.9842C75.9143 13.838 76.1519 13.838 76.2983 13.9842L76.8289 14.5145C76.9754 14.6613 76.9754 14.8986 76.8289 15.0455Z" fill="#63BB60"/>
<path d="M40.238 31.0113C40.238 31.6535 40.7587 32.1742 41.401 32.1742H57.6818C58.3241 32.1742 58.8447 31.6535 58.8447 31.0113V30.236C58.8447 29.5937 58.3241 29.0731 57.6818 29.0731L41.401 29.0731C40.7587 29.0731 40.238 29.5937 40.238 30.236V31.0113Z" fill="#A8B6C6"/>
<path d="M41.7886 35.6631C41.7886 36.3053 42.3092 36.826 42.9515 36.826H56.1312C56.7735 36.826 57.2942 36.3053 57.2942 35.6631V34.8878C57.2942 34.2455 56.7735 33.7249 56.1312 33.7249H42.9515C42.3092 33.7249 41.7886 34.2455 41.7886 34.8878V35.6631Z" fill="#A8B6C6"/>
<path fill-rule="evenodd" clip-rule="evenodd" d="M49.9292 14.3425C46.2889 14.3425 43.3394 17.292 43.3394 20.9323C43.3394 24.5727 46.2889 27.5222 49.9292 27.5222C53.5696 27.5222 56.5191 24.5727 56.5191 20.9323C56.5191 17.292 53.5696 14.3425 49.9292 14.3425ZM49.929 16.8932C51.2204 16.8932 52.2673 17.9402 52.2673 19.2316C52.2673 20.523 51.2204 21.5699 49.929 21.5699C48.6376 21.5699 47.5906 20.523 47.5906 19.2316C47.5906 17.9402 48.6376 16.8932 49.929 16.8932ZM46.0365 24.222C46.9718 25.3274 48.3695 26.0342 49.9293 26.0342C51.4891 26.0342 52.8868 25.3274 53.8221 24.222C53.3225 23.2814 52.3447 22.633 51.2047 22.633C51.141 22.633 51.0772 22.6436 51.0161 22.6622C50.6733 22.7738 50.3093 22.8456 49.9293 22.8456C49.5493 22.8456 49.1879 22.7738 48.8425 22.6622C48.7814 22.6436 48.7176 22.633 48.6538 22.633C47.5139 22.633 46.536 23.2814 46.0365 24.222Z" fill="#A8B6C6"/>
<mask id="mask0" mask-type="alpha" maskUnits="userSpaceOnUse" x="0" y="13" width="45" height="55">
<path fill-rule="evenodd" clip-rule="evenodd" d="M27.311 45.0461V49.1194H28.192V49.1194C36.9501 49.1194 44.05 56.2599 44.05 65.068V67.0616H0V65.068C0 56.2599 7.09986 49.1194 15.858 49.1194V49.1194H16.739V45.0461C12.9425 43.2323 10.2135 39.5252 9.7582 35.1381C8.47528 34.9557 7.4885 33.8469 7.4885 32.5063V29.4052C7.4885 28.0881 8.44098 26.9947 9.69099 26.7838V25.418V25.418C9.69099 18.5672 15.2131 13.0135 22.025 13.0135V13.0135V13.0135C28.8369 13.0135 34.359 18.5672 34.359 25.418V26.7838C35.609 26.9947 36.5615 28.0881 36.5615 29.4052V32.5063C36.5615 33.8469 35.5747 34.9557 34.2918 35.1381C33.8365 39.5252 31.1075 43.2323 27.311 45.0461Z" fill="white"/>
</mask>
<g mask="url(#mask0)">
<path fill-rule="evenodd" clip-rule="evenodd" d="M51.0981 13.0135H-7.04785V67.0616H-2.53725L3.45512 44.7402C3.45512 44.7402 6.0914 53.0827 25.4522 67.0616H51.0981V13.0135Z" fill="#D08B5B"/>
</g>
<path fill-rule="evenodd" clip-rule="evenodd" d="M44.0504 65.0798C44.0504 56.7162 37.6491 49.8563 29.5052 49.1851C29.5109 49.2624 29.5139 49.3401 29.5139 49.4183C29.5139 52.0461 26.2104 54.1763 22.1355 54.1763C18.0605 54.1763 14.7571 52.0461 14.7571 49.4183C14.7571 49.3345 14.7605 49.2511 14.7671 49.1684C12.1237 49.3491 9.65814 50.1812 7.52783 51.5065C9.74848 55.7837 16.2165 63.1913 28.7743 67.062H44.0504V65.0798Z" fill="#E6E6E6"/>
<mask id="mask1" mask-type="alpha" maskUnits="userSpaceOnUse" x="0" y="49" width="45" height="19">
<path fill-rule="evenodd" clip-rule="evenodd" d="M29.5053 49.1848C37.6492 49.856 44.0505 56.7159 44.0505 65.0795V67.0616H0.000488281V65.0795C0.000488281 56.6402 6.51812 49.7319 14.7672 49.1681C14.7606 49.2508 14.7572 49.3342 14.7572 49.418C14.7572 52.0457 18.0606 54.176 22.1356 54.176C26.2106 54.176 29.514 52.0457 29.514 49.418C29.514 49.3398 29.511 49.262 29.5053 49.1848Z" fill="white"/>
</mask>
<g mask="url(#mask1)">
<path fill-rule="evenodd" clip-rule="evenodd" d="M51.0986 42.696H-7.04736V67.0619H-2.59451L3.39794 44.7402C3.39794 44.7402 6.03427 53.0829 25.3954 67.0619H51.0986V42.696Z" fill="#262E33"/>
</g>
<mask id="mask2" mask-type="alpha" maskUnits="userSpaceOnUse" x="0" y="49" width="45" height="19">
<path fill-rule="evenodd" clip-rule="evenodd" d="M29.5053 49.1848C37.6492 49.856 44.0505 56.7159 44.0505 65.0795V67.0616H0.000488281V65.0795C0.000488281 56.6402 6.51812 49.7319 14.7672 49.1681C14.7606 49.2508 14.7572 49.3342 14.7572 49.418C14.7572 52.0457 18.0606 54.176 22.1356 54.176C26.2106 54.176 29.514 52.0457 29.514 49.418C29.514 49.3398 29.511 49.262 29.5053 49.1848Z" fill="white"/>
</mask>
<g mask="url(#mask2)">
<g opacity="0.6">
<path d="M30.8653 49.751C30.8653 53.0435 26.9569 55.7126 22.1356 55.7126C17.3144 55.7126 13.406 53.0435 13.406 49.751C13.406 46.4585 17.3144 43.7894 22.1356 43.7894C26.9569 43.7894 30.8653 46.4585 30.8653 49.751Z" fill="black" fill-opacity="0.16"/>
</g>
</g>
<path fill-rule="evenodd" clip-rule="evenodd" d="M14.0967 57.9587C14.0967 57.9289 14.0966 57.8991 14.0966 57.8693C14.0966 54.6957 14.4799 51.7183 15.1505 49.1468C12.4459 49.2663 9.91718 50.0672 7.72998 51.3829C9.27155 53.2269 11.3382 55.4295 14.0967 57.9587ZM28.994 67.0621H44.0506V65.08C44.0506 56.5863 37.4486 49.6433 29.124 49.1584C29.7928 51.7273 30.1749 54.7007 30.1749 57.8695C30.1749 61.2384 29.743 64.3863 28.994 67.0621Z" fill="#3A4C5A"/>
<path d="M32.8179 61.7452L34.9225 60.1577V60.1577C35.2404 59.9179 35.6784 59.9218 35.992 60.1671L37.4431 61.3022L32.8179 61.7452Z" fill="#E6E6E6"/>
<path fill-rule="evenodd" clip-rule="evenodd" d="M14.9839 58.7617C14.587 54.8088 14.6583 51.5208 15.198 48.8976C14.7636 48.9056 14.3231 48.9794 13.8765 49.1192L10.5085 54.4673C11.7717 55.7793 13.2517 57.213 14.9839 58.7617Z" fill="#2F4351"/>
<path d="M28.8531 48.8979C29.7341 53.1804 29.367 59.2349 27.7519 67.0616H31.2759L34.3594 59.0873L33.0379 57.0937L34.3594 55.7646L30.1746 49.1194C29.728 48.9797 29.2875 48.9058 28.8531 48.8979Z" fill="#2F4351"/>
<path fill-rule="evenodd" clip-rule="evenodd" d="M17.8665 38.072C18.0994 40.1745 19.8725 41.8092 22.0252 41.8092C24.1846 41.8092 25.962 40.1644 26.1862 38.0525C26.2042 37.8825 26.0155 37.6006 25.7789 37.6006C22.4985 37.6006 19.9853 37.6006 18.3001 37.6006C18.0622 37.6006 17.8431 37.8616 17.8665 38.072Z" fill="black" fill-opacity="0.7"/>
<mask id="mask3" mask-type="alpha" maskUnits="userSpaceOnUse" x="17" y="37" width="10" height="5">
<path fill-rule="evenodd" clip-rule="evenodd" d="M17.8665 38.072C18.0994 40.1745 19.8725 41.8092 22.0252 41.8092C24.1846 41.8092 25.962 40.1644 26.1862 38.0525C26.2042 37.8825 26.0155 37.6006 25.7789 37.6006C22.4985 37.6006 19.9853 37.6006 18.3001 37.6006C18.0622 37.6006 17.8431 37.8616 17.8665 38.072Z" fill="white"/>
</mask>
<g mask="url(#mask3)">
<path d="M18.7212 36.9358C18.7212 35.9571 19.5146 35.1637 20.4933 35.1637H23.7769C24.7556 35.1637 25.5489 35.9571 25.5489 36.9358V36.9358C25.5489 37.9144 24.7556 38.7078 23.7769 38.7078H20.4933C19.5146 38.7078 18.7212 37.9144 18.7212 36.9358V36.9358Z" fill="white"/>
</g>
<mask id="mask4" mask-type="alpha" maskUnits="userSpaceOnUse" x="17" y="37" width="10" height="5">
<path fill-rule="evenodd" clip-rule="evenodd" d="M17.8665 38.072C18.0994 40.1745 19.8725 41.8092 22.0252 41.8092C24.1846 41.8092 25.962 40.1644 26.1862 38.0525C26.2042 37.8825 26.0155 37.6006 25.7789 37.6006C22.4985 37.6006 19.9853 37.6006 18.3001 37.6006C18.0622 37.6006 17.8431 37.8616 17.8665 38.072Z" fill="white"/>
</mask>
<g mask="url(#mask4)">
<path d="M23.347 42.4741C23.347 43.8198 22.2623 44.9107 20.9242 44.9107C19.5862 44.9107 18.5015 43.8198 18.5015 42.4741C18.5015 41.1284 19.5862 40.0375 20.9242 40.0375C22.2623 40.0375 23.347 41.1284 23.347 42.4741Z" fill="#FF4F6D"/>
<path d="M25.5494 42.4736C25.5494 43.8193 24.4647 44.9102 23.1266 44.9102C21.7886 44.9102 20.7039 43.8193 20.7039 42.4736C20.7039 41.1279 21.7886 40.037 23.1266 40.037C24.4647 40.037 25.5494 41.1279 25.5494 42.4736Z" fill="#FF4F6D"/>
</g>
<path d="M19.3823 33.8349C19.3823 34.8136 20.5656 35.607 22.0253 35.607V35.607C23.485 35.607 24.6683 34.8136 24.6683 33.8349" fill="black" fill-opacity="0.16"/>
<path d="M13.2504 29.9472C13.6571 29.1058 14.5728 28.5191 15.6373 28.5191C16.698 28.5191 17.6111 29.1016 18.0199 29.9383C18.1414 30.1869 17.9685 30.3903 17.7942 30.2396C17.2544 29.7728 16.4877 29.4813 15.6373 29.4813C14.8135 29.4813 14.0683 29.7548 13.5317 30.1963C13.3355 30.3577 13.1314 30.1933 13.2504 29.9472Z" fill="black" fill-opacity="0.6"/>
<path d="M26.0248 29.947C26.4315 29.1055 27.3472 28.5189 28.4117 28.5189C29.4725 28.5189 30.3855 29.1014 30.7943 29.9381C30.9158 30.1866 30.743 30.39 30.5686 30.2393C30.0288 29.7725 29.2621 29.481 28.4117 29.481C27.5879 29.481 26.8427 29.7546 26.3061 30.196C26.1099 30.3574 25.9058 30.1931 26.0248 29.947Z" fill="black" fill-opacity="0.6"/>
<path d="M13.1338 27.0043C13.9961 25.784 16.36 25.0998 18.3962 25.6027C18.6325 25.661 18.871 25.5157 18.929 25.2781C18.9871 25.0405 18.8426 24.8006 18.6063 24.7422C16.2416 24.1582 13.5043 24.9505 12.4157 26.491C12.2748 26.6904 12.3213 26.967 12.5196 27.1087C12.7179 27.2505 12.9929 27.2037 13.1338 27.0043Z" fill="black" fill-opacity="0.6"/>
<path d="M30.9165 27.0035C30.0542 25.7832 27.6903 25.099 25.6541 25.6019C25.4178 25.6602 25.1793 25.5149 25.1212 25.2773C25.0632 25.0397 25.2077 24.7998 25.444 24.7414C27.8087 24.1574 30.546 24.9497 31.6346 26.4902C31.7755 26.6896 31.729 26.9662 31.5307 27.1079C31.3324 27.2497 31.0574 27.2029 30.9165 27.0035Z" fill="black" fill-opacity="0.6"/>
<mask id="mask5" mask-type="alpha" maskUnits="userSpaceOnUse" x="1" y="8" width="45" height="56">
<path fill-rule="evenodd" clip-rule="evenodd" d="M6.16724 43.2583V23.656C6.16724 22.8736 6.25492 22.1118 6.42095 21.38C7.0934 16.941 9.64174 13.4145 12.5545 11.2413C16.9385 7.97192 24.3251 7.0286 26.8811 10.9139C28.7865 10.0631 31.6103 10.8386 33.6985 12.7919C35.8052 14.8774 37.4867 19.4808 36.4863 23.2478C36.5093 23.5282 36.5211 23.8117 36.5211 24.0979V28.9381C36.327 27.8363 35.458 26.9691 34.3592 26.7836V26.7469C33.0298 21.9765 29.1238 19.7871 26.7451 17.6157C23.0241 21.8013 11.4142 21.8161 7.48874 30.0695V32.2846C7.48874 33.6178 8.46464 34.7217 9.73718 34.9133C10.1211 39.3983 12.8781 43.2012 16.7392 45.0459V45.1321C17.3846 54.8464 15.2764 67.0166 1.54199 63.2958C4.53865 61.5321 6.12498 50.2391 6.16724 43.2583ZM27.3109 45.0459C31.1721 43.2012 33.9291 39.3983 34.313 34.9133C35.4335 34.7446 36.324 33.8686 36.5208 32.7515V33.0533V33.0533C36.5208 36.5594 37.3483 40.0154 38.9353 43.1371L44.8707 54.8123C46.4044 57.829 45.9541 61.3407 44.0038 63.8427C43.3817 55.607 36.5402 49.1192 28.1919 49.1192V49.1192H27.3109V45.0459Z" fill="white"/>
</mask>
<g mask="url(#mask5)">
<path fill-rule="evenodd" clip-rule="evenodd" d="M59.688 8.36066H1.54199V51.653L3.39782 44.7401C3.39782 44.7401 6.25962 53.7963 27.9172 68.8479C28.8666 69.5076 29.2942 70.01 29.3036 70.383H59.688V8.36066ZM15.4047 70.383C13.6379 70.1575 11.8782 69.9167 10.245 69.6933C7.3357 69.2952 4.82803 68.9522 3.39782 68.8479C2.70695 68.7975 2.09098 68.7467 1.54199 68.6966V70.383H15.4047Z" fill="#4A312C"/>
</g>
<path fill-rule="evenodd" clip-rule="evenodd" d="M7.48877 30.0695C11.4142 22.907 23.0242 22.8942 26.7451 19.2617C29.119 21.1423 33.0139 22.5973 34.3511 26.7178C33.0139 21.9676 29.119 19.7827 26.7451 17.6157C23.0242 21.8013 11.4142 21.8161 7.48877 30.0695Z" fill="black" fill-opacity="0.16"/>
<path fill-rule="evenodd" clip-rule="evenodd" d="M67.054 44.2C62.9395 57.2287 50.7567 66.6742 36.3679 66.6742C18.5986 66.6742 4.19376 52.2693 4.19376 34.5001H1.86792C1.86792 53.5539 17.3141 69 36.3679 69C52.0538 69 65.2948 58.5316 69.4855 44.2H67.054Z" fill="#A8B6C6"/>
</svg>
