<svg xmlns="http://www.w3.org/2000/svg" width="50" height="50" fill="none"><path fill="#cedced" d="m25.062 8.033-.124 1.996Q24.471 9.999 24 10V8q.533 0 1.062.033m2.107.263-.372 1.965a15 15 0 0 0-.926-.145l.248-1.985q.528.067 1.05.165m2.068.529-.617 1.902a15 15 0 0 0-.9-.26l.496-1.938q.516.132 1.021.296m2.001.793-.854 1.809q-.424-.2-.86-.374l.739-1.858q.495.196.975.423m1.847 1.017-1.072 1.689a15 15 0 0 0-.807-.478l.964-1.752q.466.256.915.54zm1.734 1.26-1.274 1.54q-.362-.297-.741-.574l1.176-1.618q.43.314.839.651zm1.57 1.474-1.457 1.37q-.321-.343-.663-.664l1.37-1.457q.388.364.75.751m1.382 1.671-1.62 1.174q-.274-.38-.573-.742L37.12 14.2q.338.41.65.84zm1.1 1.726-1.748.972a15 15 0 0 0-.481-.805l1.684-1.079q.287.448.545.912m.92 1.936-1.857.742q-.174-.435-.375-.858l1.807-.858q.227.48.425.974m.67 2.042-1.937.501a15 15 0 0 0-.263-.9l1.901-.62q.165.504.299 1.02zm.405 2.115-1.985.25q-.059-.465-.146-.925l1.965-.375q.099.522.166 1.05M39 25.029v-.046q0-.456-.028-.91l1.996-.121.023.513.009.567zm1.864 2.123-1.984-.251q.06-.465.089-.934l1.996.127q-.034.532-.1 1.058zm-.4 2.09-1.937-.499q.117-.453.205-.914l1.965.376q-.1.524-.233 1.037m-.665 2.036-1.858-.74q.174-.435.32-.881l1.9.622q-.165.505-.362.999m-.928 1.955-1.748-.972q.228-.41.43-.832l1.805.86q-.228.48-.487.944m-1.127 1.765-1.616-1.179q.276-.378.528-.774l1.686 1.075q-.285.449-.598.878M36.37 36.65l-1.455-1.371q.322-.342.622-.702l1.537 1.278q-.339.41-.704.795m-1.58 1.478-1.27-1.544q.361-.299.705-.618l1.365 1.462q-.39.362-.8.7M33.03 39.4l-1.065-1.693q.397-.249.778-.523l1.168 1.623q-.431.31-.88.593zm-1.778.976-.856-1.808q.424-.2.835-.427l.967 1.75q-.465.258-.946.485m-1.994.793-.62-1.902q.447-.145.882-.318l.738 1.859q-.495.195-1 .36zm-2.083.534-.372-1.965q.46-.087.914-.203l.496 1.937q-.515.132-1.038.231m-2.141.266-.12-1.996q.47-.03.934-.086l.244 1.985q-.526.065-1.058.097m-2.16-.006.132-1.996q.467.03.938.033l-.008 2a17 17 0 0 1-1.061-.037zm-2.107-.271.38-1.964q.458.09.925.149l-.256 1.983a17 17 0 0 1-1.05-.168zm-2.067-.537.625-1.9q.444.145.899.264l-.503 1.936a18 18 0 0 1-1.02-.3zm-1.996-.8.86-1.806q.424.201.859.377l-.746 1.855a17 17 0 0 1-.973-.427zM14.86 39.33l1.078-1.685q.394.254.805.48l-.97 1.75q-.466-.259-.913-.545m-1.731-1.267 1.28-1.537q.36.3.74.578l-1.183 1.613q-.429-.315-.837-.654m-1.565-1.48 1.463-1.364q.32.342.66.665l-1.375 1.452a17 17 0 0 1-.748-.754zm-1.376-1.678 1.624-1.168q.274.381.571.744l-1.548 1.266q-.336-.411-.647-.842m-1.092-1.73 1.752-.964q.226.41.478.807L9.638 34.09q-.285-.45-.541-.915zm-.913-1.94 1.86-.735q.172.437.372.86l-1.81.852q-.226-.48-.422-.976zm-.662-2.044 1.939-.493q.115.455.26.9l-1.904.615a17 17 0 0 1-.295-1.022m-.396-2.117 1.985-.243q.057.467.143.927l-1.966.366a17 17 0 0 1-.162-1.05M9 24.915v.1q0 .429.025.853l-1.997.114-.021-.481L7 24.903l2 .011zm-1.857-2.131 1.984.26q-.06.463-.093.933l-1.995-.135q.036-.532.104-1.058m.408-2.088 1.935.506q-.118.453-.208.913l-1.963-.384q.102-.522.236-1.035m.674-2.035 1.855.748q-.176.435-.323.88l-1.899-.63q.168-.505.367-.998m.936-1.952 1.744.978q-.23.41-.433.832l-1.802-.867q.23-.48.49-.943zm1.133-1.758 1.611 1.184q-.277.378-.531.773l-1.682-1.082q.287-.447.602-.875m1.38-1.65 1.45 1.377q-.323.34-.624.7l-1.533-1.285q.34-.407.707-.792m1.584-1.47 1.265 1.548q-.363.297-.707.616l-1.36-1.467q.39-.36.802-.697m1.77-1.267 1.057 1.697q-.398.25-.78.52l-1.161-1.627q.433-.31.883-.59zm1.778-.967.849 1.81q-.425.2-.836.425l-.96-1.754q.466-.255.947-.481m1.998-.786.612 1.904q-.446.144-.882.315l-.731-1.862q.494-.193 1.001-.357m2.086-.526.365 1.966q-.46.086-.915.2l-.488-1.94q.515-.129 1.038-.226m2.142-.258.112 1.997q-.47.027-.934.082l-.237-1.986q.526-.063 1.059-.093"/><path fill="#3d9bda" fill-rule="evenodd" d="M40 13a3 3 0 0 1 3 3v12a3 3 0 0 1-3 3H21a3 3 0 0 1-2.696-1.682l2.233-2.227.14-.15a3.493 3.493 0 0 0-.14-4.798l-2.538-2.533L18 16a3 3 0 0 1 3-3z" clip-rule="evenodd"/><path fill="#0071bb" d="M19.124 25.675 6.977 37.795a1.5 1.5 0 0 1-2.12 0L3.44 36.381a1.494 1.494 0 0 1-.002-2.114l9.626-9.65-9.626-9.65a1.494 1.494 0 0 1 .002-2.115l1.417-1.414a1.5 1.5 0 0 1 2.121 0l12.147 12.12a1.494 1.494 0 0 1 0 2.117zM43 37.09v-1.996c0-.827-.672-1.497-1.5-1.497h-19c-.828 0-1.5.67-1.5 1.497v1.995c0 .827.672 1.497 1.5 1.497h19c.828 0 1.5-.67 1.5-1.497z"/></svg>