<svg width="50" height="50" xmlns="http://www.w3.org/2000/svg"><g fill="none"><path d="M25.062 8.033l-.124 1.996c-.311-.02-.624-.029-.938-.029V8c.355 0 .71.011 1.062.033zm2.107.263l-.372 1.965a14.927 14.927 0 00-.926-.145l.248-1.985c.352.044.702.1 1.05.165zm2.068.529l-.617 1.902a14.86 14.86 0 00-.9-.26l.496-1.938c.344.088.684.187 1.021.296zm2.001.793l-.854 1.809c-.282-.134-.57-.258-.86-.374l.739-1.858c.33.13.655.272.975.423zm1.847 1.017l-1.072 1.689a15.012 15.012 0 00-.807-.478l.964-1.752c.31.17.616.351.915.54zm1.734 1.26l-1.274 1.54c-.241-.198-.489-.39-.741-.574l1.176-1.618c.286.209.566.426.839.651zm1.57 1.474l-1.457 1.37c-.214-.229-.435-.45-.663-.664l1.37-1.457c.258.243.509.493.75.751zm1.382 1.671l-1.62 1.174c-.183-.253-.374-.5-.573-.742L37.12 14.2c.225.273.442.553.65.84zm1.1 1.726l-1.748.972a15.016 15.016 0 00-.481-.805l1.684-1.079c.191.298.373.603.545.912zm.92 1.936l-1.857.742c-.116-.29-.241-.576-.375-.858l1.807-.858c.152.32.293.644.425.974zm.67 2.042l-1.937.501a14.86 14.86 0 00-.263-.9l1.901-.62c.11.336.21.676.299 1.02zm.405 2.115l-1.985.25c-.039-.31-.088-.619-.146-.925l1.965-.375c.066.348.121.698.166 1.05zM39 25.029v-.046c0-.304-.01-.607-.028-.91l1.996-.121.023.513.009.567-2-.004zm1.864 2.123l-1.984-.251c.04-.31.069-.621.089-.934l1.996.127c-.023.355-.056.707-.1 1.058zm-.4 2.09l-1.937-.499c.078-.302.147-.607.205-.914l1.965.376c-.067.349-.145.695-.233 1.037zm-.665 2.036l-1.858-.74c.116-.29.222-.584.32-.881l1.9.622c-.11.337-.23.67-.362.999zm-.928 1.955l-1.748-.972c.152-.273.295-.55.43-.832l1.805.86c-.152.32-.315.634-.487.944zm-1.127 1.765l-1.616-1.179c.184-.252.36-.51.528-.774l1.686 1.075c-.19.299-.39.592-.598.878zM36.37 36.65l-1.455-1.371c.214-.228.422-.462.622-.702l1.537 1.278c-.226.273-.46.538-.704.795zm-1.58 1.478l-1.27-1.544c.241-.199.476-.405.705-.618l1.365 1.462c-.26.241-.526.475-.8.7zM33.03 39.4l-1.065-1.693c.265-.166.524-.34.778-.523l1.168 1.623c-.287.207-.581.405-.88.593zm-1.778.976l-.856-1.808c.283-.134.561-.276.835-.427l.967 1.75c-.31.172-.626.333-.946.485zm-1.994.793l-.62-1.902c.298-.097.592-.203.882-.318l.738 1.859c-.33.13-.663.25-1 .36zm-2.083.534l-.372-1.965c.307-.058.612-.126.914-.203l.496 1.937c-.343.088-.69.165-1.038.231zm-2.141.266l-.12-1.996c.313-.02.624-.048.934-.086l.244 1.985c-.35.043-.704.076-1.058.097zm-2.16-.006l.132-1.996c.311.02.624.032.938.033l-.008 2a17.01 17.01 0 01-1.061-.037zm-2.107-.271l.38-1.964c.305.06.614.109.925.149l-.256 1.983a16.923 16.923 0 01-1.05-.168zm-2.067-.537l.625-1.9c.296.097.596.185.899.264l-.503 1.936a16.86 16.86 0 01-1.02-.3zm-1.996-.8l.86-1.806c.283.134.569.26.859.377l-.746 1.855a16.915 16.915 0 01-.973-.427zM14.86 39.33l1.078-1.685c.263.169.531.329.805.48l-.97 1.75c-.31-.173-.615-.354-.913-.545zm-1.731-1.267l1.28-1.537c.24.2.487.393.74.578l-1.183 1.613c-.286-.21-.565-.428-.837-.654zm-1.565-1.48l1.463-1.364c.213.228.433.45.66.665l-1.375 1.452a17.137 17.137 0 01-.748-.754zm-1.376-1.678l1.624-1.168c.183.254.373.502.571.744l-1.548 1.266a17.1 17.1 0 01-.647-.842zm-1.092-1.73l1.752-.964c.15.273.31.543.478.807L9.638 34.09c-.19-.3-.37-.604-.541-.915zm-.913-1.94l1.86-.735c.115.291.239.578.372.86l-1.81.852a16.91 16.91 0 01-.422-.976zm-.662-2.044l1.939-.493c.077.303.163.603.26.9l-1.904.615a16.86 16.86 0 01-.295-1.022zm-.396-2.117l1.985-.243c.038.311.086.62.143.927l-1.966.366a16.93 16.93 0 01-.162-1.05zM9 24.915v.1c0 .286.008.57.025.853l-1.997.114-.021-.481L7 24.903l2 .011zm-1.857-2.131l1.984.26c-.04.309-.072.62-.093.933l-1.995-.135c.024-.355.059-.707.104-1.058zm.408-2.088l1.935.506c-.079.302-.148.606-.208.913l-1.963-.384c.068-.348.147-.693.236-1.035zm.674-2.035l1.855.748c-.117.29-.225.583-.323.88l-1.899-.63c.112-.336.234-.67.367-.998zm.936-1.952l1.744.978c-.153.273-.297.55-.433.832l-1.802-.867c.154-.32.317-.634.49-.943zm1.133-1.758l1.611 1.184c-.185.252-.362.51-.531.773l-1.682-1.082c.191-.298.392-.59.602-.875zm1.38-1.65l1.45 1.377c-.215.227-.423.46-.624.7l-1.533-1.285c.227-.271.463-.536.707-.792zm1.584-1.47l1.265 1.548c-.242.198-.478.404-.707.616l-1.36-1.467c.26-.24.528-.473.802-.697zm1.77-1.267l1.057 1.697c-.265.166-.525.34-.78.52l-1.161-1.627c.288-.206.583-.403.883-.59zm1.778-.967l.849 1.81c-.283.134-.562.275-.836.425l-.96-1.754c.31-.17.627-.33.947-.481zm1.998-.786l.612 1.904c-.297.096-.592.201-.882.315l-.731-1.862c.33-.129.663-.248 1.001-.357zm2.086-.526l.365 1.966a14.74 14.74 0 00-.915.2l-.488-1.94c.343-.086.69-.161 1.038-.226zm2.142-.258l.112 1.997c-.313.018-.624.045-.934.082l-.237-1.986c.351-.042.704-.073 1.059-.093z" fill="#CEDCED"/><path d="M34.6 29.843a1.61 1.61 0 01-1.6-1.622V26.6c0-1.79 1.435-3.244 3.2-3.244h3.255c1.765 0 3.2 1.455 3.2 3.244v1.622a1.61 1.61 0 01-1.6 1.622zm3.6-8.11c1.765 0 3.2-1.455 3.2-3.245 0-1.789-1.435-3.244-3.2-3.244-1.765 0-3.2 1.455-3.2 3.244 0 1.79 1.435 3.245 3.2 3.245z" fill="#338DC9"/><path d="M31.84 25.977h-.415a7.788 7.788 0 01-3.425.811c-1.23 0-2.38-.304-3.425-.811h-.415c-3.18 0-5.76 2.616-5.76 5.84v1.46c0 1.343 1.075 2.433 2.4 2.433h14.4c1.325 0 2.4-1.09 2.4-2.434v-1.46c0-3.223-2.58-5.839-5.76-5.839zM28 24.355c3.095 0 5.6-2.54 5.6-5.678C33.6 15.54 31.095 13 28 13c-3.095 0-5.6 2.54-5.6 5.677 0 3.138 2.505 5.678 5.6 5.678z" fill="#0071BB"/><path d="M14.6 32.843a1.61 1.61 0 01-1.6-1.622V29.6c0-1.79 1.435-3.244 3.2-3.244h3.255c1.765 0 3.2 1.455 3.2 3.244v1.622a1.61 1.61 0 01-1.6 1.622zm3.2-8.11c1.765 0 3.2-1.455 3.2-3.245 0-1.789-1.435-3.244-3.2-3.244-1.765 0-3.2 1.455-3.2 3.244 0 1.79 1.435 3.245 3.2 3.245z" fill="#338DC9"/></g></svg>