<svg xmlns="http://www.w3.org/2000/svg" width="620" height="1300" fill="none"><rect width="620" height="1300" fill="#fff" rx="5"/><rect width="226" height="52" x="80" y="1111" fill="#0071bb" rx="8"/><path fill="#fff" d="m100.943 1144 5.17-14.46h3.09l5.17 14.46h-2.91l-1.18-3.35h-5.21l-1.2 3.35zm4.79-5.9h3.84l-1.91-5.75zm14.987 9.32c-3.68 0-5.63-1.02-5.63-2.54 0-1.41 1.81-1.84 2.01-1.95-.32-.19-1.27-.56-1.27-1.54 0-.73.69-1.42 2.12-1.67-1.37-.63-2.09-1.83-2.09-2.98 0-2.04 2.09-3.24 4.9-3.24 1.42 0 2.24.33 3.01.81.62-.24 2.17-.86 3.04-1.22l-.02 2.26-1.78.29c.14.37.22.82.22 1.09 0 1.8-1.59 3.42-4.68 3.42-.24 0-.76-.01-1.02-.04-.78.04-1.03.22-1.03.43 0 .33.59.38 1.81.45.44.03 1.24.07 2.15.13 2.53.17 3.77 1.33 3.77 2.96 0 1.94-1.83 3.34-5.51 3.34m-.08-8.9c1.1 0 1.83-.64 1.83-1.69 0-1.08-.73-1.79-1.83-1.79-1.11 0-1.85.72-1.85 1.79 0 1.03.7 1.69 1.85 1.69m.55 7.27c1.62 0 2.26-.41 2.26-1.16 0-.62-.55-1.04-1.57-1.11l-2.37-.16c-.94-.05-1.56.54-1.56 1.18 0 .87 1.02 1.25 3.24 1.25m7.308-1.79v-10.34h2.81v2.45c.49-1.58 1.65-2.65 3.28-2.65.19 0 .37.02.45.06v2.78c-.12-.05-.3-.06-.44-.07-2.3-.2-3.18.72-3.18 2.11v5.66zm10.693-4.5c-.01 1.58.81 2.59 2.21 2.59 1 0 1.8-.4 2.1-1.37h2.63c-.35 2.21-2.51 3.48-4.66 3.48-3.07 0-5.17-2.04-5.17-5.25 0-3.11 1.85-5.49 5.02-5.49 3.16 0 4.82 2.15 4.82 5.25v.79zm0-1.74h4.22c0-1.25-.69-2.26-2.1-2.26-1.34 0-2.13 1.12-2.12 2.26m11.523 1.74c-.01 1.58.81 2.59 2.21 2.59 1 0 1.8-.4 2.1-1.37h2.63c-.35 2.21-2.51 3.48-4.66 3.48-3.07 0-5.17-2.04-5.17-5.25 0-3.11 1.85-5.49 5.02-5.49 3.16 0 4.82 2.15 4.82 5.25v.79zm0-1.74h4.22c0-1.25-.69-2.26-2.1-2.26-1.34 0-2.13 1.12-2.12 2.26m16.577 6.44c-1.97 0-3.49-1.14-3.49-3.16 0-2.26 1.63-3.46 5.28-3.5l1.3-.02v-.62c0-.95-.54-1.48-1.71-1.47-.85.01-1.71.36-2 1.31h-2.43c.11-2.24 1.98-3.28 4.57-3.28 3.16 0 4.37 1.24 4.37 3.27v7.27h-2.44l-.24-1.78c-.71 1.5-1.76 1.98-3.21 1.98m.99-1.92c1.05 0 2.09-.84 2.1-1.73v-1.53l-1.05.02c-1.46.02-2.76.45-2.76 1.71 0 .96.75 1.53 1.71 1.53m7.268 1.72v-10.34h2.87v1.46c.47-.75 1.37-1.55 3-1.55 1.89 0 3.62 1.05 3.62 3.61v6.82h-2.92v-6.46c0-1.12-.77-1.68-1.72-1.68-.96 0-1.93.51-1.93 1.52v6.62zm15.765.2c-2.78 0-4.4-2.01-4.4-5.43 0-3.24 1.45-5.31 4.11-5.31 1.48 0 2.62.72 3.12 1.6v-5.92h2.93V1144h-2.12l-.33-2.12c-.37 1.14-1.27 2.32-3.31 2.32m.64-2.1c1.47 0 2.19-.93 2.19-3.37-.02-2.11-.72-3.15-2.17-3.15-1.27 0-2.21.88-2.21 3.15 0 2.3.85 3.37 2.19 3.37m16.513-8.64c2.59 0 4.2 1.75 4.36 3.97h-2.43c-.13-.82-.71-1.75-1.91-1.75-1.36 0-2.29 1.04-2.29 3.17 0 2.02.87 3.28 2.35 3.28 1.18 0 1.76-1.03 1.88-1.74h2.37c-.13 2.14-1.8 3.81-4.33 3.81-2.88 0-4.99-2.02-4.99-5.33 0-3.21 1.98-5.41 4.99-5.41m10.908 10.74c-3.04 0-5-2.05-5-5.31s1.94-5.43 5.01-5.43c3.05 0 4.99 2.12 4.99 5.43 0 3.11-1.85 5.31-5 5.31m.01-2.17c1.53 0 2.13-1.5 2.13-3.24 0-1.64-.51-3.18-2.13-3.18-1.55 0-2.16 1.42-2.16 3.18 0 1.62.52 3.24 2.16 3.24m6.984 1.97v-10.34h2.87v1.46c.47-.75 1.37-1.55 3-1.55 1.89 0 3.62 1.05 3.62 3.61v6.82h-2.92v-6.46c0-1.12-.77-1.68-1.72-1.68-.96 0-1.93.51-1.93 1.52v6.62zm17.744-8.31h-2.3l.02 5.51c0 .76.28.86.92.86h1.39v1.8c-.28.12-.8.25-1.81.25-2.73 0-3.43-1.13-3.43-2.79v-5.63h-1.68v-2.03h1.77l.74-3.12h2.08v3.11h2.3zm4.92-6.14v2.63h-2.84v-2.63zm-.02 4.11V1144h-2.79v-10.34zm2.571 10.34v-10.34h2.87v1.46c.47-.75 1.37-1.55 3-1.55 1.89 0 3.62 1.05 3.62 3.61v6.82h-2.92v-6.46c0-1.12-.77-1.68-1.72-1.68-.96 0-1.93.51-1.93 1.52v6.62zm15.665.2c-1.9-.01-3.94-1.19-3.94-3.39v-7.15h2.92v6.78c0 .96.64 1.64 1.85 1.64 1.14 0 1.87-.62 1.87-1.69v-6.73h2.89V1144h-2.2l-.34-2.05c-.37 1.81-1.83 2.26-3.05 2.25m10.555-4.7c-.01 1.58.81 2.59 2.21 2.59 1 0 1.8-.4 2.1-1.37h2.63c-.35 2.21-2.51 3.48-4.66 3.48-3.07 0-5.17-2.04-5.17-5.25 0-3.11 1.85-5.49 5.02-5.49 3.16 0 4.82 2.15 4.82 5.25v.79zm0-1.74h4.22c0-1.25-.69-2.26-2.1-2.26-1.34 0-2.13 1.12-2.12 2.26"/><path fill="#0071bb" d="M86.018 1222.27c2.44 0 4.152 1.71 4.368 3.73H88.81c-.264-1.36-1.208-2.44-2.832-2.44-2.112 0-3.24 1.43-3.24 4.63 0 3.23 1.128 4.68 3.24 4.68 1.624 0 2.568-1.16 2.832-2.51h1.576c-.24 1.98-1.608 3.8-4.368 3.8-3.12 0-4.92-2.21-4.92-5.98s1.784-5.91 4.92-5.91m8.667 11.89c-1.608 0-2.728-.89-2.728-2.4 0-1.83 1.208-2.7 4.04-2.77l1.472-.04v-.65c0-1-.592-1.64-1.864-1.64-.952 0-1.752.42-1.952 1.4h-1.304c.088-1.6 1.32-2.49 3.328-2.49 2.152 0 3.224.93 3.224 2.65v5.78h-1.264l-.112-1.55c-.64 1.29-1.656 1.71-2.84 1.71m.44-1.06c1.112 0 2.344-.9 2.344-1.82v-1.42l-1.224.03c-1.904.03-2.856.5-2.856 1.73 0 .93.72 1.48 1.736 1.48m6.083.9v-8.27h1.432v1.2c.408-.69 1.264-1.32 2.592-1.32 1.568 0 2.896.9 2.896 2.98v5.41h-1.48v-5.26c0-1.29-.744-1.91-1.824-1.91-1.12 0-2.144.53-2.144 1.64v5.53zm12.563-8.43c1.776 0 3.096 1.09 3.32 2.77h-1.312c-.144-.87-.864-1.58-2-1.58-1.416 0-2.4 1.01-2.4 3.12 0 1.91.832 3.15 2.416 3.15 1.136 0 1.856-.75 2-1.58h1.288c-.216 1.66-1.56 2.71-3.312 2.71-2.24 0-3.808-1.49-3.808-4.26 0-2.58 1.368-4.33 3.808-4.33m6.4 4.64c0 1.57.776 2.81 2.384 2.81 1.056 0 1.888-.5 2.096-1.44h1.392c-.304 1.69-1.856 2.58-3.464 2.58-2.312 0-3.904-1.58-3.904-4.22 0-2.6 1.392-4.37 3.8-4.37 2.328 0 3.624 1.58 3.624 4.09v.55zm.008-1h4.496c0-1.43-.712-2.52-2.208-2.52-1.56 0-2.296 1.29-2.288 2.52m10.055 4.89c-1.784 0-2.088-1.07-2.088-2.23v-9.76h1.456v9.62c0 .84.344 1.24.928 1.28l.448.01v.96c-.248.08-.536.12-.744.12m-50 3.42H91.25v1.12H80.234zm10.907 0h8.848v1.12H91.14v-1.12Zm8.843 0h17.931v1.12h-17.93zm17.875 0h9.064v1.12h-9.064zm9.063 0h4.848v1.12h-4.848z"/><path fill="#454545" d="M97.389 221.476c4.564 0 7.84 3.01 8.246 6.986h-4.284c-.378-2.114-1.75-3.626-4.088-3.626-2.828 0-4.55 1.932-4.55 6.93 0 5.04 1.722 7.154 4.55 7.154 2.338 0 3.71-1.806 4.088-3.92h4.284c-.49 3.85-2.548 7.28-8.246 7.28-5.656 0-9.17-4.2-9.17-10.57s3.472-10.234 9.17-10.234m17.702 20.804c-4.256 0-7-2.87-7-7.434s2.716-7.602 7.014-7.602c4.27 0 6.986 2.968 6.986 7.602 0 4.354-2.59 7.434-7 7.434m.014-3.038c2.142 0 2.982-2.1 2.982-4.536 0-2.296-.714-4.452-2.982-4.452-2.17 0-3.024 1.988-3.024 4.452 0 2.268.728 4.536 3.024 4.536m9.778 2.758v-14.476h4.018v2.044c.658-1.05 1.918-2.17 4.2-2.17 2.646 0 5.068 1.47 5.068 5.054V242h-4.088v-9.044c0-1.568-1.078-2.352-2.408-2.352-1.344 0-2.702.714-2.702 2.128V242zm16.597 0v-14.476h4.018v2.044c.658-1.05 1.918-2.17 4.2-2.17 2.646 0 5.068 1.47 5.068 5.054V242h-4.088v-9.044c0-1.568-1.078-2.352-2.408-2.352-1.344 0-2.702.714-2.702 2.128V242zm20.056-6.3c-.014 2.212 1.134 3.626 3.094 3.626 1.4 0 2.52-.56 2.94-1.918h3.682c-.49 3.094-3.514 4.872-6.524 4.872-4.298 0-7.238-2.856-7.238-7.35 0-4.354 2.59-7.686 7.028-7.686 4.424 0 6.748 3.01 6.748 7.35v1.106zm0-2.436h5.908c0-1.75-.966-3.164-2.94-3.164-1.876 0-2.982 1.568-2.968 3.164m18.975-6.02c3.626 0 5.88 2.45 6.104 5.558h-3.402c-.182-1.148-.994-2.45-2.674-2.45-1.904 0-3.206 1.456-3.206 4.438 0 2.828 1.218 4.592 3.29 4.592 1.652 0 2.464-1.442 2.632-2.436h3.318c-.182 2.996-2.52 5.334-6.062 5.334-4.032 0-6.986-2.828-6.986-7.462 0-4.494 2.772-7.574 6.986-7.574m17.311 3.122h-3.22l.028 7.714c0 1.064.392 1.204 1.288 1.204h1.946v2.52c-.392.168-1.12.35-2.534.35-3.822 0-4.802-1.582-4.802-3.906v-7.882h-2.352v-2.842h2.478l1.036-4.368h2.912v4.354h3.22zm11.415 16.254c-1.988 0-2.716-.49-2.716-.49v-2.604l1.442.056c2.506.154 2.828-.966 2.996-1.386l.266-.798-5.628-13.874h4.046l3.472 9.436 3.5-9.436h4.004l-5.866 14.56c-1.512 3.696-3.262 4.536-5.516 4.536m19.386-4.34c-4.256 0-7-2.87-7-7.434s2.716-7.602 7.014-7.602c4.27 0 6.986 2.968 6.986 7.602 0 4.354-2.59 7.434-7 7.434m.014-3.038c2.142 0 2.982-2.1 2.982-4.536 0-2.296-.714-4.452-2.982-4.452-2.17 0-3.024 1.988-3.024 4.452 0 2.268.728 4.536 3.024 4.536m15.002 3.038c-2.66-.014-5.516-1.666-5.516-4.746v-10.01h4.088v9.492c0 1.344.896 2.296 2.59 2.296 1.596 0 2.618-.868 2.618-2.366v-9.422h4.046V242h-3.08l-.476-2.87c-.518 2.534-2.562 3.164-4.27 3.15m11.4-.28v-14.476h3.934v3.43c.686-2.212 2.31-3.71 4.592-3.71.266 0 .518.028.63.084v3.892c-.168-.07-.42-.084-.616-.098-3.22-.28-4.452 1.008-4.452 2.954V242zm30.234-14.476L279.841 242h-2.968l-5.432-14.476h3.696l3.164 9.226h.112l3.122-9.226zm5.134 8.176c-.014 2.212 1.134 3.626 3.094 3.626 1.4 0 2.52-.56 2.94-1.918h3.682c-.49 3.094-3.514 4.872-6.524 4.872-4.298 0-7.238-2.856-7.238-7.35 0-4.354 2.59-7.686 7.028-7.686 4.424 0 6.748 3.01 6.748 7.35v1.106zm0-2.436h5.908c0-1.75-.966-3.164-2.94-3.164-1.876 0-2.982 1.568-2.968 3.164M303.082 242v-14.476h3.934v3.43c.686-2.212 2.31-3.71 4.592-3.71.266 0 .518.028.63.084v3.892c-.168-.07-.42-.084-.616-.098-3.22-.28-4.452 1.008-4.452 2.954V242zm15.515-20.23v3.682h-3.976v-3.682zm-.028 5.754V242h-3.906v-14.476zm12.295 0v2.842h-3.052V242h-4.102v-11.634h-2.674v-2.842h2.674v-2.086c0-2.338 1.442-3.682 3.948-3.682h3.318l.028 2.716h-1.918c-1.036 0-1.358.476-1.358 1.652v1.4zm6.3-5.754v3.682h-3.976v-3.682zm-.028 5.754V242h-3.906v-14.476zm6.974 8.176c-.014 2.212 1.134 3.626 3.094 3.626 1.4 0 2.52-.56 2.94-1.918h3.682c-.49 3.094-3.514 4.872-6.524 4.872-4.298 0-7.238-2.856-7.238-7.35 0-4.354 2.59-7.686 7.028-7.686 4.424 0 6.748 3.01 6.748 7.35v1.106zm0-2.436h5.908c0-1.75-.966-3.164-2.94-3.164-1.876 0-2.982 1.568-2.968 3.164m18.149 9.016c-3.892 0-6.16-2.814-6.16-7.602 0-4.536 2.03-7.434 5.754-7.434 2.072 0 3.668 1.008 4.368 2.24v-8.288h4.102V242h-2.968l-.462-2.968c-.518 1.596-1.778 3.248-4.634 3.248m.896-2.94c2.058 0 3.066-1.302 3.066-4.718-.028-2.954-1.008-4.41-3.038-4.41-1.778 0-3.094 1.232-3.094 4.41 0 3.22 1.19 4.718 3.066 4.718m20.958-17.57v3.682h-3.976v-3.682zm-.028 5.754V242h-3.906v-14.476zM387.684 242v-14.476h4.018v2.044c.658-1.05 1.918-2.17 4.2-2.17 2.646 0 5.068 1.47 5.068 5.054V242h-4.088v-9.044c0-1.568-1.078-2.352-2.408-2.352-1.344 0-2.702.714-2.702 2.128V242zm25.157-14.476v2.842h-3.052V242h-4.102v-11.634h-2.674v-2.842h2.674v-2.086c0-2.338 1.442-3.682 3.948-3.682h3.318l.028 2.716h-1.919c-1.036 0-1.358.476-1.358 1.652v1.4zm8.555 14.756c-4.256 0-7-2.87-7-7.434s2.716-7.602 7.014-7.602c4.27 0 6.986 2.968 6.986 7.602 0 4.354-2.59 7.434-7 7.434m.014-3.038c2.142 0 2.982-2.1 2.982-4.536 0-2.296-.714-4.452-2.982-4.452-2.17 0-3.024 1.988-3.024 4.452 0 2.268.728 4.536 3.024 4.536m9.778 2.758v-14.476h3.934v3.43c.686-2.212 2.31-3.71 4.592-3.71.266 0 .518.028.63.084v3.892c-.168-.07-.42-.084-.616-.098-3.221-.28-4.452 1.008-4.452 2.954V242zm11.539 0v-14.476h4.004v2.044c.868-1.274 2.31-2.324 4.578-2.324 1.484 0 3.206.798 4.06 2.324.938-1.316 2.506-2.324 4.382-2.324 2.156 0 4.732 1.302 4.732 5.208V242h-4.088v-9.044c0-1.75-1.162-2.38-2.324-2.38-1.078 0-2.45.616-2.45 2.156V242h-4.074v-9.408c0-1.316-1.218-2.016-2.296-2.016-1.12 0-2.436.7-2.436 2.156V242zm29.262.28c-2.758 0-4.886-1.596-4.886-4.424 0-3.164 2.282-4.844 7.392-4.9l1.82-.028v-.868c0-1.33-.756-2.072-2.394-2.058-1.19.014-2.394.504-2.8 1.834h-3.402c.154-3.136 2.772-4.592 6.398-4.592 4.424 0 6.118 1.736 6.118 4.578V242h-3.416l-.336-2.492c-.994 2.1-2.464 2.772-4.494 2.772m1.386-2.688c1.47 0 2.926-1.176 2.94-2.422v-2.142l-1.47.028c-2.044.028-3.864.63-3.864 2.394 0 1.344 1.05 2.142 2.394 2.142m18.42-9.226h-3.22l.028 7.714c0 1.064.392 1.204 1.288 1.204h1.946v2.52c-.392.168-1.12.35-2.534.35-3.822 0-4.802-1.582-4.802-3.906v-7.882h-2.352v-2.842h2.478l1.036-4.368h2.912v4.354h3.22zm6.888-8.596v3.682h-3.976v-3.682zm-.028 5.754V242h-3.906v-14.476zm9.831 14.756c-4.256 0-7-2.87-7-7.434s2.716-7.602 7.014-7.602c4.27 0 6.986 2.968 6.986 7.602 0 4.354-2.59 7.434-7 7.434m.014-3.038c2.142 0 2.982-2.1 2.982-4.536 0-2.296-.714-4.452-2.982-4.452-2.17 0-3.024 1.988-3.024 4.452 0 2.268.728 4.536 3.024 4.536m9.777 2.758v-14.476h4.018v2.044c.658-1.05 1.918-2.17 4.2-2.17 2.646 0 5.068 1.47 5.068 5.054V242h-4.088v-9.044c0-1.568-1.078-2.352-2.408-2.352-1.344 0-2.702.714-2.702 2.128V242zm-232.805 25.366h-3.22l.028 7.714c0 1.064.392 1.204 1.288 1.204h1.946v2.52c-.392.168-1.12.35-2.534.35-3.822 0-4.802-1.582-4.802-3.906v-7.882h-2.352v-2.842h2.478l1.036-4.368h2.912v4.354h3.22zm8.762 11.914c-4.256 0-7-2.87-7-7.434s2.716-7.602 7.014-7.602c4.27 0 6.986 2.968 6.986 7.602 0 4.354-2.59 7.434-7 7.434m.014-3.038c2.142 0 2.982-2.1 2.982-4.536 0-2.296-.714-4.452-2.982-4.452-2.17 0-3.024 1.988-3.024 4.452 0 2.268.728 4.536 3.024 4.536m32.99-17.486-7 20.244h-4.634l-7-20.244h3.906l5.418 15.498 5.39-15.498zM325.44 279l7.238-20.244h4.326L344.242 279h-4.074l-1.652-4.69h-7.294l-1.68 4.69zm6.706-8.26h5.376l-2.674-8.05z"/><path fill="#ebf3fa" d="M310.105 158.612c28.777 0 52.106-22.593 52.106-50.462s-23.329-50.463-52.106-50.463S258 80.28 258 108.15c0 27.869 23.328 50.462 52.105 50.462"/><path stroke="#a8b6c6" stroke-width="2" d="M362.211 108.15c0-27.87-23.329-50.463-52.106-50.463S258 80.28 258 108.15"/><path fill="#fff" fill-rule="evenodd" d="m354.158 100.217.001 34.322c-9.415 13.987-25.447 23.204-43.659 23.204-18.946 0-35.533-9.975-44.765-24.92l.002-32.606z" clip-rule="evenodd"/><path fill="#112e51" d="M349.373 68.32c3.863 0 6.995 3.013 6.995 6.73v56.938a50 50 0 0 1-2.209 3.434l-.001-60.373c0-2.542-2.142-4.602-4.785-4.602h-77.746c-2.643 0-4.785 2.06-4.785 4.602l-.001 60.373a50 50 0 0 1-2.21-3.435V75.049c0-3.716 3.132-6.729 6.996-6.729z"/><path fill="#112e51" fill-rule="evenodd" d="M270.737 69.383h79.526c2.762 0 5 2.153 5 4.81V86.38h-89.526V74.193c0-2.657 2.238-4.81 5-4.81" clip-rule="evenodd"/><path fill="#fff" d="M273.394 79.582c.976 0 1.767-.76 1.767-1.7 0-.938-.791-1.7-1.767-1.7s-1.767.762-1.767 1.7c0 .94.791 1.7 1.767 1.7m5.89 0c.975 0 1.767-.76 1.767-1.7 0-.938-.792-1.7-1.767-1.7-.976 0-1.767.762-1.767 1.7 0 .94.791 1.7 1.767 1.7m5.89 0c.976 0 1.767-.76 1.767-1.7 0-.938-.791-1.7-1.767-1.7s-1.767.762-1.767 1.7c0 .94.791 1.7 1.767 1.7"/><path stroke="#fff" stroke-linecap="round" stroke-width="3" d="M318.746 77.882h30.627"/><mask id="a" width="28" height="28" x="274" y="95" maskUnits="userSpaceOnUse" style="mask-type:alpha"><path fill="#fff" d="M288.395 122.158c7.491 0 13.564-6.037 13.564-13.484s-6.073-13.484-13.564-13.484c-7.492 0-13.565 6.037-13.565 13.484s6.073 13.484 13.565 13.484"/></mask><g mask="url(#a)"><path fill="#e6e6e6" d="M288.395 122.158c7.491 0 13.564-6.037 13.564-13.484s-6.073-13.484-13.564-13.484c-7.492 0-13.565 6.037-13.565 13.484s6.073 13.484 13.565 13.484"/><path fill="#cedced" d="M301.959 95.19H274.83v26.968h27.129z"/></g><mask id="b" width="31" height="32" x="273" y="91" maskUnits="userSpaceOnUse" style="mask-type:alpha"><path fill="#fff" d="M274.83 109.109c0 7.207 6.073 13.049 13.565 13.049s13.564-5.842 13.564-13.049h1.357V91.711h-29.842v17.398z"/></mask><g mask="url(#b)"><mask id="c" width="23" height="28" x="277" y="95" maskUnits="userSpaceOnUse" style="mask-type:alpha"><path fill="#fff" d="M291.108 111.351v2h.452c4.495 0 8.138 3.505 8.138 7.829v.979h-22.607v-.979c0-4.324 3.643-7.829 8.139-7.829h.452v-2c-1.949-.89-3.349-2.71-3.583-4.864-.658-.089-1.165-.634-1.165-1.292v-1.522c0-.647.489-1.184 1.131-1.287v-.671c0-3.363 2.834-6.089 6.33-6.089s6.33 2.726 6.33 6.089v.671c.641.103 1.13.64 1.13 1.287v1.522c0 .658-.506 1.203-1.165 1.292-.234 2.154-1.634 3.974-3.582 4.864"/></mask><g mask="url(#c)"><path fill="#d0c6ac" d="M291.108 111.351v2h.452c4.495 0 8.138 3.505 8.138 7.829v.979h-22.607v-.979c0-4.324 3.643-7.829 8.139-7.829h.452v-2c-1.949-.89-3.349-2.71-3.583-4.864-.658-.089-1.165-.634-1.165-1.292v-1.522c0-.647.489-1.184 1.131-1.287v-.671c0-3.363 2.834-6.089 6.33-6.089s6.33 2.726 6.33 6.089v.671c.641.103 1.13.64 1.13 1.287v1.522c0 .658-.506 1.203-1.165 1.292-.234 2.154-1.634 3.974-3.582 4.864"/><path fill="#d08b5b" d="M303.316 95.626h-29.842v26.533h29.842z"/><path fill="#000" fill-opacity=".1" fill-rule="evenodd" d="M294.725 104.217v2.501c0 3.363-2.834 6.089-6.33 6.089s-6.331-2.726-6.331-6.089v-2.501 1.631c0 3.363 2.835 6.089 6.331 6.089s6.33-2.726 6.33-6.089z" clip-rule="evenodd"/></g><mask id="d" width="23" height="10" x="277" y="113" maskUnits="userSpaceOnUse" style="mask-type:alpha"><path fill="#fff" d="M292.233 113.382c4.18.33 7.465 3.697 7.465 7.803v.973h-22.607v-.973c0-4.143 3.345-7.534 7.579-7.811a1 1 0 0 0-.006.123c0 1.29 1.696 2.336 3.787 2.336s3.787-1.046 3.787-2.336q0-.058-.005-.115"/></mask><g mask="url(#d)"><path fill="#e6e6e6" fill-rule="evenodd" d="M292.233 113.382c4.18.33 7.465 3.697 7.465 7.803v.973h-22.607v-.973c0-4.143 3.345-7.534 7.579-7.811a1 1 0 0 0-.006.123c0 1.29 1.696 2.336 3.787 2.336s3.787-1.046 3.787-2.336q0-.058-.005-.115" clip-rule="evenodd"/><path fill="#262e33" d="M303.316 110.196h-29.842v11.962h29.842z"/><path fill="#000" fill-opacity=".16" d="M288.452 116.586c2.474 0 4.479-1.311 4.479-2.927s-2.005-2.927-4.479-2.927c-2.476 0-4.481 1.311-4.481 2.927s2.005 2.927 4.481 2.927" opacity=".6"/></g><path fill="#3a4c5a" fill-rule="evenodd" d="M284.866 113.363c-4.326.183-7.775 3.615-7.775 7.822v.973h7.84c-.384-1.314-.606-2.859-.606-4.513 0-1.558.197-3.019.541-4.282m7.105 8.795h7.727v-.973c0-4.17-3.388-7.578-7.66-7.816.343 1.261.539 2.721.539 4.276 0 1.654-.221 3.199-.606 4.513" clip-rule="evenodd"/><path fill="#2f4351" fill-rule="evenodd" d="M284.89 113.241q-.678 3.154.566 8.917h-1.809l-1.583-3.915.679-.978-.679-.653 2.148-3.262q.344-.103.678-.109m7.009 0q.678 3.154-.566 8.917h1.809l1.583-3.915-.679-.978.679-.653-2.148-3.262a2.5 2.5 0 0 0-.678-.109" clip-rule="evenodd"/><path fill="#000" fill-opacity=".7" fill-rule="evenodd" d="M286.812 107.913c0 .841.709 1.522 1.583 1.522s1.582-.681 1.582-1.522" clip-rule="evenodd"/><path fill="#000" fill-opacity=".16" fill-rule="evenodd" d="M287.038 105.848c0 .487.608.882 1.357.882.748 0 1.356-.395 1.356-.882" clip-rule="evenodd"/><path fill="#000" fill-opacity=".6" d="M285.456 104.561a.67.67 0 0 0 .678-.662.67.67 0 0 0-.678-.662.67.67 0 0 0-.679.662c0 .365.304.662.679.662m5.878 0a.67.67 0 0 0 .678-.662.67.67 0 0 0-.678-.662.67.67 0 0 0-.679.662c0 .365.304.662.679.662m-7.502-2.05c.442-.608 1.655-.948 2.7-.698a.227.227 0 0 0 .274-.161.22.22 0 0 0-.166-.267c-1.213-.291-2.619.104-3.177.871a.216.216 0 0 0 .053.307.23.23 0 0 0 .316-.052m9.126 0c-.442-.608-1.656-.948-2.7-.698a.226.226 0 0 1-.274-.161.22.22 0 0 1 .165-.267c1.214-.291 2.619.104 3.178.871a.217.217 0 0 1-.053.307.23.23 0 0 1-.316-.052"/><mask id="e" width="31" height="32" x="273" y="91" maskUnits="userSpaceOnUse" style="mask-type:alpha"><path fill="#fff" d="M303.316 91.71h-29.842v30.448h29.842V91.711Z"/></mask><g mask="url(#e)"><mask id="f" width="24" height="28" x="277" y="93" maskUnits="userSpaceOnUse" style="mask-type:alpha"><path fill="#fff" d="M280.256 110.473v-9.623q.001-.577.13-1.117c.346-2.18 1.653-3.91 3.148-4.978 2.25-1.605 6.041-2.068 7.353-.16.978-.418 2.427-.037 3.499.922 1.081 1.023 1.944 3.283 1.431 5.132q.017.207.018.418v2.376a1.335 1.335 0 0 0-1.11-1.058v-.018c-.683-2.342-2.687-3.416-3.907-4.482-1.91 2.054-7.869 2.062-9.884 6.113v1.088c0 .654.501 1.196 1.154 1.29.197 2.202 1.613 4.069 3.594 4.974v.043c.331 4.769-.751 10.743-7.8 8.916 1.539-.865 2.352-6.409 2.374-9.836m10.852.877c1.981-.905 3.396-2.772 3.594-4.974a1.34 1.34 0 0 0 1.133-1.061v.148c0 1.721.425 3.418 1.239 4.95l3.046 5.732c.787 1.481.556 3.205-.445 4.433-.319-4.043-3.83-7.228-8.115-7.228h-.452z"/></mask><g mask="url(#f)"><path fill="#272c2e" fill-rule="evenodd" d="M280.256 110.473v-9.623q.001-.577.13-1.117c.346-2.18 1.653-3.91 3.148-4.978 2.25-1.605 6.041-2.068 7.353-.16.978-.418 2.427-.037 3.499.922 1.081 1.023 1.944 3.283 1.431 5.132q.017.207.018.418v2.376a1.335 1.335 0 0 0-1.11-1.058v-.018c-.683-2.342-2.687-3.416-3.907-4.482-1.91 2.054-7.869 2.062-9.884 6.113v1.088c0 .654.501 1.196 1.154 1.29.197 2.202 1.613 4.069 3.594 4.974v.043c.331 4.769-.751 10.743-7.8 8.916 1.539-.865 2.352-6.409 2.374-9.836m10.852.877c1.981-.905 3.396-2.772 3.594-4.974a1.34 1.34 0 0 0 1.133-1.061v.148c0 1.721.425 3.418 1.239 4.95l3.046 5.732c.787 1.481.556 3.205-.445 4.433-.319-4.043-3.83-7.228-8.115-7.228h-.452z" clip-rule="evenodd"/><path fill="#2c1b18" d="M307.724 93.343h-29.842v30.447h29.842z"/></g><path fill="#000" fill-opacity=".16" fill-rule="evenodd" d="M280.935 103.998c2.014-3.516 7.973-3.522 9.883-5.305 1.218.923 3.216 1.637 3.903 3.66-.687-2.332-2.685-3.404-3.903-4.468-1.91 2.055-7.869 2.062-9.883 6.113" clip-rule="evenodd"/></g></g><path fill="#a8b6c6" d="M348.373 103.406h-35.695c-.553 0-1-.43-1-.962v-3.392c0-.531.447-.962 1-.962h35.695c.552 0 1 .43 1 .962v3.392c0 .532-.448.962-1 .962m-10.602 8.507h-25.093c-.553 0-1-.431-1-.962v-3.392c0-.531.447-.962 1-.962h25.093c.553 0 1 .431 1 .962v3.392c0 .531-.447.962-1 .962m5.89 8.506h-30.983c-.553 0-1-.431-1-.962v-3.392c0-.532.447-.962 1-.962h30.983c.552 0 1 .43 1 .962v3.392c0 .531-.448.962-1 .962"/><path fill="#e21c3d" d="M301.211 128.925h-25.632c-.552 0-1-.431-1-.962v-3.392c0-.532.448-.962 1-.962h25.632c.552 0 1 .43 1 .962v3.392c0 .531-.448.962-1 .962"/><path fill="#a8b6c6" d="M337.771 128.925h-25.093c-.553 0-1-.431-1-.962v-3.392c0-.532.447-.962 1-.962h25.093c.553 0 1 .43 1 .962v3.392c0 .531-.447.962-1 .962"/><path stroke="#a8b6c6" stroke-width="2" d="M258 108.191c0 27.87 23.328 50.463 52.105 50.463s52.106-22.593 52.106-50.463"/><path fill="#fff" stroke="#a8b6c6" stroke-width="2" d="M310.5 170.239c8.008 0 14.5-6.245 14.5-13.949s-6.492-13.948-14.5-13.948-14.5 6.245-14.5 13.948 6.492 13.949 14.5 13.949Z"/><path fill="#63bb60" d="M324 156.29c0 7.173-6.044 12.986-13.5 12.986S297 163.463 297 156.29s6.044-12.986 13.5-12.986 13.5 5.813 13.5 12.986m-15.062 6.876 10.017-9.635a.817.817 0 0 0 0-1.186l-1.232-1.184a.896.896 0 0 0-1.232 0l-8.168 7.857-3.814-3.668a.896.896 0 0 0-1.232 0l-1.232 1.186a.815.815 0 0 0 0 1.184l5.662 5.446a.895.895 0 0 0 1.231 0"/><path fill="#454545" d="m89.528 325.432-3.92 6.648V337h-1.472v-4.928l-3.944-6.64h1.616l3.072 5.32 3.024-5.32zm3.727 11.728c-2.296 0-3.792-1.504-3.792-4.264 0-2.592 1.352-4.328 3.8-4.328 2.28 0 3.76 1.544 3.76 4.328 0 2.528-1.304 4.264-3.768 4.264m.008-1.168c1.48 0 2.296-1.184 2.296-3.128 0-1.768-.672-3.136-2.296-3.136-1.504 0-2.328 1.168-2.328 3.136 0 1.744.672 3.128 2.328 3.128m8.735 1.168c-1.72-.016-3.176-.952-3.176-2.816v-5.616h1.48v5.464c0 1.08.656 1.816 2.008 1.816 1.216 0 2.024-.64 2.024-1.896v-5.384h1.472V337h-1.176l-.152-1.584c-.304 1.24-1.312 1.752-2.48 1.744m10.132-.16v-8.272h1.424v1.2c.456-.728 1.216-1.36 2.504-1.36.904 0 1.952.472 2.384 1.352.512-.808 1.424-1.352 2.52-1.352 1.168 0 2.696.576 2.696 3.024V337h-1.488v-5.264c0-1.496-.824-1.912-1.696-1.912-.776 0-1.856.392-1.856 1.648V337h-1.472v-5.696c0-.984-.912-1.48-1.68-1.48-.848 0-1.864.488-1.864 1.648V337zm16.133.16c-1.608 0-2.728-.888-2.728-2.4 0-1.832 1.208-2.704 4.04-2.768l1.472-.04v-.648c0-1.008-.592-1.648-1.864-1.648-.952.008-1.752.424-1.952 1.408h-1.304c.088-1.608 1.32-2.496 3.328-2.496 2.152 0 3.224.928 3.224 2.656V337h-1.264l-.112-1.552c-.64 1.288-1.656 1.712-2.84 1.712m.44-1.064c1.112 0 2.344-.896 2.344-1.816v-1.416l-1.224.024c-1.904.032-2.856.504-2.856 1.728 0 .936.72 1.48 1.736 1.48m6.642 3.544c-.968 0-1.272-.208-1.272-.208v-.96l.848.016c1.232.048 1.528-.496 1.696-.904l.288-.784-3.232-8.072h1.496l2.44 6.384 2.424-6.384h1.448l-3.48 8.896c-.648 1.576-1.512 2.016-2.656 2.016m14.691-11.072c1.776 0 3.096 1.088 3.32 2.776h-1.312c-.144-.872-.864-1.584-2-1.584-1.416 0-2.4 1.008-2.4 3.12 0 1.912.832 3.152 2.416 3.152 1.136 0 1.856-.752 2-1.584h1.288c-.216 1.664-1.56 2.712-3.312 2.712-2.24 0-3.808-1.488-3.808-4.264 0-2.576 1.368-4.328 3.808-4.328m5.266 8.432v-11.888h1.44v4.832c.416-.68 1.256-1.32 2.584-1.32 1.616 0 2.888.952 2.888 2.464V337h-1.48v-5.616c0-.984-.744-1.552-1.832-1.552-1.12 0-2.128.536-2.128 1.648V337zm11.508.16c-1.608 0-2.728-.888-2.728-2.4 0-1.832 1.208-2.704 4.04-2.768l1.472-.04v-.648c0-1.008-.592-1.648-1.864-1.648-.952.008-1.752.424-1.952 1.408h-1.304c.088-1.608 1.32-2.496 3.328-2.496 2.152 0 3.224.928 3.224 2.656V337h-1.264l-.112-1.552c-.64 1.288-1.656 1.712-2.84 1.712m.44-1.064c1.112 0 2.344-.896 2.344-1.816v-1.416l-1.224.024c-1.904.032-2.856.504-2.856 1.728 0 .936.72 1.48 1.736 1.48m6.083.904v-8.272h1.432v1.2c.408-.688 1.264-1.32 2.592-1.32 1.568 0 2.896.904 2.896 2.984V337h-1.48v-5.264c0-1.288-.744-1.904-1.824-1.904-1.12 0-2.144.528-2.144 1.64V337zm12.731 2.736c-2.592 0-4.12-.776-4.12-2.176 0-1.192 1.36-1.648 1.568-1.8-.288-.168-.856-.4-.856-1.04 0-.52.488-.992 1.464-1.208-.976-.488-1.544-1.344-1.544-2.296 0-1.608 1.352-2.616 3.6-2.616 1.072 0 1.744.264 2.376.72.352-.144 1.664-.688 2.112-.872l-.008 1.368-1.448.272c.168.344.272.776.272 1.128 0 1.464-1.136 2.616-3.448 2.616-.128 0-.36-.008-.496-.016-1.136.032-1.48.288-1.48.552 0 .304.424.392 1.576.472.416.024 1.04.056 1.8.104 1.728.104 2.704.92 2.704 2.24 0 1.504-1.328 2.552-4.072 2.552m.016-6.856c1.184 0 1.984-.56 1.984-1.648 0-1.112-.8-1.72-1.984-1.72-1.216 0-2.024.608-2.024 1.72 0 1.048.736 1.648 2.024 1.648m.248 5.904c1.528 0 2.368-.456 2.368-1.384 0-.656-.504-1.112-1.512-1.176l-2.32-.152c-.624-.032-1.448.552-1.448 1.32 0 .88.92 1.392 2.912 1.392m7.015-5.576c0 1.568.776 2.808 2.384 2.808 1.056 0 1.888-.496 2.096-1.432h1.392c-.304 1.688-1.856 2.576-3.464 2.576-2.312 0-3.904-1.576-3.904-4.216 0-2.608 1.392-4.376 3.8-4.376 2.328 0 3.624 1.584 3.624 4.096v.544zm.008-1h4.496c0-1.424-.712-2.52-2.208-2.52-1.56 0-2.296 1.288-2.288 2.52m22.527-3.48L213.374 337h-1.456l-1.88-6.104-1.8 6.104h-1.44l-2.56-8.272h1.376l1.888 6.36h.128l1.864-6.36h1.12l1.936 6.344h.128l1.816-6.344zm1.69 8.272v-11.888h1.44v4.832c.416-.68 1.256-1.32 2.584-1.32 1.616 0 2.888.952 2.888 2.464V337H223v-5.616c0-.984-.744-1.552-1.832-1.552-1.12 0-2.128.536-2.128 1.648V337zm10.731-11.56v1.536h-1.512v-1.536zm-.04 3.288V337h-1.432v-8.272zm5.809-.16c1.776 0 3.096 1.088 3.32 2.776h-1.312c-.144-.872-.864-1.584-2-1.584-1.416 0-2.4 1.008-2.4 3.12 0 1.912.832 3.152 2.416 3.152 1.136 0 1.856-.752 2-1.584h1.288c-.216 1.664-1.56 2.712-3.312 2.712-2.24 0-3.808-1.488-3.808-4.264 0-2.576 1.368-4.328 3.808-4.328m5.265 8.432v-11.888h1.44v4.832c.416-.68 1.256-1.32 2.584-1.32 1.616 0 2.888.952 2.888 2.464V337h-1.48v-5.616c0-.984-.744-1.552-1.832-1.552-1.12 0-2.128.536-2.128 1.648V337zm13.995-3.792c0 1.568.776 2.808 2.384 2.808 1.056 0 1.888-.496 2.096-1.432h1.392c-.304 1.688-1.856 2.576-3.464 2.576-2.312 0-3.904-1.576-3.904-4.216 0-2.608 1.392-4.376 3.8-4.376 2.328 0 3.624 1.584 3.624 4.096v.544zm.008-1h4.496c0-1.424-.712-2.52-2.208-2.52-1.56 0-2.296 1.288-2.288 2.52m7.966 4.792v-8.272h1.424v1.2c.456-.728 1.216-1.36 2.504-1.36.904 0 1.952.472 2.384 1.352.512-.808 1.424-1.352 2.52-1.352 1.168 0 2.696.576 2.696 3.024V337h-1.488v-5.264c0-1.496-.824-1.912-1.696-1.912-.776 0-1.856.392-1.856 1.648V337h-1.472v-5.696c0-.984-.912-1.48-1.68-1.48-.848 0-1.864.488-1.864 1.648V337zm16.133.16c-1.608 0-2.728-.888-2.728-2.4 0-1.832 1.208-2.704 4.04-2.768l1.472-.04v-.648c0-1.008-.592-1.648-1.864-1.648-.952.008-1.752.424-1.952 1.408h-1.304c.088-1.608 1.32-2.496 3.328-2.496 2.152 0 3.224.928 3.224 2.656V337h-1.264l-.112-1.552c-.64 1.288-1.656 1.712-2.84 1.712m.44-1.064c1.112 0 2.344-.896 2.344-1.816v-1.416l-1.224.024c-1.904.032-2.856.504-2.856 1.728 0 .936.72 1.48 1.736 1.48m7.595-10.656v1.536h-1.512v-1.536zm-.04 3.288V337h-1.432v-8.272zm4.679 8.376c-1.784 0-2.088-1.072-2.088-2.232v-9.76h1.456v9.616c0 .84.344 1.24.928 1.28l.448.008v.96c-.248.08-.536.128-.744.128m7.361 2.536c-.968 0-1.272-.208-1.272-.208v-.96l.848.016c1.232.048 1.528-.496 1.696-.904l.288-.784-3.232-8.072h1.496l2.44 6.384 2.424-6.384h1.448l-3.48 8.896c-.648 1.576-1.512 2.016-2.656 2.016m10.894-2.48c-2.296 0-3.792-1.504-3.792-4.264 0-2.592 1.352-4.328 3.8-4.328 2.28 0 3.76 1.544 3.76 4.328 0 2.528-1.304 4.264-3.768 4.264m.008-1.168c1.48 0 2.296-1.184 2.296-3.128 0-1.768-.672-3.136-2.296-3.136-1.504 0-2.328 1.168-2.328 3.136 0 1.744.672 3.128 2.328 3.128m8.736 1.168c-1.72-.016-3.176-.952-3.176-2.816v-5.616h1.48v5.464c0 1.08.656 1.816 2.008 1.816 1.216 0 2.024-.64 2.024-1.896v-5.384h1.472V337h-1.176l-.152-1.584c-.304 1.24-1.312 1.752-2.48 1.744m13.108 0c-1.728 0-3.2-.784-3.44-2.568h1.344c.208.968 1.04 1.464 2.088 1.464 1.12 0 1.864-.408 1.864-1.272 0-.608-.352-.96-1.104-1.136l-1.712-.424c-1.336-.32-2.192-.952-2.2-2.184-.008-1.448 1.056-2.472 3.152-2.472 1.792 0 2.984.824 3.04 2.376h-1.312c-.112-.792-.72-1.288-1.744-1.288-1.056 0-1.784.416-1.784 1.296 0 .592.48.888 1.392 1.112l1.664.416c1.52.4 1.936 1.408 1.936 2.224 0 1.52-1.168 2.456-3.184 2.456m5.133-.16v-11.888h1.44v4.832c.416-.68 1.256-1.32 2.584-1.32 1.616 0 2.888.952 2.888 2.464V337h-1.48v-5.616c0-.984-.744-1.552-1.832-1.552-1.12 0-2.128.536-2.128 1.648V337zm11.508.16c-1.608 0-2.728-.888-2.728-2.4 0-1.832 1.208-2.704 4.04-2.768l1.472-.04v-.648c0-1.008-.592-1.648-1.864-1.648-.952.008-1.752.424-1.952 1.408h-1.304c.088-1.608 1.32-2.496 3.328-2.496 2.152 0 3.224.928 3.224 2.656V337h-1.264l-.112-1.552c-.64 1.288-1.656 1.712-2.84 1.712m.44-1.064c1.112 0 2.344-.896 2.344-1.816v-1.416l-1.224.024c-1.904.032-2.856.504-2.856 1.728 0 .936.72 1.48 1.736 1.48m6.083.904v-8.272h1.408v1.592c.416-1.192 1.4-1.752 2.448-1.752.24 0 .496.032.632.104v1.432c-.16-.072-.456-.096-.624-.096-1.32-.088-2.392.472-2.392 1.848V337zm7.213-3.792c0 1.568.776 2.808 2.384 2.808 1.056 0 1.888-.496 2.096-1.432h1.392c-.304 1.688-1.856 2.576-3.464 2.576-2.312 0-3.904-1.576-3.904-4.216 0-2.608 1.392-4.376 3.8-4.376 2.328 0 3.624 1.584 3.624 4.096v.544zm.008-1h4.496c0-1.424-.712-2.52-2.208-2.52-1.56 0-2.296 1.288-2.288 2.52m22.527-3.48L380.624 337h-1.456l-1.88-6.104-1.8 6.104h-1.44l-2.56-8.272h1.376l1.888 6.36h.128l1.864-6.36h1.12l1.936 6.344h.128l1.816-6.344zm3.202-3.288v1.536h-1.512v-1.536zm-.04 3.288V337h-1.432v-8.272zm6.689 1.08h-1.864v5.144c0 .88.232.96 1.008.96h.904v.992c-.208.08-.624.136-1.224.136-1.72 0-2.176-.712-2.176-2.04v-5.192h-1.344v-1.08h1.384l.36-2.408h1.088v2.4h1.864zM394.99 337v-11.888h1.44v4.832c.416-.68 1.256-1.32 2.584-1.32 1.616 0 2.888.952 2.888 2.464V337h-1.48v-5.616c0-.984-.744-1.552-1.832-1.552-1.12 0-2.128.536-2.128 1.648V337zm22.837-11.568-4 11.568h-2.648l-4-11.568h2.232l3.096 8.856 3.08-8.856zM416.799 337l4.136-11.568h2.472L427.543 337h-2.328l-.944-2.68h-4.168l-.96 2.68zm3.832-4.72h3.072l-1.528-4.6zm16.556 4.88c-1.936 0-2.592-1.208-2.8-1.856l-.16 1.696h-1.128v-11.888h1.488v4.928c.272-.536 1.136-1.472 2.712-1.472 2.064 0 3.384 1.456 3.384 4.264 0 2.608-1.168 4.328-3.496 4.328m-.264-1.136c1.336 0 2.272-.992 2.272-3.264 0-1.928-.8-3.04-2.304-3.04-1.64 0-2.28 1.104-2.304 3.04 0 2.312.664 3.264 2.336 3.264m6.811-2.816c0 1.568.776 2.808 2.384 2.808 1.056 0 1.888-.496 2.096-1.432h1.392c-.304 1.688-1.856 2.576-3.464 2.576-2.312 0-3.904-1.576-3.904-4.216 0-2.608 1.392-4.376 3.8-4.376 2.328 0 3.624 1.584 3.624 4.096v.544zm.008-1h4.496c0-1.424-.712-2.52-2.208-2.52-1.56 0-2.296 1.288-2.288 2.52m10.054 4.896c-1.784 0-2.088-1.072-2.088-2.232v-9.76h1.456v9.616c0 .84.344 1.24.928 1.28l.448.008v.96c-.248.08-.536.128-.744.128m5.662.056c-2.296 0-3.792-1.504-3.792-4.264 0-2.592 1.352-4.328 3.8-4.328 2.28 0 3.76 1.544 3.76 4.328 0 2.528-1.304 4.264-3.768 4.264m.008-1.168c1.48 0 2.296-1.184 2.296-3.128 0-1.768-.672-3.136-2.296-3.136-1.504 0-2.328 1.168-2.328 3.136 0 1.744.672 3.128 2.328 3.128m16.505-7.264L473.467 337h-1.456l-1.88-6.104-1.8 6.104h-1.44l-2.56-8.272h1.376l1.888 6.36h.128l1.864-6.36h1.12l1.936 6.344h.128l1.816-6.344zm8.628 8.432c-2.296 0-3.792-1.504-3.792-4.264 0-2.592 1.352-4.328 3.8-4.328 2.28 0 3.76 1.544 3.76 4.328 0 2.528-1.304 4.264-3.768 4.264m.008-1.168c1.48 0 2.296-1.184 2.296-3.128 0-1.768-.672-3.136-2.296-3.136-1.504 0-2.328 1.168-2.328 3.136 0 1.744.672 3.128 2.328 3.128m5.726 1.008v-8.272h1.408v1.592c.416-1.192 1.4-1.752 2.448-1.752.24 0 .496.032.632.104v1.432c-.16-.072-.456-.096-.624-.096-1.32-.088-2.392.472-2.392 1.848V337zm14.733-8.272v1.08h-2.008V337h-1.48v-7.192h-1.752v-1.08h1.752v-1.28c0-1.312.664-2.016 2-2.016h1.56l.008 1.048h-1.232c-.68 0-.88.36-.88 1.096v1.152zm1.736 8.272v-8.272h1.408v1.592c.416-1.192 1.4-1.752 2.448-1.752.24 0 .496.032.632.104v1.432c-.16-.072-.456-.096-.624-.096-1.32-.088-2.392.472-2.392 1.848V337zm9.437.16c-2.296 0-3.792-1.504-3.792-4.264 0-2.592 1.352-4.328 3.8-4.328 2.28 0 3.76 1.544 3.76 4.328 0 2.528-1.304 4.264-3.768 4.264m.008-1.168c1.48 0 2.296-1.184 2.296-3.128 0-1.768-.672-3.136-2.296-3.136-1.504 0-2.328 1.168-2.328 3.136 0 1.744.672 3.128 2.328 3.128m5.727 1.008v-8.272h1.424v1.2c.456-.728 1.216-1.36 2.504-1.36.904 0 1.952.472 2.384 1.352.512-.808 1.424-1.352 2.52-1.352 1.168 0 2.696.576 2.696 3.024V337h-1.488v-5.264c0-1.496-.824-1.912-1.696-1.912-.776 0-1.856.392-1.856 1.648V337h-1.472v-5.696c0-.984-.912-1.48-1.68-1.48-.848 0-1.864.488-1.864 1.648V337zm-254.578 24v-1.888h1.76V361zM94.888 397.432 91.512 409h-1.368l-2.536-8.968L85.032 409h-1.328l-3.336-11.568h1.496l2.56 9.208 2.608-9.208h1.16l2.6 9.208 2.608-9.208zm1.94 7.776c0 1.568.776 2.808 2.384 2.808 1.056 0 1.888-.496 2.096-1.432h1.392c-.304 1.688-1.856 2.576-3.464 2.576-2.312 0-3.904-1.576-3.904-4.216 0-2.608 1.392-4.376 3.8-4.376 2.328 0 3.624 1.584 3.624 4.096v.544zm.008-1h4.496c0-1.424-.712-2.52-2.208-2.52-1.56 0-2.296 1.288-2.288 2.52m6.855-3 .888-1.984-.688-.04v-1.752h1.848v1.536l-1.36 2.24zm5.871 7.896c-1.784 0-2.088-1.072-2.088-2.232v-9.76h1.456v9.616c0 .84.344 1.24.928 1.28l.448.008v.96c-.248.08-.536.128-.744.128m4.609 0c-1.784 0-2.088-1.072-2.088-2.232v-9.76h1.456v9.616c0 .84.344 1.24.928 1.28l.448.008v.96c-.248.08-.536.128-.744.128m9.623.056c-1.728 0-3.2-.784-3.44-2.568h1.344c.208.968 1.04 1.464 2.088 1.464 1.12 0 1.864-.408 1.864-1.272 0-.608-.352-.96-1.104-1.136l-1.712-.424c-1.336-.32-2.192-.952-2.2-2.184-.008-1.448 1.056-2.472 3.152-2.472 1.792 0 2.984.824 3.04 2.376h-1.312c-.112-.792-.72-1.288-1.744-1.288-1.056 0-1.784.416-1.784 1.296 0 .592.48.888 1.392 1.112l1.664.416c1.52.4 1.936 1.408 1.936 2.224 0 1.52-1.168 2.456-3.184 2.456m5.133-.16v-11.888h1.44v4.832c.416-.68 1.256-1.32 2.584-1.32 1.616 0 2.888.952 2.888 2.464V409h-1.48v-5.616c0-.984-.744-1.552-1.832-1.552-1.12 0-2.128.536-2.128 1.648V409zm11.508.16c-1.608 0-2.728-.888-2.728-2.4 0-1.832 1.208-2.704 4.04-2.768l1.472-.04v-.648c0-1.008-.592-1.648-1.864-1.648-.952.008-1.752.424-1.952 1.408h-1.304c.088-1.608 1.32-2.496 3.328-2.496 2.152 0 3.224.928 3.224 2.656V409h-1.264l-.112-1.552c-.64 1.288-1.656 1.712-2.84 1.712m.44-1.064c1.112 0 2.344-.896 2.344-1.816v-1.416l-1.224.024c-1.904.032-2.856.504-2.856 1.728 0 .936.72 1.48 1.736 1.48m6.083.904v-8.272h1.408v1.592c.416-1.192 1.4-1.752 2.448-1.752.24 0 .496.032.632.104v1.432c-.16-.072-.456-.096-.624-.096-1.32-.088-2.392.472-2.392 1.848V409zm7.213-3.792c0 1.568.776 2.808 2.384 2.808 1.056 0 1.888-.496 2.096-1.432h1.392c-.304 1.688-1.856 2.576-3.464 2.576-2.312 0-3.904-1.576-3.904-4.216 0-2.608 1.392-4.376 3.8-4.376 2.328 0 3.624 1.584 3.624 4.096v.544zm.008-1h4.496c0-1.424-.712-2.52-2.208-2.52-1.56 0-2.296 1.288-2.288 2.52m15.956-2.4h-1.864v5.144c0 .88.232.96 1.008.96h.904v.992c-.208.08-.624.136-1.224.136-1.72 0-2.176-.712-2.176-2.04v-5.192h-1.344v-1.08h1.384l.36-2.408h1.088v2.4h1.864zm2.011 7.192v-11.888h1.44v4.832c.416-.68 1.256-1.32 2.584-1.32 1.616 0 2.888.952 2.888 2.464V409h-1.48v-5.616c0-.984-.744-1.552-1.832-1.552-1.12 0-2.128.536-2.128 1.648V409zm10.731-11.56v1.536h-1.512v-1.536zm-.04 3.288V409h-1.432v-8.272zm5.457 8.432c-1.728 0-3.2-.784-3.44-2.568h1.344c.208.968 1.04 1.464 2.088 1.464 1.12 0 1.864-.408 1.864-1.272 0-.608-.352-.96-1.104-1.136l-1.712-.424c-1.336-.32-2.192-.952-2.2-2.184-.008-1.448 1.056-2.472 3.152-2.472 1.792 0 2.984.824 3.04 2.376h-1.312c-.112-.792-.72-1.288-1.744-1.288-1.056 0-1.784.416-1.784 1.296 0 .592.48.888 1.392 1.112l1.664.416c1.52.4 1.936 1.408 1.936 2.224 0 1.52-1.168 2.456-3.184 2.456m10.473-11.72v1.536h-1.512v-1.536zm-.04 3.288V409h-1.432v-8.272zm2.591 8.272v-8.272h1.432v1.2c.408-.688 1.264-1.32 2.592-1.32 1.568 0 2.896.904 2.896 2.984V409h-1.48v-5.264c0-1.288-.744-1.904-1.824-1.904-1.12 0-2.144.528-2.144 1.64V409zm13.561-8.272v1.08h-2.008V409h-1.48v-7.192h-1.752v-1.08h1.752v-1.28c0-1.312.664-2.016 2-2.016h1.56l.008 1.048h-1.232c-.68 0-.88.36-.88 1.096v1.152zm4.938 8.432c-2.296 0-3.792-1.504-3.792-4.264 0-2.592 1.352-4.328 3.8-4.328 2.28 0 3.76 1.544 3.76 4.328 0 2.528-1.304 4.264-3.768 4.264m.008-1.168c1.48 0 2.296-1.184 2.296-3.128 0-1.768-.672-3.136-2.296-3.136-1.504 0-2.328 1.168-2.328 3.136 0 1.744.672 3.128 2.328 3.128m5.727 1.008v-8.272h1.408v1.592c.416-1.192 1.4-1.752 2.448-1.752.24 0 .496.032.632.104v1.432c-.16-.072-.456-.096-.624-.096-1.32-.088-2.392.472-2.392 1.848V409zm6.25 0v-8.272h1.424v1.2c.456-.728 1.216-1.36 2.504-1.36.904 0 1.952.472 2.384 1.352.512-.808 1.424-1.352 2.52-1.352 1.168 0 2.696.576 2.696 3.024V409h-1.488v-5.264c0-1.496-.824-1.912-1.696-1.912-.776 0-1.856.392-1.856 1.648V409h-1.472v-5.696c0-.984-.912-1.48-1.68-1.48-.848 0-1.864.488-1.864 1.648V409zm16.133.16c-1.608 0-2.728-.888-2.728-2.4 0-1.832 1.208-2.704 4.04-2.768l1.472-.04v-.648c0-1.008-.592-1.648-1.864-1.648-.952.008-1.752.424-1.952 1.408h-1.304c.088-1.608 1.32-2.496 3.328-2.496 2.152 0 3.224.928 3.224 2.656V409h-1.264l-.112-1.552c-.64 1.288-1.656 1.712-2.84 1.712m.44-1.064c1.112 0 2.344-.896 2.344-1.816v-1.416l-1.224.024c-1.904.032-2.856.504-2.856 1.728 0 .936.72 1.48 1.736 1.48m9.948-6.288h-1.864v5.144c0 .88.232.96 1.008.96h.904v.992c-.208.08-.624.136-1.224.136-1.72 0-2.176-.712-2.176-2.04v-5.192h-1.344v-1.08h1.384l.36-2.408h1.088v2.4h1.864zm3.522-4.368v1.536h-1.512v-1.536zm-.04 3.288V409h-1.432v-8.272zm5.794 8.432c-2.296 0-3.792-1.504-3.792-4.264 0-2.592 1.352-4.328 3.8-4.328 2.28 0 3.76 1.544 3.76 4.328 0 2.528-1.304 4.264-3.768 4.264m.008-1.168c1.48 0 2.296-1.184 2.296-3.128 0-1.768-.672-3.136-2.296-3.136-1.504 0-2.328 1.168-2.328 3.136 0 1.744.672 3.128 2.328 3.128m5.726 1.008v-8.272h1.432v1.2c.408-.688 1.264-1.32 2.592-1.32 1.568 0 2.896.904 2.896 2.984V409h-1.48v-5.264c0-1.288-.744-1.904-1.824-1.904-1.12 0-2.144.528-2.144 1.64V409zm23.904-8.272L294.733 409h-1.456l-1.88-6.104-1.8 6.104h-1.44l-2.56-8.272h1.376l1.888 6.36h.128l1.864-6.36h1.12l1.936 6.344h.128l1.816-6.344zm3.202-3.288v1.536h-1.512v-1.536zm-.04 3.288V409h-1.432v-8.272zm6.689 1.08h-1.864v5.144c0 .88.232.96 1.008.96h.904v.992c-.208.08-.624.136-1.224.136-1.72 0-2.176-.712-2.176-2.04v-5.192h-1.344v-1.08h1.384l.36-2.408h1.088v2.4h1.864zm2.011 7.192v-11.888h1.44v4.832c.416-.68 1.256-1.32 2.584-1.32 1.616 0 2.888.952 2.888 2.464V409h-1.48v-5.616c0-.984-.744-1.552-1.832-1.552-1.12 0-2.128.536-2.128 1.648V409zm22.837-11.568-4 11.568h-2.648l-4-11.568h2.232l3.096 8.856 3.08-8.856zM330.909 409l4.136-11.568h2.472L341.653 409h-2.328l-.944-2.68h-4.168l-.96 2.68zm3.832-4.72h3.072l-1.528-4.6zm10.001-3.224v1.88h-1.768v-1.88zm0 6.032v1.864h-1.768v-1.864z"/><path fill="#0071bb" d="M82.048 363.64c-.968 0-1.272-.208-1.272-.208v-.96l.848.016c1.232.048 1.528-.496 1.696-.904l.288-.784-3.232-8.072h1.496l2.44 6.384 2.424-6.384h1.448l-3.48 8.896c-.648 1.576-1.512 2.016-2.656 2.016m10.894-2.48c-2.296 0-3.792-1.504-3.792-4.264 0-2.592 1.352-4.328 3.8-4.328 2.28 0 3.76 1.544 3.76 4.328 0 2.528-1.304 4.264-3.768 4.264m.008-1.168c1.48 0 2.296-1.184 2.296-3.128 0-1.768-.672-3.136-2.296-3.136-1.504 0-2.328 1.168-2.328 3.136 0 1.744.672 3.128 2.328 3.128m8.736 1.168c-1.72-.016-3.176-.952-3.176-2.816v-5.616h1.48v5.464c0 1.08.656 1.816 2.008 1.816 1.216 0 2.024-.64 2.024-1.896v-5.384h1.472V361h-1.176l-.152-1.584c-.304 1.24-1.312 1.752-2.48 1.744m6.351-.16v-8.272h1.408v1.592c.416-1.192 1.4-1.752 2.448-1.752.24 0 .496.032.632.104v1.432c-.16-.072-.456-.096-.624-.096-1.32-.088-2.392.472-2.392 1.848V361zm13.265-8.432c1.776 0 3.096 1.088 3.32 2.776h-1.312c-.144-.872-.864-1.584-2-1.584-1.416 0-2.4 1.008-2.4 3.12 0 1.912.832 3.152 2.416 3.152 1.136 0 1.856-.752 2-1.584h1.288c-.216 1.664-1.56 2.712-3.312 2.712-2.24 0-3.808-1.488-3.808-4.264 0-2.576 1.368-4.328 3.808-4.328m8.625 8.592c-2.296 0-3.792-1.504-3.792-4.264 0-2.592 1.352-4.328 3.8-4.328 2.28 0 3.76 1.544 3.76 4.328 0 2.528-1.304 4.264-3.768 4.264m.008-1.168c1.48 0 2.296-1.184 2.296-3.128 0-1.768-.672-3.136-2.296-3.136-1.504 0-2.328 1.168-2.328 3.136 0 1.744.672 3.128 2.328 3.128m5.727 1.008v-8.272h1.432v1.2c.408-.688 1.264-1.32 2.592-1.32 1.568 0 2.896.904 2.896 2.984V361h-1.48v-5.264c0-1.288-.744-1.904-1.824-1.904-1.12 0-2.144.528-2.144 1.64V361zm9.234 0v-8.272h1.432v1.2c.408-.688 1.264-1.32 2.592-1.32 1.568 0 2.896.904 2.896 2.984V361h-1.48v-5.264c0-1.288-.744-1.904-1.824-1.904-1.12 0-2.144.528-2.144 1.64V361zm10.322-3.792c0 1.568.776 2.808 2.384 2.808 1.056 0 1.888-.496 2.096-1.432h1.392c-.304 1.688-1.856 2.576-3.464 2.576-2.312 0-3.904-1.576-3.904-4.216 0-2.608 1.392-4.376 3.8-4.376 2.328 0 3.624 1.584 3.624 4.096v.544zm.008-1h4.496c0-1.424-.712-2.52-2.208-2.52-1.56 0-2.296 1.288-2.288 2.52m11.295-3.64c1.776 0 3.096 1.088 3.32 2.776h-1.312c-.144-.872-.864-1.584-2-1.584-1.416 0-2.4 1.008-2.4 3.12 0 1.912.832 3.152 2.416 3.152 1.136 0 1.856-.752 2-1.584h1.288c-.216 1.664-1.56 2.712-3.312 2.712-2.24 0-3.808-1.488-3.808-4.264 0-2.576 1.368-4.328 3.808-4.328m9.208 1.24h-1.864v5.144c0 .88.232.96 1.008.96h.904v.992c-.208.08-.624.136-1.224.136-1.72 0-2.176-.712-2.176-2.04v-5.192h-1.344v-1.08h1.384l.36-2.408h1.088v2.4h1.864zm2.88 3.4c0 1.568.776 2.808 2.384 2.808 1.056 0 1.888-.496 2.096-1.432h1.392c-.304 1.688-1.856 2.576-3.464 2.576-2.312 0-3.904-1.576-3.904-4.216 0-2.608 1.392-4.376 3.8-4.376 2.328 0 3.624 1.584 3.624 4.096v.544zm.008-1h4.496c0-1.424-.712-2.52-2.208-2.52-1.56 0-2.296 1.288-2.288 2.52m10.982 4.952c-2.152 0-3.496-1.496-3.496-4.328 0-2.576 1.136-4.264 3.376-4.264 1.584 0 2.448.936 2.712 1.472v-4.928h1.496V361h-1.136l-.16-1.696c-.208.648-.856 1.856-2.792 1.856m.264-1.136c1.672 0 2.328-.952 2.328-3.264-.016-1.936-.656-3.04-2.304-3.04-1.36 0-2.296.92-2.296 3.04 0 2.072.784 3.264 2.272 3.264m12.478 1.136c-1.608 0-2.728-.888-2.728-2.4 0-1.832 1.208-2.704 4.04-2.768l1.472-.04v-.648c0-1.008-.592-1.648-1.864-1.648-.952.008-1.752.424-1.952 1.408h-1.304c.088-1.608 1.32-2.496 3.328-2.496 2.152 0 3.224.928 3.224 2.656V361h-1.264l-.112-1.552c-.64 1.288-1.656 1.712-2.84 1.712m.44-1.064c1.112 0 2.344-.896 2.344-1.816v-1.416l-1.224.024c-1.904.032-2.856.504-2.856 1.728 0 .936.72 1.48 1.736 1.48m9.412-7.528c1.776 0 3.096 1.088 3.32 2.776h-1.312c-.144-.872-.864-1.584-2-1.584-1.416 0-2.4 1.008-2.4 3.12 0 1.912.832 3.152 2.416 3.152 1.136 0 1.856-.752 2-1.584h1.288c-.216 1.664-1.56 2.712-3.312 2.712-2.24 0-3.808-1.488-3.808-4.264 0-2.576 1.368-4.328 3.808-4.328m8.64 0c1.776 0 3.096 1.088 3.32 2.776h-1.312c-.144-.872-.864-1.584-2-1.584-1.416 0-2.4 1.008-2.4 3.12 0 1.912.832 3.152 2.416 3.152 1.136 0 1.856-.752 2-1.584h1.288c-.216 1.664-1.56 2.712-3.312 2.712-2.24 0-3.808-1.488-3.808-4.264 0-2.576 1.368-4.328 3.808-4.328m8.625 8.592c-2.296 0-3.792-1.504-3.792-4.264 0-2.592 1.352-4.328 3.8-4.328 2.28 0 3.76 1.544 3.76 4.328 0 2.528-1.304 4.264-3.768 4.264m.008-1.168c1.48 0 2.296-1.184 2.296-3.128 0-1.768-.672-3.136-2.296-3.136-1.504 0-2.328 1.168-2.328 3.136 0 1.744.672 3.128 2.328 3.128m8.736 1.168c-1.72-.016-3.176-.952-3.176-2.816v-5.616h1.48v5.464c0 1.08.656 1.816 2.008 1.816 1.216 0 2.024-.64 2.024-1.896v-5.384h1.472V361h-1.176l-.152-1.584c-.304 1.24-1.312 1.752-2.48 1.744m6.35-.16v-8.272h1.432v1.2c.408-.688 1.264-1.32 2.592-1.32 1.568 0 2.896.904 2.896 2.984V361h-1.48v-5.264c0-1.288-.744-1.904-1.824-1.904-1.12 0-2.144.528-2.144 1.64V361zm13.099-7.192h-1.864v5.144c0 .88.232.96 1.008.96h.904v.992c-.208.08-.624.136-1.224.136-1.72 0-2.176-.712-2.176-2.04v-5.192h-1.344v-1.08h1.384l.36-2.408h1.088v2.4h1.864zm4.955 7.352c-1.728 0-3.2-.784-3.44-2.568h1.344c.208.968 1.04 1.464 2.088 1.464 1.12 0 1.864-.408 1.864-1.272 0-.608-.352-.96-1.104-1.136l-1.712-.424c-1.336-.32-2.192-.952-2.2-2.184-.008-1.448 1.056-2.472 3.152-2.472 1.792 0 2.984.824 3.04 2.376h-1.312c-.112-.792-.72-1.288-1.744-1.288-1.056 0-1.784.416-1.784 1.296 0 .592.48.888 1.392 1.112l1.664.416c1.52.4 1.936 1.408 1.936 2.224 0 1.52-1.168 2.456-3.184 2.456M80 364.52h8.56v1.12H80zm8.406 0h9.048v1.12h-9.048zm9.016 0h15.647v1.12H97.422zm15.64 0h3.889v1.12h-3.889zm3.688 0h8.696v1.12h-8.696zm8.641 0h9.048v1.12h-9.048zm9.047 0h27.532v1.12h-27.532zm27.531 0h8.696v1.12h-8.696zm8.328 0h6.224v1.12h-6.224zm6 0h9.064v1.12h-9.064zm9.062 0h22.286v1.12h-22.286zm22.282 0h8.696v1.12h-8.696zm8.64 0h8.696v1.12h-8.696zm8.641 0h9.048v1.12h-9.048zm9.016 0h18.622v1.12h-18.622zm18.281 0h6.224v1.12h-6.224zm6.187 0h8.112v1.12h-8.112z"/><path fill="#454545" d="m90.952 1053.43-4 11.57h-2.648l-4-11.57h2.232l3.096 8.86 3.08-8.86zM89.924 1065l4.136-11.57h2.472l4.136 11.57H98.34l-.944-2.68h-4.168l-.96 2.68zm3.832-4.72h3.072l-1.528-4.6zm23.075-3.55-2.504 8.27h-1.456l-1.88-6.1-1.8 6.1h-1.44l-2.56-8.27h1.376l1.888 6.36h.128l1.864-6.36h1.12l1.936 6.34h.128l1.816-6.34zm3.202-3.29v1.54h-1.512v-1.54zm-.04 3.29v8.27h-1.432v-8.27zm4.678 8.37c-1.784 0-2.088-1.07-2.088-2.23v-9.76h1.456v9.62c0 .84.344 1.24.928 1.28l.448.01v.96c-.248.08-.536.12-.744.12m4.61 0c-1.784 0-2.088-1.07-2.088-2.23v-9.76h1.456v9.62c0 .84.344 1.24.928 1.28l.448.01v.96c-.248.08-.536.12-.744.12m9.755.06c-2.296 0-3.792-1.5-3.792-4.26 0-2.6 1.352-4.33 3.8-4.33 2.28 0 3.76 1.54 3.76 4.33 0 2.52-1.304 4.26-3.768 4.26m.008-1.17c1.48 0 2.296-1.18 2.296-3.13 0-1.76-.672-3.13-2.296-3.13-1.504 0-2.328 1.17-2.328 3.13 0 1.75.672 3.13 2.328 3.13m5.727 1.01v-8.27h1.432v1.2c.408-.69 1.264-1.32 2.592-1.32 1.568 0 2.896.9 2.896 2.98v5.41h-1.48v-5.26c0-1.29-.744-1.91-1.824-1.91-1.12 0-2.144.53-2.144 1.64v5.53zm11.322.1c-1.784 0-2.088-1.07-2.088-2.23v-9.76h1.456v9.62c0 .84.344 1.24.928 1.28l.448.01v.96c-.248.08-.536.12-.744.12m3.268 2.54c-.968 0-1.272-.21-1.272-.21v-.96l.848.02c1.232.05 1.528-.5 1.696-.91l.288-.78-3.232-8.07h1.496l2.44 6.38 2.424-6.38h1.448l-3.481 8.89c-.647 1.58-1.511 2.02-2.655 2.02m14.606-2.48c-1.72-.02-3.176-.95-3.176-2.82v-5.61h1.48v5.46c0 1.08.656 1.82 2.008 1.82 1.216 0 2.024-.64 2.024-1.9v-5.38h1.472v8.27h-1.176l-.152-1.58c-.304 1.24-1.312 1.75-2.48 1.74m9.217 0c-1.728 0-3.2-.78-3.44-2.57h1.344c.208.97 1.04 1.47 2.088 1.47 1.12 0 1.864-.41 1.864-1.28 0-.6-.352-.96-1.104-1.13l-1.712-.43c-1.336-.32-2.192-.95-2.2-2.18-.008-1.45 1.056-2.47 3.152-2.47 1.792 0 2.984.82 3.04 2.37h-1.312c-.112-.79-.72-1.28-1.744-1.28-1.056 0-1.784.41-1.784 1.29 0 .59.48.89 1.392 1.11l1.664.42c1.52.4 1.936 1.41 1.936 2.22 0 1.52-1.168 2.46-3.184 2.46m6.222-3.95c0 1.57.776 2.81 2.384 2.81 1.056 0 1.888-.5 2.096-1.44h1.392c-.304 1.69-1.856 2.58-3.464 2.58-2.312 0-3.904-1.58-3.904-4.22 0-2.6 1.392-4.37 3.8-4.37 2.328 0 3.624 1.58 3.624 4.09v.55zm.008-1h4.496c0-1.43-.712-2.52-2.208-2.52-1.56 0-2.296 1.29-2.288 2.52m15.956-2.4h-1.864v5.14c0 .88.232.96 1.008.96h.904v.99c-.208.08-.624.14-1.224.14-1.72 0-2.176-.71-2.176-2.04v-5.19h-1.344v-1.08h1.384l.36-2.41h1.088v2.4h1.864zm2.01 7.19v-11.89h1.44v4.83c.416-.68 1.256-1.32 2.584-1.32 1.616 0 2.888.96 2.888 2.47v5.91h-1.48v-5.62c0-.98-.744-1.55-1.832-1.55-1.12 0-2.128.54-2.128 1.65v5.52zm10.731-11.56v1.54h-1.512v-1.54zm-.04 3.29v8.27h-1.432v-8.27zm5.457 8.43c-1.728 0-3.2-.78-3.44-2.57h1.344c.208.97 1.04 1.47 2.088 1.47 1.12 0 1.864-.41 1.864-1.28 0-.6-.352-.96-1.104-1.13l-1.712-.43c-1.336-.32-2.192-.95-2.2-2.18-.008-1.45 1.056-2.47 3.152-2.47 1.792 0 2.984.82 3.04 2.37h-1.312c-.112-.79-.72-1.28-1.744-1.28-1.056 0-1.784.41-1.784 1.29 0 .59.48.89 1.392 1.11l1.664.42c1.52.4 1.936 1.41 1.936 2.22 0 1.52-1.168 2.46-3.184 2.46m10.474-11.72v1.54h-1.512v-1.54zm-.04 3.29v8.27h-1.432v-8.27zm2.59 8.27v-8.27h1.432v1.2c.408-.69 1.264-1.32 2.592-1.32 1.568 0 2.896.9 2.896 2.98v5.41h-1.48v-5.26c0-1.29-.744-1.91-1.824-1.91-1.12 0-2.144.53-2.144 1.64v5.53zm13.561-8.27v1.08h-2.008v7.19h-1.48v-7.19h-1.752v-1.08h1.752v-1.28c0-1.31.664-2.02 2-2.02h1.56l.008 1.05h-1.232c-.68 0-.88.36-.88 1.1v1.15zm4.939 8.43c-2.296 0-3.792-1.5-3.792-4.26 0-2.6 1.352-4.33 3.8-4.33 2.28 0 3.76 1.54 3.76 4.33 0 2.52-1.304 4.26-3.768 4.26m.008-1.17c1.48 0 2.296-1.18 2.296-3.13 0-1.76-.672-3.13-2.296-3.13-1.504 0-2.328 1.17-2.328 3.13 0 1.75.672 3.13 2.328 3.13m5.727 1.01v-8.27h1.408v1.59c.416-1.19 1.4-1.75 2.448-1.75.24 0 .496.03.632.1v1.43c-.16-.07-.456-.09-.624-.09-1.32-.09-2.392.47-2.392 1.85v5.14zm6.25 0v-8.27h1.424v1.2c.456-.73 1.216-1.36 2.504-1.36.904 0 1.952.47 2.384 1.35.512-.81 1.424-1.35 2.52-1.35 1.168 0 2.696.57 2.696 3.02v5.41h-1.488v-5.26c0-1.5-.824-1.92-1.696-1.92-.776 0-1.856.4-1.856 1.65v5.53h-1.472v-5.7c0-.98-.912-1.48-1.68-1.48-.848 0-1.864.49-1.864 1.65v5.53zm16.132.16c-1.608 0-2.728-.89-2.728-2.4 0-1.83 1.208-2.7 4.04-2.77l1.472-.04v-.65c0-1-.592-1.64-1.864-1.64-.952 0-1.752.42-1.952 1.4h-1.304c.088-1.6 1.32-2.49 3.328-2.49 2.152 0 3.224.93 3.224 2.65v5.78h-1.264l-.112-1.55c-.64 1.29-1.656 1.71-2.84 1.71m.44-1.06c1.112 0 2.344-.9 2.344-1.82v-1.42l-1.224.03c-1.904.03-2.856.5-2.856 1.73 0 .93.72 1.48 1.736 1.48m9.948-6.29h-1.864v5.14c0 .88.232.96 1.008.96h.904v.99c-.208.08-.624.14-1.224.14-1.72 0-2.176-.71-2.176-2.04v-5.19h-1.344v-1.08h1.384l.36-2.41h1.088v2.4h1.864zm3.523-4.37v1.54h-1.512v-1.54zm-.04 3.29v8.27h-1.432v-8.27zm5.793 8.43c-2.296 0-3.792-1.5-3.792-4.26 0-2.6 1.352-4.33 3.8-4.33 2.28 0 3.76 1.54 3.76 4.33 0 2.52-1.304 4.26-3.768 4.26m.008-1.17c1.48 0 2.296-1.18 2.296-3.13 0-1.76-.672-3.13-2.296-3.13-1.504 0-2.328 1.17-2.328 3.13 0 1.75.672 3.13 2.328 3.13m5.727 1.01v-8.27H310v1.2c.408-.69 1.264-1.32 2.592-1.32 1.568 0 2.896.9 2.896 2.98v5.41h-1.48v-5.26c0-1.29-.744-1.91-1.824-1.91-1.12 0-2.144.53-2.144 1.64v5.53zm17.333-7.19h-1.864v5.14c0 .88.232.96 1.008.96h.904v.99c-.208.08-.624.14-1.224.14-1.72 0-2.176-.71-2.176-2.04v-5.19h-1.344v-1.08h1.384l.36-2.41h1.088v2.4h1.864zm5.104 7.35c-2.296 0-3.792-1.5-3.792-4.26 0-2.6 1.352-4.33 3.8-4.33 2.28 0 3.76 1.54 3.76 4.33 0 2.52-1.304 4.26-3.768 4.26m.008-1.17c1.48 0 2.296-1.18 2.296-3.13 0-1.76-.672-3.13-2.296-3.13-1.504 0-2.328 1.17-2.328 3.13 0 1.75.672 3.13 2.328 3.13m12.633-7.42c1.776 0 3.096 1.09 3.32 2.77h-1.312c-.144-.87-.864-1.58-2-1.58-1.416 0-2.4 1.01-2.4 3.12 0 1.91.832 3.15 2.416 3.15 1.136 0 1.856-.75 2-1.58h1.288c-.216 1.66-1.56 2.71-3.312 2.71-2.24 0-3.808-1.49-3.808-4.26 0-2.58 1.368-4.33 3.808-4.33m8.624 8.59c-2.296 0-3.792-1.5-3.792-4.26 0-2.6 1.352-4.33 3.8-4.33 2.28 0 3.76 1.54 3.76 4.33 0 2.52-1.304 4.26-3.768 4.26m.008-1.17c1.48 0 2.296-1.18 2.296-3.13 0-1.76-.672-3.13-2.296-3.13-1.504 0-2.328 1.17-2.328 3.13 0 1.75.672 3.13 2.328 3.13m5.727 1.01v-8.27h1.432v1.2c.408-.69 1.264-1.32 2.592-1.32 1.568 0 2.896.9 2.896 2.98v5.41h-1.48v-5.26c0-1.29-.744-1.91-1.824-1.91-1.12 0-2.144.53-2.144 1.64v5.53zm9.235 0v-8.27h1.432v1.2c.408-.69 1.264-1.32 2.592-1.32 1.568 0 2.896.9 2.896 2.98v5.41h-1.48v-5.26c0-1.29-.744-1.91-1.824-1.91-1.12 0-2.144.53-2.144 1.64v5.53zm10.322-3.79c0 1.57.776 2.81 2.384 2.81 1.056 0 1.888-.5 2.096-1.44h1.392c-.304 1.69-1.856 2.58-3.464 2.58-2.312 0-3.904-1.58-3.904-4.22 0-2.6 1.392-4.37 3.8-4.37 2.328 0 3.624 1.58 3.624 4.09v.55zm.008-1h4.496c0-1.43-.712-2.52-2.208-2.52-1.56 0-2.296 1.29-2.288 2.52m11.295-3.64c1.776 0 3.096 1.09 3.32 2.77h-1.312c-.144-.87-.864-1.58-2-1.58-1.416 0-2.4 1.01-2.4 3.12 0 1.91.832 3.15 2.416 3.15 1.136 0 1.856-.75 2-1.58h1.288c-.216 1.66-1.56 2.71-3.312 2.71-2.24 0-3.808-1.49-3.808-4.26 0-2.58 1.367-4.33 3.808-4.33m9.208 1.24h-1.864v5.14c0 .88.232.96 1.008.96h.904v.99c-.208.08-.624.14-1.224.14-1.72 0-2.176-.71-2.176-2.04v-5.19h-1.344v-1.08h1.384l.36-2.41h1.088v2.4h1.864zm10.109 0h-1.864v5.14c0 .88.232.96 1.008.96h.904v.99c-.208.08-.624.14-1.224.14-1.72 0-2.176-.71-2.176-2.04v-5.19h-1.344v-1.08h1.384l.36-2.41h1.088v2.4h1.864zm5.104 7.35c-2.296 0-3.792-1.5-3.792-4.26 0-2.6 1.352-4.33 3.8-4.33 2.28 0 3.76 1.54 3.76 4.33 0 2.52-1.304 4.26-3.768 4.26m.008-1.17c1.48 0 2.296-1.18 2.296-3.13 0-1.76-.672-3.13-2.296-3.13-1.504 0-2.328 1.17-2.328 3.13 0 1.75.672 3.13 2.328 3.13m10.223 3.65c-.968 0-1.272-.21-1.272-.21v-.96l.848.02c1.232.05 1.528-.5 1.696-.91l.288-.78-3.232-8.07h1.496l2.44 6.38 2.424-6.38h1.448l-3.48 8.89c-.648 1.58-1.512 2.02-2.656 2.02m10.894-2.48c-2.296 0-3.792-1.5-3.792-4.26 0-2.6 1.352-4.33 3.8-4.33 2.28 0 3.76 1.54 3.76 4.33 0 2.52-1.304 4.26-3.768 4.26m.008-1.17c1.48 0 2.296-1.18 2.296-3.13 0-1.76-.672-3.13-2.296-3.13-1.504 0-2.328 1.17-2.328 3.13 0 1.75.672 3.13 2.328 3.13m8.736 1.17c-1.72-.02-3.176-.95-3.176-2.82v-5.61h1.48v5.46c0 1.08.656 1.82 2.008 1.82 1.216 0 2.024-.64 2.024-1.9v-5.38h1.472v8.27h-1.176l-.152-1.58c-.304 1.24-1.312 1.75-2.48 1.74m6.35-.16v-8.27h1.408v1.59c.416-1.19 1.4-1.75 2.448-1.75.24 0 .496.03.632.1v1.43c-.16-.07-.456-.09-.624-.09-1.32-.09-2.392.47-2.392 1.85v5.14zm12.461.16c-1.608 0-2.728-.89-2.728-2.4 0-1.83 1.208-2.7 4.04-2.77l1.472-.04v-.65c0-1-.592-1.64-1.864-1.64-.952 0-1.752.42-1.952 1.4h-1.304c.088-1.6 1.32-2.49 3.328-2.49 2.152 0 3.224.93 3.224 2.65v5.78h-1.264l-.112-1.55c-.64 1.29-1.656 1.71-2.84 1.71m.44-1.06c1.112 0 2.344-.9 2.344-1.82v-1.42l-1.224.03c-1.904.03-2.856.5-2.856 1.73 0 .93.72 1.48 1.736 1.48m9.412-7.53c1.776 0 3.096 1.09 3.32 2.77h-1.312c-.144-.87-.864-1.58-2-1.58-1.416 0-2.4 1.01-2.4 3.12 0 1.91.832 3.15 2.416 3.15 1.136 0 1.856-.75 2-1.58h1.288c-.216 1.66-1.56 2.71-3.312 2.71-2.24 0-3.808-1.49-3.808-4.26 0-2.58 1.368-4.33 3.808-4.33m8.64 0c1.776 0 3.096 1.09 3.32 2.77h-1.312c-.144-.87-.864-1.58-2-1.58-1.416 0-2.4 1.01-2.4 3.12 0 1.91.832 3.15 2.416 3.15 1.136 0 1.856-.75 2-1.58h1.288c-.216 1.66-1.56 2.71-3.312 2.71-2.24 0-3.808-1.49-3.808-4.26 0-2.58 1.368-4.33 3.808-4.33m8.625 8.59c-2.296 0-3.792-1.5-3.792-4.26 0-2.6 1.352-4.33 3.8-4.33 2.28 0 3.76 1.54 3.76 4.33 0 2.52-1.304 4.26-3.768 4.26m.008-1.17c1.48 0 2.296-1.18 2.296-3.13 0-1.76-.672-3.13-2.296-3.13-1.504 0-2.328 1.17-2.328 3.13 0 1.75.672 3.13 2.328 3.13m8.736 1.17c-1.72-.02-3.176-.95-3.176-2.82v-5.61h1.48v5.46c0 1.08.656 1.82 2.008 1.82 1.216 0 2.024-.64 2.024-1.9v-5.38h1.472v8.27h-1.176l-.152-1.58c-.304 1.24-1.312 1.75-2.48 1.74m6.35-.16v-8.27h1.432v1.2c.408-.69 1.264-1.32 2.592-1.32 1.568 0 2.896.9 2.896 2.98v5.41h-1.48v-5.26c0-1.29-.744-1.91-1.824-1.91-1.12 0-2.144.53-2.144 1.64v5.53zm13.099-7.19h-1.864v5.14c0 .88.232.96 1.008.96h.904v.99c-.208.08-.624.14-1.224.14-1.72 0-2.176-.71-2.176-2.04v-5.19h-1.344v-1.08h1.384l.36-2.41h1.088v2.4h1.864zm1.667 7.19v-1.89h1.76v1.89z"/><path stroke="#cedced" stroke-linecap="square" d="M80 528.5h460"/><path fill="#454545" d="M113.296 551.432h7.872l-.008 1.952h-5.512v2.904h4.776v1.912h-4.776v4.8h-2.352zm12.408 11.728c-1.52-.008-3.152-.952-3.152-2.712v-5.72h2.336v5.424c0 .768.512 1.312 1.48 1.312.912 0 1.496-.496 1.496-1.352v-5.384h2.312V563h-1.76l-.272-1.64c-.296 1.448-1.464 1.808-2.44 1.8m9.155-.016c-2.448 0-2.64-1.272-2.64-2.464v-9.568h2.288v9.28c0 .608.216 1.008.936 1.088l.392.024v1.44c-.32.112-.664.2-.976.2m5.031 0c-2.448 0-2.64-1.272-2.64-2.464v-9.568h2.288v9.28c0 .608.216 1.008.936 1.088l.392.024v1.44c-.32.112-.664.2-.976.2m6.235-.144v-8.272h2.296v1.168c.376-.6 1.096-1.24 2.4-1.24 1.512 0 2.896.84 2.896 2.888V563h-2.336v-5.168c0-.896-.616-1.344-1.376-1.344-.768 0-1.544.408-1.544 1.216V563zm11.878.16c-1.576 0-2.792-.912-2.792-2.528 0-1.808 1.304-2.768 4.224-2.8l1.04-.016v-.496c0-.76-.432-1.184-1.368-1.176-.68.008-1.368.288-1.6 1.048h-1.944c.088-1.792 1.584-2.624 3.656-2.624 2.528 0 3.496.992 3.496 2.616V563h-1.952l-.192-1.424c-.568 1.2-1.408 1.584-2.568 1.584m.792-1.536c.84 0 1.672-.672 1.68-1.384v-1.224l-.84.016c-1.168.016-2.208.36-2.208 1.368 0 .768.6 1.224 1.368 1.224m5.814 1.376v-8.272h2.288v1.168c.496-.728 1.32-1.328 2.616-1.328.848 0 1.832.456 2.32 1.328.536-.752 1.432-1.328 2.504-1.328 1.232 0 2.704.744 2.704 2.976V563h-2.336v-5.168c0-1-.664-1.36-1.328-1.36-.616 0-1.4.352-1.4 1.232V563h-2.328v-5.376c0-.752-.696-1.152-1.312-1.152-.64 0-1.392.4-1.392 1.232V563zm16.305-3.6c-.008 1.264.648 2.072 1.768 2.072.8 0 1.44-.32 1.68-1.096h2.104c-.28 1.768-2.008 2.784-3.728 2.784-2.456 0-4.136-1.632-4.136-4.2 0-2.488 1.48-4.392 4.016-4.392 2.528 0 3.856 1.72 3.856 4.2v.632zm0-1.392h3.376c0-1-.552-1.808-1.68-1.808-1.072 0-1.704.896-1.696 1.808M113.528 587v-11.568h7.296l-.008 1.304h-5.8v3.776h5.224v1.296h-5.232v3.856l5.968.016V587zm16.766 0h-1.608l-2.408-3.24-2.392 3.24h-1.616l3.184-4.296-2.928-3.976h1.608l2.152 2.904 2.152-2.904h1.616l-2.944 3.976zm3.734.16c-1.608 0-2.728-.888-2.728-2.4 0-1.832 1.208-2.704 4.04-2.768l1.472-.04v-.648c0-1.008-.592-1.648-1.864-1.648-.952.008-1.752.424-1.952 1.408h-1.304c.088-1.608 1.32-2.496 3.328-2.496 2.152 0 3.224.928 3.224 2.656V587h-1.264l-.112-1.552c-.64 1.288-1.656 1.712-2.84 1.712m.44-1.064c1.112 0 2.344-.896 2.344-1.816v-1.416l-1.224.024c-1.904.032-2.856.504-2.856 1.728 0 .936.72 1.48 1.736 1.48m6.084.904v-8.272h1.424v1.2c.456-.728 1.216-1.36 2.504-1.36.904 0 1.952.472 2.384 1.352.512-.808 1.424-1.352 2.52-1.352 1.168 0 2.696.576 2.696 3.024V587h-1.488v-5.264c0-1.496-.824-1.912-1.696-1.912-.776 0-1.856.392-1.856 1.648V587h-1.472v-5.696c0-.984-.912-1.48-1.68-1.48-.848 0-1.864.488-1.864 1.648V587zm13.844 2.576v-10.848h1.472l.016 1.44c.376-.68 1.2-1.6 2.72-1.6 1.976 0 3.352 1.336 3.352 4.184 0 2.84-1.296 4.408-3.472 4.408-1.48 0-2.256-.952-2.6-1.656v4.072zm3.808-3.568c1.36 0 2.32-1.008 2.32-3.208 0-1.88-.808-3.08-2.32-3.08-1.536 0-2.336 1.256-2.336 3.08 0 1.784.8 3.208 2.336 3.208m7.811 1.096c-1.784 0-2.088-1.072-2.088-2.232v-9.76h1.456v9.616c0 .84.344 1.24.928 1.28l.448.008v.96c-.248.08-.536.128-.744.128m3.438-3.896c0 1.568.776 2.808 2.384 2.808 1.056 0 1.888-.496 2.096-1.432h1.392c-.304 1.688-1.856 2.576-3.464 2.576-2.312 0-3.904-1.576-3.904-4.216 0-2.608 1.392-4.376 3.8-4.376 2.328 0 3.624 1.584 3.624 4.096v.544zm.008-1h4.496c0-1.424-.712-2.52-2.208-2.52-1.56 0-2.296 1.288-2.288 2.52m20.507.792c0 2.664-1.264 4.16-4.232 4.16-3 0-4.224-1.52-4.224-4.312v-7.416h1.536v7.64c0 1.872.952 2.792 2.688 2.792s2.744-.904 2.744-2.792v-7.64h1.488zm5.42 4.16c-1.728 0-3.2-.784-3.44-2.568h1.344c.208.968 1.04 1.464 2.088 1.464 1.12 0 1.864-.408 1.864-1.272 0-.608-.352-.96-1.104-1.136l-1.712-.424c-1.336-.32-2.192-.952-2.2-2.184-.008-1.448 1.056-2.472 3.152-2.472 1.792 0 2.984.824 3.04 2.376h-1.312c-.112-.792-.72-1.288-1.744-1.288-1.056 0-1.784.416-1.784 1.296 0 .592.48.888 1.392 1.112l1.664.416c1.52.4 1.936 1.408 1.936 2.224 0 1.52-1.168 2.456-3.184 2.456m6.221-3.952c0 1.568.776 2.808 2.384 2.808 1.056 0 1.888-.496 2.096-1.432h1.392c-.304 1.688-1.856 2.576-3.464 2.576-2.312 0-3.904-1.576-3.904-4.216 0-2.608 1.392-4.376 3.8-4.376 2.328 0 3.624 1.584 3.624 4.096v.544zm.008-1h4.496c0-1.424-.712-2.52-2.208-2.52-1.56 0-2.296 1.288-2.288 2.52m7.966 4.792v-8.272h1.408v1.592c.416-1.192 1.4-1.752 2.448-1.752.24 0 .496.032.632.104v1.432c-.16-.072-.456-.096-.624-.096-1.32-.088-2.392.472-2.392 1.848V587z"/><path fill="#18852e" d="M88 564a8 8 0 1 0 0-16 8 8 0 0 0 0 16"/><path fill="#fff" d="M86.5 560.52c-.417 0-.812-.192-1.07-.52l-2.21-2.75a1.37 1.37 0 0 1 2.13-1.72L86.5 557l3.69-4.62a1.37 1.37 0 0 1 2.14 1.71L87.57 560a1.36 1.36 0 0 1-1.07.52"/><path stroke="#cedced" stroke-linecap="square" d="M80 609.5h460"/><path fill="#454545" d="m112.44 644 4.136-11.568h2.472L123.184 644h-2.328l-.944-2.68h-4.168l-.96 2.68zm3.832-4.72h3.072l-1.528-4.6zm11.215 4.88c-2.224 0-3.52-1.608-3.52-4.344 0-2.592 1.16-4.248 3.288-4.248 1.184 0 2.096.576 2.496 1.28v-4.736h2.344V644h-1.696l-.264-1.696c-.296.912-1.016 1.856-2.648 1.856m.512-1.68c1.176 0 1.752-.744 1.752-2.696-.016-1.688-.576-2.52-1.736-2.52-1.016 0-1.768.704-1.768 2.52 0 1.84.68 2.696 1.752 2.696m9.223 1.68c-2.224 0-3.52-1.608-3.52-4.344 0-2.592 1.16-4.248 3.288-4.248 1.184 0 2.096.576 2.496 1.28v-4.736h2.344V644h-1.696l-.264-1.696c-.296.912-1.016 1.856-2.648 1.856m.512-1.68c1.176 0 1.752-.744 1.752-2.696-.016-1.688-.576-2.52-1.736-2.52-1.016 0-1.768.704-1.768 2.52 0 1.84.68 2.696 1.752 2.696m6.141 1.52v-8.272h2.248v1.96c.392-1.264 1.32-2.12 2.624-2.12.152 0 .296.016.36.048v2.224c-.096-.04-.24-.048-.352-.056-1.84-.16-2.544.576-2.544 1.688V644zm8.554-3.6c-.008 1.264.648 2.072 1.768 2.072.8 0 1.44-.32 1.68-1.096h2.104c-.28 1.768-2.008 2.784-3.728 2.784-2.456 0-4.136-1.632-4.136-4.2 0-2.488 1.48-4.392 4.016-4.392 2.528 0 3.856 1.72 3.856 4.2v.632zm0-1.392h3.376c0-1-.552-1.808-1.68-1.808-1.072 0-1.704.896-1.696 1.808m10.54 5.152c-1.728 0-3.416-.808-3.712-2.768h2.016c.216.88 1.04 1.168 1.688 1.168.888 0 1.496-.272 1.496-.864 0-.448-.296-.696-1.048-.84l-1.456-.304c-1.464-.304-2.432-1-2.44-2.368-.008-1.488 1.208-2.616 3.472-2.616 2.032 0 3.352.944 3.376 2.568h-1.952c-.12-.64-.672-1-1.456-1-.8 0-1.384.288-1.384.872 0 .432.408.664 1.312.84l1.344.304c1.84.456 2.232 1.664 2.232 2.416 0 1.656-1.424 2.592-3.488 2.592m8.375 0c-1.728 0-3.416-.808-3.712-2.768h2.016c.216.88 1.04 1.168 1.688 1.168.888 0 1.496-.272 1.496-.864 0-.448-.296-.696-1.048-.84l-1.456-.304c-1.464-.304-2.432-1-2.44-2.368-.008-1.488 1.208-2.616 3.472-2.616 2.032 0 3.352.944 3.376 2.568h-1.952c-.12-.64-.672-1-1.456-1-.8 0-1.384.288-1.384.872 0 .432.408.664 1.312.84l1.344.304c1.84.456 2.232 1.664 2.232 2.416 0 1.656-1.424 2.592-3.488 2.592M112.992 668v-1.376c0-4.152 6.12-3.936 6.12-7.064 0-1.176-.888-1.984-2.296-1.984-1.512 0-2.48.92-2.6 2.344h-1.472c.04-2 1.44-3.648 4.128-3.648 2.328 0 3.808 1.32 3.808 3.288 0 4.16-6.04 3.792-6.04 6.896v.232h6.104V668zm9.459-8.2c0-2.24 1.808-3.528 4-3.528 2.4 0 4.08 1.072 4.08 2.984 0 1.144-.712 2.112-2.208 2.632 1.52.416 2.52 1.416 2.52 2.92 0 2.112-1.888 3.392-4.456 3.368-2.392-.024-4.016-1.368-4.088-3.504h1.48c.216 1.44 1.232 2.232 2.664 2.232 1.704 0 2.8-.856 2.8-2.112 0-1.4-1.28-2.152-2.912-2.168l-1.04-.024v-1.256l.992-.024c1.52-.024 2.656-.936 2.656-2.016 0-.96-.912-1.8-2.496-1.8-1.24 0-2.472.696-2.52 2.296zm15.263-3.368h1.504v7.312h1.92v1.304h-1.92V668h-1.448v-2.952h-5.448v-1.352zm-3.976 7.312h4v-5.368zm9.634-7.312h6.904l-.04 1.28h-5.6l-.296 3.736c.768-.712 1.672-.992 2.744-.992 2.088 0 3.888 1.296 3.888 3.76 0 2.4-1.656 3.96-4.2 3.96-2.144 0-3.904-1.216-4.504-2.968l1.28-.536c.56 1.32 1.592 2.256 3.12 2.256 1.64 0 2.728-1.016 2.728-2.664 0-1.544-1.176-2.552-2.616-2.552-.944 0-1.656.168-2.528 1.136-.072.032-.08.032-.152-.008l-1.248-.392zM156.305 668l4.184-11.568h1.672L166.345 668h-1.512l-1.136-3.168h-4.744L157.809 668zm3.04-4.528h3.944l-1.968-5.592zm16.711-7.04h1.48V668h-1.32l-6.208-9.12V668h-1.48v-11.568h1.416l6.112 8.992zm12.535 0-3.92 6.648V668h-1.472v-4.928l-3.944-6.64h1.616l3.072 5.32 3.024-5.32zm15.61 0L200.825 668h-1.368l-2.536-8.968-2.576 8.968h-1.328l-3.336-11.568h1.496l2.56 9.208 2.608-9.208h1.16l2.6 9.208 2.608-9.208zm9.61 6.232h-6.24V668h-1.48v-11.568h1.48v4.928h6.24v-4.928h1.48V668h-1.48zm4.53 5.336v-11.568h7.296l-.009 1.304h-5.799v3.776h5.224v1.296h-5.232v3.856l5.968.016V668zm18.303 0h-1.568l-2.112-4.984h-3.112V668h-1.48v-11.568h4.48c2.504 0 3.76 1.192 3.76 3.16 0 1.88-1.136 2.744-2.24 3.16zm-4.272-6.208c1.736 0 2.728-.712 2.728-2.112 0-1.36-.896-2.04-2.376-2.04h-2.872v4.152zM239.2 668v-11.568h7.296l-.008 1.304h-5.8v3.776h5.224v1.296h-5.232v3.856l5.968.016V668zm8.699 2.008.896-1.976-.696-.04v-1.768h1.848v1.536l-1.36 2.248zm16.473-13.576-3.92 6.648V668h-1.472v-4.928l-3.944-6.64h1.616l3.072 5.32 3.024-5.32zm5.641 11.728c-3.096 0-5.024-2.144-5.024-5.92 0-3.792 1.952-5.968 5.024-5.968s4.992 2.168 4.992 5.968c0 3.76-1.904 5.92-4.992 5.92m0-1.288c2.144 0 3.368-1.432 3.368-4.616 0-3.232-1.248-4.696-3.368-4.696s-3.392 1.48-3.392 4.696c0 3.192 1.272 4.616 3.392 4.616M285.625 664c0 2.664-1.264 4.16-4.232 4.16-3 0-4.224-1.52-4.224-4.312v-7.416h1.536v7.64c0 1.872.952 2.792 2.688 2.792s2.744-.904 2.744-2.792v-7.64h1.488zm11.019 4h-1.568l-2.112-4.984h-3.112V668h-1.48v-11.568h4.48c2.504 0 3.76 1.192 3.76 3.16 0 1.88-1.136 2.744-2.24 3.16zm-4.272-6.208c1.736 0 2.728-.712 2.728-2.112 0-1.36-.896-2.04-2.376-2.04h-2.872v4.152zm14.975-5.52c2.439 0 4.152 1.704 4.368 3.728h-1.576c-.264-1.36-1.208-2.44-2.832-2.44-2.112 0-3.24 1.432-3.24 4.632 0 3.224 1.128 4.68 3.24 4.68 1.624 0 2.568-1.16 2.832-2.512h1.576c-.24 1.976-1.608 3.8-4.368 3.8-3.12 0-4.92-2.208-4.92-5.984 0-3.768 1.784-5.904 4.92-5.904m6.759.16h1.48V668h-1.48zm3.371 1.36v-1.36h8.752v1.36h-3.528V668h-1.488v-10.208zm19.379-1.36-3.92 6.648V668h-1.472v-4.928l-3.944-6.64h1.616l3.072 5.32 3.024-5.32zm-.41 13.576.896-1.976-.696-.04v-1.768h1.848v1.536l-1.36 2.248zm16.001-13.576h1.48V668h-1.32l-6.208-9.12V668h-1.48v-11.568h1.416l6.112 8.992zm12.534 0-3.92 6.648V668h-1.472v-4.928l-3.944-6.64h1.616l3.072 5.32 3.024-5.32zm6.87 11.568v-9.208h-2.232v-.968c2.072 0 2.648-.456 2.704-1.392h1.056V668zm4.532 0v-1.376c0-4.152 6.12-3.936 6.12-7.064 0-1.176-.888-1.984-2.296-1.984-1.512 0-2.48.92-2.6 2.344h-1.472c.04-2 1.44-3.648 4.128-3.648 2.328 0 3.808 1.32 3.808 3.288 0 4.16-6.04 3.792-6.04 6.896v.232h6.104V668zm9.459-8.2c0-2.24 1.808-3.528 4-3.528 2.4 0 4.08 1.072 4.08 2.984 0 1.144-.712 2.112-2.208 2.632 1.52.416 2.52 1.416 2.52 2.92 0 2.112-1.888 3.392-4.456 3.368-2.392-.024-4.016-1.368-4.088-3.504h1.48c.216 1.44 1.232 2.232 2.664 2.232 1.704 0 2.8-.856 2.8-2.112 0-1.4-1.28-2.152-2.912-2.168l-1.04-.024v-1.256l.992-.024c1.52-.024 2.656-.936 2.656-2.016 0-.96-.912-1.8-2.496-1.8-1.24 0-2.472.696-2.52 2.296zm15.263-3.368h1.504v7.312h1.92v1.304h-1.92V668h-1.448v-2.952h-5.448v-1.352zm-3.976 7.312h4v-5.368zm9.634-7.312h6.904l-.04 1.28h-5.6l-.296 3.736c.768-.712 1.672-.992 2.744-.992 2.088 0 3.888 1.296 3.888 3.76 0 2.4-1.656 3.96-4.2 3.96-2.144 0-3.904-1.216-4.504-2.968l1.28-.536c.56 1.32 1.592 2.256 3.12 2.256 1.64 0 2.728-1.016 2.728-2.664 0-1.544-1.176-2.552-2.616-2.552-.944 0-1.656.168-2.528 1.136-.072.032-.08.032-.152-.008l-1.248-.392z"/><path fill="#18852e" d="M88 645a8 8 0 1 0 0-16 8 8 0 0 0 0 16"/><path fill="#fff" d="M86.5 641.52c-.417 0-.812-.192-1.07-.52l-2.21-2.75a1.37 1.37 0 0 1 2.13-1.72L86.5 638l3.69-4.62a1.37 1.37 0 0 1 2.14 1.71L87.57 641a1.36 1.36 0 0 1-1.07.52"/><path stroke="#cedced" stroke-linecap="square" d="M80 690.5h460"/><path fill="#454545" d="M113.296 725v-11.568h4.256c2.52 0 4.424 1.344 4.424 3.792 0 2.304-1.632 3.648-4.12 3.648h-2.208V725zm2.328-5.936h2.168c1.168 0 2-.848 2-1.96 0-1.152-.904-1.88-2.032-1.88h-2.136zm7.814 5.936v-11.888h2.32v4.808c.4-.568 1.064-1.24 2.376-1.24 1.576 0 2.888.952 2.888 2.624V725h-2.344v-5.352c0-.752-.624-1.16-1.384-1.16-.768 0-1.52.416-1.52 1.232V725zm13.092.16c-2.432 0-4-1.64-4-4.248s1.552-4.344 4.008-4.344c2.44 0 3.992 1.696 3.992 4.344 0 2.488-1.48 4.248-4 4.248m.008-1.736c1.224 0 1.704-1.2 1.704-2.592 0-1.312-.408-2.544-1.704-2.544-1.24 0-1.728 1.136-1.728 2.544 0 1.296.416 2.592 1.728 2.592m5.587 1.576v-8.272h2.296v1.168c.376-.6 1.096-1.24 2.4-1.24 1.512 0 2.896.84 2.896 2.888V725h-2.336v-5.168c0-.896-.616-1.344-1.376-1.344-.768 0-1.544.408-1.544 1.216V725zm11.46-3.6c-.008 1.264.648 2.072 1.768 2.072.8 0 1.44-.32 1.68-1.096h2.104c-.28 1.768-2.008 2.784-3.728 2.784-2.456 0-4.136-1.632-4.136-4.2 0-2.488 1.48-4.392 4.016-4.392 2.528 0 3.856 1.72 3.856 4.2v.632zm0-1.392h3.376c0-1-.552-1.808-1.68-1.808-1.072 0-1.704.896-1.696 1.808M164.391 725v-8.272h2.296v1.168c.376-.6 1.096-1.24 2.4-1.24 1.512 0 2.896.84 2.896 2.888V725h-2.336v-5.168c0-.896-.616-1.344-1.376-1.344-.768 0-1.544.408-1.544 1.216V725zm12.532.16c-1.52-.008-3.152-.952-3.152-2.712v-5.72h2.336v5.424c0 .768.512 1.312 1.48 1.312.912 0 1.496-.496 1.496-1.352v-5.384h2.312V725h-1.76l-.272-1.64c-.296 1.448-1.464 1.808-2.44 1.8m6.515-.16v-8.272h2.288v1.168c.496-.728 1.32-1.328 2.616-1.328.848 0 1.832.456 2.319 1.328.537-.752 1.433-1.328 2.505-1.328 1.232 0 2.704.744 2.704 2.976V725h-2.336v-5.168c0-1-.664-1.36-1.328-1.36-.616 0-1.4.352-1.4 1.232V725h-2.328v-5.376c0-.752-.696-1.152-1.312-1.152-.64 0-1.392.4-1.392 1.232V725zm18.936.16c-1.632 0-2.352-.944-2.648-1.856l-.264 1.696h-1.696v-11.888h2.344v4.736c.4-.704 1.304-1.28 2.488-1.28 2.048 0 3.296 1.552 3.296 4.248 0 2.624-1.216 4.344-3.52 4.344m-.512-1.68c1.008 0 1.752-.76 1.752-2.696 0-1.72-.68-2.52-1.768-2.52-1.168 0-1.728.832-1.736 2.52 0 1.952.568 2.696 1.752 2.696m7.614-2.08c-.008 1.264.648 2.072 1.768 2.072.8 0 1.44-.32 1.68-1.096h2.104c-.28 1.768-2.008 2.784-3.728 2.784-2.456 0-4.136-1.632-4.136-4.2 0-2.488 1.48-4.392 4.016-4.392 2.528 0 3.856 1.72 3.856 4.2v.632zm0-1.392h3.376c0-1-.552-1.808-1.68-1.808-1.072 0-1.704.896-1.696 1.808m7.243 4.992v-8.272h2.248v1.96c.392-1.264 1.32-2.12 2.624-2.12.152 0 .296.016.36.048v2.224c-.096-.04-.24-.048-.352-.056-1.84-.16-2.544.576-2.544 1.688V725zm-99.695 21.632h-1.144l-.008-2.872-2.888.008v-1.152h2.888l-.008-2.888h1.152v2.88h2.872v1.144l-2.864.008zm6.827 2.368v-9.208h-2.232v-.968c2.072 0 2.648-.456 2.704-1.392h1.056V749zm9.302-11.568h6.904l-.04 1.28h-5.6l-.296 3.736c.768-.712 1.672-.992 2.744-.992 2.088 0 3.888 1.296 3.888 3.76 0 2.4-1.656 3.96-4.2 3.96-2.144 0-3.904-1.216-4.504-2.968l1.28-.536c.56 1.32 1.592 2.256 3.12 2.256 1.64 0 2.728-1.016 2.728-2.664 0-1.544-1.176-2.552-2.616-2.552-.944 0-1.656.168-2.528 1.136-.072.032-.08.032-.152-.008l-1.248-.392zm10.25 0h6.904l-.04 1.28h-5.6l-.296 3.736c.768-.712 1.672-.992 2.744-.992 2.088 0 3.888 1.296 3.888 3.76 0 2.4-1.656 3.96-4.2 3.96-2.144 0-3.904-1.216-4.504-2.968l1.28-.536c.56 1.32 1.592 2.256 3.12 2.256 1.64 0 2.728-1.016 2.728-2.664 0-1.544-1.176-2.552-2.616-2.552-.944 0-1.656.168-2.528 1.136-.072.032-.08.032-.152-.008l-1.248-.392zm10.25 0h6.904l-.04 1.28h-5.6l-.296 3.736c.768-.712 1.672-.992 2.744-.992 2.088 0 3.888 1.296 3.888 3.76 0 2.4-1.656 3.96-4.2 3.96-2.144 0-3.904-1.216-4.504-2.968l1.28-.536c.56 1.32 1.592 2.256 3.12 2.256 1.64 0 2.728-1.016 2.728-2.664 0-1.544-1.176-2.552-2.616-2.552-.944 0-1.656.168-2.528 1.136-.072.032-.08.032-.152-.008l-1.248-.392zm13.426 6.848v1.168l-4.056.008v-1.16zm2.772 4.72v-9.208h-2.232v-.968c2.072 0 2.648-.456 2.704-1.392h1.056V749zm4.532 0v-1.376c0-4.152 6.12-3.936 6.12-7.064 0-1.176-.888-1.984-2.296-1.984-1.512 0-2.48.92-2.6 2.344h-1.472c.04-2 1.44-3.648 4.128-3.648 2.328 0 3.808 1.32 3.808 3.288 0 4.16-6.04 3.792-6.04 6.896v.232h6.104V749zm9.459-8.2c0-2.24 1.808-3.528 4-3.528 2.4 0 4.08 1.072 4.08 2.984 0 1.144-.712 2.112-2.208 2.632 1.52.416 2.52 1.416 2.52 2.92 0 2.112-1.888 3.392-4.456 3.368-2.392-.024-4.016-1.368-4.088-3.504h1.48c.216 1.44 1.232 2.232 2.664 2.232 1.704 0 2.8-.856 2.8-2.112 0-1.4-1.28-2.152-2.912-2.168l-1.04-.024v-1.256l.992-.024c1.52-.024 2.656-.936 2.656-2.016 0-.96-.912-1.8-2.496-1.8-1.24 0-2.472.696-2.52 2.296zm14.206 3.48v1.168l-4.056.008v-1.16zm7.135-6.848h1.504v7.312h1.92v1.304h-1.92V749h-1.448v-2.952h-5.448v-1.352zm-3.976 7.312h4v-5.368zm9.634-7.312h6.904l-.04 1.28h-5.6l-.296 3.736c.768-.712 1.672-.992 2.744-.992 2.088 0 3.888 1.296 3.888 3.76 0 2.4-1.656 3.96-4.2 3.96-2.144 0-3.904-1.216-4.504-2.968l1.28-.536c.56 1.32 1.592 2.256 3.12 2.256 1.64 0 2.728-1.016 2.728-2.664 0-1.544-1.176-2.552-2.616-2.552-.944 0-1.656.168-2.528 1.136-.072.032-.08.032-.152-.008l-1.248-.392zm13.674-.16c1.912 0 3.536 1.112 3.784 3.016h-1.392c-.312-1.096-1.152-1.784-2.368-1.784-2.048 0-3.112 1.768-2.92 5.016.432-1.176 1.608-1.96 2.976-1.96 2.28 0 3.816 1.392 3.816 3.664 0 2.32-1.56 3.952-4.024 3.952-2.688 0-4.4-2.176-4.4-5.784 0-3.72 1.6-6.12 4.528-6.12m-.16 5.488c-1.272 0-2.52.992-2.52 2.168-.016 1.768 1.008 3.024 2.536 3.024 1.416 0 2.448-1.08 2.448-2.656 0-1.584-.88-2.536-2.464-2.536m9.884-5.488c2.224 0 3.896 1.136 3.896 3.152 0 1.264-.752 2.112-1.816 2.56 1.16.224 2.336 1.536 2.336 2.88 0 2.008-1.744 3.312-4.416 3.312-2.664 0-4.408-1.304-4.408-3.312 0-1.344 1.168-2.656 2.336-2.88-1.064-.448-1.824-1.296-1.824-2.56 0-2.016 1.688-3.152 3.896-3.152m0 5.088c1.408 0 2.376-.728 2.376-1.968s-.976-2.016-2.376-2.016-2.376.784-2.376 2.016c0 1.24.976 1.968 2.376 1.968m0 5.616c1.72 0 2.823-.832 2.823-2.12 0-1.272-1.103-2.192-2.823-2.192-1.704 0-2.808.92-2.808 2.192 0 1.288 1.104 2.12 2.808 2.12"/><path fill="#18852e" d="M88 726a8 8 0 1 0 0-16 8 8 0 0 0 0 16"/><path fill="#fff" d="M86.5 722.52c-.417 0-.812-.192-1.07-.52l-2.21-2.75a1.37 1.37 0 0 1 2.13-1.72L86.5 719l3.69-4.62a1.37 1.37 0 0 1 2.14 1.71L87.57 722a1.36 1.36 0 0 1-1.07.52"/><path stroke="#cedced" stroke-linecap="square" d="M80 771.5h460"/><path fill="#454545" d="M113.296 794.432c.24 0 2.464-.008 3.456.016 4.208.104 6 2.256 6 5.712 0 3.6-1.936 5.84-6.08 5.84h-3.376zm2.352 1.888v7.792h1.072c1.984 0 3.592-1.056 3.592-3.968 0-2.704-1.368-3.824-3.56-3.824zm11.324 9.84c-1.576 0-2.792-.912-2.792-2.528 0-1.808 1.304-2.768 4.224-2.8l1.04-.016v-.496c0-.76-.432-1.184-1.368-1.176-.68.008-1.368.288-1.6 1.048h-1.944c.088-1.792 1.584-2.624 3.656-2.624 2.528 0 3.496.992 3.496 2.616V806h-1.952l-.192-1.424c-.568 1.2-1.408 1.584-2.568 1.584m.792-1.536c.84 0 1.672-.672 1.68-1.384v-1.224l-.84.016c-1.168.016-2.208.36-2.208 1.368 0 .768.6 1.224 1.368 1.224m10.525-5.272h-1.84l.016 4.408c0 .608.224.688.736.688h1.112v1.44c-.224.096-.64.2-1.448.2-2.184 0-2.744-.904-2.744-2.232v-4.504h-1.344v-1.624h1.416l.592-2.496h1.664v2.488h1.84zm3.375 3.048c-.008 1.264.648 2.072 1.768 2.072.8 0 1.44-.32 1.68-1.096h2.104c-.28 1.768-2.008 2.784-3.728 2.784-2.456 0-4.136-1.632-4.136-4.2 0-2.488 1.48-4.392 4.016-4.392 2.528 0 3.856 1.72 3.856 4.2v.632zm0-1.392h3.376c0-1-.552-1.808-1.68-1.808-1.072 0-1.704.896-1.696 1.808m14.319 5.152c-2.432 0-4-1.64-4-4.248s1.552-4.344 4.008-4.344c2.44 0 3.992 1.696 3.992 4.344 0 2.488-1.48 4.248-4 4.248m.008-1.736c1.224 0 1.704-1.2 1.704-2.592 0-1.312-.408-2.544-1.704-2.544-1.24 0-1.728 1.136-1.728 2.544 0 1.296.416 2.592 1.728 2.592m10.369-6.696v1.624h-1.744V806h-2.344v-6.648h-1.528v-1.624h1.528v-1.192c0-1.336.824-2.104 2.256-2.104h1.896l.016 1.552h-1.096c-.592 0-.776.272-.776.944v.8zm9.545 8.432c-1.632 0-2.352-.944-2.648-1.856l-.264 1.696h-1.696v-11.888h2.344v4.736c.4-.704 1.304-1.28 2.488-1.28 2.048 0 3.296 1.552 3.296 4.248 0 2.624-1.216 4.344-3.52 4.344m-.512-1.68c1.008 0 1.752-.76 1.752-2.696 0-1.72-.68-2.52-1.768-2.52-1.168 0-1.728.832-1.736 2.52 0 1.952.568 2.696 1.752 2.696m7.91-10.04v2.104h-2.272v-2.104zm-.016 3.288V806h-2.232v-8.272zm2.057 8.272v-8.272h2.248v1.96c.392-1.264 1.32-2.12 2.624-2.12.152 0 .296.016.36.048v2.224c-.096-.04-.24-.048-.352-.056-1.84-.16-2.544.576-2.544 1.688V806zm11.507-6.648h-1.84l.016 4.408c0 .608.224.688.736.688h1.112v1.44c-.224.096-.64.2-1.448.2-2.184 0-2.744-.904-2.744-2.232v-4.504h-1.344v-1.624h1.416l.592-2.496h1.664v2.488h1.84zm1.665 6.648v-11.888h2.32v4.808c.4-.568 1.064-1.24 2.376-1.24 1.576 0 2.888.952 2.888 2.624V806h-2.344v-5.352c0-.752-.624-1.16-1.384-1.16-.768 0-1.52.416-1.52 1.232V806zm-85.852 24 4.184-11.568h1.672L122.704 830h-1.512l-1.136-3.168h-4.744L114.168 830zm3.04-4.528h3.944l-1.968-5.592zm8.879 7.104v-10.848h1.472l.016 1.44c.376-.68 1.2-1.6 2.72-1.6 1.976 0 3.352 1.336 3.352 4.184 0 2.84-1.296 4.408-3.472 4.408-1.48 0-2.256-.952-2.6-1.656v4.072zm3.808-3.568c1.36 0 2.32-1.008 2.32-3.208 0-1.88-.808-3.08-2.32-3.08-1.536 0-2.336 1.256-2.336 3.08 0 1.784.8 3.208 2.336 3.208m5.724.992v-8.272h1.408v1.592c.416-1.192 1.4-1.752 2.448-1.752.24 0 .496.032.632.104v1.432c-.16-.072-.456-.096-.624-.096-1.32-.088-2.392.472-2.392 1.848V830zm7.762-11.56v1.536h-1.512v-1.536zm-.04 3.288V830h-1.432v-8.272zm4.678 8.376c-1.784 0-2.088-1.072-2.088-2.232v-9.76h1.456v9.616c0 .84.344 1.24.928 1.28l.448.008v.96c-.248.08-.536.128-.744.128m10.327-11.832c2.504 0 4.112 2.032 4.112 5.968 0 3.92-1.592 5.936-4.128 5.936s-4.12-2-4.12-5.912c0-3.952 1.624-5.992 4.136-5.992m0 10.624c1.656 0 2.512-1.36 2.512-4.648 0-3.344-.888-4.728-2.52-4.728-1.64 0-2.545 1.4-2.545 4.728 0 3.272.905 4.648 2.553 4.648m9.431 1.28c-1.912 0-3.6-1.144-3.856-3.008h1.44c.264 1.056 1.152 1.776 2.368 1.776 2.048 0 3.296-1.56 3.12-5.064-.392 1.216-1.552 2.056-3.016 2.056-2.288 0-3.856-1.392-3.856-3.72 0-2.32 1.52-3.944 3.984-3.944 2.688 0 4.384 2.168 4.384 5.776 0 3.88-1.64 6.128-4.568 6.128m.216-5.496c1.28 0 2.52-.992 2.52-2.16.024-1.784-1-3.04-2.536-3.04-1.408 0-2.4 1.08-2.4 2.664 0 1.552.84 2.536 2.416 2.536m5.816 7.328.896-1.976-.696-.04v-1.768h1.848v1.536l-1.36 2.248zm9.921-2.008v-9.208h-2.232v-.968c2.072 0 2.648-.456 2.704-1.392h1.056V830zm8.188.176c-1.912 0-3.6-1.144-3.856-3.008h1.44c.264 1.056 1.152 1.776 2.368 1.776 2.048 0 3.296-1.56 3.12-5.064-.392 1.216-1.552 2.056-3.016 2.056-2.288 0-3.856-1.392-3.856-3.72 0-2.32 1.52-3.944 3.984-3.944 2.688 0 4.384 2.168 4.384 5.776 0 3.88-1.64 6.128-4.568 6.128m.216-5.496c1.28 0 2.52-.992 2.52-2.16.024-1.784-1-3.04-2.536-3.04-1.408 0-2.4 1.08-2.4 2.664 0 1.552.84 2.536 2.416 2.536m5.567-6.248h8.12v1.28c-2.056 2.816-4.152 7.872-4.424 10.288h-1.608c.344-2.112 1.752-6.496 4.408-10.288h-6.496zm13.457-.16c2.504 0 4.112 2.032 4.112 5.968 0 3.92-1.592 5.936-4.128 5.936s-4.12-2-4.12-5.912c0-3.952 1.624-5.992 4.136-5.992m0 10.624c1.656 0 2.512-1.36 2.512-4.648 0-3.344-.888-4.728-2.52-4.728-1.64 0-2.544 1.4-2.544 4.728 0 3.272.904 4.648 2.552 4.648"/><path fill="#18852e" d="M88 807a8 8 0 1 0 0-16 8 8 0 0 0 0 16"/><path fill="#fff" d="M86.5 803.52c-.417 0-.812-.192-1.07-.52l-2.21-2.75a1.37 1.37 0 0 1 2.13-1.72L86.5 800l3.69-4.62a1.37 1.37 0 0 1 2.14 1.71L87.57 803a1.36 1.36 0 0 1-1.07.52"/><path stroke="#cedced" stroke-linecap="square" d="M80 852.5h460"/><path fill="#454545" d="M117.64 887.16c-2.288 0-4.6-1.144-4.84-3.464h2.392c.232 1.048 1.184 1.632 2.44 1.632 1.272 0 2.336-.472 2.336-1.456 0-.872-.848-1.24-1.96-1.464l-2-.408c-1.744-.336-2.848-1.392-2.872-3.168-.024-2.176 1.936-3.544 4.448-3.544 2.984 0 4.584 1.552 4.616 3.504h-2.344c-.128-1.216-1.024-1.648-2.232-1.648-1.248 0-2.04.576-2.04 1.416 0 .672.36 1.064 1.592 1.328l1.984.408c2.824.544 3.152 2.36 3.152 3.56 0 1.864-1.88 3.304-4.672 3.304m9.968 0c-2.432 0-4-1.64-4-4.248s1.552-4.344 4.008-4.344c2.44 0 3.992 1.696 3.992 4.344 0 2.488-1.48 4.248-4 4.248m.008-1.736c1.224 0 1.704-1.2 1.704-2.592 0-1.312-.408-2.544-1.704-2.544-1.24 0-1.728 1.136-1.728 2.544 0 1.296.416 2.592 1.728 2.592m9.187-6.856c2.072 0 3.36 1.4 3.488 3.176h-1.944c-.104-.656-.568-1.4-1.528-1.4-1.088 0-1.832.832-1.832 2.536 0 1.616.696 2.624 1.88 2.624.944 0 1.408-.824 1.504-1.392h1.896c-.104 1.712-1.44 3.048-3.464 3.048-2.304 0-3.992-1.616-3.992-4.264 0-2.568 1.584-4.328 3.992-4.328m7.375-3.128v2.104h-2.272v-2.104zm-.016 3.288V887h-2.232v-8.272zm4.466 8.432c-1.576 0-2.792-.912-2.792-2.528 0-1.808 1.304-2.768 4.224-2.8l1.04-.016v-.496c0-.76-.432-1.184-1.368-1.176-.68.008-1.368.288-1.6 1.048h-1.944c.088-1.792 1.584-2.624 3.656-2.624 2.528 0 3.496.992 3.496 2.616V887h-1.952l-.192-1.424c-.568 1.2-1.408 1.584-2.568 1.584m.792-1.536c.84 0 1.672-.672 1.68-1.384v-1.224l-.84.016c-1.168.016-2.208.36-2.208 1.368 0 .768.6 1.224 1.368 1.224m8.454 1.52c-2.448 0-2.64-1.272-2.64-2.464v-9.568h2.288v9.28c0 .608.216 1.008.936 1.088l.392.024v1.44c-.32.112-.664.2-.976.2m10.875.016c-2.288 0-4.6-1.144-4.84-3.464h2.392c.232 1.048 1.184 1.632 2.44 1.632 1.272 0 2.336-.472 2.336-1.456 0-.872-.848-1.24-1.96-1.464l-2-.408c-1.744-.336-2.848-1.392-2.872-3.168-.024-2.176 1.936-3.544 4.448-3.544 2.984 0 4.584 1.552 4.616 3.504h-2.344c-.128-1.216-1.024-1.648-2.232-1.648-1.248 0-2.04.576-2.04 1.416 0 .672.36 1.064 1.592 1.328l1.984.408c2.824.544 3.152 2.36 3.152 3.56 0 1.864-1.88 3.304-4.672 3.304m8.336-3.76c-.008 1.264.648 2.072 1.768 2.072.8 0 1.44-.32 1.68-1.096h2.104c-.28 1.768-2.008 2.784-3.728 2.784-2.456 0-4.136-1.632-4.136-4.2 0-2.488 1.48-4.392 4.016-4.392 2.528 0 3.856 1.72 3.856 4.2v.632zm0-1.392h3.376c0-1-.552-1.808-1.68-1.808-1.072 0-1.704.896-1.696 1.808m10.843-3.44c2.072 0 3.36 1.4 3.488 3.176h-1.944c-.104-.656-.568-1.4-1.528-1.4-1.088 0-1.832.832-1.832 2.536 0 1.616.696 2.624 1.88 2.624.944 0 1.408-.824 1.504-1.392h1.896c-.104 1.712-1.44 3.048-3.464 3.048-2.304 0-3.992-1.616-3.992-4.264 0-2.568 1.584-4.328 3.992-4.328m8.136 8.592c-1.52-.008-3.152-.952-3.152-2.712v-5.72h2.336v5.424c0 .768.512 1.312 1.48 1.312.912 0 1.496-.496 1.496-1.352v-5.384h2.312V887h-1.76l-.272-1.64c-.296 1.448-1.464 1.808-2.44 1.8m6.514-.16v-8.272h2.248v1.96c.392-1.264 1.32-2.12 2.624-2.12.152 0 .296.016.36.048v2.224c-.096-.04-.24-.048-.352-.056-1.84-.16-2.544.576-2.544 1.688V887zm8.866-11.56v2.104h-2.272v-2.104zm-.016 3.288V887h-2.232v-8.272zm7.002 1.624h-1.84l.016 4.408c0 .608.224.688.736.688h1.112v1.44c-.224.096-.64.2-1.448.2-2.184 0-2.744-.904-2.744-2.232v-4.504h-1.344v-1.624h1.416l.592-2.496h1.664v2.488h1.84zm2.96 9.288c-1.136 0-1.552-.28-1.552-.28v-1.488l.824.032c1.432.088 1.616-.552 1.712-.792l.152-.456-3.216-7.928h2.312l1.984 5.392 2-5.392h2.288l-3.352 8.32c-.864 2.112-1.864 2.592-3.152 2.592m11.219-2.64v-8.272h2.296v1.168c.376-.6 1.096-1.24 2.4-1.24 1.512 0 2.896.84 2.896 2.888V887h-2.336v-5.168c0-.896-.616-1.344-1.376-1.344-.768 0-1.544.408-1.544 1.216V887zm12.533.16c-1.52-.008-3.152-.952-3.152-2.712v-5.72h2.336v5.424c0 .768.512 1.312 1.48 1.312.912 0 1.496-.496 1.496-1.352v-5.384h2.312V887h-1.76l-.272-1.64c-.296 1.448-1.464 1.808-2.44 1.8m6.514-.16v-8.272h2.288v1.168c.496-.728 1.32-1.328 2.616-1.328.848 0 1.832.456 2.32 1.328.536-.752 1.432-1.328 2.504-1.328 1.232 0 2.704.744 2.704 2.976V887h-2.336v-5.168c0-1-.664-1.36-1.328-1.36-.616 0-1.4.352-1.4 1.232V887h-2.328v-5.376c0-.752-.696-1.152-1.312-1.152-.64 0-1.392.4-1.392 1.232V887zm18.936.16c-1.632 0-2.352-.944-2.648-1.856L267.68 887h-1.696v-11.888h2.344v4.736c.4-.704 1.304-1.28 2.488-1.28 2.048 0 3.296 1.552 3.296 4.248 0 2.624-1.216 4.344-3.52 4.344m-.512-1.68c1.008 0 1.752-.76 1.752-2.696 0-1.72-.68-2.52-1.768-2.52-1.168 0-1.728.832-1.736 2.52 0 1.952.568 2.696 1.752 2.696m7.615-2.08c-.008 1.264.648 2.072 1.768 2.072.8 0 1.44-.32 1.68-1.096h2.104c-.28 1.768-2.008 2.784-3.728 2.784-2.456 0-4.136-1.632-4.136-4.2 0-2.488 1.48-4.392 4.016-4.392 2.528 0 3.856 1.72 3.856 4.2v.632zm0-1.392h3.376c0-1-.552-1.808-1.68-1.808-1.072 0-1.704.896-1.696 1.808m7.243 4.992v-8.272h2.248v1.96c.392-1.264 1.32-2.12 2.624-2.12.152 0 .296.016.36.048v2.224c-.096-.04-.24-.048-.352-.056-1.841-.16-2.544.576-2.544 1.688V887zm-169.962 24v-9.208h-2.232v-.968c2.072 0 2.648-.456 2.704-1.392h1.056V911zm7.972-6.168-1.248-2.024-1.288 2.072-.88-.6 1.512-1.88-2.104-.592.336-.936 2.008.808-.144-2.248h1.088l-.144 2.256 2.032-.88.304.936-2.056.648 1.472 1.808zm6.297 0-1.248-2.024-1.288 2.072-.88-.6 1.512-1.88-2.104-.592.336-.936 2.008.808-.144-2.248h1.088l-.144 2.256 2.032-.88.304.936-2.056.648 1.472 1.808zm6.912 1.448v1.168l-4.056.008v-1.16zm5.431-1.448-1.248-2.024-1.288 2.072-.88-.6 1.512-1.88-2.104-.592.336-.936 2.008.808-.144-2.248h1.088l-.144 2.256 2.032-.88.304.936-2.056.648 1.472 1.808zm6.297 0-1.248-2.024-1.288 2.072-.88-.6 1.512-1.88-2.104-.592.336-.936 2.008.808-.144-2.248h1.088l-.144 2.256 2.032-.88.304.936-2.056.648 1.472 1.808zm6.913 1.448v1.168l-4.056.008v-1.16zm5.431-1.448-1.248-2.024-1.288 2.072-.88-.6 1.512-1.88-2.104-.592.336-.936 2.008.808-.144-2.248h1.088l-.144 2.256 2.032-.88.304.936-2.056.648 1.472 1.808zm6.297 0-1.248-2.024-1.288 2.072-.88-.6 1.512-1.88-2.104-.592.336-.936 2.008.808-.144-2.248h1.088l-.144 2.256 2.032-.88.304.936-2.056.648 1.472 1.808zm6.297 0-1.248-2.024-1.288 2.072-.88-.6 1.512-1.88-2.104-.592.336-.936 2.008.808-.144-2.248h1.088l-.144 2.256 2.032-.88.304.936-2.056.648 1.472 1.808zm4.841 6.168v-9.208h-2.232v-.968c2.072 0 2.648-.456 2.704-1.392h1.056V911z"/><path fill="#18852e" d="M88 888a8 8 0 1 0 0-16 8 8 0 0 0 0 16"/><path fill="#fff" d="M86.5 884.52c-.417 0-.812-.192-1.07-.52l-2.21-2.75a1.37 1.37 0 0 1 2.13-1.72L86.5 881l3.69-4.62a1.37 1.37 0 0 1 2.14 1.71L87.57 884a1.36 1.36 0 0 1-1.07.52"/><path stroke="#cedced" stroke-linecap="square" d="M80 933.5h460"/><path fill="#454545" d="M122.552 963.592c0 2.808-1.264 4.568-4.632 4.568-3.384 0-4.624-1.768-4.624-4.648v-7.08h2.376v7.256c0 1.728.912 2.488 2.248 2.488 1.328 0 2.272-.744 2.272-2.488v-7.256h2.36zm2.026 6.984v-10.848h2.344l.008 1.192c.504-.768 1.44-1.352 2.568-1.352 1.848 0 3.184 1.336 3.184 4.232 0 3-1.456 4.36-3.416 4.36-1.064 0-1.896-.624-2.352-1.4v3.816zm4.128-4.128c1.008 0 1.792-.8 1.792-2.632 0-1.592-.72-2.552-1.792-2.552-1.216 0-1.792 1.104-1.792 2.552 0 1.384.576 2.632 1.792 2.632m8.719 1.712c-2.224 0-3.52-1.608-3.52-4.344 0-2.592 1.16-4.248 3.288-4.248 1.184 0 2.096.576 2.496 1.28v-4.736h2.344V968h-1.696l-.264-1.696c-.296.912-1.016 1.856-2.648 1.856m.512-1.68c1.176 0 1.752-.744 1.752-2.696-.016-1.688-.576-2.52-1.736-2.52-1.016 0-1.768.704-1.768 2.52 0 1.84.68 2.696 1.752 2.696m8.55 1.68c-1.576 0-2.792-.912-2.792-2.528 0-1.808 1.304-2.768 4.224-2.8l1.04-.016v-.496c0-.76-.432-1.184-1.368-1.176-.68.008-1.368.288-1.6 1.048h-1.944c.088-1.792 1.584-2.624 3.656-2.624 2.528 0 3.496.992 3.496 2.616V968h-1.952l-.192-1.424c-.568 1.2-1.408 1.584-2.568 1.584m.792-1.536c.84 0 1.672-.672 1.68-1.384v-1.224l-.84.016c-1.168.016-2.208.36-2.208 1.368 0 .768.6 1.224 1.368 1.224m10.526-5.272h-1.84l.016 4.408c0 .608.224.688.736.688h1.112v1.44c-.224.096-.64.2-1.448.2-2.184 0-2.744-.904-2.744-2.232v-4.504h-1.344v-1.624h1.416l.592-2.496h1.664v2.488h1.84zm3.374 3.048c-.008 1.264.648 2.072 1.768 2.072.8 0 1.44-.32 1.68-1.096h2.104c-.28 1.768-2.008 2.784-3.728 2.784-2.456 0-4.136-1.632-4.136-4.2 0-2.488 1.48-4.392 4.016-4.392 2.528 0 3.856 1.72 3.856 4.2v.632zm0-1.392h3.376c0-1-.552-1.808-1.68-1.808-1.072 0-1.704.896-1.696 1.808m10.371 5.152c-2.224 0-3.52-1.608-3.52-4.344 0-2.592 1.16-4.248 3.288-4.248 1.184 0 2.096.576 2.496 1.28v-4.736h2.344V968h-1.696l-.264-1.696c-.296.912-1.016 1.856-2.648 1.856m.512-1.68c1.176 0 1.752-.744 1.752-2.696-.016-1.688-.576-2.52-1.736-2.52-1.016 0-1.768.704-1.768 2.52 0 1.84.68 2.696 1.752 2.696m13.218 1.68c-2.432 0-4-1.64-4-4.248s1.552-4.344 4.008-4.344c2.44 0 3.992 1.696 3.992 4.344 0 2.488-1.48 4.248-4 4.248m.008-1.736c1.224 0 1.704-1.2 1.704-2.592 0-1.312-.408-2.544-1.704-2.544-1.24 0-1.728 1.136-1.728 2.544 0 1.296.416 2.592 1.728 2.592m5.587 1.576v-8.272h2.296v1.168c.376-.6 1.096-1.24 2.4-1.24 1.512 0 2.896.84 2.896 2.888V968h-2.336v-5.168c0-.896-.616-1.344-1.376-1.344-.768 0-1.544.408-1.544 1.216V968zm-77.347 24v-11.568h2.048l3.488 9.552 3.536-9.552h2.04V992h-1.528v-9.352L119.76 992h-1.384l-3.328-9.264V992zm16.125.16c-1.608 0-2.728-.888-2.728-2.4 0-1.832 1.208-2.704 4.04-2.768l1.472-.04v-.648c0-1.008-.592-1.648-1.864-1.648-.952.008-1.752.424-1.952 1.408h-1.304c.088-1.608 1.32-2.496 3.328-2.496 2.152 0 3.224.928 3.224 2.656V992h-1.264l-.112-1.552c-.64 1.288-1.656 1.712-2.84 1.712m.44-1.064c1.112 0 2.344-.896 2.344-1.816v-1.416l-1.224.024c-1.904.032-2.856.504-2.856 1.728 0 .936.72 1.48 1.736 1.48m6.084.904v-8.272h1.408v1.592c.416-1.192 1.4-1.752 2.448-1.752.24 0 .496.032.632.104v1.432c-.16-.072-.456-.096-.624-.096-1.32-.088-2.392.472-2.392 1.848V992zm9.453-8.432c1.776 0 3.096 1.088 3.32 2.776h-1.312c-.144-.872-.864-1.584-2-1.584-1.416 0-2.4 1.008-2.4 3.12 0 1.912.832 3.152 2.416 3.152 1.136 0 1.856-.752 2-1.584h1.288c-.216 1.664-1.56 2.712-3.312 2.712-2.24 0-3.808-1.488-3.808-4.264 0-2.576 1.368-4.328 3.808-4.328m5.266 8.432v-11.888h1.44v4.832c.416-.68 1.256-1.32 2.584-1.32 1.616 0 2.888.952 2.888 2.464V992h-1.48v-5.616c0-.984-.744-1.552-1.832-1.552-1.12 0-2.128.536-2.128 1.648V992zm16.789-11.728c2.504 0 4.112 2.032 4.112 5.968 0 3.92-1.592 5.936-4.128 5.936s-4.12-2-4.12-5.912c0-3.952 1.624-5.992 4.136-5.992m0 10.624c1.656 0 2.512-1.36 2.512-4.648 0-3.344-.888-4.728-2.52-4.728-1.64 0-2.544 1.4-2.544 4.728 0 3.272.904 4.648 2.552 4.648m7.869 1.104v-9.208h-2.232v-.968c2.072 0 2.648-.456 2.704-1.392h1.056V992zm4.236 2.008.896-1.976-.696-.04v-1.768h1.848v1.536l-1.36 2.248zm7.936-2.008v-1.376c0-4.152 6.12-3.936 6.12-7.064 0-1.176-.888-1.984-2.296-1.984-1.512 0-2.48.92-2.6 2.344h-1.472c.04-2 1.44-3.648 4.128-3.648 2.328 0 3.808 1.32 3.808 3.288 0 4.16-6.04 3.792-6.04 6.896v.232h6.104V992zm13.444-11.728c2.504 0 4.112 2.032 4.112 5.968 0 3.92-1.592 5.936-4.128 5.936s-4.12-2-4.12-5.912c0-3.952 1.624-5.992 4.136-5.992m0 10.624c1.656 0 2.512-1.36 2.512-4.648 0-3.344-.888-4.728-2.52-4.728-1.64 0-2.544 1.4-2.544 4.728 0 3.272.904 4.648 2.552 4.648m5.885 1.104v-1.376c0-4.152 6.12-3.936 6.12-7.064 0-1.176-.888-1.984-2.296-1.984-1.512 0-2.48.92-2.6 2.344h-1.472c.04-2 1.44-3.648 4.128-3.648 2.328 0 3.808 1.32 3.808 3.288 0 4.16-6.04 3.792-6.04 6.896v.232h6.104V992zm11.515 0v-9.208h-2.232v-.968c2.072 0 2.648-.456 2.704-1.392h1.056V992zm10.974.16c-1.608 0-2.728-.888-2.728-2.4 0-1.832 1.208-2.704 4.04-2.768l1.472-.04v-.648c0-1.008-.592-1.648-1.864-1.648-.952.008-1.752.424-1.952 1.408h-1.304c.088-1.608 1.32-2.496 3.328-2.496 2.152 0 3.224.928 3.224 2.656V992h-1.264l-.112-1.552c-.64 1.288-1.656 1.712-2.84 1.712m.44-1.064c1.112 0 2.344-.896 2.344-1.816v-1.416l-1.224.024c-1.904.032-2.856.504-2.856 1.728 0 .936.72 1.48 1.736 1.48m9.948-6.288h-1.864v5.144c0 .88.232.96 1.008.96h.904v.992c-.208.08-.624.136-1.224.136-1.72 0-2.176-.712-2.176-2.04v-5.192h-1.344v-1.08h1.384l.36-2.408h1.088v2.4h1.864zm10.813-4.376h1.504v7.312h1.92v1.304h-1.92V992h-1.448v-2.952h-5.448v-1.352zm-3.976 7.312h4v-5.368zm10.551-3.688v1.88h-1.768v-1.88zm0 6.032v1.864h-1.768v-1.864zm2.833-9.656h6.904l-.04 1.28h-5.6l-.296 3.736c.768-.712 1.672-.992 2.744-.992 2.088 0 3.888 1.296 3.888 3.76 0 2.4-1.656 3.96-4.2 3.96-2.144 0-3.904-1.216-4.504-2.968l1.28-.536c.56 1.32 1.592 2.256 3.12 2.256 1.64 0 2.728-1.016 2.728-2.664 0-1.544-1.176-2.552-2.616-2.552-.944 0-1.656.168-2.528 1.136-.072.032-.08.032-.152-.008l-1.248-.392zm9.298 3.368c0-2.24 1.808-3.528 4-3.528 2.4 0 4.08 1.072 4.08 2.984 0 1.144-.712 2.112-2.208 2.632 1.52.416 2.52 1.416 2.52 2.92 0 2.112-1.888 3.392-4.456 3.368-2.392-.024-4.016-1.368-4.088-3.504h1.48c.216 1.44 1.232 2.232 2.664 2.232 1.704 0 2.8-.856 2.8-2.112 0-1.4-1.28-2.152-2.912-2.168l-1.04-.024v-1.256l.992-.024c1.52-.024 2.656-.936 2.656-2.016 0-.96-.912-1.8-2.496-1.8-1.24 0-2.472.696-2.52 2.296zm14.577 8.2v-11.568h3.912c2.48 0 4.288 1.272 4.288 3.656 0 2.312-1.656 3.632-4.088 3.632h-2.592V992zm1.512-5.528h2.568c1.584 0 2.68-.952 2.68-2.472 0-1.536-1.128-2.336-2.752-2.336h-2.496zm8.676 5.528v-11.568h2.048l3.488 9.552 3.536-9.552h2.04V992H303.8v-9.352L300.448 992h-1.384l-3.328-9.264V992z"/><path fill="#18852e" d="M88 969a8 8 0 1 0 0-16 8 8 0 0 0 0 16"/><path fill="#fff" d="M86.5 965.52c-.417 0-.812-.192-1.07-.52l-2.21-2.75a1.37 1.37 0 0 1 2.13-1.72L86.5 962l3.69-4.62a1.37 1.37 0 0 1 2.14 1.71L87.57 965a1.36 1.36 0 0 1-1.07.52"/><path stroke="#cedced" stroke-linecap="square" d="M80 1014.5h460m-460 189h460m-460-756h460"/><path fill="#454545" d="M113.296 482v-11.568h7.944l-.008 1.968h-5.592v2.808h4.856v1.928h-4.872v2.872l5.696.008V482zm9.766 0v-8.272h2.289v1.168c.496-.728 1.32-1.328 2.616-1.328.848 0 1.832.456 2.319 1.328.537-.752 1.433-1.328 2.505-1.328 1.232 0 2.704.744 2.704 2.976V482h-2.336v-5.168c0-1-.664-1.36-1.328-1.36-.616 0-1.4.352-1.4 1.232V482h-2.328v-5.376c0-.752-.696-1.152-1.312-1.152-.64 0-1.392.4-1.392 1.232V482zm16.722.16c-1.576 0-2.792-.912-2.792-2.528 0-1.808 1.304-2.768 4.224-2.8l1.04-.016v-.496c0-.76-.432-1.184-1.368-1.176-.68.008-1.368.288-1.6 1.048h-1.944c.088-1.792 1.584-2.624 3.656-2.624 2.528 0 3.496.992 3.496 2.616V482h-1.952l-.192-1.424c-.568 1.2-1.408 1.584-2.568 1.584m.792-1.536c.84 0 1.672-.672 1.68-1.384v-1.224l-.84.016c-1.168.016-2.208.36-2.208 1.368 0 .768.6 1.224 1.368 1.224m8.087-10.184v2.104h-2.272v-2.104zm-.016 3.288V482h-2.232v-8.272zm4.696 8.416c-2.448 0-2.64-1.272-2.64-2.464v-9.568h2.288v9.28c0 .608.216 1.008.936 1.088l.392.024v1.44c-.32.112-.664.2-.976.2m8.691.016c-1.576 0-2.792-.912-2.792-2.528 0-1.808 1.304-2.768 4.224-2.8l1.04-.016v-.496c0-.76-.432-1.184-1.368-1.176-.68.008-1.368.288-1.6 1.048h-1.944c.088-1.792 1.584-2.624 3.656-2.624 2.528 0 3.496.992 3.496 2.616V482h-1.952l-.192-1.424c-.568 1.2-1.408 1.584-2.568 1.584m.792-1.536c.84 0 1.672-.672 1.68-1.384v-1.224l-.84.016c-1.168.016-2.208.36-2.208 1.368 0 .768.6 1.224 1.368 1.224m8.943 1.536c-2.224 0-3.52-1.608-3.52-4.344 0-2.592 1.16-4.248 3.288-4.248 1.184 0 2.096.576 2.496 1.28v-4.736h2.344V482h-1.696l-.264-1.696c-.296.912-1.016 1.856-2.648 1.856m.512-1.68c1.176 0 1.752-.744 1.752-2.696-.016-1.688-.576-2.52-1.736-2.52-1.016 0-1.768.704-1.768 2.52 0 1.84.68 2.696 1.752 2.696m9.222 1.68c-2.224 0-3.52-1.608-3.52-4.344 0-2.592 1.16-4.248 3.288-4.248 1.184 0 2.096.576 2.496 1.28v-4.736h2.344V482h-1.696l-.264-1.696c-.296.912-1.016 1.856-2.648 1.856m.512-1.68c1.176 0 1.752-.744 1.752-2.696-.016-1.688-.576-2.52-1.736-2.52-1.016 0-1.768.704-1.768 2.52 0 1.84.68 2.696 1.752 2.696m6.141 1.52v-8.272h2.248v1.96c.392-1.264 1.32-2.12 2.624-2.12.152 0 .296.016.36.048v2.224c-.096-.04-.24-.048-.352-.056-1.84-.16-2.544.576-2.544 1.688V482zm8.554-3.6c-.008 1.264.648 2.072 1.768 2.072.8 0 1.44-.32 1.68-1.096h2.104c-.28 1.768-2.008 2.784-3.728 2.784-2.456 0-4.136-1.632-4.136-4.2 0-2.488 1.48-4.392 4.016-4.392 2.528 0 3.856 1.72 3.856 4.2v.632zm0-1.392h3.376c0-1-.552-1.808-1.68-1.808-1.072 0-1.704.896-1.696 1.808m10.54 5.152c-1.728 0-3.416-.808-3.712-2.768h2.016c.216.88 1.04 1.168 1.688 1.168.888 0 1.496-.272 1.496-.864 0-.448-.296-.696-1.048-.84l-1.456-.304c-1.464-.304-2.432-1-2.44-2.368-.008-1.488 1.208-2.616 3.472-2.616 2.032 0 3.352.944 3.376 2.568h-1.952c-.12-.64-.672-1-1.456-1-.8 0-1.384.288-1.384.872 0 .432.408.664 1.312.84l1.344.304c1.84.456 2.232 1.664 2.232 2.416 0 1.656-1.424 2.592-3.488 2.592m8.375 0c-1.728 0-3.416-.808-3.712-2.768h2.016c.216.88 1.04 1.168 1.688 1.168.888 0 1.496-.272 1.496-.864 0-.448-.296-.696-1.048-.84l-1.456-.304c-1.464-.304-2.432-1-2.44-2.368-.008-1.488 1.208-2.616 3.472-2.616 2.032 0 3.352.944 3.376 2.568h-1.952c-.12-.64-.672-1-1.456-1-.8 0-1.384.288-1.384.872 0 .432.408.664 1.312.84l1.344.304c1.84.456 2.232 1.664 2.232 2.416 0 1.656-1.424 2.592-3.488 2.592m-101.313 20.048c0 1.568.776 2.808 2.384 2.808 1.056 0 1.888-.496 2.096-1.432h1.392c-.304 1.688-1.856 2.576-3.464 2.576-2.312 0-3.904-1.576-3.904-4.216 0-2.608 1.392-4.376 3.8-4.376 2.328 0 3.624 1.584 3.624 4.096v.544zm.008-1h4.496c0-1.424-.712-2.52-2.208-2.52-1.56 0-2.296 1.288-2.288 2.52M129.028 506h-1.608l-2.408-3.24-2.392 3.24h-1.616l3.184-4.296-2.928-3.976h1.608l2.152 2.904 2.152-2.904h1.616l-2.944 3.976zm3.735.16c-1.608 0-2.728-.888-2.728-2.4 0-1.832 1.208-2.704 4.04-2.768l1.472-.04v-.648c0-1.008-.592-1.648-1.864-1.648-.952.008-1.752.424-1.952 1.408h-1.304c.088-1.608 1.32-2.496 3.328-2.496 2.152 0 3.224.928 3.224 2.656V506h-1.264l-.112-1.552c-.64 1.288-1.656 1.712-2.84 1.712m.44-1.064c1.112 0 2.344-.896 2.344-1.816v-1.416l-1.224.024c-1.904.032-2.856.504-2.856 1.728 0 .936.72 1.48 1.736 1.48m6.084.904v-8.272h1.424v1.2c.456-.728 1.216-1.36 2.504-1.36.904 0 1.952.472 2.384 1.352.512-.808 1.424-1.352 2.52-1.352 1.168 0 2.696.576 2.696 3.024V506h-1.488v-5.264c0-1.496-.824-1.912-1.696-1.912-.776 0-1.856.392-1.856 1.648V506h-1.472v-5.696c0-.984-.912-1.48-1.68-1.48-.848 0-1.864.488-1.864 1.648V506zm13.843 2.576v-10.848h1.472l.016 1.44c.376-.68 1.2-1.6 2.72-1.6 1.976 0 3.352 1.336 3.352 4.184 0 2.84-1.296 4.408-3.472 4.408-1.48 0-2.256-.952-2.6-1.656v4.072zm3.808-3.568c1.36 0 2.32-1.008 2.32-3.208 0-1.88-.808-3.08-2.32-3.08-1.536 0-2.336 1.256-2.336 3.08 0 1.784.8 3.208 2.336 3.208m7.812 1.096c-1.784 0-2.088-1.072-2.088-2.232v-9.76h1.456v9.616c0 .84.344 1.24.928 1.28l.448.008v.96c-.248.08-.536.128-.744.128m3.437-3.896c0 1.568.776 2.808 2.384 2.808 1.056 0 1.888-.496 2.096-1.432h1.392c-.304 1.688-1.856 2.576-3.464 2.576-2.312 0-3.904-1.576-3.904-4.216 0-2.608 1.392-4.376 3.8-4.376 2.328 0 3.624 1.584 3.624 4.096v.544zm.008-1h4.496c0-1.424-.712-2.52-2.208-2.52-1.56 0-2.296 1.288-2.288 2.52m7.623 4.792v-1.888h1.76V506zm6.977.16c-1.72-.016-3.176-.952-3.176-2.816v-5.616h1.48v5.464c0 1.08.656 1.816 2.008 1.816 1.216 0 2.024-.64 2.024-1.896v-5.384h1.472V506h-1.176l-.152-1.584c-.304 1.24-1.312 1.752-2.48 1.744m9.218 0c-1.728 0-3.201-.784-3.44-2.568h1.344c.208.968 1.04 1.464 2.088 1.464 1.12 0 1.864-.408 1.864-1.272 0-.608-.352-.96-1.104-1.136l-1.712-.424c-1.336-.32-2.192-.952-2.2-2.184-.008-1.448 1.056-2.472 3.152-2.472 1.792 0 2.984.824 3.04 2.376h-1.312c-.112-.792-.72-1.288-1.744-1.288-1.056 0-1.784.416-1.784 1.296 0 .592.48.888 1.392 1.112l1.664.416c1.52.4 1.936 1.408 1.936 2.224 0 1.52-1.168 2.456-3.184 2.456m6.221-3.952c0 1.568.776 2.808 2.384 2.808 1.056 0 1.888-.496 2.096-1.432h1.392c-.304 1.688-1.856 2.576-3.464 2.576-2.312 0-3.904-1.576-3.904-4.216 0-2.608 1.392-4.376 3.8-4.376 2.328 0 3.624 1.584 3.624 4.096v.544zm.008-1h4.496c0-1.424-.712-2.52-2.208-2.52-1.56 0-2.296 1.288-2.288 2.52m7.966 4.792v-8.272h1.408v1.592c.416-1.192 1.4-1.752 2.448-1.752.24 0 .496.032.632.104v1.432c-.16-.072-.456-.096-.624-.096-1.32-.088-2.392.472-2.392 1.848V506zm15.397.552c-.928.712-2.216 1.208-3.712 1.208-3.792 0-6.04-2.624-6.04-5.832 0-3.368 2.504-6.232 6.296-6.232 2.72 0 5.52 1.496 5.52 5 0 2.392-1.296 4.04-3.032 4.04-.824 0-1.248-.288-1.416-.816-.048-.136-.08-.128-.184-.016-.464.6-1.152 1.056-2.152 1.056-1.2 0-2.232-1.088-2.224-2.76 0-1.968 1.24-3.608 3.032-3.608.864 0 1.432.392 1.784.96.032.04.096.04.112-.056l.136-.504h1l-.592 3.552c-.16.904.08 1.192.592 1.192.984 0 1.848-1.088 1.848-2.944 0-3.008-2.296-4.128-4.44-4.128-3.36 0-5.184 2.416-5.184 5.272 0 2.784 1.824 4.88 5.168 4.88 1.432 0 2.112-.456 2.92-1.008zm-5.728-4.44c0 1.08.448 1.8 1.256 1.8 1.008 0 1.856-1 2-2.152.184-1.392-.544-2.12-1.36-2.12-1.112 0-1.896 1.104-1.896 2.472m10.841.096c0 1.568.776 2.808 2.384 2.808 1.056 0 1.888-.496 2.096-1.432h1.392c-.304 1.688-1.856 2.576-3.464 2.576-2.312 0-3.904-1.576-3.904-4.216 0-2.608 1.392-4.376 3.8-4.376 2.328 0 3.624 1.584 3.624 4.096v.544zm.008-1h4.496c0-1.424-.712-2.52-2.208-2.52-1.56 0-2.296 1.288-2.288 2.52m7.967 4.792v-8.272h1.424v1.2c.456-.728 1.216-1.36 2.504-1.36.904 0 1.952.472 2.384 1.352.512-.808 1.424-1.352 2.52-1.352 1.168 0 2.696.576 2.696 3.024V506h-1.488v-5.264c0-1.496-.824-1.912-1.696-1.912-.776 0-1.856.392-1.856 1.648V506h-1.472v-5.696c0-.984-.912-1.48-1.68-1.48-.848 0-1.864.488-1.864 1.648V506zm16.132.16c-1.608 0-2.728-.888-2.728-2.4 0-1.832 1.208-2.704 4.04-2.768l1.472-.04v-.648c0-1.008-.592-1.648-1.864-1.648-.952.008-1.752.424-1.952 1.408h-1.304c.088-1.608 1.32-2.496 3.328-2.496 2.152 0 3.224.928 3.224 2.656V506h-1.264l-.112-1.552c-.64 1.288-1.656 1.712-2.84 1.712m.44-1.064c1.112 0 2.344-.896 2.344-1.816v-1.416l-1.224.024c-1.904.032-2.856.504-2.856 1.728 0 .936.72 1.48 1.736 1.48m7.596-10.656v1.536h-1.512v-1.536zm-.04 3.288V506h-1.432v-8.272zm4.679 8.376c-1.784 0-2.088-1.072-2.088-2.232v-9.76h1.456v9.616c0 .84.344 1.24.928 1.28l.448.008v.96c-.248.08-.536.128-.744.128m2.489-.104v-1.888h1.76V506zm7.266-8.432c1.776 0 3.096 1.088 3.32 2.776h-1.312c-.144-.872-.864-1.584-2-1.584-1.416 0-2.4 1.008-2.4 3.12 0 1.912.832 3.152 2.416 3.152 1.136 0 1.856-.752 2-1.584h1.288c-.216 1.664-1.56 2.712-3.312 2.712-2.24 0-3.808-1.488-3.808-4.264 0-2.576 1.368-4.328 3.808-4.328m8.625 8.592c-2.296 0-3.792-1.504-3.792-4.264 0-2.592 1.352-4.328 3.8-4.328 2.28 0 3.76 1.544 3.76 4.328 0 2.528-1.304 4.264-3.768 4.264m.008-1.168c1.48 0 2.296-1.184 2.296-3.128 0-1.768-.672-3.136-2.296-3.136-1.504 0-2.328 1.168-2.328 3.136 0 1.744.672 3.128 2.328 3.128m5.727 1.008v-8.272h1.424v1.2c.456-.728 1.216-1.36 2.504-1.36.904 0 1.952.472 2.384 1.352.512-.808 1.424-1.352 2.52-1.352 1.168 0 2.696.576 2.696 3.024V506h-1.488v-5.264c0-1.496-.824-1.912-1.696-1.912-.776 0-1.856.392-1.856 1.648V506h-1.472v-5.696c0-.984-.912-1.48-1.68-1.48-.848 0-1.864.488-1.864 1.648V506z"/><path fill="#0071bb" d="M484.987 494.272c2.44 0 4.152 1.704 4.368 3.728h-1.576c-.264-1.36-1.208-2.44-2.832-2.44-2.112 0-3.24 1.432-3.24 4.632 0 3.224 1.128 4.68 3.24 4.68 1.624 0 2.568-1.16 2.832-2.512h1.576c-.24 1.976-1.608 3.8-4.368 3.8-3.12 0-4.92-2.208-4.92-5.984 0-3.768 1.784-5.904 4.92-5.904M491.443 506v-11.888h1.44v4.832c.416-.68 1.256-1.32 2.584-1.32 1.616 0 2.888.952 2.888 2.464V506h-1.48v-5.616c0-.984-.744-1.552-1.832-1.552-1.12 0-2.128.536-2.128 1.648V506zm11.507.16c-1.608 0-2.728-.888-2.728-2.4 0-1.832 1.208-2.704 4.04-2.768l1.472-.04v-.648c0-1.008-.592-1.648-1.864-1.648-.952.008-1.752.424-1.952 1.408h-1.304c.088-1.608 1.32-2.496 3.328-2.496 2.152 0 3.224.928 3.224 2.656V506h-1.264l-.112-1.552c-.64 1.288-1.656 1.712-2.84 1.712m.44-1.064c1.112 0 2.344-.896 2.344-1.816v-1.416l-1.224.024c-1.904.032-2.856.504-2.856 1.728 0 .936.72 1.48 1.736 1.48m6.084.904v-8.272h1.432v1.2c.408-.688 1.264-1.32 2.592-1.32 1.568 0 2.896.904 2.896 2.984V506h-1.48v-5.264c0-1.288-.744-1.904-1.824-1.904-1.12 0-2.144.528-2.144 1.64V506zm12.73 2.736c-2.592 0-4.12-.776-4.12-2.176 0-1.192 1.36-1.648 1.568-1.8-.288-.168-.856-.4-.856-1.04 0-.52.488-.992 1.464-1.208-.976-.488-1.544-1.344-1.544-2.296 0-1.608 1.352-2.616 3.6-2.616 1.072 0 1.744.264 2.376.72.352-.144 1.664-.688 2.112-.872l-.008 1.368-1.448.272c.168.344.272.776.272 1.128 0 1.464-1.136 2.616-3.448 2.616-.128 0-.36-.008-.496-.016-1.136.032-1.48.288-1.48.552 0 .304.424.392 1.576.472.416.024 1.04.056 1.8.104 1.728.104 2.704.92 2.704 2.24 0 1.504-1.328 2.552-4.072 2.552m.016-6.856c1.184 0 1.984-.56 1.984-1.648 0-1.112-.8-1.72-1.984-1.72-1.216 0-2.024.608-2.024 1.72 0 1.048.736 1.648 2.024 1.648m.248 5.904c1.528 0 2.368-.456 2.368-1.384 0-.656-.504-1.112-1.512-1.176l-2.32-.152c-.624-.032-1.448.552-1.448 1.32 0 .88.92 1.392 2.912 1.392m7.016-5.576c0 1.568.776 2.808 2.384 2.808 1.056 0 1.888-.496 2.096-1.432h1.392c-.304 1.688-1.856 2.576-3.464 2.576-2.312 0-3.904-1.576-3.904-4.216 0-2.608 1.392-4.376 3.8-4.376 2.328 0 3.624 1.584 3.624 4.096v.544zm.008-1h4.496c0-1.424-.712-2.52-2.208-2.52-1.56 0-2.296 1.288-2.288 2.52m-50.289 8.312h11.016v1.12h-11.016zm11.016 0h9.224v1.12h-9.224zm9.187 0h8.848v1.12h-8.848zm8.844 0h19.194v1.12H508.25zm18.922 0h9.064v1.12h-9.064z"/><path fill="#18852e" d="M88 483a8 8 0 1 0 0-16 8 8 0 0 0 0 16"/><path fill="#fff" d="M86.5 479.52c-.417 0-.812-.192-1.07-.52l-2.21-2.75a1.37 1.37 0 0 1 2.13-1.72L86.5 476l3.69-4.62a1.37 1.37 0 0 1 2.14 1.71L87.57 479a1.36 1.36 0 0 1-1.07.52"/></svg>