<svg xmlns="http://www.w3.org/2000/svg" width="620" height="811" fill="none"><rect width="620" height="811" fill="#fff" rx="5"/><g clip-path="url(#a)"><path fill="#ebf3fa" d="M309.105 168.913c28.777 0 52.106-23.485 52.106-52.456S337.882 64 309.105 64 257 87.486 257 116.457s23.328 52.456 52.105 52.456"/><path stroke="#a8b6c6" stroke-width="2" d="M361.211 116.457c0-28.971-23.329-52.457-52.106-52.457S257 87.486 257 116.457"/><path fill="#fff" fill-rule="evenodd" d="m353.158 108.211.001 35.678c-9.415 14.541-25.447 24.122-43.659 24.122-18.946 0-35.533-10.37-44.765-25.905l.002-33.895z" clip-rule="evenodd"/><path fill="#112e51" d="M348.373 75.053a6.995 6.995 0 0 1 6.995 6.995v59.189a52 52 0 0 1-2.209 3.569l-.001-62.758a4.785 4.785 0 0 0-4.785-4.785h-77.746a4.785 4.785 0 0 0-4.785 4.785l-.001 62.759a52 52 0 0 1-2.21-3.571V82.048a6.995 6.995 0 0 1 6.996-6.995z"/><path fill="#112e51" fill-rule="evenodd" d="M269.737 76.158h79.526a5 5 0 0 1 5 5v12.67h-89.526v-12.67a5 5 0 0 1 5-5" clip-rule="evenodd"/><path fill="#fff" d="M272.394 86.76a1.767 1.767 0 1 0 0-3.534 1.767 1.767 0 0 0 0 3.534m5.89 0a1.768 1.768 0 1 0-.001-3.536 1.768 1.768 0 0 0 .001 3.535Zm5.89 0a1.767 1.767 0 1 0 0-3.534 1.767 1.767 0 0 0 0 3.534"/><path stroke="#fff" stroke-linecap="round" stroke-width="3" d="M317.746 84.993h30.627"/><mask id="b" width="28" height="30" x="273" y="102" maskUnits="userSpaceOnUse" style="mask-type:alpha"><path fill="#fff" d="M287.395 131.019c7.491 0 13.564-6.276 13.564-14.017s-6.073-14.017-13.564-14.017c-7.492 0-13.565 6.276-13.565 14.017s6.073 14.017 13.565 14.017"/></mask><g mask="url(#b)"><path fill="#e6e6e6" d="M287.395 131.019c7.491 0 13.564-6.276 13.564-14.017s-6.073-14.017-13.564-14.017c-7.492 0-13.565 6.276-13.565 14.017s6.073 14.017 13.565 14.017"/><path fill="#cedced" d="M300.959 102.985H273.83v28.034h27.129z"/></g><mask id="c" width="31" height="33" x="272" y="99" maskUnits="userSpaceOnUse" style="mask-type:alpha"><path fill="#fff" d="M273.83 117.454c0 7.492 6.073 13.565 13.565 13.565s13.564-6.073 13.564-13.565h1.357V99.368h-29.842v18.086z"/></mask><g mask="url(#c)"><mask id="d" width="23" height="29" x="276" y="103" maskUnits="userSpaceOnUse" style="mask-type:alpha"><path fill="#fff" d="M290.108 119.784v2.079h.452a8.14 8.14 0 0 1 8.138 8.138v1.018h-22.607v-1.018a8.14 8.14 0 0 1 8.139-8.138h.452v-2.079a6.34 6.34 0 0 1-3.583-5.056 1.36 1.36 0 0 1-1.165-1.343v-1.583c0-.672.489-1.23 1.131-1.337v-.697a6.33 6.33 0 1 1 12.66 0v.697c.641.107 1.13.665 1.13 1.337v1.583c0 .684-.506 1.25-1.165 1.343a6.34 6.34 0 0 1-3.582 5.056"/></mask><g mask="url(#d)"><path fill="#d0c6ac" d="M290.108 119.784v2.079h.452a8.14 8.14 0 0 1 8.138 8.138v1.018h-22.607v-1.018a8.14 8.14 0 0 1 8.139-8.138h.452v-2.079a6.34 6.34 0 0 1-3.583-5.056 1.36 1.36 0 0 1-1.165-1.343v-1.583c0-.672.489-1.23 1.131-1.337v-.697a6.33 6.33 0 1 1 12.66 0v.697c.641.107 1.13.665 1.13 1.337v1.583c0 .684-.506 1.25-1.165 1.343a6.34 6.34 0 0 1-3.582 5.056"/><path fill="#d08b5b" d="M302.316 103.438h-29.842v27.581h29.842z"/><path fill="#000" fill-opacity=".1" fill-rule="evenodd" d="M293.725 112.367v2.6a6.33 6.33 0 1 1-12.661 0v-2.6 1.696a6.33 6.33 0 0 0 12.661 0z" clip-rule="evenodd"/></g><mask id="e" width="23" height="11" x="276" y="121" maskUnits="userSpaceOnUse" style="mask-type:alpha"><path fill="#fff" d="M291.233 121.896a8.14 8.14 0 0 1 7.465 8.112v1.011h-22.607v-1.011a8.14 8.14 0 0 1 7.579-8.12 1 1 0 0 0-.006.127c0 1.341 1.696 2.428 3.787 2.428s3.787-1.087 3.787-2.428q0-.06-.005-.119"/></mask><g mask="url(#e)"><path fill="#e6e6e6" fill-rule="evenodd" d="M291.233 121.896a8.14 8.14 0 0 1 7.465 8.112v1.011h-22.607v-1.011a8.14 8.14 0 0 1 7.579-8.12 1 1 0 0 0-.006.127c0 1.341 1.696 2.428 3.787 2.428s3.787-1.087 3.787-2.428q0-.06-.005-.119" clip-rule="evenodd"/><path fill="#262e33" d="M302.316 118.585h-29.842v12.434h29.842z"/><path fill="#000" fill-opacity=".16" d="M287.452 125.227c2.474 0 4.479-1.362 4.479-3.042s-2.005-3.042-4.479-3.042c-2.476 0-4.481 1.362-4.481 3.042s2.005 3.042 4.481 3.042" opacity=".6"/></g><path fill="#3a4c5a" fill-rule="evenodd" d="M283.866 121.877a8.14 8.14 0 0 0-7.775 8.131v1.011h7.84c-.384-1.365-.606-2.972-.606-4.691 0-1.619.197-3.139.541-4.451m7.105 9.142h7.727v-1.011a8.14 8.14 0 0 0-7.66-8.125c.343 1.311.539 2.828.539 4.445 0 1.719-.221 3.326-.606 4.691" clip-rule="evenodd"/><path fill="#2f4351" fill-rule="evenodd" d="M283.89 121.75q-.678 3.278.566 9.269h-1.809l-1.583-4.069.679-1.018-.679-.678 2.148-3.391a2.4 2.4 0 0 1 .678-.113m7.009 0q.678 3.278-.566 9.269h1.809l1.583-4.069-.679-1.018.679-.678-2.148-3.391a2.4 2.4 0 0 0-.678-.113" clip-rule="evenodd"/><path fill="#000" fill-opacity=".7" fill-rule="evenodd" d="M285.812 116.211a1.582 1.582 0 0 0 3.165 0" clip-rule="evenodd"/><path fill="#000" fill-opacity=".16" fill-rule="evenodd" d="M286.038 114.063c0 .5.608.905 1.357.905.748 0 1.356-.405 1.356-.905" clip-rule="evenodd"/><path fill="#000" fill-opacity=".6" d="M284.456 112.707a.679.679 0 1 0-.001-1.357.679.679 0 0 0 .001 1.357m5.878 0a.679.679 0 1 0-.001-1.357.679.679 0 0 0 .001 1.357m-7.502-2.13c.442-.623 1.655-.972 2.7-.716a.226.226 0 1 0 .108-.439c-1.213-.298-2.619.107-3.177.893a.226.226 0 1 0 .369.262m9.126 0c-.442-.623-1.656-.972-2.7-.716a.226.226 0 0 1-.109-.439c1.214-.298 2.619.107 3.178.893a.227.227 0 0 1-.369.262"/><mask id="f" width="31" height="33" x="272" y="99" maskUnits="userSpaceOnUse" style="mask-type:alpha"><path fill="#fff" d="M302.316 99.368h-29.842v31.651h29.842v-31.65Z"/></mask><g mask="url(#f)"><mask id="g" width="24" height="29" x="276" y="101" maskUnits="userSpaceOnUse" style="mask-type:alpha"><path fill="#fff" d="M279.256 118.872v-10.003q.001-.6.13-1.161c.346-2.266 1.653-4.065 3.148-5.174 2.25-1.669 6.041-2.15 7.353-.167.978-.435 2.427-.039 3.499.958 1.081 1.064 1.944 3.413 1.431 5.336q.017.215.018.434v2.47a1.36 1.36 0 0 0-1.11-1.1v-.019c-.683-2.434-2.687-3.551-3.907-4.659-1.91 2.136-7.869 2.143-9.884 6.355v1.13c0 .681.501 1.244 1.154 1.342a6.34 6.34 0 0 0 3.594 5.171v.044c.331 4.957-.751 11.167-7.8 9.269 1.539-.9 2.352-6.663 2.374-10.226m10.852.913a6.34 6.34 0 0 0 3.594-5.171 1.36 1.36 0 0 0 1.133-1.103v.154c0 1.789.425 3.552 1.239 5.146l3.046 5.957a4.3 4.3 0 0 1-.445 4.609 8.14 8.14 0 0 0-8.115-7.514h-.452z"/></mask><g mask="url(#g)"><path fill="#272c2e" fill-rule="evenodd" d="M279.256 118.872v-10.003q.001-.6.13-1.161c.346-2.266 1.653-4.065 3.148-5.174 2.25-1.669 6.041-2.15 7.353-.167.978-.435 2.427-.039 3.499.958 1.081 1.064 1.944 3.413 1.431 5.336q.017.215.018.434v2.47a1.36 1.36 0 0 0-1.11-1.1v-.019c-.683-2.434-2.687-3.551-3.907-4.659-1.91 2.136-7.869 2.143-9.884 6.355v1.13c0 .681.501 1.244 1.154 1.342a6.34 6.34 0 0 0 3.594 5.171v.044c.331 4.957-.751 11.167-7.8 9.269 1.539-.9 2.352-6.663 2.374-10.226m10.852.913a6.34 6.34 0 0 0 3.594-5.171 1.36 1.36 0 0 0 1.133-1.103v.154c0 1.789.425 3.552 1.239 5.146l3.046 5.957a4.3 4.3 0 0 1-.445 4.609 8.14 8.14 0 0 0-8.115-7.514h-.452z" clip-rule="evenodd"/><path fill="#2c1b18" d="M306.724 101.065h-29.842v31.651h29.842z"/></g><path fill="#000" fill-opacity=".16" fill-rule="evenodd" d="M279.935 112.142c2.014-3.656 7.973-3.662 9.883-5.516 1.218.96 3.216 1.702 3.903 3.805-.687-2.424-2.685-3.539-3.903-4.645-1.91 2.136-7.869 2.144-9.883 6.356" clip-rule="evenodd"/></g></g><path fill="#a8b6c6" d="M347.373 111.526h-35.695a1 1 0 0 1-1-1V107a1 1 0 0 1 1-1h35.695a1 1 0 0 1 1 1v3.526a1 1 0 0 1-1 1m-10.602 8.842h-25.093a1 1 0 0 1-1-1v-3.526a1 1 0 0 1 1-1h25.093a1 1 0 0 1 1 1v3.526a1 1 0 0 1-1 1m5.89 8.843h-30.983a1 1 0 0 1-1-1v-3.526a1 1 0 0 1 1-1h30.983a1 1 0 0 1 1 1v3.526a1 1 0 0 1-1 1"/><path fill="#e21c3d" d="M300.211 138.053h-25.632a1 1 0 0 1-1-1v-3.527a1 1 0 0 1 1-1h25.632a1 1 0 0 1 1 1v3.527a1 1 0 0 1-1 1"/><path fill="#a8b6c6" d="M336.771 138.053h-25.093a1 1 0 0 1-1-1v-3.527a1 1 0 0 1 1-1h25.093a1 1 0 0 1 1 1v3.527a1 1 0 0 1-1 1"/><path stroke="#a8b6c6" stroke-width="2" d="M257 116.5c0 28.971 23.328 52.457 52.105 52.457s52.106-23.486 52.106-52.457"/><path fill="#fff" stroke="#a8b6c6" stroke-width="2" d="M309.5 181c8.008 0 14.5-6.492 14.5-14.5s-6.492-14.5-14.5-14.5-14.5 6.492-14.5 14.5 6.492 14.5 14.5 14.5Z"/><path fill="#63bb60" d="M323 166.499c0 7.457-6.044 13.5-13.5 13.5s-13.5-6.043-13.5-13.5S302.044 153 309.5 153s13.5 6.043 13.5 13.499m-15.062 7.148 10.017-10.015a.873.873 0 0 0 0-1.233l-1.232-1.231a.87.87 0 0 0-1.232 0l-8.168 8.168-3.814-3.814a.873.873 0 0 0-1.232 0l-1.232 1.233a.87.87 0 0 0 0 1.231l5.662 5.661a.87.87 0 0 0 1.231 0"/></g><path fill="#454545" d="m103.672 221.756-7.042 11.732V242h-4.088v-8.526l-7.028-11.718h4.424l4.662 8.204 4.606-8.204zm5.565 20.524q-2.127 0-3.71-.91-1.567-.91-2.436-2.576-.854-1.666-.854-3.948c0-2.282.285-2.851.854-3.99q.868-1.708 2.436-2.66 1.582-.952 3.724-.952t3.71.938q1.569.924 2.422 2.632.855 1.709.854 4.032 0 2.184-.84 3.864a6.23 6.23 0 0 1-2.394 2.618q-1.554.952-3.766.952m.014-3.038q1.079 0 1.736-.63.658-.63.952-1.652a7.9 7.9 0 0 0 .308-2.254q0-1.148-.28-2.17-.265-1.022-.924-1.652-.658-.63-1.792-.63-1.078 0-1.75.602-.657.588-.966 1.61-.308 1.008-.308 2.24 0 1.134.28 2.184.28 1.036.938 1.694t1.806.658m14.882 3.038a6.6 6.6 0 0 1-1.988-.308 5.9 5.9 0 0 1-1.764-.91 4.7 4.7 0 0 1-1.288-1.484q-.477-.882-.476-2.044v-10.01h4.088v9.492q0 1.008.658 1.652.657.644 1.932.644 1.203 0 1.904-.616.714-.63.714-1.75v-9.422h4.046V242h-3.08l-.476-2.87q-.253 1.274-.952 1.96a3.65 3.65 0 0 1-1.582.924 6 6 0 0 1-1.736.266m21.288 0q-1.386 0-2.492-.518a4.15 4.15 0 0 1-1.75-1.498q-.644-.994-.644-2.408 0-2.38 1.778-3.612 1.777-1.246 5.614-1.288l1.806-.028v-.868q0-.994-.588-1.526-.574-.546-1.792-.532a3.9 3.9 0 0 0-1.708.42q-.798.406-1.092 1.414h-3.402q.084-1.568.91-2.576.825-1.022 2.24-1.512 1.428-.504 3.234-.504 2.226 0 3.57.56 1.344.546 1.946 1.582.602 1.022.602 2.436V242h-3.416l-.336-2.492q-.743 1.568-1.862 2.17-1.107.602-2.618.602m1.372-2.688q.56 0 1.078-.196.531-.21.938-.546.42-.35.672-.784t.252-.896v-2.142l-1.47.028a7.7 7.7 0 0 0-1.904.252q-.882.224-1.428.742-.532.518-.532 1.4 0 1.008.7 1.582.7.56 1.694.56M157.271 242v-14.476h3.934v3.43q.35-1.106.98-1.932.645-.84 1.554-1.302.91-.476 2.058-.476.196 0 .364.028a.8.8 0 0 1 .266.056v3.892a1 1 0 0 0-.308-.07q-.167-.014-.308-.028-1.203-.098-2.058.07-.853.168-1.386.574a2.35 2.35 0 0 0-.77.994 3.5 3.5 0 0 0-.238 1.316V242zm14.681-6.3q-.015 1.106.35 1.932.363.812 1.05 1.26.699.434 1.68.434 1.05 0 1.834-.448.798-.448 1.106-1.47h3.682q-.239 1.54-1.232 2.632a6.44 6.44 0 0 1-2.38 1.666 7.6 7.6 0 0 1-2.912.574q-2.142 0-3.78-.896a6.43 6.43 0 0 1-2.534-2.562q-.91-1.652-.91-3.892 0-2.17.826-3.906.825-1.75 2.394-2.758 1.581-1.022 3.794-1.022 2.211 0 3.71.938 1.512.924 2.268 2.59.77 1.652.77 3.822v1.106zm-.014-2.436h5.908a3.9 3.9 0 0 0-.322-1.596 2.57 2.57 0 0 0-.98-1.148q-.645-.42-1.624-.42-.952 0-1.624.462a2.93 2.93 0 0 0-1.008 1.176 3.5 3.5 0 0 0-.35 1.526M190.357 242v-14.476h4.018v2.044q.337-.532.868-1.022.546-.504 1.372-.826t1.96-.322q1.33 0 2.478.518 1.162.518 1.876 1.638.714 1.106.714 2.898V242h-4.088v-9.044q0-1.176-.7-1.764t-1.708-.588q-.672 0-1.302.238a2.4 2.4 0 0 0-1.008.714q-.392.476-.392 1.176V242zm22.814.28q-2.128 0-3.71-.91-1.567-.91-2.436-2.576-.854-1.666-.854-3.948c0-2.282.285-2.851.854-3.99q.868-1.708 2.436-2.66 1.582-.952 3.724-.952t3.71.938q1.568.924 2.422 2.632t.854 4.032q0 2.184-.84 3.864a6.25 6.25 0 0 1-2.394 2.618q-1.554.952-3.766.952m.014-3.038q1.078 0 1.736-.63t.952-1.652a7.9 7.9 0 0 0 .308-2.254q0-1.148-.28-2.17-.265-1.022-.924-1.652-.658-.63-1.792-.63-1.078 0-1.75.602-.658.588-.966 1.61-.308 1.008-.308 2.24 0 1.134.28 2.184.28 1.036.938 1.694.659.658 1.806.658m29.074-11.718L237.499 242h-3.248l-2.702-8.764-2.688 8.764h-3.164l-4.69-14.476h3.612l2.772 8.974h.112l2.66-8.974h2.912l2.688 8.974h.112l2.688-8.974zm13.653 14.756a8.7 8.7 0 0 1-2.912-.49 5.8 5.8 0 0 1-2.366-1.568q-.966-1.078-1.232-2.786h3.542q.181.77.658 1.218a2.9 2.9 0 0 0 1.106.644q.615.182 1.176.182 1.176 0 1.89-.364.728-.378.728-1.148 0-.588-.434-.938-.42-.35-1.4-.532l-2.548-.532q-1.919-.406-3.08-1.372-1.163-.98-1.19-2.772 0-1.302.686-2.338.699-1.036 2.058-1.638t3.332-.602q2.673 0 4.27 1.176 1.61 1.176 1.638 3.318h-3.416q-.154-.84-.84-1.288-.672-.462-1.694-.462-1.065 0-1.75.378-.686.378-.686 1.148 0 .574.56.91.56.322 1.736.56l2.352.532q1.218.294 1.974.812.77.504 1.19 1.106.42.601.574 1.218.168.602.168 1.092 0 1.442-.77 2.464-.771 1.008-2.142 1.54-1.372.532-3.178.532m13.073-14.756V242h-3.906v-14.476zm.042-5.754v3.682h-3.976v-3.682zm10.259 25.018q-3.864 0-5.88-.98-2.002-.98-2.002-2.576 0-.742.392-1.246t.91-.798q.533-.307.966-.462.448-.168.546-.224l-.644-.364a3.3 3.3 0 0 1-.784-.672q-.35-.434-.35-1.12 0-.77.728-1.428.742-.658 2.24-.91-1.428-.672-2.17-1.82-.742-1.147-.742-2.352 0-1.428.896-2.45.895-1.022 2.436-1.554 1.554-.532 3.514-.532 1.498 0 2.45.322a8 8 0 0 1 1.764.812q.322-.126.854-.322.532-.21 1.148-.448l1.204-.49 1.05-.448-.014 3.164-2.506.406q.154.378.238.812.084.433.084.714 0 1.26-.742 2.352-.728 1.092-2.198 1.764-1.456.672-3.612.672-.265 0-.714-.014a11 11 0 0 1-.714-.042q-.827.042-1.134.21-.308.168-.308.392 0 .336.63.448.63.098 1.904.182.448.028 1.246.07t1.764.112q2.66.182 3.962 1.316 1.316 1.12 1.316 2.828 0 2.03-1.932 3.346-1.918 1.33-5.796 1.33m.658-2.282q1.709 0 2.436-.42.728-.42.728-1.204 0-.658-.56-1.064-.56-.42-1.638-.49l-3.318-.224a2.5 2.5 0 0 0-1.148.196 1.9 1.9 0 0 0-.77.616 1.47 1.47 0 0 0-.266.84q0 .91 1.106 1.33t3.43.42m-.77-10.178q1.162 0 1.862-.63.714-.644.714-1.736 0-1.134-.714-1.82-.7-.686-1.862-.686-1.148 0-1.876.686-.714.686-.714 1.82 0 1.078.686 1.722.7.644 1.904.644M290.162 242v-14.476h4.018v2.044q.336-.532.868-1.022.546-.504 1.372-.826t1.96-.322q1.33 0 2.478.518 1.162.518 1.876 1.638.714 1.106.714 2.898V242h-4.088v-9.044q0-1.176-.7-1.764t-1.708-.588q-.672 0-1.302.238a2.4 2.4 0 0 0-1.008.714q-.392.476-.392 1.176V242zm20.714-14.476V242h-3.906v-14.476zm.042-5.754v3.682h-3.976v-3.682zm3.744 20.23v-14.476h4.018v2.044q.336-.532.868-1.022.546-.504 1.372-.826t1.96-.322q1.33 0 2.478.518 1.162.518 1.876 1.638.714 1.106.714 2.898V242h-4.088v-9.044q0-1.176-.7-1.764t-1.708-.588q-.672 0-1.302.238a2.4 2.4 0 0 0-1.008.714q-.392.476-.392 1.176V242zm23.304 4.788q-3.864 0-5.88-.98-2.002-.98-2.002-2.576 0-.742.392-1.246.391-.504.91-.798.531-.307.966-.462a6 6 0 0 0 .546-.224l-.644-.364a3.3 3.3 0 0 1-.784-.672q-.35-.434-.35-1.12 0-.77.728-1.428.741-.658 2.24-.91-1.428-.672-2.17-1.82-.742-1.147-.742-2.352 0-1.428.896-2.45t2.436-1.554q1.554-.532 3.514-.532 1.497 0 2.45.322a8 8 0 0 1 1.764.812q.321-.126.854-.322.531-.21 1.148-.448.615-.252 1.204-.49l1.05-.448-.014 3.164-2.506.406q.153.378.238.812.084.433.084.714 0 1.26-.742 2.352-.728 1.092-2.198 1.764-1.457.672-3.612.672-.267 0-.714-.014-.435-.013-.714-.042-.826.042-1.134.21t-.308.392q0 .336.63.448.63.098 1.904.182.447.028 1.246.07t1.764.112q2.66.182 3.962 1.316 1.316 1.12 1.316 2.828 0 2.03-1.932 3.346-1.919 1.33-5.796 1.33m.658-2.282q1.707 0 2.436-.42t.728-1.204q0-.658-.56-1.064-.561-.42-1.638-.49l-3.318-.224a2.5 2.5 0 0 0-1.148.196 1.9 1.9 0 0 0-.77.616 1.46 1.46 0 0 0-.266.84q0 .91 1.106 1.33 1.105.42 3.43.42m-.77-10.178q1.161 0 1.862-.63.714-.644.714-1.736 0-1.134-.714-1.82-.7-.686-1.862-.686-1.149 0-1.876.686-.714.686-.714 1.82 0 1.078.686 1.722.7.644 1.904.644m21.037-6.804V242h-3.906v-14.476zm.042-5.754v3.682h-3.976v-3.682zm3.745 20.23v-14.476h4.018v2.044q.336-.532.868-1.022.546-.504 1.372-.826t1.96-.322q1.329 0 2.478.518 1.161.518 1.876 1.638.714 1.106.714 2.898V242h-4.088v-9.044q0-1.176-.7-1.764t-1.708-.588q-.672 0-1.302.238a2.4 2.4 0 0 0-1.008.714q-.392.476-.392 1.176V242zm31.365-14.476v2.842h-3.052V242h-4.088v-11.634h-2.674v-2.842h2.674v-2.086q0-1.75 1.022-2.716 1.036-.966 2.926-.966h3.318l.014 2.716h-1.904q-.784 0-1.078.392-.28.378-.28 1.26v1.4zm8.538 14.756q-2.127 0-3.71-.91-1.567-.91-2.436-2.576-.854-1.666-.854-3.948c0-2.282.285-2.851.854-3.99q.868-1.708 2.436-2.66 1.582-.952 3.724-.952t3.71.938q1.569.924 2.422 2.632.855 1.709.854 4.032 0 2.184-.84 3.864a6.23 6.23 0 0 1-2.394 2.618q-1.554.952-3.766.952m.014-3.038q1.079 0 1.736-.63.658-.63.952-1.652a7.9 7.9 0 0 0 .308-2.254q0-1.148-.28-2.17-.266-1.022-.924-1.652t-1.792-.63q-1.078 0-1.75.602-.657.588-.966 1.61-.308 1.008-.308 2.24 0 1.134.28 2.184.28 1.036.938 1.694.659.658 1.806.658m9.712 2.758v-14.476h3.934v3.43q.35-1.106.98-1.932.643-.84 1.554-1.302.909-.476 2.058-.476.196 0 .364.028.182.014.266.056v3.892a1 1 0 0 0-.308-.07q-.168-.014-.308-.028-1.204-.098-2.058.07-.855.168-1.386.574a2.34 2.34 0 0 0-.77.994 3.5 3.5 0 0 0-.238 1.316V242zm26.046-11.634h-3.22l.028 7.714q0 .532.126.798.141.252.42.336.295.07.742.07h1.946v2.52q-.279.126-.882.238-.588.112-1.652.112-1.904 0-2.954-.49-1.035-.49-1.442-1.372-.405-.882-.406-2.044v-7.882h-2.352v-2.842h2.492l1.022-4.368h2.912v4.354h3.22zm3.02 11.634v-20.804h4.06v8.414q.35-.504.882-.994a4.4 4.4 0 0 1 1.33-.84q.798-.336 1.946-.336 1.386 0 2.52.546a4.4 4.4 0 0 1 1.834 1.554q.7 1.022.7 2.492V242h-4.102v-9.366q0-.98-.714-1.498-.7-.532-1.708-.532-.658 0-1.274.238a2.34 2.34 0 0 0-1.008.728q-.378.476-.378 1.19V242zm19.958-6.3q-.015 1.106.35 1.932.363.812 1.05 1.26.699.434 1.68.434 1.05 0 1.834-.448.797-.448 1.106-1.47h3.682q-.239 1.54-1.232 2.632a6.44 6.44 0 0 1-2.38 1.666 7.6 7.6 0 0 1-2.912.574q-2.142 0-3.78-.896a6.43 6.43 0 0 1-2.534-2.562q-.91-1.652-.91-3.892 0-2.17.826-3.906.825-1.75 2.394-2.758 1.581-1.022 3.794-1.022 2.211 0 3.71.938 1.512.924 2.268 2.59.77 1.652.77 3.822v1.106zm-.014-2.436h5.908a3.9 3.9 0 0 0-.322-1.596 2.57 2.57 0 0 0-.98-1.148q-.645-.42-1.624-.42-.952 0-1.624.462a2.93 2.93 0 0 0-1.008 1.176 3.5 3.5 0 0 0-.35 1.526m27.171-5.74v2.842h-3.052V242h-4.088v-11.634h-2.674v-2.842h2.674v-2.086q0-1.75 1.022-2.716 1.036-.966 2.926-.966h3.318l.014 2.716h-1.904q-.784 0-1.078.392-.28.378-.28 1.26v1.4zm6.51 0V242h-3.906v-14.476zm.042-5.754v3.682h-3.976v-3.682zm3.755 20.23v-14.476h3.934v3.43q.35-1.105.98-1.932.643-.84 1.554-1.302.91-.476 2.058-.476.196 0 .364.028.182.014.266.056v3.892a1 1 0 0 0-.308-.07q-.168-.014-.308-.028-1.204-.098-2.058.07t-1.386.574a2.34 2.34 0 0 0-.77.994 3.5 3.5 0 0 0-.238 1.316V242zm17.074.28a8.7 8.7 0 0 1-2.912-.49 5.8 5.8 0 0 1-2.366-1.568q-.966-1.078-1.232-2.786h3.542q.181.77.658 1.218a2.9 2.9 0 0 0 1.106.644q.615.182 1.176.182 1.176 0 1.89-.364.728-.378.728-1.148 0-.588-.434-.938-.42-.35-1.4-.532l-2.548-.532q-1.919-.406-3.08-1.372-1.163-.98-1.19-2.772 0-1.302.686-2.338.699-1.036 2.058-1.638t3.332-.602q2.673 0 4.27 1.176 1.61 1.176 1.638 3.318h-3.416q-.155-.84-.84-1.288-.672-.462-1.694-.462-1.065 0-1.75.378-.687.378-.686 1.148 0 .574.56.91.56.322 1.736.56l2.352.532q1.218.294 1.974.812.77.504 1.19 1.106.42.601.574 1.218.168.601.168 1.092 0 1.442-.77 2.464-.771 1.008-2.142 1.54-1.372.532-3.178.532m17.613-11.914h-3.22l.028 7.714q0 .532.126.798.14.252.42.336.294.07.742.07h1.946v2.52q-.28.126-.882.238-.588.112-1.652.112-1.904 0-2.954-.49-1.036-.49-1.442-1.372t-.406-2.044v-7.882h-2.352v-2.842h2.492l1.022-4.368h2.912v4.354h3.22zm-243.277 37h-3.22l.028 7.714q0 .533.126.798.14.252.42.336.294.07.742.07h1.946v2.52q-.28.126-.882.238-.588.112-1.652.112-1.904 0-2.954-.49-1.037-.49-1.442-1.372-.406-.882-.406-2.044v-7.882h-2.352v-2.842h2.492l1.022-4.368h2.912v4.354h3.22zm7.136-2.842V279h-3.906v-14.476zm.042-5.754v3.682h-3.976v-3.682zm3.744 20.23v-14.476h4.004v2.044q.659-.952 1.764-1.638 1.12-.686 2.814-.686.743 0 1.512.266a5 5 0 0 1 1.442.784q.686.504 1.106 1.274a5.7 5.7 0 0 1 1.834-1.652 4.95 4.95 0 0 1 2.548-.672q.812 0 1.638.266a4.4 4.4 0 0 1 1.54.868q.7.602 1.12 1.61.434.994.434 2.464V279h-4.088v-9.044q0-.868-.35-1.386a1.87 1.87 0 0 0-.868-.756 2.6 2.6 0 0 0-1.106-.238q-.546 0-1.106.224-.56.21-.952.686t-.392 1.246V279h-4.074v-9.408q0-.658-.35-1.106a2.16 2.16 0 0 0-.882-.672 2.5 2.5 0 0 0-1.064-.238q-.56 0-1.12.238a2.2 2.2 0 0 0-.938.714q-.378.476-.378 1.204V279zm28.434-6.3q-.013 1.106.35 1.932.365.811 1.05 1.26.7.434 1.68.434 1.05 0 1.834-.448.798-.448 1.106-1.47h3.682q-.237 1.54-1.232 2.632a6.4 6.4 0 0 1-2.38 1.666 7.6 7.6 0 0 1-2.912.574q-2.142 0-3.78-.896a6.45 6.45 0 0 1-2.534-2.562q-.91-1.652-.91-3.892 0-2.17.826-3.906.827-1.75 2.394-2.758 1.583-1.022 3.794-1.022 2.213 0 3.71.938 1.512.924 2.268 2.59.77 1.651.77 3.822v1.106zm-.014-2.436h5.908q0-.868-.322-1.596a2.55 2.55 0 0 0-.98-1.148q-.643-.42-1.624-.42-.952 0-1.624.462a2.95 2.95 0 0 0-1.008 1.176q-.35.728-.35 1.526M89.528 309.432l-3.92 6.648V321h-1.472v-4.928l-3.944-6.64h1.616l3.072 5.32 3.024-5.32zm3.727 11.728c-2.296 0-3.792-1.504-3.792-4.264 0-2.592 1.352-4.328 3.8-4.328 2.28 0 3.76 1.544 3.76 4.328 0 2.528-1.304 4.264-3.768 4.264m.008-1.168c1.48 0 2.296-1.184 2.296-3.128 0-1.768-.672-3.136-2.296-3.136-1.504 0-2.328 1.168-2.328 3.136 0 1.744.672 3.128 2.328 3.128m8.735 1.168c-1.72-.016-3.176-.952-3.176-2.816v-5.616h1.48v5.464c0 1.08.656 1.816 2.008 1.816 1.216 0 2.024-.64 2.024-1.896v-5.384h1.472V321h-1.176l-.152-1.584c-.304 1.24-1.312 1.752-2.48 1.744m10.132-.16v-8.272h1.424v1.2c.456-.728 1.216-1.36 2.504-1.36.904 0 1.952.472 2.384 1.352.512-.808 1.424-1.352 2.52-1.352 1.168 0 2.696.576 2.696 3.024V321h-1.488v-5.264c0-1.496-.824-1.912-1.696-1.912-.776 0-1.856.392-1.856 1.648V321h-1.472v-5.696c0-.984-.912-1.48-1.68-1.48-.848 0-1.864.488-1.864 1.648V321zm16.133.16c-1.608 0-2.728-.888-2.728-2.4 0-1.832 1.208-2.704 4.04-2.768l1.472-.04v-.648c0-1.008-.592-1.648-1.864-1.648-.952.008-1.752.424-1.952 1.408h-1.304c.088-1.608 1.32-2.496 3.328-2.496 2.152 0 3.224.928 3.224 2.656V321h-1.264l-.112-1.552c-.64 1.288-1.656 1.712-2.84 1.712m.44-1.064c1.112 0 2.344-.896 2.344-1.816v-1.416l-1.224.024c-1.904.032-2.856.504-2.856 1.728 0 .936.72 1.48 1.736 1.48m6.642 3.544c-.968 0-1.272-.208-1.272-.208v-.96l.848.016c1.232.048 1.528-.496 1.696-.904l.288-.784-3.232-8.072h1.496l2.44 6.384 2.424-6.384h1.448l-3.48 8.896c-.648 1.576-1.512 2.016-2.656 2.016m14.691-11.072c1.776 0 3.096 1.088 3.32 2.776h-1.312c-.144-.872-.864-1.584-2-1.584-1.416 0-2.4 1.008-2.4 3.12 0 1.912.832 3.152 2.416 3.152 1.136 0 1.856-.752 2-1.584h1.288c-.216 1.664-1.56 2.712-3.312 2.712-2.24 0-3.808-1.488-3.808-4.264 0-2.576 1.368-4.328 3.808-4.328m5.266 8.432v-11.888h1.44v4.832c.416-.68 1.256-1.32 2.584-1.32 1.616 0 2.888.952 2.888 2.464V321h-1.48v-5.616c0-.984-.744-1.552-1.832-1.552-1.12 0-2.128.536-2.128 1.648V321zm11.508.16c-1.608 0-2.728-.888-2.728-2.4 0-1.832 1.208-2.704 4.04-2.768l1.472-.04v-.648c0-1.008-.592-1.648-1.864-1.648-.952.008-1.752.424-1.952 1.408h-1.304c.088-1.608 1.32-2.496 3.328-2.496 2.152 0 3.224.928 3.224 2.656V321h-1.264l-.112-1.552c-.64 1.288-1.656 1.712-2.84 1.712m.44-1.064c1.112 0 2.344-.896 2.344-1.816v-1.416l-1.224.024c-1.904.032-2.856.504-2.856 1.728 0 .936.72 1.48 1.736 1.48m6.083.904v-8.272h1.432v1.2c.408-.688 1.264-1.32 2.592-1.32 1.568 0 2.896.904 2.896 2.984V321h-1.48v-5.264c0-1.288-.744-1.904-1.824-1.904-1.12 0-2.144.528-2.144 1.64V321zm12.731 2.736c-2.592 0-4.12-.776-4.12-2.176 0-1.192 1.36-1.648 1.568-1.8-.288-.168-.856-.4-.856-1.04 0-.52.488-.992 1.464-1.208-.976-.488-1.544-1.344-1.544-2.296 0-1.608 1.352-2.616 3.6-2.616 1.072 0 1.744.264 2.376.72.352-.144 1.664-.688 2.112-.872l-.008 1.368-1.448.272c.168.344.272.776.272 1.128 0 1.464-1.136 2.616-3.448 2.616-.128 0-.36-.008-.496-.016-1.136.032-1.48.288-1.48.552 0 .304.424.392 1.576.472.416.024 1.04.056 1.8.104 1.728.104 2.704.92 2.704 2.24 0 1.504-1.328 2.552-4.072 2.552m.016-6.856c1.184 0 1.984-.56 1.984-1.648 0-1.112-.8-1.72-1.984-1.72-1.216 0-2.024.608-2.024 1.72 0 1.048.736 1.648 2.024 1.648m.248 5.904c1.528 0 2.368-.456 2.368-1.384 0-.656-.504-1.112-1.512-1.176l-2.32-.152c-.624-.032-1.448.552-1.448 1.32 0 .88.92 1.392 2.912 1.392m7.015-5.576c0 1.568.776 2.808 2.384 2.808 1.056 0 1.888-.496 2.096-1.432h1.392c-.304 1.688-1.856 2.576-3.464 2.576-2.312 0-3.904-1.576-3.904-4.216 0-2.608 1.392-4.376 3.8-4.376 2.328 0 3.624 1.584 3.624 4.096v.544zm.008-1h4.496c0-1.424-.712-2.52-2.208-2.52-1.56 0-2.296 1.288-2.288 2.52m22.527-3.48L213.374 321h-1.456l-1.88-6.104-1.8 6.104h-1.44l-2.56-8.272h1.376l1.888 6.36h.128l1.864-6.36h1.12l1.936 6.344h.128l1.816-6.344zm1.69 8.272v-11.888h1.44v4.832c.416-.68 1.256-1.32 2.584-1.32 1.616 0 2.888.952 2.888 2.464V321H223v-5.616c0-.984-.744-1.552-1.832-1.552-1.12 0-2.128.536-2.128 1.648V321zm10.731-11.56v1.536h-1.512v-1.536zm-.04 3.288V321h-1.432v-8.272zm5.809-.16c1.776 0 3.096 1.088 3.32 2.776h-1.312c-.144-.872-.864-1.584-2-1.584-1.416 0-2.4 1.008-2.4 3.12 0 1.912.832 3.152 2.416 3.152 1.136 0 1.856-.752 2-1.584h1.288c-.216 1.664-1.56 2.712-3.312 2.712-2.24 0-3.808-1.488-3.808-4.264 0-2.576 1.368-4.328 3.808-4.328m5.265 8.432v-11.888h1.44v4.832c.416-.68 1.256-1.32 2.584-1.32 1.616 0 2.888.952 2.888 2.464V321h-1.48v-5.616c0-.984-.744-1.552-1.832-1.552-1.12 0-2.128.536-2.128 1.648V321zm13.995-3.792c0 1.568.776 2.808 2.384 2.808 1.056 0 1.888-.496 2.096-1.432h1.392c-.304 1.688-1.856 2.576-3.464 2.576-2.312 0-3.904-1.576-3.904-4.216 0-2.608 1.392-4.376 3.8-4.376 2.328 0 3.624 1.584 3.624 4.096v.544zm.008-1h4.496c0-1.424-.712-2.52-2.208-2.52-1.56 0-2.296 1.288-2.288 2.52m7.966 4.792v-8.272h1.424v1.2c.456-.728 1.216-1.36 2.504-1.36.904 0 1.952.472 2.384 1.352.512-.808 1.424-1.352 2.52-1.352 1.168 0 2.696.576 2.696 3.024V321h-1.488v-5.264c0-1.496-.824-1.912-1.696-1.912-.776 0-1.856.392-1.856 1.648V321h-1.472v-5.696c0-.984-.912-1.48-1.68-1.48-.848 0-1.864.488-1.864 1.648V321zm16.133.16c-1.608 0-2.728-.888-2.728-2.4 0-1.832 1.208-2.704 4.04-2.768l1.472-.04v-.648c0-1.008-.592-1.648-1.864-1.648-.952.008-1.752.424-1.952 1.408h-1.304c.088-1.608 1.32-2.496 3.328-2.496 2.152 0 3.224.928 3.224 2.656V321h-1.264l-.112-1.552c-.64 1.288-1.656 1.712-2.84 1.712m.44-1.064c1.112 0 2.344-.896 2.344-1.816v-1.416l-1.224.024c-1.904.032-2.856.504-2.856 1.728 0 .936.72 1.48 1.736 1.48m7.595-10.656v1.536h-1.512v-1.536zm-.04 3.288V321h-1.432v-8.272zm4.679 8.376c-1.784 0-2.088-1.072-2.088-2.232v-9.76h1.456v9.616c0 .84.344 1.24.928 1.28l.448.008v.96c-.248.08-.536.128-.744.128m7.361 2.536c-.968 0-1.272-.208-1.272-.208v-.96l.848.016c1.232.048 1.528-.496 1.696-.904l.288-.784-3.232-8.072h1.496l2.44 6.384 2.424-6.384h1.448l-3.48 8.896c-.648 1.576-1.512 2.016-2.656 2.016m10.894-2.48c-2.296 0-3.792-1.504-3.792-4.264 0-2.592 1.352-4.328 3.8-4.328 2.28 0 3.76 1.544 3.76 4.328 0 2.528-1.304 4.264-3.768 4.264m.008-1.168c1.48 0 2.296-1.184 2.296-3.128 0-1.768-.672-3.136-2.296-3.136-1.504 0-2.328 1.168-2.328 3.136 0 1.744.672 3.128 2.328 3.128m8.736 1.168c-1.72-.016-3.176-.952-3.176-2.816v-5.616h1.48v5.464c0 1.08.656 1.816 2.008 1.816 1.216 0 2.024-.64 2.024-1.896v-5.384h1.472V321h-1.176l-.152-1.584c-.304 1.24-1.312 1.752-2.48 1.744m13.108 0c-1.728 0-3.2-.784-3.44-2.568h1.344c.208.968 1.04 1.464 2.088 1.464 1.12 0 1.864-.408 1.864-1.272 0-.608-.352-.96-1.104-1.136l-1.712-.424c-1.336-.32-2.192-.952-2.2-2.184-.008-1.448 1.056-2.472 3.152-2.472 1.792 0 2.984.824 3.04 2.376h-1.312c-.112-.792-.72-1.288-1.744-1.288-1.056 0-1.784.416-1.784 1.296 0 .592.48.888 1.392 1.112l1.664.416c1.52.4 1.936 1.408 1.936 2.224 0 1.52-1.168 2.456-3.184 2.456m5.133-.16v-11.888h1.44v4.832c.416-.68 1.256-1.32 2.584-1.32 1.616 0 2.888.952 2.888 2.464V321h-1.48v-5.616c0-.984-.744-1.552-1.832-1.552-1.12 0-2.128.536-2.128 1.648V321zm11.508.16c-1.608 0-2.728-.888-2.728-2.4 0-1.832 1.208-2.704 4.04-2.768l1.472-.04v-.648c0-1.008-.592-1.648-1.864-1.648-.952.008-1.752.424-1.952 1.408h-1.304c.088-1.608 1.32-2.496 3.328-2.496 2.152 0 3.224.928 3.224 2.656V321h-1.264l-.112-1.552c-.64 1.288-1.656 1.712-2.84 1.712m.44-1.064c1.112 0 2.344-.896 2.344-1.816v-1.416l-1.224.024c-1.904.032-2.856.504-2.856 1.728 0 .936.72 1.48 1.736 1.48m6.083.904v-8.272h1.408v1.592c.416-1.192 1.4-1.752 2.448-1.752.24 0 .496.032.632.104v1.432c-.16-.072-.456-.096-.624-.096-1.32-.088-2.392.472-2.392 1.848V321zm7.213-3.792c0 1.568.776 2.808 2.384 2.808 1.056 0 1.888-.496 2.096-1.432h1.392c-.304 1.688-1.856 2.576-3.464 2.576-2.312 0-3.904-1.576-3.904-4.216 0-2.608 1.392-4.376 3.8-4.376 2.328 0 3.624 1.584 3.624 4.096v.544zm.008-1h4.496c0-1.424-.712-2.52-2.208-2.52-1.56 0-2.296 1.288-2.288 2.52m22.527-3.48L380.624 321h-1.456l-1.88-6.104-1.8 6.104h-1.44l-2.56-8.272h1.376l1.888 6.36h.128l1.864-6.36h1.12l1.936 6.344h.128l1.816-6.344zm3.202-3.288v1.536h-1.512v-1.536zm-.04 3.288V321h-1.432v-8.272zm6.689 1.08h-1.864v5.144c0 .88.232.96 1.008.96h.904v.992c-.208.08-.624.136-1.224.136-1.72 0-2.176-.712-2.176-2.04v-5.192h-1.344v-1.08h1.384l.36-2.408h1.088v2.4h1.864zM394.99 321v-11.888h1.44v4.832c.416-.68 1.256-1.32 2.584-1.32 1.616 0 2.888.952 2.888 2.464V321h-1.48v-5.616c0-.984-.744-1.552-1.832-1.552-1.12 0-2.128.536-2.128 1.648V321zm22.837-11.568-4 11.568h-2.648l-4-11.568h2.232l3.096 8.856 3.08-8.856zM416.799 321l4.136-11.568h2.472L427.543 321h-2.328l-.944-2.68h-4.168l-.96 2.68zm3.832-4.72h3.072l-1.528-4.6zm16.556 4.88c-1.936 0-2.592-1.208-2.8-1.856l-.16 1.696h-1.128v-11.888h1.488v4.928c.272-.536 1.136-1.472 2.712-1.472 2.064 0 3.384 1.456 3.384 4.264 0 2.608-1.168 4.328-3.496 4.328m-.264-1.136c1.336 0 2.272-.992 2.272-3.264 0-1.928-.8-3.04-2.304-3.04-1.64 0-2.28 1.104-2.304 3.04 0 2.312.664 3.264 2.336 3.264m6.811-2.816c0 1.568.776 2.808 2.384 2.808 1.056 0 1.888-.496 2.096-1.432h1.392c-.304 1.688-1.856 2.576-3.464 2.576-2.312 0-3.904-1.576-3.904-4.216 0-2.608 1.392-4.376 3.8-4.376 2.328 0 3.624 1.584 3.624 4.096v.544zm.008-1h4.496c0-1.424-.712-2.52-2.208-2.52-1.56 0-2.296 1.288-2.288 2.52m10.054 4.896c-1.784 0-2.088-1.072-2.088-2.232v-9.76h1.456v9.616c0 .84.344 1.24.928 1.28l.448.008v.96c-.248.08-.536.128-.744.128m5.662.056c-2.296 0-3.792-1.504-3.792-4.264 0-2.592 1.352-4.328 3.8-4.328 2.28 0 3.76 1.544 3.76 4.328 0 2.528-1.304 4.264-3.768 4.264m.008-1.168c1.48 0 2.296-1.184 2.296-3.128 0-1.768-.672-3.136-2.296-3.136-1.504 0-2.328 1.168-2.328 3.136 0 1.744.672 3.128 2.328 3.128m16.505-7.264L473.467 321h-1.456l-1.88-6.104-1.8 6.104h-1.44l-2.56-8.272h1.376l1.888 6.36h.128l1.864-6.36h1.12l1.936 6.344h.128l1.816-6.344zm8.628 8.432c-2.296 0-3.792-1.504-3.792-4.264 0-2.592 1.352-4.328 3.8-4.328 2.28 0 3.76 1.544 3.76 4.328 0 2.528-1.304 4.264-3.768 4.264m.008-1.168c1.48 0 2.296-1.184 2.296-3.128 0-1.768-.672-3.136-2.296-3.136-1.504 0-2.328 1.168-2.328 3.136 0 1.744.672 3.128 2.328 3.128m5.726 1.008v-8.272h1.408v1.592c.416-1.192 1.4-1.752 2.448-1.752.24 0 .496.032.632.104v1.432c-.16-.072-.456-.096-.624-.096-1.32-.088-2.392.472-2.392 1.848V321zm14.733-8.272v1.08h-2.008V321h-1.48v-7.192h-1.752v-1.08h1.752v-1.28c0-1.312.664-2.016 2-2.016h1.56l.008 1.048h-1.232c-.68 0-.88.36-.88 1.096v1.152zm1.736 8.272v-8.272h1.408v1.592c.416-1.192 1.4-1.752 2.448-1.752.24 0 .496.032.632.104v1.432c-.16-.072-.456-.096-.624-.096-1.32-.088-2.392.472-2.392 1.848V321zm9.437.16c-2.296 0-3.792-1.504-3.792-4.264 0-2.592 1.352-4.328 3.8-4.328 2.28 0 3.76 1.544 3.76 4.328 0 2.528-1.304 4.264-3.768 4.264m.008-1.168c1.48 0 2.296-1.184 2.296-3.128 0-1.768-.672-3.136-2.296-3.136-1.504 0-2.328 1.168-2.328 3.136 0 1.744.672 3.128 2.328 3.128m5.727 1.008v-8.272h1.424v1.2c.456-.728 1.216-1.36 2.504-1.36.904 0 1.952.472 2.384 1.352.512-.808 1.424-1.352 2.52-1.352 1.168 0 2.696.576 2.696 3.024V321h-1.488v-5.264c0-1.496-.824-1.912-1.696-1.912-.776 0-1.856.392-1.856 1.648V321h-1.472v-5.696c0-.984-.912-1.48-1.68-1.48-.848 0-1.864.488-1.864 1.648V321zm-254.578 24v-1.888h1.76V345zM94.888 381.432 91.512 393h-1.368l-2.536-8.968L85.032 393h-1.328l-3.336-11.568h1.496l2.56 9.208 2.608-9.208h1.16l2.6 9.208 2.608-9.208zm1.94 7.776c0 1.568.776 2.808 2.384 2.808 1.056 0 1.888-.496 2.096-1.432h1.392c-.304 1.688-1.856 2.576-3.464 2.576-2.312 0-3.904-1.576-3.904-4.216 0-2.608 1.392-4.376 3.8-4.376 2.328 0 3.624 1.584 3.624 4.096v.544zm.008-1h4.496c0-1.424-.712-2.52-2.208-2.52-1.56 0-2.296 1.288-2.288 2.52m6.855-3 .888-1.984-.688-.04v-1.752h1.848v1.536l-1.36 2.24zm5.871 7.896c-1.784 0-2.088-1.072-2.088-2.232v-9.76h1.456v9.616c0 .84.344 1.24.928 1.28l.448.008v.96c-.248.08-.536.128-.744.128m4.609 0c-1.784 0-2.088-1.072-2.088-2.232v-9.76h1.456v9.616c0 .84.344 1.24.928 1.28l.448.008v.96c-.248.08-.536.128-.744.128m9.623.056c-1.728 0-3.2-.784-3.44-2.568h1.344c.208.968 1.04 1.464 2.088 1.464 1.12 0 1.864-.408 1.864-1.272 0-.608-.352-.96-1.104-1.136l-1.712-.424c-1.336-.32-2.192-.952-2.2-2.184-.008-1.448 1.056-2.472 3.152-2.472 1.792 0 2.984.824 3.04 2.376h-1.312c-.112-.792-.72-1.288-1.744-1.288-1.056 0-1.784.416-1.784 1.296 0 .592.48.888 1.392 1.112l1.664.416c1.52.4 1.936 1.408 1.936 2.224 0 1.52-1.168 2.456-3.184 2.456m5.133-.16v-11.888h1.44v4.832c.416-.68 1.256-1.32 2.584-1.32 1.616 0 2.888.952 2.888 2.464V393h-1.48v-5.616c0-.984-.744-1.552-1.832-1.552-1.12 0-2.128.536-2.128 1.648V393zm11.508.16c-1.608 0-2.728-.888-2.728-2.4 0-1.832 1.208-2.704 4.04-2.768l1.472-.04v-.648c0-1.008-.592-1.648-1.864-1.648-.952.008-1.752.424-1.952 1.408h-1.304c.088-1.608 1.32-2.496 3.328-2.496 2.152 0 3.224.928 3.224 2.656V393h-1.264l-.112-1.552c-.64 1.288-1.656 1.712-2.84 1.712m.44-1.064c1.112 0 2.344-.896 2.344-1.816v-1.416l-1.224.024c-1.904.032-2.856.504-2.856 1.728 0 .936.72 1.48 1.736 1.48m6.083.904v-8.272h1.408v1.592c.416-1.192 1.4-1.752 2.448-1.752.24 0 .496.032.632.104v1.432c-.16-.072-.456-.096-.624-.096-1.32-.088-2.392.472-2.392 1.848V393zm7.213-3.792c0 1.568.776 2.808 2.384 2.808 1.056 0 1.888-.496 2.096-1.432h1.392c-.304 1.688-1.856 2.576-3.464 2.576-2.312 0-3.904-1.576-3.904-4.216 0-2.608 1.392-4.376 3.8-4.376 2.328 0 3.624 1.584 3.624 4.096v.544zm.008-1h4.496c0-1.424-.712-2.52-2.208-2.52-1.56 0-2.296 1.288-2.288 2.52m15.956-2.4h-1.864v5.144c0 .88.232.96 1.008.96h.904v.992c-.208.08-.624.136-1.224.136-1.72 0-2.176-.712-2.176-2.04v-5.192h-1.344v-1.08h1.384l.36-2.408h1.088v2.4h1.864zm2.011 7.192v-11.888h1.44v4.832c.416-.68 1.256-1.32 2.584-1.32 1.616 0 2.888.952 2.888 2.464V393h-1.48v-5.616c0-.984-.744-1.552-1.832-1.552-1.12 0-2.128.536-2.128 1.648V393zm10.731-11.56v1.536h-1.512v-1.536zm-.04 3.288V393h-1.432v-8.272zm5.457 8.432c-1.728 0-3.2-.784-3.44-2.568h1.344c.208.968 1.04 1.464 2.088 1.464 1.12 0 1.864-.408 1.864-1.272 0-.608-.352-.96-1.104-1.136l-1.712-.424c-1.336-.32-2.192-.952-2.2-2.184-.008-1.448 1.056-2.472 3.152-2.472 1.792 0 2.984.824 3.04 2.376h-1.312c-.112-.792-.72-1.288-1.744-1.288-1.056 0-1.784.416-1.784 1.296 0 .592.48.888 1.392 1.112l1.664.416c1.52.4 1.936 1.408 1.936 2.224 0 1.52-1.168 2.456-3.184 2.456m10.473-11.72v1.536h-1.512v-1.536zm-.04 3.288V393h-1.432v-8.272zm2.591 8.272v-8.272h1.432v1.2c.408-.688 1.264-1.32 2.592-1.32 1.568 0 2.896.904 2.896 2.984V393h-1.48v-5.264c0-1.288-.744-1.904-1.824-1.904-1.12 0-2.144.528-2.144 1.64V393zm13.561-8.272v1.08h-2.008V393h-1.48v-7.192h-1.752v-1.08h1.752v-1.28c0-1.312.664-2.016 2-2.016h1.56l.008 1.048h-1.232c-.68 0-.88.36-.88 1.096v1.152zm4.938 8.432c-2.296 0-3.792-1.504-3.792-4.264 0-2.592 1.352-4.328 3.8-4.328 2.28 0 3.76 1.544 3.76 4.328 0 2.528-1.304 4.264-3.768 4.264m.008-1.168c1.48 0 2.296-1.184 2.296-3.128 0-1.768-.672-3.136-2.296-3.136-1.504 0-2.328 1.168-2.328 3.136 0 1.744.672 3.128 2.328 3.128m5.727 1.008v-8.272h1.408v1.592c.416-1.192 1.4-1.752 2.448-1.752.24 0 .496.032.632.104v1.432c-.16-.072-.456-.096-.624-.096-1.32-.088-2.392.472-2.392 1.848V393zm6.25 0v-8.272h1.424v1.2c.456-.728 1.216-1.36 2.504-1.36.904 0 1.952.472 2.384 1.352.512-.808 1.424-1.352 2.52-1.352 1.168 0 2.696.576 2.696 3.024V393h-1.488v-5.264c0-1.496-.824-1.912-1.696-1.912-.776 0-1.856.392-1.856 1.648V393h-1.472v-5.696c0-.984-.912-1.48-1.68-1.48-.848 0-1.864.488-1.864 1.648V393zm16.133.16c-1.608 0-2.728-.888-2.728-2.4 0-1.832 1.208-2.704 4.04-2.768l1.472-.04v-.648c0-1.008-.592-1.648-1.864-1.648-.952.008-1.752.424-1.952 1.408h-1.304c.088-1.608 1.32-2.496 3.328-2.496 2.152 0 3.224.928 3.224 2.656V393h-1.264l-.112-1.552c-.64 1.288-1.656 1.712-2.84 1.712m.44-1.064c1.112 0 2.344-.896 2.344-1.816v-1.416l-1.224.024c-1.904.032-2.856.504-2.856 1.728 0 .936.72 1.48 1.736 1.48m9.948-6.288h-1.864v5.144c0 .88.232.96 1.008.96h.904v.992c-.208.08-.624.136-1.224.136-1.72 0-2.176-.712-2.176-2.04v-5.192h-1.344v-1.08h1.384l.36-2.408h1.088v2.4h1.864zm3.522-4.368v1.536h-1.512v-1.536zm-.04 3.288V393h-1.432v-8.272zm5.794 8.432c-2.296 0-3.792-1.504-3.792-4.264 0-2.592 1.352-4.328 3.8-4.328 2.28 0 3.76 1.544 3.76 4.328 0 2.528-1.304 4.264-3.768 4.264m.008-1.168c1.48 0 2.296-1.184 2.296-3.128 0-1.768-.672-3.136-2.296-3.136-1.504 0-2.328 1.168-2.328 3.136 0 1.744.672 3.128 2.328 3.128m5.726 1.008v-8.272h1.432v1.2c.408-.688 1.264-1.32 2.592-1.32 1.568 0 2.896.904 2.896 2.984V393h-1.48v-5.264c0-1.288-.744-1.904-1.824-1.904-1.12 0-2.144.528-2.144 1.64V393zm23.904-8.272L294.733 393h-1.456l-1.88-6.104-1.8 6.104h-1.44l-2.56-8.272h1.376l1.888 6.36h.128l1.864-6.36h1.12l1.936 6.344h.128l1.816-6.344zm3.202-3.288v1.536h-1.512v-1.536zm-.04 3.288V393h-1.432v-8.272zm6.689 1.08h-1.864v5.144c0 .88.232.96 1.008.96h.904v.992c-.208.08-.624.136-1.224.136-1.72 0-2.176-.712-2.176-2.04v-5.192h-1.344v-1.08h1.384l.36-2.408h1.088v2.4h1.864zm2.011 7.192v-11.888h1.44v4.832c.416-.68 1.256-1.32 2.584-1.32 1.616 0 2.888.952 2.888 2.464V393h-1.48v-5.616c0-.984-.744-1.552-1.832-1.552-1.12 0-2.128.536-2.128 1.648V393zm22.837-11.568-4 11.568h-2.648l-4-11.568h2.232l3.096 8.856 3.08-8.856zM330.909 393l4.136-11.568h2.472L341.653 393h-2.328l-.944-2.68h-4.168l-.96 2.68zm3.832-4.72h3.072l-1.528-4.6zm10.001-3.224v1.88h-1.768v-1.88zm0 6.032v1.864h-1.768v-1.864z"/><path fill="#0071bb" d="M82.048 347.64c-.968 0-1.272-.208-1.272-.208v-.96l.848.016c1.232.048 1.528-.496 1.696-.904l.288-.784-3.232-8.072h1.496l2.44 6.384 2.424-6.384h1.448l-3.48 8.896c-.648 1.576-1.512 2.016-2.656 2.016m10.894-2.48c-2.296 0-3.792-1.504-3.792-4.264 0-2.592 1.352-4.328 3.8-4.328 2.28 0 3.76 1.544 3.76 4.328 0 2.528-1.304 4.264-3.768 4.264m.008-1.168c1.48 0 2.296-1.184 2.296-3.128 0-1.768-.672-3.136-2.296-3.136-1.504 0-2.328 1.168-2.328 3.136 0 1.744.672 3.128 2.328 3.128m8.736 1.168c-1.72-.016-3.176-.952-3.176-2.816v-5.616h1.48v5.464c0 1.08.656 1.816 2.008 1.816 1.216 0 2.024-.64 2.024-1.896v-5.384h1.472V345h-1.176l-.152-1.584c-.304 1.24-1.312 1.752-2.48 1.744m6.351-.16v-8.272h1.408v1.592c.416-1.192 1.4-1.752 2.448-1.752.24 0 .496.032.632.104v1.432c-.16-.072-.456-.096-.624-.096-1.32-.088-2.392.472-2.392 1.848V345zm13.265-8.432c1.776 0 3.096 1.088 3.32 2.776h-1.312c-.144-.872-.864-1.584-2-1.584-1.416 0-2.4 1.008-2.4 3.12 0 1.912.832 3.152 2.416 3.152 1.136 0 1.856-.752 2-1.584h1.288c-.216 1.664-1.56 2.712-3.312 2.712-2.24 0-3.808-1.488-3.808-4.264 0-2.576 1.368-4.328 3.808-4.328m8.625 8.592c-2.296 0-3.792-1.504-3.792-4.264 0-2.592 1.352-4.328 3.8-4.328 2.28 0 3.76 1.544 3.76 4.328 0 2.528-1.304 4.264-3.768 4.264m.008-1.168c1.48 0 2.296-1.184 2.296-3.128 0-1.768-.672-3.136-2.296-3.136-1.504 0-2.328 1.168-2.328 3.136 0 1.744.672 3.128 2.328 3.128m5.727 1.008v-8.272h1.432v1.2c.408-.688 1.264-1.32 2.592-1.32 1.568 0 2.896.904 2.896 2.984V345h-1.48v-5.264c0-1.288-.744-1.904-1.824-1.904-1.12 0-2.144.528-2.144 1.64V345zm9.234 0v-8.272h1.432v1.2c.408-.688 1.264-1.32 2.592-1.32 1.568 0 2.896.904 2.896 2.984V345h-1.48v-5.264c0-1.288-.744-1.904-1.824-1.904-1.12 0-2.144.528-2.144 1.64V345zm10.322-3.792c0 1.568.776 2.808 2.384 2.808 1.056 0 1.888-.496 2.096-1.432h1.392c-.304 1.688-1.856 2.576-3.464 2.576-2.312 0-3.904-1.576-3.904-4.216 0-2.608 1.392-4.376 3.8-4.376 2.328 0 3.624 1.584 3.624 4.096v.544zm.008-1h4.496c0-1.424-.712-2.52-2.208-2.52-1.56 0-2.296 1.288-2.288 2.52m11.295-3.64c1.776 0 3.096 1.088 3.32 2.776h-1.312c-.144-.872-.864-1.584-2-1.584-1.416 0-2.4 1.008-2.4 3.12 0 1.912.832 3.152 2.416 3.152 1.136 0 1.856-.752 2-1.584h1.288c-.216 1.664-1.56 2.712-3.312 2.712-2.24 0-3.808-1.488-3.808-4.264 0-2.576 1.368-4.328 3.808-4.328m9.208 1.24h-1.864v5.144c0 .88.232.96 1.008.96h.904v.992c-.208.08-.624.136-1.224.136-1.72 0-2.176-.712-2.176-2.04v-5.192h-1.344v-1.08h1.384l.36-2.408h1.088v2.4h1.864zm2.88 3.4c0 1.568.776 2.808 2.384 2.808 1.056 0 1.888-.496 2.096-1.432h1.392c-.304 1.688-1.856 2.576-3.464 2.576-2.312 0-3.904-1.576-3.904-4.216 0-2.608 1.392-4.376 3.8-4.376 2.328 0 3.624 1.584 3.624 4.096v.544zm.008-1h4.496c0-1.424-.712-2.52-2.208-2.52-1.56 0-2.296 1.288-2.288 2.52m10.982 4.952c-2.152 0-3.496-1.496-3.496-4.328 0-2.576 1.136-4.264 3.376-4.264 1.584 0 2.448.936 2.712 1.472v-4.928h1.496V345h-1.136l-.16-1.696c-.208.648-.856 1.856-2.792 1.856m.264-1.136c1.672 0 2.328-.952 2.328-3.264-.016-1.936-.656-3.04-2.304-3.04-1.36 0-2.296.92-2.296 3.04 0 2.072.784 3.264 2.272 3.264m12.478 1.136c-1.608 0-2.728-.888-2.728-2.4 0-1.832 1.208-2.704 4.04-2.768l1.472-.04v-.648c0-1.008-.592-1.648-1.864-1.648-.952.008-1.752.424-1.952 1.408h-1.304c.088-1.608 1.32-2.496 3.328-2.496 2.152 0 3.224.928 3.224 2.656V345h-1.264l-.112-1.552c-.64 1.288-1.656 1.712-2.84 1.712m.44-1.064c1.112 0 2.344-.896 2.344-1.816v-1.416l-1.224.024c-1.904.032-2.856.504-2.856 1.728 0 .936.72 1.48 1.736 1.48m9.412-7.528c1.776 0 3.096 1.088 3.32 2.776h-1.312c-.144-.872-.864-1.584-2-1.584-1.416 0-2.4 1.008-2.4 3.12 0 1.912.832 3.152 2.416 3.152 1.136 0 1.856-.752 2-1.584h1.288c-.216 1.664-1.56 2.712-3.312 2.712-2.24 0-3.808-1.488-3.808-4.264 0-2.576 1.368-4.328 3.808-4.328m8.64 0c1.776 0 3.096 1.088 3.32 2.776h-1.312c-.144-.872-.864-1.584-2-1.584-1.416 0-2.4 1.008-2.4 3.12 0 1.912.832 3.152 2.416 3.152 1.136 0 1.856-.752 2-1.584h1.288c-.216 1.664-1.56 2.712-3.312 2.712-2.24 0-3.808-1.488-3.808-4.264 0-2.576 1.368-4.328 3.808-4.328m8.625 8.592c-2.296 0-3.792-1.504-3.792-4.264 0-2.592 1.352-4.328 3.8-4.328 2.28 0 3.76 1.544 3.76 4.328 0 2.528-1.304 4.264-3.768 4.264m.008-1.168c1.48 0 2.296-1.184 2.296-3.128 0-1.768-.672-3.136-2.296-3.136-1.504 0-2.328 1.168-2.328 3.136 0 1.744.672 3.128 2.328 3.128m8.736 1.168c-1.72-.016-3.176-.952-3.176-2.816v-5.616h1.48v5.464c0 1.08.656 1.816 2.008 1.816 1.216 0 2.024-.64 2.024-1.896v-5.384h1.472V345h-1.176l-.152-1.584c-.304 1.24-1.312 1.752-2.48 1.744m6.35-.16v-8.272h1.432v1.2c.408-.688 1.264-1.32 2.592-1.32 1.568 0 2.896.904 2.896 2.984V345h-1.48v-5.264c0-1.288-.744-1.904-1.824-1.904-1.12 0-2.144.528-2.144 1.64V345zm13.099-7.192h-1.864v5.144c0 .88.232.96 1.008.96h.904v.992c-.208.08-.624.136-1.224.136-1.72 0-2.176-.712-2.176-2.04v-5.192h-1.344v-1.08h1.384l.36-2.408h1.088v2.4h1.864zm4.955 7.352c-1.728 0-3.2-.784-3.44-2.568h1.344c.208.968 1.04 1.464 2.088 1.464 1.12 0 1.864-.408 1.864-1.272 0-.608-.352-.96-1.104-1.136l-1.712-.424c-1.336-.32-2.192-.952-2.2-2.184-.008-1.448 1.056-2.472 3.152-2.472 1.792 0 2.984.824 3.04 2.376h-1.312c-.112-.792-.72-1.288-1.744-1.288-1.056 0-1.784.416-1.784 1.296 0 .592.48.888 1.392 1.112l1.664.416c1.52.4 1.936 1.408 1.936 2.224 0 1.52-1.168 2.456-3.184 2.456M80 348.52h8.56v1.12H80zm8.406 0h9.048v1.12h-9.048zm9.016 0h15.647v1.12H97.422zm15.64 0h3.889v1.12h-3.889zm3.688 0h8.696v1.12h-8.696zm8.641 0h9.048v1.12h-9.048zm9.047 0h27.532v1.12h-27.532zm27.531 0h8.696v1.12h-8.696zm8.328 0h6.224v1.12h-6.224zm6 0h9.064v1.12h-9.064zm9.062 0h22.286v1.12h-22.286zm22.282 0h8.696v1.12h-8.696zm8.64 0h8.696v1.12h-8.696zm8.641 0h9.048v1.12h-9.048zm9.016 0h18.622v1.12h-18.622zm18.281 0h6.224v1.12h-6.224zm6.187 0h8.112v1.12h-8.112z"/><path stroke="#cedced" d="M80 430.5h460"/><path fill="#18852e" d="M88 467a8 8 0 1 0 0-16 8 8 0 0 0 0 16"/><path fill="#fff" d="M86.5 463.52c-.417 0-.812-.192-1.07-.52l-2.21-2.75a1.37 1.37 0 0 1 2.13-1.72L86.5 460l3.69-4.62a1.37 1.37 0 0 1 2.14 1.71L87.57 463a1.36 1.36 0 0 1-1.07.52"/><path fill="#454545" d="M121.296 465v-11.568h7.944l-.008 1.968h-5.592v2.808h4.856v1.928h-4.872v2.872l5.696.008V465zm9.766 0v-8.272h2.289v1.168q.375-.544 1.008-.936.639-.392 1.608-.392.423 0 .864.152.44.152.824.448.392.288.631.728a3.3 3.3 0 0 1 1.049-.944 2.8 2.8 0 0 1 1.456-.384q.463 0 .936.152.48.152.88.496t.64.92q.248.568.248 1.408V465h-2.336v-5.168q0-.497-.2-.792a1.07 1.07 0 0 0-.496-.432 1.5 1.5 0 0 0-.632-.136q-.312 0-.632.128-.32.12-.544.392t-.224.712V465h-2.328v-5.376a1 1 0 0 0-.2-.632 1.24 1.24 0 0 0-.504-.384 1.4 1.4 0 0 0-.608-.136q-.32 0-.64.136a1.25 1.25 0 0 0-.536.408q-.216.272-.216.688V465zm16.666.16a3.3 3.3 0 0 1-1.424-.296 2.37 2.37 0 0 1-1-.856q-.368-.568-.368-1.376 0-1.36 1.016-2.064 1.016-.712 3.208-.736l1.032-.016v-.496q0-.568-.336-.872-.328-.312-1.024-.304a2.2 2.2 0 0 0-.976.24q-.456.232-.624.808h-1.944q.048-.896.52-1.472.472-.584 1.28-.864.816-.288 1.848-.288 1.272 0 2.04.32.768.312 1.112.904.344.584.344 1.392V465h-1.952l-.192-1.424q-.424.896-1.064 1.24-.632.344-1.496.344m.784-1.536q.32 0 .616-.112.304-.12.536-.312.24-.2.384-.448t.144-.512v-1.224l-.84.016a4.4 4.4 0 0 0-1.088.144 1.8 1.8 0 0 0-.816.424q-.304.296-.304.8 0 .576.4.904.4.32.968.32m8.34-6.896V465h-2.232v-8.272zm.024-3.288v2.104h-2.272v-2.104zm4.78 11.704q-.912 0-1.448-.216-.537-.216-.792-.568a1.9 1.9 0 0 1-.328-.792 5.5 5.5 0 0 1-.072-.888v-9.568h2.288v9.28q0 .456.192.744.2.28.744.344l.392.024v1.44q-.24.08-.488.136a2 2 0 0 1-.488.064m8.353.016a3.3 3.3 0 0 1-1.424-.296 2.4 2.4 0 0 1-1-.856q-.368-.568-.368-1.376 0-1.36 1.016-2.064 1.017-.712 3.208-.736l1.032-.016v-.496q0-.568-.336-.872-.327-.312-1.024-.304a2.2 2.2 0 0 0-.976.24q-.456.232-.624.808h-1.944q.048-.896.52-1.472.473-.584 1.28-.864.816-.288 1.848-.288 1.272 0 2.04.32.768.312 1.112.904.344.584.344 1.392V465h-1.952l-.192-1.424q-.423.896-1.064 1.24-.632.344-1.496.344m.784-1.536q.32 0 .616-.112a2 2 0 0 0 .536-.312q.24-.2.384-.448t.144-.512v-1.224l-.84.016a4.4 4.4 0 0 0-1.088.144 1.8 1.8 0 0 0-.816.424q-.304.296-.304.8 0 .576.4.904.4.32.968.32m9.06 1.536q-1.663 0-2.592-1.144-.927-1.152-.928-3.2 0-1.296.376-2.248.377-.952 1.112-1.472.737-.528 1.8-.528.448 0 .832.104a3 3 0 0 1 .712.272q.32.175.56.408t.392.496v-4.736h2.344V465h-1.696l-.264-1.696a3 3 0 0 1-.312.672 2.6 2.6 0 0 1-.512.6 2.4 2.4 0 0 1-.768.424q-.447.16-1.056.16m.512-1.68q.88 0 1.312-.616.44-.616.44-2.08-.008-.848-.2-1.408c-.192-.56-.32-.651-.576-.832q-.375-.28-.96-.28-.76 0-1.264.584-.504.576-.504 1.936 0 1.384.472 2.04.473.656 1.28.656m9.176 1.68q-1.665 0-2.592-1.144-.928-1.152-.928-3.2 0-1.296.376-2.248.375-.952 1.112-1.472.735-.528 1.8-.528.448 0 .832.104.391.096.712.272.32.175.56.408t.392.496v-4.736h2.344V465h-1.696l-.264-1.696a3.2 3.2 0 0 1-.312.672 2.6 2.6 0 0 1-.512.6 2.4 2.4 0 0 1-.768.424q-.449.16-1.056.16m.512-1.68q.88 0 1.312-.616.44-.616.44-2.08-.008-.848-.2-1.408c-.192-.56-.32-.651-.576-.832q-.376-.28-.96-.28a1.6 1.6 0 0 0-1.264.584q-.504.576-.504 1.936 0 1.384.472 2.04.471.656 1.28.656m6.15 1.52v-8.272h2.248v1.96q.2-.631.56-1.104.368-.48.888-.744a2.5 2.5 0 0 1 1.176-.272q.112 0 .208.016a.4.4 0 0 1 .152.032v2.224a.5.5 0 0 0-.176-.04l-.176-.016q-.689-.056-1.176.04t-.792.328a1.34 1.34 0 0 0-.44.568 2 2 0 0 0-.136.752V465zm8.389-3.6q-.008.632.2 1.104.208.464.6.72.4.248.96.248.6 0 1.048-.256.456-.256.632-.84h2.104a2.8 2.8 0 0 1-.704 1.504 3.7 3.7 0 0 1-1.36.952 4.3 4.3 0 0 1-1.664.328q-1.224 0-2.16-.512a3.7 3.7 0 0 1-1.448-1.464q-.52-.944-.52-2.224 0-1.24.472-2.232a3.7 3.7 0 0 1 1.368-1.576q.904-.584 2.168-.584t2.12.536a3.3 3.3 0 0 1 1.296 1.48q.44.944.44 2.184v.632zm-.008-1.392h3.376q0-.497-.184-.912a1.46 1.46 0 0 0-.56-.656q-.368-.24-.928-.24-.544 0-.928.264a1.7 1.7 0 0 0-.576.672q-.2.416-.2.872m10.438 5.152a5 5 0 0 1-1.664-.28 3.3 3.3 0 0 1-1.352-.896q-.552-.616-.704-1.592h2.024q.104.44.376.696.28.256.632.368.353.104.672.104.672 0 1.08-.208.416-.216.416-.656a.65.65 0 0 0-.248-.536q-.24-.2-.8-.304l-1.456-.304q-1.096-.232-1.76-.784-.664-.56-.68-1.584 0-.744.392-1.336.4-.592 1.176-.936t1.904-.344q1.528 0 2.44.672.92.672.936 1.896h-1.952a1.07 1.07 0 0 0-.48-.736q-.384-.264-.968-.264-.608 0-1 .216a.7.7 0 0 0-.392.656q0 .328.32.52.32.184.992.32l1.344.304q.696.168 1.128.464.44.288.68.632.24.343.328.696.096.344.096.624 0 .824-.44 1.408-.44.576-1.224.88t-1.816.304m8.297 0a5 5 0 0 1-1.664-.28 3.3 3.3 0 0 1-1.352-.896q-.552-.616-.704-1.592h2.024q.104.44.376.696.28.256.632.368.353.104.672.104.672 0 1.08-.208.416-.216.416-.656a.65.65 0 0 0-.248-.536q-.24-.2-.8-.304l-1.456-.304q-1.096-.232-1.76-.784-.664-.56-.68-1.584 0-.744.392-1.336.4-.592 1.176-.936t1.904-.344q1.528 0 2.44.672.92.672.936 1.896h-1.952a1.07 1.07 0 0 0-.48-.736q-.384-.264-.968-.264-.608 0-1 .216a.7.7 0 0 0-.392.656q0 .328.32.52.32.184.992.32l1.344.304q.696.168 1.128.464.44.288.68.632.24.343.328.696.096.344.096.624 0 .824-.44 1.408-.44.576-1.224.88t-1.816.304M82.812 501.208c0 1.568.776 2.808 2.384 2.808 1.056 0 1.888-.496 2.096-1.432h1.392c-.304 1.688-1.856 2.576-3.464 2.576-2.312 0-3.904-1.576-3.904-4.216 0-2.608 1.392-4.376 3.8-4.376 2.328 0 3.624 1.584 3.624 4.096v.544zm.008-1h4.496c0-1.424-.712-2.52-2.208-2.52-1.56 0-2.296 1.288-2.288 2.52M97.528 505H95.92l-2.408-3.24L91.12 505h-1.616l3.184-4.296-2.928-3.976h1.608l2.152 2.904 2.152-2.904h1.616l-2.944 3.976zm3.735.16c-1.608 0-2.728-.888-2.728-2.4 0-1.832 1.208-2.704 4.04-2.768l1.472-.04v-.648c0-1.008-.592-1.648-1.864-1.648-.952.008-1.752.424-1.952 1.408h-1.304c.088-1.608 1.32-2.496 3.328-2.496 2.152 0 3.224.928 3.224 2.656V505h-1.264l-.112-1.552c-.64 1.288-1.656 1.712-2.84 1.712m.44-1.064c1.112 0 2.344-.896 2.344-1.816v-1.416l-1.224.024c-1.904.032-2.856.504-2.856 1.728 0 .936.72 1.48 1.736 1.48m6.084.904v-8.272h1.424v1.2c.456-.728 1.216-1.36 2.504-1.36.904 0 1.952.472 2.384 1.352.512-.808 1.424-1.352 2.52-1.352 1.168 0 2.696.576 2.696 3.024V505h-1.488v-5.264c0-1.496-.824-1.912-1.696-1.912-.776 0-1.856.392-1.856 1.648V505h-1.472v-5.696c0-.984-.912-1.48-1.68-1.48-.848 0-1.864.488-1.864 1.648V505zm13.843 2.576v-10.848h1.472l.016 1.44c.376-.68 1.2-1.6 2.72-1.6 1.976 0 3.352 1.336 3.352 4.184 0 2.84-1.296 4.408-3.472 4.408-1.48 0-2.256-.952-2.6-1.656v4.072zm3.808-3.568c1.36 0 2.32-1.008 2.32-3.208 0-1.88-.808-3.08-2.32-3.08-1.536 0-2.336 1.256-2.336 3.08 0 1.784.8 3.208 2.336 3.208m7.812 1.096c-1.784 0-2.088-1.072-2.088-2.232v-9.76h1.456v9.616c0 .84.344 1.24.928 1.28l.448.008v.96c-.248.08-.536.128-.744.128m3.437-3.896c0 1.568.776 2.808 2.384 2.808 1.056 0 1.888-.496 2.096-1.432h1.392c-.304 1.688-1.856 2.576-3.464 2.576-2.312 0-3.904-1.576-3.904-4.216 0-2.608 1.392-4.376 3.8-4.376 2.328 0 3.624 1.584 3.624 4.096v.544zm.008-1h4.496c0-1.424-.712-2.52-2.208-2.52-1.56 0-2.296 1.288-2.288 2.52m7.623 4.792v-1.888h1.76V505zm6.977.16c-1.72-.016-3.176-.952-3.176-2.816v-5.616h1.48v5.464c0 1.08.656 1.816 2.008 1.816 1.216 0 2.024-.64 2.024-1.896v-5.384h1.472V505h-1.176l-.152-1.584c-.304 1.24-1.312 1.752-2.48 1.744m9.218 0c-1.728 0-3.201-.784-3.44-2.568h1.344c.208.968 1.04 1.464 2.088 1.464 1.12 0 1.864-.408 1.864-1.272 0-.608-.352-.96-1.104-1.136l-1.712-.424c-1.336-.32-2.192-.952-2.2-2.184-.008-1.448 1.056-2.472 3.152-2.472 1.792 0 2.984.824 3.04 2.376h-1.312c-.112-.792-.72-1.288-1.744-1.288-1.056 0-1.784.416-1.784 1.296 0 .592.48.888 1.392 1.112l1.664.416c1.52.4 1.936 1.408 1.936 2.224 0 1.52-1.168 2.456-3.184 2.456m6.221-3.952c0 1.568.776 2.808 2.384 2.808 1.056 0 1.888-.496 2.096-1.432h1.392c-.304 1.688-1.856 2.576-3.464 2.576-2.312 0-3.904-1.576-3.904-4.216 0-2.608 1.392-4.376 3.8-4.376 2.328 0 3.624 1.584 3.624 4.096v.544zm.008-1h4.496c0-1.424-.712-2.52-2.208-2.52-1.56 0-2.296 1.288-2.288 2.52m7.966 4.792v-8.272h1.408v1.592c.416-1.192 1.4-1.752 2.448-1.752.24 0 .496.032.632.104v1.432c-.16-.072-.456-.096-.624-.096-1.32-.088-2.392.472-2.392 1.848V505zm15.397.552c-.928.712-2.216 1.208-3.712 1.208-3.792 0-6.04-2.624-6.04-5.832 0-3.368 2.504-6.232 6.296-6.232 2.72 0 5.52 1.496 5.52 5 0 2.392-1.296 4.04-3.032 4.04-.824 0-1.248-.288-1.416-.816-.048-.136-.08-.128-.184-.016-.464.6-1.152 1.056-2.152 1.056-1.2 0-2.232-1.088-2.224-2.76 0-1.968 1.24-3.608 3.032-3.608.864 0 1.432.392 1.784.96.032.04.096.04.112-.056l.136-.504h1l-.592 3.552c-.16.904.08 1.192.592 1.192.984 0 1.848-1.088 1.848-2.944 0-3.008-2.296-4.128-4.44-4.128-3.36 0-5.184 2.416-5.184 5.272 0 2.784 1.824 4.88 5.168 4.88 1.432 0 2.112-.456 2.92-1.008zm-5.728-4.44c0 1.08.448 1.8 1.256 1.8 1.008 0 1.856-1 2-2.152.184-1.392-.544-2.12-1.36-2.12-1.112 0-1.896 1.104-1.896 2.472m10.841.096c0 1.568.776 2.808 2.384 2.808 1.056 0 1.888-.496 2.096-1.432h1.392c-.304 1.688-1.856 2.576-3.464 2.576-2.312 0-3.904-1.576-3.904-4.216 0-2.608 1.392-4.376 3.8-4.376 2.328 0 3.624 1.584 3.624 4.096v.544zm.008-1h4.496c0-1.424-.712-2.52-2.208-2.52-1.56 0-2.296 1.288-2.288 2.52m7.967 4.792v-8.272h1.424v1.2c.456-.728 1.216-1.36 2.504-1.36.904 0 1.952.472 2.384 1.352.512-.808 1.424-1.352 2.52-1.352 1.168 0 2.696.576 2.696 3.024V505h-1.488v-5.264c0-1.496-.824-1.912-1.696-1.912-.776 0-1.856.392-1.856 1.648V505h-1.472v-5.696c0-.984-.912-1.48-1.68-1.48-.848 0-1.864.488-1.864 1.648V505zm16.132.16c-1.608 0-2.728-.888-2.728-2.4 0-1.832 1.208-2.704 4.04-2.768l1.472-.04v-.648c0-1.008-.592-1.648-1.864-1.648-.952.008-1.752.424-1.952 1.408h-1.304c.088-1.608 1.32-2.496 3.328-2.496 2.152 0 3.224.928 3.224 2.656V505h-1.264l-.112-1.552c-.64 1.288-1.656 1.712-2.84 1.712m.44-1.064c1.112 0 2.344-.896 2.344-1.816v-1.416l-1.224.024c-1.904.032-2.856.504-2.856 1.728 0 .936.72 1.48 1.736 1.48m7.596-10.656v1.536h-1.512v-1.536zm-.04 3.288V505h-1.432v-8.272zm4.679 8.376c-1.784 0-2.088-1.072-2.088-2.232v-9.76h1.456v9.616c0 .84.344 1.24.928 1.28l.448.008v.96c-.248.08-.536.128-.744.128m2.489-.104v-1.888h1.76V505zm7.266-8.432c1.776 0 3.096 1.088 3.32 2.776h-1.312c-.144-.872-.864-1.584-2-1.584-1.416 0-2.4 1.008-2.4 3.12 0 1.912.832 3.152 2.416 3.152 1.136 0 1.856-.752 2-1.584h1.288c-.216 1.664-1.56 2.712-3.312 2.712-2.24 0-3.808-1.488-3.808-4.264 0-2.576 1.368-4.328 3.808-4.328m8.625 8.592c-2.296 0-3.792-1.504-3.792-4.264 0-2.592 1.352-4.328 3.8-4.328 2.28 0 3.76 1.544 3.76 4.328 0 2.528-1.304 4.264-3.768 4.264m.008-1.168c1.48 0 2.296-1.184 2.296-3.128 0-1.768-.672-3.136-2.296-3.136-1.504 0-2.328 1.168-2.328 3.136 0 1.744.672 3.128 2.328 3.128m5.727 1.008v-8.272h1.424v1.2c.456-.728 1.216-1.36 2.504-1.36.904 0 1.952.472 2.384 1.352.512-.808 1.424-1.352 2.52-1.352 1.168 0 2.696.576 2.696 3.024V505h-1.488v-5.264c0-1.496-.824-1.912-1.696-1.912-.776 0-1.856.392-1.856 1.648V505h-1.472v-5.696c0-.984-.912-1.48-1.68-1.48-.848 0-1.864.488-1.864 1.648V505z"/><path fill="#0071bb" d="M465.159 493.272c2.44 0 4.152 1.704 4.368 3.728h-1.576c-.264-1.36-1.208-2.44-2.832-2.44-2.112 0-3.24 1.432-3.24 4.632 0 3.224 1.128 4.68 3.24 4.68 1.624 0 2.568-1.16 2.832-2.512h1.576c-.24 1.976-1.608 3.8-4.368 3.8-3.12 0-4.92-2.208-4.92-5.984 0-3.768 1.784-5.904 4.92-5.904M471.615 505v-11.888h1.44v4.832c.416-.68 1.256-1.32 2.584-1.32 1.616 0 2.888.952 2.888 2.464V505h-1.48v-5.616c0-.984-.744-1.552-1.832-1.552-1.12 0-2.128.536-2.128 1.648V505zm11.507.16c-1.608 0-2.728-.888-2.728-2.4 0-1.832 1.208-2.704 4.04-2.768l1.472-.04v-.648c0-1.008-.592-1.648-1.864-1.648-.952.008-1.752.424-1.952 1.408h-1.304c.088-1.608 1.32-2.496 3.328-2.496 2.152 0 3.224.928 3.224 2.656V505h-1.264l-.112-1.552c-.64 1.288-1.656 1.712-2.84 1.712m.44-1.064c1.112 0 2.344-.896 2.344-1.816v-1.416l-1.224.024c-1.904.032-2.856.504-2.856 1.728 0 .936.72 1.48 1.736 1.48m6.084.904v-8.272h1.432v1.2c.408-.688 1.264-1.32 2.592-1.32 1.568 0 2.896.904 2.896 2.984V505h-1.48v-5.264c0-1.288-.744-1.904-1.824-1.904-1.12 0-2.144.528-2.144 1.64V505zm12.73 2.736c-2.592 0-4.12-.776-4.12-2.176 0-1.192 1.36-1.648 1.568-1.8-.288-.168-.856-.4-.856-1.04 0-.52.488-.992 1.464-1.208-.976-.488-1.544-1.344-1.544-2.296 0-1.608 1.352-2.616 3.6-2.616 1.072 0 1.744.264 2.376.72.352-.144 1.664-.688 2.112-.872l-.008 1.368-1.448.272c.168.344.272.776.272 1.128 0 1.464-1.136 2.616-3.448 2.616-.128 0-.36-.008-.496-.016-1.136.032-1.48.288-1.48.552 0 .304.424.392 1.576.472.416.024 1.04.056 1.8.104 1.728.104 2.704.92 2.704 2.24 0 1.504-1.328 2.552-4.072 2.552m.016-6.856c1.184 0 1.984-.56 1.984-1.648 0-1.112-.8-1.72-1.984-1.72-1.216 0-2.024.608-2.024 1.72 0 1.048.736 1.648 2.024 1.648m.248 5.904c1.528 0 2.368-.456 2.368-1.384 0-.656-.504-1.112-1.512-1.176l-2.32-.152c-.624-.032-1.448.552-1.448 1.32 0 .88.92 1.392 2.912 1.392m7.016-5.576c0 1.568.776 2.808 2.384 2.808 1.056 0 1.888-.496 2.096-1.432h1.392c-.304 1.688-1.856 2.576-3.464 2.576-2.312 0-3.904-1.576-3.904-4.216 0-2.608 1.392-4.376 3.8-4.376 2.328 0 3.624 1.584 3.624 4.096v.544zm.008-1h4.496c0-1.424-.712-2.52-2.208-2.52-1.56 0-2.296 1.288-2.288 2.52m-50.289 8.312h11.016v1.12h-11.016zm11.016 0h9.224v1.12h-9.224zm9.187 0h8.848v1.12h-8.848zm8.844 0h19.194v1.12h-19.194zm18.922 0h9.064v1.12h-9.064z"/><path stroke="#cedced" d="M80 526.5h460"/><path fill="#454545" d="m90.952 565.432-4 11.568h-2.648l-4-11.568h2.232l3.096 8.856 3.08-8.856zM89.924 577l4.136-11.568h2.472L100.668 577H98.34l-.944-2.68h-4.168l-.96 2.68zm3.832-4.72h3.072l-1.528-4.6zm23.075-3.552L114.327 577h-1.456l-1.88-6.104-1.8 6.104h-1.44l-2.56-8.272h1.376l1.888 6.36h.128l1.864-6.36h1.12l1.936 6.344h.128l1.816-6.344zm3.202-3.288v1.536h-1.512v-1.536zm-.04 3.288V577h-1.432v-8.272zm4.678 8.376c-1.784 0-2.088-1.072-2.088-2.232v-9.76h1.456v9.616c0 .84.344 1.24.928 1.28l.448.008v.96c-.248.08-.536.128-.744.128m4.61 0c-1.784 0-2.088-1.072-2.088-2.232v-9.76h1.456v9.616c0 .84.344 1.24.928 1.28l.448.008v.96c-.248.08-.536.128-.744.128m9.755.056c-2.296 0-3.792-1.504-3.792-4.264 0-2.592 1.352-4.328 3.8-4.328 2.28 0 3.76 1.544 3.76 4.328 0 2.528-1.304 4.264-3.768 4.264m.008-1.168c1.48 0 2.296-1.184 2.296-3.128 0-1.768-.672-3.136-2.296-3.136-1.504 0-2.328 1.168-2.328 3.136 0 1.744.672 3.128 2.328 3.128m5.727 1.008v-8.272h1.432v1.2c.408-.688 1.264-1.32 2.592-1.32 1.568 0 2.896.904 2.896 2.984V577h-1.48v-5.264c0-1.288-.744-1.904-1.824-1.904-1.12 0-2.144.528-2.144 1.64V577zm11.322.104c-1.784 0-2.088-1.072-2.088-2.232v-9.76h1.456v9.616c0 .84.344 1.24.928 1.28l.448.008v.96c-.248.08-.536.128-.744.128m3.268 2.536c-.968 0-1.272-.208-1.272-.208v-.96l.848.016c1.232.048 1.528-.496 1.696-.904l.288-.784-3.232-8.072h1.496l2.44 6.384 2.424-6.384h1.448l-3.481 8.896c-.647 1.576-1.511 2.016-2.655 2.016m14.606-2.48c-1.72-.016-3.176-.952-3.176-2.816v-5.616h1.48v5.464c0 1.08.656 1.816 2.008 1.816 1.216 0 2.024-.64 2.024-1.896v-5.384h1.472V577h-1.176l-.152-1.584c-.304 1.24-1.312 1.752-2.48 1.744m9.217 0c-1.728 0-3.2-.784-3.44-2.568h1.344c.208.968 1.04 1.464 2.088 1.464 1.12 0 1.864-.408 1.864-1.272 0-.608-.352-.96-1.104-1.136l-1.712-.424c-1.336-.32-2.192-.952-2.2-2.184-.008-1.448 1.056-2.472 3.152-2.472 1.792 0 2.984.824 3.04 2.376h-1.312c-.112-.792-.72-1.288-1.744-1.288-1.056 0-1.784.416-1.784 1.296 0 .592.48.888 1.392 1.112l1.664.416c1.52.4 1.936 1.408 1.936 2.224 0 1.52-1.168 2.456-3.184 2.456m6.222-3.952c0 1.568.776 2.808 2.384 2.808 1.056 0 1.888-.496 2.096-1.432h1.392c-.304 1.688-1.856 2.576-3.464 2.576-2.312 0-3.904-1.576-3.904-4.216 0-2.608 1.392-4.376 3.8-4.376 2.328 0 3.624 1.584 3.624 4.096v.544zm.008-1h4.496c0-1.424-.712-2.52-2.208-2.52-1.56 0-2.296 1.288-2.288 2.52m15.956-2.4h-1.864v5.144c0 .88.232.96 1.008.96h.904v.992c-.208.08-.624.136-1.224.136-1.72 0-2.176-.712-2.176-2.04v-5.192h-1.344v-1.08h1.384l.36-2.408h1.088v2.4h1.864zm2.01 7.192v-11.888h1.44v4.832c.416-.68 1.256-1.32 2.584-1.32 1.616 0 2.888.952 2.888 2.464V577h-1.48v-5.616c0-.984-.744-1.552-1.832-1.552-1.12 0-2.128.536-2.128 1.648V577zm10.731-11.56v1.536h-1.512v-1.536zm-.04 3.288V577h-1.432v-8.272zm5.457 8.432c-1.728 0-3.2-.784-3.44-2.568h1.344c.208.968 1.04 1.464 2.088 1.464 1.12 0 1.864-.408 1.864-1.272 0-.608-.352-.96-1.104-1.136l-1.712-.424c-1.336-.32-2.192-.952-2.2-2.184-.008-1.448 1.056-2.472 3.152-2.472 1.792 0 2.984.824 3.04 2.376h-1.312c-.112-.792-.72-1.288-1.744-1.288-1.056 0-1.784.416-1.784 1.296 0 .592.48.888 1.392 1.112l1.664.416c1.52.4 1.936 1.408 1.936 2.224 0 1.52-1.168 2.456-3.184 2.456m10.474-11.72v1.536h-1.512v-1.536zm-.04 3.288V577h-1.432v-8.272zm2.59 8.272v-8.272h1.432v1.2c.408-.688 1.264-1.32 2.592-1.32 1.568 0 2.896.904 2.896 2.984V577h-1.48v-5.264c0-1.288-.744-1.904-1.824-1.904-1.12 0-2.144.528-2.144 1.64V577zm13.561-8.272v1.08h-2.008V577h-1.48v-7.192h-1.752v-1.08h1.752v-1.28c0-1.312.664-2.016 2-2.016h1.56l.008 1.048h-1.232c-.68 0-.88.36-.88 1.096v1.152zm4.939 8.432c-2.296 0-3.792-1.504-3.792-4.264 0-2.592 1.352-4.328 3.8-4.328 2.28 0 3.76 1.544 3.76 4.328 0 2.528-1.304 4.264-3.768 4.264m.008-1.168c1.48 0 2.296-1.184 2.296-3.128 0-1.768-.672-3.136-2.296-3.136-1.504 0-2.328 1.168-2.328 3.136 0 1.744.672 3.128 2.328 3.128m5.727 1.008v-8.272h1.408v1.592c.416-1.192 1.4-1.752 2.448-1.752.24 0 .496.032.632.104v1.432c-.16-.072-.456-.096-.624-.096-1.32-.088-2.392.472-2.392 1.848V577zm6.25 0v-8.272h1.424v1.2c.456-.728 1.216-1.36 2.504-1.36.904 0 1.952.472 2.384 1.352.512-.808 1.424-1.352 2.52-1.352 1.168 0 2.696.576 2.696 3.024V577h-1.488v-5.264c0-1.496-.824-1.912-1.696-1.912-.776 0-1.856.392-1.856 1.648V577h-1.472v-5.696c0-.984-.912-1.48-1.68-1.48-.848 0-1.864.488-1.864 1.648V577zm16.132.16c-1.608 0-2.728-.888-2.728-2.4 0-1.832 1.208-2.704 4.04-2.768l1.472-.04v-.648c0-1.008-.592-1.648-1.864-1.648-.952.008-1.752.424-1.952 1.408h-1.304c.088-1.608 1.32-2.496 3.328-2.496 2.152 0 3.224.928 3.224 2.656V577h-1.264l-.112-1.552c-.64 1.288-1.656 1.712-2.84 1.712m.44-1.064c1.112 0 2.344-.896 2.344-1.816v-1.416l-1.224.024c-1.904.032-2.856.504-2.856 1.728 0 .936.72 1.48 1.736 1.48m9.948-6.288h-1.864v5.144c0 .88.232.96 1.008.96h.904v.992c-.208.08-.624.136-1.224.136-1.72 0-2.176-.712-2.176-2.04v-5.192h-1.344v-1.08h1.384l.36-2.408h1.088v2.4h1.864zm3.523-4.368v1.536h-1.512v-1.536zm-.04 3.288V577h-1.432v-8.272zm5.793 8.432c-2.296 0-3.792-1.504-3.792-4.264 0-2.592 1.352-4.328 3.8-4.328 2.28 0 3.76 1.544 3.76 4.328 0 2.528-1.304 4.264-3.768 4.264m.008-1.168c1.48 0 2.296-1.184 2.296-3.128 0-1.768-.672-3.136-2.296-3.136-1.504 0-2.328 1.168-2.328 3.136 0 1.744.672 3.128 2.328 3.128m5.727 1.008v-8.272H310v1.2c.408-.688 1.264-1.32 2.592-1.32 1.568 0 2.896.904 2.896 2.984V577h-1.48v-5.264c0-1.288-.744-1.904-1.824-1.904-1.12 0-2.144.528-2.144 1.64V577zm17.333-7.192h-1.864v5.144c0 .88.232.96 1.008.96h.904v.992c-.208.08-.624.136-1.224.136-1.72 0-2.176-.712-2.176-2.04v-5.192h-1.344v-1.08h1.384l.36-2.408h1.088v2.4h1.864zm5.104 7.352c-2.296 0-3.792-1.504-3.792-4.264 0-2.592 1.352-4.328 3.8-4.328 2.28 0 3.76 1.544 3.76 4.328 0 2.528-1.304 4.264-3.768 4.264m.008-1.168c1.48 0 2.296-1.184 2.296-3.128 0-1.768-.672-3.136-2.296-3.136-1.504 0-2.328 1.168-2.328 3.136 0 1.744.672 3.128 2.328 3.128m12.633-7.424c1.776 0 3.096 1.088 3.32 2.776h-1.312c-.144-.872-.864-1.584-2-1.584-1.416 0-2.4 1.008-2.4 3.12 0 1.912.832 3.152 2.416 3.152 1.136 0 1.856-.752 2-1.584h1.288c-.216 1.664-1.56 2.712-3.312 2.712-2.24 0-3.808-1.488-3.808-4.264 0-2.576 1.368-4.328 3.808-4.328m8.624 8.592c-2.296 0-3.792-1.504-3.792-4.264 0-2.592 1.352-4.328 3.8-4.328 2.28 0 3.76 1.544 3.76 4.328 0 2.528-1.304 4.264-3.768 4.264m.008-1.168c1.48 0 2.296-1.184 2.296-3.128 0-1.768-.672-3.136-2.296-3.136-1.504 0-2.328 1.168-2.328 3.136 0 1.744.672 3.128 2.328 3.128m5.727 1.008v-8.272h1.432v1.2c.408-.688 1.264-1.32 2.592-1.32 1.568 0 2.896.904 2.896 2.984V577h-1.48v-5.264c0-1.288-.744-1.904-1.824-1.904-1.12 0-2.144.528-2.144 1.64V577zm9.235 0v-8.272h1.432v1.2c.408-.688 1.264-1.32 2.592-1.32 1.568 0 2.896.904 2.896 2.984V577h-1.48v-5.264c0-1.288-.744-1.904-1.824-1.904-1.12 0-2.144.528-2.144 1.64V577zm10.322-3.792c0 1.568.776 2.808 2.384 2.808 1.056 0 1.888-.496 2.096-1.432h1.392c-.304 1.688-1.856 2.576-3.464 2.576-2.312 0-3.904-1.576-3.904-4.216 0-2.608 1.392-4.376 3.8-4.376 2.328 0 3.624 1.584 3.624 4.096v.544zm.008-1h4.496c0-1.424-.712-2.52-2.208-2.52-1.56 0-2.296 1.288-2.288 2.52m11.295-3.64c1.776 0 3.096 1.088 3.32 2.776h-1.312c-.144-.872-.864-1.584-2-1.584-1.416 0-2.4 1.008-2.4 3.12 0 1.912.832 3.152 2.416 3.152 1.136 0 1.856-.752 2-1.584h1.288c-.216 1.664-1.56 2.712-3.312 2.712-2.24 0-3.808-1.488-3.808-4.264 0-2.576 1.367-4.328 3.808-4.328m9.208 1.24h-1.864v5.144c0 .88.232.96 1.008.96h.904v.992c-.208.08-.624.136-1.224.136-1.72 0-2.176-.712-2.176-2.04v-5.192h-1.344v-1.08h1.384l.36-2.408h1.088v2.4h1.864zm10.109 0h-1.864v5.144c0 .88.232.96 1.008.96h.904v.992c-.208.08-.624.136-1.224.136-1.72 0-2.176-.712-2.176-2.04v-5.192h-1.344v-1.08h1.384l.36-2.408h1.088v2.4h1.864zm5.104 7.352c-2.296 0-3.792-1.504-3.792-4.264 0-2.592 1.352-4.328 3.8-4.328 2.28 0 3.76 1.544 3.76 4.328 0 2.528-1.304 4.264-3.768 4.264m.008-1.168c1.48 0 2.296-1.184 2.296-3.128 0-1.768-.672-3.136-2.296-3.136-1.504 0-2.328 1.168-2.328 3.136 0 1.744.672 3.128 2.328 3.128m10.223 3.648c-.968 0-1.272-.208-1.272-.208v-.96l.848.016c1.232.048 1.528-.496 1.696-.904l.288-.784-3.232-8.072h1.496l2.44 6.384 2.424-6.384h1.448l-3.48 8.896c-.648 1.576-1.512 2.016-2.656 2.016m10.894-2.48c-2.296 0-3.792-1.504-3.792-4.264 0-2.592 1.352-4.328 3.8-4.328 2.28 0 3.76 1.544 3.76 4.328 0 2.528-1.304 4.264-3.768 4.264m.008-1.168c1.48 0 2.296-1.184 2.296-3.128 0-1.768-.672-3.136-2.296-3.136-1.504 0-2.328 1.168-2.328 3.136 0 1.744.672 3.128 2.328 3.128m8.736 1.168c-1.72-.016-3.176-.952-3.176-2.816v-5.616h1.48v5.464c0 1.08.656 1.816 2.008 1.816 1.216 0 2.024-.64 2.024-1.896v-5.384h1.472V577h-1.176l-.152-1.584c-.304 1.24-1.312 1.752-2.48 1.744m6.35-.16v-8.272h1.408v1.592c.416-1.192 1.4-1.752 2.448-1.752.24 0 .496.032.632.104v1.432c-.16-.072-.456-.096-.624-.096-1.32-.088-2.392.472-2.392 1.848V577zm12.461.16c-1.608 0-2.728-.888-2.728-2.4 0-1.832 1.208-2.704 4.04-2.768l1.472-.04v-.648c0-1.008-.592-1.648-1.864-1.648-.952.008-1.752.424-1.952 1.408h-1.304c.088-1.608 1.32-2.496 3.328-2.496 2.152 0 3.224.928 3.224 2.656V577h-1.264l-.112-1.552c-.64 1.288-1.656 1.712-2.84 1.712m.44-1.064c1.112 0 2.344-.896 2.344-1.816v-1.416l-1.224.024c-1.904.032-2.856.504-2.856 1.728 0 .936.72 1.48 1.736 1.48m9.412-7.528c1.776 0 3.096 1.088 3.32 2.776h-1.312c-.144-.872-.864-1.584-2-1.584-1.416 0-2.4 1.008-2.4 3.12 0 1.912.832 3.152 2.416 3.152 1.136 0 1.856-.752 2-1.584h1.288c-.216 1.664-1.56 2.712-3.312 2.712-2.24 0-3.808-1.488-3.808-4.264 0-2.576 1.368-4.328 3.808-4.328m8.64 0c1.776 0 3.096 1.088 3.32 2.776h-1.312c-.144-.872-.864-1.584-2-1.584-1.416 0-2.4 1.008-2.4 3.12 0 1.912.832 3.152 2.416 3.152 1.136 0 1.856-.752 2-1.584h1.288c-.216 1.664-1.56 2.712-3.312 2.712-2.24 0-3.808-1.488-3.808-4.264 0-2.576 1.368-4.328 3.808-4.328m8.625 8.592c-2.296 0-3.792-1.504-3.792-4.264 0-2.592 1.352-4.328 3.8-4.328 2.28 0 3.76 1.544 3.76 4.328 0 2.528-1.304 4.264-3.768 4.264m.008-1.168c1.48 0 2.296-1.184 2.296-3.128 0-1.768-.672-3.136-2.296-3.136-1.504 0-2.328 1.168-2.328 3.136 0 1.744.672 3.128 2.328 3.128m8.736 1.168c-1.72-.016-3.176-.952-3.176-2.816v-5.616h1.48v5.464c0 1.08.656 1.816 2.008 1.816 1.216 0 2.024-.64 2.024-1.896v-5.384h1.472V577h-1.176l-.152-1.584c-.304 1.24-1.312 1.752-2.48 1.744m6.35-.16v-8.272h1.432v1.2c.408-.688 1.264-1.32 2.592-1.32 1.568 0 2.896.904 2.896 2.984V577h-1.48v-5.264c0-1.288-.744-1.904-1.824-1.904-1.12 0-2.144.528-2.144 1.64V577zm13.099-7.192h-1.864v5.144c0 .88.232.96 1.008.96h.904v.992c-.208.08-.624.136-1.224.136-1.72 0-2.176-.712-2.176-2.04v-5.192h-1.344v-1.08h1.384l.36-2.408h1.088v2.4h1.864zm1.667 7.192v-1.888h1.76V577z"/><rect width="226" height="52" x="80" y="623" fill="#0071bb" rx="8"/><path fill="#fff" d="m100.943 656 5.17-14.46h3.09l5.17 14.46h-2.91l-1.18-3.35h-5.21l-1.2 3.35zm4.79-5.9h3.84l-1.91-5.75zm14.987 9.32c-3.68 0-5.63-1.02-5.63-2.54 0-1.41 1.81-1.84 2.01-1.95-.32-.19-1.27-.56-1.27-1.54 0-.73.69-1.42 2.12-1.67-1.37-.63-2.09-1.83-2.09-2.98 0-2.04 2.09-3.24 4.9-3.24 1.42 0 2.24.33 3.01.81.62-.24 2.17-.86 3.04-1.22l-.02 2.26-1.78.29c.14.37.22.82.22 1.09 0 1.8-1.59 3.42-4.68 3.42-.24 0-.76-.01-1.02-.04-.78.04-1.03.22-1.03.43 0 .33.59.38 1.81.45.44.03 1.24.07 2.15.13 2.53.17 3.77 1.33 3.77 2.96 0 1.94-1.83 3.34-5.51 3.34m-.08-8.9c1.1 0 1.83-.64 1.83-1.69 0-1.08-.73-1.79-1.83-1.79-1.11 0-1.85.72-1.85 1.79 0 1.03.7 1.69 1.85 1.69m.55 7.27c1.62 0 2.26-.41 2.26-1.16 0-.62-.55-1.04-1.57-1.11l-2.37-.16c-.94-.05-1.56.54-1.56 1.18 0 .87 1.02 1.25 3.24 1.25m7.308-1.79v-10.34h2.81v2.45c.49-1.58 1.65-2.65 3.28-2.65.19 0 .37.02.45.06v2.78c-.12-.05-.3-.06-.44-.07-2.3-.2-3.18.72-3.18 2.11V656zm10.693-4.5c-.01 1.58.81 2.59 2.21 2.59 1 0 1.8-.4 2.1-1.37h2.63c-.35 2.21-2.51 3.48-4.66 3.48-3.07 0-5.17-2.04-5.17-5.25 0-3.11 1.85-5.49 5.02-5.49 3.16 0 4.82 2.15 4.82 5.25v.79zm0-1.74h4.22c0-1.25-.69-2.26-2.1-2.26-1.34 0-2.13 1.12-2.12 2.26m11.523 1.74c-.01 1.58.81 2.59 2.21 2.59 1 0 1.8-.4 2.1-1.37h2.63c-.35 2.21-2.51 3.48-4.66 3.48-3.07 0-5.17-2.04-5.17-5.25 0-3.11 1.85-5.49 5.02-5.49 3.16 0 4.82 2.15 4.82 5.25v.79zm0-1.74h4.22c0-1.25-.69-2.26-2.1-2.26-1.34 0-2.13 1.12-2.12 2.26m16.577 6.44c-1.97 0-3.49-1.14-3.49-3.16 0-2.26 1.63-3.46 5.28-3.5l1.3-.02v-.62c0-.95-.54-1.48-1.71-1.47-.85.01-1.71.36-2 1.31h-2.43c.11-2.24 1.98-3.28 4.57-3.28 3.16 0 4.37 1.24 4.37 3.27V656h-2.44l-.24-1.78c-.71 1.5-1.76 1.98-3.21 1.98m.99-1.92c1.05 0 2.09-.84 2.1-1.73v-1.53l-1.05.02c-1.46.02-2.76.45-2.76 1.71 0 .96.75 1.53 1.71 1.53m7.268 1.72v-10.34h2.87v1.46c.47-.75 1.37-1.55 3-1.55 1.89 0 3.62 1.05 3.62 3.61V656h-2.92v-6.46c0-1.12-.77-1.68-1.72-1.68-.96 0-1.93.51-1.93 1.52V656zm15.765.2c-2.78 0-4.4-2.01-4.4-5.43 0-3.24 1.45-5.31 4.11-5.31 1.48 0 2.62.72 3.12 1.6v-5.92h2.93V656h-2.12l-.33-2.12c-.37 1.14-1.27 2.32-3.31 2.32m.64-2.1c1.47 0 2.19-.93 2.19-3.37-.02-2.11-.72-3.15-2.17-3.15-1.27 0-2.21.88-2.21 3.15 0 2.3.85 3.37 2.19 3.37m16.513-8.64c2.59 0 4.2 1.75 4.36 3.97h-2.43c-.13-.82-.71-1.75-1.91-1.75-1.36 0-2.29 1.04-2.29 3.17 0 2.02.87 3.28 2.35 3.28 1.18 0 1.76-1.03 1.88-1.74h2.37c-.13 2.14-1.8 3.81-4.33 3.81-2.88 0-4.99-2.02-4.99-5.33 0-3.21 1.98-5.41 4.99-5.41m10.908 10.74c-3.04 0-5-2.05-5-5.31s1.94-5.43 5.01-5.43c3.05 0 4.99 2.12 4.99 5.43 0 3.11-1.85 5.31-5 5.31m.01-2.17c1.53 0 2.13-1.5 2.13-3.24 0-1.64-.51-3.18-2.13-3.18-1.55 0-2.16 1.42-2.16 3.18 0 1.62.52 3.24 2.16 3.24m6.984 1.97v-10.34h2.87v1.46c.47-.75 1.37-1.55 3-1.55 1.89 0 3.62 1.05 3.62 3.61V656h-2.92v-6.46c0-1.12-.77-1.68-1.72-1.68-.96 0-1.93.51-1.93 1.52V656zm17.744-8.31h-2.3l.02 5.51c0 .76.28.86.92.86h1.39v1.8c-.28.12-.8.25-1.81.25-2.73 0-3.43-1.13-3.43-2.79v-5.63h-1.68v-2.03h1.77l.74-3.12h2.08v3.11h2.3zm4.92-6.14v2.63h-2.84v-2.63zm-.02 4.11V656h-2.79v-10.34zm2.571 10.34v-10.34h2.87v1.46c.47-.75 1.37-1.55 3-1.55 1.89 0 3.62 1.05 3.62 3.61V656h-2.92v-6.46c0-1.12-.77-1.68-1.72-1.68-.96 0-1.93.51-1.93 1.52V656zm15.665.2c-1.9-.01-3.94-1.19-3.94-3.39v-7.15h2.92v6.78c0 .96.64 1.64 1.85 1.64 1.14 0 1.87-.62 1.87-1.69v-6.73h2.89V656h-2.2l-.34-2.05c-.37 1.81-1.83 2.26-3.05 2.25m10.555-4.7c-.01 1.58.81 2.59 2.21 2.59 1 0 1.8-.4 2.1-1.37h2.63c-.35 2.21-2.51 3.48-4.66 3.48-3.07 0-5.17-2.04-5.17-5.25 0-3.11 1.85-5.49 5.02-5.49 3.16 0 4.82 2.15 4.82 5.25v.79zm0-1.74h4.22c0-1.25-.69-2.26-2.1-2.26-1.34 0-2.13 1.12-2.12 2.26"/><path stroke="#cedced" d="M80 714.5h460"/><path fill="#0071bb" d="M86.018 733.272c2.44 0 4.152 1.704 4.368 3.728H88.81c-.264-1.36-1.208-2.44-2.832-2.44-2.112 0-3.24 1.432-3.24 4.632 0 3.224 1.128 4.68 3.24 4.68 1.624 0 2.568-1.16 2.832-2.512h1.576c-.24 1.976-1.608 3.8-4.368 3.8-3.12 0-4.92-2.208-4.92-5.984 0-3.768 1.784-5.904 4.92-5.904m8.667 11.888c-1.608 0-2.728-.888-2.728-2.4 0-1.832 1.208-2.704 4.04-2.768l1.472-.04v-.648c0-1.008-.592-1.648-1.864-1.648-.952.008-1.752.424-1.952 1.408h-1.304c.088-1.608 1.32-2.496 3.328-2.496 2.152 0 3.224.928 3.224 2.656V745h-1.264l-.112-1.552c-.64 1.288-1.656 1.712-2.84 1.712m.44-1.064c1.112 0 2.344-.896 2.344-1.816v-1.416l-1.224.024c-1.904.032-2.856.504-2.856 1.728 0 .936.72 1.48 1.736 1.48m6.083.904v-8.272h1.432v1.2c.408-.688 1.264-1.32 2.592-1.32 1.568 0 2.896.904 2.896 2.984V745h-1.48v-5.264c0-1.288-.744-1.904-1.824-1.904-1.12 0-2.144.528-2.144 1.64V745zm12.563-8.432c1.776 0 3.096 1.088 3.32 2.776h-1.312c-.144-.872-.864-1.584-2-1.584-1.416 0-2.4 1.008-2.4 3.12 0 1.912.832 3.152 2.416 3.152 1.136 0 1.856-.752 2-1.584h1.288c-.216 1.664-1.56 2.712-3.312 2.712-2.24 0-3.808-1.488-3.808-4.264 0-2.576 1.368-4.328 3.808-4.328m6.4 4.64c0 1.568.776 2.808 2.384 2.808 1.056 0 1.888-.496 2.096-1.432h1.392c-.304 1.688-1.856 2.576-3.464 2.576-2.312 0-3.904-1.576-3.904-4.216 0-2.608 1.392-4.376 3.8-4.376 2.328 0 3.624 1.584 3.624 4.096v.544zm.008-1h4.496c0-1.424-.712-2.52-2.208-2.52-1.56 0-2.296 1.288-2.288 2.52m10.055 4.896c-1.784 0-2.088-1.072-2.088-2.232v-9.76h1.456v9.616c0 .84.344 1.24.928 1.28l.448.008v.96c-.248.08-.536.128-.744.128m-50 3.416H91.25v1.12H80.234zm10.907 0h8.848v1.12H91.14v-1.12Zm8.843 0h17.931v1.12h-17.93zm17.875 0h9.064v1.12h-9.064zm9.063 0h4.848v1.12h-4.848z"/><defs><clipPath id="a"><path fill="#fff" d="M80 64h458.211v117H80z"/></clipPath></defs></svg>