<svg width="620" height="811" viewBox="0 0 620 811" fill="none" xmlns="http://www.w3.org/2000/svg"><rect width="620" height="811" rx="5" fill="#fff"/><g clip-path="url(#a)"><path d="M309.105 168.913c28.777 0 52.106-23.485 52.106-52.456 0-28.971-23.329-52.457-52.106-52.457S257 87.486 257 116.457s23.328 52.456 52.105 52.456Z" fill="#EBF3FA"/><path d="M361.211 116.457c0-28.971-23.329-52.457-52.106-52.457S257 87.486 257 116.457" stroke="#A8B6C6" stroke-width="2"/><path fill-rule="evenodd" clip-rule="evenodd" d="m353.158 108.211.001 35.678c-9.415 14.541-25.447 24.122-43.659 24.122-18.946 0-35.533-10.37-44.765-25.905l.002-33.895h88.421Z" fill="#fff"/><path d="M348.373 75.053a6.995 6.995 0 0 1 6.995 6.995v59.189a51.951 51.951 0 0 1-2.209 3.569l-.001-62.758a4.785 4.785 0 0 0-4.785-4.785h-77.746a4.785 4.785 0 0 0-4.785 4.785l-.001 62.759a51.765 51.765 0 0 1-2.21-3.571V82.048a6.995 6.995 0 0 1 6.996-6.995h77.746Z" fill="#112E51"/><path fill-rule="evenodd" clip-rule="evenodd" d="M269.737 76.158h79.526a5 5 0 0 1 5 5v12.67h-89.526v-12.67a5 5 0 0 1 5-5Z" fill="#112E51"/><path d="M272.394 86.76a1.767 1.767 0 1 0 0-3.534 1.767 1.767 0 0 0 0 3.534Zm5.89 0a1.768 1.768 0 1 0-.001-3.536 1.768 1.768 0 0 0 .001 3.535Zm5.89 0a1.767 1.767 0 1 0 0-3.534 1.767 1.767 0 0 0 0 3.534Z" fill="#fff"/><path d="M317.746 84.993h30.627" stroke="#fff" stroke-width="3" stroke-linecap="round"/><mask id="b" style="mask-type:alpha" maskUnits="userSpaceOnUse" x="273" y="102" width="28" height="30"><path d="M287.395 131.019c7.491 0 13.564-6.276 13.564-14.017s-6.073-14.017-13.564-14.017c-7.492 0-13.565 6.276-13.565 14.017s6.073 14.017 13.565 14.017Z" fill="#fff"/></mask><g mask="url(#b)"><path d="M287.395 131.019c7.491 0 13.564-6.276 13.564-14.017s-6.073-14.017-13.564-14.017c-7.492 0-13.565 6.276-13.565 14.017s6.073 14.017 13.565 14.017Z" fill="#E6E6E6"/><path d="M300.959 102.985H273.83v28.034h27.129v-28.034Z" fill="#CEDCED"/></g><mask id="c" style="mask-type:alpha" maskUnits="userSpaceOnUse" x="272" y="99" width="31" height="33"><path d="M273.83 117.454c0 7.492 6.073 13.565 13.565 13.565 7.491 0 13.564-6.073 13.564-13.565h1.357V99.368h-29.842v18.086h1.356Z" fill="#fff"/></mask><g mask="url(#c)"><mask id="d" style="mask-type:alpha" maskUnits="userSpaceOnUse" x="276" y="103" width="23" height="29"><path d="M290.108 119.784v2.079h.452a8.138 8.138 0 0 1 8.138 8.138v1.018h-22.607v-1.018a8.138 8.138 0 0 1 8.139-8.138h.452v-2.079a6.335 6.335 0 0 1-3.583-5.056 1.357 1.357 0 0 1-1.165-1.343v-1.583c0-.672.489-1.23 1.131-1.337v-.697a6.33 6.33 0 1 1 12.66 0v.697c.641.107 1.13.665 1.13 1.337v1.583c0 .684-.506 1.25-1.165 1.343a6.336 6.336 0 0 1-3.582 5.056Z" fill="#fff"/></mask><g mask="url(#d)"><path d="M290.108 119.784v2.079h.452a8.138 8.138 0 0 1 8.138 8.138v1.018h-22.607v-1.018a8.138 8.138 0 0 1 8.139-8.138h.452v-2.079a6.335 6.335 0 0 1-3.583-5.056 1.357 1.357 0 0 1-1.165-1.343v-1.583c0-.672.489-1.23 1.131-1.337v-.697a6.33 6.33 0 1 1 12.66 0v.697c.641.107 1.13.665 1.13 1.337v1.583c0 .684-.506 1.25-1.165 1.343a6.336 6.336 0 0 1-3.582 5.056Z" fill="#D0C6AC"/><path d="M302.316 103.438h-29.842v27.581h29.842v-27.581Z" fill="#D08B5B"/><path fill-rule="evenodd" clip-rule="evenodd" d="M293.725 112.367v2.6a6.33 6.33 0 1 1-12.661 0v-2.6 1.696a6.33 6.33 0 0 0 12.661 0v-1.696Z" fill="#000" fill-opacity=".1"/></g><mask id="e" style="mask-type:alpha" maskUnits="userSpaceOnUse" x="276" y="121" width="23" height="11"><path d="M291.233 121.896a8.14 8.14 0 0 1 7.465 8.112v1.011h-22.607v-1.011a8.139 8.139 0 0 1 7.579-8.12 1.334 1.334 0 0 0-.006.127c0 1.341 1.696 2.428 3.787 2.428s3.787-1.087 3.787-2.428c0-.04-.002-.079-.005-.119Z" fill="#fff"/></mask><g mask="url(#e)"><path fill-rule="evenodd" clip-rule="evenodd" d="M291.233 121.896a8.14 8.14 0 0 1 7.465 8.112v1.011h-22.607v-1.011a8.139 8.139 0 0 1 7.579-8.12 1.334 1.334 0 0 0-.006.127c0 1.341 1.696 2.428 3.787 2.428s3.787-1.087 3.787-2.428c0-.04-.002-.079-.005-.119Z" fill="#E6E6E6"/><path d="M302.316 118.585h-29.842v12.434h29.842v-12.434Z" fill="#262E33"/><path opacity=".6" d="M287.452 125.227c2.474 0 4.479-1.362 4.479-3.042 0-1.68-2.005-3.042-4.479-3.042-2.476 0-4.481 1.362-4.481 3.042 0 1.68 2.005 3.042 4.481 3.042Z" fill="#000" fill-opacity=".16"/></g><path fill-rule="evenodd" clip-rule="evenodd" d="M283.866 121.877a8.14 8.14 0 0 0-7.775 8.131v1.011h7.84c-.384-1.365-.606-2.972-.606-4.691 0-1.619.197-3.139.541-4.451Zm7.105 9.142h7.727v-1.011a8.138 8.138 0 0 0-7.66-8.125c.343 1.311.539 2.828.539 4.445 0 1.719-.221 3.326-.606 4.691Z" fill="#3A4C5A"/><path fill-rule="evenodd" clip-rule="evenodd" d="M283.89 121.75c-.452 2.185-.264 5.275.566 9.269h-1.809l-1.583-4.069.679-1.018-.679-.678 2.148-3.391a2.43 2.43 0 0 1 .678-.113Zm7.009 0c.452 2.185.264 5.275-.566 9.269h1.809l1.583-4.069-.679-1.018.679-.678-2.148-3.391a2.43 2.43 0 0 0-.678-.113Z" fill="#2F4351"/><path fill-rule="evenodd" clip-rule="evenodd" d="M285.812 116.211a1.582 1.582 0 0 0 3.165 0" fill="#000" fill-opacity=".7"/><path fill-rule="evenodd" clip-rule="evenodd" d="M286.038 114.063c0 .5.608.905 1.357.905.748 0 1.356-.405 1.356-.905" fill="#000" fill-opacity=".16"/><path d="M284.456 112.707a.679.679 0 1 0-.001-1.357.679.679 0 0 0 .001 1.357Zm5.878 0a.679.679 0 1 0-.001-1.357.679.679 0 0 0 .001 1.357Zm-7.502-2.13c.442-.623 1.655-.972 2.7-.716a.226.226 0 1 0 .108-.439c-1.213-.298-2.619.107-3.177.893a.226.226 0 1 0 .369.262Zm9.126 0c-.442-.623-1.656-.972-2.7-.716a.226.226 0 0 1-.109-.439c1.214-.298 2.619.107 3.178.893a.227.227 0 0 1-.369.262Z" fill="#000" fill-opacity=".6"/><mask id="f" style="mask-type:alpha" maskUnits="userSpaceOnUse" x="272" y="99" width="31" height="33"><path d="M302.316 99.368h-29.842v31.651h29.842v-31.65Z" fill="#fff"/></mask><g mask="url(#f)"><mask id="g" style="mask-type:alpha" maskUnits="userSpaceOnUse" x="276" y="101" width="24" height="29"><path d="M279.256 118.872v-10.003c0-.399.045-.788.13-1.161.346-2.266 1.653-4.065 3.148-5.174 2.25-1.669 6.041-2.15 7.353-.167.978-.435 2.427-.039 3.499.958 1.081 1.064 1.944 3.413 1.431 5.336.011.143.018.288.018.434v2.47a1.359 1.359 0 0 0-1.11-1.1v-.019c-.683-2.434-2.687-3.551-3.907-4.659-1.91 2.136-7.869 2.143-9.884 6.355v1.13c0 .681.501 1.244 1.154 1.342a6.336 6.336 0 0 0 3.594 5.171v.044c.331 4.957-.751 11.167-7.8 9.269 1.539-.9 2.352-6.663 2.374-10.226Zm10.852.913a6.338 6.338 0 0 0 3.594-5.171 1.358 1.358 0 0 0 1.133-1.103v.154c0 1.789.425 3.552 1.239 5.146l3.046 5.957a4.297 4.297 0 0 1-.445 4.609 8.139 8.139 0 0 0-8.115-7.514h-.452v-2.078Z" fill="#fff"/></mask><g mask="url(#g)"><path fill-rule="evenodd" clip-rule="evenodd" d="M279.256 118.872v-10.003c0-.399.045-.788.13-1.161.346-2.266 1.653-4.065 3.148-5.174 2.25-1.669 6.041-2.15 7.353-.167.978-.435 2.427-.039 3.499.958 1.081 1.064 1.944 3.413 1.431 5.336.011.143.018.288.018.434v2.47a1.359 1.359 0 0 0-1.11-1.1v-.019c-.683-2.434-2.687-3.551-3.907-4.659-1.91 2.136-7.869 2.143-9.884 6.355v1.13c0 .681.501 1.244 1.154 1.342a6.336 6.336 0 0 0 3.594 5.171v.044c.331 4.957-.751 11.167-7.8 9.269 1.539-.9 2.352-6.663 2.374-10.226Zm10.852.913a6.338 6.338 0 0 0 3.594-5.171 1.358 1.358 0 0 0 1.133-1.103v.154c0 1.789.425 3.552 1.239 5.146l3.046 5.957a4.297 4.297 0 0 1-.445 4.609 8.139 8.139 0 0 0-8.115-7.514h-.452v-2.078Z" fill="#272C2E"/><path d="M306.724 101.065h-29.842v31.651h29.842v-31.651Z" fill="#2C1B18"/></g><path fill-rule="evenodd" clip-rule="evenodd" d="M279.935 112.142c2.014-3.656 7.973-3.662 9.883-5.516 1.218.96 3.216 1.702 3.903 3.805-.687-2.424-2.685-3.539-3.903-4.645-1.91 2.136-7.869 2.144-9.883 6.356Z" fill="#000" fill-opacity=".16"/></g></g><path d="M347.373 111.526h-35.695a1 1 0 0 1-1-1V107a1 1 0 0 1 1-1h35.695a1 1 0 0 1 1 1v3.526a1 1 0 0 1-1 1Zm-10.602 8.842h-25.093a1 1 0 0 1-1-1v-3.526a1 1 0 0 1 1-1h25.093a1 1 0 0 1 1 1v3.526a1 1 0 0 1-1 1Zm5.89 8.843h-30.983a1 1 0 0 1-1-1v-3.526a1 1 0 0 1 1-1h30.983a1 1 0 0 1 1 1v3.526a1 1 0 0 1-1 1Z" fill="#A8B6C6"/><path d="M300.211 138.053h-25.632a1 1 0 0 1-1-1v-3.527a1 1 0 0 1 1-1h25.632a1 1 0 0 1 1 1v3.527a1 1 0 0 1-1 1Z" fill="#E21C3D"/><path d="M336.771 138.053h-25.093a1 1 0 0 1-1-1v-3.527a1 1 0 0 1 1-1h25.093a1 1 0 0 1 1 1v3.527a1 1 0 0 1-1 1Z" fill="#A8B6C6"/><path d="M257 116.5c0 28.971 23.328 52.457 52.105 52.457 28.777 0 52.106-23.486 52.106-52.457" stroke="#A8B6C6" stroke-width="2"/><path d="M309.5 181c8.008 0 14.5-6.492 14.5-14.5s-6.492-14.5-14.5-14.5-14.5 6.492-14.5 14.5 6.492 14.5 14.5 14.5Z" fill="#fff" stroke="#A8B6C6" stroke-width="2"/><path d="M323 166.499c0 7.457-6.044 13.5-13.5 13.5s-13.5-6.043-13.5-13.5c0-7.456 6.044-13.499 13.5-13.499s13.5 6.043 13.5 13.499Zm-15.062 7.148 10.017-10.015a.873.873 0 0 0 0-1.233l-1.232-1.231a.872.872 0 0 0-1.232 0l-8.168 8.168-3.814-3.814a.873.873 0 0 0-1.232 0l-1.232 1.233a.87.87 0 0 0 0 1.231l5.662 5.661a.87.87 0 0 0 1.231 0Z" fill="#63BB60"/></g><path d="m103.672 221.756-7.042 11.732V242h-4.088v-8.526l-7.028-11.718h4.424l4.662 8.204 4.606-8.204h4.466Zm5.565 20.524c-1.418 0-2.655-.303-3.71-.91-1.045-.607-1.857-1.465-2.436-2.576-.569-1.111-.854-2.427-.854-3.948s.285-2.851.854-3.99c.579-1.139 1.391-2.025 2.436-2.66 1.055-.635 2.296-.952 3.724-.952 1.428 0 2.665.313 3.71.938 1.046.616 1.853 1.493 2.422 2.632.57 1.139.854 2.483.854 4.032 0 1.456-.28 2.744-.84 3.864a6.233 6.233 0 0 1-2.394 2.618c-1.036.635-2.291.952-3.766.952Zm.014-3.038c.719 0 1.298-.21 1.736-.63.439-.42.756-.971.952-1.652a7.858 7.858 0 0 0 .308-2.254c0-.765-.093-1.489-.28-2.17-.177-.681-.485-1.232-.924-1.652-.438-.42-1.036-.63-1.792-.63-.718 0-1.302.201-1.75.602-.438.392-.76.929-.966 1.61-.205.672-.308 1.419-.308 2.24 0 .756.094 1.484.28 2.184.187.691.5 1.255.938 1.694.439.439 1.041.658 1.806.658Zm14.882 3.038a6.603 6.603 0 0 1-1.988-.308 5.865 5.865 0 0 1-1.764-.91 4.68 4.68 0 0 1-1.288-1.484c-.318-.588-.476-1.269-.476-2.044v-10.01h4.088v9.492c0 .672.219 1.223.658 1.652.438.429 1.082.644 1.932.644.802 0 1.437-.205 1.904-.616.476-.42.714-1.003.714-1.75v-9.422h4.046V242h-3.08l-.476-2.87c-.168.849-.486 1.503-.952 1.96a3.646 3.646 0 0 1-1.582.924 6.005 6.005 0 0 1-1.736.266Zm21.288 0c-.924 0-1.755-.173-2.492-.518a4.148 4.148 0 0 1-1.75-1.498c-.43-.663-.644-1.465-.644-2.408 0-1.587.592-2.791 1.778-3.612 1.185-.831 3.056-1.26 5.614-1.288l1.806-.028v-.868c0-.663-.196-1.171-.588-1.526-.383-.364-.98-.541-1.792-.532a3.898 3.898 0 0 0-1.708.42c-.532.271-.896.742-1.092 1.414h-3.402c.056-1.045.359-1.904.91-2.576.55-.681 1.297-1.185 2.24-1.512.952-.336 2.03-.504 3.234-.504 1.484 0 2.674.187 3.57.56.896.364 1.544.891 1.946 1.582.401.681.602 1.493.602 2.436V242h-3.416l-.336-2.492c-.495 1.045-1.116 1.769-1.862 2.17-.738.401-1.61.602-2.618.602Zm1.372-2.688c.373 0 .732-.065 1.078-.196.354-.14.667-.322.938-.546.28-.233.504-.495.672-.784.168-.289.252-.588.252-.896v-2.142l-1.47.028a7.66 7.66 0 0 0-1.904.252c-.588.149-1.064.397-1.428.742-.355.345-.532.812-.532 1.4 0 .672.233 1.199.7 1.582.466.373 1.031.56 1.694.56ZM157.271 242v-14.476h3.934v3.43c.234-.737.56-1.381.98-1.932.43-.56.948-.994 1.554-1.302.607-.317 1.293-.476 2.058-.476.131 0 .252.009.364.028a.75.75 0 0 1 .266.056v3.892a.933.933 0 0 0-.308-.07c-.112-.009-.214-.019-.308-.028-.802-.065-1.488-.042-2.058.07-.569.112-1.031.303-1.386.574a2.351 2.351 0 0 0-.77.994 3.493 3.493 0 0 0-.238 1.316V242h-4.088Zm14.681-6.3c-.01.737.107 1.381.35 1.932.242.541.592.961 1.05 1.26.466.289 1.026.434 1.68.434.7 0 1.311-.149 1.834-.448.532-.299.9-.789 1.106-1.47h3.682c-.159 1.027-.57 1.904-1.232 2.632a6.439 6.439 0 0 1-2.38 1.666 7.6 7.6 0 0 1-2.912.574c-1.428 0-2.688-.299-3.78-.896a6.433 6.433 0 0 1-2.534-2.562c-.607-1.101-.91-2.399-.91-3.892 0-1.447.275-2.749.826-3.906.55-1.167 1.348-2.086 2.394-2.758 1.054-.681 2.319-1.022 3.794-1.022 1.474 0 2.711.313 3.71.938 1.008.616 1.764 1.479 2.268 2.59.513 1.101.77 2.375.77 3.822v1.106h-9.716Zm-.014-2.436h5.908a3.91 3.91 0 0 0-.322-1.596 2.566 2.566 0 0 0-.98-1.148c-.43-.28-.971-.42-1.624-.42-.635 0-1.176.154-1.624.462a2.934 2.934 0 0 0-1.008 1.176 3.47 3.47 0 0 0-.35 1.526ZM190.357 242v-14.476h4.018v2.044c.224-.355.514-.695.868-1.022.364-.336.822-.611 1.372-.826.551-.215 1.204-.322 1.96-.322.887 0 1.713.173 2.478.518.775.345 1.4.891 1.876 1.638.476.737.714 1.703.714 2.898V242h-4.088v-9.044c0-.784-.233-1.372-.7-1.764-.466-.392-1.036-.588-1.708-.588-.448 0-.882.079-1.302.238a2.41 2.41 0 0 0-1.008.714c-.261.317-.392.709-.392 1.176V242h-4.088Zm22.814.28c-1.419 0-2.655-.303-3.71-.91-1.045-.607-1.857-1.465-2.436-2.576-.569-1.111-.854-2.427-.854-3.948s.285-2.851.854-3.99c.579-1.139 1.391-2.025 2.436-2.66 1.055-.635 2.296-.952 3.724-.952 1.428 0 2.665.313 3.71.938 1.045.616 1.853 1.493 2.422 2.632.569 1.139.854 2.483.854 4.032 0 1.456-.28 2.744-.84 3.864a6.246 6.246 0 0 1-2.394 2.618c-1.036.635-2.291.952-3.766.952Zm.014-3.038c.719 0 1.297-.21 1.736-.63.439-.42.756-.971.952-1.652a7.894 7.894 0 0 0 .308-2.254c0-.765-.093-1.489-.28-2.17-.177-.681-.485-1.232-.924-1.652-.439-.42-1.036-.63-1.792-.63-.719 0-1.302.201-1.75.602-.439.392-.761.929-.966 1.61-.205.672-.308 1.419-.308 2.24 0 .756.093 1.484.28 2.184.187.691.499 1.255.938 1.694.439.439 1.041.658 1.806.658Zm29.074-11.718L237.499 242h-3.248l-2.702-8.764-2.688 8.764h-3.164l-4.69-14.476h3.612l2.772 8.974h.112l2.66-8.974h2.912l2.688 8.974h.112l2.688-8.974h3.696Zm13.653 14.756a8.741 8.741 0 0 1-2.912-.49 5.788 5.788 0 0 1-2.366-1.568c-.644-.719-1.055-1.647-1.232-2.786h3.542c.121.513.34.919.658 1.218a2.94 2.94 0 0 0 1.106.644c.41.121.802.182 1.176.182.784 0 1.414-.121 1.89-.364.485-.252.728-.635.728-1.148 0-.392-.145-.705-.434-.938-.28-.233-.747-.411-1.4-.532l-2.548-.532c-1.279-.271-2.306-.728-3.08-1.372-.775-.653-1.172-1.577-1.19-2.772 0-.868.228-1.647.686-2.338.466-.691 1.152-1.237 2.058-1.638.905-.401 2.016-.602 3.332-.602 1.782 0 3.206.392 4.27 1.176 1.073.784 1.619 1.89 1.638 3.318h-3.416c-.103-.56-.383-.989-.84-1.288-.448-.308-1.013-.462-1.694-.462-.71 0-1.293.126-1.75.378-.458.252-.686.635-.686 1.148 0 .383.186.686.56.91.373.215.952.401 1.736.56l2.352.532c.812.196 1.47.467 1.974.812.513.336.91.705 1.19 1.106.28.401.471.807.574 1.218.112.401.168.765.168 1.092 0 .961-.257 1.783-.77 2.464-.514.672-1.228 1.185-2.142 1.54-.915.355-1.974.532-3.178.532Zm13.073-14.756V242h-3.906v-14.476h3.906Zm.042-5.754v3.682h-3.976v-3.682h3.976Zm10.259 25.018c-2.576 0-4.536-.327-5.88-.98-1.335-.653-2.002-1.512-2.002-2.576 0-.495.131-.91.392-1.246.261-.336.565-.602.91-.798.355-.205.677-.359.966-.462.299-.112.481-.187.546-.224l-.644-.364a3.274 3.274 0 0 1-.784-.672c-.233-.289-.35-.663-.35-1.12 0-.513.243-.989.728-1.428.495-.439 1.241-.742 2.24-.91-.952-.448-1.675-1.055-2.17-1.82-.495-.765-.742-1.549-.742-2.352 0-.952.299-1.769.896-2.45.597-.681 1.409-1.199 2.436-1.554 1.036-.355 2.207-.532 3.514-.532.999 0 1.815.107 2.45.322a7.97 7.97 0 0 1 1.764.812c.215-.084.499-.191.854-.322.355-.14.737-.289 1.148-.448l1.204-.49 1.05-.448-.014 3.164-2.506.406c.103.252.182.523.238.812.056.289.084.527.084.714 0 .84-.247 1.624-.742 2.352-.485.728-1.218 1.316-2.198 1.764-.971.448-2.175.672-3.612.672-.177 0-.415-.005-.714-.014a10.559 10.559 0 0 1-.714-.042c-.551.028-.929.098-1.134.21-.205.112-.308.243-.308.392 0 .224.21.373.63.448.42.065 1.055.126 1.904.182.299.019.714.042 1.246.07.532.028 1.12.065 1.764.112 1.773.121 3.094.56 3.962 1.316.877.747 1.316 1.689 1.316 2.828 0 1.353-.644 2.469-1.932 3.346-1.279.887-3.211 1.33-5.796 1.33Zm.658-2.282c1.139 0 1.951-.14 2.436-.42.485-.28.728-.681.728-1.204 0-.439-.187-.793-.56-1.064-.373-.28-.919-.443-1.638-.49l-3.318-.224a2.524 2.524 0 0 0-1.148.196 1.884 1.884 0 0 0-.77.616 1.47 1.47 0 0 0-.266.84c0 .607.369 1.05 1.106 1.33.737.28 1.881.42 3.43.42Zm-.77-10.178c.775 0 1.395-.21 1.862-.63.476-.429.714-1.008.714-1.736 0-.756-.238-1.363-.714-1.82-.467-.457-1.087-.686-1.862-.686-.765 0-1.391.229-1.876.686-.476.457-.714 1.064-.714 1.82 0 .719.229 1.293.686 1.722.467.429 1.101.644 1.904.644ZM290.162 242v-14.476h4.018v2.044c.224-.355.513-.695.868-1.022.364-.336.821-.611 1.372-.826.551-.215 1.204-.322 1.96-.322.887 0 1.713.173 2.478.518.775.345 1.4.891 1.876 1.638.476.737.714 1.703.714 2.898V242h-4.088v-9.044c0-.784-.233-1.372-.7-1.764-.467-.392-1.036-.588-1.708-.588-.448 0-.882.079-1.302.238a2.398 2.398 0 0 0-1.008.714c-.261.317-.392.709-.392 1.176V242h-4.088Zm20.714-14.476V242h-3.906v-14.476h3.906Zm.042-5.754v3.682h-3.976v-3.682h3.976Zm3.744 20.23v-14.476h4.018v2.044c.224-.355.513-.695.868-1.022.364-.336.821-.611 1.372-.826.551-.215 1.204-.322 1.96-.322.887 0 1.713.173 2.478.518.775.345 1.4.891 1.876 1.638.476.737.714 1.703.714 2.898V242h-4.088v-9.044c0-.784-.233-1.372-.7-1.764-.467-.392-1.036-.588-1.708-.588-.448 0-.882.079-1.302.238a2.398 2.398 0 0 0-1.008.714c-.261.317-.392.709-.392 1.176V242h-4.088Zm23.304 4.788c-2.576 0-4.536-.327-5.88-.98-1.335-.653-2.002-1.512-2.002-2.576 0-.495.13-.91.392-1.246.261-.336.564-.602.91-.798.354-.205.676-.359.966-.462a5.63 5.63 0 0 0 .546-.224l-.644-.364a3.255 3.255 0 0 1-.784-.672c-.234-.289-.35-.663-.35-1.12 0-.513.242-.989.728-1.428.494-.439 1.241-.742 2.24-.91-.952-.448-1.676-1.055-2.17-1.82-.495-.765-.742-1.549-.742-2.352 0-.952.298-1.769.896-2.45.597-.681 1.409-1.199 2.436-1.554 1.036-.355 2.207-.532 3.514-.532.998 0 1.815.107 2.45.322a8.011 8.011 0 0 1 1.764.812c.214-.084.499-.191.854-.322.354-.14.737-.289 1.148-.448.41-.168.812-.331 1.204-.49l1.05-.448-.014 3.164-2.506.406c.102.252.182.523.238.812.056.289.084.527.084.714 0 .84-.248 1.624-.742 2.352-.486.728-1.218 1.316-2.198 1.764-.971.448-2.175.672-3.612.672-.178 0-.416-.005-.714-.014-.29-.009-.528-.023-.714-.042-.551.028-.929.098-1.134.21-.206.112-.308.243-.308.392 0 .224.21.373.63.448.42.065 1.054.126 1.904.182.298.019.714.042 1.246.07.532.028 1.12.065 1.764.112 1.773.121 3.094.56 3.962 1.316.877.747 1.316 1.689 1.316 2.828 0 1.353-.644 2.469-1.932 3.346-1.279.887-3.211 1.33-5.796 1.33Zm.658-2.282c1.138 0 1.95-.14 2.436-.42.485-.28.728-.681.728-1.204 0-.439-.187-.793-.56-1.064-.374-.28-.92-.443-1.638-.49l-3.318-.224a2.522 2.522 0 0 0-1.148.196 1.878 1.878 0 0 0-.77.616 1.462 1.462 0 0 0-.266.84c0 .607.368 1.05 1.106 1.33.737.28 1.88.42 3.43.42Zm-.77-10.178c.774 0 1.395-.21 1.862-.63.476-.429.714-1.008.714-1.736 0-.756-.238-1.363-.714-1.82-.467-.457-1.088-.686-1.862-.686-.766 0-1.391.229-1.876.686-.476.457-.714 1.064-.714 1.82 0 .719.228 1.293.686 1.722.466.429 1.101.644 1.904.644Zm21.037-6.804V242h-3.906v-14.476h3.906Zm.042-5.754v3.682h-3.976v-3.682h3.976Zm3.745 20.23v-14.476h4.018v2.044c.224-.355.513-.695.868-1.022.364-.336.821-.611 1.372-.826.55-.215 1.204-.322 1.96-.322.886 0 1.712.173 2.478.518.774.345 1.4.891 1.876 1.638.476.737.714 1.703.714 2.898V242h-4.088v-9.044c0-.784-.234-1.372-.7-1.764-.467-.392-1.036-.588-1.708-.588-.448 0-.882.079-1.302.238a2.398 2.398 0 0 0-1.008.714c-.262.317-.392.709-.392 1.176V242h-4.088Zm31.365-14.476v2.842h-3.052V242h-4.088v-11.634h-2.674v-2.842h2.674v-2.086c0-1.167.341-2.072 1.022-2.716.691-.644 1.666-.966 2.926-.966h3.318l.014 2.716h-1.904c-.523 0-.882.131-1.078.392-.187.252-.28.672-.28 1.26v1.4h3.122Zm8.538 14.756c-1.418 0-2.655-.303-3.71-.91-1.045-.607-1.857-1.465-2.436-2.576-.569-1.111-.854-2.427-.854-3.948s.285-2.851.854-3.99c.579-1.139 1.391-2.025 2.436-2.66 1.055-.635 2.296-.952 3.724-.952 1.428 0 2.665.313 3.71.938 1.046.616 1.853 1.493 2.422 2.632.57 1.139.854 2.483.854 4.032 0 1.456-.28 2.744-.84 3.864a6.233 6.233 0 0 1-2.394 2.618c-1.036.635-2.291.952-3.766.952Zm.014-3.038c.719 0 1.298-.21 1.736-.63.439-.42.756-.971.952-1.652a7.858 7.858 0 0 0 .308-2.254c0-.765-.093-1.489-.28-2.17-.177-.681-.485-1.232-.924-1.652-.438-.42-1.036-.63-1.792-.63-.718 0-1.302.201-1.75.602-.438.392-.76.929-.966 1.61-.205.672-.308 1.419-.308 2.24 0 .756.094 1.484.28 2.184.187.691.5 1.255.938 1.694.439.439 1.041.658 1.806.658Zm9.712 2.758v-14.476h3.934v3.43c.233-.737.56-1.381.98-1.932.429-.56.947-.994 1.554-1.302.606-.317 1.292-.476 2.058-.476.13 0 .252.009.364.028.121.009.21.028.266.056v3.892a.939.939 0 0 0-.308-.07c-.112-.009-.215-.019-.308-.028-.803-.065-1.489-.042-2.058.07-.57.112-1.032.303-1.386.574a2.335 2.335 0 0 0-.77.994 3.474 3.474 0 0 0-.238 1.316V242h-4.088Zm26.046-11.634h-3.22l.028 7.714c0 .355.042.621.126.798.094.168.234.28.42.336.196.047.444.07.742.07h1.946v2.52c-.186.084-.48.163-.882.238-.392.075-.942.112-1.652.112-1.269 0-2.254-.163-2.954-.49-.69-.327-1.171-.784-1.442-1.372-.27-.588-.406-1.269-.406-2.044v-7.882h-2.352v-2.842h2.492l1.022-4.368h2.912v4.354h3.22v2.856Zm3.02 11.634v-20.804h4.06v8.414c.233-.336.527-.667.882-.994a4.387 4.387 0 0 1 1.33-.84c.532-.224 1.181-.336 1.946-.336.924 0 1.764.182 2.52.546a4.385 4.385 0 0 1 1.834 1.554c.467.681.7 1.512.7 2.492V242h-4.102v-9.366c0-.653-.238-1.153-.714-1.498-.467-.355-1.036-.532-1.708-.532-.439 0-.863.079-1.274.238a2.342 2.342 0 0 0-1.008.728c-.252.317-.378.714-.378 1.19V242h-4.088Zm19.958-6.3c-.01.737.107 1.381.35 1.932.242.541.592.961 1.05 1.26.466.289 1.026.434 1.68.434.7 0 1.311-.149 1.834-.448.532-.299.9-.789 1.106-1.47h3.682c-.159 1.027-.57 1.904-1.232 2.632a6.439 6.439 0 0 1-2.38 1.666 7.6 7.6 0 0 1-2.912.574c-1.428 0-2.688-.299-3.78-.896a6.433 6.433 0 0 1-2.534-2.562c-.607-1.101-.91-2.399-.91-3.892 0-1.447.275-2.749.826-3.906.55-1.167 1.348-2.086 2.394-2.758 1.054-.681 2.319-1.022 3.794-1.022 1.474 0 2.711.313 3.71.938 1.008.616 1.764 1.479 2.268 2.59.513 1.101.77 2.375.77 3.822v1.106h-9.716Zm-.014-2.436h5.908a3.91 3.91 0 0 0-.322-1.596 2.566 2.566 0 0 0-.98-1.148c-.43-.28-.971-.42-1.624-.42-.635 0-1.176.154-1.624.462a2.934 2.934 0 0 0-1.008 1.176 3.47 3.47 0 0 0-.35 1.526Zm27.171-5.74v2.842h-3.052V242h-4.088v-11.634h-2.674v-2.842h2.674v-2.086c0-1.167.341-2.072 1.022-2.716.691-.644 1.666-.966 2.926-.966h3.318l.014 2.716h-1.904c-.522 0-.882.131-1.078.392-.186.252-.28.672-.28 1.26v1.4h3.122Zm6.51 0V242h-3.906v-14.476h3.906Zm.042-5.754v3.682h-3.976v-3.682h3.976Zm3.755 20.23v-14.476h3.934v3.43c.233-.737.56-1.381.98-1.932.429-.56.947-.994 1.554-1.302.607-.317 1.293-.476 2.058-.476.131 0 .252.009.364.028.121.009.21.028.266.056v3.892a.939.939 0 0 0-.308-.07c-.112-.009-.215-.019-.308-.028-.803-.065-1.489-.042-2.058.07-.569.112-1.031.303-1.386.574a2.343 2.343 0 0 0-.77.994 3.474 3.474 0 0 0-.238 1.316V242h-4.088Zm17.074.28a8.741 8.741 0 0 1-2.912-.49 5.788 5.788 0 0 1-2.366-1.568c-.644-.719-1.055-1.647-1.232-2.786h3.542c.121.513.34.919.658 1.218a2.94 2.94 0 0 0 1.106.644c.41.121.802.182 1.176.182.784 0 1.414-.121 1.89-.364.485-.252.728-.635.728-1.148 0-.392-.145-.705-.434-.938-.28-.233-.747-.411-1.4-.532l-2.548-.532c-1.279-.271-2.306-.728-3.08-1.372-.775-.653-1.172-1.577-1.19-2.772 0-.868.228-1.647.686-2.338.466-.691 1.152-1.237 2.058-1.638.905-.401 2.016-.602 3.332-.602 1.782 0 3.206.392 4.27 1.176 1.073.784 1.619 1.89 1.638 3.318h-3.416c-.103-.56-.383-.989-.84-1.288-.448-.308-1.013-.462-1.694-.462-.71 0-1.293.126-1.75.378-.458.252-.686.635-.686 1.148 0 .383.186.686.56.91.373.215.952.401 1.736.56l2.352.532c.812.196 1.47.467 1.974.812.513.336.91.705 1.19 1.106.28.401.471.807.574 1.218.112.401.168.765.168 1.092 0 .961-.257 1.783-.77 2.464-.514.672-1.228 1.185-2.142 1.54-.915.355-1.974.532-3.178.532Zm17.613-11.914h-3.22l.028 7.714c0 .355.042.621.126.798.093.168.233.28.42.336.196.047.443.07.742.07h1.946v2.52c-.187.084-.481.163-.882.238-.392.075-.943.112-1.652.112-1.269 0-2.254-.163-2.954-.49-.691-.327-1.171-.784-1.442-1.372-.271-.588-.406-1.269-.406-2.044v-7.882h-2.352v-2.842h2.492l1.022-4.368h2.912v4.354h3.22v2.856Zm-243.277 37h-3.22l.028 7.714c0 .355.042.621.126.798.093.168.233.28.42.336.196.047.443.07.742.07h1.946v2.52c-.187.084-.481.163-.882.238-.392.075-.943.112-1.652.112-1.27 0-2.254-.163-2.954-.49-.691-.327-1.172-.784-1.442-1.372-.271-.588-.406-1.269-.406-2.044v-7.882h-2.352v-2.842h2.492l1.022-4.368h2.912v4.354h3.22v2.856Zm7.136-2.842V279h-3.906v-14.476h3.906Zm.042-5.754v3.682h-3.976v-3.682h3.976Zm3.744 20.23v-14.476h4.004v2.044c.439-.635 1.027-1.181 1.764-1.638.747-.457 1.685-.686 2.814-.686.495 0 .999.089 1.512.266a5.06 5.06 0 0 1 1.442.784c.457.336.826.761 1.106 1.274a5.709 5.709 0 0 1 1.834-1.652 4.95 4.95 0 0 1 2.548-.672c.541 0 1.087.089 1.638.266a4.37 4.37 0 0 1 1.54.868c.467.401.84.938 1.12 1.61.289.663.434 1.484.434 2.464V279h-4.088v-9.044c0-.579-.117-1.041-.35-1.386a1.874 1.874 0 0 0-.868-.756 2.611 2.611 0 0 0-1.106-.238c-.364 0-.733.075-1.106.224-.373.14-.691.369-.952.686-.261.317-.392.733-.392 1.246V279h-4.074v-9.408c0-.439-.117-.807-.35-1.106a2.157 2.157 0 0 0-.882-.672 2.517 2.517 0 0 0-1.064-.238c-.373 0-.747.079-1.12.238a2.195 2.195 0 0 0-.938.714c-.252.317-.378.719-.378 1.204V279h-4.088Zm28.434-6.3c-.009.737.108 1.381.35 1.932.243.541.593.961 1.05 1.26.467.289 1.027.434 1.68.434.7 0 1.312-.149 1.834-.448.532-.299.901-.789 1.106-1.47h3.682c-.158 1.027-.569 1.904-1.232 2.632a6.422 6.422 0 0 1-2.38 1.666 7.597 7.597 0 0 1-2.912.574c-1.428 0-2.688-.299-3.78-.896a6.446 6.446 0 0 1-2.534-2.562c-.606-1.101-.91-2.399-.91-3.892 0-1.447.276-2.749.826-3.906.551-1.167 1.349-2.086 2.394-2.758 1.055-.681 2.32-1.022 3.794-1.022 1.475 0 2.712.313 3.71.938 1.008.616 1.764 1.479 2.268 2.59.514 1.101.77 2.375.77 3.822v1.106h-9.716Zm-.014-2.436h5.908c0-.579-.107-1.111-.322-1.596a2.553 2.553 0 0 0-.98-1.148c-.429-.28-.97-.42-1.624-.42-.634 0-1.176.154-1.624.462a2.95 2.95 0 0 0-1.008 1.176c-.233.485-.35.994-.35 1.526ZM89.528 309.432l-3.92 6.648V321h-1.472v-4.928l-3.944-6.64h1.616l3.072 5.32 3.024-5.32h1.624Zm3.727 11.728c-2.296 0-3.792-1.504-3.792-4.264 0-2.592 1.352-4.328 3.8-4.328 2.28 0 3.76 1.544 3.76 4.328 0 2.528-1.304 4.264-3.768 4.264Zm.008-1.168c1.48 0 2.296-1.184 2.296-3.128 0-1.768-.672-3.136-2.296-3.136-1.504 0-2.328 1.168-2.328 3.136 0 1.744.672 3.128 2.328 3.128Zm8.735 1.168c-1.72-.016-3.176-.952-3.176-2.816v-5.616h1.48v5.464c0 1.08.656 1.816 2.008 1.816 1.216 0 2.024-.64 2.024-1.896v-5.384h1.472V321h-1.176l-.152-1.584c-.304 1.24-1.312 1.752-2.48 1.744Zm10.132-.16v-8.272h1.424v1.2c.456-.728 1.216-1.36 2.504-1.36.904 0 1.952.472 2.384 1.352.512-.808 1.424-1.352 2.52-1.352 1.168 0 2.696.576 2.696 3.024V321h-1.488v-5.264c0-1.496-.824-1.912-1.696-1.912-.776 0-1.856.392-1.856 1.648V321h-1.472v-5.696c0-.984-.912-1.48-1.68-1.48-.848 0-1.864.488-1.864 1.648V321h-1.472Zm16.133.16c-1.608 0-2.728-.888-2.728-2.4 0-1.832 1.208-2.704 4.04-2.768l1.472-.04v-.648c0-1.008-.592-1.648-1.864-1.648-.952.008-1.752.424-1.952 1.408h-1.304c.088-1.608 1.32-2.496 3.328-2.496 2.152 0 3.224.928 3.224 2.656V321h-1.264l-.112-1.552c-.64 1.288-1.656 1.712-2.84 1.712Zm.44-1.064c1.112 0 2.344-.896 2.344-1.816v-1.416l-1.224.024c-1.904.032-2.856.504-2.856 1.728 0 .936.72 1.48 1.736 1.48Zm6.642 3.544c-.968 0-1.272-.208-1.272-.208v-.96l.848.016c1.232.048 1.528-.496 1.696-.904l.288-.784-3.232-8.072h1.496l2.44 6.384 2.424-6.384h1.448l-3.48 8.896c-.648 1.576-1.512 2.016-2.656 2.016Zm14.691-11.072c1.776 0 3.096 1.088 3.32 2.776h-1.312c-.144-.872-.864-1.584-2-1.584-1.416 0-2.4 1.008-2.4 3.12 0 1.912.832 3.152 2.416 3.152 1.136 0 1.856-.752 2-1.584h1.288c-.216 1.664-1.56 2.712-3.312 2.712-2.24 0-3.808-1.488-3.808-4.264 0-2.576 1.368-4.328 3.808-4.328Zm5.266 8.432v-11.888h1.44v4.832c.416-.68 1.256-1.32 2.584-1.32 1.616 0 2.888.952 2.888 2.464V321h-1.48v-5.616c0-.984-.744-1.552-1.832-1.552-1.12 0-2.128.536-2.128 1.648V321h-1.472Zm11.508.16c-1.608 0-2.728-.888-2.728-2.4 0-1.832 1.208-2.704 4.04-2.768l1.472-.04v-.648c0-1.008-.592-1.648-1.864-1.648-.952.008-1.752.424-1.952 1.408h-1.304c.088-1.608 1.32-2.496 3.328-2.496 2.152 0 3.224.928 3.224 2.656V321h-1.264l-.112-1.552c-.64 1.288-1.656 1.712-2.84 1.712Zm.44-1.064c1.112 0 2.344-.896 2.344-1.816v-1.416l-1.224.024c-1.904.032-2.856.504-2.856 1.728 0 .936.72 1.48 1.736 1.48Zm6.083.904v-8.272h1.432v1.2c.408-.688 1.264-1.32 2.592-1.32 1.568 0 2.896.904 2.896 2.984V321h-1.48v-5.264c0-1.288-.744-1.904-1.824-1.904-1.12 0-2.144.528-2.144 1.64V321h-1.472Zm12.731 2.736c-2.592 0-4.12-.776-4.12-2.176 0-1.192 1.36-1.648 1.568-1.8-.288-.168-.856-.4-.856-1.04 0-.52.488-.992 1.464-1.208-.976-.488-1.544-1.344-1.544-2.296 0-1.608 1.352-2.616 3.6-2.616 1.072 0 1.744.264 2.376.72.352-.144 1.664-.688 2.112-.872l-.008 1.368-1.448.272c.168.344.272.776.272 1.128 0 1.464-1.136 2.616-3.448 2.616-.128 0-.36-.008-.496-.016-1.136.032-1.48.288-1.48.552 0 .304.424.392 1.576.472.416.024 1.04.056 1.8.104 1.728.104 2.704.92 2.704 2.24 0 1.504-1.328 2.552-4.072 2.552Zm.016-6.856c1.184 0 1.984-.56 1.984-1.648 0-1.112-.8-1.72-1.984-1.72-1.216 0-2.024.608-2.024 1.72 0 1.048.736 1.648 2.024 1.648Zm.248 5.904c1.528 0 2.368-.456 2.368-1.384 0-.656-.504-1.112-1.512-1.176l-2.32-.152c-.624-.032-1.448.552-1.448 1.32 0 .88.92 1.392 2.912 1.392Zm7.015-5.576c0 1.568.776 2.808 2.384 2.808 1.056 0 1.888-.496 2.096-1.432h1.392c-.304 1.688-1.856 2.576-3.464 2.576-2.312 0-3.904-1.576-3.904-4.216 0-2.608 1.392-4.376 3.8-4.376 2.328 0 3.624 1.584 3.624 4.096v.544h-5.928Zm.008-1h4.496c0-1.424-.712-2.52-2.208-2.52-1.56 0-2.296 1.288-2.288 2.52Zm22.527-3.48L213.374 321h-1.456l-1.88-6.104-1.8 6.104h-1.44l-2.56-8.272h1.376l1.888 6.36h.128l1.864-6.36h1.12l1.936 6.344h.128l1.816-6.344h1.384Zm1.69 8.272v-11.888h1.44v4.832c.416-.68 1.256-1.32 2.584-1.32 1.616 0 2.888.952 2.888 2.464V321H223v-5.616c0-.984-.744-1.552-1.832-1.552-1.12 0-2.128.536-2.128 1.648V321h-1.472Zm10.731-11.56v1.536h-1.512v-1.536h1.512Zm-.04 3.288V321h-1.432v-8.272h1.432Zm5.809-.16c1.776 0 3.096 1.088 3.32 2.776h-1.312c-.144-.872-.864-1.584-2-1.584-1.416 0-2.4 1.008-2.4 3.12 0 1.912.832 3.152 2.416 3.152 1.136 0 1.856-.752 2-1.584h1.288c-.216 1.664-1.56 2.712-3.312 2.712-2.24 0-3.808-1.488-3.808-4.264 0-2.576 1.368-4.328 3.808-4.328Zm5.265 8.432v-11.888h1.44v4.832c.416-.68 1.256-1.32 2.584-1.32 1.616 0 2.888.952 2.888 2.464V321h-1.48v-5.616c0-.984-.744-1.552-1.832-1.552-1.12 0-2.128.536-2.128 1.648V321h-1.472Zm13.995-3.792c0 1.568.776 2.808 2.384 2.808 1.056 0 1.888-.496 2.096-1.432h1.392c-.304 1.688-1.856 2.576-3.464 2.576-2.312 0-3.904-1.576-3.904-4.216 0-2.608 1.392-4.376 3.8-4.376 2.328 0 3.624 1.584 3.624 4.096v.544h-5.928Zm.008-1h4.496c0-1.424-.712-2.52-2.208-2.52-1.56 0-2.296 1.288-2.288 2.52Zm7.966 4.792v-8.272h1.424v1.2c.456-.728 1.216-1.36 2.504-1.36.904 0 1.952.472 2.384 1.352.512-.808 1.424-1.352 2.52-1.352 1.168 0 2.696.576 2.696 3.024V321h-1.488v-5.264c0-1.496-.824-1.912-1.696-1.912-.776 0-1.856.392-1.856 1.648V321h-1.472v-5.696c0-.984-.912-1.48-1.68-1.48-.848 0-1.864.488-1.864 1.648V321h-1.472Zm16.133.16c-1.608 0-2.728-.888-2.728-2.4 0-1.832 1.208-2.704 4.04-2.768l1.472-.04v-.648c0-1.008-.592-1.648-1.864-1.648-.952.008-1.752.424-1.952 1.408h-1.304c.088-1.608 1.32-2.496 3.328-2.496 2.152 0 3.224.928 3.224 2.656V321h-1.264l-.112-1.552c-.64 1.288-1.656 1.712-2.84 1.712Zm.44-1.064c1.112 0 2.344-.896 2.344-1.816v-1.416l-1.224.024c-1.904.032-2.856.504-2.856 1.728 0 .936.72 1.48 1.736 1.48Zm7.595-10.656v1.536h-1.512v-1.536h1.512Zm-.04 3.288V321h-1.432v-8.272h1.432Zm4.679 8.376c-1.784 0-2.088-1.072-2.088-2.232v-9.76h1.456v9.616c0 .84.344 1.24.928 1.28l.448.008v.96c-.248.08-.536.128-.744.128Zm7.361 2.536c-.968 0-1.272-.208-1.272-.208v-.96l.848.016c1.232.048 1.528-.496 1.696-.904l.288-.784-3.232-8.072h1.496l2.44 6.384 2.424-6.384h1.448l-3.48 8.896c-.648 1.576-1.512 2.016-2.656 2.016Zm10.894-2.48c-2.296 0-3.792-1.504-3.792-4.264 0-2.592 1.352-4.328 3.8-4.328 2.28 0 3.76 1.544 3.76 4.328 0 2.528-1.304 4.264-3.768 4.264Zm.008-1.168c1.48 0 2.296-1.184 2.296-3.128 0-1.768-.672-3.136-2.296-3.136-1.504 0-2.328 1.168-2.328 3.136 0 1.744.672 3.128 2.328 3.128Zm8.736 1.168c-1.72-.016-3.176-.952-3.176-2.816v-5.616h1.48v5.464c0 1.08.656 1.816 2.008 1.816 1.216 0 2.024-.64 2.024-1.896v-5.384h1.472V321h-1.176l-.152-1.584c-.304 1.24-1.312 1.752-2.48 1.744Zm13.108 0c-1.728 0-3.2-.784-3.44-2.568h1.344c.208.968 1.04 1.464 2.088 1.464 1.12 0 1.864-.408 1.864-1.272 0-.608-.352-.96-1.104-1.136l-1.712-.424c-1.336-.32-2.192-.952-2.2-2.184-.008-1.448 1.056-2.472 3.152-2.472 1.792 0 2.984.824 3.04 2.376h-1.312c-.112-.792-.72-1.288-1.744-1.288-1.056 0-1.784.416-1.784 1.296 0 .592.48.888 1.392 1.112l1.664.416c1.52.4 1.936 1.408 1.936 2.224 0 1.52-1.168 2.456-3.184 2.456Zm5.133-.16v-11.888h1.44v4.832c.416-.68 1.256-1.32 2.584-1.32 1.616 0 2.888.952 2.888 2.464V321h-1.48v-5.616c0-.984-.744-1.552-1.832-1.552-1.12 0-2.128.536-2.128 1.648V321h-1.472Zm11.508.16c-1.608 0-2.728-.888-2.728-2.4 0-1.832 1.208-2.704 4.04-2.768l1.472-.04v-.648c0-1.008-.592-1.648-1.864-1.648-.952.008-1.752.424-1.952 1.408h-1.304c.088-1.608 1.32-2.496 3.328-2.496 2.152 0 3.224.928 3.224 2.656V321h-1.264l-.112-1.552c-.64 1.288-1.656 1.712-2.84 1.712Zm.44-1.064c1.112 0 2.344-.896 2.344-1.816v-1.416l-1.224.024c-1.904.032-2.856.504-2.856 1.728 0 .936.72 1.48 1.736 1.48Zm6.083.904v-8.272h1.408v1.592c.416-1.192 1.4-1.752 2.448-1.752.24 0 .496.032.632.104v1.432c-.16-.072-.456-.096-.624-.096-1.32-.088-2.392.472-2.392 1.848V321h-1.472Zm7.213-3.792c0 1.568.776 2.808 2.384 2.808 1.056 0 1.888-.496 2.096-1.432h1.392c-.304 1.688-1.856 2.576-3.464 2.576-2.312 0-3.904-1.576-3.904-4.216 0-2.608 1.392-4.376 3.8-4.376 2.328 0 3.624 1.584 3.624 4.096v.544h-5.928Zm.008-1h4.496c0-1.424-.712-2.52-2.208-2.52-1.56 0-2.296 1.288-2.288 2.52Zm22.527-3.48L380.624 321h-1.456l-1.88-6.104-1.8 6.104h-1.44l-2.56-8.272h1.376l1.888 6.36h.128l1.864-6.36h1.12l1.936 6.344h.128l1.816-6.344h1.384Zm3.202-3.288v1.536h-1.512v-1.536h1.512Zm-.04 3.288V321h-1.432v-8.272h1.432Zm6.689 1.08h-1.864v5.144c0 .88.232.96 1.008.96h.904v.992c-.208.08-.624.136-1.224.136-1.72 0-2.176-.712-2.176-2.04v-5.192h-1.344v-1.08h1.384l.36-2.408h1.088v2.4h1.864v1.088ZM394.99 321v-11.888h1.44v4.832c.416-.68 1.256-1.32 2.584-1.32 1.616 0 2.888.952 2.888 2.464V321h-1.48v-5.616c0-.984-.744-1.552-1.832-1.552-1.12 0-2.128.536-2.128 1.648V321h-1.472Zm22.837-11.568-4 11.568h-2.648l-4-11.568h2.232l3.096 8.856 3.08-8.856h2.24ZM416.799 321l4.136-11.568h2.472L427.543 321h-2.328l-.944-2.68h-4.168l-.96 2.68h-2.344Zm3.832-4.72h3.072l-1.528-4.6-1.544 4.6Zm16.556 4.88c-1.936 0-2.592-1.208-2.8-1.856l-.16 1.696h-1.128v-11.888h1.488v4.928c.272-.536 1.136-1.472 2.712-1.472 2.064 0 3.384 1.456 3.384 4.264 0 2.608-1.168 4.328-3.496 4.328Zm-.264-1.136c1.336 0 2.272-.992 2.272-3.264 0-1.928-.8-3.04-2.304-3.04-1.64 0-2.28 1.104-2.304 3.04 0 2.312.664 3.264 2.336 3.264Zm6.811-2.816c0 1.568.776 2.808 2.384 2.808 1.056 0 1.888-.496 2.096-1.432h1.392c-.304 1.688-1.856 2.576-3.464 2.576-2.312 0-3.904-1.576-3.904-4.216 0-2.608 1.392-4.376 3.8-4.376 2.328 0 3.624 1.584 3.624 4.096v.544h-5.928Zm.008-1h4.496c0-1.424-.712-2.52-2.208-2.52-1.56 0-2.296 1.288-2.288 2.52Zm10.054 4.896c-1.784 0-2.088-1.072-2.088-2.232v-9.76h1.456v9.616c0 .84.344 1.24.928 1.28l.448.008v.96c-.248.08-.536.128-.744.128Zm5.662.056c-2.296 0-3.792-1.504-3.792-4.264 0-2.592 1.352-4.328 3.8-4.328 2.28 0 3.76 1.544 3.76 4.328 0 2.528-1.304 4.264-3.768 4.264Zm.008-1.168c1.48 0 2.296-1.184 2.296-3.128 0-1.768-.672-3.136-2.296-3.136-1.504 0-2.328 1.168-2.328 3.136 0 1.744.672 3.128 2.328 3.128Zm16.505-7.264L473.467 321h-1.456l-1.88-6.104-1.8 6.104h-1.44l-2.56-8.272h1.376l1.888 6.36h.128l1.864-6.36h1.12l1.936 6.344h.128l1.816-6.344h1.384Zm8.628 8.432c-2.296 0-3.792-1.504-3.792-4.264 0-2.592 1.352-4.328 3.8-4.328 2.28 0 3.76 1.544 3.76 4.328 0 2.528-1.304 4.264-3.768 4.264Zm.008-1.168c1.48 0 2.296-1.184 2.296-3.128 0-1.768-.672-3.136-2.296-3.136-1.504 0-2.328 1.168-2.328 3.136 0 1.744.672 3.128 2.328 3.128Zm5.726 1.008v-8.272h1.408v1.592c.416-1.192 1.4-1.752 2.448-1.752.24 0 .496.032.632.104v1.432c-.16-.072-.456-.096-.624-.096-1.32-.088-2.392.472-2.392 1.848V321h-1.472Zm14.733-8.272v1.08h-2.008V321h-1.48v-7.192h-1.752v-1.08h1.752v-1.28c0-1.312.664-2.016 2-2.016h1.56l.008 1.048h-1.232c-.68 0-.88.36-.88 1.096v1.152h2.032Zm1.736 8.272v-8.272h1.408v1.592c.416-1.192 1.4-1.752 2.448-1.752.24 0 .496.032.632.104v1.432c-.16-.072-.456-.096-.624-.096-1.32-.088-2.392.472-2.392 1.848V321h-1.472Zm9.437.16c-2.296 0-3.792-1.504-3.792-4.264 0-2.592 1.352-4.328 3.8-4.328 2.28 0 3.76 1.544 3.76 4.328 0 2.528-1.304 4.264-3.768 4.264Zm.008-1.168c1.48 0 2.296-1.184 2.296-3.128 0-1.768-.672-3.136-2.296-3.136-1.504 0-2.328 1.168-2.328 3.136 0 1.744.672 3.128 2.328 3.128Zm5.727 1.008v-8.272h1.424v1.2c.456-.728 1.216-1.36 2.504-1.36.904 0 1.952.472 2.384 1.352.512-.808 1.424-1.352 2.52-1.352 1.168 0 2.696.576 2.696 3.024V321h-1.488v-5.264c0-1.496-.824-1.912-1.696-1.912-.776 0-1.856.392-1.856 1.648V321h-1.472v-5.696c0-.984-.912-1.48-1.68-1.48-.848 0-1.864.488-1.864 1.648V321h-1.472Zm-254.578 24v-1.888h1.76V345h-1.76ZM94.888 381.432 91.512 393h-1.368l-2.536-8.968L85.032 393h-1.328l-3.336-11.568h1.496l2.56 9.208 2.608-9.208h1.16l2.6 9.208 2.608-9.208h1.488Zm1.94 7.776c0 1.568.776 2.808 2.384 2.808 1.056 0 1.888-.496 2.096-1.432h1.392c-.304 1.688-1.856 2.576-3.464 2.576-2.312 0-3.904-1.576-3.904-4.216 0-2.608 1.392-4.376 3.8-4.376 2.328 0 3.624 1.584 3.624 4.096v.544h-5.928Zm.008-1h4.496c0-1.424-.712-2.52-2.208-2.52-1.56 0-2.296 1.288-2.288 2.52Zm6.855-3 .888-1.984-.688-.04v-1.752h1.848v1.536l-1.36 2.24h-.688Zm5.871 7.896c-1.784 0-2.088-1.072-2.088-2.232v-9.76h1.456v9.616c0 .84.344 1.24.928 1.28l.448.008v.96c-.248.08-.536.128-.744.128Zm4.609 0c-1.784 0-2.088-1.072-2.088-2.232v-9.76h1.456v9.616c0 .84.344 1.24.928 1.28l.448.008v.96c-.248.08-.536.128-.744.128Zm9.623.056c-1.728 0-3.2-.784-3.44-2.568h1.344c.208.968 1.04 1.464 2.088 1.464 1.12 0 1.864-.408 1.864-1.272 0-.608-.352-.96-1.104-1.136l-1.712-.424c-1.336-.32-2.192-.952-2.2-2.184-.008-1.448 1.056-2.472 3.152-2.472 1.792 0 2.984.824 3.04 2.376h-1.312c-.112-.792-.72-1.288-1.744-1.288-1.056 0-1.784.416-1.784 1.296 0 .592.48.888 1.392 1.112l1.664.416c1.52.4 1.936 1.408 1.936 2.224 0 1.52-1.168 2.456-3.184 2.456Zm5.133-.16v-11.888h1.44v4.832c.416-.68 1.256-1.32 2.584-1.32 1.616 0 2.888.952 2.888 2.464V393h-1.48v-5.616c0-.984-.744-1.552-1.832-1.552-1.12 0-2.128.536-2.128 1.648V393h-1.472Zm11.508.16c-1.608 0-2.728-.888-2.728-2.4 0-1.832 1.208-2.704 4.04-2.768l1.472-.04v-.648c0-1.008-.592-1.648-1.864-1.648-.952.008-1.752.424-1.952 1.408h-1.304c.088-1.608 1.32-2.496 3.328-2.496 2.152 0 3.224.928 3.224 2.656V393h-1.264l-.112-1.552c-.64 1.288-1.656 1.712-2.84 1.712Zm.44-1.064c1.112 0 2.344-.896 2.344-1.816v-1.416l-1.224.024c-1.904.032-2.856.504-2.856 1.728 0 .936.72 1.48 1.736 1.48Zm6.083.904v-8.272h1.408v1.592c.416-1.192 1.4-1.752 2.448-1.752.24 0 .496.032.632.104v1.432c-.16-.072-.456-.096-.624-.096-1.32-.088-2.392.472-2.392 1.848V393h-1.472Zm7.213-3.792c0 1.568.776 2.808 2.384 2.808 1.056 0 1.888-.496 2.096-1.432h1.392c-.304 1.688-1.856 2.576-3.464 2.576-2.312 0-3.904-1.576-3.904-4.216 0-2.608 1.392-4.376 3.8-4.376 2.328 0 3.624 1.584 3.624 4.096v.544h-5.928Zm.008-1h4.496c0-1.424-.712-2.52-2.208-2.52-1.56 0-2.296 1.288-2.288 2.52Zm15.956-2.4h-1.864v5.144c0 .88.232.96 1.008.96h.904v.992c-.208.08-.624.136-1.224.136-1.72 0-2.176-.712-2.176-2.04v-5.192h-1.344v-1.08h1.384l.36-2.408h1.088v2.4h1.864v1.088Zm2.011 7.192v-11.888h1.44v4.832c.416-.68 1.256-1.32 2.584-1.32 1.616 0 2.888.952 2.888 2.464V393h-1.48v-5.616c0-.984-.744-1.552-1.832-1.552-1.12 0-2.128.536-2.128 1.648V393h-1.472Zm10.731-11.56v1.536h-1.512v-1.536h1.512Zm-.04 3.288V393h-1.432v-8.272h1.432Zm5.457 8.432c-1.728 0-3.2-.784-3.44-2.568h1.344c.208.968 1.04 1.464 2.088 1.464 1.12 0 1.864-.408 1.864-1.272 0-.608-.352-.96-1.104-1.136l-1.712-.424c-1.336-.32-2.192-.952-2.2-2.184-.008-1.448 1.056-2.472 3.152-2.472 1.792 0 2.984.824 3.04 2.376h-1.312c-.112-.792-.72-1.288-1.744-1.288-1.056 0-1.784.416-1.784 1.296 0 .592.48.888 1.392 1.112l1.664.416c1.52.4 1.936 1.408 1.936 2.224 0 1.52-1.168 2.456-3.184 2.456Zm10.473-11.72v1.536h-1.512v-1.536h1.512Zm-.04 3.288V393h-1.432v-8.272h1.432Zm2.591 8.272v-8.272h1.432v1.2c.408-.688 1.264-1.32 2.592-1.32 1.568 0 2.896.904 2.896 2.984V393h-1.48v-5.264c0-1.288-.744-1.904-1.824-1.904-1.12 0-2.144.528-2.144 1.64V393h-1.472Zm13.561-8.272v1.08h-2.008V393h-1.48v-7.192h-1.752v-1.08h1.752v-1.28c0-1.312.664-2.016 2-2.016h1.56l.008 1.048h-1.232c-.68 0-.88.36-.88 1.096v1.152h2.032Zm4.938 8.432c-2.296 0-3.792-1.504-3.792-4.264 0-2.592 1.352-4.328 3.8-4.328 2.28 0 3.76 1.544 3.76 4.328 0 2.528-1.304 4.264-3.768 4.264Zm.008-1.168c1.48 0 2.296-1.184 2.296-3.128 0-1.768-.672-3.136-2.296-3.136-1.504 0-2.328 1.168-2.328 3.136 0 1.744.672 3.128 2.328 3.128Zm5.727 1.008v-8.272h1.408v1.592c.416-1.192 1.4-1.752 2.448-1.752.24 0 .496.032.632.104v1.432c-.16-.072-.456-.096-.624-.096-1.32-.088-2.392.472-2.392 1.848V393h-1.472Zm6.25 0v-8.272h1.424v1.2c.456-.728 1.216-1.36 2.504-1.36.904 0 1.952.472 2.384 1.352.512-.808 1.424-1.352 2.52-1.352 1.168 0 2.696.576 2.696 3.024V393h-1.488v-5.264c0-1.496-.824-1.912-1.696-1.912-.776 0-1.856.392-1.856 1.648V393h-1.472v-5.696c0-.984-.912-1.48-1.68-1.48-.848 0-1.864.488-1.864 1.648V393h-1.472Zm16.133.16c-1.608 0-2.728-.888-2.728-2.4 0-1.832 1.208-2.704 4.04-2.768l1.472-.04v-.648c0-1.008-.592-1.648-1.864-1.648-.952.008-1.752.424-1.952 1.408h-1.304c.088-1.608 1.32-2.496 3.328-2.496 2.152 0 3.224.928 3.224 2.656V393h-1.264l-.112-1.552c-.64 1.288-1.656 1.712-2.84 1.712Zm.44-1.064c1.112 0 2.344-.896 2.344-1.816v-1.416l-1.224.024c-1.904.032-2.856.504-2.856 1.728 0 .936.72 1.48 1.736 1.48Zm9.948-6.288h-1.864v5.144c0 .88.232.96 1.008.96h.904v.992c-.208.08-.624.136-1.224.136-1.72 0-2.176-.712-2.176-2.04v-5.192h-1.344v-1.08h1.384l.36-2.408h1.088v2.4h1.864v1.088Zm3.522-4.368v1.536h-1.512v-1.536h1.512Zm-.04 3.288V393h-1.432v-8.272h1.432Zm5.794 8.432c-2.296 0-3.792-1.504-3.792-4.264 0-2.592 1.352-4.328 3.8-4.328 2.28 0 3.76 1.544 3.76 4.328 0 2.528-1.304 4.264-3.768 4.264Zm.008-1.168c1.48 0 2.296-1.184 2.296-3.128 0-1.768-.672-3.136-2.296-3.136-1.504 0-2.328 1.168-2.328 3.136 0 1.744.672 3.128 2.328 3.128Zm5.726 1.008v-8.272h1.432v1.2c.408-.688 1.264-1.32 2.592-1.32 1.568 0 2.896.904 2.896 2.984V393h-1.48v-5.264c0-1.288-.744-1.904-1.824-1.904-1.12 0-2.144.528-2.144 1.64V393h-1.472Zm23.904-8.272L294.733 393h-1.456l-1.88-6.104-1.8 6.104h-1.44l-2.56-8.272h1.376l1.888 6.36h.128l1.864-6.36h1.12l1.936 6.344h.128l1.816-6.344h1.384Zm3.202-3.288v1.536h-1.512v-1.536h1.512Zm-.04 3.288V393h-1.432v-8.272h1.432Zm6.689 1.08h-1.864v5.144c0 .88.232.96 1.008.96h.904v.992c-.208.08-.624.136-1.224.136-1.72 0-2.176-.712-2.176-2.04v-5.192h-1.344v-1.08h1.384l.36-2.408h1.088v2.4h1.864v1.088Zm2.011 7.192v-11.888h1.44v4.832c.416-.68 1.256-1.32 2.584-1.32 1.616 0 2.888.952 2.888 2.464V393h-1.48v-5.616c0-.984-.744-1.552-1.832-1.552-1.12 0-2.128.536-2.128 1.648V393h-1.472Zm22.837-11.568-4 11.568h-2.648l-4-11.568h2.232l3.096 8.856 3.08-8.856h2.24ZM330.909 393l4.136-11.568h2.472L341.653 393h-2.328l-.944-2.68h-4.168l-.96 2.68h-2.344Zm3.832-4.72h3.072l-1.528-4.6-1.544 4.6Zm10.001-3.224v1.88h-1.768v-1.88h1.768Zm0 6.032v1.864h-1.768v-1.864h1.768Z" fill="#454545"/><path d="M82.048 347.64c-.968 0-1.272-.208-1.272-.208v-.96l.848.016c1.232.048 1.528-.496 1.696-.904l.288-.784-3.232-8.072h1.496l2.44 6.384 2.424-6.384h1.448l-3.48 8.896c-.648 1.576-1.512 2.016-2.656 2.016Zm10.894-2.48c-2.296 0-3.792-1.504-3.792-4.264 0-2.592 1.352-4.328 3.8-4.328 2.28 0 3.76 1.544 3.76 4.328 0 2.528-1.304 4.264-3.768 4.264Zm.008-1.168c1.48 0 2.296-1.184 2.296-3.128 0-1.768-.672-3.136-2.296-3.136-1.504 0-2.328 1.168-2.328 3.136 0 1.744.672 3.128 2.328 3.128Zm8.736 1.168c-1.72-.016-3.176-.952-3.176-2.816v-5.616h1.48v5.464c0 1.08.656 1.816 2.008 1.816 1.216 0 2.024-.64 2.024-1.896v-5.384h1.472V345h-1.176l-.152-1.584c-.304 1.24-1.312 1.752-2.48 1.744Zm6.351-.16v-8.272h1.408v1.592c.416-1.192 1.4-1.752 2.448-1.752.24 0 .496.032.632.104v1.432c-.16-.072-.456-.096-.624-.096-1.32-.088-2.392.472-2.392 1.848V345h-1.472Zm13.265-8.432c1.776 0 3.096 1.088 3.32 2.776h-1.312c-.144-.872-.864-1.584-2-1.584-1.416 0-2.4 1.008-2.4 3.12 0 1.912.832 3.152 2.416 3.152 1.136 0 1.856-.752 2-1.584h1.288c-.216 1.664-1.56 2.712-3.312 2.712-2.24 0-3.808-1.488-3.808-4.264 0-2.576 1.368-4.328 3.808-4.328Zm8.625 8.592c-2.296 0-3.792-1.504-3.792-4.264 0-2.592 1.352-4.328 3.8-4.328 2.28 0 3.76 1.544 3.76 4.328 0 2.528-1.304 4.264-3.768 4.264Zm.008-1.168c1.48 0 2.296-1.184 2.296-3.128 0-1.768-.672-3.136-2.296-3.136-1.504 0-2.328 1.168-2.328 3.136 0 1.744.672 3.128 2.328 3.128Zm5.727 1.008v-8.272h1.432v1.2c.408-.688 1.264-1.32 2.592-1.32 1.568 0 2.896.904 2.896 2.984V345h-1.48v-5.264c0-1.288-.744-1.904-1.824-1.904-1.12 0-2.144.528-2.144 1.64V345h-1.472Zm9.234 0v-8.272h1.432v1.2c.408-.688 1.264-1.32 2.592-1.32 1.568 0 2.896.904 2.896 2.984V345h-1.48v-5.264c0-1.288-.744-1.904-1.824-1.904-1.12 0-2.144.528-2.144 1.64V345h-1.472Zm10.322-3.792c0 1.568.776 2.808 2.384 2.808 1.056 0 1.888-.496 2.096-1.432h1.392c-.304 1.688-1.856 2.576-3.464 2.576-2.312 0-3.904-1.576-3.904-4.216 0-2.608 1.392-4.376 3.8-4.376 2.328 0 3.624 1.584 3.624 4.096v.544h-5.928Zm.008-1h4.496c0-1.424-.712-2.52-2.208-2.52-1.56 0-2.296 1.288-2.288 2.52Zm11.295-3.64c1.776 0 3.096 1.088 3.32 2.776h-1.312c-.144-.872-.864-1.584-2-1.584-1.416 0-2.4 1.008-2.4 3.12 0 1.912.832 3.152 2.416 3.152 1.136 0 1.856-.752 2-1.584h1.288c-.216 1.664-1.56 2.712-3.312 2.712-2.24 0-3.808-1.488-3.808-4.264 0-2.576 1.368-4.328 3.808-4.328Zm9.208 1.24h-1.864v5.144c0 .88.232.96 1.008.96h.904v.992c-.208.08-.624.136-1.224.136-1.72 0-2.176-.712-2.176-2.04v-5.192h-1.344v-1.08h1.384l.36-2.408h1.088v2.4h1.864v1.088Zm2.88 3.4c0 1.568.776 2.808 2.384 2.808 1.056 0 1.888-.496 2.096-1.432h1.392c-.304 1.688-1.856 2.576-3.464 2.576-2.312 0-3.904-1.576-3.904-4.216 0-2.608 1.392-4.376 3.8-4.376 2.328 0 3.624 1.584 3.624 4.096v.544h-5.928Zm.008-1h4.496c0-1.424-.712-2.52-2.208-2.52-1.56 0-2.296 1.288-2.288 2.52Zm10.982 4.952c-2.152 0-3.496-1.496-3.496-4.328 0-2.576 1.136-4.264 3.376-4.264 1.584 0 2.448.936 2.712 1.472v-4.928h1.496V345h-1.136l-.16-1.696c-.208.648-.856 1.856-2.792 1.856Zm.264-1.136c1.672 0 2.328-.952 2.328-3.264-.016-1.936-.656-3.04-2.304-3.04-1.36 0-2.296.92-2.296 3.04 0 2.072.784 3.264 2.272 3.264Zm12.478 1.136c-1.608 0-2.728-.888-2.728-2.4 0-1.832 1.208-2.704 4.04-2.768l1.472-.04v-.648c0-1.008-.592-1.648-1.864-1.648-.952.008-1.752.424-1.952 1.408h-1.304c.088-1.608 1.32-2.496 3.328-2.496 2.152 0 3.224.928 3.224 2.656V345h-1.264l-.112-1.552c-.64 1.288-1.656 1.712-2.84 1.712Zm.44-1.064c1.112 0 2.344-.896 2.344-1.816v-1.416l-1.224.024c-1.904.032-2.856.504-2.856 1.728 0 .936.72 1.48 1.736 1.48Zm9.412-7.528c1.776 0 3.096 1.088 3.32 2.776h-1.312c-.144-.872-.864-1.584-2-1.584-1.416 0-2.4 1.008-2.4 3.12 0 1.912.832 3.152 2.416 3.152 1.136 0 1.856-.752 2-1.584h1.288c-.216 1.664-1.56 2.712-3.312 2.712-2.24 0-3.808-1.488-3.808-4.264 0-2.576 1.368-4.328 3.808-4.328Zm8.64 0c1.776 0 3.096 1.088 3.32 2.776h-1.312c-.144-.872-.864-1.584-2-1.584-1.416 0-2.4 1.008-2.4 3.12 0 1.912.832 3.152 2.416 3.152 1.136 0 1.856-.752 2-1.584h1.288c-.216 1.664-1.56 2.712-3.312 2.712-2.24 0-3.808-1.488-3.808-4.264 0-2.576 1.368-4.328 3.808-4.328Zm8.625 8.592c-2.296 0-3.792-1.504-3.792-4.264 0-2.592 1.352-4.328 3.8-4.328 2.28 0 3.76 1.544 3.76 4.328 0 2.528-1.304 4.264-3.768 4.264Zm.008-1.168c1.48 0 2.296-1.184 2.296-3.128 0-1.768-.672-3.136-2.296-3.136-1.504 0-2.328 1.168-2.328 3.136 0 1.744.672 3.128 2.328 3.128Zm8.736 1.168c-1.72-.016-3.176-.952-3.176-2.816v-5.616h1.48v5.464c0 1.08.656 1.816 2.008 1.816 1.216 0 2.024-.64 2.024-1.896v-5.384h1.472V345h-1.176l-.152-1.584c-.304 1.24-1.312 1.752-2.48 1.744Zm6.35-.16v-8.272h1.432v1.2c.408-.688 1.264-1.32 2.592-1.32 1.568 0 2.896.904 2.896 2.984V345h-1.48v-5.264c0-1.288-.744-1.904-1.824-1.904-1.12 0-2.144.528-2.144 1.64V345h-1.472Zm13.099-7.192h-1.864v5.144c0 .88.232.96 1.008.96h.904v.992c-.208.08-.624.136-1.224.136-1.72 0-2.176-.712-2.176-2.04v-5.192h-1.344v-1.08h1.384l.36-2.408h1.088v2.4h1.864v1.088Zm4.955 7.352c-1.728 0-3.2-.784-3.44-2.568h1.344c.208.968 1.04 1.464 2.088 1.464 1.12 0 1.864-.408 1.864-1.272 0-.608-.352-.96-1.104-1.136l-1.712-.424c-1.336-.32-2.192-.952-2.2-2.184-.008-1.448 1.056-2.472 3.152-2.472 1.792 0 2.984.824 3.04 2.376h-1.312c-.112-.792-.72-1.288-1.744-1.288-1.056 0-1.784.416-1.784 1.296 0 .592.48.888 1.392 1.112l1.664.416c1.52.4 1.936 1.408 1.936 2.224 0 1.52-1.168 2.456-3.184 2.456ZM80 348.52h8.56v1.12H80v-1.12Zm8.406 0h9.048v1.12h-9.048v-1.12Zm9.016 0h15.647v1.12H97.422v-1.12Zm15.64 0h3.889v1.12h-3.889v-1.12Zm3.688 0h8.696v1.12h-8.696v-1.12Zm8.641 0h9.048v1.12h-9.048v-1.12Zm9.047 0h27.532v1.12h-27.532v-1.12Zm27.531 0h8.696v1.12h-8.696v-1.12Zm8.328 0h6.224v1.12h-6.224v-1.12Zm6 0h9.064v1.12h-9.064v-1.12Zm9.062 0h22.286v1.12h-22.286v-1.12Zm22.282 0h8.696v1.12h-8.696v-1.12Zm8.64 0h8.696v1.12h-8.696v-1.12Zm8.641 0h9.048v1.12h-9.048v-1.12Zm9.016 0h18.622v1.12h-18.622v-1.12Zm18.281 0h6.224v1.12h-6.224v-1.12Zm6.187 0h8.112v1.12h-8.112v-1.12Z" fill="#0071BB"/><path stroke="#CEDCED" d="M80 430.5h460"/><path d="M88 467a8 8 0 1 0 0-16 8 8 0 0 0 0 16Z" fill="#18852E"/><path d="M86.5 463.52c-.417 0-.812-.192-1.07-.52l-2.21-2.75a1.37 1.37 0 0 1 2.13-1.72L86.5 460l3.69-4.62a1.37 1.37 0 0 1 2.14 1.71L87.57 463a1.36 1.36 0 0 1-1.07.52Z" fill="#fff"/><path d="M121.296 465v-11.568h7.944l-.008 1.968h-5.592v2.808h4.856v1.928h-4.872v2.872l5.696.008V465h-8.024Zm9.766 0v-8.272h2.289v1.168c.25-.363.586-.675 1.008-.936.426-.261.962-.392 1.608-.392.282 0 .57.051.864.152.293.101.568.251.824.448.261.192.472.435.631.728a3.267 3.267 0 0 1 1.049-.944 2.826 2.826 0 0 1 1.456-.384c.309 0 .621.051.936.152.32.101.613.267.88.496.266.229.48.536.64.92.165.379.248.848.248 1.408V465h-2.336v-5.168c0-.331-.067-.595-.2-.792a1.073 1.073 0 0 0-.496-.432 1.493 1.493 0 0 0-.632-.136c-.208 0-.419.043-.632.128-.214.08-.395.211-.544.392-.15.181-.224.419-.224.712V465h-2.328v-5.376a.997.997 0 0 0-.2-.632 1.241 1.241 0 0 0-.504-.384 1.439 1.439 0 0 0-.608-.136c-.214 0-.427.045-.64.136a1.247 1.247 0 0 0-.536.408c-.144.181-.216.411-.216.688V465h-2.337Zm16.666.16a3.322 3.322 0 0 1-1.424-.296 2.374 2.374 0 0 1-1-.856c-.245-.379-.368-.837-.368-1.376 0-.907.339-1.595 1.016-2.064.677-.475 1.747-.72 3.208-.736l1.032-.016v-.496c0-.379-.112-.669-.336-.872-.219-.208-.56-.309-1.024-.304a2.225 2.225 0 0 0-.976.24c-.304.155-.512.424-.624.808h-1.944c.032-.597.205-1.088.52-1.472.315-.389.741-.677 1.28-.864.544-.192 1.16-.288 1.848-.288.848 0 1.528.107 2.04.32.512.208.883.509 1.112.904.229.389.344.853.344 1.392V465h-1.952l-.192-1.424c-.283.597-.637 1.011-1.064 1.24-.421.229-.92.344-1.496.344Zm.784-1.536c.213 0 .419-.037.616-.112.203-.08.381-.184.536-.312.16-.133.288-.283.384-.448.096-.165.144-.336.144-.512v-1.224l-.84.016a4.368 4.368 0 0 0-1.088.144 1.805 1.805 0 0 0-.816.424c-.203.197-.304.464-.304.8 0 .384.133.685.4.904.267.213.589.32.968.32Zm8.34-6.896V465h-2.232v-8.272h2.232Zm.024-3.288v2.104h-2.272v-2.104h2.272Zm4.78 11.704c-.608 0-1.091-.072-1.448-.216-.358-.144-.622-.333-.792-.568a1.88 1.88 0 0 1-.328-.792 5.484 5.484 0 0 1-.072-.888v-9.568h2.288v9.28c0 .304.064.552.192.744.133.187.381.301.744.344l.392.024v1.44c-.16.053-.323.099-.488.136a1.936 1.936 0 0 1-.488.064Zm8.353.016a3.325 3.325 0 0 1-1.424-.296 2.38 2.38 0 0 1-1-.856c-.245-.379-.368-.837-.368-1.376 0-.907.339-1.595 1.016-2.064.678-.475 1.747-.72 3.208-.736l1.032-.016v-.496c0-.379-.112-.669-.336-.872-.218-.208-.56-.309-1.024-.304a2.229 2.229 0 0 0-.976.24c-.304.155-.512.424-.624.808h-1.944c.032-.597.206-1.088.52-1.472.315-.389.742-.677 1.28-.864.544-.192 1.16-.288 1.848-.288.848 0 1.528.107 2.04.32.512.208.883.509 1.112.904.23.389.344.853.344 1.392V465h-1.952l-.192-1.424c-.282.597-.637 1.011-1.064 1.24-.421.229-.92.344-1.496.344Zm.784-1.536c.214 0 .419-.037.616-.112a1.95 1.95 0 0 0 .536-.312c.16-.133.288-.283.384-.448.096-.165.144-.336.144-.512v-1.224l-.84.016a4.368 4.368 0 0 0-1.088.144 1.805 1.805 0 0 0-.816.424c-.202.197-.304.464-.304.8 0 .384.134.685.4.904.267.213.59.32.968.32Zm9.06 1.536c-1.109 0-1.973-.381-2.592-1.144-.618-.768-.928-1.835-.928-3.2 0-.864.126-1.613.376-2.248.251-.635.622-1.125 1.112-1.472.491-.352 1.091-.528 1.8-.528.299 0 .576.035.832.104a2.9 2.9 0 0 1 .712.272c.214.117.4.253.56.408.16.155.291.32.392.496v-4.736h2.344V465h-1.696l-.264-1.696a3.13 3.13 0 0 1-.312.672 2.552 2.552 0 0 1-.512.6 2.417 2.417 0 0 1-.768.424c-.298.107-.65.16-1.056.16Zm.512-1.68c.587 0 1.024-.205 1.312-.616.294-.411.44-1.104.44-2.08-.005-.565-.072-1.035-.2-1.408s-.32-.651-.576-.832c-.25-.187-.57-.28-.96-.28-.506 0-.928.195-1.264.584-.336.384-.504 1.029-.504 1.936 0 .923.158 1.603.472 2.04.315.437.742.656 1.28.656Zm9.176 1.68c-1.11 0-1.974-.381-2.592-1.144-.619-.768-.928-1.835-.928-3.2 0-.864.125-1.613.376-2.248.25-.635.621-1.125 1.112-1.472.49-.352 1.09-.528 1.8-.528.298 0 .576.035.832.104.261.064.498.155.712.272.213.117.4.253.56.408.16.155.29.32.392.496v-4.736h2.344V465h-1.696l-.264-1.696a3.23 3.23 0 0 1-.312.672 2.576 2.576 0 0 1-.512.6 2.417 2.417 0 0 1-.768.424c-.299.107-.651.16-1.056.16Zm.512-1.68c.586 0 1.024-.205 1.312-.616.293-.411.44-1.104.44-2.08-.006-.565-.072-1.035-.2-1.408s-.32-.651-.576-.832c-.251-.187-.571-.28-.96-.28a1.6 1.6 0 0 0-1.264.584c-.336.384-.504 1.029-.504 1.936 0 .923.157 1.603.472 2.04.314.437.741.656 1.28.656Zm6.15 1.52v-8.272h2.248v1.96c.133-.421.32-.789.56-1.104.245-.32.541-.568.888-.744a2.505 2.505 0 0 1 1.176-.272c.075 0 .144.005.208.016a.43.43 0 0 1 .152.032v2.224a.537.537 0 0 0-.176-.04l-.176-.016c-.459-.037-.851-.024-1.176.04-.325.064-.589.173-.792.328a1.34 1.34 0 0 0-.44.568 1.983 1.983 0 0 0-.136.752V465h-2.336Zm8.389-3.6c-.005.421.061.789.2 1.104.139.309.339.549.6.72.267.165.587.248.96.248.4 0 .749-.085 1.048-.256.304-.171.515-.451.632-.84h2.104a2.82 2.82 0 0 1-.704 1.504 3.676 3.676 0 0 1-1.36.952 4.338 4.338 0 0 1-1.664.328c-.816 0-1.536-.171-2.16-.512a3.682 3.682 0 0 1-1.448-1.464c-.347-.629-.52-1.371-.52-2.224 0-.827.157-1.571.472-2.232a3.718 3.718 0 0 1 1.368-1.576c.603-.389 1.325-.584 2.168-.584.843 0 1.549.179 2.12.536a3.275 3.275 0 0 1 1.296 1.48c.293.629.44 1.357.44 2.184v.632h-5.552Zm-.008-1.392h3.376c0-.331-.061-.635-.184-.912a1.463 1.463 0 0 0-.56-.656c-.245-.16-.555-.24-.928-.24-.363 0-.672.088-.928.264a1.676 1.676 0 0 0-.576.672c-.133.277-.2.568-.2.872Zm10.438 5.152a4.99 4.99 0 0 1-1.664-.28 3.314 3.314 0 0 1-1.352-.896c-.368-.411-.603-.941-.704-1.592h2.024c.069.293.195.525.376.696.187.171.397.293.632.368.235.069.459.104.672.104.448 0 .808-.069 1.08-.208.277-.144.416-.363.416-.656a.654.654 0 0 0-.248-.536c-.16-.133-.427-.235-.8-.304l-1.456-.304c-.731-.155-1.317-.416-1.76-.784-.443-.373-.669-.901-.68-1.584 0-.496.131-.941.392-1.336.267-.395.659-.707 1.176-.936.517-.229 1.152-.344 1.904-.344 1.019 0 1.832.224 2.44.672.613.448.925 1.08.936 1.896h-1.952a1.074 1.074 0 0 0-.48-.736c-.256-.176-.579-.264-.968-.264-.405 0-.739.072-1 .216a.704.704 0 0 0-.392.656c0 .219.107.392.32.52.213.123.544.229.992.32l1.344.304c.464.112.84.267 1.128.464.293.192.52.403.68.632.16.229.269.461.328.696.064.229.096.437.096.624 0 .549-.147 1.019-.44 1.408-.293.384-.701.677-1.224.88-.523.203-1.128.304-1.816.304Zm8.297 0a4.99 4.99 0 0 1-1.664-.28 3.314 3.314 0 0 1-1.352-.896c-.368-.411-.603-.941-.704-1.592h2.024c.069.293.195.525.376.696.187.171.397.293.632.368.235.069.459.104.672.104.448 0 .808-.069 1.08-.208.277-.144.416-.363.416-.656a.654.654 0 0 0-.248-.536c-.16-.133-.427-.235-.8-.304l-1.456-.304c-.731-.155-1.317-.416-1.76-.784-.443-.373-.669-.901-.68-1.584 0-.496.131-.941.392-1.336.267-.395.659-.707 1.176-.936.517-.229 1.152-.344 1.904-.344 1.019 0 1.832.224 2.44.672.613.448.925 1.08.936 1.896h-1.952a1.074 1.074 0 0 0-.48-.736c-.256-.176-.579-.264-.968-.264-.405 0-.739.072-1 .216a.704.704 0 0 0-.392.656c0 .219.107.392.32.52.213.123.544.229.992.32l1.344.304c.464.112.84.267 1.128.464.293.192.52.403.68.632.16.229.269.461.328.696.064.229.096.437.096.624 0 .549-.147 1.019-.44 1.408-.293.384-.701.677-1.224.88-.523.203-1.128.304-1.816.304ZM82.812 501.208c0 1.568.776 2.808 2.384 2.808 1.056 0 1.888-.496 2.096-1.432h1.392c-.304 1.688-1.856 2.576-3.464 2.576-2.312 0-3.904-1.576-3.904-4.216 0-2.608 1.392-4.376 3.8-4.376 2.328 0 3.624 1.584 3.624 4.096v.544h-5.928Zm.008-1h4.496c0-1.424-.712-2.52-2.208-2.52-1.56 0-2.296 1.288-2.288 2.52ZM97.528 505H95.92l-2.408-3.24L91.12 505h-1.616l3.184-4.296-2.928-3.976h1.608l2.152 2.904 2.152-2.904h1.616l-2.944 3.976L97.528 505Zm3.735.16c-1.608 0-2.728-.888-2.728-2.4 0-1.832 1.208-2.704 4.04-2.768l1.472-.04v-.648c0-1.008-.592-1.648-1.864-1.648-.952.008-1.752.424-1.952 1.408h-1.304c.088-1.608 1.32-2.496 3.328-2.496 2.152 0 3.224.928 3.224 2.656V505h-1.264l-.112-1.552c-.64 1.288-1.656 1.712-2.84 1.712Zm.44-1.064c1.112 0 2.344-.896 2.344-1.816v-1.416l-1.224.024c-1.904.032-2.856.504-2.856 1.728 0 .936.72 1.48 1.736 1.48Zm6.084.904v-8.272h1.424v1.2c.456-.728 1.216-1.36 2.504-1.36.904 0 1.952.472 2.384 1.352.512-.808 1.424-1.352 2.52-1.352 1.168 0 2.696.576 2.696 3.024V505h-1.488v-5.264c0-1.496-.824-1.912-1.696-1.912-.776 0-1.856.392-1.856 1.648V505h-1.472v-5.696c0-.984-.912-1.48-1.68-1.48-.848 0-1.864.488-1.864 1.648V505h-1.472Zm13.843 2.576v-10.848h1.472l.016 1.44c.376-.68 1.2-1.6 2.72-1.6 1.976 0 3.352 1.336 3.352 4.184 0 2.84-1.296 4.408-3.472 4.408-1.48 0-2.256-.952-2.6-1.656v4.072h-1.488Zm3.808-3.568c1.36 0 2.32-1.008 2.32-3.208 0-1.88-.808-3.08-2.32-3.08-1.536 0-2.336 1.256-2.336 3.08 0 1.784.8 3.208 2.336 3.208Zm7.812 1.096c-1.784 0-2.088-1.072-2.088-2.232v-9.76h1.456v9.616c0 .84.344 1.24.928 1.28l.448.008v.96c-.248.08-.536.128-.744.128Zm3.437-3.896c0 1.568.776 2.808 2.384 2.808 1.056 0 1.888-.496 2.096-1.432h1.392c-.304 1.688-1.856 2.576-3.464 2.576-2.312 0-3.904-1.576-3.904-4.216 0-2.608 1.392-4.376 3.8-4.376 2.328 0 3.624 1.584 3.624 4.096v.544h-5.928Zm.008-1h4.496c0-1.424-.712-2.52-2.208-2.52-1.56 0-2.296 1.288-2.288 2.52Zm7.623 4.792v-1.888h1.76V505h-1.76Zm6.977.16c-1.72-.016-3.176-.952-3.176-2.816v-5.616h1.48v5.464c0 1.08.656 1.816 2.008 1.816 1.216 0 2.024-.64 2.024-1.896v-5.384h1.472V505h-1.176l-.152-1.584c-.304 1.24-1.312 1.752-2.48 1.744Zm9.218 0c-1.728 0-3.201-.784-3.44-2.568h1.344c.208.968 1.04 1.464 2.088 1.464 1.12 0 1.864-.408 1.864-1.272 0-.608-.352-.96-1.104-1.136l-1.712-.424c-1.336-.32-2.192-.952-2.2-2.184-.008-1.448 1.056-2.472 3.152-2.472 1.792 0 2.984.824 3.04 2.376h-1.312c-.112-.792-.72-1.288-1.744-1.288-1.056 0-1.784.416-1.784 1.296 0 .592.48.888 1.392 1.112l1.664.416c1.52.4 1.936 1.408 1.936 2.224 0 1.52-1.168 2.456-3.184 2.456Zm6.221-3.952c0 1.568.776 2.808 2.384 2.808 1.056 0 1.888-.496 2.096-1.432h1.392c-.304 1.688-1.856 2.576-3.464 2.576-2.312 0-3.904-1.576-3.904-4.216 0-2.608 1.392-4.376 3.8-4.376 2.328 0 3.624 1.584 3.624 4.096v.544h-5.928Zm.008-1h4.496c0-1.424-.712-2.52-2.208-2.52-1.56 0-2.296 1.288-2.288 2.52Zm7.966 4.792v-8.272h1.408v1.592c.416-1.192 1.4-1.752 2.448-1.752.24 0 .496.032.632.104v1.432c-.16-.072-.456-.096-.624-.096-1.32-.088-2.392.472-2.392 1.848V505h-1.472Zm15.397.552c-.928.712-2.216 1.208-3.712 1.208-3.792 0-6.04-2.624-6.04-5.832 0-3.368 2.504-6.232 6.296-6.232 2.72 0 5.52 1.496 5.52 5 0 2.392-1.296 4.04-3.032 4.04-.824 0-1.248-.288-1.416-.816-.048-.136-.08-.128-.184-.016-.464.6-1.152 1.056-2.152 1.056-1.2 0-2.232-1.088-2.224-2.76 0-1.968 1.24-3.608 3.032-3.608.864 0 1.432.392 1.784.96.032.04.096.04.112-.056l.136-.504h1l-.592 3.552c-.16.904.08 1.192.592 1.192.984 0 1.848-1.088 1.848-2.944 0-3.008-2.296-4.128-4.44-4.128-3.36 0-5.184 2.416-5.184 5.272 0 2.784 1.824 4.88 5.168 4.88 1.432 0 2.112-.456 2.92-1.008l.568.744Zm-5.728-4.44c0 1.08.448 1.8 1.256 1.8 1.008 0 1.856-1 2-2.152.184-1.392-.544-2.12-1.36-2.12-1.112 0-1.896 1.104-1.896 2.472Zm10.841.096c0 1.568.776 2.808 2.384 2.808 1.056 0 1.888-.496 2.096-1.432h1.392c-.304 1.688-1.856 2.576-3.464 2.576-2.312 0-3.904-1.576-3.904-4.216 0-2.608 1.392-4.376 3.8-4.376 2.328 0 3.624 1.584 3.624 4.096v.544h-5.928Zm.008-1h4.496c0-1.424-.712-2.52-2.208-2.52-1.56 0-2.296 1.288-2.288 2.52Zm7.967 4.792v-8.272h1.424v1.2c.456-.728 1.216-1.36 2.504-1.36.904 0 1.952.472 2.384 1.352.512-.808 1.424-1.352 2.52-1.352 1.168 0 2.696.576 2.696 3.024V505h-1.488v-5.264c0-1.496-.824-1.912-1.696-1.912-.776 0-1.856.392-1.856 1.648V505h-1.472v-5.696c0-.984-.912-1.48-1.68-1.48-.848 0-1.864.488-1.864 1.648V505h-1.472Zm16.132.16c-1.608 0-2.728-.888-2.728-2.4 0-1.832 1.208-2.704 4.04-2.768l1.472-.04v-.648c0-1.008-.592-1.648-1.864-1.648-.952.008-1.752.424-1.952 1.408h-1.304c.088-1.608 1.32-2.496 3.328-2.496 2.152 0 3.224.928 3.224 2.656V505h-1.264l-.112-1.552c-.64 1.288-1.656 1.712-2.84 1.712Zm.44-1.064c1.112 0 2.344-.896 2.344-1.816v-1.416l-1.224.024c-1.904.032-2.856.504-2.856 1.728 0 .936.72 1.48 1.736 1.48Zm7.596-10.656v1.536h-1.512v-1.536h1.512Zm-.04 3.288V505h-1.432v-8.272h1.432Zm4.679 8.376c-1.784 0-2.088-1.072-2.088-2.232v-9.76h1.456v9.616c0 .84.344 1.24.928 1.28l.448.008v.96c-.248.08-.536.128-.744.128Zm2.489-.104v-1.888h1.76V505h-1.76Zm7.266-8.432c1.776 0 3.096 1.088 3.32 2.776h-1.312c-.144-.872-.864-1.584-2-1.584-1.416 0-2.4 1.008-2.4 3.12 0 1.912.832 3.152 2.416 3.152 1.136 0 1.856-.752 2-1.584h1.288c-.216 1.664-1.56 2.712-3.312 2.712-2.24 0-3.808-1.488-3.808-4.264 0-2.576 1.368-4.328 3.808-4.328Zm8.625 8.592c-2.296 0-3.792-1.504-3.792-4.264 0-2.592 1.352-4.328 3.8-4.328 2.28 0 3.76 1.544 3.76 4.328 0 2.528-1.304 4.264-3.768 4.264Zm.008-1.168c1.48 0 2.296-1.184 2.296-3.128 0-1.768-.672-3.136-2.296-3.136-1.504 0-2.328 1.168-2.328 3.136 0 1.744.672 3.128 2.328 3.128Zm5.727 1.008v-8.272h1.424v1.2c.456-.728 1.216-1.36 2.504-1.36.904 0 1.952.472 2.384 1.352.512-.808 1.424-1.352 2.52-1.352 1.168 0 2.696.576 2.696 3.024V505h-1.488v-5.264c0-1.496-.824-1.912-1.696-1.912-.776 0-1.856.392-1.856 1.648V505h-1.472v-5.696c0-.984-.912-1.48-1.68-1.48-.848 0-1.864.488-1.864 1.648V505h-1.472Z" fill="#454545"/><path d="M465.159 493.272c2.44 0 4.152 1.704 4.368 3.728h-1.576c-.264-1.36-1.208-2.44-2.832-2.44-2.112 0-3.24 1.432-3.24 4.632 0 3.224 1.128 4.68 3.24 4.68 1.624 0 2.568-1.16 2.832-2.512h1.576c-.24 1.976-1.608 3.8-4.368 3.8-3.12 0-4.92-2.208-4.92-5.984 0-3.768 1.784-5.904 4.92-5.904ZM471.615 505v-11.888h1.44v4.832c.416-.68 1.256-1.32 2.584-1.32 1.616 0 2.888.952 2.888 2.464V505h-1.48v-5.616c0-.984-.744-1.552-1.832-1.552-1.12 0-2.128.536-2.128 1.648V505h-1.472Zm11.507.16c-1.608 0-2.728-.888-2.728-2.4 0-1.832 1.208-2.704 4.04-2.768l1.472-.04v-.648c0-1.008-.592-1.648-1.864-1.648-.952.008-1.752.424-1.952 1.408h-1.304c.088-1.608 1.32-2.496 3.328-2.496 2.152 0 3.224.928 3.224 2.656V505h-1.264l-.112-1.552c-.64 1.288-1.656 1.712-2.84 1.712Zm.44-1.064c1.112 0 2.344-.896 2.344-1.816v-1.416l-1.224.024c-1.904.032-2.856.504-2.856 1.728 0 .936.72 1.48 1.736 1.48Zm6.084.904v-8.272h1.432v1.2c.408-.688 1.264-1.32 2.592-1.32 1.568 0 2.896.904 2.896 2.984V505h-1.48v-5.264c0-1.288-.744-1.904-1.824-1.904-1.12 0-2.144.528-2.144 1.64V505h-1.472Zm12.73 2.736c-2.592 0-4.12-.776-4.12-2.176 0-1.192 1.36-1.648 1.568-1.8-.288-.168-.856-.4-.856-1.04 0-.52.488-.992 1.464-1.208-.976-.488-1.544-1.344-1.544-2.296 0-1.608 1.352-2.616 3.6-2.616 1.072 0 1.744.264 2.376.72.352-.144 1.664-.688 2.112-.872l-.008 1.368-1.448.272c.168.344.272.776.272 1.128 0 1.464-1.136 2.616-3.448 2.616-.128 0-.36-.008-.496-.016-1.136.032-1.48.288-1.48.552 0 .304.424.392 1.576.472.416.024 1.04.056 1.8.104 1.728.104 2.704.92 2.704 2.24 0 1.504-1.328 2.552-4.072 2.552Zm.016-6.856c1.184 0 1.984-.56 1.984-1.648 0-1.112-.8-1.72-1.984-1.72-1.216 0-2.024.608-2.024 1.72 0 1.048.736 1.648 2.024 1.648Zm.248 5.904c1.528 0 2.368-.456 2.368-1.384 0-.656-.504-1.112-1.512-1.176l-2.32-.152c-.624-.032-1.448.552-1.448 1.32 0 .88.92 1.392 2.912 1.392Zm7.016-5.576c0 1.568.776 2.808 2.384 2.808 1.056 0 1.888-.496 2.096-1.432h1.392c-.304 1.688-1.856 2.576-3.464 2.576-2.312 0-3.904-1.576-3.904-4.216 0-2.608 1.392-4.376 3.8-4.376 2.328 0 3.624 1.584 3.624 4.096v.544h-5.928Zm.008-1h4.496c0-1.424-.712-2.52-2.208-2.52-1.56 0-2.296 1.288-2.288 2.52Zm-50.289 8.312h11.016v1.12h-11.016v-1.12Zm11.016 0h9.224v1.12h-9.224v-1.12Zm9.187 0h8.848v1.12h-8.848v-1.12Zm8.844 0h19.194v1.12h-19.194v-1.12Zm18.922 0h9.064v1.12h-9.064v-1.12Z" fill="#0071BB"/><path stroke="#CEDCED" d="M80 526.5h460"/><path d="m90.952 565.432-4 11.568h-2.648l-4-11.568h2.232l3.096 8.856 3.08-8.856h2.24ZM89.924 577l4.136-11.568h2.472L100.668 577H98.34l-.944-2.68h-4.168l-.96 2.68h-2.344Zm3.832-4.72h3.072l-1.528-4.6-1.544 4.6Zm23.075-3.552L114.327 577h-1.456l-1.88-6.104-1.8 6.104h-1.44l-2.56-8.272h1.376l1.888 6.36h.128l1.864-6.36h1.12l1.936 6.344h.128l1.816-6.344h1.384Zm3.202-3.288v1.536h-1.512v-1.536h1.512Zm-.04 3.288V577h-1.432v-8.272h1.432Zm4.678 8.376c-1.784 0-2.088-1.072-2.088-2.232v-9.76h1.456v9.616c0 .84.344 1.24.928 1.28l.448.008v.96c-.248.08-.536.128-.744.128Zm4.61 0c-1.784 0-2.088-1.072-2.088-2.232v-9.76h1.456v9.616c0 .84.344 1.24.928 1.28l.448.008v.96c-.248.08-.536.128-.744.128Zm9.755.056c-2.296 0-3.792-1.504-3.792-4.264 0-2.592 1.352-4.328 3.8-4.328 2.28 0 3.76 1.544 3.76 4.328 0 2.528-1.304 4.264-3.768 4.264Zm.008-1.168c1.48 0 2.296-1.184 2.296-3.128 0-1.768-.672-3.136-2.296-3.136-1.504 0-2.328 1.168-2.328 3.136 0 1.744.672 3.128 2.328 3.128Zm5.727 1.008v-8.272h1.432v1.2c.408-.688 1.264-1.32 2.592-1.32 1.568 0 2.896.904 2.896 2.984V577h-1.48v-5.264c0-1.288-.744-1.904-1.824-1.904-1.12 0-2.144.528-2.144 1.64V577h-1.472Zm11.322.104c-1.784 0-2.088-1.072-2.088-2.232v-9.76h1.456v9.616c0 .84.344 1.24.928 1.28l.448.008v.96c-.248.08-.536.128-.744.128Zm3.268 2.536c-.968 0-1.272-.208-1.272-.208v-.96l.848.016c1.232.048 1.528-.496 1.696-.904l.288-.784-3.232-8.072h1.496l2.44 6.384 2.424-6.384h1.448l-3.481 8.896c-.647 1.576-1.511 2.016-2.655 2.016Zm14.606-2.48c-1.72-.016-3.176-.952-3.176-2.816v-5.616h1.48v5.464c0 1.08.656 1.816 2.008 1.816 1.216 0 2.024-.64 2.024-1.896v-5.384h1.472V577h-1.176l-.152-1.584c-.304 1.24-1.312 1.752-2.48 1.744Zm9.217 0c-1.728 0-3.2-.784-3.44-2.568h1.344c.208.968 1.04 1.464 2.088 1.464 1.12 0 1.864-.408 1.864-1.272 0-.608-.352-.96-1.104-1.136l-1.712-.424c-1.336-.32-2.192-.952-2.2-2.184-.008-1.448 1.056-2.472 3.152-2.472 1.792 0 2.984.824 3.04 2.376h-1.312c-.112-.792-.72-1.288-1.744-1.288-1.056 0-1.784.416-1.784 1.296 0 .592.48.888 1.392 1.112l1.664.416c1.52.4 1.936 1.408 1.936 2.224 0 1.52-1.168 2.456-3.184 2.456Zm6.222-3.952c0 1.568.776 2.808 2.384 2.808 1.056 0 1.888-.496 2.096-1.432h1.392c-.304 1.688-1.856 2.576-3.464 2.576-2.312 0-3.904-1.576-3.904-4.216 0-2.608 1.392-4.376 3.8-4.376 2.328 0 3.624 1.584 3.624 4.096v.544h-5.928Zm.008-1h4.496c0-1.424-.712-2.52-2.208-2.52-1.56 0-2.296 1.288-2.288 2.52Zm15.956-2.4h-1.864v5.144c0 .88.232.96 1.008.96h.904v.992c-.208.08-.624.136-1.224.136-1.72 0-2.176-.712-2.176-2.04v-5.192h-1.344v-1.08h1.384l.36-2.408h1.088v2.4h1.864v1.088Zm2.01 7.192v-11.888h1.44v4.832c.416-.68 1.256-1.32 2.584-1.32 1.616 0 2.888.952 2.888 2.464V577h-1.48v-5.616c0-.984-.744-1.552-1.832-1.552-1.12 0-2.128.536-2.128 1.648V577h-1.472Zm10.731-11.56v1.536h-1.512v-1.536h1.512Zm-.04 3.288V577h-1.432v-8.272h1.432Zm5.457 8.432c-1.728 0-3.2-.784-3.44-2.568h1.344c.208.968 1.04 1.464 2.088 1.464 1.12 0 1.864-.408 1.864-1.272 0-.608-.352-.96-1.104-1.136l-1.712-.424c-1.336-.32-2.192-.952-2.2-2.184-.008-1.448 1.056-2.472 3.152-2.472 1.792 0 2.984.824 3.04 2.376h-1.312c-.112-.792-.72-1.288-1.744-1.288-1.056 0-1.784.416-1.784 1.296 0 .592.48.888 1.392 1.112l1.664.416c1.52.4 1.936 1.408 1.936 2.224 0 1.52-1.168 2.456-3.184 2.456Zm10.474-11.72v1.536h-1.512v-1.536h1.512Zm-.04 3.288V577h-1.432v-8.272h1.432Zm2.59 8.272v-8.272h1.432v1.2c.408-.688 1.264-1.32 2.592-1.32 1.568 0 2.896.904 2.896 2.984V577h-1.48v-5.264c0-1.288-.744-1.904-1.824-1.904-1.12 0-2.144.528-2.144 1.64V577h-1.472Zm13.561-8.272v1.08h-2.008V577h-1.48v-7.192h-1.752v-1.08h1.752v-1.28c0-1.312.664-2.016 2-2.016h1.56l.008 1.048h-1.232c-.68 0-.88.36-.88 1.096v1.152h2.032Zm4.939 8.432c-2.296 0-3.792-1.504-3.792-4.264 0-2.592 1.352-4.328 3.8-4.328 2.28 0 3.76 1.544 3.76 4.328 0 2.528-1.304 4.264-3.768 4.264Zm.008-1.168c1.48 0 2.296-1.184 2.296-3.128 0-1.768-.672-3.136-2.296-3.136-1.504 0-2.328 1.168-2.328 3.136 0 1.744.672 3.128 2.328 3.128Zm5.727 1.008v-8.272h1.408v1.592c.416-1.192 1.4-1.752 2.448-1.752.24 0 .496.032.632.104v1.432c-.16-.072-.456-.096-.624-.096-1.32-.088-2.392.472-2.392 1.848V577h-1.472Zm6.25 0v-8.272h1.424v1.2c.456-.728 1.216-1.36 2.504-1.36.904 0 1.952.472 2.384 1.352.512-.808 1.424-1.352 2.52-1.352 1.168 0 2.696.576 2.696 3.024V577h-1.488v-5.264c0-1.496-.824-1.912-1.696-1.912-.776 0-1.856.392-1.856 1.648V577h-1.472v-5.696c0-.984-.912-1.48-1.68-1.48-.848 0-1.864.488-1.864 1.648V577h-1.472Zm16.132.16c-1.608 0-2.728-.888-2.728-2.4 0-1.832 1.208-2.704 4.04-2.768l1.472-.04v-.648c0-1.008-.592-1.648-1.864-1.648-.952.008-1.752.424-1.952 1.408h-1.304c.088-1.608 1.32-2.496 3.328-2.496 2.152 0 3.224.928 3.224 2.656V577h-1.264l-.112-1.552c-.64 1.288-1.656 1.712-2.84 1.712Zm.44-1.064c1.112 0 2.344-.896 2.344-1.816v-1.416l-1.224.024c-1.904.032-2.856.504-2.856 1.728 0 .936.72 1.48 1.736 1.48Zm9.948-6.288h-1.864v5.144c0 .88.232.96 1.008.96h.904v.992c-.208.08-.624.136-1.224.136-1.72 0-2.176-.712-2.176-2.04v-5.192h-1.344v-1.08h1.384l.36-2.408h1.088v2.4h1.864v1.088Zm3.523-4.368v1.536h-1.512v-1.536h1.512Zm-.04 3.288V577h-1.432v-8.272h1.432Zm5.793 8.432c-2.296 0-3.792-1.504-3.792-4.264 0-2.592 1.352-4.328 3.8-4.328 2.28 0 3.76 1.544 3.76 4.328 0 2.528-1.304 4.264-3.768 4.264Zm.008-1.168c1.48 0 2.296-1.184 2.296-3.128 0-1.768-.672-3.136-2.296-3.136-1.504 0-2.328 1.168-2.328 3.136 0 1.744.672 3.128 2.328 3.128Zm5.727 1.008v-8.272H310v1.2c.408-.688 1.264-1.32 2.592-1.32 1.568 0 2.896.904 2.896 2.984V577h-1.48v-5.264c0-1.288-.744-1.904-1.824-1.904-1.12 0-2.144.528-2.144 1.64V577h-1.472Zm17.333-7.192h-1.864v5.144c0 .88.232.96 1.008.96h.904v.992c-.208.08-.624.136-1.224.136-1.72 0-2.176-.712-2.176-2.04v-5.192h-1.344v-1.08h1.384l.36-2.408h1.088v2.4h1.864v1.088Zm5.104 7.352c-2.296 0-3.792-1.504-3.792-4.264 0-2.592 1.352-4.328 3.8-4.328 2.28 0 3.76 1.544 3.76 4.328 0 2.528-1.304 4.264-3.768 4.264Zm.008-1.168c1.48 0 2.296-1.184 2.296-3.128 0-1.768-.672-3.136-2.296-3.136-1.504 0-2.328 1.168-2.328 3.136 0 1.744.672 3.128 2.328 3.128Zm12.633-7.424c1.776 0 3.096 1.088 3.32 2.776h-1.312c-.144-.872-.864-1.584-2-1.584-1.416 0-2.4 1.008-2.4 3.12 0 1.912.832 3.152 2.416 3.152 1.136 0 1.856-.752 2-1.584h1.288c-.216 1.664-1.56 2.712-3.312 2.712-2.24 0-3.808-1.488-3.808-4.264 0-2.576 1.368-4.328 3.808-4.328Zm8.624 8.592c-2.296 0-3.792-1.504-3.792-4.264 0-2.592 1.352-4.328 3.8-4.328 2.28 0 3.76 1.544 3.76 4.328 0 2.528-1.304 4.264-3.768 4.264Zm.008-1.168c1.48 0 2.296-1.184 2.296-3.128 0-1.768-.672-3.136-2.296-3.136-1.504 0-2.328 1.168-2.328 3.136 0 1.744.672 3.128 2.328 3.128Zm5.727 1.008v-8.272h1.432v1.2c.408-.688 1.264-1.32 2.592-1.32 1.568 0 2.896.904 2.896 2.984V577h-1.48v-5.264c0-1.288-.744-1.904-1.824-1.904-1.12 0-2.144.528-2.144 1.64V577h-1.472Zm9.235 0v-8.272h1.432v1.2c.408-.688 1.264-1.32 2.592-1.32 1.568 0 2.896.904 2.896 2.984V577h-1.48v-5.264c0-1.288-.744-1.904-1.824-1.904-1.12 0-2.144.528-2.144 1.64V577h-1.472Zm10.322-3.792c0 1.568.776 2.808 2.384 2.808 1.056 0 1.888-.496 2.096-1.432h1.392c-.304 1.688-1.856 2.576-3.464 2.576-2.312 0-3.904-1.576-3.904-4.216 0-2.608 1.392-4.376 3.8-4.376 2.328 0 3.624 1.584 3.624 4.096v.544h-5.928Zm.008-1h4.496c0-1.424-.712-2.52-2.208-2.52-1.56 0-2.296 1.288-2.288 2.52Zm11.295-3.64c1.776 0 3.096 1.088 3.32 2.776h-1.312c-.144-.872-.864-1.584-2-1.584-1.416 0-2.4 1.008-2.4 3.12 0 1.912.832 3.152 2.416 3.152 1.136 0 1.856-.752 2-1.584h1.288c-.216 1.664-1.56 2.712-3.312 2.712-2.24 0-3.808-1.488-3.808-4.264 0-2.576 1.367-4.328 3.808-4.328Zm9.208 1.24h-1.864v5.144c0 .88.232.96 1.008.96h.904v.992c-.208.08-.624.136-1.224.136-1.72 0-2.176-.712-2.176-2.04v-5.192h-1.344v-1.08h1.384l.36-2.408h1.088v2.4h1.864v1.088Zm10.109 0h-1.864v5.144c0 .88.232.96 1.008.96h.904v.992c-.208.08-.624.136-1.224.136-1.72 0-2.176-.712-2.176-2.04v-5.192h-1.344v-1.08h1.384l.36-2.408h1.088v2.4h1.864v1.088Zm5.104 7.352c-2.296 0-3.792-1.504-3.792-4.264 0-2.592 1.352-4.328 3.8-4.328 2.28 0 3.76 1.544 3.76 4.328 0 2.528-1.304 4.264-3.768 4.264Zm.008-1.168c1.48 0 2.296-1.184 2.296-3.128 0-1.768-.672-3.136-2.296-3.136-1.504 0-2.328 1.168-2.328 3.136 0 1.744.672 3.128 2.328 3.128Zm10.223 3.648c-.968 0-1.272-.208-1.272-.208v-.96l.848.016c1.232.048 1.528-.496 1.696-.904l.288-.784-3.232-8.072h1.496l2.44 6.384 2.424-6.384h1.448l-3.48 8.896c-.648 1.576-1.512 2.016-2.656 2.016Zm10.894-2.48c-2.296 0-3.792-1.504-3.792-4.264 0-2.592 1.352-4.328 3.8-4.328 2.28 0 3.76 1.544 3.76 4.328 0 2.528-1.304 4.264-3.768 4.264Zm.008-1.168c1.48 0 2.296-1.184 2.296-3.128 0-1.768-.672-3.136-2.296-3.136-1.504 0-2.328 1.168-2.328 3.136 0 1.744.672 3.128 2.328 3.128Zm8.736 1.168c-1.72-.016-3.176-.952-3.176-2.816v-5.616h1.48v5.464c0 1.08.656 1.816 2.008 1.816 1.216 0 2.024-.64 2.024-1.896v-5.384h1.472V577h-1.176l-.152-1.584c-.304 1.24-1.312 1.752-2.48 1.744Zm6.35-.16v-8.272h1.408v1.592c.416-1.192 1.4-1.752 2.448-1.752.24 0 .496.032.632.104v1.432c-.16-.072-.456-.096-.624-.096-1.32-.088-2.392.472-2.392 1.848V577h-1.472Zm12.461.16c-1.608 0-2.728-.888-2.728-2.4 0-1.832 1.208-2.704 4.04-2.768l1.472-.04v-.648c0-1.008-.592-1.648-1.864-1.648-.952.008-1.752.424-1.952 1.408h-1.304c.088-1.608 1.32-2.496 3.328-2.496 2.152 0 3.224.928 3.224 2.656V577h-1.264l-.112-1.552c-.64 1.288-1.656 1.712-2.84 1.712Zm.44-1.064c1.112 0 2.344-.896 2.344-1.816v-1.416l-1.224.024c-1.904.032-2.856.504-2.856 1.728 0 .936.72 1.48 1.736 1.48Zm9.412-7.528c1.776 0 3.096 1.088 3.32 2.776h-1.312c-.144-.872-.864-1.584-2-1.584-1.416 0-2.4 1.008-2.4 3.12 0 1.912.832 3.152 2.416 3.152 1.136 0 1.856-.752 2-1.584h1.288c-.216 1.664-1.56 2.712-3.312 2.712-2.24 0-3.808-1.488-3.808-4.264 0-2.576 1.368-4.328 3.808-4.328Zm8.64 0c1.776 0 3.096 1.088 3.32 2.776h-1.312c-.144-.872-.864-1.584-2-1.584-1.416 0-2.4 1.008-2.4 3.12 0 1.912.832 3.152 2.416 3.152 1.136 0 1.856-.752 2-1.584h1.288c-.216 1.664-1.56 2.712-3.312 2.712-2.24 0-3.808-1.488-3.808-4.264 0-2.576 1.368-4.328 3.808-4.328Zm8.625 8.592c-2.296 0-3.792-1.504-3.792-4.264 0-2.592 1.352-4.328 3.8-4.328 2.28 0 3.76 1.544 3.76 4.328 0 2.528-1.304 4.264-3.768 4.264Zm.008-1.168c1.48 0 2.296-1.184 2.296-3.128 0-1.768-.672-3.136-2.296-3.136-1.504 0-2.328 1.168-2.328 3.136 0 1.744.672 3.128 2.328 3.128Zm8.736 1.168c-1.72-.016-3.176-.952-3.176-2.816v-5.616h1.48v5.464c0 1.08.656 1.816 2.008 1.816 1.216 0 2.024-.64 2.024-1.896v-5.384h1.472V577h-1.176l-.152-1.584c-.304 1.24-1.312 1.752-2.48 1.744Zm6.35-.16v-8.272h1.432v1.2c.408-.688 1.264-1.32 2.592-1.32 1.568 0 2.896.904 2.896 2.984V577h-1.48v-5.264c0-1.288-.744-1.904-1.824-1.904-1.12 0-2.144.528-2.144 1.64V577h-1.472Zm13.099-7.192h-1.864v5.144c0 .88.232.96 1.008.96h.904v.992c-.208.08-.624.136-1.224.136-1.72 0-2.176-.712-2.176-2.04v-5.192h-1.344v-1.08h1.384l.36-2.408h1.088v2.4h1.864v1.088Zm1.667 7.192v-1.888h1.76V577h-1.76Z" fill="#454545"/><rect x="80" y="623" width="226" height="52" rx="8" fill="#0071BB"/><path d="m100.943 656 5.17-14.46h3.09l5.17 14.46h-2.91l-1.18-3.35h-5.21l-1.2 3.35h-2.93Zm4.79-5.9h3.84l-1.91-5.75-1.93 5.75Zm14.987 9.32c-3.68 0-5.63-1.02-5.63-2.54 0-1.41 1.81-1.84 2.01-1.95-.32-.19-1.27-.56-1.27-1.54 0-.73.69-1.42 2.12-1.67-1.37-.63-2.09-1.83-2.09-2.98 0-2.04 2.09-3.24 4.9-3.24 1.42 0 2.24.33 3.01.81.62-.24 2.17-.86 3.04-1.22l-.02 2.26-1.78.29c.14.37.22.82.22 1.09 0 1.8-1.59 3.42-4.68 3.42-.24 0-.76-.01-1.02-.04-.78.04-1.03.22-1.03.43 0 .33.59.38 1.81.45.44.03 1.24.07 2.15.13 2.53.17 3.77 1.33 3.77 2.96 0 1.94-1.83 3.34-5.51 3.34Zm-.08-8.9c1.1 0 1.83-.64 1.83-1.69 0-1.08-.73-1.79-1.83-1.79-1.11 0-1.85.72-1.85 1.79 0 1.03.7 1.69 1.85 1.69Zm.55 7.27c1.62 0 2.26-.41 2.26-1.16 0-.62-.55-1.04-1.57-1.11l-2.37-.16c-.94-.05-1.56.54-1.56 1.18 0 .87 1.02 1.25 3.24 1.25Zm7.308-1.79v-10.34h2.81v2.45c.49-1.58 1.65-2.65 3.28-2.65.19 0 .37.02.45.06v2.78c-.12-.05-.3-.06-.44-.07-2.3-.2-3.18.72-3.18 2.11V656h-2.92Zm10.693-4.5c-.01 1.58.81 2.59 2.21 2.59 1 0 1.8-.4 2.1-1.37h2.63c-.35 2.21-2.51 3.48-4.66 3.48-3.07 0-5.17-2.04-5.17-5.25 0-3.11 1.85-5.49 5.02-5.49 3.16 0 4.82 2.15 4.82 5.25v.79h-6.95Zm0-1.74h4.22c0-1.25-.69-2.26-2.1-2.26-1.34 0-2.13 1.12-2.12 2.26Zm11.523 1.74c-.01 1.58.81 2.59 2.21 2.59 1 0 1.8-.4 2.1-1.37h2.63c-.35 2.21-2.51 3.48-4.66 3.48-3.07 0-5.17-2.04-5.17-5.25 0-3.11 1.85-5.49 5.02-5.49 3.16 0 4.82 2.15 4.82 5.25v.79h-6.95Zm0-1.74h4.22c0-1.25-.69-2.26-2.1-2.26-1.34 0-2.13 1.12-2.12 2.26Zm16.577 6.44c-1.97 0-3.49-1.14-3.49-3.16 0-2.26 1.63-3.46 5.28-3.5l1.3-.02v-.62c0-.95-.54-1.48-1.71-1.47-.85.01-1.71.36-2 1.31h-2.43c.11-2.24 1.98-3.28 4.57-3.28 3.16 0 4.37 1.24 4.37 3.27V656h-2.44l-.24-1.78c-.71 1.5-1.76 1.98-3.21 1.98Zm.99-1.92c1.05 0 2.09-.84 2.1-1.73v-1.53l-1.05.02c-1.46.02-2.76.45-2.76 1.71 0 .96.75 1.53 1.71 1.53Zm7.268 1.72v-10.34h2.87v1.46c.47-.75 1.37-1.55 3-1.55 1.89 0 3.62 1.05 3.62 3.61V656h-2.92v-6.46c0-1.12-.77-1.68-1.72-1.68-.96 0-1.93.51-1.93 1.52V656h-2.92Zm15.765.2c-2.78 0-4.4-2.01-4.4-5.43 0-3.24 1.45-5.31 4.11-5.31 1.48 0 2.62.72 3.12 1.6v-5.92h2.93V656h-2.12l-.33-2.12c-.37 1.14-1.27 2.32-3.31 2.32Zm.64-2.1c1.47 0 2.19-.93 2.19-3.37-.02-2.11-.72-3.15-2.17-3.15-1.27 0-2.21.88-2.21 3.15 0 2.3.85 3.37 2.19 3.37Zm16.513-8.64c2.59 0 4.2 1.75 4.36 3.97h-2.43c-.13-.82-.71-1.75-1.91-1.75-1.36 0-2.29 1.04-2.29 3.17 0 2.02.87 3.28 2.35 3.28 1.18 0 1.76-1.03 1.88-1.74h2.37c-.13 2.14-1.8 3.81-4.33 3.81-2.88 0-4.99-2.02-4.99-5.33 0-3.21 1.98-5.41 4.99-5.41Zm10.908 10.74c-3.04 0-5-2.05-5-5.31s1.94-5.43 5.01-5.43c3.05 0 4.99 2.12 4.99 5.43 0 3.11-1.85 5.31-5 5.31Zm.01-2.17c1.53 0 2.13-1.5 2.13-3.24 0-1.64-.51-3.18-2.13-3.18-1.55 0-2.16 1.42-2.16 3.18 0 1.62.52 3.24 2.16 3.24Zm6.984 1.97v-10.34h2.87v1.46c.47-.75 1.37-1.55 3-1.55 1.89 0 3.62 1.05 3.62 3.61V656h-2.92v-6.46c0-1.12-.77-1.68-1.72-1.68-.96 0-1.93.51-1.93 1.52V656h-2.92Zm17.744-8.31h-2.3l.02 5.51c0 .76.28.86.92.86h1.39v1.8c-.28.12-.8.25-1.81.25-2.73 0-3.43-1.13-3.43-2.79v-5.63h-1.68v-2.03h1.77l.74-3.12h2.08v3.11h2.3v2.04Zm4.92-6.14v2.63h-2.84v-2.63h2.84Zm-.02 4.11V656h-2.79v-10.34h2.79Zm2.571 10.34v-10.34h2.87v1.46c.47-.75 1.37-1.55 3-1.55 1.89 0 3.62 1.05 3.62 3.61V656h-2.92v-6.46c0-1.12-.77-1.68-1.72-1.68-.96 0-1.93.51-1.93 1.52V656h-2.92Zm15.665.2c-1.9-.01-3.94-1.19-3.94-3.39v-7.15h2.92v6.78c0 .96.64 1.64 1.85 1.64 1.14 0 1.87-.62 1.87-1.69v-6.73h2.89V656h-2.2l-.34-2.05c-.37 1.81-1.83 2.26-3.05 2.25Zm10.555-4.7c-.01 1.58.81 2.59 2.21 2.59 1 0 1.8-.4 2.1-1.37h2.63c-.35 2.21-2.51 3.48-4.66 3.48-3.07 0-5.17-2.04-5.17-5.25 0-3.11 1.85-5.49 5.02-5.49 3.16 0 4.82 2.15 4.82 5.25v.79h-6.95Zm0-1.74h4.22c0-1.25-.69-2.26-2.1-2.26-1.34 0-2.13 1.12-2.12 2.26Z" fill="#fff"/><path stroke="#CEDCED" d="M80 714.5h460"/><path d="M86.018 733.272c2.44 0 4.152 1.704 4.368 3.728H88.81c-.264-1.36-1.208-2.44-2.832-2.44-2.112 0-3.24 1.432-3.24 4.632 0 3.224 1.128 4.68 3.24 4.68 1.624 0 2.568-1.16 2.832-2.512h1.576c-.24 1.976-1.608 3.8-4.368 3.8-3.12 0-4.92-2.208-4.92-5.984 0-3.768 1.784-5.904 4.92-5.904Zm8.667 11.888c-1.608 0-2.728-.888-2.728-2.4 0-1.832 1.208-2.704 4.04-2.768l1.472-.04v-.648c0-1.008-.592-1.648-1.864-1.648-.952.008-1.752.424-1.952 1.408h-1.304c.088-1.608 1.32-2.496 3.328-2.496 2.152 0 3.224.928 3.224 2.656V745h-1.264l-.112-1.552c-.64 1.288-1.656 1.712-2.84 1.712Zm.44-1.064c1.112 0 2.344-.896 2.344-1.816v-1.416l-1.224.024c-1.904.032-2.856.504-2.856 1.728 0 .936.72 1.48 1.736 1.48Zm6.083.904v-8.272h1.432v1.2c.408-.688 1.264-1.32 2.592-1.32 1.568 0 2.896.904 2.896 2.984V745h-1.48v-5.264c0-1.288-.744-1.904-1.824-1.904-1.12 0-2.144.528-2.144 1.64V745h-1.472Zm12.563-8.432c1.776 0 3.096 1.088 3.32 2.776h-1.312c-.144-.872-.864-1.584-2-1.584-1.416 0-2.4 1.008-2.4 3.12 0 1.912.832 3.152 2.416 3.152 1.136 0 1.856-.752 2-1.584h1.288c-.216 1.664-1.56 2.712-3.312 2.712-2.24 0-3.808-1.488-3.808-4.264 0-2.576 1.368-4.328 3.808-4.328Zm6.4 4.64c0 1.568.776 2.808 2.384 2.808 1.056 0 1.888-.496 2.096-1.432h1.392c-.304 1.688-1.856 2.576-3.464 2.576-2.312 0-3.904-1.576-3.904-4.216 0-2.608 1.392-4.376 3.8-4.376 2.328 0 3.624 1.584 3.624 4.096v.544h-5.928Zm.008-1h4.496c0-1.424-.712-2.52-2.208-2.52-1.56 0-2.296 1.288-2.288 2.52Zm10.055 4.896c-1.784 0-2.088-1.072-2.088-2.232v-9.76h1.456v9.616c0 .84.344 1.24.928 1.28l.448.008v.96c-.248.08-.536.128-.744.128Zm-50 3.416H91.25v1.12H80.234v-1.12Zm10.907 0h8.848v1.12H91.14v-1.12Zm8.843 0h17.931v1.12h-17.93v-1.12Zm17.875 0h9.064v1.12h-9.064v-1.12Zm9.063 0h4.848v1.12h-4.848v-1.12Z" fill="#0071BB"/><defs><clipPath id="a"><path fill="#fff" transform="translate(80 64)" d="M0 0h458.211v117H0z"/></clipPath></defs></svg>