<svg width="620" height="683" viewBox="0 0 620 683" fill="none" xmlns="http://www.w3.org/2000/svg"><path fill="#fff" d="M0 0h620v683H0z"/><g filter="url(#a)"><path d="M124 152c24.301 0 44-19.699 44-44 0-24.3-19.699-44-44-44-24.3 0-44 19.7-44 44 0 24.301 19.7 44 44 44Z" fill="#fff"/></g><path d="M124 147.601c21.871 0 39.601-17.73 39.601-39.601 0-21.87-17.73-39.6-39.601-39.6S84.399 86.13 84.399 108c0 21.871 17.73 39.601 39.601 39.601Z" fill="#008099"/><path d="M124 143.641c19.684 0 35.641-15.957 35.641-35.641 0-19.684-15.957-35.64-35.641-35.64-19.684 0-35.641 15.956-35.641 35.64s15.957 35.641 35.641 35.641Z" fill="#fff"/><path d="M123.999 126.691c-10.307 0-18.69-8.384-18.69-18.691 0-10.306 8.383-18.69 18.69-18.69 10.307 0 18.691 8.383 18.691 18.69 0 10.307-8.384 18.691-18.691 18.691Z" fill="#008099"/><path d="M124 89.31v37.381c10.306 0 18.69-8.384 18.69-18.691 0-10.306-8.384-18.69-18.69-18.69Z" fill="#006175"/><path d="M123.088 108.343c.754-1.363 2.207-2.167 3.051-3.375.893-1.265.392-3.63-2.14-3.63-1.657 0-2.473 1.255-2.816 2.297l-2.541-1.069c.696-2.09 2.591-3.886 5.345-3.886 2.306 0 3.886 1.05 4.69 2.365.686 1.128 1.088 3.236.031 4.807-1.178 1.737-2.306 2.266-2.912 3.385-.245.451-.344.745-.344 2.198h-2.834c-.01-.767-.127-2.01.47-3.092Zm2.875 7.015a1.97 1.97 0 0 1-1.964 1.963 1.97 1.97 0 0 1-1.963-1.963 1.97 1.97 0 0 1 1.963-1.963 1.97 1.97 0 0 1 1.964 1.963Z" fill="#fff"/><path d="M89.87 213.28c-4.004 0-8.05-2.002-8.47-6.062h4.186c.406 1.834 2.072 2.856 4.27 2.856 2.226 0 4.088-.826 4.088-2.548 0-1.526-1.484-2.17-3.43-2.562l-3.5-.714c-3.052-.588-4.984-2.436-5.026-5.544-.042-3.808 3.388-6.202 7.784-6.202 5.222 0 8.022 2.716 8.078 6.132h-4.102c-.224-2.128-1.792-2.884-3.906-2.884-2.184 0-3.57 1.008-3.57 2.478 0 1.176.63 1.862 2.786 2.324l3.472.714c4.942.952 5.516 4.13 5.516 6.23 0 3.262-3.29 5.782-8.176 5.782Zm14.588-6.58c-.014 2.212 1.134 3.626 3.094 3.626 1.4 0 2.52-.56 2.94-1.918h3.682c-.49 3.094-3.514 4.872-6.524 4.872-4.298 0-7.238-2.856-7.238-7.35 0-4.354 2.59-7.686 7.028-7.686 4.424 0 6.748 3.01 6.748 7.35v1.106h-9.73Zm0-2.436h5.908c0-1.75-.966-3.164-2.94-3.164-1.876 0-2.982 1.568-2.968 3.164Zm17.295 8.988c-4.284 0-4.62-2.226-4.62-4.312v-16.744h4.004v16.24c0 1.064.378 1.764 1.638 1.904l.686.042v2.52c-.56.196-1.162.35-1.708.35Zm7.205-6.552c-.014 2.212 1.134 3.626 3.094 3.626 1.4 0 2.52-.56 2.94-1.918h3.682c-.49 3.094-3.514 4.872-6.524 4.872-4.298 0-7.238-2.856-7.238-7.35 0-4.354 2.59-7.686 7.028-7.686 4.424 0 6.748 3.01 6.748 7.35v1.106h-9.73Zm0-2.436h5.908c0-1.75-.966-3.164-2.94-3.164-1.876 0-2.982 1.568-2.968 3.164Zm18.975-6.02c3.626 0 5.88 2.45 6.104 5.558h-3.402c-.182-1.148-.994-2.45-2.674-2.45-1.904 0-3.206 1.456-3.206 4.438 0 2.828 1.218 4.592 3.29 4.592 1.652 0 2.464-1.442 2.632-2.436h3.318c-.182 2.996-2.52 5.334-6.062 5.334-4.032 0-6.986-2.828-6.986-7.462 0-4.494 2.772-7.574 6.986-7.574Zm17.311 3.122h-3.22l.028 7.714c0 1.064.392 1.204 1.288 1.204h1.946v2.52c-.392.168-1.12.35-2.534.35-3.822 0-4.802-1.582-4.802-3.906v-7.882h-2.352v-2.842h2.478l1.036-4.368h2.912v4.354h3.22v2.856Zm11.415 16.254c-1.988 0-2.716-.49-2.716-.49v-2.604l1.442.056c2.506.154 2.828-.966 2.996-1.386l.266-.798-5.628-13.874h4.046l3.472 9.436 3.5-9.436h4.004l-5.866 14.56c-1.512 3.696-3.262 4.536-5.516 4.536Zm19.385-4.34c-4.256 0-7-2.87-7-7.434s2.716-7.602 7.014-7.602c4.27 0 6.986 2.968 6.986 7.602 0 4.354-2.59 7.434-7 7.434Zm.014-3.038c2.142 0 2.982-2.1 2.982-4.536 0-2.296-.714-4.452-2.982-4.452-2.17 0-3.024 1.988-3.024 4.452 0 2.268.728 4.536 3.024 4.536Zm15.003 3.038c-2.66-.014-5.516-1.666-5.516-4.746v-10.01h4.088v9.492c0 1.344.896 2.296 2.59 2.296 1.596 0 2.618-.868 2.618-2.366v-9.422h4.046V213h-3.08l-.476-2.87c-.518 2.534-2.562 3.164-4.27 3.15Zm11.4-.28v-14.476h3.934v3.43c.686-2.212 2.31-3.71 4.592-3.71.266 0 .518.028.63.084v3.892c-.168-.07-.42-.084-.616-.098-3.22-.28-4.452 1.008-4.452 2.954V213h-4.088Zm17.855 4.508v-18.984h4.102l.014 2.086c.882-1.344 2.52-2.366 4.494-2.366 3.234 0 5.572 2.338 5.572 7.406 0 5.25-2.548 7.63-5.978 7.63-1.862 0-3.318-1.092-4.116-2.45v6.678h-4.088Zm7.224-7.224c1.764 0 3.136-1.4 3.136-4.606 0-2.786-1.26-4.466-3.136-4.466-2.128 0-3.136 1.932-3.136 4.466 0 2.422 1.008 4.606 3.136 4.606Zm9.784 2.716v-14.476h3.934v3.43c.686-2.212 2.31-3.71 4.592-3.71.266 0 .518.028.63.084v3.892c-.168-.07-.42-.084-.616-.098-3.22-.28-4.452 1.008-4.452 2.954V213h-4.088Zm14.97-6.3c-.014 2.212 1.134 3.626 3.094 3.626 1.4 0 2.52-.56 2.94-1.918h3.682c-.49 3.094-3.514 4.872-6.524 4.872-4.298 0-7.238-2.856-7.238-7.35 0-4.354 2.59-7.686 7.028-7.686 4.424 0 6.748 3.01 6.748 7.35v1.106h-9.73Zm0-2.436h5.908c0-1.75-.966-3.164-2.94-3.164-1.876 0-2.982 1.568-2.968 3.164Zm21.043-5.74v2.842h-3.052V213h-4.102v-11.634h-2.674v-2.842h2.674v-2.086c0-2.338 1.442-3.682 3.948-3.682h3.318l.028 2.716h-1.918c-1.036 0-1.358.476-1.358 1.652v1.4h3.136Zm5.699 8.176c-.014 2.212 1.134 3.626 3.094 3.626 1.4 0 2.52-.56 2.94-1.918h3.682c-.49 3.094-3.514 4.872-6.524 4.872-4.298 0-7.238-2.856-7.238-7.35 0-4.354 2.59-7.686 7.028-7.686 4.424 0 6.748 3.01 6.748 7.35v1.106h-9.73Zm0-2.436h5.908c0-1.75-.966-3.164-2.94-3.164-1.876 0-2.982 1.568-2.968 3.164ZM311.711 213v-14.476h3.934v3.43c.686-2.212 2.31-3.71 4.592-3.71.266 0 .518.028.63.084v3.892c-.168-.07-.42-.084-.616-.098-3.22-.28-4.452 1.008-4.452 2.954V213h-4.088Zm11.539 0v-14.476h3.934v3.43c.686-2.212 2.31-3.71 4.592-3.71.266 0 .518.028.63.084v3.892c-.168-.07-.42-.084-.616-.098-3.22-.28-4.452 1.008-4.452 2.954V213h-4.088Zm14.97-6.3c-.014 2.212 1.134 3.626 3.094 3.626 1.4 0 2.52-.56 2.94-1.918h3.682c-.49 3.094-3.514 4.872-6.524 4.872-4.298 0-7.238-2.856-7.238-7.35 0-4.354 2.59-7.686 7.028-7.686 4.424 0 6.748 3.01 6.748 7.35v1.106h-9.73Zm0-2.436h5.908c0-1.75-.966-3.164-2.94-3.164-1.876 0-2.982 1.568-2.968 3.164Zm18.149 9.016c-3.892 0-6.16-2.814-6.16-7.602 0-4.536 2.03-7.434 5.754-7.434 2.072 0 3.668 1.008 4.368 2.24v-8.288h4.102V213h-2.968l-.462-2.968c-.518 1.596-1.778 3.248-4.634 3.248Zm.896-2.94c2.058 0 3.066-1.302 3.066-4.718-.028-2.954-1.008-4.41-3.038-4.41-1.778 0-3.094 1.232-3.094 4.41 0 3.22 1.19 4.718 3.066 4.718Zm20.275-3.64c-.014 2.212 1.134 3.626 3.094 3.626 1.4 0 2.52-.56 2.94-1.918h3.682c-.49 3.094-3.514 4.872-6.524 4.872-4.298 0-7.238-2.856-7.238-7.35 0-4.354 2.59-7.686 7.028-7.686 4.424 0 6.748 3.01 6.748 7.35v1.106h-9.73Zm0-2.436h5.908c0-1.75-.966-3.164-2.94-3.164-1.876 0-2.982 1.568-2.968 3.164ZM390.215 213v-14.476h4.004v2.044c.868-1.274 2.31-2.324 4.578-2.324 1.484 0 3.206.798 4.06 2.324.938-1.316 2.506-2.324 4.382-2.324 2.156 0 4.732 1.302 4.732 5.208V213h-4.088v-9.044c0-1.75-1.162-2.38-2.324-2.38-1.078 0-2.45.616-2.45 2.156V213h-4.074v-9.408c0-1.316-1.218-2.016-2.296-2.016-1.12 0-2.436.7-2.436 2.156V213h-4.088Zm29.263.28c-2.758 0-4.886-1.596-4.886-4.424 0-3.164 2.282-4.844 7.392-4.9l1.82-.028v-.868c0-1.33-.756-2.072-2.394-2.058-1.19.014-2.394.504-2.8 1.834h-3.402c.154-3.136 2.772-4.592 6.398-4.592 4.424 0 6.118 1.736 6.118 4.578V213h-3.416l-.336-2.492c-.994 2.1-2.464 2.772-4.494 2.772Zm1.386-2.688c1.47 0 2.926-1.176 2.94-2.422v-2.142l-1.47.028c-2.044.028-3.864.63-3.864 2.394 0 1.344 1.05 2.142 2.394 2.142Zm14.151-17.822v3.682h-3.976v-3.682h3.976Zm-.028 5.754V213h-3.906v-14.476h3.906Zm8.219 14.728c-4.284 0-4.62-2.226-4.62-4.312v-16.744h4.004v16.24c0 1.064.378 1.764 1.638 1.904l.686.042v2.52c-.56.196-1.162.35-1.708.35ZM85.448 255.16a6.31 6.31 0 0 1-1.608-.2 4.858 4.858 0 0 1-1.384-.616 3.686 3.686 0 0 1-1.024-1.008 3.296 3.296 0 0 1-.504-1.408h1.552c.096.437.285.805.568 1.104.288.299.643.523 1.064.672a4.22 4.22 0 0 0 1.4.224 3.8 3.8 0 0 0 1.352-.232c.416-.155.75-.379 1-.672.25-.299.376-.656.376-1.072 0-.459-.15-.827-.448-1.104-.299-.283-.76-.509-1.384-.68l-2.384-.616a5.48 5.48 0 0 1-1.432-.56 2.731 2.731 0 0 1-.968-.96c-.235-.4-.352-.896-.352-1.488 0-.656.181-1.227.544-1.712.363-.491.853-.869 1.472-1.136.624-.272 1.328-.408 2.112-.408.907 0 1.67.157 2.288.472.624.315 1.096.728 1.416 1.24.32.512.48 1.059.48 1.64h-1.52c-.048-.528-.203-.944-.464-1.248a2.176 2.176 0 0 0-.976-.664 3.757 3.757 0 0 0-1.272-.208c-.827 0-1.453.189-1.88.568-.421.373-.632.819-.632 1.336 0 .475.152.848.456 1.12.304.272.752.483 1.344.632l2.32.6c.688.16 1.235.392 1.64.696.41.304.704.659.88 1.064.181.4.272.835.272 1.304 0 .64-.179 1.211-.536 1.712-.357.501-.859.896-1.504 1.184-.64.283-1.395.424-2.264.424Zm9.99 0c-.767 0-1.445-.168-2.031-.504a3.505 3.505 0 0 1-1.376-1.448c-.33-.629-.496-1.384-.496-2.264 0-.869.15-1.632.448-2.288a3.52 3.52 0 0 1 1.296-1.536c.57-.368 1.256-.552 2.056-.552.778 0 1.437.168 1.976.504.538.336.946.811 1.224 1.424.282.608.424 1.331.424 2.168v.544H93.03c0 .523.085.997.256 1.424.176.421.44.757.792 1.008.352.251.797.376 1.336.376.528 0 .981-.123 1.36-.368.384-.245.63-.6.736-1.064h1.392A2.727 2.727 0 0 1 98.23 254a3.35 3.35 0 0 1-1.256.872 4.138 4.138 0 0 1-1.536.288Zm-2.4-4.952h4.497c0-.475-.08-.901-.24-1.28a1.96 1.96 0 0 0-.736-.904c-.326-.224-.736-.336-1.232-.336-.518 0-.947.125-1.288.376a2.217 2.217 0 0 0-.76.952 2.885 2.885 0 0 0-.24 1.192Zm10.055 4.896c-.448 0-.81-.061-1.088-.184a1.537 1.537 0 0 1-.632-.496 1.893 1.893 0 0 1-.296-.712 4.825 4.825 0 0 1-.072-.84v-9.76h1.456v9.616c0 .416.08.728.24.936a.922.922 0 0 0 .688.344l.448.008v.96c-.122.037-.25.067-.384.088-.133.027-.253.04-.36.04Zm5.861.056c-.768 0-1.445-.168-2.032-.504a3.511 3.511 0 0 1-1.376-1.448c-.33-.629-.496-1.384-.496-2.264 0-.869.15-1.632.448-2.288.299-.656.731-1.168 1.296-1.536.571-.368 1.256-.552 2.056-.552.779 0 1.438.168 1.976.504a3.17 3.17 0 0 1 1.224 1.424c.283.608.424 1.331.424 2.168v.544h-5.928c0 .523.086.997.256 1.424.176.421.44.757.792 1.008.352.251.798.376 1.336.376.528 0 .982-.123 1.36-.368.384-.245.63-.6.736-1.064h1.392a2.726 2.726 0 0 1-.672 1.416 3.342 3.342 0 0 1-1.256.872 4.135 4.135 0 0 1-1.536.288Zm-2.4-4.952h4.496c0-.475-.08-.901-.24-1.28a1.957 1.957 0 0 0-.736-.904c-.325-.224-.736-.336-1.232-.336-.517 0-.946.125-1.288.376a2.225 2.225 0 0 0-.76.952 2.898 2.898 0 0 0-.24 1.192Zm11.295 4.952c-.747 0-1.408-.163-1.984-.488-.571-.325-1.019-.805-1.344-1.44-.32-.635-.48-1.413-.48-2.336 0-.864.147-1.619.44-2.264a3.489 3.489 0 0 1 1.296-1.52c.571-.363 1.261-.544 2.072-.544.592 0 1.123.115 1.592.344.475.224.864.544 1.168.96.304.416.491.907.56 1.472h-1.312a1.832 1.832 0 0 0-.336-.792 1.844 1.844 0 0 0-.68-.576c-.277-.144-.605-.216-.984-.216-.709 0-1.288.256-1.736.768-.443.512-.664 1.296-.664 2.352 0 .955.203 1.72.608 2.296.411.571 1.013.856 1.808.856.379 0 .709-.072.992-.216.283-.149.509-.344.68-.584.171-.245.28-.507.328-.784h1.288a2.92 2.92 0 0 1-.568 1.44c-.304.405-.693.72-1.168.944a3.682 3.682 0 0 1-1.576.328Zm8.032-.12c-.571 0-1.013-.077-1.328-.232a1.325 1.325 0 0 1-.664-.688c-.123-.304-.184-.677-.184-1.12v-5.192h-1.344v-1.08h1.384l.36-2.408h1.088v2.4h1.864v1.088h-1.864v5.144c0 .293.029.509.088.648a.458.458 0 0 0 .312.256c.144.037.347.056.608.056h.904v.992a2.321 2.321 0 0 1-.464.096c-.203.027-.456.04-.76.04Zm10.186.12c-.762 0-1.429-.163-2-.488-.565-.331-1.005-.813-1.32-1.448-.314-.635-.472-1.411-.472-2.328 0-.864.147-1.621.44-2.272.294-.651.723-1.155 1.288-1.512.566-.363 1.256-.544 2.072-.544.763 0 1.424.168 1.984.504.56.331.995.819 1.304 1.464.315.645.472 1.432.472 2.36 0 .843-.144 1.584-.432 2.224a3.418 3.418 0 0 1-1.272 1.504c-.554.357-1.242.536-2.064.536Zm.008-1.168c.491 0 .907-.125 1.248-.376.342-.251.6-.611.776-1.08.182-.469.272-1.027.272-1.672 0-.592-.08-1.123-.24-1.592-.154-.475-.4-.851-.736-1.128-.336-.277-.776-.416-1.32-.416-.501 0-.925.125-1.272.376-.346.245-.61.603-.792 1.072-.176.469-.264 1.032-.264 1.688 0 .581.078 1.109.232 1.584.16.475.411.851.752 1.128.347.277.795.416 1.344.416Zm5.727 1.008v-8.272h1.408v1.592c.139-.395.333-.72.584-.976.251-.261.536-.456.856-.584a2.727 2.727 0 0 1 1.368-.168.76.76 0 0 1 .272.08v1.432a.944.944 0 0 0-.312-.072 2.484 2.484 0 0 0-.312-.024 3.3 3.3 0 0 0-.928.064 2.074 2.074 0 0 0-.76.312 1.596 1.596 0 0 0-.52.592c-.123.24-.184.533-.184.88V255h-1.472Zm12.461.16c-.539 0-1.014-.093-1.424-.28a2.293 2.293 0 0 1-.96-.824c-.23-.357-.344-.789-.344-1.296 0-.917.32-1.6.96-2.048.64-.448 1.666-.688 3.08-.72l1.472-.04v-.648c0-.507-.152-.907-.456-1.2-.304-.299-.774-.448-1.408-.448a2.43 2.43 0 0 0-1.256.336c-.363.219-.595.576-.696 1.072h-1.304c.032-.539.181-.992.448-1.36.272-.373.653-.656 1.144-.848.49-.192 1.069-.288 1.736-.288.72 0 1.317.101 1.792.304.48.203.837.501 1.072.896.24.395.36.88.36 1.456V255h-1.264l-.112-1.552c-.315.645-.72 1.093-1.216 1.344a3.585 3.585 0 0 1-1.624.368Zm.44-1.064c.282 0 .56-.051.832-.152.277-.101.528-.237.752-.408.229-.176.413-.371.552-.584.138-.219.208-.443.208-.672v-1.416l-1.224.024c-.635.011-1.163.075-1.584.192-.422.117-.739.301-.952.552-.214.251-.32.579-.32.984 0 .464.162.827.488 1.088.325.261.741.392 1.248.392Zm9.1 1.064c-1.078 0-1.931-.368-2.56-1.104-.624-.736-.936-1.811-.936-3.224 0-.859.125-1.608.376-2.248.25-.64.626-1.136 1.128-1.488.501-.352 1.125-.528 1.872-.528.4 0 .752.051 1.056.152.304.101.568.229.792.384a2.755 2.755 0 0 1 .864.936v-4.928h1.496V255h-1.136l-.16-1.696c-.054.16-.139.347-.256.56a2.71 2.71 0 0 1-.496.616c-.208.197-.48.36-.816.488-.336.128-.744.192-1.224.192Zm.264-1.136c.832 0 1.426-.253 1.784-.76.362-.512.544-1.347.544-2.504-.006-.645-.086-1.195-.24-1.648-.155-.453-.4-.797-.736-1.032-.331-.24-.774-.36-1.328-.36-.678 0-1.23.243-1.656.728-.427.485-.64 1.256-.64 2.312 0 1.035.192 1.837.576 2.408.384.571.949.856 1.696.856Zm9.282 1.136c-1.077 0-1.93-.368-2.56-1.104-.624-.736-.936-1.811-.936-3.224 0-.859.126-1.608.376-2.248.251-.64.627-1.136 1.128-1.488.502-.352 1.126-.528 1.872-.528.4 0 .752.051 1.056.152.304.101.568.229.792.384.224.155.406.315.544.48.144.165.251.317.32.456v-4.928h1.496V255h-1.136l-.16-1.696c-.053.16-.138.347-.256.56a2.657 2.657 0 0 1-.496.616c-.208.197-.48.36-.816.488-.336.128-.744.192-1.224.192Zm.264-1.136c.832 0 1.427-.253 1.784-.76.363-.512.544-1.347.544-2.504-.005-.645-.085-1.195-.24-1.648-.154-.453-.4-.797-.736-1.032-.33-.24-.773-.36-1.328-.36-.677 0-1.229.243-1.656.728-.426.485-.64 1.256-.64 2.312 0 1.035.192 1.837.576 2.408.384.571.95.856 1.696.856Zm13.19 1.016c-.571 0-1.013-.077-1.328-.232a1.325 1.325 0 0 1-.664-.688c-.123-.304-.184-.677-.184-1.12v-5.192h-1.344v-1.08h1.384l.36-2.408h1.088v2.4h1.864v1.088h-1.864v5.144c0 .293.029.509.088.648a.458.458 0 0 0 .312.256c.144.037.347.056.608.056h.904v.992a2.321 2.321 0 0 1-.464.096c-.203.027-.456.04-.76.04Zm3.187-.04v-11.888h1.44v4.832c.138-.229.325-.443.56-.64.234-.203.52-.365.856-.488a3.269 3.269 0 0 1 1.168-.192 3.44 3.44 0 0 1 1.464.304c.437.197.784.48 1.04.848s.384.805.384 1.312V255h-1.48v-5.616c0-.496-.171-.877-.512-1.144-.336-.272-.776-.408-1.32-.408-.368 0-.715.061-1.04.184-.326.117-.59.299-.792.544-.198.24-.296.547-.296.92V255h-1.472Zm12.714.16c-.768 0-1.445-.168-2.032-.504a3.511 3.511 0 0 1-1.376-1.448c-.33-.629-.496-1.384-.496-2.264 0-.869.15-1.632.448-2.288.299-.656.731-1.168 1.296-1.536.571-.368 1.256-.552 2.056-.552.779 0 1.438.168 1.976.504a3.17 3.17 0 0 1 1.224 1.424c.283.608.424 1.331.424 2.168v.544h-5.928c0 .523.086.997.256 1.424.176.421.44.757.792 1.008.352.251.798.376 1.336.376.528 0 .982-.123 1.36-.368.384-.245.63-.6.736-1.064h1.392a2.726 2.726 0 0 1-.672 1.416 3.342 3.342 0 0 1-1.256.872 4.135 4.135 0 0 1-1.536.288Zm-2.4-4.952h4.496c0-.475-.08-.901-.24-1.28a1.957 1.957 0 0 0-.736-.904c-.325-.224-.736-.336-1.232-.336-.517 0-.946.125-1.288.376a2.225 2.225 0 0 0-.76.952 2.898 2.898 0 0 0-.24 1.192Zm15.057 4.952c-.768 0-1.446-.168-2.032-.504a3.499 3.499 0 0 1-1.376-1.448c-.331-.629-.496-1.384-.496-2.264 0-.869.149-1.632.448-2.288a3.52 3.52 0 0 1 1.296-1.536c.57-.368 1.256-.552 2.056-.552.778 0 1.437.168 1.976.504.538.336.946.811 1.224 1.424.282.608.424 1.331.424 2.168v.544h-5.928c0 .523.085.997.256 1.424.176.421.44.757.792 1.008.352.251.797.376 1.336.376.528 0 .981-.123 1.36-.368.384-.245.629-.6.736-1.064h1.392a2.726 2.726 0 0 1-.672 1.416 3.358 3.358 0 0 1-1.256.872 4.142 4.142 0 0 1-1.536.288Zm-2.4-4.952h4.496c0-.475-.08-.901-.24-1.28a1.963 1.963 0 0 0-.736-.904c-.326-.224-.736-.336-1.232-.336-.518 0-.947.125-1.288.376a2.21 2.21 0 0 0-.76.952 2.866 2.866 0 0 0-.24 1.192Zm7.966 4.792v-8.272h1.424v1.2c.229-.363.544-.68.944-.952.4-.272.92-.408 1.56-.408.299 0 .603.051.912.152.315.101.603.253.864.456s.464.451.608.744a2.864 2.864 0 0 1 1.04-.976 2.919 2.919 0 0 1 1.48-.376c.288 0 .589.045.904.136.315.085.605.24.872.464.272.219.493.525.664.92.171.389.256.891.256 1.504V255h-1.488v-5.264c0-.501-.08-.888-.24-1.16a1.335 1.335 0 0 0-.632-.584 2.034 2.034 0 0 0-.824-.168 2.47 2.47 0 0 0-.816.152 1.678 1.678 0 0 0-.736.512c-.203.24-.304.568-.304.984V255h-1.472v-5.696c0-.325-.088-.597-.264-.816a1.615 1.615 0 0 0-.648-.496 1.902 1.902 0 0 0-.768-.168c-.283 0-.568.056-.856.168a1.729 1.729 0 0 0-.72.536c-.192.24-.288.555-.288.944V255h-1.472Zm16.133.16c-.539 0-1.014-.093-1.424-.28a2.293 2.293 0 0 1-.96-.824c-.23-.357-.344-.789-.344-1.296 0-.917.32-1.6.96-2.048.64-.448 1.666-.688 3.08-.72l1.472-.04v-.648c0-.507-.152-.907-.456-1.2-.304-.299-.774-.448-1.408-.448a2.43 2.43 0 0 0-1.256.336c-.363.219-.595.576-.696 1.072h-1.304c.032-.539.181-.992.448-1.36.272-.373.653-.656 1.144-.848.49-.192 1.069-.288 1.736-.288.72 0 1.317.101 1.792.304.48.203.837.501 1.072.896.24.395.36.88.36 1.456V255h-1.264l-.112-1.552c-.315.645-.72 1.093-1.216 1.344a3.585 3.585 0 0 1-1.624.368Zm.44-1.064c.282 0 .56-.051.832-.152.277-.101.528-.237.752-.408.229-.176.413-.371.552-.584.138-.219.208-.443.208-.672v-1.416l-1.224.024c-.635.011-1.163.075-1.584.192-.422.117-.739.301-.952.552-.214.251-.32.579-.32.984 0 .464.162.827.488 1.088.325.261.741.392 1.248.392Zm6.123.904v-8.272h1.432V255h-1.432Zm-.04-10.024v-1.536h1.512v1.536h-1.512Zm6.135 10.128c-.448 0-.81-.061-1.088-.184a1.537 1.537 0 0 1-.632-.496 1.893 1.893 0 0 1-.296-.712 4.825 4.825 0 0 1-.072-.84v-9.76h1.456v9.616c0 .416.08.728.24.936a.922.922 0 0 0 .688.344l.448.008v.96c-.122.037-.25.067-.384.088-.133.027-.253.04-.36.04Zm7.377 2.536c-.485 0-.819-.035-1-.104l-.272-.104v-.96l.848.016c.304.011.557-.011.76-.064.203-.053.365-.125.488-.216a.997.997 0 0 0 .28-.304 2.43 2.43 0 0 0 .168-.32l.288-.784-3.232-8.072h1.496l2.44 6.384 2.424-6.384h1.448l-3.48 8.896c-.219.523-.461.931-.728 1.224a2.158 2.158 0 0 1-.88.616c-.32.117-.669.176-1.048.176Zm10.894-2.48c-.763 0-1.429-.163-2-.488-.565-.331-1.005-.813-1.32-1.448-.315-.635-.472-1.411-.472-2.328 0-.864.147-1.621.44-2.272.293-.651.723-1.155 1.288-1.512.565-.363 1.256-.544 2.072-.544.763 0 1.424.168 1.984.504.56.331.995.819 1.304 1.464.315.645.472 1.432.472 2.36 0 .843-.144 1.584-.432 2.224a3.418 3.418 0 0 1-1.272 1.504c-.555.357-1.243.536-2.064.536Zm.008-1.168c.491 0 .907-.125 1.248-.376.341-.251.6-.611.776-1.08.181-.469.272-1.027.272-1.672 0-.592-.08-1.123-.24-1.592-.155-.475-.4-.851-.736-1.128-.336-.277-.776-.416-1.32-.416-.501 0-.925.125-1.272.376-.347.245-.611.603-.792 1.072-.176.469-.264 1.032-.264 1.688 0 .581.077 1.109.232 1.584.16.475.411.851.752 1.128.347.277.795.416 1.344.416Zm8.736 1.168a4.352 4.352 0 0 1-1.224-.184 3.145 3.145 0 0 1-1.008-.536 2.519 2.519 0 0 1-.696-.872c-.166-.352-.248-.76-.248-1.224v-5.616h1.48v5.464c0 .539.165.976.496 1.312.336.336.84.504 1.512.504.608 0 1.096-.157 1.464-.472.373-.32.56-.795.56-1.424v-5.384h1.472V255h-1.176l-.152-1.584c-.102.416-.275.752-.52 1.008-.24.256-.531.445-.872.568a3.162 3.162 0 0 1-1.088.168Zm6.444-7.992-.464-3.736h1.792l-.48 3.736h-.848Zm5.672 7.992c-1.077 0-1.93-.368-2.56-1.104-.624-.736-.936-1.811-.936-3.224 0-.859.126-1.608.376-2.248.251-.64.627-1.136 1.128-1.488.502-.352 1.126-.528 1.872-.528.4 0 .752.051 1.056.152.304.101.568.229.792.384.224.155.406.315.544.48.144.165.251.317.32.456v-4.928h1.496V255h-1.136l-.16-1.696c-.053.16-.138.347-.256.56a2.657 2.657 0 0 1-.496.616c-.208.197-.48.36-.816.488-.336.128-.744.192-1.224.192Zm.264-1.136c.832 0 1.427-.253 1.784-.76.363-.512.544-1.347.544-2.504-.005-.645-.085-1.195-.24-1.648-.154-.453-.4-.797-.736-1.032-.33-.24-.773-.36-1.328-.36-.677 0-1.229.243-1.656.728-.426.485-.64 1.256-.64 2.312 0 1.035.192 1.837.576 2.408.384.571.95.856 1.696.856Zm12.246 1.08c-.448 0-.811-.061-1.088-.184a1.53 1.53 0 0 1-.632-.496 1.877 1.877 0 0 1-.296-.712 4.825 4.825 0 0 1-.072-.84v-9.76h1.456v9.616c0 .416.08.728.24.936.165.208.395.323.688.344l.448.008v.96a2.905 2.905 0 0 1-.384.088c-.133.027-.253.04-.36.04Zm2.718-.104v-8.272h1.432V255h-1.432Zm-.04-10.024v-1.536h1.512v1.536h-1.512ZM308.083 255v-11.888h1.472v7.752l3.888-4.136h1.696l-2.984 3.152 3.192 5.12h-1.568l-2.592-4.152-1.632 1.688V255h-1.472Zm12.106.16c-.768 0-1.446-.168-2.032-.504a3.499 3.499 0 0 1-1.376-1.448c-.331-.629-.496-1.384-.496-2.264 0-.869.149-1.632.448-2.288a3.52 3.52 0 0 1 1.296-1.536c.57-.368 1.256-.552 2.056-.552.778 0 1.437.168 1.976.504.538.336.946.811 1.224 1.424.282.608.424 1.331.424 2.168v.544h-5.928c0 .523.085.997.256 1.424.176.421.44.757.792 1.008.352.251.797.376 1.336.376.528 0 .981-.123 1.36-.368.384-.245.629-.6.736-1.064h1.392a2.726 2.726 0 0 1-.672 1.416 3.358 3.358 0 0 1-1.256.872 4.142 4.142 0 0 1-1.536.288Zm-2.4-4.952h4.496c0-.475-.08-.901-.24-1.28a1.963 1.963 0 0 0-.736-.904c-.326-.224-.736-.336-1.232-.336-.518 0-.947.125-1.288.376a2.21 2.21 0 0 0-.76.952 2.866 2.866 0 0 0-.24 1.192Zm14.795 4.832c-.571 0-1.013-.077-1.328-.232a1.325 1.325 0 0 1-.664-.688c-.123-.304-.184-.677-.184-1.12v-5.192h-1.344v-1.08h1.384l.36-2.408h1.088v2.4h1.864v1.088h-1.864v5.144c0 .293.029.509.088.648a.458.458 0 0 0 .312.256c.144.037.347.056.608.056h.904v.992a2.321 2.321 0 0 1-.464.096c-.203.027-.456.04-.76.04Zm6.28.12c-.763 0-1.429-.163-2-.488-.565-.331-1.005-.813-1.32-1.448-.315-.635-.472-1.411-.472-2.328 0-.864.147-1.621.44-2.272.293-.651.723-1.155 1.288-1.512.565-.363 1.256-.544 2.072-.544.763 0 1.424.168 1.984.504.56.331.995.819 1.304 1.464.315.645.472 1.432.472 2.36 0 .843-.144 1.584-.432 2.224a3.418 3.418 0 0 1-1.272 1.504c-.555.357-1.243.536-2.064.536Zm.008-1.168c.491 0 .907-.125 1.248-.376.341-.251.6-.611.776-1.08.181-.469.272-1.027.272-1.672 0-.592-.08-1.123-.24-1.592-.155-.475-.4-.851-.736-1.128-.336-.277-.776-.416-1.32-.416-.501 0-.925.125-1.272.376-.347.245-.611.603-.792 1.072-.176.469-.264 1.032-.264 1.688 0 .581.077 1.109.232 1.584.16.475.411.851.752 1.128.347.277.795.416 1.344.416Zm12.564 1.168a4.352 4.352 0 0 1-1.224-.184 3.145 3.145 0 0 1-1.008-.536 2.542 2.542 0 0 1-.696-.872c-.165-.352-.248-.76-.248-1.224v-5.616h1.48v5.464c0 .539.165.976.496 1.312.336.336.84.504 1.512.504.608 0 1.096-.157 1.464-.472.373-.32.56-.795.56-1.424v-5.384h1.472V255h-1.176l-.152-1.584c-.101.416-.275.752-.52 1.008-.24.256-.531.445-.872.568a3.162 3.162 0 0 1-1.088.168Zm9.217 0a4.775 4.775 0 0 1-1.608-.264 2.904 2.904 0 0 1-1.224-.84c-.325-.384-.528-.872-.608-1.464h1.344c.069.325.203.597.4.816.197.213.44.376.728.488.293.107.613.16.96.16.56 0 1.011-.104 1.352-.312.341-.208.512-.528.512-.96 0-.304-.091-.547-.272-.728-.176-.187-.453-.323-.832-.408l-1.712-.424c-.667-.16-1.2-.411-1.6-.752-.395-.341-.595-.819-.6-1.432 0-.485.117-.912.352-1.28s.584-.659 1.048-.872c.469-.213 1.053-.32 1.752-.32.901 0 1.627.203 2.176.608.549.4.837.989.864 1.768h-1.312a1.356 1.356 0 0 0-.528-.936c-.299-.235-.704-.352-1.216-.352-.523 0-.952.107-1.288.32-.331.208-.496.533-.496.976 0 .293.117.525.352.696.24.165.587.304 1.04.416l1.664.416c.379.101.693.235.944.4.251.165.448.349.592.552.144.203.245.416.304.64.064.219.096.429.096.632 0 .507-.125.944-.376 1.312-.251.363-.613.645-1.088.848-.475.197-1.048.296-1.72.296Zm8.614 0c-.768 0-1.445-.168-2.032-.504a3.505 3.505 0 0 1-1.376-1.448c-.331-.629-.496-1.384-.496-2.264 0-.869.149-1.632.448-2.288.299-.656.731-1.168 1.296-1.536.571-.368 1.256-.552 2.056-.552.779 0 1.437.168 1.976.504a3.17 3.17 0 0 1 1.224 1.424c.283.608.424 1.331.424 2.168v.544h-5.928c0 .523.085.997.256 1.424.176.421.44.757.792 1.008.352.251.797.376 1.336.376.528 0 .981-.123 1.36-.368.384-.245.629-.6.736-1.064h1.392a2.726 2.726 0 0 1-.672 1.416 3.35 3.35 0 0 1-1.256.872 4.135 4.135 0 0 1-1.536.288Zm-2.4-4.952h4.496c0-.475-.08-.901-.24-1.28a1.957 1.957 0 0 0-.736-.904c-.325-.224-.736-.336-1.232-.336-.517 0-.947.125-1.288.376a2.218 2.218 0 0 0-.76.952 2.898 2.898 0 0 0-.24 1.192Zm14.795 4.832c-.57 0-1.013-.077-1.328-.232a1.328 1.328 0 0 1-.664-.688c-.122-.304-.184-.677-.184-1.12v-5.192h-1.344v-1.08h1.384l.36-2.408h1.088v2.4h1.864v1.088h-1.864v5.144c0 .293.03.509.088.648a.458.458 0 0 0 .312.256c.144.037.347.056.608.056h.904v.992a2.321 2.321 0 0 1-.464.096 5.92 5.92 0 0 1-.76.04Zm6.28.12c-.762 0-1.429-.163-2-.488-.565-.331-1.005-.813-1.32-1.448-.314-.635-.472-1.411-.472-2.328 0-.864.147-1.621.44-2.272.294-.651.723-1.155 1.288-1.512.566-.363 1.256-.544 2.072-.544.763 0 1.424.168 1.984.504.56.331.995.819 1.304 1.464.315.645.472 1.432.472 2.36 0 .843-.144 1.584-.432 2.224a3.418 3.418 0 0 1-1.272 1.504c-.554.357-1.242.536-2.064.536Zm.008-1.168c.491 0 .907-.125 1.248-.376.342-.251.6-.611.776-1.08.182-.469.272-1.027.272-1.672 0-.592-.08-1.123-.24-1.592-.154-.475-.4-.851-.736-1.128-.336-.277-.776-.416-1.32-.416-.501 0-.925.125-1.272.376-.346.245-.61.603-.792 1.072-.176.469-.264 1.032-.264 1.688 0 .581.078 1.109.232 1.584.16.475.411.851.752 1.128.347.277.795.416 1.344.416Zm11.844 1.168c-.539 0-1.013-.093-1.424-.28a2.305 2.305 0 0 1-.96-.824c-.229-.357-.344-.789-.344-1.296 0-.917.32-1.6.96-2.048.64-.448 1.667-.688 3.08-.72l1.472-.04v-.648c0-.507-.152-.907-.456-1.2-.304-.299-.773-.448-1.408-.448a2.433 2.433 0 0 0-1.256.336c-.363.219-.595.576-.696 1.072h-1.304c.032-.539.181-.992.448-1.36.272-.373.653-.656 1.144-.848.491-.192 1.069-.288 1.736-.288.72 0 1.317.101 1.792.304.48.203.837.501 1.072.896.24.395.36.88.36 1.456V255h-1.264l-.112-1.552c-.315.645-.72 1.093-1.216 1.344a3.585 3.585 0 0 1-1.624.368Zm.44-1.064c.283 0 .56-.051.832-.152.277-.101.528-.237.752-.408.229-.176.413-.371.552-.584a1.24 1.24 0 0 0 .208-.672v-1.416l-1.224.024c-.635.011-1.163.075-1.584.192-.421.117-.739.301-.952.552-.213.251-.32.579-.32.984 0 .464.163.827.488 1.088.325.261.741.392 1.248.392Zm9.412 1.064c-.747 0-1.408-.163-1.984-.488-.571-.325-1.019-.805-1.344-1.44-.32-.635-.48-1.413-.48-2.336 0-.864.146-1.619.44-2.264a3.476 3.476 0 0 1 1.296-1.52c.57-.363 1.261-.544 2.072-.544.592 0 1.122.115 1.592.344.474.224.864.544 1.168.96.304.416.49.907.56 1.472h-1.312a1.832 1.832 0 0 0-.336-.792 1.852 1.852 0 0 0-.68-.576 2.112 2.112 0 0 0-.984-.216c-.71 0-1.288.256-1.736.768-.443.512-.664 1.296-.664 2.352 0 .955.202 1.72.608 2.296.41.571 1.013.856 1.808.856.378 0 .709-.072.992-.216a1.92 1.92 0 0 0 .68-.584c.17-.245.28-.507.328-.784h1.288a2.93 2.93 0 0 1-.568 1.44c-.304.405-.694.72-1.168.944-.47.219-.995.328-1.576.328Zm8.656 0c-.747 0-1.408-.163-1.984-.488-.571-.325-1.019-.805-1.344-1.44-.32-.635-.48-1.413-.48-2.336 0-.864.147-1.619.44-2.264a3.489 3.489 0 0 1 1.296-1.52c.571-.363 1.261-.544 2.072-.544.592 0 1.123.115 1.592.344.475.224.864.544 1.168.96.304.416.491.907.56 1.472h-1.312a1.832 1.832 0 0 0-.336-.792 1.844 1.844 0 0 0-.68-.576c-.277-.144-.605-.216-.984-.216-.709 0-1.288.256-1.736.768-.443.512-.664 1.296-.664 2.352 0 .955.203 1.72.608 2.296.411.571 1.013.856 1.808.856.379 0 .709-.072.992-.216.283-.149.509-.344.68-.584.171-.245.28-.507.328-.784h1.288a2.92 2.92 0 0 1-.568 1.44c-.304.405-.693.72-1.168.944a3.682 3.682 0 0 1-1.576.328Zm8.824 0c-.768 0-1.445-.168-2.032-.504a3.511 3.511 0 0 1-1.376-1.448c-.33-.629-.496-1.384-.496-2.264 0-.869.15-1.632.448-2.288.299-.656.731-1.168 1.296-1.536.571-.368 1.256-.552 2.056-.552.779 0 1.438.168 1.976.504a3.17 3.17 0 0 1 1.224 1.424c.283.608.424 1.331.424 2.168v.544h-5.928c0 .523.086.997.256 1.424.176.421.44.757.792 1.008.352.251.798.376 1.336.376.528 0 .982-.123 1.36-.368.384-.245.63-.6.736-1.064h1.392a2.726 2.726 0 0 1-.672 1.416 3.342 3.342 0 0 1-1.256.872 4.135 4.135 0 0 1-1.536.288Zm-2.4-4.952h4.496c0-.475-.08-.901-.24-1.28a1.957 1.957 0 0 0-.736-.904c-.325-.224-.736-.336-1.232-.336-.517 0-.946.125-1.288.376a2.225 2.225 0 0 0-.76.952 2.898 2.898 0 0 0-.24 1.192Zm10.896 4.952a4.775 4.775 0 0 1-1.608-.264 2.904 2.904 0 0 1-1.224-.84c-.325-.384-.528-.872-.608-1.464h1.344c.069.325.203.597.4.816.197.213.44.376.728.488.293.107.613.16.96.16.56 0 1.011-.104 1.352-.312.341-.208.512-.528.512-.96 0-.304-.091-.547-.272-.728-.176-.187-.453-.323-.832-.408l-1.712-.424c-.667-.16-1.2-.411-1.6-.752-.395-.341-.595-.819-.6-1.432 0-.485.117-.912.352-1.28s.584-.659 1.048-.872c.469-.213 1.053-.32 1.752-.32.901 0 1.627.203 2.176.608.549.4.837.989.864 1.768h-1.312a1.356 1.356 0 0 0-.528-.936c-.299-.235-.704-.352-1.216-.352-.523 0-.952.107-1.288.32-.331.208-.496.533-.496.976 0 .293.117.525.352.696.24.165.587.304 1.04.416l1.664.416c.379.101.693.235.944.4.251.165.448.349.592.552.144.203.245.416.304.64.064.219.096.429.096.632 0 .507-.125.944-.376 1.312-.251.363-.613.645-1.088.848-.475.197-1.048.296-1.72.296Zm8.062 0a4.775 4.775 0 0 1-1.608-.264 2.917 2.917 0 0 1-1.224-.84c-.325-.384-.528-.872-.608-1.464h1.344c.07.325.203.597.4.816.198.213.44.376.728.488.294.107.614.16.96.16.56 0 1.011-.104 1.352-.312.342-.208.512-.528.512-.96 0-.304-.09-.547-.272-.728-.176-.187-.453-.323-.832-.408l-1.712-.424c-.666-.16-1.2-.411-1.6-.752-.394-.341-.594-.819-.6-1.432 0-.485.118-.912.352-1.28.235-.368.584-.659 1.048-.872.47-.213 1.054-.32 1.752-.32.902 0 1.627.203 2.176.608.55.4.838.989.864 1.768h-1.312a1.356 1.356 0 0 0-.528-.936c-.298-.235-.704-.352-1.216-.352-.522 0-.952.107-1.288.32-.33.208-.496.533-.496.976 0 .293.118.525.352.696.24.165.587.304 1.04.416l1.664.416c.379.101.694.235.944.4.251.165.448.349.592.552.144.203.246.416.304.64.064.219.096.429.096.632 0 .507-.125.944-.376 1.312-.25.363-.613.645-1.088.848-.474.197-1.048.296-1.72.296Zm12.026-.16-4-11.568h2.232l3.096 8.856 3.08-8.856h2.24l-4 11.568h-2.648Zm5.621 0 4.136-11.568h2.472L472.075 255h-2.328l-.944-2.68h-4.168l-.96 2.68h-2.344Zm3.832-4.72h3.072l-1.528-4.6-1.544 4.6Zm8.233 4.72v-1.888h1.76V255h-1.76Z" fill="#454545"/><rect x="80.5" y="293.5" width="289" height="40" rx="7.5" fill="#F2F9FF"/><rect x="80.5" y="293.5" width="289" height="40" rx="7.5" stroke="#CEDCED"/><circle cx="104.5" cy="313.5" r="5" stroke="#0071BB" stroke-width="3"/><path d="M123.312 315.208c0 1.568.776 2.808 2.384 2.808 1.056 0 1.888-.496 2.096-1.432h1.392c-.304 1.688-1.856 2.576-3.464 2.576-2.312 0-3.904-1.576-3.904-4.216 0-2.608 1.392-4.376 3.8-4.376 2.328 0 3.624 1.584 3.624 4.096v.544h-5.928Zm.008-1h4.496c0-1.424-.712-2.52-2.208-2.52-1.56 0-2.296 1.288-2.288 2.52ZM138.028 319h-1.608l-2.408-3.24-2.392 3.24h-1.616l3.184-4.296-2.928-3.976h1.608l2.152 2.904 2.152-2.904h1.616l-2.944 3.976 3.184 4.296Zm3.735.16c-1.608 0-2.728-.888-2.728-2.4 0-1.832 1.208-2.704 4.04-2.768l1.472-.04v-.648c0-1.008-.592-1.648-1.864-1.648-.952.008-1.752.424-1.952 1.408h-1.304c.088-1.608 1.32-2.496 3.328-2.496 2.152 0 3.224.928 3.224 2.656V319h-1.264l-.112-1.552c-.64 1.288-1.656 1.712-2.84 1.712Zm.44-1.064c1.112 0 2.344-.896 2.344-1.816v-1.416l-1.224.024c-1.904.032-2.856.504-2.856 1.728 0 .936.72 1.48 1.736 1.48Zm6.084.904v-8.272h1.424v1.2c.456-.728 1.216-1.36 2.504-1.36.904 0 1.952.472 2.384 1.352.512-.808 1.424-1.352 2.52-1.352 1.168 0 2.696.576 2.696 3.024V319h-1.488v-5.264c0-1.496-.824-1.912-1.696-1.912-.776 0-1.856.392-1.856 1.648V319h-1.472v-5.696c0-.984-.912-1.48-1.68-1.48-.848 0-1.864.488-1.864 1.648V319h-1.472Zm13.843 2.576v-10.848h1.472l.016 1.44c.376-.68 1.2-1.6 2.72-1.6 1.976 0 3.352 1.336 3.352 4.184 0 2.84-1.296 4.408-3.472 4.408-1.48 0-2.256-.952-2.6-1.656v4.072h-1.488Zm3.808-3.568c1.36 0 2.32-1.008 2.32-3.208 0-1.88-.808-3.08-2.32-3.08-1.536 0-2.336 1.256-2.336 3.08 0 1.784.8 3.208 2.336 3.208Zm7.812 1.096c-1.784 0-2.088-1.072-2.088-2.232v-9.76h1.456v9.616c0 .84.344 1.24.928 1.28l.448.008v.96c-.248.08-.536.128-.744.128Zm3.437-3.896c0 1.568.776 2.808 2.384 2.808 1.056 0 1.888-.496 2.096-1.432h1.392c-.304 1.688-1.856 2.576-3.464 2.576-2.312 0-3.904-1.576-3.904-4.216 0-2.608 1.392-4.376 3.8-4.376 2.328 0 3.624 1.584 3.624 4.096v.544h-5.928Zm.008-1h4.496c0-1.424-.712-2.52-2.208-2.52-1.56 0-2.296 1.288-2.288 2.52Zm7.623 4.792v-1.888h1.76V319h-1.76Zm6.977.16c-1.72-.016-3.176-.952-3.176-2.816v-5.616h1.48v5.464c0 1.08.656 1.816 2.008 1.816 1.216 0 2.024-.64 2.024-1.896v-5.384h1.472V319h-1.176l-.152-1.584c-.304 1.24-1.312 1.752-2.48 1.744Zm9.218 0c-1.728 0-3.201-.784-3.44-2.568h1.344c.208.968 1.04 1.464 2.088 1.464 1.12 0 1.864-.408 1.864-1.272 0-.608-.352-.96-1.104-1.136l-1.712-.424c-1.336-.32-2.192-.952-2.2-2.184-.008-1.448 1.056-2.472 3.152-2.472 1.792 0 2.984.824 3.04 2.376h-1.312c-.112-.792-.72-1.288-1.744-1.288-1.056 0-1.784.416-1.784 1.296 0 .592.48.888 1.392 1.112l1.664.416c1.52.4 1.936 1.408 1.936 2.224 0 1.52-1.168 2.456-3.184 2.456Zm6.221-3.952c0 1.568.776 2.808 2.384 2.808 1.056 0 1.888-.496 2.096-1.432h1.392c-.304 1.688-1.856 2.576-3.464 2.576-2.312 0-3.904-1.576-3.904-4.216 0-2.608 1.392-4.376 3.8-4.376 2.328 0 3.624 1.584 3.624 4.096v.544h-5.928Zm.008-1h4.496c0-1.424-.712-2.52-2.208-2.52-1.56 0-2.296 1.288-2.288 2.52Zm7.966 4.792v-8.272h1.408v1.592c.416-1.192 1.4-1.752 2.448-1.752.24 0 .496.032.632.104v1.432c-.16-.072-.456-.096-.624-.096-1.32-.088-2.392.472-2.392 1.848V319h-1.472Zm6.018 0v-1.376c0-4.152 6.12-3.936 6.12-7.064 0-1.176-.888-1.984-2.296-1.984-1.512 0-2.48.92-2.6 2.344h-1.472c.04-2 1.44-3.648 4.128-3.648 2.328 0 3.808 1.32 3.808 3.288 0 4.16-6.04 3.792-6.04 6.896v.232h6.104V319h-7.752Zm19.036.552c-.928.712-2.216 1.208-3.712 1.208-3.792 0-6.04-2.624-6.04-5.832 0-3.368 2.504-6.232 6.296-6.232 2.72 0 5.52 1.496 5.52 5 0 2.392-1.296 4.04-3.032 4.04-.824 0-1.248-.288-1.416-.816-.048-.136-.08-.128-.184-.016-.464.6-1.152 1.056-2.152 1.056-1.2 0-2.232-1.088-2.224-2.76 0-1.968 1.24-3.608 3.032-3.608.864 0 1.432.392 1.784.96.032.04.096.04.112-.056l.136-.504h1l-.592 3.552c-.16.904.08 1.192.592 1.192.984 0 1.848-1.088 1.848-2.944 0-3.008-2.296-4.128-4.44-4.128-3.36 0-5.184 2.416-5.184 5.272 0 2.784 1.824 4.88 5.168 4.88 1.432 0 2.112-.456 2.92-1.008l.568.744Zm-5.728-4.44c0 1.08.448 1.8 1.256 1.8 1.008 0 1.856-1 2-2.152.184-1.392-.544-2.12-1.36-2.12-1.112 0-1.896 1.104-1.896 2.472Zm10.841.096c0 1.568.776 2.808 2.384 2.808 1.056 0 1.888-.496 2.096-1.432h1.392c-.304 1.688-1.856 2.576-3.464 2.576-2.312 0-3.904-1.576-3.904-4.216 0-2.608 1.392-4.376 3.8-4.376 2.328 0 3.624 1.584 3.624 4.096v.544h-5.928Zm.008-1h4.496c0-1.424-.712-2.52-2.208-2.52-1.56 0-2.296 1.288-2.288 2.52Zm7.966 4.792v-8.272h1.424v1.2c.456-.728 1.216-1.36 2.504-1.36.904 0 1.952.472 2.384 1.352.512-.808 1.424-1.352 2.52-1.352 1.168 0 2.696.576 2.696 3.024V319h-1.488v-5.264c0-1.496-.824-1.912-1.696-1.912-.776 0-1.856.392-1.856 1.648V319h-1.472v-5.696c0-.984-.912-1.48-1.68-1.48-.848 0-1.864.488-1.864 1.648V319h-1.472Zm16.133.16c-1.608 0-2.728-.888-2.728-2.4 0-1.832 1.208-2.704 4.04-2.768l1.472-.04v-.648c0-1.008-.592-1.648-1.864-1.648-.952.008-1.752.424-1.952 1.408h-1.304c.088-1.608 1.32-2.496 3.328-2.496 2.152 0 3.224.928 3.224 2.656V319h-1.264l-.112-1.552c-.64 1.288-1.656 1.712-2.84 1.712Zm.44-1.064c1.112 0 2.344-.896 2.344-1.816v-1.416l-1.224.024c-1.904.032-2.856.504-2.856 1.728 0 .936.72 1.48 1.736 1.48Zm7.595-10.656v1.536h-1.512v-1.536h1.512Zm-.04 3.288V319h-1.432v-8.272h1.432Zm4.679 8.376c-1.784 0-2.088-1.072-2.088-2.232v-9.76h1.456v9.616c0 .84.344 1.24.928 1.28l.448.008v.96c-.248.08-.536.128-.744.128Zm2.49-.104v-1.888h1.76V319h-1.76Zm7.265-8.432c1.776 0 3.096 1.088 3.32 2.776h-1.312c-.144-.872-.864-1.584-2-1.584-1.416 0-2.4 1.008-2.4 3.12 0 1.912.832 3.152 2.416 3.152 1.136 0 1.856-.752 2-1.584h1.288c-.216 1.664-1.56 2.712-3.312 2.712-2.24 0-3.808-1.488-3.808-4.264 0-2.576 1.368-4.328 3.808-4.328Zm8.625 8.592c-2.296 0-3.792-1.504-3.792-4.264 0-2.592 1.352-4.328 3.8-4.328 2.28 0 3.76 1.544 3.76 4.328 0 2.528-1.304 4.264-3.768 4.264Zm.008-1.168c1.48 0 2.296-1.184 2.296-3.128 0-1.768-.672-3.136-2.296-3.136-1.504 0-2.328 1.168-2.328 3.136 0 1.744.672 3.128 2.328 3.128Zm5.727 1.008v-8.272h1.424v1.2c.456-.728 1.216-1.36 2.504-1.36.904 0 1.952.472 2.384 1.352.512-.808 1.424-1.352 2.52-1.352 1.168 0 2.696.576 2.696 3.024V319h-1.488v-5.264c0-1.496-.824-1.912-1.696-1.912-.776 0-1.856.392-1.856 1.648V319h-1.472v-5.696c0-.984-.912-1.48-1.68-1.48-.848 0-1.864.488-1.864 1.648V319h-1.472Z" fill="#454545"/><rect x="80.5" y="350.5" width="289" height="40" rx="7.5" fill="#fff"/><rect x="80.5" y="350.5" width="289" height="40" rx="7.5" stroke="#CEDCED"/><circle cx="104.5" cy="370.5" r="7" fill="#F2F9FF" stroke="#0071BB"/><path d="M123.312 372.208c0 1.568.776 2.808 2.384 2.808 1.056 0 1.888-.496 2.096-1.432h1.392c-.304 1.688-1.856 2.576-3.464 2.576-2.312 0-3.904-1.576-3.904-4.216 0-2.608 1.392-4.376 3.8-4.376 2.328 0 3.624 1.584 3.624 4.096v.544h-5.928Zm.008-1h4.496c0-1.424-.712-2.52-2.208-2.52-1.56 0-2.296 1.288-2.288 2.52ZM138.028 376h-1.608l-2.408-3.24-2.392 3.24h-1.616l3.184-4.296-2.928-3.976h1.608l2.152 2.904 2.152-2.904h1.616l-2.944 3.976 3.184 4.296Zm3.735.16c-1.608 0-2.728-.888-2.728-2.4 0-1.832 1.208-2.704 4.04-2.768l1.472-.04v-.648c0-1.008-.592-1.648-1.864-1.648-.952.008-1.752.424-1.952 1.408h-1.304c.088-1.608 1.32-2.496 3.328-2.496 2.152 0 3.224.928 3.224 2.656V376h-1.264l-.112-1.552c-.64 1.288-1.656 1.712-2.84 1.712Zm.44-1.064c1.112 0 2.344-.896 2.344-1.816v-1.416l-1.224.024c-1.904.032-2.856.504-2.856 1.728 0 .936.72 1.48 1.736 1.48Zm6.084.904v-8.272h1.424v1.2c.456-.728 1.216-1.36 2.504-1.36.904 0 1.952.472 2.384 1.352.512-.808 1.424-1.352 2.52-1.352 1.168 0 2.696.576 2.696 3.024V376h-1.488v-5.264c0-1.496-.824-1.912-1.696-1.912-.776 0-1.856.392-1.856 1.648V376h-1.472v-5.696c0-.984-.912-1.48-1.68-1.48-.848 0-1.864.488-1.864 1.648V376h-1.472Zm13.843 2.576v-10.848h1.472l.016 1.44c.376-.68 1.2-1.6 2.72-1.6 1.976 0 3.352 1.336 3.352 4.184 0 2.84-1.296 4.408-3.472 4.408-1.48 0-2.256-.952-2.6-1.656v4.072h-1.488Zm3.808-3.568c1.36 0 2.32-1.008 2.32-3.208 0-1.88-.808-3.08-2.32-3.08-1.536 0-2.336 1.256-2.336 3.08 0 1.784.8 3.208 2.336 3.208Zm7.812 1.096c-1.784 0-2.088-1.072-2.088-2.232v-9.76h1.456v9.616c0 .84.344 1.24.928 1.28l.448.008v.96c-.248.08-.536.128-.744.128Zm3.437-3.896c0 1.568.776 2.808 2.384 2.808 1.056 0 1.888-.496 2.096-1.432h1.392c-.304 1.688-1.856 2.576-3.464 2.576-2.312 0-3.904-1.576-3.904-4.216 0-2.608 1.392-4.376 3.8-4.376 2.328 0 3.624 1.584 3.624 4.096v.544h-5.928Zm.008-1h4.496c0-1.424-.712-2.52-2.208-2.52-1.56 0-2.296 1.288-2.288 2.52Zm7.623 4.792v-1.888h1.76V376h-1.76Zm6.977.16c-1.72-.016-3.176-.952-3.176-2.816v-5.616h1.48v5.464c0 1.08.656 1.816 2.008 1.816 1.216 0 2.024-.64 2.024-1.896v-5.384h1.472V376h-1.176l-.152-1.584c-.304 1.24-1.312 1.752-2.48 1.744Zm9.218 0c-1.728 0-3.201-.784-3.44-2.568h1.344c.208.968 1.04 1.464 2.088 1.464 1.12 0 1.864-.408 1.864-1.272 0-.608-.352-.96-1.104-1.136l-1.712-.424c-1.336-.32-2.192-.952-2.2-2.184-.008-1.448 1.056-2.472 3.152-2.472 1.792 0 2.984.824 3.04 2.376h-1.312c-.112-.792-.72-1.288-1.744-1.288-1.056 0-1.784.416-1.784 1.296 0 .592.48.888 1.392 1.112l1.664.416c1.52.4 1.936 1.408 1.936 2.224 0 1.52-1.168 2.456-3.184 2.456Zm6.221-3.952c0 1.568.776 2.808 2.384 2.808 1.056 0 1.888-.496 2.096-1.432h1.392c-.304 1.688-1.856 2.576-3.464 2.576-2.312 0-3.904-1.576-3.904-4.216 0-2.608 1.392-4.376 3.8-4.376 2.328 0 3.624 1.584 3.624 4.096v.544h-5.928Zm.008-1h4.496c0-1.424-.712-2.52-2.208-2.52-1.56 0-2.296 1.288-2.288 2.52Zm7.966 4.792v-8.272h1.408v1.592c.416-1.192 1.4-1.752 2.448-1.752.24 0 .496.032.632.104v1.432c-.16-.072-.456-.096-.624-.096-1.32-.088-2.392.472-2.392 1.848V376h-1.472Zm15.397.552c-.928.712-2.216 1.208-3.712 1.208-3.792 0-6.04-2.624-6.04-5.832 0-3.368 2.504-6.232 6.296-6.232 2.72 0 5.52 1.496 5.52 5 0 2.392-1.296 4.04-3.032 4.04-.824 0-1.248-.288-1.416-.816-.048-.136-.08-.128-.184-.016-.464.6-1.152 1.056-2.152 1.056-1.2 0-2.232-1.088-2.224-2.76 0-1.968 1.24-3.608 3.032-3.608.864 0 1.432.392 1.784.96.032.04.096.04.112-.056l.136-.504h1l-.592 3.552c-.16.904.08 1.192.592 1.192.984 0 1.848-1.088 1.848-2.944 0-3.008-2.296-4.128-4.44-4.128-3.36 0-5.184 2.416-5.184 5.272 0 2.784 1.824 4.88 5.168 4.88 1.432 0 2.112-.456 2.92-1.008l.568.744Zm-5.728-4.44c0 1.08.448 1.8 1.256 1.8 1.008 0 1.856-1 2-2.152.184-1.392-.544-2.12-1.36-2.12-1.112 0-1.896 1.104-1.896 2.472Zm10.841.096c0 1.568.776 2.808 2.384 2.808 1.056 0 1.888-.496 2.096-1.432h1.392c-.304 1.688-1.856 2.576-3.464 2.576-2.312 0-3.904-1.576-3.904-4.216 0-2.608 1.392-4.376 3.8-4.376 2.328 0 3.624 1.584 3.624 4.096v.544h-5.928Zm.008-1h4.496c0-1.424-.712-2.52-2.208-2.52-1.56 0-2.296 1.288-2.288 2.52Zm7.967 4.792v-8.272h1.424v1.2c.456-.728 1.216-1.36 2.504-1.36.904 0 1.952.472 2.384 1.352.512-.808 1.424-1.352 2.52-1.352 1.168 0 2.696.576 2.696 3.024V376h-1.488v-5.264c0-1.496-.824-1.912-1.696-1.912-.776 0-1.856.392-1.856 1.648V376h-1.472v-5.696c0-.984-.912-1.48-1.68-1.48-.848 0-1.864.488-1.864 1.648V376h-1.472Zm16.132.16c-1.608 0-2.728-.888-2.728-2.4 0-1.832 1.208-2.704 4.04-2.768l1.472-.04v-.648c0-1.008-.592-1.648-1.864-1.648-.952.008-1.752.424-1.952 1.408h-1.304c.088-1.608 1.32-2.496 3.328-2.496 2.152 0 3.224.928 3.224 2.656V376h-1.264l-.112-1.552c-.64 1.288-1.656 1.712-2.84 1.712Zm.44-1.064c1.112 0 2.344-.896 2.344-1.816v-1.416l-1.224.024c-1.904.032-2.856.504-2.856 1.728 0 .936.72 1.48 1.736 1.48Zm7.596-10.656v1.536h-1.512v-1.536h1.512Zm-.04 3.288V376h-1.432v-8.272h1.432Zm4.679 8.376c-1.784 0-2.088-1.072-2.088-2.232v-9.76h1.456v9.616c0 .84.344 1.24.928 1.28l.448.008v.96c-.248.08-.536.128-.744.128Zm2.489-.104v-1.888h1.76V376h-1.76Zm7.266-8.432c1.776 0 3.096 1.088 3.32 2.776h-1.312c-.144-.872-.864-1.584-2-1.584-1.416 0-2.4 1.008-2.4 3.12 0 1.912.832 3.152 2.416 3.152 1.136 0 1.856-.752 2-1.584h1.288c-.216 1.664-1.56 2.712-3.312 2.712-2.24 0-3.808-1.488-3.808-4.264 0-2.576 1.368-4.328 3.808-4.328Zm8.625 8.592c-2.296 0-3.792-1.504-3.792-4.264 0-2.592 1.352-4.328 3.8-4.328 2.28 0 3.76 1.544 3.76 4.328 0 2.528-1.304 4.264-3.768 4.264Zm.008-1.168c1.48 0 2.296-1.184 2.296-3.128 0-1.768-.672-3.136-2.296-3.136-1.504 0-2.328 1.168-2.328 3.136 0 1.744.672 3.128 2.328 3.128Zm5.727 1.008v-8.272h1.424v1.2c.456-.728 1.216-1.36 2.504-1.36.904 0 1.952.472 2.384 1.352.512-.808 1.424-1.352 2.52-1.352 1.168 0 2.696.576 2.696 3.024V376h-1.488v-5.264c0-1.496-.824-1.912-1.696-1.912-.776 0-1.856.392-1.856 1.648V376h-1.472v-5.696c0-.984-.912-1.48-1.68-1.48-.848 0-1.864.488-1.864 1.648V376h-1.472Z" fill="#454545"/><rect x="80" y="431" width="224" height="52" rx="8" fill="#0071BB"/><path d="M139.665 464.2c-2.86 0-5.75-1.43-6.05-4.33h2.99c.29 1.31 1.48 2.04 3.05 2.04 1.59 0 2.92-.59 2.92-1.82 0-1.09-1.06-1.55-2.45-1.83l-2.5-.51c-2.18-.42-3.56-1.74-3.59-3.96-.03-2.72 2.42-4.43 5.56-4.43 3.73 0 5.73 1.94 5.77 4.38h-2.93c-.16-1.52-1.28-2.06-2.79-2.06-1.56 0-2.55.72-2.55 1.77 0 .84.45 1.33 1.99 1.66l2.48.51c3.53.68 3.94 2.95 3.94 4.45 0 2.33-2.35 4.13-5.84 4.13Zm10.42-4.7c-.01 1.58.81 2.59 2.21 2.59 1 0 1.8-.4 2.1-1.37h2.63c-.35 2.21-2.51 3.48-4.66 3.48-3.07 0-5.17-2.04-5.17-5.25 0-3.11 1.85-5.49 5.02-5.49 3.16 0 4.82 2.15 4.82 5.25v.79h-6.95Zm0-1.74h4.22c0-1.25-.69-2.26-2.1-2.26-1.34 0-2.13 1.12-2.12 2.26Zm12.354 6.42c-3.06 0-3.3-1.59-3.3-3.08v-11.96h2.86v11.6c0 .76.27 1.26 1.17 1.36l.49.03v1.8c-.4.14-.83.25-1.22.25Zm5.146-4.68c-.01 1.58.81 2.59 2.21 2.59 1 0 1.8-.4 2.1-1.37h2.63c-.35 2.21-2.51 3.48-4.66 3.48-3.07 0-5.17-2.04-5.17-5.25 0-3.11 1.85-5.49 5.02-5.49 3.16 0 4.82 2.15 4.82 5.25v.79h-6.95Zm0-1.74h4.22c0-1.25-.69-2.26-2.1-2.26-1.34 0-2.13 1.12-2.12 2.26Zm13.554-4.3c2.59 0 4.2 1.75 4.36 3.97h-2.43c-.13-.82-.71-1.75-1.91-1.75-1.36 0-2.29 1.04-2.29 3.17 0 2.02.87 3.28 2.35 3.28 1.18 0 1.76-1.03 1.88-1.74h2.37c-.13 2.14-1.8 3.81-4.33 3.81-2.88 0-4.99-2.02-4.99-5.33 0-3.21 1.98-5.41 4.99-5.41Zm12.365 2.23h-2.3l.02 5.51c0 .76.28.86.92.86h1.39v1.8c-.28.12-.8.25-1.81.25-2.73 0-3.43-1.13-3.43-2.79v-5.63h-1.68v-2.03h1.77l.74-3.12h2.08v3.11h2.3v2.04Zm8.945 3.81c-.01 1.58.81 2.59 2.21 2.59 1 0 1.8-.4 2.1-1.37h2.63c-.35 2.21-2.51 3.48-4.66 3.48-3.07 0-5.17-2.04-5.17-5.25 0-3.11 1.85-5.49 5.02-5.49 3.16 0 4.82 2.15 4.82 5.25v.79h-6.95Zm0-1.74h4.22c0-1.25-.69-2.26-2.1-2.26-1.34 0-2.13 1.12-2.12 2.26Zm9.053 6.24v-10.34h2.86v1.46c.62-.91 1.65-1.66 3.27-1.66 1.06 0 2.29.57 2.9 1.66.67-.94 1.79-1.66 3.13-1.66 1.54 0 3.38.93 3.38 3.72V464h-2.92v-6.46c0-1.25-.83-1.7-1.66-1.7-.77 0-1.75.44-1.75 1.54V464h-2.91v-6.72c0-.94-.87-1.44-1.64-1.44-.8 0-1.74.5-1.74 1.54V464h-2.92Zm20.902.2c-1.97 0-3.49-1.14-3.49-3.16 0-2.26 1.63-3.46 5.28-3.5l1.3-.02v-.62c0-.95-.54-1.48-1.71-1.47-.85.01-1.71.36-2 1.31h-2.43c.11-2.24 1.98-3.28 4.57-3.28 3.16 0 4.37 1.24 4.37 3.27V464h-2.44l-.24-1.78c-.71 1.5-1.76 1.98-3.21 1.98Zm.99-1.92c1.05 0 2.09-.84 2.1-1.73v-1.53l-1.05.02c-1.46.02-2.76.45-2.76 1.71 0 .96.75 1.53 1.71 1.53Zm10.108-12.73v2.63h-2.84v-2.63h2.84Zm-.02 4.11V464h-2.79v-10.34h2.79Zm5.871 10.52c-3.06 0-3.3-1.59-3.3-3.08v-11.96h2.86v11.6c0 .76.27 1.26 1.17 1.36l.49.03v1.8c-.4.14-.83.25-1.22.25Z" fill="#fff"/><rect x="81" y="504" width="222" height="50" rx="7" stroke="#0071BB" stroke-width="2"/><path d="m123.087 536 5.17-14.46h3.09l5.17 14.46h-2.91l-1.18-3.35h-5.21l-1.2 3.35h-2.93Zm4.79-5.9h3.84l-1.91-5.75-1.93 5.75Zm14.019 6.1c-2.78 0-4.4-2.01-4.4-5.43 0-3.24 1.45-5.31 4.11-5.31 1.48 0 2.62.72 3.12 1.6v-5.92h2.93V536h-2.12l-.33-2.12c-.37 1.14-1.27 2.32-3.31 2.32Zm.64-2.1c1.47 0 2.19-.93 2.19-3.37-.02-2.11-.72-3.15-2.17-3.15-1.27 0-2.21.88-2.21 3.15 0 2.3.85 3.37 2.19 3.37Zm11.528 2.1c-2.78 0-4.4-2.01-4.4-5.43 0-3.24 1.45-5.31 4.11-5.31 1.48 0 2.62.72 3.12 1.6v-5.92h2.93V536h-2.12l-.33-2.12c-.37 1.14-1.27 2.32-3.31 2.32Zm.64-2.1c1.47 0 2.19-.93 2.19-3.37-.02-2.11-.72-3.15-2.17-3.15-1.27 0-2.21.88-2.21 3.15 0 2.3.85 3.37 2.19 3.37Zm12.13 1.9v-10.34h2.87v1.46c.47-.75 1.37-1.55 3-1.55 1.89 0 3.62 1.05 3.62 3.61V536h-2.92v-6.46c0-1.12-.77-1.68-1.72-1.68-.96 0-1.93.51-1.93 1.52V536h-2.92Zm14.325-4.5c-.01 1.58.81 2.59 2.21 2.59 1 0 1.8-.4 2.1-1.37h2.63c-.35 2.21-2.51 3.48-4.66 3.48-3.07 0-5.17-2.04-5.17-5.25 0-3.11 1.85-5.49 5.02-5.49 3.16 0 4.82 2.15 4.82 5.25v.79h-6.95Zm0-1.74h4.22c0-1.25-.69-2.26-2.1-2.26-1.34 0-2.13 1.12-2.12 2.26Zm23.05-4.1-3.4 10.34h-2.33l-1.92-6.26-1.93 6.26h-2.26l-3.35-10.34h2.59l1.98 6.41h.07l1.9-6.41h2.09l1.92 6.41h.08l1.92-6.41h2.64Zm8.318 5.84c-.01 1.58.81 2.59 2.21 2.59 1 0 1.8-.4 2.1-1.37h2.63c-.35 2.21-2.51 3.48-4.66 3.48-3.07 0-5.17-2.04-5.17-5.25 0-3.11 1.85-5.49 5.02-5.49 3.16 0 4.82 2.15 4.82 5.25v.79h-6.95Zm0-1.74h4.22c0-1.25-.69-2.26-2.1-2.26-1.34 0-2.13 1.12-2.12 2.26Zm9.053 6.24v-10.34h2.86v1.46c.62-.91 1.65-1.66 3.27-1.66 1.06 0 2.29.57 2.9 1.66.67-.94 1.79-1.66 3.13-1.66 1.54 0 3.38.93 3.38 3.72V536h-2.92v-6.46c0-1.25-.83-1.7-1.66-1.7-.77 0-1.75.44-1.75 1.54V536h-2.91v-6.72c0-.94-.87-1.44-1.64-1.44-.8 0-1.74.5-1.74 1.54V536h-2.92Zm20.902.2c-1.97 0-3.49-1.14-3.49-3.16 0-2.26 1.63-3.46 5.28-3.5l1.3-.02v-.62c0-.95-.54-1.48-1.71-1.47-.85.01-1.71.36-2 1.31h-2.43c.11-2.24 1.98-3.28 4.57-3.28 3.16 0 4.37 1.24 4.37 3.27V536h-2.44l-.24-1.78c-.71 1.5-1.76 1.98-3.21 1.98Zm.99-1.92c1.05 0 2.09-.84 2.1-1.73v-1.53l-1.05.02c-1.46.02-2.76.45-2.76 1.71 0 .96.75 1.53 1.71 1.53Zm10.108-12.73v2.63h-2.84v-2.63h2.84Zm-.02 4.11V536h-2.79v-10.34h2.79Zm5.871 10.52c-3.06 0-3.3-1.59-3.3-3.08v-11.96h2.86v11.6c0 .76.27 1.26 1.17 1.36l.49.03v1.8c-.4.14-.83.25-1.22.25Z" fill="#0071BB"/><path stroke="#CEDCED" d="M80 586.5h460"/><path d="M81.95 617v-11.568h3.72c2.808 0 4.28 1.064 4.28 3.016 0 1.224-.56 2.096-2.144 2.656 1.824.392 2.432 1.48 2.432 2.784 0 2.096-1.496 3.112-4.448 3.112h-3.84Zm1.48-6.48h2.52c1.2 0 2.568-.424 2.568-1.888 0-1.344-1.136-1.976-2.776-1.976H83.43v3.864Zm0 5.248h2.344c1.928 0 2.96-.624 2.96-1.944 0-1.448-1.232-2.048-2.784-2.048h-2.52v3.992Zm11.27 1.392c-1.608 0-2.728-.888-2.728-2.4 0-1.832 1.208-2.704 4.04-2.768l1.472-.04v-.648c0-1.008-.592-1.648-1.864-1.648-.952.008-1.752.424-1.952 1.408h-1.304c.088-1.608 1.32-2.496 3.328-2.496 2.152 0 3.224.928 3.224 2.656V617h-1.264l-.112-1.552c-.64 1.288-1.656 1.712-2.84 1.712Zm.44-1.064c1.112 0 2.344-.896 2.344-1.816v-1.416l-1.224.024c-1.904.032-2.856.504-2.856 1.728 0 .936.72 1.48 1.736 1.48Zm9.412-7.528c1.776 0 3.096 1.088 3.32 2.776h-1.312c-.144-.872-.864-1.584-2-1.584-1.416 0-2.4 1.008-2.4 3.12 0 1.912.832 3.152 2.416 3.152 1.136 0 1.856-.752 2-1.584h1.288c-.216 1.664-1.56 2.712-3.312 2.712-2.24 0-3.808-1.488-3.808-4.264 0-2.576 1.368-4.328 3.808-4.328Zm12.53 8.432h-1.568l-2.592-4.152-1.632 1.688V617h-1.472v-11.888h1.472v7.752l3.888-4.136h1.696l-2.984 3.152 3.192 5.12Zm-36.66 3.52h19.582v1.12H80.422v-1.12Zm19.578 0h8.696v1.12H100v-1.12Zm8.594 0h8.984v1.12h-8.984v-1.12Z" fill="#0071BB"/><defs><filter id="a" x="74" y="58" width="100" height="100" filterUnits="userSpaceOnUse" color-interpolation-filters="sRGB"><feFlood flood-opacity="0" result="BackgroundImageFix"/><feColorMatrix in="SourceAlpha" values="0 0 0 0 0 0 0 0 0 0 0 0 0 0 0 0 0 0 127 0" result="hardAlpha"/><feOffset/><feGaussianBlur stdDeviation="3"/><feColorMatrix values="0 0 0 0 0 0 0 0 0 0 0 0 0 0 0 0 0 0 0.24 0"/><feBlend in2="BackgroundImageFix" result="effect1_dropShadow_4414_9052"/><feBlend in="SourceGraphic" in2="effect1_dropShadow_4414_9052" result="shape"/></filter></defs></svg>