<svg xmlns="http://www.w3.org/2000/svg" width="620" height="683" fill="none"><path fill="#fff" d="M0 0h620v683H0z"/><g filter="url(#a)"><path fill="#fff" d="M124 152c24.301 0 44-19.699 44-44s-19.699-44-44-44-44 19.7-44 44 19.7 44 44 44"/></g><path fill="#008099" d="M124 147.601c21.871 0 39.601-17.73 39.601-39.601S145.871 68.4 124 68.4 84.399 86.13 84.399 108s17.73 39.601 39.601 39.601"/><path fill="#fff" d="M124 143.641c19.684 0 35.641-15.957 35.641-35.641S143.684 72.36 124 72.36 88.359 88.316 88.359 108s15.957 35.641 35.641 35.641"/><path fill="#008099" d="M123.999 126.691c-10.307 0-18.69-8.384-18.69-18.691s8.383-18.69 18.69-18.69S142.69 97.693 142.69 108s-8.384 18.691-18.691 18.691"/><path fill="#006175" d="M124 89.31v37.381c10.306 0 18.69-8.384 18.69-18.691S134.306 89.31 124 89.31"/><path fill="#fff" d="M123.088 108.343c.754-1.363 2.207-2.167 3.051-3.375.893-1.265.392-3.63-2.14-3.63-1.657 0-2.473 1.255-2.816 2.297l-2.541-1.069c.696-2.09 2.591-3.886 5.345-3.886 2.306 0 3.886 1.05 4.69 2.365.686 1.128 1.088 3.236.031 4.807-1.178 1.737-2.306 2.266-2.912 3.385-.245.451-.344.745-.344 2.198h-2.834c-.01-.767-.127-2.01.47-3.092m2.875 7.015a1.97 1.97 0 0 1-1.964 1.963 1.97 1.97 0 0 1-1.963-1.963 1.97 1.97 0 0 1 1.963-1.963 1.97 1.97 0 0 1 1.964 1.963"/><path fill="#454545" d="M89.87 213.28c-4.004 0-8.05-2.002-8.47-6.062h4.186c.406 1.834 2.072 2.856 4.27 2.856 2.226 0 4.088-.826 4.088-2.548 0-1.526-1.484-2.17-3.43-2.562l-3.5-.714c-3.052-.588-4.984-2.436-5.026-5.544-.042-3.808 3.388-6.202 7.784-6.202 5.222 0 8.022 2.716 8.078 6.132h-4.102c-.224-2.128-1.792-2.884-3.906-2.884-2.184 0-3.57 1.008-3.57 2.478 0 1.176.63 1.862 2.786 2.324l3.472.714c4.942.952 5.516 4.13 5.516 6.23 0 3.262-3.29 5.782-8.176 5.782m14.588-6.58c-.014 2.212 1.134 3.626 3.094 3.626 1.4 0 2.52-.56 2.94-1.918h3.682c-.49 3.094-3.514 4.872-6.524 4.872-4.298 0-7.238-2.856-7.238-7.35 0-4.354 2.59-7.686 7.028-7.686 4.424 0 6.748 3.01 6.748 7.35v1.106zm0-2.436h5.908c0-1.75-.966-3.164-2.94-3.164-1.876 0-2.982 1.568-2.968 3.164m17.295 8.988c-4.284 0-4.62-2.226-4.62-4.312v-16.744h4.004v16.24c0 1.064.378 1.764 1.638 1.904l.686.042v2.52c-.56.196-1.162.35-1.708.35m7.205-6.552c-.014 2.212 1.134 3.626 3.094 3.626 1.4 0 2.52-.56 2.94-1.918h3.682c-.49 3.094-3.514 4.872-6.524 4.872-4.298 0-7.238-2.856-7.238-7.35 0-4.354 2.59-7.686 7.028-7.686 4.424 0 6.748 3.01 6.748 7.35v1.106zm0-2.436h5.908c0-1.75-.966-3.164-2.94-3.164-1.876 0-2.982 1.568-2.968 3.164m18.975-6.02c3.626 0 5.88 2.45 6.104 5.558h-3.402c-.182-1.148-.994-2.45-2.674-2.45-1.904 0-3.206 1.456-3.206 4.438 0 2.828 1.218 4.592 3.29 4.592 1.652 0 2.464-1.442 2.632-2.436h3.318c-.182 2.996-2.52 5.334-6.062 5.334-4.032 0-6.986-2.828-6.986-7.462 0-4.494 2.772-7.574 6.986-7.574m17.311 3.122h-3.22l.028 7.714c0 1.064.392 1.204 1.288 1.204h1.946v2.52c-.392.168-1.12.35-2.534.35-3.822 0-4.802-1.582-4.802-3.906v-7.882h-2.352v-2.842h2.478l1.036-4.368h2.912v4.354h3.22zm11.415 16.254c-1.988 0-2.716-.49-2.716-.49v-2.604l1.442.056c2.506.154 2.828-.966 2.996-1.386l.266-.798-5.628-13.874h4.046l3.472 9.436 3.5-9.436h4.004l-5.866 14.56c-1.512 3.696-3.262 4.536-5.516 4.536m19.385-4.34c-4.256 0-7-2.87-7-7.434s2.716-7.602 7.014-7.602c4.27 0 6.986 2.968 6.986 7.602 0 4.354-2.59 7.434-7 7.434m.014-3.038c2.142 0 2.982-2.1 2.982-4.536 0-2.296-.714-4.452-2.982-4.452-2.17 0-3.024 1.988-3.024 4.452 0 2.268.728 4.536 3.024 4.536m15.003 3.038c-2.66-.014-5.516-1.666-5.516-4.746v-10.01h4.088v9.492c0 1.344.896 2.296 2.59 2.296 1.596 0 2.618-.868 2.618-2.366v-9.422h4.046V213h-3.08l-.476-2.87c-.518 2.534-2.562 3.164-4.27 3.15m11.4-.28v-14.476h3.934v3.43c.686-2.212 2.31-3.71 4.592-3.71.266 0 .518.028.63.084v3.892c-.168-.07-.42-.084-.616-.098-3.22-.28-4.452 1.008-4.452 2.954V213zm17.855 4.508v-18.984h4.102l.014 2.086c.882-1.344 2.52-2.366 4.494-2.366 3.234 0 5.572 2.338 5.572 7.406 0 5.25-2.548 7.63-5.978 7.63-1.862 0-3.318-1.092-4.116-2.45v6.678zm7.224-7.224c1.764 0 3.136-1.4 3.136-4.606 0-2.786-1.26-4.466-3.136-4.466-2.128 0-3.136 1.932-3.136 4.466 0 2.422 1.008 4.606 3.136 4.606m9.784 2.716v-14.476h3.934v3.43c.686-2.212 2.31-3.71 4.592-3.71.266 0 .518.028.63.084v3.892c-.168-.07-.42-.084-.616-.098-3.22-.28-4.452 1.008-4.452 2.954V213zm14.97-6.3c-.014 2.212 1.134 3.626 3.094 3.626 1.4 0 2.52-.56 2.94-1.918h3.682c-.49 3.094-3.514 4.872-6.524 4.872-4.298 0-7.238-2.856-7.238-7.35 0-4.354 2.59-7.686 7.028-7.686 4.424 0 6.748 3.01 6.748 7.35v1.106zm0-2.436h5.908c0-1.75-.966-3.164-2.94-3.164-1.876 0-2.982 1.568-2.968 3.164m21.043-5.74v2.842h-3.052V213h-4.102v-11.634h-2.674v-2.842h2.674v-2.086c0-2.338 1.442-3.682 3.948-3.682h3.318l.028 2.716h-1.918c-1.036 0-1.358.476-1.358 1.652v1.4zm5.699 8.176c-.014 2.212 1.134 3.626 3.094 3.626 1.4 0 2.52-.56 2.94-1.918h3.682c-.49 3.094-3.514 4.872-6.524 4.872-4.298 0-7.238-2.856-7.238-7.35 0-4.354 2.59-7.686 7.028-7.686 4.424 0 6.748 3.01 6.748 7.35v1.106zm0-2.436h5.908c0-1.75-.966-3.164-2.94-3.164-1.876 0-2.982 1.568-2.968 3.164M311.711 213v-14.476h3.934v3.43c.686-2.212 2.31-3.71 4.592-3.71.266 0 .518.028.63.084v3.892c-.168-.07-.42-.084-.616-.098-3.22-.28-4.452 1.008-4.452 2.954V213zm11.539 0v-14.476h3.934v3.43c.686-2.212 2.31-3.71 4.592-3.71.266 0 .518.028.63.084v3.892c-.168-.07-.42-.084-.616-.098-3.22-.28-4.452 1.008-4.452 2.954V213zm14.97-6.3c-.014 2.212 1.134 3.626 3.094 3.626 1.4 0 2.52-.56 2.94-1.918h3.682c-.49 3.094-3.514 4.872-6.524 4.872-4.298 0-7.238-2.856-7.238-7.35 0-4.354 2.59-7.686 7.028-7.686 4.424 0 6.748 3.01 6.748 7.35v1.106zm0-2.436h5.908c0-1.75-.966-3.164-2.94-3.164-1.876 0-2.982 1.568-2.968 3.164m18.149 9.016c-3.892 0-6.16-2.814-6.16-7.602 0-4.536 2.03-7.434 5.754-7.434 2.072 0 3.668 1.008 4.368 2.24v-8.288h4.102V213h-2.968l-.462-2.968c-.518 1.596-1.778 3.248-4.634 3.248m.896-2.94c2.058 0 3.066-1.302 3.066-4.718-.028-2.954-1.008-4.41-3.038-4.41-1.778 0-3.094 1.232-3.094 4.41 0 3.22 1.19 4.718 3.066 4.718m20.275-3.64c-.014 2.212 1.134 3.626 3.094 3.626 1.4 0 2.52-.56 2.94-1.918h3.682c-.49 3.094-3.514 4.872-6.524 4.872-4.298 0-7.238-2.856-7.238-7.35 0-4.354 2.59-7.686 7.028-7.686 4.424 0 6.748 3.01 6.748 7.35v1.106zm0-2.436h5.908c0-1.75-.966-3.164-2.94-3.164-1.876 0-2.982 1.568-2.968 3.164M390.215 213v-14.476h4.004v2.044c.868-1.274 2.31-2.324 4.578-2.324 1.484 0 3.206.798 4.06 2.324.938-1.316 2.506-2.324 4.382-2.324 2.156 0 4.732 1.302 4.732 5.208V213h-4.088v-9.044c0-1.75-1.162-2.38-2.324-2.38-1.078 0-2.45.616-2.45 2.156V213h-4.074v-9.408c0-1.316-1.218-2.016-2.296-2.016-1.12 0-2.436.7-2.436 2.156V213zm29.263.28c-2.758 0-4.886-1.596-4.886-4.424 0-3.164 2.282-4.844 7.392-4.9l1.82-.028v-.868c0-1.33-.756-2.072-2.394-2.058-1.19.014-2.394.504-2.8 1.834h-3.402c.154-3.136 2.772-4.592 6.398-4.592 4.424 0 6.118 1.736 6.118 4.578V213h-3.416l-.336-2.492c-.994 2.1-2.464 2.772-4.494 2.772m1.386-2.688c1.47 0 2.926-1.176 2.94-2.422v-2.142l-1.47.028c-2.044.028-3.864.63-3.864 2.394 0 1.344 1.05 2.142 2.394 2.142m14.151-17.822v3.682h-3.976v-3.682zm-.028 5.754V213h-3.906v-14.476zm8.219 14.728c-4.284 0-4.62-2.226-4.62-4.312v-16.744h4.004v16.24c0 1.064.378 1.764 1.638 1.904l.686.042v2.52c-.56.196-1.162.35-1.708.35M85.448 255.16a6.3 6.3 0 0 1-1.608-.2 4.9 4.9 0 0 1-1.384-.616 3.7 3.7 0 0 1-1.024-1.008 3.3 3.3 0 0 1-.504-1.408h1.552q.144.656.568 1.104.432.448 1.064.672a4.2 4.2 0 0 0 1.4.224 3.8 3.8 0 0 0 1.352-.232q.624-.232 1-.672.375-.448.376-1.072 0-.688-.448-1.104-.448-.424-1.384-.68l-2.384-.616a5.5 5.5 0 0 1-1.432-.56 2.7 2.7 0 0 1-.968-.96q-.352-.6-.352-1.488 0-.984.544-1.712.544-.736 1.472-1.136.936-.408 2.112-.408 1.36 0 2.288.472.936.472 1.416 1.24t.48 1.64h-1.52q-.072-.792-.464-1.248a2.2 2.2 0 0 0-.976-.664 3.8 3.8 0 0 0-1.272-.208q-1.24 0-1.88.568-.632.56-.632 1.336 0 .712.456 1.12t1.344.632l2.32.6q1.032.24 1.64.696.615.456.88 1.064.272.6.272 1.304 0 .96-.536 1.712t-1.504 1.184q-.96.424-2.264.424m9.99 0q-1.151 0-2.031-.504a3.5 3.5 0 0 1-1.376-1.448q-.495-.944-.496-2.264 0-1.304.448-2.288a3.5 3.5 0 0 1 1.296-1.536q.856-.552 2.056-.552 1.167 0 1.976.504.807.504 1.224 1.424.424.912.424 2.168v.544H93.03q0 .784.256 1.424.264.632.792 1.008t1.336.376q.792 0 1.36-.368.576-.368.736-1.064h1.392A2.73 2.73 0 0 1 98.23 254a3.35 3.35 0 0 1-1.256.872 4.1 4.1 0 0 1-1.536.288m-2.4-4.952h4.497q0-.712-.24-1.28a1.96 1.96 0 0 0-.736-.904q-.488-.336-1.232-.336-.777 0-1.288.376a2.2 2.2 0 0 0-.76.952 2.9 2.9 0 0 0-.24 1.192Zm10.055 4.896q-.672 0-1.088-.184a1.54 1.54 0 0 1-.632-.496 1.9 1.9 0 0 1-.296-.712 5 5 0 0 1-.072-.84v-9.76h1.456v9.616q0 .624.24.936a.92.92 0 0 0 .688.344l.448.008v.96q-.183.056-.384.088-.2.04-.36.04m5.861.056q-1.152 0-2.032-.504a3.5 3.5 0 0 1-1.376-1.448q-.495-.944-.496-2.264 0-1.304.448-2.288t1.296-1.536q.856-.552 2.056-.552 1.169 0 1.976.504a3.17 3.17 0 0 1 1.224 1.424q.424.912.424 2.168v.544h-5.928q0 .784.256 1.424.264.632.792 1.008t1.336.376q.793 0 1.36-.368.576-.368.736-1.064h1.392a2.73 2.73 0 0 1-.672 1.416 3.34 3.34 0 0 1-1.256.872 4.1 4.1 0 0 1-1.536.288m-2.4-4.952h4.496q0-.712-.24-1.28a1.96 1.96 0 0 0-.736-.904q-.488-.336-1.232-.336-.775 0-1.288.376a2.23 2.23 0 0 0-.76.952 2.9 2.9 0 0 0-.24 1.192m11.295 4.952q-1.12 0-1.984-.488-.856-.487-1.344-1.44-.48-.952-.48-2.336 0-1.296.44-2.264a3.5 3.5 0 0 1 1.296-1.52q.856-.544 2.072-.544.888 0 1.592.344.712.336 1.168.96t.56 1.472h-1.312a1.8 1.8 0 0 0-.336-.792 1.84 1.84 0 0 0-.68-.576q-.416-.216-.984-.216-1.064 0-1.736.768-.664.768-.664 2.352 0 1.432.608 2.296.616.856 1.808.856.568 0 .992-.216.424-.224.68-.584.256-.368.328-.784h1.288a2.9 2.9 0 0 1-.568 1.44q-.456.608-1.168.944a3.7 3.7 0 0 1-1.576.328m8.032-.12q-.856 0-1.328-.232a1.33 1.33 0 0 1-.664-.688q-.184-.456-.184-1.12v-5.192h-1.344v-1.08h1.384l.36-2.408h1.088v2.4h1.864v1.088h-1.864v5.144q0 .44.088.648a.46.46 0 0 0 .312.256q.216.056.608.056h.904v.992a2.3 2.3 0 0 1-.464.096q-.304.04-.76.04m10.186.12q-1.143 0-2-.488-.847-.496-1.32-1.448-.472-.952-.472-2.328 0-1.296.44-2.272.44-.977 1.288-1.512.849-.544 2.072-.544 1.144 0 1.984.504.84.496 1.304 1.464.472.968.472 2.36 0 1.264-.432 2.224a3.4 3.4 0 0 1-1.272 1.504q-.831.536-2.064.536m.008-1.168q.737 0 1.248-.376.512-.376.776-1.08.272-.704.272-1.672 0-.888-.24-1.592-.232-.713-.736-1.128-.504-.416-1.32-.416-.752 0-1.272.376-.519.368-.792 1.072-.264.704-.264 1.688 0 .872.232 1.584.24.712.752 1.128.52.416 1.344.416m5.727 1.008v-8.272h1.408v1.592q.208-.592.584-.976.376-.392.856-.584a2.7 2.7 0 0 1 1.368-.168.8.8 0 0 1 .272.08v1.432a1 1 0 0 0-.312-.072 3 3 0 0 0-.312-.024 3.3 3.3 0 0 0-.928.064 2.1 2.1 0 0 0-.76.312 1.6 1.6 0 0 0-.52.592q-.184.36-.184.88V255zm12.461.16q-.809 0-1.424-.28a2.3 2.3 0 0 1-.96-.824q-.344-.536-.344-1.296 0-1.376.96-2.048t3.08-.72l1.472-.04v-.648q0-.76-.456-1.2-.457-.448-1.408-.448a2.43 2.43 0 0 0-1.256.336q-.544.328-.696 1.072h-1.304q.048-.808.448-1.36.408-.56 1.144-.848.735-.288 1.736-.288 1.08 0 1.792.304.72.304 1.072.896.36.592.36 1.456V255h-1.264l-.112-1.552q-.472.968-1.216 1.344a3.6 3.6 0 0 1-1.624.368m.44-1.064q.423 0 .832-.152.416-.151.752-.408.344-.264.552-.584.208-.328.208-.672v-1.416l-1.224.024q-.952.017-1.584.192t-.952.552-.32.984q0 .696.488 1.088t1.248.392m9.1 1.064q-1.617 0-2.56-1.104-.936-1.104-.936-3.224 0-1.288.376-2.248.375-.96 1.128-1.488.751-.528 1.872-.528.6 0 1.056.152.456.151.792.384a2.76 2.76 0 0 1 .864.936v-4.928h1.496V255h-1.136l-.16-1.696q-.08.24-.256.56a2.7 2.7 0 0 1-.496.616q-.312.296-.816.488t-1.224.192m.264-1.136q1.247 0 1.784-.76.543-.768.544-2.504-.009-.968-.24-1.648-.232-.68-.736-1.032-.497-.36-1.328-.36-1.017 0-1.656.728-.64.728-.64 2.312 0 1.552.576 2.408t1.696.856m9.282 1.136q-1.615 0-2.56-1.104-.936-1.104-.936-3.224 0-1.288.376-2.248.377-.96 1.128-1.488.753-.528 1.872-.528.6 0 1.056.152.456.151.792.384.337.233.544.48.216.248.32.456v-4.928h1.496V255h-1.136l-.16-1.696q-.08.24-.256.56a2.7 2.7 0 0 1-.496.616q-.312.296-.816.488t-1.224.192m.264-1.136q1.248 0 1.784-.76.544-.768.544-2.504-.008-.968-.24-1.648t-.736-1.032q-.495-.36-1.328-.36-1.016 0-1.656.728t-.64 2.312q0 1.552.576 2.408t1.696.856m13.19 1.016q-.856 0-1.328-.232a1.33 1.33 0 0 1-.664-.688q-.184-.456-.184-1.12v-5.192h-1.344v-1.08h1.384l.36-2.408h1.088v2.4h1.864v1.088h-1.864v5.144q0 .44.088.648a.46.46 0 0 0 .312.256q.216.056.608.056h.904v.992a2.3 2.3 0 0 1-.464.096q-.304.04-.76.04m3.187-.04v-11.888h1.44v4.832q.207-.344.56-.64.352-.304.856-.488a3.3 3.3 0 0 1 1.168-.192 3.4 3.4 0 0 1 1.464.304q.656.296 1.04.848c.384.552.384.805.384 1.312V255h-1.48v-5.616q0-.744-.512-1.144-.504-.408-1.32-.408-.552 0-1.04.184-.489.176-.792.544-.296.36-.296.92V255zm12.714.16q-1.152 0-2.032-.504a3.5 3.5 0 0 1-1.376-1.448q-.495-.944-.496-2.264 0-1.304.448-2.288t1.296-1.536q.856-.552 2.056-.552 1.169 0 1.976.504a3.17 3.17 0 0 1 1.224 1.424q.424.912.424 2.168v.544h-5.928q0 .784.256 1.424.264.632.792 1.008t1.336.376q.792 0 1.36-.368.576-.368.736-1.064h1.392a2.73 2.73 0 0 1-.672 1.416 3.34 3.34 0 0 1-1.256.872 4.1 4.1 0 0 1-1.536.288m-2.4-4.952h4.496q0-.712-.24-1.28a1.96 1.96 0 0 0-.736-.904q-.488-.336-1.232-.336-.775 0-1.288.376a2.23 2.23 0 0 0-.76.952 2.9 2.9 0 0 0-.24 1.192m15.057 4.952q-1.152 0-2.032-.504a3.5 3.5 0 0 1-1.376-1.448q-.496-.944-.496-2.264 0-1.304.448-2.288a3.5 3.5 0 0 1 1.296-1.536q.856-.552 2.056-.552 1.167 0 1.976.504.807.504 1.224 1.424.423.912.424 2.168v.544h-5.928q0 .784.256 1.424.264.632.792 1.008t1.336.376q.792 0 1.36-.368.576-.368.736-1.064h1.392a2.73 2.73 0 0 1-.672 1.416 3.36 3.36 0 0 1-1.256.872 4.1 4.1 0 0 1-1.536.288m-2.4-4.952h4.496q0-.712-.24-1.28a1.96 1.96 0 0 0-.736-.904q-.488-.336-1.232-.336-.777 0-1.288.376a2.2 2.2 0 0 0-.76.952 2.9 2.9 0 0 0-.24 1.192m7.966 4.792v-8.272h1.424v1.2q.344-.544.944-.952t1.56-.408q.448 0 .912.152.473.151.864.456c.391.305.464.451.608.744a2.86 2.86 0 0 1 1.04-.976 2.9 2.9 0 0 1 1.48-.376q.432 0 .904.136.472.128.872.464.408.328.664.92.256.584.256 1.504V255h-1.488v-5.264q0-.752-.24-1.16a1.34 1.34 0 0 0-.632-.584 2 2 0 0 0-.824-.168 2.5 2.5 0 0 0-.816.152 1.7 1.7 0 0 0-.736.512q-.304.36-.304.984V255h-1.472v-5.696q0-.487-.264-.816a1.6 1.6 0 0 0-.648-.496 1.9 1.9 0 0 0-.768-.168q-.424 0-.856.168a1.73 1.73 0 0 0-.72.536q-.288.36-.288.944V255zm16.133.16q-.809 0-1.424-.28a2.3 2.3 0 0 1-.96-.824q-.344-.536-.344-1.296 0-1.376.96-2.048t3.08-.72l1.472-.04v-.648q0-.76-.456-1.2-.457-.448-1.408-.448a2.43 2.43 0 0 0-1.256.336q-.544.328-.696 1.072h-1.304q.048-.808.448-1.36.408-.56 1.144-.848.735-.288 1.736-.288 1.08 0 1.792.304.72.304 1.072.896.36.592.36 1.456V255h-1.264l-.112-1.552q-.472.968-1.216 1.344a3.6 3.6 0 0 1-1.624.368m.44-1.064q.424 0 .832-.152.416-.151.752-.408.344-.264.552-.584.208-.328.208-.672v-1.416l-1.224.024q-.952.017-1.584.192t-.952.552-.32.984q0 .696.488 1.088t1.248.392m6.123.904v-8.272h1.432V255zm-.04-10.024v-1.536h1.512v1.536zm6.135 10.128q-.672 0-1.088-.184a1.54 1.54 0 0 1-.632-.496 1.9 1.9 0 0 1-.296-.712 5 5 0 0 1-.072-.84v-9.76h1.456v9.616q0 .624.24.936a.92.92 0 0 0 .688.344l.448.008v.96q-.183.056-.384.088-.2.04-.36.04m7.377 2.536q-.728 0-1-.104l-.272-.104v-.96l.848.016q.456.016.76-.064t.488-.216a1 1 0 0 0 .28-.304 2.4 2.4 0 0 0 .168-.32l.288-.784-3.232-8.072h1.496l2.44 6.384 2.424-6.384h1.448l-3.48 8.896q-.328.784-.728 1.224a2.16 2.16 0 0 1-.88.616q-.48.176-1.048.176m10.894-2.48q-1.144 0-2-.488-.848-.496-1.32-1.448t-.472-2.328q0-1.296.44-2.272.44-.977 1.288-1.512.848-.544 2.072-.544 1.144 0 1.984.504.84.496 1.304 1.464.472.968.472 2.36 0 1.264-.432 2.224a3.4 3.4 0 0 1-1.272 1.504q-.833.536-2.064.536m.008-1.168q.736 0 1.248-.376t.776-1.08q.272-.704.272-1.672 0-.888-.24-1.592-.232-.713-.736-1.128-.504-.416-1.32-.416-.751 0-1.272.376-.52.368-.792 1.072-.264.704-.264 1.688 0 .872.232 1.584.24.712.752 1.128.52.416 1.344.416m8.736 1.168a4.4 4.4 0 0 1-1.224-.184 3.2 3.2 0 0 1-1.008-.536 2.5 2.5 0 0 1-.696-.872q-.249-.528-.248-1.224v-5.616h1.48v5.464q0 .808.496 1.312.504.504 1.512.504.912 0 1.464-.472.56-.48.56-1.424v-5.384h1.472V255h-1.176l-.152-1.584q-.153.624-.52 1.008-.36.384-.872.568a3.2 3.2 0 0 1-1.088.168m6.444-7.992-.464-3.736h1.792l-.48 3.736zm5.672 7.992q-1.615 0-2.56-1.104-.936-1.104-.936-3.224 0-1.288.376-2.248t1.128-1.488 1.872-.528q.6 0 1.056.152.456.151.792.384.337.233.544.48.216.248.32.456v-4.928h1.496V255h-1.136l-.16-1.696q-.08.24-.256.56a2.7 2.7 0 0 1-.496.616q-.312.296-.816.488t-1.224.192m.264-1.136q1.248 0 1.784-.76.544-.768.544-2.504-.007-.968-.24-1.648-.231-.68-.736-1.032-.495-.36-1.328-.36-1.016 0-1.656.728t-.64 2.312q0 1.552.576 2.408.577.856 1.696.856m12.246 1.08q-.672 0-1.088-.184a1.53 1.53 0 0 1-.632-.496 1.9 1.9 0 0 1-.296-.712 5 5 0 0 1-.072-.84v-9.76h1.456v9.616q0 .624.24.936.248.312.688.344l.448.008v.96a3 3 0 0 1-.384.088q-.2.04-.36.04m2.718-.104v-8.272h1.432V255zm-.04-10.024v-1.536h1.512v1.536zM308.083 255v-11.888h1.472v7.752l3.888-4.136h1.696l-2.984 3.152 3.192 5.12h-1.568l-2.592-4.152-1.632 1.688V255zm12.106.16q-1.152 0-2.032-.504a3.5 3.5 0 0 1-1.376-1.448q-.496-.944-.496-2.264 0-1.304.448-2.288a3.5 3.5 0 0 1 1.296-1.536q.855-.552 2.056-.552 1.167 0 1.976.504.807.504 1.224 1.424.423.912.424 2.168v.544h-5.928q0 .784.256 1.424.264.632.792 1.008t1.336.376q.792 0 1.36-.368.576-.368.736-1.064h1.392a2.73 2.73 0 0 1-.672 1.416 3.36 3.36 0 0 1-1.256.872 4.1 4.1 0 0 1-1.536.288m-2.4-4.952h4.496q0-.712-.24-1.28a1.96 1.96 0 0 0-.736-.904q-.488-.336-1.232-.336-.777 0-1.288.376a2.2 2.2 0 0 0-.76.952 2.9 2.9 0 0 0-.24 1.192m14.795 4.832q-.856 0-1.328-.232a1.33 1.33 0 0 1-.664-.688q-.184-.456-.184-1.12v-5.192h-1.344v-1.08h1.384l.36-2.408h1.088v2.4h1.864v1.088h-1.864v5.144q0 .44.088.648a.46.46 0 0 0 .312.256q.216.056.608.056h.904v.992a2.3 2.3 0 0 1-.464.096q-.304.04-.76.04m6.28.12q-1.144 0-2-.488-.847-.496-1.32-1.448-.472-.952-.472-2.328 0-1.296.44-2.272.44-.977 1.288-1.512.848-.544 2.072-.544 1.144 0 1.984.504.84.496 1.304 1.464.472.968.472 2.36 0 1.264-.432 2.224a3.4 3.4 0 0 1-1.272 1.504q-.832.536-2.064.536m.008-1.168q.736 0 1.248-.376t.776-1.08q.272-.704.272-1.672 0-.888-.24-1.592-.232-.713-.736-1.128-.504-.416-1.32-.416-.752 0-1.272.376-.52.368-.792 1.072-.264.704-.264 1.688 0 .872.232 1.584.24.712.752 1.128.52.416 1.344.416m12.564 1.168a4.4 4.4 0 0 1-1.224-.184 3.2 3.2 0 0 1-1.008-.536 2.54 2.54 0 0 1-.696-.872q-.248-.528-.248-1.224v-5.616h1.48v5.464q0 .808.496 1.312.504.504 1.512.504.912 0 1.464-.472.56-.48.56-1.424v-5.384h1.472V255h-1.176l-.152-1.584q-.152.624-.52 1.008-.36.384-.872.568a3.2 3.2 0 0 1-1.088.168m9.217 0a4.8 4.8 0 0 1-1.608-.264 2.9 2.9 0 0 1-1.224-.84q-.488-.576-.608-1.464h1.344q.104.488.4.816.296.32.728.488.44.16.96.16.84 0 1.352-.312t.512-.96q0-.456-.272-.728-.264-.28-.832-.408l-1.712-.424q-1-.24-1.6-.752-.592-.512-.6-1.432 0-.728.352-1.28c.352-.552.584-.659 1.048-.872q.703-.32 1.752-.32 1.352 0 2.176.608.823.6.864 1.768h-1.312a1.36 1.36 0 0 0-.528-.936q-.448-.352-1.216-.352-.784 0-1.288.32-.496.312-.496.976 0 .44.352.696.36.248 1.04.416l1.664.416q.568.152.944.4t.592.552.304.64q.096.328.096.632 0 .76-.376 1.312-.376.544-1.088.848-.712.296-1.72.296m8.614 0q-1.152 0-2.032-.504a3.5 3.5 0 0 1-1.376-1.448q-.496-.944-.496-2.264 0-1.304.448-2.288t1.296-1.536q.856-.552 2.056-.552 1.168 0 1.976.504a3.17 3.17 0 0 1 1.224 1.424q.424.912.424 2.168v.544h-5.928q0 .784.256 1.424.264.632.792 1.008t1.336.376q.792 0 1.36-.368.576-.368.736-1.064h1.392a2.73 2.73 0 0 1-.672 1.416 3.35 3.35 0 0 1-1.256.872 4.1 4.1 0 0 1-1.536.288m-2.4-4.952h4.496q0-.712-.24-1.28a1.96 1.96 0 0 0-.736-.904q-.488-.336-1.232-.336-.776 0-1.288.376a2.2 2.2 0 0 0-.76.952 2.9 2.9 0 0 0-.24 1.192m14.795 4.832q-.855 0-1.328-.232a1.33 1.33 0 0 1-.664-.688q-.184-.456-.184-1.12v-5.192h-1.344v-1.08h1.384l.36-2.408h1.088v2.4h1.864v1.088h-1.864v5.144q0 .44.088.648a.46.46 0 0 0 .312.256q.216.056.608.056h.904v.992a2.3 2.3 0 0 1-.464.096 6 6 0 0 1-.76.04m6.28.12q-1.143 0-2-.488-.847-.496-1.32-1.448-.472-.952-.472-2.328 0-1.296.44-2.272.44-.977 1.288-1.512.848-.544 2.072-.544 1.144 0 1.984.504.84.496 1.304 1.464.472.968.472 2.36 0 1.264-.432 2.224a3.4 3.4 0 0 1-1.272 1.504q-.831.536-2.064.536m.008-1.168q.736 0 1.248-.376.513-.376.776-1.08.272-.704.272-1.672 0-.888-.24-1.592-.231-.713-.736-1.128-.504-.416-1.32-.416-.752 0-1.272.376-.519.368-.792 1.072-.264.704-.264 1.688 0 .872.232 1.584.24.712.752 1.128.52.416 1.344.416m11.844 1.168q-.808 0-1.424-.28a2.3 2.3 0 0 1-.96-.824q-.344-.536-.344-1.296 0-1.376.96-2.048t3.08-.72l1.472-.04v-.648q0-.76-.456-1.2-.456-.448-1.408-.448a2.43 2.43 0 0 0-1.256.336q-.544.328-.696 1.072h-1.304q.048-.808.448-1.36.408-.56 1.144-.848t1.736-.288q1.08 0 1.792.304.72.304 1.072.896.36.592.36 1.456V255h-1.264l-.112-1.552q-.472.968-1.216 1.344a3.6 3.6 0 0 1-1.624.368m.44-1.064q.424 0 .832-.152.416-.151.752-.408.343-.264.552-.584a1.24 1.24 0 0 0 .208-.672v-1.416l-1.224.024q-.952.017-1.584.192t-.952.552-.32.984q0 .696.488 1.088.487.392 1.248.392m9.412 1.064q-1.12 0-1.984-.488-.857-.487-1.344-1.44-.48-.952-.48-2.336 0-1.296.44-2.264a3.5 3.5 0 0 1 1.296-1.52q.855-.544 2.072-.544.888 0 1.592.344.712.336 1.168.96t.56 1.472h-1.312a1.8 1.8 0 0 0-.336-.792 1.85 1.85 0 0 0-.68-.576 2.1 2.1 0 0 0-.984-.216q-1.065 0-1.736.768-.664.768-.664 2.352 0 1.432.608 2.296.615.856 1.808.856.567 0 .992-.216a1.9 1.9 0 0 0 .68-.584q.256-.368.328-.784h1.288a2.93 2.93 0 0 1-.568 1.44q-.457.608-1.168.944-.705.328-1.576.328m8.656 0q-1.12 0-1.984-.488-.856-.487-1.344-1.44-.48-.952-.48-2.336 0-1.296.44-2.264a3.5 3.5 0 0 1 1.296-1.52q.856-.544 2.072-.544.888 0 1.592.344.712.336 1.168.96t.56 1.472h-1.312a1.8 1.8 0 0 0-.336-.792 1.84 1.84 0 0 0-.68-.576q-.415-.216-.984-.216-1.064 0-1.736.768-.664.768-.664 2.352 0 1.432.608 2.296.616.856 1.808.856.568 0 .992-.216.424-.224.68-.584.256-.368.328-.784h1.288a2.9 2.9 0 0 1-.568 1.44q-.456.608-1.168.944a3.7 3.7 0 0 1-1.576.328m8.824 0q-1.152 0-2.032-.504a3.5 3.5 0 0 1-1.376-1.448q-.495-.944-.496-2.264 0-1.304.448-2.288t1.296-1.536q.856-.552 2.056-.552 1.169 0 1.976.504a3.17 3.17 0 0 1 1.224 1.424q.424.912.424 2.168v.544h-5.928q0 .784.256 1.424.264.632.792 1.008.529.376 1.336.376.793 0 1.36-.368.577-.368.736-1.064h1.392a2.73 2.73 0 0 1-.672 1.416 3.34 3.34 0 0 1-1.256.872 4.1 4.1 0 0 1-1.536.288m-2.4-4.952h4.496q0-.712-.24-1.28a1.96 1.96 0 0 0-.736-.904q-.488-.336-1.232-.336-.775 0-1.288.376a2.23 2.23 0 0 0-.76.952 2.9 2.9 0 0 0-.24 1.192m10.896 4.952a4.8 4.8 0 0 1-1.608-.264 2.9 2.9 0 0 1-1.224-.84q-.488-.576-.608-1.464h1.344q.104.488.4.816.296.32.728.488.44.16.96.16.84 0 1.352-.312t.512-.96q0-.456-.272-.728-.264-.28-.832-.408l-1.712-.424q-1-.24-1.6-.752-.592-.512-.6-1.432 0-.728.352-1.28c.352-.552.584-.659 1.048-.872q.704-.32 1.752-.32 1.352 0 2.176.608.823.6.864 1.768h-1.312a1.36 1.36 0 0 0-.528-.936q-.448-.352-1.216-.352-.784 0-1.288.32-.496.312-.496.976 0 .44.352.696.36.248 1.04.416l1.664.416q.568.152.944.4t.592.552.304.64q.096.328.096.632 0 .76-.376 1.312-.376.544-1.088.848-.712.296-1.72.296m8.062 0a4.8 4.8 0 0 1-1.608-.264 2.9 2.9 0 0 1-1.224-.84q-.488-.576-.608-1.464h1.344q.105.488.4.816.296.32.728.488.441.16.96.16.84 0 1.352-.312t.512-.96q0-.456-.272-.728-.264-.28-.832-.408l-1.712-.424q-1-.24-1.6-.752-.591-.512-.6-1.432 0-.728.352-1.28t1.048-.872q.705-.32 1.752-.32 1.353 0 2.176.608.825.6.864 1.768h-1.312a1.36 1.36 0 0 0-.528-.936q-.447-.352-1.216-.352-.784 0-1.288.32-.495.312-.496.976 0 .44.352.696.36.248 1.04.416l1.664.416q.569.152.944.4.376.248.592.552t.304.64q.096.328.096.632 0 .76-.376 1.312-.375.544-1.088.848-.711.296-1.72.296m12.026-.16-4-11.568h2.232l3.096 8.856 3.08-8.856h2.24l-4 11.568zm5.621 0 4.136-11.568h2.472L472.075 255h-2.328l-.944-2.68h-4.168l-.96 2.68zm3.832-4.72h3.072l-1.528-4.6zm8.233 4.72v-1.888h1.76V255z"/><rect width="289" height="40" x="80.5" y="293.5" fill="#f2f9ff" rx="7.5"/><rect width="289" height="40" x="80.5" y="293.5" stroke="#cedced" rx="7.5"/><circle cx="104.5" cy="313.5" r="5" stroke="#0071bb" stroke-width="3"/><path fill="#454545" d="M123.312 315.208c0 1.568.776 2.808 2.384 2.808 1.056 0 1.888-.496 2.096-1.432h1.392c-.304 1.688-1.856 2.576-3.464 2.576-2.312 0-3.904-1.576-3.904-4.216 0-2.608 1.392-4.376 3.8-4.376 2.328 0 3.624 1.584 3.624 4.096v.544zm.008-1h4.496c0-1.424-.712-2.52-2.208-2.52-1.56 0-2.296 1.288-2.288 2.52M138.028 319h-1.608l-2.408-3.24-2.392 3.24h-1.616l3.184-4.296-2.928-3.976h1.608l2.152 2.904 2.152-2.904h1.616l-2.944 3.976zm3.735.16c-1.608 0-2.728-.888-2.728-2.4 0-1.832 1.208-2.704 4.04-2.768l1.472-.04v-.648c0-1.008-.592-1.648-1.864-1.648-.952.008-1.752.424-1.952 1.408h-1.304c.088-1.608 1.32-2.496 3.328-2.496 2.152 0 3.224.928 3.224 2.656V319h-1.264l-.112-1.552c-.64 1.288-1.656 1.712-2.84 1.712m.44-1.064c1.112 0 2.344-.896 2.344-1.816v-1.416l-1.224.024c-1.904.032-2.856.504-2.856 1.728 0 .936.72 1.48 1.736 1.48m6.084.904v-8.272h1.424v1.2c.456-.728 1.216-1.36 2.504-1.36.904 0 1.952.472 2.384 1.352.512-.808 1.424-1.352 2.52-1.352 1.168 0 2.696.576 2.696 3.024V319h-1.488v-5.264c0-1.496-.824-1.912-1.696-1.912-.776 0-1.856.392-1.856 1.648V319h-1.472v-5.696c0-.984-.912-1.48-1.68-1.48-.848 0-1.864.488-1.864 1.648V319zm13.843 2.576v-10.848h1.472l.016 1.44c.376-.68 1.2-1.6 2.72-1.6 1.976 0 3.352 1.336 3.352 4.184 0 2.84-1.296 4.408-3.472 4.408-1.48 0-2.256-.952-2.6-1.656v4.072zm3.808-3.568c1.36 0 2.32-1.008 2.32-3.208 0-1.88-.808-3.08-2.32-3.08-1.536 0-2.336 1.256-2.336 3.08 0 1.784.8 3.208 2.336 3.208m7.812 1.096c-1.784 0-2.088-1.072-2.088-2.232v-9.76h1.456v9.616c0 .84.344 1.24.928 1.28l.448.008v.96c-.248.08-.536.128-.744.128m3.437-3.896c0 1.568.776 2.808 2.384 2.808 1.056 0 1.888-.496 2.096-1.432h1.392c-.304 1.688-1.856 2.576-3.464 2.576-2.312 0-3.904-1.576-3.904-4.216 0-2.608 1.392-4.376 3.8-4.376 2.328 0 3.624 1.584 3.624 4.096v.544zm.008-1h4.496c0-1.424-.712-2.52-2.208-2.52-1.56 0-2.296 1.288-2.288 2.52m7.623 4.792v-1.888h1.76V319zm6.977.16c-1.72-.016-3.176-.952-3.176-2.816v-5.616h1.48v5.464c0 1.08.656 1.816 2.008 1.816 1.216 0 2.024-.64 2.024-1.896v-5.384h1.472V319h-1.176l-.152-1.584c-.304 1.24-1.312 1.752-2.48 1.744m9.218 0c-1.728 0-3.201-.784-3.44-2.568h1.344c.208.968 1.04 1.464 2.088 1.464 1.12 0 1.864-.408 1.864-1.272 0-.608-.352-.96-1.104-1.136l-1.712-.424c-1.336-.32-2.192-.952-2.2-2.184-.008-1.448 1.056-2.472 3.152-2.472 1.792 0 2.984.824 3.04 2.376h-1.312c-.112-.792-.72-1.288-1.744-1.288-1.056 0-1.784.416-1.784 1.296 0 .592.48.888 1.392 1.112l1.664.416c1.52.4 1.936 1.408 1.936 2.224 0 1.52-1.168 2.456-3.184 2.456m6.221-3.952c0 1.568.776 2.808 2.384 2.808 1.056 0 1.888-.496 2.096-1.432h1.392c-.304 1.688-1.856 2.576-3.464 2.576-2.312 0-3.904-1.576-3.904-4.216 0-2.608 1.392-4.376 3.8-4.376 2.328 0 3.624 1.584 3.624 4.096v.544zm.008-1h4.496c0-1.424-.712-2.52-2.208-2.52-1.56 0-2.296 1.288-2.288 2.52m7.966 4.792v-8.272h1.408v1.592c.416-1.192 1.4-1.752 2.448-1.752.24 0 .496.032.632.104v1.432c-.16-.072-.456-.096-.624-.096-1.32-.088-2.392.472-2.392 1.848V319zm6.018 0v-1.376c0-4.152 6.12-3.936 6.12-7.064 0-1.176-.888-1.984-2.296-1.984-1.512 0-2.48.92-2.6 2.344h-1.472c.04-2 1.44-3.648 4.128-3.648 2.328 0 3.808 1.32 3.808 3.288 0 4.16-6.04 3.792-6.04 6.896v.232h6.104V319zm19.036.552c-.928.712-2.216 1.208-3.712 1.208-3.792 0-6.04-2.624-6.04-5.832 0-3.368 2.504-6.232 6.296-6.232 2.72 0 5.52 1.496 5.52 5 0 2.392-1.296 4.04-3.032 4.04-.824 0-1.248-.288-1.416-.816-.048-.136-.08-.128-.184-.016-.464.6-1.152 1.056-2.152 1.056-1.2 0-2.232-1.088-2.224-2.76 0-1.968 1.24-3.608 3.032-3.608.864 0 1.432.392 1.784.96.032.04.096.04.112-.056l.136-.504h1l-.592 3.552c-.16.904.08 1.192.592 1.192.984 0 1.848-1.088 1.848-2.944 0-3.008-2.296-4.128-4.44-4.128-3.36 0-5.184 2.416-5.184 5.272 0 2.784 1.824 4.88 5.168 4.88 1.432 0 2.112-.456 2.92-1.008zm-5.728-4.44c0 1.08.448 1.8 1.256 1.8 1.008 0 1.856-1 2-2.152.184-1.392-.544-2.12-1.36-2.12-1.112 0-1.896 1.104-1.896 2.472m10.841.096c0 1.568.776 2.808 2.384 2.808 1.056 0 1.888-.496 2.096-1.432h1.392c-.304 1.688-1.856 2.576-3.464 2.576-2.312 0-3.904-1.576-3.904-4.216 0-2.608 1.392-4.376 3.8-4.376 2.328 0 3.624 1.584 3.624 4.096v.544zm.008-1h4.496c0-1.424-.712-2.52-2.208-2.52-1.56 0-2.296 1.288-2.288 2.52m7.966 4.792v-8.272h1.424v1.2c.456-.728 1.216-1.36 2.504-1.36.904 0 1.952.472 2.384 1.352.512-.808 1.424-1.352 2.52-1.352 1.168 0 2.696.576 2.696 3.024V319h-1.488v-5.264c0-1.496-.824-1.912-1.696-1.912-.776 0-1.856.392-1.856 1.648V319h-1.472v-5.696c0-.984-.912-1.48-1.68-1.48-.848 0-1.864.488-1.864 1.648V319zm16.133.16c-1.608 0-2.728-.888-2.728-2.4 0-1.832 1.208-2.704 4.04-2.768l1.472-.04v-.648c0-1.008-.592-1.648-1.864-1.648-.952.008-1.752.424-1.952 1.408h-1.304c.088-1.608 1.32-2.496 3.328-2.496 2.152 0 3.224.928 3.224 2.656V319h-1.264l-.112-1.552c-.64 1.288-1.656 1.712-2.84 1.712m.44-1.064c1.112 0 2.344-.896 2.344-1.816v-1.416l-1.224.024c-1.904.032-2.856.504-2.856 1.728 0 .936.72 1.48 1.736 1.48m7.595-10.656v1.536h-1.512v-1.536zm-.04 3.288V319h-1.432v-8.272zm4.679 8.376c-1.784 0-2.088-1.072-2.088-2.232v-9.76h1.456v9.616c0 .84.344 1.24.928 1.28l.448.008v.96c-.248.08-.536.128-.744.128m2.49-.104v-1.888h1.76V319zm7.265-8.432c1.776 0 3.096 1.088 3.32 2.776h-1.312c-.144-.872-.864-1.584-2-1.584-1.416 0-2.4 1.008-2.4 3.12 0 1.912.832 3.152 2.416 3.152 1.136 0 1.856-.752 2-1.584h1.288c-.216 1.664-1.56 2.712-3.312 2.712-2.24 0-3.808-1.488-3.808-4.264 0-2.576 1.368-4.328 3.808-4.328m8.625 8.592c-2.296 0-3.792-1.504-3.792-4.264 0-2.592 1.352-4.328 3.8-4.328 2.28 0 3.76 1.544 3.76 4.328 0 2.528-1.304 4.264-3.768 4.264m.008-1.168c1.48 0 2.296-1.184 2.296-3.128 0-1.768-.672-3.136-2.296-3.136-1.504 0-2.328 1.168-2.328 3.136 0 1.744.672 3.128 2.328 3.128m5.727 1.008v-8.272h1.424v1.2c.456-.728 1.216-1.36 2.504-1.36.904 0 1.952.472 2.384 1.352.512-.808 1.424-1.352 2.52-1.352 1.168 0 2.696.576 2.696 3.024V319h-1.488v-5.264c0-1.496-.824-1.912-1.696-1.912-.776 0-1.856.392-1.856 1.648V319h-1.472v-5.696c0-.984-.912-1.48-1.68-1.48-.848 0-1.864.488-1.864 1.648V319z"/><rect width="289" height="40" x="80.5" y="350.5" fill="#fff" rx="7.5"/><rect width="289" height="40" x="80.5" y="350.5" stroke="#cedced" rx="7.5"/><circle cx="104.5" cy="370.5" r="7" fill="#f2f9ff" stroke="#0071bb"/><path fill="#454545" d="M123.312 372.208c0 1.568.776 2.808 2.384 2.808 1.056 0 1.888-.496 2.096-1.432h1.392c-.304 1.688-1.856 2.576-3.464 2.576-2.312 0-3.904-1.576-3.904-4.216 0-2.608 1.392-4.376 3.8-4.376 2.328 0 3.624 1.584 3.624 4.096v.544zm.008-1h4.496c0-1.424-.712-2.52-2.208-2.52-1.56 0-2.296 1.288-2.288 2.52M138.028 376h-1.608l-2.408-3.24-2.392 3.24h-1.616l3.184-4.296-2.928-3.976h1.608l2.152 2.904 2.152-2.904h1.616l-2.944 3.976zm3.735.16c-1.608 0-2.728-.888-2.728-2.4 0-1.832 1.208-2.704 4.04-2.768l1.472-.04v-.648c0-1.008-.592-1.648-1.864-1.648-.952.008-1.752.424-1.952 1.408h-1.304c.088-1.608 1.32-2.496 3.328-2.496 2.152 0 3.224.928 3.224 2.656V376h-1.264l-.112-1.552c-.64 1.288-1.656 1.712-2.84 1.712m.44-1.064c1.112 0 2.344-.896 2.344-1.816v-1.416l-1.224.024c-1.904.032-2.856.504-2.856 1.728 0 .936.72 1.48 1.736 1.48m6.084.904v-8.272h1.424v1.2c.456-.728 1.216-1.36 2.504-1.36.904 0 1.952.472 2.384 1.352.512-.808 1.424-1.352 2.52-1.352 1.168 0 2.696.576 2.696 3.024V376h-1.488v-5.264c0-1.496-.824-1.912-1.696-1.912-.776 0-1.856.392-1.856 1.648V376h-1.472v-5.696c0-.984-.912-1.48-1.68-1.48-.848 0-1.864.488-1.864 1.648V376zm13.843 2.576v-10.848h1.472l.016 1.44c.376-.68 1.2-1.6 2.72-1.6 1.976 0 3.352 1.336 3.352 4.184 0 2.84-1.296 4.408-3.472 4.408-1.48 0-2.256-.952-2.6-1.656v4.072zm3.808-3.568c1.36 0 2.32-1.008 2.32-3.208 0-1.88-.808-3.08-2.32-3.08-1.536 0-2.336 1.256-2.336 3.08 0 1.784.8 3.208 2.336 3.208m7.812 1.096c-1.784 0-2.088-1.072-2.088-2.232v-9.76h1.456v9.616c0 .84.344 1.24.928 1.28l.448.008v.96c-.248.08-.536.128-.744.128m3.437-3.896c0 1.568.776 2.808 2.384 2.808 1.056 0 1.888-.496 2.096-1.432h1.392c-.304 1.688-1.856 2.576-3.464 2.576-2.312 0-3.904-1.576-3.904-4.216 0-2.608 1.392-4.376 3.8-4.376 2.328 0 3.624 1.584 3.624 4.096v.544zm.008-1h4.496c0-1.424-.712-2.52-2.208-2.52-1.56 0-2.296 1.288-2.288 2.52m7.623 4.792v-1.888h1.76V376zm6.977.16c-1.72-.016-3.176-.952-3.176-2.816v-5.616h1.48v5.464c0 1.08.656 1.816 2.008 1.816 1.216 0 2.024-.64 2.024-1.896v-5.384h1.472V376h-1.176l-.152-1.584c-.304 1.24-1.312 1.752-2.48 1.744m9.218 0c-1.728 0-3.201-.784-3.44-2.568h1.344c.208.968 1.04 1.464 2.088 1.464 1.12 0 1.864-.408 1.864-1.272 0-.608-.352-.96-1.104-1.136l-1.712-.424c-1.336-.32-2.192-.952-2.2-2.184-.008-1.448 1.056-2.472 3.152-2.472 1.792 0 2.984.824 3.04 2.376h-1.312c-.112-.792-.72-1.288-1.744-1.288-1.056 0-1.784.416-1.784 1.296 0 .592.48.888 1.392 1.112l1.664.416c1.52.4 1.936 1.408 1.936 2.224 0 1.52-1.168 2.456-3.184 2.456m6.221-3.952c0 1.568.776 2.808 2.384 2.808 1.056 0 1.888-.496 2.096-1.432h1.392c-.304 1.688-1.856 2.576-3.464 2.576-2.312 0-3.904-1.576-3.904-4.216 0-2.608 1.392-4.376 3.8-4.376 2.328 0 3.624 1.584 3.624 4.096v.544zm.008-1h4.496c0-1.424-.712-2.52-2.208-2.52-1.56 0-2.296 1.288-2.288 2.52m7.966 4.792v-8.272h1.408v1.592c.416-1.192 1.4-1.752 2.448-1.752.24 0 .496.032.632.104v1.432c-.16-.072-.456-.096-.624-.096-1.32-.088-2.392.472-2.392 1.848V376zm15.397.552c-.928.712-2.216 1.208-3.712 1.208-3.792 0-6.04-2.624-6.04-5.832 0-3.368 2.504-6.232 6.296-6.232 2.72 0 5.52 1.496 5.52 5 0 2.392-1.296 4.04-3.032 4.04-.824 0-1.248-.288-1.416-.816-.048-.136-.08-.128-.184-.016-.464.6-1.152 1.056-2.152 1.056-1.2 0-2.232-1.088-2.224-2.76 0-1.968 1.24-3.608 3.032-3.608.864 0 1.432.392 1.784.96.032.04.096.04.112-.056l.136-.504h1l-.592 3.552c-.16.904.08 1.192.592 1.192.984 0 1.848-1.088 1.848-2.944 0-3.008-2.296-4.128-4.44-4.128-3.36 0-5.184 2.416-5.184 5.272 0 2.784 1.824 4.88 5.168 4.88 1.432 0 2.112-.456 2.92-1.008zm-5.728-4.44c0 1.08.448 1.8 1.256 1.8 1.008 0 1.856-1 2-2.152.184-1.392-.544-2.12-1.36-2.12-1.112 0-1.896 1.104-1.896 2.472m10.841.096c0 1.568.776 2.808 2.384 2.808 1.056 0 1.888-.496 2.096-1.432h1.392c-.304 1.688-1.856 2.576-3.464 2.576-2.312 0-3.904-1.576-3.904-4.216 0-2.608 1.392-4.376 3.8-4.376 2.328 0 3.624 1.584 3.624 4.096v.544zm.008-1h4.496c0-1.424-.712-2.52-2.208-2.52-1.56 0-2.296 1.288-2.288 2.52m7.967 4.792v-8.272h1.424v1.2c.456-.728 1.216-1.36 2.504-1.36.904 0 1.952.472 2.384 1.352.512-.808 1.424-1.352 2.52-1.352 1.168 0 2.696.576 2.696 3.024V376h-1.488v-5.264c0-1.496-.824-1.912-1.696-1.912-.776 0-1.856.392-1.856 1.648V376h-1.472v-5.696c0-.984-.912-1.48-1.68-1.48-.848 0-1.864.488-1.864 1.648V376zm16.132.16c-1.608 0-2.728-.888-2.728-2.4 0-1.832 1.208-2.704 4.04-2.768l1.472-.04v-.648c0-1.008-.592-1.648-1.864-1.648-.952.008-1.752.424-1.952 1.408h-1.304c.088-1.608 1.32-2.496 3.328-2.496 2.152 0 3.224.928 3.224 2.656V376h-1.264l-.112-1.552c-.64 1.288-1.656 1.712-2.84 1.712m.44-1.064c1.112 0 2.344-.896 2.344-1.816v-1.416l-1.224.024c-1.904.032-2.856.504-2.856 1.728 0 .936.72 1.48 1.736 1.48m7.596-10.656v1.536h-1.512v-1.536zm-.04 3.288V376h-1.432v-8.272zm4.679 8.376c-1.784 0-2.088-1.072-2.088-2.232v-9.76h1.456v9.616c0 .84.344 1.24.928 1.28l.448.008v.96c-.248.08-.536.128-.744.128m2.489-.104v-1.888h1.76V376zm7.266-8.432c1.776 0 3.096 1.088 3.32 2.776h-1.312c-.144-.872-.864-1.584-2-1.584-1.416 0-2.4 1.008-2.4 3.12 0 1.912.832 3.152 2.416 3.152 1.136 0 1.856-.752 2-1.584h1.288c-.216 1.664-1.56 2.712-3.312 2.712-2.24 0-3.808-1.488-3.808-4.264 0-2.576 1.368-4.328 3.808-4.328m8.625 8.592c-2.296 0-3.792-1.504-3.792-4.264 0-2.592 1.352-4.328 3.8-4.328 2.28 0 3.76 1.544 3.76 4.328 0 2.528-1.304 4.264-3.768 4.264m.008-1.168c1.48 0 2.296-1.184 2.296-3.128 0-1.768-.672-3.136-2.296-3.136-1.504 0-2.328 1.168-2.328 3.136 0 1.744.672 3.128 2.328 3.128m5.727 1.008v-8.272h1.424v1.2c.456-.728 1.216-1.36 2.504-1.36.904 0 1.952.472 2.384 1.352.512-.808 1.424-1.352 2.52-1.352 1.168 0 2.696.576 2.696 3.024V376h-1.488v-5.264c0-1.496-.824-1.912-1.696-1.912-.776 0-1.856.392-1.856 1.648V376h-1.472v-5.696c0-.984-.912-1.48-1.68-1.48-.848 0-1.864.488-1.864 1.648V376z"/><rect width="224" height="52" x="80" y="431" fill="#0071bb" rx="8"/><path fill="#fff" d="M139.665 464.2c-2.86 0-5.75-1.43-6.05-4.33h2.99c.29 1.31 1.48 2.04 3.05 2.04 1.59 0 2.92-.59 2.92-1.82 0-1.09-1.06-1.55-2.45-1.83l-2.5-.51c-2.18-.42-3.56-1.74-3.59-3.96-.03-2.72 2.42-4.43 5.56-4.43 3.73 0 5.73 1.94 5.77 4.38h-2.93c-.16-1.52-1.28-2.06-2.79-2.06-1.56 0-2.55.72-2.55 1.77 0 .84.45 1.33 1.99 1.66l2.48.51c3.53.68 3.94 2.95 3.94 4.45 0 2.33-2.35 4.13-5.84 4.13m10.42-4.7c-.01 1.58.81 2.59 2.21 2.59 1 0 1.8-.4 2.1-1.37h2.63c-.35 2.21-2.51 3.48-4.66 3.48-3.07 0-5.17-2.04-5.17-5.25 0-3.11 1.85-5.49 5.02-5.49 3.16 0 4.82 2.15 4.82 5.25v.79zm0-1.74h4.22c0-1.25-.69-2.26-2.1-2.26-1.34 0-2.13 1.12-2.12 2.26m12.354 6.42c-3.06 0-3.3-1.59-3.3-3.08v-11.96h2.86v11.6c0 .76.27 1.26 1.17 1.36l.49.03v1.8c-.4.14-.83.25-1.22.25m5.146-4.68c-.01 1.58.81 2.59 2.21 2.59 1 0 1.8-.4 2.1-1.37h2.63c-.35 2.21-2.51 3.48-4.66 3.48-3.07 0-5.17-2.04-5.17-5.25 0-3.11 1.85-5.49 5.02-5.49 3.16 0 4.82 2.15 4.82 5.25v.79zm0-1.74h4.22c0-1.25-.69-2.26-2.1-2.26-1.34 0-2.13 1.12-2.12 2.26m13.554-4.3c2.59 0 4.2 1.75 4.36 3.97h-2.43c-.13-.82-.71-1.75-1.91-1.75-1.36 0-2.29 1.04-2.29 3.17 0 2.02.87 3.28 2.35 3.28 1.18 0 1.76-1.03 1.88-1.74h2.37c-.13 2.14-1.8 3.81-4.33 3.81-2.88 0-4.99-2.02-4.99-5.33 0-3.21 1.98-5.41 4.99-5.41m12.365 2.23h-2.3l.02 5.51c0 .76.28.86.92.86h1.39v1.8c-.28.12-.8.25-1.81.25-2.73 0-3.43-1.13-3.43-2.79v-5.63h-1.68v-2.03h1.77l.74-3.12h2.08v3.11h2.3zm8.945 3.81c-.01 1.58.81 2.59 2.21 2.59 1 0 1.8-.4 2.1-1.37h2.63c-.35 2.21-2.51 3.48-4.66 3.48-3.07 0-5.17-2.04-5.17-5.25 0-3.11 1.85-5.49 5.02-5.49 3.16 0 4.82 2.15 4.82 5.25v.79zm0-1.74h4.22c0-1.25-.69-2.26-2.1-2.26-1.34 0-2.13 1.12-2.12 2.26m9.053 6.24v-10.34h2.86v1.46c.62-.91 1.65-1.66 3.27-1.66 1.06 0 2.29.57 2.9 1.66.67-.94 1.79-1.66 3.13-1.66 1.54 0 3.38.93 3.38 3.72V464h-2.92v-6.46c0-1.25-.83-1.7-1.66-1.7-.77 0-1.75.44-1.75 1.54V464h-2.91v-6.72c0-.94-.87-1.44-1.64-1.44-.8 0-1.74.5-1.74 1.54V464zm20.902.2c-1.97 0-3.49-1.14-3.49-3.16 0-2.26 1.63-3.46 5.28-3.5l1.3-.02v-.62c0-.95-.54-1.48-1.71-1.47-.85.01-1.71.36-2 1.31h-2.43c.11-2.24 1.98-3.28 4.57-3.28 3.16 0 4.37 1.24 4.37 3.27V464h-2.44l-.24-1.78c-.71 1.5-1.76 1.98-3.21 1.98m.99-1.92c1.05 0 2.09-.84 2.1-1.73v-1.53l-1.05.02c-1.46.02-2.76.45-2.76 1.71 0 .96.75 1.53 1.71 1.53m10.108-12.73v2.63h-2.84v-2.63zm-.02 4.11V464h-2.79v-10.34zm5.871 10.52c-3.06 0-3.3-1.59-3.3-3.08v-11.96h2.86v11.6c0 .76.27 1.26 1.17 1.36l.49.03v1.8c-.4.14-.83.25-1.22.25"/><rect width="222" height="50" x="81" y="504" stroke="#0071bb" stroke-width="2" rx="7"/><path fill="#0071bb" d="m123.087 536 5.17-14.46h3.09l5.17 14.46h-2.91l-1.18-3.35h-5.21l-1.2 3.35zm4.79-5.9h3.84l-1.91-5.75zm14.019 6.1c-2.78 0-4.4-2.01-4.4-5.43 0-3.24 1.45-5.31 4.11-5.31 1.48 0 2.62.72 3.12 1.6v-5.92h2.93V536h-2.12l-.33-2.12c-.37 1.14-1.27 2.32-3.31 2.32m.64-2.1c1.47 0 2.19-.93 2.19-3.37-.02-2.11-.72-3.15-2.17-3.15-1.27 0-2.21.88-2.21 3.15 0 2.3.85 3.37 2.19 3.37m11.528 2.1c-2.78 0-4.4-2.01-4.4-5.43 0-3.24 1.45-5.31 4.11-5.31 1.48 0 2.62.72 3.12 1.6v-5.92h2.93V536h-2.12l-.33-2.12c-.37 1.14-1.27 2.32-3.31 2.32m.64-2.1c1.47 0 2.19-.93 2.19-3.37-.02-2.11-.72-3.15-2.17-3.15-1.27 0-2.21.88-2.21 3.15 0 2.3.85 3.37 2.19 3.37m12.13 1.9v-10.34h2.87v1.46c.47-.75 1.37-1.55 3-1.55 1.89 0 3.62 1.05 3.62 3.61V536h-2.92v-6.46c0-1.12-.77-1.68-1.72-1.68-.96 0-1.93.51-1.93 1.52V536zm14.325-4.5c-.01 1.58.81 2.59 2.21 2.59 1 0 1.8-.4 2.1-1.37h2.63c-.35 2.21-2.51 3.48-4.66 3.48-3.07 0-5.17-2.04-5.17-5.25 0-3.11 1.85-5.49 5.02-5.49 3.16 0 4.82 2.15 4.82 5.25v.79zm0-1.74h4.22c0-1.25-.69-2.26-2.1-2.26-1.34 0-2.13 1.12-2.12 2.26m23.05-4.1-3.4 10.34h-2.33l-1.92-6.26-1.93 6.26h-2.26l-3.35-10.34h2.59l1.98 6.41h.07l1.9-6.41h2.09l1.92 6.41h.08l1.92-6.41zm8.318 5.84c-.01 1.58.81 2.59 2.21 2.59 1 0 1.8-.4 2.1-1.37h2.63c-.35 2.21-2.51 3.48-4.66 3.48-3.07 0-5.17-2.04-5.17-5.25 0-3.11 1.85-5.49 5.02-5.49 3.16 0 4.82 2.15 4.82 5.25v.79zm0-1.74h4.22c0-1.25-.69-2.26-2.1-2.26-1.34 0-2.13 1.12-2.12 2.26m9.053 6.24v-10.34h2.86v1.46c.62-.91 1.65-1.66 3.27-1.66 1.06 0 2.29.57 2.9 1.66.67-.94 1.79-1.66 3.13-1.66 1.54 0 3.38.93 3.38 3.72V536h-2.92v-6.46c0-1.25-.83-1.7-1.66-1.7-.77 0-1.75.44-1.75 1.54V536h-2.91v-6.72c0-.94-.87-1.44-1.64-1.44-.8 0-1.74.5-1.74 1.54V536zm20.902.2c-1.97 0-3.49-1.14-3.49-3.16 0-2.26 1.63-3.46 5.28-3.5l1.3-.02v-.62c0-.95-.54-1.48-1.71-1.47-.85.01-1.71.36-2 1.31h-2.43c.11-2.24 1.98-3.28 4.57-3.28 3.16 0 4.37 1.24 4.37 3.27V536h-2.44l-.24-1.78c-.71 1.5-1.76 1.98-3.21 1.98m.99-1.92c1.05 0 2.09-.84 2.1-1.73v-1.53l-1.05.02c-1.46.02-2.76.45-2.76 1.71 0 .96.75 1.53 1.71 1.53m10.108-12.73v2.63h-2.84v-2.63zm-.02 4.11V536h-2.79v-10.34zm5.871 10.52c-3.06 0-3.3-1.59-3.3-3.08v-11.96h2.86v11.6c0 .76.27 1.26 1.17 1.36l.49.03v1.8c-.4.14-.83.25-1.22.25"/><path stroke="#cedced" d="M80 586.5h460"/><path fill="#0071bb" d="M81.95 617v-11.568h3.72c2.808 0 4.28 1.064 4.28 3.016 0 1.224-.56 2.096-2.144 2.656 1.824.392 2.432 1.48 2.432 2.784 0 2.096-1.496 3.112-4.448 3.112zm1.48-6.48h2.52c1.2 0 2.568-.424 2.568-1.888 0-1.344-1.136-1.976-2.776-1.976H83.43zm0 5.248h2.344c1.928 0 2.96-.624 2.96-1.944 0-1.448-1.232-2.048-2.784-2.048h-2.52zm11.27 1.392c-1.608 0-2.728-.888-2.728-2.4 0-1.832 1.208-2.704 4.04-2.768l1.472-.04v-.648c0-1.008-.592-1.648-1.864-1.648-.952.008-1.752.424-1.952 1.408h-1.304c.088-1.608 1.32-2.496 3.328-2.496 2.152 0 3.224.928 3.224 2.656V617h-1.264l-.112-1.552c-.64 1.288-1.656 1.712-2.84 1.712m.44-1.064c1.112 0 2.344-.896 2.344-1.816v-1.416l-1.224.024c-1.904.032-2.856.504-2.856 1.728 0 .936.72 1.48 1.736 1.48m9.412-7.528c1.776 0 3.096 1.088 3.32 2.776h-1.312c-.144-.872-.864-1.584-2-1.584-1.416 0-2.4 1.008-2.4 3.12 0 1.912.832 3.152 2.416 3.152 1.136 0 1.856-.752 2-1.584h1.288c-.216 1.664-1.56 2.712-3.312 2.712-2.24 0-3.808-1.488-3.808-4.264 0-2.576 1.368-4.328 3.808-4.328m12.53 8.432h-1.568l-2.592-4.152-1.632 1.688V617h-1.472v-11.888h1.472v7.752l3.888-4.136h1.696l-2.984 3.152zm-36.66 3.52h19.582v1.12H80.422zm19.578 0h8.696v1.12H100zm8.594 0h8.984v1.12h-8.984z"/><defs><filter id="a" width="100" height="100" x="74" y="58" color-interpolation-filters="sRGB" filterUnits="userSpaceOnUse"><feFlood flood-opacity="0" result="BackgroundImageFix"/><feColorMatrix in="SourceAlpha" result="hardAlpha" values="0 0 0 0 0 0 0 0 0 0 0 0 0 0 0 0 0 0 127 0"/><feOffset/><feGaussianBlur stdDeviation="3"/><feColorMatrix values="0 0 0 0 0 0 0 0 0 0 0 0 0 0 0 0 0 0 0.24 0"/><feBlend in2="BackgroundImageFix" result="effect1_dropShadow_4414_9052"/><feBlend in="SourceGraphic" in2="effect1_dropShadow_4414_9052" result="shape"/></filter></defs></svg>