<svg width="419" height="111" viewBox="0 0 419 111" fill="none" xmlns="http://www.w3.org/2000/svg"><path d="M417.687 56c0 20.813-16.873 37.685-37.687 37.685-20.814 0-37.687-16.872-37.687-37.685 0-20.813 16.873-37.685 37.687-37.685 20.814 0 37.687 16.872 37.687 37.685z" fill="#EBF3FA"/><path fill-rule="evenodd" clip-rule="evenodd" d="M341 56c0-21.54 17.462-39 39-39s39 17.46 39 39h-2.627c0-20.086-16.283-36.37-36.373-36.37-20.09 0-36.373 16.284-36.373 36.37H341z" fill="#C6D1DD"/><path d="M347.453 45.842h64.238v29.28a6.57 6.57 0 0 1-6.566 6.573h-51.106a6.57 6.57 0 0 1-6.566-6.573v-29.28z" fill="#fff"/><path d="M348.809 32.447a5.256 5.256 0 0 1 5.253-5.258h51.876a5.256 5.256 0 0 1 5.253 5.258v7.589h-62.382v-7.589z" fill="#EBF3FA"/><path fill-rule="evenodd" clip-rule="evenodd" d="M354.019 24.708c-4.352 0-7.88 3.532-7.88 7.888v37.769a36.625 36.625 0 0 0 2.636 5.065 5.243 5.243 0 0 1-.009-.308V32.596a5.256 5.256 0 0 1 5.253-5.258h51.962a5.256 5.256 0 0 1 5.253 5.258v42.526c0 .103-.003.205-.009.307a36.629 36.629 0 0 0 2.636-5.065V32.596c0-4.356-3.528-7.888-7.88-7.888h-51.962zm50.933 58.301a36.915 36.915 0 0 0 2.864-2.959 5.234 5.234 0 0 1-1.835.33h-51.962a5.24 5.24 0 0 1-1.836-.33 37.104 37.104 0 0 0 2.865 2.96h49.904z" fill="#112E51"/><path d="M369.254 66.299c0 .726.588 1.314 1.314 1.314h18.864c.725 0 1.313-.588 1.313-1.314v-.956c0-.726-.588-1.315-1.313-1.315h-18.864c-.726 0-1.314.589-1.314 1.315v.956zm1.792 5.376c0 .726.588 1.315 1.314 1.315h15.282c.725 0 1.313-.59 1.313-1.315v-.956c0-.726-.588-1.315-1.313-1.315H372.36c-.726 0-1.314.589-1.314 1.315v.956z" fill="#C6D1DD"/><path fill-rule="evenodd" clip-rule="evenodd" d="M379.309 32.015a14.39 14.39 0 0 1 1.382 0l-.063 1.313a13.096 13.096 0 0 0-1.256 0l-.063-1.313zm-2.733.403c.444-.11.897-.2 1.357-.268l.191 1.3a12.5 12.5 0 0 0-1.23.244l-.318-1.276zm5.491-.268c.46.067.913.157 1.357.268l-.318 1.276a12.5 12.5 0 0 0-1.23-.244l.191-1.3zm-8.092 1.2c.415-.197.841-.374 1.277-.53l.443 1.237a12.93 12.93 0 0 0-1.158.48l-.562-1.187zm10.773-.53c.436.156.862.333 1.277.53l-.562 1.188a12.703 12.703 0 0 0-1.158-.48l.443-1.238zm-13.141 1.953c.369-.274.753-.531 1.149-.77l.676 1.127c-.359.216-.707.45-1.042.699l-.783-1.056zm15.637-.77c.396.239.78.496 1.149.77l-.783 1.056c-.335-.25-.683-.483-1.042-.699l.676-1.127zm-17.683 2.627c.31-.342.636-.668.978-.978l.882.974c-.31.28-.606.577-.887.887l-.973-.883zm19.9-.978c.342.31.668.636.978.978l-.973.883a12.83 12.83 0 0 0-.887-.887l.882-.974zm-21.547 3.197c.238-.396.495-.78.77-1.15l1.054.784c-.249.336-.482.684-.698 1.043l-1.126-.677zm23.402-1.15c.275.37.532.754.77 1.15l-1.126.677c-.216-.36-.449-.707-.698-1.043l1.054-.784zm-24.584 3.65c.156-.437.333-.864.53-1.28l1.186.563a12.97 12.97 0 0 0-.48 1.16l-1.236-.444zm26.006-1.28c.197.416.374.843.53 1.28l-1.236.442a12.948 12.948 0 0 0-.48-1.158l1.186-.563zm-26.676 3.963c.068-.46.158-.914.269-1.358l1.274.318c-.101.403-.182.814-.243 1.231l-1.3-.191zm27.607-1.358c.111.444.201.897.269 1.358l-1.3.191a12.497 12.497 0 0 0-.243-1.23l1.274-.32zM365.912 46.1c0-.232.005-.463.016-.692l1.312.064a13.086 13.086 0 0 0 0 1.256l-1.312.063a14.43 14.43 0 0 1-.016-.691zm28.16-.692a14.43 14.43 0 0 1 0 1.383l-1.312-.063a13.09 13.09 0 0 0 0-1.256l1.312-.064zm-27.741 4.12a14.152 14.152 0 0 1-.269-1.359l1.3-.191c.061.417.142.828.243 1.23l-1.274.32zm27.607-1.359c-.068.46-.158.913-.269 1.358l-1.274-.318c.101-.403.182-.814.243-1.231l1.3.191zm-26.676 3.962a13.898 13.898 0 0 1-.53-1.279l1.236-.443c.142.396.302.783.48 1.16l-1.186.562zm26.006-1.279c-.156.437-.333.864-.53 1.279l-1.186-.563c.178-.377.338-.763.48-1.159l1.236.443zm-24.584 3.65a14.13 14.13 0 0 1-.77-1.15l1.126-.678c.216.36.449.708.698 1.043l-1.054.784zm23.402-1.15c-.238.396-.495.78-.77 1.15l-1.054-.785c.249-.335.482-.683.698-1.043l1.126.677zm-21.547 3.197c-.342-.31-.668-.637-.978-.979l.973-.883c.281.31.577.607.887.888l-.882.974zm19.9-.979c-.31.342-.636.669-.978.979l-.882-.974c.31-.281.606-.578.887-.888l.973.883zm-17.683 2.627c-.396-.238-.78-.495-1.149-.77l.783-1.055c.335.25.683.482 1.042.698l-.676 1.127zm15.637-.77c-.369.275-.753.532-1.149.77l-.676-1.127c.359-.216.707-.449 1.042-.698l.783 1.055zm-13.141 1.954a14.029 14.029 0 0 1-1.277-.53l.562-1.188c.376.178.763.339 1.158.48l-.443 1.238zm10.773-.53c-.415.197-.841.374-1.277.53l-.443-1.238c.395-.141.782-.302 1.158-.48l.562 1.188zm-8.092 1.2c-.46-.068-.913-.157-1.357-.269l.318-1.275c.403.1.813.182 1.23.243l-.191 1.301zm5.491-.269c-.444.111-.897.201-1.357.27l-.191-1.301c.417-.062.827-.143 1.23-.244l.318 1.275zm-3.424.42c-.232 0-.462-.006-.691-.017l.063-1.313a12.967 12.967 0 0 0 1.256 0l.063 1.313a14.26 14.26 0 0 1-.691.017z" fill="#112E51"/><path d="M391.641 46.101c0 6.436-5.212 11.653-11.641 11.653s-11.641-5.217-11.641-11.653c0-6.435 5.212-11.652 11.641-11.652s11.641 5.217 11.641 11.652z" fill="#112E51"/><path d="m379.136 38.564-1.968 3.94-4.401.634c-.789.113-1.106 1.074-.533 1.625l3.184 3.065-.753 4.33c-.136.782.699 1.368 1.398 1.002L380 51.116l3.938 2.044c.699.363 1.534-.22 1.398-1.003l-.753-4.33 3.184-3.064c.573-.55.256-1.512-.533-1.625l-4.402-.634-1.967-3.94c-.352-.702-1.374-.71-1.729 0z" fill="#fff"/><path fill-rule="evenodd" clip-rule="evenodd" d="M380 95c-21.538 0-39-17.46-39-39h2.627c0 20.086 16.283 36.37 36.373 36.37 20.09 0 36.373-16.284 36.373-36.37H419c0 21.54-17.462 39-39 39z" fill="#C6D1DD"/><path stroke="#C6D1DD" stroke-width="2" d="M158 56H78"/><mask id="a" maskUnits="userSpaceOnUse" x="3" y="19" width="76" height="75"><path d="M41 94c20.585 0 37.273-16.693 37.273-37.286C78.273 36.122 61.585 19.43 41 19.43c-20.585 0-37.272 16.693-37.272 37.285C3.728 77.307 20.415 94 41 94z" fill="#fff"/></mask><g mask="url(#a)"><path d="M41 94c20.585 0 37.273-16.693 37.273-37.286C78.273 36.122 61.585 19.43 41 19.43c-20.585 0-37.272 16.693-37.272 37.285C3.728 77.307 20.415 94 41 94z" fill="#E6E6E6"/><path d="M78.273 19.429H3.728V94h74.545V19.429z" fill="#EBF3FA"/></g><mask id="b" maskUnits="userSpaceOnUse" x="0" y="17" width="82" height="77"><path d="M3.727 61c0 18.225 16.688 33 37.273 33 20.585 0 37.273-14.775 37.273-33H82V17H0v44h3.727z" fill="#fff"/></mask><g mask="url(#b)"><path d="M79 58c0-20.434-16.79-37-37.5-37S4 37.566 4 58" stroke="#C6D1DD" stroke-width="2"/><mask id="c" maskUnits="userSpaceOnUse" x="9" y="18" width="64" height="76"><path d="M48.455 63.118v5.714h1.242c12.351 0 22.364 10.016 22.364 22.372V94H9.939v-2.796c0-12.356 10.013-22.372 22.364-22.372h1.242v-5.714c-5.354-2.544-9.202-7.744-9.844-13.898a3.729 3.729 0 0 1-3.2-3.691v-4.35a3.73 3.73 0 0 1 3.105-3.678v-1.915c0-9.61 7.788-17.4 17.394-17.4 9.606 0 17.394 7.79 17.394 17.4v1.916a3.73 3.73 0 0 1 3.106 3.676v4.35a3.73 3.73 0 0 1-3.2 3.692c-.643 6.154-4.491 11.354-9.845 13.898z" fill="#fff"/></mask><g mask="url(#c)"><path d="M48.455 63.118v5.714h1.242c12.351 0 22.364 10.016 22.364 22.372V94H9.939v-2.796c0-12.356 10.013-22.372 22.364-22.372h1.242v-5.714c-5.354-2.544-9.202-7.744-9.844-13.898a3.729 3.729 0 0 1-3.2-3.691v-4.35a3.73 3.73 0 0 1 3.105-3.678v-1.915c0-9.61 7.788-17.4 17.394-17.4 9.606 0 17.394 7.79 17.394 17.4v1.916a3.73 3.73 0 0 1 3.106 3.676v4.35a3.73 3.73 0 0 1-3.2 3.692c-.643 6.154-4.491 11.354-9.845 13.898z" fill="#D0C6AC"/><path d="M82 18.186H0V94h82V18.186z" fill="#AE5D29"/><path fill-rule="evenodd" clip-rule="evenodd" d="M58.394 42.732v7.147c0 9.61-7.788 17.4-17.394 17.4-9.607 0-17.394-7.79-17.394-17.4v-7.147 4.66c0 9.61 7.787 17.4 17.394 17.4 9.606 0 17.394-7.79 17.394-17.4v-4.66z" fill="#000" fill-opacity=".1"/></g><mask id="d" maskUnits="userSpaceOnUse" x="9" y="63" width="64" height="31"><path fill-rule="evenodd" clip-rule="evenodd" d="M33.545 63.883c-5.565.623-9.852 2.324-9.938 6.703C15.576 73.98 9.94 81.933 9.94 91.203V94h62.122v-2.797c0-9.27-5.637-17.223-13.668-20.617-.086-4.379-4.373-6.08-9.938-6.703v5.881A7.456 7.456 0 0 1 41 77.221a7.456 7.456 0 0 1-7.455-7.457v-5.881z" fill="#fff"/></mask><g mask="url(#d)"><path fill-rule="evenodd" clip-rule="evenodd" d="M33.545 63.883c-5.565.623-9.852 2.324-9.938 6.703C15.576 73.98 9.94 81.933 9.94 91.203V94h62.122v-2.797c0-9.27-5.637-17.223-13.668-20.617-.086-4.379-4.373-6.08-9.938-6.703v5.881A7.456 7.456 0 0 1 41 77.221a7.456 7.456 0 0 1-7.455-7.457v-5.881z" fill="#B7C1DB"/><path d="M82 59.821H0V94h82V59.821z" fill="#008099"/><path fill-rule="evenodd" clip-rule="evenodd" d="M31.682 79.005V94h-2.174V77.89c.684.406 1.412.78 2.174 1.115zm20.81-1.115v12.537a1.087 1.087 0 1 1-2.174 0V79.005c.762-.335 1.49-.709 2.175-1.115z" fill="#F4F4F4"/><path fill-rule="evenodd" clip-rule="evenodd" d="M28.253 63.775c-4.675.885-7.908 2.647-7.908 6.085 0 6.125 10.261 11.09 20.655 11.09 10.394 0 20.655-4.965 20.655-11.09 0-3.438-3.233-5.2-7.908-6.085 2.822 1.041 4.647 2.79 4.647 5.702 0 6.337-8.642 11.473-17.394 11.473-8.752 0-17.394-5.136-17.394-11.473 0-2.911 1.825-4.661 4.647-5.702z" fill="#000" fill-opacity=".18"/></g><path d="M36.652 53.607c0 1.67 1.913 2.797 4.348 2.797 2.436 0 4.349-1.128 4.349-2.797a.632.632 0 0 0-.621-.621c-.402 0-.581.281-.622.621-.386.913-1.34 1.466-3.106 1.554-1.765-.088-2.72-.641-3.106-1.554-.04-.34-.22-.621-.62-.621a.632.632 0 0 0-.622.621z" fill="#000" fill-opacity=".6"/><path fill-rule="evenodd" clip-rule="evenodd" d="M37.273 47.393c0 1.373 1.669 2.486 3.727 2.486 2.059 0 3.727-1.113 3.727-2.486" fill="#000" fill-opacity=".16"/><path d="M32.925 43.664a1.864 1.864 0 1 0-.001-3.728 1.864 1.864 0 0 0 0 3.728zm16.151 0a1.864 1.864 0 1 0 0-3.728 1.864 1.864 0 0 0 0 3.728zM28.461 37.81c1.216-1.712 4.55-2.671 7.421-1.966a.621.621 0 0 0 .297-1.207c-3.335-.82-7.196.292-8.73 2.453a.622.622 0 0 0 1.012.72zm25.079 0c-1.217-1.712-4.55-2.671-7.422-1.966a.621.621 0 1 1-.296-1.207c3.335-.82 7.195.292 8.73 2.453a.622.622 0 0 1-1.013.72z" fill="#000" fill-opacity=".6"/><mask id="e" maskUnits="userSpaceOnUse" x="23" y="17" width="36" height="21"><path fill-rule="evenodd" clip-rule="evenodd" d="M23.295 37.45c.108.462.52.38.622 0-.144-.483 1.023-8.934 4.037-11.186 1.124-.782 7.147-1.481 13.143-1.477 5.931.004 11.837.704 12.948 1.477 3.014 2.252 4.182 10.703 4.038 11.186.102.38.514.462.622 0 .223-3.2 0-19.8-17.705-19.575C23.295 18.1 23.072 34.25 23.295 37.45z" fill="#fff"/></mask><g mask="url(#e)"><path fill-rule="evenodd" clip-rule="evenodd" d="M23.295 37.45c.108.462.52.38.622 0-.144-.483 1.023-8.934 4.037-11.186 1.124-.782 7.147-1.481 13.143-1.477 5.931.004 11.837.704 12.948 1.477 3.014 2.252 4.182 10.703 4.038 11.186.102.38.514.462.622 0 .223-3.2 0-19.8-17.705-19.575C23.295 18.1 23.072 34.25 23.295 37.45z" fill="#28354B"/><path d="M104.985 17.564h-82v87h82v-87z" fill="#2C1B18"/></g><g filter="url(#f)"><path fill-rule="evenodd" clip-rule="evenodd" d="M43.94 38.505a7.455 7.455 0 0 1 13.162-.406.779.779 0 0 1 .205-.028h2.484a.777.777 0 0 1 0 1.554h-2.03a7.456 7.456 0 0 1-7.133 9.632 7.456 7.456 0 0 1-7.342-8.752c-.026-1.36-1.07-2.434-2.329-2.434-1.16 0-2.14.914-2.305 2.123a7.456 7.456 0 0 1-7.281 9.064 7.456 7.456 0 0 1-7.455-7.458c0-.757.113-1.487.322-2.175h-2.03a.777.777 0 0 1 0-1.554h2.485c.071 0 .14.01.205.028a7.454 7.454 0 0 1 13.125.331c.645-.968 1.719-1.602 2.934-1.602 1.246 0 2.343.667 2.983 1.676zm-12.569 9.51a6.213 6.213 0 0 0 6.212-6.215 6.213 6.213 0 1 0-12.424 0 6.213 6.213 0 0 0 6.212 6.214zm19.258 0A6.213 6.213 0 0 0 56.84 41.8a6.213 6.213 0 1 0-12.425 0 6.213 6.213 0 0 0 6.213 6.214z" fill="#000"/></g><path fill-rule="evenodd" clip-rule="evenodd" d="M43.94 38.505a7.455 7.455 0 0 1 13.162-.406.779.779 0 0 1 .205-.028h2.484a.777.777 0 0 1 0 1.554h-2.03a7.456 7.456 0 0 1-7.133 9.632 7.456 7.456 0 0 1-7.342-8.752c-.026-1.36-1.07-2.434-2.329-2.434-1.16 0-2.14.914-2.305 2.123a7.456 7.456 0 0 1-7.281 9.064 7.456 7.456 0 0 1-7.455-7.458c0-.757.113-1.487.322-2.175h-2.03a.777.777 0 0 1 0-1.554h2.485c.071 0 .14.01.205.028a7.454 7.454 0 0 1 13.125.331c.645-.968 1.719-1.602 2.934-1.602 1.246 0 2.343.667 2.983 1.676zm-12.569 9.51a6.213 6.213 0 0 0 6.212-6.215 6.213 6.213 0 1 0-12.424 0 6.213 6.213 0 0 0 6.212 6.214zm19.258 0A6.213 6.213 0 0 0 56.84 41.8a6.213 6.213 0 1 0-12.425 0 6.213 6.213 0 0 0 6.213 6.214z" fill="#252C2F"/></g><path d="M4 58c0 20.434 16.79 37 37.5 37S79 78.434 79 58" stroke="#C6D1DD" stroke-width="2"/><path d="M210.25 109.759c28.262 0 51.173-22.994 51.173-51.359 0-28.365-22.911-51.359-51.173-51.359S159.077 30.035 159.077 58.4c0 28.365 22.91 51.359 51.173 51.359z" fill="#F2F9FF"/><path fill-rule="evenodd" clip-rule="evenodd" d="M170.125 5.96h43.438a5.002 5.002 0 0 1 5 5v60.55h-53.439V10.96a5.002 5.002 0 0 1 5-5h.001z" fill="#fff"/><path d="M210.25 5.96c28.857 0 52.25 23.478 52.25 52.44 0 28.962-23.393 52.44-52.25 52.44S158 87.362 158 58.4c0-28.962 23.393-52.44 52.25-52.44zm.539 4.325c-26.775 0-48.48 21.784-48.48 48.656s21.705 48.656 48.48 48.656c26.774 0 48.479-21.784 48.479-48.656s-21.705-48.656-48.48-48.656h.001z" fill="url(#g)"/><path d="M227.758 68.812h24.43a2 2 0 0 0 2-2V32.096a2 2 0 0 0-2-2h-24.43a1.999 1.999 0 0 0-2 2v34.716a2 2 0 0 0 2 2z" fill="#A8B6C6"/><path d="M231.635 45.582h16.676a2 2 0 0 0 2-2V15.319a2 2 0 0 0-2-2h-16.676a1.998 1.998 0 0 0-2 2v28.263a1.996 1.996 0 0 0 2 2z" fill="#A8B6C6"/><path fill-rule="evenodd" clip-rule="evenodd" d="M247.727 30.096h-2.819V15.9h2.82v14.196h-.001zm-4.23 0h-2.819V18.48h2.82v11.615l-.001.001zm-4.229 0h-2.818V18.48h2.82v11.615l-.002.001zm-4.229 0h-2.819V15.9h2.82v14.196h-.001z" fill="#EBF3FA"/><path d="M239.973 45.582c-4.996 0-9.046 4.045-9.046 9.034 0 4.99 4.05 9.034 9.046 9.034 4.996 0 9.046-4.045 9.046-9.034 0-4.99-4.05-9.034-9.046-9.034z" fill="#EBF3FA"/><path fill-rule="evenodd" clip-rule="evenodd" d="M264 66.742a8 8 0 0 1 8 8v5.25a8 8 0 0 1-8 8h-44.25v-21.25H264z" fill="#EBF3FA"/><path d="m221.308 82.326 2.017-3.472 2.006 3.41 1.896-1.37-2.44-3.01 3.455-1.033-.653-2.115-3.418 1.543.326-3.87h-2.307l.266 3.857-3.346-1.505-.75 2.115 3.552 1.02-2.5 3.074 1.896 1.356zm11.293 0 2.017-3.472 2.005 3.41 1.897-1.37-2.44-3.01 3.454-1.033-.652-2.115-3.419 1.543.327-3.87h-2.308l.266 3.857-3.346-1.505-.749 2.115 3.552 1.02-2.5 3.074 1.896 1.356zm11.292 0 2.017-3.472 2.006 3.41 1.896-1.37-2.44-3.01 3.455-1.033-.653-2.115-3.418 1.543.326-3.87h-2.307l.266 3.857-3.346-1.505-.75 2.115 3.552 1.02-2.5 3.074 1.896 1.356zm12.704 0 2.017-3.472 2.006 3.41 1.896-1.37-2.44-3.01 3.455-1.033-.653-2.115-3.418 1.543.326-3.87h-2.306l.266 3.857-3.346-1.506-.75 2.115 3.552 1.02-2.5 3.074 1.896 1.356h-.001z" fill="#112E51"/><path fill-rule="evenodd" clip-rule="evenodd" d="M170.054 6h43.894c1.34 0 2.625.422 3.572 1.173.948.75 1.48 1.77 1.48 2.832V48h-54V10.005c0-1.063.532-2.081 1.48-2.832.947-.751 2.232-1.173 3.572-1.173h.002z" fill="#fff"/><path d="M207.354 5.391v1.187c0 3.28-2.668 5.938-5.959 5.938h-20.26a5.954 5.954 0 0 1-5.954-5.67l-.035-1.455h32.208zm-15.51 41.686c.984 0 1.781.8 1.781 1.788 0 .987-.797 1.788-1.781 1.788-7.214 0-13.063 5.87-13.063 13.11 0 7.24 5.849 13.11 13.063 13.11s13.062-5.87 13.062-13.11c0-.988.798-1.788 1.782-1.788.983 0 1.78.8 1.78 1.788 0 9.215-7.443 16.685-16.624 16.685-9.182 0-16.625-7.47-16.625-16.685s7.443-16.686 16.625-16.686z" fill="#A8B6C6"/><path d="M177.978 29.493v-1.376h-1.415c-.332 0-.819.044-1.173.089 1.14-1.2 2.246-2.465 2.246-3.652 0-1.354-.94-2.242-2.323-2.242-1.006 0-1.659.377-2.356 1.12l.885.878c.354-.378.741-.722 1.25-.722.608 0 .995.377.995 1.066 0 .999-1.26 2.209-3.052 3.907v.932h4.943zm5.73 0v-1.32h-1.318v-5.728h-1.194c-.498.3-.985.5-1.748.644v1.01h1.316v4.073h-1.524v1.321h4.468zm3.284.133c1.416 0 2.61-.743 2.61-2.053 0-.91-.586-1.487-1.393-1.72v-.045c.752-.322 1.172-.832 1.172-1.565 0-1.232-.973-1.931-2.422-1.931-.863 0-1.57.344-2.212.899l.818.999c.443-.389.819-.622 1.316-.622.553 0 .863.289.863.777 0 .566-.398.944-1.659.944v1.154c1.526 0 1.891.388 1.891 1.01 0 .533-.453.833-1.139.833-.597 0-1.117-.3-1.537-.71l-.752 1.031c.509.6 1.305 1 2.444 1v-.001zm10.606-.133v-1.32h-1.316v-5.728h-1.194c-.498.3-.985.5-1.748.644v1.01h1.316v4.073h-1.526v1.321h4.468zm3.506.133c1.493 0 2.489-.843 2.489-1.953 0-.933-.542-1.476-1.217-1.843v-.044c.487-.322.918-.866.918-1.543 0-1.166-.852-1.931-2.135-1.931-1.305 0-2.245.743-2.245 1.942 0 .744.399 1.254.94 1.665v.044c-.663.356-1.194.877-1.194 1.732 0 1.143 1.04 1.931 2.444 1.931zm.443-4.24c-.72-.277-1.206-.555-1.206-1.132 0-.544.354-.81.785-.81.531 0 .852.366.852.91 0 .366-.155.71-.431 1.032zm-.41 3.108c-.586 0-1.083-.366-1.083-.988 0-.433.232-.832.541-1.12.885.377 1.482.61 1.482 1.231 0 .589-.398.877-.94.877zm6.006 1.132c1.272 0 2.333-.899 2.333-2.364 0-1.487-.884-2.175-2.09-2.175-.431 0-1.04.277-1.404.743.055-1.643.674-2.198 1.448-2.198.41 0 .852.234 1.095.5l.852-.977c-.443-.455-1.117-.843-2.046-.843-1.482 0-2.843 1.187-2.843 3.818 0 2.475 1.294 3.496 2.655 3.496zm-.033-1.22c-.487 0-.952-.356-1.095-1.466.287-.5.696-.699 1.061-.699.531 0 .918.277.918 1.021 0 .8-.398 1.143-.884 1.143v.001zm-18.418 39.377c1.415 0 2.61-.744 2.61-2.054 0-.91-.586-1.487-1.394-1.72v-.045c.752-.322 1.173-.832 1.173-1.565 0-1.232-.974-1.931-2.422-1.931-.863 0-1.57.344-2.212.899l.818.999c.442-.389.818-.622 1.316-.622.553 0 .863.289.863.777 0 .566-.398.944-1.66.944v1.154c1.527 0 1.892.389 1.892 1.01 0 .533-.453.833-1.14.833-.596 0-1.116-.3-1.536-.71l-.752 1.032c.508.6 1.305.999 2.444.999zm5.883 0c1.372 0 2.577-.9 2.577-2.464 0-1.499-1.028-2.187-2.234-2.187-.287 0-.52.044-.785.166l.122-1.32h2.577V60.6h-3.982l-.199 3.563.73.466c.42-.266.63-.355 1.04-.355.652 0 1.106.378 1.106 1.088 0 .721-.465 1.099-1.184 1.099-.597 0-1.095-.311-1.515-.7l-.73 1.033c.553.555 1.327.988 2.477.988v.001z" fill="#112E51"/><path d="M217.376 12.497c.798.126 1.59.271 2.375.437l-.001 82.412c0 3.869-3.061 7.02-6.885 7.147l-.24.004-23.4.001a47.334 47.334 0 0 1-4.304-2.383l27.704-.002c2.55 0 4.631-2.017 4.745-4.549l.005-.218.001-82.849zm-52.253 31.296V75.39a47.56 47.56 0 0 1-2.373-10.434V54.228a47.566 47.566 0 0 1 2.373-10.435zm0-11.843-.001.26a52 52 0 0 0-2.37 4.403l-.001-.092a52.333 52.333 0 0 1 2.372-4.571zM210.25 5.96c2.348 0 4.66.155 6.926.456.535.447 1.005.97 1.391 1.555a51.983 51.983 0 0 0-4.547-.612 4.755 4.755 0 0 0-1.178-.203l-.217-.005-13.497-.001a52.268 52.268 0 0 1 11.122-1.19z" fill="#A8B6C6"/><path d="M205.797 60.188a2.08 2.08 0 0 0 2.078-2.086c0-1.152-.93-2.086-2.078-2.086a2.085 2.085 0 0 0-1.921 1.289 2.076 2.076 0 0 0-.157.797c0 1.152.93 2.086 2.078 2.086z" fill="#A8B6C6"/><path d="M212.625 4.767c3.935 0 7.125 3.202 7.125 7.151V58.4h-2.376l.001-46.482a4.76 4.76 0 0 0-4.533-4.762l-.217-.005h-42.75c-2.623 0-4.75 2.134-4.75 4.767l-.001 46.482h-2.374V11.92c0-3.95 3.19-7.152 7.125-7.152h42.75v-.001z" fill="#A8B6C6"/><path d="M185.906 109.648c3.607 0 6.531-2.935 6.531-6.555 0-3.62-2.924-6.555-6.531-6.555-3.607 0-6.531 2.935-6.531 6.555 0 3.62 2.924 6.555 6.531 6.555z" fill="#A6D5AF"/><path d="M219.156 13.11c3.607 0 6.531-2.935 6.531-6.555 0-3.62-2.924-6.555-6.531-6.555-3.607 0-6.531 2.935-6.531 6.555 0 3.62 2.924 6.555 6.531 6.555z" fill="#FCF197"/><circle cx="158" cy="56" r="4.25" fill="#EBF3FA" stroke="#C6D1DD" stroke-width="1.5"/><circle cx="78" cy="56" r="4.25" fill="#EBF3FA" stroke="#C6D1DD" stroke-width="1.5"/><path stroke="#C6D1DD" stroke-width="2" d="M341 56h-80"/><circle cx="341" cy="56" r="4.25" fill="#EBF3FA" stroke="#C6D1DD" stroke-width="1.5"/><circle cx="261" cy="56" r="4.25" fill="#EBF3FA" stroke="#C6D1DD" stroke-width="1.5"/><defs><linearGradient id="g" x1="227.89" y1="5.96" x2="105.307" y2="357.778" gradientUnits="userSpaceOnUse"><stop stop-color="#EBF3FA"/><stop offset="1" stop-color="#A8B6C6"/></linearGradient><filter id="f" x="17.432" y="32.343" width="47.136" height="22.914" filterUnits="userSpaceOnUse" color-interpolation-filters="sRGB"><feFlood flood-opacity="0" result="BackgroundImageFix"/><feColorMatrix in="SourceAlpha" values="0 0 0 0 0 0 0 0 0 0 0 0 0 0 0 0 0 0 127 0"/><feOffset dy="2"/><feGaussianBlur stdDeviation="2"/><feColorMatrix values="0 0 0 0 0 0 0 0 0 0 0 0 0 0 0 0 0 0 0.1 0"/><feBlend in2="BackgroundImageFix" result="effect1_dropShadow"/><feBlend in="SourceGraphic" in2="effect1_dropShadow" result="shape"/></filter></defs></svg>