<svg xmlns="http://www.w3.org/2000/svg" width="419" height="111" fill="none"><path fill="#ebf3fa" d="M417.687 56c0 20.813-16.873 37.685-37.687 37.685S342.313 76.813 342.313 56 359.186 18.315 380 18.315 417.687 35.187 417.687 56"/><path fill="#c6d1dd" fill-rule="evenodd" d="M341 56c0-21.54 17.462-39 39-39s39 17.46 39 39h-2.627c0-20.086-16.283-36.37-36.373-36.37S343.627 35.914 343.627 56z" clip-rule="evenodd"/><path fill="#fff" d="M347.453 45.842h64.238v29.28a6.57 6.57 0 0 1-6.566 6.573h-51.106a6.57 6.57 0 0 1-6.566-6.573z"/><path fill="#ebf3fa" d="M348.809 32.447a5.256 5.256 0 0 1 5.253-5.258h51.876a5.256 5.256 0 0 1 5.253 5.258v7.589h-62.382z"/><path fill="#112e51" fill-rule="evenodd" d="M354.019 24.708c-4.352 0-7.88 3.532-7.88 7.888v37.769a36.6 36.6 0 0 0 2.636 5.065 5 5 0 0 1-.009-.308V32.596a5.256 5.256 0 0 1 5.253-5.258h51.962a5.256 5.256 0 0 1 5.253 5.258v42.526q0 .154-.009.307a36.6 36.6 0 0 0 2.636-5.065V32.596c0-4.356-3.528-7.888-7.88-7.888zm50.933 58.301a37 37 0 0 0 2.864-2.959 5.2 5.2 0 0 1-1.835.33h-51.962a5.2 5.2 0 0 1-1.836-.33 37 37 0 0 0 2.865 2.96z" clip-rule="evenodd"/><path fill="#c6d1dd" d="M369.254 66.299c0 .726.588 1.314 1.314 1.314h18.864c.725 0 1.313-.588 1.313-1.314v-.956c0-.726-.588-1.315-1.313-1.315h-18.864c-.726 0-1.314.589-1.314 1.315zm1.792 5.376c0 .726.588 1.315 1.314 1.315h15.282c.725 0 1.313-.59 1.313-1.315v-.956c0-.726-.588-1.315-1.313-1.315H372.36c-.726 0-1.314.589-1.314 1.315z"/><path fill="#112e51" fill-rule="evenodd" d="M379.309 32.015a14 14 0 0 1 1.382 0l-.063 1.313a13 13 0 0 0-1.256 0zm-2.733.403q.667-.166 1.357-.268l.191 1.3a13 13 0 0 0-1.23.244zm5.491-.268q.69.101 1.357.268l-.318 1.276a13 13 0 0 0-1.23-.244zm-8.092 1.2q.623-.296 1.277-.53l.443 1.237a13 13 0 0 0-1.158.48zm10.773-.53q.654.234 1.277.53l-.562 1.188a13 13 0 0 0-1.158-.48zm-13.141 1.953q.554-.411 1.149-.77l.676 1.127q-.539.325-1.042.699zm15.637-.77q.595.359 1.149.77l-.783 1.056q-.503-.375-1.042-.699zm-17.683 2.627q.465-.513.978-.978l.882.974q-.465.421-.887.887zm19.9-.978q.513.465.978.978l-.973.883a13 13 0 0 0-.887-.887zm-21.547 3.197q.357-.594.77-1.15l1.054.784q-.374.504-.698 1.043zm23.402-1.15q.413.556.77 1.15l-1.126.677q-.324-.54-.698-1.043zm-24.584 3.65q.234-.656.53-1.28l1.186.563a13 13 0 0 0-.48 1.16zm26.006-1.28q.296.624.53 1.28l-1.236.442a13 13 0 0 0-.48-1.158zm-26.676 3.963q.102-.691.269-1.358l1.274.318q-.151.605-.243 1.231zm27.607-1.358q.167.666.269 1.358l-1.3.191a13 13 0 0 0-.243-1.23zM365.912 46.1q0-.348.016-.692l1.312.064a13 13 0 0 0 0 1.256l-1.312.063a14 14 0 0 1-.016-.691m28.16-.692a14 14 0 0 1 0 1.383l-1.312-.063a13 13 0 0 0 0-1.256zm-27.741 4.12a14 14 0 0 1-.269-1.359l1.3-.191q.091.626.243 1.23zm27.607-1.359q-.102.69-.269 1.358l-1.274-.318q.151-.605.243-1.231zm-26.676 3.962a14 14 0 0 1-.53-1.279l1.236-.443q.213.594.48 1.16zm26.006-1.279q-.234.656-.53 1.279l-1.186-.563q.267-.565.48-1.159zm-24.584 3.65a14 14 0 0 1-.77-1.15l1.126-.678q.324.54.698 1.043zm23.402-1.15q-.357.595-.77 1.15l-1.054-.785q.374-.503.698-1.043zm-21.547 3.197q-.513-.466-.978-.979l.973-.883q.422.466.887.888zm19.9-.979q-.465.513-.978.979l-.882-.974q.465-.422.887-.888zm-17.683 2.627q-.595-.357-1.149-.77l.783-1.055q.503.374 1.042.698zm15.637-.77q-.554.413-1.149.77l-.676-1.127q.539-.324 1.042-.698zm-13.141 1.954a14 14 0 0 1-1.277-.53l.562-1.188q.565.268 1.158.48zm10.773-.53q-.623.296-1.277.53l-.443-1.238q.593-.212 1.158-.48zm-8.092 1.2q-.69-.101-1.357-.269l.318-1.275q.604.15 1.23.243zm5.491-.269q-.667.166-1.357.27l-.191-1.301q.625-.093 1.23-.244zm-3.424.42q-.348 0-.691-.017l.063-1.313a13 13 0 0 0 1.256 0l.063 1.313a14 14 0 0 1-.691.017" clip-rule="evenodd"/><path fill="#112e51" d="M391.641 46.101c0 6.436-5.212 11.653-11.641 11.653s-11.641-5.217-11.641-11.653c0-6.435 5.212-11.652 11.641-11.652s11.641 5.217 11.641 11.652"/><path fill="#fff" d="m379.136 38.564-1.968 3.94-4.401.634c-.789.113-1.106 1.074-.533 1.625l3.184 3.065-.753 4.33c-.136.782.699 1.368 1.398 1.002L380 51.116l3.938 2.044c.699.363 1.534-.22 1.398-1.003l-.753-4.33 3.184-3.064c.573-.55.256-1.512-.533-1.625l-4.402-.634-1.967-3.94c-.352-.702-1.374-.71-1.729 0"/><path fill="#c6d1dd" fill-rule="evenodd" d="M380 95c-21.538 0-39-17.46-39-39h2.627c0 20.086 16.283 36.37 36.373 36.37S416.373 76.086 416.373 56H419c0 21.54-17.462 39-39 39" clip-rule="evenodd"/><path stroke="#c6d1dd" stroke-width="2" d="M158 56H78"/><mask id="a" width="76" height="75" x="3" y="19" maskUnits="userSpaceOnUse"><path fill="#fff" d="M41 94c20.585 0 37.273-16.693 37.273-37.286C78.273 36.122 61.585 19.43 41 19.43S3.728 36.123 3.728 56.715 20.415 94 41 94"/></mask><g mask="url(#a)"><path fill="#e6e6e6" d="M41 94c20.585 0 37.273-16.693 37.273-37.286C78.273 36.122 61.585 19.43 41 19.43S3.728 36.123 3.728 56.715 20.415 94 41 94"/><path fill="#ebf3fa" d="M78.273 19.429H3.728V94h74.545z"/></g><mask id="b" width="82" height="77" x="0" y="17" maskUnits="userSpaceOnUse"><path fill="#fff" d="M3.727 61c0 18.225 16.688 33 37.273 33s37.273-14.775 37.273-33H82V17H0v44z"/></mask><g mask="url(#b)"><path stroke="#c6d1dd" stroke-width="2" d="M79 58c0-20.434-16.79-37-37.5-37S4 37.566 4 58"/><mask id="c" width="64" height="76" x="9" y="18" maskUnits="userSpaceOnUse"><path fill="#fff" d="M48.455 63.118v5.714h1.242c12.351 0 22.364 10.016 22.364 22.372V94H9.939v-2.796c0-12.356 10.013-22.372 22.364-22.372h1.242v-5.714c-5.354-2.544-9.202-7.744-9.844-13.898a3.73 3.73 0 0 1-3.2-3.691v-4.35a3.73 3.73 0 0 1 3.105-3.678v-1.915c0-9.61 7.788-17.4 17.394-17.4s17.394 7.79 17.394 17.4v1.916a3.73 3.73 0 0 1 3.106 3.676v4.35a3.73 3.73 0 0 1-3.2 3.692c-.643 6.154-4.491 11.354-9.845 13.898"/></mask><g mask="url(#c)"><path fill="#d0c6ac" d="M48.455 63.118v5.714h1.242c12.351 0 22.364 10.016 22.364 22.372V94H9.939v-2.796c0-12.356 10.013-22.372 22.364-22.372h1.242v-5.714c-5.354-2.544-9.202-7.744-9.844-13.898a3.73 3.73 0 0 1-3.2-3.691v-4.35a3.73 3.73 0 0 1 3.105-3.678v-1.915c0-9.61 7.788-17.4 17.394-17.4s17.394 7.79 17.394 17.4v1.916a3.73 3.73 0 0 1 3.106 3.676v4.35a3.73 3.73 0 0 1-3.2 3.692c-.643 6.154-4.491 11.354-9.845 13.898"/><path fill="#ae5d29" d="M82 18.186H0V94h82z"/><path fill="#000" fill-opacity=".1" fill-rule="evenodd" d="M58.394 42.732v7.147c0 9.61-7.788 17.4-17.394 17.4-9.607 0-17.394-7.79-17.394-17.4v-7.147 4.66c0 9.61 7.787 17.4 17.394 17.4s17.394-7.79 17.394-17.4z" clip-rule="evenodd"/></g><mask id="d" width="64" height="31" x="9" y="63" maskUnits="userSpaceOnUse"><path fill="#fff" fill-rule="evenodd" d="M33.545 63.883c-5.565.623-9.852 2.324-9.938 6.703C15.576 73.98 9.94 81.933 9.94 91.203V94h62.122v-2.797c0-9.27-5.637-17.223-13.668-20.617-.086-4.379-4.373-6.08-9.938-6.703v5.881A7.456 7.456 0 0 1 41 77.221a7.456 7.456 0 0 1-7.455-7.457z" clip-rule="evenodd"/></mask><g mask="url(#d)"><path fill="#b7c1db" fill-rule="evenodd" d="M33.545 63.883c-5.565.623-9.852 2.324-9.938 6.703C15.576 73.98 9.94 81.933 9.94 91.203V94h62.122v-2.797c0-9.27-5.637-17.223-13.668-20.617-.086-4.379-4.373-6.08-9.938-6.703v5.881A7.456 7.456 0 0 1 41 77.221a7.456 7.456 0 0 1-7.455-7.457z" clip-rule="evenodd"/><path fill="#008099" d="M82 59.821H0V94h82z"/><path fill="#f4f4f4" fill-rule="evenodd" d="M31.682 79.005V94h-2.174V77.89c.684.406 1.412.78 2.174 1.115m20.81-1.115v12.537a1.087 1.087 0 1 1-2.174 0V79.005c.762-.335 1.49-.709 2.175-1.115z" clip-rule="evenodd"/><path fill="#000" fill-opacity=".18" fill-rule="evenodd" d="M28.253 63.775c-4.675.885-7.908 2.647-7.908 6.085 0 6.125 10.261 11.09 20.655 11.09s20.655-4.965 20.655-11.09c0-3.438-3.233-5.2-7.908-6.085 2.822 1.041 4.647 2.79 4.647 5.702 0 6.337-8.642 11.473-17.394 11.473s-17.394-5.136-17.394-11.473c0-2.911 1.825-4.661 4.647-5.702" clip-rule="evenodd"/></g><path fill="#000" fill-opacity=".6" d="M36.652 53.607c0 1.67 1.913 2.797 4.348 2.797 2.436 0 4.349-1.128 4.349-2.797a.63.63 0 0 0-.621-.621c-.402 0-.581.281-.622.621-.386.913-1.34 1.466-3.106 1.554-1.765-.088-2.72-.641-3.106-1.554-.04-.34-.22-.621-.62-.621a.63.63 0 0 0-.622.621"/><path fill="#000" fill-opacity=".16" fill-rule="evenodd" d="M37.273 47.393c0 1.373 1.669 2.486 3.727 2.486 2.059 0 3.727-1.113 3.727-2.486" clip-rule="evenodd"/><path fill="#000" fill-opacity=".6" d="M32.925 43.664a1.864 1.864 0 1 0-.001-3.728 1.864 1.864 0 0 0 0 3.728zm16.151 0a1.864 1.864 0 1 0 0-3.728 1.864 1.864 0 0 0 0 3.728M28.461 37.81c1.216-1.712 4.55-2.671 7.421-1.966a.621.621 0 0 0 .297-1.207c-3.335-.82-7.196.292-8.73 2.453a.622.622 0 0 0 1.012.72m25.079 0c-1.217-1.712-4.55-2.671-7.422-1.966a.621.621 0 1 1-.296-1.207c3.335-.82 7.195.292 8.73 2.453a.622.622 0 0 1-1.013.72z"/><mask id="e" width="36" height="21" x="23" y="17" maskUnits="userSpaceOnUse"><path fill="#fff" fill-rule="evenodd" d="M23.295 37.45c.108.462.52.38.622 0-.144-.483 1.023-8.934 4.037-11.186 1.124-.782 7.147-1.481 13.143-1.477 5.931.004 11.837.704 12.948 1.477 3.014 2.252 4.182 10.703 4.038 11.186.102.38.514.462.622 0 .223-3.2 0-19.8-17.705-19.575S23.072 34.25 23.295 37.45" clip-rule="evenodd"/></mask><g mask="url(#e)"><path fill="#28354b" fill-rule="evenodd" d="M23.295 37.45c.108.462.52.38.622 0-.144-.483 1.023-8.934 4.037-11.186 1.124-.782 7.147-1.481 13.143-1.477 5.931.004 11.837.704 12.948 1.477 3.014 2.252 4.182 10.703 4.038 11.186.102.38.514.462.622 0 .223-3.2 0-19.8-17.705-19.575S23.072 34.25 23.295 37.45" clip-rule="evenodd"/><path fill="#2c1b18" d="M104.985 17.564h-82v87h82z"/></g><g filter="url(#f)"><path fill="#000" fill-rule="evenodd" d="M43.94 38.505a7.455 7.455 0 0 1 13.162-.406.8.8 0 0 1 .205-.028h2.484a.777.777 0 0 1 0 1.554h-2.03a7.456 7.456 0 0 1-7.133 9.632 7.456 7.456 0 0 1-7.342-8.752c-.026-1.36-1.07-2.434-2.329-2.434-1.16 0-2.14.914-2.305 2.123a7.456 7.456 0 0 1-7.281 9.064 7.456 7.456 0 0 1-7.455-7.458c0-.757.113-1.487.322-2.175h-2.03a.777.777 0 0 1 0-1.554h2.485q.107 0 .205.028a7.454 7.454 0 0 1 13.125.331c.645-.968 1.719-1.602 2.934-1.602 1.246 0 2.343.667 2.983 1.676zm-12.569 9.51a6.213 6.213 0 0 0 6.212-6.215 6.213 6.213 0 1 0-12.424 0 6.213 6.213 0 0 0 6.212 6.214zm19.258 0A6.213 6.213 0 0 0 56.84 41.8a6.213 6.213 0 1 0-12.425 0 6.213 6.213 0 0 0 6.213 6.214z" clip-rule="evenodd"/></g><path fill="#252c2f" fill-rule="evenodd" d="M43.94 38.505a7.455 7.455 0 0 1 13.162-.406.8.8 0 0 1 .205-.028h2.484a.777.777 0 0 1 0 1.554h-2.03a7.456 7.456 0 0 1-7.133 9.632 7.456 7.456 0 0 1-7.342-8.752c-.026-1.36-1.07-2.434-2.329-2.434-1.16 0-2.14.914-2.305 2.123a7.456 7.456 0 0 1-7.281 9.064 7.456 7.456 0 0 1-7.455-7.458c0-.757.113-1.487.322-2.175h-2.03a.777.777 0 0 1 0-1.554h2.485q.107 0 .205.028a7.454 7.454 0 0 1 13.125.331c.645-.968 1.719-1.602 2.934-1.602 1.246 0 2.343.667 2.983 1.676zm-12.569 9.51a6.213 6.213 0 0 0 6.212-6.215 6.213 6.213 0 1 0-12.424 0 6.213 6.213 0 0 0 6.212 6.214zm19.258 0A6.213 6.213 0 0 0 56.84 41.8a6.213 6.213 0 1 0-12.425 0 6.213 6.213 0 0 0 6.213 6.214z" clip-rule="evenodd"/></g><path stroke="#c6d1dd" stroke-width="2" d="M4 58c0 20.434 16.79 37 37.5 37S79 78.434 79 58"/><path fill="#f2f9ff" d="M210.25 109.759c28.262 0 51.173-22.994 51.173-51.359S238.512 7.041 210.25 7.041 159.077 30.035 159.077 58.4s22.91 51.359 51.173 51.359"/><path fill="#fff" fill-rule="evenodd" d="M170.125 5.96h43.438a5 5 0 0 1 5 5v60.55h-53.439V10.96a5 5 0 0 1 5-5z" clip-rule="evenodd"/><path fill="url(#g)" d="M210.25 5.96c28.857 0 52.25 23.478 52.25 52.44s-23.393 52.44-52.25 52.44S158 87.362 158 58.4s23.393-52.44 52.25-52.44m.539 4.325c-26.775 0-48.48 21.784-48.48 48.656s21.705 48.656 48.48 48.656 48.479-21.784 48.479-48.656-21.705-48.656-48.48-48.656z"/><path fill="#a8b6c6" d="M227.758 68.812h24.43a2 2 0 0 0 2-2V32.096a2 2 0 0 0-2-2h-24.43a2 2 0 0 0-2 2v34.716a2 2 0 0 0 2 2"/><path fill="#a8b6c6" d="M231.635 45.582h16.676a2 2 0 0 0 2-2V15.319a2 2 0 0 0-2-2h-16.676a2 2 0 0 0-2 2v28.263a1.996 1.996 0 0 0 2 2"/><path fill="#ebf3fa" fill-rule="evenodd" d="M247.727 30.096h-2.819V15.9h2.82v14.196zm-4.23 0h-2.819V18.48h2.82v11.615zm-4.229 0h-2.818V18.48h2.82v11.615zm-4.229 0h-2.819V15.9h2.82v14.196z" clip-rule="evenodd"/><path fill="#ebf3fa" d="M239.973 45.582c-4.996 0-9.046 4.045-9.046 9.034s4.05 9.034 9.046 9.034 9.046-4.045 9.046-9.034-4.05-9.034-9.046-9.034"/><path fill="#ebf3fa" fill-rule="evenodd" d="M264 66.742a8 8 0 0 1 8 8v5.25a8 8 0 0 1-8 8h-44.25v-21.25z" clip-rule="evenodd"/><path fill="#112e51" d="m221.308 82.326 2.017-3.472 2.006 3.41 1.896-1.37-2.44-3.01 3.455-1.033-.653-2.115-3.418 1.543.326-3.87h-2.307l.266 3.857-3.346-1.505-.75 2.115 3.552 1.02-2.5 3.074zm11.293 0 2.017-3.472 2.005 3.41 1.897-1.37-2.44-3.01 3.454-1.033-.652-2.115-3.419 1.543.327-3.87h-2.308l.266 3.857-3.346-1.505-.749 2.115 3.552 1.02-2.5 3.074zm11.292 0 2.017-3.472 2.006 3.41 1.896-1.37-2.44-3.01 3.455-1.033-.653-2.115-3.418 1.543.326-3.87h-2.307l.266 3.857-3.346-1.505-.75 2.115 3.552 1.02-2.5 3.074zm12.704 0 2.017-3.472 2.006 3.41 1.896-1.37-2.44-3.01 3.455-1.033-.653-2.115-3.418 1.543.326-3.87h-2.306l.266 3.857-3.346-1.506-.75 2.115 3.552 1.02-2.5 3.074 1.896 1.356h-.001z"/><path fill="#fff" fill-rule="evenodd" d="M170.054 6h43.894c1.34 0 2.625.422 3.572 1.173.948.75 1.48 1.77 1.48 2.832V48h-54V10.005c0-1.063.532-2.081 1.48-2.832.947-.751 2.232-1.173 3.572-1.173z" clip-rule="evenodd"/><path fill="#a8b6c6" d="M207.354 5.391v1.187c0 3.28-2.668 5.938-5.959 5.938h-20.26a5.954 5.954 0 0 1-5.954-5.67l-.035-1.455zm-15.51 41.686c.984 0 1.781.8 1.781 1.788 0 .987-.797 1.788-1.781 1.788-7.214 0-13.063 5.87-13.063 13.11s5.849 13.11 13.063 13.11 13.062-5.87 13.062-13.11c0-.988.798-1.788 1.782-1.788.983 0 1.78.8 1.78 1.788 0 9.215-7.443 16.685-16.624 16.685-9.182 0-16.625-7.47-16.625-16.685s7.443-16.686 16.625-16.686"/><path fill="#112e51" d="M177.978 29.493v-1.376h-1.415c-.332 0-.819.044-1.173.089 1.14-1.2 2.246-2.465 2.246-3.652 0-1.354-.94-2.242-2.323-2.242-1.006 0-1.659.377-2.356 1.12l.885.878c.354-.378.741-.722 1.25-.722.608 0 .995.377.995 1.066 0 .999-1.26 2.209-3.052 3.907v.932zm5.73 0v-1.32h-1.318v-5.728h-1.194c-.498.3-.985.5-1.748.644v1.01h1.316v4.073h-1.524v1.321zm3.284.133c1.416 0 2.61-.743 2.61-2.053 0-.91-.586-1.487-1.393-1.72v-.045c.752-.322 1.172-.832 1.172-1.565 0-1.232-.973-1.931-2.422-1.931-.863 0-1.57.344-2.212.899l.818.999c.443-.389.819-.622 1.316-.622.553 0 .863.289.863.777 0 .566-.398.944-1.659.944v1.154c1.526 0 1.891.388 1.891 1.01 0 .533-.453.833-1.139.833-.597 0-1.117-.3-1.537-.71l-.752 1.031c.509.6 1.305 1 2.444 1zm10.606-.133v-1.32h-1.316v-5.728h-1.194c-.498.3-.985.5-1.748.644v1.01h1.316v4.073h-1.526v1.321zm3.506.133c1.493 0 2.489-.843 2.489-1.953 0-.933-.542-1.476-1.217-1.843v-.044c.487-.322.918-.866.918-1.543 0-1.166-.852-1.931-2.135-1.931-1.305 0-2.245.743-2.245 1.942 0 .744.399 1.254.94 1.665v.044c-.663.356-1.194.877-1.194 1.732 0 1.143 1.04 1.931 2.444 1.931m.443-4.24c-.72-.277-1.206-.555-1.206-1.132 0-.544.354-.81.785-.81.531 0 .852.366.852.91 0 .366-.155.71-.431 1.032m-.41 3.108c-.586 0-1.083-.366-1.083-.988 0-.433.232-.832.541-1.12.885.377 1.482.61 1.482 1.231 0 .589-.398.877-.94.877m6.006 1.132c1.272 0 2.333-.899 2.333-2.364 0-1.487-.884-2.175-2.09-2.175-.431 0-1.04.277-1.404.743.055-1.643.674-2.198 1.448-2.198.41 0 .852.234 1.095.5l.852-.977c-.443-.455-1.117-.843-2.046-.843-1.482 0-2.843 1.187-2.843 3.818 0 2.475 1.294 3.496 2.655 3.496m-.033-1.22c-.487 0-.952-.356-1.095-1.466.287-.5.696-.699 1.061-.699.531 0 .918.277.918 1.021 0 .8-.398 1.143-.884 1.143zm-18.418 39.377c1.415 0 2.61-.744 2.61-2.054 0-.91-.586-1.487-1.394-1.72v-.045c.752-.322 1.173-.832 1.173-1.565 0-1.232-.974-1.931-2.422-1.931-.863 0-1.57.344-2.212.899l.818.999c.442-.389.818-.622 1.316-.622.553 0 .863.289.863.777 0 .566-.398.944-1.66.944v1.154c1.527 0 1.892.389 1.892 1.01 0 .533-.453.833-1.14.833-.596 0-1.116-.3-1.536-.71l-.752 1.032c.508.6 1.305.999 2.444.999m5.883 0c1.372 0 2.577-.9 2.577-2.464 0-1.499-1.028-2.187-2.234-2.187-.287 0-.52.044-.785.166l.122-1.32h2.577V60.6h-3.982l-.199 3.563.73.466c.42-.266.63-.355 1.04-.355.652 0 1.106.378 1.106 1.088 0 .721-.465 1.099-1.184 1.099-.597 0-1.095-.311-1.515-.7l-.73 1.033c.553.555 1.327.988 2.477.988z"/><path fill="#a8b6c6" d="M217.376 12.497q1.197.189 2.375.437l-.001 82.412c0 3.869-3.061 7.02-6.885 7.147l-.24.004-23.4.001a47 47 0 0 1-4.304-2.383l27.704-.002c2.55 0 4.631-2.017 4.745-4.549l.005-.218zm-52.253 31.296V75.39a47.6 47.6 0 0 1-2.373-10.434V54.228a47.6 47.6 0 0 1 2.373-10.435m0-11.843-.001.26a52 52 0 0 0-2.37 4.403l-.001-.092a52 52 0 0 1 2.372-4.571M210.25 5.96c2.348 0 4.66.155 6.926.456.535.447 1.005.97 1.391 1.555a52 52 0 0 0-4.547-.612 4.8 4.8 0 0 0-1.178-.203l-.217-.005-13.497-.001a52.3 52.3 0 0 1 11.122-1.19"/><path fill="#a8b6c6" d="M205.797 60.188a2.08 2.08 0 0 0 2.078-2.086c0-1.152-.93-2.086-2.078-2.086a2.085 2.085 0 0 0-1.921 1.289 2.1 2.1 0 0 0-.157.797c0 1.152.93 2.086 2.078 2.086"/><path fill="#a8b6c6" d="M212.625 4.767c3.935 0 7.125 3.202 7.125 7.151V58.4h-2.376l.001-46.482a4.76 4.76 0 0 0-4.533-4.762l-.217-.005h-42.75c-2.623 0-4.75 2.134-4.75 4.767l-.001 46.482h-2.374V11.92c0-3.95 3.19-7.152 7.125-7.152h42.75z"/><path fill="#a6d5af" d="M185.906 109.648c3.607 0 6.531-2.935 6.531-6.555s-2.924-6.555-6.531-6.555-6.531 2.935-6.531 6.555 2.924 6.555 6.531 6.555"/><path fill="#fcf197" d="M219.156 13.11c3.607 0 6.531-2.935 6.531-6.555S222.763 0 219.156 0s-6.531 2.935-6.531 6.555 2.924 6.555 6.531 6.555"/><circle cx="158" cy="56" r="4.25" fill="#ebf3fa" stroke="#c6d1dd" stroke-width="1.5"/><circle cx="78" cy="56" r="4.25" fill="#ebf3fa" stroke="#c6d1dd" stroke-width="1.5"/><path stroke="#c6d1dd" stroke-width="2" d="M341 56h-80"/><circle cx="341" cy="56" r="4.25" fill="#ebf3fa" stroke="#c6d1dd" stroke-width="1.5"/><circle cx="261" cy="56" r="4.25" fill="#ebf3fa" stroke="#c6d1dd" stroke-width="1.5"/><defs><linearGradient id="g" x1="227.89" x2="105.307" y1="5.96" y2="357.778" gradientUnits="userSpaceOnUse"><stop stop-color="#ebf3fa"/><stop offset="1" stop-color="#a8b6c6"/></linearGradient><filter id="f" width="47.136" height="22.914" x="17.432" y="32.343" color-interpolation-filters="sRGB" filterUnits="userSpaceOnUse"><feFlood flood-opacity="0" result="BackgroundImageFix"/><feColorMatrix in="SourceAlpha" values="0 0 0 0 0 0 0 0 0 0 0 0 0 0 0 0 0 0 127 0"/><feOffset dy="2"/><feGaussianBlur stdDeviation="2"/><feColorMatrix values="0 0 0 0 0 0 0 0 0 0 0 0 0 0 0 0 0 0 0.1 0"/><feBlend in2="BackgroundImageFix" result="effect1_dropShadow"/><feBlend in="SourceGraphic" in2="effect1_dropShadow" result="shape"/></filter></defs></svg>