<svg width="416" height="105" viewBox="0 0 416 105" fill="none" xmlns="http://www.w3.org/2000/svg">
<path d="M414.687 53C414.687 73.8131 397.814 90.6854 377 90.6854C356.186 90.6854 339.313 73.8131 339.313 53C339.313 32.1869 356.186 15.3146 377 15.3146C397.814 15.3146 414.687 32.1869 414.687 53Z" fill="#EBF3FA"/>
<path fill-rule="evenodd" clip-rule="evenodd" d="M338 53C338 31.4596 355.462 14 377 14C398.538 14 416 31.4596 416 53H413.373C413.373 32.9142 397.09 16.6292 377 16.6292C356.91 16.6292 340.627 32.9142 340.627 53H338Z" fill="#C6D1DD"/>
<path d="M344.453 42.8419H408.691V72.1218C408.691 75.752 405.751 78.6948 402.125 78.6948H351.019C347.393 78.6948 344.453 75.752 344.453 72.1218V42.8419Z" fill="white"/>
<path d="M345.809 29.447C345.809 26.5429 348.161 24.1886 351.062 24.1886H402.938C405.839 24.1886 408.191 26.5429 408.191 29.447V37.0359H345.809V29.447Z" fill="#EBF3FA"/>
<path fill-rule="evenodd" clip-rule="evenodd" d="M351.019 21.7084C346.667 21.7084 343.139 25.2398 343.139 29.596V67.3649C343.888 69.1279 344.771 70.8204 345.775 72.4297C345.769 72.3278 345.766 72.225 345.766 72.1216V29.596C345.766 26.6919 348.118 24.3376 351.019 24.3376H402.981C405.882 24.3376 408.234 26.6919 408.234 29.596V72.1216C408.234 72.2248 408.231 72.3273 408.225 72.4291C409.229 70.8197 410.112 69.1271 410.861 67.364V29.596C410.861 25.2398 407.333 21.7084 402.981 21.7084H351.019ZM401.952 80.0092C402.961 79.077 403.917 78.0891 404.816 77.0502C404.245 77.2634 403.627 77.38 402.981 77.38H351.019C350.373 77.38 349.755 77.2634 349.183 77.05C350.083 78.0889 351.039 79.077 352.048 80.0092H401.952Z" fill="#112E51"/>
<path d="M366.254 63.2987C366.254 64.0247 366.842 64.6133 367.568 64.6133H386.432C387.157 64.6133 387.745 64.0247 387.745 63.2987V62.3426C387.745 61.6166 387.157 61.028 386.432 61.028H367.568C366.842 61.028 366.254 61.6166 366.254 62.3426V63.2987Z" fill="#C6D1DD"/>
<path d="M368.046 68.6749C368.046 69.4009 368.634 69.9895 369.36 69.9895H384.642C385.367 69.9895 385.955 69.4009 385.955 68.6749V67.7188C385.955 66.9928 385.367 66.4042 384.642 66.4042H369.36C368.634 66.4042 368.046 66.9928 368.046 67.7188V68.6749Z" fill="#C6D1DD"/>
<path fill-rule="evenodd" clip-rule="evenodd" d="M376.309 29.0153C376.538 29.0043 376.768 28.9987 377 28.9987C377.232 28.9987 377.462 29.0043 377.691 29.0153L377.628 30.3284C377.42 30.3184 377.21 30.3133 377 30.3133C376.79 30.3133 376.58 30.3184 376.372 30.3284L376.309 29.0153ZM373.576 29.4182C374.02 29.3071 374.473 29.2172 374.933 29.1495L375.124 30.4501C374.707 30.5115 374.297 30.593 373.894 30.6936L373.576 29.4182ZM379.067 29.1495C379.527 29.2172 379.98 29.3071 380.424 29.4182L380.106 30.6936C379.703 30.593 379.293 30.5115 378.876 30.4501L379.067 29.1495ZM370.975 30.3499C371.39 30.1531 371.816 29.9759 372.252 29.8196L372.695 31.0574C372.3 31.199 371.913 31.3595 371.537 31.5379L370.975 30.3499ZM381.748 29.8196C382.184 29.9759 382.61 30.1531 383.025 30.3499L382.463 31.5379C382.087 31.3595 381.7 31.199 381.305 31.0574L381.748 29.8196ZM368.607 31.7734C368.976 31.4987 369.36 31.2416 369.756 31.0035L370.432 32.1304C370.073 32.3463 369.725 32.5795 369.39 32.8287L368.607 31.7734ZM384.244 31.0035C384.64 31.2416 385.024 31.4987 385.393 31.7734L384.61 32.8287C384.275 32.5795 383.927 32.3463 383.568 32.1304L384.244 31.0035ZM366.561 33.6302C366.871 33.2884 367.197 32.9618 367.539 32.6518L368.421 33.6256C368.111 33.9069 367.815 34.2032 367.534 34.5134L366.561 33.6302ZM386.461 32.6518C386.803 32.9618 387.129 33.2884 387.439 33.6302L386.466 34.5134C386.185 34.2032 385.889 33.9069 385.579 33.6256L386.461 32.6518ZM364.914 35.8494C365.152 35.453 365.409 35.0692 365.684 34.6994L366.738 35.4833C366.489 35.8188 366.256 36.1668 366.04 36.5263L364.914 35.8494ZM388.316 34.6994C388.591 35.0692 388.848 35.453 389.086 35.8494L387.96 36.5263C387.744 36.1668 387.511 35.8188 387.262 35.4833L388.316 34.6994ZM363.732 38.3485C363.888 37.9118 364.065 37.4851 364.262 37.0696L365.448 37.6325C365.27 38.0091 365.11 38.3958 364.968 38.7914L363.732 38.3485ZM389.738 37.0696C389.935 37.4851 390.112 37.9118 390.268 38.3485L389.032 38.7914C388.89 38.3958 388.73 38.0091 388.552 37.6325L389.738 37.0696ZM363.062 41.0316C363.13 40.5714 363.22 40.1183 363.331 39.6736L364.605 39.9921C364.504 40.3951 364.423 40.8057 364.362 41.223L363.062 41.0316ZM390.669 39.6736C390.78 40.1183 390.87 40.5714 390.938 41.0316L389.638 41.223C389.577 40.8057 389.496 40.3951 389.395 39.9921L390.669 39.6736ZM362.912 43.1008C362.912 42.8689 362.917 42.6383 362.928 42.4091L364.24 42.4726C364.23 42.6807 364.225 42.8901 364.225 43.1008C364.225 43.3115 364.23 43.521 364.24 43.7291L362.928 43.7925C362.917 43.5633 362.912 43.3327 362.912 43.1008ZM391.072 42.4091C391.083 42.6383 391.088 42.8689 391.088 43.1008C391.088 43.3327 391.083 43.5633 391.072 43.7925L389.76 43.7291C389.77 43.521 389.775 43.3115 389.775 43.1008C389.775 42.8901 389.77 42.6807 389.76 42.4726L391.072 42.4091ZM363.331 46.5281C363.22 46.0833 363.13 45.6302 363.062 45.17L364.362 44.9787C364.423 45.3959 364.504 45.8065 364.605 46.2096L363.331 46.5281ZM390.938 45.17C390.87 45.6302 390.78 46.0833 390.669 46.5281L389.395 46.2096C389.496 45.8066 389.577 45.3959 389.638 44.9787L390.938 45.17ZM364.262 49.132C364.065 48.7165 363.888 48.2898 363.732 47.8531L364.968 47.4102C365.11 47.8058 365.27 48.1925 365.448 48.5691L364.262 49.132ZM390.268 47.8531C390.112 48.2898 389.935 48.7165 389.738 49.132L388.552 48.5691C388.73 48.1925 388.89 47.8058 389.032 47.4102L390.268 47.8531ZM365.684 51.5022C365.409 51.1324 365.152 50.7486 364.914 50.3522L366.04 49.6753C366.256 50.0348 366.489 50.3828 366.738 50.7183L365.684 51.5022ZM389.086 50.3522C388.848 50.7486 388.591 51.1324 388.316 51.5022L387.262 50.7183C387.511 50.3828 387.744 50.0348 387.96 49.6753L389.086 50.3522ZM367.539 53.5498C367.197 53.2398 366.871 52.9132 366.561 52.5714L367.534 51.6883C367.815 51.9984 368.111 52.2947 368.421 52.576L367.539 53.5498ZM387.439 52.5714C387.129 52.9132 386.803 53.2398 386.461 53.5498L385.579 52.576C385.889 52.2947 386.185 51.9984 386.466 51.6883L387.439 52.5714ZM369.756 55.1981C369.36 54.96 368.976 54.703 368.607 54.4282L369.39 53.3729C369.725 53.6221 370.073 53.8553 370.432 54.0712L369.756 55.1981ZM385.393 54.4282C385.024 54.703 384.64 54.96 384.244 55.1981L383.568 54.0712C383.927 53.8553 384.275 53.6221 384.61 53.3729L385.393 54.4282ZM372.252 56.382C371.816 56.2257 371.39 56.0485 370.975 55.8517L371.537 54.6637C371.913 54.8421 372.3 55.0026 372.695 55.1442L372.252 56.382ZM383.025 55.8517C382.61 56.0485 382.184 56.2257 381.748 56.382L381.305 55.1442C381.7 55.0026 382.087 54.8421 382.463 54.6637L383.025 55.8517ZM374.933 57.0521C374.473 56.9844 374.02 56.8945 373.576 56.7834L373.894 55.508C374.297 55.6086 374.707 55.6901 375.124 55.7515L374.933 57.0521ZM380.424 56.7834C379.98 56.8945 379.527 56.9844 379.067 57.0521L378.876 55.7515C379.293 55.6901 379.703 55.6086 380.106 55.508L380.424 56.7834ZM377 57.203C376.768 57.203 376.538 57.1974 376.309 57.1863L376.372 55.8732C376.58 55.8833 376.79 55.8883 377 55.8883C377.21 55.8883 377.42 55.8833 377.628 55.8732L377.691 57.1863C377.462 57.1974 377.232 57.203 377 57.203Z" fill="#112E51"/>
<path d="M388.641 43.1014C388.641 49.5367 383.429 54.7536 377 54.7536C370.571 54.7536 365.359 49.5367 365.359 43.1014C365.359 36.6661 370.571 31.4492 377 31.4492C383.429 31.4492 388.641 36.6661 388.641 43.1014Z" fill="#112E51"/>
<path d="M376.136 35.5644L374.168 39.5042L369.767 40.138C368.978 40.2511 368.661 41.2122 369.234 41.7627L372.418 44.8277L371.665 49.1574C371.529 49.94 372.364 50.5262 373.063 50.1602L377 48.1159L380.938 50.1602C381.637 50.5232 382.472 49.94 382.336 49.1574L381.583 44.8277L384.767 41.7627C385.34 41.2122 385.023 40.2511 384.234 40.138L379.832 39.5042L377.865 35.5644C377.513 34.8621 376.491 34.8532 376.136 35.5644Z" fill="white"/>
<path fill-rule="evenodd" clip-rule="evenodd" d="M377 92C355.462 92 338 74.5404 338 53H340.627C340.627 73.0858 356.91 89.3708 377 89.3708C397.09 89.3708 413.373 73.0858 413.373 53H416C416 74.5404 398.538 92 377 92Z" fill="#C6D1DD"/>
<line x1="338" y1="53" x2="258" y2="53" stroke="#C6D1DD" stroke-width="2"/>
<circle cx="338" cy="53" r="4.25" fill="#EBF3FA" stroke="#C6D1DD" stroke-width="1.5"/>
<path d="M210.47 103.898C238.732 103.898 261.643 80.9044 261.643 52.5394C261.643 24.1744 238.732 1.18042 210.47 1.18042C182.208 1.18042 159.297 24.1744 159.297 52.5394C159.297 80.9044 182.207 103.898 210.47 103.898Z" fill="#F2F9FF"/>
<mask id="mask0" mask-type="alpha" maskUnits="userSpaceOnUse" x="3" y="17" width="76" height="76">
<path d="M40.8148 92.4283C61.424 92.4283 78.1311 75.5431 78.1311 54.7142C78.1311 33.8852 61.424 17 40.8148 17C20.2056 17 3.49854 33.8852 3.49854 54.7142C3.49854 75.5431 20.2056 92.4283 40.8148 92.4283Z" fill="white"/>
</mask>
<g mask="url(#mask0)">
<path d="M40.8148 92.4283C61.424 92.4283 78.1311 75.5431 78.1311 54.7142C78.1311 33.8852 61.424 17 40.8148 17C20.2056 17 3.49854 33.8852 3.49854 54.7142C3.49854 75.5431 20.2056 92.4283 40.8148 92.4283Z" fill="#CEDCED"/>
<path d="M78.1311 17H3.49854V92.4283H78.1311V17Z" fill="#EBF3FA"/>
</g>
<path d="M78 55C78 34.5655 61.2107 18 40.5 18C19.7893 18 3 34.5655 3 55" stroke="#C6D1DD" stroke-width="2"/>
<mask id="mask1" mask-type="alpha" maskUnits="userSpaceOnUse" x="0" y="13" width="82" height="79">
<path d="M3.71044 58.1429C3.71044 76.8416 20.3226 92 40.8148 92C61.307 92 77.9192 76.8416 77.9192 58.1429H81.6296V13H0V58.1429H3.71044Z" fill="white"/>
</mask>
<g mask="url(#mask1)">
<mask id="mask2" mask-type="alpha" maskUnits="userSpaceOnUse" x="9" y="18" width="63" height="76">
<path d="M48.2357 63.1182V68.832H49.4725C61.7678 68.832 71.7352 78.848 71.7352 91.2034V93.9998H9.89453V91.2034C9.89453 78.848 19.8618 68.832 32.1572 68.832H33.394V63.1182C28.0641 60.5739 24.233 55.374 23.5938 49.2201C21.7928 48.9642 20.4074 47.4089 20.4074 45.5284V41.1784C20.4074 39.3309 21.7446 37.7972 23.4995 37.5014V35.5855C23.4995 25.9758 31.2518 18.1855 40.8148 18.1855C50.3779 18.1855 58.1302 25.9758 58.1302 35.5855V37.5014C59.8851 37.7972 61.2222 39.3309 61.2222 41.1784V45.5284C61.2222 47.4089 59.8369 48.9642 58.0359 49.2201C57.3967 55.374 53.5656 60.5739 48.2357 63.1182Z" fill="white"/>
</mask>
<g mask="url(#mask2)">
<path d="M48.2357 63.1182V68.832H49.4725C61.7678 68.832 71.7352 78.848 71.7352 91.2034V93.9998H9.89453V91.2034C9.89453 78.848 19.8618 68.832 32.1572 68.832H33.394V63.1182C28.0641 60.5739 24.233 55.374 23.5938 49.2201C21.7928 48.9642 20.4074 47.4089 20.4074 45.5284V41.1784C20.4074 39.3309 21.7446 37.7972 23.4995 37.5014V35.5855C23.4995 25.9758 31.2518 18.1855 40.8148 18.1855C50.3779 18.1855 58.1302 25.9758 58.1302 35.5855V37.5014C59.8851 37.7972 61.2222 39.3309 61.2222 41.1784V45.5284C61.2222 47.4089 59.8369 48.9642 58.0359 49.2201C57.3967 55.374 53.5656 60.5739 48.2357 63.1182Z" fill="#D0C6AC"/>
<path d="M81.6296 18.1855H0V93.9998H81.6296V18.1855Z" fill="#FFDBB4"/>
<path fill-rule="evenodd" clip-rule="evenodd" d="M58.1303 42.7325V49.879C58.1303 59.4887 50.3779 67.279 40.8149 67.279C31.2519 67.279 23.4995 59.4887 23.4995 49.879V42.7325V47.3933C23.4995 57.003 31.2519 64.7933 40.8149 64.7933C50.3779 64.7933 58.1303 57.003 58.1303 47.3933V42.7325Z" fill="black" fill-opacity="0.1"/>
</g>
<mask id="mask3" mask-type="alpha" maskUnits="userSpaceOnUse" x="9" y="68" width="63" height="27">
<path fill-rule="evenodd" clip-rule="evenodd" d="M51.3155 68.9241C62.7486 69.8656 71.7352 79.4882 71.7352 91.2199V94.0003H9.89453V91.2199C9.89453 79.382 19.0445 69.6915 30.6252 68.9006C30.6159 69.0167 30.6111 69.1336 30.6111 69.2512C30.6111 72.9372 35.2487 75.9253 40.9694 75.9253C46.6902 75.9253 51.3277 72.9372 51.3277 69.2512C51.3277 69.1415 51.3236 69.0324 51.3155 68.9241Z" fill="white"/>
</mask>
<g mask="url(#mask3)">
<path fill-rule="evenodd" clip-rule="evenodd" d="M51.3155 68.9241C62.7486 69.8656 71.7352 79.4882 71.7352 91.2199V94.0003H9.89453V91.2199C9.89453 79.382 19.0445 69.6915 30.6252 68.9006C30.6159 69.0167 30.6111 69.1336 30.6111 69.2512C30.6111 72.9372 35.2487 75.9253 40.9694 75.9253C46.6902 75.9253 51.3277 72.9372 51.3277 69.2512C51.3277 69.1415 51.3236 69.0324 51.3155 68.9241Z" fill="#E6E6E6"/>
<path d="M81.6296 59.8215H0V94.0001H81.6296V59.8215Z" fill="white"/>
<g opacity="0.6">
<g opacity="0.6">
<path opacity="0.6" d="M40.9697 78.0794C47.7381 78.0794 53.225 74.3354 53.225 69.7169C53.225 65.0984 47.7381 61.3544 40.9697 61.3544C34.2012 61.3544 28.7144 65.0984 28.7144 69.7169C28.7144 74.3354 34.2012 78.0794 40.9697 78.0794Z" fill="black" fill-opacity="0.16"/>
</g>
</g>
</g>
<path d="M36.4858 53.6071C36.4858 55.2762 38.39 56.4036 40.8147 56.4036C43.2394 56.4036 45.1435 55.2762 45.1435 53.6071C45.1435 53.2639 44.8499 52.9857 44.5251 52.9857C44.1254 52.9857 43.947 53.267 43.9067 53.6071C43.5226 54.52 42.572 55.0726 40.8147 55.1607C39.0574 55.0726 38.1068 54.52 37.7227 53.6071C37.6824 53.267 37.504 52.9857 37.1042 52.9857C36.7795 52.9857 36.4858 53.2639 36.4858 53.6071Z" fill="black" fill-opacity="0.6"/>
<path fill-rule="evenodd" clip-rule="evenodd" d="M37.1045 47.3926C37.1045 48.7654 38.7657 49.8783 40.8149 49.8783C42.8641 49.8783 44.5254 48.7654 44.5254 47.3926" fill="black" fill-opacity="0.16"/>
<path d="M32.7756 43.6641C33.8002 43.6641 34.6308 42.8294 34.6308 41.7998C34.6308 40.7702 33.8002 39.9355 32.7756 39.9355C31.751 39.9355 30.9204 40.7702 30.9204 41.7998C30.9204 42.8294 31.751 43.6641 32.7756 43.6641Z" fill="black" fill-opacity="0.6"/>
<path d="M48.8542 43.6641C49.8789 43.6641 50.7095 42.8294 50.7095 41.7998C50.7095 40.7702 49.8789 39.9355 48.8542 39.9355C47.8296 39.9355 46.999 40.7702 46.999 41.7998C46.999 42.8294 47.8296 43.6641 48.8542 43.6641Z" fill="black" fill-opacity="0.6"/>
<path fill-rule="evenodd" clip-rule="evenodd" d="M31.7079 34.389C29.9124 34.4723 27.0095 35.7834 27.0843 37.6029C27.0868 37.6625 27.1738 37.6886 27.2164 37.6428C28.0682 36.7233 34.1164 35.7942 36.2466 36.2865C36.4416 36.3317 36.5897 36.1384 36.4662 35.9988C35.4081 34.8031 33.3165 34.3127 31.7079 34.389Z" fill="black" fill-opacity="0.6"/>
<path fill-rule="evenodd" clip-rule="evenodd" d="M50.2306 34.389C52.0261 34.4723 54.9289 35.7834 54.8542 37.6029C54.8517 37.6625 54.7646 37.6886 54.7221 37.6428C53.8703 36.7233 47.8221 35.7942 45.6919 36.2865C45.4969 36.3317 45.3488 36.1384 45.4723 35.9988C46.5304 34.8031 48.622 34.3127 50.2306 34.389Z" fill="black" fill-opacity="0.6"/>
<mask id="mask4" mask-type="alpha" maskUnits="userSpaceOnUse" x="0" y="7" width="82" height="87">
<path d="M81.6296 7H0V94H81.6296V7Z" fill="white"/>
</mask>
<g mask="url(#mask4)">
<path fill-rule="evenodd" clip-rule="evenodd" d="M21.0361 30.6801C25.0365 20.4005 29.2649 15.2607 33.7212 15.2607C33.8878 15.2607 42.7664 15.1868 48.5798 15.1487C54.9662 18.0565 59.3671 24.1833 59.3671 31.271V35.8961H33.7212L32.8538 28.6939L31.6543 35.8961H21.0259V31.271C21.0259 31.0732 21.0293 30.8763 21.0361 30.6801L21.0361 30.6801Z" fill="black" fill-opacity="0.16"/>
<mask id="mask5" mask-type="alpha" maskUnits="userSpaceOnUse" x="12" y="13" width="58" height="55">
<path fill-rule="evenodd" clip-rule="evenodd" d="M58.0864 34.3425C58.1153 34.753 58.1299 35.1675 58.1299 35.5854V47.3925C58.1299 54.3336 54.0854 60.3254 48.2354 63.118V65.8233C53.8461 66.2888 59.2805 67.0716 62.4588 67.8996C65.5361 63.6862 69.5347 59.7589 69.5705 52.0532C69.5968 46.1543 61.0129 22.3575 57.2024 17.5639C54.686 14.3984 48.3297 13.3535 40.8146 13.2139C33.2994 13.0743 27.1858 14.9256 24.736 17.8746C21.4334 21.8502 12.0324 46.1543 12.0586 52.0532C12.0944 59.7589 16.093 63.6862 19.1703 67.8996C22.3486 67.0716 27.783 66.2888 33.3937 65.8233V63.118C27.5437 60.3254 23.4992 54.3336 23.4992 47.3925V35.5854C23.4992 35.1675 23.5138 34.753 23.5427 34.3425H32.2724L33.4719 27.6796L34.3392 34.3425H58.0864Z" fill="white"/>
</mask>
<g mask="url(#mask5)">
<path fill-rule="evenodd" clip-rule="evenodd" d="M58.0864 34.3425C58.1153 34.753 58.1299 35.1675 58.1299 35.5854V47.3925C58.1299 54.3336 54.0854 60.3254 48.2354 63.118V65.8233C53.8461 66.2888 59.2805 67.0716 62.4588 67.8996C65.5361 63.6862 69.5347 59.7589 69.5705 52.0532C69.5968 46.1543 61.0129 22.3575 57.2024 17.5639C54.686 14.3984 48.3297 13.3535 40.8146 13.2139C33.2994 13.0743 27.1858 14.9256 24.736 17.8746C21.4334 21.8502 12.0324 46.1543 12.0586 52.0532C12.0944 59.7589 16.093 63.6862 19.1703 67.8996C22.3486 67.0716 27.783 66.2888 33.3937 65.8233V63.118C27.5437 60.3254 23.4992 54.3336 23.4992 47.3925V35.5854C23.4992 35.1675 23.5138 34.753 23.5427 34.3425H32.2724L33.4719 27.6796L34.3392 34.3425H58.0864Z" fill="#E6E6E6"/>
<path d="M93.6882 12.9036H12.0586V99.9036H93.6882V12.9036Z" fill="#E2623A"/>
</g>
</g>
</g>
<path d="M3 55C3 75.4345 19.7893 92 40.5 92C61.2107 92 78 75.4345 78 55" stroke="#C6D1DD" stroke-width="2"/>
<path d="M265.963 21H172C169.77 21 167 22.9761 167 25.4138V80.5862C167 83.0239 169.77 85 172 85H265.963C268.193 85 270 83.0239 270 80.5862V25.4138C270 22.9761 268.193 21 265.963 21Z" fill="#C9CFD7"/>
<path d="M197.833 29H166.5C165.303 29 161 46.284 161 47.5L161.5 61L164.5 74.5C164.5 75.716 165.803 77 167 77H197.833C199.03 77 200 76.0142 200 74.7982V31.2018C200 29.9858 199.03 29 197.833 29Z" fill="#EBF3FA"/>
<mask id="mask6" mask-type="alpha" maskUnits="userSpaceOnUse" x="164" y="37" width="33" height="40">
<path d="M184.459 61.0267V63.9821H185.099C191.458 63.9821 196.614 69.1628 196.614 75.5535V76.9999H164.627V75.5535C164.627 69.1628 169.783 63.9821 176.143 63.9821H176.782V61.0267C174.026 59.7107 172.044 57.021 171.713 53.838C170.782 53.7056 170.065 52.9012 170.065 51.9285V49.6785C170.065 48.7229 170.757 47.9296 171.664 47.7766V46.7856C171.664 41.8151 175.674 37.7856 180.621 37.7856C185.567 37.7856 189.577 41.8151 189.577 46.7856V47.7766C190.485 47.9296 191.176 48.7229 191.176 49.6785V51.9285C191.176 52.9012 190.46 53.7056 189.528 53.838C189.198 57.021 187.216 59.7107 184.459 61.0267Z" fill="white"/>
</mask>
<g mask="url(#mask6)">
<path d="M184.459 61.0267V63.9821H185.099C191.458 63.9821 196.614 69.1628 196.614 75.5535V76.9999H164.627V75.5535C164.627 69.1628 169.783 63.9821 176.143 63.9821H176.782V61.0267C174.026 59.7107 172.044 57.021 171.713 53.838C170.782 53.7056 170.065 52.9012 170.065 51.9285V49.6785C170.065 48.7229 170.757 47.9296 171.664 47.7766V46.7856C171.664 41.8151 175.674 37.7856 180.621 37.7856C185.567 37.7856 189.577 41.8151 189.577 46.7856V47.7766C190.485 47.9296 191.176 48.7229 191.176 49.6785V51.9285C191.176 52.9012 190.46 53.7056 189.528 53.838C189.198 57.021 187.216 59.7107 184.459 61.0267Z" fill="#D0C6AC"/>
<path d="M201.731 37.7856H159.509V76.9999H201.731V37.7856Z" fill="#E4E4E4"/>
<path fill-rule="evenodd" clip-rule="evenodd" d="M189.577 50.4822V54.1786C189.577 59.1492 185.567 63.1786 180.621 63.1786C175.674 63.1786 171.665 59.1492 171.665 54.1786V50.4822V52.8929C171.665 57.8635 175.674 61.8929 180.621 61.8929C185.567 61.8929 189.577 57.8635 189.577 52.8929V50.4822Z" fill="black" fill-opacity="0.1"/>
</g>
<mask id="mask7" mask-type="alpha" maskUnits="userSpaceOnUse" x="164" y="64" width="33" height="13">
<path fill-rule="evenodd" clip-rule="evenodd" d="M186.052 64.0296C191.966 64.5165 196.614 69.4938 196.614 75.5619V77H164.627V75.5619C164.627 69.4388 169.36 64.4265 175.35 64.0175C175.345 64.0775 175.343 64.1379 175.343 64.1988C175.343 66.1053 177.742 67.6509 180.701 67.6509C183.66 67.6509 186.058 66.1053 186.058 64.1988C186.058 64.142 186.056 64.0856 186.052 64.0296Z" fill="white"/>
</mask>
<g mask="url(#mask7)">
<path fill-rule="evenodd" clip-rule="evenodd" d="M186.052 64.0296C191.966 64.5165 196.614 69.4938 196.614 75.5619V77H164.627V75.5619C164.627 69.4388 169.36 64.4265 175.35 64.0175C175.345 64.0775 175.343 64.1379 175.343 64.1988C175.343 66.1053 177.742 67.6509 180.701 67.6509C183.66 67.6509 186.058 66.1053 186.058 64.1988C186.058 64.142 186.056 64.0856 186.052 64.0296Z" fill="#E6E6E6"/>
<path d="M201.731 59.3214H159.509V77H201.731V59.3214Z" fill="white"/>
<g opacity="0.6">
<g opacity="0.6">
<path opacity="0.6" d="M180.701 68.7652C184.202 68.7652 187.04 66.8287 187.04 64.4398C187.04 62.0509 184.202 60.1144 180.701 60.1144C177.2 60.1144 174.362 62.0509 174.362 64.4398C174.362 66.8287 177.2 68.7652 180.701 68.7652Z" fill="black" fill-opacity="0.16"/>
</g>
</g>
</g>
<path d="M178.381 56.1071C178.381 56.9704 179.366 57.5535 180.62 57.5535C181.875 57.5535 182.859 56.9704 182.859 56.1071C182.859 55.9296 182.708 55.7856 182.54 55.7856C182.333 55.7856 182.241 55.9311 182.22 56.1071C182.021 56.5792 181.529 56.8651 180.62 56.9106C179.711 56.8651 179.22 56.5792 179.021 56.1071C179 55.9311 178.908 55.7856 178.701 55.7856C178.533 55.7856 178.381 55.9296 178.381 56.1071Z" fill="black" fill-opacity="0.6"/>
<path fill-rule="evenodd" clip-rule="evenodd" d="M178.701 52.8926C178.701 53.6027 179.56 54.1783 180.62 54.1783C181.68 54.1783 182.54 53.6027 182.54 52.8926" fill="black" fill-opacity="0.16"/>
<path d="M176.462 50.9642C176.992 50.9642 177.422 50.5325 177.422 49.9999C177.422 49.4674 176.992 49.0356 176.462 49.0356C175.932 49.0356 175.502 49.4674 175.502 49.9999C175.502 50.5325 175.932 50.9642 176.462 50.9642Z" fill="black" fill-opacity="0.6"/>
<path d="M184.778 50.9642C185.308 50.9642 185.738 50.5325 185.738 49.9999C185.738 49.4674 185.308 49.0356 184.778 49.0356C184.248 49.0356 183.819 49.4674 183.819 49.9999C183.819 50.5325 184.248 50.9642 184.778 50.9642Z" fill="black" fill-opacity="0.6"/>
<path fill-rule="evenodd" clip-rule="evenodd" d="M175.91 46.1668C174.981 46.2099 173.479 46.8881 173.518 47.8292C173.519 47.86 173.564 47.8735 173.586 47.8498C174.027 47.3742 177.155 46.8936 178.257 47.1483C178.358 47.1717 178.435 47.0717 178.371 46.9995C177.824 46.381 176.742 46.1274 175.91 46.1668Z" fill="black" fill-opacity="0.6"/>
<path fill-rule="evenodd" clip-rule="evenodd" d="M185.49 46.1668C186.419 46.2099 187.92 46.8881 187.882 47.8292C187.881 47.86 187.835 47.8735 187.813 47.8498C187.373 47.3742 184.245 46.8936 183.143 47.1483C183.042 47.1717 182.965 47.0717 183.029 46.9995C183.576 46.381 184.658 46.1274 185.49 46.1668Z" fill="black" fill-opacity="0.6"/>
<mask id="mask8" mask-type="alpha" maskUnits="userSpaceOnUse" x="159" y="32" width="43" height="45">
<path d="M201.731 32H159.509V77H201.731V32Z" fill="white"/>
</mask>
<g mask="url(#mask8)">
<path fill-rule="evenodd" clip-rule="evenodd" d="M170.39 44.2482C172.459 38.9312 174.646 36.2727 176.951 36.2727C177.037 36.2727 181.63 36.2344 184.637 36.2147C187.94 37.7188 190.216 40.8878 190.216 44.5538V46.9461H176.951L176.503 43.2208L175.882 46.9461H170.385V44.5538C170.385 44.4516 170.387 44.3497 170.39 44.2482L170.39 44.2482Z" fill="black" fill-opacity="0.16"/>
<mask id="mask9" mask-type="alpha" maskUnits="userSpaceOnUse" x="165" y="35" width="31" height="29">
<path fill-rule="evenodd" clip-rule="evenodd" d="M189.554 46.1428C189.569 46.3552 189.577 46.5695 189.577 46.7857V52.8928C189.577 56.4831 187.485 59.5823 184.459 61.0267V62.426C187.361 62.6668 190.172 63.0717 191.816 63.5C193.407 61.3206 195.476 59.2893 195.494 55.3035C195.508 52.2524 191.068 39.9437 189.097 37.4643C187.795 35.8269 184.508 35.2865 180.62 35.2143C176.733 35.142 173.571 36.0996 172.304 37.625C170.596 39.6813 165.733 52.2524 165.747 55.3035C165.765 59.2893 167.833 61.3206 169.425 63.5C171.069 63.0717 173.88 62.6668 176.782 62.426V61.0267C173.756 59.5823 171.664 56.4831 171.664 52.8928V46.7857C171.664 46.5695 171.672 46.3552 171.687 46.1428H176.202L176.822 42.6965L177.271 46.1428H189.554Z" fill="white"/>
</mask>
<g mask="url(#mask9)">
<path fill-rule="evenodd" clip-rule="evenodd" d="M189.554 46.1428C189.569 46.3552 189.577 46.5695 189.577 46.7857V52.8928C189.577 56.4831 187.485 59.5823 184.459 61.0267V62.426C187.361 62.6668 190.172 63.0717 191.816 63.5C193.407 61.3206 195.476 59.2893 195.494 55.3035C195.508 52.2524 191.068 39.9437 189.097 37.4643C187.795 35.8269 184.508 35.2865 180.62 35.2143C176.733 35.142 173.571 36.0996 172.304 37.625C170.596 39.6813 165.733 52.2524 165.747 55.3035C165.765 59.2893 167.833 61.3206 169.425 63.5C171.069 63.0717 173.88 62.6668 176.782 62.426V61.0267C173.756 59.5823 171.664 56.4831 171.664 52.8928V46.7857C171.664 46.5695 171.672 46.3552 171.687 46.1428H176.202L176.822 42.6965L177.271 46.1428H189.554Z" fill="#E6E6E6"/>
<path d="M207.969 35.0536H165.747V80.0536H207.969V35.0536Z" fill="#A3A3A3"/>
</g>
</g>
<path d="M210.47 0.0993652C239.327 0.0993652 262.72 23.5774 262.72 52.5394C262.72 81.5014 239.327 104.979 210.47 104.979C181.613 104.979 158.22 81.5014 158.22 52.5394C158.22 23.5774 181.613 0.0993652 210.47 0.0993652ZM211.009 4.42437C184.234 4.42437 162.529 26.2084 162.529 53.0804C162.529 79.9524 184.234 101.736 211.009 101.736C237.783 101.736 259.488 79.9524 259.488 53.0804C259.488 26.2084 237.783 4.42437 211.008 4.42437H211.009Z" fill="url(#paint0_linear)"/>
<line x1="158" y1="53" x2="78" y2="53" stroke="#C6D1DD" stroke-width="2"/>
<circle cx="158" cy="53" r="4.25" fill="#EBF3FA" stroke="#C6D1DD" stroke-width="1.5"/>
<circle cx="78" cy="53" r="4.25" fill="#EBF3FA" stroke="#C6D1DD" stroke-width="1.5"/>
<mask id="mask10" mask-type="alpha" maskUnits="userSpaceOnUse" x="3" y="17" width="76" height="76">
<path d="M40.8148 92.4283C61.424 92.4283 78.1311 75.5431 78.1311 54.7142C78.1311 33.8852 61.424 17 40.8148 17C20.2056 17 3.49854 33.8852 3.49854 54.7142C3.49854 75.5431 20.2056 92.4283 40.8148 92.4283Z" fill="white"/>
</mask>
<g mask="url(#mask10)">
<path d="M40.8148 92.4283C61.424 92.4283 78.1311 75.5431 78.1311 54.7142C78.1311 33.8852 61.424 17 40.8148 17C20.2056 17 3.49854 33.8852 3.49854 54.7142C3.49854 75.5431 20.2056 92.4283 40.8148 92.4283Z" fill="#CEDCED"/>
<path d="M78.1311 17H3.49854V92.4283H78.1311V17Z" fill="#EBF3FA"/>
</g>
<path d="M78 55C78 34.5655 61.2107 18 40.5 18C19.7893 18 3 34.5655 3 55" stroke="#C6D1DD" stroke-width="2"/>
<mask id="mask11" mask-type="alpha" maskUnits="userSpaceOnUse" x="0" y="13" width="82" height="79">
<path d="M3.71044 58.1429C3.71044 76.8416 20.3226 92 40.8148 92C61.307 92 77.9192 76.8416 77.9192 58.1429H81.6296V13H0V58.1429H3.71044Z" fill="white"/>
</mask>
<g mask="url(#mask11)">
<mask id="mask12" mask-type="alpha" maskUnits="userSpaceOnUse" x="9" y="18" width="63" height="76">
<path d="M48.2357 63.1182V68.832H49.4725C61.7678 68.832 71.7352 78.848 71.7352 91.2034V93.9998H9.89453V91.2034C9.89453 78.848 19.8618 68.832 32.1572 68.832H33.394V63.1182C28.0641 60.5739 24.233 55.374 23.5938 49.2201C21.7928 48.9642 20.4074 47.4089 20.4074 45.5284V41.1784C20.4074 39.3309 21.7446 37.7972 23.4995 37.5014V35.5855C23.4995 25.9758 31.2518 18.1855 40.8148 18.1855C50.3779 18.1855 58.1302 25.9758 58.1302 35.5855V37.5014C59.8851 37.7972 61.2222 39.3309 61.2222 41.1784V45.5284C61.2222 47.4089 59.8369 48.9642 58.0359 49.2201C57.3967 55.374 53.5656 60.5739 48.2357 63.1182Z" fill="white"/>
</mask>
<g mask="url(#mask12)">
<path d="M48.2357 63.1182V68.832H49.4725C61.7678 68.832 71.7352 78.848 71.7352 91.2034V93.9998H9.89453V91.2034C9.89453 78.848 19.8618 68.832 32.1572 68.832H33.394V63.1182C28.0641 60.5739 24.233 55.374 23.5938 49.2201C21.7928 48.9642 20.4074 47.4089 20.4074 45.5284V41.1784C20.4074 39.3309 21.7446 37.7972 23.4995 37.5014V35.5855C23.4995 25.9758 31.2518 18.1855 40.8148 18.1855C50.3779 18.1855 58.1302 25.9758 58.1302 35.5855V37.5014C59.8851 37.7972 61.2222 39.3309 61.2222 41.1784V45.5284C61.2222 47.4089 59.8369 48.9642 58.0359 49.2201C57.3967 55.374 53.5656 60.5739 48.2357 63.1182Z" fill="#D0C6AC"/>
<path d="M81.6296 18.1855H0V93.9998H81.6296V18.1855Z" fill="#FFDBB4"/>
<path fill-rule="evenodd" clip-rule="evenodd" d="M58.1303 42.7325V49.879C58.1303 59.4887 50.3779 67.279 40.8149 67.279C31.2519 67.279 23.4995 59.4887 23.4995 49.879V42.7325V47.3933C23.4995 57.003 31.2519 64.7933 40.8149 64.7933C50.3779 64.7933 58.1303 57.003 58.1303 47.3933V42.7325Z" fill="black" fill-opacity="0.1"/>
</g>
<mask id="mask13" mask-type="alpha" maskUnits="userSpaceOnUse" x="9" y="68" width="63" height="27">
<path fill-rule="evenodd" clip-rule="evenodd" d="M51.3155 68.9241C62.7486 69.8656 71.7352 79.4882 71.7352 91.2199V94.0003H9.89453V91.2199C9.89453 79.382 19.0445 69.6915 30.6252 68.9006C30.6159 69.0167 30.6111 69.1336 30.6111 69.2512C30.6111 72.9372 35.2487 75.9253 40.9694 75.9253C46.6902 75.9253 51.3277 72.9372 51.3277 69.2512C51.3277 69.1415 51.3236 69.0324 51.3155 68.9241Z" fill="white"/>
</mask>
<g mask="url(#mask13)">
<path fill-rule="evenodd" clip-rule="evenodd" d="M51.3155 68.9241C62.7486 69.8656 71.7352 79.4882 71.7352 91.2199V94.0003H9.89453V91.2199C9.89453 79.382 19.0445 69.6915 30.6252 68.9006C30.6159 69.0167 30.6111 69.1336 30.6111 69.2512C30.6111 72.9372 35.2487 75.9253 40.9694 75.9253C46.6902 75.9253 51.3277 72.9372 51.3277 69.2512C51.3277 69.1415 51.3236 69.0324 51.3155 68.9241Z" fill="#E6E6E6"/>
<path d="M81.6296 59.8215H0V94.0001H81.6296V59.8215Z" fill="white"/>
<g opacity="0.6">
<g opacity="0.6">
<path opacity="0.6" d="M40.9697 78.0794C47.7381 78.0794 53.225 74.3354 53.225 69.7169C53.225 65.0984 47.7381 61.3544 40.9697 61.3544C34.2012 61.3544 28.7144 65.0984 28.7144 69.7169C28.7144 74.3354 34.2012 78.0794 40.9697 78.0794Z" fill="black" fill-opacity="0.16"/>
</g>
</g>
</g>
<path d="M36.4858 53.6071C36.4858 55.2762 38.39 56.4036 40.8147 56.4036C43.2394 56.4036 45.1435 55.2762 45.1435 53.6071C45.1435 53.2639 44.8499 52.9857 44.5251 52.9857C44.1254 52.9857 43.947 53.267 43.9067 53.6071C43.5226 54.52 42.572 55.0726 40.8147 55.1607C39.0574 55.0726 38.1068 54.52 37.7227 53.6071C37.6824 53.267 37.504 52.9857 37.1042 52.9857C36.7795 52.9857 36.4858 53.2639 36.4858 53.6071Z" fill="black" fill-opacity="0.6"/>
<path fill-rule="evenodd" clip-rule="evenodd" d="M37.1045 47.3926C37.1045 48.7654 38.7657 49.8783 40.8149 49.8783C42.8641 49.8783 44.5254 48.7654 44.5254 47.3926" fill="black" fill-opacity="0.16"/>
<path d="M32.7756 43.6641C33.8002 43.6641 34.6308 42.8294 34.6308 41.7998C34.6308 40.7702 33.8002 39.9355 32.7756 39.9355C31.751 39.9355 30.9204 40.7702 30.9204 41.7998C30.9204 42.8294 31.751 43.6641 32.7756 43.6641Z" fill="black" fill-opacity="0.6"/>
<path d="M48.8542 43.6641C49.8789 43.6641 50.7095 42.8294 50.7095 41.7998C50.7095 40.7702 49.8789 39.9355 48.8542 39.9355C47.8296 39.9355 46.999 40.7702 46.999 41.7998C46.999 42.8294 47.8296 43.6641 48.8542 43.6641Z" fill="black" fill-opacity="0.6"/>
<path fill-rule="evenodd" clip-rule="evenodd" d="M31.7079 34.389C29.9124 34.4723 27.0095 35.7834 27.0843 37.6029C27.0868 37.6625 27.1738 37.6886 27.2164 37.6428C28.0682 36.7233 34.1164 35.7942 36.2466 36.2865C36.4416 36.3317 36.5897 36.1384 36.4662 35.9988C35.4081 34.8031 33.3165 34.3127 31.7079 34.389Z" fill="black" fill-opacity="0.6"/>
<path fill-rule="evenodd" clip-rule="evenodd" d="M50.2306 34.389C52.0261 34.4723 54.9289 35.7834 54.8542 37.6029C54.8517 37.6625 54.7646 37.6886 54.7221 37.6428C53.8703 36.7233 47.8221 35.7942 45.6919 36.2865C45.4969 36.3317 45.3488 36.1384 45.4723 35.9988C46.5304 34.8031 48.622 34.3127 50.2306 34.389Z" fill="black" fill-opacity="0.6"/>
<mask id="mask14" mask-type="alpha" maskUnits="userSpaceOnUse" x="0" y="7" width="82" height="87">
<path d="M81.6296 7H0V94H81.6296V7Z" fill="white"/>
</mask>
<g mask="url(#mask14)">
<path fill-rule="evenodd" clip-rule="evenodd" d="M21.0361 30.6801C25.0365 20.4005 29.2649 15.2607 33.7212 15.2607C33.8878 15.2607 42.7664 15.1868 48.5798 15.1487C54.9662 18.0565 59.3671 24.1833 59.3671 31.271V35.8961H33.7212L32.8538 28.6939L31.6543 35.8961H21.0259V31.271C21.0259 31.0732 21.0293 30.8763 21.0361 30.6801L21.0361 30.6801Z" fill="black" fill-opacity="0.16"/>
<mask id="mask15" mask-type="alpha" maskUnits="userSpaceOnUse" x="12" y="13" width="58" height="55">
<path fill-rule="evenodd" clip-rule="evenodd" d="M58.0864 34.3425C58.1153 34.753 58.1299 35.1675 58.1299 35.5854V47.3925C58.1299 54.3336 54.0854 60.3254 48.2354 63.118V65.8233C53.8461 66.2888 59.2805 67.0716 62.4588 67.8996C65.5361 63.6862 69.5347 59.7589 69.5705 52.0532C69.5968 46.1543 61.0129 22.3575 57.2024 17.5639C54.686 14.3984 48.3297 13.3535 40.8146 13.2139C33.2994 13.0743 27.1858 14.9256 24.736 17.8746C21.4334 21.8502 12.0324 46.1543 12.0586 52.0532C12.0944 59.7589 16.093 63.6862 19.1703 67.8996C22.3486 67.0716 27.783 66.2888 33.3937 65.8233V63.118C27.5437 60.3254 23.4992 54.3336 23.4992 47.3925V35.5854C23.4992 35.1675 23.5138 34.753 23.5427 34.3425H32.2724L33.4719 27.6796L34.3392 34.3425H58.0864Z" fill="white"/>
</mask>
<g mask="url(#mask15)">
<path fill-rule="evenodd" clip-rule="evenodd" d="M58.0864 34.3425C58.1153 34.753 58.1299 35.1675 58.1299 35.5854V47.3925C58.1299 54.3336 54.0854 60.3254 48.2354 63.118V65.8233C53.8461 66.2888 59.2805 67.0716 62.4588 67.8996C65.5361 63.6862 69.5347 59.7589 69.5705 52.0532C69.5968 46.1543 61.0129 22.3575 57.2024 17.5639C54.686 14.3984 48.3297 13.3535 40.8146 13.2139C33.2994 13.0743 27.1858 14.9256 24.736 17.8746C21.4334 21.8502 12.0324 46.1543 12.0586 52.0532C12.0944 59.7589 16.093 63.6862 19.1703 67.8996C22.3486 67.0716 27.783 66.2888 33.3937 65.8233V63.118C27.5437 60.3254 23.4992 54.3336 23.4992 47.3925V35.5854C23.4992 35.1675 23.5138 34.753 23.5427 34.3425H32.2724L33.4719 27.6796L34.3392 34.3425H58.0864Z" fill="#E6E6E6"/>
<path d="M93.6882 12.9036H12.0586V99.9036H93.6882V12.9036Z" fill="#E2623A"/>
</g>
</g>
</g>
<path d="M3 55C3 75.4345 19.7893 92 40.5 92C61.2107 92 78 75.4345 78 55" stroke="#C6D1DD" stroke-width="2"/>
<line x1="158" y1="53" x2="78" y2="53" stroke="#C6D1DD" stroke-width="2"/>
<circle cx="158" cy="53" r="4.25" fill="#EBF3FA" stroke="#C6D1DD" stroke-width="1.5"/>
<circle cx="78" cy="53" r="4.25" fill="#EBF3FA" stroke="#C6D1DD" stroke-width="1.5"/>
<path d="M267.256 21H203.398C201.883 21 200 22.9761 200 25.4138V80.5862C200 83.0239 201.883 85 203.398 85H267.256C268.772 85 270 83.0239 270 80.5862V25.4138C270 22.9761 268.772 21 267.256 21Z" fill="#C9CFD7"/>
<path d="M261.436 29.2911H209.752C208.784 29.2911 208 30.0767 208 31.0457V35.4323C208 36.4013 208.784 37.1869 209.752 37.1869H261.436C262.404 37.1869 263.188 36.4013 263.188 35.4323V31.0457C263.188 30.0767 262.404 29.2911 261.436 29.2911Z" fill="#A1ABB7"/>
<path d="M232.09 41.5732H209.314C208.588 41.5732 208 42.1624 208 42.8892V44.6438C208 45.3706 208.588 45.9598 209.314 45.9598H232.09C232.816 45.9598 233.404 45.3706 233.404 44.6438V42.8892C233.404 42.1624 232.816 41.5732 232.09 41.5732Z" fill="#A1ABB7"/>
<path d="M240.85 50.3464H209.314C208.588 50.3464 208 50.9356 208 51.6624V53.417C208 54.1438 208.588 54.733 209.314 54.733H240.85C241.576 54.733 242.164 54.1438 242.164 53.417V51.6624C242.164 50.9356 241.576 50.3464 240.85 50.3464Z" fill="#A1ABB7"/>
<path d="M236.47 59.1196H209.314C208.588 59.1196 208 59.7088 208 60.4356V62.1902C208 62.917 208.588 63.5062 209.314 63.5062H236.47C237.196 63.5062 237.784 62.917 237.784 62.1902V60.4356C237.784 59.7088 237.196 59.1196 236.47 59.1196Z" fill="#A1ABB7"/>
<path d="M260.999 57.3647H247.858C246.649 57.3647 245.668 58.3467 245.668 59.558V74.9109C245.668 76.1222 246.649 77.1041 247.858 77.1041H260.999C262.208 77.1041 263.189 76.1222 263.189 74.9109V59.558C263.189 58.3467 262.208 57.3647 260.999 57.3647Z" fill="#A1ABB7"/>
<path d="M261.875 41.5732H239.099C238.373 41.5732 237.785 42.1624 237.785 42.8892V44.6438C237.785 45.3706 238.373 45.9598 239.099 45.9598H261.875C262.601 45.9598 263.189 45.3706 263.189 44.6438V42.8892C263.189 42.1624 262.601 41.5732 261.875 41.5732Z" fill="#A1ABB7"/>
<path d="M219.388 67.8925H209.314C208.588 67.8925 208 68.4816 208 69.2084V70.963C208 71.6898 208.588 72.279 209.314 72.279H219.388C220.114 72.279 220.702 71.6898 220.702 70.963V69.2084C220.702 68.4816 220.114 67.8925 219.388 67.8925Z" fill="#A1ABB7"/>
<path d="M236.471 67.8925H226.397C225.671 67.8925 225.083 68.4816 225.083 69.2084V70.963C225.083 71.6898 225.671 72.279 226.397 72.279H236.471C237.196 72.279 237.785 71.6898 237.785 70.963V69.2084C237.785 68.4816 237.196 67.8925 236.471 67.8925Z" fill="#A1ABB7"/>
<path d="M171.531 26.11C175.138 26.11 178.062 23.175 178.062 19.555C178.062 15.935 175.138 13 171.531 13C167.924 13 165 15.935 165 19.555C165 23.175 167.924 26.11 171.531 26.11Z" fill="#FCF197"/>
<path d="M250.888 96.8146C258.006 96.8146 263.776 91.0358 263.776 83.9073C263.776 76.7788 258.006 71 250.888 71C243.77 71 238 76.7788 238 83.9073C238 91.0358 243.77 96.8146 250.888 96.8146Z" fill="white"/>
<path d="M263.776 83.9067C263.776 91.0356 258.006 96.8134 250.888 96.8134C243.77 96.8134 238 91.0356 238 83.9067C238 76.7778 243.77 71 250.888 71C258.006 71 263.776 76.7778 263.776 83.9067ZM249.397 90.7409L258.96 81.1651C259.284 80.8391 259.284 80.3124 258.96 79.9864L257.784 78.8092C257.459 78.4847 256.933 78.4847 256.608 78.8092L248.81 86.6184L245.169 82.9725C244.844 82.648 244.317 82.648 243.993 82.9725L242.817 84.1512C242.492 84.4757 242.492 85.0023 242.817 85.3284L248.221 90.7409C248.546 91.0654 249.073 91.0654 249.397 90.7409Z" fill="#63BB60"/>
<defs>
<linearGradient id="paint0_linear" x1="228.11" y1="0.0993633" x2="105.527" y2="351.917" gradientUnits="userSpaceOnUse">
<stop stop-color="#EBF3FA"/>
<stop offset="1" stop-color="#A8B6C6"/>
</linearGradient>
</defs>
</svg>
