<svg xmlns="http://www.w3.org/2000/svg" width="416" height="105" fill="none"><path fill="#ebf3fa" d="M414.687 53c0 20.813-16.873 37.685-37.687 37.685S339.313 73.813 339.313 53 356.186 15.315 377 15.315 414.687 32.187 414.687 53"/><path fill="#c6d1dd" fill-rule="evenodd" d="M338 53c0-21.54 17.462-39 39-39s39 17.46 39 39h-2.627c0-20.086-16.283-36.37-36.373-36.37S340.627 32.914 340.627 53z" clip-rule="evenodd"/><path fill="#fff" d="M344.453 42.842h64.238v29.28a6.57 6.57 0 0 1-6.566 6.573h-51.106a6.57 6.57 0 0 1-6.566-6.573z"/><path fill="#ebf3fa" d="M345.809 29.447a5.256 5.256 0 0 1 5.253-5.258h51.876a5.256 5.256 0 0 1 5.253 5.258v7.589h-62.382z"/><path fill="#112e51" fill-rule="evenodd" d="M351.019 21.708c-4.352 0-7.88 3.532-7.88 7.888v37.769a36.6 36.6 0 0 0 2.636 5.065 5 5 0 0 1-.009-.308V29.596a5.256 5.256 0 0 1 5.253-5.258h51.962a5.256 5.256 0 0 1 5.253 5.258v42.526q0 .154-.009.307a36.6 36.6 0 0 0 2.636-5.065V29.596c0-4.356-3.528-7.888-7.88-7.888zm50.933 58.301a37 37 0 0 0 2.864-2.959 5.2 5.2 0 0 1-1.835.33h-51.962a5.2 5.2 0 0 1-1.836-.33 37 37 0 0 0 2.865 2.96z" clip-rule="evenodd"/><path fill="#c6d1dd" d="M366.254 63.299c0 .726.588 1.314 1.314 1.314h18.864c.725 0 1.313-.588 1.313-1.314v-.956c0-.726-.588-1.315-1.313-1.315h-18.864c-.726 0-1.314.589-1.314 1.315zm1.792 5.376c0 .726.588 1.315 1.314 1.315h15.282c.725 0 1.313-.59 1.313-1.315v-.956c0-.726-.588-1.315-1.313-1.315H369.36c-.726 0-1.314.589-1.314 1.315z"/><path fill="#112e51" fill-rule="evenodd" d="M376.309 29.015a14 14 0 0 1 1.382 0l-.063 1.313a13 13 0 0 0-1.256 0zm-2.733.403q.667-.165 1.357-.268l.191 1.3q-.625.093-1.23.244zm5.491-.268q.69.101 1.357.268l-.318 1.276a13 13 0 0 0-1.23-.244zm-8.092 1.2q.623-.296 1.277-.53l.443 1.237q-.593.214-1.158.48zm10.773-.53q.654.234 1.277.53l-.562 1.188a13 13 0 0 0-1.158-.48zm-13.141 1.953q.554-.411 1.149-.77l.676 1.127q-.539.325-1.042.699zm15.637-.77q.595.359 1.149.77l-.783 1.056q-.503-.375-1.042-.699zm-17.683 2.627q.465-.513.978-.978l.882.974q-.465.421-.887.887zm19.9-.978q.513.465.978.978l-.973.883a13 13 0 0 0-.887-.887zm-21.547 3.197q.357-.595.77-1.15l1.054.784q-.374.504-.698 1.043zm23.402-1.15q.413.555.77 1.15l-1.126.677q-.324-.54-.698-1.043zm-24.584 3.65q.234-.656.53-1.28l1.186.563a13 13 0 0 0-.48 1.16l-1.236-.444zm26.006-1.28q.296.624.53 1.28l-1.236.442a13 13 0 0 0-.48-1.158zm-26.676 3.963q.102-.691.269-1.358l1.274.318q-.151.605-.243 1.231zm27.607-1.358q.167.666.269 1.358l-1.3.191a13 13 0 0 0-.243-1.23zM362.912 43.1q0-.348.016-.692l1.312.064a13 13 0 0 0 0 1.256l-1.312.063a14 14 0 0 1-.016-.691m28.16-.692a14 14 0 0 1 0 1.383l-1.312-.063a13 13 0 0 0 0-1.256zm-27.741 4.12a14 14 0 0 1-.269-1.359l1.3-.191q.091.626.243 1.23zm27.607-1.359q-.102.69-.269 1.358l-1.274-.318q.151-.605.243-1.231zm-26.676 3.962a14 14 0 0 1-.53-1.279l1.236-.443q.213.594.48 1.16zm26.006-1.279q-.234.656-.53 1.279l-1.186-.563q.267-.565.48-1.159zm-24.584 3.65a14 14 0 0 1-.77-1.15l1.126-.678q.324.54.698 1.043zm23.402-1.15q-.357.595-.77 1.15l-1.054-.785q.374-.503.698-1.043zm-21.547 3.197q-.513-.466-.978-.979l.973-.883q.422.466.887.888zm19.9-.979q-.465.513-.978.979l-.882-.974q.465-.422.887-.888zm-17.683 2.627q-.595-.357-1.149-.77l.783-1.055q.503.374 1.042.698zm15.637-.77q-.554.413-1.149.77l-.676-1.127q.539-.324 1.042-.698zm-13.141 1.954a14 14 0 0 1-1.277-.53l.562-1.188q.565.268 1.158.48zm10.773-.53q-.623.296-1.277.53l-.443-1.238q.593-.212 1.158-.48zm-8.092 1.2q-.69-.101-1.357-.269l.318-1.275q.604.15 1.23.243zm5.491-.269q-.667.166-1.357.27l-.191-1.301q.625-.093 1.23-.244zm-3.424.42q-.348 0-.691-.017l.063-1.313a13 13 0 0 0 1.256 0l.063 1.313a14 14 0 0 1-.691.017" clip-rule="evenodd"/><path fill="#112e51" d="M388.641 43.101c0 6.436-5.212 11.653-11.641 11.653s-11.641-5.217-11.641-11.653c0-6.435 5.212-11.652 11.641-11.652s11.641 5.217 11.641 11.652"/><path fill="#fff" d="m376.136 35.564-1.968 3.94-4.401.634c-.789.113-1.106 1.074-.533 1.625l3.184 3.065-.753 4.33c-.136.782.699 1.368 1.398 1.002L377 48.116l3.938 2.044c.699.363 1.534-.22 1.398-1.003l-.753-4.33 3.184-3.064c.573-.55.256-1.512-.533-1.625l-4.402-.634-1.967-3.94c-.352-.702-1.374-.71-1.729 0"/><path fill="#c6d1dd" fill-rule="evenodd" d="M377 92c-21.538 0-39-17.46-39-39h2.627c0 20.086 16.283 36.37 36.373 36.37S413.373 73.086 413.373 53H416c0 21.54-17.462 39-39 39" clip-rule="evenodd"/><path stroke="#c6d1dd" stroke-width="2" d="M338 53h-80"/><circle cx="338" cy="53" r="4.25" fill="#ebf3fa" stroke="#c6d1dd" stroke-width="1.5"/><path fill="#f2f9ff" d="M210.47 103.898c28.262 0 51.173-22.994 51.173-51.359S238.732 1.18 210.47 1.18s-51.173 22.994-51.173 51.36c0 28.364 22.91 51.358 51.173 51.358"/><mask id="a" width="76" height="76" x="3" y="17" maskUnits="userSpaceOnUse"><path fill="#fff" d="M40.815 92.428c20.609 0 37.316-16.885 37.316-37.714S61.424 17 40.815 17 3.499 33.885 3.499 54.714c0 20.83 16.707 37.714 37.316 37.714"/></mask><g mask="url(#a)"><path fill="#cedced" d="M40.815 92.428c20.609 0 37.316-16.885 37.316-37.714S61.424 17 40.815 17 3.499 33.885 3.499 54.714c0 20.83 16.707 37.714 37.316 37.714"/><path fill="#ebf3fa" d="M78.131 17H3.5v75.428h74.63V17z"/></g><path stroke="#c6d1dd" stroke-width="2" d="M78 55c0-20.434-16.79-37-37.5-37S3 34.566 3 55"/><mask id="b" width="82" height="79" x="0" y="13" maskUnits="userSpaceOnUse"><path fill="#fff" d="M3.71 58.143C3.71 76.842 20.323 92 40.815 92s37.104-15.158 37.104-33.857h3.71V13H0v45.143z"/></mask><g mask="url(#b)"><mask id="c" width="63" height="76" x="9" y="18" maskUnits="userSpaceOnUse"><path fill="#fff" d="M48.236 63.118v5.714h1.236c12.296 0 22.263 10.016 22.263 22.371V94H9.895v-2.797c0-12.355 9.967-22.371 22.262-22.371h1.237v-5.714a17.41 17.41 0 0 1-9.8-13.898 3.724 3.724 0 0 1-3.187-3.692v-4.35a3.724 3.724 0 0 1 3.093-3.677v-1.915c0-9.61 7.752-17.4 17.315-17.4s17.315 7.79 17.315 17.4V37.5a3.724 3.724 0 0 1 3.092 3.677v4.35a3.724 3.724 0 0 1-3.186 3.692 17.41 17.41 0 0 1-9.8 13.898z"/></mask><g mask="url(#c)"><path fill="#d0c6ac" d="M48.236 63.118v5.714h1.236c12.296 0 22.263 10.016 22.263 22.371V94H9.895v-2.797c0-12.355 9.967-22.371 22.262-22.371h1.237v-5.714a17.41 17.41 0 0 1-9.8-13.898 3.724 3.724 0 0 1-3.187-3.692v-4.35a3.724 3.724 0 0 1 3.093-3.677v-1.915c0-9.61 7.752-17.4 17.315-17.4s17.315 7.79 17.315 17.4V37.5a3.724 3.724 0 0 1 3.092 3.677v4.35a3.724 3.724 0 0 1-3.186 3.692 17.41 17.41 0 0 1-9.8 13.898z"/><path fill="#ffdbb4" d="M81.63 18.186H0V94h81.63z"/><path fill="#000" fill-opacity=".1" fill-rule="evenodd" d="M58.13 42.733v7.146c0 9.61-7.752 17.4-17.315 17.4S23.5 59.489 23.5 49.879v-7.146 4.66c0 9.61 7.752 17.4 17.315 17.4s17.315-7.79 17.315-17.4z" clip-rule="evenodd"/></g><mask id="d" width="63" height="27" x="9" y="68" maskUnits="userSpaceOnUse"><path fill="#fff" fill-rule="evenodd" d="M51.316 68.924c11.433.942 20.42 10.564 20.42 22.296V94H9.894v-2.78c0-11.838 9.15-21.528 20.73-22.32a4 4 0 0 0-.014.351c0 3.686 4.638 6.674 10.358 6.674s10.359-2.988 10.359-6.674q0-.165-.013-.327z" clip-rule="evenodd"/></mask><g mask="url(#d)"><path fill="#e6e6e6" fill-rule="evenodd" d="M51.316 68.924c11.433.942 20.42 10.564 20.42 22.296V94H9.894v-2.78c0-11.838 9.15-21.528 20.73-22.32a4 4 0 0 0-.014.351c0 3.686 4.638 6.674 10.358 6.674s10.359-2.988 10.359-6.674q0-.165-.013-.327z" clip-rule="evenodd"/><path fill="#fff" d="M81.63 59.822H0V94h81.63z"/><path fill="#000" fill-opacity=".16" d="M40.97 78.08c6.768 0 12.255-3.745 12.255-8.363 0-4.619-5.487-8.363-12.255-8.363s-12.256 3.744-12.256 8.363 5.487 8.362 12.256 8.362z" opacity=".6"/></g><path fill="#000" fill-opacity=".6" d="M36.486 53.607c0 1.67 1.904 2.797 4.329 2.797s4.329-1.128 4.329-2.797a.63.63 0 0 0-.619-.621c-.4 0-.578.281-.618.621-.384.913-1.335 1.466-3.092 1.554-1.758-.088-2.708-.641-3.092-1.554-.04-.34-.219-.621-.619-.621a.63.63 0 0 0-.618.621"/><path fill="#000" fill-opacity=".16" fill-rule="evenodd" d="M37.105 47.393c0 1.372 1.66 2.485 3.71 2.485s3.71-1.113 3.71-2.485" clip-rule="evenodd"/><path fill="#000" fill-opacity=".6" d="M32.776 43.664A1.86 1.86 0 0 0 34.63 41.8a1.86 1.86 0 0 0-1.855-1.864A1.86 1.86 0 0 0 30.92 41.8a1.86 1.86 0 0 0 1.856 1.864m16.078 0A1.86 1.86 0 0 0 50.71 41.8a1.86 1.86 0 0 0-1.855-1.864A1.86 1.86 0 0 0 47 41.8c0 1.03.83 1.864 1.855 1.864z"/><path fill="#000" fill-opacity=".6" fill-rule="evenodd" d="M31.708 34.389c-1.796.083-4.698 1.394-4.624 3.214.003.06.09.086.132.04.852-.92 6.9-1.849 9.03-1.357.196.046.344-.148.22-.287-1.058-1.196-3.15-1.686-4.758-1.61m18.522 0c1.796.083 4.699 1.394 4.624 3.214-.002.06-.09.086-.132.04-.852-.92-6.9-1.849-9.03-1.357-.195.046-.343-.148-.22-.287 1.058-1.196 3.15-1.686 4.759-1.61z" clip-rule="evenodd"/><mask id="e" width="82" height="87" x="0" y="7" maskUnits="userSpaceOnUse"><path fill="#fff" d="M81.63 7H0v87h81.63z"/></mask><g mask="url(#e)"><path fill="#000" fill-opacity=".16" fill-rule="evenodd" d="M21.036 30.68q6-15.42 12.685-15.42c.167 0 9.045-.073 14.859-.111 6.386 2.908 10.787 9.034 10.787 16.122v4.625H33.721l-.867-7.202-1.2 7.202H21.026v-4.625q0-.297.01-.59z" clip-rule="evenodd"/><mask id="f" width="58" height="55" x="12" y="13" maskUnits="userSpaceOnUse"><path fill="#fff" fill-rule="evenodd" d="M58.086 34.343q.044.615.044 1.242v11.807a17.41 17.41 0 0 1-9.895 15.726v2.705c5.611.466 11.046 1.249 14.224 2.077 3.077-4.214 7.076-8.141 7.111-15.847.027-5.899-8.557-29.695-12.368-34.49-2.516-3.165-8.872-4.21-16.387-4.35s-13.63 1.713-16.079 4.662c-3.303 3.975-12.704 28.28-12.677 34.178.035 7.706 4.034 11.633 7.111 15.847 3.179-.828 8.613-1.611 14.224-2.077v-2.705a17.41 17.41 0 0 1-9.895-15.726V35.585q0-.627.044-1.242h8.73l1.199-6.663.867 6.663z" clip-rule="evenodd"/></mask><g mask="url(#f)"><path fill="#e6e6e6" fill-rule="evenodd" d="M58.086 34.343q.044.615.044 1.242v11.807a17.41 17.41 0 0 1-9.895 15.726v2.705c5.611.466 11.046 1.249 14.224 2.077 3.077-4.214 7.076-8.141 7.111-15.847.027-5.899-8.557-29.695-12.368-34.49-2.516-3.165-8.872-4.21-16.387-4.35s-13.63 1.713-16.079 4.662c-3.303 3.975-12.704 28.28-12.677 34.178.035 7.706 4.034 11.633 7.111 15.847 3.179-.828 8.613-1.611 14.224-2.077v-2.705a17.41 17.41 0 0 1-9.895-15.726V35.585q0-.627.044-1.242h8.73l1.199-6.663.867 6.663z" clip-rule="evenodd"/><path fill="#e2623a" d="M93.688 12.904h-81.63v87h81.63z"/></g></g></g><path stroke="#c6d1dd" stroke-width="2" d="M3 55c0 20.434 16.79 37 37.5 37S78 75.434 78 55"/><path fill="#c9cfd7" d="M265.963 21H172c-2.23 0-5 1.976-5 4.414v55.172c0 2.438 2.77 4.414 5 4.414h93.963c2.23 0 4.037-1.976 4.037-4.414V25.414c0-2.438-1.807-4.414-4.037-4.414"/><path fill="#ebf3fa" d="M197.833 29H166.5c-1.197 0-5.5 17.284-5.5 18.5l.5 13.5 3 13.5c0 1.216 1.303 2.5 2.5 2.5h30.833c1.197 0 2.167-.986 2.167-2.202V31.202c0-1.216-.97-2.202-2.167-2.202"/><mask id="g" width="33" height="40" x="164" y="37" maskUnits="userSpaceOnUse"><path fill="#fff" d="M184.459 61.027v2.955h.64c6.359 0 11.515 5.18 11.515 11.572V77h-31.987v-1.447c0-6.39 5.156-11.57 11.516-11.57h.639v-2.956a9.01 9.01 0 0 1-5.069-7.189 1.926 1.926 0 0 1-1.648-1.91v-2.25c0-.955.692-1.748 1.599-1.901v-.991c0-4.97 4.01-9 8.957-9 4.946 0 8.956 4.03 8.956 9v.99a1.926 1.926 0 0 1 1.599 1.902v2.25c0 .973-.716 1.778-1.648 1.91a9 9 0 0 1-5.069 7.189"/></mask><g mask="url(#g)"><path fill="#d0c6ac" d="M184.459 61.027v2.955h.64c6.359 0 11.515 5.18 11.515 11.572V77h-31.987v-1.447c0-6.39 5.156-11.57 11.516-11.57h.639v-2.956a9.01 9.01 0 0 1-5.069-7.189 1.926 1.926 0 0 1-1.648-1.91v-2.25c0-.955.692-1.748 1.599-1.901v-.991c0-4.97 4.01-9 8.957-9 4.946 0 8.956 4.03 8.956 9v.99a1.926 1.926 0 0 1 1.599 1.902v2.25c0 .973-.716 1.778-1.648 1.91a9 9 0 0 1-5.069 7.189"/><path fill="#e4e4e4" d="M201.731 37.786h-42.222V77h42.222z"/><path fill="#000" fill-opacity=".1" fill-rule="evenodd" d="M189.577 50.482v3.697c0 4.97-4.01 9-8.956 9-4.947 0-8.956-4.03-8.956-9v-3.697 2.41c0 4.971 4.009 9 8.956 9s8.956-4.029 8.956-9z" clip-rule="evenodd"/></g><mask id="h" width="33" height="13" x="164" y="64" maskUnits="userSpaceOnUse"><path fill="#fff" fill-rule="evenodd" d="M186.052 64.03c5.914.486 10.562 5.464 10.562 11.532V77h-31.987v-1.438c0-6.123 4.733-11.135 10.723-11.544q-.007.09-.007.18c0 1.907 2.399 3.453 5.358 3.453s5.357-1.546 5.357-3.452q0-.085-.006-.17z" clip-rule="evenodd"/></mask><g mask="url(#h)"><path fill="#e6e6e6" fill-rule="evenodd" d="M186.052 64.03c5.914.486 10.562 5.464 10.562 11.532V77h-31.987v-1.438c0-6.123 4.733-11.135 10.723-11.544q-.007.09-.007.18c0 1.907 2.399 3.453 5.358 3.453s5.357-1.546 5.357-3.452q0-.085-.006-.17z" clip-rule="evenodd"/><path fill="#fff" d="M201.731 59.321h-42.222V77h42.222z"/><path fill="#000" fill-opacity=".16" d="M180.701 68.765c3.501 0 6.339-1.936 6.339-4.325s-2.838-4.326-6.339-4.326-6.339 1.937-6.339 4.326 2.838 4.325 6.339 4.325" opacity=".6"/></g><path fill="#000" fill-opacity=".6" d="M178.381 56.107c0 .863.985 1.447 2.239 1.447s2.239-.584 2.239-1.447a.326.326 0 0 0-.319-.321c-.207 0-.299.145-.32.321-.199.472-.691.758-1.6.804-.909-.046-1.4-.332-1.599-.804-.021-.176-.113-.321-.32-.321a.327.327 0 0 0-.32.321"/><path fill="#000" fill-opacity=".16" fill-rule="evenodd" d="M178.701 52.893c0 .71.859 1.285 1.919 1.285s1.92-.575 1.92-1.285" clip-rule="evenodd"/><path fill="#000" fill-opacity=".6" d="M176.462 50.964c.53 0 .96-.431.96-.964a.96.96 0 0 0-.96-.964c-.53 0-.96.431-.96.964s.43.964.96.964m8.316 0c.53 0 .96-.431.96-.964a.96.96 0 0 0-.96-.964.96.96 0 0 0-.959.964c0 .532.429.964.959.964"/><path fill="#000" fill-opacity=".6" fill-rule="evenodd" d="M175.91 46.167c-.929.043-2.431.721-2.392 1.662.001.031.046.044.068.02.441-.475 3.569-.955 4.671-.7.101.023.178-.077.114-.15-.547-.618-1.629-.872-2.461-.832m9.58 0c.929.043 2.43.721 2.392 1.662-.001.031-.047.044-.069.02-.44-.475-3.568-.955-4.67-.7-.101.023-.178-.077-.114-.15.547-.618 1.629-.872 2.461-.832" clip-rule="evenodd"/><mask id="i" width="43" height="45" x="159" y="32" maskUnits="userSpaceOnUse"><path fill="#fff" d="M201.731 32h-42.222v45h42.222z"/></mask><g mask="url(#i)"><path fill="#000" fill-opacity=".16" fill-rule="evenodd" d="M170.39 44.248q3.103-7.975 6.561-7.975c.086 0 4.679-.039 7.686-.058 3.303 1.504 5.579 4.673 5.579 8.339v2.392h-13.265l-.448-3.725-.621 3.725h-5.497v-2.392q0-.153.005-.306" clip-rule="evenodd"/><mask id="j" width="31" height="29" x="165" y="35" maskUnits="userSpaceOnUse"><path fill="#fff" fill-rule="evenodd" d="M189.554 46.143a9 9 0 0 1 .023.643v6.107c0 3.59-2.092 6.69-5.118 8.134v1.399c2.902.24 5.713.646 7.357 1.074 1.591-2.18 3.66-4.21 3.678-8.197.014-3.05-4.426-15.36-6.397-17.839-1.302-1.637-4.589-2.178-8.477-2.25s-7.049.886-8.316 2.411c-1.708 2.056-6.571 14.627-6.557 17.678.018 3.986 2.086 6.018 3.678 8.197 1.644-.428 4.455-.833 7.357-1.074v-1.4a9 9 0 0 1-5.118-8.133v-6.107q0-.325.023-.643h4.515l.62-3.447.449 3.447z" clip-rule="evenodd"/></mask><g mask="url(#j)"><path fill="#e6e6e6" fill-rule="evenodd" d="M189.554 46.143a9 9 0 0 1 .023.643v6.107c0 3.59-2.092 6.69-5.118 8.134v1.399c2.902.24 5.713.646 7.357 1.074 1.591-2.18 3.66-4.21 3.678-8.197.014-3.05-4.426-15.36-6.397-17.839-1.302-1.637-4.589-2.178-8.477-2.25s-7.049.886-8.316 2.411c-1.708 2.056-6.571 14.627-6.557 17.678.018 3.986 2.086 6.018 3.678 8.197 1.644-.428 4.455-.833 7.357-1.074v-1.4a9 9 0 0 1-5.118-8.133v-6.107q0-.325.023-.643h4.515l.62-3.447.449 3.447z" clip-rule="evenodd"/><path fill="#a3a3a3" d="M207.969 35.054h-42.222v45h42.222z"/></g></g><path fill="url(#k)" d="M210.47.1c28.857 0 52.25 23.477 52.25 52.44 0 28.961-23.393 52.439-52.25 52.439s-52.25-23.478-52.25-52.44S181.613.1 210.47.1m.539 4.324c-26.775 0-48.48 21.784-48.48 48.656s21.705 48.656 48.48 48.656 48.479-21.784 48.479-48.656-21.705-48.656-48.48-48.656z"/><path stroke="#c6d1dd" stroke-width="2" d="M158 53H78"/><circle cx="158" cy="53" r="4.25" fill="#ebf3fa" stroke="#c6d1dd" stroke-width="1.5"/><circle cx="78" cy="53" r="4.25" fill="#ebf3fa" stroke="#c6d1dd" stroke-width="1.5"/><mask id="l" width="76" height="76" x="3" y="17" maskUnits="userSpaceOnUse"><path fill="#fff" d="M40.815 92.428c20.609 0 37.316-16.885 37.316-37.714S61.424 17 40.815 17 3.499 33.885 3.499 54.714c0 20.83 16.707 37.714 37.316 37.714"/></mask><g mask="url(#l)"><path fill="#cedced" d="M40.815 92.428c20.609 0 37.316-16.885 37.316-37.714S61.424 17 40.815 17 3.499 33.885 3.499 54.714c0 20.83 16.707 37.714 37.316 37.714"/><path fill="#ebf3fa" d="M78.131 17H3.5v75.428h74.63V17z"/></g><path stroke="#c6d1dd" stroke-width="2" d="M78 55c0-20.434-16.79-37-37.5-37S3 34.566 3 55"/><mask id="m" width="82" height="79" x="0" y="13" maskUnits="userSpaceOnUse"><path fill="#fff" d="M3.71 58.143C3.71 76.842 20.323 92 40.815 92s37.104-15.158 37.104-33.857h3.71V13H0v45.143z"/></mask><g mask="url(#m)"><mask id="n" width="63" height="76" x="9" y="18" maskUnits="userSpaceOnUse"><path fill="#fff" d="M48.236 63.118v5.714h1.236c12.296 0 22.263 10.016 22.263 22.371V94H9.895v-2.797c0-12.355 9.967-22.371 22.262-22.371h1.237v-5.714a17.41 17.41 0 0 1-9.8-13.898 3.724 3.724 0 0 1-3.187-3.692v-4.35a3.724 3.724 0 0 1 3.093-3.677v-1.915c0-9.61 7.752-17.4 17.315-17.4s17.315 7.79 17.315 17.4V37.5a3.724 3.724 0 0 1 3.092 3.677v4.35a3.724 3.724 0 0 1-3.186 3.692 17.41 17.41 0 0 1-9.8 13.898z"/></mask><g mask="url(#n)"><path fill="#d0c6ac" d="M48.236 63.118v5.714h1.236c12.296 0 22.263 10.016 22.263 22.371V94H9.895v-2.797c0-12.355 9.967-22.371 22.262-22.371h1.237v-5.714a17.41 17.41 0 0 1-9.8-13.898 3.724 3.724 0 0 1-3.187-3.692v-4.35a3.724 3.724 0 0 1 3.093-3.677v-1.915c0-9.61 7.752-17.4 17.315-17.4s17.315 7.79 17.315 17.4V37.5a3.724 3.724 0 0 1 3.092 3.677v4.35a3.724 3.724 0 0 1-3.186 3.692 17.41 17.41 0 0 1-9.8 13.898z"/><path fill="#ffdbb4" d="M81.63 18.186H0V94h81.63z"/><path fill="#000" fill-opacity=".1" fill-rule="evenodd" d="M58.13 42.733v7.146c0 9.61-7.752 17.4-17.315 17.4S23.5 59.489 23.5 49.879v-7.146 4.66c0 9.61 7.752 17.4 17.315 17.4s17.315-7.79 17.315-17.4z" clip-rule="evenodd"/></g><mask id="o" width="63" height="27" x="9" y="68" maskUnits="userSpaceOnUse"><path fill="#fff" fill-rule="evenodd" d="M51.316 68.924c11.433.942 20.42 10.564 20.42 22.296V94H9.894v-2.78c0-11.838 9.15-21.528 20.73-22.32a4 4 0 0 0-.014.351c0 3.686 4.638 6.674 10.358 6.674s10.359-2.988 10.359-6.674q0-.165-.013-.327z" clip-rule="evenodd"/></mask><g mask="url(#o)"><path fill="#e6e6e6" fill-rule="evenodd" d="M51.316 68.924c11.433.942 20.42 10.564 20.42 22.296V94H9.894v-2.78c0-11.838 9.15-21.528 20.73-22.32a4 4 0 0 0-.014.351c0 3.686 4.638 6.674 10.358 6.674s10.359-2.988 10.359-6.674q0-.165-.013-.327z" clip-rule="evenodd"/><path fill="#fff" d="M81.63 59.822H0V94h81.63z"/><path fill="#000" fill-opacity=".16" d="M40.97 78.08c6.768 0 12.255-3.745 12.255-8.363 0-4.619-5.487-8.363-12.255-8.363s-12.256 3.744-12.256 8.363 5.487 8.362 12.256 8.362z" opacity=".6"/></g><path fill="#000" fill-opacity=".6" d="M36.486 53.607c0 1.67 1.904 2.797 4.329 2.797s4.329-1.128 4.329-2.797a.63.63 0 0 0-.619-.621c-.4 0-.578.281-.618.621-.384.913-1.335 1.466-3.092 1.554-1.758-.088-2.708-.641-3.092-1.554-.04-.34-.219-.621-.619-.621a.63.63 0 0 0-.618.621"/><path fill="#000" fill-opacity=".16" fill-rule="evenodd" d="M37.105 47.393c0 1.372 1.66 2.485 3.71 2.485s3.71-1.113 3.71-2.485" clip-rule="evenodd"/><path fill="#000" fill-opacity=".6" d="M32.776 43.664A1.86 1.86 0 0 0 34.63 41.8a1.86 1.86 0 0 0-1.855-1.864A1.86 1.86 0 0 0 30.92 41.8a1.86 1.86 0 0 0 1.856 1.864m16.078 0A1.86 1.86 0 0 0 50.71 41.8a1.86 1.86 0 0 0-1.855-1.864A1.86 1.86 0 0 0 47 41.8c0 1.03.83 1.864 1.855 1.864z"/><path fill="#000" fill-opacity=".6" fill-rule="evenodd" d="M31.708 34.389c-1.796.083-4.698 1.394-4.624 3.214.003.06.09.086.132.04.852-.92 6.9-1.849 9.03-1.357.196.046.344-.148.22-.287-1.058-1.196-3.15-1.686-4.758-1.61m18.522 0c1.796.083 4.699 1.394 4.624 3.214-.002.06-.09.086-.132.04-.852-.92-6.9-1.849-9.03-1.357-.195.046-.343-.148-.22-.287 1.058-1.196 3.15-1.686 4.759-1.61z" clip-rule="evenodd"/><mask id="p" width="82" height="87" x="0" y="7" maskUnits="userSpaceOnUse"><path fill="#fff" d="M81.63 7H0v87h81.63z"/></mask><g mask="url(#p)"><path fill="#000" fill-opacity=".16" fill-rule="evenodd" d="M21.036 30.68q6-15.42 12.685-15.42c.167 0 9.045-.073 14.859-.111 6.386 2.908 10.787 9.034 10.787 16.122v4.625H33.721l-.867-7.202-1.2 7.202H21.026v-4.625q0-.297.01-.59z" clip-rule="evenodd"/><mask id="q" width="58" height="55" x="12" y="13" maskUnits="userSpaceOnUse"><path fill="#fff" fill-rule="evenodd" d="M58.086 34.343q.044.615.044 1.242v11.807a17.41 17.41 0 0 1-9.895 15.726v2.705c5.611.466 11.046 1.249 14.224 2.077 3.077-4.214 7.076-8.141 7.111-15.847.027-5.899-8.557-29.695-12.368-34.49-2.516-3.165-8.872-4.21-16.387-4.35s-13.63 1.713-16.079 4.662c-3.303 3.975-12.704 28.28-12.677 34.178.035 7.706 4.034 11.633 7.111 15.847 3.179-.828 8.613-1.611 14.224-2.077v-2.705a17.41 17.41 0 0 1-9.895-15.726V35.585q0-.627.044-1.242h8.73l1.199-6.663.867 6.663z" clip-rule="evenodd"/></mask><g mask="url(#q)"><path fill="#e6e6e6" fill-rule="evenodd" d="M58.086 34.343q.044.615.044 1.242v11.807a17.41 17.41 0 0 1-9.895 15.726v2.705c5.611.466 11.046 1.249 14.224 2.077 3.077-4.214 7.076-8.141 7.111-15.847.027-5.899-8.557-29.695-12.368-34.49-2.516-3.165-8.872-4.21-16.387-4.35s-13.63 1.713-16.079 4.662c-3.303 3.975-12.704 28.28-12.677 34.178.035 7.706 4.034 11.633 7.111 15.847 3.179-.828 8.613-1.611 14.224-2.077v-2.705a17.41 17.41 0 0 1-9.895-15.726V35.585q0-.627.044-1.242h8.73l1.199-6.663.867 6.663z" clip-rule="evenodd"/><path fill="#e2623a" d="M93.688 12.904h-81.63v87h81.63z"/></g></g></g><path stroke="#c6d1dd" stroke-width="2" d="M3 55c0 20.434 16.79 37 37.5 37S78 75.434 78 55m80-2H78"/><circle cx="158" cy="53" r="4.25" fill="#ebf3fa" stroke="#c6d1dd" stroke-width="1.5"/><circle cx="78" cy="53" r="4.25" fill="#ebf3fa" stroke="#c6d1dd" stroke-width="1.5"/><path fill="#c9cfd7" d="M267.256 21h-63.858c-1.515 0-3.398 1.976-3.398 4.414v55.172c0 2.438 1.883 4.414 3.398 4.414h63.858c1.516 0 2.744-1.976 2.744-4.414V25.414c0-2.438-1.228-4.414-2.744-4.414"/><path fill="#a1abb7" d="M261.436 29.291h-51.684c-.968 0-1.752.786-1.752 1.755v4.386c0 .97.784 1.755 1.752 1.755h51.684c.968 0 1.752-.786 1.752-1.755v-4.386c0-.97-.784-1.755-1.752-1.755M232.09 41.573h-22.776c-.726 0-1.314.59-1.314 1.316v1.755c0 .727.588 1.316 1.314 1.316h22.776c.726 0 1.314-.59 1.314-1.316v-1.755c0-.727-.588-1.316-1.314-1.316m8.76 8.773h-31.536c-.726 0-1.314.59-1.314 1.316v1.755c0 .727.588 1.316 1.314 1.316h31.536c.726 0 1.314-.59 1.314-1.316v-1.755c0-.726-.588-1.316-1.314-1.316m-4.38 8.774h-27.156c-.726 0-1.314.589-1.314 1.316v1.754c0 .727.588 1.316 1.314 1.316h27.156c.726 0 1.314-.589 1.314-1.316v-1.754c0-.727-.588-1.316-1.314-1.316m24.529-1.755h-13.141c-1.209 0-2.19.982-2.19 2.193v15.353c0 1.211.981 2.193 2.19 2.193h13.141c1.209 0 2.19-.982 2.19-2.193V59.558a2.19 2.19 0 0 0-2.19-2.193m.876-15.792h-22.776c-.726 0-1.314.59-1.314 1.316v1.755c0 .727.588 1.316 1.314 1.316h22.776c.726 0 1.314-.59 1.314-1.316v-1.755c0-.727-.588-1.316-1.314-1.316m-42.487 26.319h-10.074c-.726 0-1.314.59-1.314 1.316v1.755c0 .727.588 1.316 1.314 1.316h10.074c.726 0 1.314-.59 1.314-1.316v-1.755c0-.726-.588-1.316-1.314-1.316m17.083 0h-10.074c-.726 0-1.314.59-1.314 1.316v1.755c0 .727.588 1.316 1.314 1.316h10.074c.725 0 1.314-.59 1.314-1.316v-1.755c0-.726-.589-1.316-1.314-1.316"/><path fill="#fcf197" d="M171.531 26.11c3.607 0 6.531-2.935 6.531-6.555S175.138 13 171.531 13 165 15.935 165 19.555s2.924 6.555 6.531 6.555"/><path fill="#fff" d="M250.888 96.815c7.118 0 12.888-5.78 12.888-12.908S258.006 71 250.888 71 238 76.779 238 83.907s5.77 12.908 12.888 12.908"/><path fill="#63bb60" d="M263.776 83.907c0 7.129-5.77 12.906-12.888 12.906S238 91.036 238 83.907 243.77 71 250.888 71s12.888 5.778 12.888 12.907m-14.379 6.834 9.563-9.576a.836.836 0 0 0 0-1.179l-1.176-1.177a.83.83 0 0 0-1.176 0l-7.798 7.81-3.641-3.647a.83.83 0 0 0-1.176 0l-1.176 1.18a.833.833 0 0 0 0 1.176l5.404 5.413a.83.83 0 0 0 1.176 0"/><defs><linearGradient id="k" x1="228.11" x2="105.527" y1=".099" y2="351.917" gradientUnits="userSpaceOnUse"><stop stop-color="#ebf3fa"/><stop offset="1" stop-color="#a8b6c6"/></linearGradient></defs></svg>