<svg width="419" height="111" viewBox="0 0 419 111" fill="none" xmlns="http://www.w3.org/2000/svg">
<path d="M417.687 56C417.687 76.8131 400.814 93.6854 380 93.6854C359.186 93.6854 342.313 76.8131 342.313 56C342.313 35.1869 359.186 18.3146 380 18.3146C400.814 18.3146 417.687 35.1869 417.687 56Z" fill="#EBF3FA"/>
<path fill-rule="evenodd" clip-rule="evenodd" d="M341 56C341 34.4596 358.462 17 380 17C401.538 17 419 34.4596 419 56H416.373C416.373 35.9142 400.09 19.6292 380 19.6292C359.91 19.6292 343.627 35.9142 343.627 56H341Z" fill="#C6D1DD"/>
<path d="M347.453 45.8419H411.691V75.1218C411.691 78.752 408.751 81.6948 405.125 81.6948H354.019C350.393 81.6948 347.453 78.752 347.453 75.1218V45.8419Z" fill="white"/>
<path d="M348.809 32.447C348.809 29.5429 351.161 27.1886 354.062 27.1886H405.938C408.839 27.1886 411.191 29.5429 411.191 32.447V40.0359H348.809V32.447Z" fill="#EBF3FA"/>
<path fill-rule="evenodd" clip-rule="evenodd" d="M354.019 24.7084C349.667 24.7084 346.139 28.2398 346.139 32.596V70.3649C346.888 72.1279 347.771 73.8204 348.775 75.4297C348.769 75.3278 348.766 75.225 348.766 75.1216V32.596C348.766 29.6919 351.118 27.3376 354.019 27.3376H405.981C408.882 27.3376 411.234 29.6919 411.234 32.596V75.1216C411.234 75.2248 411.231 75.3273 411.225 75.4291C412.229 73.8197 413.112 72.1271 413.861 70.364V32.596C413.861 28.2398 410.333 24.7084 405.981 24.7084H354.019ZM404.952 83.0092C405.961 82.077 406.917 81.0891 407.816 80.0502C407.245 80.2634 406.627 80.38 405.981 80.38H354.019C353.373 80.38 352.755 80.2634 352.183 80.05C353.083 81.0889 354.039 82.077 355.048 83.0092H404.952Z" fill="#112E51"/>
<path d="M369.254 66.2987C369.254 67.0247 369.842 67.6133 370.568 67.6133H389.432C390.157 67.6133 390.745 67.0247 390.745 66.2987V65.3426C390.745 64.6166 390.157 64.028 389.432 64.028H370.568C369.842 64.028 369.254 64.6166 369.254 65.3426V66.2987Z" fill="#C6D1DD"/>
<path d="M371.046 71.6749C371.046 72.4009 371.634 72.9895 372.36 72.9895H387.642C388.367 72.9895 388.955 72.4009 388.955 71.6749V70.7188C388.955 69.9928 388.367 69.4042 387.642 69.4042H372.36C371.634 69.4042 371.046 69.9928 371.046 70.7188V71.6749Z" fill="#C6D1DD"/>
<path fill-rule="evenodd" clip-rule="evenodd" d="M379.309 32.0153C379.538 32.0043 379.768 31.9987 380 31.9987C380.232 31.9987 380.462 32.0043 380.691 32.0153L380.628 33.3284C380.42 33.3184 380.21 33.3133 380 33.3133C379.79 33.3133 379.58 33.3184 379.372 33.3284L379.309 32.0153ZM376.576 32.4182C377.02 32.3071 377.473 32.2172 377.933 32.1495L378.124 33.4501C377.707 33.5115 377.297 33.593 376.894 33.6936L376.576 32.4182ZM382.067 32.1495C382.527 32.2172 382.98 32.3071 383.424 32.4182L383.106 33.6936C382.703 33.593 382.293 33.5115 381.876 33.4501L382.067 32.1495ZM373.975 33.3499C374.39 33.1531 374.816 32.9759 375.252 32.8196L375.695 34.0574C375.3 34.199 374.913 34.3595 374.537 34.5379L373.975 33.3499ZM384.748 32.8196C385.184 32.9759 385.61 33.1531 386.025 33.3499L385.463 34.5379C385.087 34.3595 384.7 34.199 384.305 34.0574L384.748 32.8196ZM371.607 34.7734C371.976 34.4987 372.36 34.2416 372.756 34.0035L373.432 35.1304C373.073 35.3463 372.725 35.5795 372.39 35.8287L371.607 34.7734ZM387.244 34.0035C387.64 34.2416 388.024 34.4987 388.393 34.7734L387.61 35.8287C387.275 35.5795 386.927 35.3463 386.568 35.1304L387.244 34.0035ZM369.561 36.6302C369.871 36.2884 370.197 35.9618 370.539 35.6518L371.421 36.6256C371.111 36.9069 370.815 37.2032 370.534 37.5134L369.561 36.6302ZM389.461 35.6518C389.803 35.9618 390.129 36.2884 390.439 36.6302L389.466 37.5134C389.185 37.2032 388.889 36.9069 388.579 36.6256L389.461 35.6518ZM367.914 38.8494C368.152 38.453 368.409 38.0692 368.684 37.6994L369.738 38.4833C369.489 38.8188 369.256 39.1668 369.04 39.5263L367.914 38.8494ZM391.316 37.6994C391.591 38.0692 391.848 38.453 392.086 38.8494L390.96 39.5263C390.744 39.1668 390.511 38.8188 390.262 38.4833L391.316 37.6994ZM366.732 41.3485C366.888 40.9118 367.065 40.4851 367.262 40.0696L368.448 40.6325C368.27 41.0091 368.11 41.3958 367.968 41.7914L366.732 41.3485ZM392.738 40.0696C392.935 40.4851 393.112 40.9118 393.268 41.3485L392.032 41.7914C391.89 41.3958 391.73 41.0091 391.552 40.6325L392.738 40.0696ZM366.062 44.0316C366.13 43.5714 366.22 43.1183 366.331 42.6736L367.605 42.9921C367.504 43.3951 367.423 43.8057 367.362 44.223L366.062 44.0316ZM393.669 42.6736C393.78 43.1183 393.87 43.5714 393.938 44.0316L392.638 44.223C392.577 43.8057 392.496 43.3951 392.395 42.9921L393.669 42.6736ZM365.912 46.1008C365.912 45.8689 365.917 45.6383 365.928 45.4091L367.24 45.4726C367.23 45.6807 367.225 45.8901 367.225 46.1008C367.225 46.3115 367.23 46.521 367.24 46.7291L365.928 46.7925C365.917 46.5633 365.912 46.3327 365.912 46.1008ZM394.072 45.4091C394.083 45.6383 394.088 45.8689 394.088 46.1008C394.088 46.3327 394.083 46.5633 394.072 46.7925L392.76 46.7291C392.77 46.521 392.775 46.3115 392.775 46.1008C392.775 45.8901 392.77 45.6807 392.76 45.4726L394.072 45.4091ZM366.331 49.5281C366.22 49.0833 366.13 48.6302 366.062 48.17L367.362 47.9787C367.423 48.3959 367.504 48.8065 367.605 49.2096L366.331 49.5281ZM393.938 48.17C393.87 48.6302 393.78 49.0833 393.669 49.5281L392.395 49.2096C392.496 48.8066 392.577 48.3959 392.638 47.9787L393.938 48.17ZM367.262 52.132C367.065 51.7165 366.888 51.2898 366.732 50.8531L367.968 50.4102C368.11 50.8058 368.27 51.1925 368.448 51.5691L367.262 52.132ZM393.268 50.8531C393.112 51.2898 392.935 51.7165 392.738 52.132L391.552 51.5691C391.73 51.1925 391.89 50.8058 392.032 50.4102L393.268 50.8531ZM368.684 54.5022C368.409 54.1324 368.152 53.7486 367.914 53.3522L369.04 52.6753C369.256 53.0348 369.489 53.3828 369.738 53.7183L368.684 54.5022ZM392.086 53.3522C391.848 53.7486 391.591 54.1324 391.316 54.5022L390.262 53.7183C390.511 53.3828 390.744 53.0348 390.96 52.6753L392.086 53.3522ZM370.539 56.5498C370.197 56.2398 369.871 55.9132 369.561 55.5714L370.534 54.6883C370.815 54.9984 371.111 55.2947 371.421 55.576L370.539 56.5498ZM390.439 55.5714C390.129 55.9132 389.803 56.2398 389.461 56.5498L388.579 55.576C388.889 55.2947 389.185 54.9984 389.466 54.6883L390.439 55.5714ZM372.756 58.1981C372.36 57.96 371.976 57.703 371.607 57.4282L372.39 56.3729C372.725 56.6221 373.073 56.8553 373.432 57.0712L372.756 58.1981ZM388.393 57.4282C388.024 57.703 387.64 57.96 387.244 58.1981L386.568 57.0712C386.927 56.8553 387.275 56.6221 387.61 56.3729L388.393 57.4282ZM375.252 59.382C374.816 59.2257 374.39 59.0485 373.975 58.8517L374.537 57.6637C374.913 57.8421 375.3 58.0026 375.695 58.1442L375.252 59.382ZM386.025 58.8517C385.61 59.0485 385.184 59.2257 384.748 59.382L384.305 58.1442C384.7 58.0026 385.087 57.8421 385.463 57.6637L386.025 58.8517ZM377.933 60.0521C377.473 59.9844 377.02 59.8945 376.576 59.7834L376.894 58.508C377.297 58.6086 377.707 58.6901 378.124 58.7515L377.933 60.0521ZM383.424 59.7834C382.98 59.8945 382.527 59.9844 382.067 60.0521L381.876 58.7515C382.293 58.6901 382.703 58.6086 383.106 58.508L383.424 59.7834ZM380 60.203C379.768 60.203 379.538 60.1974 379.309 60.1863L379.372 58.8732C379.58 58.8833 379.79 58.8883 380 58.8883C380.21 58.8883 380.42 58.8833 380.628 58.8732L380.691 60.1863C380.462 60.1974 380.232 60.203 380 60.203Z" fill="#112E51"/>
<path d="M391.641 46.1014C391.641 52.5367 386.429 57.7536 380 57.7536C373.571 57.7536 368.359 52.5367 368.359 46.1014C368.359 39.6661 373.571 34.4492 380 34.4492C386.429 34.4492 391.641 39.6661 391.641 46.1014Z" fill="#112E51"/>
<path d="M379.136 38.5644L377.168 42.5042L372.767 43.138C371.978 43.2511 371.661 44.2122 372.234 44.7627L375.418 47.8277L374.665 52.1574C374.529 52.94 375.364 53.5262 376.063 53.1602L380 51.1159L383.938 53.1602C384.637 53.5232 385.472 52.94 385.336 52.1574L384.583 47.8277L387.767 44.7627C388.34 44.2122 388.023 43.2511 387.234 43.138L382.832 42.5042L380.865 38.5644C380.513 37.8621 379.491 37.8532 379.136 38.5644Z" fill="white"/>
<path fill-rule="evenodd" clip-rule="evenodd" d="M380 95C358.462 95 341 77.5404 341 56H343.627C343.627 76.0858 359.91 92.3708 380 92.3708C400.09 92.3708 416.373 76.0858 416.373 56H419C419 77.5404 401.538 95 380 95Z" fill="#C6D1DD"/>
<line x1="158" y1="56" x2="78" y2="56" stroke="#C6D1DD" stroke-width="2"/>
<mask id="mask0" mask-type="alpha" maskUnits="userSpaceOnUse" x="3" y="19" width="76" height="75">
<path d="M41.0003 94C61.5854 94 78.273 77.3066 78.273 56.7143C78.273 36.122 61.5854 19.4286 41.0003 19.4286C20.4151 19.4286 3.72754 36.122 3.72754 56.7143C3.72754 77.3066 20.4151 94 41.0003 94Z" fill="white"/>
</mask>
<g mask="url(#mask0)">
<path d="M41.0003 94C61.5854 94 78.273 77.3066 78.273 56.7143C78.273 36.122 61.5854 19.4286 41.0003 19.4286C20.4151 19.4286 3.72754 36.122 3.72754 56.7143C3.72754 77.3066 20.4151 94 41.0003 94Z" fill="#E6E6E6"/>
<path d="M78.273 19.4286H3.72754V94H78.273V19.4286Z" fill="#EBF3FA"/>
</g>
<mask id="mask1" mask-type="alpha" maskUnits="userSpaceOnUse" x="0" y="17" width="82" height="77">
<path d="M3.72727 61C3.72727 79.2254 20.4148 94 41 94C61.5852 94 78.2727 79.2254 78.2727 61H82V17H0V61H3.72727Z" fill="white"/>
</mask>
<g mask="url(#mask1)">
<path d="M79 58C79 37.5655 62.2107 21 41.5 21C20.7893 21 4 37.5655 4 58" stroke="#C6D1DD" stroke-width="2"/>
<mask id="mask2" mask-type="alpha" maskUnits="userSpaceOnUse" x="9" y="18" width="64" height="76">
<path d="M48.4546 63.1184V68.8321H49.697C62.0481 68.8321 72.0607 78.8481 72.0607 91.2035V94H9.93945V91.2035C9.93945 78.8481 19.952 68.8321 32.3031 68.8321H33.5455V63.1184C28.1915 60.574 24.3429 55.3741 23.7009 49.2202C21.8917 48.9643 20.5001 47.409 20.5001 45.5285V41.1785C20.5001 39.331 21.8433 37.7974 23.6061 37.5015V35.5857C23.6061 25.9759 31.3937 18.1857 41.0001 18.1857C50.6065 18.1857 58.394 25.9759 58.394 35.5857V37.5015C60.1568 37.7974 61.5001 39.331 61.5001 41.1785V45.5285C61.5001 47.409 60.1084 48.9643 58.2992 49.2202C57.6572 55.3741 53.8086 60.574 48.4546 63.1184Z" fill="white"/>
</mask>
<g mask="url(#mask2)">
<path d="M48.4546 63.1184V68.8321H49.697C62.0481 68.8321 72.0607 78.8481 72.0607 91.2035V94H9.93945V91.2035C9.93945 78.8481 19.952 68.8321 32.3031 68.8321H33.5455V63.1184C28.1915 60.574 24.3429 55.3741 23.7009 49.2202C21.8917 48.9643 20.5001 47.409 20.5001 45.5285V41.1785C20.5001 39.331 21.8433 37.7974 23.6061 37.5015V35.5857C23.6061 25.9759 31.3937 18.1857 41.0001 18.1857C50.6065 18.1857 58.394 25.9759 58.394 35.5857V37.5015C60.1568 37.7974 61.5001 39.331 61.5001 41.1785V45.5285C61.5001 47.409 60.1084 48.9643 58.2992 49.2202C57.6572 55.3741 53.8086 60.574 48.4546 63.1184Z" fill="#D0C6AC"/>
<path d="M82 18.1857H0V94H82V18.1857Z" fill="#AE5D29"/>
<path fill-rule="evenodd" clip-rule="evenodd" d="M58.3938 42.7321V49.8785C58.3938 59.4882 50.6063 67.2785 40.9999 67.2785C31.3935 67.2785 23.606 59.4882 23.606 49.8785V42.7321V47.3928C23.606 57.0025 31.3935 64.7928 40.9999 64.7928C50.6063 64.7928 58.3938 57.0025 58.3938 47.3928V42.7321Z" fill="black" fill-opacity="0.1"/>
</g>
<mask id="mask3" mask-type="alpha" maskUnits="userSpaceOnUse" x="9" y="63" width="64" height="31">
<path fill-rule="evenodd" clip-rule="evenodd" d="M33.5455 63.8827C27.9799 64.5057 23.693 66.2071 23.6074 70.5861C15.5758 73.98 9.93945 81.9333 9.93945 91.2034V94H72.0607V91.2034C72.0607 81.9333 66.4243 73.98 58.3927 70.5861C58.3071 66.2071 54.0203 64.5057 48.4546 63.8827V69.7642C48.4546 73.8827 45.1171 77.2214 41.0001 77.2214C36.883 77.2214 33.5455 73.8827 33.5455 69.7642V63.8827Z" fill="white"/>
</mask>
<g mask="url(#mask3)">
<path fill-rule="evenodd" clip-rule="evenodd" d="M33.5455 63.8827C27.9799 64.5057 23.693 66.2071 23.6074 70.5861C15.5758 73.98 9.93945 81.9333 9.93945 91.2034V94H72.0607V91.2034C72.0607 81.9333 66.4243 73.98 58.3927 70.5861C58.3071 66.2071 54.0203 64.5057 48.4546 63.8827V69.7642C48.4546 73.8827 45.1171 77.2214 41.0001 77.2214C36.883 77.2214 33.5455 73.8827 33.5455 69.7642V63.8827Z" fill="#B7C1DB"/>
<path d="M82 59.8214H0V94H82V59.8214Z" fill="#008099"/>
<path fill-rule="evenodd" clip-rule="evenodd" d="M31.6821 79.0046V94H29.5078V77.8895C30.1923 78.2965 30.9201 78.6696 31.6821 79.0046ZM52.4927 77.8895V90.4268C52.4927 91.0274 52.006 91.5143 51.4056 91.5143C50.8051 91.5143 50.3184 91.0274 50.3184 90.4268V79.0046C51.0804 78.6696 51.8082 78.2965 52.4927 77.8895Z" fill="#F4F4F4"/>
<path fill-rule="evenodd" clip-rule="evenodd" d="M28.2528 63.775C23.5779 64.6596 20.3447 66.4219 20.3447 69.8599C20.3447 75.9848 30.6064 80.95 41 80.95C51.3936 80.95 61.6553 75.9848 61.6553 69.8599C61.6553 66.4219 58.4221 64.6596 53.7473 63.775C56.5691 64.816 58.394 66.5658 58.394 69.4774C58.394 75.8135 49.7525 80.95 41 80.95C32.2475 80.95 23.6061 75.8135 23.6061 69.4774C23.6061 66.5658 25.4309 64.816 28.2528 63.775Z" fill="black" fill-opacity="0.18"/>
</g>
<path d="M36.6519 53.6071C36.6519 55.2762 38.5646 56.4036 41.0003 56.4036C43.4361 56.4036 45.3488 55.2762 45.3488 53.6071C45.3488 53.2639 45.0538 52.9857 44.7276 52.9857C44.3261 52.9857 44.1469 53.267 44.1064 53.6071C43.7205 54.52 42.7656 55.0726 41.0003 55.1607C39.2351 55.0726 38.2802 54.52 37.8943 53.6071C37.8538 53.267 37.6746 52.9857 37.2731 52.9857C36.9468 52.9857 36.6519 53.2639 36.6519 53.6071Z" fill="black" fill-opacity="0.6"/>
<path fill-rule="evenodd" clip-rule="evenodd" d="M37.2729 47.3929C37.2729 48.7658 38.9417 49.8787 41.0002 49.8787C43.0587 49.8787 44.7275 48.7658 44.7275 47.3929" fill="black" fill-opacity="0.16"/>
<path d="M32.9247 43.6644C33.9539 43.6644 34.7883 42.8297 34.7883 41.8001C34.7883 40.7705 33.9539 39.9358 32.9247 39.9358C31.8954 39.9358 31.061 40.7705 31.061 41.8001C31.061 42.8297 31.8954 43.6644 32.9247 43.6644Z" fill="black" fill-opacity="0.6"/>
<path d="M49.076 43.6644C50.1053 43.6644 50.9397 42.8297 50.9397 41.8001C50.9397 40.7705 50.1053 39.9358 49.076 39.9358C48.0468 39.9358 47.2124 40.7705 47.2124 41.8001C47.2124 42.8297 48.0468 43.6644 49.076 43.6644Z" fill="black" fill-opacity="0.6"/>
<path d="M28.4611 37.81C29.6771 36.0984 33.0108 35.1386 35.8824 35.844C36.2155 35.9258 36.552 35.722 36.6338 35.3887C36.7156 35.0554 36.5118 34.7188 36.1787 34.637C32.8438 33.8178 28.9835 34.9292 27.4484 37.09C27.2496 37.3698 27.3152 37.7577 27.5949 37.9566C27.8746 38.1554 28.2624 38.0898 28.4611 37.81Z" fill="black" fill-opacity="0.6"/>
<path d="M53.5394 37.81C52.3234 36.0984 48.9897 35.1386 46.1181 35.844C45.7849 35.9258 45.4485 35.722 45.3667 35.3887C45.2849 35.0554 45.4886 34.7188 45.8218 34.637C49.1567 33.8178 53.017 34.9292 54.5521 37.09C54.7508 37.3698 54.6852 37.7577 54.4056 37.9566C54.1259 38.1554 53.7381 38.0898 53.5394 37.81Z" fill="black" fill-opacity="0.6"/>
<mask id="mask4" mask-type="alpha" maskUnits="userSpaceOnUse" x="23" y="17" width="36" height="21">
<path fill-rule="evenodd" clip-rule="evenodd" d="M23.2953 37.45C23.4031 37.9124 23.8149 37.8299 23.9166 37.45C23.7728 36.967 24.9403 28.5163 27.9544 26.2642C29.0783 25.4823 35.1009 24.7827 41.097 24.787C47.0283 24.7912 52.9337 25.4907 54.0454 26.2642C57.0595 28.5163 58.227 36.967 58.0832 37.45C58.1849 37.8299 58.5967 37.9124 58.7045 37.45C58.9278 34.2502 58.7045 17.6495 40.9999 17.875C23.2953 18.1004 23.072 34.2502 23.2953 37.45Z" fill="white"/>
</mask>
<g mask="url(#mask4)">
<path fill-rule="evenodd" clip-rule="evenodd" d="M23.2953 37.45C23.4031 37.9124 23.8149 37.8299 23.9166 37.45C23.7728 36.967 24.9403 28.5163 27.9544 26.2642C29.0783 25.4823 35.1009 24.7827 41.097 24.787C47.0283 24.7912 52.9337 25.4907 54.0454 26.2642C57.0595 28.5163 58.227 36.967 58.0832 37.45C58.1849 37.8299 58.5967 37.9124 58.7045 37.45C58.9278 34.2502 58.7045 17.6495 40.9999 17.875C23.2953 18.1004 23.072 34.2502 23.2953 37.45Z" fill="#28354B"/>
<path d="M104.985 17.5642H22.9849V104.564H104.985V17.5642Z" fill="#2C1B18"/>
</g>
<g filter="url(#filter0_d)">
<path fill-rule="evenodd" clip-rule="evenodd" d="M43.9396 38.5045C45.1558 36.0389 47.6942 34.3428 50.6286 34.3428C53.3991 34.3428 55.8166 35.8547 57.1016 38.0987C57.1669 38.0809 57.2357 38.0713 57.3066 38.0713H59.7915C60.2204 38.0713 60.568 38.4191 60.568 38.8481C60.568 39.2771 60.2204 39.6249 59.7915 39.6249H57.7611C57.9705 40.313 58.0832 41.0433 58.0832 41.7999C58.0832 45.9184 54.7456 49.2571 50.6286 49.2571C46.5116 49.2571 43.1741 45.9184 43.1741 41.7999C43.1741 41.3581 43.2125 40.9253 43.2861 40.5046C43.2599 39.145 42.2154 38.0713 40.9571 38.0713C39.7964 38.0713 38.8177 38.9848 38.6522 40.1935C38.7657 40.7109 38.8256 41.2484 38.8256 41.7999C38.8256 45.9184 35.4881 49.2571 31.371 49.2571C27.254 49.2571 23.9165 45.9184 23.9165 41.7999C23.9165 41.0433 24.0291 40.313 24.2385 39.6249H22.2082C21.7793 39.6249 21.4316 39.2771 21.4316 38.8481C21.4316 38.4191 21.7793 38.0713 22.2082 38.0713H24.693C24.764 38.0713 24.8327 38.0809 24.898 38.0987C26.183 35.8547 28.6005 34.3428 31.371 34.3428C34.2759 34.3428 36.7926 36.0048 38.0229 38.4302C38.6681 37.4621 39.7417 36.8285 40.9571 36.8285C42.2033 36.8285 43.3005 37.4947 43.9396 38.5045ZM31.371 48.0142C34.8019 48.0142 37.5832 45.232 37.5832 41.7999C37.5832 38.3679 34.8019 35.5856 31.371 35.5856C27.9402 35.5856 25.1589 38.3679 25.1589 41.7999C25.1589 45.232 27.9402 48.0142 31.371 48.0142ZM50.6286 48.0142C54.0595 48.0142 56.8407 45.232 56.8407 41.7999C56.8407 38.3679 54.0595 35.5856 50.6286 35.5856C47.1978 35.5856 44.4165 38.3679 44.4165 41.7999C44.4165 45.232 47.1978 48.0142 50.6286 48.0142Z" fill="black"/>
</g>
<path fill-rule="evenodd" clip-rule="evenodd" d="M43.9396 38.5045C45.1558 36.0389 47.6942 34.3428 50.6286 34.3428C53.3991 34.3428 55.8166 35.8547 57.1016 38.0987C57.1669 38.0809 57.2357 38.0713 57.3066 38.0713H59.7915C60.2204 38.0713 60.568 38.4191 60.568 38.8481C60.568 39.2771 60.2204 39.6249 59.7915 39.6249H57.7611C57.9705 40.313 58.0832 41.0433 58.0832 41.7999C58.0832 45.9184 54.7456 49.2571 50.6286 49.2571C46.5116 49.2571 43.1741 45.9184 43.1741 41.7999C43.1741 41.3581 43.2125 40.9253 43.2861 40.5046C43.2599 39.145 42.2154 38.0713 40.9571 38.0713C39.7964 38.0713 38.8177 38.9848 38.6522 40.1935C38.7657 40.7109 38.8256 41.2484 38.8256 41.7999C38.8256 45.9184 35.4881 49.2571 31.371 49.2571C27.254 49.2571 23.9165 45.9184 23.9165 41.7999C23.9165 41.0433 24.0291 40.313 24.2385 39.6249H22.2082C21.7793 39.6249 21.4316 39.2771 21.4316 38.8481C21.4316 38.4191 21.7793 38.0713 22.2082 38.0713H24.693C24.764 38.0713 24.8327 38.0809 24.898 38.0987C26.183 35.8547 28.6005 34.3428 31.371 34.3428C34.2759 34.3428 36.7926 36.0048 38.0229 38.4302C38.6681 37.4621 39.7417 36.8285 40.9571 36.8285C42.2033 36.8285 43.3005 37.4947 43.9396 38.5045ZM31.371 48.0142C34.8019 48.0142 37.5832 45.232 37.5832 41.7999C37.5832 38.3679 34.8019 35.5856 31.371 35.5856C27.9402 35.5856 25.1589 38.3679 25.1589 41.7999C25.1589 45.232 27.9402 48.0142 31.371 48.0142ZM50.6286 48.0142C54.0595 48.0142 56.8407 45.232 56.8407 41.7999C56.8407 38.3679 54.0595 35.5856 50.6286 35.5856C47.1978 35.5856 44.4165 38.3679 44.4165 41.7999C44.4165 45.232 47.1978 48.0142 50.6286 48.0142Z" fill="#252C2F"/>
</g>
<path d="M4 58C4 78.4345 20.7893 95 41.5 95C62.2107 95 79 78.4345 79 58" stroke="#C6D1DD" stroke-width="2"/>
<path d="M210.25 109.759C238.512 109.759 261.423 86.765 261.423 58.4C261.423 30.035 238.512 7.04102 210.25 7.04102C181.988 7.04102 159.077 30.035 159.077 58.4C159.077 86.765 181.987 109.759 210.25 109.759Z" fill="#F2F9FF"/>
<path fill-rule="evenodd" clip-rule="evenodd" d="M170.125 5.95996H213.563C214.889 5.95996 216.161 6.48675 217.099 7.42443C218.036 8.36211 218.563 9.63388 218.563 10.96V71.51H165.124V10.96C165.124 9.63388 165.651 8.36211 166.588 7.42443C167.526 6.48675 168.798 5.95996 170.124 5.95996H170.125Z" fill="white"/>
<path d="M210.25 5.95996C239.107 5.95996 262.5 29.438 262.5 58.4C262.5 87.362 239.107 110.84 210.25 110.84C181.393 110.84 158 87.362 158 58.4C158 29.438 181.393 5.95996 210.25 5.95996ZM210.789 10.285C184.014 10.285 162.309 32.069 162.309 58.941C162.309 85.813 184.014 107.597 210.789 107.597C237.563 107.597 259.268 85.813 259.268 58.941C259.268 32.069 237.563 10.285 210.788 10.285H210.789Z" fill="url(#paint0_linear)"/>
<path d="M227.758 68.8119H252.188C252.718 68.8119 253.227 68.6012 253.602 68.2262C253.977 67.8511 254.188 67.3424 254.188 66.8119V32.0959C254.188 31.5655 253.977 31.0568 253.602 30.6817C253.227 30.3067 252.718 30.0959 252.188 30.0959H227.758C227.227 30.0959 226.719 30.3067 226.344 30.6817C225.969 31.0568 225.758 31.5655 225.758 32.0959V66.8119C225.758 67.3424 225.969 67.8511 226.344 68.2262C226.719 68.6012 227.227 68.8119 227.758 68.8119Z" fill="#A8B6C6"/>
<path d="M231.635 45.582H248.311C248.841 45.582 249.35 45.3713 249.725 44.9962C250.1 44.6211 250.311 44.1124 250.311 43.582V15.319C250.311 14.7885 250.1 14.2798 249.725 13.9048C249.35 13.5297 248.841 13.319 248.311 13.319H231.635C231.104 13.319 230.596 13.5297 230.221 13.9048C229.845 14.2798 229.635 14.7885 229.635 15.319V43.582C229.635 44.1124 229.845 44.6211 230.221 44.9962C230.596 45.3713 231.104 45.582 231.635 45.582Z" fill="#A8B6C6"/>
<path fill-rule="evenodd" clip-rule="evenodd" d="M247.727 30.096H244.908V15.9H247.728V30.096H247.727ZM243.497 30.096H240.678V18.48H243.498V30.095L243.497 30.096ZM239.268 30.096H236.45V18.48H239.27V30.095L239.268 30.096ZM235.039 30.096H232.22V15.9H235.04V30.096H235.039Z" fill="#EBF3FA"/>
<path d="M239.973 45.582C234.977 45.582 230.927 49.627 230.927 54.616C230.927 59.606 234.977 63.65 239.973 63.65C244.969 63.65 249.019 59.605 249.019 54.616C249.019 49.626 244.969 45.582 239.973 45.582Z" fill="#EBF3FA"/>
<path fill-rule="evenodd" clip-rule="evenodd" d="M264 66.7419C266.122 66.7419 268.157 67.5848 269.657 69.0851C271.157 70.5854 272 72.6202 272 74.7419V79.9919C272 82.1136 271.157 84.1483 269.657 85.6485C268.156 87.1487 266.122 87.9917 264 87.9919H219.75V66.7419H264Z" fill="#EBF3FA"/>
<path d="M221.308 82.3259L223.325 78.8539L225.331 82.2639L227.227 80.8939L224.787 77.8839L228.242 76.8509L227.589 74.7359L224.171 76.2789L224.497 72.4089H222.19L222.456 76.2659L219.11 74.7609L218.36 76.8759L221.912 77.8959L219.412 80.9699L221.308 82.3259ZM232.601 82.3259L234.618 78.8539L236.623 82.2639L238.52 80.8939L236.08 77.8839L239.534 76.8509L238.882 74.7359L235.463 76.2789L235.79 72.4089H233.482L233.748 76.2659L230.402 74.7609L229.653 76.8759L233.205 77.8959L230.705 80.9699L232.601 82.3259ZM243.893 82.3259L245.91 78.8539L247.916 82.2639L249.812 80.8939L247.372 77.8839L250.827 76.8509L250.174 74.7359L246.756 76.2789L247.082 72.4089H244.775L245.041 76.2659L241.695 74.7609L240.945 76.8759L244.497 77.8959L241.997 80.9699L243.893 82.3259ZM256.597 82.3259L258.614 78.8539L260.62 82.2639L262.516 80.8939L260.076 77.8839L263.531 76.8509L262.878 74.7359L259.46 76.2789L259.786 72.4089H257.48L257.746 76.2659L254.4 74.7599L253.65 76.8749L257.202 77.8949L254.702 80.9689L256.598 82.3249L256.597 82.3259Z" fill="#112E51"/>
<path fill-rule="evenodd" clip-rule="evenodd" d="M170.054 6H213.948C215.288 6 216.573 6.42191 217.52 7.17291C218.468 7.92392 219 8.9425 219 10.0046V48H165V10.0046C165 8.9425 165.532 7.92392 166.48 7.17291C167.427 6.42191 168.712 6 170.052 6H170.054Z" fill="white"/>
<path d="M207.354 5.39099V6.57799C207.354 9.85799 204.686 12.516 201.395 12.516H181.135C179.604 12.5172 178.131 11.9289 177.023 10.8731C175.914 9.81734 175.255 8.37518 175.181 6.84599L175.146 5.39099H207.354ZM191.844 47.077C192.828 47.077 193.625 47.877 193.625 48.865C193.625 49.852 192.828 50.653 191.844 50.653C184.63 50.653 178.781 56.523 178.781 63.763C178.781 71.003 184.63 76.873 191.844 76.873C199.058 76.873 204.906 71.003 204.906 63.763C204.906 62.775 205.704 61.975 206.688 61.975C207.671 61.975 208.468 62.775 208.468 63.763C208.468 72.978 201.025 80.448 191.844 80.448C182.662 80.448 175.219 72.978 175.219 63.763C175.219 54.548 182.662 47.077 191.844 47.077Z" fill="#A8B6C6"/>
<path d="M177.978 29.493V28.117H176.563C176.231 28.117 175.744 28.161 175.39 28.206C176.53 27.006 177.636 25.741 177.636 24.554C177.636 23.2 176.696 22.312 175.313 22.312C174.307 22.312 173.654 22.689 172.957 23.432L173.842 24.31C174.196 23.932 174.583 23.588 175.092 23.588C175.7 23.588 176.087 23.965 176.087 24.654C176.087 25.653 174.827 26.863 173.035 28.561V29.493H177.978ZM183.708 29.493V28.173H182.39V22.445H181.196C180.698 22.745 180.211 22.945 179.448 23.089V24.099H180.764V28.172H179.24V29.493H183.708ZM186.992 29.626C188.408 29.626 189.602 28.883 189.602 27.573C189.602 26.663 189.016 26.086 188.209 25.853V25.808C188.961 25.486 189.381 24.976 189.381 24.243C189.381 23.011 188.408 22.312 186.959 22.312C186.096 22.312 185.389 22.656 184.747 23.211L185.565 24.21C186.008 23.821 186.384 23.588 186.881 23.588C187.434 23.588 187.744 23.877 187.744 24.365C187.744 24.931 187.346 25.309 186.085 25.309V26.463C187.611 26.463 187.976 26.851 187.976 27.473C187.976 28.006 187.523 28.306 186.837 28.306C186.24 28.306 185.72 28.006 185.3 27.596L184.548 28.627C185.057 29.227 185.853 29.627 186.992 29.627V29.626ZM197.598 29.493V28.173H196.282V22.445H195.088C194.59 22.745 194.103 22.945 193.34 23.089V24.099H194.656V28.172H193.13V29.493H197.598ZM201.104 29.626C202.597 29.626 203.593 28.783 203.593 27.673C203.593 26.74 203.051 26.197 202.376 25.83V25.786C202.863 25.464 203.294 24.92 203.294 24.243C203.294 23.077 202.442 22.312 201.159 22.312C199.854 22.312 198.914 23.055 198.914 24.254C198.914 24.998 199.313 25.508 199.854 25.919V25.963C199.191 26.319 198.66 26.84 198.66 27.695C198.66 28.838 199.7 29.626 201.104 29.626ZM201.547 25.386C200.827 25.109 200.341 24.831 200.341 24.254C200.341 23.71 200.695 23.444 201.126 23.444C201.657 23.444 201.978 23.81 201.978 24.354C201.978 24.72 201.823 25.064 201.547 25.386ZM201.137 28.494C200.551 28.494 200.054 28.128 200.054 27.506C200.054 27.073 200.286 26.674 200.595 26.386C201.48 26.763 202.077 26.996 202.077 27.617C202.077 28.206 201.679 28.494 201.137 28.494ZM207.143 29.626C208.415 29.626 209.476 28.727 209.476 27.262C209.476 25.775 208.592 25.087 207.386 25.087C206.955 25.087 206.346 25.364 205.982 25.83C206.037 24.187 206.656 23.632 207.43 23.632C207.84 23.632 208.282 23.866 208.525 24.132L209.377 23.155C208.934 22.7 208.26 22.312 207.331 22.312C205.849 22.312 204.488 23.499 204.488 26.13C204.488 28.605 205.782 29.626 207.143 29.626ZM207.11 28.406C206.623 28.406 206.158 28.05 206.015 26.94C206.302 26.44 206.711 26.241 207.076 26.241C207.607 26.241 207.994 26.518 207.994 27.262C207.994 28.062 207.596 28.405 207.11 28.405V28.406ZM188.692 67.783C190.107 67.783 191.302 67.039 191.302 65.729C191.302 64.819 190.716 64.242 189.908 64.009V63.964C190.66 63.642 191.081 63.132 191.081 62.399C191.081 61.167 190.107 60.468 188.659 60.468C187.796 60.468 187.089 60.812 186.447 61.367L187.265 62.366C187.707 61.977 188.083 61.744 188.581 61.744C189.134 61.744 189.444 62.033 189.444 62.521C189.444 63.087 189.046 63.465 187.784 63.465V64.619C189.311 64.619 189.676 65.008 189.676 65.629C189.676 66.162 189.223 66.462 188.536 66.462C187.94 66.462 187.42 66.162 187 65.752L186.248 66.784C186.756 67.384 187.553 67.783 188.692 67.783ZM194.575 67.783C195.947 67.783 197.152 66.883 197.152 65.319C197.152 63.82 196.124 63.132 194.918 63.132C194.631 63.132 194.398 63.176 194.133 63.298L194.255 61.978H196.832V60.6H192.85L192.651 64.163L193.381 64.629C193.801 64.363 194.011 64.274 194.421 64.274C195.073 64.274 195.527 64.652 195.527 65.362C195.527 66.083 195.062 66.461 194.343 66.461C193.746 66.461 193.248 66.15 192.828 65.761L192.098 66.794C192.651 67.349 193.425 67.782 194.575 67.782V67.783Z" fill="#112E51"/>
<path d="M217.376 12.497C218.174 12.623 218.966 12.768 219.751 12.934L219.75 95.346C219.75 99.215 216.689 102.366 212.865 102.493L212.625 102.497L189.225 102.498C187.75 101.779 186.313 100.983 184.921 100.115L212.625 100.113C215.175 100.113 217.256 98.096 217.37 95.564L217.375 95.346L217.376 12.497ZM165.123 43.793V75.39C163.942 72.0124 163.146 68.5122 162.75 64.956V54.228C163.146 50.6714 163.942 47.1709 165.123 43.793ZM165.123 31.95L165.122 32.21C164.262 33.6386 163.471 35.108 162.752 36.613L162.751 36.521C163.466 34.9593 164.258 33.4338 165.123 31.95ZM210.25 5.95997C212.598 5.95997 214.91 6.11497 217.176 6.41597C217.711 6.86297 218.181 7.38597 218.567 7.97097C217.061 7.70015 215.544 7.49595 214.02 7.35897C213.637 7.24201 213.242 7.1738 212.842 7.15597L212.625 7.15097L199.128 7.14997C202.782 6.35661 206.511 5.95766 210.25 5.95997Z" fill="#A8B6C6"/>
<path d="M205.797 60.188C206.07 60.1875 206.341 60.1331 206.593 60.028C206.846 59.9229 207.075 59.7691 207.268 59.5754C207.461 59.3817 207.614 59.1518 207.718 58.899C207.822 58.6462 207.875 58.3754 207.875 58.102C207.875 56.95 206.945 56.016 205.797 56.016C205.523 56.0165 205.253 56.0709 205 56.176C204.748 56.2811 204.519 56.4349 204.326 56.6286C204.133 56.8223 203.98 57.0521 203.876 57.3049C203.772 57.5577 203.718 57.8286 203.719 58.102C203.719 59.254 204.649 60.188 205.797 60.188Z" fill="#A8B6C6"/>
<path d="M212.625 4.76697C216.56 4.76697 219.75 7.96897 219.75 11.918V58.4H217.374L217.375 11.918C217.377 10.6936 216.907 9.5155 216.063 8.62864C215.219 7.74179 214.065 7.21436 212.842 7.15597L212.625 7.15097H169.875C167.252 7.15097 165.125 9.28497 165.125 11.918L165.124 58.4H162.75V11.92C162.75 7.96997 165.94 4.76797 169.875 4.76797H212.625V4.76697Z" fill="#A8B6C6"/>
<path d="M185.906 109.648C189.513 109.648 192.437 106.713 192.437 103.093C192.437 99.473 189.513 96.538 185.906 96.538C182.299 96.538 179.375 99.473 179.375 103.093C179.375 106.713 182.299 109.648 185.906 109.648Z" fill="#A6D5AF"/>
<path d="M219.156 13.11C222.763 13.11 225.687 10.175 225.687 6.555C225.687 2.935 222.763 0 219.156 0C215.549 0 212.625 2.935 212.625 6.555C212.625 10.175 215.549 13.11 219.156 13.11Z" fill="#FCF197"/>
<circle cx="158" cy="56" r="4.25" fill="#EBF3FA" stroke="#C6D1DD" stroke-width="1.5"/>
<circle cx="78" cy="56" r="4.25" fill="#EBF3FA" stroke="#C6D1DD" stroke-width="1.5"/>
<line x1="341" y1="56" x2="261" y2="56" stroke="#C6D1DD" stroke-width="2"/>
<circle cx="341" cy="56" r="4.25" fill="#EBF3FA" stroke="#C6D1DD" stroke-width="1.5"/>
<circle cx="261" cy="56" r="4.25" fill="#EBF3FA" stroke="#C6D1DD" stroke-width="1.5"/>
<defs>
<filter id="filter0_d" x="17.4316" y="32.3428" width="47.1364" height="22.9143" filterUnits="userSpaceOnUse" color-interpolation-filters="sRGB">
<feFlood flood-opacity="0" result="BackgroundImageFix"/>
<feColorMatrix in="SourceAlpha" type="matrix" values="0 0 0 0 0 0 0 0 0 0 0 0 0 0 0 0 0 0 127 0"/>
<feOffset dy="2"/>
<feGaussianBlur stdDeviation="2"/>
<feColorMatrix type="matrix" values="0 0 0 0 0 0 0 0 0 0 0 0 0 0 0 0 0 0 0.1 0"/>
<feBlend mode="normal" in2="BackgroundImageFix" result="effect1_dropShadow"/>
<feBlend mode="normal" in="SourceGraphic" in2="effect1_dropShadow" result="shape"/>
</filter>
<linearGradient id="paint0_linear" x1="227.89" y1="5.95996" x2="105.307" y2="357.778" gradientUnits="userSpaceOnUse">
<stop stop-color="#EBF3FA"/>
<stop offset="1" stop-color="#A8B6C6"/>
</linearGradient>
</defs>
</svg>
