<svg width="416" height="105" viewBox="0 0 416 105" fill="none" xmlns="http://www.w3.org/2000/svg"><path d="M414.687 53c0 20.813-16.873 37.685-37.687 37.685-20.814 0-37.687-16.872-37.687-37.685 0-20.813 16.873-37.685 37.687-37.685 20.814 0 37.687 16.872 37.687 37.685z" fill="#EBF3FA"/><path fill-rule="evenodd" clip-rule="evenodd" d="M338 53c0-21.54 17.462-39 39-39s39 17.46 39 39h-2.627c0-20.086-16.283-36.37-36.373-36.37-20.09 0-36.373 16.284-36.373 36.37H338z" fill="#C6D1DD"/><path d="M344.453 42.842h64.238v29.28a6.57 6.57 0 01-6.566 6.573h-51.106a6.57 6.57 0 01-6.566-6.573v-29.28z" fill="#fff"/><path d="M345.809 29.447a5.256 5.256 0 015.253-5.258h51.876a5.256 5.256 0 015.253 5.258v7.589h-62.382v-7.589z" fill="#EBF3FA"/><path fill-rule="evenodd" clip-rule="evenodd" d="M351.019 21.708c-4.352 0-7.88 3.532-7.88 7.888v37.769a36.625 36.625 0 002.636 5.065 5.243 5.243 0 01-.009-.308V29.596a5.256 5.256 0 015.253-5.258h51.962a5.256 5.256 0 015.253 5.258v42.526c0 .103-.003.205-.009.307a36.629 36.629 0 002.636-5.065V29.596c0-4.356-3.528-7.888-7.88-7.888h-51.962zm50.933 58.301a36.915 36.915 0 002.864-2.959 5.234 5.234 0 01-1.835.33h-51.962a5.24 5.24 0 01-1.836-.33 37.104 37.104 0 002.865 2.96h49.904z" fill="#112E51"/><path d="M366.254 63.299c0 .726.588 1.314 1.314 1.314h18.864c.725 0 1.313-.588 1.313-1.314v-.956c0-.726-.588-1.315-1.313-1.315h-18.864c-.726 0-1.314.589-1.314 1.315v.956zm1.792 5.376c0 .726.588 1.315 1.314 1.315h15.282c.725 0 1.313-.59 1.313-1.315v-.956c0-.726-.588-1.315-1.313-1.315H369.36c-.726 0-1.314.589-1.314 1.315v.956z" fill="#C6D1DD"/><path fill-rule="evenodd" clip-rule="evenodd" d="M376.309 29.015a14.39 14.39 0 011.382 0l-.063 1.313a13.096 13.096 0 00-1.256 0l-.063-1.313zm-2.733.403c.444-.11.897-.2 1.357-.268l.191 1.3c-.417.062-.827.143-1.23.244l-.318-1.276zm5.491-.268c.46.067.913.157 1.357.268l-.318 1.276a12.798 12.798 0 00-1.23-.244l.191-1.3zm-8.092 1.2c.415-.197.841-.374 1.277-.53l.443 1.237c-.395.142-.782.303-1.158.48l-.562-1.187zm10.773-.53c.436.156.862.333 1.277.53l-.562 1.188a12.703 12.703 0 00-1.158-.48l.443-1.238zm-13.141 1.953c.369-.274.753-.531 1.149-.77l.676 1.127c-.359.216-.707.45-1.042.699l-.783-1.056zm15.637-.77c.396.239.78.496 1.149.77l-.783 1.056c-.335-.25-.683-.483-1.042-.699l.676-1.127zm-17.683 2.627c.31-.342.636-.668.978-.978l.882.974c-.31.28-.606.577-.887.887l-.973-.883zm19.9-.978c.342.31.668.636.978.978l-.973.883a12.83 12.83 0 00-.887-.887l.882-.974zm-21.547 3.197c.238-.396.495-.78.77-1.15l1.054.784c-.249.336-.482.684-.698 1.043l-1.126-.677zm23.402-1.15c.275.37.532.754.77 1.15l-1.126.677c-.216-.36-.449-.707-.698-1.043l1.054-.784zm-24.584 3.65c.156-.437.333-.864.53-1.28l1.186.563a12.97 12.97 0 00-.48 1.16l-1.236-.444zm26.006-1.28c.197.416.374.843.53 1.28l-1.236.442a12.948 12.948 0 00-.48-1.158l1.186-.563zm-26.676 3.963c.068-.46.158-.914.269-1.358l1.274.318c-.101.403-.182.814-.243 1.231l-1.3-.191zm27.607-1.358c.111.444.201.897.269 1.358l-1.3.191a12.497 12.497 0 00-.243-1.23l1.274-.32zM362.912 43.1c0-.232.005-.463.016-.692l1.312.064a13.086 13.086 0 000 1.256l-1.312.063a14.43 14.43 0 01-.016-.691zm28.16-.692a14.43 14.43 0 010 1.383l-1.312-.063a13.09 13.09 0 000-1.256l1.312-.064zm-27.741 4.12a14.152 14.152 0 01-.269-1.359l1.3-.191c.061.417.142.828.243 1.23l-1.274.32zm27.607-1.359c-.068.46-.158.913-.269 1.358l-1.274-.318c.101-.403.182-.814.243-1.231l1.3.191zm-26.676 3.962a13.898 13.898 0 01-.53-1.279l1.236-.443c.142.396.302.783.48 1.16l-1.186.562zm26.006-1.279c-.156.437-.333.864-.53 1.279l-1.186-.563c.178-.377.338-.763.48-1.159l1.236.443zm-24.584 3.65a14.13 14.13 0 01-.77-1.15l1.126-.678c.216.36.449.708.698 1.043l-1.054.784zm23.402-1.15c-.238.396-.495.78-.77 1.15l-1.054-.785c.249-.335.482-.683.698-1.043l1.126.677zm-21.547 3.197c-.342-.31-.668-.637-.978-.979l.973-.883c.281.31.577.607.887.888l-.882.974zm19.9-.979c-.31.342-.636.669-.978.979l-.882-.974c.31-.281.606-.578.887-.888l.973.883zm-17.683 2.627c-.396-.238-.78-.495-1.149-.77l.783-1.055c.335.25.683.482 1.042.698l-.676 1.127zm15.637-.77c-.369.275-.753.532-1.149.77l-.676-1.127c.359-.216.707-.449 1.042-.698l.783 1.055zm-13.141 1.954a14.029 14.029 0 01-1.277-.53l.562-1.188c.376.178.763.339 1.158.48l-.443 1.238zm10.773-.53c-.415.197-.841.374-1.277.53l-.443-1.238c.395-.141.782-.302 1.158-.48l.562 1.188zm-8.092 1.2c-.46-.068-.913-.157-1.357-.269l.318-1.275c.403.1.813.182 1.23.243l-.191 1.301zm5.491-.269c-.444.111-.897.201-1.357.27l-.191-1.301c.417-.062.827-.143 1.23-.244l.318 1.275zm-3.424.42c-.232 0-.462-.006-.691-.017l.063-1.313a12.967 12.967 0 001.256 0l.063 1.313a14.26 14.26 0 01-.691.017z" fill="#112E51"/><path d="M388.641 43.101c0 6.436-5.212 11.653-11.641 11.653s-11.641-5.217-11.641-11.653c0-6.435 5.212-11.652 11.641-11.652s11.641 5.217 11.641 11.652z" fill="#112E51"/><path d="M376.136 35.564l-1.968 3.94-4.401.634c-.789.113-1.106 1.074-.533 1.625l3.184 3.065-.753 4.33c-.136.782.699 1.368 1.398 1.002L377 48.116l3.938 2.044c.699.363 1.534-.22 1.398-1.003l-.753-4.33 3.184-3.064c.573-.55.256-1.512-.533-1.625l-4.402-.634-1.967-3.94c-.352-.702-1.374-.71-1.729 0z" fill="#fff"/><path fill-rule="evenodd" clip-rule="evenodd" d="M377 92c-21.538 0-39-17.46-39-39h2.627c0 20.086 16.283 36.37 36.373 36.37 20.09 0 36.373-16.284 36.373-36.37H416c0 21.54-17.462 39-39 39z" fill="#C6D1DD"/><path stroke="#C6D1DD" stroke-width="2" d="M338 53h-80"/><circle cx="338" cy="53" r="4.25" fill="#EBF3FA" stroke="#C6D1DD" stroke-width="1.5"/><path d="M210.47 103.898c28.262 0 51.173-22.994 51.173-51.359 0-28.365-22.911-51.359-51.173-51.359s-51.173 22.994-51.173 51.36c0 28.364 22.91 51.358 51.173 51.358z" fill="#F2F9FF"/><mask id="a" maskUnits="userSpaceOnUse" x="3" y="17" width="76" height="76"><path d="M40.815 92.428c20.609 0 37.316-16.885 37.316-37.714C78.131 33.885 61.424 17 40.815 17 20.205 17 3.499 33.885 3.499 54.714c0 20.83 16.707 37.714 37.316 37.714z" fill="#fff"/></mask><g mask="url(#a)"><path d="M40.815 92.428c20.609 0 37.316-16.885 37.316-37.714C78.131 33.885 61.424 17 40.815 17 20.205 17 3.499 33.885 3.499 54.714c0 20.83 16.707 37.714 37.316 37.714z" fill="#CEDCED"/><path d="M78.131 17H3.5v75.428h74.63V17z" fill="#EBF3FA"/></g><path d="M78 55c0-20.434-16.79-37-37.5-37S3 34.566 3 55" stroke="#C6D1DD" stroke-width="2"/><mask id="b" maskUnits="userSpaceOnUse" x="0" y="13" width="82" height="79"><path d="M3.71 58.143C3.71 76.842 20.323 92 40.815 92c20.492 0 37.104-15.158 37.104-33.857h3.71V13H0v45.143h3.71z" fill="#fff"/></mask><g mask="url(#b)"><mask id="c" maskUnits="userSpaceOnUse" x="9" y="18" width="63" height="76"><path d="M48.236 63.118v5.714h1.236c12.296 0 22.263 10.016 22.263 22.371V94H9.895v-2.797c0-12.355 9.967-22.371 22.262-22.371h1.237v-5.714a17.409 17.409 0 01-9.8-13.898 3.724 3.724 0 01-3.187-3.692v-4.35a3.724 3.724 0 013.093-3.677v-1.915c0-9.61 7.752-17.4 17.315-17.4 9.563 0 17.315 7.79 17.315 17.4V37.5a3.724 3.724 0 013.092 3.677v4.35a3.724 3.724 0 01-3.186 3.692 17.409 17.409 0 01-9.8 13.898z" fill="#fff"/></mask><g mask="url(#c)"><path d="M48.236 63.118v5.714h1.236c12.296 0 22.263 10.016 22.263 22.371V94H9.895v-2.797c0-12.355 9.967-22.371 22.262-22.371h1.237v-5.714a17.409 17.409 0 01-9.8-13.898 3.724 3.724 0 01-3.187-3.692v-4.35a3.724 3.724 0 013.093-3.677v-1.915c0-9.61 7.752-17.4 17.315-17.4 9.563 0 17.315 7.79 17.315 17.4V37.5a3.724 3.724 0 013.092 3.677v4.35a3.724 3.724 0 01-3.186 3.692 17.409 17.409 0 01-9.8 13.898z" fill="#D0C6AC"/><path d="M81.63 18.186H0V94h81.63V18.186z" fill="#FFDBB4"/><path fill-rule="evenodd" clip-rule="evenodd" d="M58.13 42.733v7.146c0 9.61-7.752 17.4-17.315 17.4-9.563 0-17.315-7.79-17.315-17.4v-7.146 4.66c0 9.61 7.752 17.4 17.315 17.4 9.563 0 17.315-7.79 17.315-17.4v-4.66z" fill="#000" fill-opacity=".1"/></g><mask id="d" maskUnits="userSpaceOnUse" x="9" y="68" width="63" height="27"><path fill-rule="evenodd" clip-rule="evenodd" d="M51.316 68.924c11.433.942 20.42 10.564 20.42 22.296V94H9.894v-2.78c0-11.838 9.15-21.528 20.73-22.32a4.39 4.39 0 00-.014.351c0 3.686 4.638 6.674 10.358 6.674 5.721 0 10.359-2.988 10.359-6.674 0-.11-.004-.219-.013-.327z" fill="#fff"/></mask><g mask="url(#d)"><path fill-rule="evenodd" clip-rule="evenodd" d="M51.316 68.924c11.433.942 20.42 10.564 20.42 22.296V94H9.894v-2.78c0-11.838 9.15-21.528 20.73-22.32a4.39 4.39 0 00-.014.351c0 3.686 4.638 6.674 10.358 6.674 5.721 0 10.359-2.988 10.359-6.674 0-.11-.004-.219-.013-.327z" fill="#E6E6E6"/><path d="M81.63 59.822H0V94h81.63V59.822z" fill="#fff"/><path opacity=".6" d="M40.97 78.08c6.768 0 12.255-3.745 12.255-8.363 0-4.619-5.487-8.363-12.255-8.363-6.769 0-12.256 3.744-12.256 8.363 0 4.618 5.487 8.362 12.256 8.362z" fill="#000" fill-opacity=".16"/></g><path d="M36.486 53.607c0 1.67 1.904 2.797 4.329 2.797 2.424 0 4.329-1.128 4.329-2.797a.63.63 0 00-.619-.621c-.4 0-.578.281-.618.621-.384.913-1.335 1.466-3.092 1.554-1.758-.088-2.708-.641-3.092-1.554-.04-.34-.219-.621-.619-.621a.631.631 0 00-.618.621z" fill="#000" fill-opacity=".6"/><path fill-rule="evenodd" clip-rule="evenodd" d="M37.105 47.393c0 1.372 1.66 2.485 3.71 2.485s3.71-1.113 3.71-2.485" fill="#000" fill-opacity=".16"/><path d="M32.776 43.664A1.86 1.86 0 0034.63 41.8a1.86 1.86 0 00-1.855-1.864A1.86 1.86 0 0030.92 41.8a1.86 1.86 0 001.856 1.864zm16.078 0A1.86 1.86 0 0050.71 41.8a1.86 1.86 0 00-1.855-1.864A1.86 1.86 0 0047 41.8c0 1.03.83 1.864 1.855 1.864z" fill="#000" fill-opacity=".6"/><path fill-rule="evenodd" clip-rule="evenodd" d="M31.708 34.389c-1.796.083-4.698 1.394-4.624 3.214.003.06.09.086.132.04.852-.92 6.9-1.849 9.03-1.357.196.046.344-.148.22-.287-1.058-1.196-3.15-1.686-4.758-1.61zm18.522 0c1.796.083 4.699 1.394 4.624 3.214-.002.06-.09.086-.132.04-.852-.92-6.9-1.849-9.03-1.357-.195.046-.343-.148-.22-.287 1.058-1.196 3.15-1.686 4.759-1.61z" fill="#000" fill-opacity=".6"/><mask id="e" maskUnits="userSpaceOnUse" x="0" y="7" width="82" height="87"><path d="M81.63 7H0v87h81.63V7z" fill="#fff"/></mask><g mask="url(#e)"><path fill-rule="evenodd" clip-rule="evenodd" d="M21.036 30.68c4-10.28 8.229-15.42 12.685-15.42.167 0 9.045-.073 14.859-.111 6.386 2.908 10.787 9.034 10.787 16.122v4.625H33.721l-.867-7.202-1.2 7.202H21.026v-4.625c0-.198.003-.395.01-.59z" fill="#000" fill-opacity=".16"/><mask id="f" maskUnits="userSpaceOnUse" x="12" y="13" width="58" height="55"><path fill-rule="evenodd" clip-rule="evenodd" d="M58.086 34.343c.03.41.044.824.044 1.242v11.807a17.408 17.408 0 01-9.895 15.726v2.705c5.611.466 11.046 1.249 14.224 2.077 3.077-4.214 7.076-8.141 7.111-15.847.027-5.899-8.557-29.695-12.368-34.49-2.516-3.165-8.872-4.21-16.387-4.35-7.516-.139-13.63 1.713-16.079 4.662-3.303 3.975-12.704 28.28-12.677 34.178.035 7.706 4.034 11.633 7.111 15.847 3.179-.828 8.613-1.611 14.224-2.077v-2.705a17.408 17.408 0 01-9.895-15.726V35.585c0-.418.015-.832.044-1.242h8.73l1.199-6.663.867 6.663h23.747z" fill="#fff"/></mask><g mask="url(#f)"><path fill-rule="evenodd" clip-rule="evenodd" d="M58.086 34.343c.03.41.044.824.044 1.242v11.807a17.408 17.408 0 01-9.895 15.726v2.705c5.611.466 11.046 1.249 14.224 2.077 3.077-4.214 7.076-8.141 7.111-15.847.027-5.899-8.557-29.695-12.368-34.49-2.516-3.165-8.872-4.21-16.387-4.35-7.516-.139-13.63 1.713-16.079 4.662-3.303 3.975-12.704 28.28-12.677 34.178.035 7.706 4.034 11.633 7.111 15.847 3.179-.828 8.613-1.611 14.224-2.077v-2.705a17.408 17.408 0 01-9.895-15.726V35.585c0-.418.015-.832.044-1.242h8.73l1.199-6.663.867 6.663h23.747z" fill="#E6E6E6"/><path d="M93.688 12.904h-81.63v87h81.63v-87z" fill="#E2623A"/></g></g></g><path d="M3 55c0 20.434 16.79 37 37.5 37S78 75.434 78 55" stroke="#C6D1DD" stroke-width="2"/><path d="M265.963 21H172c-2.23 0-5 1.976-5 4.414v55.172c0 2.438 2.77 4.414 5 4.414h93.963c2.23 0 4.037-1.976 4.037-4.414V25.414c0-2.438-1.807-4.414-4.037-4.414z" fill="#C9CFD7"/><path d="M197.833 29H166.5c-1.197 0-5.5 17.284-5.5 18.5l.5 13.5 3 13.5c0 1.216 1.303 2.5 2.5 2.5h30.833c1.197 0 2.167-.986 2.167-2.202V31.202c0-1.216-.97-2.202-2.167-2.202z" fill="#EBF3FA"/><mask id="g" maskUnits="userSpaceOnUse" x="164" y="37" width="33" height="40"><path d="M184.459 61.027v2.955h.64c6.359 0 11.515 5.18 11.515 11.572V77h-31.987v-1.447c0-6.39 5.156-11.57 11.516-11.57h.639v-2.956a9.007 9.007 0 01-5.069-7.189 1.926 1.926 0 01-1.648-1.91v-2.25c0-.955.692-1.748 1.599-1.901v-.991c0-4.97 4.01-9 8.957-9 4.946 0 8.956 4.03 8.956 9v.99a1.926 1.926 0 011.599 1.902v2.25c0 .973-.716 1.778-1.648 1.91a9.003 9.003 0 01-5.069 7.189z" fill="#fff"/></mask><g mask="url(#g)"><path d="M184.459 61.027v2.955h.64c6.359 0 11.515 5.18 11.515 11.572V77h-31.987v-1.447c0-6.39 5.156-11.57 11.516-11.57h.639v-2.956a9.007 9.007 0 01-5.069-7.189 1.926 1.926 0 01-1.648-1.91v-2.25c0-.955.692-1.748 1.599-1.901v-.991c0-4.97 4.01-9 8.957-9 4.946 0 8.956 4.03 8.956 9v.99a1.926 1.926 0 011.599 1.902v2.25c0 .973-.716 1.778-1.648 1.91a9.003 9.003 0 01-5.069 7.189z" fill="#D0C6AC"/><path d="M201.731 37.786h-42.222V77h42.222V37.786z" fill="#E4E4E4"/><path fill-rule="evenodd" clip-rule="evenodd" d="M189.577 50.482v3.697c0 4.97-4.01 9-8.956 9-4.947 0-8.956-4.03-8.956-9v-3.697 2.41c0 4.971 4.009 9 8.956 9 4.946 0 8.956-4.029 8.956-9v-2.41z" fill="#000" fill-opacity=".1"/></g><mask id="h" maskUnits="userSpaceOnUse" x="164" y="64" width="33" height="13"><path fill-rule="evenodd" clip-rule="evenodd" d="M186.052 64.03c5.914.486 10.562 5.464 10.562 11.532V77h-31.987v-1.438c0-6.123 4.733-11.135 10.723-11.544-.005.06-.007.12-.007.18 0 1.907 2.399 3.453 5.358 3.453 2.959 0 5.357-1.546 5.357-3.452 0-.057-.002-.113-.006-.17z" fill="#fff"/></mask><g mask="url(#h)"><path fill-rule="evenodd" clip-rule="evenodd" d="M186.052 64.03c5.914.486 10.562 5.464 10.562 11.532V77h-31.987v-1.438c0-6.123 4.733-11.135 10.723-11.544-.005.06-.007.12-.007.18 0 1.907 2.399 3.453 5.358 3.453 2.959 0 5.357-1.546 5.357-3.452 0-.057-.002-.113-.006-.17z" fill="#E6E6E6"/><path d="M201.731 59.321h-42.222V77h42.222V59.321z" fill="#fff"/><path opacity=".6" d="M180.701 68.765c3.501 0 6.339-1.936 6.339-4.325 0-2.39-2.838-4.326-6.339-4.326-3.501 0-6.339 1.937-6.339 4.326 0 2.389 2.838 4.325 6.339 4.325z" fill="#000" fill-opacity=".16"/></g><path d="M178.381 56.107c0 .863.985 1.447 2.239 1.447 1.255 0 2.239-.584 2.239-1.447a.326.326 0 00-.319-.321c-.207 0-.299.145-.32.321-.199.472-.691.758-1.6.804-.909-.046-1.4-.332-1.599-.804-.021-.176-.113-.321-.32-.321a.327.327 0 00-.32.321z" fill="#000" fill-opacity=".6"/><path fill-rule="evenodd" clip-rule="evenodd" d="M178.701 52.893c0 .71.859 1.285 1.919 1.285s1.92-.575 1.92-1.285" fill="#000" fill-opacity=".16"/><path d="M176.462 50.964c.53 0 .96-.431.96-.964a.962.962 0 00-.96-.964c-.53 0-.96.431-.96.964 0 .532.43.964.96.964zm8.316 0c.53 0 .96-.431.96-.964a.962.962 0 00-.96-.964.961.961 0 00-.959.964c0 .532.429.964.959.964z" fill="#000" fill-opacity=".6"/><path fill-rule="evenodd" clip-rule="evenodd" d="M175.91 46.167c-.929.043-2.431.721-2.392 1.662.001.031.046.044.068.02.441-.475 3.569-.955 4.671-.7.101.023.178-.077.114-.15-.547-.618-1.629-.872-2.461-.832zm9.58 0c.929.043 2.43.721 2.392 1.662-.001.031-.047.044-.069.02-.44-.475-3.568-.955-4.67-.7-.101.023-.178-.077-.114-.15.547-.618 1.629-.872 2.461-.832z" fill="#000" fill-opacity=".6"/><mask id="i" maskUnits="userSpaceOnUse" x="159" y="32" width="43" height="45"><path d="M201.731 32h-42.222v45h42.222V32z" fill="#fff"/></mask><g mask="url(#i)"><path fill-rule="evenodd" clip-rule="evenodd" d="M170.39 44.248c2.069-5.317 4.256-7.975 6.561-7.975.086 0 4.679-.039 7.686-.058 3.303 1.504 5.579 4.673 5.579 8.339v2.392h-13.265l-.448-3.725-.621 3.725h-5.497v-2.392c0-.102.002-.204.005-.306z" fill="#000" fill-opacity=".16"/><mask id="j" maskUnits="userSpaceOnUse" x="165" y="35" width="31" height="29"><path fill-rule="evenodd" clip-rule="evenodd" d="M189.554 46.143a9.1 9.1 0 01.023.643v6.107c0 3.59-2.092 6.69-5.118 8.134v1.399c2.902.24 5.713.646 7.357 1.074 1.591-2.18 3.66-4.21 3.678-8.197.014-3.05-4.426-15.36-6.397-17.839-1.302-1.637-4.589-2.178-8.477-2.25-3.887-.072-7.049.886-8.316 2.411-1.708 2.056-6.571 14.627-6.557 17.678.018 3.986 2.086 6.018 3.678 8.197 1.644-.428 4.455-.833 7.357-1.074v-1.4a9.004 9.004 0 01-5.118-8.133v-6.107c0-.217.008-.43.023-.643h4.515l.62-3.447.449 3.447h12.283z" fill="#fff"/></mask><g mask="url(#j)"><path fill-rule="evenodd" clip-rule="evenodd" d="M189.554 46.143a9.1 9.1 0 01.023.643v6.107c0 3.59-2.092 6.69-5.118 8.134v1.399c2.902.24 5.713.646 7.357 1.074 1.591-2.18 3.66-4.21 3.678-8.197.014-3.05-4.426-15.36-6.397-17.839-1.302-1.637-4.589-2.178-8.477-2.25-3.887-.072-7.049.886-8.316 2.411-1.708 2.056-6.571 14.627-6.557 17.678.018 3.986 2.086 6.018 3.678 8.197 1.644-.428 4.455-.833 7.357-1.074v-1.4a9.004 9.004 0 01-5.118-8.133v-6.107c0-.217.008-.43.023-.643h4.515l.62-3.447.449 3.447h12.283z" fill="#E6E6E6"/><path d="M207.969 35.054h-42.222v45h42.222v-45z" fill="#A3A3A3"/></g></g><path d="M210.47.1c28.857 0 52.25 23.477 52.25 52.44 0 28.961-23.393 52.439-52.25 52.439s-52.25-23.478-52.25-52.44C158.22 23.577 181.613.1 210.47.1zm.539 4.324c-26.775 0-48.48 21.784-48.48 48.656s21.705 48.656 48.48 48.656c26.774 0 48.479-21.784 48.479-48.656s-21.705-48.656-48.48-48.656h.001z" fill="url(#paint0_linear)"/><path stroke="#C6D1DD" stroke-width="2" d="M158 53H78"/><circle cx="158" cy="53" r="4.25" fill="#EBF3FA" stroke="#C6D1DD" stroke-width="1.5"/><circle cx="78" cy="53" r="4.25" fill="#EBF3FA" stroke="#C6D1DD" stroke-width="1.5"/><mask id="k" maskUnits="userSpaceOnUse" x="3" y="17" width="76" height="76"><path d="M40.815 92.428c20.609 0 37.316-16.885 37.316-37.714C78.131 33.885 61.424 17 40.815 17 20.205 17 3.499 33.885 3.499 54.714c0 20.83 16.707 37.714 37.316 37.714z" fill="#fff"/></mask><g mask="url(#k)"><path d="M40.815 92.428c20.609 0 37.316-16.885 37.316-37.714C78.131 33.885 61.424 17 40.815 17 20.205 17 3.499 33.885 3.499 54.714c0 20.83 16.707 37.714 37.316 37.714z" fill="#CEDCED"/><path d="M78.131 17H3.5v75.428h74.63V17z" fill="#EBF3FA"/></g><path d="M78 55c0-20.434-16.79-37-37.5-37S3 34.566 3 55" stroke="#C6D1DD" stroke-width="2"/><mask id="l" maskUnits="userSpaceOnUse" x="0" y="13" width="82" height="79"><path d="M3.71 58.143C3.71 76.842 20.323 92 40.815 92c20.492 0 37.104-15.158 37.104-33.857h3.71V13H0v45.143h3.71z" fill="#fff"/></mask><g mask="url(#l)"><mask id="m" maskUnits="userSpaceOnUse" x="9" y="18" width="63" height="76"><path d="M48.236 63.118v5.714h1.236c12.296 0 22.263 10.016 22.263 22.371V94H9.895v-2.797c0-12.355 9.967-22.371 22.262-22.371h1.237v-5.714a17.409 17.409 0 01-9.8-13.898 3.724 3.724 0 01-3.187-3.692v-4.35a3.724 3.724 0 013.093-3.677v-1.915c0-9.61 7.752-17.4 17.315-17.4 9.563 0 17.315 7.79 17.315 17.4V37.5a3.724 3.724 0 013.092 3.677v4.35a3.724 3.724 0 01-3.186 3.692 17.409 17.409 0 01-9.8 13.898z" fill="#fff"/></mask><g mask="url(#m)"><path d="M48.236 63.118v5.714h1.236c12.296 0 22.263 10.016 22.263 22.371V94H9.895v-2.797c0-12.355 9.967-22.371 22.262-22.371h1.237v-5.714a17.409 17.409 0 01-9.8-13.898 3.724 3.724 0 01-3.187-3.692v-4.35a3.724 3.724 0 013.093-3.677v-1.915c0-9.61 7.752-17.4 17.315-17.4 9.563 0 17.315 7.79 17.315 17.4V37.5a3.724 3.724 0 013.092 3.677v4.35a3.724 3.724 0 01-3.186 3.692 17.409 17.409 0 01-9.8 13.898z" fill="#D0C6AC"/><path d="M81.63 18.186H0V94h81.63V18.186z" fill="#FFDBB4"/><path fill-rule="evenodd" clip-rule="evenodd" d="M58.13 42.733v7.146c0 9.61-7.752 17.4-17.315 17.4-9.563 0-17.315-7.79-17.315-17.4v-7.146 4.66c0 9.61 7.752 17.4 17.315 17.4 9.563 0 17.315-7.79 17.315-17.4v-4.66z" fill="#000" fill-opacity=".1"/></g><mask id="n" maskUnits="userSpaceOnUse" x="9" y="68" width="63" height="27"><path fill-rule="evenodd" clip-rule="evenodd" d="M51.316 68.924c11.433.942 20.42 10.564 20.42 22.296V94H9.894v-2.78c0-11.838 9.15-21.528 20.73-22.32a4.39 4.39 0 00-.014.351c0 3.686 4.638 6.674 10.358 6.674 5.721 0 10.359-2.988 10.359-6.674 0-.11-.004-.219-.013-.327z" fill="#fff"/></mask><g mask="url(#n)"><path fill-rule="evenodd" clip-rule="evenodd" d="M51.316 68.924c11.433.942 20.42 10.564 20.42 22.296V94H9.894v-2.78c0-11.838 9.15-21.528 20.73-22.32a4.39 4.39 0 00-.014.351c0 3.686 4.638 6.674 10.358 6.674 5.721 0 10.359-2.988 10.359-6.674 0-.11-.004-.219-.013-.327z" fill="#E6E6E6"/><path d="M81.63 59.822H0V94h81.63V59.822z" fill="#fff"/><path opacity=".6" d="M40.97 78.08c6.768 0 12.255-3.745 12.255-8.363 0-4.619-5.487-8.363-12.255-8.363-6.769 0-12.256 3.744-12.256 8.363 0 4.618 5.487 8.362 12.256 8.362z" fill="#000" fill-opacity=".16"/></g><path d="M36.486 53.607c0 1.67 1.904 2.797 4.329 2.797 2.424 0 4.329-1.128 4.329-2.797a.63.63 0 00-.619-.621c-.4 0-.578.281-.618.621-.384.913-1.335 1.466-3.092 1.554-1.758-.088-2.708-.641-3.092-1.554-.04-.34-.219-.621-.619-.621a.631.631 0 00-.618.621z" fill="#000" fill-opacity=".6"/><path fill-rule="evenodd" clip-rule="evenodd" d="M37.105 47.393c0 1.372 1.66 2.485 3.71 2.485s3.71-1.113 3.71-2.485" fill="#000" fill-opacity=".16"/><path d="M32.776 43.664A1.86 1.86 0 0034.63 41.8a1.86 1.86 0 00-1.855-1.864A1.86 1.86 0 0030.92 41.8a1.86 1.86 0 001.856 1.864zm16.078 0A1.86 1.86 0 0050.71 41.8a1.86 1.86 0 00-1.855-1.864A1.86 1.86 0 0047 41.8c0 1.03.83 1.864 1.855 1.864z" fill="#000" fill-opacity=".6"/><path fill-rule="evenodd" clip-rule="evenodd" d="M31.708 34.389c-1.796.083-4.698 1.394-4.624 3.214.003.06.09.086.132.04.852-.92 6.9-1.849 9.03-1.357.196.046.344-.148.22-.287-1.058-1.196-3.15-1.686-4.758-1.61zm18.522 0c1.796.083 4.699 1.394 4.624 3.214-.002.06-.09.086-.132.04-.852-.92-6.9-1.849-9.03-1.357-.195.046-.343-.148-.22-.287 1.058-1.196 3.15-1.686 4.759-1.61z" fill="#000" fill-opacity=".6"/><mask id="o" maskUnits="userSpaceOnUse" x="0" y="7" width="82" height="87"><path d="M81.63 7H0v87h81.63V7z" fill="#fff"/></mask><g mask="url(#o)"><path fill-rule="evenodd" clip-rule="evenodd" d="M21.036 30.68c4-10.28 8.229-15.42 12.685-15.42.167 0 9.045-.073 14.859-.111 6.386 2.908 10.787 9.034 10.787 16.122v4.625H33.721l-.867-7.202-1.2 7.202H21.026v-4.625c0-.198.003-.395.01-.59z" fill="#000" fill-opacity=".16"/><mask id="p" maskUnits="userSpaceOnUse" x="12" y="13" width="58" height="55"><path fill-rule="evenodd" clip-rule="evenodd" d="M58.086 34.343c.03.41.044.824.044 1.242v11.807a17.408 17.408 0 01-9.895 15.726v2.705c5.611.466 11.046 1.249 14.224 2.077 3.077-4.214 7.076-8.141 7.111-15.847.027-5.899-8.557-29.695-12.368-34.49-2.516-3.165-8.872-4.21-16.387-4.35-7.516-.139-13.63 1.713-16.079 4.662-3.303 3.975-12.704 28.28-12.677 34.178.035 7.706 4.034 11.633 7.111 15.847 3.179-.828 8.613-1.611 14.224-2.077v-2.705a17.408 17.408 0 01-9.895-15.726V35.585c0-.418.015-.832.044-1.242h8.73l1.199-6.663.867 6.663h23.747z" fill="#fff"/></mask><g mask="url(#p)"><path fill-rule="evenodd" clip-rule="evenodd" d="M58.086 34.343c.03.41.044.824.044 1.242v11.807a17.408 17.408 0 01-9.895 15.726v2.705c5.611.466 11.046 1.249 14.224 2.077 3.077-4.214 7.076-8.141 7.111-15.847.027-5.899-8.557-29.695-12.368-34.49-2.516-3.165-8.872-4.21-16.387-4.35-7.516-.139-13.63 1.713-16.079 4.662-3.303 3.975-12.704 28.28-12.677 34.178.035 7.706 4.034 11.633 7.111 15.847 3.179-.828 8.613-1.611 14.224-2.077v-2.705a17.408 17.408 0 01-9.895-15.726V35.585c0-.418.015-.832.044-1.242h8.73l1.199-6.663.867 6.663h23.747z" fill="#E6E6E6"/><path d="M93.688 12.904h-81.63v87h81.63v-87z" fill="#E2623A"/></g></g></g><path d="M3 55c0 20.434 16.79 37 37.5 37S78 75.434 78 55m80-2H78" stroke="#C6D1DD" stroke-width="2"/><circle cx="158" cy="53" r="4.25" fill="#EBF3FA" stroke="#C6D1DD" stroke-width="1.5"/><circle cx="78" cy="53" r="4.25" fill="#EBF3FA" stroke="#C6D1DD" stroke-width="1.5"/><path d="M267.256 21h-63.858c-1.515 0-3.398 1.976-3.398 4.414v55.172c0 2.438 1.883 4.414 3.398 4.414h63.858c1.516 0 2.744-1.976 2.744-4.414V25.414c0-2.438-1.228-4.414-2.744-4.414z" fill="#C9CFD7"/><path d="M261.436 29.291h-51.684c-.968 0-1.752.786-1.752 1.755v4.386c0 .97.784 1.755 1.752 1.755h51.684c.968 0 1.752-.786 1.752-1.755v-4.386c0-.97-.784-1.755-1.752-1.755zM232.09 41.573h-22.776c-.726 0-1.314.59-1.314 1.316v1.755c0 .727.588 1.316 1.314 1.316h22.776c.726 0 1.314-.59 1.314-1.316v-1.755c0-.727-.588-1.316-1.314-1.316zm8.76 8.773h-31.536c-.726 0-1.314.59-1.314 1.316v1.755c0 .727.588 1.316 1.314 1.316h31.536c.726 0 1.314-.59 1.314-1.316v-1.755c0-.726-.588-1.316-1.314-1.316zm-4.38 8.774h-27.156c-.726 0-1.314.589-1.314 1.316v1.754c0 .727.588 1.316 1.314 1.316h27.156c.726 0 1.314-.589 1.314-1.316v-1.754c0-.727-.588-1.316-1.314-1.316zm24.529-1.755h-13.141c-1.209 0-2.19.982-2.19 2.193v15.353c0 1.211.981 2.193 2.19 2.193h13.141c1.209 0 2.19-.982 2.19-2.193V59.558a2.192 2.192 0 00-2.19-2.193zm.876-15.792h-22.776c-.726 0-1.314.59-1.314 1.316v1.755c0 .727.588 1.316 1.314 1.316h22.776c.726 0 1.314-.59 1.314-1.316v-1.755c0-.727-.588-1.316-1.314-1.316zm-42.487 26.319h-10.074c-.726 0-1.314.59-1.314 1.316v1.755c0 .727.588 1.316 1.314 1.316h10.074c.726 0 1.314-.59 1.314-1.316v-1.755c0-.726-.588-1.316-1.314-1.316zm17.083 0h-10.074c-.726 0-1.314.59-1.314 1.316v1.755c0 .727.588 1.316 1.314 1.316h10.074c.725 0 1.314-.59 1.314-1.316v-1.755c0-.726-.589-1.316-1.314-1.316z" fill="#A1ABB7"/><path d="M171.531 26.11c3.607 0 6.531-2.935 6.531-6.555 0-3.62-2.924-6.555-6.531-6.555-3.607 0-6.531 2.935-6.531 6.555 0 3.62 2.924 6.555 6.531 6.555z" fill="#FCF197"/><path d="M250.888 96.815c7.118 0 12.888-5.78 12.888-12.908 0-7.128-5.77-12.907-12.888-12.907S238 76.779 238 83.907c0 7.129 5.77 12.908 12.888 12.908z" fill="#fff"/><path d="M263.776 83.907c0 7.129-5.77 12.906-12.888 12.906S238 91.036 238 83.907C238 76.777 243.77 71 250.888 71s12.888 5.778 12.888 12.907zm-14.379 6.834l9.563-9.576a.836.836 0 000-1.179l-1.176-1.177a.832.832 0 00-1.176 0l-7.798 7.81-3.641-3.647a.832.832 0 00-1.176 0l-1.176 1.18a.833.833 0 000 1.176l5.404 5.413a.832.832 0 001.176 0z" fill="#63BB60"/><defs><linearGradient id="paint0_linear" x1="228.11" y1=".099" x2="105.527" y2="351.917" gradientUnits="userSpaceOnUse"><stop stop-color="#EBF3FA"/><stop offset="1" stop-color="#A8B6C6"/></linearGradient></defs></svg>