<svg width="735" height="497" xmlns="http://www.w3.org/2000/svg"><g fill="none"><path d="M377 130c0 .338-.017.671-.05 1h99.1a10.12 10.12 0 010-2h-99.1c.033.329.05.662.05 1zM366 20.95v99.1a10.12 10.12 0 012 0v-99.1a10.12 10.12 0 01-2 0zm119 0v99.1a10.12 10.12 0 012 0v-99.1a10.12 10.12 0 01-2 0zM376.95 10a10.119 10.119 0 010 2h99.1a10.12 10.12 0 010-2h-99.1zM139 130c0 .338-.017.671-.05 1h99.1a10.12 10.12 0 010-2h-99.1c.033.329.05.662.05 1zM128 20.95v99.1a10.12 10.12 0 012 0v-99.1a10.12 10.12 0 01-2 0zm119 0v99.1a10.12 10.12 0 012 0v-99.1a10.12 10.12 0 01-2 0zM138.95 10a10.119 10.119 0 010 2h99.1a10.12 10.12 0 010-2h-99.1zm99.1 357h-99.1a10.12 10.12 0 010 2h99.1a10.12 10.12 0 010-2zM247 258.95v99.1a10.12 10.12 0 012 0v-99.1a10.119 10.119 0 01-2 0zm-119.001 0v99.1a10.12 10.12 0 012.001 0v-99.1a10.12 10.12 0 01-2.001 0zM138.95 248a10.119 10.119 0 010 2h99.098a10.12 10.12 0 010-2H138.95zm218.1 0h-99.1l.016.166.008.1.008.136a10.162 10.162 0 010 1.193l-.004.07-.012.169-.015.166h99.098a10.12 10.12 0 010-2zM366 139.95v99.1a10.12 10.12 0 012 0v-99.1a10.119 10.119 0 01-2 0zm-119 0v99.1l.026-.003.119-.01.08-.008.18-.012A10.117 10.117 0 01248 239l.28.003h.01l.132.006a10.101 10.101 0 01.552.038l.026.002v-99.098a10.12 10.12 0 01-2 0zM257.95 129a10.119 10.119 0 010 2h99.1a10.12 10.12 0 010-2h-99.1zm337.1 119h-99.1a10.12 10.12 0 010 2h99.1a10.12 10.12 0 010-2zM604 139.95v99.1a10.12 10.12 0 012 0v-99.1l-.06.006a7.473 7.473 0 01-.215.018l.019-.003-.114.01a10.108 10.108 0 01-.63.019l-.273-.005.105.002h-.054l-.058-.002h-.003l-.16-.005-.187-.01a10.077 10.077 0 01-.312-.024l-.058-.005zm-119 0v99.1a10.12 10.12 0 012 0v-99.1a10.12 10.12 0 01-2 0zM495.95 129a10.119 10.119 0 010 2h99.1l-.005-.059-.001-.008-.01-.1v-.018l.002.018-.01-.108-.006-.095a10.098 10.098 0 01.024-1.57l.005-.06h-99.098zM615 487c0 .338-.017.671-.05 1h99.1a10.12 10.12 0 010-2h-99.1c.033.329.05.662.05 1zm-11-109.05v99.1a10.12 10.12 0 012 0v-99.1a10.12 10.12 0 01-2 0zm119 0v99.1a10.12 10.12 0 012 0v-99.1a10.119 10.119 0 01-2 0zM614.95 367a10.119 10.119 0 010 2h99.1a10.12 10.12 0 010-2h-99.1z" fill="#0071BB"/><path d="M614.95 367a10.12 10.12 0 010 2h99.1a10.12 10.12 0 010-2h-99.1zM604 258.95v99.1a10.12 10.12 0 012 0v-99.1a10.12 10.12 0 01-2 0zm119 0v99.1a10.12 10.12 0 012 0v-99.1a10.119 10.119 0 01-2 0zM615 249c0 .338-.017.671-.05 1h99.1a10.12 10.12 0 010-2h-99.1c.033.328.05.662.05 1zM376.95 367a10.12 10.12 0 010 2h99.1a10.12 10.12 0 010-2h-99.1zM485 258.95v99.1a10.12 10.12 0 012 0v-99.1a10.119 10.119 0 01-2 0zm-119.001 0v99.1a10.12 10.12 0 012.001 0v-99.1a10.12 10.12 0 01-2.001 0zM376.95 248a10.119 10.119 0 010 2h99.098a10.12 10.12 0 010-2H376.95z" fill="#0071BB"/><path d="M377 487c0 .338-.017.671-.05 1h99.1a10.12 10.12 0 010-2h-99.1c.033.329.05.662.05 1zm-11.001-109.05v99.1a10.12 10.12 0 012.001 0v-99.1a10.12 10.12 0 01-2.001 0zm119 0v99.1a10.12 10.12 0 012.002 0v-99.1a10.119 10.119 0 01-2.001 0zM376.952 367a10.119 10.119 0 010 2h99.098a10.12 10.12 0 010-2h-99.098zm-257.902 0h-99.1a10.12 10.12 0 010 2h99.1a10.12 10.12 0 010-2zm9.782-108.003h-.054l-.058-.002h-.003l-.16-.005-.187-.01a10.077 10.077 0 01-.312-.024l-.058-.005v99.098a10.12 10.12 0 012 0v-99.098l-.06.005a7.473 7.473 0 01-.215.018l.019-.003-.114.01a10.108 10.108 0 01-.63.019l-.273-.005.105.002zm-119.833-.046v99.098a10.12 10.12 0 012.001 0v-99.098a10.12 10.12 0 01-2.001 0zm110.027-9.226l-.006-.095a10.098 10.098 0 01.024-1.57l.005-.06H19.951a10.119 10.119 0 010 2h99.098l-.004-.059-.001-.008-.01-.1v-.018l.002.018-.01-.108z" fill="#0071BB"/><path d="M119.05 248h-99.1a10.12 10.12 0 010 2h99.1a10.12 10.12 0 010-2zM128 139.95v99.1a10.12 10.12 0 012 0v-99.1a10.119 10.119 0 01-2 0zm-119 0v99.1a10.12 10.12 0 012 0v-99.1a10.12 10.12 0 01-2 0zM19.95 129a10.119 10.119 0 010 2h99.1a10.12 10.12 0 010-2h-99.1zM615 130c0 .338-.017.671-.05 1h99.1a10.12 10.12 0 010-2h-99.1c.033.329.05.662.05 1zM604 20.95v99.1a10.12 10.12 0 012 0v-99.1a10.12 10.12 0 01-2 0zm119 0v99.1a10.12 10.12 0 012 0v-99.1a10.12 10.12 0 01-2 0zM614.95 10a10.119 10.119 0 010 2h99.1a10.12 10.12 0 010-2h-99.1zM136.742 136.33c-.423.517-.897.99-1.414 1.414l104.929 104.928c.423-.517.896-.991 1.413-1.414L136.742 136.33zm119 0c-.423.517-.897.99-1.414 1.414l104.929 104.928c.423-.517.896-.991 1.413-1.414L255.742 136.33zm222.515-.001L373.328 241.257l.07.058c.072.06.143.12.213.182l-.283-.24a10.054 10.054 0 011.357 1.344l.058.07 104.928-104.928a10.06 10.06 0 01-1.414-1.414zM374.742 255.33c-.423.517-.897.99-1.414 1.414l104.929 104.928c.423-.517.896-.991 1.413-1.414L374.742 255.33zm0 119c-.423.517-.897.99-1.414 1.414l104.929 104.928c.423-.517.896-.991 1.413-1.414L374.742 374.33zm222.515-.001L492.328 479.257a9.96 9.96 0 011.415 1.415l104.928-104.929a10.06 10.06 0 01-1.414-1.414zM493.742 255.33c-.423.517-.897.99-1.414 1.414l104.929 104.928c.423-.517.896-.991 1.413-1.414L493.742 255.33zm119 119c-.423.517-.897.99-1.414 1.414l104.929 104.928c.423-.517.896-.991 1.413-1.414L612.742 374.33z" fill="#0071BB"/><path d="M716.257 374.329L611.328 479.257a9.96 9.96 0 011.415 1.415l104.928-104.929a10.06 10.06 0 01-1.414-1.414zm0-238L611.328 241.257a9.96 9.96 0 011.415 1.415l104.928-104.929a10.06 10.06 0 01-1.414-1.414zm-595 119L16.329 360.257c.517.423.99.897 1.414 1.414L122.67 256.743a10.06 10.06 0 01-1.414-1.414zm119 0L135.329 360.257c.517.423.99.897 1.414 1.414L241.67 256.743a10.06 10.06 0 01-1.414-1.414z" fill="#0071BB"/><path d="M17.742 255.33c-.423.517-.897.99-1.414 1.414l104.929 104.928c.423-.517.896-.991 1.413-1.414L17.742 255.33zm103.515-119.001L16.328 241.257a9.96 9.96 0 011.415 1.415l104.928-104.929a10.06 10.06 0 01-1.414-1.414z" fill="#0071BB"/><path d="M17.742 136.33c-.423.517-.897.99-1.414 1.414l104.929 104.928c.423-.517.896-.991 1.413-1.414L17.742 136.33zM597.257 17.329L492.328 122.257a9.96 9.96 0 011.415 1.415L598.671 18.743a10.06 10.06 0 01-1.414-1.414zm-119 0L373.328 122.257a9.96 9.96 0 011.415 1.415L479.671 18.743a10.06 10.06 0 01-1.414-1.414zm-222.542.034a10.06 10.06 0 01-1.42 1.407l104.552 105.438c.39-.547.832-1.053 1.32-1.51L255.716 17.363z" fill="#0071BB"/><path d="M129 239c5.523 0 10 4.477 10 10s-4.477 10-10 10-10-4.477-10-10 4.477-10 10-10zm0 2a8 8 0 100 16 8 8 0 000-16zm0 117c5.523 0 10 4.477 10 10s-4.477 10-10 10-10-4.477-10-10 4.477-10 10-10zm0 2a8 8 0 100 16 8 8 0 000-16zM10 239c5.523 0 10 4.477 10 10s-4.477 10-10 10-10-4.477-10-10 4.477-10 10-10zm0 2a8 8 0 100 16 8 8 0 000-16zm0 117c5.523 0 10 4.477 10 10s-4.477 10-10 10-10-4.477-10-10 4.477-10 10-10zm0 2a8 8 0 100 16 8 8 0 000-16zm0-240c5.523 0 10 4.477 10 10s-4.477 10-10 10-10-4.477-10-10 4.477-10 10-10zm0 2a8 8 0 100 16 8 8 0 000-16zM129 1c5.523 0 10 4.477 10 10s-4.477 10-10 10-10-4.477-10-10 4.477-10 10-10zm0 2a8 8 0 100 16 8 8 0 000-16zm357-2c5.523 0 10 4.477 10 10s-4.477 10-10 10-10-4.477-10-10 4.477-10 10-10zm0 2a8 8 0 100 16 8 8 0 000-16zM367 1c5.523 0 10 4.477 10 10s-4.477 10-10 10-10-4.477-10-10 4.477-10 10-10zm0 2a8 8 0 100 16 8 8 0 000-16zm119 474c5.523 0 10 4.477 10 10s-4.477 10-10 10-10-4.477-10-10 4.477-10 10-10zm0 2a8 8 0 100 16 8 8 0 000-16zm-119-2c5.523 0 10 4.477 10 10s-4.477 10-10 10-10-4.477-10-10 4.477-10 10-10zm0 2a8 8 0 100 16 8 8 0 000-16zm357-2c5.523 0 10 4.477 10 10s-4.477 10-10 10-10-4.477-10-10 4.477-10 10-10zm0 2a8 8 0 100 16 8 8 0 000-16zm0-121c5.523 0 10 4.477 10 10s-4.477 10-10 10-10-4.477-10-10 4.477-10 10-10zm0 2a8 8 0 100 16 8 8 0 000-16zm0-240c5.523 0 10 4.477 10 10s-4.477 10-10 10-10-4.477-10-10 4.477-10 10-10zm0 2a8 8 0 100 16 8 8 0 000-16zm0-121c5.523 0 10 4.477 10 10s-4.477 10-10 10-10-4.477-10-10 4.477-10 10-10zm0 2a8 8 0 100 16 8 8 0 000-16zM605 477c5.523 0 10 4.477 10 10s-4.477 10-10 10-10-4.477-10-10 4.477-10 10-10zm0 2a8 8 0 100 16 8 8 0 000-16zm59.5-469c33.413 0 60.5 27.087 60.5 60.5S697.913 131 664.5 131 604 103.913 604 70.5 631.087 10 664.5 10zm0 2C632.191 12 606 38.191 606 70.5s26.191 58.5 58.5 58.5S723 102.809 723 70.5 696.809 12 664.5 12zm-238 117c33.413 0 60.5 27.087 60.5 60.5S459.913 250 426.5 250 366 222.913 366 189.5s27.087-60.5 60.5-60.5zm0 2c-32.309 0-58.5 26.191-58.5 58.5s26.191 58.5 58.5 58.5 58.5-26.191 58.5-58.5-26.191-58.5-58.5-58.5z" fill="#0071BB"/><path d="M426.5 248c33.413 0 60.5 27.087 60.5 60.5S459.913 369 426.5 369 366 341.913 366 308.5s27.087-60.5 60.5-60.5zm0 2c-32.309 0-58.5 26.191-58.5 58.5s26.191 58.5 58.5 58.5 58.5-26.191 58.5-58.5-26.191-58.5-58.5-58.5zm-238-121c33.413 0 60.5 27.087 60.5 60.5S221.913 250 188.5 250 128 222.913 128 189.5s27.087-60.5 60.5-60.5zm0 2c-32.309 0-58.5 26.191-58.5 58.5s26.191 58.5 58.5 58.5 58.5-26.191 58.5-58.5-26.191-58.5-58.5-58.5z" fill="#0071BB"/><path d="M69.5 129c33.413 0 60.5 27.087 60.5 60.5S102.913 250 69.5 250 9 222.913 9 189.5 36.087 129 69.5 129zm0 2C37.191 131 11 157.191 11 189.5S37.191 248 69.5 248s58.5-26.191 58.5-58.5S101.809 131 69.5 131zm119-121c33.413 0 60.5 27.087 60.5 60.5S221.913 131 188.5 131 128 103.913 128 70.5 155.087 10 188.5 10zm0 2C156.191 12 130 38.191 130 70.5s26.191 58.5 58.5 58.5S247 102.809 247 70.5 220.809 12 188.5 12z" fill="#0071BB"/><path d="M358.656 254.514l-105.14 105.143a10.054 10.054 0 012.827 2.828l105.143-105.141a10.054 10.054 0 01-2.83-2.83zM376.8 247a10.046 10.046 0 010 4h99.4a10.046 10.046 0 010-4h-99.4zm119 0a10.046 10.046 0 010 4h99.4a10.046 10.046 0 010-4h-99.4zM375.342 135.516a10.054 10.054 0 01-2.828 2.827l105.142 105.144a10.055 10.055 0 012.829-2.83l-105.143-105.14zm119 0a10.054 10.054 0 01-2.828 2.827l105.142 105.144a10.055 10.055 0 012.829-2.83l-105.143-105.14zm119 0a10.054 10.054 0 01-2.828 2.827l105.142 105.144a10.054 10.054 0 012.829-2.83l-105.143-105.14zm102.314 118.998L610.514 359.657a10.054 10.054 0 012.83 2.829l105.142-105.142a10.054 10.054 0 01-2.83-2.83zM603 258.8v99.4a10.046 10.046 0 014 0v-99.4a10.046 10.046 0 01-4 0zM495.8 366a10.046 10.046 0 010 4h99.4a10.046 10.046 0 010-4h-99.4zm-238 0a10.046 10.046 0 010 4h99.4a10.046 10.046 0 010-4h-99.4zM246 258.8v99.4a10.046 10.046 0 014 0v-99.4a10.046 10.046 0 01-4 0zm0-119v99.4a10.046 10.046 0 014 0v-99.4a10.046 10.046 0 01-4 0zm0-119v99.4a10.046 10.046 0 014 0V20.8a10.046 10.046 0 01-4 0zM139 130c0 .685-.069 1.354-.2 2h99.4a10.046 10.046 0 010-4h-99.4c.131.646.2 1.315.2 2zM603 20.8v99.4a10.046 10.046 0 014 0V20.8a10.046 10.046 0 01-4 0z" fill="#E21C3D"/><path d="M605 0c6.075 0 11 4.925 11 11s-4.925 11-11 11-11-4.925-11-11 4.925-11 11-11zm0 4a7 7 0 100 14 7 7 0 000-14zm0 115c6.075 0 11 4.925 11 11s-4.925 11-11 11-11-4.925-11-11 4.925-11 11-11zm0 4a7 7 0 100 14 7 7 0 000-14zm0 115c6.075 0 11 4.925 11 11s-4.925 11-11 11-11-4.925-11-11 4.925-11 11-11zm0 4a7 7 0 100 14 7 7 0 000-14zm119-4c6.075 0 11 4.925 11 11s-4.925 11-11 11-11-4.925-11-11 4.925-11 11-11zm0 4a7 7 0 100 14 7 7 0 000-14zm-476-4c6.075 0 11 4.925 11 11s-4.925 11-11 11-11-4.925-11-11 4.925-11 11-11zm0 4a7 7 0 100 14 7 7 0 000-14zm0 115c6.075 0 11 4.925 11 11s-4.925 11-11 11-11-4.925-11-11 4.925-11 11-11zm0 4a7 7 0 100 14 7 7 0 000-14zm119-123c6.075 0 11 4.925 11 11s-4.925 11-11 11-11-4.925-11-11 4.925-11 11-11zm0 4a7 7 0 100 14 7 7 0 000-14zm0 115c6.075 0 11 4.925 11 11s-4.925 11-11 11-11-4.925-11-11 4.925-11 11-11zm0 4a7 7 0 100 14 7 7 0 000-14zm238-4c6.075 0 11 4.925 11 11s-4.925 11-11 11-11-4.925-11-11 4.925-11 11-11zm0 4a7 7 0 100 14 7 7 0 000-14zm-119-4c6.075 0 11 4.925 11 11s-4.925 11-11 11-11-4.925-11-11 4.925-11 11-11zm0 4a7 7 0 100 14 7 7 0 000-14zm0-123c6.075 0 11 4.925 11 11s-4.925 11-11 11-11-4.925-11-11 4.925-11 11-11zm0 4a7 7 0 100 14 7 7 0 000-14zM248 119c6.075 0 11 4.925 11 11s-4.925 11-11 11-11-4.925-11-11 4.925-11 11-11zm0 4a7 7 0 100 14 7 7 0 000-14zm119-4c6.075 0 11 4.925 11 11s-4.925 11-11 11-11-4.925-11-11 4.925-11 11-11zm0 4a7 7 0 100 14 7 7 0 000-14zm119-4c6.075 0 11 4.925 11 11s-4.925 11-11 11-11-4.925-11-11 4.925-11 11-11zm0 4a7 7 0 100 14 7 7 0 000-14zm-357-4c6.075 0 11 4.925 11 11s-4.925 11-11 11-11-4.925-11-11 4.925-11 11-11zm0 4a7 7 0 100 14 7 7 0 000-14zM248 0c6.075 0 11 4.925 11 11s-4.925 11-11 11-11-4.925-11-11 4.925-11 11-11zm0 4a7 7 0 100 14 7 7 0 000-14z" fill="#E21C3D"/><path d="M605 477c5.523 0 10 4.477 10 10s-4.477 10-10 10-10-4.477-10-10 4.477-10 10-10zm0 2a8 8 0 100 16 8 8 0 000-16zm-119-2c5.523 0 10 4.477 10 10s-4.477 10-10 10-10-4.477-10-10 4.477-10 10-10zm0 2a8 8 0 100 16 8 8 0 000-16zm0-478c5.523 0 10 4.477 10 10s-4.477 10-10 10-10-4.477-10-10 4.477-10 10-10zm0 2a8 8 0 100 16 8 8 0 000-16z" fill="#0071BB"/><path d="M486 238c6.075 0 11 4.925 11 11s-4.925 11-11 11-11-4.925-11-11 4.925-11 11-11zm0 4a7 7 0 100 14 7 7 0 000-14z" fill="#E21C3D"/><path d="M605 477c5.523 0 10 4.477 10 10s-4.477 10-10 10-10-4.477-10-10 4.477-10 10-10zm0 2a8 8 0 100 16 8 8 0 000-16z" fill="#0071BB"/></g></svg>