<?xml version="1.0" encoding="UTF-8"?>
<svg width="122px" height="110px" viewBox="0 0 122 110" version="1.1" xmlns="http://www.w3.org/2000/svg" xmlns:xlink="http://www.w3.org/1999/xlink">
    <title>Group 12</title>
    <defs>
        <linearGradient x1="50%" y1="50%" x2="50%" y2="430.015346%" id="linearGradient-1">
            <stop stop-color="#EBF3FA" offset="0%"></stop>
            <stop stop-color="#0071BB" offset="100%"></stop>
        </linearGradient>
    </defs>
    <g id="hi-fi-[for-screenshots]" stroke="none" stroke-width="1" fill="none" fill-rule="evenodd">
        <g id="create-page-desktop-1440-v1" transform="translate(-210.000000, -744.000000)">
            <g id="Group-7" transform="translate(210.000000, 744.000000)">
                <g id="Group-4" transform="translate(4.265734, 4.341137)">
                    <ellipse id="Oval" fill="#F9FCFF" cx="53.3216783" cy="52.4615385" rx="52.2222623" ry="51.3798573"></ellipse>
                    <path d="M53.3216783,0 C23.8729286,0 0,23.4878308 0,52.4615385 C0,81.4352461 23.8729286,104.923077 53.3216783,104.923077 C82.7704281,104.923077 106.643357,81.4352461 106.643357,52.4615385 C106.643357,23.4878308 82.7704281,0 53.3216783,0 Z M52.7719703,4.32672482 C80.0955526,4.32672482 102.245692,26.1195575 102.245692,53.0023791 C102.245692,79.8852006 80.0955526,101.678033 52.7719703,101.678033 C25.448388,101.678033 3.29824814,79.8852006 3.29824814,53.0023791 C3.29824814,26.1195575 25.448388,4.32672482 52.7719703,4.32672482 Z" id="Oval" fill="url(#linearGradient-1)" fill-rule="nonzero" transform="translate(53.321678, 52.461538) scale(-1, 1) translate(-53.321678, -52.461538) "></path>
                </g>
                <path d="M57.5874126,0.110367893 C36.1342627,0.110367893 18.7692308,17.518871 18.7692308,39.0334448 C18.7692308,60.5445658 36.1308191,77.9565217 57.5874126,77.9565217 C65.1247139,77.9565217 72.5108121,75.7372786 78.7821399,71.6436067 C80.6612216,70.417059 81.0713169,67.8316564 79.6511663,66.0920459 L78.0582121,64.1407128 C76.8575094,62.6699541 74.7431707,62.3096018 73.1475555,63.3357271 C68.5316355,66.3042395 63.1149338,67.9118567 57.5874126,67.9118567 C41.7067066,67.9118567 28.7868261,54.9570639 28.7868261,39.0334448 C28.7868261,23.1098257 41.7067066,10.1550329 57.5874126,10.1550329 C73.2616622,10.1550329 86.3879991,19.1982134 86.3879991,35.2666954 C86.3879991,41.3540763 83.0864188,47.7820341 77.2829441,48.4021353 C74.5673932,48.3308809 74.6361076,46.3842562 75.1736142,43.6899318 L78.8414628,24.6819727 C79.2900632,22.3577314 77.514288,20.1996979 75.1534225,20.1996979 L68.1127748,20.1996979 C67.0365362,20.1996744 66.1317452,21.0097161 66.0103319,22.081974 L66.0087667,22.0964132 C63.7083198,19.286889 59.6776465,18.6788729 56.6218103,18.6788729 C44.9481813,18.6788729 35.0478231,28.4463679 35.0478231,42.4502004 C35.0478231,52.6993685 40.8055926,59.0662736 50.0742161,59.0662736 C54.2978847,59.0662736 59.0538946,56.6120794 61.8121769,53.0499901 C63.3026072,58.402541 68.1691237,58.402384 72.8800544,58.402384 C89.9268712,58.402384 96.4055944,47.1630317 96.4055944,35.2666954 C96.4055944,13.8673214 79.1914525,0.110367893 57.5874126,0.110367893 Z M53.1199026,52.7091205 C49.4041959,52.7091205 47.0960121,49.8130842 47.0960121,45.1513981 C47.0960121,36.8110432 52.2362762,31.6696195 56.887548,31.6696195 C60.6104359,31.6696195 62.8331128,34.4948444 62.8331128,39.2271565 C62.8331128,47.5801165 57.1757996,52.7091205 53.1199026,52.7091205 Z" id="Shape" fill="#CEDCED" fill-rule="nonzero"></path>
                <g id="Group-2" transform="translate(0.000000, 71.187291)" fill="#EBF3FA">
                    <rect id="Rectangle" x="0" y="0" width="122" height="29.6153846" rx="13.5"></rect>
                </g>
                <g id="user-circle-solid" transform="translate(4.265734, 74.571906)" fill="#112E51" fill-rule="nonzero">
                    <path d="M11.5174825,0 C5.15500226,0 0,5.11274814 0,11.4230769 C0,17.7334057 5.15500226,22.8461538 11.5174825,22.8461538 C17.8799628,22.8461538 23.034965,17.7334057 23.034965,11.4230769 C23.034965,5.11274814 17.8799628,0 11.5174825,0 Z M11.5174825,4.42183623 C13.7745376,4.42183623 15.6043312,6.23663151 15.6043312,8.4751861 C15.6043312,10.7137407 13.7745376,12.528536 11.5174825,12.528536 C9.26042748,12.528536 7.43063388,10.7137407 7.43063388,8.4751861 C7.43063388,6.23663151 9.26042748,4.42183623 11.5174825,4.42183623 Z M11.5174825,20.2667494 C8.79136871,20.2667494 6.34854782,19.0415323 4.71380837,17.1254032 C5.58690785,15.4948511 7.29595364,14.3709677 9.28829235,14.3709677 C9.39975186,14.3709677 9.51121137,14.3893921 9.61802673,14.4216346 C10.2217657,14.61509 10.8533696,14.7394541 11.5174825,14.7394541 C12.1815954,14.7394541 12.8178434,14.61509 13.4169383,14.4216346 C13.5237537,14.3893921 13.6352132,14.3709677 13.7466727,14.3709677 C15.7390114,14.3709677 17.4480572,15.4948511 18.3211567,17.1254032 C16.6864172,19.0415323 14.2435963,20.2667494 11.5174825,20.2667494 Z" id="Shape"></path>
                </g>
                <rect id="Rectangle" fill="#112E51" x="32.4195804" y="82.187291" width="47.7762238" height="8.46153846" rx="4.23076923"></rect>
                <rect id="Rectangle" fill="#112E51" x="85.3146853" y="82.187291" width="28.1538462" height="8.46153846" rx="4.23076923"></rect>
                <ellipse id="Oval" fill="#A6D5AF" cx="87.8741259" cy="71.187291" rx="5.97202797" ry="5.92307692"></ellipse>
                <ellipse id="Oval" fill="#FCF197" cx="34.1258741" cy="101.648829" rx="5.97202797" ry="5.92307692"></ellipse>
            </g>
        </g>
    </g>
</svg>