<svg width="122" height="110" xmlns="http://www.w3.org/2000/svg"><defs><linearGradient x1="50%" y1="50%" x2="50%" y2="430.015%" id="a"><stop stop-color="#EBF3FA" offset="0%"/><stop stop-color="#0071BB" offset="100%"/></linearGradient></defs><g fill="none" fill-rule="evenodd"><g transform="translate(4.266 4.341)"><ellipse fill="#F9FCFF" cx="53.322" cy="52.462" rx="52.222" ry="51.38"/><path d="M53.322 0C23.872 0 0 23.488 0 52.462c0 28.973 23.873 52.461 53.322 52.461 29.448 0 53.321-23.488 53.321-52.461C106.643 23.488 82.77 0 53.322 0zm-.55 4.327c27.324 0 49.474 21.793 49.474 48.675 0 26.883-22.15 48.676-49.474 48.676-27.324 0-49.474-21.793-49.474-48.676 0-26.882 22.15-48.675 49.474-48.675z" fill="url(#a)" fill-rule="nonzero" transform="matrix(-1 0 0 1 106.643 0)"/></g><path d="M57.587.11C36.134.11 18.77 17.52 18.77 39.033c0 21.512 17.362 38.924 38.818 38.924a38.85 38.85 0 0021.195-6.313c1.88-1.227 2.29-3.812.87-5.552l-1.594-1.951c-1.2-1.471-3.315-1.831-4.91-.805a28.821 28.821 0 01-15.56 4.576c-15.881 0-28.801-12.955-28.801-28.879 0-15.923 12.92-28.878 28.8-28.878 15.675 0 28.801 9.043 28.801 25.112 0 6.087-3.302 12.515-9.105 13.135-2.716-.071-2.647-2.018-2.11-4.712l3.668-19.008c.45-2.324-1.327-4.482-3.688-4.482h-7.04a2.12 2.12 0 00-2.103 1.882l-.001.014c-2.3-2.81-6.331-3.417-9.387-3.417-11.674 0-21.574 9.767-21.574 23.771 0 10.25 5.758 16.616 15.026 16.616 4.224 0 8.98-2.454 11.738-6.016 1.49 5.353 6.357 5.352 11.068 5.352 17.047 0 23.526-11.239 23.526-23.135C96.406 13.867 79.19.11 57.587.11zm-4.467 52.6c-3.716 0-6.024-2.897-6.024-7.559 0-8.34 5.14-13.481 9.792-13.481 3.722 0 5.945 2.825 5.945 7.557 0 8.353-5.657 13.482-9.713 13.482z" fill="#CEDCED" fill-rule="nonzero"/><rect width="122" height="29.615" rx="13.5" transform="translate(0 71.187)" fill="#EBF3FA"/><path d="M15.783 74.572c-6.362 0-11.517 5.113-11.517 11.423S9.42 97.418 15.783 97.418c6.363 0 11.518-5.113 11.518-11.423s-5.155-11.423-11.518-11.423zm0 4.422c2.257 0 4.087 1.815 4.087 4.053 0 2.239-1.83 4.053-4.087 4.053-2.257 0-4.087-1.814-4.087-4.053 0-2.238 1.83-4.053 4.087-4.053zm0 15.845a8.93 8.93 0 01-6.803-3.142 5.183 5.183 0 014.574-2.754c.111 0 .223.018.33.05a6.195 6.195 0 001.9.318c.663 0 1.3-.124 1.899-.317.106-.033.218-.051.33-.051a5.183 5.183 0 014.574 2.754 8.93 8.93 0 01-6.804 3.142z" fill="#112E51" fill-rule="nonzero"/><rect fill="#112E51" x="32.42" y="82.187" width="47.776" height="8.462" rx="4.231"/><rect fill="#112E51" x="85.315" y="82.187" width="28.154" height="8.462" rx="4.231"/><ellipse fill="#A6D5AF" cx="87.874" cy="71.187" rx="5.972" ry="5.923"/><ellipse fill="#FCF197" cx="34.126" cy="101.649" rx="5.972" ry="5.923"/></g></svg>