<svg width="122" height="110" viewBox="0 0 122 110" fill="none" xmlns="http://www.w3.org/2000/svg"><path d="M57.588 108.183c28.841 0 52.222-23.004 52.222-51.38S86.43 5.423 57.588 5.423c-28.841 0-52.222 23.004-52.222 51.38 0 28.377 23.38 51.38 52.222 51.38z" fill="#F9FCFF"/><path d="M57.587 4.341c29.45 0 53.322 23.488 53.322 52.462 0 28.973-23.873 52.461-53.322 52.461-29.448 0-53.321-23.488-53.321-52.46 0-28.975 23.873-52.463 53.32-52.463zm.55 4.327c-27.324 0-49.474 21.793-49.474 48.675 0 26.883 22.15 48.676 49.474 48.676 27.324 0 49.474-21.793 49.474-48.676 0-26.882-22.15-48.675-49.474-48.675z" fill="url(#paint0_linear)"/><path d="M57.587.11C36.134.11 18.77 17.52 18.77 39.033c0 21.512 17.362 38.924 38.818 38.924a38.85 38.85 0 0021.195-6.313c1.88-1.227 2.29-3.812.87-5.552l-1.594-1.95c-1.2-1.472-3.315-1.832-4.91-.806a28.82 28.82 0 01-15.56 4.576c-15.881 0-28.801-12.955-28.801-28.879 0-15.923 12.92-28.878 28.8-28.878 15.675 0 28.801 9.043 28.801 25.112 0 6.087-3.302 12.515-9.105 13.135-2.716-.07-2.647-2.018-2.11-4.712l3.668-19.008c.45-2.324-1.327-4.482-3.688-4.482h-7.04a2.12 2.12 0 00-2.103 1.882l-.001.014c-2.3-2.81-6.331-3.417-9.387-3.417-11.674 0-21.574 9.767-21.574 23.771 0 10.25 5.758 16.616 15.026 16.616 4.224 0 8.98-2.454 11.738-6.016 1.49 5.353 6.357 5.352 11.068 5.352 17.047 0 23.526-11.239 23.526-23.135C96.406 13.867 79.19.11 57.587.11zm-4.467 52.6c-3.716 0-6.024-2.897-6.024-7.559 0-8.34 5.14-13.48 9.792-13.48 3.722 0 5.945 2.824 5.945 7.556 0 8.353-5.657 13.482-9.713 13.482v.001z" fill="#CEDCED"/><path d="M108.5 71.187h-95c-7.456 0-13.5 6.044-13.5 13.5v2.615c0 7.456 6.044 13.5 13.5 13.5h95c7.456 0 13.5-6.044 13.5-13.5v-2.615c0-7.456-6.044-13.5-13.5-13.5z" fill="#EBF3FA"/><path d="M15.783 74.572c-6.362 0-11.517 5.113-11.517 11.423S9.42 97.418 15.783 97.418c6.363 0 11.518-5.113 11.518-11.423s-5.155-11.423-11.518-11.423zm0 4.422c2.257 0 4.087 1.815 4.087 4.053 0 2.239-1.83 4.053-4.087 4.053-2.257 0-4.087-1.814-4.087-4.053 0-2.238 1.83-4.053 4.087-4.053zm0 15.845a8.93 8.93 0 01-6.803-3.142 5.183 5.183 0 014.574-2.754c.111 0 .223.018.33.05a6.197 6.197 0 001.9.318c.663 0 1.3-.124 1.899-.317.106-.033.218-.051.33-.051a5.183 5.183 0 014.574 2.754 8.93 8.93 0 01-6.804 3.142zm60.182-12.652H36.651a4.231 4.231 0 000 8.462h39.314a4.231 4.231 0 100-8.462zm33.273 0H89.546a4.231 4.231 0 000 8.462h19.692a4.23 4.23 0 100-8.462z" fill="#112E51"/><path d="M87.874 77.11c3.298 0 5.972-2.652 5.972-5.923s-2.674-5.923-5.972-5.923c-3.298 0-5.972 2.652-5.972 5.923s2.674 5.923 5.972 5.923z" fill="#A6D5AF"/><path d="M34.126 107.572c3.298 0 5.972-2.652 5.972-5.923s-2.674-5.923-5.972-5.923c-3.298 0-5.972 2.652-5.972 5.923s2.674 5.923 5.972 5.923z" fill="#FCF197"/><defs><linearGradient id="paint0_linear" x1="57.587" y1="56.803" x2="57.587" y2="455.526" gradientUnits="userSpaceOnUse"><stop stop-color="#EBF3FA"/><stop offset="1" stop-color="#0071BB"/></linearGradient></defs></svg>