<?xml version="1.0" encoding="UTF-8"?>
<svg width="333px" height="154px" viewBox="0 0 333 154" version="1.1" xmlns="http://www.w3.org/2000/svg" xmlns:xlink="http://www.w3.org/1999/xlink">
    <title>who-uses-illo-our-partners</title>
    <g id="who-uses-illo-our-partners" stroke="none" stroke-width="1" fill="none" fill-rule="evenodd">
        <g id="USAJOBS.gov_logo" fill="#454545" fill-rule="nonzero">
            <path d="M107.167742,37.3275764 C107.167742,37.9845417 107.167742,38.7012312 107.106989,39.4179207 C107.046237,40.1346101 106.924731,40.8512996 106.68172,41.4485408 C106.499462,42.045782 105.77043,44.1958504 101.578495,43.5388851 L101.153226,43.5388851 L101.153226,50.7057798 L101.456989,50.7655039 C102.550538,51.0044004 103.583333,51.1238486 104.555376,51.1238486 C106.985484,51.1238486 108.92957,50.7655039 110.448387,50.0488144 C111.967204,49.3321249 113.121505,48.3168149 113.972043,47.1223324 C114.761828,45.92785 115.369355,44.494471 115.612366,42.9416439 C115.916129,41.3888167 116.037634,40.9707478 116.037634,39.3581965 L116.037634,1.01531008 L107.106989,1.01531008 L107.106989,37.3275764 L107.167742,37.3275764 Z" id="Path"></path>
            <path d="M24.0580645,22.3965458 C24.0580645,24.7855107 23.7543011,26.5772344 23.2075269,27.8911651 C22.6,29.2648199 21.8102151,30.2204058 20.655914,30.8176471 C19.5016129,31.4148883 18.1043011,31.7135089 16.5247312,31.7135089 C14.9451613,31.7135089 13.5478495,31.4148883 12.3935484,30.8176471 C11.3,30.2204058 10.4494624,29.2648199 9.84193548,27.9508892 C9.29516129,26.6966826 8.99139785,24.8452348 8.99139785,22.4562699 L8.99139785,0.955585955 L0.182258065,0.955585955 L0.182258065,22.993787 C0.182258065,24.5466142 0.243010753,25.920269 0.425268817,27.1744756 C0.607526882,28.4286822 0.911290323,29.6231646 1.33655914,30.6981988 C1.88333333,32.0121295 2.5516129,33.2663361 3.46290323,34.3413703 C4.37419355,35.4164045 5.46774194,36.3122663 6.6827957,37.0886799 C7.95860215,37.8053694 9.35591398,38.4026106 10.9962366,38.7609553 C12.5758065,39.1193 14.3983871,39.3581965 16.4032258,39.3581965 C18.4080645,39.3581965 20.2306452,39.1790242 21.8102151,38.7609553 C23.4505376,38.4026106 24.9086022,37.8053694 26.1844086,37.0886799 C27.4602151,36.3719904 28.6145161,35.4164045 29.4650538,34.3413703 C30.3763441,33.2663361 31.1053763,32.0718536 31.5913978,30.6981988 C32.0166667,29.6231646 32.3204301,28.4286822 32.5026882,27.1744756 C32.6849462,25.920269 32.7456989,24.4868901 32.7456989,22.993787 L32.7456989,0.955585955 L24.0580645,0.955585955 L24.0580645,22.3965458 Z" id="Path"></path>
            <path d="M60.5704301,18.7533744 C59.416129,17.9172367 58.0188172,17.3199954 56.5,16.8422025 C55.0419355,16.4241336 53.5231183,16.0657889 52.0043011,15.7074441 C51.0322581,15.5282718 50.1209677,15.2893753 49.3311828,15.1102029 C48.5413978,14.9310306 47.8731183,14.6324099 47.2655914,14.2740652 C46.7188172,13.9754446 46.3543011,13.6170999 46.0505376,13.1393069 C45.8075269,12.721238 45.6252688,12.1837209 45.6252688,11.4670315 C45.6252688,10.272549 46.0505376,9.43641131 46.9010753,8.83917009 C47.8731183,8.18220474 49.3919355,7.82386001 51.3360215,7.82386001 C52.794086,7.82386001 54.3736559,8.00303238 56.0139785,8.30165299 C57.6543011,8.6002736 59.416129,9.1377907 61.2387097,9.85448016 L62.7575269,10.4517214 L62.7575269,2.62786138 L62.0892473,2.32924077 C60.6311828,1.73199954 58.8693548,1.19448244 56.8037634,0.836137711 C52.7333333,0.0597241222 48.4806452,0.0597241222 45.2,0.955585955 C43.4989247,1.43337893 42.0408602,2.20979252 40.7650538,3.2251026 C39.4892473,4.24041268 38.4564516,5.55434337 37.7274194,7.04744642 C36.9983871,8.6002736 36.633871,10.3919973 36.633871,12.4226174 C36.633871,14.2740652 36.9376344,15.8866165 37.605914,17.1408231 C38.2741935,18.3950296 39.1247312,19.4700638 40.2790323,20.3062016 C41.3725806,21.0826151 42.5876344,21.7395805 43.9849462,22.2173735 C45.3215054,22.6354423 46.7188172,22.993787 48.1768817,23.3521318 C49.2096774,23.5910283 50.2424731,23.7702006 51.2145161,24.0090971 C52.1258065,24.1882695 52.9155914,24.4868901 53.6446237,24.7855107 C54.2521505,25.0841313 54.738172,25.4424761 55.1026882,25.8605449 C55.4064516,26.2188896 55.527957,26.7564067 55.527957,27.4133721 C55.527957,28.2495098 55.3456989,28.9064751 54.9811828,29.3842681 C54.6166667,29.9217852 54.0698925,30.3995782 53.4623656,30.6981988 C52.7333333,31.0565435 51.9435484,31.29544 51.0322581,31.4746124 C48.4198925,31.8926813 45.6252688,31.7135089 43.0736559,31.2357159 C41.4333333,30.8773712 39.7322581,30.3398541 38.0311828,29.6231646 L36.5123656,28.9661993 L36.5123656,36.7303352 L37.0591398,37.0289558 C38.3956989,37.7456452 40.1575269,38.3428865 42.1623656,38.7609553 C44.1064516,39.1790242 46.172043,39.3581965 48.2376344,39.3581965 C50.5462366,39.3581965 52.7333333,39.1193 54.738172,38.6415071 C56.7430108,38.1637141 58.5048387,37.4470246 59.9629032,36.4317145 C61.4209677,35.4164045 62.5752688,34.1024738 63.3650538,32.5496466 C64.1548387,30.9968194 64.5801075,29.1453716 64.5801075,27.1147515 C64.5801075,25.0841313 64.2155914,23.3521318 63.4865591,22.0382011 C62.7575269,20.6645463 61.7854839,19.5895121 60.5704301,18.7533744 Z" id="Path"></path>
            <path d="M102.550538,37.3873005 L87.7876344,0.955585955 L80.1935484,0.955585955 L64.883871,38.7012312 L74.3612903,38.7012312 L77.9456989,29.6231646 L90.1569892,29.6231646 L93.7413978,38.7012312 L103.158065,38.7012312 M87.1801075,21.978477 L80.9833333,21.978477 L81.6516129,20.2464774 C82.3806452,18.3950296 83.2311828,16.1852371 84.0817204,13.676824 C84.9930108,16.1852371 85.7827957,18.3950296 86.511828,20.2464774 L87.1801075,21.978477 Z" id="Shape"></path>
            <path d="M152.914516,5.79323985 C151.274194,4.06124031 149.269355,2.6875855 146.960753,1.73199954 C144.652151,0.776413589 141.979032,0.298620611 139.002151,0.298620611 C136.086022,0.298620611 133.412903,0.776413589 131.043548,1.73199954 C128.734946,2.6875855 126.730108,4.06124031 125.089785,5.79323985 C123.510215,7.5252394 122.234409,9.61558368 121.444624,12.0045486 C120.594086,14.3935135 120.22957,17.0213748 120.22957,19.8284086 C120.22957,22.6354423 120.654839,25.2633037 121.444624,27.6522686 C122.295161,30.0412335 123.510215,32.1315777 125.089785,33.8635773 C126.730108,35.5955768 128.734946,36.9692316 131.043548,37.9248176 C133.352151,38.8804036 136.025269,39.3581965 139.002151,39.3581965 C141.91828,39.3581965 144.591398,38.8804036 146.960753,37.9248176 C149.269355,36.9692316 151.274194,35.5955768 152.914516,33.8635773 C154.494086,32.1315777 155.769892,30.0412335 156.559677,27.6522686 C157.410215,25.2633037 157.774731,22.6354423 157.774731,19.8284086 C157.774731,17.0213748 157.349462,14.3935135 156.559677,12.0045486 C155.70914,9.61558368 154.494086,7.5252394 152.914516,5.79323985 Z M135.053226,30.9370953 C133.898925,30.4593023 132.866129,29.7426129 132.015591,28.7870269 C131.165054,27.8314409 130.496774,26.5772344 129.95,25.1438554 C129.463978,23.6507524 129.160215,21.8590287 129.160215,19.7686845 C129.160215,17.7380643 129.403226,15.9463406 129.95,14.3935135 C130.436022,12.9004104 131.104301,11.6462038 132.015591,10.6906179 C132.866129,9.73503192 133.898925,9.01834245 135.053226,8.54054948 C136.207527,8.0627565 137.544086,7.82386001 139.002151,7.82386001 C140.399462,7.82386001 141.736022,8.0627565 142.951075,8.54054948 C144.105376,9.01834245 145.138172,9.73503192 145.98871,10.6906179 C146.839247,11.6462038 147.507527,12.9004104 148.054301,14.3935135 C148.540323,15.8866165 148.844086,17.6783402 148.844086,19.7686845 C148.844086,21.7993046 148.601075,23.5910283 148.054301,25.1438554 C147.56828,26.6369585 146.9,27.8314409 145.98871,28.7870269 C145.138172,29.7426129 144.105376,30.4593023 142.951075,30.9370953 C140.58172,31.9524054 137.422581,31.9524054 135.053226,30.9370953 Z" id="Shape"></path>
            <path d="M190.034409,21.2020634 C189.426882,20.4853739 188.697849,19.8284086 187.847312,19.2908915 C187.543548,19.1117191 187.300538,18.9325467 186.996774,18.8130985 C187.968817,18.096409 188.697849,17.2005472 189.244624,16.2449612 C190.034409,14.8115823 190.459677,13.199031 190.459677,11.4670315 C190.459677,10.5114455 190.277419,9.49613543 189.973656,8.54054948 C189.669892,7.58496352 189.183871,6.62937756 188.515591,5.79323985 C187.847312,4.95710214 186.996774,4.12096443 186.024731,3.46399909 C185.052688,2.74730962 183.837634,2.20979252 182.501075,1.79172367 C180.739247,1.25420657 178.430645,0.955585955 175.636022,0.955585955 L161.905914,0.955585955 L161.905914,38.7012312 L173.57043,38.7012312 C174.603226,38.7012312 175.514516,38.7012312 176.304301,38.6415071 C177.154839,38.6415071 177.883871,38.5817829 178.552151,38.5220588 C179.22043,38.4623347 179.827957,38.4026106 180.435484,38.2831623 C180.982258,38.1637141 181.529032,38.10399 182.015054,37.9845417 C183.898387,37.5067487 185.53871,36.7900593 186.814516,35.9539216 C188.090323,35.1177839 189.123118,34.1621979 189.912903,33.1468878 C190.702688,32.1315777 191.249462,30.9968194 191.553226,29.9217852 C191.856989,28.846751 192.039247,27.8314409 192.039247,26.8161309 C192.039247,25.6813725 191.856989,24.6660625 191.553226,23.7104765 C191.127957,22.7548906 190.641935,21.9187528 190.034409,21.2020634 Z M180.860753,13.9157205 C180.556989,14.4532376 180.010215,14.8115823 179.281183,15.169927 C178.734409,15.3490994 177.701613,15.64772 175.636022,15.64772 L170.715054,15.64772 L170.715054,8.54054948 L175.089247,8.54054948 C176.000538,8.54054948 176.790323,8.54054948 177.397849,8.6002736 C178.005376,8.65999772 178.491398,8.71972184 178.916667,8.83917009 C179.827957,9.1377907 180.496237,9.49613543 180.8,10.0336525 C181.164516,10.5711696 181.346774,11.228135 181.346774,11.9448244 C181.346774,12.721238 181.225269,13.3184793 180.860753,13.9157205 Z M170.715054,23.1729594 L175.939785,23.1729594 C176.972581,23.1729594 177.883871,23.2326835 178.552151,23.2924077 C179.159677,23.3521318 179.706452,23.47158 180.192473,23.5910283 C181.164516,23.8896489 181.832796,24.3077177 182.258065,24.904959 C182.683333,25.4424761 182.865591,26.0994414 182.865591,26.875855 C182.865591,27.353648 182.804839,27.7717168 182.683333,28.1897857 C182.561828,28.5481304 182.37957,28.846751 182.075806,29.2050958 C181.772043,29.5037164 181.407527,29.802337 180.860753,30.1009576 C180.313978,30.3995782 179.645699,30.5787506 178.795161,30.7579229 C178.248387,30.8773712 177.580108,30.9968194 176.851075,31.0565435 C176.06129,31.1162677 175.089247,31.1759918 173.934946,31.1759918 L170.715054,31.1759918 L170.715054,23.1729594 Z" id="Shape"></path>
            <path d="M221.079032,22.0382011 C220.35,20.6645463 219.377957,19.5895121 218.162903,18.7533744 C217.008602,17.9172367 215.61129,17.3199954 214.092473,16.8422025 C212.634409,16.4241336 211.115591,16.0657889 209.596774,15.7074441 C208.624731,15.5282718 207.713441,15.2893753 206.923656,15.1102029 C206.133871,14.9310306 205.465591,14.6324099 204.858065,14.2740652 C204.31129,13.9754446 203.946774,13.6170999 203.643011,13.1393069 C203.4,12.721238 203.217742,12.1837209 203.217742,11.4670315 C203.217742,10.272549 203.643011,9.43641131 204.493548,8.83917009 C205.465591,8.18220474 206.984409,7.82386001 208.928495,7.82386001 C210.386559,7.82386001 211.966129,8.00303238 213.606452,8.30165299 C215.246774,8.6002736 217.008602,9.1377907 218.831183,9.85448016 L220.35,10.4517214 L220.35,2.62786138 L219.68172,2.32924077 C218.223656,1.73199954 216.461828,1.19448244 214.396237,0.836137711 C210.325806,0.0597241222 206.073118,0.0597241222 202.792473,0.955585955 C201.091398,1.43337893 199.633333,2.20979252 198.357527,3.2251026 C197.08172,4.24041268 196.048925,5.55434337 195.319892,7.04744642 C194.59086,8.6002736 194.226344,10.3919973 194.226344,12.4226174 C194.226344,14.2740652 194.530108,15.8866165 195.198387,17.1408231 C195.866667,18.3950296 196.717204,19.4700638 197.871505,20.3062016 C198.965054,21.0826151 200.180108,21.7395805 201.577419,22.2173735 C202.913978,22.6354423 204.31129,22.993787 205.769355,23.3521318 C206.802151,23.5910283 207.834946,23.7702006 208.806989,24.0090971 C209.71828,24.1882695 210.508065,24.4868901 211.237097,24.7855107 C211.844624,25.0841313 212.330645,25.4424761 212.695161,25.8605449 C212.998925,26.2188896 213.12043,26.7564067 213.12043,27.4133721 C213.12043,28.2495098 212.938172,28.9064751 212.573656,29.3842681 C212.20914,29.9217852 211.662366,30.3995782 211.054839,30.6981988 C210.325806,31.0565435 209.536022,31.29544 208.624731,31.4746124 C206.012366,31.8926813 203.217742,31.7135089 200.666129,31.2357159 C199.025806,30.8773712 197.324731,30.3398541 195.623656,29.6231646 L194.104839,28.9661993 L194.104839,36.7303352 L194.651613,37.0289558 C195.988172,37.7456452 197.75,38.3428865 199.754839,38.7609553 C201.698925,39.1790242 203.764516,39.3581965 205.830108,39.3581965 C208.13871,39.3581965 210.325806,39.1193 212.330645,38.6415071 C214.335484,38.1637141 216.097312,37.4470246 217.555376,36.4317145 C219.013441,35.4164045 220.167742,34.1024738 220.957527,32.5496466 C221.747312,30.9968194 222.172581,29.1453716 222.172581,27.1147515 C222.172581,25.0841313 221.808065,23.4118559 221.079032,22.0382011 Z" id="Path"></path>
            <path d="M222.111828,4.53903329 C222.111828,4.3001368 222.172581,4.06124031 222.233333,3.88206794 C222.294086,3.70289558 222.415591,3.52372321 222.597849,3.34455084 C222.719355,3.2251026 222.901613,3.10565435 223.144624,2.98620611 C223.326882,2.92648199 223.569892,2.86675787 223.812903,2.86675787 C224.055914,2.86675787 224.238172,2.92648199 224.481183,2.98620611 C224.663441,3.04593023 224.845699,3.16537848 225.027957,3.34455084 C225.149462,3.46399909 225.270968,3.64317145 225.392473,3.88206794 C225.453226,4.06124031 225.513978,4.3001368 225.513978,4.53903329 C225.513978,4.77792978 225.453226,5.01682627 225.392473,5.19599863 C225.33172,5.375171 225.210215,5.55434337 225.027957,5.73351573 C224.906452,5.85296398 224.724194,5.97241222 224.481183,6.09186047 C224.298925,6.15158459 224.055914,6.21130871 223.812903,6.21130871 C223.569892,6.21130871 223.387634,6.15158459 223.144624,6.09186047 C222.962366,6.03213634 222.780108,5.9126881 222.597849,5.73351573 C222.476344,5.61406749 222.354839,5.43489512 222.233333,5.19599863 C222.111828,4.95710214 222.111828,4.77792978 222.111828,4.53903329 Z M222.537097,4.53903329 C222.537097,4.71820565 222.537097,4.89737802 222.597849,5.01682627 C222.658602,5.19599863 222.719355,5.31544688 222.84086,5.43489512 C222.962366,5.55434337 223.083871,5.61406749 223.266129,5.73351573 C223.448387,5.79323985 223.569892,5.85296398 223.752151,5.85296398 C223.934409,5.85296398 224.116667,5.79323985 224.238172,5.73351573 C224.42043,5.67379161 224.541935,5.55434337 224.663441,5.43489512 C224.784946,5.31544688 224.845699,5.19599863 224.906452,5.01682627 C224.967204,4.8376539 224.967204,4.71820565 224.967204,4.53903329 C224.967204,4.35986092 224.967204,4.18068855 224.906452,4.06124031 C224.845699,3.88206794 224.784946,3.7626197 224.663441,3.64317145 C224.541935,3.52372321 224.42043,3.46399909 224.238172,3.40427497 C224.055914,3.34455084 223.934409,3.28482672 223.752151,3.28482672 C223.569892,3.28482672 223.387634,3.34455084 223.266129,3.40427497 C223.083871,3.46399909 222.962366,3.58344733 222.84086,3.64317145 C222.719355,3.7626197 222.658602,3.88206794 222.597849,4.06124031 C222.537097,4.18068855 222.537097,4.35986092 222.537097,4.53903329 Z M224.055914,4.65848153 L224.541935,5.31544688 L224.055914,5.31544688 L223.630645,4.71820565 L223.569892,4.71820565 L223.569892,5.31544688 L223.083871,5.31544688 L223.083871,3.70289558 L223.752151,3.70289558 C223.873656,3.70289558 223.934409,3.70289558 224.055914,3.70289558 C224.116667,3.70289558 224.238172,3.7626197 224.298925,3.7626197 C224.359677,3.82234382 224.42043,3.88206794 224.481183,3.94179207 C224.541935,4.00151619 224.541935,4.06124031 224.541935,4.18068855 C224.541935,4.3001368 224.481183,4.41958504 224.42043,4.47930917 C224.298925,4.59875741 224.177419,4.59875741 224.055914,4.65848153 L224.055914,4.65848153 Z M223.569892,4.00151619 L223.569892,4.41958504 L223.691398,4.41958504 C223.812903,4.41958504 223.873656,4.41958504 223.934409,4.35986092 C223.995161,4.3001368 223.995161,4.3001368 223.995161,4.18068855 C223.995161,4.12096443 223.995161,4.06124031 223.934409,4.06124031 C223.873656,4.00151619 223.812903,4.00151619 223.752151,4.00151619 L223.569892,4.00151619 Z" id="Shape"></path>
        </g>
        <g id="SBA" transform="translate(193.057465, 114.901678) scale(1, -1) translate(-193.057465, -114.901678) translate(53.057465, 76.401678)" fill="#454545" fill-rule="nonzero">
            <polygon id="Path" points="82.3986516 5.56840306 17.3180702 5.56840306 16.7061412 5.56840306 16.7061412 6.17921399 16.7061412 14.9080613 11.1257099 14.9080613 11.1257099 8.52651283e-14 82.3989338 8.52651283e-14 82.3989338 5.56898035"></polygon>
            <path d="M11.2286855,0.0119540461 L11.2286855,14.9211417 L16.8091168,14.9211417 L16.8091168,6.19201284 L16.8091168,5.58262401 L17.4218922,5.58262401 L81.8569717,5.58262401 L82.4697471,5.58262401 L82.4697471,6.19201284 L82.4697471,14.9211417 L88.0501785,14.9211417 L88.0501785,0.0119540461 L11.2286855,0.0119540461 L11.2286855,0.0119540461 Z M191.732223,19.9269161 L191.732223,31.9119386 C191.732223,32.6148196 191.867643,33.1498652 192.127198,33.5136963 C192.386753,33.8786537 192.826868,34.060006 193.436257,34.060006 C193.661957,34.060006 193.842517,34.0476155 193.989222,34.021708 C194.124642,33.9958006 194.248777,33.9552497 194.361627,33.9034348 L194.147212,32.6936684 C194.045647,32.7195759 193.977937,32.7330928 193.932797,32.7330928 L193.786092,32.7330928 C193.673242,32.7330928 193.571677,32.6812779 193.481397,32.5765216 C193.379832,32.4728917 193.345977,32.2892866 193.345977,32.0290854 L193.345977,19.9269161 L191.732223,19.9269161 Z M197.205447,19.9269161 L197.205447,31.9119386 C197.205447,32.6148196 197.340867,33.1498652 197.600422,33.5136963 C197.859977,33.8786537 198.300091,34.060006 198.909481,34.060006 C199.135181,34.060006 199.315741,34.0476155 199.462446,34.021708 C199.609151,33.9958006 199.733286,33.9552497 199.834851,33.9034348 L199.620436,32.6936684 C199.530156,32.7195759 199.462446,32.7330928 199.417306,32.7330928 L199.270601,32.7330928 C199.146466,32.7330928 199.044901,32.6812779 198.954621,32.5765216 C198.864341,32.4728917 198.819201,32.2892866 198.819201,32.0290854 L198.819201,19.9269161 L197.205447,19.9269161 Z M13.42926,20.1713475 C2.52772662,20.1713475 0.515837242,27.0097941 0.515837242,30.8891566 C0.515724392,38.5566423 5.75478455,39.8159708 11.1835455,41.1259878 L14.7868453,42.0000834 C18.342748,42.8730526 20.8683305,43.5995883 20.8683305,46.3164937 C20.8683305,50.0043662 17.1724938,50.8300261 13.8501905,50.8300261 C7.72130824,50.8300261 6.78397633,47.1421536 6.73793354,45.2024724 L0,45.2024724 C0,49.5188827 2.10544201,56.8428128 14.363545,56.8428128 C17.3100579,56.8428128 27.6064897,55.9225343 27.6064897,45.4423981 C27.6064897,39.1863065 23.3949286,37.2477517 18.8098341,36.0841682 L10.6214398,33.9958006 C9.21815032,33.657877 7.06621412,33.0732692 7.06621412,30.3574902 C7.06621412,27.2046633 10.2461008,26.1852606 12.9134228,26.1852606 C19.0434335,26.1852606 19.6042979,29.8720067 19.7927574,31.4242022 L26.5332865,31.4242022 C26.484761,27.1551012 23.723322,20.1713475 13.4291472,20.1713475 L13.42926,20.1713475 Z M239.366198,20.3166546 C239.050218,20.3166546 238.779378,20.4112732 238.564963,20.599384 C238.350548,20.7886212 238.248983,21.0386847 238.248983,21.3495743 C238.248983,21.6491999 238.350548,21.8981369 238.564963,22.0941326 C238.779378,22.2878754 239.050218,22.3858733 239.366198,22.3858733 C239.670893,22.3858733 239.941733,22.2878754 240.156148,22.0941326 C240.370563,21.8981369 240.472128,21.6491999 240.472128,21.3495743 C240.472128,21.0386847 240.370563,20.7886212 240.156148,20.599384 C239.941733,20.4112732 239.670893,20.3166546 239.366198,20.3166546 Z M138.297759,20.785242 C137.710939,20.785242 137.180544,20.8685965 136.684004,21.0375583 C136.198749,21.20652 135.769919,21.4453194 135.420085,21.750577 C135.058965,22.056961 134.77684,22.4185392 134.57371,22.8353116 C134.37058,23.2509576 134.269015,23.7003959 134.269015,24.1813738 C134.269015,24.6510876 134.34801,25.0622279 134.506,25.4204269 C134.66399,25.7786259 134.86712,26.0883891 135.11539,26.3485903 C135.36366,26.6087914 135.645785,26.831821 135.950479,27.0131733 C136.266459,27.195652 136.571154,27.3510969 136.875849,27.4817606 L138.715304,28.2826395 C139.008714,28.4256938 139.290839,28.5619896 139.550394,28.691527 C139.809949,28.8221908 140.035649,28.9686243 140.227494,29.131954 C140.419339,29.2941574 140.566043,29.4890266 140.678893,29.7165618 C140.791743,29.944097 140.848168,30.2211943 140.848168,30.5467274 C140.848168,31.1707596 140.611183,31.6765185 140.137214,32.0594985 C139.674529,32.443605 139.008714,32.6339686 138.162339,32.6339686 C137.496524,32.6339686 136.853279,32.4897879 136.232604,32.1957944 C135.61193,31.9040537 135.081535,31.516568 134.61885,31.0344637 L133.64834,32.1676341 C134.201305,32.7533683 134.86712,33.2151971 135.645785,33.5531207 C136.413164,33.8910443 137.248254,34.060006 138.139769,34.060006 C138.816869,34.060006 139.426259,33.9665138 139.967939,33.7784031 C140.498333,33.5891659 140.949733,33.3289647 141.333423,32.9966732 C141.705828,32.6655081 141.999238,32.2780224 142.202368,31.8353426 C142.405498,31.3937891 142.507063,30.9173169 142.507063,30.4093051 C142.507063,29.9407178 142.439353,29.5273246 142.303933,29.1691256 C142.168513,28.8120531 141.976668,28.500037 141.739683,28.231951 C141.502698,27.9661177 141.231858,27.7318241 140.904593,27.5301963 C140.577328,27.3285686 140.227494,27.1494691 139.866374,26.9928979 L138.049489,26.2122944 C137.789934,26.1086646 137.530379,25.994897 137.282109,25.8709916 C137.033839,25.7482127 136.808139,25.6029056 136.593724,25.4395759 C136.390594,25.278499 136.221319,25.0892618 136.097184,24.8741171 C135.973049,24.6600989 135.916624,24.3953921 135.916624,24.0822496 C135.916624,23.4976418 136.131039,23.0403186 136.571154,22.7080271 C137.011269,22.3757356 137.586804,22.210153 138.297759,22.210153 C138.895864,22.210153 139.437544,22.3171622 139.911514,22.5311804 C140.385484,22.7451987 140.825598,23.0436978 141.220573,23.4199194 L142.089518,22.3667243 C141.638118,21.8981369 141.085153,21.5174097 140.430624,21.2245426 C139.776094,20.9316755 139.065139,20.785242 138.297759,20.785242 L138.297759,20.785242 Z M157.85466,20.785242 C157.26784,20.785242 156.737445,20.8685965 156.240905,21.0375583 C155.75565,21.20652 155.338105,21.4453194 154.976985,21.750577 C154.615866,22.056961 154.333741,22.4185392 154.130611,22.8353116 C153.927481,23.2509576 153.825916,23.7003959 153.825916,24.1813738 C153.825916,24.6510876 153.904911,25.0622279 154.062901,25.4204269 C154.220891,25.7786259 154.424021,26.0883891 154.672291,26.3485903 C154.92056,26.6087914 155.202685,26.831821 155.518665,27.0131733 C155.82336,27.195652 156.128055,27.3510969 156.43275,27.4817606 L158.272205,28.2826395 C158.565615,28.4256938 158.84774,28.5619896 159.11858,28.691527 C159.378135,28.8221908 159.59255,28.9686243 159.784394,29.131954 C159.976239,29.2941574 160.122944,29.4890266 160.235794,29.7165618 C160.348644,29.944097 160.405069,30.2211943 160.405069,30.5467274 C160.405069,31.1707596 160.168084,31.6765185 159.694114,32.0594985 C159.23143,32.443605 158.565615,32.6339686 157.71924,32.6339686 C157.053425,32.6339686 156.41018,32.4897879 155.80079,32.1957944 C155.180115,31.9040537 154.638436,31.516568 154.187036,31.0344637 L153.205241,32.1676341 C153.769491,32.7533683 154.424021,33.2151971 155.202685,33.5531207 C155.970065,33.8910443 156.805155,34.060006 157.69667,34.060006 C158.385055,34.060006 158.98316,33.9665138 159.52484,33.7784031 C160.055234,33.5891659 160.517919,33.3289647 160.890324,32.9966732 C161.274014,32.6655081 161.556139,32.2780224 161.759269,31.8353426 C161.962399,31.3937891 162.063964,30.9173169 162.063964,30.4093051 C162.063964,29.9407178 161.996254,29.5273246 161.860834,29.1691256 C161.725414,28.8120531 161.533569,28.500037 161.296584,28.231951 C161.070884,27.9661177 160.788759,27.7318241 160.461494,27.5301963 C160.134229,27.3285686 159.784394,27.1494691 159.423275,26.9928979 L157.60639,26.2122944 C157.346835,26.1086646 157.08728,25.994897 156.83901,25.8709916 C156.59074,25.7482127 156.36504,25.6029056 156.16191,25.4395759 C155.947495,25.278499 155.77822,25.0892618 155.654085,24.8741171 C155.52995,24.6600989 155.473525,24.3953921 155.473525,24.0822496 C155.473525,23.4976418 155.68794,23.0403186 156.128055,22.7080271 C156.56817,22.3757356 157.143705,22.210153 157.85466,22.210153 C158.46405,22.210153 158.994445,22.3171622 159.4797,22.5311804 C159.953669,22.7451987 160.382499,23.0436978 160.777474,23.4199194 L161.657704,22.3667243 C161.195019,21.8981369 160.642054,21.5174097 159.987524,21.2245426 C159.34428,20.9316755 158.633325,20.785242 157.85466,20.785242 L157.85466,20.785242 Z M119.113263,21.0206621 L119.113263,28.5349557 C119.113263,29.5633698 119.226113,30.4284541 119.463098,31.1313351 C119.700083,31.8342162 120.027348,32.4041806 120.433608,32.8412284 C120.839868,33.2771498 121.336407,33.5891659 121.900657,33.7784031 C122.464907,33.9653874 123.074297,34.060006 123.728827,34.060006 C124.383357,34.060006 124.992747,33.9653874 125.545712,33.7784031 C126.109961,33.5891659 126.595216,33.2771498 127.001476,32.8412284 C127.419021,32.4041806 127.735001,31.8342162 127.971986,31.1313351 C128.208971,30.4284541 128.321821,29.5633698 128.321821,28.5349557 L128.321821,21.0206621 L126.764491,21.0206621 L126.764491,28.5755066 C126.764491,29.3425931 126.685496,29.9857743 126.527506,30.5061765 C126.369516,31.0265788 126.155101,31.4444776 125.884262,31.7564937 C125.613422,32.0685098 125.286157,32.2926658 124.925037,32.4289616 C124.552632,32.5663839 124.157657,32.6339686 123.728827,32.6339686 C123.311282,32.6339686 122.916307,32.5663839 122.555187,32.4289616 C122.194067,32.2926658 121.878087,32.0685098 121.607247,31.7564937 C121.336407,31.4444776 121.121993,31.0265788 120.975288,30.5061765 C120.817298,29.9857743 120.738303,29.3425931 120.738303,28.5755066 L120.738303,21.0206621 L119.113263,21.0206621 L119.113263,21.0206621 Z M207.28295,21.0206621 L207.28295,33.8268388 L211.368119,33.8268388 C212.090359,33.8268388 212.744888,33.7479899 213.354278,33.5914187 C213.952383,33.4348474 214.460208,33.2028066 214.889038,32.8896641 C215.329153,32.5765216 215.656418,32.1856567 215.893403,31.7170693 C216.130388,31.248482 216.243238,30.7021722 216.243238,30.07814 C216.243238,29.1916539 215.983683,28.4955313 215.464573,27.9875196 C214.945463,27.4806342 214.211938,27.1562276 213.275283,27.0131733 L213.275283,26.9343245 C214.020093,26.7394552 214.584343,26.3857619 214.956748,25.8709916 C215.317868,25.3573478 215.498428,24.7794985 215.498428,24.1419494 C215.498428,23.5832491 215.396863,23.1056505 215.171163,22.7080271 C214.956748,22.3104037 214.663338,21.9893763 214.279648,21.7415657 C213.895958,21.4948815 213.433273,21.3112763 212.891593,21.1941295 C212.349913,21.0769827 211.751809,21.0206621 211.097279,21.0206621 L207.28295,21.0206621 L207.28295,21.0206621 Z M82.4595906,21.0814883 L71.3754659,55.9349248 L78.373293,55.9349248 L85.1646046,33.0518674 L92.0676376,55.9349248 L99.0654646,55.9349248 L87.9960105,21.0814883 L82.4595906,21.0814883 Z M36.4822532,21.0927524 L36.4822532,55.9236607 L51.2565721,55.9236607 C58.3999756,55.9236607 60.2969837,54.7093887 62.2899143,52.7708338 C64.1361399,50.9753333 65.3030087,48.3541728 65.3030087,45.5899581 C65.3030087,42.1431377 64.1835369,38.7492587 59.9076513,37.1486274 C61.365673,36.4220918 64.1835369,35.0129505 64.1835369,30.0184402 C64.1835369,26.4285655 61.9976329,21.0927524 53.4424762,21.0927524 L36.4822532,21.0927524 L36.4822532,21.0927524 Z M208.905732,22.3070244 L210.880607,22.3070244 C211.884972,22.3070244 212.641066,22.4602165 213.137606,22.7643477 C213.645431,23.0707317 213.893701,23.5764906 213.893701,24.2782452 C213.893701,24.9946432 213.656716,25.5420794 213.182746,25.9194274 C212.708776,26.2979017 211.907542,26.4848861 210.801612,26.4848861 L208.905732,26.4848861 L208.905732,22.3070244 L208.905732,22.3070244 Z M169.396955,24.102525 C168.821421,24.102525 168.291026,24.2568434 167.805771,24.562101 C167.309231,24.8684851 166.857831,25.2480859 166.440286,25.7042827 L166.383861,25.7042827 L166.248441,24.3379451 L164.916811,24.3379451 L164.916811,33.8268388 L166.519281,33.8268388 L166.519281,26.9534735 C167.399511,25.9768744 168.189461,25.4902644 168.911701,25.4902644 C169.52109,25.4902644 169.97249,25.6885129 170.254615,26.0850099 C170.548025,26.4815069 170.683445,27.1291937 170.683445,28.026944 L170.683445,33.8268388 L172.285915,33.8268388 L172.285915,26.9534735 C173.166145,25.9768744 173.956094,25.4902644 174.678334,25.4902644 C175.276439,25.4902644 175.716554,25.6885129 176.009964,26.0850099 C176.292089,26.4815069 176.438794,27.1291937 176.438794,28.026944 L176.438794,33.8268388 L178.041264,33.8268388 L178.041264,27.8117993 C178.041264,26.588516 177.804279,25.6648583 177.330309,25.0396997 C176.856339,24.4156675 176.122814,24.102525 175.152304,24.102525 C174.565484,24.102525 174.012519,24.2703604 173.51598,24.6015255 C173.008155,24.933817 172.511615,25.3731176 172.015075,25.9194274 C171.82323,25.3472101 171.518535,24.901151 171.112275,24.5823765 C170.69473,24.2636019 170.13048,24.102525 169.396955,24.102525 L169.396955,24.102525 Z M184.902542,24.102525 C184.135162,24.102525 183.435493,24.236568 182.792248,24.5024012 C182.160288,24.7704872 181.618608,25.0475846 181.167208,25.3348196 L181.821738,26.4454617 C182.194143,26.1852606 182.622973,25.9520933 183.096943,25.7437071 C183.570912,25.5353209 184.090022,25.431691 184.654272,25.431691 C185.049247,25.431691 185.365227,25.4992757 185.613497,25.6355716 C185.861767,25.7729938 186.053612,25.9520933 186.211602,26.17287 C186.358307,26.3936468 186.459872,26.6482158 186.516297,26.9343245 C186.584007,27.2204331 186.606577,27.5121738 186.606577,27.8117993 C184.575277,28.0337025 183.096943,28.4223146 182.160288,28.9753828 C181.223633,29.528451 180.760948,30.3248242 180.760948,31.3667552 C180.760948,32.2262075 181.020503,32.8896641 181.550898,33.3582514 C182.081293,33.8268388 182.747108,34.060006 183.559627,34.060006 C184.146447,34.060006 184.699412,33.9248366 185.229807,33.6590034 C185.760202,33.3920438 186.245457,33.0710164 186.708142,32.6936684 L186.741997,32.6936684 L186.877417,33.8268388 L188.209047,33.8268388 L188.209047,28.007795 C188.209047,26.8228097 187.949492,25.8766237 187.430382,25.1669842 C186.911272,24.4573447 186.064897,24.102525 184.902542,24.102525 L184.902542,24.102525 Z M232.536517,24.102525 C232.028692,24.102525 231.566007,24.1723625 231.159748,24.3086584 C230.764773,24.4460806 230.414938,24.6341914 230.132813,24.8741171 C229.861973,25.1162957 229.636273,25.4001515 229.489568,25.732443 C229.342863,26.0647345 229.263868,26.4195542 229.263868,26.7969022 C229.263868,27.2012841 229.354148,27.5459661 229.523423,27.8309483 C229.692698,28.1181834 229.907113,28.3693732 230.177953,28.5833915 C230.448793,28.7985361 230.742203,28.9821413 231.080753,29.131954 C231.419302,29.2806404 231.769137,29.4146834 232.107687,29.5318303 C232.367242,29.6354602 232.626797,29.7379636 232.886352,29.8427199 C233.145907,29.9463498 233.382892,30.0668759 233.586022,30.2031717 C233.777867,30.3394676 233.947142,30.5005445 234.082562,30.6830232 C234.206697,30.8655019 234.274407,31.0795202 234.274407,31.3273308 C234.274407,31.7441032 234.116417,32.0944173 233.800437,32.3805259 C233.495742,32.6677609 233.021772,32.8096888 232.401097,32.8096888 C231.825562,32.8096888 231.317738,32.706059 230.877623,32.4976728 C230.448793,32.290413 230.019963,32.0155685 229.602418,31.6765185 L228.801183,32.7533683 C229.252583,33.1307162 229.782978,33.4427323 230.403653,33.6905429 C231.013043,33.9372271 231.656287,34.060006 232.333387,34.060006 C232.897637,34.060006 233.394177,33.9845364 233.834292,33.8347237 C234.274407,33.6860373 234.635527,33.4810303 234.928937,33.2219556 C235.222347,32.960628 235.448047,32.6621289 235.594752,32.3242053 C235.741457,31.9851553 235.820452,31.6201979 235.820452,31.2304594 C235.820452,30.7877795 235.730172,30.4104315 235.560897,30.097289 C235.380337,29.7852729 235.154637,29.5205661 234.883797,29.3054215 C234.601672,29.0914032 234.296977,28.9123037 233.947142,28.768123 C233.608592,28.6261951 233.258757,28.4887729 232.920207,28.3592355 C232.649367,28.2544792 232.389812,28.1553549 232.130257,28.0584835 C231.881987,27.9604857 231.656287,27.8500973 231.453157,27.726192 C231.261313,27.6022867 231.103323,27.458106 230.990473,27.2947763 C230.866338,27.132573 230.809913,26.9410829 230.809913,26.7203062 C230.809913,26.3553488 230.956618,26.0365742 231.238743,25.7628561 C231.509582,25.4902644 231.949697,25.3517158 232.559087,25.3517158 C232.976632,25.3517158 233.349037,25.4305646 233.710157,25.5871359 C234.059992,25.7437071 234.398542,25.9453348 234.725807,26.192019 L235.481902,25.1782483 C235.120782,24.8786228 234.691952,24.6251801 234.184127,24.4167939 C233.687587,24.2084077 233.134622,24.102525 232.536517,24.102525 L232.536517,24.102525 Z M248.549929,24.102525 C247.884114,24.102525 247.308579,24.2568434 246.800754,24.562101 C246.304214,24.8684851 245.818959,25.2480859 245.36756,25.7042827 L245.311135,25.7042827 L245.16443,24.3379451 L243.844085,24.3379451 L243.844085,33.8268388 L245.446555,33.8268388 L245.446555,26.9534735 C245.920524,26.4724956 246.349354,26.1086646 246.733044,25.8597275 C247.105449,25.6141697 247.545564,25.4902644 248.042104,25.4902644 C248.674064,25.4902644 249.125464,25.6885129 249.407589,26.0850099 C249.700999,26.4815069 249.847704,27.1291937 249.847704,28.026944 L249.847704,33.8268388 L251.450173,33.8268388 L251.450173,27.8117993 C251.450173,26.588516 251.213188,25.6648583 250.750503,25.0396997 C250.287819,24.4156675 249.554294,24.102525 248.549929,24.102525 L248.549929,24.102525 Z M258.582292,24.102525 C258.040612,24.102525 257.510217,24.217419 257.002392,24.4460806 C256.494567,24.6724894 256.043167,25.0014017 255.636907,25.431691 C255.241933,25.8597275 254.925953,26.3857619 254.688968,27.004162 C254.440698,27.6225621 254.327848,28.3198111 254.327848,29.1004145 C254.327848,29.8821444 254.440698,30.5793933 254.677683,31.191035 C254.914668,31.8026766 255.230648,32.3185733 255.636907,32.7421041 C256.054452,33.1645086 256.539707,33.491168 257.092672,33.7187032 C257.645637,33.945112 258.243742,34.060006 258.875702,34.060006 C259.530232,34.060006 260.117051,33.9620082 260.624876,33.7671389 C261.132701,33.5711433 261.595386,33.3447345 262.012931,33.0845333 L261.437396,32.0290854 C261.087561,32.2509886 260.715156,32.4289616 260.331466,32.5663839 C259.947777,32.7026797 259.530232,32.7702644 259.078832,32.7702644 C258.164747,32.7702644 257.419937,32.4717653 256.855687,31.8725142 C256.291437,31.2743894 255.975457,30.4611201 255.907747,29.432706 L262.317626,29.432706 C262.362766,29.1984123 262.385336,28.9055453 262.385336,28.5552312 C262.385336,27.8782576 262.295056,27.266616 262.125781,26.7203062 C261.956506,26.17287 261.708236,25.7054091 261.392256,25.3145442 C261.076276,24.9248057 260.670016,24.6229273 260.196046,24.4145411 C259.722077,24.2072813 259.191682,24.102525 258.582292,24.102525 L258.582292,24.102525 Z M267.892415,24.102525 C267.38459,24.102525 266.93319,24.1723625 266.52693,24.3086584 C266.12067,24.4460806 265.78212,24.6341914 265.499995,24.8741171 C265.21787,25.1162957 265.003455,25.4001515 264.856751,25.732443 C264.710046,26.0647345 264.631051,26.4195542 264.631051,26.7969022 C264.631051,27.2012841 264.710046,27.5459661 264.87932,27.8309483 C265.048595,28.1181834 265.274295,28.3693732 265.53385,28.5833915 C265.80469,28.7985361 266.109385,28.9821413 266.447935,29.131954 C266.786485,29.2806404 267.125035,29.4146834 267.463585,29.5318303 C267.72314,29.6354602 267.982695,29.7379636 268.253535,29.8427199 C268.51309,29.9463498 268.73879,30.0668759 268.94192,30.2031717 C269.14505,30.3394676 269.314325,30.5005445 269.43846,30.6830232 C269.57388,30.8655019 269.64159,31.0795202 269.64159,31.3273308 C269.64159,31.7441032 269.4836,32.0944173 269.16762,32.3805259 C268.85164,32.6677609 268.388955,32.8096888 267.756995,32.8096888 C267.18146,32.8096888 266.68492,32.706059 266.244805,32.4976728 C265.80469,32.290413 265.37586,32.0155685 264.958315,31.6765185 L264.157081,32.7533683 C264.619766,33.1307162 265.15016,33.4427323 265.75955,33.6905429 C266.380225,33.9372271 267.02347,34.060006 267.70057,34.060006 C268.26482,34.060006 268.76136,33.9845364 269.201475,33.8347237 C269.630305,33.6860373 270.002709,33.4810303 270.296119,33.2219556 C270.589529,32.960628 270.803944,32.6621289 270.961934,32.3242053 C271.108639,31.9851553 271.187634,31.6201979 271.187634,31.2304594 C271.187634,30.7877795 271.097354,30.4104315 270.916794,30.097289 C270.747519,29.7852729 270.521819,29.5205661 270.239694,29.3054215 C269.968854,29.0914032 269.664159,28.9123037 269.314325,28.768123 C268.96449,28.6261951 268.62594,28.4887729 268.28739,28.3592355 C268.01655,28.2544792 267.74571,28.1553549 267.49744,28.0584835 C267.237885,27.9604857 267.012185,27.8500973 266.82034,27.726192 C266.628495,27.6022867 266.470505,27.458106 266.34637,27.2947763 C266.23352,27.132573 266.177095,26.9410829 266.177095,26.7203062 C266.177095,26.3553488 266.312515,26.0365742 266.59464,25.7628561 C266.876765,25.4902644 267.31688,25.3517158 267.914985,25.3517158 C268.33253,25.3517158 268.71622,25.4305646 269.066055,25.5871359 C269.41589,25.7437071 269.765724,25.9453348 270.081704,26.192019 L270.849084,25.1782483 C270.487964,24.8786228 270.047849,24.6251801 269.55131,24.4167939 C269.043485,24.2084077 268.501805,24.102525 267.892415,24.102525 L267.892415,24.102525 Z M276.581863,24.102525 C276.074038,24.102525 275.611353,24.1723625 275.216378,24.3086584 C274.810118,24.4460806 274.460283,24.6341914 274.189444,24.8741171 C273.907319,25.1162957 273.692904,25.4001515 273.534914,25.732443 C273.388209,26.0647345 273.309214,26.4195542 273.309214,26.7969022 C273.309214,27.2012841 273.399494,27.5459661 273.568769,27.8309483 C273.738044,28.1181834 273.952459,28.3693732 274.223299,28.5833915 C274.494138,28.7985361 274.787548,28.9821413 275.137383,29.131954 C275.475933,29.2806404 275.814483,29.4146834 276.153033,29.5318303 C276.412588,29.6354602 276.672143,29.7379636 276.931698,29.8427199 C277.191253,29.9463498 277.428238,30.0668759 277.631368,30.2031717 C277.834498,30.3394676 277.992488,30.5005445 278.127908,30.6830232 C278.252043,30.8655019 278.319753,31.0795202 278.319753,31.3273308 C278.319753,31.7441032 278.161763,32.0944173 277.857068,32.3805259 C277.541088,32.6677609 277.067118,32.8096888 276.446443,32.8096888 C275.870908,32.8096888 275.363083,32.706059 274.922968,32.4976728 C274.494138,32.290413 274.065309,32.0155685 273.647764,31.6765185 L272.846529,32.7533683 C273.297929,33.1307162 273.839609,33.4427323 274.448998,33.6905429 C275.058388,33.9372271 275.701633,34.060006 276.378733,34.060006 C276.942983,34.060006 277.439523,33.9845364 277.879638,33.8347237 C278.319753,33.6860373 278.680873,33.4810303 278.974283,33.2219556 C279.267692,32.960628 279.493392,32.6621289 279.640097,32.3242053 C279.786802,31.9851553 279.865797,31.6201979 279.865797,31.2304594 C279.865797,30.7877795 279.775517,30.4104315 279.606242,30.097289 C279.425682,29.7852729 279.199983,29.5205661 278.929143,29.3054215 C278.658303,29.0914032 278.342323,28.9123037 277.992488,28.768123 C277.653938,28.6261951 277.304103,28.4887729 276.965553,28.3592355 C276.694713,28.2544792 276.435158,28.1553549 276.175603,28.0584835 C275.927333,27.9604857 275.701633,27.8500973 275.509788,27.726192 C275.306658,27.6022867 275.148668,27.458106 275.035818,27.2947763 C274.922968,27.132573 274.855258,26.9410829 274.855258,26.7203062 C274.855258,26.3553488 275.001963,26.0365742 275.284088,25.7628561 C275.554928,25.4902644 276.006328,25.3517158 276.604433,25.3517158 C277.021978,25.3517158 277.405668,25.4305646 277.755503,25.5871359 C278.105338,25.7437071 278.443888,25.9453348 278.771153,26.192019 L279.538532,25.1782483 C279.166128,24.8786228 278.737298,24.6251801 278.229473,24.4167939 C277.732933,24.2084077 277.179968,24.102525 276.581863,24.102525 L276.581863,24.102525 Z M218.58826,24.3379451 L218.58826,30.3507317 C218.58826,31.574015 218.825245,32.4976728 219.28793,33.1228313 C219.750615,33.7468635 220.48414,34.060006 221.49979,34.060006 C222.165604,34.060006 222.741139,33.9034348 223.237679,33.5914187 C223.722934,33.2794026 224.185619,32.8615038 224.637019,32.3411015 L224.693444,32.3411015 L224.828864,33.8268388 L226.160494,33.8268388 L226.160494,24.3379451 L224.558024,24.3379451 L224.558024,31.0738881 C224.095339,31.6337148 223.677794,32.0392231 223.305389,32.2926658 C222.921699,32.5472349 222.481584,32.673393 221.996329,32.673393 C221.36437,32.673393 220.91297,32.4751445 220.630845,32.0775211 C220.34872,31.6810241 220.2133,31.0355901 220.2133,30.1367134 L220.2133,24.3379451 L218.58826,24.3379451 L218.58826,24.3379451 Z M238.540136,24.3379451 L238.540136,33.8268388 L240.142606,33.8268388 L240.142606,24.3379451 L238.540136,24.3379451 Z M258.627432,25.3719912 C259.372242,25.3719912 259.947777,25.6299395 260.354036,26.1435833 C260.771581,26.6583536 260.974711,27.4029118 260.974711,28.3795109 L255.885177,28.3795109 C255.941602,27.8974066 256.043167,27.4716229 256.212442,27.1010334 C256.370432,26.7293175 256.573562,26.4173014 256.821832,26.1638587 C257.070102,25.9092896 257.352227,25.713294 257.656922,25.5758717 C257.961617,25.4395759 258.288882,25.3719912 258.627432,25.3719912 L258.627432,25.3719912 Z M43.4789518,27.1055391 L51.838878,27.1055391 C55.1442538,27.1055391 57.1868384,27.9796347 57.1868384,30.8429737 C57.1868384,33.6094413 54.9004979,34.724589 52.03298,34.724589 L43.4789518,34.724589 L43.4789518,27.1055391 L43.4789518,27.1055391 Z M208.905732,27.6969053 L211.140162,27.6969053 C212.268661,27.6969053 213.137606,27.8816369 213.735711,28.2511 C214.333816,28.6228159 214.638511,29.2051708 214.638511,29.9981648 C214.638511,30.871134 214.333816,31.5131888 213.713141,31.9232027 C213.103751,32.3332166 212.246091,32.5370972 211.140162,32.5370972 L208.905732,32.5370972 L208.905732,27.6969053 L208.905732,27.6969053 Z M186.606577,28.8672473 L186.606577,31.5030511 C186.155177,31.9209499 185.715062,32.2340924 185.308802,32.449237 C184.902542,32.6643817 184.462427,32.7702644 184.011027,32.7702644 C183.537057,32.7702644 183.142083,32.654244 182.826103,32.4210767 C182.510123,32.1867831 182.340848,31.7970446 182.340848,31.2507348 C182.340848,30.9511092 182.419843,30.6728855 182.555263,30.4183164 C182.701968,30.1648737 182.938953,29.9407178 183.277503,29.7458485 C183.604767,29.5509793 184.044882,29.3808911 184.597847,29.2367104 C185.139527,29.0947825 185.816627,28.9720036 186.606577,28.8672473 L186.606577,28.8672473 Z M130.689414,31.5999225 C130.362149,31.5999225 130.091309,31.7159429 129.854324,31.9434781 C129.628624,32.1710133 129.515774,32.4717653 129.515774,32.8491133 C129.515774,33.2016802 129.628624,33.491168 129.854324,33.7187032 C130.091309,33.945112 130.362149,34.060006 130.689414,34.060006 C131.005393,34.060006 131.276233,33.945112 131.501933,33.7187032 C131.727633,33.491168 131.840483,33.2016802 131.840483,32.8491133 C131.840483,32.4717653 131.727633,32.1710133 131.501933,31.9434781 C131.276233,31.7159429 131.005393,31.5999225 130.689414,31.5999225 Z M145.416335,31.5999225 C145.089071,31.5999225 144.818231,31.7159429 144.592531,31.9434781 C144.355546,32.1710133 144.242696,32.4717653 144.242696,32.8491133 C144.242696,33.2016802 144.355546,33.491168 144.592531,33.7187032 C144.818231,33.945112 145.089071,34.060006 145.416335,34.060006 C145.732315,34.060006 146.003155,33.945112 146.228855,33.7187032 C146.454555,33.491168 146.567405,33.2016802 146.567405,32.8491133 C146.567405,32.4717653 146.454555,32.1710133 146.228855,31.9434781 C146.003155,31.7159429 145.732315,31.5999225 145.416335,31.5999225 Z M43.4812088,40.5920685 L52.7631193,40.5920685 C55.3880098,40.5920685 58.0151572,41.7601577 58.0151572,44.8138603 C58.0151572,48.3552992 55.9725727,49.9063684 52.4234409,49.9063684 L43.4812088,49.9063684 L43.4812088,40.5920685 L43.4812088,40.5920685 Z M136.162637,41.889695 L136.162637,45.5392695 L136.241632,47.1613026 C135.824087,46.8222527 135.417828,46.5552931 135.011568,46.3604238 C134.605308,46.1644281 134.131338,46.0675567 133.589658,46.0675567 C133.036693,46.0675567 132.517583,46.1847035 132.021043,46.4189972 C131.524503,46.6544173 131.084388,46.984456 130.711984,47.4136189 C130.328294,47.8427818 130.023599,48.3688162 129.797899,48.9872163 C129.572199,49.60449 129.459349,50.2972333 129.459349,51.0654462 C129.459349,52.653687 129.809184,53.8769703 130.520139,54.7352961 C131.231093,55.5947484 132.190318,56.0250378 133.386528,56.0250378 C133.950778,56.0250378 134.469888,55.8898683 134.966428,55.6240351 C135.451683,55.3582019 135.891797,55.0405538 136.264202,54.6755963 L136.320627,54.6755963 L136.456047,55.7896177 L137.787677,55.7896177 L137.787677,41.889695 L136.162637,41.889695 L136.162637,41.889695 Z M158.619783,42.2794335 C158.303803,42.2794335 158.044248,42.3740521 157.829833,42.5632893 C157.615418,42.7514001 157.502568,43.0037164 157.502568,43.3146061 C157.502568,43.615358 157.615418,43.8609158 157.829833,44.0569115 C158.044248,44.2506543 158.303803,44.3486522 158.619783,44.3486522 C158.935763,44.3486522 159.195318,44.2506543 159.409733,44.0569115 C159.624147,43.8609158 159.736997,43.615358 159.736997,43.3146061 C159.736997,43.0037164 159.624147,42.7514001 159.409733,42.5632893 C159.195318,42.3740521 158.935763,42.2794335 158.619783,42.2794335 Z M175.107164,42.2794335 C174.791184,42.2794335 174.531629,42.3740521 174.317214,42.5632893 C174.102799,42.7514001 173.989949,43.0037164 173.989949,43.3146061 C173.989949,43.615358 174.102799,43.8609158 174.317214,44.0569115 C174.531629,44.2506543 174.791184,44.3486522 175.107164,44.3486522 C175.423144,44.3486522 175.682699,44.2506543 175.897114,44.0569115 C176.111529,43.8609158 176.224379,43.615358 176.224379,43.3146061 C176.224379,43.0037164 176.111529,42.7514001 175.897114,42.5632893 C175.682699,42.3740521 175.423144,42.2794335 175.107164,42.2794335 Z M220.585705,42.2794335 C220.269725,42.2794335 220.01017,42.3740521 219.795755,42.5632893 C219.58134,42.7514001 219.46849,43.0037164 219.46849,43.3146061 C219.46849,43.615358 219.58134,43.8609158 219.795755,44.0569115 C220.01017,44.2506543 220.269725,44.3486522 220.585705,44.3486522 C220.901685,44.3486522 221.16124,44.2506543 221.375655,44.0569115 C221.59007,43.8609158 221.70292,43.615358 221.70292,43.3146061 C221.70292,43.0037164 221.59007,42.7514001 221.375655,42.5632893 C221.16124,42.3740521 220.901685,42.2794335 220.585705,42.2794335 Z M121.80812,42.983441 L117.463396,55.7896177 L119.133576,55.7896177 L120.363641,51.8843477 L125.03563,51.8843477 L126.254409,55.7896177 L127.992299,55.7896177 L123.647575,42.983441 L121.80812,42.983441 L121.80812,42.983441 Z M188.818436,43.6468976 L188.626591,46.300724 L187.136972,46.3998482 L187.136972,47.6096146 L188.547596,47.6096146 L188.547596,52.8609468 C188.547596,53.3295341 188.592736,53.7598235 188.683016,54.1506884 C188.773296,54.5404269 188.931286,54.8727184 189.145701,55.1464365 C189.360116,55.4190282 189.642241,55.6330464 189.980791,55.7896177 C190.330626,55.9450625 190.759456,56.0250378 191.267281,56.0250378 C191.560691,56.0250378 191.865386,55.9878662 192.170081,55.9169022 C192.474776,55.8459383 192.768186,55.7637102 193.027741,55.6724708 L192.711761,54.4627045 C192.553771,54.5280364 192.384496,54.5866098 192.181366,54.6384247 C191.989521,54.6913661 191.808961,54.7161471 191.639686,54.7161471 C191.086721,54.7161471 190.703031,54.5573231 190.488616,54.2385485 C190.274201,53.9197739 190.172636,53.4669564 190.172636,52.8812222 L190.172636,47.6096146 L192.734331,47.6096146 L192.734331,46.300724 L190.172636,46.300724 L190.172636,43.6468976 L188.818436,43.6468976 L188.818436,43.6468976 Z M213.205316,43.6468976 L213.013471,46.300724 L211.523852,46.3998482 L211.523852,47.6096146 L212.934476,47.6096146 L212.934476,52.8609468 C212.934476,53.3295341 212.979616,53.7598235 213.069896,54.1506884 C213.160176,54.5404269 213.318166,54.8727184 213.532581,55.1464365 C213.746996,55.4190282 214.029121,55.6330464 214.367671,55.7896177 C214.717506,55.9450625 215.146336,56.0250378 215.654161,56.0250378 C215.958856,56.0250378 216.252266,55.9878662 216.568246,55.9169022 C216.872941,55.8459383 217.155065,55.7637102 217.41462,55.6724708 L217.09864,54.4627045 C216.940651,54.5280364 216.771376,54.5866098 216.568246,54.6384247 C216.376401,54.6913661 216.195841,54.7161471 216.026566,54.7161471 C215.473601,54.7161471 215.101196,54.5573231 214.875496,54.2385485 C214.661081,53.9197739 214.559516,53.4669564 214.559516,52.8812222 L214.559516,47.6096146 L217.12121,47.6096146 L217.12121,46.300724 L214.559516,46.300724 L214.559516,43.6468976 L213.205316,43.6468976 L213.205316,43.6468976 Z M122.654495,44.3092278 L122.73349,44.3092278 C122.93662,45.0515332 123.151035,45.7791953 123.354165,46.4877083 C123.56858,47.1973478 123.782995,47.9103665 124.01998,48.6256381 L124.62937,50.5777099 L120.769901,50.5777099 L121.37929,48.6256381 C121.616275,47.9103665 121.83069,47.1973478 122.045105,46.4877083 C122.248235,45.7791953 122.451365,45.0515332 122.654495,44.3092278 L122.654495,44.3092278 Z M145.574325,46.0675567 C144.998791,46.0675567 144.468396,46.2196223 143.983141,46.5248799 C143.486601,46.831264 143.035201,47.2131176 142.617656,47.6693144 L142.561231,47.6693144 L142.425811,46.300724 L141.094181,46.300724 L141.094181,55.7896177 L142.696651,55.7896177 L142.696651,48.9162524 C143.576881,47.9407797 144.366831,47.4530433 145.089071,47.4530433 C145.69846,47.4530433 146.14986,47.6535446 146.431985,48.0500416 C146.725395,48.4465386 146.860815,49.0942254 146.860815,49.9919757 L146.860815,55.7896177 L148.47457,55.7896177 L148.47457,48.9162524 C149.343515,47.9407797 150.133464,47.4530433 150.855704,47.4530433 C151.453809,47.4530433 151.893924,47.6535446 152.187334,48.0500416 C152.469459,48.4465386 152.616164,49.0942254 152.616164,49.9919757 L152.616164,55.7896177 L154.218634,55.7896177 L154.218634,49.776831 C154.218634,48.5546741 153.981649,47.62989 153.507679,47.0047314 C153.033709,46.3795728 152.300184,46.0675567 151.318389,46.0675567 C150.742854,46.0675567 150.189889,46.2331393 149.69335,46.5643043 C149.185525,46.8965959 148.688985,47.3358965 148.192445,47.8822063 C148.0006,47.3111154 147.695905,46.8639299 147.289645,46.5451553 C146.8721,46.2263808 146.30785,46.0675567 145.574325,46.0675567 L145.574325,46.0675567 Z M167.817056,46.0675567 C167.151241,46.0675567 166.564421,46.2196223 166.067881,46.5248799 C165.560056,46.831264 165.086086,47.2131176 164.623401,47.6693144 L164.566976,47.6693144 L164.431556,46.300724 L163.099927,46.300724 L163.099927,55.7896177 L164.702396,55.7896177 L164.702396,48.9162524 C165.187651,48.4352745 165.616481,48.0714434 165.988886,47.8225064 C166.372576,47.5769486 166.812691,47.4530433 167.309231,47.4530433 C167.929906,47.4530433 168.392591,47.6535446 168.674716,48.0500416 C168.956841,48.4465386 169.103546,49.0942254 169.103546,49.9919757 L169.103546,55.7896177 L170.706015,55.7896177 L170.706015,49.776831 C170.706015,48.5546741 170.480315,47.62989 170.01763,47.0047314 C169.54366,46.3795728 168.821421,46.0675567 167.817056,46.0675567 L167.817056,46.0675567 Z M182.261853,46.0675567 C181.754028,46.0675567 181.302628,46.1351414 180.896368,46.2725637 C180.490108,46.4088595 180.151558,46.5969703 179.869433,46.836896 C179.587308,47.0790746 179.372893,47.3651832 179.226188,47.6974747 C179.079483,48.0297662 179.000488,48.384586 179.000488,48.7619339 C179.000488,49.1663158 179.079483,49.5109978 179.248758,49.79598 C179.418033,50.0843415 179.643733,50.3332785 179.903288,50.5484232 C180.174128,50.7635678 180.478823,50.9449202 180.817373,51.0947329 C181.155923,51.2445457 181.494473,51.3774623 181.833023,51.4946092 C182.092578,51.5982391 182.363418,51.7041218 182.622973,51.8077517 C182.882528,51.9113816 183.108228,52.0319076 183.311358,52.1682035 C183.514488,52.3044993 183.683762,52.4633234 183.807897,52.6458021 C183.943317,52.8282808 184.011027,53.0445519 184.011027,53.2923625 C184.011027,53.7080085 183.853037,54.059449 183.537057,54.3455576 C183.221078,54.6327927 182.758393,54.7747206 182.126433,54.7747206 C181.550898,54.7747206 181.054358,54.6722171 180.614243,54.4627045 C180.174128,54.2554447 179.745298,53.9806002 179.327753,53.6415502 L178.526519,54.7161471 C178.989203,55.0934951 179.519598,55.4055112 180.140273,55.6533218 C180.749663,55.900006 181.392908,56.0250378 182.070008,56.0250378 C182.634258,56.0250378 183.130798,55.9484417 183.570912,55.798629 C183.999742,55.6499426 184.372147,55.4438092 184.665557,55.1847345 C184.958967,54.9234069 185.173382,54.6249078 185.331372,54.2869842 C185.478077,53.9479342 185.557072,53.5829768 185.557072,53.1932383 C185.557072,52.7505584 185.466792,52.3732104 185.286232,52.0600679 C185.116957,51.7480518 184.891257,51.4855979 184.609132,51.2704532 C184.338292,51.0564349 184.033597,50.8773354 183.683762,50.7331547 C183.333928,50.5912268 182.995378,50.454931 182.656828,50.3242672 C182.385988,50.2206373 182.115148,50.1181338 181.866878,50.0212624 C181.607323,49.9232646 181.381623,49.8128762 181.189778,49.6889709 C180.997933,49.5650656 180.839943,49.4231377 180.727093,49.259808 C180.602958,49.0976047 180.546533,48.9038618 180.546533,48.6830851 C180.546533,48.3192541 180.681953,47.9993531 180.964078,47.7267614 C181.246203,47.4530433 181.686318,47.3167475 182.284423,47.3167475 C182.701968,47.3167475 183.085658,47.3955963 183.435493,47.5521676 C183.796612,47.7087388 184.135162,47.9081137 184.462427,48.1547979 L185.218522,47.1410272 C184.857402,46.8425281 184.417287,46.587959 183.920747,46.3795728 C183.412923,46.1711866 182.871243,46.0675567 182.261853,46.0675567 L182.261853,46.0675567 Z M199.595609,46.0675567 C199.042644,46.0675567 198.546104,46.243277 198.083419,46.5958439 C197.620735,46.946158 197.22576,47.4215038 196.898495,48.0185021 L196.84207,48.0185021 L196.70665,46.300724 L195.37502,46.300724 L195.37502,55.7896177 L196.97749,55.7896177 L196.97749,49.6979822 C197.304755,48.8903449 197.67716,48.3237597 198.117274,47.9993531 C198.557389,47.6749465 198.974934,47.5127432 199.381194,47.5127432 C199.573039,47.5127432 199.742314,47.5240073 199.866449,47.5499147 C200.001869,47.5769486 200.148574,47.616373 200.306564,47.6693144 L200.611259,46.2635524 C200.317849,46.1328886 199.979299,46.0675567 199.595609,46.0675567 L199.595609,46.0675567 Z M205.836213,46.0675567 C205.068833,46.0675567 204.357878,46.2015997 203.725918,46.4674329 C203.082673,46.735519 202.540994,47.0114899 202.100879,47.2975985 L202.744123,48.4104934 C203.127813,48.1502923 203.545358,47.9148722 204.030613,47.706486 C204.504583,47.4980998 205.023693,47.3944699 205.576658,47.3944699 C205.971633,47.3944699 206.287613,47.4620546 206.535883,47.5983505 C206.784153,47.7357727 206.987283,47.917125 207.133988,48.1379017 C207.280693,48.3586785 207.393543,48.6132476 207.449967,48.8993562 C207.506392,49.1865912 207.540247,49.4772055 207.540247,49.776831 C205.497663,49.9987342 204.019328,50.3850935 203.082673,50.9381617 C202.157304,51.4912299 201.694619,52.2876031 201.694619,53.3295341 C201.694619,54.1889864 201.954174,54.852443 202.484569,55.3210303 C203.003678,55.7896177 203.680778,56.0250378 204.482013,56.0250378 C205.068833,56.0250378 205.633083,55.8898683 206.163478,55.6240351 C206.682588,55.3582019 207.179128,55.0337953 207.630527,54.6564473 L207.675667,54.6564473 L207.811087,55.7896177 L209.142717,55.7896177 L209.142717,49.9728267 C209.142717,48.7878414 208.883162,47.8416554 208.364052,47.1320159 C207.833657,46.4223765 206.998568,46.0675567 205.836213,46.0675567 L205.836213,46.0675567 Z M228.756043,46.0675567 C228.169223,46.0675567 227.616258,46.1790715 227.085863,46.3998482 C226.555469,46.6217514 226.092784,46.946158 225.686524,47.3764473 C225.280264,47.8067367 224.964284,48.3282654 224.716014,48.9466655 C224.479029,49.566192 224.354894,50.2724523 224.354894,51.0654462 C224.354894,51.8460497 224.479029,52.5466779 224.716014,53.165078 C224.964284,53.7834781 225.280264,54.3038804 225.686524,54.7262849 C226.092784,55.1498157 226.555469,55.4719695 227.085863,55.6927462 C227.616258,55.913523 228.169223,56.0250378 228.756043,56.0250378 C229.342863,56.0250378 229.907113,55.913523 230.426223,55.6927462 C230.956618,55.4719695 231.430587,55.1498157 231.825562,54.7262849 C232.231822,54.3038804 232.559087,53.7834781 232.796072,53.165078 C233.044342,52.5466779 233.157192,51.8460497 233.157192,51.0654462 C233.157192,50.2724523 233.044342,49.566192 232.796072,48.9466655 C232.559087,48.3282654 232.231822,47.8067367 231.825562,47.3764473 C231.430587,46.946158 230.956618,46.6217514 230.426223,46.3998482 C229.907113,46.1790715 229.342863,46.0675567 228.756043,46.0675567 Z M240.469871,46.0675567 C239.815341,46.0675567 239.228521,46.2196223 238.720696,46.5248799 C238.224156,46.831264 237.738901,47.2131176 237.287501,47.6693144 L237.231076,47.6693144 L237.084371,46.300724 L235.764027,46.300724 L235.764027,55.7896177 L237.366496,55.7896177 L237.366496,48.9162524 C237.851751,48.4352745 238.280581,48.0714434 238.652986,47.8225064 C239.036676,47.5769486 239.465506,47.4530433 239.962046,47.4530433 C240.594006,47.4530433 241.045405,47.6535446 241.338815,48.0500416 C241.62094,48.4465386 241.767645,49.0942254 241.767645,49.9919757 L241.767645,55.7896177 L243.370115,55.7896177 L243.370115,49.776831 C243.370115,48.5546741 243.13313,47.62989 242.670445,47.0047314 C242.20776,46.3795728 241.474235,46.0675567 240.469871,46.0675567 L240.469871,46.0675567 Z M157.795978,46.300724 L157.795978,55.7896177 L159.398448,55.7896177 L159.398448,46.300724 L157.795978,46.300724 Z M174.283359,46.300724 L174.283359,55.7896177 L175.885829,55.7896177 L175.885829,46.300724 L174.283359,46.300724 Z M219.7619,46.300724 L219.7619,55.7896177 L221.36437,55.7896177 L221.36437,46.300724 L219.7619,46.300724 Z M228.756043,47.3944699 C229.162303,47.3944699 229.534708,47.48233 229.873258,47.6580503 C230.211808,47.8337705 230.505218,48.0849604 230.742203,48.4104934 C230.979188,48.7360265 231.171033,49.1235121 231.306453,49.5718241 C231.430587,50.0212624 231.498297,50.5191365 231.498297,51.0654462 C231.498297,51.611756 231.430587,52.1073772 231.306453,52.5489307 C231.171033,52.9916106 230.979188,53.3712114 230.742203,53.6899859 C230.505218,54.0087605 230.211808,54.2576975 229.873258,54.4345442 C229.534708,54.6102644 229.162303,54.6958717 228.756043,54.6958717 C228.349783,54.6958717 227.988663,54.6102644 227.650113,54.4345442 C227.300278,54.2576975 227.018153,54.0087605 226.769883,53.6899859 C226.532899,53.3712114 226.352339,52.9916106 226.216919,52.5489307 C226.081499,52.1073772 226.025074,51.611756 226.025074,51.0654462 C226.025074,50.5191365 226.081499,50.0212624 226.216919,49.5718241 C226.352339,49.1235121 226.532899,48.7360265 226.769883,48.4104934 C227.018153,48.0849604 227.300278,47.8337705 227.650113,47.6580503 C227.988663,47.48233 228.349783,47.3944699 228.756043,47.3944699 Z M133.860498,47.4136189 C134.255473,47.4136189 134.627878,47.4890885 135.000283,47.6377749 C135.372688,47.7875877 135.756377,48.045536 136.162637,48.4104934 L136.162637,53.3689585 C135.778947,53.8116384 135.383973,54.1405507 134.988998,54.3545689 C134.605308,54.5697136 134.187763,54.6755963 133.736363,54.6755963 C132.912558,54.6755963 132.258028,54.3568218 131.806628,53.7192726 C131.343943,53.0817235 131.118243,52.1907317 131.118243,51.0462972 C131.118243,50.4999875 131.185953,50.0054927 131.332658,49.5628128 C131.479363,49.1201329 131.671208,48.7394057 131.919478,48.4195047 C132.167748,48.1007302 132.461158,47.854046 132.788423,47.6783257 C133.126973,47.5026054 133.476808,47.4136189 133.860498,47.4136189 Z M207.540247,50.8300261 L207.540247,53.46583 C207.077563,53.8837288 206.648733,54.1991241 206.231188,54.4142688 C205.824928,54.6294134 205.396098,54.7352961 204.933413,54.7352961 C204.470728,54.7352961 204.075753,54.6170229 203.748488,54.3838556 C203.432508,54.149562 203.274518,53.7598235 203.274518,53.2135137 C203.274518,52.9138881 203.342228,52.6379172 203.488933,52.3833481 C203.635638,52.1299055 203.872623,51.9034967 204.199888,51.7086274 C204.538438,51.5137582 204.978553,51.3459228 205.520233,51.2017421 C206.073198,51.0598142 206.739013,50.9347825 207.540247,50.8300261 L207.540247,50.8300261 Z M82.4121936,56.0205321 L82.4121936,76.6473865 L87.9598985,71.0468666 L87.9598985,56.0205321 L82.4121936,56.0205321 Z" id="Shape" transform="translate(139.932899, 38.329670) scale(-1, 1) rotate(-180.000000) translate(-139.932899, -38.329670) "></path>
        </g>
    </g>
</svg>